<svg width="1440" height="1386" viewBox="0 0 1440 1386" fill="none" xmlns="http://www.w3.org/2000/svg">
<mask id="mask0_751_2475" style="mask-type:alpha" maskUnits="userSpaceOnUse" x="0" y="0" width="1440" height="1386">
<g opacity="0.3">
<path d="M1089.21 77.3571C1087.46 70.9643 1082.83 65.6388 1075.84 62.0207C1059.01 53.2625 1030.02 54.3604 1000.24 64.9511C979.884 72.1665 961.771 82.9018 949.24 95.1138C936.116 107.927 930.563 121.039 933.589 132.051C935.342 138.444 939.968 143.77 946.956 147.388C958.849 153.563 976.737 154.84 996.717 151.339C1005.07 149.875 1013.79 147.585 1022.56 144.457C1042.91 137.242 1061.03 126.506 1073.56 114.294C1086.68 101.481 1092.24 88.3688 1089.21 77.3571ZM1016.08 122.11C996.977 128.906 979.299 126.364 976.604 116.488C973.909 106.612 987.179 93.1103 1006.28 86.3141C1025.38 79.518 1043.06 82.0593 1045.76 91.9353C1048.46 101.844 1035.19 115.346 1016.08 122.11Z" fill="white"/>
<path d="M1240.38 34.978C1236.09 29.9278 1229.64 27.0607 1221.78 26.7403C1202.82 25.9321 1177.03 39.194 1154.53 61.3945C1139.13 76.549 1127.27 93.9417 1121.08 110.31C1114.62 127.474 1115.14 141.705 1122.54 150.399C1126.83 155.45 1133.28 158.317 1141.14 158.637C1154.53 159.198 1171.28 152.783 1187.9 141.155C1194.85 136.29 1201.78 130.528 1208.39 123.983C1223.79 108.829 1235.65 91.4358 1241.83 75.0678C1248.3 57.9039 1247.78 43.6734 1240.38 34.978ZM1193.07 106.477C1178.64 120.72 1161.55 125.9 1154.92 118.093C1148.3 110.286 1154.61 92.4362 1169.04 78.1937C1183.47 63.9513 1200.56 58.7715 1207.18 66.5783C1213.82 74.4121 1207.51 92.2618 1193.07 106.477Z" fill="white"/>
<path d="M1375.01 14.7241C1368.12 12.0529 1360.46 12.3632 1352.92 15.6534C1334.74 23.5555 1318.21 47.4655 1309.86 78.0651C1304.13 98.9683 1302.98 120.315 1306.55 138.134C1310.31 156.81 1318.92 169.614 1330.81 174.209C1337.71 176.88 1345.37 176.57 1352.9 173.28C1365.74 167.691 1377.73 154.178 1386.61 135.948C1390.34 128.32 1393.52 119.882 1395.96 110.868C1401.69 89.9648 1402.84 68.6176 1399.28 50.7992C1395.52 32.1224 1386.9 19.318 1375.01 14.7241ZM1371.64 101.812C1366.29 121.441 1353.27 133.978 1342.62 129.842C1331.97 125.706 1327.67 106.474 1333.02 86.8448C1338.37 67.2158 1351.39 54.6788 1362.04 58.8147C1372.72 62.9667 1377.02 82.1989 1371.64 101.812Z" fill="white"/>
<path d="M889.994 98.9536C890.663 92.3589 888.268 85.7243 883.054 79.8309C870.505 65.5933 843.074 56.1722 811.477 55.3181C789.886 54.7113 769.123 58.1976 753.032 65.0727C736.172 72.2951 726.266 82.5246 725.121 93.8874C724.452 100.482 726.847 107.117 732.061 113.01C740.93 123.056 757.155 130.694 777.053 134.63C785.379 136.276 794.332 137.281 803.636 137.523C825.228 138.13 845.992 134.643 862.082 127.768C878.943 120.546 888.849 110.316 889.994 98.9536ZM805.65 114.343C785.382 113.798 769.808 105.056 770.854 94.8728C771.899 84.6894 789.144 76.8769 809.41 77.4218C829.678 77.9667 845.252 86.708 844.206 96.8916C843.154 107.107 825.911 114.92 805.65 114.343Z" fill="white"/>
<path d="M878.49 262.994C879.114 250.257 876.882 237.443 872.025 226.06C860.332 198.562 834.775 180.366 805.336 178.717C785.22 177.545 765.873 184.278 750.882 197.556C735.173 211.506 725.944 231.264 724.877 253.209C724.253 265.946 726.485 278.76 731.344 290.143C739.606 309.547 754.724 324.299 773.263 331.9C781.02 335.08 789.361 337.02 798.031 337.487C818.147 338.659 837.494 331.925 852.486 318.647C868.194 304.698 877.423 284.941 878.49 262.994ZM799.906 292.717C781.023 291.665 766.514 274.782 767.487 255.113C768.461 235.444 784.527 220.355 803.411 221.408C822.294 222.46 836.804 239.343 835.83 259.012C834.85 278.742 818.784 293.832 799.906 292.717Z" fill="white"/>
<path d="M1069.82 251.753C1068.56 239.067 1064.74 226.67 1058.77 216.031C1044.37 190.321 1018.89 175.608 992.285 177.772C974.099 179.208 957.73 188.368 946.195 203.444C934.112 219.277 928.662 240.023 930.834 261.884C932.092 274.57 935.917 286.967 941.892 297.606C952.058 315.746 967.702 328.397 985.39 333.529C992.792 335.676 1000.54 336.52 1008.37 335.865C1026.56 334.429 1042.93 325.269 1054.46 310.193C1066.54 294.36 1071.99 273.614 1069.82 251.753ZM1003.67 291.309C986.606 292.704 971.203 277.864 969.271 258.27C967.34 238.678 979.581 221.67 996.645 220.277C1013.71 218.881 1029.11 233.722 1031.04 253.315C1032.98 272.97 1020.74 289.977 1003.67 291.309Z" fill="white"/>
<path d="M1230.93 225.627C1223.43 215.317 1214.23 206.247 1204.39 199.498C1180.64 183.173 1154.57 180.481 1136.46 192.58C1124.05 200.812 1116.97 214.916 1116.45 232.192C1115.93 250.32 1122.76 270.072 1135.67 287.833C1143.17 298.143 1152.36 307.214 1162.21 313.964C1178.97 325.477 1196.85 330.209 1212.31 327.754C1218.77 326.727 1224.82 324.459 1230.14 320.88C1242.55 312.648 1249.63 298.544 1250.15 281.27C1250.67 263.14 1243.84 243.388 1230.93 225.627ZM1203.62 284.786C1192 292.551 1173.16 285.866 1161.59 269.94C1150.03 254.015 1150.05 234.825 1161.67 227.06C1173.29 219.295 1192.13 225.982 1203.69 241.907C1215.29 257.883 1215.27 277.073 1203.62 284.786Z" fill="white"/>
<path d="M1372.3 208.57C1360.98 202.706 1348.7 198.714 1336.87 197.086C1308.33 193.125 1283.81 202.389 1273.03 221.318C1265.63 234.235 1265.61 250.019 1272.88 265.696C1280.53 282.139 1295.48 296.745 1314.98 306.843C1326.29 312.706 1338.58 316.698 1350.4 318.325C1370.55 321.113 1388.66 317.338 1401.38 308.224C1406.7 304.411 1411.09 299.677 1414.24 294.094C1421.66 281.177 1421.67 265.395 1414.4 249.716C1406.74 233.273 1391.8 218.667 1372.3 208.57ZM1374.37 273.697C1367.46 285.841 1347.62 288.299 1330.15 279.237C1312.67 270.176 1304.1 253.005 1311.02 240.861C1317.93 228.716 1337.77 226.259 1355.24 235.32C1372.76 244.413 1381.33 261.582 1374.37 273.697Z" fill="white"/>
<path d="M1089.21 422.795C1087.46 416.403 1082.83 411.077 1075.84 407.46C1059.01 398.7 1030.02 399.798 1000.24 410.389C979.884 417.604 961.771 428.34 949.24 440.552C936.116 453.366 930.563 466.477 933.589 477.49C935.342 483.882 939.968 489.207 946.956 492.826C958.849 499.001 976.737 500.277 996.717 496.778C1005.07 495.312 1013.79 493.024 1022.56 489.896C1042.91 482.68 1061.03 471.944 1073.56 459.733C1086.68 446.919 1092.24 433.807 1089.21 422.795ZM1016.08 467.548C996.977 474.345 979.299 471.803 976.604 461.927C973.909 452.051 987.179 438.548 1006.28 431.752C1025.38 424.957 1043.06 427.498 1045.76 437.373C1048.46 447.282 1035.19 460.785 1016.08 467.548Z" fill="white"/>
<path d="M1240.38 380.418C1236.09 375.367 1229.64 372.5 1221.78 372.18C1202.82 371.371 1177.03 384.633 1154.53 406.834C1139.13 421.989 1127.27 439.381 1121.08 455.749C1114.62 472.913 1115.14 487.143 1122.54 495.84C1126.83 500.889 1133.28 503.756 1141.14 504.077C1154.53 504.637 1171.28 498.223 1187.9 486.595C1194.85 481.73 1201.78 475.967 1208.39 469.422C1223.79 454.267 1235.65 436.875 1241.83 420.507C1248.3 403.343 1247.78 389.113 1240.38 380.418ZM1193.07 451.917C1178.64 466.159 1161.55 471.338 1154.92 463.533C1148.3 455.726 1154.61 437.875 1169.04 423.633C1183.47 409.39 1200.56 404.211 1207.18 412.018C1213.82 419.852 1207.51 437.701 1193.07 451.917Z" fill="white"/>
<path d="M1375.01 360.163C1368.12 357.492 1360.46 357.803 1352.92 361.092C1334.74 368.995 1318.21 392.904 1309.86 423.504C1304.13 444.408 1302.98 465.754 1306.55 483.572C1310.31 502.25 1318.92 515.054 1330.81 519.648C1337.71 522.319 1345.37 522.009 1352.9 518.718C1365.74 513.129 1377.73 499.617 1386.61 481.386C1390.34 473.759 1393.52 465.321 1395.96 456.308C1401.69 435.404 1402.84 414.057 1399.28 396.238C1395.52 377.562 1386.9 364.757 1375.01 360.163ZM1371.64 447.251C1366.29 466.88 1353.27 479.418 1342.62 475.281C1331.97 471.145 1327.67 451.913 1333.02 432.283C1338.37 412.655 1351.39 400.118 1362.04 404.254C1372.72 408.406 1377.02 427.638 1371.64 447.251Z" fill="white"/>
<path d="M889.994 444.394C890.663 437.799 888.268 431.164 883.054 425.271C870.505 411.034 843.074 401.613 811.477 400.759C789.886 400.152 769.123 403.637 753.032 410.514C736.172 417.736 726.266 427.965 725.121 439.328C724.452 445.922 726.847 452.557 732.061 458.45C740.93 468.496 757.155 476.135 777.053 480.07C785.379 481.717 794.332 482.721 803.636 482.964C825.228 483.571 845.992 480.084 862.082 473.209C878.943 465.987 888.849 455.756 889.994 444.394ZM805.65 459.783C785.382 459.238 769.808 450.497 770.854 440.313C771.899 430.13 789.144 422.317 809.41 422.862C829.678 423.408 845.252 432.149 844.206 442.332C843.154 452.548 825.911 460.36 805.65 459.783Z" fill="white"/>
<path d="M878.49 608.434C879.114 595.697 876.882 582.883 872.025 571.501C860.332 544.002 834.775 525.806 805.336 524.156C785.22 522.984 765.873 529.718 750.882 542.996C735.173 556.945 725.944 576.702 724.877 598.649C724.253 611.386 726.485 624.2 731.344 635.583C739.606 654.985 754.724 669.739 773.263 677.338C781.02 680.52 789.361 682.46 798.031 682.927C818.147 684.1 837.494 677.365 852.486 664.087C868.194 650.137 877.423 630.381 878.49 608.434ZM799.906 638.157C781.023 637.104 766.514 620.221 767.487 600.553C768.461 580.884 784.527 565.795 803.411 566.847C822.294 567.9 836.804 584.783 835.83 604.451C834.85 624.182 818.784 639.272 799.906 638.157Z" fill="white"/>
<path d="M1069.82 597.193C1068.56 584.505 1064.74 572.11 1058.77 561.471C1044.37 535.761 1018.89 521.047 992.285 523.212C974.099 524.647 957.73 533.807 946.195 548.884C934.112 564.717 928.662 585.463 930.834 607.322C932.092 620.009 935.917 632.405 941.892 643.045C952.058 661.184 967.702 673.836 985.39 678.968C992.792 681.114 1000.54 681.96 1008.37 681.304C1026.56 679.869 1042.93 670.709 1054.46 655.632C1066.54 639.799 1071.99 619.053 1069.82 597.193ZM1003.67 636.749C986.606 638.143 971.203 623.304 969.271 603.711C967.34 584.117 979.581 567.109 996.645 565.715C1013.71 564.322 1029.11 579.16 1031.04 598.754C1032.98 618.409 1020.74 635.417 1003.67 636.749Z" fill="white"/>
<path d="M1230.93 571.067C1223.43 560.757 1214.23 551.685 1204.39 544.937C1180.64 528.612 1154.57 525.92 1136.46 538.019C1124.05 546.251 1116.97 560.356 1116.45 577.631C1115.93 595.759 1122.76 615.512 1135.67 633.272C1143.17 643.582 1152.36 652.654 1162.21 659.402C1178.97 670.915 1196.85 675.648 1212.31 673.194C1218.77 672.166 1224.82 669.897 1230.14 666.32C1242.55 658.087 1249.63 643.983 1250.15 626.709C1250.67 608.579 1243.84 588.827 1230.93 571.067ZM1203.62 630.227C1192 637.992 1173.16 631.305 1161.59 615.379C1150.03 599.454 1150.05 580.265 1161.67 572.5C1173.29 564.734 1192.13 571.421 1203.69 587.346C1215.29 603.324 1215.27 622.512 1203.62 630.227Z" fill="white"/>
<path d="M1372.3 554.01C1360.98 548.146 1348.7 544.155 1336.87 542.527C1308.33 538.566 1283.81 547.83 1273.03 566.758C1265.63 579.675 1265.61 595.459 1272.88 611.136C1280.53 627.579 1295.48 642.185 1314.98 652.283C1326.29 658.146 1338.58 662.138 1350.4 663.766C1370.55 666.553 1388.66 662.779 1401.38 653.665C1406.7 649.851 1411.09 645.117 1414.24 639.534C1421.66 626.617 1421.67 610.835 1414.4 595.156C1406.74 578.713 1391.8 564.107 1372.3 554.01ZM1374.37 619.137C1367.46 631.281 1347.62 633.739 1330.15 624.677C1312.67 615.616 1304.1 598.445 1311.02 586.301C1317.93 574.156 1337.77 571.7 1355.24 580.76C1372.76 589.853 1381.33 607.022 1374.37 619.137Z" fill="white"/>
<path d="M350.576 77.3571C352.329 70.9643 356.954 65.6388 363.941 62.0207C380.78 53.2625 409.762 54.3604 439.542 64.9511C459.901 72.1665 478.014 82.9018 490.545 95.1138C503.669 107.927 509.223 121.039 506.196 132.051C504.443 138.444 499.817 143.77 492.83 147.388C480.936 153.563 463.048 154.84 443.07 151.339C434.71 149.875 425.996 147.585 417.23 144.457C396.871 137.242 378.758 126.506 366.227 114.294C353.103 101.481 347.549 88.3688 350.576 77.3571ZM423.706 122.11C442.808 128.906 460.486 126.364 463.181 116.488C465.876 106.612 452.606 93.1103 433.504 86.3141C414.402 79.518 396.725 82.0593 394.03 91.9353C391.329 101.844 404.599 115.346 423.706 122.11Z" fill="white"/>
<path d="M199.398 34.978C203.692 29.9278 210.137 27.0607 217.999 26.7403C236.96 25.9321 262.754 39.194 285.253 61.3945C300.644 76.549 312.511 93.9417 318.694 110.31C325.162 127.474 324.643 141.705 317.24 150.399C312.947 155.45 306.501 158.317 298.639 158.637C285.25 159.198 268.503 152.783 251.883 141.155C244.93 136.29 238.004 130.528 231.385 123.983C215.994 108.829 204.128 91.4358 197.944 75.0678C191.476 57.9039 191.995 43.6734 199.398 34.978ZM246.712 106.477C261.142 120.72 278.234 125.9 284.855 118.093C291.477 110.286 285.17 92.4362 270.739 78.1937C256.31 63.9513 239.219 58.7715 232.597 66.5783C225.956 74.4121 232.263 92.2618 246.712 106.477Z" fill="white"/>
<path d="M64.7712 14.7241C71.6689 12.0529 79.3305 12.3632 86.8621 15.6534C105.046 23.5555 121.578 47.4655 129.924 78.0651C135.652 98.9683 136.807 120.315 133.236 138.134C129.475 156.81 120.861 169.614 108.974 174.209C102.076 176.88 94.4149 176.57 86.8833 173.28C74.0491 167.691 62.0605 154.178 53.1699 135.948C49.4499 128.32 46.2689 119.882 43.8216 110.868C38.0932 89.9648 36.9389 68.6176 40.5094 50.7992C44.2702 32.1224 52.884 19.318 64.7712 14.7241ZM68.1473 101.812C73.4978 121.441 86.5131 133.978 97.1621 129.842C107.811 125.706 112.113 106.474 106.762 86.8448C101.412 67.2158 88.3966 54.6788 77.7477 58.8147C67.0658 62.9667 62.7641 82.1989 68.1473 101.812Z" fill="white"/>
<path d="M549.79 98.9536C549.12 92.3589 551.516 85.7243 556.73 79.8309C569.28 65.5933 596.71 56.1722 628.306 55.3181C649.897 54.7113 670.662 58.1976 686.751 65.0727C703.612 72.2951 713.518 82.5246 714.662 93.8874C715.332 100.482 712.936 107.117 707.723 113.01C698.853 123.056 682.627 130.694 662.73 134.63C654.405 136.276 645.451 137.281 636.146 137.523C614.555 138.13 593.791 134.643 577.701 127.768C560.84 120.546 550.935 110.316 549.79 98.9536ZM634.134 114.343C654.401 113.798 669.974 105.056 668.93 94.8728C667.884 84.6894 650.64 76.8769 630.372 77.4218C610.106 77.9667 594.532 86.708 595.577 96.8916C596.628 107.107 613.873 114.92 634.134 114.343Z" fill="white"/>
<path d="M561.29 262.994C560.666 250.257 562.898 237.443 567.755 226.06C579.448 198.562 605.005 180.366 634.444 178.717C654.561 177.545 673.907 184.278 688.898 197.556C704.607 211.506 713.836 231.264 714.903 253.209C715.527 265.946 713.295 278.76 708.436 290.143C700.174 309.547 685.056 324.299 666.517 331.9C658.76 335.08 650.419 337.02 641.749 337.487C621.633 338.659 602.286 331.925 587.294 318.647C571.586 304.698 562.357 284.941 561.29 262.994ZM639.875 292.717C658.757 291.665 673.267 274.782 672.293 255.113C671.319 235.444 655.253 220.355 636.369 221.408C617.487 222.46 602.976 239.343 603.95 259.012C604.93 278.742 620.996 293.832 639.875 292.717Z" fill="white"/>
<path d="M369.963 251.753C371.219 239.067 375.045 226.67 381.018 216.031C395.411 190.321 420.897 175.608 447.5 177.772C465.685 179.208 482.054 188.368 493.589 203.444C505.67 219.277 511.122 240.023 508.949 261.884C507.692 274.57 503.867 286.967 497.893 297.606C487.726 315.746 472.082 328.397 454.394 333.529C446.992 335.676 439.244 336.52 431.411 335.865C413.226 334.429 396.857 325.269 385.323 310.193C373.241 294.36 367.789 273.614 369.963 251.753ZM436.114 291.309C453.178 292.704 468.581 277.864 470.512 258.27C472.444 238.678 460.203 221.67 443.139 220.277C426.075 218.881 410.672 233.722 408.742 253.315C406.807 272.97 419.046 289.977 436.114 291.309Z" fill="white"/>
<path d="M208.861 225.627C216.354 215.317 225.553 206.247 235.395 199.498C259.146 183.173 285.213 180.481 303.328 192.58C315.736 200.812 322.82 214.916 323.337 232.192C323.857 250.32 317.032 270.072 304.116 287.833C296.623 298.143 287.423 307.214 277.581 313.964C260.814 325.477 242.935 330.209 227.48 327.754C221.013 326.727 214.971 324.459 209.649 320.88C197.241 312.648 190.157 298.544 189.64 281.27C189.12 263.14 195.944 243.388 208.861 225.627ZM236.171 284.786C247.788 292.551 266.629 285.866 278.194 269.94C289.759 254.015 289.733 234.825 278.117 227.06C266.5 219.295 247.659 225.982 236.094 241.907C224.494 257.883 224.52 277.073 236.171 284.786Z" fill="white"/>
<path d="M67.4859 208.57C78.8024 202.706 91.0899 198.714 102.912 197.086C131.458 193.125 155.971 202.389 166.752 221.318C174.16 234.235 174.18 250.019 166.907 265.696C159.255 282.139 144.308 296.745 124.807 306.843C113.491 312.706 101.203 316.698 89.381 318.325C69.234 321.113 51.128 317.338 38.4073 308.224C33.0848 304.411 28.6981 299.677 25.5403 294.094C18.1324 281.177 18.114 265.395 25.3862 249.716C33.0381 233.273 47.9848 218.667 67.4859 208.57ZM65.4177 273.697C72.328 285.841 92.1681 288.299 109.64 279.237C127.112 270.176 135.681 253.005 128.771 240.861C121.86 228.716 102.02 226.259 84.5482 235.32C67.0224 244.413 58.4531 261.582 65.4177 273.697Z" fill="white"/>
<path d="M350.576 422.795C352.329 416.403 356.954 411.077 363.941 407.46C380.78 398.7 409.762 399.798 439.542 410.389C459.901 417.604 478.014 428.34 490.545 440.552C503.669 453.366 509.223 466.477 506.196 477.49C504.443 483.882 499.817 489.207 492.83 492.826C480.936 499.001 463.048 500.277 443.07 496.778C434.71 495.312 425.996 493.024 417.23 489.896C396.871 482.68 378.758 471.944 366.227 459.733C353.103 446.919 347.549 433.807 350.576 422.795ZM423.706 467.548C442.808 474.345 460.486 471.803 463.181 461.927C465.876 452.051 452.606 438.548 433.504 431.752C414.402 424.957 396.725 427.498 394.03 437.373C391.329 447.282 404.599 460.785 423.706 467.548Z" fill="white"/>
<path d="M199.398 380.418C203.692 375.367 210.137 372.5 217.999 372.18C236.96 371.371 262.754 384.633 285.253 406.834C300.644 421.989 312.511 439.381 318.694 455.749C325.162 472.913 324.643 487.143 317.24 495.84C312.947 500.889 306.501 503.756 298.639 504.077C285.25 504.637 268.503 498.223 251.883 486.595C244.93 481.73 238.004 475.967 231.385 469.422C215.994 454.267 204.128 436.875 197.944 420.507C191.476 403.343 191.995 389.113 199.398 380.418ZM246.712 451.917C261.142 466.159 278.234 471.338 284.855 463.533C291.477 455.726 285.17 437.875 270.739 423.633C256.31 409.39 239.219 404.211 232.597 412.018C225.956 419.852 232.263 437.701 246.712 451.917Z" fill="white"/>
<path d="M64.7712 360.163C71.6689 357.492 79.3305 357.803 86.8621 361.092C105.046 368.995 121.578 392.904 129.924 423.504C135.652 444.408 136.807 465.754 133.236 483.572C129.475 502.25 120.861 515.054 108.974 519.648C102.076 522.319 94.4149 522.009 86.8833 518.718C74.0491 513.129 62.0605 499.617 53.1699 481.386C49.4499 473.759 46.2689 465.321 43.8216 456.308C38.0932 435.404 36.9389 414.057 40.5094 396.238C44.2702 377.562 52.884 364.757 64.7712 360.163ZM68.1473 447.251C73.4978 466.88 86.5131 479.418 97.1621 475.281C107.811 471.145 112.113 451.913 106.762 432.283C101.412 412.655 88.3966 400.118 77.7477 404.254C67.0658 408.406 62.7641 427.638 68.1473 447.251Z" fill="white"/>
<path d="M549.79 444.394C549.12 437.799 551.516 431.164 556.73 425.271C569.28 411.034 596.71 401.613 628.306 400.759C649.897 400.152 670.662 403.637 686.751 410.514C703.612 417.736 713.518 427.965 714.662 439.328C715.332 445.922 712.936 452.557 707.723 458.45C698.853 468.496 682.627 476.135 662.73 480.07C654.405 481.717 645.451 482.721 636.146 482.964C614.555 483.571 593.791 480.084 577.701 473.209C560.84 465.987 550.935 455.756 549.79 444.394ZM634.134 459.783C654.401 459.238 669.974 450.497 668.93 440.313C667.884 430.13 650.64 422.317 630.372 422.862C610.106 423.408 594.532 432.149 595.577 442.332C596.628 452.548 613.873 460.36 634.134 459.783Z" fill="white"/>
<path d="M561.29 608.434C560.666 595.697 562.898 582.883 567.755 571.501C579.448 544.002 605.005 525.806 634.444 524.156C654.561 522.984 673.907 529.718 688.898 542.996C704.607 556.945 713.836 576.702 714.903 598.649C715.527 611.386 713.295 624.2 708.436 635.583C700.174 654.985 685.056 669.739 666.517 677.338C658.76 680.52 650.419 682.46 641.749 682.927C621.633 684.1 602.286 677.365 587.294 664.087C571.586 650.137 562.357 630.381 561.29 608.434ZM639.875 638.157C658.757 637.104 673.267 620.221 672.293 600.553C671.319 580.884 655.253 565.795 636.369 566.847C617.487 567.9 602.976 584.783 603.95 604.451C604.93 624.182 620.996 639.272 639.875 638.157Z" fill="white"/>
<path d="M369.963 597.193C371.219 584.505 375.045 572.11 381.018 561.471C395.411 535.761 420.897 521.047 447.5 523.212C465.685 524.647 482.054 533.807 493.589 548.884C505.67 564.717 511.122 585.463 508.949 607.322C507.692 620.009 503.867 632.405 497.893 643.045C487.726 661.184 472.082 673.836 454.394 678.968C446.992 681.114 439.244 681.96 431.411 681.304C413.226 679.869 396.857 670.709 385.323 655.632C373.241 639.799 367.789 619.053 369.963 597.193ZM436.114 636.749C453.178 638.143 468.581 623.304 470.512 603.711C472.444 584.117 460.203 567.109 443.139 565.715C426.075 564.322 410.672 579.16 408.742 598.754C406.807 618.409 419.046 635.417 436.114 636.749Z" fill="white"/>
<path d="M208.861 571.067C216.354 560.757 225.553 551.685 235.395 544.937C259.146 528.612 285.213 525.92 303.328 538.019C315.736 546.251 322.82 560.356 323.337 577.631C323.857 595.759 317.032 615.512 304.116 633.272C296.623 643.582 287.423 652.654 277.581 659.402C260.814 670.915 242.935 675.648 227.48 673.194C221.013 672.166 214.971 669.897 209.649 666.32C197.241 658.087 190.157 643.983 189.64 626.709C189.12 608.579 195.944 588.827 208.861 571.067ZM236.171 630.227C247.788 637.992 266.629 631.305 278.194 615.379C289.759 599.454 289.733 580.265 278.117 572.5C266.5 564.734 247.659 571.421 236.094 587.346C224.494 603.324 224.52 622.512 236.171 630.227Z" fill="white"/>
<path d="M67.4859 554.01C78.8024 548.146 91.0899 544.155 102.912 542.527C131.458 538.566 155.971 547.83 166.752 566.758C174.16 579.675 174.18 595.459 166.907 611.136C159.255 627.579 144.308 642.185 124.807 652.283C113.491 658.146 101.203 662.138 89.381 663.766C69.234 666.553 51.128 662.779 38.4073 653.665C33.0848 649.851 28.6981 645.117 25.5403 639.534C18.1324 626.617 18.114 610.835 25.3862 595.156C33.0381 578.713 47.9848 564.107 67.4859 554.01ZM65.4177 619.137C72.328 631.281 92.1681 633.739 109.64 624.677C127.112 615.616 135.681 598.445 128.771 586.301C121.86 574.156 102.02 571.7 84.5482 580.76C67.0224 589.853 58.4531 607.022 65.4177 619.137Z" fill="white"/>
<path d="M1089.21 762.095C1087.46 755.701 1082.83 750.376 1075.84 746.758C1059.01 738.001 1030.02 739.099 1000.24 749.689C979.884 756.904 961.771 767.639 949.24 779.852C936.116 792.665 930.563 805.777 933.589 816.788C935.342 823.181 939.968 828.508 946.956 832.125C958.849 838.3 976.737 839.577 996.717 836.076C1005.07 834.612 1013.79 832.323 1022.56 829.195C1042.91 821.979 1061.03 811.244 1073.56 799.032C1086.68 786.219 1092.24 773.106 1089.21 762.095ZM1016.08 806.847C996.977 813.643 979.299 811.101 976.604 801.226C973.909 791.349 987.179 777.848 1006.28 771.052C1025.38 764.256 1043.06 766.796 1045.76 776.673C1048.46 786.581 1035.19 800.083 1016.08 806.847Z" fill="white"/>
<path d="M1240.38 719.715C1236.09 714.665 1229.64 711.797 1221.78 711.478C1202.82 710.669 1177.03 723.932 1154.53 746.132C1139.13 761.286 1127.27 778.68 1121.08 795.047C1114.62 812.21 1115.14 826.441 1122.54 835.137C1126.83 840.187 1133.28 843.055 1141.14 843.374C1154.53 843.935 1171.28 837.52 1187.9 825.893C1194.85 821.027 1201.78 815.264 1208.39 808.721C1223.79 793.566 1235.65 776.173 1241.83 759.805C1248.3 742.64 1247.78 728.41 1240.38 719.715ZM1193.07 791.215C1178.64 805.458 1161.55 810.637 1154.92 802.83C1148.3 795.023 1154.61 777.174 1169.04 762.931C1183.47 748.688 1200.56 743.508 1207.18 751.315C1213.82 759.149 1207.51 776.998 1193.07 791.215Z" fill="white"/>
<path d="M1375.01 699.461C1368.12 696.79 1360.46 697.1 1352.92 700.391C1334.74 708.292 1318.21 732.203 1309.86 762.802C1304.13 783.705 1302.98 805.052 1306.55 822.871C1310.31 841.547 1318.92 854.352 1330.81 858.945C1337.71 861.616 1345.37 861.306 1352.9 858.017C1365.74 852.427 1377.73 838.916 1386.61 820.685C1390.34 813.056 1393.52 804.619 1395.96 795.605C1401.69 774.702 1402.84 753.354 1399.28 735.536C1395.52 716.859 1386.9 704.055 1375.01 699.461ZM1371.64 786.548C1366.29 806.178 1353.27 818.715 1342.62 814.579C1331.97 810.442 1327.67 791.211 1333.02 771.582C1338.37 751.953 1351.39 739.415 1362.04 743.552C1372.72 747.703 1377.02 766.935 1371.64 786.548Z" fill="white"/>
<path d="M889.994 783.691C890.663 777.097 888.268 770.462 883.054 764.569C870.505 750.331 843.074 740.91 811.477 740.056C789.886 739.449 769.123 742.936 753.032 749.811C736.172 757.033 726.266 767.262 725.121 778.625C724.452 785.221 726.847 791.854 732.061 797.747C740.93 807.794 757.155 815.433 777.053 819.368C785.379 821.015 794.332 822.019 803.636 822.261C825.228 822.868 845.992 819.381 862.082 812.506C878.943 805.284 888.849 795.054 889.994 783.691ZM805.65 799.081C785.382 798.535 769.808 789.794 770.854 779.611C771.899 769.427 789.144 761.614 809.41 762.16C829.678 762.705 845.252 771.446 844.206 781.63C843.154 791.846 825.911 799.657 805.65 799.081Z" fill="white"/>
<path d="M878.49 947.732C879.114 934.995 876.882 922.18 872.025 910.798C860.332 883.299 834.775 865.102 805.336 863.453C785.22 862.281 765.873 869.015 750.882 882.294C735.173 896.242 725.944 916 724.877 937.946C724.253 950.683 726.485 963.497 731.344 974.88C739.606 994.283 754.724 1009.04 773.263 1016.64C781.02 1019.82 789.361 1021.76 798.031 1022.22C818.147 1023.4 837.494 1016.66 852.486 1003.38C868.194 989.434 877.423 969.677 878.49 947.732ZM799.906 977.454C781.023 976.401 766.514 959.518 767.487 939.85C768.461 920.181 784.527 905.093 803.411 906.144C822.294 907.197 836.804 924.08 835.83 943.748C834.85 963.479 818.784 978.568 799.906 977.454Z" fill="white"/>
<path d="M1069.82 936.491C1068.56 923.804 1064.74 911.408 1058.77 900.768C1044.37 875.059 1018.89 860.345 992.285 862.51C974.099 863.944 957.73 873.104 946.195 888.181C934.112 904.014 928.662 924.76 930.834 946.62C932.092 959.308 935.917 971.703 941.892 982.342C952.058 1000.48 967.702 1013.13 985.39 1018.27C992.792 1020.41 1000.54 1021.26 1008.37 1020.6C1026.56 1019.17 1042.93 1010.01 1054.46 994.929C1066.54 979.096 1071.99 958.35 1069.82 936.491ZM1003.67 976.047C986.606 977.44 971.203 962.601 969.271 943.008C967.34 923.414 979.581 906.408 996.645 905.014C1013.71 903.619 1029.11 918.459 1031.04 938.051C1032.98 957.708 1020.74 974.715 1003.67 976.047Z" fill="white"/>
<path d="M1230.93 910.365C1223.43 900.055 1214.23 890.984 1204.39 884.236C1180.64 867.911 1154.57 865.218 1136.46 877.318C1124.05 885.549 1116.97 899.654 1116.45 916.928C1115.93 935.058 1122.76 954.81 1135.67 972.571C1143.17 982.881 1152.36 991.951 1162.21 998.7C1178.97 1010.21 1196.85 1014.95 1212.31 1012.49C1218.77 1011.46 1224.82 1009.2 1230.14 1005.62C1242.55 997.386 1249.63 983.282 1250.15 966.006C1250.67 947.878 1243.84 928.126 1230.93 910.365ZM1203.62 969.524C1192 977.289 1173.16 970.603 1161.59 954.678C1150.03 938.752 1150.05 919.563 1161.67 911.798C1173.29 904.033 1192.13 910.719 1203.69 926.645C1215.29 942.621 1215.27 961.811 1203.62 969.524Z" fill="white"/>
<path d="M1372.3 893.306C1360.98 887.444 1348.7 883.452 1336.87 881.824C1308.33 877.861 1283.81 887.125 1273.03 906.056C1265.63 918.971 1265.61 934.755 1272.88 950.434C1280.53 966.876 1295.48 981.483 1314.98 991.579C1326.29 997.443 1338.58 1001.44 1350.4 1003.06C1370.55 1005.85 1388.66 1002.08 1401.38 992.961C1406.7 989.147 1411.09 984.413 1414.24 978.831C1421.66 965.915 1421.67 950.131 1414.4 934.453C1406.74 918.009 1391.8 903.404 1372.3 893.306ZM1374.37 958.433C1367.46 970.578 1347.62 973.035 1330.15 963.974C1312.67 954.912 1304.1 937.743 1311.02 925.597C1317.93 913.453 1337.77 910.996 1355.24 920.058C1372.76 929.149 1381.33 946.318 1374.37 958.433Z" fill="white"/>
<path d="M1089.21 1107.53C1087.46 1101.14 1082.83 1095.81 1075.84 1092.2C1059.01 1083.44 1030.02 1084.54 1000.24 1095.13C979.884 1102.34 961.771 1113.08 949.24 1125.29C936.116 1138.1 930.563 1151.21 933.589 1162.23C935.342 1168.62 939.968 1173.94 946.956 1177.56C958.849 1183.74 976.737 1185.01 996.717 1181.52C1005.07 1180.05 1013.79 1177.76 1022.56 1174.63C1042.91 1167.42 1061.03 1156.68 1073.56 1144.47C1086.68 1131.66 1092.24 1118.54 1089.21 1107.53ZM1016.08 1152.28C996.977 1159.08 979.299 1156.54 976.604 1146.66C973.909 1136.79 987.179 1123.29 1006.28 1116.49C1025.38 1109.69 1043.06 1112.24 1045.76 1122.11C1048.46 1132.02 1035.19 1145.52 1016.08 1152.28Z" fill="white"/>
<path d="M1240.38 1065.15C1236.09 1060.1 1229.64 1057.24 1221.78 1056.92C1202.82 1056.11 1177.03 1069.37 1154.53 1091.57C1139.13 1106.73 1127.27 1124.12 1121.08 1140.49C1114.62 1157.65 1115.14 1171.88 1122.54 1180.58C1126.83 1185.63 1133.28 1188.49 1141.14 1188.81C1154.53 1189.37 1171.28 1182.96 1187.9 1171.33C1194.85 1166.47 1201.78 1160.7 1208.39 1154.16C1223.79 1139 1235.65 1121.61 1241.83 1105.24C1248.3 1088.08 1247.78 1073.85 1240.38 1065.15ZM1193.07 1136.65C1178.64 1150.9 1161.55 1156.08 1154.92 1148.27C1148.3 1140.46 1154.61 1122.61 1169.04 1108.37C1183.47 1094.13 1200.56 1088.95 1207.18 1096.76C1213.82 1104.59 1207.51 1122.44 1193.07 1136.65Z" fill="white"/>
<path d="M1375.01 1044.9C1368.12 1042.23 1360.46 1042.54 1352.92 1045.83C1334.74 1053.73 1318.21 1077.64 1309.86 1108.24C1304.13 1129.14 1302.98 1150.49 1306.55 1168.31C1310.31 1186.99 1318.92 1199.79 1330.81 1204.38C1337.71 1207.06 1345.37 1206.75 1352.9 1203.45C1365.74 1197.87 1377.73 1184.35 1386.61 1166.12C1390.34 1158.49 1393.52 1150.06 1395.96 1141.04C1401.69 1120.14 1402.84 1098.79 1399.28 1080.97C1395.52 1062.3 1386.9 1049.49 1375.01 1044.9ZM1371.64 1131.99C1366.29 1151.62 1353.27 1164.15 1342.62 1160.02C1331.97 1155.88 1327.67 1136.65 1333.02 1117.02C1338.37 1097.39 1351.39 1084.85 1362.04 1088.99C1372.72 1093.14 1377.02 1112.37 1371.64 1131.99Z" fill="white"/>
<path d="M889.994 1129.13C890.663 1122.54 888.268 1115.9 883.054 1110.01C870.505 1095.77 843.074 1086.35 811.477 1085.5C789.886 1084.89 769.123 1088.38 753.032 1095.25C736.172 1102.47 726.266 1112.7 725.121 1124.07C724.452 1130.66 726.847 1137.29 732.061 1143.19C740.93 1153.23 757.155 1160.87 777.053 1164.81C785.379 1166.45 794.332 1167.46 803.636 1167.7C825.228 1168.31 845.992 1164.82 862.082 1157.95C878.943 1150.72 888.849 1140.49 889.994 1129.13ZM805.65 1144.52C785.382 1143.98 769.808 1135.23 770.854 1125.05C771.899 1114.87 789.144 1107.05 809.41 1107.6C829.678 1108.14 845.252 1116.88 844.206 1127.07C843.154 1137.28 825.911 1145.1 805.65 1144.52Z" fill="white"/>
<path d="M878.49 1293.17C879.114 1280.43 876.882 1267.62 872.025 1256.24C860.332 1228.74 834.775 1210.54 805.336 1208.89C785.22 1207.72 765.873 1214.45 750.882 1227.73C735.173 1241.68 725.944 1261.44 724.877 1283.38C724.253 1296.12 726.485 1308.94 731.344 1320.32C739.606 1339.72 754.724 1354.47 773.263 1362.08C781.02 1365.26 789.361 1367.2 798.031 1367.66C818.147 1368.84 837.494 1362.1 852.486 1348.82C868.194 1334.87 877.423 1315.12 878.49 1293.17ZM799.906 1322.89C781.023 1321.84 766.514 1304.96 767.487 1285.29C768.461 1265.62 784.527 1250.53 803.411 1251.58C822.294 1252.64 836.804 1269.52 835.83 1289.19C834.85 1308.92 818.784 1324.01 799.906 1322.89Z" fill="white"/>
<path d="M1069.82 1281.93C1068.56 1269.24 1064.74 1256.85 1058.77 1246.21C1044.37 1220.5 1018.89 1205.78 992.285 1207.95C974.099 1209.38 957.73 1218.54 946.195 1233.62C934.112 1249.45 928.662 1270.2 930.834 1292.06C932.092 1304.75 935.917 1317.14 941.892 1327.78C952.058 1345.92 967.702 1358.57 985.39 1363.7C992.792 1365.85 1000.54 1366.7 1008.37 1366.04C1026.56 1364.61 1042.93 1355.45 1054.46 1340.37C1066.54 1324.53 1071.99 1303.79 1069.82 1281.93ZM1003.67 1321.49C986.606 1322.88 971.203 1308.04 969.271 1288.45C967.34 1268.85 979.581 1251.85 996.645 1250.45C1013.71 1249.06 1029.11 1263.9 1031.04 1283.49C1032.98 1303.15 1020.74 1320.15 1003.67 1321.49Z" fill="white"/>
<path d="M1230.93 1255.8C1223.43 1245.49 1214.23 1236.42 1204.39 1229.67C1180.64 1213.35 1154.57 1210.66 1136.46 1222.76C1124.05 1230.99 1116.97 1245.09 1116.45 1262.37C1115.93 1280.5 1122.76 1300.25 1135.67 1318.01C1143.17 1328.32 1152.36 1337.39 1162.21 1344.14C1178.97 1355.65 1196.85 1360.38 1212.31 1357.93C1218.77 1356.9 1224.82 1354.63 1230.14 1351.06C1242.55 1342.82 1249.63 1328.72 1250.15 1311.45C1250.67 1293.32 1243.84 1273.56 1230.93 1255.8ZM1203.62 1314.96C1192 1322.73 1173.16 1316.04 1161.59 1300.12C1150.03 1284.19 1150.05 1265 1161.67 1257.24C1173.29 1249.47 1192.13 1256.16 1203.69 1272.08C1215.29 1288.06 1215.27 1307.25 1203.62 1314.96Z" fill="white"/>
<path d="M1372.3 1238.75C1360.98 1232.88 1348.7 1228.89 1336.87 1227.26C1308.33 1223.3 1283.81 1232.57 1273.03 1251.49C1265.63 1264.41 1265.61 1280.2 1272.88 1295.87C1280.53 1312.32 1295.48 1326.92 1314.98 1337.02C1326.29 1342.88 1338.58 1346.87 1350.4 1348.5C1370.55 1351.29 1388.66 1347.51 1401.38 1338.4C1406.7 1334.59 1411.09 1329.85 1414.24 1324.27C1421.66 1311.35 1421.67 1295.57 1414.4 1279.89C1406.74 1263.45 1391.8 1248.84 1372.3 1238.75ZM1374.37 1303.87C1367.46 1316.02 1347.62 1318.47 1330.15 1309.41C1312.67 1300.35 1304.1 1283.18 1311.02 1271.04C1317.93 1258.89 1337.77 1256.44 1355.24 1265.5C1372.76 1274.59 1381.33 1291.76 1374.37 1303.87Z" fill="white"/>
<path d="M350.576 762.095C352.329 755.701 356.954 750.376 363.941 746.758C380.78 738.001 409.762 739.099 439.542 749.689C459.901 756.904 478.014 767.639 490.545 779.852C503.669 792.665 509.223 805.777 506.196 816.788C504.443 823.181 499.817 828.508 492.83 832.125C480.936 838.3 463.048 839.577 443.07 836.076C434.71 834.612 425.996 832.323 417.23 829.195C396.871 821.979 378.758 811.244 366.227 799.032C353.103 786.219 347.549 773.106 350.576 762.095ZM423.706 806.847C442.808 813.643 460.486 811.101 463.181 801.226C465.876 791.349 452.606 777.848 433.504 771.052C414.402 764.256 396.725 766.796 394.03 776.673C391.329 786.581 404.599 800.083 423.706 806.847Z" fill="white"/>
<path d="M199.398 719.715C203.692 714.665 210.137 711.797 217.999 711.478C236.96 710.669 262.754 723.932 285.253 746.132C300.644 761.286 312.511 778.68 318.694 795.047C325.162 812.21 324.643 826.441 317.24 835.137C312.947 840.187 306.501 843.055 298.639 843.374C285.25 843.935 268.503 837.52 251.883 825.893C244.93 821.027 238.004 815.264 231.385 808.721C215.994 793.566 204.128 776.173 197.944 759.805C191.476 742.64 191.995 728.41 199.398 719.715ZM246.712 791.215C261.142 805.458 278.234 810.637 284.855 802.83C291.477 795.023 285.17 777.174 270.739 762.931C256.31 748.688 239.219 743.508 232.597 751.315C225.956 759.149 232.263 776.998 246.712 791.215Z" fill="white"/>
<path d="M64.7712 699.461C71.6689 696.79 79.3305 697.1 86.8621 700.391C105.046 708.292 121.578 732.203 129.924 762.802C135.652 783.705 136.807 805.052 133.236 822.871C129.475 841.547 120.861 854.352 108.974 858.945C102.076 861.616 94.4149 861.306 86.8833 858.017C74.0491 852.427 62.0605 838.916 53.1699 820.685C49.4499 813.056 46.2689 804.619 43.8216 795.605C38.0932 774.702 36.9389 753.354 40.5094 735.536C44.2702 716.859 52.884 704.055 64.7712 699.461ZM68.1473 786.548C73.4978 806.178 86.5131 818.715 97.1621 814.579C107.811 810.442 112.113 791.211 106.762 771.582C101.412 751.953 88.3966 739.415 77.7477 743.552C67.0658 747.703 62.7641 766.935 68.1473 786.548Z" fill="white"/>
<path d="M549.79 783.691C549.12 777.097 551.516 770.462 556.73 764.569C569.28 750.331 596.71 740.91 628.306 740.056C649.897 739.449 670.662 742.936 686.751 749.811C703.612 757.033 713.518 767.262 714.662 778.625C715.332 785.221 712.936 791.854 707.723 797.747C698.853 807.794 682.627 815.433 662.73 819.368C654.405 821.015 645.451 822.019 636.146 822.261C614.555 822.868 593.791 819.381 577.701 812.506C560.84 805.284 550.935 795.054 549.79 783.691ZM634.134 799.081C654.401 798.535 669.974 789.794 668.93 779.611C667.884 769.427 650.64 761.614 630.372 762.16C610.106 762.705 594.532 771.446 595.577 781.63C596.628 791.846 613.873 799.657 634.134 799.081Z" fill="white"/>
<path d="M561.29 947.732C560.666 934.995 562.898 922.18 567.755 910.798C579.448 883.299 605.005 865.102 634.444 863.453C654.561 862.281 673.907 869.015 688.898 882.294C704.607 896.242 713.836 916 714.903 937.946C715.527 950.683 713.295 963.497 708.436 974.88C700.174 994.283 685.056 1009.04 666.517 1016.64C658.76 1019.82 650.419 1021.76 641.749 1022.22C621.633 1023.4 602.286 1016.66 587.294 1003.38C571.586 989.434 562.357 969.677 561.29 947.732ZM639.875 977.454C658.757 976.401 673.267 959.518 672.293 939.85C671.319 920.181 655.253 905.093 636.369 906.144C617.487 907.197 602.976 924.08 603.95 943.748C604.93 963.479 620.996 978.568 639.875 977.454Z" fill="white"/>
<path d="M369.963 936.491C371.219 923.804 375.045 911.408 381.018 900.768C395.411 875.059 420.897 860.345 447.5 862.51C465.685 863.944 482.054 873.104 493.589 888.181C505.67 904.014 511.122 924.76 508.949 946.62C507.692 959.308 503.867 971.703 497.893 982.342C487.726 1000.48 472.082 1013.13 454.394 1018.27C446.992 1020.41 439.244 1021.26 431.411 1020.6C413.226 1019.17 396.857 1010.01 385.323 994.929C373.241 979.096 367.789 958.35 369.963 936.491ZM436.114 976.047C453.178 977.44 468.581 962.601 470.512 943.008C472.444 923.414 460.203 906.408 443.139 905.014C426.075 903.619 410.672 918.459 408.742 938.051C406.807 957.708 419.046 974.715 436.114 976.047Z" fill="white"/>
<path d="M208.861 910.365C216.354 900.055 225.553 890.984 235.395 884.236C259.146 867.911 285.213 865.218 303.328 877.318C315.736 885.549 322.82 899.654 323.337 916.928C323.857 935.058 317.032 954.81 304.116 972.571C296.623 982.881 287.423 991.951 277.581 998.7C260.814 1010.21 242.935 1014.95 227.48 1012.49C221.013 1011.46 214.971 1009.2 209.649 1005.62C197.241 997.386 190.157 983.282 189.64 966.006C189.12 947.878 195.944 928.126 208.861 910.365ZM236.171 969.524C247.788 977.289 266.629 970.603 278.194 954.678C289.759 938.752 289.733 919.563 278.117 911.798C266.5 904.033 247.659 910.719 236.094 926.645C224.494 942.621 224.52 961.811 236.171 969.524Z" fill="white"/>
<path d="M67.4859 893.306C78.8024 887.444 91.0899 883.452 102.912 881.824C131.458 877.861 155.971 887.125 166.752 906.056C174.16 918.971 174.18 934.755 166.907 950.434C159.255 966.876 144.308 981.483 124.807 991.579C113.491 997.443 101.203 1001.44 89.381 1003.06C69.234 1005.85 51.128 1002.08 38.4073 992.961C33.0848 989.147 28.6981 984.413 25.5403 978.831C18.1324 965.915 18.114 950.131 25.3862 934.453C33.0381 918.009 47.9848 903.404 67.4859 893.306ZM65.4177 958.433C72.328 970.578 92.1681 973.035 109.64 963.974C127.112 954.912 135.681 937.743 128.771 925.597C121.86 913.453 102.02 910.996 84.5482 920.058C67.0224 929.149 58.4531 946.318 65.4177 958.433Z" fill="white"/>
<path d="M350.576 1107.53C352.329 1101.14 356.954 1095.81 363.941 1092.2C380.78 1083.44 409.762 1084.54 439.542 1095.13C459.901 1102.34 478.014 1113.08 490.545 1125.29C503.669 1138.1 509.223 1151.21 506.196 1162.23C504.443 1168.62 499.817 1173.94 492.83 1177.56C480.936 1183.74 463.048 1185.01 443.07 1181.52C434.71 1180.05 425.996 1177.76 417.23 1174.63C396.871 1167.42 378.758 1156.68 366.227 1144.47C353.103 1131.66 347.549 1118.54 350.576 1107.53ZM423.706 1152.28C442.808 1159.08 460.486 1156.54 463.181 1146.66C465.876 1136.79 452.606 1123.29 433.504 1116.49C414.402 1109.69 396.725 1112.24 394.03 1122.11C391.329 1132.02 404.599 1145.52 423.706 1152.28Z" fill="white"/>
<path d="M199.398 1065.15C203.692 1060.1 210.137 1057.24 217.999 1056.92C236.96 1056.11 262.754 1069.37 285.253 1091.57C300.644 1106.73 312.511 1124.12 318.694 1140.49C325.162 1157.65 324.643 1171.88 317.24 1180.58C312.947 1185.63 306.501 1188.49 298.639 1188.81C285.25 1189.37 268.503 1182.96 251.883 1171.33C244.93 1166.47 238.004 1160.7 231.385 1154.16C215.994 1139 204.128 1121.61 197.944 1105.24C191.476 1088.08 191.995 1073.85 199.398 1065.15ZM246.712 1136.65C261.142 1150.9 278.234 1156.08 284.855 1148.27C291.477 1140.46 285.17 1122.61 270.739 1108.37C256.31 1094.13 239.219 1088.95 232.597 1096.76C225.956 1104.59 232.263 1122.44 246.712 1136.65Z" fill="white"/>
<path d="M64.7712 1044.9C71.6689 1042.23 79.3305 1042.54 86.8621 1045.83C105.046 1053.73 121.578 1077.64 129.924 1108.24C135.652 1129.14 136.807 1150.49 133.236 1168.31C129.475 1186.99 120.861 1199.79 108.974 1204.38C102.076 1207.06 94.4149 1206.75 86.8833 1203.45C74.0491 1197.87 62.0605 1184.35 53.1699 1166.12C49.4499 1158.49 46.2689 1150.06 43.8216 1141.04C38.0932 1120.14 36.9389 1098.79 40.5094 1080.97C44.2702 1062.3 52.884 1049.49 64.7712 1044.9ZM68.1473 1131.99C73.4978 1151.62 86.5131 1164.15 97.1621 1160.02C107.811 1155.88 112.113 1136.65 106.762 1117.02C101.412 1097.39 88.3966 1084.85 77.7477 1088.99C67.0658 1093.14 62.7641 1112.37 68.1473 1131.99Z" fill="white"/>
<path d="M549.79 1129.13C549.12 1122.54 551.516 1115.9 556.73 1110.01C569.28 1095.77 596.71 1086.35 628.306 1085.5C649.897 1084.89 670.662 1088.38 686.751 1095.25C703.612 1102.47 713.518 1112.7 714.662 1124.07C715.332 1130.66 712.936 1137.29 707.723 1143.19C698.853 1153.23 682.627 1160.87 662.73 1164.81C654.405 1166.45 645.451 1167.46 636.146 1167.7C614.555 1168.31 593.791 1164.82 577.701 1157.95C560.84 1150.72 550.935 1140.49 549.79 1129.13ZM634.134 1144.52C654.401 1143.98 669.974 1135.23 668.93 1125.05C667.884 1114.87 650.64 1107.05 630.372 1107.6C610.106 1108.14 594.532 1116.88 595.577 1127.07C596.628 1137.28 613.873 1145.1 634.134 1144.52Z" fill="white"/>
<path d="M561.29 1293.17C560.666 1280.43 562.898 1267.62 567.755 1256.24C579.448 1228.74 605.005 1210.54 634.444 1208.89C654.561 1207.72 673.907 1214.45 688.898 1227.73C704.607 1241.68 713.836 1261.44 714.903 1283.38C715.527 1296.12 713.295 1308.94 708.436 1320.32C700.174 1339.72 685.056 1354.47 666.517 1362.08C658.76 1365.26 650.419 1367.2 641.749 1367.66C621.633 1368.84 602.286 1362.1 587.294 1348.82C571.586 1334.87 562.357 1315.12 561.29 1293.17ZM639.875 1322.89C658.757 1321.84 673.267 1304.96 672.293 1285.29C671.319 1265.62 655.253 1250.53 636.369 1251.58C617.487 1252.64 602.976 1269.52 603.95 1289.19C604.93 1308.92 620.996 1324.01 639.875 1322.89Z" fill="white"/>
<path d="M369.963 1281.93C371.219 1269.24 375.045 1256.85 381.018 1246.21C395.411 1220.5 420.897 1205.78 447.5 1207.95C465.685 1209.38 482.054 1218.54 493.589 1233.62C505.67 1249.45 511.122 1270.2 508.949 1292.06C507.692 1304.75 503.867 1317.14 497.893 1327.78C487.726 1345.92 472.082 1358.57 454.394 1363.7C446.992 1365.85 439.244 1366.7 431.411 1366.04C413.226 1364.61 396.857 1355.45 385.323 1340.37C373.241 1324.53 367.789 1303.79 369.963 1281.93ZM436.114 1321.49C453.178 1322.88 468.581 1308.04 470.512 1288.45C472.444 1268.85 460.203 1251.85 443.139 1250.45C426.075 1249.06 410.672 1263.9 408.742 1283.49C406.807 1303.15 419.046 1320.15 436.114 1321.49Z" fill="white"/>
<path d="M208.861 1255.8C216.354 1245.49 225.553 1236.42 235.395 1229.67C259.146 1213.35 285.213 1210.66 303.328 1222.76C315.736 1230.99 322.82 1245.09 323.337 1262.37C323.857 1280.5 317.032 1300.25 304.116 1318.01C296.623 1328.32 287.423 1337.39 277.581 1344.14C260.814 1355.65 242.935 1360.38 227.48 1357.93C221.013 1356.9 214.971 1354.63 209.649 1351.06C197.241 1342.82 190.157 1328.72 189.64 1311.45C189.12 1293.32 195.944 1273.56 208.861 1255.8ZM236.171 1314.96C247.788 1322.73 266.629 1316.04 278.194 1300.12C289.759 1284.19 289.733 1265 278.117 1257.24C266.5 1249.47 247.659 1256.16 236.094 1272.08C224.494 1288.06 224.52 1307.25 236.171 1314.96Z" fill="white"/>
<path d="M67.4859 1238.75C78.8024 1232.88 91.0899 1228.89 102.912 1227.26C131.458 1223.3 155.971 1232.57 166.752 1251.49C174.16 1264.41 174.18 1280.2 166.907 1295.87C159.255 1312.32 144.308 1326.92 124.807 1337.02C113.491 1342.88 101.203 1346.87 89.381 1348.5C69.234 1351.29 51.128 1347.51 38.4073 1338.4C33.0848 1334.59 28.6981 1329.85 25.5403 1324.27C18.1324 1311.35 18.114 1295.57 25.3862 1279.89C33.0381 1263.45 47.9848 1248.84 67.4859 1238.75ZM65.4177 1303.87C72.328 1316.02 92.1681 1318.47 109.64 1309.41C127.112 1300.35 135.681 1283.18 128.771 1271.04C121.86 1258.89 102.02 1256.44 84.5482 1265.5C67.0224 1274.59 58.4531 1291.76 65.4177 1303.87Z" fill="white"/>
</g>
</mask>
<g mask="url(#mask0_751_2475)">
<rect width="1439.21" height="1385.32" fill="url(#paint0_linear_751_2475)"/>
</g>
<defs>
<linearGradient id="paint0_linear_751_2475" x1="718.608" y1="76.8511" x2="718.608" y2="1845.43" gradientUnits="userSpaceOnUse">
<stop stop-color="white" stop-opacity="0"/>
<stop offset="1" stop-color="#DB4446"/>
</linearGradient>
</defs>
</svg>
