<svg width="611" height="142" viewBox="0 0 611 142" fill="none" xmlns="http://www.w3.org/2000/svg">
<path d="M326.026 138.793H306.35L304.806 120.055C297.934 133.617 282.617 141.851 263.698 141.851C225.465 141.851 199.069 111.64 199.069 71.107C199.099 30.3922 225.284 0 265.998 0C297.359 0 319.155 18.1627 325.633 48.5549L291.033 50.0988C287.794 35.5686 278.803 27.1532 265.211 27.1532C243.416 27.1532 233.275 45.4976 233.275 71.1372C233.275 96.565 243.598 114.728 265.211 114.728C280.498 114.728 289.489 105.162 292.153 90.6319H264.878V67.5047H326.026V138.793ZM336.379 37.4757H368.103L368.678 58.5142C372.704 44.7408 380.544 37.4757 393.137 37.4757H402.128V61.178H392.956C375.943 61.178 369.253 68.6247 369.253 83.9419V138.793H336.379V37.4757ZM453.074 141.094C420.563 141.094 399.161 120.055 399.161 88.1496C399.161 56.2438 420.563 35.2054 453.074 35.2054C485.585 35.2054 506.987 56.2438 506.987 88.1496C506.987 120.055 485.555 141.094 453.074 141.094ZM432.974 88.1194C432.974 106.464 440.058 116.786 453.044 116.786C465.849 116.786 473.114 106.464 473.114 88.1194C473.114 69.775 465.849 59.4526 453.044 59.4526C440.058 59.4526 432.974 69.775 432.974 88.1194ZM574.704 37.2638H610.06L574.31 87.3626L610.999 138.793H575.43L555.542 107.826L535.472 138.793H499.904L536.592 87.3626L500.842 37.2638H536.199L555.512 66.8993L574.704 37.2638Z" fill="white"/>
<path d="M161.593 27.6983C161.017 21.5835 157.657 15.9833 151.876 11.5637C137.951 0.878011 111.403 -2.75453 82.6152 2.1494C62.9389 5.47923 44.7459 12.3811 31.3964 21.5229C17.4111 31.1189 10.2671 42.1982 11.266 52.7325C11.8412 58.8473 15.2013 64.4475 20.9831 68.8671C30.8212 76.4046 46.8952 80.4306 65.6331 80.4306C73.4733 80.4306 81.7676 79.7344 90.2435 78.2814C109.92 74.9516 128.113 68.0497 141.462 58.9078C155.448 49.3119 162.592 38.2326 161.593 27.6983ZM87.9126 56.8494C69.4472 59.9976 53.7668 54.8515 52.8889 45.4069C52.011 35.9623 66.2385 25.7609 84.7039 22.6127C103.169 19.4645 118.85 24.6106 119.728 34.0552C120.605 43.5301 106.378 53.7315 87.9126 56.8494Z" fill="white"/>
<path d="M164.287 88.2103C163.772 81.5809 160.23 75.4964 154.055 70.5925C146.79 64.8107 135.953 60.6938 122.755 58.6354C109.435 56.5769 94.2089 56.7283 78.7403 59.0894C57.1873 62.3587 37.2386 69.5632 22.5268 79.2803C7.14902 89.4514 -0.8123 101.348 0.0655641 112.79C0.0655641 112.851 0.0655641 112.912 0.0958353 112.972C9.41935 100.5 31.1238 89.3 57.1267 84.9107C92.9375 78.8565 123.269 88.0287 124.904 105.404C126.175 118.814 109.889 133.224 85.9146 141.851C107.347 138.551 127.204 131.377 141.856 121.69C157.203 111.519 165.164 99.6225 164.287 88.2103Z" fill="white"/>
</svg>
