<svg width="240" height="207" viewBox="0 0 240 207" fill="none" xmlns="http://www.w3.org/2000/svg">
<mask id="path-1-inside-1_1568_11909" fill="white">
<path d="M120.64 3.13623C162.679 -4.01942 201.446 1.2809 221.78 16.8745C230.224 23.3231 235.13 31.4959 235.969 40.4194C237.429 55.7919 226.997 71.9593 206.574 85.9634C204.396 87.4536 202.129 88.9021 199.782 90.3081C209.884 93.5291 218.416 97.8087 224.963 103.015C233.981 110.171 239.152 119.05 239.904 128.724C241.186 145.378 229.561 162.738 207.149 177.581C185.755 191.716 156.756 202.186 125.459 207C160.47 194.41 184.251 173.384 182.394 153.814C180.007 128.458 135.715 115.074 83.4216 123.909C45.4494 130.313 13.7554 146.659 0.140381 164.858C0.0960858 164.769 0.095459 164.682 0.095459 164.593C-1.18648 147.896 10.4395 130.535 32.8943 115.693C36.6653 113.204 40.672 110.827 44.8855 108.576C39.4886 106.303 34.7005 103.604 30.6404 100.496C22.1979 94.0469 17.2913 85.8743 16.4509 76.9507C14.9918 61.5783 25.424 45.4117 45.8464 31.4077C65.3413 18.0677 91.9082 7.99523 120.64 3.13623ZM174.835 49.6968C173.553 35.9141 150.654 28.4039 123.69 32.9985C96.7263 37.592 75.9508 52.4787 77.2312 66.2612C78.5132 80.0426 101.411 87.5527 128.377 82.9595C155.341 78.4091 176.116 63.5224 174.835 49.6968Z"/>
</mask>
<path d="M120.64 3.13623C162.679 -4.01942 201.446 1.2809 221.78 16.8745C230.224 23.3231 235.13 31.4959 235.969 40.4194C237.429 55.7919 226.997 71.9593 206.574 85.9634C204.396 87.4536 202.129 88.9021 199.782 90.3081C209.884 93.5291 218.416 97.8087 224.963 103.015C233.981 110.171 239.152 119.05 239.904 128.724C241.186 145.378 229.561 162.738 207.149 177.581C185.755 191.716 156.756 202.186 125.459 207C160.47 194.41 184.251 173.384 182.394 153.814C180.007 128.458 135.715 115.074 83.4216 123.909C45.4494 130.313 13.7554 146.659 0.140381 164.858C0.0960858 164.769 0.095459 164.682 0.095459 164.593C-1.18648 147.896 10.4395 130.535 32.8943 115.693C36.6653 113.204 40.672 110.827 44.8855 108.576C39.4886 106.303 34.7005 103.604 30.6404 100.496C22.1979 94.0469 17.2913 85.8743 16.4509 76.9507C14.9918 61.5783 25.424 45.4117 45.8464 31.4077C65.3413 18.0677 91.9082 7.99523 120.64 3.13623ZM174.835 49.6968C173.553 35.9141 150.654 28.4039 123.69 32.9985C96.7263 37.592 75.9508 52.4787 77.2312 66.2612C78.5132 80.0426 101.411 87.5527 128.377 82.9595C155.341 78.4091 176.116 63.5224 174.835 49.6968Z" fill="white"/>
<path d="M120.64 3.13623L120.974 5.10823L120.976 5.10787L120.64 3.13623ZM221.78 16.8745L220.563 18.4616L220.566 18.464L221.78 16.8745ZM235.969 40.4194L233.978 40.6067L233.978 40.6084L235.969 40.4194ZM206.574 85.9634L207.703 87.6139L207.705 87.6128L206.574 85.9634ZM199.782 90.3081L198.754 88.5923L194.955 90.8681L199.174 92.2136L199.782 90.3081ZM224.963 103.015L223.718 104.58L223.72 104.582L224.963 103.015ZM239.904 128.724L241.898 128.571L241.898 128.569L239.904 128.724ZM207.149 177.581L208.252 179.249L208.253 179.248L207.149 177.581ZM125.459 207L124.782 205.118L125.763 208.977L125.459 207ZM182.394 153.814L180.403 154.001L180.403 154.003L182.394 153.814ZM83.4216 123.909L83.7543 125.881L83.7548 125.881L83.4216 123.909ZM0.140381 164.858L-1.64823 165.753L-0.198709 168.65L1.74183 166.056L0.140381 164.858ZM0.095459 164.593H2.09546V164.517L2.08959 164.44L0.095459 164.593ZM32.8943 115.693L31.7926 114.024L31.7914 114.024L32.8943 115.693ZM44.8855 108.576L45.8282 110.34L49.5295 108.362L45.6618 106.732L44.8855 108.576ZM30.6404 100.496L31.8562 98.9076L31.8544 98.9062L30.6404 100.496ZM16.4509 76.9507L18.4421 76.7632L18.442 76.7617L16.4509 76.9507ZM45.8464 31.4077L44.717 29.7572L44.7154 29.7583L45.8464 31.4077ZM174.835 49.6968L176.826 49.5122L176.826 49.5115L174.835 49.6968ZM123.69 32.9985L124.026 34.9701L124.026 34.9701L123.69 32.9985ZM77.2312 66.2612L75.2398 66.4462L75.2398 66.4465L77.2312 66.2612ZM128.377 82.9595L128.044 80.9874L128.041 80.9879L128.377 82.9595ZM120.64 3.13623L120.976 5.10787C141.823 1.5593 161.819 1.10728 179.08 3.45613C196.369 5.80883 210.769 10.9508 220.563 18.4616L221.78 16.8745L222.997 15.2875C212.457 7.20466 197.307 1.89962 179.619 -0.507338C161.903 -2.91814 141.496 -2.4425 120.305 1.16459L120.64 3.13623ZM221.78 16.8745L220.566 18.464C228.653 24.6398 233.201 32.3379 233.978 40.6067L235.969 40.4194L237.961 40.2322C237.06 30.6539 231.795 22.0065 222.994 15.285L221.78 16.8745ZM235.969 40.4194L233.978 40.6084C235.334 54.8889 225.651 70.4571 205.443 84.3139L206.574 85.9634L207.705 87.6128C228.342 73.4616 239.523 56.6949 237.961 40.2304L235.969 40.4194ZM206.574 85.9634L205.445 84.3128C203.302 85.779 201.069 87.2058 198.754 88.5923L199.782 90.3081L200.81 92.0239C203.19 90.5985 205.49 89.1283 207.703 87.6139L206.574 85.9634ZM199.782 90.3081L199.174 92.2136C209.11 95.3815 217.408 99.5623 223.718 104.58L224.963 103.015L226.208 101.45C219.425 96.055 210.659 91.6768 200.39 88.4026L199.782 90.3081ZM224.963 103.015L223.72 104.582C232.392 111.463 237.21 119.865 237.91 128.879L239.904 128.724L241.898 128.569C241.095 118.236 235.57 108.878 226.206 101.448L224.963 103.015ZM239.904 128.724L237.91 128.878C239.108 144.438 228.242 161.213 206.045 175.913L207.149 177.581L208.253 179.248C230.88 164.263 243.264 146.317 241.898 128.571L239.904 128.724ZM207.149 177.581L206.047 175.912C184.941 189.856 156.23 200.243 125.155 205.024L125.459 207L125.763 208.977C157.282 204.128 186.568 193.576 208.252 179.249L207.149 177.581ZM125.459 207L126.136 208.882C143.816 202.524 158.768 194.001 169.105 184.497C179.398 175.033 185.399 164.314 184.385 153.625L182.394 153.814L180.403 154.003C181.246 162.884 176.284 172.463 166.398 181.552C156.556 190.601 142.112 198.886 124.782 205.118L125.459 207ZM182.394 153.814L184.385 153.626C183.073 139.686 170.331 129.604 152.201 124.125C133.929 118.604 109.46 117.481 83.0884 121.937L83.4216 123.909L83.7548 125.881C109.676 121.501 133.5 122.653 151.044 127.954C168.73 133.298 179.328 142.587 180.403 154.001L182.394 153.814ZM83.4216 123.909L83.089 121.937C44.8777 128.381 12.593 144.874 -1.46107 163.66L0.140381 164.858L1.74183 166.056C14.9179 148.444 46.021 132.245 83.7543 125.881L83.4216 123.909ZM0.140381 164.858L1.92899 163.963C2.12251 164.35 2.09546 164.716 2.09546 164.593H0.095459H-1.90454C-1.90454 164.648 -1.93034 165.189 -1.64823 165.753L0.140381 164.858ZM0.095459 164.593L2.08959 164.44C0.891543 148.835 11.759 132.061 33.9971 117.361L32.8943 115.693L31.7914 114.024C9.12002 129.01 -3.26451 146.956 -1.89867 164.746L0.095459 164.593ZM32.8943 115.693L33.996 117.362C37.7122 114.909 41.6655 112.564 45.8282 110.34L44.8855 108.576L43.9428 106.812C39.6786 109.091 35.6185 111.499 31.7926 114.024L32.8943 115.693ZM44.8855 108.576L45.6618 106.732C40.3939 104.514 35.7593 101.896 31.8562 98.9076L30.6404 100.496L29.4246 102.084C33.6418 105.312 38.5832 108.091 44.1092 110.419L44.8855 108.576ZM30.6404 100.496L31.8544 98.9062C23.7691 92.7303 19.2208 85.0323 18.4421 76.7632L16.4509 76.9507L14.4597 77.1382C15.3617 86.7164 20.6267 95.3635 29.4264 102.085L30.6404 100.496ZM16.4509 76.9507L18.442 76.7617C17.0865 62.4813 26.7697 46.914 46.9775 33.0572L45.8464 31.4077L44.7154 29.7583C24.0783 43.9094 12.8971 60.6753 14.4599 77.1397L16.4509 76.9507ZM45.8464 31.4077L46.9759 33.0583C66.1844 19.9142 92.4644 9.92955 120.974 5.10823L120.64 3.13623L120.307 1.16423C91.3519 6.06091 64.4982 16.2212 44.717 29.7572L45.8464 31.4077ZM174.835 49.6968L176.826 49.5115C176.073 41.418 169.041 35.6698 159.515 32.5552C149.882 29.4058 137.077 28.6886 123.354 31.027L123.69 32.9985L124.026 34.9701C137.268 32.7138 149.394 33.4544 158.272 36.3571C167.256 39.2945 172.314 44.1928 172.843 49.882L174.835 49.6968ZM123.69 32.9985L123.354 31.0269C109.628 33.3654 97.3964 38.3334 88.7046 44.5579C80.1229 50.7037 74.4984 58.4656 75.2398 66.4462L77.2312 66.2612L79.2226 66.0762C78.6836 60.2743 82.8067 53.7016 91.0336 47.81C99.1504 41.9972 110.789 37.2252 124.026 34.9701L123.69 32.9985ZM77.2312 66.2612L75.2398 66.4465C75.9926 74.5394 83.0248 80.2872 92.5512 83.4018C102.184 86.5512 114.989 87.2687 128.713 84.9311L128.377 82.9595L128.041 80.9879C114.799 83.2435 102.673 82.5026 93.7942 79.5999C84.8097 76.6624 79.7518 71.7645 79.2226 66.076L77.2312 66.2612ZM128.377 82.9595L128.71 84.9316C142.437 82.6149 154.67 77.6576 163.362 71.4324C171.947 65.2848 177.568 57.5123 176.826 49.5122L174.835 49.6968L172.843 49.8814C173.383 55.7069 169.258 62.2905 161.033 68.1803C152.918 73.9924 141.28 78.7536 128.044 80.9874L128.377 82.9595Z" fill="#444444" mask="url(#path-1-inside-1_1568_11909)"/>
</svg>
