<svg width="16" height="16" viewBox="0 0 16 16" fill="none" xmlns="http://www.w3.org/2000/svg">
<path d="M13.3535 8.14622C13.4 8.19266 13.4369 8.2478 13.4621 8.3085C13.4872 8.3692 13.5002 8.43427 13.5002 8.49997C13.5002 8.56568 13.4872 8.63074 13.4621 8.69144C13.4369 8.75214 13.4 8.80729 13.3535 8.85372L8.35354 13.8537C8.3071 13.9002 8.25196 13.9371 8.19126 13.9623C8.13056 13.9874 8.0655 14.0004 7.99979 14.0004C7.93408 14.0004 7.86902 13.9874 7.80832 13.9623C7.74762 13.9371 7.69248 13.9002 7.64604 13.8537L2.64604 8.85372C2.55222 8.7599 2.49951 8.63265 2.49951 8.49997C2.49951 8.36729 2.55222 8.24004 2.64604 8.14622C2.73986 8.0524 2.86711 7.99969 2.99979 7.99969C3.13247 7.99969 3.25972 8.0524 3.35354 8.14622L7.99979 12.7931L12.646 8.14622C12.6925 8.09973 12.7476 8.06285 12.8083 8.03769C12.869 8.01253 12.9341 7.99958 12.9998 7.99958C13.0655 7.99958 13.1306 8.01253 13.1913 8.03769C13.252 8.06285 13.3071 8.09973 13.3535 8.14622ZM7.64604 8.85372C7.69248 8.90021 7.74762 8.93709 7.80832 8.96225C7.86902 8.98742 7.93408 9.00037 7.99979 9.00037C8.0655 9.00037 8.13056 8.98742 8.19126 8.96225C8.25196 8.93709 8.3071 8.90021 8.35354 8.85372L13.3535 3.85372C13.4474 3.7599 13.5001 3.63265 13.5001 3.49997C13.5001 3.36729 13.4474 3.24004 13.3535 3.14622C13.2597 3.0524 13.1325 2.99969 12.9998 2.99969C12.8671 2.99969 12.7399 3.0524 12.646 3.14622L7.99979 7.7931L3.35354 3.14622C3.25972 3.0524 3.13247 2.99969 2.99979 2.99969C2.86711 2.99969 2.73986 3.0524 2.64604 3.14622C2.55222 3.24004 2.49951 3.36729 2.49951 3.49997C2.49951 3.63265 2.55222 3.7599 2.64604 3.85372L7.64604 8.85372Z" fill="#444444"/>
</svg>
