<svg width="40" height="41" viewBox="0 0 40 41" fill="none" xmlns="http://www.w3.org/2000/svg">
<g clip-path="url(#clip0_1047_9212)">
<path d="M4 4.5H36V36.5H4V4.5Z" fill="#003399"/>
<path d="M20.1545 10.2676L20.3573 11.0783L20.9982 11.0849C21.0812 11.0858 21.1156 11.2269 21.0489 11.2927L20.5333 11.8004L20.7266 12.6151C20.7516 12.7205 20.6615 12.8079 20.594 12.7435L20.0726 12.2466L19.5512 12.7435C19.4837 12.8079 19.3935 12.7206 19.4186 12.6151L19.6119 11.8004L19.0963 11.2927C19.0295 11.2269 19.0639 11.0858 19.1469 11.0849L19.7878 11.0783L19.9906 10.2676C20.0168 10.1626 20.1283 10.1626 20.1545 10.2676Z" fill="#FFE15A"/>
<path d="M20.1545 27.6738L20.3573 28.4845L20.9982 28.4912C21.0812 28.492 21.1156 28.6332 21.0489 28.6989L20.5333 29.2066L20.7266 30.0214C20.7516 30.1268 20.6615 30.2142 20.594 30.1498L20.0726 29.6528L19.5512 30.1498C19.4837 30.2141 19.3935 30.1269 19.4186 30.0214L19.6119 29.2066L19.0963 28.6989C19.0295 28.6332 19.0639 28.492 19.1469 28.4912L19.7878 28.4845L19.9906 27.6738C20.0168 27.5689 20.1283 27.5689 20.1545 27.6738Z" fill="#FFE15A"/>
<path d="M26.6813 18.9711L26.8842 19.7818L27.5251 19.7884C27.6081 19.7892 27.6425 19.9304 27.5757 19.9962L27.0601 20.5039L27.2534 21.3186C27.2784 21.424 27.1884 21.5114 27.1208 21.447L26.5994 20.95L26.078 21.447C26.0105 21.5113 25.9204 21.4241 25.9454 21.3186L26.1387 20.5039L25.6231 19.9962C25.5564 19.9304 25.5907 19.7892 25.6738 19.7884L26.3147 19.7818L26.5175 18.9711C26.5437 18.8661 26.6551 18.8661 26.6813 18.9711Z" fill="#FFE15A"/>
<path d="M13.6267 18.9711L13.8295 19.7818L14.4704 19.7884C14.5534 19.7892 14.5878 19.9304 14.521 19.9962L14.0054 20.5039L14.1987 21.3186C14.2238 21.424 14.1337 21.5114 14.0661 21.447L13.5447 20.95L13.0233 21.447C12.9558 21.5113 12.8657 21.4241 12.8907 21.3186L13.0841 20.5039L12.5684 19.9962C12.5017 19.9304 12.5361 19.7892 12.6191 19.7884L13.26 19.7818L13.4628 18.9711C13.489 18.8661 13.6005 18.8661 13.6267 18.9711Z" fill="#FFE15A"/>
<path d="M14.6066 14.4259L14.8095 15.2366L15.4504 15.2432C15.5334 15.2441 15.5678 15.3852 15.501 15.451L14.9854 15.9587L15.1787 16.7735C15.2037 16.8789 15.1137 16.9663 15.0461 16.9019L14.5247 16.4049L14.0033 16.9019C13.9358 16.9662 13.8457 16.8789 13.8707 16.7735L14.064 15.9587L13.5484 15.451C13.4817 15.3852 13.516 15.2441 13.5991 15.2432L14.24 15.2366L14.4428 14.4259C14.469 14.3209 14.5803 14.3209 14.6066 14.4259Z" fill="#FFE15A"/>
<path d="M25.9128 23.1286L26.1156 23.9394L26.7565 23.946C26.8395 23.9468 26.8739 24.088 26.8072 24.1538L26.2916 24.6615L26.4849 25.4762C26.5099 25.5816 26.4198 25.669 26.3523 25.6046L25.8309 25.1076L25.3095 25.6046C25.242 25.6689 25.1518 25.5817 25.1769 25.4762L25.3702 24.6615L24.8546 24.1538C24.7878 24.088 24.8222 23.9468 24.9052 23.946L25.5461 23.9394L25.7489 23.1286C25.7752 23.0237 25.8866 23.0237 25.9128 23.1286Z" fill="#FFE15A"/>
<path d="M23.5231 11.2406L23.726 12.0513L24.3669 12.0579C24.4499 12.0588 24.4843 12.1999 24.4175 12.2657L23.9019 12.7734L24.0952 13.5881C24.1202 13.6936 24.0302 13.781 23.9626 13.7166L23.4412 13.2196L22.9198 13.7166C22.8523 13.7809 22.7622 13.6936 22.7872 13.5881L22.9805 12.7734L22.4649 12.2657C22.3982 12.1999 22.4325 12.0588 22.5156 12.0579L23.1565 12.0513L23.3593 11.2406C23.3855 11.1356 23.4968 11.1356 23.5231 11.2406Z" fill="#FFE15A"/>
<path d="M16.9953 26.3142L17.1981 27.1249L17.839 27.1315C17.9221 27.1324 17.9564 27.2736 17.8897 27.3393L17.3741 27.847L17.5674 28.6618C17.5924 28.7672 17.5023 28.8546 17.4348 28.7902L16.9134 28.2932L16.392 28.7902C16.3245 28.8545 16.2344 28.7673 16.2594 28.6618L16.4527 27.847L15.9371 27.3393C15.8703 27.2736 15.9047 27.1324 15.9877 27.1315L16.6286 27.1249L16.8315 26.3142C16.8577 26.2092 16.969 26.2092 16.9953 26.3142Z" fill="#FFE15A"/>
<path d="M25.7489 14.4259L25.5461 15.2366L24.9052 15.2432C24.8222 15.2441 24.7878 15.3852 24.8546 15.451L25.3702 15.9587L25.1769 16.7735C25.1518 16.8789 25.2419 16.9663 25.3095 16.9019L25.8309 16.4049L26.3523 16.9019C26.4198 16.9662 26.5099 16.8789 26.4849 16.7735L26.2916 15.9587L26.8072 15.451C26.8739 15.3852 26.8395 15.2441 26.7565 15.2432L26.1156 15.2366L25.9128 14.4259C25.8866 14.3209 25.7752 14.3209 25.7489 14.4259Z" fill="#FFE15A"/>
<path d="M14.4428 23.1286L14.24 23.9394L13.5991 23.946C13.516 23.9468 13.4817 24.088 13.5484 24.1538L14.064 24.6615L13.8707 25.4762C13.8457 25.5816 13.9358 25.669 14.0033 25.6046L14.5247 25.1076L15.0461 25.6046C15.1136 25.6689 15.2037 25.5817 15.1787 25.4762L14.9854 24.6615L15.501 24.1538C15.5678 24.088 15.5334 23.9468 15.4504 23.946L14.8095 23.9394L14.6066 23.1286C14.5803 23.0237 14.469 23.0237 14.4428 23.1286Z" fill="#FFE15A"/>
<path d="M16.8315 11.2406L16.6286 12.0513L15.9877 12.0579C15.9047 12.0588 15.8703 12.1999 15.9371 12.2657L16.4527 12.7734L16.2594 13.5881C16.2344 13.6936 16.3244 13.781 16.392 13.7166L16.9134 13.2196L17.4348 13.7166C17.5023 13.7809 17.5924 13.6936 17.5674 13.5881L17.3741 12.7734L17.8897 12.2657C17.9564 12.1999 17.9221 12.0588 17.839 12.0579L17.1981 12.0513L16.9953 11.2406C16.969 11.1356 16.8577 11.1356 16.8315 11.2406Z" fill="#FFE15A"/>
<path d="M23.3593 26.3142L23.1565 27.1249L22.5156 27.1315C22.4325 27.1324 22.3982 27.2736 22.4649 27.3393L22.9805 27.847L22.7872 28.6618C22.7622 28.7672 22.8523 28.8546 22.9198 28.7902L23.4412 28.2932L23.9626 28.7902C24.0301 28.8545 24.1202 28.7673 24.0952 28.6618L23.9019 27.847L24.4175 27.3393C24.4843 27.2736 24.4499 27.1324 24.3669 27.1315L23.726 27.1249L23.5231 26.3142C23.4968 26.2092 23.3855 26.2092 23.3593 26.3142Z" fill="#FFE15A"/>
</g>
<rect x="2" y="2.5" width="36" height="36" rx="18" stroke="white" stroke-width="4"/>
<defs>
<clipPath id="clip0_1047_9212">
<rect x="4" y="4.5" width="32" height="32" rx="16" fill="white"/>
</clipPath>
</defs>
</svg>
