<svg width="40" height="41" viewBox="0 0 40 41" fill="none" xmlns="http://www.w3.org/2000/svg">
<g clip-path="url(#clip0_1047_9191)">
<path d="M3.99951 4.5H35.9995V36.5H3.99951V4.5Z" fill="#012169"/>
<path d="M7.74951 4.5L19.9495 16.5667L32.0995 4.5H35.9995V8.63333L23.9995 20.5667L35.9995 32.4333V36.5H31.9995L19.9995 24.5667L8.04951 36.5H3.99951V32.5L15.9495 20.6333L3.99951 8.76667V4.5H7.74951Z" fill="white"/>
<path d="M25.1995 23.2333L35.9995 33.8333V36.5L22.4495 23.2333H25.1995ZM15.9995 24.5667L16.2995 26.9L6.69951 36.5H3.99951L15.9995 24.5667ZM35.9995 4.5V4.7L23.5495 17.2333L23.6495 14.3L33.4995 4.5H35.9995ZM3.99951 4.5L15.9495 16.2333H12.9495L3.99951 7.3V4.5Z" fill="#C8102E"/>
<path d="M16.0495 4.5V36.5H24.0495V4.5H16.0495ZM3.99951 15.1667V25.8333H35.9995V15.1667H3.99951Z" fill="white"/>
<path d="M3.99951 17.3667V23.7667H35.9995V17.3667H3.99951ZM17.6495 4.5V36.5H22.4495V4.5H17.6495Z" fill="#C8102E"/>
</g>
<rect x="2" y="2.5" width="36" height="36" rx="18" stroke="white" stroke-width="4"/>
<defs>
<clipPath id="clip0_1047_9191">
<rect x="4" y="4.5" width="32" height="32" rx="16" fill="white"/>
</clipPath>
</defs>
</svg>
