<svg width="28" height="25" viewBox="0 0 28 25" fill="none" xmlns="http://www.w3.org/2000/svg">
<path d="M27.5296 5.18635C27.4317 4.15171 26.8592 3.20418 25.8741 2.4565C23.5018 0.648525 18.979 0.0339887 14.0745 0.863633C10.7224 1.42699 7.62292 2.59477 5.34851 4.14145C2.96588 5.76511 1.7488 7.63951 1.91904 9.42182C2.01708 10.4565 2.58952 11.404 3.5745 12.1517C5.25062 13.4269 7.98909 14.1082 11.1813 14.1082C12.5171 14.1082 13.9301 13.9903 15.3741 13.7445C18.7262 13.1812 21.8257 12.0134 24.1001 10.4667C26.4827 8.84306 27.6998 6.96866 27.5296 5.18635ZM14.9771 10.1185C11.8311 10.651 9.15966 9.78034 9.01009 8.18249C8.86067 6.58449 11.2845 4.85848 14.4303 4.32591C17.5762 3.7932 20.2476 4.6639 20.3972 6.2619C20.5467 7.86488 18.1229 9.59089 14.9771 10.1185Z" fill="#D54241"/>
<path d="M27.9888 15.4245C27.9011 14.3029 27.2978 13.2734 26.2457 12.4438C25.0079 11.4654 23.1617 10.7689 20.9131 10.4207C18.644 10.0724 16.05 10.0979 13.4146 10.4975C9.74265 11.0506 6.34419 12.2696 3.83768 13.9136C1.21792 15.6345 -0.138398 17.6473 0.0111717 19.5833C0.0111717 19.5935 0.01117 19.6037 0.0163378 19.6139C1.60476 17.5039 5.30236 15.6088 9.73246 14.8663C15.8334 13.8419 21.0008 15.3937 21.2793 18.3335C21.4959 20.6025 18.7214 23.0403 14.6368 24.5C18.2882 23.9418 21.6713 22.728 24.1673 21.089C26.7821 19.3682 28.1384 17.3553 27.9888 15.4245Z" fill="#D54241"/>
</svg>
