<svg width="366" height="38" viewBox="0 0 366 38" fill="none" xmlns="http://www.w3.org/2000/svg">
<line x1="4.37114e-08" y1="18.5" x2="366" y2="18.5" stroke="#E7E7EE"/>
<circle cx="183" cy="19" r="19" fill="#C92C2C"/>
<path d="M184.191 22.75C184.191 23.0214 184.276 23.2855 184.433 23.5022C184.59 23.719 184.811 23.8767 185.062 23.9516C185.313 24.0264 185.581 24.0143 185.825 23.917C186.069 23.8198 186.276 23.6427 186.414 23.4125L189.648 20.0537C189.76 19.9376 189.848 19.7998 189.909 19.648C189.969 19.4963 190 19.3337 190 19.1696C190 19.0054 189.969 18.8428 189.908 18.6911C189.848 18.5395 189.759 18.4017 189.647 18.2856C189.536 18.1696 189.403 18.0775 189.257 18.0147C189.111 17.952 188.954 17.9197 188.796 17.9197C188.638 17.9198 188.482 17.9522 188.336 18.0151C188.19 18.078 188.057 18.1701 187.946 18.2862L186.598 19.6862V10.25C186.598 9.91848 186.471 9.60054 186.246 9.36612C186.02 9.1317 185.714 9 185.395 9C185.076 9 184.77 9.1317 184.544 9.36612C184.319 9.60054 184.192 9.91848 184.192 10.25V22.6875V22.75H184.191Z" fill="white"/>
<path d="M181.823 15.25C181.823 14.9786 181.738 14.7145 181.581 14.4978C181.424 14.281 181.203 14.1233 180.952 14.0484C180.701 13.9736 180.433 13.9857 180.189 14.083C179.945 14.1802 179.738 14.3573 179.6 14.5875L176.367 17.9463C176.252 18.0616 176.161 18.1995 176.098 18.352C176.035 18.5045 176.001 18.6685 176 18.8345C175.999 19.0005 176.029 19.1651 176.09 19.3187C176.15 19.4723 176.239 19.6119 176.352 19.7292C176.465 19.8466 176.6 19.9394 176.747 20.0023C176.895 20.0651 177.054 20.0968 177.213 20.0953C177.373 20.0939 177.531 20.0594 177.678 19.9939C177.825 19.9284 177.957 19.8331 178.068 19.7138L179.417 18.3138V27.75C179.417 28.0815 179.544 28.3995 179.769 28.6339C179.995 28.8683 180.301 29 180.62 29C180.939 29 181.245 28.8683 181.471 28.6339C181.696 28.3995 181.823 28.0815 181.823 27.75V15.3125V15.25Z" fill="white"/>
</svg>
