<svg width="40" height="41" viewBox="0 0 40 41" fill="none" xmlns="http://www.w3.org/2000/svg">
<g clip-path="url(#clip0_1047_9177)">
<path fill-rule="evenodd" clip-rule="evenodd" d="M4 4.5H49.6V6.96667H4V4.5ZM4 9.42667H49.6V11.8933H4V9.42667ZM4 14.3467H49.6V16.8133H4V14.3467ZM4 19.2667H49.6V21.7333H4V19.2667ZM4 24.2H49.6V26.6533H4V24.2ZM4 29.1133H49.6V31.58H4V29.1133ZM4 34.0333H49.6V36.5H4V34.0333Z" fill="#BD3D44"/>
<path fill-rule="evenodd" clip-rule="evenodd" d="M4.00049 6.96674H49.6005V9.42674H4.00049V6.96674ZM4.00049 11.8867H49.6005V14.3467H4.00049V11.8867ZM4.00049 16.8067H49.6005V19.2734H4.00049V16.8067ZM4.00049 21.7334H49.6005V24.2001H4.00049V21.7334ZM4.00049 26.6534H49.6005V29.1201H4.00049V26.6534ZM4.00049 31.5734H49.6005V34.0401H4.00049V31.5734Z" fill="white"/>
<path fill-rule="evenodd" clip-rule="evenodd" d="M4 4.5H22.24V21.7333H4V4.5Z" fill="#192F5D"/>
<path fill-rule="evenodd" clip-rule="evenodd" d="M5.51945 5.2334L5.68945 5.92007H6.21945L5.78945 6.34007L5.95445 7.02673L5.51945 6.60007L5.08945 7.02007L5.24945 6.34007L4.81445 5.92007H5.35945L5.51945 5.2334ZM8.55945 5.2334L8.72445 5.92007H9.26445L8.82945 6.34007L8.98945 7.02673L8.55945 6.60007L8.12445 7.02007L8.28945 6.34007L7.85945 5.92007H8.38945L8.55945 5.2334ZM11.5995 5.2334L11.7645 5.92007H12.2995L11.8695 6.34007L12.0345 7.02673L11.5995 6.60007L11.1645 7.02007L11.3295 6.34007L10.8945 5.92007H11.4345L11.5995 5.2334ZM14.6395 5.2334L14.8045 5.92007H15.3445L14.9095 6.34007L15.0745 7.02673L14.6395 6.60007L14.2045 7.02007L14.3745 6.34007L13.9345 5.92007H14.4695L14.6395 5.2334ZM17.6795 5.2334L17.8445 5.92007H18.3795L17.9495 6.34007L18.1145 7.02673L17.6795 6.60007L17.2445 7.02007L17.4095 6.34007L16.9795 5.92007H17.5145L17.6795 5.2334ZM20.7195 5.2334L20.8845 5.92007H21.4245L20.9845 6.34007L21.1545 7.02673L20.7195 6.60007L20.2845 7.02007L20.4545 6.34007L20.0145 5.92007H20.5545L20.7195 5.2334ZM7.03945 6.96673L7.20445 7.64673H7.74945L7.31445 8.06007L7.47445 8.74673L7.04945 8.32673L6.61445 8.74673L6.76945 8.06007L6.34945 7.64673H6.88445L7.03945 6.96673ZM10.0795 6.96673L10.2495 7.64673H10.7845L10.3445 8.06007L10.5145 8.74673L10.0795 8.32673L9.64445 8.74673L9.80945 8.06007L9.37445 7.64673H9.91445L10.0795 6.96673ZM13.1195 6.96673L13.2845 7.64673H13.8245L13.3895 8.06007L13.5545 8.74673L13.1195 8.32673L12.6845 8.74673L12.8495 8.06007L12.4195 7.64673H12.9495L13.1195 6.96673ZM16.1595 6.96673L16.3295 7.64673H16.8645L16.4245 8.06007L16.5945 8.74673L16.1595 8.32673L15.7295 8.74673L15.8895 8.06007L15.4545 7.64673H15.9995L16.1595 6.96673ZM19.1995 6.96673L19.3645 7.64673H19.9045L19.4695 8.06007L19.6345 8.74673L19.1995 8.32673L18.7645 8.74673L18.9295 8.06007L18.4995 7.64673H19.0345L19.1995 6.96673ZM5.51945 8.6734L5.68945 9.36673H6.21945L5.78945 9.78673L5.95445 10.4667L5.51945 10.0467L5.08945 10.4667L5.24945 9.78673L4.81445 9.36673H5.35945L5.51945 8.6734ZM8.55945 8.6734L8.72445 9.36673H9.26445L8.82945 9.78673L8.98945 10.4667L8.55945 10.0467L8.12445 10.4667L8.28945 9.78007L7.85945 9.36007H8.38945L8.55945 8.6734ZM11.5995 8.6734L11.7645 9.36007H12.2995L11.8695 9.78007L12.0345 10.4601L11.5995 10.0401L11.1645 10.4601L11.3295 9.7734L10.8945 9.3534H11.4345L11.5995 8.6734ZM14.6395 8.6734L14.8045 9.36007H15.3445L14.9095 9.78007L15.0745 10.4601L14.6395 10.0401L14.2045 10.4601L14.3745 9.7734L13.9345 9.3534H14.4695L14.6395 8.6734ZM17.6795 8.6734L17.8445 9.36007H18.3795L17.9495 9.78007L18.1145 10.4601L17.6795 10.0401L17.2445 10.4601L17.4095 9.7734L16.9795 9.3534H17.5145L17.6795 8.6734ZM20.7195 8.6734L20.8845 9.36007H21.4245L20.9845 9.78007L21.1545 10.4601L20.7195 10.0401L20.2845 10.4601L20.4545 9.7734L20.0145 9.3534H20.5545L20.7195 8.6734ZM7.03945 10.4067L7.20445 11.0867H7.74945L7.31445 11.5067L7.47945 12.1934L7.04445 11.7667L6.60945 12.1867L6.77445 11.5067L6.34445 11.0867H6.87945L7.03945 10.4067ZM10.0795 10.4067L10.2495 11.0867H10.7845L10.3445 11.5067L10.5145 12.1934L10.0795 11.7667L9.64445 12.1867L9.80945 11.5067L9.37445 11.0867H9.91445L10.0795 10.4067ZM13.1195 10.4067L13.2845 11.0867H13.8245L13.3895 11.5067L13.5545 12.1934L13.1195 11.7667L12.6845 12.1867L12.8495 11.5067L12.4195 11.0867H12.9495L13.1195 10.4067ZM16.1595 10.4067L16.3295 11.0867H16.8645L16.4295 11.5067L16.5945 12.1934L16.1595 11.7667L15.7295 12.1867L15.8895 11.5067L15.4545 11.0867H15.9995L16.1595 10.4067ZM19.1995 10.4067L19.3645 11.0867H19.9045L19.4695 11.5067L19.6345 12.1934L19.1995 11.7667L18.7645 12.1867L18.9295 11.5067L18.4995 11.0867H19.0345L19.1995 10.4067ZM5.51945 12.1334L5.68945 12.8134H6.21945L5.78945 13.2334L5.95445 13.9201L5.51945 13.4934L5.08945 13.9134L5.24945 13.2334L4.81445 12.8134H5.35945L5.51945 12.1334ZM8.55945 12.1334L8.72445 12.8134H9.26445L8.82945 13.2334L8.98945 13.9134L8.55945 13.4934L8.12445 13.9134L8.28945 13.2334L7.85945 12.8134H8.38945L8.55945 12.1334ZM11.5995 12.1334L11.7645 12.8134H12.2995L11.8695 13.2334L12.0345 13.9201L11.5995 13.4934L11.1645 13.9134L11.3295 13.2334L10.8945 12.8134H11.4345L11.5995 12.1334ZM14.6395 12.1334L14.8045 12.8134H15.3445L14.9095 13.2334L15.0745 13.9201L14.6395 13.4934L14.2045 13.9134L14.3745 13.2334L13.9345 12.8134H14.4695L14.6395 12.1334ZM17.6795 12.1334L17.8445 12.8134H18.3795L17.9495 13.2334L18.1145 13.9201L17.6795 13.4934L17.2445 13.9134L17.4095 13.2334L16.9795 12.8134H17.5145L17.6795 12.1334ZM20.7195 12.1334L20.8845 12.8134H21.4245L20.9845 13.2334L21.1545 13.9201L20.7195 13.4934L20.2845 13.9134L20.4495 13.2334L20.0095 12.8134H20.5495L20.7195 12.1334ZM7.03945 13.8534L7.20445 14.5401H7.74945L7.31445 14.9534L7.47945 15.6401L7.04445 15.2134L6.60945 15.6401L6.77445 14.9534L6.34445 14.5334H6.87945L7.03945 13.8534ZM10.0795 13.8534L10.2495 14.5401H10.7845L10.3445 14.9534L10.5145 15.6401L10.0795 15.2134L9.64445 15.6401L9.80945 14.9534L9.37445 14.5334H9.91445L10.0795 13.8534ZM13.1195 13.8534L13.2845 14.5401H13.8245L13.3895 14.9534L13.5545 15.6401L13.1195 15.2134L12.6845 15.6401L12.8495 14.9534L12.4195 14.5334H12.9495L13.1195 13.8534ZM16.1595 13.8534L16.3295 14.5401H16.8645L16.4295 14.9534L16.5945 15.6401L16.1595 15.2134L15.7295 15.6401L15.8895 14.9534L15.4545 14.5334H15.9995L16.1595 13.8534ZM19.1995 13.8534L19.3645 14.5401H19.9045L19.4695 14.9534L19.6345 15.6401L19.1995 15.2134L18.7645 15.6401L18.9295 14.9534L18.4995 14.5334H19.0345L19.1995 13.8534ZM5.51945 15.5734L5.68945 16.2601H6.21945L5.78945 16.6801L5.95445 17.3534L5.51945 16.9401L5.08945 17.3534L5.24945 16.6734L4.81445 16.2534H5.35945L5.51945 15.5734ZM8.55945 15.5734L8.72445 16.2601H9.26445L8.82945 16.6801L8.99445 17.3534L8.55945 16.9401L8.12445 17.3534L8.29445 16.6734L7.85945 16.2534H8.38945L8.55945 15.5734ZM11.5995 15.5734L11.7645 16.2601H12.2995L11.8695 16.6801L12.0345 17.3534L11.5995 16.9401L11.1645 17.3534L11.3295 16.6734L10.8945 16.2534H11.4345L11.5995 15.5734ZM14.6395 15.5734L14.8045 16.2601H15.3445L14.9095 16.6801L15.0745 17.3534L14.6395 16.9401L14.2045 17.3534L14.3745 16.6734L13.9345 16.2534H14.4695L14.6395 15.5734ZM17.6795 15.5734L17.8445 16.2601H18.3795L17.9495 16.6801L18.1145 17.3534L17.6795 16.9401L17.2445 17.3534L17.4095 16.6734L16.9795 16.2534H17.5145L17.6795 15.5734ZM20.7195 15.5734L20.8845 16.2601H21.4245L20.9845 16.6801L21.1545 17.3534L20.7195 16.9401L20.2845 17.3534L20.4545 16.6734L20.0145 16.2534H20.5545L20.7195 15.5734ZM7.03945 17.3001L7.20445 17.9801H7.74945L7.31445 18.4001L7.47945 19.0867L7.04445 18.6601L6.60945 19.0801L6.77445 18.4001L6.34445 17.9801H6.87945L7.03945 17.3001ZM10.0795 17.3001L10.2495 17.9801H10.7845L10.3445 18.4001L10.5145 19.0867L10.0795 18.6601L9.64445 19.0801L9.80945 18.4001L9.37445 17.9801H9.91445L10.0795 17.3001ZM13.1195 17.3001L13.2845 17.9801H13.8245L13.3895 18.4001L13.5545 19.0867L13.1195 18.6601L12.6845 19.0801L12.8495 18.4001L12.4195 17.9801H12.9495L13.1195 17.3001ZM16.1595 17.3001L16.3295 17.9801H16.8645L16.4295 18.4001L16.5945 19.0867L16.1595 18.6601L15.7295 19.0801L15.8895 18.4001L15.4545 17.9801H15.9995L16.1595 17.3001ZM19.1995 17.3001L19.3645 17.9801H19.9045L19.4695 18.4001L19.6345 19.0867L19.1995 18.6601L18.7645 19.0801L18.9295 18.4001L18.4995 17.9801H19.0345L19.1995 17.3001ZM5.51945 19.0267L5.68945 19.7067H6.21945L5.78945 20.1267L5.95445 20.8067L5.51945 20.3867L5.08945 20.8067L5.24945 20.1201L4.81445 19.7001H5.35945L5.51945 19.0267ZM8.55945 19.0267L8.72445 19.7067H9.26445L8.82945 20.1267L8.99445 20.8067L8.55945 20.3867L8.12445 20.8067L8.29445 20.1201L7.85945 19.7001H8.38945L8.55945 19.0267ZM11.5995 19.0267L11.7645 19.7067H12.2995L11.8795 20.1267L12.0445 20.8067L11.6095 20.3867L11.1745 20.8067L11.3395 20.1201L10.9045 19.7001H11.4445L11.5995 19.0267ZM14.6395 19.0267L14.8045 19.7067H15.3445L14.9095 20.1267L15.0745 20.8067L14.6395 20.3867L14.2045 20.8067L14.3745 20.1201L13.9345 19.7001H14.4695L14.6395 19.0267ZM17.6795 19.0267L17.8445 19.7067H18.3795L17.9495 20.1267L18.1145 20.8067L17.6795 20.3867L17.2445 20.8067L17.4095 20.1201L16.9795 19.7001H17.5145L17.6795 19.0267ZM20.7195 19.0267L20.8845 19.7067H21.4245L20.9845 20.1267L21.1545 20.8067L20.7195 20.3867L20.2845 20.8067L20.4545 20.1201L20.0145 19.7001H20.5545L20.7195 19.0267Z" fill="white"/>
</g>
<rect x="2" y="2.5" width="36" height="36" rx="18" stroke="white" stroke-width="4"/>
<defs>
<clipPath id="clip0_1047_9177">
<rect x="4" y="4.5" width="32" height="32" rx="16" fill="white"/>
</clipPath>
</defs>
</svg>
