<svg width="32" height="33" viewBox="0 0 32 33" fill="none" xmlns="http://www.w3.org/2000/svg">
<g clip-path="url(#clip0_1047_9205)">
<path d="M16 32.5C24.8366 32.5 32 25.3366 32 16.5C32 7.66344 24.8366 0.5 16 0.5C7.16344 0.5 0 7.66344 0 16.5C0 25.3366 7.16344 32.5 16 32.5Z" fill="#3E73C4"/>
<path d="M20.0216 18.624C20.0216 16.5 18.7416 15.772 16.1816 15.468C14.3536 15.225 13.9886 14.74 13.9886 13.89C13.9886 13.04 14.5986 12.494 15.8166 12.494C16.9136 12.494 17.5236 12.858 17.8276 13.769C17.8592 13.8571 17.9172 13.9334 17.9935 13.9875C18.0698 14.0417 18.161 14.0712 18.2546 14.072H19.2296C19.2859 14.0735 19.3419 14.0636 19.3943 14.0428C19.4466 14.022 19.4942 13.9907 19.5341 13.951C19.5741 13.9113 19.6055 13.8638 19.6265 13.8116C19.6476 13.7593 19.6578 13.7033 19.6566 13.647V13.587C19.5374 12.9279 19.2039 12.3266 18.7079 11.8765C18.2119 11.4264 17.5811 11.1528 16.9136 11.098V9.64201C16.9136 9.39901 16.7306 9.21701 16.4266 9.15601H15.5116C15.2686 9.15601 15.0856 9.33801 15.0246 9.64201V11.038C13.1956 11.28 12.0386 12.494 12.0386 14.012C12.0386 16.014 13.2566 16.803 15.8166 17.107C17.5236 17.41 18.0716 17.775 18.0716 18.746C18.0716 19.716 17.2186 20.384 16.0606 20.384C14.4756 20.384 13.9276 19.717 13.7446 18.806C13.6846 18.564 13.5006 18.442 13.3176 18.442H12.2816C12.2253 18.4406 12.1694 18.4507 12.1172 18.4716C12.0649 18.4924 12.0175 18.5237 11.9777 18.5634C11.9378 18.6031 11.9065 18.6505 11.8855 18.7027C11.8645 18.7549 11.8543 18.8108 11.8556 18.867V18.927C12.0986 20.445 13.0746 21.537 15.0856 21.841V23.298C15.0856 23.54 15.2686 23.723 15.5726 23.783H16.4876C16.7306 23.783 16.9136 23.601 16.9746 23.298V21.84C18.8036 21.537 20.0216 20.262 20.0216 18.623V18.624Z" fill="white"/>
<path d="M12.8918 24.997C8.1378 23.297 5.6998 18.017 7.4678 13.344C8.3818 10.794 10.3928 8.853 12.8918 7.942C13.1358 7.821 13.2568 7.639 13.2568 7.335V6.485C13.2568 6.243 13.1358 6.061 12.8918 6C12.8308 6 12.7088 6 12.6478 6.06C11.2762 6.48832 10.0029 7.18373 8.90122 8.10617C7.79951 9.02862 6.89115 10.1599 6.22844 11.4348C5.56574 12.7098 5.16177 14.1032 5.03981 15.5349C4.91784 16.9666 5.08029 18.4083 5.5178 19.777C6.6138 23.177 9.2348 25.787 12.6478 26.879C12.8918 27 13.1358 26.879 13.1958 26.636C13.2568 26.576 13.2568 26.514 13.2568 26.393V25.543C13.2568 25.361 13.0748 25.119 12.8918 24.997ZM19.3518 6.061C19.1078 5.939 18.8638 6.061 18.8038 6.303C18.7428 6.364 18.7428 6.425 18.7428 6.546V7.396C18.7428 7.639 18.9248 7.881 19.1078 8.003C23.8618 9.703 26.2998 14.983 24.5318 19.656C23.6178 22.206 21.6068 24.147 19.1078 25.058C18.8638 25.179 18.7428 25.361 18.7428 25.665V26.515C18.7428 26.757 18.8638 26.939 19.1078 27C19.1688 27 19.2908 27 19.3518 26.94C20.7234 26.5117 21.9967 25.8163 23.0984 24.8938C24.2001 23.9714 25.1084 22.8401 25.7712 21.5652C26.4339 20.2902 26.8378 18.8968 26.9598 17.4651C27.0818 16.0334 26.9193 14.5917 26.4818 13.223C25.3858 9.763 22.7038 7.153 19.3518 6.061Z" fill="white"/>
</g>
<defs>
<clipPath id="clip0_1047_9205">
<rect width="32" height="32" fill="white" transform="translate(0 0.5)"/>
</clipPath>
</defs>
</svg>
