<svg width="32" height="33" viewBox="0 0 32 33" fill="none" xmlns="http://www.w3.org/2000/svg">
<g clip-path="url(#clip0_1047_9198)">
<path d="M16 32.5C24.8366 32.5 32 25.3366 32 16.5C32 7.66344 24.8366 0.5 16 0.5C7.16344 0.5 0 7.66344 0 16.5C0 25.3366 7.16344 32.5 16 32.5Z" fill="#26A17B"/>
<path fill-rule="evenodd" clip-rule="evenodd" d="M17.9218 17.883V17.881C17.8118 17.889 17.2448 17.923 15.9798 17.923C14.9698 17.923 14.2588 17.893 14.0088 17.881V17.884C10.1208 17.713 7.2188 17.036 7.2188 16.226C7.2188 15.417 10.1208 14.74 14.0088 14.566V17.21C14.2628 17.228 14.9908 17.271 15.9968 17.271C17.2038 17.271 17.8088 17.221 17.9218 17.211V14.568C21.8018 14.741 24.6968 15.418 24.6968 16.226C24.6968 17.036 21.8018 17.711 17.9218 17.883ZM17.9218 14.293V11.927H23.3358V8.31897H8.5948V11.927H14.0088V14.292C9.6088 14.494 6.2998 15.366 6.2998 16.41C6.2998 17.454 9.6088 18.325 14.0088 18.528V26.11H17.9218V18.526C22.3148 18.324 25.6158 17.453 25.6158 16.41C25.6158 15.367 22.3148 14.496 17.9218 14.293Z" fill="white"/>
</g>
<defs>
<clipPath id="clip0_1047_9198">
<rect width="32" height="32" fill="white" transform="translate(0 0.5)"/>
</clipPath>
</defs>
</svg>
