<svg width="40" height="35" viewBox="0 0 40 35" fill="none" xmlns="http://www.w3.org/2000/svg">
<path d="M39.3284 6.83426C39.1886 5.32542 38.3708 3.94359 36.9635 2.85323C33.5745 0.216599 27.1133 -0.6796 20.1069 0.530299C15.3182 1.35187 10.8903 3.05488 7.64119 5.31045C4.23743 7.67828 2.49874 10.4118 2.74194 13.011C2.882 14.5198 3.69977 15.9017 5.10687 16.992C7.50134 18.8518 11.4134 19.8453 15.9737 19.8453C17.882 19.8453 19.9006 19.6733 21.9635 19.3149C26.7522 18.4934 31.18 16.7904 34.4292 14.5348C37.8329 12.167 39.5716 9.43347 39.3284 6.83426ZM21.3963 14.0269C16.902 14.8036 13.0857 13.5338 12.872 11.2036C12.6586 8.87321 16.1212 6.35612 20.6152 5.57945C25.1093 4.80258 28.9256 6.07235 29.1393 8.40277C29.3529 10.7404 25.8903 13.2575 21.3963 14.0269Z" fill="white"/>
<path d="M39.984 21.7649C39.8587 20.1292 38.9969 18.6279 37.4938 17.418C35.7256 15.9912 33.0881 14.9755 29.8759 14.4676C26.6343 13.9598 22.9285 13.997 19.1637 14.5797C13.9181 15.3863 9.06312 17.1639 5.48239 19.5615C1.73988 22.0711 -0.197711 25.0065 0.0159596 27.8298C0.0159596 27.8447 0.0159571 27.8595 0.0233396 27.8745C2.29251 24.7973 7.5748 22.0337 13.9035 20.9508C22.6191 19.4569 30.0012 21.72 30.399 26.0072C30.7084 29.3162 26.7449 32.8712 20.9097 35C26.126 34.1859 30.959 32.4158 34.5248 30.0257C38.2601 27.5161 40.1977 24.5807 39.984 21.7649Z" fill="white"/>
</svg>
