<svg width="104" height="104" viewBox="0 0 104 104" fill="none" xmlns="http://www.w3.org/2000/svg">
<g clip-path="url(#clip0_972_7346)">
<path opacity="0.2" d="M32.5 54.7909L90.7603 13.0366C90.7102 13.0153 90.6563 13.0044 90.6019 13.0044C90.5474 13.0044 90.4936 13.0153 90.4434 13.0366L8.125 45.2481C7.61389 45.4448 7.18039 45.802 6.88955 46.2661C6.59872 46.7301 6.46625 47.276 6.51204 47.8217C6.55782 48.3675 6.77938 48.8836 7.14347 49.2927C7.50755 49.7018 7.99451 49.9818 8.53125 50.0906L32.5 54.7909Z" fill="#D54241"/>
<path d="M50.5253 70.5982L38.09 83.5007C37.6407 83.9669 37.0623 84.2882 36.4291 84.4235C35.796 84.5588 35.1368 84.5019 34.5362 84.2601C33.9356 84.0183 33.4209 83.6026 33.0581 83.0663C32.6953 82.53 32.501 81.8976 32.5 81.2501V54.791L50.5253 70.5982Z" fill="#D54241"/>
<path d="M32.5 54.7909L69.1681 86.9374C69.5905 87.3101 70.1025 87.5666 70.6539 87.6817C71.2052 87.7969 71.7771 87.7667 72.3133 87.5943C72.8495 87.4218 73.3317 87.1129 73.7126 86.698C74.0935 86.283 74.36 85.7761 74.4859 85.2271L91 13.4956C91.0161 13.4236 91.0124 13.3487 90.9891 13.2787C90.9659 13.2088 90.9241 13.1465 90.8681 13.0985C90.8122 13.0504 90.7443 13.0186 90.6716 13.0062C90.5989 12.9939 90.5243 13.0015 90.4556 13.0284L8.125 45.2481C7.61389 45.4448 7.18039 45.802 6.88955 46.266C6.59872 46.7301 6.46625 47.2759 6.51204 47.8217C6.55782 48.3674 6.77938 48.8836 7.14347 49.2927C7.50755 49.7018 7.99451 49.9818 8.53125 50.0906L32.5 54.7909Z" stroke="#D54241" stroke-width="4" stroke-linecap="round" stroke-linejoin="round"/>
<path d="M32.5 54.791L90.7603 13.0366" stroke="#D54241" stroke-width="4" stroke-linecap="round" stroke-linejoin="round"/>
<path d="M50.092 70.4073L37.6567 83.3098C37.2073 83.776 36.629 84.0973 35.9958 84.2326C35.3626 84.3679 34.7035 84.311 34.1028 84.0692C33.5022 83.8274 32.9875 83.4117 32.6247 82.8754C32.2619 82.3391 32.0676 81.7066 32.0667 81.0592V54.6001" stroke="#D54241" stroke-width="4" stroke-linecap="round" stroke-linejoin="round"/>
</g>
<defs>
<clipPath id="clip0_972_7346">
<rect width="104" height="104" fill="white"/>
</clipPath>
</defs>
</svg>
