<svg width="713" height="686" viewBox="0 0 713 686" fill="none" xmlns="http://www.w3.org/2000/svg">
<g clip-path="url(#clip0_2094_9112)">
<mask id="mask0_2094_9112" style="mask-type:alpha" maskUnits="userSpaceOnUse" x="0" y="0" width="1440" height="1386">
<path d="M350.576 77.3569C352.329 70.9642 356.954 65.6387 363.941 62.0206C380.78 53.2624 409.762 54.3603 439.542 64.9509C459.901 72.1664 478.014 82.9017 490.545 95.1137C503.669 107.927 509.223 121.039 506.196 132.051C504.443 138.444 499.817 143.77 492.83 147.387C480.936 153.563 463.048 154.84 443.07 151.339C434.71 149.875 425.996 147.585 417.23 144.457C396.871 137.242 378.758 126.506 366.227 114.294C353.103 101.481 347.549 88.3687 350.576 77.3569ZM423.706 122.109C442.808 128.906 460.486 126.364 463.181 116.488C465.876 106.612 452.606 93.1102 433.504 86.314C414.402 79.5179 396.725 82.0592 394.03 91.9352C391.329 101.843 404.599 115.346 423.706 122.109Z" fill="white"/>
<path d="M199.399 34.978C203.692 29.9278 210.138 27.0607 217.999 26.7403C236.961 25.9321 262.754 39.194 285.253 61.3945C300.645 76.549 312.511 93.9417 318.694 110.31C325.162 127.474 324.644 141.705 317.24 150.399C312.947 155.45 306.501 158.317 298.64 158.637C285.25 159.198 268.503 152.783 251.884 141.155C244.93 136.29 238.004 130.528 231.386 123.983C215.994 108.829 204.128 91.4358 197.945 75.0678C191.477 57.9039 191.995 43.6734 199.399 34.978ZM246.713 106.477C261.142 120.72 278.234 125.9 284.855 118.093C291.477 110.286 285.171 92.4362 270.74 78.1937C256.31 63.9513 239.22 58.7715 232.597 66.5783C225.957 74.4121 232.263 92.2618 246.713 106.477Z" fill="white"/>
<path d="M64.7708 14.7239C71.6685 12.0528 79.33 12.3631 86.8616 15.6533C105.046 23.5553 121.577 47.4654 129.923 78.065C135.652 98.9682 136.806 120.315 133.236 138.134C129.475 156.81 120.861 169.614 108.974 174.209C102.076 176.88 94.4144 176.57 86.8828 173.279C74.0486 167.691 62.06 154.178 53.1694 135.948C49.4494 128.32 46.2684 119.882 43.8211 110.868C38.0928 89.9647 36.9384 68.6175 40.5089 50.7991C44.2698 32.1223 52.8835 19.3179 64.7708 14.7239ZM68.1468 101.812C73.4973 121.441 86.5126 133.978 97.1616 129.842C107.811 125.706 112.113 106.474 106.762 86.8447C101.412 67.2157 88.3962 54.6787 77.7472 58.8146C67.0654 62.9666 62.7636 82.1988 68.1468 101.812Z" fill="white"/>
<path d="M549.79 98.9538C549.12 92.3591 551.516 85.7244 556.73 79.8311C569.28 65.5934 596.71 56.1723 628.306 55.3183C649.897 54.7114 670.662 58.1977 686.751 65.0728C703.612 72.2953 713.518 82.5247 714.662 93.8875C715.332 100.482 712.936 107.117 707.723 113.01C698.853 123.056 682.627 130.695 662.73 134.63C654.405 136.276 645.451 137.281 636.146 137.523C614.555 138.13 593.791 134.643 577.701 127.768C560.84 120.546 550.935 110.316 549.79 98.9538ZM634.134 114.343C654.401 113.798 669.974 105.057 668.93 94.873C667.884 84.6895 650.64 76.877 630.372 77.4219C610.106 77.9668 594.532 86.7082 595.577 96.8918C596.628 107.107 613.873 114.92 634.134 114.343Z" fill="white"/>
<path d="M561.29 262.994C560.666 250.257 562.898 237.443 567.755 226.06C579.448 198.562 605.005 180.366 634.444 178.717C654.561 177.545 673.907 184.278 688.898 197.556C704.607 211.506 713.836 231.264 714.903 253.209C715.527 265.946 713.295 278.76 708.436 290.143C700.174 309.547 685.056 324.299 666.517 331.9C658.76 335.08 650.419 337.02 641.749 337.487C621.633 338.659 602.286 331.925 587.294 318.647C571.586 304.698 562.357 284.941 561.29 262.994ZM639.875 292.717C658.757 291.665 673.267 274.782 672.293 255.113C671.319 235.444 655.253 220.355 636.369 221.408C617.487 222.46 602.976 239.343 603.95 259.012C604.93 278.742 620.996 293.832 639.875 292.717Z" fill="white"/>
<path d="M369.962 251.753C371.218 239.067 375.045 226.67 381.018 216.031C395.411 190.321 420.896 175.609 447.499 177.772C465.685 179.208 482.054 188.368 493.589 203.444C505.67 219.277 511.121 240.023 508.948 261.884C507.692 274.57 503.867 286.967 497.892 297.606C487.725 315.746 472.082 328.397 454.394 333.529C446.992 335.676 439.243 336.52 431.411 335.865C413.225 334.429 396.857 325.269 385.323 310.193C373.24 294.36 367.789 273.614 369.962 251.753ZM436.114 291.309C453.178 292.704 468.58 277.864 470.511 258.27C472.443 238.678 460.203 221.67 443.139 220.277C426.074 218.882 410.672 233.722 408.741 253.315C406.806 272.971 419.046 289.977 436.114 291.309Z" fill="white"/>
<path d="M208.86 225.627C216.353 215.317 225.553 206.247 235.394 199.498C259.145 183.173 285.213 180.481 303.328 192.58C315.736 200.812 322.819 214.916 323.337 232.192C323.857 250.32 317.031 270.072 304.116 287.833C296.623 298.143 287.422 307.214 277.581 313.964C260.814 325.477 242.935 330.209 227.479 327.754C221.013 326.727 214.971 324.459 209.648 320.88C197.241 312.648 190.157 298.544 189.64 281.27C189.12 263.14 195.944 243.388 208.86 225.627ZM236.171 284.786C247.788 292.551 266.629 285.866 278.193 269.94C289.758 254.015 289.733 234.825 278.116 227.06C266.5 219.295 247.659 225.982 236.094 241.907C224.494 257.883 224.519 277.073 236.171 284.786Z" fill="white"/>
<path d="M67.4862 208.57C78.8026 202.706 91.0901 198.714 102.912 197.086C131.459 193.125 155.972 202.389 166.753 221.318C174.16 234.235 174.18 250.019 166.907 265.696C159.255 282.139 144.309 296.745 124.807 306.843C113.491 312.706 101.203 316.698 89.3812 318.325C69.2342 321.113 51.1282 317.338 38.4076 308.224C33.0851 304.411 28.6983 299.677 25.5405 294.094C18.1326 281.177 18.1142 265.395 25.3865 249.716C33.0384 233.273 47.9851 218.667 67.4862 208.57ZM65.4179 273.697C72.3282 285.841 92.1684 288.299 109.64 279.237C127.112 270.176 135.681 253.005 128.771 240.861C121.86 228.716 102.02 226.259 84.5484 235.32C67.0226 244.413 58.4533 261.582 65.4179 273.697Z" fill="white"/>
<path d="M350.576 422.795C352.329 416.403 356.954 411.077 363.941 407.46C380.78 398.7 409.762 399.798 439.542 410.389C459.901 417.604 478.014 428.34 490.545 440.552C503.669 453.366 509.223 466.477 506.196 477.49C504.443 483.882 499.817 489.207 492.83 492.826C480.936 499.001 463.048 500.277 443.07 496.778C434.71 495.312 425.996 493.024 417.23 489.896C396.871 482.68 378.758 471.944 366.227 459.733C353.103 446.919 347.549 433.807 350.576 422.795ZM423.706 467.548C442.808 474.345 460.486 471.803 463.181 461.927C465.876 452.051 452.606 438.548 433.504 431.752C414.402 424.957 396.725 427.498 394.03 437.373C391.329 447.282 404.599 460.785 423.706 467.548Z" fill="white"/>
<path d="M199.399 380.418C203.692 375.368 210.138 372.5 217.999 372.181C236.961 371.371 262.754 384.633 285.253 406.834C300.645 421.989 312.511 439.381 318.694 455.75C325.162 472.913 324.644 487.144 317.24 495.84C312.947 500.889 306.501 503.756 298.64 504.077C285.25 504.637 268.503 498.223 251.884 486.595C244.93 481.73 238.004 475.967 231.386 469.422C215.994 454.268 204.128 436.875 197.945 420.507C191.477 403.343 191.995 389.113 199.399 380.418ZM246.713 451.918C261.142 466.159 278.234 471.339 284.855 463.533C291.477 455.726 285.171 437.875 270.74 423.634C256.31 409.391 239.22 404.211 232.597 412.018C225.957 419.852 232.263 437.701 246.713 451.918Z" fill="white"/>
<path d="M64.7708 360.163C71.6685 357.491 79.33 357.803 86.8616 361.092C105.046 368.995 121.577 392.904 129.923 423.504C135.652 444.407 136.806 465.754 133.236 483.572C129.475 502.25 120.861 515.054 108.974 519.648C102.076 522.319 94.4144 522.009 86.8828 518.718C74.0486 513.129 62.06 499.617 53.1694 481.386C49.4494 473.758 46.2684 465.32 43.8211 456.307C38.0928 435.404 36.9384 414.057 40.5089 396.238C44.2698 377.562 52.8835 364.757 64.7708 360.163ZM68.1468 447.251C73.4973 466.88 86.5126 479.418 97.1616 475.281C107.811 471.145 112.113 451.913 106.762 432.283C101.412 412.655 88.3962 400.118 77.7472 404.254C67.0654 408.406 62.7636 427.638 68.1468 447.251Z" fill="white"/>
<path d="M549.79 444.393C549.12 437.799 551.516 431.164 556.73 425.271C569.28 411.034 596.71 401.613 628.306 400.759C649.897 400.152 670.662 403.637 686.751 410.513C703.612 417.736 713.518 427.964 714.662 439.327C715.332 445.922 712.936 452.557 707.723 458.45C698.853 468.496 682.627 476.135 662.73 480.07C654.405 481.717 645.451 482.721 636.146 482.964C614.555 483.571 593.791 480.084 577.701 473.209C560.84 465.986 550.935 455.756 549.79 444.393ZM634.134 459.783C654.401 459.238 669.974 450.497 668.93 440.313C667.884 430.129 650.64 422.317 630.372 422.862C610.106 423.408 594.532 432.148 595.577 442.332C596.628 452.548 613.873 460.36 634.134 459.783Z" fill="white"/>
<path d="M561.29 608.434C560.666 595.697 562.898 582.883 567.755 571.501C579.448 544.002 605.005 525.806 634.444 524.156C654.561 522.984 673.907 529.718 688.898 542.996C704.607 556.945 713.836 576.702 714.903 598.649C715.527 611.386 713.295 624.2 708.436 635.583C700.174 654.985 685.056 669.739 666.517 677.338C658.76 680.52 650.419 682.46 641.749 682.927C621.633 684.1 602.286 677.365 587.294 664.087C571.586 650.137 562.357 630.381 561.29 608.434ZM639.875 638.157C658.757 637.104 673.267 620.221 672.293 600.553C671.319 580.884 655.253 565.795 636.369 566.847C617.487 567.9 602.976 584.783 603.95 604.451C604.93 624.182 620.996 639.272 639.875 638.157Z" fill="white"/>
<path d="M369.962 597.194C371.218 584.506 375.045 572.111 381.018 561.471C395.411 535.761 420.896 521.047 447.499 523.212C465.685 524.647 482.054 533.807 493.589 548.884C505.67 564.717 511.121 585.463 508.948 607.323C507.692 620.009 503.867 632.405 497.892 643.045C487.725 661.184 472.082 673.836 454.394 678.968C446.992 681.114 439.243 681.96 431.411 681.304C413.225 679.869 396.857 670.709 385.323 655.632C373.24 639.799 367.789 619.053 369.962 597.194ZM436.114 636.749C453.178 638.143 468.58 623.304 470.511 603.711C472.443 584.117 460.203 567.109 443.139 565.715C426.074 564.322 410.672 579.161 408.741 598.754C406.806 618.409 419.046 635.417 436.114 636.749Z" fill="white"/>
<path d="M208.86 571.067C216.353 560.757 225.553 551.685 235.394 544.937C259.145 528.612 285.213 525.92 303.328 538.019C315.736 546.251 322.819 560.356 323.337 577.631C323.857 595.759 317.031 615.512 304.116 633.272C296.623 643.582 287.422 652.654 277.581 659.402C260.814 670.915 242.935 675.648 227.479 673.194C221.013 672.166 214.971 669.897 209.648 666.32C197.241 658.087 190.157 643.983 189.64 626.709C189.12 608.579 195.944 588.827 208.86 571.067ZM236.171 630.227C247.788 637.992 266.629 631.305 278.193 615.379C289.758 599.454 289.733 580.265 278.116 572.5C266.5 564.734 247.659 571.421 236.094 587.346C224.494 603.324 224.519 622.512 236.171 630.227Z" fill="white"/>
<path d="M67.4862 554.01C78.8026 548.146 91.0901 544.155 102.912 542.527C131.459 538.566 155.972 547.83 166.753 566.758C174.16 579.675 174.18 595.459 166.907 611.136C159.255 627.579 144.309 642.185 124.807 652.283C113.491 658.146 101.203 662.138 89.3812 663.766C69.2342 666.553 51.1282 662.779 38.4076 653.665C33.0851 649.851 28.6983 645.117 25.5405 639.534C18.1326 626.617 18.1142 610.835 25.3865 595.156C33.0384 578.713 47.9851 564.107 67.4862 554.01ZM65.4179 619.137C72.3282 631.281 92.1684 633.739 109.64 624.677C127.112 615.616 135.681 598.445 128.771 586.302C121.86 574.156 102.02 571.7 84.5484 580.76C67.0226 589.853 58.4533 607.022 65.4179 619.137Z" fill="white"/>
</mask>
<g mask="url(#mask0_2094_9112)">
<rect width="1439.21" height="1385.32" fill="url(#paint0_linear_2094_9112)"/>
</g>
</g>
<defs>
<linearGradient id="paint0_linear_2094_9112" x1="718.608" y1="76.8511" x2="718.608" y2="1845.43" gradientUnits="userSpaceOnUse">
<stop stop-color="white" stop-opacity="0"/>
<stop offset="1" stop-color="#DB4446"/>
</linearGradient>
<clipPath id="clip0_2094_9112">
<rect width="713" height="686" fill="white"/>
</clipPath>
</defs>
</svg>
