<svg width="586" height="629" viewBox="0 0 586 629" fill="none" xmlns="http://www.w3.org/2000/svg">
<g clip-path="url(#clip0_764_5436)">
<mask id="mask0_764_5436" style="mask-type:alpha" maskUnits="userSpaceOnUse" x="0" y="0" width="605" height="629">
<g opacity="0.3" clip-path="url(#clip1_764_5436)">
<path d="M33.7363 153.571C30.9483 154.335 28.6258 156.352 27.0479 159.399C23.2284 166.742 23.7072 179.382 28.3259 192.37C31.4726 201.248 36.1544 209.148 41.4802 214.613C47.0682 220.336 52.7866 222.758 57.589 221.438C60.3769 220.674 62.6997 218.656 64.2774 215.609C66.9704 210.422 67.5274 202.621 66.0005 193.908C65.3621 190.262 64.3636 186.462 62.9994 182.639C59.8526 173.76 55.1708 165.861 49.845 160.396C44.257 154.673 38.5386 152.25 33.7363 153.571ZM53.2533 185.463C56.2172 193.794 55.1089 201.503 50.8018 202.679C46.4949 203.854 40.6064 198.067 37.6425 189.737C34.6787 181.406 35.787 173.697 40.094 172.521C44.4151 171.344 50.3035 177.131 53.2533 185.463Z" fill="white"/>
<path d="M15.2543 87.6431C13.0518 89.5155 11.8015 92.3265 11.6617 95.7551C11.3093 104.024 17.0929 115.273 26.7748 125.085C33.3839 131.798 40.969 136.973 48.1073 139.67C55.5927 142.49 61.799 142.264 65.5908 139.035C67.7934 137.163 69.0439 134.352 69.1833 130.923C69.4279 125.084 66.6304 117.78 61.5593 110.532C59.4377 107.5 56.9245 104.479 54.0704 101.593C47.4613 94.8807 39.8762 89.7057 32.7379 87.009C25.2525 84.1882 19.0465 84.4144 15.2543 87.6431ZM46.436 108.277C52.6473 114.57 54.9063 122.024 51.5016 124.912C48.0969 127.8 40.3125 125.049 34.1011 118.756C27.8899 112.463 25.6309 105.009 29.0356 102.121C32.452 99.2253 40.2364 101.976 46.436 108.277Z" fill="white"/>
<path d="M6.42134 28.9277C5.25642 31.9362 5.39175 35.2774 6.82663 38.5623C10.2728 46.4921 20.7002 53.7022 34.0451 57.3418C43.1612 59.8397 52.4708 60.3436 60.2417 58.7861C68.3866 57.1461 73.9707 53.3897 75.9746 48.2055C77.1395 45.197 77.0043 41.8558 75.5691 38.5715C73.1317 32.9739 67.2388 27.7457 59.2883 23.8688C55.9617 22.2459 52.2819 20.8591 48.3507 19.7914C39.2347 17.2935 29.9249 16.7915 22.1541 18.3471C14.0089 19.9871 8.42482 23.7441 6.42134 28.9277ZM44.4013 30.4002C52.9618 32.7336 58.4293 38.4101 56.6256 43.0543C54.8218 47.698 46.4344 49.574 37.874 47.2406C29.3136 44.9077 23.846 39.2313 25.6498 34.587C27.4605 29.9287 35.8479 28.0527 44.4013 30.4002Z" fill="white"/>
<path d="M43.1548 240.451C40.2788 240.159 37.3853 241.203 34.8152 243.478C28.606 248.95 24.4973 260.913 24.1249 274.693C23.8602 284.109 25.3806 293.164 28.379 300.182C31.5287 307.534 35.9899 311.854 40.9454 312.354C43.8213 312.646 46.7148 311.601 49.285 309.327C53.6663 305.459 56.9973 298.383 58.7136 289.706C59.4316 286.075 59.8698 282.17 59.9752 278.112C60.2399 268.696 58.7195 259.64 55.7212 252.624C52.5714 245.27 48.1102 240.95 43.1548 240.451ZM49.8662 277.234C49.6285 286.073 45.8163 292.865 41.3751 292.409C36.934 291.953 33.5269 284.433 33.7645 275.594C34.0022 266.755 37.8144 259.963 42.2556 260.42C46.7107 260.878 50.1178 268.398 49.8662 277.234Z" fill="white"/>
<path d="M114.695 245.468C109.14 245.196 103.552 246.169 98.5874 248.287C86.5949 253.387 78.6596 264.532 77.9405 277.371C77.4293 286.144 80.3657 294.581 86.1565 301.119C92.2402 307.97 100.857 311.995 110.427 312.46C115.982 312.732 121.57 311.759 126.534 309.64C134.997 306.036 141.43 299.443 144.745 291.358C146.132 287.976 146.978 284.338 147.182 280.557C147.693 271.784 144.756 263.347 138.965 256.809C132.882 249.958 124.266 245.933 114.695 245.468ZM127.657 279.739C127.198 287.974 119.835 294.302 111.258 293.878C102.68 293.453 96.0993 286.446 96.5585 278.211C97.0171 269.976 104.38 263.647 112.958 264.072C121.562 264.5 128.143 271.506 127.657 279.739Z" fill="white"/>
<path d="M109.792 162.026C104.26 162.574 98.8535 164.242 94.2135 166.847C83.0012 173.124 76.5848 184.239 77.5284 195.84C78.1545 203.771 82.1494 210.91 88.7241 215.941C95.6291 221.21 104.677 223.587 114.21 222.64C119.743 222.091 125.149 220.423 129.789 217.817C137.7 213.383 143.218 206.561 145.456 198.847C146.392 195.619 146.76 192.24 146.474 188.825C145.848 180.894 141.853 173.755 135.279 168.725C128.374 163.455 119.326 161.078 109.792 162.026ZM127.043 190.875C127.652 198.317 121.18 205.034 112.635 205.877C104.09 206.719 96.6729 201.381 96.0651 193.939C95.4566 186.497 101.929 179.78 110.474 178.938C119.045 178.094 126.462 183.432 127.043 190.875Z" fill="white"/>
<path d="M98.3985 91.7656C93.9022 95.0334 89.9465 99.046 87.0034 103.338C79.8838 113.696 78.7098 125.064 83.9863 132.965C87.5764 138.375 93.7273 141.464 101.262 141.69C109.167 141.917 117.782 138.941 125.527 133.308C130.024 130.04 133.979 126.028 136.923 121.736C141.944 114.424 144.008 106.626 142.937 99.8862C142.489 97.066 141.5 94.4311 139.939 92.1093C136.349 86.6982 130.198 83.6095 122.665 83.3839C114.758 83.1564 106.144 86.1332 98.3985 91.7656ZM124.198 103.676C127.585 108.743 124.669 116.959 117.724 122.003C110.779 127.047 102.41 127.036 99.0234 121.97C95.637 116.903 98.5532 108.687 105.499 103.643C112.466 98.5843 120.835 98.5953 124.198 103.676Z" fill="white"/>
<path d="M90.9597 30.112C88.4025 35.0467 86.6616 40.4058 85.9516 45.5613C84.2242 58.0106 88.2643 68.7013 96.5194 73.4031C102.152 76.6336 109.036 76.6415 115.873 73.4703C123.044 70.1334 129.414 63.6149 133.818 55.1103C136.374 50.175 138.115 44.8159 138.825 39.6604C140.041 30.8739 138.395 22.9778 134.42 17.4303C132.757 15.1097 130.693 13.1958 128.258 11.8199C122.625 8.58514 115.742 8.57903 108.904 11.7527C101.733 15.0914 95.3631 21.6068 90.9597 30.112ZM119.362 29.2095C124.658 32.2235 125.73 40.8761 121.778 48.4952C117.827 56.115 110.338 59.8525 105.042 56.8384C99.7456 53.825 98.6743 45.1724 102.626 37.5526C106.591 29.9096 114.079 26.1722 119.362 29.2095Z" fill="white"/>
<path d="M184.386 153.571C181.598 154.335 179.275 156.352 177.698 159.399C173.878 166.742 174.357 179.382 178.975 192.37C182.122 201.248 186.804 209.148 192.13 214.613C197.718 220.336 203.436 222.758 208.239 221.438C211.026 220.674 213.349 218.656 214.927 215.609C217.62 210.422 218.177 202.621 216.65 193.908C216.011 190.262 215.013 186.462 213.649 182.639C210.502 173.76 205.82 165.861 200.495 160.396C194.906 154.673 189.188 152.25 184.386 153.571ZM203.903 185.463C206.867 193.794 205.758 201.503 201.452 202.679C197.144 203.854 191.256 198.067 188.292 189.737C185.329 181.406 186.437 173.697 190.743 172.521C195.065 171.344 200.953 177.131 203.903 185.463Z" fill="white"/>
<path d="M165.905 87.6431C163.702 89.5155 162.451 92.3265 162.312 95.7551C161.959 104.024 167.743 115.273 177.425 125.085C184.034 131.798 191.619 136.973 198.757 139.67C206.243 142.49 212.449 142.264 216.241 139.035C218.443 137.163 219.694 134.352 219.834 130.923C220.078 125.084 217.281 117.78 212.21 110.532C210.088 107.5 207.574 104.479 204.72 101.593C198.111 94.8807 190.526 89.7057 183.388 87.009C175.902 84.1882 169.696 84.4144 165.905 87.6431ZM197.086 108.277C203.297 114.57 205.556 122.024 202.152 124.912C198.747 127.8 190.962 125.049 184.751 118.756C178.54 112.463 176.281 105.009 179.686 102.121C183.102 99.2253 190.886 101.976 197.086 108.277Z" fill="white"/>
<path d="M157.071 28.9277C155.906 31.9362 156.042 35.2774 157.476 38.5623C160.923 46.4921 171.35 53.7022 184.695 57.3418C193.811 59.8397 203.12 60.3436 210.891 58.7861C219.037 57.1461 224.621 53.3897 226.624 48.2055C227.789 45.197 227.654 41.8558 226.219 38.5715C223.781 32.9739 217.888 27.7457 209.938 23.8688C206.611 22.2459 202.931 20.8591 199.001 19.7914C189.885 17.2935 180.575 16.7915 172.804 18.3471C164.659 19.9871 159.075 23.7441 157.071 28.9277ZM195.051 30.4002C203.611 32.7336 209.079 38.4101 207.275 43.0543C205.472 47.698 197.084 49.574 188.524 47.2406C179.963 44.9077 174.496 39.2313 176.3 34.587C178.11 29.9287 186.498 28.0527 195.051 30.4002Z" fill="white"/>
<path d="M193.805 240.451C190.929 240.159 188.036 241.203 185.465 243.478C179.256 248.95 175.148 260.913 174.775 274.693C174.511 284.109 176.031 293.164 179.03 300.182C182.179 307.534 186.64 311.854 191.596 312.354C194.471 312.646 197.365 311.601 199.935 309.327C204.316 305.459 207.648 298.383 209.364 289.706C210.082 286.075 210.52 282.17 210.626 278.112C210.891 268.696 209.37 259.64 206.372 252.624C203.222 245.27 198.76 240.95 193.805 240.451ZM200.517 277.234C200.279 286.073 196.467 292.865 192.026 292.409C187.584 291.953 184.177 284.433 184.415 275.594C184.653 266.755 188.465 259.963 192.906 260.42C197.361 260.878 200.768 268.398 200.517 277.234Z" fill="white"/>
<path d="M265.345 245.468C259.79 245.196 254.202 246.169 249.238 248.287C237.245 253.387 229.31 264.532 228.59 277.371C228.079 286.144 231.016 294.581 236.807 301.119C242.89 307.97 251.506 311.995 261.077 312.46C266.632 312.732 272.221 311.759 277.185 309.64C285.646 306.036 292.081 299.443 295.395 291.358C296.782 287.976 297.629 284.338 297.832 280.557C298.343 271.784 295.406 263.347 289.616 256.809C283.532 249.958 274.916 245.933 265.345 245.468ZM278.307 279.739C277.848 287.974 270.485 294.302 261.908 293.878C253.33 293.453 246.75 286.446 247.208 278.211C247.667 269.976 255.03 263.647 263.608 264.072C272.213 264.5 278.793 271.506 278.307 279.739Z" fill="white"/>
<path d="M260.443 162.026C254.909 162.574 249.504 164.242 244.864 166.847C233.651 173.124 227.234 184.239 228.179 195.84C228.804 203.771 232.799 210.91 239.374 215.941C246.279 221.21 255.327 223.587 264.86 222.64C270.393 222.091 275.799 220.423 280.439 217.817C288.35 213.383 293.867 206.561 296.105 198.847C297.042 195.619 297.41 192.24 297.124 188.825C296.499 180.894 292.504 173.755 285.928 168.725C279.023 163.455 269.976 161.078 260.443 162.026ZM277.693 190.875C278.301 198.317 271.83 205.034 263.285 205.877C254.74 206.719 247.323 201.381 246.715 193.939C246.107 186.497 252.578 179.78 261.123 178.938C269.695 178.094 277.112 183.432 277.693 190.875Z" fill="white"/>
<path d="M249.049 91.7656C244.553 95.0334 240.596 99.046 237.653 103.338C230.533 113.696 229.359 125.064 234.636 132.965C238.226 138.375 244.378 141.464 251.911 141.69C259.817 141.917 268.432 138.941 276.177 133.308C280.673 130.04 284.63 126.028 287.573 121.736C292.594 114.424 294.657 106.626 293.587 99.8862C293.139 97.066 292.15 94.4311 290.59 92.1093C286.999 86.6982 280.848 83.6095 273.315 83.3839C265.408 83.1564 256.794 86.1332 249.049 91.7656ZM274.849 103.676C278.235 108.743 275.319 116.959 268.374 122.003C261.428 127.047 253.06 127.036 249.674 121.97C246.287 116.903 249.203 108.687 256.148 103.643C263.116 98.5843 271.484 98.5953 274.849 103.676Z" fill="white"/>
<path d="M241.61 30.112C239.053 35.0467 237.312 40.4058 236.602 45.5613C234.874 58.0106 238.915 68.7013 247.17 73.4031C252.803 76.6336 259.686 76.6415 266.523 73.4703C273.694 70.1334 280.064 63.6149 284.468 55.1103C287.025 50.175 288.766 44.8159 289.476 39.6604C290.691 30.8739 289.045 22.9778 285.07 17.4303C283.407 15.1097 281.343 13.1958 278.908 11.8199C273.275 8.58514 266.392 8.57903 259.554 11.7527C252.383 15.0914 246.013 21.6068 241.61 30.112ZM270.012 29.2095C275.309 32.2235 276.381 40.8761 272.428 48.4952C268.477 56.115 260.989 59.8525 255.693 56.8384C250.396 53.825 249.325 45.1724 253.276 37.5526C257.242 29.9096 264.729 26.1722 270.012 29.2095Z" fill="white"/>
<path d="M33.7363 475.697C30.9483 474.932 28.6258 472.915 27.0479 469.868C23.2284 462.524 23.7072 449.885 28.3259 436.898C31.4726 428.019 36.1544 420.12 41.4802 414.655C47.0682 408.931 52.7866 406.509 57.589 407.829C60.3769 408.594 62.6997 410.611 64.2774 413.658C66.9704 418.845 67.5274 426.647 66.0005 435.359C65.3621 439.005 64.3636 442.805 62.9994 446.628C59.8526 455.507 55.1708 463.406 49.845 468.871C44.257 474.595 38.5386 477.017 33.7363 475.697ZM53.2533 443.804C56.2172 435.473 55.1089 427.764 50.8018 426.588C46.4949 425.413 40.6064 431.2 37.6425 439.531C34.6787 447.862 35.787 455.571 40.094 456.746C44.4151 457.924 50.3035 452.136 53.2533 443.804Z" fill="white"/>
<path d="M15.2543 541.627C13.0518 539.755 11.8014 536.944 11.6617 533.515C11.3093 525.246 17.0929 513.997 26.7748 504.185C33.3839 497.473 40.969 492.298 48.1073 489.601C55.5927 486.78 61.799 487.006 65.5908 490.235C67.7934 492.107 69.0439 494.918 69.1833 498.347C69.4279 504.186 66.6304 511.49 61.5593 518.738C59.4377 521.77 56.9245 524.791 54.0704 527.677C47.4613 534.389 39.8762 539.564 32.7379 542.261C25.2525 545.082 19.0464 544.856 15.2543 541.627ZM46.436 520.993C52.6473 514.7 54.9063 507.246 51.5016 504.359C48.0969 501.471 40.3125 504.221 34.1011 510.514C27.8899 516.807 25.6309 524.261 29.0355 527.149C32.4519 530.045 40.2364 527.294 46.436 520.993Z" fill="white"/>
<path d="M6.42132 600.34C5.25641 597.332 5.39173 593.99 6.82662 590.706C10.2728 582.775 20.7002 575.566 34.0451 571.926C43.1612 569.428 52.4708 568.924 60.2416 570.481C68.3866 572.122 73.9707 575.878 75.9745 581.062C77.1394 584.07 77.0043 587.412 75.5691 590.696C73.1317 596.294 67.2388 601.522 59.2883 605.399C55.9616 607.021 52.2819 608.409 48.3507 609.476C39.2346 611.974 29.9249 612.478 22.1541 610.921C14.0089 609.28 8.4248 605.524 6.42132 600.34ZM44.4013 598.867C52.9617 596.534 58.4293 590.858 56.6255 586.214C54.8218 581.57 46.4344 579.693 37.874 582.027C29.3135 584.36 23.846 590.036 25.6497 594.681C27.4605 599.339 35.8479 601.215 44.4013 598.867Z" fill="white"/>
<path d="M43.1548 388.818C40.2788 389.11 37.3853 388.065 34.8152 385.791C28.606 380.318 24.4973 368.355 24.1249 354.576C23.8602 345.16 25.3806 336.104 28.379 329.087C31.5287 321.734 35.9899 317.414 40.9454 316.915C43.8213 316.623 46.7148 317.668 49.285 319.941C53.6663 323.81 56.9973 330.886 58.7136 339.563C59.4316 343.194 59.8698 347.099 59.9752 351.157C60.2399 360.573 58.7195 369.629 55.7212 376.645C52.5714 383.999 48.1102 388.318 43.1548 388.818ZM49.8662 352.034C49.6285 343.196 45.8163 336.404 41.3751 336.859C36.934 337.316 33.5269 344.836 33.7645 353.675C34.0021 362.513 37.8144 369.305 42.2555 368.849C46.7107 368.391 50.1178 360.87 49.8662 352.034Z" fill="white"/>
<path d="M114.695 383.802C109.14 384.074 103.552 383.101 98.5874 380.982C86.5949 375.883 78.6596 364.738 77.9405 351.899C77.4293 343.126 80.3657 334.688 86.1565 328.151C92.2402 321.3 100.857 317.275 110.427 316.81C115.982 316.537 121.57 317.511 126.534 319.63C134.997 323.233 141.43 329.826 144.745 337.911C146.132 341.294 146.978 344.932 147.182 348.713C147.693 357.486 144.756 365.923 138.965 372.461C132.882 379.312 124.266 383.337 114.695 383.802ZM127.657 349.53C127.198 341.295 119.835 334.968 111.258 335.392C102.68 335.817 96.0993 342.824 96.5585 351.059C97.0171 359.294 104.38 365.622 112.958 365.197C121.562 364.77 128.143 357.763 127.657 349.53Z" fill="white"/>
<path d="M109.792 467.242C104.26 466.695 98.8534 465.026 94.2135 462.421C83.0012 456.144 76.5848 445.029 77.5283 433.428C78.1545 425.497 82.1494 418.358 88.7241 413.327C95.629 408.059 104.677 405.681 114.21 406.629C119.743 407.177 125.149 408.845 129.789 411.451C137.7 415.885 143.218 422.707 145.456 430.421C146.392 433.649 146.76 437.028 146.474 440.444C145.848 448.375 141.853 455.513 135.279 460.544C128.374 465.813 119.326 468.19 109.792 467.242ZM127.043 438.393C127.652 430.951 121.18 424.234 112.635 423.392C104.09 422.549 96.6729 427.888 96.065 435.329C95.4566 442.771 101.929 449.488 110.474 450.33C119.045 451.174 126.462 445.837 127.043 438.393Z" fill="white"/>
<path d="M98.3985 537.501C93.9022 534.233 89.9465 530.221 87.0034 525.929C79.8838 515.571 78.7097 504.203 83.9863 496.302C87.5763 490.891 93.7273 487.802 101.261 487.576C109.167 487.349 117.782 490.326 125.527 495.958C130.024 499.226 133.979 503.239 136.923 507.531C141.944 514.843 144.008 522.64 142.937 529.381C142.489 532.201 141.5 534.836 139.939 537.157C136.349 542.568 130.198 545.657 122.665 545.883C114.758 546.11 106.144 543.134 98.3985 537.501ZM124.198 525.59C127.585 520.524 124.669 512.307 117.724 507.264C110.779 502.22 102.41 502.231 99.0234 507.297C95.637 512.364 98.5532 520.58 105.498 525.624C112.466 530.683 120.835 530.672 124.198 525.59Z" fill="white"/>
<path d="M90.9597 599.155C88.4025 594.22 86.6616 588.861 85.9516 583.706C84.2242 571.256 88.2643 560.566 96.5194 555.864C102.152 552.634 109.036 552.625 115.873 555.797C123.044 559.134 129.414 565.652 133.818 574.157C136.374 579.092 138.115 584.451 138.825 589.607C140.041 598.393 138.395 606.289 134.42 611.837C132.757 614.158 130.692 616.071 128.258 617.448C122.624 620.679 115.742 620.687 108.904 617.516C101.733 614.178 95.3631 607.66 90.9597 599.155ZM119.362 600.057C124.658 597.044 125.73 588.391 121.778 580.772C117.827 573.152 110.338 569.415 105.042 572.428C99.7456 575.442 98.6743 584.095 102.626 591.714C106.591 599.358 114.079 603.095 119.362 600.057Z" fill="white"/>
<path d="M184.386 475.697C181.598 474.932 179.275 472.915 177.698 469.868C173.878 462.524 174.357 449.885 178.975 436.898C182.122 428.019 186.804 420.12 192.129 414.655C197.718 408.931 203.436 406.509 208.239 407.829C211.026 408.594 213.349 410.611 214.927 413.658C217.62 418.845 218.176 426.647 216.65 435.359C216.011 439.005 215.013 442.805 213.649 446.628C210.502 455.507 205.82 463.406 200.495 468.871C194.906 474.595 189.188 477.017 184.386 475.697ZM203.903 443.804C206.867 435.473 205.758 427.764 201.452 426.588C197.144 425.413 191.256 431.2 188.292 439.531C185.328 447.862 186.437 455.571 190.743 456.746C195.065 457.924 200.953 452.136 203.903 443.804Z" fill="white"/>
<path d="M165.905 541.627C163.702 539.755 162.451 536.944 162.312 533.515C161.959 525.246 167.743 513.997 177.425 504.185C184.034 497.473 191.619 492.298 198.757 489.601C206.243 486.78 212.449 487.006 216.241 490.235C218.443 492.107 219.694 494.918 219.834 498.347C220.078 504.186 217.281 511.49 212.21 518.738C210.088 521.77 207.574 524.791 204.72 527.677C198.111 534.389 190.526 539.564 183.388 542.261C175.902 545.082 169.696 544.856 165.905 541.627ZM197.086 520.993C203.297 514.7 205.556 507.246 202.152 504.359C198.747 501.471 190.962 504.221 184.751 510.514C178.54 516.807 176.281 524.261 179.686 527.149C183.102 530.045 190.886 527.294 197.086 520.993Z" fill="white"/>
<path d="M157.071 600.34C155.906 597.332 156.042 593.99 157.476 590.706C160.923 582.775 171.35 575.566 184.695 571.926C193.811 569.428 203.12 568.924 210.891 570.481C219.037 572.122 224.621 575.878 226.624 581.062C227.789 584.07 227.654 587.412 226.219 590.696C223.781 596.294 217.888 601.522 209.938 605.399C206.611 607.021 202.931 608.409 199.001 609.476C189.885 611.974 180.575 612.478 172.804 610.921C164.659 609.28 159.075 605.524 157.071 600.34ZM195.051 598.867C203.611 596.534 209.079 590.858 207.275 586.214C205.472 581.57 197.084 579.693 188.524 582.027C179.963 584.36 174.496 590.036 176.3 594.681C178.11 599.339 186.498 601.215 195.051 598.867Z" fill="white"/>
<path d="M193.805 388.818C190.929 389.11 188.036 388.065 185.465 385.791C179.256 380.318 175.148 368.355 174.775 354.576C174.511 345.16 176.031 336.104 179.03 329.087C182.179 321.734 186.64 317.414 191.596 316.915C194.471 316.623 197.365 317.668 199.935 319.941C204.316 323.81 207.648 330.886 209.364 339.563C210.082 343.194 210.52 347.099 210.626 351.157C210.891 360.573 209.37 369.629 206.372 376.645C203.222 383.999 198.76 388.318 193.805 388.818ZM200.517 352.034C200.279 343.196 196.467 336.404 192.026 336.859C187.584 337.316 184.177 344.836 184.415 353.675C184.653 362.513 188.465 369.305 192.906 368.849C197.361 368.391 200.768 360.87 200.517 352.034Z" fill="white"/>
<path d="M265.345 383.802C259.79 384.074 254.202 383.101 249.238 380.982C237.245 375.883 229.31 364.738 228.59 351.899C228.079 343.126 231.016 334.688 236.807 328.151C242.89 321.3 251.506 317.275 261.077 316.81C266.632 316.537 272.221 317.511 277.185 319.63C285.646 323.233 292.081 329.826 295.395 337.911C296.782 341.294 297.629 344.932 297.832 348.713C298.343 357.486 295.406 365.923 289.616 372.461C283.532 379.312 274.916 383.337 265.345 383.802ZM278.307 349.53C277.848 341.295 270.485 334.968 261.908 335.392C253.33 335.817 246.75 342.824 247.208 351.059C247.667 359.294 255.03 365.622 263.608 365.197C272.213 364.77 278.793 357.763 278.307 349.53Z" fill="white"/>
<path d="M260.443 467.242C254.909 466.695 249.504 465.026 244.864 462.421C233.651 456.144 227.234 445.029 228.179 433.428C228.804 425.497 232.799 418.358 239.374 413.327C246.279 408.059 255.327 405.681 264.86 406.629C270.393 407.177 275.799 408.845 280.439 411.451C288.35 415.885 293.867 422.707 296.105 430.421C297.042 433.649 297.41 437.028 297.124 440.444C296.499 448.375 292.504 455.513 285.928 460.544C279.023 465.813 269.976 468.19 260.443 467.242ZM277.693 438.393C278.301 430.951 271.83 424.234 263.285 423.392C254.74 422.549 247.323 427.888 246.715 435.329C246.107 442.771 252.578 449.488 261.123 450.33C269.695 451.174 277.112 445.837 277.693 438.393Z" fill="white"/>
<path d="M249.049 537.501C244.553 534.233 240.596 530.221 237.653 525.929C230.533 515.571 229.359 504.203 234.636 496.302C238.226 490.891 244.378 487.802 251.911 487.576C259.817 487.349 268.432 490.326 276.177 495.958C280.673 499.226 284.63 503.239 287.573 507.531C292.594 514.843 294.657 522.64 293.587 529.381C293.139 532.201 292.15 534.836 290.59 537.157C286.999 542.568 280.848 545.657 273.315 545.883C265.408 546.11 256.794 543.134 249.049 537.501ZM274.849 525.59C278.235 520.524 275.319 512.307 268.374 507.264C261.428 502.22 253.06 502.231 249.674 507.297C246.287 512.364 249.203 520.58 256.148 525.624C263.116 530.683 271.484 530.672 274.849 525.59Z" fill="white"/>
<path d="M241.61 599.155C239.053 594.22 237.312 588.861 236.602 583.706C234.874 571.256 238.915 560.566 247.17 555.864C252.803 552.634 259.686 552.625 266.523 555.797C273.694 559.134 280.064 565.652 284.468 574.157C287.025 579.092 288.766 584.451 289.476 589.607C290.691 598.393 289.045 606.289 285.07 611.837C283.407 614.158 281.343 616.071 278.908 617.448C273.275 620.679 266.392 620.687 259.554 617.516C252.383 614.178 246.013 607.66 241.61 599.155ZM270.012 600.057C275.309 597.044 276.381 588.391 272.428 580.772C268.477 573.152 260.989 569.415 255.693 572.428C250.396 575.442 249.325 584.095 253.276 591.714C257.242 599.358 264.729 603.095 270.012 600.057Z" fill="white"/>
<path d="M332.358 153.571C329.57 154.335 327.247 156.352 325.67 159.399C321.85 166.742 322.329 179.382 326.948 192.37C330.094 201.248 334.776 209.148 340.102 214.613C345.69 220.336 351.408 222.758 356.211 221.438C358.998 220.674 361.321 218.656 362.899 215.609C365.592 210.422 366.149 202.621 364.622 193.908C363.984 190.262 362.985 186.462 361.621 182.639C358.474 173.76 353.793 165.861 348.467 160.396C342.879 154.673 337.16 152.25 332.358 153.571ZM351.875 185.463C354.839 193.794 353.73 201.503 349.424 202.679C345.116 203.854 339.228 198.067 336.264 189.737C333.3 181.406 334.408 173.697 338.716 172.521C343.037 171.344 348.925 177.131 351.875 185.463Z" fill="white"/>
<path d="M313.876 87.6431C311.673 89.5155 310.423 92.3265 310.283 95.7551C309.931 104.024 315.715 115.273 325.396 125.085C332.005 131.798 339.591 136.973 346.729 139.67C354.214 142.49 360.42 142.264 364.212 139.035C366.415 137.163 367.666 134.352 367.805 130.923C368.05 125.084 365.252 117.78 360.181 110.532C358.059 107.5 355.546 104.479 352.692 101.593C346.083 94.8807 338.497 89.7057 331.36 87.009C323.874 84.1882 317.668 84.4144 313.876 87.6431ZM345.058 108.277C351.269 114.57 353.528 122.024 350.123 124.912C346.718 127.8 338.934 125.049 332.723 118.756C326.511 112.463 324.252 105.009 327.657 102.121C331.073 99.2253 338.858 101.976 345.058 108.277Z" fill="white"/>
<path d="M305.043 28.9277C303.878 31.9362 304.013 35.2774 305.448 38.5623C308.894 46.4921 319.322 53.7022 332.666 57.3418C341.782 59.8397 351.092 60.3436 358.863 58.7861C367.008 57.1461 372.592 53.3897 374.596 48.2055C375.76 45.197 375.625 41.8558 374.191 38.5715C371.753 32.9739 365.86 27.7457 357.91 23.8688C354.583 22.2459 350.903 20.8591 346.972 19.7914C337.856 17.2935 328.546 16.7915 320.775 18.3471C312.63 19.9871 307.046 23.7441 305.043 28.9277ZM343.023 30.4002C351.583 32.7336 357.051 38.4101 355.247 43.0543C353.443 47.698 345.056 49.574 336.496 47.2406C327.935 44.9077 322.467 39.2313 324.271 34.587C326.082 29.9287 334.469 28.0527 343.023 30.4002Z" fill="white"/>
<path d="M341.776 240.451C338.9 240.159 336.007 241.203 333.437 243.478C327.228 248.95 323.119 260.913 322.747 274.693C322.482 284.109 324.003 293.164 327.001 300.182C330.151 307.534 334.611 311.854 339.567 312.354C342.443 312.646 345.336 311.601 347.906 309.327C352.288 305.459 355.619 298.383 357.336 289.706C358.054 286.075 358.491 282.17 358.597 278.112C358.862 268.696 357.341 259.64 354.343 252.624C351.193 245.27 346.732 240.95 341.776 240.451ZM348.488 277.234C348.25 286.073 344.438 292.865 339.997 292.409C335.556 291.953 332.148 284.433 332.386 275.594C332.624 266.755 336.436 259.963 340.877 260.42C345.333 260.878 348.739 268.398 348.488 277.234Z" fill="white"/>
<path d="M413.316 245.468C407.762 245.196 402.173 246.169 397.209 248.287C385.216 253.387 377.281 264.532 376.561 277.371C376.05 286.144 378.987 294.581 384.778 301.119C390.861 307.97 399.478 311.995 409.049 312.46C414.603 312.732 420.192 311.759 425.156 309.64C433.618 306.036 440.052 299.443 443.366 291.358C444.753 287.976 445.599 284.338 445.803 280.557C446.314 271.784 443.378 263.347 437.587 256.809C431.503 249.958 422.887 245.933 413.316 245.468ZM426.279 279.739C425.819 287.974 418.456 294.302 409.879 293.878C401.301 293.453 394.721 286.446 395.18 278.211C395.639 269.976 403.002 263.647 411.579 264.072C420.184 264.5 426.764 271.506 426.279 279.739Z" fill="white"/>
<path d="M408.414 162.026C402.881 162.574 397.475 164.242 392.835 166.847C381.623 173.124 375.206 184.239 376.15 195.84C376.776 203.771 380.77 210.91 387.346 215.941C394.251 221.21 403.298 223.587 412.831 222.64C418.365 222.091 423.77 220.423 428.41 217.817C436.321 213.383 441.839 206.561 444.077 198.847C445.013 195.619 445.382 192.24 445.095 188.825C444.47 180.894 440.475 173.755 433.9 168.725C426.995 163.455 417.947 161.078 408.414 162.026ZM425.665 190.875C426.273 198.317 419.801 205.034 411.256 205.877C402.711 206.719 395.294 201.381 394.687 193.939C394.078 186.497 400.55 179.78 409.095 178.938C417.667 178.094 425.084 183.432 425.665 190.875Z" fill="white"/>
<path d="M397.02 91.7656C392.524 95.0334 388.568 99.046 385.625 103.338C378.505 113.696 377.331 125.064 382.608 132.965C386.198 138.375 392.349 141.464 399.883 141.69C407.789 141.917 416.403 138.941 424.149 133.308C428.645 130.04 432.601 126.028 435.544 121.736C440.565 114.424 442.629 106.626 441.559 99.8862C441.111 97.066 440.122 94.4311 438.561 92.1093C434.971 86.6982 428.82 83.6095 421.286 83.3839C413.38 83.1564 404.766 86.1332 397.02 91.7656ZM422.82 103.676C426.207 108.743 423.291 116.959 416.346 122.003C409.4 127.047 401.032 127.036 397.645 121.97C394.259 116.903 397.175 108.687 404.12 103.643C411.087 98.5843 419.456 98.5953 422.82 103.676Z" fill="white"/>
<path d="M389.581 30.112C387.024 35.0467 385.283 40.4058 384.573 45.5613C382.845 58.0106 386.885 68.7013 395.141 73.4031C400.773 76.6336 407.657 76.6415 414.495 73.4703C421.666 70.1334 428.036 63.6149 432.439 55.1103C434.996 50.175 436.737 44.8159 437.447 39.6604C438.662 30.8739 437.016 22.9778 433.041 17.4303C431.378 15.1097 429.314 13.1958 426.879 11.8199C421.246 8.58514 414.363 8.57903 407.526 11.7527C400.354 15.0914 393.985 21.6068 389.581 30.112ZM417.983 29.2095C423.28 32.2235 424.351 40.8761 420.4 48.4952C416.448 56.115 408.96 59.8525 403.663 56.8384C398.367 53.825 397.295 45.1724 401.247 37.5526C405.212 29.9096 412.7 26.1722 417.983 29.2095Z" fill="white"/>
<path d="M483.007 153.571C480.219 154.335 477.897 156.352 476.319 159.399C472.499 166.742 472.978 179.382 477.597 192.37C480.743 201.248 485.426 209.148 490.751 214.613C496.339 220.336 502.058 222.758 506.86 221.438C509.648 220.674 511.97 218.656 513.549 215.609C516.241 210.422 516.798 202.621 515.272 193.908C514.633 190.262 513.634 186.462 512.271 182.639C509.124 173.76 504.442 165.861 499.116 160.396C493.528 154.673 487.81 152.25 483.007 153.571ZM502.524 185.463C505.488 193.794 504.38 201.503 500.073 202.679C495.766 203.854 489.877 198.067 486.913 189.737C483.949 181.406 485.058 173.697 489.365 172.521C493.686 171.344 499.574 177.131 502.524 185.463Z" fill="white"/>
<path d="M464.526 87.6431C462.324 89.5155 461.073 92.3265 460.933 95.7551C460.581 104.024 466.364 115.273 476.047 125.085C482.656 131.798 490.24 136.973 497.379 139.67C504.864 142.49 511.07 142.264 514.862 139.035C517.065 137.163 518.315 134.352 518.455 130.923C518.699 125.084 515.902 117.78 510.831 110.532C508.709 107.5 506.196 104.479 503.342 101.593C496.733 94.8807 489.148 89.7057 482.009 87.009C474.524 84.1882 468.318 84.4144 464.526 87.6431ZM495.707 108.277C501.919 114.57 504.178 122.024 500.773 124.912C497.369 127.8 489.584 125.049 483.373 118.756C477.161 112.463 474.903 105.009 478.307 102.121C481.724 99.2253 489.508 101.976 495.707 108.277Z" fill="white"/>
<path d="M455.692 28.9277C454.527 31.9362 454.663 35.2774 456.097 38.5623C459.544 46.4921 469.971 53.7022 483.316 57.3418C492.432 59.8397 501.742 60.3436 509.513 58.7861C517.658 57.1461 523.242 53.3897 525.245 48.2055C526.41 45.197 526.275 41.8558 524.84 38.5715C522.402 32.9739 516.51 27.7457 508.559 23.8688C505.232 22.2459 501.553 20.8591 497.622 19.7914C488.506 17.2935 479.196 16.7915 471.425 18.3471C463.28 19.9871 457.696 23.7441 455.692 28.9277ZM493.672 30.4002C502.232 32.7336 507.7 38.4101 505.896 43.0543C504.093 47.698 495.705 49.574 487.145 47.2406C478.584 44.9077 473.117 39.2313 474.921 34.587C476.731 29.9287 485.119 28.0527 493.672 30.4002Z" fill="white"/>
<path d="M492.427 240.451C489.55 240.159 486.657 241.203 484.087 243.478C477.877 248.95 473.769 260.913 473.396 274.693C473.132 284.109 474.652 293.164 477.651 300.182C480.8 307.534 485.262 311.854 490.217 312.354C493.093 312.646 495.987 311.601 498.557 309.327C502.938 305.459 506.269 298.383 507.985 289.706C508.703 286.075 509.142 282.17 509.247 278.112C509.512 268.696 507.991 259.64 504.993 252.624C501.843 245.27 497.382 240.95 492.427 240.451ZM499.138 277.234C498.9 286.073 495.088 292.865 490.647 292.409C486.206 291.953 482.799 284.433 483.036 275.594C483.274 266.755 487.086 259.963 491.527 260.42C495.982 260.878 499.39 268.398 499.138 277.234Z" fill="white"/>
<path d="M563.966 245.468C558.411 245.196 552.823 246.169 547.859 248.287C535.866 253.387 527.931 264.532 527.211 277.371C526.7 286.144 529.637 294.581 535.428 301.119C541.511 307.97 550.127 311.995 559.698 312.46C565.253 312.732 570.842 311.759 575.806 309.64C584.268 306.036 590.702 299.443 594.016 291.358C595.403 287.976 596.25 284.338 596.453 280.557C596.964 271.784 594.027 263.347 588.237 256.809C582.153 249.958 573.537 245.933 563.966 245.468ZM576.928 279.739C576.469 287.974 569.106 294.302 560.529 293.878C551.951 293.453 545.371 286.446 545.829 278.211C546.288 269.976 553.651 263.647 562.229 264.072C570.834 264.5 577.414 271.506 576.928 279.739Z" fill="white"/>
<path d="M559.064 162.026C553.53 162.574 548.125 164.242 543.485 166.847C532.272 173.124 525.856 184.239 526.8 195.84C527.425 203.771 531.42 210.91 537.995 215.941C544.9 221.21 553.948 223.587 563.481 222.64C569.014 222.091 574.42 220.423 579.06 217.817C586.971 213.383 592.488 206.561 594.726 198.847C595.663 195.619 596.031 192.24 595.745 188.825C595.12 180.894 591.125 173.755 584.549 168.725C577.644 163.455 568.597 161.078 559.064 162.026ZM576.314 190.875C576.922 198.317 570.451 205.034 561.906 205.877C553.361 206.719 545.944 201.381 545.336 193.939C544.728 186.497 551.199 179.78 559.744 178.938C568.316 178.094 575.734 183.432 576.314 190.875Z" fill="white"/>
<path d="M547.67 91.7656C543.174 95.0334 539.218 99.046 536.275 103.338C529.155 113.696 527.981 125.064 533.258 132.965C536.848 138.375 542.999 141.464 550.533 141.69C558.439 141.917 567.053 138.941 574.799 133.308C579.295 130.04 583.251 126.028 586.194 121.736C591.215 114.424 593.279 106.626 592.209 99.8862C591.761 97.066 590.771 94.4311 589.211 92.1093C585.621 86.6982 579.47 83.6095 571.936 83.3839C564.03 83.1564 555.416 86.1332 547.67 91.7656ZM573.47 103.676C576.856 108.743 573.941 116.959 566.995 122.003C560.05 127.047 551.681 127.036 548.295 121.97C544.908 116.903 547.824 108.687 554.77 103.643C561.737 98.5843 570.106 98.5953 573.47 103.676Z" fill="white"/>
<path d="M540.231 30.112C537.674 35.0467 535.933 40.4058 535.223 45.5613C533.495 58.0106 537.536 68.7013 545.791 73.4031C551.424 76.6336 558.307 76.6415 565.144 73.4703C572.316 70.1334 578.685 63.6149 583.089 55.1103C585.646 50.175 587.387 44.8159 588.097 39.6604C589.312 30.8739 587.666 22.9778 583.691 17.4303C582.028 15.1097 579.964 13.1958 577.529 11.8199C571.896 8.58514 565.013 8.57903 558.175 11.7527C551.004 15.0914 544.634 21.6068 540.231 30.112ZM568.633 29.2095C573.93 32.2235 575.002 40.8761 571.049 48.4952C567.098 56.115 559.61 59.8525 554.314 56.8384C549.017 53.825 547.946 45.1724 551.897 37.5526C555.863 29.9096 563.35 26.1722 568.633 29.2095Z" fill="white"/>
<path d="M332.358 475.697C329.57 474.932 327.247 472.915 325.67 469.868C321.85 462.524 322.329 449.885 326.948 436.898C330.094 428.019 334.776 420.12 340.102 414.655C345.69 408.931 351.408 406.509 356.21 407.829C358.998 408.594 361.321 410.611 362.899 413.658C365.592 418.845 366.149 426.647 364.622 435.359C363.984 439.005 362.985 442.805 361.621 446.628C358.474 455.507 353.793 463.406 348.467 468.871C342.879 474.595 337.16 477.017 332.358 475.697ZM351.875 443.804C354.839 435.473 353.73 427.764 349.424 426.588C345.116 425.413 339.228 431.2 336.264 439.531C333.3 447.862 334.408 455.571 338.716 456.746C343.037 457.924 348.925 452.136 351.875 443.804Z" fill="white"/>
<path d="M313.876 541.627C311.673 539.755 310.423 536.944 310.283 533.515C309.931 525.246 315.715 513.997 325.396 504.185C332.005 497.473 339.591 492.298 346.729 489.601C354.214 486.78 360.42 487.006 364.212 490.235C366.415 492.107 367.666 494.918 367.805 498.347C368.05 504.186 365.252 511.49 360.181 518.738C358.059 521.77 355.546 524.791 352.692 527.677C346.083 534.389 338.497 539.564 331.36 542.261C323.874 545.082 317.668 544.856 313.876 541.627ZM345.058 520.993C351.269 514.7 353.528 507.246 350.123 504.359C346.718 501.471 338.934 504.221 332.723 510.514C326.511 516.807 324.252 524.261 327.657 527.149C331.073 530.045 338.858 527.294 345.058 520.993Z" fill="white"/>
<path d="M305.043 600.34C303.878 597.332 304.013 593.99 305.448 590.706C308.894 582.775 319.322 575.566 332.666 571.926C341.782 569.428 351.092 568.924 358.863 570.481C367.008 572.122 372.592 575.878 374.596 581.062C375.76 584.07 375.625 587.412 374.191 590.696C371.753 596.294 365.86 601.522 357.91 605.399C354.583 607.021 350.903 608.409 346.972 609.476C337.856 611.974 328.546 612.478 320.775 610.921C312.63 609.28 307.046 605.524 305.043 600.34ZM343.022 598.867C351.583 596.534 357.051 590.858 355.247 586.214C353.443 581.57 345.056 579.693 336.495 582.027C327.935 584.36 322.467 590.036 324.271 594.681C326.082 599.339 334.469 601.215 343.022 598.867Z" fill="white"/>
<path d="M341.776 388.818C338.9 389.11 336.007 388.065 333.437 385.791C327.228 380.318 323.119 368.355 322.747 354.576C322.482 345.16 324.003 336.104 327.001 329.087C330.151 321.734 334.611 317.414 339.567 316.915C342.443 316.623 345.336 317.668 347.906 319.941C352.288 323.81 355.619 330.886 357.336 339.563C358.054 343.194 358.491 347.099 358.597 351.157C358.862 360.573 357.341 369.629 354.343 376.645C351.193 383.999 346.732 388.318 341.776 388.818ZM348.488 352.034C348.25 343.196 344.438 336.404 339.997 336.859C335.556 337.316 332.148 344.836 332.386 353.675C332.624 362.513 336.436 369.305 340.877 368.849C345.333 368.391 348.739 360.87 348.488 352.034Z" fill="white"/>
<path d="M413.316 383.802C407.762 384.074 402.173 383.101 397.209 380.982C385.216 375.883 377.281 364.738 376.561 351.899C376.05 343.126 378.987 334.688 384.778 328.151C390.861 321.3 399.478 317.275 409.049 316.81C414.603 316.537 420.192 317.511 425.156 319.63C433.618 323.233 440.052 329.826 443.366 337.911C444.753 341.294 445.599 344.932 445.803 348.713C446.314 357.486 443.378 365.923 437.587 372.461C431.503 379.312 422.887 383.337 413.316 383.802ZM426.279 349.53C425.819 341.295 418.456 334.968 409.879 335.392C401.301 335.817 394.721 342.824 395.18 351.059C395.639 359.294 403.002 365.622 411.579 365.197C420.184 364.77 426.764 357.763 426.279 349.53Z" fill="white"/>
<path d="M408.414 467.242C402.881 466.695 397.475 465.026 392.835 462.421C381.623 456.144 375.206 445.029 376.15 433.428C376.776 425.497 380.77 418.358 387.346 413.327C394.251 408.059 403.298 405.681 412.831 406.629C418.365 407.177 423.77 408.845 428.41 411.451C436.321 415.885 441.839 422.707 444.077 430.421C445.013 433.649 445.382 437.028 445.095 440.444C444.47 448.375 440.475 455.513 433.9 460.544C426.995 465.813 417.947 468.19 408.414 467.242ZM425.665 438.393C426.273 430.951 419.801 424.234 411.256 423.392C402.711 422.549 395.294 427.888 394.687 435.329C394.078 442.771 400.55 449.488 409.095 450.33C417.667 451.174 425.084 445.837 425.665 438.393Z" fill="white"/>
<path d="M397.02 537.501C392.524 534.233 388.568 530.221 385.625 525.929C378.505 515.571 377.331 504.203 382.608 496.302C386.198 490.891 392.349 487.802 399.883 487.576C407.789 487.349 416.403 490.326 424.149 495.958C428.645 499.226 432.601 503.239 435.544 507.531C440.565 514.843 442.629 522.64 441.559 529.381C441.111 532.201 440.122 534.836 438.561 537.157C434.971 542.568 428.82 545.657 421.286 545.883C413.38 546.11 404.766 543.134 397.02 537.501ZM422.82 525.59C426.207 520.524 423.291 512.307 416.346 507.264C409.4 502.22 401.032 502.231 397.645 507.297C394.259 512.364 397.175 520.58 404.12 525.624C411.087 530.683 419.456 530.672 422.82 525.59Z" fill="white"/>
<path d="M389.581 599.155C387.024 594.22 385.283 588.861 384.573 583.706C382.845 571.256 386.885 560.566 395.141 555.864C400.773 552.634 407.657 552.625 414.495 555.797C421.666 559.134 428.036 565.652 432.439 574.157C434.996 579.092 436.737 584.451 437.447 589.607C438.662 598.393 437.016 606.289 433.041 611.837C431.378 614.158 429.313 616.071 426.879 617.448C421.246 620.679 414.363 620.687 407.526 617.516C400.354 614.178 393.985 607.66 389.581 599.155ZM417.983 600.057C423.28 597.044 424.351 588.391 420.4 580.772C416.448 573.152 408.96 569.415 403.663 572.428C398.367 575.442 397.295 584.095 401.247 591.714C405.212 599.358 412.7 603.095 417.983 600.057Z" fill="white"/>
<path d="M483.007 475.697C480.219 474.932 477.897 472.915 476.319 469.868C472.499 462.524 472.978 449.885 477.597 436.898C480.743 428.019 485.426 420.12 490.751 414.655C496.339 408.931 502.058 406.509 506.86 407.829C509.648 408.594 511.97 410.611 513.549 413.658C516.241 418.845 516.798 426.647 515.272 435.359C514.633 439.005 513.634 442.805 512.271 446.628C509.124 455.507 504.442 463.406 499.116 468.871C493.528 474.595 487.81 477.017 483.007 475.697ZM502.524 443.804C505.488 435.473 504.38 427.764 500.073 426.588C495.766 425.413 489.877 431.2 486.913 439.531C483.949 447.862 485.058 455.571 489.365 456.746C493.686 457.924 499.574 452.136 502.524 443.804Z" fill="white"/>
<path d="M464.526 541.627C462.324 539.755 461.073 536.944 460.933 533.515C460.581 525.246 466.364 513.997 476.047 504.185C482.656 497.473 490.24 492.298 497.379 489.601C504.864 486.78 511.07 487.006 514.862 490.235C517.065 492.107 518.315 494.918 518.455 498.347C518.699 504.186 515.902 511.49 510.831 518.738C508.709 521.77 506.196 524.791 503.342 527.677C496.733 534.389 489.148 539.564 482.009 542.261C474.524 545.082 468.318 544.856 464.526 541.627ZM495.707 520.993C501.919 514.7 504.178 507.246 500.773 504.359C497.369 501.471 489.584 504.221 483.373 510.514C477.161 516.807 474.903 524.261 478.307 527.149C481.724 530.045 489.508 527.294 495.707 520.993Z" fill="white"/>
<path d="M455.692 600.34C454.527 597.332 454.663 593.99 456.097 590.706C459.544 582.775 469.971 575.566 483.316 571.926C492.432 569.428 501.742 568.924 509.513 570.481C517.658 572.122 523.242 575.878 525.245 581.062C526.41 584.07 526.275 587.412 524.84 590.696C522.402 596.294 516.51 601.522 508.559 605.399C505.232 607.021 501.553 608.409 497.622 609.476C488.506 611.974 479.196 612.478 471.425 610.921C463.28 609.28 457.696 605.524 455.692 600.34ZM493.672 598.867C502.232 596.534 507.7 590.858 505.896 586.214C504.093 581.57 495.705 579.693 487.145 582.027C478.584 584.36 473.117 590.036 474.921 594.681C476.731 599.339 485.119 601.215 493.672 598.867Z" fill="white"/>
<path d="M492.427 388.818C489.55 389.11 486.657 388.065 484.087 385.791C477.877 380.318 473.769 368.355 473.396 354.576C473.132 345.16 474.652 336.104 477.651 329.087C480.8 321.734 485.262 317.414 490.217 316.915C493.093 316.623 495.987 317.668 498.557 319.941C502.938 323.81 506.269 330.886 507.985 339.563C508.703 343.194 509.142 347.099 509.247 351.157C509.512 360.573 507.991 369.629 504.993 376.645C501.843 383.999 497.382 388.318 492.427 388.818ZM499.138 352.034C498.9 343.196 495.088 336.404 490.647 336.859C486.206 337.316 482.799 344.836 483.036 353.675C483.274 362.513 487.086 369.305 491.527 368.849C495.982 368.391 499.39 360.87 499.138 352.034Z" fill="white"/>
<path d="M563.966 383.802C558.411 384.074 552.823 383.101 547.859 380.982C535.866 375.883 527.931 364.738 527.211 351.899C526.7 343.126 529.637 334.688 535.428 328.151C541.511 321.3 550.127 317.275 559.698 316.81C565.253 316.537 570.842 317.511 575.806 319.63C584.268 323.233 590.702 329.826 594.016 337.911C595.403 341.294 596.25 344.932 596.453 348.713C596.964 357.486 594.027 365.923 588.237 372.461C582.153 379.312 573.537 383.337 563.966 383.802ZM576.928 349.53C576.469 341.295 569.106 334.968 560.529 335.392C551.951 335.817 545.371 342.824 545.829 351.059C546.288 359.294 553.651 365.622 562.229 365.197C570.834 364.77 577.414 357.763 576.928 349.53Z" fill="white"/>
<path d="M559.064 467.242C553.53 466.695 548.125 465.026 543.485 462.421C532.272 456.144 525.856 445.029 526.8 433.428C527.425 425.497 531.42 418.358 537.995 413.327C544.9 408.059 553.948 405.681 563.481 406.629C569.014 407.177 574.42 408.845 579.06 411.451C586.971 415.885 592.488 422.707 594.726 430.421C595.663 433.649 596.031 437.028 595.745 440.444C595.12 448.375 591.125 455.513 584.549 460.544C577.644 465.813 568.597 468.19 559.064 467.242ZM576.314 438.393C576.922 430.951 570.451 424.234 561.906 423.392C553.361 422.549 545.944 427.888 545.336 435.329C544.728 442.771 551.199 449.488 559.744 450.33C568.316 451.174 575.734 445.837 576.314 438.393Z" fill="white"/>
<path d="M547.67 537.501C543.174 534.233 539.218 530.221 536.275 525.929C529.155 515.571 527.981 504.203 533.258 496.302C536.848 490.891 542.999 487.802 550.533 487.576C558.439 487.349 567.053 490.326 574.799 495.958C579.295 499.226 583.251 503.239 586.194 507.531C591.215 514.843 593.279 522.64 592.209 529.381C591.761 532.201 590.771 534.836 589.211 537.157C585.621 542.568 579.47 545.657 571.936 545.883C564.03 546.11 555.416 543.134 547.67 537.501ZM573.47 525.59C576.856 520.524 573.941 512.307 566.995 507.264C560.05 502.22 551.681 502.231 548.295 507.297C544.908 512.364 547.824 520.58 554.77 525.624C561.737 530.683 570.106 530.672 573.47 525.59Z" fill="white"/>
<path d="M540.231 599.155C537.674 594.22 535.933 588.861 535.223 583.706C533.495 571.256 537.536 560.566 545.791 555.864C551.424 552.634 558.307 552.625 565.144 555.797C572.316 559.134 578.685 565.652 583.089 574.157C585.646 579.092 587.387 584.451 588.097 589.607C589.312 598.393 587.666 606.289 583.691 611.837C582.028 614.158 579.964 616.071 577.529 617.448C571.896 620.679 565.013 620.687 558.175 617.516C551.004 614.178 544.634 607.66 540.231 599.155ZM568.633 600.057C573.93 597.044 575.002 588.391 571.049 580.772C567.098 573.152 559.61 569.415 554.314 572.428C549.017 575.442 547.946 584.095 551.897 591.714C555.863 599.358 563.35 603.095 568.633 600.057Z" fill="white"/>
</g>
</mask>
<g mask="url(#mask0_764_5436)">
<rect y="628.587" width="627.656" height="604.152" transform="rotate(-90 0 628.587)" fill="url(#paint0_linear_764_5436)"/>
</g>
</g>
<defs>
<linearGradient id="paint0_linear_764_5436" x1="313.393" y1="662.103" x2="313.393" y2="1433.4" gradientUnits="userSpaceOnUse">
<stop stop-color="white" stop-opacity="0"/>
<stop offset="1" stop-color="#9747FF"/>
</linearGradient>
<clipPath id="clip0_764_5436">
<rect width="604" height="628" fill="white" transform="translate(0 0.586914)"/>
</clipPath>
<clipPath id="clip1_764_5436">
<rect width="628" height="604.152" fill="white" transform="translate(0 628.587) rotate(-90)"/>
</clipPath>
</defs>
</svg>
