<svg width="800" height="752" viewBox="0 0 800 752" fill="none" xmlns="http://www.w3.org/2000/svg">
<g opacity="0.5">
<path d="M203.331 329.49C243.402 365.826 305.341 362.799 341.678 322.729C378.014 282.658 374.986 220.719 334.916 184.383C294.845 148.046 232.906 151.074 196.57 191.144C160.234 231.215 163.261 293.154 203.331 329.49Z" fill="#7FF0B6"/>
<path d="M334.108 448.077C374.178 484.413 436.118 481.386 472.454 441.315C508.79 401.245 505.763 339.305 465.692 302.969C425.622 266.633 363.682 269.66 327.346 309.731C291.01 349.801 294.037 411.741 334.108 448.077Z" fill="#7FF0B6"/>
<path d="M464.883 566.667C504.953 603.003 566.893 599.975 603.229 559.905C639.565 519.835 636.538 457.895 596.467 421.559C556.397 385.223 494.457 388.25 458.121 428.321C421.785 468.391 424.812 530.331 464.883 566.667Z" fill="#7FF0B6"/>
<path d="M595.659 685.253C635.73 721.589 697.67 718.562 734.006 678.491C770.342 638.421 767.314 576.481 727.244 540.145C687.173 503.809 625.234 506.837 588.898 546.907C552.562 586.977 555.589 648.917 595.659 685.253Z" fill="#7FF0B6"/>
<path d="M72.555 210.9C112.625 247.236 174.565 244.209 210.901 204.138C247.237 164.068 244.21 102.128 204.139 65.7922C164.069 29.4562 102.129 32.4835 65.7933 72.5539C29.4572 112.624 32.4846 174.564 72.555 210.9Z" fill="#7FF0B6"/>
</g>
</svg>
