<svg width="1440" height="1386" viewBox="0 0 1440 1386" fill="none" xmlns="http://www.w3.org/2000/svg">
<g opacity="0.7">
<path d="M1043.45 57.2573C1056.43 56.7574 1067.7 58.665 1075.91 62.938L1075.91 62.939C1082.71 66.4557 1087.12 71.5815 1088.78 77.6597V77.6606C1091.66 88.1475 1086.43 100.905 1073.39 113.634C1060.98 125.731 1042.99 136.404 1022.73 143.585L1022.72 143.586C1014.01 146.698 1005.34 148.974 997.036 150.428C977.147 153.914 959.505 152.606 947.884 146.573H947.883C941.091 143.057 936.681 137.93 935.014 131.852V131.851C932.178 121.528 937.208 109.004 949.801 96.4731L950.407 95.8765C962.82 83.7796 980.808 73.1066 1001.07 65.9253H1001.07C1015.89 60.6565 1030.49 57.7567 1043.45 57.2573ZM1032.82 81.9233C1025.71 80.9073 1016.7 81.9078 1007.35 85.0991L1006.44 85.4146C996.77 88.8557 988.536 94.0062 983.042 99.5942C977.595 105.134 974.629 111.34 976.122 116.809C977.629 122.333 983.249 125.562 990.537 126.603C997.88 127.652 1007.24 126.552 1016.91 123.112L1016.91 123.113C1026.59 119.688 1034.83 114.545 1040.32 108.957C1045.77 103.416 1048.73 97.2018 1047.24 91.7173C1045.73 86.1935 1040.11 82.9641 1032.82 81.9233Z" stroke="#C8F9E0" stroke-width="2"/>
<path d="M1190.52 36.3455C1202.07 30.399 1213.09 27.3585 1222.34 27.7527H1222.34C1229.98 28.0641 1236.15 30.8417 1240.23 35.6433H1240.23C1247.17 43.795 1247.92 57.2715 1241.81 73.9548L1241.51 74.7517C1235.39 90.9656 1223.61 108.249 1208.29 123.332L1208.29 123.333C1201.71 129.842 1194.82 135.571 1187.91 140.405C1171.36 151.981 1154.83 158.264 1141.75 157.717H1141.74C1134.1 157.406 1127.94 154.628 1123.85 149.826V149.825L1123.53 149.433C1116.79 141.114 1116.25 127.502 1122.57 110.718C1128.7 94.5036 1140.48 77.2204 1155.8 62.1375V62.1365C1166.99 51.0918 1178.99 42.2855 1190.52 36.3455ZM1208.54 65.9646C1204.84 61.5981 1198.38 61.0506 1191.34 63.1921C1184.24 65.3501 1176.22 70.3102 1168.91 77.5203C1161.61 84.732 1156.33 92.8845 1153.71 100.273C1151.12 107.597 1151.06 114.474 1154.73 118.798C1158.43 123.164 1164.89 123.711 1171.94 121.57C1179.03 119.412 1187.05 114.451 1194.36 107.241C1201.67 100.043 1206.96 91.8983 1209.57 84.5095C1212.16 77.1839 1212.22 70.3009 1208.54 65.9646H1208.54Z" stroke="#C8F9E0" stroke-width="2"/>
<path d="M1353.99 16.5769C1361.31 13.3786 1368.7 13.097 1375.33 15.6638H1375.33C1386.59 20.0146 1394.99 32.1079 1398.81 50.158L1398.99 51.0212C1402.52 68.6701 1401.39 89.8679 1395.69 110.658L1395.69 110.66C1393.41 119.06 1390.49 126.953 1387.09 134.147L1386.4 135.576C1377.56 153.707 1365.71 166.989 1353.17 172.448L1353.17 172.449C1345.85 175.648 1338.46 175.929 1331.83 173.362H1331.83C1320.57 169.011 1312.17 156.918 1308.35 138.868L1308.17 138.005C1304.64 120.356 1305.78 99.1584 1311.47 78.3679V78.3669C1319.79 47.8716 1336.21 24.3061 1353.99 16.5779L1353.99 16.5769ZM1363.07 57.9119C1357.23 55.6431 1350.91 58.0201 1345.51 63.2302C1340.1 68.4558 1335.43 76.6737 1332.72 86.6248C1330 96.5788 1329.73 106.465 1331.5 114.427C1333.27 122.346 1337.14 128.591 1342.92 130.838C1348.76 133.106 1355.08 130.73 1360.48 125.52C1365.9 120.295 1370.57 112.076 1373.28 102.125L1373.28 102.124C1376.01 92.1781 1376.29 82.2961 1374.52 74.3337C1372.8 66.6615 1369.11 60.5578 1363.61 58.1345L1363.07 57.9119Z" stroke="#C8F9E0" stroke-width="2"/>
<path d="M753.796 66.0247C769.736 59.2142 790.36 55.741 811.85 56.345H811.851C827.57 56.7699 842.233 59.3258 854.506 63.5325C866.793 67.7438 876.617 73.5853 882.74 80.5315L882.741 80.5334C887.809 86.2615 890.075 92.6315 889.439 98.9016V98.9026C888.365 109.555 879.157 119.424 862.893 126.573L862.115 126.911C846.176 133.722 825.55 137.195 804.061 136.591H804.059C794.804 136.351 785.903 135.351 777.63 133.715C757.822 129.798 741.837 122.219 733.172 112.404H733.171C728.261 106.854 725.982 100.702 726.422 94.6223L726.473 94.0344C727.564 83.2132 737.047 73.1987 753.795 66.0237L753.796 66.0247ZM809.836 76.4602C799.574 76.1844 790.037 78.0218 782.898 81.2542C775.821 84.4583 770.818 89.1779 770.24 94.8176C769.655 100.513 773.733 105.551 780.156 109.148C786.627 112.772 795.759 115.122 806.019 115.398V115.399C816.279 115.691 825.815 113.862 832.954 110.629C840.033 107.424 845.035 102.697 845.617 97.0422V97.0413C846.202 91.3455 842.124 86.3083 835.701 82.7112C829.23 79.0863 820.097 76.736 809.836 76.4602Z" stroke="#C8F9E0" stroke-width="2"/>
<path d="M751.916 198.401C766.716 185.292 785.813 178.646 805.675 179.803L805.678 179.804C834.743 181.432 859.982 199.394 871.534 226.563L871.535 226.565C876.333 237.809 878.542 250.477 877.925 263.075V263.076C876.869 284.778 867.747 304.287 852.243 318.055C837.442 331.165 818.344 337.813 798.482 336.656L798.478 336.655L797.677 336.608C789.405 336.073 781.444 334.18 774.024 331.138C755.722 323.634 740.789 309.069 732.624 289.894V289.893L732.182 288.834C727.834 278.211 725.77 266.377 726.183 254.564L726.233 253.382C727.288 231.681 736.41 212.17 751.916 198.401ZM803.862 220.519C784.376 219.433 767.867 234.996 766.866 255.189C765.867 275.375 780.761 292.772 800.241 293.859V293.86C819.726 295.01 836.235 279.441 837.241 259.19C838.241 239.003 823.344 221.604 803.862 220.519Z" stroke="#C8F9E0" stroke-width="2"/>
<path d="M992.856 178.856C1019.03 176.727 1044.18 191.198 1058.42 216.625L1058.42 216.626C1064.14 226.816 1067.87 238.648 1069.23 250.799L1069.35 251.976C1071.51 273.624 1066.11 294.121 1054.19 309.739C1042.81 324.609 1026.69 333.621 1008.79 335.034H1008.79C1001.08 335.678 993.448 334.848 986.156 332.733C968.733 327.678 953.284 315.205 943.229 297.264V297.263L942.681 296.272C937.088 285.978 933.496 274.084 932.289 261.915V261.914C930.139 240.266 935.538 219.769 947.455 204.151L947.456 204.152C958.834 189.282 974.956 180.27 992.853 178.857L992.856 178.856ZM1032.44 252.408C1030.08 232.854 1014.52 217.96 997.056 219.388C979.296 220.839 966.782 238.477 968.754 258.496C970.728 278.506 986.504 293.9 1004.25 292.45L1004.25 292.449C1021.73 291.082 1034.13 273.968 1032.63 254.282L1032.55 253.342L1032.44 252.408Z" stroke="#C8F9E0" stroke-width="2"/>
<path d="M1137.58 193.506C1155.24 181.708 1180.86 184.227 1204.42 200.42L1204.42 200.421C1214.17 207.104 1223.29 216.097 1230.73 226.327C1243.55 243.956 1250.28 263.505 1249.76 281.378C1249.25 298.4 1242.29 312.181 1230.19 320.206L1230.19 320.208C1224.99 323.701 1219.09 325.921 1212.75 326.927C1197.6 329.334 1179.96 324.706 1163.35 313.294L1163.34 313.293C1153.9 306.818 1145.05 298.176 1137.74 288.342L1137.04 287.387C1124.22 269.758 1117.49 250.209 1118 232.336C1118.51 215.314 1125.48 201.533 1137.57 193.508L1137.58 193.506ZM1183.62 224.768C1175.81 222.004 1167.84 222.232 1161.69 226.341C1155.53 230.457 1152.52 237.556 1152.51 245.56C1152.5 253.312 1155.28 261.987 1160.81 269.898L1161.36 270.662C1167.25 278.776 1175.02 284.565 1182.84 287.332C1190.65 290.095 1198.62 289.867 1204.77 285.757C1210.94 281.668 1213.96 274.582 1213.97 266.579C1213.98 258.576 1211 249.577 1205.1 241.439C1199.2 233.324 1191.44 227.535 1183.62 224.768Z" stroke="#C8F9E0" stroke-width="2"/>
<path d="M1274.53 221.923C1285.04 203.464 1309.08 194.246 1337.4 198.175H1337.4C1349.1 199.787 1361.29 203.743 1372.52 209.561L1372.52 209.562C1391.87 219.583 1406.64 234.049 1414.19 250.259V250.26C1421.36 265.709 1421.3 281.151 1414.07 293.741L1414.07 293.747C1410.99 299.196 1406.7 303.825 1401.49 307.563C1389.02 316.498 1371.18 320.255 1351.21 317.492H1351.21C1339.5 315.88 1327.32 311.923 1316.09 306.106C1296.73 296.083 1281.96 281.617 1274.41 265.406H1274.41C1267.25 249.959 1267.31 234.516 1274.53 221.925L1274.53 221.923ZM1356.37 234.549C1347.46 229.932 1337.93 228.232 1329.7 229.26C1321.47 230.286 1314.45 234.058 1310.79 240.485C1307.13 246.922 1307.62 254.617 1311.19 261.78C1314.76 268.941 1321.44 275.645 1330.34 280.262C1339.24 284.879 1348.78 286.579 1357.01 285.552C1365.23 284.525 1372.26 280.753 1375.92 274.326L1375.92 274.325C1379.6 267.904 1379.13 260.216 1375.56 253.054C1371.99 245.892 1365.29 239.181 1356.37 234.549H1356.37Z" stroke="#C8F9E0" stroke-width="2"/>
<path d="M1043.45 402.866C1056.43 402.366 1067.7 404.274 1075.91 408.548L1075.91 408.549C1082.49 411.955 1086.84 416.871 1088.62 422.701L1088.78 423.268C1091.66 433.756 1086.43 446.514 1073.39 459.244C1060.98 471.34 1042.99 482.014 1022.73 489.195L1022.72 489.196C1014.01 492.307 1005.34 494.582 997.036 496.038C977.147 499.522 959.505 498.216 947.884 492.182L947.883 492.181L947.254 491.847C941.026 488.456 936.902 483.669 935.179 478.028L935.014 477.461C932.133 466.973 937.368 454.214 950.406 441.484L950.407 441.485C962.82 429.389 980.808 418.715 1001.07 411.534H1001.07C1015.89 406.265 1030.49 403.365 1043.45 402.866ZM1032.82 427.533C1025.48 426.484 1016.11 427.583 1006.44 431.023C996.77 434.464 988.536 439.615 983.042 445.203C977.595 450.743 974.629 456.949 976.122 462.419C977.629 467.942 983.249 471.171 990.537 472.212C997.88 473.26 1007.24 472.161 1016.91 468.721L1016.91 468.722C1026.59 465.297 1034.83 460.154 1040.32 454.565C1045.6 449.198 1048.54 443.199 1047.36 437.843L1047.24 437.326C1045.73 431.802 1040.11 428.574 1032.82 427.533Z" stroke="#C8F9E0" stroke-width="2"/>
<path d="M1190.52 381.955C1202.07 376.009 1213.09 372.969 1222.34 373.363H1222.34C1229.98 373.674 1236.15 376.452 1240.23 381.254H1240.23C1247.28 389.534 1247.94 403.31 1241.51 420.36C1235.39 436.575 1223.61 453.858 1208.29 468.94L1208.29 468.942C1201.71 475.452 1194.82 481.181 1187.91 486.016C1171.36 497.591 1154.83 503.874 1141.75 503.327H1141.74C1134.1 503.015 1127.94 500.237 1123.85 495.437V495.436C1116.8 487.154 1116.15 473.378 1122.57 456.328C1128.7 440.114 1140.48 422.831 1155.8 407.748V407.747C1166.99 396.702 1178.99 387.895 1190.52 381.955ZM1208.54 411.574C1204.84 407.208 1198.38 406.661 1191.34 408.803C1184.24 410.961 1176.22 415.921 1168.91 423.131C1161.61 430.342 1156.33 438.494 1153.71 445.883C1151.12 453.207 1151.06 460.084 1154.73 464.408C1158.43 468.774 1164.89 469.321 1171.94 467.18C1179.03 465.022 1187.05 460.063 1194.36 452.854C1201.67 445.655 1206.96 437.509 1209.57 430.12C1212.16 422.795 1212.22 415.912 1208.54 411.575L1208.54 411.574Z" stroke="#C8F9E0" stroke-width="2"/>
<path d="M1353.99 362.187C1361.31 358.989 1368.7 358.706 1375.33 361.272L1375.33 361.273C1386.59 365.625 1394.99 377.718 1398.81 395.768L1398.99 396.631C1402.52 414.28 1401.39 435.478 1395.69 456.269V456.271C1393.41 464.67 1390.49 472.562 1387.09 479.756L1386.4 481.186C1377.56 499.316 1365.71 512.599 1353.17 518.058H1353.17C1345.85 521.256 1338.46 521.538 1331.83 518.972H1331.83C1320.57 514.622 1312.17 502.529 1308.35 484.478L1308.17 483.613C1304.64 465.965 1305.78 444.768 1311.47 423.978V423.977C1319.79 393.48 1336.21 369.916 1353.99 362.188L1353.99 362.187ZM1363.07 403.521C1357.23 401.253 1350.91 403.63 1345.51 408.84C1340.1 414.065 1335.43 422.283 1332.72 432.233C1330 442.188 1329.73 452.075 1331.5 460.037C1333.27 467.956 1337.14 474.202 1342.92 476.448C1348.76 478.717 1355.08 476.34 1360.48 471.13C1365.9 465.904 1370.57 457.685 1373.28 447.734L1373.28 447.733C1376.01 437.788 1376.29 427.907 1374.52 419.944C1372.8 412.272 1369.11 406.168 1363.61 403.745L1363.07 403.521Z" stroke="#C8F9E0" stroke-width="2"/>
<path d="M753.796 411.635C769.736 404.823 790.36 401.352 811.85 401.956H811.851C827.57 402.381 842.233 404.937 854.506 409.144C866.793 413.355 876.617 419.197 882.74 426.143L882.741 426.144C887.809 431.872 890.075 438.242 889.439 444.512V444.513C888.365 455.165 879.157 465.035 862.893 472.185L862.115 472.522C846.176 479.332 825.55 482.806 804.061 482.202H804.059C794.804 481.961 785.903 480.962 777.63 479.325C757.822 475.408 741.837 467.831 733.172 458.015L733.171 458.014L732.704 457.475C727.964 451.888 725.857 445.719 726.473 439.646V439.645C727.564 428.823 737.048 418.81 753.796 411.635ZM809.836 422.071C799.574 421.795 790.037 423.632 782.898 426.864C775.821 430.068 770.818 434.789 770.24 440.429C769.655 446.125 773.733 451.162 780.156 454.759C786.627 458.383 795.759 460.732 806.019 461.009V461.01C816.279 461.302 825.815 459.473 832.954 456.24C840.033 453.036 845.035 448.308 845.617 442.653V442.652C846.202 436.957 842.124 431.919 835.701 428.322C829.23 424.697 820.097 422.347 809.836 422.071Z" stroke="#C8F9E0" stroke-width="2"/>
<path d="M751.916 544.013C766.716 530.904 785.813 524.255 805.675 525.413H805.678C834.743 527.042 859.982 545.005 871.534 572.174L871.535 572.175C876.183 583.068 878.4 595.298 877.974 607.504L877.925 608.686C876.87 630.388 867.747 649.896 852.243 663.666C837.442 676.775 818.344 683.423 798.482 682.266H798.478C790.187 681.82 782.199 680.008 774.744 677.039L774.024 676.748C755.722 669.245 740.789 654.678 732.624 635.504V635.503C727.825 624.26 725.616 611.591 726.233 598.994V598.993C727.288 577.291 736.41 557.781 751.916 544.013ZM802.951 566.089C783.864 565.531 767.851 580.923 766.866 600.8C765.868 620.984 780.761 638.381 800.241 639.469V639.47C819.726 640.621 836.235 625.052 837.241 604.799V604.798C838.225 584.928 823.806 567.759 804.772 566.191L803.862 566.128L802.951 566.089Z" stroke="#C8F9E0" stroke-width="2"/>
<path d="M992.856 524.467C1019.03 522.337 1044.18 536.809 1058.42 562.237L1058.42 562.238C1064.32 572.756 1068.11 585.023 1069.35 597.586C1071.51 619.232 1066.11 639.729 1054.19 655.347C1042.81 670.219 1026.69 679.231 1008.79 680.643H1008.79C1001.08 681.289 993.449 680.457 986.156 678.342C968.733 673.288 953.284 660.814 943.229 642.874V642.873L942.681 641.881C937.268 631.92 933.73 620.459 932.413 608.701L932.289 607.523L932.194 606.509C930.309 585.238 935.724 565.135 947.455 549.761L947.456 549.762C958.834 534.891 974.956 525.879 992.853 524.467H992.856ZM1032.55 598.952C1030.57 578.941 1014.8 563.549 997.056 564.998C979.296 566.448 966.782 584.086 968.754 604.106C970.728 624.117 986.504 639.509 1004.25 638.06L1004.25 638.059C1022.01 636.671 1034.52 619.029 1032.55 598.952Z" stroke="#C8F9E0" stroke-width="2"/>
<path d="M1137.58 539.115C1155.24 527.317 1180.86 529.835 1204.42 546.029L1204.42 546.03C1214.17 552.713 1223.29 561.707 1230.73 571.937C1243.55 589.564 1250.28 609.114 1249.76 626.987C1249.25 644.009 1242.29 657.79 1230.19 665.815L1230.19 665.819C1224.99 669.31 1219.09 671.531 1212.75 672.538C1197.6 674.944 1179.96 670.315 1163.35 658.903L1163.34 658.902C1153.9 652.428 1145.05 643.785 1137.74 633.951L1137.04 632.996C1124.22 615.368 1117.49 595.818 1118 577.945C1118.51 560.924 1125.48 547.142 1137.57 539.117L1137.58 539.115ZM1183.62 570.378C1175.81 567.614 1167.84 567.841 1161.69 571.951C1155.53 576.067 1152.52 583.165 1152.51 591.169C1152.5 598.921 1155.28 607.596 1160.81 615.507L1161.36 616.271C1167.25 624.385 1175.02 630.175 1182.84 632.941C1190.65 635.705 1198.61 635.477 1204.76 631.37L1204.76 631.371C1210.94 627.281 1213.96 620.193 1213.97 612.188C1213.98 604.186 1211 595.187 1205.1 587.048C1199.2 578.933 1191.44 573.145 1183.62 570.378Z" stroke="#C8F9E0" stroke-width="2"/>
<path d="M1274.53 567.533C1285.04 549.074 1309.08 539.856 1337.4 543.785H1337.4C1349.1 545.397 1361.29 549.353 1372.52 555.171L1372.52 555.172C1391.87 565.194 1406.64 579.659 1414.19 595.869V595.87C1421.36 611.319 1421.3 626.761 1414.07 639.352L1414.07 639.357C1410.99 644.806 1406.7 649.435 1401.49 653.174C1389.02 662.108 1371.18 665.865 1351.21 663.103H1351.21C1339.5 661.491 1327.32 657.534 1316.09 651.717C1296.73 641.693 1281.96 627.227 1274.41 611.017H1274.41C1267.25 595.569 1267.31 580.126 1274.53 567.535L1274.53 567.533ZM1356.37 580.159C1347.46 575.542 1337.93 573.843 1329.7 574.87C1321.47 575.897 1314.45 579.668 1310.79 586.096C1307.13 592.532 1307.62 600.228 1311.19 607.391C1314.76 614.552 1321.44 621.256 1330.34 625.872C1339.24 630.49 1348.78 632.19 1357.01 631.162C1365.23 630.135 1372.26 626.364 1375.92 619.937L1375.92 619.936C1379.6 613.514 1379.13 605.826 1375.56 598.664C1371.99 591.503 1365.29 584.791 1356.37 580.159H1356.37Z" stroke="#C8F9E0" stroke-width="2"/>
<path d="M364.583 62.939C372.798 58.6661 384.067 56.7574 397.046 57.2573C410.01 57.7567 424.608 60.6566 439.424 65.9253H439.425C459.054 72.8822 476.549 83.1159 488.909 94.7466L490.089 95.8765C503.126 108.606 508.364 121.364 505.481 131.851V131.852C503.815 137.93 499.405 143.057 492.614 146.573H492.613C480.991 152.606 463.349 153.914 443.461 150.428C435.155 148.974 426.491 146.698 417.772 143.586L417.769 143.585C397.507 136.404 379.518 125.731 367.105 113.634C354.068 100.905 348.831 88.1474 351.714 77.6606V77.6597C353.38 71.5815 357.79 66.4557 364.581 62.939H364.583ZM433.148 85.0991C423.8 81.9076 414.788 80.9073 407.674 81.9233C400.614 82.9317 395.12 85.9941 393.413 91.2065L393.26 91.7173C391.765 97.2018 394.727 103.416 400.175 108.957C405.67 114.545 413.907 119.688 423.582 123.113V123.112C433.251 126.552 442.616 127.652 449.959 126.603C457.246 125.562 462.866 122.333 464.374 116.809C465.866 111.34 462.902 105.134 457.455 99.5942C452.132 94.1806 444.237 89.1777 434.956 85.7417L434.054 85.4146L433.148 85.0991Z" stroke="#C8F9E0" stroke-width="2"/>
<path d="M218.149 27.7527C227.4 27.3584 238.418 30.3989 249.966 36.3455C261.5 42.2854 273.498 51.092 284.691 62.1365L284.692 62.1375C300.011 77.2204 311.791 94.5036 317.916 110.718C324.341 127.768 323.686 141.545 316.636 149.825L316.635 149.826C312.553 154.628 306.387 157.406 298.746 157.717H298.745C285.663 158.265 269.126 151.981 252.581 140.405C245.672 135.571 238.785 129.842 232.203 123.333L232.201 123.332L230.775 121.911C216.152 107.169 204.911 90.4588 198.977 74.7517H198.978C192.653 57.9671 193.189 44.3561 199.933 36.0359L200.259 35.6433C204.341 30.8418 210.506 28.0642 218.147 27.7527H218.149ZM249.154 63.1921C242.332 61.1176 236.058 61.5663 232.305 65.5662L231.949 65.9646C228.273 70.3009 228.327 77.1837 230.918 84.5095C233.449 91.6679 238.489 99.5359 245.453 106.565L246.133 107.243C253.437 114.453 261.457 119.412 268.554 121.57C275.596 123.712 282.054 123.164 285.758 118.798C289.425 114.474 289.366 107.597 286.776 100.273C284.163 92.8845 278.883 84.732 271.576 77.5203C264.271 70.31 256.251 65.3502 249.154 63.1921Z" stroke="#C8F9E0" stroke-width="2"/>
<path d="M65.1641 15.6638C71.7922 13.0971 79.1828 13.3788 86.5039 16.5769L86.5059 16.5779C104.29 24.306 120.705 47.8713 129.022 78.3669L129.023 78.3679C134.721 99.1583 135.858 120.356 132.321 138.005C128.59 156.532 120.103 168.942 108.667 173.362H108.666C102.038 175.929 94.6472 175.648 87.3262 172.449L87.3252 172.448L86.7383 172.186C74.4206 166.573 62.7985 153.423 54.0947 135.576C50.4015 128.003 47.2402 119.62 44.8076 110.66V110.658L44.2861 108.708C39.043 88.5463 38.0839 68.1183 41.5098 51.0212C45.2407 32.4934 53.7269 20.0835 65.1631 15.6638H65.1641ZM94.9824 63.2302C89.5845 58.0202 83.2653 55.6432 77.4238 57.9119H77.4229C71.6243 60.166 67.7488 66.4142 65.9795 74.3337C64.2005 82.2968 64.4858 92.1802 67.2158 102.127V102.126C69.9283 112.077 74.5988 120.295 80.0127 125.52C85.4106 130.73 91.7299 133.106 97.5713 130.838C103.355 128.591 107.222 122.346 108.991 114.427C110.77 106.465 110.493 96.5787 107.779 86.6248C105.067 76.6737 100.396 68.4557 94.9824 63.2302Z" stroke="#C8F9E0" stroke-width="2"/>
<path d="M628.643 56.345C650.133 55.741 670.759 59.2134 686.697 66.0237C703.446 73.1986 712.93 83.2123 714.02 94.0334V94.0344C714.637 100.108 712.529 106.277 707.79 111.865L707.323 112.404C698.656 122.219 682.671 129.798 662.863 133.715C654.591 135.351 645.689 136.351 636.434 136.591H636.432C614.943 137.195 594.317 133.722 578.378 126.911H578.378C561.629 119.737 552.147 109.723 551.056 98.9026V98.9016L551.004 98.3137C550.563 92.2344 552.844 86.0827 557.753 80.5334L557.755 80.5315C563.878 73.5853 573.702 67.7438 585.989 63.5325C598.262 59.3259 612.924 56.7699 628.642 56.345H628.643ZM657.596 81.2542C650.457 78.0218 640.919 76.1844 630.657 76.4602C620.397 76.736 611.265 79.0863 604.793 82.7112C598.37 86.3083 594.291 91.3455 594.876 97.0413V97.0422C595.458 102.697 600.461 107.424 607.54 110.629C614.68 113.862 624.216 115.691 634.475 115.399L634.474 115.398C644.734 115.122 653.866 112.773 660.337 109.148C666.76 105.551 670.839 100.513 670.254 94.8176C669.675 89.178 664.673 84.4583 657.596 81.2542Z" stroke="#C8F9E0" stroke-width="2"/>
<path d="M634.815 179.803C654.677 178.646 673.774 185.292 688.574 198.401V198.402C703.837 211.956 712.915 231.073 714.202 252.367L714.257 253.382C714.875 265.98 712.666 278.649 707.867 289.893L707.866 289.894C699.701 309.068 684.768 323.634 666.466 331.138C658.807 334.278 650.571 336.194 642.012 336.655L642.007 336.656C622.145 337.813 603.048 331.165 588.247 318.055C572.743 304.288 563.621 284.778 562.566 263.076V263.075L562.516 261.894C562.089 249.687 564.308 237.457 568.956 226.565V226.563C580.508 199.393 605.748 181.432 634.813 179.804L634.815 179.803ZM637.539 220.48L636.628 220.519C617.146 221.604 602.25 239.003 603.25 259.19C604.256 279.441 620.764 295.009 640.249 293.859C659.729 292.772 674.622 275.375 673.624 255.189C672.639 235.312 656.626 219.92 637.539 220.48Z" stroke="#C8F9E0" stroke-width="2"/>
<path d="M382.078 216.625C396.313 191.198 421.464 176.727 447.639 178.856L447.641 178.857C465.537 180.27 481.659 189.281 493.037 204.15V204.151C504.954 219.769 510.356 240.266 508.204 261.914V261.915C506.96 274.477 503.172 286.745 497.266 297.263V297.264C487.21 315.205 471.761 327.678 454.339 332.733C447.046 334.848 439.417 335.678 431.707 335.034H431.702C414.085 333.643 398.188 324.888 386.844 310.431L386.307 309.739C374.575 294.365 369.158 274.263 371.044 252.99L371.14 251.976C372.384 239.414 376.173 227.145 382.078 216.626V216.625ZM443.439 219.388C425.973 217.96 410.413 232.854 408.05 252.408L407.948 253.342C405.971 273.419 418.48 291.06 436.247 292.449V292.45C453.99 293.9 469.767 278.507 471.739 258.496C473.682 238.79 461.586 221.391 444.267 219.468L443.439 219.388Z" stroke="#C8F9E0" stroke-width="2"/>
<path d="M236.077 200.42C259.637 184.226 285.256 181.708 302.922 193.506L302.925 193.508C315.02 201.533 321.987 215.314 322.497 232.336C323.001 249.929 316.486 269.147 304.054 286.559L303.458 287.387C296.023 297.617 286.898 306.609 277.152 313.293V313.294C260.533 324.706 242.9 329.334 227.749 326.927C221.41 325.921 215.505 323.701 210.31 320.208L210.304 320.206L209.742 319.825C198.18 311.877 191.45 298.565 190.761 282.174L190.733 281.378C190.22 263.505 196.951 243.956 209.772 226.327C217.207 216.097 226.33 207.104 236.076 200.421L236.077 200.42ZM278.809 226.341C272.661 222.232 264.692 222.004 256.879 224.768C249.06 227.535 241.295 233.324 235.402 241.439H235.401C229.492 249.577 226.513 258.576 226.526 266.579C226.539 274.582 229.558 281.668 235.732 285.757V285.758C241.88 289.868 249.85 290.096 257.663 287.332C265.482 284.565 273.247 278.776 279.14 270.662C285.032 262.548 288.003 253.562 287.99 245.56C287.977 237.556 284.966 230.457 278.809 226.341Z" stroke="#C8F9E0" stroke-width="2"/>
<path d="M103.1 198.175C131.418 194.246 155.453 203.464 165.966 221.923L165.967 221.925C173.188 234.515 173.248 249.958 166.082 265.405C158.539 281.616 143.766 296.083 124.408 306.106C113.531 311.741 101.756 315.631 90.3879 317.334L89.2883 317.492C69.3193 320.255 51.4794 316.498 39.009 307.563C33.792 303.825 29.505 299.196 26.4231 293.747L26.4202 293.741C19.1993 281.151 19.1406 265.71 26.3059 250.261C33.8498 234.05 48.6221 219.584 67.9788 209.562L67.9797 209.561C79.2078 203.743 91.3924 199.787 103.099 198.175H103.1ZM110.798 229.26C102.567 228.232 93.0326 229.932 84.1301 234.549H84.1292C75.2015 239.181 68.5082 245.892 64.9368 253.054C61.4759 259.994 60.9236 267.428 64.2493 273.725L64.5833 274.33C68.241 280.755 75.2636 284.525 83.4856 285.552C91.7166 286.579 101.252 284.879 110.155 280.262C119.056 275.645 125.736 268.941 129.307 261.78C132.879 254.617 133.366 246.922 129.703 240.485C126.046 234.058 119.022 230.286 110.798 229.26Z" stroke="#C8F9E0" stroke-width="2"/>
<path d="M364.583 408.548C372.798 404.274 384.067 402.366 397.046 402.866C410.01 403.365 424.608 406.265 439.424 411.534H439.425C459.687 418.715 477.676 429.389 490.089 441.485V441.484C502.923 454.015 508.198 466.573 505.61 476.967L505.481 477.461C503.815 483.538 499.405 488.664 492.614 492.181L492.613 492.182C480.991 498.216 463.349 499.522 443.461 496.038C435.155 494.582 426.491 492.307 417.772 489.196L417.769 489.195L415.877 488.511C396.388 481.345 379.13 470.962 367.105 459.244H367.106C354.272 446.713 348.995 434.155 351.584 423.761L351.714 423.268C353.38 417.191 357.79 412.065 364.581 408.549L364.583 408.548ZM434.054 431.023C424.383 427.583 415.017 426.484 407.674 427.533C400.614 428.541 395.12 431.602 393.413 436.814L393.26 437.326C391.765 442.811 394.727 449.024 400.175 454.565C405.67 460.154 413.907 465.297 423.582 468.722V468.721C433.251 472.162 442.616 473.26 449.959 472.212C457.246 471.171 462.866 467.942 464.374 462.419C465.866 456.949 462.902 450.743 457.455 445.203C452.132 439.789 444.237 434.786 434.956 431.35L434.054 431.023Z" stroke="#C8F9E0" stroke-width="2"/>
<path d="M218.149 373.363C227.4 372.969 238.418 376.009 249.966 381.955C261.501 387.895 273.498 396.702 284.691 407.747L284.692 407.748C299.532 422.359 311.051 439.035 317.325 454.805L317.916 456.328C324.341 473.378 323.686 487.154 316.636 495.436L316.635 495.437C312.553 500.237 306.387 503.015 298.746 503.327H298.745C285.663 503.874 269.126 497.591 252.581 486.016C245.672 481.181 238.785 475.452 232.203 468.942L232.201 468.94C216.883 453.858 205.103 436.576 198.977 420.361H198.978C192.653 403.577 193.189 389.966 199.933 381.646L200.259 381.254C204.341 376.452 210.506 373.674 218.147 373.363H218.149ZM249.154 408.803C242.111 406.661 235.653 407.208 231.949 411.574V411.575C228.274 415.911 228.327 422.794 230.918 430.12C233.449 437.278 238.489 445.146 245.453 452.176L246.133 452.854C253.437 460.063 261.457 465.022 268.554 467.18C275.596 469.321 282.054 468.774 285.758 464.408C289.425 460.085 289.366 453.207 286.776 445.883C284.163 438.494 278.883 430.342 271.576 423.131C264.271 415.92 256.251 410.961 249.154 408.803Z" stroke="#C8F9E0" stroke-width="2"/>
<path d="M65.1641 361.272C71.7921 358.706 79.1828 358.989 86.5039 362.187L86.5059 362.188C104.29 369.916 120.705 393.48 129.022 423.977L129.023 423.978C134.721 444.768 135.858 465.965 132.321 483.613C128.59 502.143 120.103 514.553 108.667 518.972H108.666C102.038 521.538 94.6472 521.256 87.3262 518.058H87.3252C74.7902 512.599 62.9366 499.316 54.0947 481.186C50.4014 473.613 47.2402 465.229 44.8076 456.271V456.269L44.2861 454.318C39.1275 434.482 38.115 414.386 41.3467 397.46L41.5098 396.631C45.2407 378.103 53.727 365.694 65.1631 361.273L65.1641 361.272ZM94.9824 408.84C89.5845 403.63 83.2653 401.253 77.4238 403.521H77.4229C71.6241 405.775 67.7488 412.025 65.9795 419.944C64.2006 427.907 64.4859 437.79 67.2158 447.736V447.735C69.9283 457.686 74.5988 465.904 80.0127 471.13C85.4105 476.34 91.7299 478.717 97.5713 476.448C103.355 474.202 107.222 467.956 108.991 460.037C110.77 452.075 110.493 442.188 107.779 432.233C105.067 422.283 100.396 414.065 94.9824 408.84Z" stroke="#C8F9E0" stroke-width="2"/>
<path d="M628.643 401.956C650.132 401.352 670.758 404.825 686.696 411.636C703.446 418.811 712.93 428.823 714.02 439.645V439.646C714.657 445.915 712.39 452.286 707.323 458.014V458.015C698.656 467.831 682.671 475.408 662.863 479.325H662.862C654.591 480.962 645.689 481.961 636.434 482.202H636.432C614.943 482.806 594.317 479.332 578.378 472.522H578.378C561.629 465.348 552.147 455.334 551.056 444.513V444.512L551.004 443.924C550.563 437.845 552.843 431.693 557.753 426.144L557.755 426.143C563.878 419.196 573.702 413.355 585.989 409.144C598.262 404.937 612.924 402.381 628.642 401.956H628.643ZM657.596 426.864C650.457 423.632 640.919 421.795 630.657 422.071C620.397 422.347 611.264 424.697 604.793 428.322C598.37 431.919 594.291 436.957 594.876 442.652V442.653C595.458 448.308 600.461 453.036 607.54 456.24C614.68 459.473 624.216 461.302 634.475 461.01L634.474 461.009C644.734 460.733 653.866 458.384 660.337 454.759C666.76 451.162 670.839 446.125 670.254 440.429C669.675 434.789 664.673 430.068 657.596 426.864Z" stroke="#C8F9E0" stroke-width="2"/>
<path d="M634.815 525.413C654.367 524.273 673.177 530.697 687.878 543.403L688.575 544.013C704.08 557.781 713.202 577.291 714.257 598.993V598.994C714.875 611.591 712.666 624.26 707.867 635.503L707.866 635.504C699.828 654.378 685.233 668.789 667.322 676.391L666.466 676.748C658.807 679.889 650.571 681.805 642.012 682.266H642.007C622.145 683.423 603.048 676.775 588.247 663.666C572.985 650.112 563.908 630.996 562.622 609.702L562.566 608.686C561.949 596.088 564.158 583.419 568.956 572.175V572.174C580.508 545.005 605.748 527.042 634.813 525.413V525.414L634.815 525.413ZM637.539 566.089L636.628 566.128C617.146 567.215 602.25 584.613 603.25 604.798V604.799C604.256 625.052 620.765 640.621 640.25 639.47L640.249 639.469C659.729 638.381 674.622 620.985 673.624 600.8C672.639 580.923 656.626 565.53 637.539 566.089Z" stroke="#C8F9E0" stroke-width="2"/>
<path d="M382.078 562.237C396.314 536.809 421.464 522.337 447.639 524.467H447.642C465.538 525.879 481.659 534.89 493.037 549.76V549.761C504.954 565.379 510.356 585.877 508.204 607.523V607.524C506.96 620.086 503.172 632.355 497.266 642.873V642.874C487.21 660.814 471.761 673.288 454.339 678.342C447.046 680.457 439.416 681.289 431.707 680.643H431.702C413.806 679.231 397.684 670.219 386.307 655.347C374.389 639.729 368.988 619.232 371.14 597.586C372.384 585.023 376.173 572.756 382.078 562.238V562.237ZM443.439 564.998C425.696 563.548 409.919 578.94 407.948 598.952C405.971 619.029 418.48 636.67 436.247 638.059V638.06C453.99 639.509 469.767 624.117 471.739 604.106C473.712 584.086 461.198 566.448 443.439 564.998Z" stroke="#C8F9E0" stroke-width="2"/>
<path d="M236.077 546.029C259.637 529.835 285.256 527.317 302.922 539.115L302.925 539.117C315.02 547.142 321.987 560.924 322.497 577.945C323.001 595.538 316.486 614.757 304.054 632.168L303.458 632.996C296.023 643.226 286.898 652.22 277.152 658.902V658.903C260.533 670.315 242.9 674.943 227.749 672.538C221.41 671.531 215.504 669.31 210.309 665.819L210.304 665.815C198.399 657.915 191.461 644.438 190.761 627.783L190.733 626.987C190.22 609.114 196.951 589.564 209.772 571.937C217.207 561.707 226.33 552.713 236.076 546.03L236.077 546.029ZM278.809 571.951C272.661 567.841 264.692 567.614 256.879 570.378C249.06 573.145 241.295 578.933 235.402 587.048H235.401C229.492 595.187 226.513 604.186 226.526 612.188C226.539 620.193 229.559 627.281 235.736 631.371V631.37C241.883 635.478 249.851 635.705 257.663 632.941C265.482 630.175 273.247 624.385 279.14 616.271C285.032 608.157 288.003 599.171 287.99 591.169C287.976 583.165 284.966 576.067 278.809 571.951Z" stroke="#C8F9E0" stroke-width="2"/>
<path d="M103.1 543.785C131.418 539.856 155.453 549.074 165.966 567.533L165.967 567.535C173.188 580.126 173.248 595.568 166.082 611.016C158.539 627.227 143.766 641.693 124.408 651.717C113.531 657.352 101.756 661.241 90.3879 662.944L89.2883 663.103C69.3193 665.865 51.4794 662.108 39.009 653.174C33.7919 649.436 29.505 644.806 26.4231 639.356L26.4202 639.352C19.1992 626.761 19.1406 611.32 26.3059 595.871C33.8498 579.661 48.6221 565.194 67.9788 555.172L67.9797 555.171C79.2078 549.353 91.3924 545.397 103.099 543.785H103.1ZM110.798 574.87C102.567 573.843 93.0326 575.543 84.1301 580.159H84.1292C75.2015 584.791 68.5082 591.503 64.9368 598.664C61.4759 605.604 60.9236 613.038 64.2493 619.335L64.5833 619.94C68.241 626.365 75.2636 630.136 83.4856 631.162C91.7166 632.19 101.252 630.49 110.155 625.872C119.056 621.256 125.736 614.552 129.307 607.391C132.879 600.228 133.366 592.532 129.703 586.096C126.046 579.668 119.022 575.897 110.798 574.87Z" stroke="#C8F9E0" stroke-width="2"/>
<path d="M1043.45 742.333C1056.43 741.833 1067.7 743.741 1075.91 748.014L1075.91 748.015C1082.71 751.531 1087.12 756.656 1088.78 762.735V762.736C1091.66 773.223 1086.43 785.981 1073.39 798.71C1060.98 810.807 1042.99 821.48 1022.73 828.661L1022.72 828.662C1014.01 831.773 1005.34 834.049 997.036 835.504C977.147 838.989 959.505 837.681 947.884 831.647H947.883C941.091 828.131 936.681 823.005 935.014 816.927V816.926C932.178 806.603 937.208 794.079 949.801 781.549L950.407 780.952C962.82 768.855 980.808 758.182 1001.07 751.001H1001.07C1015.89 745.732 1030.49 742.832 1043.45 742.333ZM1032.82 766.999C1025.48 765.95 1016.11 767.05 1006.44 770.49C996.77 773.931 988.536 779.082 983.042 784.67C977.595 790.209 974.629 796.415 976.122 801.885C977.629 807.408 983.249 810.637 990.537 811.678C997.88 812.727 1007.24 811.627 1016.91 808.187C1026.59 804.761 1034.83 799.62 1040.32 794.031C1045.6 788.664 1048.54 782.665 1047.36 777.31L1047.24 776.793C1045.73 771.269 1040.11 768.04 1032.82 766.999Z" stroke="#C8F9E0" stroke-width="2"/>
<path d="M1190.52 721.421C1202.07 715.474 1213.09 712.433 1222.34 712.828H1222.34C1229.98 713.139 1236.15 715.917 1240.23 720.719H1240.23C1247.28 728.999 1247.94 742.775 1241.51 759.827C1235.39 776.04 1223.61 793.324 1208.29 808.407L1208.29 808.408C1201.71 814.917 1194.82 820.646 1187.91 825.48C1171.36 837.056 1154.83 843.34 1141.75 842.792H1141.74C1134.1 842.481 1127.94 839.703 1123.85 834.901V834.9C1116.8 826.619 1116.15 812.843 1122.57 795.793C1128.7 779.58 1140.48 762.296 1155.8 747.213V747.212C1166.99 736.167 1178.99 727.361 1190.52 721.421ZM1208.54 751.039C1204.84 746.673 1198.38 746.126 1191.34 748.268C1184.46 750.358 1176.72 755.078 1169.6 761.926L1168.91 762.596C1161.61 769.807 1156.33 777.959 1153.71 785.348C1151.12 792.672 1151.06 799.549 1154.73 803.873C1158.43 808.24 1164.89 808.787 1171.94 806.646C1179.03 804.488 1187.05 799.527 1194.36 792.316C1201.67 785.118 1206.96 776.974 1209.57 769.585C1212.16 762.259 1212.22 755.376 1208.54 751.04L1208.54 751.039Z" stroke="#C8F9E0" stroke-width="2"/>
<path d="M1353.99 701.653C1361.31 698.454 1368.7 698.173 1375.33 700.739H1375.33C1386.59 705.089 1394.99 717.183 1398.81 735.232L1398.99 736.097C1402.52 753.745 1401.39 774.943 1395.69 795.733L1395.69 795.735C1393.41 804.136 1390.49 812.027 1387.09 819.222L1386.4 820.651C1377.56 838.782 1365.71 852.063 1353.17 857.523L1353.17 857.524C1345.85 860.722 1338.46 861.003 1331.83 858.437H1331.83C1320.57 854.086 1312.17 841.993 1308.35 823.943L1308.17 823.08C1304.64 805.431 1305.78 784.233 1311.47 763.442V763.441C1319.79 732.947 1336.21 709.382 1353.99 701.654L1353.99 701.653ZM1363.07 742.986C1357.23 740.717 1350.91 743.095 1345.51 748.305C1340.1 753.53 1335.43 761.749 1332.72 771.7C1330 781.654 1329.73 791.54 1331.5 799.502C1333.27 807.42 1337.14 813.667 1342.92 815.913C1348.76 818.182 1355.08 815.805 1360.48 810.595C1365.9 805.369 1370.57 797.151 1373.28 787.199L1373.28 787.198C1376.01 777.253 1376.29 767.371 1374.52 759.409C1372.8 751.737 1369.11 745.633 1363.61 743.21L1363.07 742.986Z" stroke="#C8F9E0" stroke-width="2"/>
<path d="M753.796 751.101C769.736 744.291 790.36 740.817 811.85 741.421H811.851C827.57 741.846 842.233 744.402 854.506 748.608C866.793 752.82 876.617 758.66 882.74 765.606L882.741 765.608C887.809 771.336 890.075 777.707 889.439 783.977V783.978C888.365 794.63 879.157 804.5 862.893 811.649L862.115 811.987C846.176 818.797 825.55 822.271 804.061 821.667H804.059C794.804 821.426 785.903 820.428 777.63 818.792C757.822 814.874 741.837 807.295 733.172 797.479L733.171 797.479L732.704 796.939C727.964 791.352 725.857 785.185 726.473 779.11V779.109C727.564 768.288 737.047 758.275 753.795 751.1L753.796 751.101ZM809.836 761.536C799.574 761.26 790.037 763.097 782.898 766.329C775.821 769.533 770.818 774.253 770.24 779.893C769.655 785.589 773.733 790.626 780.156 794.224C786.627 797.848 795.759 800.197 806.019 800.474V800.475C816.279 800.766 825.815 798.938 832.954 795.705C840.033 792.5 845.035 787.773 845.617 782.118V782.117C846.202 776.421 842.124 771.384 835.701 767.787C829.23 764.162 820.097 761.812 809.836 761.536Z" stroke="#C8F9E0" stroke-width="2"/>
<path d="M751.916 883.478C766.716 870.368 785.813 863.72 805.675 864.877L805.678 864.878C834.743 866.506 859.982 884.469 871.534 911.639L871.535 911.64C876.183 922.532 878.4 934.762 877.974 946.969L877.925 948.15C876.87 969.851 867.747 989.361 852.243 1003.13C837.442 1016.24 818.344 1022.89 798.482 1021.73L798.478 1021.73L797.677 1021.68C789.405 1021.15 781.444 1019.25 774.024 1016.21C755.722 1008.71 740.789 994.142 732.624 974.969V974.968C727.825 963.724 725.616 951.056 726.233 938.458V938.457C727.288 916.755 736.41 897.245 751.916 883.478ZM802.951 905.554C783.864 904.995 767.851 920.387 766.866 940.265C765.868 960.449 780.761 977.845 800.241 978.934V978.935C819.726 980.084 836.235 964.516 837.241 944.264V944.263C838.225 924.393 823.806 907.223 804.772 905.655L803.862 905.593L802.951 905.554Z" stroke="#C8F9E0" stroke-width="2"/>
<path d="M992.856 863.932C1019.03 861.802 1044.18 876.274 1058.42 901.702L1058.42 901.703C1064.32 912.221 1068.11 924.489 1069.35 937.051C1071.51 958.697 1066.11 979.194 1054.19 994.812C1042.81 1009.68 1026.69 1018.7 1008.79 1020.11H1008.79C1001.08 1020.75 993.448 1019.92 986.156 1017.81C968.733 1012.75 953.284 1000.28 943.229 982.338V982.337L942.681 981.346C937.268 971.384 933.73 959.925 932.413 948.166L932.289 946.988L932.194 945.974C930.309 924.702 935.724 904.6 947.455 889.226L947.456 889.227C958.834 874.356 974.956 865.344 992.853 863.932H992.856ZM1032.55 938.416C1030.57 918.406 1014.8 903.013 997.056 904.463C979.296 905.914 966.782 923.551 968.754 943.571C970.728 963.582 986.504 978.974 1004.25 977.525L1004.25 977.524C1022.01 976.136 1034.52 958.496 1032.55 938.417V938.416Z" stroke="#C8F9E0" stroke-width="2"/>
<path d="M1137.58 878.582C1155.24 866.783 1180.86 869.302 1204.42 885.496L1204.42 885.497C1214.17 892.179 1223.29 901.172 1230.73 911.402C1243.55 929.031 1250.28 948.581 1249.76 966.453C1249.25 983.475 1242.29 997.256 1230.19 1005.28L1230.19 1005.28C1224.99 1008.78 1219.09 1011 1212.75 1012C1197.6 1014.41 1179.96 1009.78 1163.35 998.368H1163.34C1153.9 991.894 1145.05 983.252 1137.74 973.417L1137.04 972.462C1124.22 954.833 1117.49 935.284 1118 917.411C1118.51 900.389 1125.48 886.608 1137.57 878.583L1137.58 878.582ZM1183.62 909.843C1175.81 907.079 1167.84 907.307 1161.69 911.417C1155.53 915.532 1152.52 922.631 1152.51 930.635C1152.5 938.387 1155.28 947.062 1160.81 954.973L1161.36 955.737C1167.25 963.852 1175.02 969.64 1182.84 972.407C1190.65 975.171 1198.62 974.942 1204.77 970.833C1210.94 966.743 1213.96 959.657 1213.97 951.654C1213.98 943.651 1211 934.653 1205.1 926.514C1199.2 918.399 1191.44 912.61 1183.62 909.843Z" stroke="#C8F9E0" stroke-width="2"/>
<path d="M1274.53 906.998C1285.04 888.537 1309.08 879.319 1337.4 883.25H1337.4C1349.1 884.862 1361.29 888.819 1372.52 894.635C1391.87 904.658 1406.64 919.123 1414.19 935.334V935.335C1421.36 950.783 1421.3 966.225 1414.07 978.816L1414.07 978.822C1411.18 983.929 1407.23 988.317 1402.45 991.926L1401.49 992.638C1389.02 1001.57 1371.18 1005.33 1351.21 1002.57L1351.21 1002.57C1339.5 1000.95 1327.32 996.999 1316.09 991.181C1296.73 981.159 1281.96 966.692 1274.41 950.482H1274.41C1267.25 935.033 1267.31 919.59 1274.53 907L1274.53 906.998ZM1356.37 919.624C1347.46 915.006 1337.93 913.307 1329.7 914.334C1321.47 915.361 1314.45 919.133 1310.79 925.56C1307.13 931.997 1307.62 939.692 1311.19 946.855C1314.76 954.016 1321.44 960.72 1330.34 965.337C1339.24 969.954 1348.78 971.654 1357.01 970.626C1365.23 969.6 1372.26 965.828 1375.92 959.4L1375.92 959.399C1379.6 952.978 1379.13 945.29 1375.56 938.128C1371.99 930.967 1365.29 924.255 1356.37 919.624Z" stroke="#C8F9E0" stroke-width="2"/>
<path d="M1043.45 1087.94C1056.43 1087.44 1067.7 1089.35 1075.91 1093.62L1075.91 1093.62C1082.71 1097.14 1087.12 1102.27 1088.78 1108.34V1108.34C1091.66 1118.83 1086.43 1131.59 1073.39 1144.32C1060.98 1156.42 1042.99 1167.09 1022.73 1174.27L1022.72 1174.27C1014.01 1177.38 1005.34 1179.66 997.036 1181.11C977.147 1184.6 959.505 1183.29 947.884 1177.26L947.883 1177.26L947.254 1176.92C941.026 1173.53 936.902 1168.74 935.179 1163.1L935.014 1162.54C932.178 1152.21 937.208 1139.69 949.801 1127.16L950.407 1126.56C962.82 1114.46 980.808 1103.79 1001.07 1096.61H1001.07C1015.89 1091.34 1030.49 1088.44 1043.45 1087.94ZM1032.82 1112.61C1025.48 1111.56 1016.11 1112.66 1006.44 1116.1C996.77 1119.54 988.536 1124.69 983.042 1130.28C977.595 1135.82 974.629 1142.02 976.122 1147.49C977.629 1153.02 983.249 1156.25 990.537 1157.29C997.88 1158.34 1007.24 1157.23 1016.91 1153.79C1026.59 1150.37 1034.83 1145.23 1040.32 1139.64C1045.6 1134.27 1048.54 1128.27 1047.36 1122.92L1047.24 1122.4C1045.73 1116.88 1040.11 1113.65 1032.82 1112.61Z" stroke="#C8F9E0" stroke-width="2"/>
<path d="M1190.52 1067.03C1202.07 1061.08 1213.09 1058.04 1222.34 1058.44H1222.34C1229.98 1058.75 1236.15 1061.53 1240.23 1066.33H1240.23C1247.28 1074.61 1247.94 1088.39 1241.51 1105.44C1235.39 1121.65 1223.61 1138.93 1208.29 1154.02L1208.29 1154.02C1201.71 1160.53 1194.82 1166.26 1187.91 1171.09C1171.36 1182.67 1154.83 1188.95 1141.75 1188.4L1141.74 1188.4C1134.1 1188.09 1127.94 1185.31 1123.85 1180.51V1180.51L1123.53 1180.12C1116.79 1171.8 1116.25 1158.19 1122.57 1141.4C1128.7 1125.19 1140.48 1107.91 1155.8 1092.82V1092.82C1166.99 1081.78 1178.99 1072.97 1190.52 1067.03ZM1208.54 1096.65C1204.84 1092.28 1198.38 1091.74 1191.34 1093.88C1184.24 1096.04 1176.22 1101 1168.91 1108.21C1161.61 1115.42 1156.33 1123.57 1153.71 1130.96C1151.12 1138.28 1151.06 1145.16 1154.73 1149.48C1158.43 1153.85 1164.89 1154.4 1171.94 1152.25C1179.03 1150.1 1187.05 1145.14 1194.36 1137.93C1201.67 1130.73 1206.96 1122.58 1209.57 1115.2C1212.16 1107.87 1212.22 1100.99 1208.54 1096.65H1208.54Z" stroke="#C8F9E0" stroke-width="2"/>
<path d="M1353.99 1047.26C1361.31 1044.06 1368.7 1043.78 1375.33 1046.35L1375.33 1046.35C1386.59 1050.7 1394.99 1062.79 1398.81 1080.84L1398.99 1081.71C1402.52 1099.35 1401.39 1120.55 1395.69 1141.34L1395.69 1141.34C1393.41 1149.75 1390.49 1157.64 1387.09 1164.83L1386.4 1166.26C1377.56 1184.39 1365.71 1197.67 1353.17 1203.13H1353.17C1345.85 1206.33 1338.46 1206.61 1331.83 1204.05H1331.83C1320.57 1199.7 1312.17 1187.6 1308.35 1169.55L1308.17 1168.69C1304.64 1151.04 1305.78 1129.84 1311.47 1109.05V1109.05C1319.79 1078.55 1336.21 1054.99 1353.99 1047.26L1353.99 1047.26ZM1363.07 1088.6C1357.23 1086.33 1350.91 1088.7 1345.51 1093.91C1340.1 1099.14 1335.43 1107.36 1332.72 1117.31C1330 1127.26 1329.73 1137.15 1331.5 1145.11C1333.27 1153.03 1337.14 1159.28 1342.92 1161.52C1348.76 1163.79 1355.08 1161.41 1360.48 1156.2C1365.9 1150.98 1370.57 1142.76 1373.28 1132.81L1373.28 1132.81C1376.01 1122.86 1376.29 1112.98 1374.52 1105.02C1372.8 1097.35 1369.11 1091.24 1363.61 1088.82L1363.07 1088.6Z" stroke="#C8F9E0" stroke-width="2"/>
<path d="M753.796 1096.71C769.736 1089.9 790.36 1086.43 811.85 1087.03H811.851C827.57 1087.46 842.233 1090.01 854.506 1094.22C866.793 1098.43 876.617 1104.27 882.74 1111.22L882.741 1111.22C887.65 1116.77 889.93 1122.92 889.49 1129L889.439 1129.59C888.365 1140.24 879.158 1150.11 862.893 1157.26L862.115 1157.6C846.176 1164.41 825.55 1167.88 804.061 1167.28H804.059C794.804 1167.04 785.903 1166.04 777.63 1164.4C757.822 1160.48 741.837 1152.91 733.172 1143.09L733.171 1143.09C728.261 1137.54 725.982 1131.39 726.422 1125.31L726.473 1124.72C727.564 1113.9 737.047 1103.88 753.795 1096.71L753.796 1096.71ZM809.836 1107.15C799.574 1106.87 790.037 1108.71 782.898 1111.94C775.821 1115.14 770.818 1119.86 770.24 1125.5C769.655 1131.2 773.733 1136.24 780.156 1139.83C786.627 1143.46 795.759 1145.81 806.019 1146.08V1146.08C816.279 1146.38 825.815 1144.55 832.954 1141.32C840.033 1138.11 845.035 1133.38 845.617 1127.73V1127.73C846.202 1122.03 842.124 1116.99 835.701 1113.4C829.23 1109.77 820.097 1107.42 809.836 1107.15Z" stroke="#C8F9E0" stroke-width="2"/>
<path d="M751.916 1229.09C766.716 1215.98 785.813 1209.33 805.675 1210.49H805.678C834.743 1212.12 859.982 1230.08 871.534 1257.25L871.535 1257.25C876.183 1268.14 878.4 1280.37 877.974 1292.58L877.925 1293.76C876.87 1315.46 867.747 1334.97 852.243 1348.74C837.442 1361.85 818.344 1368.5 798.482 1367.34H798.478C789.919 1366.88 781.684 1364.96 774.024 1361.82C755.722 1354.32 740.789 1339.75 732.624 1320.58V1320.58C727.825 1309.33 725.616 1296.66 726.233 1284.07V1284.07C727.288 1262.36 736.41 1242.86 751.916 1229.09ZM802.951 1251.16C783.864 1250.6 767.851 1266 766.866 1285.87C765.868 1306.06 780.761 1323.45 800.241 1324.54V1324.54C819.421 1325.68 835.718 1310.61 837.182 1290.82L837.241 1289.87C838.226 1270 823.806 1252.83 804.772 1251.26L803.862 1251.2L802.951 1251.16Z" stroke="#C8F9E0" stroke-width="2"/>
<path d="M992.856 1209.54C1019.03 1207.41 1044.18 1221.88 1058.42 1247.31L1058.42 1247.31C1064.32 1257.83 1068.11 1270.1 1069.35 1282.66C1071.51 1304.31 1066.11 1324.8 1054.19 1340.42C1042.81 1355.29 1026.69 1364.31 1008.79 1365.72H1008.79C1001.08 1366.36 993.449 1365.53 986.156 1363.42C968.733 1358.36 953.284 1345.89 943.229 1327.95V1327.95L942.681 1326.96C937.268 1316.99 933.73 1305.53 932.413 1293.77L932.289 1292.6L932.194 1291.58C930.309 1270.31 935.724 1250.21 947.455 1234.84L947.456 1234.84C958.834 1219.97 974.956 1210.95 992.853 1209.54H992.856ZM1032.55 1284.03C1030.57 1264.01 1014.8 1248.62 997.056 1250.07C979.296 1251.52 966.782 1269.16 968.754 1289.18V1289.18C970.728 1309.19 986.504 1324.58 1004.25 1323.13L1004.25 1323.13C1022.01 1321.75 1034.52 1304.1 1032.55 1284.03Z" stroke="#C8F9E0" stroke-width="2"/>
<path d="M1137.58 1224.19C1155.24 1212.39 1180.86 1214.91 1204.42 1231.1L1204.42 1231.11C1214.17 1237.79 1223.29 1246.78 1230.73 1257.01C1243.55 1274.64 1250.28 1294.19 1249.76 1312.06C1249.25 1329.08 1242.29 1342.87 1230.19 1350.89L1230.19 1350.89C1224.99 1354.39 1219.09 1356.61 1212.75 1357.61C1197.6 1360.02 1179.96 1355.39 1163.35 1343.98L1163.34 1343.98C1153.9 1337.5 1145.05 1328.86 1137.74 1319.03L1137.04 1318.07C1124.22 1300.44 1117.49 1280.89 1118 1263.02C1118.51 1246 1125.48 1232.22 1137.57 1224.19L1137.58 1224.19ZM1183.62 1255.45C1175.81 1252.69 1167.84 1252.92 1161.69 1257.02C1155.53 1261.14 1152.52 1268.24 1152.51 1276.24C1152.5 1284 1155.28 1292.67 1160.81 1300.58L1161.36 1301.35C1167.25 1309.46 1175.02 1315.25 1182.84 1318.02C1190.65 1320.78 1198.62 1320.55 1204.77 1316.44C1210.94 1312.35 1213.96 1305.27 1213.97 1297.26C1213.98 1289.26 1211 1280.26 1205.1 1272.12C1199.2 1264.01 1191.44 1258.22 1183.62 1255.45Z" stroke="#C8F9E0" stroke-width="2"/>
<path d="M1274.53 1252.61C1285.04 1234.15 1309.08 1224.93 1337.4 1228.86H1337.4C1349.1 1230.47 1361.29 1234.43 1372.52 1240.25L1372.52 1240.25C1391.87 1250.27 1406.64 1264.73 1414.19 1280.94V1280.94C1421.36 1296.39 1421.3 1311.84 1414.07 1324.43L1414.07 1324.43C1410.99 1329.88 1406.7 1334.51 1401.49 1338.25C1389.02 1347.18 1371.18 1350.94 1351.21 1348.18H1351.21C1339.5 1346.56 1327.32 1342.61 1316.09 1336.79C1296.73 1326.77 1281.96 1312.3 1274.41 1296.09H1274.41C1267.25 1280.64 1267.31 1265.2 1274.53 1252.61L1274.53 1252.61ZM1356.37 1265.23C1347.46 1260.62 1337.93 1258.92 1329.7 1259.94C1321.47 1260.97 1314.45 1264.74 1310.79 1271.17C1307.13 1277.61 1307.62 1285.3 1311.19 1292.47C1314.76 1299.63 1321.44 1306.33 1330.34 1310.95C1339.24 1315.56 1348.78 1317.26 1357.01 1316.24C1365.23 1315.21 1372.26 1311.44 1375.92 1305.01L1375.92 1305.01C1379.6 1298.59 1379.13 1290.9 1375.56 1283.74C1371.99 1276.58 1365.29 1269.87 1356.37 1265.23H1356.37Z" stroke="#C8F9E0" stroke-width="2"/>
<path d="M364.583 748.014C372.798 743.741 384.067 741.833 397.046 742.333C410.01 742.832 424.608 745.732 439.424 751.001H439.425C459.054 757.958 476.55 768.191 488.909 779.822L490.089 780.952C503.126 793.681 508.364 806.44 505.481 816.926V816.927C503.815 823.005 499.405 828.131 492.614 831.647H492.613C480.991 837.681 463.349 838.989 443.461 835.504C435.155 834.049 426.491 831.773 417.772 828.662L417.769 828.661L415.877 827.978C396.388 820.811 379.13 810.43 367.105 798.71H367.106C354.069 785.981 348.831 773.223 351.714 762.736V762.735C353.38 756.656 357.79 751.531 364.581 748.015L364.583 748.014ZM434.054 770.49C424.383 767.05 415.017 765.95 407.674 766.999C400.614 768.007 395.12 771.069 393.413 776.282L393.26 776.793C391.765 782.277 394.727 788.491 400.175 794.031C405.669 799.62 413.905 804.761 423.58 808.187V808.188C433.25 811.628 442.615 812.727 449.959 811.678C457.246 810.637 462.866 807.408 464.374 801.885C465.866 796.415 462.902 790.209 457.455 784.67C451.96 779.082 443.726 773.931 434.054 770.49Z" stroke="#C8F9E0" stroke-width="2"/>
<path d="M218.149 712.828C227.4 712.433 238.418 715.474 249.966 721.421C261.5 727.361 273.498 736.168 284.691 747.212L284.692 747.213C299.532 761.824 311.051 778.501 317.325 794.27L317.916 795.793C324.341 812.843 323.686 826.619 316.636 834.9L316.635 834.901C312.553 839.703 306.387 842.481 298.746 842.792H298.745C285.663 843.34 269.126 837.056 252.581 825.48C245.672 820.646 238.785 814.917 232.203 808.408L232.201 808.407L230.775 806.987C216.152 792.246 204.911 775.534 198.977 759.828H198.978C192.653 743.042 193.189 729.431 199.933 721.111L200.259 720.719C204.341 715.917 210.506 713.139 218.147 712.828H218.149ZM249.154 748.268C242.111 746.126 235.653 746.673 231.949 751.039V751.04C228.274 755.376 228.327 762.259 230.918 769.585C233.449 776.743 238.489 784.611 245.453 791.641L246.133 792.318C253.437 799.528 261.457 804.488 268.554 806.646C275.596 808.787 282.054 808.24 285.758 803.873C289.425 799.549 289.366 792.672 286.776 785.348C284.163 777.959 278.883 769.807 271.576 762.596C264.271 755.385 256.251 750.426 249.154 748.268Z" stroke="#C8F9E0" stroke-width="2"/>
<path d="M65.1641 700.739C71.7923 698.173 79.1828 698.455 86.5039 701.653L86.5059 701.654C104.289 709.381 120.705 732.947 129.022 763.441L129.023 763.442C134.721 784.233 135.858 805.431 132.321 823.08C128.59 841.608 120.103 854.017 108.667 858.437H108.666C102.038 861.003 94.6472 860.722 87.3262 857.524L87.3252 857.523L86.7383 857.262C74.4205 851.647 62.7984 838.499 54.0947 820.651C50.4015 813.077 47.2402 804.696 44.8076 795.735V795.733L44.2861 793.783C39.0431 773.622 38.084 753.194 41.5098 736.097C45.2406 717.569 53.7269 705.158 65.1631 700.739H65.1641ZM94.9824 748.305C89.5846 743.095 83.2652 740.718 77.4238 742.986H77.4229C71.6241 745.24 67.7488 751.49 65.9795 759.409C64.2006 767.372 64.4859 777.255 67.2158 787.201V787.2C69.9283 797.152 74.5989 805.369 80.0127 810.595C85.4106 815.805 91.7299 818.182 97.5713 815.913C103.355 813.667 107.222 807.42 108.991 799.502C110.77 791.54 110.493 781.654 107.779 771.7C105.067 761.749 100.396 753.53 94.9824 748.305Z" stroke="#C8F9E0" stroke-width="2"/>
<path d="M628.643 741.421C650.133 740.817 670.759 744.29 686.697 751.1C703.447 758.275 712.93 768.288 714.02 779.109V779.11C714.657 785.381 712.39 791.75 707.323 797.479V797.479C698.656 807.296 682.671 814.874 662.863 818.792C654.591 820.428 645.689 821.426 636.434 821.667H636.432C614.943 822.271 594.317 818.797 578.378 811.987H578.378C561.629 804.812 552.147 794.799 551.056 783.978V783.977L551.004 783.389C550.563 777.31 552.843 771.158 557.753 765.608L557.755 765.606C563.878 758.661 573.702 752.82 585.989 748.608C598.262 744.402 612.924 741.846 628.642 741.421H628.643ZM657.596 766.329C650.457 763.097 640.919 761.26 630.657 761.536C620.397 761.812 611.264 764.162 604.793 767.787C598.37 771.384 594.291 776.421 594.876 782.117V782.118C595.458 787.773 600.461 792.5 607.54 795.705C614.68 798.937 624.216 800.766 634.475 800.475L634.474 800.474C644.734 800.197 653.866 797.848 660.337 794.224C666.76 790.626 670.839 785.589 670.254 779.894V779.893C669.675 774.253 664.673 769.533 657.596 766.329Z" stroke="#C8F9E0" stroke-width="2"/>
<path d="M634.815 864.877C654.367 863.738 673.177 870.162 687.878 882.868L688.575 883.478C704.08 897.245 713.202 916.755 714.257 938.457V938.458C714.875 951.055 712.666 963.724 707.867 974.968L707.866 974.969C699.701 994.142 684.768 1008.71 666.466 1016.21C658.807 1019.35 650.571 1021.27 642.012 1021.73L642.007 1021.73C622.145 1022.89 603.048 1016.24 588.247 1003.13C572.985 989.576 563.908 970.459 562.622 949.166L562.566 948.15C561.949 935.553 564.158 922.883 568.956 911.64V911.639C580.508 884.469 605.748 866.506 634.813 864.878L634.815 864.877ZM637.539 905.554L636.628 905.593C617.146 906.679 602.25 924.077 603.25 944.263V944.264C604.256 964.516 620.765 980.084 640.25 978.935L640.249 978.934C659.729 977.846 674.622 960.449 673.624 940.265C672.639 920.387 656.626 904.995 637.539 905.554Z" stroke="#C8F9E0" stroke-width="2"/>
<path d="M382.078 901.702C396.314 876.274 421.464 861.802 447.639 863.932H447.642C465.538 865.344 481.659 874.355 493.037 889.225V889.226C504.954 904.844 510.356 925.341 508.204 946.988V946.989C506.96 959.553 503.172 971.819 497.266 982.337V982.338C487.368 999.999 472.243 1012.36 455.155 1017.56L454.339 1017.81C447.046 1019.92 439.417 1020.75 431.707 1020.11H431.702C413.806 1018.7 397.684 1009.68 386.307 994.812C374.389 979.194 368.988 958.697 371.14 937.051C372.384 924.489 376.173 912.221 382.078 901.703V901.702ZM443.439 904.463C425.696 903.013 409.92 918.406 407.948 938.416V938.417C405.971 958.495 418.48 976.135 436.247 977.524V977.525C453.99 978.974 469.767 963.582 471.739 943.571C473.682 923.864 461.586 906.466 444.267 904.543L443.439 904.463Z" stroke="#C8F9E0" stroke-width="2"/>
<path d="M236.077 885.496C259.637 869.301 285.256 866.783 302.922 878.582L302.925 878.583C314.831 886.483 321.768 899.96 322.468 916.615L322.497 917.411C323.001 935.005 316.486 954.222 304.054 971.634L303.458 972.462C296.255 982.372 287.466 991.121 278.064 997.734L277.152 998.368C260.533 1009.78 242.9 1014.41 227.749 1012C221.41 1011 215.505 1008.78 210.31 1005.28L210.304 1005.28L209.742 1004.9C198.18 996.952 191.45 983.64 190.761 967.248L190.733 966.453C190.228 948.86 196.743 929.642 209.175 912.23L209.772 911.402C217.207 901.172 226.33 892.179 236.076 885.497L236.077 885.496ZM278.809 911.417C272.661 907.307 264.692 907.079 256.879 909.843C249.06 912.61 241.295 918.4 235.402 926.514H235.401C229.492 934.653 226.513 943.651 226.526 951.654C226.539 959.657 229.558 966.743 235.732 970.833V970.833C241.88 974.943 249.85 975.171 257.663 972.407C265.482 969.64 273.247 963.851 279.14 955.737C285.032 947.623 288.003 938.637 287.99 930.635C287.977 922.631 284.966 915.532 278.809 911.417Z" stroke="#C8F9E0" stroke-width="2"/>
<path d="M103.1 883.25C131.417 879.319 155.453 888.537 165.966 906.998L165.967 907C173.188 919.59 173.248 935.032 166.082 950.481C158.539 966.692 143.766 981.159 124.408 991.181C113.18 996.999 100.995 1000.95 89.2883 1002.57V1002.57C69.3194 1005.33 51.4793 1001.57 39.009 992.638V992.637C33.792 988.899 29.505 984.27 26.4231 978.822L26.4202 978.817L26.0872 978.224C19.1994 965.743 19.2527 950.542 26.3059 935.336C33.8498 919.124 48.6219 904.659 67.9788 894.635H67.9797C79.208 888.819 91.3923 884.862 103.099 883.25H103.1ZM110.798 914.334C102.567 913.307 93.0325 915.006 84.1301 919.624H84.1292C75.2012 924.255 68.5081 930.967 64.9368 938.128C61.476 945.068 60.9237 952.502 64.2493 958.798L64.5833 959.404C68.241 965.829 75.2636 969.6 83.4856 970.626C91.7166 971.654 101.252 969.954 110.155 965.337C119.056 960.72 125.736 954.016 129.307 946.855C132.879 939.692 133.366 931.997 129.703 925.56V925.559C126.046 919.132 119.022 915.361 110.798 914.334Z" stroke="#C8F9E0" stroke-width="2"/>
<path d="M364.583 1093.62C372.798 1089.35 384.067 1087.44 397.046 1087.94C410.01 1088.44 424.608 1091.34 439.424 1096.61H439.425C459.054 1103.57 476.549 1113.8 488.909 1125.43L490.089 1126.56C502.923 1139.09 508.199 1151.65 505.61 1162.04L505.481 1162.54C503.815 1168.61 499.405 1173.74 492.614 1177.26L492.613 1177.26C480.991 1183.29 463.349 1184.6 443.461 1181.11C435.155 1179.66 426.49 1177.38 417.771 1174.27L417.769 1174.27C398.14 1167.31 380.645 1157.08 368.286 1145.45L367.105 1144.32C354.068 1131.59 348.831 1118.83 351.714 1108.34V1108.34C353.38 1102.27 357.79 1097.14 364.581 1093.62L364.583 1093.62ZM434.054 1116.1C424.383 1112.66 415.017 1111.56 407.674 1112.61C400.614 1113.62 395.12 1116.68 393.413 1121.89L393.26 1122.4C391.765 1127.89 394.727 1134.1 400.175 1139.64C405.669 1145.23 413.905 1150.37 423.58 1153.79V1153.8C433.25 1157.24 442.615 1158.34 449.959 1157.29C457.246 1156.25 462.866 1153.02 464.374 1147.49C465.866 1142.02 462.902 1135.82 457.455 1130.28C451.96 1124.69 443.726 1119.54 434.054 1116.1Z" stroke="#C8F9E0" stroke-width="2"/>
<path d="M218.149 1058.44C227.4 1058.04 238.418 1061.08 249.966 1067.03C261.5 1072.97 273.499 1081.78 284.691 1092.82L284.692 1092.82C299.532 1107.43 311.051 1124.11 317.325 1139.88L317.916 1141.4C324.341 1158.45 323.686 1172.23 316.636 1180.51L316.635 1180.51C312.553 1185.31 306.387 1188.09 298.746 1188.4L298.745 1188.4C285.663 1188.95 269.126 1182.67 252.581 1171.09C245.672 1166.26 238.786 1160.53 232.203 1154.02L232.201 1154.02L230.775 1152.6C216.152 1137.85 204.911 1121.14 198.977 1105.44H198.978C192.653 1088.65 193.189 1075.04 199.933 1066.72L200.259 1066.33C204.341 1061.53 210.506 1058.75 218.147 1058.44H218.149ZM249.154 1093.88C242.332 1091.8 236.058 1092.25 232.305 1096.25L231.949 1096.65C228.273 1100.99 228.327 1107.87 230.918 1115.2C233.449 1122.35 238.489 1130.22 245.453 1137.25L246.133 1137.93C253.437 1145.14 261.457 1150.1 268.554 1152.25C275.596 1154.4 282.054 1153.85 285.758 1149.48C289.425 1145.16 289.366 1138.28 286.776 1130.96C284.163 1123.57 278.883 1115.42 271.576 1108.21C264.271 1101 256.251 1096.04 249.154 1093.88Z" stroke="#C8F9E0" stroke-width="2"/>
<path d="M65.1641 1046.35C71.792 1043.78 79.1828 1044.06 86.5039 1047.26L86.5059 1047.26C104.29 1054.99 120.705 1078.55 129.022 1109.05L129.023 1109.05C134.721 1129.84 135.858 1151.04 132.321 1168.69C128.59 1187.22 120.103 1199.63 108.667 1204.05H108.666C102.038 1206.61 94.6473 1206.33 87.3262 1203.13H87.3252C74.7902 1197.67 62.9366 1184.39 54.0947 1166.26C50.4014 1158.69 47.2402 1150.3 44.8076 1141.34V1141.34L44.2861 1139.39C39.1275 1119.56 38.115 1099.46 41.3467 1082.53L41.5098 1081.71C45.2407 1063.18 53.727 1050.77 65.1631 1046.35L65.1641 1046.35ZM94.9824 1093.91C89.5845 1088.7 83.2653 1086.33 77.4238 1088.6H77.4229C71.6241 1090.85 67.7488 1097.1 65.9795 1105.02C64.2006 1112.98 64.4859 1122.86 67.2158 1132.81V1132.81C69.9283 1142.76 74.5988 1150.98 80.0127 1156.2C85.4105 1161.41 91.7299 1163.79 97.5713 1161.52C103.355 1159.28 107.222 1153.03 108.991 1145.11C110.77 1137.15 110.493 1127.26 107.779 1117.31C105.067 1107.36 100.396 1099.14 94.9824 1093.91Z" stroke="#C8F9E0" stroke-width="2"/>
<path d="M628.643 1087.03C650.133 1086.43 670.759 1089.9 686.697 1096.71C703.446 1103.88 712.93 1113.9 714.02 1124.72V1124.72C714.657 1130.99 712.39 1137.36 707.323 1143.09V1143.09C698.656 1152.91 682.671 1160.48 662.863 1164.4C654.591 1166.04 645.689 1167.04 636.434 1167.28H636.432C614.943 1167.88 594.317 1164.41 578.378 1157.6H578.378C561.629 1150.42 552.147 1140.41 551.056 1129.59V1129.59C550.419 1123.32 552.685 1116.95 557.753 1111.22L557.755 1111.22C563.878 1104.27 573.702 1098.43 585.989 1094.22C598.262 1090.01 612.924 1087.46 628.642 1087.03H628.643ZM657.596 1111.94C650.457 1108.71 640.919 1106.87 630.657 1107.15C620.397 1107.42 611.264 1109.77 604.793 1113.4C598.37 1116.99 594.291 1122.03 594.876 1127.73V1127.73C595.458 1133.38 600.461 1138.11 607.54 1141.32C614.68 1144.55 624.216 1146.38 634.475 1146.08L634.474 1146.08C644.734 1145.81 653.866 1143.46 660.337 1139.83C666.76 1136.24 670.839 1131.2 670.254 1125.5C669.675 1119.86 664.673 1115.14 657.596 1111.94Z" stroke="#C8F9E0" stroke-width="2"/>
<path d="M634.815 1210.49C654.367 1209.35 673.177 1215.77 687.878 1228.48L688.575 1229.09C704.08 1242.86 713.202 1262.36 714.257 1284.07V1284.07C714.875 1296.66 712.666 1309.33 707.867 1320.58L707.866 1320.58C699.701 1339.75 684.768 1354.32 666.466 1361.82C658.807 1364.96 650.571 1366.88 642.012 1367.34H642.007C622.456 1368.48 603.645 1362.06 588.944 1349.35L588.247 1348.74C572.985 1335.19 563.908 1316.07 562.622 1294.78L562.566 1293.76C561.949 1281.16 564.158 1268.49 568.956 1257.25V1257.25C580.508 1230.08 605.748 1212.12 634.813 1210.49V1210.49L634.815 1210.49ZM637.539 1251.16L636.628 1251.2C617.451 1252.27 602.716 1269.15 603.214 1288.93L603.25 1289.87C604.256 1310.13 620.765 1325.69 640.25 1324.54L640.249 1324.54C659.729 1323.46 674.622 1306.06 673.624 1285.87C672.639 1266 656.626 1250.6 637.539 1251.16Z" stroke="#C8F9E0" stroke-width="2"/>
<path d="M382.078 1247.31C396.314 1221.88 421.464 1207.41 447.639 1209.54H447.642C465.538 1210.95 481.659 1219.96 493.037 1234.83V1234.84C504.954 1250.45 510.356 1270.95 508.204 1292.6V1292.6C506.96 1305.16 503.172 1317.43 497.266 1327.95V1327.95C487.21 1345.89 471.761 1358.36 454.339 1363.42C447.046 1365.53 439.416 1366.36 431.707 1365.72H431.702C413.806 1364.31 397.684 1355.29 386.307 1340.42C374.389 1324.8 368.988 1304.31 371.14 1282.66C372.384 1270.1 376.173 1257.83 382.078 1247.31V1247.31ZM443.439 1250.07C425.696 1248.62 409.919 1264.01 407.948 1284.03C405.971 1304.1 418.48 1321.74 436.247 1323.13V1323.13C453.99 1324.58 469.766 1309.19 471.739 1289.18C473.713 1269.16 461.199 1251.52 443.439 1250.07Z" stroke="#C8F9E0" stroke-width="2"/>
<path d="M236.077 1231.1C259.637 1214.91 285.256 1212.39 302.922 1224.19L302.925 1224.19C315.02 1232.22 321.987 1246 322.497 1263.02C323.001 1280.61 316.486 1299.83 304.054 1317.24L303.458 1318.07C296.023 1328.3 286.898 1337.29 277.152 1343.98V1343.98C260.533 1355.39 242.9 1360.02 227.749 1357.61C221.41 1356.61 215.505 1354.39 210.31 1350.89L210.304 1350.89L209.742 1350.51C198.18 1342.56 191.45 1329.25 190.761 1312.86L190.733 1312.06C190.228 1294.47 196.743 1275.25 209.175 1257.84L209.772 1257.01C217.207 1246.78 226.33 1237.79 236.076 1231.11L236.077 1231.1ZM278.809 1257.02C272.661 1252.92 264.692 1252.69 256.879 1255.45C249.06 1258.22 241.295 1264.01 235.402 1272.12H235.401C229.492 1280.26 226.513 1289.26 226.526 1297.26C226.539 1305.27 229.558 1312.35 235.732 1316.44V1316.44C241.88 1320.55 249.85 1320.78 257.663 1318.02C265.482 1315.25 273.247 1309.46 279.14 1301.35C285.032 1293.23 288.003 1284.25 287.99 1276.24C287.977 1268.24 284.966 1261.14 278.809 1257.02Z" stroke="#C8F9E0" stroke-width="2"/>
<path d="M103.1 1228.86C131.418 1224.93 155.453 1234.15 165.966 1252.61L165.967 1252.61C173.188 1265.2 173.248 1280.64 166.082 1296.09C158.539 1312.3 143.766 1326.77 124.408 1336.79C113.531 1342.43 101.756 1346.32 90.3879 1348.02L89.2883 1348.18C69.3194 1350.94 51.4794 1347.18 39.009 1338.25C33.7919 1334.51 29.505 1329.88 26.4231 1324.43L26.4202 1324.43C19.1992 1311.84 19.1406 1296.39 26.3059 1280.95C33.8498 1264.73 48.6222 1250.27 67.9788 1240.25L67.9797 1240.25C79.2078 1234.43 91.3924 1230.47 103.099 1228.86H103.1ZM110.798 1259.94C102.567 1258.92 93.0326 1260.62 84.1301 1265.23H84.1292C75.2015 1269.87 68.5081 1276.58 64.9368 1283.74C61.4759 1290.68 60.9236 1298.11 64.2493 1304.41L64.5833 1305.01C68.241 1311.44 75.2636 1315.21 83.4856 1316.24C91.7166 1317.26 101.252 1315.56 110.155 1310.95C119.056 1306.33 125.736 1299.63 129.307 1292.47C132.879 1285.3 133.366 1277.61 129.703 1271.17C126.046 1264.74 119.022 1260.97 110.798 1259.94Z" stroke="#C8F9E0" stroke-width="2"/>
</g>
</svg>
