<svg width="40" height="40" viewBox="0 0 40 40" fill="none" xmlns="http://www.w3.org/2000/svg">
<g clip-path="url(#clip0_90_37927)">
<path d="M4 4H36V36H4V4Z" fill="#012169"/>
<path d="M28.2144 16.0267L28.3144 16.16L28.2144 16.0267Z" fill="#49497D"/>
<path d="M28.3147 16.0267L28.4147 16.16L28.3147 16.0267Z" fill="#0E0E6E"/>
<path d="M28.0096 16.16L28.1096 16.2933L28.0096 16.16Z" fill="#262678"/>
<path d="M28.1149 16.16L28.2149 16.2933L28.1149 16.16Z" fill="#808067"/>
<path d="M28.4142 16.16L28.5142 16.2933L28.4142 16.16Z" fill="#58587B"/>
<path d="M24.6599 16.3L24.7599 16.4333L24.6599 16.3Z" fill="#0E0E6E"/>
<path d="M27.8098 16.3L27.9098 16.4333L27.8098 16.3Z" fill="#1B1B74"/>
<path d="M27.9102 16.3L28.0102 16.4333L27.9102 16.3Z" fill="#6E6C70"/>
<path d="M24.8399 16.5333C24.8399 20.04 24.5399 23.98 26.4899 26.72C26.8899 27.28 27.6599 28.5667 28.3149 28.52C28.9999 28.4667 29.8849 27.1133 30.2749 26.4533C31.9749 23.4667 31.7099 19.9067 31.7649 16.44C30.9999 16.9 30.6149 17.0533 29.9449 17.04C29.4449 17.1067 28.6799 16.6733 28.2199 16.3733C27.9199 16.64 27.4849 16.9667 26.6999 17C25.7999 17.0533 25.5099 16.8467 24.8399 16.5333V16.5333Z" fill="#CCCC33"/>
<path d="M28.5195 16.3L28.6195 16.4333L28.5195 16.3Z" fill="#99994E"/>
<path d="M28.6199 16.3L28.7199 16.4333L28.6199 16.3Z" fill="#49497D"/>
<path d="M31.7646 16.3L31.8646 16.4333L31.7646 16.3Z" fill="#0E0E6E"/>
<path d="M24.7644 16.4333L24.8644 16.5667L24.7644 16.4333Z" fill="#A4A43D"/>
<path d="M24.8647 16.4333L24.9647 16.5667L24.8647 16.4333Z" fill="#6E6C70"/>
<path d="M24.9642 16.4333L25.0642 16.5667L24.9642 16.4333Z" fill="#3A3A7C"/>
<path d="M27.6 16.4333L27.7 16.5667L27.6 16.4333Z" fill="#1B1B74"/>
<path d="M27.6995 16.4333L27.7995 16.5667L27.6995 16.4333Z" fill="#6E6C70"/>
<path d="M27.8098 16.4333L27.9098 16.5667L27.8098 16.4333Z" fill="#A4A43D"/>
<path d="M28.2144 16.4333L28.3144 16.5667L28.2144 16.4333Z" fill="#D0D045"/>
<path d="M28.6199 16.4333L28.7199 16.5667L28.6199 16.4333Z" fill="#A4A43D"/>
<path d="M28.7202 16.4333L28.8202 16.5667L28.7202 16.4333Z" fill="#8D8D5B"/>
<path d="M28.8246 16.4333L28.9246 16.5667L28.8246 16.4333Z" fill="#3A3A7C"/>
<path d="M31.4596 16.4333L31.5596 16.5667L31.4596 16.4333Z" fill="#262678"/>
<path d="M31.5649 16.4333L31.6649 16.5667L31.5649 16.4333Z" fill="#53527C"/>
<path d="M31.6644 16.4333L31.7644 16.5667L31.6644 16.4333Z" fill="#8D8D5B"/>
<path d="M25.1699 16.5733L25.2699 16.7067L25.1699 16.5733Z" fill="#737370"/>
<path d="M25.2701 16.5733L25.3701 16.7067L25.2701 16.5733Z" fill="#53527C"/>
<path d="M25.3696 16.5733L25.4696 16.7067L25.3696 16.5733Z" fill="#1B1B74"/>
<path d="M27.3994 16.5733L27.4994 16.7067L27.3994 16.5733Z" fill="#262678"/>
<path d="M27.4998 16.5733L27.5998 16.7067L27.4998 16.5733Z" fill="#6E6C70"/>
<path d="M27.6 16.5733L27.7 16.7067L27.6 16.5733Z" fill="#A4A43D"/>
<path d="M28.1149 16.5733L28.2149 16.7067L28.1149 16.5733Z" fill="#E5E59D"/>
<path d="M25.045 16.92C24.995 18.76 25.035 20.8267 25.245 22.7867C25.49 23.82 25.455 24.3867 25.81 25L30.76 24.9467C31.06 24.3 31.285 23.32 31.31 22.9267C31.59 20.9467 31.595 18.7533 31.605 16.7933C31.0605 17.1926 30.4386 17.3645 29.82 17.2867C29.2828 17.2436 28.7605 17.0336 28.295 16.6733C27.82 17.0467 27.655 17.22 26.875 17.2667C26.265 17.3067 25.775 17.3733 25.045 16.92Z" fill="white"/>
<path d="M28.3147 16.5733L28.4147 16.7067L28.3147 16.5733Z" fill="#F2F1D7"/>
<path d="M28.4142 16.5733L28.5142 16.7067L28.4142 16.5733Z" fill="#D9D868"/>
<path d="M28.8246 16.5733L28.9246 16.7067L28.8246 16.5733Z" fill="#A4A43D"/>
<path d="M28.9249 16.5733L29.0249 16.7067L28.9249 16.5733Z" fill="#99994E"/>
<path d="M29.0244 16.5733L29.1244 16.7067L29.0244 16.5733Z" fill="#49497D"/>
<path d="M29.1248 16.5733L29.2248 16.7067L29.1248 16.5733Z" fill="#0E0E6E"/>
<path d="M31.1594 16.5733L31.2594 16.7067L31.1594 16.5733Z" fill="#3A3A7C"/>
<path d="M31.2598 16.5733L31.3598 16.7067L31.2598 16.5733Z" fill="#666677"/>
<path d="M31.3601 16.5733L31.4601 16.7067L31.3601 16.5733Z" fill="#99994E"/>
<path d="M31.4596 16.5733L31.5596 16.7067L31.4596 16.5733ZM25.3696 16.7067L25.4696 16.84L25.3696 16.7067Z" fill="#A4A43D"/>
<path d="M25.475 16.7067L25.575 16.84L25.475 16.7067Z" fill="#99994E"/>
<path d="M25.5745 16.7067L25.6745 16.84L25.5745 16.7067Z" fill="#6E6C70"/>
<path d="M25.6748 16.7067L25.7748 16.84L25.6748 16.7067Z" fill="#49497D"/>
<path d="M25.7743 16.7067L25.8743 16.84L25.7743 16.7067ZM27.0943 16.7067L27.1943 16.84L27.0943 16.7067Z" fill="#1B1B74"/>
<path d="M27.1946 16.7067L27.2946 16.84L27.1946 16.7067Z" fill="#53527C"/>
<path d="M27.2999 16.7067L27.3999 16.84L27.2999 16.7067Z" fill="#8D8D5B"/>
<path d="M27.3994 16.7067L27.4994 16.84L27.3994 16.7067Z" fill="#A4A43D"/>
<path d="M27.9102 16.7067L28.0102 16.84L27.9102 16.7067Z" fill="#E5E59D"/>
<path d="M28.0096 16.7067L28.1096 16.84L28.0096 16.7067Z" fill="#FBFAF2"/>
<path d="M28.5195 16.7067L28.6195 16.84L28.5195 16.7067Z" fill="#F2F1D2"/>
<path d="M28.6199 16.7067L28.7199 16.84L28.6199 16.7067Z" fill="#D9D868"/>
<path d="M29.1248 16.7067L29.2248 16.84L29.1248 16.7067Z" fill="#A4A43D"/>
<path d="M29.2292 16.7067L29.3292 16.84L29.2292 16.7067Z" fill="#6E6C70"/>
<path d="M29.3296 16.7067L29.4296 16.84L29.3296 16.7067Z" fill="#3A3A7C"/>
<path d="M30.6495 16.7067L30.7495 16.84L30.6495 16.7067Z" fill="#0E0E6E"/>
<path d="M30.7499 16.7067L30.8499 16.84L30.7499 16.7067Z" fill="#32327B"/>
<path d="M30.8494 16.7067L30.9494 16.84L30.8494 16.7067Z" fill="#58587B"/>
<path d="M30.9497 16.7067L31.0497 16.84L30.9497 16.7067Z" fill="#808067"/>
<path d="M31.1246 16.7467L31.1896 16.7933L31.1246 16.7467Z" fill="#A4A43D"/>
<path d="M24.9642 16.84L25.0642 16.9733L24.9642 16.84Z" fill="#DDDC7A"/>
<path d="M25.0646 16.84L25.1646 16.9733L25.0646 16.84Z" fill="#D0D045"/>
<path d="M25.8447 16.88L25.9147 16.9267L25.8447 16.88Z" fill="#A4A43D"/>
<path d="M25.98 16.84L26.08 16.9733L25.98 16.84Z" fill="#808067"/>
<path d="M26.0795 16.84L26.1795 16.9733L26.0795 16.84Z" fill="#666677"/>
<path d="M26.1847 16.84L26.2847 16.9733L26.1847 16.84Z" fill="#58587B"/>
<path d="M26.285 16.84L26.385 16.9733L26.285 16.84Z" fill="#49497D"/>
<path d="M26.8944 16.84L26.9944 16.9733L26.8944 16.84Z" fill="#737370"/>
<path d="M26.9948 16.84L27.0948 16.9733L26.9948 16.84Z" fill="#99994E"/>
<path d="M27.0951 16.84L27.1951 16.9733L27.0951 16.84Z" fill="#A4A43D"/>
<path d="M27.6995 16.84L27.7995 16.9733L27.6995 16.84Z" fill="#E5E59D"/>
<path d="M27.8098 16.84L27.9098 16.9733L27.8098 16.84Z" fill="#FBFAF2"/>
<path d="M28.7202 16.84L28.8202 16.9733L28.7202 16.84Z" fill="#F2F1D2"/>
<path d="M28.8246 16.84L28.9246 16.9733L28.8246 16.84Z" fill="#D9D868"/>
<path d="M29.395 16.88L29.465 16.9267L29.4 16.88H29.395Z" fill="#A4A43D"/>
<path d="M29.5344 16.84L29.6344 16.9733L29.5344 16.84Z" fill="#808067"/>
<path d="M29.6346 16.84L29.7346 16.9733L29.6346 16.84Z" fill="#666677"/>
<path d="M29.735 16.84L29.835 16.9733L29.735 16.84Z" fill="#58587B"/>
<path d="M29.8395 16.84L29.9395 16.9733L29.8395 16.84Z" fill="#3A3A7C"/>
<path d="M30.3096 16.88L30.3796 16.9267L30.3096 16.88Z" fill="#58587B"/>
<path d="M30.4447 16.84L30.5447 16.9733L30.4447 16.84Z" fill="#737370"/>
<path d="M30.545 16.84L30.645 16.9733L30.545 16.84Z" fill="#99994E"/>
<path d="M30.6495 16.84L30.7495 16.9733L30.6495 16.84Z" fill="#A4A43D"/>
<path d="M31.4596 16.84L31.5596 16.9733L31.4596 16.84Z" fill="#DDDC7A"/>
<path d="M31.5649 16.84L31.6649 16.9733L31.5649 16.84Z" fill="#D0D045"/>
<path d="M25.1699 16.9733L25.2699 17.1067L25.1699 16.9733Z" fill="#F2F1D7"/>
<path d="M25.2701 16.9733L25.3701 17.1067L25.2701 16.9733Z" fill="#E0DEA1"/>
<path d="M25.3696 16.9733L25.4696 17.1067L25.3696 16.9733Z" fill="#DDDC7A"/>
<path d="M27.3994 16.9733L27.4994 17.1067L27.3994 16.9733Z" fill="#D9D868"/>
<path d="M27.4998 16.9733L27.5998 17.1067L27.4998 16.9733Z" fill="#E5E3AF"/>
<path d="M28.9249 16.9733L29.0249 17.1067L28.9249 16.9733Z" fill="#F6F6E4"/>
<path d="M29.0244 16.9733L29.1244 17.1067L29.0244 16.9733Z" fill="#E1E18C"/>
<path d="M31.05 16.9733L31.15 17.1067L31.05 16.9733Z" fill="#D4D456"/>
<path d="M31.1594 16.9733L31.2594 17.1067L31.1594 16.9733Z" fill="#E1E18C"/>
<path d="M31.2598 16.9733L31.3598 17.1067L31.2598 16.9733Z" fill="#EEEDC1"/>
<path d="M25.5745 17.1067L25.6745 17.24L25.5745 17.1067Z" fill="#F2F1D2"/>
<path d="M25.6748 17.1067L25.7748 17.24L25.6748 17.1067Z" fill="#E0DEA1"/>
<path d="M25.7743 17.1067L25.8743 17.24L25.7743 17.1067Z" fill="#DDDC7A"/>
<path d="M25.8796 17.1067L25.9796 17.24L25.8796 17.1067Z" fill="#D0D045"/>
<path d="M27.0951 17.1067L27.1951 17.24L27.0951 17.1067Z" fill="#DDDC7A"/>
<path d="M27.1946 17.1067L27.2946 17.24L27.1946 17.1067Z" fill="#E5E3AF"/>
<path d="M27.2999 17.1067L27.3999 17.24L27.2999 17.1067Z" fill="#F6F6E4"/>
<path d="M29.2292 17.1067L29.3292 17.24L29.2292 17.1067Z" fill="#EEEDC1"/>
<path d="M29.3296 17.1067L29.4296 17.24L29.3296 17.1067Z" fill="#E1E18C"/>
<path d="M29.4299 17.1067L29.5299 17.24L29.4299 17.1067Z" fill="#D4D456"/>
<path d="M30.6495 17.1067L30.7495 17.24L30.6495 17.1067Z" fill="#D9D868"/>
<path d="M30.7499 17.1067L30.8499 17.24L30.7499 17.1067Z" fill="#E1E18C"/>
<path d="M30.8494 17.1067L30.9494 17.24L30.8494 17.1067Z" fill="#EEEDC1"/>
<path d="M30.9497 17.1067L31.0497 17.24L30.9497 17.1067Z" fill="#F6F6E4"/>
<path d="M26.0795 17.24L26.1795 17.3733L26.0795 17.24Z" fill="#F2F1D7"/>
<path d="M26.1847 17.24L26.2847 17.3733L26.1847 17.24Z" fill="#F2F1D2"/>
<path d="M26.285 17.24L26.385 17.3733L26.285 17.24Z" fill="#EEEDC1"/>
<path d="M26.7601 17.2867L26.8251 17.3333L26.7601 17.2867Z" fill="#F2F1D2"/>
<path d="M26.8944 17.24L26.9944 17.3733L26.8944 17.24Z" fill="#FBFAF2"/>
<path d="M27.3994 17.24L27.5994 17.5067V17.24H27.3994Z" fill="#FEF8F1"/>
<path d="M29.6346 17.24L29.7346 17.3733L29.6346 17.24Z" fill="#F2F1D7"/>
<path d="M29.735 17.24L29.835 17.3733L29.735 17.24Z" fill="#F2F1D2"/>
<path d="M29.8395 17.24L29.9395 17.3733L29.8395 17.24Z" fill="#E5E3AF"/>
<path d="M30.0095 17.2867L30.0745 17.3333L30.0045 17.2867H30.0095Z" fill="#E5E59D"/>
<path d="M30.1447 17.24L30.2447 17.3733L30.1447 17.24Z" fill="#E0DEA1"/>
<path d="M30.3096 17.2867L30.3796 17.3333L30.3096 17.2867Z" fill="#F2F1D2"/>
<path d="M30.4447 17.24L30.5447 17.3733L30.4447 17.24Z" fill="#FBFAF2"/>
<path d="M27.1946 17.38L27.2946 17.5133L27.1946 17.38Z" fill="#FEF8F1"/>
<path d="M27.2999 17.38L27.3999 17.5133L27.2999 17.38Z" fill="#FBBE66"/>
<path d="M27.1946 17.5133L27.2946 17.6467L27.1946 17.5133Z" fill="#FBC477"/>
<path d="M27.3994 17.5133L27.4994 17.6467L27.3994 17.5133Z" fill="#FCB144"/>
<path d="M27.1946 17.6533L27.2946 17.7867L27.1946 17.6533Z" fill="#FE9F11"/>
<path d="M27.3994 17.6533L27.4994 17.7867L27.3994 17.6533Z" fill="#FEA522"/>
<path d="M27.0951 17.7867L27.1951 17.92L27.0951 17.7867ZM27.5051 17.7867L27.6051 17.92L27.5051 17.7867Z" fill="#FAE3C9"/>
<path d="M28.0096 17.7867L28.1096 17.92L28.0096 17.7867Z" fill="#FBEAD6"/>
<path d="M28.1149 17.7867L28.2149 17.92L28.1149 17.7867Z" fill="#F9D6AA"/>
<path d="M28.5195 17.7867L28.6195 17.92L28.5195 17.7867Z" fill="#FAE3C9"/>
<path d="M28.6199 17.7867L28.7199 17.92L28.6199 17.7867Z" fill="#FEF8F1"/>
<path d="M27.0951 17.92L27.1951 18.0533L27.0951 17.92Z" fill="#F9D099"/>
<path d="M27.4998 17.92L27.5998 18.0533L27.4998 17.92Z" fill="#FDAB33"/>
<path d="M27.6995 17.92L27.7995 18.0533L27.6995 17.92Z" fill="#FCF1E4"/>
<path d="M27.8098 17.92L27.9098 18.0533L27.8098 17.92Z" fill="#FBC477"/>
<path d="M27.9102 17.92L28.0102 18.0533L27.9102 17.92Z" fill="#FEA522"/>
<path d="M28.7202 17.92L28.8202 18.0533L28.7202 17.92Z" fill="#FCB755"/>
<path d="M28.8246 17.92L28.9246 18.0533L28.8246 17.92Z" fill="#F9D6AA"/>
<path d="M27.0951 18.06L27.1951 18.1933L27.0951 18.06Z" fill="#FACA88"/>
<path d="M27.6 18.06L27.7 18.1933L27.6 18.06ZM28.925 18.06L29.025 18.1933L28.925 18.06Z" fill="#FEA522"/>
<path d="M29.0244 18.06L29.1244 18.1933L29.0244 18.06Z" fill="#F8DCBB"/>
<path d="M24.9642 18.1934L25.0642 18.3267L24.9642 18.1934Z" fill="#F6F6E4"/>
<path d="M27.0951 18.1934L27.1951 18.3267L27.0951 18.1934Z" fill="#FBC477"/>
<path d="M29.1248 18.1934L29.2248 18.3267L29.1248 18.1934Z" fill="#FBBE66"/>
<path d="M29.2292 18.1934L29.3292 18.3267L29.2292 18.1934Z" fill="#F8DCBB"/>
<path d="M27.0951 18.3267L27.1951 18.46L27.0951 18.3267Z" fill="#FACA88"/>
<path d="M29.4299 18.3267L29.5299 18.46L29.4299 18.3267Z" fill="#FCB755"/>
<path d="M29.5344 18.3267L29.6344 18.46L29.5344 18.3267Z" fill="#F8DCBB"/>
<path d="M26.9948 18.4667L27.0948 18.6L26.9948 18.4667Z" fill="#FEF8F1"/>
<path d="M27.0951 18.4667L27.1951 18.6L27.0951 18.4667Z" fill="#FE9F11"/>
<path d="M29.9398 18.4667L30.0398 18.6L29.9398 18.4667Z" fill="#FDAB33"/>
<path d="M30.0452 18.4667L30.1452 18.6L30.0452 18.4667Z" fill="#FCB144"/>
<path d="M30.1447 18.4667L30.2447 18.6L30.1447 18.4667Z" fill="#FBC477"/>
<path d="M30.2449 18.4667L30.4449 18.7333L30.2449 18.4667Z" fill="#F9D6AA"/>
<path d="M30.3444 18.4667L30.4444 18.6L30.3444 18.4667Z" fill="#FEF8F1"/>
<path d="M26.9948 18.6L27.0948 18.7333L26.9948 18.6Z" fill="#FCB144"/>
<path d="M28.4142 18.6L28.5142 18.7333L28.4142 18.6Z" fill="#FDAB33"/>
<path d="M28.5195 18.6L28.6195 18.7333L28.5195 18.6ZM28.9195 18.6L29.0195 18.7333L28.9195 18.6Z" fill="#FBC477"/>
<path d="M29.0244 18.6L29.1244 18.7333L29.0244 18.6Z" fill="#FEA522"/>
<path d="M26.8944 18.7333L26.9944 18.8667L26.8944 18.7333Z" fill="#FAE3C9"/>
<path d="M28.2144 18.7333L28.3144 18.8667L28.2144 18.7333Z" fill="#FCB144"/>
<path d="M28.3147 18.7333L28.4147 18.8667L28.3147 18.7333Z" fill="#FAE3C9"/>
<path d="M29.1248 18.7333L29.2248 18.8667L29.1248 18.7333Z" fill="#F8DCBB"/>
<path d="M29.2292 18.7333L29.3292 18.8667L29.2292 18.7333Z" fill="#FDAB33"/>
<path d="M29.8395 18.7333L29.9395 18.8667L29.8395 18.7333Z" fill="#FE9F11"/>
<path d="M29.9398 18.7333L30.0398 18.8667L29.9398 18.7333Z" fill="#FCB755"/>
<path d="M30.0452 18.7333L30.1452 18.8667L30.0452 18.7333Z" fill="#F9D099"/>
<path d="M30.1447 18.7333L30.2447 18.8667L30.1447 18.7333Z" fill="#FBEAD6"/>
<path d="M26.8944 18.8667L26.9944 19L26.8944 18.8667Z" fill="#FCB144"/>
<path d="M28.1149 18.8667L28.2149 19L28.1149 18.8667Z" fill="#FBBE66"/>
<path d="M29.3296 18.8667L29.4296 19L29.3296 18.8667Z" fill="#F9D099"/>
<path d="M29.735 18.8667L29.835 19L29.735 18.8667Z" fill="#FBEAD6"/>
<path d="M26.7949 19L26.8949 19.1333L26.7949 19Z" fill="#FCF1E4"/>
<path d="M28.0096 19L28.1096 19.1333L28.0096 19Z" fill="#FBBE66"/>
<path d="M29.4299 19L29.5299 19.1333L29.4299 19Z" fill="#F9D099"/>
<path d="M29.735 19L29.835 19.1333L29.735 19Z" fill="#FAE3C9"/>
<path d="M26.7949 19.1333L26.8949 19.2667L26.7949 19.1333Z" fill="#FBC477"/>
<path d="M27.9102 19.1333L28.0102 19.2667L27.9102 19.1333ZM29.5352 19.1333L29.6352 19.2667L29.5352 19.1333Z" fill="#FCB144"/>
<path d="M29.735 19.1333L29.835 19.2667L29.735 19.1333Z" fill="#FBBE66"/>
<path d="M24.9642 19.2667L25.0642 19.4L24.9642 19.2667Z" fill="#F6F6E4"/>
<path d="M26.7949 19.2667L26.8949 19.4L26.7949 19.2667Z" fill="#FEA522"/>
<path d="M27.9102 19.2667L28.0102 19.4L27.9102 19.2667Z" fill="#FBEAD6"/>
<path d="M29.5344 19.2667L29.6344 19.4L29.5344 19.2667Z" fill="#FCF1E4"/>
<path d="M29.8395 19.2667L29.9395 19.4L29.8395 19.2667Z" fill="#FEF8F1"/>
<path d="M26.6946 19.4133L26.7946 19.5467L26.6946 19.4133Z" fill="#FCF1E4"/>
<path d="M27.8098 19.4133L27.9098 19.5467L27.8098 19.4133Z" fill="#FBBE66"/>
<path d="M29.6346 19.4133L29.7346 19.5467L29.6346 19.4133Z" fill="#FACA88"/>
<path d="M29.8395 19.4133L29.9395 19.5467L29.8395 19.4133Z" fill="#F9D099"/>
<path d="M26.6946 19.5467L26.7946 19.68L26.6946 19.5467Z" fill="#F9D6AA"/>
<path d="M27.8098 19.5467L27.9098 19.68L27.8098 19.5467Z" fill="#FCF1E4"/>
<path d="M28.3147 19.5467L28.4147 19.68L28.3147 19.5467Z" fill="#FAE3C9"/>
<path d="M28.4142 19.5467L28.5142 19.68L28.4142 19.5467Z" fill="#FEA522"/>
<path d="M28.5195 19.5467L28.6195 19.68L28.5195 19.5467Z" fill="#FCB144"/>
<path d="M28.6199 19.5467L28.7199 19.68L28.6199 19.5467Z" fill="#F9D6AA"/>
<path d="M29.6346 19.5467L29.7346 19.68L29.6346 19.5467Z" fill="#FEF8F1"/>
<path d="M29.735 19.5467L29.835 19.68L29.735 19.5467Z" fill="#FEA522"/>
<path d="M29.8395 19.5467L29.9395 19.68L29.8395 19.5467Z" fill="#FDAB33"/>
<path d="M26.6944 19.68L26.5894 20.08L26.6894 19.68H26.6944Z" fill="#FACA88"/>
<path d="M27.6995 19.68L27.7995 19.8133L27.6995 19.68Z" fill="#FEA522"/>
<path d="M27.8098 19.68L27.9098 19.8133L27.8098 19.68Z" fill="#FEF8F1"/>
<path d="M28.3147 19.68L28.4147 19.8133L28.3147 19.68Z" fill="#F9D099"/>
<path d="M28.7202 19.68L28.8202 19.8133L28.7202 19.68Z" fill="#FDAB33"/>
<path d="M28.8246 19.68L28.9246 19.8133L28.8246 19.68Z" fill="#FAE3C9"/>
<path d="M29.735 19.68L29.835 19.8133L29.735 19.68Z" fill="#F8DCBB"/>
<path d="M29.8395 19.68L29.9395 19.8133L29.8395 19.68Z" fill="#FF9900"/>
<path d="M29.9746 19.7733L30.0046 19.86L29.9746 19.7733Z" fill="#FBEAD6"/>
<path d="M27.9102 19.8133L28.0102 19.9467L27.9102 19.8133Z" fill="#FEA522"/>
<path d="M28.0096 19.8133L28.1096 19.9467L28.0096 19.8133Z" fill="#FBBE66"/>
<path d="M28.1149 19.8133L28.2149 19.9467L28.1149 19.8133Z" fill="#FACA88"/>
<path d="M28.2144 19.8133L28.3144 19.9467L28.2144 19.8133Z" fill="#FCB144"/>
<path d="M28.3147 19.8133L28.4147 19.9467L28.3147 19.8133Z" fill="#FAE3C9"/>
<path d="M28.4142 19.8133L28.5142 19.9467L28.4142 19.8133Z" fill="#FE9F11"/>
<path d="M28.9249 19.8133L29.0249 19.9467L28.9249 19.8133Z" fill="#FDAB33"/>
<path d="M29.0244 19.8133L29.1244 19.9467L29.0244 19.8133Z" fill="#FBC477"/>
<path d="M29.1248 19.8133L29.2248 19.9467L29.1248 19.8133Z" fill="#FACA88"/>
<path d="M29.2292 19.8133L29.3292 19.9467L29.2292 19.8133Z" fill="#F9D6AA"/>
<path d="M29.395 19.86L29.465 19.9067L29.4 19.86H29.395Z" fill="#FAE3C9"/>
<path d="M29.5344 19.8133L29.6344 19.9467L29.5344 19.8133Z" fill="#FEF8F1"/>
<path d="M29.8395 19.8133L29.9395 19.9467L29.8395 19.8133Z" fill="#FBC477"/>
<path d="M25.475 19.9533L25.575 20.0867L25.475 19.9533Z" fill="#FEF8F1"/>
<path d="M25.5745 19.9533L25.6745 20.0867L25.5745 19.9533Z" fill="#FCF1E4"/>
<path d="M28.2144 19.9533L28.3144 20.0867L28.2144 19.9533Z" fill="#FCB755"/>
<path d="M28.4142 19.9533L28.5142 20.0867L28.4142 19.9533Z" fill="#FBEAD6"/>
<path d="M28.5195 19.9533L28.6195 20.0867L28.5195 19.9533Z" fill="#FEA522"/>
<path d="M29.3296 19.9533L29.4296 20.0867L29.3296 19.9533Z" fill="#FE9F11"/>
<path d="M29.4296 19.9533L29.3296 20.22L29.4296 19.9533Z" fill="#FCB144"/>
<path d="M29.6346 19.9533L29.7346 20.0867L29.6346 19.9533Z" fill="#FE9F11"/>
<path d="M29.735 19.9533L29.835 20.0867L29.735 19.9533Z" fill="#FBBE66"/>
<path d="M29.8395 19.9533L29.9395 20.0867L29.8395 19.9533Z" fill="#FCF1E4"/>
<path d="M25.475 20.0867L25.575 20.22L25.475 20.0867Z" fill="#FAE3C9"/>
<path d="M25.5745 20.0867L25.7745 20.3533L25.5745 20.0867Z" fill="#FE9F11"/>
<path d="M25.6748 20.0867L25.7748 20.22L25.6748 20.0867ZM26.5898 20.0867L26.6898 20.22L26.5898 20.0867Z" fill="#FBEAD6"/>
<path d="M26.6946 20.0867L26.7946 20.22L26.6946 20.0867Z" fill="#FAE3C9"/>
<path d="M27.6 20.0867L27.7 20.22L27.6 20.0867Z" fill="#FE9F11"/>
<path d="M27.6995 20.0867L27.7995 20.22L27.6995 20.0867Z" fill="#FBC477"/>
<path d="M27.8098 20.0867L27.9098 20.22L27.8098 20.0867Z" fill="#FEA522"/>
<path d="M28.1149 20.0867L28.2149 20.22L28.1149 20.0867Z" fill="#FBC477"/>
<path d="M28.2144 20.0867L28.3144 20.22L28.2144 20.0867Z" fill="#FEF8F1"/>
<path d="M28.6199 20.0867L28.7199 20.22L28.6199 20.0867Z" fill="#FBC477"/>
<path d="M29.4299 20.0867L29.5299 20.22L29.4299 20.0867Z" fill="white"/>
<path d="M29.5344 20.0867L29.6344 20.22L29.5344 20.0867Z" fill="#FDAB33"/>
<path d="M29.9398 20.0867L30.0398 20.22L29.9398 20.0867Z" fill="#FBC477"/>
<path d="M25.475 20.22L25.575 20.3533L25.475 20.22Z" fill="#FEF8F1"/>
<path d="M25.7743 20.22L25.8743 20.3533L25.7743 20.22Z" fill="#FBEAD6"/>
<path d="M26.285 20.22L26.385 20.3533L26.285 20.22Z" fill="#F9D6AA"/>
<path d="M26.7949 20.22L26.8949 20.3533L26.7949 20.22Z" fill="#FE9F11"/>
<path d="M26.96 20.2667L27.03 20.3133L26.96 20.2667Z" fill="#F9D6AA"/>
<path d="M27.6 20.22L27.7 20.3533L27.6 20.22Z" fill="#F8DCBB"/>
<path d="M27.9102 20.22L28.0102 20.3533L27.9102 20.22Z" fill="#FCF1E4"/>
<path d="M28.7202 20.22L28.8202 20.3533L28.7202 20.22Z" fill="#F9D6AA"/>
<path d="M29.4299 20.22L29.5299 20.3533L29.4299 20.22Z" fill="#FDAB33"/>
<path d="M30.0452 20.22L30.1452 20.3533L30.0452 20.22Z" fill="#FCB755"/>
<path d="M30.1447 20.22L30.2447 20.3533L30.1447 20.22Z" fill="#FEF8F1"/>
<path d="M24.6599 20.36L24.7599 20.4933L24.6599 20.36Z" fill="#53527C"/>
<path d="M25.5745 20.36L25.6745 20.4933L25.5745 20.36Z" fill="#FCB755"/>
<path d="M25.7743 20.36L25.8743 20.4933L25.7743 20.36Z" fill="#FEA522"/>
<path d="M26.1847 20.36L26.2847 20.4933L26.1847 20.36Z" fill="#FBEAD6"/>
<path d="M26.3845 20.36L26.4845 20.4933L26.3845 20.36Z" fill="#FE9F11"/>
<path d="M26.4899 20.36L26.5899 20.4933L26.4899 20.36Z" fill="#FCF1E4"/>
<path d="M26.7949 20.36L26.8949 20.4933L26.7949 20.36Z" fill="#FBBE66"/>
<path d="M26.8944 20.36L26.9944 20.4933L26.8944 20.36Z" fill="#FBC477"/>
<path d="M26.9948 20.36L27.0948 20.4933L26.9948 20.36Z" fill="#FBBE66"/>
<path d="M27.4998 20.36L27.5998 20.4933L27.4998 20.36Z" fill="#FEA522"/>
<path d="M28.8246 20.36L28.9246 20.4933L28.8246 20.36Z" fill="#F9D6AA"/>
<path d="M30.1447 20.36L30.2447 20.4933L30.1447 20.36Z" fill="#FCB144"/>
<path d="M31.7646 20.36L31.8646 20.4933L31.7646 20.36Z" fill="#8D8D5B"/>
<path d="M24.9642 20.4933L25.0642 20.6267L24.9642 20.4933Z" fill="#E5E3AF"/>
<path d="M25.5745 20.4933L25.6745 20.6267L25.5745 20.4933Z" fill="#F8DCBB"/>
<path d="M25.8796 20.4933L25.9796 20.6267L25.8796 20.4933Z" fill="#FDAB33"/>
<path d="M26.1847 20.4933L26.2847 20.6267L26.1847 20.4933Z" fill="#FE9F11"/>
<path d="M26.3845 20.4933L26.4845 20.6267L26.3845 20.4933Z" fill="#FACA88"/>
<path d="M26.7949 20.4933L26.8949 20.6267L26.7949 20.4933Z" fill="#FCF1E4"/>
<path d="M27.4998 20.4933L27.5998 20.6267L27.4998 20.4933ZM28.9248 20.4933L29.0248 20.6267L28.9248 20.4933Z" fill="#F9D099"/>
<path d="M30.2449 20.4933L30.3449 20.6267L30.2449 20.4933Z" fill="#FBBE66"/>
<path d="M25.6748 20.6267L25.7748 20.76L25.6748 20.6267Z" fill="#FEA522"/>
<path d="M25.98 20.6267L26.08 20.76L25.98 20.6267Z" fill="#FDAB33"/>
<path d="M26.0795 20.6267L26.1795 20.76L26.0795 20.6267Z" fill="#FEA522"/>
<path d="M26.285 20.6267L26.385 20.76L26.285 20.6267Z" fill="#FE9F11"/>
<path d="M26.3845 20.6267L26.4845 20.76L26.3845 20.6267Z" fill="#FEF8F1"/>
<path d="M26.8944 20.6267L26.9944 20.76L26.8944 20.6267Z" fill="#FBBE66"/>
<path d="M27.4998 20.6267L27.5998 20.76L27.4998 20.6267Z" fill="#FEF8F1"/>
<path d="M29.0244 20.6267L29.1244 20.76L29.0244 20.6267Z" fill="#FBBE66"/>
<path d="M30.3444 20.6267L30.4444 20.76L30.3444 20.6267Z" fill="#F9D099"/>
<path d="M25.6748 20.7667L25.7748 20.9L25.6748 20.7667Z" fill="#F9D6AA"/>
<path d="M26.285 20.7667L26.385 20.9L26.285 20.7667Z" fill="#F9D099"/>
<path d="M26.8944 20.7667L26.9944 20.9L26.8944 20.7667Z" fill="#FCF1E4"/>
<path d="M27.3994 20.7667L27.4994 20.9L27.3994 20.7667ZM29.1244 20.7667L29.2244 20.9L29.1244 20.7667Z" fill="#FDAB33"/>
<path d="M30.4447 20.7667L30.5447 20.9L30.4447 20.7667Z" fill="#FBEAD6"/>
<path d="M25.7743 20.9L25.8743 21.0333L25.7743 20.9Z" fill="#FEA522"/>
<path d="M26.1847 20.9L26.2847 21.0333L26.1847 20.9Z" fill="#FE9F11"/>
<path d="M26.9948 20.9L27.0948 21.0333L26.9948 20.9Z" fill="#FCB144"/>
<path d="M27.3994 20.9L27.4994 21.0333L27.3994 20.9Z" fill="#FACA88"/>
<path d="M29.1248 20.9L29.2248 21.0333L29.1248 20.9Z" fill="#F8DCBB"/>
<path d="M30.4447 20.9L30.5447 21.0333L30.4447 20.9Z" fill="#FCB144"/>
<path d="M24.9642 21.04L25.0642 21.1733L24.9642 21.04Z" fill="#D3D079"/>
<path d="M25.7743 21.04L25.8743 21.1733L25.7743 21.04ZM26.9943 21.04L27.0943 21.1733L26.9943 21.04Z" fill="#FACA88"/>
<path d="M27.3994 21.04L27.4994 21.1733L27.3994 21.04M29.1244 21.04L29.2244 21.1733L29.1244 21.04Z" fill="#FAE3C9"/>
<path d="M30.545 21.04L30.645 21.1733L30.545 21.04V21.04Z" fill="#F8DCBB"/>
<path d="M31.4596 21.04L31.5596 21.1733L31.4596 21.04Z" fill="#F2F1D7"/>
<path d="M31.7996 21.1267L31.8346 21.2133L31.7996 21.1267Z" fill="#58587B"/>
<path d="M24.9949 21.26L25.0349 21.3533L24.9999 21.26H24.9949Z" fill="#D9D868"/>
<path d="M25.7743 21.1733L25.8743 21.3067L25.7743 21.1733Z" fill="#F8DCBB"/>
<path d="M29.0244 21.1733L29.1244 21.3067L29.0244 21.1733Z" fill="#F9D6AA"/>
<path d="M29.1248 21.1733L29.2248 21.3067L29.1248 21.1733Z" fill="#FE9F11"/>
<path d="M30.545 21.1733L30.645 21.3067L30.545 21.1733Z" fill="#FCB144"/>
<path d="M31.4944 21.26L31.5294 21.3533L31.4944 21.26Z" fill="#F2F1D2"/>
<path d="M25.7743 21.3067L25.8743 21.44L25.7743 21.3067Z" fill="#FCF1E4"/>
<path d="M28.9249 21.3067L29.0249 21.44L28.9249 21.3067Z" fill="#FEF8F1"/>
<path d="M29.0244 21.3067L29.1244 21.44L29.0244 21.3067Z" fill="#FE9F11"/>
<path d="M29.3292 21.3067L29.2292 21.5733L29.3292 21.3067Z" fill="#FDAB33"/>
<path d="M29.4299 21.3067L29.5299 21.44L29.4299 21.3067Z" fill="#FCB755"/>
<path d="M30.6495 21.3067L30.7495 21.44L30.6495 21.3067Z" fill="#FEA522"/>
<path d="M30.7499 21.3067L30.8499 21.44L30.7499 21.3067Z" fill="#F9D099"/>
<path d="M31.7646 21.3067L31.8646 21.44L31.7646 21.3067Z" fill="#53527C"/>
<path d="M24.7952 21.5333L24.8302 21.62L24.7952 21.5333Z" fill="#808067"/>
<path d="M25.8796 21.44L25.9796 21.5733L25.8796 21.44ZM26.1796 21.44L26.2796 21.5733L26.1796 21.44Z" fill="#FEA522"/>
<path d="M27.2999 21.44L27.3999 21.5733L27.2999 21.44Z" fill="#FE9F11"/>
<path d="M28.9249 21.44L29.0249 21.5733L28.9249 21.44Z" fill="#FAE3C9"/>
<path d="M29.3296 21.44L29.4296 21.5733L29.3296 21.44Z" fill="#FEF8F1"/>
<path d="M29.5344 21.44L29.6344 21.5733L29.5344 21.44Z" fill="#FCB144"/>
<path d="M30.8494 21.44L30.9494 21.5733L30.8494 21.44Z" fill="#FCB755"/>
<path d="M30.9497 21.44L31.1497 21.7067L30.9497 21.44Z" fill="#FEF8F1"/>
<path d="M31.4944 21.5333L31.5294 21.62L31.4944 21.5333Z" fill="#E5E59D"/>
<path d="M31.7996 21.5333L31.8346 21.62L31.7996 21.5333Z" fill="#32327B"/>
<path d="M25.9144 21.6667L25.9444 21.76L25.9144 21.6667Z" fill="#FCB755"/>
<path d="M26.285 21.5733L26.385 21.7067L26.285 21.5733Z" fill="#FEF8F1"/>
<path d="M27.2999 21.5733L27.3999 21.7067L27.2999 21.5733Z" fill="#FBBE66"/>
<path d="M28.9249 21.5733L29.0249 21.7067L28.9249 21.5733Z" fill="#FBEAD6"/>
<path d="M29.1248 21.5733L29.2248 21.7067L29.1248 21.5733Z" fill="#FE9F11"/>
<path d="M29.2292 21.5733L29.3292 21.7067L29.2292 21.5733Z" fill="#FCF1E4"/>
<path d="M29.5344 21.5733L29.6344 21.7067L29.5344 21.5733Z" fill="#FBEAD6"/>
<path d="M30.9497 21.5733L31.0497 21.7067L30.9497 21.5733Z" fill="#FDAB33"/>
<path d="M24.7644 21.7066L24.8644 21.84L24.7644 21.7066Z" fill="#666677"/>
<path d="M25.0646 21.7066L25.1646 21.84L25.0646 21.7066Z" fill="#F6F6E4"/>
<path d="M26.285 21.7066L26.385 21.84L26.285 21.7066Z" fill="#F9D6AA"/>
<path d="M27.0951 21.7066L27.1951 21.84L27.0951 21.7066Z" fill="#FDAB33"/>
<path d="M27.1946 21.7066L27.2946 21.84L27.1946 21.7066Z" fill="#FE9F11"/>
<path d="M27.2999 21.7066L27.3999 21.84L27.2999 21.7066Z" fill="#FCF1E4"/>
<path d="M29.0244 21.7066L29.1244 21.84L29.0244 21.7066Z" fill="#FEA522"/>
<path d="M29.1248 21.7066L29.2248 21.84L29.1248 21.7066ZM29.6348 21.7066L29.7348 21.84L29.6348 21.7066Z" fill="#FACA88"/>
<path d="M31.05 21.7066L31.15 21.84L31.05 21.7066Z" fill="#FCB144"/>
<path d="M31.4596 21.7066L31.5596 21.84L31.4596 21.7066Z" fill="#DDDC7A"/>
<path d="M24.7644 21.8467L24.8644 21.98L24.7644 21.8467Z" fill="#58587B"/>
<path d="M25.0646 21.8467L25.1646 21.98L25.0646 21.8467Z" fill="#F2F1D2"/>
<path d="M25.9144 21.9333L25.9444 22.0267L25.9144 21.9333Z" fill="#FCB144"/>
<path d="M26.285 21.8467L26.385 21.98L26.285 21.8467Z" fill="#FEA522"/>
<path d="M27.2999 21.8467L27.3999 21.98L27.2999 21.8467Z" fill="#FEF8F1"/>
<path d="M27.3994 21.8467L27.4994 21.98L27.3994 21.8467Z" fill="#FEA522"/>
<path d="M27.6 21.8467L27.7 21.98L27.6 21.8467Z" fill="#FCB144"/>
<path d="M27.6995 21.8467L27.7995 21.98L27.6995 21.8467Z" fill="#FBEAD6"/>
<path d="M29.0244 21.8467L29.1244 21.98L29.0244 21.8467Z" fill="#F8DCBB"/>
<path d="M29.1248 21.8467L29.2248 21.98L29.1248 21.8467Z" fill="#FCF1E4"/>
<path d="M29.6346 21.8467L29.7346 21.98L29.6346 21.8467Z" fill="#FEF8F1"/>
<path d="M29.735 21.8467L29.835 21.98L29.735 21.8467Z" fill="#FE9F11"/>
<path d="M31.1594 21.8467L31.2594 21.98L31.1594 21.8467Z" fill="#FBEAD6"/>
<path d="M31.4596 21.8467L31.5596 21.98L31.4596 21.8467Z" fill="#D9D868"/>
<path d="M24.7644 21.98L24.8644 22.1133L24.7644 21.98Z" fill="#3A3A7C"/>
<path d="M25.0646 21.98L25.1646 22.1133L25.0646 21.98Z" fill="#E5E3AF"/>
<path d="M26.3845 21.98L26.4845 22.1133L26.3845 21.98Z" fill="#FACA88"/>
<path d="M27.3994 21.98L27.4994 22.1133L27.3994 21.98Z" fill="#FBEAD6"/>
<path d="M27.6995 21.98L27.7995 22.1133L27.6995 21.98Z" fill="#FE9F11"/>
<path d="M27.8098 21.98L27.9098 22.1133L27.8098 21.98Z" fill="#FCF1E4"/>
<path d="M28.9249 21.98L29.0249 22.1133L28.9249 21.98Z" fill="#FBEAD6"/>
<path d="M29.0244 21.98L29.1244 22.1133L29.0244 21.98Z" fill="#FAE3C9"/>
<path d="M29.1248 21.98L29.2248 22.1133L29.1248 21.98Z" fill="#FBEAD6"/>
<path d="M29.735 21.98L29.835 22.1133L29.735 21.98ZM30.55 21.98L30.65 22.1133L30.55 21.98Z" fill="#FBBE66"/>
<path d="M30.6495 21.98L30.7495 22.1133L30.6495 21.98Z" fill="#FCF1E4"/>
<path d="M30.7499 21.98L30.8499 22.1133L30.7499 21.98Z" fill="#FEF8F1"/>
<path d="M30.8494 21.98L30.9494 22.1133L30.8494 21.98Z" fill="#F8DCBB"/>
<path d="M30.9497 21.98L31.0497 22.1133L30.9497 21.98Z" fill="#FCB755"/>
<path d="M31.1594 21.98L31.2594 22.1133L31.1594 21.98Z" fill="#FAE3C9"/>
<path d="M31.6644 21.98L31.7644 22.1133L31.6644 21.98Z" fill="#808067"/>
<path d="M24.7644 22.12L24.8644 22.2533L24.7644 22.12Z" fill="#32327B"/>
<path d="M24.8947 22.2L24.9297 22.3L24.8997 22.2067L24.8947 22.2Z" fill="#A4A43D"/>
<path d="M25.0646 22.12L25.1646 22.2533L25.0646 22.12Z" fill="#E5E59D"/>
<path d="M25.8796 22.12L25.9796 22.2533L25.8796 22.12Z" fill="#FBC477"/>
<path d="M26.4899 22.12L26.5899 22.2533L26.4899 22.12Z" fill="#F9D6AA"/>
<path d="M27.4998 22.12L27.5998 22.2533L27.4998 22.12Z" fill="#FBBE66"/>
<path d="M27.8098 22.12L27.9098 22.2533L27.8098 22.12Z" fill="#F9D099"/>
<path d="M28.7202 22.12L28.8202 22.2533L28.7202 22.12Z" fill="#FAE3C9"/>
<path d="M28.8246 22.12L28.9246 22.2533L28.8246 22.12Z" fill="#FCB144"/>
<path d="M29.2292 22.12L29.3292 22.2533L29.2292 22.12Z" fill="#FAE3C9"/>
<path d="M29.735 22.12L29.835 22.2533L29.735 22.12Z" fill="#F8DCBB"/>
<path d="M30.545 22.12L30.645 22.2533L30.545 22.12Z" fill="#F9D099"/>
<path d="M31.05 22.12L31.15 22.2533L31.05 22.12Z" fill="#FBC477"/>
<path d="M31.1594 22.12L31.2594 22.2533L31.1594 22.12Z" fill="#FBEAD6"/>
<path d="M31.6644 22.12L31.7644 22.2533L31.6644 22.12Z" fill="#737370"/>
<path d="M25.0646 22.2533L25.1646 22.3867L25.0646 22.2533Z" fill="#D9D868"/>
<path d="M25.8796 22.2533L25.9796 22.3867L25.8796 22.2533Z" fill="#F9D099"/>
<path d="M26.5894 22.2533L26.6894 22.3867L26.5894 22.2533ZM27.5044 22.2533L27.6044 22.3867L27.5044 22.2533Z" fill="#F9D6AA"/>
<path d="M27.8098 22.2533L27.9098 22.3867L27.8098 22.2533Z" fill="#FBC477"/>
<path d="M28.3147 22.2533L28.4147 22.3867L28.3147 22.2533Z" fill="#FEF8F1"/>
<path d="M28.4142 22.2533L28.5142 22.3867L28.4142 22.2533Z" fill="#F8DCBB"/>
<path d="M28.5195 22.2533L28.6195 22.3867L28.5195 22.2533Z" fill="#FBC477"/>
<path d="M28.6199 22.2533L28.7199 22.3867L28.6199 22.2533Z" fill="#FEA522"/>
<path d="M29.2292 22.2533L29.3292 22.3867L29.2292 22.2533Z" fill="#FBEAD6"/>
<path d="M31.3601 22.2533L31.4601 22.3867L31.3601 22.2533Z" fill="#F2F1D2"/>
<path d="M31.6644 22.2533L31.7644 22.3867L31.6644 22.2533Z" fill="#58587B"/>
<path d="M24.8647 22.3867L24.9647 22.52L24.8647 22.3867Z" fill="#99994E"/>
<path d="M25.0646 22.3867L25.1646 22.52L25.0646 22.3867Z" fill="#D0D045"/>
<path d="M26.6946 22.3867L26.7946 22.52L26.6946 22.3867Z" fill="#FCB144"/>
<path d="M26.7949 22.3867L26.8949 22.52L26.7949 22.3867Z" fill="#FAE3C9"/>
<path d="M27.4998 22.3867L27.5998 22.52L27.4998 22.3867Z" fill="#FEF8F1"/>
<path d="M27.9102 22.3867L28.0102 22.52L27.9102 22.3867Z" fill="#FCB755"/>
<path d="M28.0096 22.3867L28.1096 22.52L28.0096 22.3867Z" fill="#FBC477"/>
<path d="M28.1149 22.3867L28.2149 22.52L28.1149 22.3867Z" fill="#FCB144"/>
<path d="M28.2144 22.3867L28.3144 22.52L28.2144 22.3867Z" fill="#FEA522"/>
<path d="M29.0244 22.3867L29.1244 22.52L29.0244 22.3867Z" fill="#FE9F11"/>
<path d="M29.1248 22.3867L29.2248 22.52L29.1248 22.3867Z" fill="#F9D6AA"/>
<path d="M30.545 22.3867L30.645 22.52L30.545 22.3867Z" fill="#FEF8F1"/>
<path d="M31.3601 22.3867L31.4601 22.52L31.3601 22.3867Z" fill="#E0DEA1"/>
<path d="M31.6644 22.3867L31.7644 22.52L31.6644 22.3867Z" fill="#3A3A7C"/>
<path d="M24.8647 22.5267L24.9647 22.66L24.8647 22.5267Z" fill="#737370"/>
<path d="M25.1699 22.5267L25.2699 22.66L25.1699 22.5267Z" fill="#FBFAF2"/>
<path d="M25.98 22.5267L26.08 22.66L25.98 22.5267Z" fill="#FEA522"/>
<path d="M26.8944 22.5267L26.9944 22.66L26.8944 22.5267Z" fill="#FE9F11"/>
<path d="M26.9948 22.5267L27.0948 22.66L26.9948 22.5267Z" fill="#FCB144"/>
<path d="M27.0951 22.5267L27.1951 22.66L27.0951 22.5267Z" fill="#FBC477"/>
<path d="M27.1946 22.5267L27.2946 22.66L27.1946 22.5267Z" fill="#FACA88"/>
<path d="M27.2999 22.5267L27.3999 22.66L27.2999 22.5267Z" fill="#FBC477"/>
<path d="M27.3994 22.5267L27.4994 22.66L27.3994 22.5267Z" fill="#FCB144"/>
<path d="M27.4998 22.5267L27.5998 22.66L27.4998 22.5267Z" fill="#FDAB33"/>
<path d="M28.9249 22.5267L29.0249 22.66L28.9249 22.5267Z" fill="#FBC477"/>
<path d="M29.0244 22.5267L29.1244 22.66L29.0244 22.5267Z" fill="#FEF8F1"/>
<path d="M30.4447 22.5267L30.5447 22.66L30.4447 22.5267Z" fill="#FDAB33"/>
<path d="M31.3601 22.5267L31.4601 22.66L31.3601 22.5267Z" fill="#E1E18C"/>
<path d="M31.5947 22.6133L31.6297 22.7067L31.5947 22.6133Z" fill="#A4A43D"/>
<path d="M31.6644 22.5267L31.7644 22.66L31.6644 22.5267Z" fill="#262678"/>
<path d="M24.8647 22.66L24.9647 22.7934L24.8647 22.66Z" fill="#58587B"/>
<path d="M25.1699 22.66L25.2699 22.7934L25.1699 22.66Z" fill="#F2F1D2"/>
<path d="M25.98 22.66L26.08 22.7934L25.98 22.66Z" fill="#FACA88"/>
<path d="M28.7202 22.66L28.8202 22.7934L28.7202 22.66Z" fill="#FE9F11"/>
<path d="M28.8246 22.66L28.9246 22.7934L28.8246 22.66Z" fill="#FBEAD6"/>
<path d="M29.735 22.66L29.835 22.7934L29.735 22.66Z" fill="#FBC477"/>
<path d="M30.4447 22.66L30.5447 22.7934L30.4447 22.66Z" fill="#FACA88"/>
<path d="M31.3601 22.66L31.4601 22.7934L31.3601 22.66Z" fill="#D4D456"/>
<path d="M24.8647 22.7934L24.9647 22.9267L24.8647 22.7934Z" fill="#32327B"/>
<path d="M25.1699 22.7934L25.2699 22.9267L25.1699 22.7934Z" fill="#E5E59D"/>
<path d="M25.98 22.7934L26.08 22.9267L25.98 22.7934Z" fill="#FEF8F1"/>
<path d="M26.0795 22.7934L26.1795 22.9267L26.0795 22.7934Z" fill="#FE9F11"/>
<path d="M28.7202 22.7934L28.8202 22.9267L28.7202 22.7934Z" fill="#FBEAD6"/>
<path d="M29.735 22.7934L29.835 22.9267L29.735 22.7934Z" fill="#FEA522"/>
<path d="M30.4447 22.7934L30.5447 22.9267L30.4447 22.7934Z" fill="#FCF1E4"/>
<path d="M31.5649 22.7934L31.6649 22.9267L31.5649 22.7934Z" fill="#808067"/>
<path d="M24.8647 22.9267L24.9647 23.06L24.8647 22.9267Z" fill="#0E0E6E"/>
<path d="M24.9642 22.9267L25.0642 23.06L24.9642 22.9267Z" fill="#A4A43D"/>
<path d="M25.1699 22.9267L25.2699 23.06L25.1699 22.9267Z" fill="#D9D868"/>
<path d="M26.0795 22.9267L26.1795 23.06L26.0795 22.9267Z" fill="#F8DCBB"/>
<path d="M29.6346 22.9267L29.7346 23.06L29.6346 22.9267Z" fill="#F9D6AA"/>
<path d="M30.3444 22.9267L30.4444 23.06L30.3444 22.9267Z" fill="#FACA88"/>
<path d="M31.2598 22.9267L31.3598 23.06L31.2598 22.9267Z" fill="#F2F1D2"/>
<path d="M31.5649 22.9267L31.6649 23.06L31.5649 22.9267Z" fill="#58587B"/>
<path d="M24.9642 23.0667L25.0642 23.2L24.9642 23.0667Z" fill="#8D8D5B"/>
<path d="M26.1847 23.0667L26.2847 23.2L26.1847 23.0667Z" fill="#F9D6AA"/>
<path d="M28.2144 23.0667L28.3144 23.2L28.2144 23.0667Z" fill="#FDAB33"/>
<path d="M28.3147 23.0667L28.4147 23.2L28.3147 23.0667Z" fill="white"/>
<path d="M28.4847 23.1067L28.5547 23.1533L28.4847 23.1067Z" fill="#FCB144"/>
<path d="M29.5348 23.0667L29.4348 23.3333L29.5348 23.0667Z" fill="#FEF8F1"/>
<path d="M29.6346 23.0667L29.7346 23.2L29.6346 23.0667Z" fill="#FE9F11"/>
<path d="M30.2447 23.0667L30.1447 23.3333L30.2447 23.0667Z" fill="#FDAB33"/>
<path d="M31.2598 23.0667L31.3598 23.2L31.2598 23.0667Z" fill="#E5E59D"/>
<path d="M31.5649 23.0667L31.6649 23.2L31.5649 23.0667Z" fill="#3A3A7C"/>
<path d="M24.9642 23.2L25.0642 23.3333L24.9642 23.2Z" fill="#666677"/>
<path d="M25.2701 23.2L25.3701 23.3333L25.2701 23.2Z" fill="#F2F1D2"/>
<path d="M26.285 23.2L26.385 23.3333L26.285 23.2Z" fill="#F9D6AA"/>
<path d="M28.2144 23.2L28.3144 23.3333L28.2144 23.2Z" fill="#FE9F11"/>
<path d="M28.3147 23.2L28.4147 23.3333L28.3147 23.2Z" fill="#FACA88"/>
<path d="M28.4142 23.2L28.5142 23.3333L28.4142 23.2Z" fill="#FEA522"/>
<path d="M28.5195 23.2L28.6195 23.3333L28.5195 23.2Z" fill="#FCF1E4"/>
<path d="M29.5344 23.2L29.6344 23.3333L29.5344 23.2Z" fill="#FDAB33"/>
<path d="M30.2449 23.2L30.3449 23.3333L30.2449 23.2Z" fill="#FEF8F1"/>
<path d="M31.2598 23.2L31.3598 23.3333L31.2598 23.2Z" fill="#D9D868"/>
<path d="M31.4596 23.2L31.5596 23.3333L31.4596 23.2Z" fill="#A4A43D"/>
<path d="M31.5649 23.2L31.6649 23.3333L31.5649 23.2Z" fill="#0E0E6E"/>
<path d="M24.9642 23.3333L25.0642 23.4667L24.9642 23.3333Z" fill="#3A3A7C"/>
<path d="M25.2701 23.3333L25.3701 23.4667L25.2701 23.3333Z" fill="#E5E59D"/>
<path d="M26.3845 23.3333L26.5845 23.6L26.3845 23.3333Z" fill="#FAE3C9"/>
<path d="M26.4899 23.3333L26.5899 23.4667L26.4899 23.3333Z" fill="#FE9F11"/>
<path d="M28.4142 23.3333L28.5142 23.4667L28.4142 23.3333Z" fill="#F8DCBB"/>
<path d="M29.3296 23.3333L29.4296 23.4667L29.3296 23.3333Z" fill="#FCF1E4"/>
<path d="M29.4299 23.3333L29.5299 23.4667L29.4299 23.3333Z" fill="#FDAB33"/>
<path d="M30.0452 23.3333L30.1452 23.4667L30.0452 23.3333Z" fill="#FCB144"/>
<path d="M30.1447 23.3333L30.2447 23.4667L30.1447 23.3333Z" fill="#FEF8F1"/>
<path d="M31.1594 23.3333L31.2594 23.4667L31.1594 23.3333Z" fill="#FBFAF2"/>
<path d="M31.4596 23.3333L31.5596 23.4667L31.4596 23.3333Z" fill="#8D8D5B"/>
<path d="M24.9642 23.4667L25.0642 23.6L24.9642 23.4667Z" fill="#0E0E6E"/>
<path d="M25.0646 23.4667L25.1646 23.6L25.0646 23.4667Z" fill="#A4A43D"/>
<path d="M25.2701 23.4667L25.3701 23.6L25.2701 23.4667Z" fill="#D4D456"/>
<path d="M28.3147 23.4667L28.4147 23.6L28.3147 23.4667Z" fill="#F9D6AA"/>
<path d="M29.2292 23.4667L29.3292 23.6L29.2292 23.4667Z" fill="#F9D099"/>
<path d="M29.3296 23.4667L29.4296 23.6L29.3296 23.4667Z" fill="#FE9F11"/>
<path d="M29.9398 23.4667L30.0398 23.6L29.9398 23.4667Z" fill="#FACA88"/>
<path d="M31.1594 23.4667L31.2594 23.6L31.1594 23.4667Z" fill="#EEEDC1"/>
<path d="M31.4596 23.4667L31.5596 23.6L31.4596 23.4667Z" fill="#58587B"/>
<path d="M25.0646 23.6L25.1646 23.7333L25.0646 23.6Z" fill="#737370"/>
<path d="M25.3696 23.6L25.4696 23.7333L25.3696 23.6Z" fill="#F6F6E4"/>
<path d="M26.4899 23.6L26.5899 23.7333L26.4899 23.6Z" fill="#FBBE66"/>
<path d="M28.1149 23.6L28.2149 23.7333L28.1149 23.6Z" fill="#FCB144"/>
<path d="M28.2451 23.7L28.2801 23.7867L28.2451 23.7Z" fill="#F8DCBB"/>
<path d="M29.0244 23.6L29.1244 23.7333L29.0244 23.6Z" fill="#FBBE66"/>
<path d="M29.1248 23.6L29.2248 23.7333L29.1248 23.6Z" fill="#FE9F11"/>
<path d="M29.735 23.6L29.835 23.7333L29.735 23.6Z" fill="#FBC477"/>
<path d="M29.8395 23.6L29.9395 23.7333L29.8395 23.6Z" fill="#FCF1E4"/>
<path d="M31.1594 23.6L31.2594 23.7333L31.1594 23.6Z" fill="#D3D079"/>
<path d="M31.3601 23.6L31.4601 23.7333L31.3601 23.6Z" fill="#A4A43D"/>
<path d="M31.4596 23.6L31.5596 23.7333L31.4596 23.6Z" fill="#262678"/>
<path d="M25.0646 23.7333L25.1646 23.8667L25.0646 23.7333Z" fill="#49497D"/>
<path d="M25.3696 23.7333L25.4696 23.8667L25.3696 23.7333Z" fill="#E0DEA1"/>
<path d="M26.3845 23.7333L26.4845 23.8667L26.3845 23.7333Z" fill="#FAE3C9"/>
<path d="M27.8098 23.7333L27.9098 23.8667L27.8098 23.7333Z" fill="#FDAB33"/>
<path d="M27.9102 23.7333L28.0102 23.8667L27.9102 23.7333Z" fill="#FBC477"/>
<path d="M28.0096 23.7333L28.1096 23.8667L28.0096 23.7333Z" fill="#FBEAD6"/>
<path d="M28.3147 23.7333L28.4147 23.8667L28.3147 23.7333Z" fill="#FCB144"/>
<path d="M29.6346 23.7333L29.7346 23.8667L29.6346 23.7333Z" fill="#F9D6AA"/>
<path d="M31.3601 23.7333L31.4601 23.8667L31.3601 23.7333Z" fill="#99994E"/>
<path d="M25.0646 23.88L25.1646 24.0134L25.0646 23.88Z" fill="#0E0E6E"/>
<path d="M25.1699 23.88L25.2699 24.0134L25.1699 23.88Z" fill="#A4A43D"/>
<path d="M25.3696 23.88L25.4696 24.0134L25.3696 23.88Z" fill="#D4D456"/>
<path d="M26.285 23.88L26.385 24.0134L26.285 23.88Z" fill="#F9D099"/>
<path d="M26.3845 23.88L26.4845 24.0134L26.3845 23.88ZM26.8945 23.88L26.9945 24.0134L26.8945 23.88Z" fill="#FE9F11"/>
<path d="M26.9948 23.88L27.0948 24.0134L26.9948 23.88Z" fill="#F9D6AA"/>
<path d="M27.0951 23.88L27.1951 24.0134L27.0951 23.88Z" fill="#F9D099"/>
<path d="M27.4998 23.88L27.5998 24.0134L27.4998 23.88Z" fill="#F9D6AA"/>
<path d="M27.6 23.88L27.7 24.0134L27.6 23.88Z" fill="#FAE3C9"/>
<path d="M27.6995 23.88L27.7995 24.0134L27.6995 23.88Z" fill="#FEF8F1"/>
<path d="M28.5195 23.88L28.6195 24.0134L28.5195 23.88Z" fill="#FBEAD6"/>
<path d="M28.6199 23.88L28.7199 24.0134L28.6199 23.88Z" fill="#FAE3C9"/>
<path d="M28.7202 23.88L28.8202 24.0134L28.7202 23.88Z" fill="#FACA88"/>
<path d="M28.8246 23.88L28.9246 24.0134L28.8246 23.88Z" fill="#FBC477"/>
<path d="M28.9249 23.88L29.0249 24.0134L28.9249 23.88Z" fill="#FDAB33"/>
<path d="M29.4299 23.88L29.5299 24.0134L29.4299 23.88Z" fill="#FE9F11"/>
<path d="M29.5344 23.88L29.6344 24.0134L29.5344 23.88Z" fill="#F9D6AA"/>
<path d="M31.05 23.88L31.15 24.0134L31.05 23.88Z" fill="#E5E3AF"/>
<path d="M31.3601 23.88L31.4601 24.0134L31.3601 23.88Z" fill="#666677"/>
<path d="M25.1699 24.0134L25.2699 24.1467L25.1699 24.0134Z" fill="#737370"/>
<path d="M25.475 24.0134L25.575 24.1467L25.475 24.0134Z" fill="#F2F1D7"/>
<path d="M26.1847 24.0134L26.2847 24.1467L26.1847 24.0134Z" fill="#FEA522"/>
<path d="M26.6946 24.0134L26.7946 24.1467L26.6946 24.0134Z" fill="#FE9F11"/>
<path d="M26.7949 24.0134L26.8949 24.1467L26.7949 24.0134Z" fill="#FBBE66"/>
<path d="M26.8944 24.0134L26.9944 24.1467L26.8944 24.0134Z" fill="#FCF1E4"/>
<path d="M29.3296 24.0134L29.4296 24.1467L29.3296 24.0134Z" fill="#FEA522"/>
<path d="M29.4299 24.0134L29.5299 24.1467L29.4299 24.0134Z" fill="#FBEAD6"/>
<path d="M31.05 24.0134L31.15 24.1467L31.05 24.0134Z" fill="#DDDC7A"/>
<path d="M31.2598 24.0134L31.3598 24.1467L31.2598 24.0134Z" fill="#A4A43D"/>
<path d="M31.3601 24.0134L31.4601 24.1467L31.3601 24.0134Z" fill="#262678"/>
<path d="M25.1699 24.1467L25.2699 24.28L25.1699 24.1467Z" fill="#49497D"/>
<path d="M25.3 24.24L25.34 24.3267L25.3 24.24Z" fill="#A4A43D"/>
<path d="M25.475 24.1467L25.575 24.28L25.475 24.1467Z" fill="#D3D079"/>
<path d="M26.285 24.1467L26.385 24.28L26.285 24.1467Z" fill="#F9D099"/>
<path d="M26.3845 24.1467L26.4845 24.28L26.3845 24.1467Z" fill="#FCB144"/>
<path d="M26.4899 24.1467L26.5899 24.28L26.4899 24.1467Z" fill="#FACA88"/>
<path d="M26.5894 24.1467L26.6894 24.28L26.5894 24.1467Z" fill="#F8DCBB"/>
<path d="M26.6946 24.1467L26.7946 24.28L26.6946 24.1467Z" fill="#FEF8F1"/>
<path d="M28.9249 24.1467L29.0249 24.28L28.9249 24.1467Z" fill="#F8DCBB"/>
<path d="M29.3296 24.1467L29.4296 24.28L29.3296 24.1467Z" fill="#FCF1E4"/>
<path d="M30.9497 24.1467L31.0497 24.28L30.9497 24.1467Z" fill="#F6F6E4"/>
<path d="M31.2598 24.1467L31.3598 24.28L31.2598 24.1467Z" fill="#8D8D5B"/>
<path d="M25.5745 24.28L25.6745 24.4133L25.5745 24.28Z" fill="#FBFAF2"/>
<path d="M28.9249 24.28L29.0249 24.4133L28.9249 24.28Z" fill="#FBBE66"/>
<path d="M29.2292 24.28L29.3292 24.4133L29.2292 24.28Z" fill="#FACA88"/>
<path d="M30.9497 24.28L31.0497 24.4133L30.9497 24.28Z" fill="#E1E18C"/>
<path d="M31.2598 24.28L31.3598 24.4133L31.2598 24.28Z" fill="#49497D"/>
<path d="M25.2701 24.42L25.3701 24.5533L25.2701 24.42Z" fill="#58587B"/>
<path d="M25.5745 24.42L25.6745 24.5533L25.5745 24.42Z" fill="#E5E59D"/>
<path d="M28.9249 24.42L29.0249 24.5533L28.9249 24.42Z" fill="#FE9F11"/>
<path d="M29.1248 24.42L29.2248 24.5533L29.1248 24.42Z" fill="#FDAB33"/>
<path d="M30.8494 24.42L30.9494 24.5533L30.8494 24.42Z" fill="#FBFAF2"/>
<path d="M31.1594 24.42L31.2594 24.5533L31.1594 24.42Z" fill="#A4A43D"/>
<path d="M31.2598 24.42L31.3598 24.5533L31.2598 24.42Z" fill="#0E0E6E"/>
<path d="M25.2701 24.5533L25.3701 24.6867L25.2701 24.5533Z" fill="#1B1B74"/>
<path d="M25.3696 24.5533L25.4696 24.6867L25.3696 24.5533Z" fill="#A4A43D"/>
<path d="M25.5745 24.5533L25.6745 24.6867L25.5745 24.5533Z" fill="#D0D045"/>
<path d="M28.8246 24.5533L28.9246 24.6867L28.8246 24.5533Z" fill="#FBEAD6"/>
<path d="M29.0244 24.5533L29.1244 24.6867L29.0244 24.5533Z" fill="#FE9F11"/>
<path d="M29.1248 24.5533L29.2248 24.6867L29.1248 24.5533Z" fill="#FBEAD6"/>
<path d="M30.8494 24.5533L30.9494 24.6867L30.8494 24.5533Z" fill="#E5E59D"/>
<path d="M31.1594 24.5533L31.2594 24.6867L31.1594 24.5533Z" fill="#666677"/>
<path d="M25.3696 24.6867L25.4696 24.82L25.3696 24.6867Z" fill="#6E6C70"/>
<path d="M25.6748 24.6867L25.7748 24.82L25.6748 24.6867Z" fill="#E5E3AF"/>
<path d="M28.8495 24.78L28.8895 24.8733L28.8495 24.78Z" fill="#FACA88"/>
<path d="M29.0244 24.6867L29.1244 24.82L29.0244 24.6867Z" fill="#FAE3C9"/>
<path d="M30.7499 24.6867L30.8499 24.82L30.7499 24.6867Z" fill="#FBFAF2"/>
<path d="M31.05 24.6867L31.15 24.82L31.05 24.6867Z" fill="#A4A43D"/>
<path d="M31.1596 24.6867L31.2596 24.82L31.1596 24.6867ZM25.3696 24.82L25.4696 24.9533L25.3696 24.82Z" fill="#1B1B74"/>
<path d="M25.475 24.8267L25.575 24.96L25.475 24.8267Z" fill="#A4A43D"/>
<path d="M25.6748 24.8267L25.7748 24.96L25.6748 24.8267Z" fill="#D0D045"/>
<path d="M25.7743 24.8267L25.8743 24.96L25.7743 24.8267Z" fill="#FBFAF2"/>
<path d="M28.9249 24.8267L29.0249 24.96L28.9249 24.8267Z" fill="#F9D6AA"/>
<path d="M30.7499 24.8267L30.8499 24.96L30.7499 24.8267Z" fill="#E5E59D"/>
<path d="M31.05 24.8267L31.15 24.96L31.05 24.8267ZM25.475 24.96L25.575 25.0933L25.475 24.96Z" fill="#6E6C70"/>
<path d="M25.7743 24.96L25.8743 25.0933L25.7743 24.96Z" fill="#8CBF84"/>
<path d="M25.8199 24.96C26.1699 25.9467 27.4199 28.28 28.3699 28.24C29.2999 28.1933 30.3449 25.9067 30.7499 24.96H25.8199Z" fill="#00CCFF"/>
<path d="M30.9497 24.96L31.0497 25.0933L30.9497 24.96Z" fill="#A4A43D"/>
<path d="M31.05 24.96L31.15 25.0933L31.05 24.96ZM25.475 25.0933L25.575 25.2267L25.475 25.0933Z" fill="#1B1B74"/>
<path d="M25.5745 25.0933L25.6745 25.2267L25.5745 25.0933Z" fill="#A4A43D"/>
<path d="M25.7743 25.0933L25.8743 25.2267L25.7743 25.0933Z" fill="#ADB333"/>
<path d="M25.8796 25.0933L25.9796 25.2267L25.8796 25.0933Z" fill="#1AC5B5"/>
<path d="M30.6495 25.0933L30.7495 25.2267L30.6495 25.0933Z" fill="#68B070"/>
<path d="M30.9497 25.0933L31.0497 25.2267L30.9497 25.0933Z" fill="#666677"/>
<path d="M25.5745 25.2333L25.6745 25.3667L25.5745 25.2333Z" fill="#58587B"/>
<path d="M25.8796 25.2333L25.9796 25.3667L25.8796 25.2333Z" fill="#7FB15C"/>
<path d="M30.545 25.2333L30.645 25.3667L30.545 25.2333Z" fill="#27C2AA"/>
<path d="M30.8499 25.2333L30.7499 25.5L30.8499 25.2333Z" fill="#A4A43D"/>
<path d="M30.9495 25.2333L31.0495 25.3667L30.9495 25.2333ZM25.5745 25.3667L25.6745 25.5L25.5745 25.3667Z" fill="#0E0E6E"/>
<path d="M25.6748 25.3667L25.8748 25.6333L25.6748 25.3667Z" fill="#A4A43D"/>
<path d="M25.98 25.3667L26.08 25.5L25.98 25.3667Z" fill="#34BE9E"/>
<path d="M30.545 25.3667L30.645 25.5L30.545 25.3667Z" fill="#96B247"/>
<path d="M30.8494 25.3667L30.9494 25.5L30.8494 25.3667Z" fill="#53527C"/>
<path d="M25.6748 25.5067L25.7748 25.64L25.6748 25.5067Z" fill="#3A3A7C"/>
<path d="M25.98 25.5067L26.08 25.64L25.98 25.5067Z" fill="#A2B23D"/>
<path d="M26.0795 25.5067L26.1795 25.64L26.0795 25.5067Z" fill="#0DC9C1"/>
<path d="M30.4447 25.5067L30.5447 25.64L30.4447 25.5067Z" fill="#5BB47C"/>
<path d="M30.7499 25.5067L30.8499 25.64L30.7499 25.5067Z" fill="#8D8D5B"/>
<path d="M25.7743 25.64L25.8743 25.7733L25.7743 25.64Z" fill="#737370"/>
<path d="M26.0795 25.64L26.1795 25.7733L26.0795 25.64Z" fill="#74B166"/>
<path d="M30.3444 25.64L30.4444 25.7733L30.3444 25.64Z" fill="#27C2AA"/>
<path d="M30.65 25.64L30.55 25.9067L30.65 25.64Z" fill="#A4A43D"/>
<path d="M30.7499 25.64L30.8499 25.7733L30.7499 25.64Z" fill="#262678"/>
<path d="M25.7743 25.7733L25.8743 25.9067L25.7743 25.7733Z" fill="#0E0E6E"/>
<path d="M25.8796 25.7733L26.0796 26.04L25.8796 25.7733Z" fill="#A4A43D"/>
<path d="M26.1847 25.7733L26.2847 25.9067L26.1847 25.7733Z" fill="#42BB92"/>
<path d="M30.2449 25.7733L30.3449 25.9067L30.2449 25.7733Z" fill="#0DC9C1"/>
<path d="M30.3444 25.7733L30.4444 25.9067L30.3444 25.7733Z" fill="#96B247"/>
<path d="M30.6495 25.7733L30.7495 25.9067L30.6495 25.7733Z" fill="#58587B"/>
<path d="M25.8796 25.9067L25.9796 26.04L25.8796 25.9067Z" fill="#3A3A7C"/>
<path d="M26.1847 25.9067L26.2847 26.04L26.1847 25.9067Z" fill="#ADB333"/>
<path d="M26.285 25.9067L26.385 26.04L26.285 25.9067Z" fill="#27C2AA"/>
<path d="M30.2449 25.9067L30.3449 26.04L30.2449 25.9067Z" fill="#74B166"/>
<path d="M30.545 25.9067L30.645 26.04L30.545 25.9067Z" fill="#8D8D5B"/>
<path d="M25.98 26.04L26.08 26.1733L25.98 26.04Z" fill="#6E6C70"/>
<path d="M26.285 26.04L26.385 26.1733L26.285 26.04Z" fill="#96B247"/>
<path d="M26.3845 26.04L26.4845 26.1733L26.3845 26.04Z" fill="#0DC9C1"/>
<path d="M30.1447 26.04L30.2447 26.1733L30.1447 26.04Z" fill="#42BB92"/>
<path d="M30.4449 26.04L30.2449 26.44L30.4449 26.04Z" fill="#A4A43D"/>
<path d="M30.545 26.04L30.645 26.1733L30.545 26.04Z" fill="#1B1B74"/>
<path d="M25.98 26.1733L26.08 26.3067L25.98 26.1733Z" fill="#0E0E6E"/>
<path d="M26.0795 26.1733L26.1795 26.3067L26.0795 26.1733Z" fill="#8D8D5B"/>
<path d="M26.3845 26.1733L26.4845 26.3067L26.3845 26.1733Z" fill="#7FB15C"/>
<path d="M30.0452 26.1733L30.1452 26.3067L30.0452 26.1733Z" fill="#34BE9E"/>
<path d="M30.4447 26.1733L30.5447 26.3067L30.4447 26.1733Z" fill="#3A3A7C"/>
<path d="M26.0795 26.3133L26.1795 26.4467L26.0795 26.3133Z" fill="#1B1B74"/>
<path d="M26.1847 26.3133L27.2997 27.8L26.1847 26.3133Z" fill="#A4A43D"/>
<path d="M26.4899 26.3133L26.5899 26.4467L26.4899 26.3133Z" fill="#74B166"/>
<path d="M29.9398 26.3133L30.0398 26.4467L29.9398 26.3133Z" fill="#27C2AA"/>
<path d="M30.0452 26.3133L30.1452 26.4467L30.0452 26.3133Z" fill="#ADB333"/>
<path d="M30.3444 26.3133L30.4444 26.4467L30.3444 26.3133Z" fill="#666677"/>
<path d="M26.1847 26.4467L26.2847 26.58L26.1847 26.4467Z" fill="#32327B"/>
<path d="M26.5894 26.4467L26.6894 26.58L26.5894 26.4467Z" fill="#42BB92"/>
<path d="M29.8399 26.4467L29.4299 27.1267L29.8449 26.44L29.8399 26.4467Z" fill="#0DC9C1"/>
<path d="M29.9398 26.4467L30.0398 26.58L29.9398 26.4467Z" fill="#ADB333"/>
<path d="M30.2449 26.4467L30.3449 26.58L30.2449 26.4467Z" fill="#737370"/>
<path d="M26.285 26.5867L26.385 26.72L26.285 26.5867Z" fill="#49497D"/>
<path d="M26.6946 26.5867L26.7946 26.72L26.6946 26.5867Z" fill="#42BB92"/>
<path d="M29.8395 26.5867L29.9395 26.72L29.8395 26.5867Z" fill="#96B247"/>
<path d="M30.1452 26.5867L30.0452 26.8533L30.1452 26.5867Z" fill="#8D8D5B"/>
<path d="M30.2449 26.5867L30.3449 26.72L30.2449 26.5867Z" fill="#0E0E6E"/>
<path d="M26.3845 26.72L26.4845 26.8533L26.3845 26.72Z" fill="#53527C"/>
<path d="M26.7949 26.72L26.8949 26.8533L26.7949 26.72Z" fill="#42BB92"/>
<path d="M29.735 26.72L29.835 26.8533L29.735 26.72Z" fill="#96B247"/>
<path d="M30.1447 26.72L30.2447 26.8533L30.1447 26.72Z" fill="#0E0E6E"/>
<path d="M26.4899 26.8533L26.5899 26.9867L26.4899 26.8533Z" fill="#6E6C70"/>
<path d="M26.8944 26.8533L26.9944 26.9867L26.8944 26.8533Z" fill="#42BB92"/>
<path d="M29.6346 26.8533L29.7346 26.9867L29.6346 26.8533Z" fill="#96B247"/>
<path d="M29.94 26.8533L29.74 27.2533L29.94 26.8533Z" fill="#A4A43D"/>
<path d="M30.0452 26.8533L30.1452 26.9867L30.0452 26.8533Z" fill="#262678"/>
<path d="M26.5894 26.9933L26.6894 27.1267L26.5894 26.9933Z" fill="#6E6C70"/>
<path d="M26.9948 26.9933L27.0948 27.1267L26.9948 26.9933Z" fill="#42BB92"/>
<path d="M29.5344 26.9933L29.6344 27.1267L29.5344 26.9933Z" fill="#96B247"/>
<path d="M29.9398 26.9933L30.0398 27.1267L29.9398 26.9933Z" fill="#262678"/>
<path d="M26.6946 27.1267L26.7946 27.26L26.6946 27.1267Z" fill="#6E6C70"/>
<path d="M27.0951 27.1267L27.1951 27.26L27.0951 27.1267Z" fill="#68B070"/>
<path d="M29.3296 27.1267L29.4296 27.26L29.3296 27.1267Z" fill="#27C2AA"/>
<path d="M29.4299 27.1267L29.5299 27.26L29.4299 27.1267Z" fill="#ADB333"/>
<path d="M29.8395 27.1267L29.9395 27.26L29.8395 27.1267Z" fill="#262678"/>
<path d="M26.7949 27.26L26.8949 27.3933L26.7949 27.26Z" fill="#666677"/>
<path d="M27.1946 27.26L27.2946 27.3933L27.1946 27.26Z" fill="#74B166"/>
<path d="M29.2292 27.26L29.3292 27.3933L29.2292 27.26Z" fill="#34BE9E"/>
<path d="M29.3296 27.26L29.4296 27.3933L29.3296 27.26Z" fill="#ADB333"/>
<path d="M29.6344 27.26L29.5344 27.5267L29.6344 27.26Z" fill="#8D8D5B"/>
<path d="M29.735 27.26L29.835 27.3933L29.735 27.26Z" fill="#262678"/>
<path d="M26.8944 27.3933L26.9944 27.5267L26.8944 27.3933Z" fill="#49497D"/>
<path d="M27.2999 27.3933L27.3999 27.5267L27.2999 27.3933Z" fill="#96B247"/>
<path d="M27.3994 27.3933L27.4994 27.5267L27.3994 27.3933Z" fill="#0DC9C1"/>
<path d="M29.1248 27.3933L29.2248 27.5267L29.1248 27.3933Z" fill="#42BB92"/>
<path d="M29.6346 27.3933L29.7346 27.5267L29.6346 27.3933Z" fill="#0E0E6E"/>
<path d="M26.9948 27.5333L27.0948 27.6667L26.9948 27.5333Z" fill="#49497D"/>
<path d="M27.3994 27.5333L27.4994 27.6667L27.3994 27.5333Z" fill="#A2B23D"/>
<path d="M27.4998 27.5333L27.5998 27.6667L27.4998 27.5333Z" fill="#27C2AA"/>
<path d="M29.0244 27.5333L29.1244 27.6667L29.0244 27.5333Z" fill="#74B166"/>
<path d="M29.3294 27.5333L29.0294 28.0667L29.3294 27.5333Z" fill="#A4A43D"/>
<path d="M29.4299 27.5333L29.5299 27.6667L29.4299 27.5333Z" fill="#808067"/>
<path d="M29.5344 27.5333L29.6344 27.6667L29.5344 27.5333Z" fill="#0E0E6E"/>
<path d="M27.0951 27.6667L27.1951 27.8L27.0951 27.6667Z" fill="#262678"/>
<path d="M27.4998 27.6667L27.5998 27.8L27.4998 27.6667Z" fill="#ADB333"/>
<path d="M27.6 27.6667L27.7 27.8L27.6 27.6667Z" fill="#42BB92"/>
<path d="M28.8246 27.6667L28.9246 27.8L28.8246 27.6667Z" fill="#0DC9C1"/>
<path d="M28.9249 27.6667L29.0249 27.8L28.9249 27.6667Z" fill="#96B247"/>
<path d="M29.3296 27.6667L29.4296 27.8L29.3296 27.6667Z" fill="#6E6C70"/>
<path d="M27.1946 27.8L27.2946 27.9333L27.1946 27.8Z" fill="#1B1B74"/>
<path d="M27.2999 27.8L27.3999 27.9333L27.2999 27.8Z" fill="#8D8D5B"/>
<path d="M27.6995 27.8L27.7995 27.9333L27.6995 27.8Z" fill="#74B166"/>
<path d="M27.8098 27.8L27.9098 27.9333L27.8098 27.8Z" fill="#0DC9C1"/>
<path d="M28.7202 27.8L28.8202 27.9333L28.7202 27.8Z" fill="#34BE9E"/>
<path d="M28.8246 27.8L28.9246 27.9333L28.8246 27.8Z" fill="#ADB333"/>
<path d="M29.2292 27.8L29.3292 27.9333L29.2292 27.8Z" fill="#49497D"/>
<path d="M27.2999 27.9333L27.3999 28.0667L27.2999 27.9333Z" fill="#0E0E6E"/>
<path d="M27.3994 27.9333L27.4994 28.0667L27.3994 27.9333Z" fill="#6E6C70"/>
<path d="M27.4998 27.9333L27.6998 28.2L27.4998 27.9333Z" fill="#A4A43D"/>
<path d="M27.8098 27.9333L27.9098 28.0667L27.8098 27.9333Z" fill="#96B247"/>
<path d="M27.9102 27.9333L28.0102 28.0667L27.9102 27.9333Z" fill="#27C2AA"/>
<path d="M28.6199 27.9333L28.7199 28.0667L28.6199 27.9333Z" fill="#68B070"/>
<path d="M29.1248 27.9333L29.2248 28.0667L29.1248 27.9333Z" fill="#32327B"/>
<path d="M27.4998 28.0667L27.5998 28.2L27.4998 28.0667Z" fill="#49497D"/>
<path d="M28.0096 28.0667L28.1096 28.2L28.0096 28.0667Z" fill="#5BB47C"/>
<path d="M28.4142 28.0667L28.5142 28.2L28.4142 28.0667Z" fill="#27C2AA"/>
<path d="M28.5195 28.0667L28.6195 28.2L28.5195 28.0667Z" fill="#96B247"/>
<path d="M28.8244 28.0667L28.7244 28.3333L28.8244 28.0667Z" fill="#A4A43D"/>
<path d="M28.9249 28.0667L29.0249 28.2L28.9249 28.0667Z" fill="#808067"/>
<path d="M29.0244 28.0667L29.1244 28.2L29.0244 28.0667Z" fill="#0E0E6E"/>
<path d="M27.6 28.2L27.7 28.3333L27.6 28.2Z" fill="#262678"/>
<path d="M27.6995 28.2L27.7995 28.3333L27.6995 28.2Z" fill="#8D8D5B"/>
<path d="M28.1149 28.2L28.2149 28.3333L28.1149 28.2Z" fill="#8BB252"/>
<path d="M28.2144 28.2L28.3144 28.3333L28.2144 28.2Z" fill="#1AC5B5"/>
<path d="M28.3147 28.2L28.4147 28.3333L28.3147 28.2Z" fill="#5BB47C"/>
<path d="M28.8246 28.2L28.9246 28.3333L28.8246 28.2Z" fill="#58587B"/>
<path d="M27.6995 28.3467L27.7995 28.48L27.6995 28.3467Z" fill="#0E0E6E"/>
<path d="M27.8098 28.3467L27.9098 28.48L27.8098 28.3467Z" fill="#666677"/>
<path d="M27.9102 28.3467L28.0102 28.48L27.9102 28.3467Z" fill="#A4A43D"/>
<path d="M28.6199 28.3467L28.7199 28.48L28.6199 28.3467Z" fill="#99994E"/>
<path d="M28.7202 28.3467L28.8202 28.48L28.7202 28.3467ZM27.9102 28.48L28.0102 28.6133L27.9102 28.48Z" fill="#32327B"/>
<path d="M28.0096 28.48L28.1096 28.6133L28.0096 28.48Z" fill="#99994E"/>
<path d="M28.4142 28.48L28.5142 28.6133L28.4142 28.48Z" fill="#A4A43D"/>
<path d="M28.5195 28.48L28.6195 28.6133L28.5195 28.48Z" fill="#666677"/>
<path d="M28.6196 28.48L28.7196 28.6133L28.6196 28.48ZM28.0096 28.6133L28.1096 28.7467L28.0096 28.6133Z" fill="#0E0E6E"/>
<path d="M28.1149 28.6133L28.2149 28.7467L28.1149 28.6133Z" fill="#666677"/>
<path d="M28.2144 28.6133L28.3144 28.7467L28.2144 28.6133Z" fill="#A4A43D"/>
<path d="M28.3147 28.6133L28.4147 28.7467L28.3147 28.6133Z" fill="#99994E"/>
<path d="M28.4142 28.6133L28.5142 28.7467L28.4142 28.6133Z" fill="#32327B"/>
<path d="M28.2144 28.7467L28.3144 28.88L28.2144 28.7467Z" fill="#262678"/>
<path d="M28.3147 28.7467L28.4147 28.88L28.3147 28.7467Z" fill="#0E0E6E"/>
<path d="M28.4147 19.68C28.5747 20.1733 29.0747 20.7133 29.2147 20.98C29.0397 21.2467 29.0047 21.22 29.0247 21.7133C29.3247 21.2867 29.3347 21.2467 29.5347 21.3067C29.9647 21.88 29.6097 23.1067 29.2547 23.3733C28.8997 23.66 28.9647 23.3667 28.4297 23.72C28.6747 24 28.9597 23.68 29.1897 23.7667C29.3147 23.9667 29.1297 24.3267 29.2247 24.6733C29.4247 24.6467 29.4047 24.0933 29.4547 23.8933C29.6047 23.16 30.5047 22.6533 30.5497 21.98C30.7397 21.8667 30.9247 21.9467 31.1497 22.1133C31.0397 21.4867 30.6647 21.4933 30.5597 21.3C30.3197 20.8067 30.1047 20.2467 29.5897 20.1C29.1897 19.9867 29.2247 20.1333 28.9747 19.9C28.8147 19.74 28.3397 19.4333 28.4147 19.68V19.68Z" fill="#FF9900"/>
<path fill-rule="evenodd" clip-rule="evenodd" d="M29.5443 20.24C29.5443 20.2692 29.5356 20.2972 29.5201 20.3178C29.5046 20.3384 29.4837 20.35 29.4618 20.35C29.4399 20.35 29.4189 20.3384 29.4034 20.3178C29.388 20.2972 29.3793 20.2692 29.3793 20.24C29.3793 20.2108 29.388 20.1829 29.4034 20.1622C29.4189 20.1416 29.4399 20.13 29.4618 20.13C29.4837 20.13 29.5046 20.1416 29.5201 20.1622C29.5356 20.1829 29.5443 20.2108 29.5443 20.24V20.24Z" fill="white"/>
<path d="M27.1601 21.7667C27.4101 21.3534 27.5401 20.5 27.6501 20.22C27.9101 20.3 27.9001 20.3534 28.2251 20.1C27.8001 19.94 27.7651 19.9534 27.7151 19.6934C27.8951 18.9134 28.8751 18.76 29.2151 19.0534C29.5751 19.34 29.3501 19.4 29.8351 19.8534C29.9051 19.44 29.5601 19.2534 29.5101 18.9467C29.5851 18.7 29.9101 18.7467 30.0901 18.48C29.9801 18.2467 29.6251 18.5334 29.4701 18.5734C28.9201 18.74 28.1551 17.92 27.6901 18.1734C27.5251 18.0067 27.4901 17.7467 27.4901 17.3934C27.1351 17.8267 27.3151 18.26 27.2301 18.48C27.0201 18.9934 26.7451 19.5134 26.8901 20.1867C27.0001 20.7067 27.0801 20.6 27.0501 21.0067C27.0151 21.2667 27.0301 21.9734 27.1601 21.7667V21.7667Z" fill="#FF9900"/>
<path fill-rule="evenodd" clip-rule="evenodd" d="M27.0001 20.1734C27.0451 20.1467 27.0951 20.1667 27.1151 20.22C27.122 20.2388 27.1246 20.2598 27.1226 20.2806C27.1206 20.3013 27.1141 20.3208 27.1039 20.3367C27.0936 20.3525 27.0801 20.364 27.065 20.3697C27.05 20.3754 27.0339 20.3751 27.019 20.3687C27.0041 20.3624 26.9908 20.3503 26.981 20.334C26.9711 20.3178 26.9651 20.298 26.9636 20.2772C26.9621 20.2564 26.9653 20.2354 26.9726 20.217C26.98 20.1985 26.9913 20.1833 27.0051 20.1734H27.0001Z" fill="white"/>
<path d="M29.2145 22.0533C28.8145 21.9867 28.2095 22.2733 27.9645 22.3C27.8895 21.96 27.9245 21.9333 27.5945 21.7C27.7095 22.2733 27.7345 22.3 27.5945 22.5C27.0045 22.6933 26.3945 21.6533 26.4045 21.1133C26.4045 20.56 26.5645 20.78 26.6045 19.98C26.3045 20.1133 26.3645 20.6133 26.1895 20.8333C25.9895 20.8733 25.8595 20.48 25.5895 20.4133C25.4995 20.66 25.8645 20.9133 25.9695 21.0733C26.3645 21.62 26.2295 22.9067 26.6345 23.3067C26.6145 23.5867 26.4645 23.76 26.2345 23.9333C26.6995 24.1267 26.8845 23.6867 27.0695 23.6667C27.5095 23.6533 27.9845 23.6933 28.3445 23.18C28.6145 22.78 28.5095 22.7467 28.7845 22.58C28.9695 22.4867 29.4145 22.1 29.2145 22.0467V22.0533Z" fill="#FF9900"/>
<path fill-rule="evenodd" clip-rule="evenodd" d="M28.2745 23.06C28.2653 23.0526 28.2573 23.0428 28.2509 23.0312C28.2446 23.0196 28.24 23.0065 28.2374 22.9926C28.2349 22.9787 28.2344 22.9642 28.2361 22.95C28.2377 22.9359 28.2414 22.9223 28.247 22.91C28.2526 22.8977 28.2599 22.8871 28.2686 22.8786C28.2773 22.8701 28.2871 22.864 28.2976 22.8606C28.308 22.8572 28.3188 22.8566 28.3295 22.8588C28.3401 22.8609 28.3503 22.8659 28.3595 22.8733C28.3781 22.8884 28.3914 22.9126 28.3965 22.9407C28.4017 22.9689 28.3983 22.9986 28.387 23.0233C28.3757 23.0481 28.3575 23.0659 28.3364 23.0727C28.3153 23.0796 28.2931 23.075 28.2745 23.06V23.06Z" fill="white"/>
<path d="M4 4H20V20H4V4Z" fill="#012169"/>
<path d="M5.875 4L11.975 10.0333L18.05 4H20V6.06667L14 12.0333L20 17.9667V20H18L12 14.0333L6.025 20H4V18L9.975 12.0667L4 6.13333V4H5.875Z" fill="white"/>
<path d="M14.6 13.3667L20 18.6667V20L13.225 13.3667H14.6ZM10 14.0333L10.15 15.2L5.35 20H4L10 14.0333ZM20 4V4.1L13.775 10.3667L13.825 8.9L18.75 4H20ZM4 4L9.975 9.86667H8.475L4 5.4V4Z" fill="#C8102E"/>
<path d="M10.025 4V20H14.025V4H10.025ZM4 9.33333V14.6667H20V9.33333H4Z" fill="white"/>
<path d="M4 10.4333V13.6333H20V10.4333H4ZM10.825 4V20H13.225V4H10.825Z" fill="#C8102E"/>
</g>
<rect x="2" y="2" width="36" height="36" rx="18" stroke="white" stroke-width="4"/>
<defs>
<clipPath id="clip0_90_37927">
<rect x="4" y="4" width="32" height="32" rx="16" fill="white"/>
</clipPath>
</defs>
</svg>
