<svg width="40" height="40" viewBox="0 0 40 40" fill="none" xmlns="http://www.w3.org/2000/svg">
<g clip-path="url(#clip0_90_37924)">
<path d="M4 4H36V36H4V4Z" fill="#E41E20"/>
<path d="M17.6005 10.22C17.3705 10.22 16.9855 10.32 16.9905 10.5533C16.3405 10.4133 16.2755 10.7667 16.3155 11.0867C16.3755 10.96 16.4505 10.8867 16.5105 10.88C16.5955 10.86 16.6855 10.9 16.7805 10.9733C16.8701 11.0483 16.951 11.1404 17.0205 11.2467C16.7905 11.32 16.6105 11.2733 16.4305 11.2333C16.3288 11.2044 16.2321 11.1501 16.1455 11.0733C16.0705 11.0067 16.0455 10.94 15.9305 10.7867C15.7955 10.6 15.6505 10.6533 15.6955 10.94C15.8005 11.2067 15.9755 11.3267 16.1955 11.38C16.3005 11.4 16.4605 11.4467 16.6405 11.4467C16.8205 11.4467 17.0205 11.4133 17.1305 11.4467C17.0655 11.5 16.9905 11.6 16.8405 11.6333C16.6905 11.6733 16.4655 11.5133 16.3255 11.4733C16.3405 11.6267 16.4905 11.7733 16.7805 11.8533C17.2605 11.9867 17.6555 12.0933 17.9205 12.2867C18.1301 12.4425 18.3151 12.6507 18.4655 12.9C18.7005 13.2667 18.7155 13.5533 18.7255 13.62C18.7755 14.2067 18.6205 14.54 18.3305 14.6467C18.1905 14.6933 17.9305 14.6 17.8405 14.4533C17.7405 14.3067 17.6555 14.0533 17.6805 13.6533C17.7055 13.5067 17.8355 13.1 17.7255 13.02C17.2042 12.638 16.6647 12.3017 16.1105 12.0133C15.9855 11.9467 15.8855 12.1733 15.8455 12.2667C15.4763 12.198 15.1232 12.0206 14.8119 11.7473C14.5005 11.474 14.2387 11.1117 14.0455 10.6867C13.8355 10.18 13.4805 10.6867 13.5405 11.1733C13.6355 11.7067 13.9405 12.0933 14.3105 12.3733C14.6855 12.6467 15.1605 12.92 15.6355 12.9067C15.8955 12.9733 15.8905 13.4133 15.5855 13.5C14.9805 13.5 14.4955 13.4867 14.0405 12.9C13.6955 12.48 13.5055 12.98 13.6005 13.26C13.7705 14.1333 14.7055 14.38 15.6505 14.1C16.0205 14.02 15.8005 14.54 15.7005 14.5467C15.3005 14.9267 14.5955 15.2933 13.9705 14.5467C13.6855 14.2533 13.4905 14.4933 13.6005 14.9133C13.8755 16.0133 14.9355 15.78 15.6605 15.2467C15.8455 15.1067 16.0155 15.4267 15.7905 15.6733C14.8855 16.5133 14.4355 16.5267 14.0255 16.2067C13.5155 15.9333 13.4755 16.6867 13.7755 16.94C14.1105 17.2067 14.9655 17.0067 15.5955 16.4733C15.8655 16.2067 15.8755 16.6267 15.7055 16.7933C14.9605 17.6533 14.6655 17.88 13.8905 17.74C13.5055 17.7 13.5105 18.3333 13.8105 18.58C14.2255 18.92 15.0355 18.36 15.6605 17.66C15.9255 17.4733 15.9705 17.78 15.8405 18.1467C15.5637 18.6689 15.1874 19.0831 14.7505 19.3467C14.4005 19.5267 14.0705 19.5 13.8355 19.3933C13.5455 19.26 13.5105 19.66 13.6705 20.02C13.7655 20.24 14.1605 20.3067 14.5905 20.1067C15.0205 19.9067 15.4805 19.4267 15.7955 18.8733C16.0705 18.5467 16.0405 18.98 15.9105 19.2867C15.2805 20.62 14.7005 21.1133 13.9355 21.0333C13.6005 20.9533 13.5205 21.3 13.7355 21.6333C14.1155 22.0467 14.5855 22.0333 15.0055 21.62C15.3705 21.1533 16.0755 20.1267 16.4455 19.58C16.7055 19.3067 16.7905 19.58 16.7105 20.14C16.6405 20.46 16.4705 20.8067 15.9955 21.0467C15.6705 21.2933 15.9155 21.6333 16.1555 21.6467C16.2905 21.6467 16.5605 21.4333 16.7705 21.1267C17.0405 20.7133 17.0605 20.44 17.2105 19.8C17.3505 19.4933 17.6055 19.64 17.6055 19.96C17.4805 20.6 17.3805 20.7133 17.1305 20.9733C16.8955 21.2733 17.2955 21.3733 17.4305 21.2467C17.8205 20.9 17.9605 20.4467 18.0905 20.0333C18.1905 19.74 18.4605 19.88 18.3305 20.3667C18.0305 21.5267 17.5305 21.98 16.6655 22.22C16.5805 22.24 16.5255 22.3067 16.5555 22.44L16.9055 22.9067C16.3705 23.12 15.9355 23.24 15.3955 23.44L14.6555 22.7867C14.5905 22.5733 14.5555 22.24 14.1655 22.4733C13.9055 22.3133 13.7805 22.3733 13.6355 22.54C13.8455 22.54 13.9355 22.62 14.0205 22.7467C14.1305 23.1267 14.3805 23.1667 14.6355 23.06C14.8005 23.24 14.8855 23.3867 15.0555 23.5733L14.2205 23.54C13.9205 23.12 13.6905 23.14 13.4805 23.4733C13.3155 23.5067 13.2505 23.5067 13.1405 23.7667C13.3105 23.6733 13.4205 23.6467 13.4955 23.7467C13.8105 23.9933 14.0155 23.94 14.1705 23.7467L15.0455 23.82C14.9355 23.9533 14.7855 24.02 14.6705 24.14C14.2205 23.9667 13.9805 24.2067 13.9005 24.6933C13.8373 24.8884 13.8165 25.1033 13.8405 25.3133C13.8805 25.1133 13.9555 24.9467 14.0855 24.8467C14.4855 24.98 14.6355 24.76 14.6605 24.44C14.8605 24.2267 15.1505 24.18 15.3455 23.9667C15.5755 24.06 15.6855 24.12 15.9155 24.22C15.9955 24.5533 16.1805 24.68 16.4805 24.5933C16.8305 24.6067 16.7705 24.8067 16.8005 24.96C16.9005 24.74 16.8955 24.52 16.6755 24.32C16.5955 24.0333 16.4155 23.9 16.1855 24.0667C15.9655 23.9867 15.9105 23.8667 15.6905 23.78C16.2405 23.5467 16.6305 23.4933 17.1805 23.26L17.5655 23.7133C17.6405 23.7733 17.7105 23.7867 17.7555 23.7133C18.1005 23.0467 18.2555 22.4667 18.5705 22.0267C18.6955 21.84 18.8505 21.6 19.0205 21.54C19.1055 21.5067 19.2105 21.5267 19.2805 21.6267C19.3455 21.72 19.4005 21.9 19.3805 22.1733C19.3455 22.5533 19.2755 22.68 19.1955 22.9067C19.1105 23.14 19.0155 23.28 18.9105 23.46C18.7105 23.8133 18.4405 24.02 18.2805 24.16C17.9605 24.4333 17.8305 24.3133 17.5805 24.2933C17.2605 24.34 17.1805 24.5467 17.4405 24.8333C17.6805 25.0067 17.9005 25.0267 18.0805 24.98C18.2305 24.94 18.4105 24.68 18.5405 24.54C18.6805 24.32 18.9205 24.58 18.7555 24.84C18.4605 25.3067 18.1705 25.6133 17.8055 25.6067C17.4205 25.6733 17.4955 25.96 17.7455 26.1C18.2055 26.3467 18.6155 25.88 18.8255 25.5667C18.9855 25.3333 19.1005 25.3267 19.0755 25.6933C18.9105 26.3533 18.6955 26.6067 18.3355 26.64C18.0455 26.6 18.0405 26.9067 18.2555 27.1067C18.7355 27.5467 19.0855 26.7867 19.2505 26.3333C19.3655 25.92 19.5455 26.1133 19.5655 26.4533C19.5655 26.9133 19.4155 27.28 19.0005 27.7467C19.3155 28.42 19.6855 29.1067 20.0005 29.78L20.9605 15.5133L20.0005 13.2667C19.9005 13.1467 19.5605 12.6133 19.4755 12.5333C19.4405 12.4933 19.4255 12.4667 19.4705 12.44C19.5155 12.4133 19.6205 12.3867 19.6955 12.3733C19.4955 12.1 19.3155 12.0133 18.9305 11.8667C19.0255 11.8133 19.1155 11.84 19.3955 11.8267C19.2237 11.5189 18.9895 11.2829 18.7205 11.1467C18.9305 10.9467 18.9705 10.9333 19.1805 10.7C18.8493 10.6659 18.5221 10.5809 18.2055 10.4467C18.0164 10.3269 17.8136 10.2502 17.6055 10.22H17.6005ZM17.6405 10.78C17.8305 10.78 17.9455 10.8667 17.9455 10.9733C17.9455 11.08 17.8305 11.1667 17.6405 11.1667C17.4505 11.1667 17.3305 11.0667 17.3305 10.9667C17.3305 10.86 17.4505 10.78 17.6405 10.78V10.78Z" fill="black"/>
</g>
<rect x="2" y="2" width="36" height="36" rx="18" stroke="white" stroke-width="4"/>
<defs>
<clipPath id="clip0_90_37924">
<rect x="4" y="4" width="32" height="32" rx="16" fill="white"/>
</clipPath>
</defs>
</svg>
