<svg width="40" height="40" viewBox="0 0 40 40" fill="none" xmlns="http://www.w3.org/2000/svg">
<g clip-path="url(#clip0_90_37909)">
<path fill-rule="evenodd" clip-rule="evenodd" d="M4 4H36V20.24H4V4Z" fill="#FF0000"/>
<path fill-rule="evenodd" clip-rule="evenodd" d="M4 19.76H36V36H4V19.76Z" fill="black"/>
<path fill-rule="evenodd" clip-rule="evenodd" d="M15.4348 13.88C23.6948 16.7667 18.3848 30.92 11.8698 25.0267L11.4298 25.9333C15.2648 29.5733 19.0598 26.64 20.1298 22.84C21.2398 18.92 19.7498 13.4067 15.4998 12.84L15.4348 13.88V13.88Z" fill="#FFEC00"/>
<path fill-rule="evenodd" clip-rule="evenodd" d="M12.5002 26.0533L13.5852 26.7267L13.0752 28.18L11.9902 27.5L12.5002 26.0533ZM19.9502 19.42H21.1502V21.02H19.9502V19.42ZM19.3652 16.8267L20.4802 16.2533L20.9152 17.74L19.8002 18.32L19.3652 16.8267ZM18.0652 14.8867L18.9202 13.76L19.7652 14.8933L18.9152 16.02L18.0652 14.8867ZM16.7552 12.2333L17.8752 12.7933L17.4502 14.2867L16.3302 13.7267L16.7552 12.2333ZM19.8002 22L20.9152 22.5933L20.4652 24.0733L19.3552 23.48L19.8002 22ZM16.3052 26.6667L17.4052 26.0467L17.8802 27.5133L16.7802 28.14L16.3052 26.6667ZM14.3302 26.8533H15.5302V28.4533H14.3302V26.8533ZM16.3952 19.12L15.3802 18.12L14.3652 19.0933L14.7652 17.56L13.7502 16.56H14.9752L15.4002 15.0533L15.7902 16.5667L17.0252 16.5467L16.0452 17.5667L16.3952 19.1267V19.12Z" fill="#FFEC00"/>
<path fill-rule="evenodd" clip-rule="evenodd" d="M20.7997 27.0933C20.7397 27.12 20.4897 27.92 20.3147 28.3067L20.4997 28.3733C21.1797 28.6933 21.5197 28.9867 21.8097 29.54C21.8768 29.6271 21.9649 29.6796 22.0583 29.6882C22.1517 29.6967 22.2443 29.6607 22.3197 29.5867C22.3197 29.5867 22.4597 29.52 22.6397 29.2533C22.7897 28.9533 22.7497 28.72 22.5697 28.5133C22.0197 27.98 21.4247 27.58 20.7997 27.0933V27.0933Z" fill="#FFEE00"/>
<path fill-rule="evenodd" clip-rule="evenodd" d="M22.2649 28.8533C22.2649 28.9302 22.242 29.004 22.2012 29.0584C22.1604 29.1128 22.1051 29.1433 22.0474 29.1433C21.9897 29.1433 21.9344 29.1128 21.8936 29.0584C21.8528 29.004 21.8299 28.9302 21.8299 28.8533C21.8299 28.7773 21.8525 28.7044 21.8929 28.6506C21.9332 28.5969 21.9879 28.5667 22.0449 28.5667C22.1019 28.5667 22.1566 28.5969 22.1969 28.6506C22.2372 28.7044 22.2599 28.7773 22.2599 28.8533H22.2649ZM21.1949 27.9467C21.1949 28.0236 21.172 28.0973 21.1312 28.1517C21.0904 28.2061 21.0351 28.2367 20.9774 28.2367C20.9197 28.2367 20.8644 28.2061 20.8236 28.1517C20.7828 28.0973 20.7599 28.0236 20.7599 27.9467C20.7599 27.8697 20.7828 27.796 20.8236 27.7416C20.8644 27.6872 20.9197 27.6567 20.9774 27.6567C21.0351 27.6567 21.0904 27.6872 21.1312 27.7416C21.172 27.796 21.1949 27.8697 21.1949 27.9467ZM21.7399 28.4133C21.7399 28.4902 21.717 28.564 21.6762 28.6184C21.6354 28.6728 21.5801 28.7033 21.5224 28.7033C21.4647 28.7033 21.4094 28.6728 21.3686 28.6184C21.3278 28.564 21.3049 28.4902 21.3049 28.4133C21.3049 28.3364 21.3278 28.2627 21.3686 28.2083C21.4094 28.1539 21.4647 28.1233 21.5224 28.1233C21.5801 28.1233 21.6354 28.1539 21.6762 28.2083C21.717 28.2627 21.7399 28.3364 21.7399 28.4133V28.4133Z" fill="black"/>
<path fill-rule="evenodd" clip-rule="evenodd" d="M20.225 28.2467C18.095 26.6267 15.86 24.88 13.725 23.26C12.79 22.48 12.745 21.0333 13.375 19.9333C13.435 19.78 13.515 19.8133 13.545 19.9C13.62 20.4333 13.845 20.9867 14.115 21.3333C16.3311 23.192 18.5263 25.0944 20.7 27.04C20.53 27.4267 20.4 27.86 20.225 28.24V28.2467Z" fill="#FFEE00"/>
<path fill-rule="evenodd" clip-rule="evenodd" d="M18.8603 24.3667L19.7503 25.4333L18.9503 26.62L18.0603 25.5533L18.8603 24.3667Z" fill="#FFEC00"/>
<path fill-rule="evenodd" clip-rule="evenodd" d="M14.3637 22.1344L20.6137 27.1677L20.5361 27.3389L14.2861 22.3056L14.3637 22.1344ZM17.7407 24.1894L19.8457 26.0094L19.7641 26.1772L17.6591 24.3572L17.7407 24.1894ZM16.5024 25.3801L18.6474 27.0334L18.5724 27.2066L16.4274 25.5532L16.5024 25.3801Z" fill="black"/>
</g>
<rect x="2" y="2" width="36" height="36" rx="18" stroke="white" stroke-width="4"/>
<defs>
<clipPath id="clip0_90_37909">
<rect x="4" y="4" width="32" height="32" rx="16" fill="white"/>
</clipPath>
</defs>
</svg>
