<svg width="40" height="40" viewBox="0 0 40 40" fill="none" xmlns="http://www.w3.org/2000/svg">
<g clip-path="url(#clip0_90_37905)">
<path d="M4 4H36V36H4V4Z" fill="#3A7DCE"/>
<path d="M11.8852 19.3867C11.7102 18.8667 11.7102 18.8667 11.7102 18.3467C11.6202 18.3467 11.6102 18.3667 11.5602 18.3467C11.5052 18.3267 11.4852 18.8267 11.3202 18.7333C11.2952 18.68 11.4402 18.32 11.2852 18.1667C11.2352 18.12 11.2952 17.82 11.2752 17.6867C11.2752 17.6867 11.0752 17.8467 10.9252 17.3C10.8502 17.1533 10.7502 17.4333 10.7502 17.4333C10.7502 17.4333 10.7952 17.5933 10.7152 17.6333C10.6052 17.5133 10.5202 17.58 10.3802 17.4067C10.2402 17.24 10.4102 17.0467 10.1402 16.9067C10.3152 16.2533 10.3152 16.38 10.7502 16.12C10.4902 15.8533 10.4902 15.8533 10.3152 15.4667C10.0552 15.3333 9.96518 15.2 9.70518 14.9467C9.35518 14.2867 9.18018 12.98 9.18018 12.0667C9.40018 11.76 9.70518 13.1133 10.1402 13.5067L10.7502 13.9C11.1002 14.16 11.1852 14.42 11.4502 14.68L12.2302 15.08C12.5802 15.4667 12.7552 15.9867 13.0152 16.12C13.3002 16.12 13.3552 15.8733 13.4452 15.86C13.9602 15.82 14.2202 15.7267 14.3202 15.4933C14.4252 15.3067 14.6702 15.6 15.3702 15.2067L15.2852 14.68C15.2852 14.68 15.4702 14.4533 15.7202 14.5467C15.7152 14.3133 15.6952 13.68 15.9452 13.3867C15.7952 13.1533 16.0352 12.7867 16.0452 12.6733C15.9752 12.1 16.1152 12.0933 16.1452 11.92C16.1752 11.7533 16.0252 11.8067 16.0652 11.5733C16.1102 11.34 16.3652 11.2867 16.3952 11.0933C16.4302 10.9 16.3402 10.14 16.3302 9.97334C16.8002 9.78667 16.9502 9.21334 17.1152 9.45334C17.2002 8.66667 17.2902 8.4 17.8152 8.4C17.8852 8.16 17.6202 7.95334 17.7252 7.87334C17.9002 7.84 18.0302 7.86 18.2352 8.25334C18.3002 8.38667 18.3152 8.07334 18.3802 8.04C18.4452 8.00667 18.6002 8.00667 18.6252 7.85334C18.6502 7.69334 18.6852 7.48 18.7752 7.22C18.8452 7.00667 18.9002 7.30667 18.9652 7.72C19.3352 7.74 20.1652 7.86 20.5152 8.00667C20.7752 8.10667 20.9502 7.90667 21.2002 7.86C21.3852 8.14 21.5602 7.92667 21.6602 8.52667C21.7952 8.84667 22.0252 8.55334 22.0752 8.64667C22.3652 9.85334 23.3652 9.04 23.4452 9.06C23.5702 9.06 23.7252 9.59334 23.8302 9.58667C23.9902 9.54667 23.9452 9.38 24.0902 9.44667C24.0502 9.9 24.3702 10.42 24.3702 10.76C24.3702 10.76 24.4452 10.82 24.5202 10.72C24.5902 10.6133 24.6552 10.36 24.7202 10.3667C24.8702 10.4 25.8202 10.7667 26.0102 10.8933C26.0952 11.1267 26.1752 11.2467 26.3502 11.2067C26.4902 11.3467 26.3902 11.54 26.4702 11.5467C26.6452 11.4133 26.7052 11.28 26.8802 11.4067C27.0552 11.54 27.2302 11.8 27.3152 12.06C27.3152 12.1933 27.2252 12.7133 27.3152 13.5C27.3602 13.76 27.8002 15.6533 27.8002 15.8467C27.8002 16.1133 27.6652 16.2467 27.5752 16.5067C27.9252 16.9 27.5752 17.5533 27.4002 17.9467C28.7102 18.34 28.1002 19.12 29.1452 18.7267C28.8852 19.6467 28.9752 19.5733 29.2352 20.4867C28.7152 21.0067 29.2252 21.1667 28.8802 21.82C28.8552 21.8667 29.0852 22.3933 29.4052 22.3933C29.3202 23.4333 29.0552 23.0467 29.1452 24.6133C28.4602 24.5933 28.7352 25.7867 28.2752 25.66C28.3002 26.4067 28.5352 26.4733 28.4452 27.2267C28.0952 27.36 28.0952 27.36 27.9252 27.7533L27.6652 27.62C27.5752 28.2733 27.4002 28.4067 27.6652 29.06C27.6652 29.06 27.3252 29.0733 27.2252 29.06C27.2202 29.2867 27.3752 29.3467 27.4002 29.58C27.3902 29.6733 26.9052 30.0867 26.5302 30.1067C26.4302 30.4267 26.7902 30.7733 26.7702 30.9333C26.3602 31.0533 26.1802 31.8 26.1802 31.8C26.1802 31.8 26.3902 31.9333 26.3552 32.0667C26.2452 31.9467 26.1802 31.9333 26.0052 31.9333C25.9202 31.9667 25.7052 31.9333 25.5052 32.4467C25.2802 32.5533 25.1752 32.5133 25.0052 32.8467C24.9302 32.5333 24.8202 32.8533 24.6902 32.98C24.5552 33.1 24.3802 33.4133 24.3552 33.4C24.3602 33.3067 24.4352 32.98 24.4352 32.98L23.9502 33.1333C23.9152 33.14 23.9252 32.7533 23.8402 32.7667C23.7552 32.78 23.5202 33.2533 23.4402 33.2667C23.3602 33.28 23.3352 33.12 23.2652 33.1333C23.1952 33.1467 23.0652 33.6333 23.0152 33.6467C22.9652 33.6533 22.7652 33.3467 22.6002 33.3933C21.7452 33.8467 21.6052 32.5 21.4752 33.26C21.2952 33.1133 21.3252 33.1933 21.1402 33.2667C21.0252 33.3133 21.0152 33.04 20.9102 33.04C20.7052 33.0533 20.7102 33.3467 20.6002 33.26C20.5102 32.6467 19.9502 32.7533 19.9002 32.4933C19.8502 32.2267 20.1402 32.2267 20.2302 32.04C20.3002 31.7733 20.1552 31.6667 20.4452 31.4133C20.8202 31.0333 20.7852 30.0933 20.6902 29.7267C20.6902 29.7267 20.3952 28.5467 20.3402 28.5467C20.1652 28.48 20.1652 28.98 19.9102 29.12C19.3852 29.3867 18.4602 28.46 18.3002 28.46C18.1552 28.46 17.4752 28.7 17.5002 28.1933C17.4002 28.6867 17.0252 28.3067 17.0002 28.3067C16.6502 28.3067 16.7852 28.7133 16.5502 28.7C16.4452 28.6467 15.3702 28.5467 15.3702 28.5467V28.8133L14.0652 28.0267C13.5402 27.76 13.8002 27.1133 12.9302 27.5067V26.72H12.4952C12.6702 25.1467 12.4952 25.9333 12.4052 24.4933L12.0552 24.6267C11.7052 23.92 12.5452 24.0533 11.7952 23.58C11.7952 23.58 11.8102 22.8 11.6202 23.06C11.5852 23.0933 11.7102 23.4467 11.7102 23.4467C11.0102 23.3133 10.8402 23.06 10.8402 22.0133C10.8402 22.0133 11.4102 22.1333 11.3602 22.0133C11.2802 21.8133 11.1752 20.5467 11.1902 20.4533C11.1852 20.28 11.7252 19.8533 11.6202 19.44C11.6902 19.4 11.8852 19.3933 11.8852 19.3933" fill="white"/>
<path fill-rule="evenodd" clip-rule="evenodd" d="M9.1146 13.0722C9.11895 13.0723 9.12303 13.0723 9.12671 13.0723C9.1582 13.0723 9.18373 13.1064 9.18373 13.1484C9.18373 13.1772 9.17202 13.1955 9.16777 13.2014C9.16276 13.2085 9.15784 13.2127 9.15577 13.2144C9.15137 13.218 9.14718 13.2205 9.14568 13.2213L9.14565 13.2213C9.14394 13.2223 9.14041 13.2242 9.13766 13.2257C9.13629 13.2265 9.13512 13.2271 9.13447 13.2275C9.12731 13.2314 9.11842 13.2368 9.10871 13.245C9.0898 13.2609 9.06635 13.2884 9.05019 13.3393C9.04068 13.3693 9.01793 13.3878 8.9936 13.3855C8.96927 13.3832 8.94874 13.3605 8.94253 13.329C8.93272 13.2793 8.92951 13.2325 8.93803 13.1909C8.94739 13.1452 8.96922 13.1141 8.99607 13.0959C9.02022 13.0796 9.04661 13.0749 9.06731 13.0732C9.08308 13.0719 9.10032 13.0721 9.1146 13.0722ZM9.10008 13.0819C9.10047 13.0817 9.10055 13.0817 9.1002 13.0819C9.10016 13.0819 9.10012 13.0819 9.10008 13.0819ZM9.14801 13.4861C9.14804 13.4861 9.14807 13.4861 9.13961 13.5613L9.14807 13.4861C9.16876 13.4902 9.18609 13.5091 9.19322 13.5354C9.20035 13.5616 9.19613 13.5909 9.18223 13.6118C9.17525 13.6223 9.16756 13.6279 9.16582 13.6291C9.16576 13.6292 9.1657 13.6292 9.16566 13.6292C9.16295 13.6312 9.1604 13.6328 9.15922 13.6335C9.15782 13.6343 9.15685 13.6349 9.15602 13.6354C9.15477 13.6361 9.15384 13.6367 9.1522 13.6377C9.14822 13.6402 9.14307 13.6439 9.13702 13.65C9.12527 13.6619 9.10636 13.6869 9.08849 13.7405C9.0784 13.7708 9.05474 13.7889 9.03003 13.7852C9.00532 13.7815 8.98526 13.7569 8.98044 13.7244C8.97235 13.6698 8.97483 13.6201 8.99085 13.5784C9.00714 13.5359 9.03338 13.5121 9.05733 13.4995C9.08051 13.4872 9.1033 13.4843 9.11874 13.4839C9.12677 13.4837 9.1336 13.4842 9.13859 13.4847C9.14111 13.485 9.1432 13.4853 9.14479 13.4855C9.14559 13.4856 9.14627 13.4858 9.14682 13.4859L9.14754 13.486L9.14783 13.486L9.14796 13.4861L9.14801 13.4861ZM9.80949 15.5251C9.82144 15.5657 9.82278 15.6131 9.8149 15.6663C9.81009 15.6989 9.79002 15.7235 9.76531 15.7272C9.7406 15.7308 9.71695 15.7128 9.70685 15.6825C9.68773 15.6251 9.66956 15.5934 9.65784 15.5764C9.65196 15.5679 9.64715 15.5623 9.64335 15.558C9.64317 15.5578 9.64292 15.5575 9.64263 15.5571C9.64104 15.5554 9.63804 15.552 9.63587 15.5493C9.63455 15.5476 9.63123 15.5434 9.62792 15.5376L9.62786 15.5375C9.62574 15.5337 9.61591 15.5164 9.61591 15.4903C9.61591 15.4509 9.63854 15.418 9.66802 15.4146L9.67294 15.4903C9.66802 15.4146 9.66805 15.4146 9.66809 15.4145L9.66815 15.4145L9.6683 15.4145L9.66862 15.4145L9.66939 15.4144C9.66997 15.4144 9.67066 15.4143 9.67146 15.4143C9.67305 15.4142 9.67509 15.4141 9.67751 15.4141C9.68232 15.414 9.68881 15.4143 9.69638 15.4155C9.71104 15.4177 9.73235 15.4234 9.75358 15.4394C9.77577 15.456 9.79719 15.4834 9.80949 15.5251ZM29.5598 23.1711C29.5686 23.1426 29.5895 23.1239 29.6126 23.1239H29.6169C29.6452 23.1239 29.6692 23.1515 29.6733 23.1888C29.6747 23.2014 29.6774 23.2134 29.6814 23.23L29.6825 23.2346C29.6861 23.2493 29.691 23.269 29.6939 23.2901C29.7015 23.344 29.6962 23.4009 29.6663 23.4701C29.656 23.4941 29.6367 23.5087 29.616 23.5082C29.5953 23.5078 29.5763 23.4924 29.5666 23.468C29.5322 23.3821 29.5281 23.2745 29.5598 23.1711Z" fill="white"/>
</g>
<rect x="2" y="2" width="36" height="36" rx="18" stroke="white" stroke-width="4"/>
<defs>
<clipPath id="clip0_90_37905">
<rect x="4" y="4" width="32" height="32" rx="16" fill="white"/>
</clipPath>
</defs>
</svg>
