<svg width="40" height="40" viewBox="0 0 40 40" fill="none" xmlns="http://www.w3.org/2000/svg">
<g clip-path="url(#clip0_90_37887)">
<path d="M4 4H36V36H4V4Z" fill="#74ACDF"/>
<path d="M4.00012 14.6666H36.0001V25.3333H4.00012V14.6666Z" fill="white"/>
<path d="M19.8462 20.0832L21.2142 24.0512C21.2142 24.0512 21.2382 24.128 21.2766 24.1088C21.315 24.0832 21.291 24.0064 21.291 24.0064L20.1534 19.9104M20.1198 21.4592C20.1006 22.0608 20.379 22.3936 20.3454 22.9312C20.307 23.4752 20.5278 23.776 20.5854 23.9872C20.6334 24.1984 20.5278 24.32 20.571 24.352C20.619 24.384 20.715 24.2176 20.6862 23.9168C20.6526 23.6224 20.4846 23.5328 20.523 22.8736C20.5614 22.2144 20.3214 22.0608 20.379 21.4656" fill="#F6B40E"/>
<path fill-rule="evenodd" clip-rule="evenodd" d="M21.3157 23.9937L20.1782 19.8981L20.1287 19.9226L21.2665 24.0192L21.2666 24.0198L21.2667 24.0198L21.2667 24.0199L21.2667 24.02C21.2668 24.0203 21.267 24.0209 21.2672 24.0216C21.2676 24.0232 21.2682 24.0256 21.2688 24.0285C21.2702 24.0347 21.2715 24.0425 21.2719 24.0505C21.2728 24.0662 21.2701 24.0729 21.2661 24.0763C21.2631 24.0772 21.2587 24.076 21.2511 24.0642C21.2473 24.0583 21.244 24.0515 21.2417 24.0459C21.2406 24.0431 21.2398 24.0409 21.2392 24.0394C21.239 24.0388 21.2389 24.0383 21.2388 24.038L21.2387 24.0378L21.2386 24.0376L21.2386 24.0375L21.2384 24.037L20.3972 21.5968C20.3983 21.5569 20.4009 21.5148 20.4052 21.4701L20.3529 21.4611C20.3527 21.463 20.3525 21.4649 20.3523 21.4668L19.8702 20.0685L19.8223 20.0979L20.344 21.6112C20.3398 21.8343 20.3789 21.9944 20.4188 22.1565L20.4193 22.1588C20.4669 22.3522 20.5154 22.5497 20.4967 22.8708C20.4773 23.2052 20.5101 23.3977 20.5531 23.5447C20.5668 23.5919 20.582 23.6353 20.5962 23.6759C20.6035 23.6968 20.6106 23.7169 20.617 23.7365C20.6364 23.795 20.6522 23.8525 20.6601 23.9216C20.6739 24.0664 20.6574 24.1762 20.6335 24.2442C20.6215 24.2786 20.6082 24.3006 20.5972 24.3119C20.5931 24.3161 20.5899 24.3184 20.5875 24.3195C20.5875 24.3192 20.5876 24.3189 20.5876 24.3185C20.5888 24.3113 20.591 24.3021 20.5942 24.2897C20.5951 24.2862 20.5961 24.2825 20.5972 24.2785C20.5997 24.2692 20.6024 24.2587 20.6051 24.2478C20.621 24.1836 20.6369 24.0923 20.6107 23.9769L20.6105 23.976L20.6103 23.9751C20.595 23.919 20.5691 23.8579 20.5412 23.7922L20.5391 23.7873C20.5114 23.722 20.481 23.6505 20.4535 23.5694C20.3973 23.4039 20.3531 23.1989 20.3717 22.9345L20.3718 22.9341C20.389 22.6587 20.3266 22.4355 20.2643 22.2124L20.2628 22.2069C20.1998 21.9811 20.1369 21.7536 20.1462 21.4607L20.0935 21.4577C20.0836 21.7663 20.1504 22.006 20.2133 22.2314L20.2135 22.232C20.2766 22.458 20.3353 22.6684 20.3192 22.9281C20.2995 23.2075 20.3464 23.4248 20.4054 23.5985C20.4339 23.6825 20.4653 23.7564 20.4929 23.8213L20.4953 23.8269C20.5236 23.8936 20.5469 23.949 20.5604 23.9983C20.5819 24.0937 20.5691 24.1685 20.555 24.2258C20.5525 24.2359 20.55 24.2451 20.5476 24.2541C20.5465 24.2583 20.5454 24.2624 20.5443 24.2666C20.5411 24.279 20.5379 24.2918 20.536 24.3038C20.5342 24.3154 20.5328 24.33 20.5357 24.3447C20.539 24.3614 20.5469 24.3744 20.5582 24.3827L20.5587 24.3831L20.5592 24.3834C20.5842 24.4001 20.6104 24.3874 20.6295 24.3676C20.6492 24.3473 20.667 24.3149 20.6814 24.2741C20.7102 24.1918 20.7274 24.0681 20.7124 23.9123L20.7124 23.9115C20.7035 23.8336 20.6857 23.7696 20.6653 23.7081C20.658 23.6858 20.6505 23.6644 20.643 23.6429C20.6293 23.6038 20.6155 23.5645 20.6023 23.5192C20.5624 23.383 20.5305 23.2011 20.5494 22.8763C20.5689 22.5411 20.5177 22.3328 20.4696 22.1374L20.4689 22.1346C20.4408 22.0204 20.4141 21.9107 20.4025 21.7808L21.1901 24.0655L21.1904 24.0663C21.1905 24.0667 21.1907 24.0671 21.1909 24.0677C21.191 24.0682 21.1913 24.0688 21.1915 24.0695C21.1924 24.0721 21.1938 24.0757 21.1955 24.0798C21.1989 24.088 21.2041 24.0992 21.211 24.1101C21.2239 24.1302 21.2505 24.1594 21.2859 24.1417L21.2872 24.1411L21.2885 24.1402C21.3222 24.1178 21.3261 24.0729 21.3246 24.0454C21.3238 24.031 21.3215 24.0181 21.3196 24.009C21.3186 24.0043 21.3176 24.0005 21.3168 23.9978C21.3165 23.9964 21.3162 23.9953 21.3159 23.9944L21.3157 23.9937Z" fill="#85340A"/>
<path d="M20.2065 21.5615C20.2305 22.1375 20.4753 22.3935 20.4273 22.9247C20.5329 22.5087 20.2785 22.1823 20.2929 21.5679M19.9233 20.0447L20.8593 22.7711L20.0769 19.9615" fill="#85340A"/>
<path d="M19.9998 21.78C20.7371 21.78 21.3348 20.983 21.3348 20C21.3348 19.0169 20.7371 18.22 19.9998 18.22C19.2625 18.22 18.6648 19.0169 18.6648 20C18.6648 20.983 19.2625 21.78 19.9998 21.78Z" fill="#F6B40E"/>
<path fill-rule="evenodd" clip-rule="evenodd" d="M20 18.2667C19.282 18.2667 18.7 19.0427 18.7 20C18.7 20.9573 19.282 21.7333 20 21.7333C20.718 21.7333 21.3 20.9573 21.3 20C21.3 19.0427 20.718 18.2667 20 18.2667ZM18.63 20C18.63 18.9912 19.2434 18.1733 20 18.1733C20.7566 18.1733 21.37 18.9912 21.37 20C21.37 21.0088 20.7566 21.8267 20 21.8267C19.2434 21.8267 18.63 21.0088 18.63 20Z" fill="#85340A"/>
<path d="M20.4497 19.62C20.3647 19.62 20.2747 19.6733 20.2247 19.78C20.3247 19.9067 20.5547 19.9133 20.7097 19.7667C20.677 19.7203 20.6375 19.6834 20.5936 19.6582C20.5498 19.6329 20.5025 19.62 20.4547 19.62H20.4497ZM20.4497 19.6467C20.5397 19.6467 20.6247 19.7 20.6347 19.7533C20.5347 19.9067 20.3697 19.8867 20.2647 19.78C20.3147 19.6867 20.3847 19.6467 20.4547 19.6467H20.4497Z" fill="#843511"/>
<path d="M19.8002 20.2466C19.7863 20.251 19.7734 20.2597 19.7625 20.2721C19.7516 20.2844 19.7431 20.3 19.7377 20.3176C19.7322 20.3352 19.73 20.3543 19.7311 20.3732C19.7323 20.3922 19.7368 20.4105 19.7444 20.4267C19.7519 20.4429 19.7622 20.4564 19.7744 20.4662C19.7867 20.4761 19.8005 20.4819 19.8147 20.4832C19.829 20.4844 19.8432 20.4812 19.8563 20.4737C19.8695 20.4662 19.881 20.4546 19.8902 20.44C19.9231 20.4673 19.9614 20.4812 20.0002 20.48H20.0102C20.0402 20.48 20.0902 20.4733 20.1252 20.44C20.1402 20.4733 20.1702 20.4866 20.2002 20.4866C20.224 20.4893 20.2477 20.4792 20.266 20.4586C20.2843 20.4379 20.2957 20.4085 20.2977 20.3766C20.2996 20.3448 20.2921 20.3132 20.2766 20.2889C20.2611 20.2645 20.239 20.2493 20.2152 20.2466C20.2402 20.26 20.2552 20.2866 20.2552 20.3266C20.2552 20.3479 20.2488 20.3682 20.2376 20.3832C20.2263 20.3982 20.2111 20.4066 20.1952 20.4066C20.1792 20.4066 20.164 20.3982 20.1527 20.3832C20.1415 20.3682 20.1352 20.3479 20.1352 20.3266C20.1233 20.3596 20.1049 20.3875 20.082 20.4075C20.0591 20.4275 20.0325 20.4387 20.0052 20.44C19.9787 20.4375 19.9531 20.4258 19.9312 20.4058C19.9092 20.3859 19.8916 20.3586 19.8802 20.3266C19.8802 20.3733 19.8502 20.4066 19.8152 20.4066C19.7852 20.4066 19.7552 20.3666 19.7552 20.3266C19.7552 20.2866 19.7702 20.26 19.7952 20.2466H19.8002ZM19.9002 20.6066C19.7952 20.6066 19.7502 20.74 19.6602 20.8133C19.7102 20.7866 19.7502 20.7333 19.8252 20.68C19.8952 20.6266 19.9552 20.6933 20.0002 20.6933C20.0402 20.6933 20.1002 20.6266 20.1752 20.68C20.2452 20.7333 20.2902 20.7866 20.3402 20.8133C20.2452 20.7333 20.2052 20.6133 20.1002 20.6133C20.0802 20.6133 20.0402 20.6266 20.0002 20.6533L19.9002 20.6066Z" fill="#85340A"/>
<path d="M19.8601 20.7734C19.8201 20.7734 19.7701 20.7867 19.6901 20.8134C19.8751 20.76 19.9151 20.8467 20.0001 20.8467C20.0801 20.8467 20.1251 20.76 20.3051 20.8134C20.1051 20.7334 20.0601 20.7867 20.0001 20.7867C19.9601 20.7867 19.9301 20.7667 19.8601 20.7734Z" fill="#85340A"/>
<path d="M19.7002 20.8133H19.6602C19.8752 20.8466 19.7752 21.0133 20.0002 21.0133C20.2252 21.0133 20.1252 20.8466 20.3402 20.8133C20.1152 20.7866 20.1852 20.9666 20.0002 20.9666C19.8252 20.9666 19.8802 20.8133 19.7002 20.8133Z" fill="#85340A"/>
<path d="M20.1848 21.26C20.1848 21.1946 20.1653 21.1318 20.1306 21.0856C20.0959 21.0393 20.0489 21.0133 19.9998 21.0133C19.9508 21.0133 19.9037 21.0393 19.869 21.0856C19.8343 21.1318 19.8148 21.1946 19.8148 21.26C19.8246 21.2043 19.8482 21.1547 19.8818 21.1192C19.9154 21.0837 19.957 21.0644 19.9998 21.0644C20.0427 21.0644 20.0843 21.0837 20.1179 21.1192C20.1515 21.1547 20.1751 21.2043 20.1848 21.26Z" fill="#85340A"/>
<path d="M19.1702 19.62C19.4052 19.3467 19.7052 19.3 19.8702 19.5067C19.9082 19.5733 19.9339 19.651 19.9452 19.7334C19.9652 19.8934 19.9302 20.06 19.8402 20.2334L19.8802 20.26C19.9602 20.0534 19.9902 19.84 19.9602 19.6334L19.9302 19.48C19.7052 19.2334 19.3952 19.2134 19.1702 19.6134V19.62Z" fill="#85340A"/>
<path d="M19.5401 19.5333C19.6751 19.5333 19.7051 19.5733 19.7651 19.6467C19.8251 19.7133 19.8601 19.7 19.8651 19.7133C19.8801 19.7267 19.8651 19.7667 19.8501 19.7533C19.8251 19.74 19.7851 19.7133 19.7251 19.6467C19.6651 19.58 19.6001 19.58 19.5401 19.58C19.3551 19.58 19.2551 19.78 19.2351 19.7667C19.2101 19.7533 19.3351 19.5333 19.5401 19.5333Z" fill="#85340A"/>
<path d="M19.545 19.8733C19.5947 19.8733 19.635 19.8196 19.635 19.7533C19.635 19.687 19.5947 19.6333 19.545 19.6333C19.4952 19.6333 19.455 19.687 19.455 19.7533C19.455 19.8196 19.4952 19.8733 19.545 19.8733Z" fill="#85340A"/>
<path d="M19.2949 19.8334C19.4699 20.0134 19.6449 20 19.7449 19.92C19.8449 19.8334 19.8449 19.8067 19.8249 19.8067C19.8049 19.8067 19.7849 19.8334 19.7049 19.8934C19.6199 19.9467 19.4999 19.9467 19.2949 19.8334V19.8334Z" fill="#85340A"/>
</g>
<rect x="2" y="2" width="36" height="36" rx="18" stroke="white" stroke-width="4"/>
<defs>
<clipPath id="clip0_90_37887">
<rect x="4" y="4" width="32" height="32" rx="16" fill="white"/>
</clipPath>
</defs>
</svg>
