<svg width="40" height="40" viewBox="0 0 40 40" fill="none" xmlns="http://www.w3.org/2000/svg">
<g clip-path="url(#clip0_90_37816)">
<path d="M4 4H36V36H4V4Z" fill="#000066"/>
<path d="M3.96973 20L35.9697 4V36L3.96973 20Z" fill="#BD1021"/>
<path d="M6.98486 20L35.9849 5.71332V34.2867" fill="white"/>
<path d="M27.6997 22.0267C27.9547 22.0467 27.9497 22.3867 27.9497 22.3867L28.8497 22.4133C28.9647 21.9933 29.0897 22.04 29.3097 22.2533C29.4436 22.3747 29.5902 22.469 29.7447 22.5333C29.8297 21.9333 30.4697 22.0533 30.4697 22.0533C30.7497 21.1867 30.7697 21.1933 30.6047 21.0867C30.5068 21.0205 30.4265 20.9158 30.3747 20.7867C30.2247 20.54 30.1447 20.18 30.1247 19.96C30.1047 19.74 29.9147 20.0667 29.8747 20C29.8447 19.9333 29.5597 19.9733 29.5597 19.9733C29.6297 20.0733 29.3897 20.0133 29.3897 20.0133C29.4147 20.04 29.3897 20.1267 29.3897 20.1267C29.3697 20.0867 29.1847 20.0467 29.1847 20.0467C29.1708 20.0859 29.1522 20.1219 29.1297 20.1533C29.0297 20.1 28.8297 20.1067 28.8297 20.1067C28.6384 20.0981 28.4492 20.1628 28.2847 20.2933C28.2047 20.3533 27.9147 20.5467 27.6697 20.86C27.4347 21.1667 27.2997 21.1267 27.2997 21.1267C27.2297 21.4733 26.6597 21.8933 26.6597 21.8933C26.5697 22 26.2797 22.0533 26.1347 21.8933C25.9897 21.7333 26.1347 21.4333 26.1347 21.4333C26.1947 21.3 26.2447 21.3067 26.2497 20.8333C26.2547 20.52 26.4997 20.2667 26.7497 19.9C27.0647 19.4467 27.4997 18.7 27.4997 18.7C27.4997 18.9267 27.5897 18.9667 27.5897 18.9667C27.6747 18.7333 27.7997 18.5467 27.7997 18.5467C27.8047 18.5667 27.8247 18.5733 27.8247 18.5733C27.9247 18.4 27.9747 18.3333 27.9747 18.3333C27.9497 18.3133 27.6747 18.3333 27.4247 18.6267C27.1747 18.92 27.0047 18.8267 27.0047 18.8267C26.8297 18.7467 26.8147 18.56 26.8147 18.56C26.6897 17.8333 27.1847 17.3133 27.1847 17.3133C26.5147 17.1 26.9997 15.96 27.8347 15.48C28.6647 15 28.6547 14.78 28.6547 14.78C28.6913 14.841 28.7216 14.9082 28.7447 14.98C28.7497 14.98 28.8147 14.8533 29.2947 14.5733C29.7747 14.2867 30.0047 14.04 30.0047 14.04C30.0647 14.2 30.0547 14.3067 30.0547 14.3067C31.3697 13.7 32.6547 12.2933 32.6547 12.2933C32.6947 12.4067 32.6797 12.5867 32.6797 12.5867C32.8897 12.32 33.6647 11.7067 33.6647 11.7067C33.6703 11.8177 33.6515 11.9285 33.6107 12.0256C33.5699 12.1227 33.5087 12.2018 33.4347 12.2533C33.4541 12.3013 33.4676 12.353 33.4747 12.4067C33.7185 12.2033 33.9585 11.9921 34.1947 11.7733C34.4097 12.02 34.2147 12.4267 34.2147 12.4267C34.2947 12.4067 34.3447 12.32 34.3447 12.32C34.4047 12.7467 34.0497 13.12 34.0497 13.12C34.1147 13.12 34.2147 13.0333 34.2147 13.0333C34.1497 13.5 33.4947 14.0067 33.4947 14.0067C33.5897 14.1267 33.4947 14.2733 33.4147 14.34C33.3397 14.4067 33.1997 14.56 33.2447 14.62C33.2847 14.6867 33.5797 14.4067 33.5797 14.4067C33.6297 14.6 33.2547 14.98 33.2547 14.98C33.5147 15.0267 34.2347 14.5867 34.2347 14.5867C34.1797 14.96 33.9047 15.2533 33.5697 15.42C33.2347 15.5867 33.2497 15.62 33.2497 15.62C33.3097 15.6733 33.7747 15.5 33.7747 15.5C33.6347 15.9133 33.1497 16.2 33.1497 16.2C33.2847 16.3533 33.4647 16.1733 33.6497 16.0067C33.8678 15.8237 34.1032 15.6803 34.3497 15.58C34.6147 15.4533 34.8097 15.5467 34.8097 15.5467C35.0397 15.4533 35.2297 15.5867 35.2297 15.5867C35.6647 15.6333 35.7097 15.8467 35.7097 15.8467C35.7597 15.86 35.7947 15.8867 35.9097 16C36.0147 16.1067 36.0097 16.44 36.0097 16.6133C35.9997 16.7733 35.9647 16.7733 35.9447 16.8133C35.9247 16.8667 35.9197 16.92 35.9197 16.98C35.9197 17.0467 35.8097 17.44 35.1347 17.44H34.1197C34.0597 17.44 33.9947 17.4867 33.9947 17.4867C33.7097 17.6733 33.8597 17.3533 33.5247 17.7267C33.1847 18.0933 33.0147 18.0333 33.0147 18.0333C32.8259 18.2908 32.62 18.5251 32.3997 18.7333C32.1997 18.9067 32.2347 18.8867 32.4147 18.9867C32.5947 19.0867 32.8547 18.9867 32.8547 18.9867C32.6847 19.14 32.8047 19.2133 32.8047 19.2133C33.0247 19.0333 33.1647 19.1 33.1647 19.1C33.2347 19.36 32.9747 19.7667 32.9747 19.7667C33.0747 19.7867 33.2647 19.7667 33.2647 19.7667C33.2147 19.9467 33.0347 20.14 32.8947 20.1933C32.7597 20.26 32.7797 20.28 32.8247 20.3933C32.8597 20.5 32.8297 20.6133 32.8297 20.6133C32.5897 20.3933 32.5797 20.5867 32.5797 20.5867C32.5547 20.8533 32.5597 21.2267 32.5597 21.2267C32.3897 21.1133 32.3847 21.26 32.3847 21.26C32.3347 21.5 32.1297 21.7733 32.1297 21.7733C32.1197 21.6267 32.0197 21.5867 32.0197 21.5867C31.9097 21.8667 31.7147 22.0333 31.7147 22.0333C31.6897 22.2667 31.7397 22.6067 31.7397 22.6067C31.6097 22.5667 31.5647 22.5667 31.5397 22.6067C31.5247 22.6533 31.5697 22.6733 31.5697 22.6733L33.2397 22.7267C33.2647 22.7267 33.3647 22.7467 33.3647 22.98C33.3647 23.2267 33.2147 23.24 33.2147 23.24L31.3947 23.18C31.3947 23.18 31.3997 23.2467 31.3047 23.3133C31.2097 23.38 31.2447 23.24 31.2197 23.54C31.1897 23.8333 30.8297 23.5133 30.8297 23.5133C30.7697 23.6333 30.6297 23.78 30.6297 23.78C30.5447 23.4467 30.4597 23.3533 30.3297 23.6333C30.1997 23.92 30.5697 23.8733 30.5697 23.8733C30.5697 23.8733 32.7097 23.4533 32.8247 23.44C32.9397 23.42 33.0697 23.4333 33.1247 23.6467C33.1747 23.8667 32.8597 23.9 32.8597 23.9L30.6597 24.22C30.6147 24.3933 30.4347 24.38 30.4347 24.38C30.4497 24.5467 30.3197 24.6467 30.2547 24.7133C30.1847 24.7667 29.9747 24.7467 29.9747 24.7467C29.7247 24.9733 29.5947 24.7933 29.5947 24.7933C29.4297 24.8867 29.3247 24.8467 29.1897 24.7667C29.0497 24.6867 29.0647 24.4667 29.0647 24.4667L27.6747 24.6667C27.6346 24.6839 27.5973 24.711 27.5647 24.7467C27.6147 24.8333 27.4647 25.0333 27.4647 25.0333C27.5097 25.0667 27.5897 25.1733 27.5997 25.4C27.6097 25.6467 27.3747 25.6867 27.4897 25.8667C27.6047 26.0333 27.8247 25.8867 28.0647 25.7333C28.3047 25.58 28.5397 25.6 28.6397 25.6C28.7397 25.6 29.0297 25.7067 29.2097 25.7867C29.3897 25.8667 29.4497 25.8133 29.4597 25.6933C29.4697 25.58 29.5547 25.54 29.5547 25.54C29.5297 25.66 29.5797 25.7133 29.5797 25.7133C29.6448 25.6995 29.7074 25.6701 29.7647 25.6267C29.7547 25.72 29.6647 25.7733 29.6647 25.7733C29.4947 25.9267 29.7347 25.8733 29.7347 25.8733C30.2097 25.74 30.3847 25.7533 30.5047 25.7733C30.7482 25.869 30.987 25.9848 31.2197 26.12C31.2397 26.04 31.2247 25.8533 31.2247 25.8533C31.3747 25.9067 31.4347 26.02 31.4347 26.02C31.4947 25.94 31.4547 25.7933 31.4547 25.7933C31.9397 26.16 31.3547 26.3267 31.1997 26.3933C31.0497 26.46 31.0497 26.5467 31.0497 26.5467C31.1747 26.4933 31.2647 26.4733 31.3697 26.46C31.4797 26.4467 31.4397 26.46 31.6947 26.3933C31.9547 26.3267 32.0847 26.4733 32.0847 26.4733C31.8697 26.4867 31.8097 26.5733 31.8097 26.5733C31.9397 26.6867 31.8097 26.8 31.8097 26.8C31.6197 26.4667 31.4497 26.8067 31.4497 26.8067C31.5602 26.8066 31.6694 26.8384 31.7697 26.9L32.0397 27.08C32.2197 27.1867 32.1847 27.12 32.3197 27.1867C32.4597 27.2533 32.4047 27.4333 32.4047 27.4333C32.3497 27.2867 32.2197 27.2333 32.2197 27.2333C32.2097 27.4333 32.0647 27.4667 32.0647 27.4667C32.2447 27.2 31.8597 27.08 31.6747 27.0867C31.4947 27.0867 31.3597 27.2467 31.3597 27.2467C31.7247 27.7067 31.9747 27.5533 31.9747 27.5533C31.9297 27.72 31.6297 27.6533 31.6297 27.6533C31.7697 27.8 31.7547 27.8933 31.7547 27.8933C31.6797 27.8 31.5547 27.8467 31.2947 27.6267C31.0347 27.3933 30.7997 27.4733 30.7997 27.4733C31.0597 27.8267 30.7097 28.0467 30.7097 28.0467C30.5797 28.1533 30.7597 28.28 30.7597 28.28C30.5997 28.32 30.5797 28.1067 30.5797 28.1067C30.4947 28.08 30.3697 28.2133 30.3697 28.2133C30.3797 28 30.5997 28.1067 30.5997 27.88C30.6097 27.6467 30.3997 27.4667 29.7847 27.58C29.1647 27.6933 28.9847 27.4333 28.9847 27.4333C28.9347 27.4333 28.9247 27.5 28.9247 27.5C29.0247 27.6333 29.0697 27.6867 29.0547 27.78C29.0347 27.8667 29.0847 27.9 29.0847 27.9C28.9697 27.8867 28.9647 27.7133 28.9647 27.7133C28.9647 27.7867 28.9397 27.7933 28.8997 27.8667C28.8597 27.94 28.8997 28.0467 28.8997 28.0467C28.8497 27.9933 28.7647 27.9267 28.8497 27.76C28.9097 27.64 28.7147 27.48 28.7147 27.48C28.6397 27.38 28.4347 27.48 28.4347 27.48C28.3172 27.5135 28.1953 27.5085 28.0795 27.4655C27.9637 27.4226 27.8574 27.3429 27.7697 27.2333C27.7197 27.2333 27.6247 27.1933 27.6247 27.1933C27.1797 27.46 26.7897 26.8867 26.7897 26.8867C26.4547 26.9733 26.2997 26.7533 26.1997 26.54C26.1421 26.3946 26.0509 26.2777 25.9397 26.2067C25.8097 26.1 25.6797 25.7933 25.8097 25.6267C25.9097 25.4867 25.8847 25.4533 25.8847 25.4533C25.7097 25.06 26.1897 24.94 26.1997 24.84C26.2147 24.7067 26.3147 24.62 26.4247 24.6133C26.5347 24.6 26.5347 24.6133 26.6097 24.52C26.6747 24.42 26.8097 24.54 26.8097 24.54C26.8447 24.5133 27.0847 24.2667 27.2947 24.3933C27.5097 24.52 27.6897 24.4333 27.6897 24.4333C27.8397 24.3867 29.0897 24.1667 29.0897 24.1667C29.1647 24 29.2247 23.8067 29.5697 23.7C29.9147 23.5933 30.1697 23.3 30.1697 23.3C30.1097 23.22 30.0097 23.22 29.9597 23.2133C29.9047 23.2133 29.7997 23.08 29.7997 23.08C29.7347 23.12 29.6997 23.1 29.2497 23.4667C28.8447 23.8 28.8347 23.1467 28.8347 23.1467H27.9497C27.9347 23.3933 27.7997 23.4933 27.7997 23.4933L27.4747 23.5133C27.2947 23.3933 27.2947 22.9667 27.2947 22.9667C26.3247 22.9867 25.7897 23.4467 25.7897 23.4467C24.6897 22.7 23.8297 22.5267 23.8297 22.5267C24.534 22.4586 25.2242 22.2286 25.8697 21.8467C26.302 22.1955 26.7906 22.4012 27.2947 22.4467C27.3197 22.0867 27.4997 22 27.4997 22L27.6997 22.0267Z" fill="black"/>
<path d="M26.1147 24.9733C25.8397 25.1866 25.8897 25.3066 25.9147 25.3733C25.9397 25.44 25.9397 25.5066 25.8647 25.6133C25.7897 25.7133 25.7947 25.7466 25.7947 25.7466C25.8097 26.1066 25.9947 26.1866 26.0797 26.28C26.1497 26.3466 26.2597 26.58 26.2597 26.58C26.4047 26.8533 26.5547 26.86 26.6647 26.86C26.7797 26.86 26.7647 26.84 26.7147 26.7733L26.5447 26.5933C26.6561 26.6564 26.7566 26.7494 26.8397 26.8666C27.1197 27.28 27.3797 27.2266 27.4947 27.2133C27.6097 27.1933 27.5947 27.1 27.5947 27.1C27.5558 27.0839 27.5155 27.0749 27.4747 27.0733C27.0497 27.02 26.9247 26.6466 26.9247 26.6466C27.1406 26.8998 27.4173 27.0416 27.7047 27.0466C27.8247 27.04 27.8197 27.0866 27.7897 27.1L27.6697 27.0866C27.6147 27.0866 27.6147 27.1066 27.6247 27.14C27.6397 27.1666 27.6947 27.1666 27.7597 27.1666C27.8297 27.1666 27.7747 27.1733 27.9497 27.3533C28.1297 27.54 28.5647 27.3866 28.5647 27.3866C28.2797 27.3 28.2447 27.12 28.2447 27.12C27.8597 27.1866 27.7047 26.88 27.7047 26.88C27.6176 26.7897 27.5238 26.7115 27.4247 26.6466C27.2147 26.52 27.1747 26.26 27.1747 26.26C27.2397 26.38 27.3597 26.5133 27.5097 26.5666C27.6597 26.62 27.6997 26.6466 27.6997 26.6466C27.6613 26.6582 27.6211 26.6535 27.5847 26.6333C27.4347 26.5666 27.5197 26.6533 27.5197 26.6533C27.6897 26.8333 27.7347 26.82 27.7347 26.82C28.1647 26.88 27.9497 26.6466 27.9497 26.6466C28.2597 26.7466 28.3097 26.5933 28.3097 26.5933C28.3747 26.7733 28.6097 26.7066 28.6097 26.7066C28.2997 26.9066 28.5347 26.8466 28.5347 26.8466C28.8497 26.7733 28.9147 26.88 28.9147 26.88C28.9947 26.98 29.0847 26.9733 29.0847 26.9733C29.0847 26.9733 29.1447 26.9733 29.2597 27C29.3797 27.0333 29.5697 27.1666 29.7397 27.1466C29.9147 27.1133 29.9397 27.1866 29.9397 27.1866C29.9097 27.1666 29.8297 27.1533 29.6997 27.2333C29.5647 27.32 29.3297 27.34 28.9897 27.2333C28.6497 27.1266 28.6197 27.1466 28.6197 27.1466C28.7047 27.22 28.7747 27.34 28.7897 27.4133C28.8047 27.4933 28.8647 27.4933 28.8647 27.4933C28.8897 27.3933 28.9897 27.3533 28.9897 27.3533C29.0679 27.4272 29.1517 27.4897 29.2397 27.54C29.2597 27.4933 29.2397 27.4533 29.2397 27.4533C29.3697 27.62 29.5197 27.5666 29.5197 27.5666C29.5597 27.5333 29.5497 27.4333 29.5497 27.4333C29.5997 27.4333 29.6097 27.4733 29.6497 27.5133C29.6847 27.54 29.7997 27.52 29.7997 27.52C29.7597 27.4933 29.7247 27.4066 29.7247 27.4066C29.8997 27.2533 30.2747 27.32 30.2747 27.32C30.5397 27.3866 30.5097 27.62 30.5097 27.62C30.5569 27.6572 30.5991 27.7045 30.6347 27.76C30.6597 27.68 30.6347 27.5933 30.6347 27.5933C30.7647 27.6733 30.7847 27.86 30.7847 27.86C30.9347 27.6466 30.6497 27.4066 30.6497 27.4066C30.7847 27.38 30.9347 27.3933 31.0247 27.4066C31.1467 27.4348 31.2606 27.5062 31.3547 27.6133C31.4597 27.7266 31.6497 27.78 31.6497 27.78C31.6447 27.7333 31.5397 27.6466 31.5147 27.6333C31.4947 27.62 31.4847 27.5733 31.4847 27.5733C31.5797 27.6 31.6397 27.5866 31.6397 27.5866C31.3197 27.32 31.2347 27.1933 31.2347 27.1933C31.3547 27.2133 31.4247 27.1133 31.4247 27.1133C31.1697 27.1133 31.1547 27.0333 31.1547 27.0333C31.1897 27.04 31.3097 27.08 31.4647 27.04C31.6197 27 31.8247 27.04 31.8247 27.04C31.7147 26.8 31.2897 26.84 31.1497 26.8533C31.0097 26.8666 30.9597 26.84 30.9597 26.84C30.9797 26.8266 31.0047 26.8 31.1097 26.7933C31.2197 26.7933 31.3247 26.8066 31.4497 26.6866C31.5647 26.58 31.7347 26.62 31.7347 26.62C31.6947 26.5133 31.4997 26.4733 31.3347 26.62C31.1597 26.76 31.0097 26.72 31.0097 26.72C31.2747 26.6666 31.3547 26.54 31.3547 26.54C31.2747 26.5133 31.2297 26.5466 31.0647 26.5933C30.9047 26.6333 30.8647 26.56 30.8647 26.56C31.0397 26.42 31.1647 26.36 31.1647 26.36C31.0147 26.32 30.8747 26.2266 30.8747 26.2266C30.7147 26.4266 30.5947 26.5333 30.2897 26.3333C29.9897 26.12 29.8297 26.1466 29.8297 26.1466C30.0997 25.94 30.3697 26.0266 30.5697 26.1866C30.7697 26.34 30.8197 26.2133 30.8197 26.2133C30.7597 26.1666 30.7697 26.1133 30.7697 26.1133C31.2497 26.44 31.4597 26.2466 31.5647 26.1466C31.6697 26.0466 31.5147 25.92 31.5147 25.92C31.5047 26.12 31.3147 26.2266 31.1547 26.1533C31.0047 26.0866 30.8547 25.9933 30.6347 25.8666C30.4147 25.7466 30.1347 25.8133 29.8797 25.88C29.6197 25.9533 29.5847 25.92 29.5597 25.8933C29.5347 25.8666 29.5247 25.78 29.3897 25.8533C29.2597 25.9266 28.9497 25.7333 28.7597 25.6733C28.5697 25.6066 28.2547 25.64 27.9847 25.84C27.7147 26.0466 27.5747 25.9933 27.4947 25.9466C27.4147 25.8933 27.3597 25.76 27.4497 25.64C27.5397 25.52 27.5497 25.4866 27.5397 25.3066C27.5297 25.1333 27.3997 25.0266 27.3997 25.0266C27.5197 24.86 27.5497 24.8266 27.5097 24.76C27.4697 24.68 27.5297 24.68 27.5997 24.64C27.6697 24.6 27.6397 24.5933 27.6247 24.54C27.6047 24.4866 27.5647 24.5 27.5647 24.5C27.4097 24.5066 27.3197 24.4466 27.3197 24.4466C27.0597 24.2866 26.8147 24.6 26.8147 24.6C26.6647 24.4466 26.6297 24.5533 26.6047 24.5866C26.5797 24.62 26.5247 24.6533 26.4547 24.6533C26.3947 24.6666 26.2997 24.7 26.2647 24.78C26.2647 24.78 26.2347 24.8466 26.2697 24.9133C26.2697 24.9133 26.3097 24.9933 26.2397 25.0933C26.1647 25.1933 26.1397 25.2133 26.1647 25.3133C26.1847 25.4 26.1797 25.4733 26.1497 25.5333C26.1497 25.5333 26.1147 25.4866 26.1247 25.42C26.1347 25.3533 26.1347 25.3133 26.1247 25.2866C26.1247 25.2866 26.0497 25.38 26.0347 25.4466C26.0347 25.4466 26.0047 25.34 26.1147 25.2C26.2147 25.0666 26.2647 24.9866 26.2347 24.9333C26.2147 24.8933 26.1347 24.96 26.1197 24.9733H26.1147Z" fill="#FFC221"/>
<path d="M26.4196 26.5333C26.4196 26.5333 26.2846 26.4 26.2996 26.2067C26.3146 26.0267 26.3146 26.0067 26.2996 25.96C26.2996 25.96 26.2746 25.98 26.2796 26.0533C26.2796 26.12 26.2696 26.1933 26.2646 26.2067C26.2646 26.2067 26.1996 26.0533 26.1646 26.02C26.1646 26.02 26.1946 25.86 26.1546 25.7933C26.1196 25.72 26.0796 25.7133 26.0346 25.74C25.9746 25.7667 25.9296 25.84 26.1346 26.06C26.1346 26.06 26.2096 26.1467 26.2596 26.32C26.3096 26.4933 26.3996 26.52 26.4146 26.5333H26.4196ZM27.0696 26.0133C27.0696 26.0133 27.0646 25.9133 27.1346 25.7267C27.1593 25.6706 27.1736 25.6074 27.1762 25.5424C27.1788 25.4775 27.1697 25.4126 27.1496 25.3533C27.1346 25.3 27.1196 25.32 27.1946 25.24C27.2796 25.14 27.1596 25.0133 27.3096 24.84C27.3096 24.84 27.3996 24.7333 27.4246 24.6867C27.4246 24.6867 27.2746 24.7933 27.1646 24.8533C27.0646 24.9067 26.6846 25.16 26.7646 25.3267C26.8546 25.4933 26.8446 25.5067 26.8296 25.58C26.8296 25.58 26.5996 25.4133 26.6796 25.1533C26.6796 25.1533 26.7196 25.0533 26.8146 24.9267C26.9046 24.82 26.8546 24.9533 27.0296 24.8133C27.0296 24.8133 27.1646 24.7067 27.2446 24.5533C27.2446 24.5533 27.1446 24.6333 27.1146 24.6467C27.1146 24.6467 26.9146 24.7 26.8246 24.8133C26.7446 24.9267 26.5696 25.1267 26.6246 25.3467C26.6246 25.3467 26.4246 25.32 26.3746 25.0333C26.3746 25.0333 25.9946 25.66 26.7946 25.9533C26.7946 25.9533 26.9446 26.0067 27.0746 26.02L27.0696 26.0133Z" fill="black"/>
<path d="M30.58 23.9333C30.88 23.8666 32.6 23.52 32.76 23.5C32.93 23.48 32.995 23.4466 33.055 23.6333C33.12 23.8333 32.815 23.84 32.815 23.84L30.76 24.1533C30.66 24.1666 30.635 24.1133 30.635 24.1133L30.56 23.98C30.56 23.98 30.535 23.94 30.58 23.9266V23.9333Z" fill="#FFC221"/>
<path d="M26.3647 25.1799C26.3647 25.1799 26.1447 25.7999 27.0147 25.9533C27.0147 25.9533 27.0197 25.8866 27.0547 25.7866C27.0947 25.6866 27.1697 25.4866 27.0947 25.3599C27.0247 25.2333 27.1547 25.2999 27.1697 25.1333C27.1947 24.9666 27.1597 24.9866 27.2197 24.8799C27.2197 24.8799 26.9497 25.0133 26.8397 25.1799C26.7397 25.3399 26.9847 25.4599 26.8397 25.6399C26.8397 25.6399 26.7147 25.5733 26.6397 25.3999C26.6397 25.3999 26.4747 25.3999 26.3647 25.1799Z" fill="#5A3719"/>
<path d="M27.2246 25.9467C27.2246 25.9467 27.4396 26.1933 27.6946 26.1867C27.9496 26.1667 28.0646 26.08 28.1296 25.9467C28.1296 25.9467 28.1796 26.0467 28.1796 26.12C28.1796 26.12 28.3996 25.8733 28.7796 26.0867C29.1596 26.3 29.0496 26.24 29.1346 26.2533C29.1346 26.2533 28.9696 26.22 28.5996 26.4467C28.2146 26.68 27.2146 26.6 27.2196 25.9467H27.2246Z" fill="black"/>
<path d="M26.8649 24.84C26.8649 24.84 26.9599 24.86 27.0549 24.7133C27.0549 24.7133 26.9249 24.7467 26.8649 24.8467V24.84ZM26.1299 26C26.1299 26 25.9499 25.8133 26.0649 25.7733C26.0649 25.7733 26.1499 25.7533 26.1299 26Z" fill="#5A3719"/>
<path d="M30.0597 27.1866C30.0597 27.1866 30.1597 26.9533 30.4347 26.9533C30.7097 26.9533 30.7397 27.1266 31.0897 27.1533C31.0897 27.1533 30.6697 27.3133 30.3797 27.1733C30.2297 27.1 30.0897 27.16 30.0597 27.1866Z" fill="black"/>
<path d="M27.3149 26.1133C27.3149 26.1133 27.7349 26.4466 28.0999 26.08C28.0999 26.08 28.1299 26.12 28.1599 26.2133C28.1599 26.2133 28.4399 25.8533 28.9349 26.24C28.9349 26.24 28.8749 26.2333 28.6399 26.36C28.3349 26.54 27.5699 26.66 27.3149 26.1066V26.1133Z" fill="#5A3719"/>
<path d="M28.9147 26.4467C28.9147 26.4467 29.3147 26.5133 29.6497 26.4867C29.8547 26.4733 30.0797 26.42 29.9697 26.5133C29.8547 26.6 29.9147 26.6133 30.3897 26.56C30.8597 26.4933 30.3847 26.6733 30.7097 26.7333C30.7097 26.7333 29.9147 27.2667 28.9147 26.4467V26.4467Z" fill="black"/>
<path d="M29.9597 26.1133C29.9597 26.1133 30.1897 26 30.4097 26.1333C30.6247 26.2666 30.5897 26.28 30.7347 26.3C30.7347 26.3 30.6347 26.4933 30.3997 26.34C30.1597 26.1866 30.0997 26.1533 29.9597 26.1133V26.1133ZM30.2197 27.0666C30.2197 27.0666 30.4497 26.9133 30.6997 27.0666C30.7297 27.0933 30.7997 27.1333 30.8647 27.1466C30.8647 27.1466 30.6747 27.2333 30.4747 27.1466C30.3897 27.1133 30.3247 27.0866 30.2197 27.0666ZM29.0847 26.52C29.0847 26.52 29.5997 26.5866 29.8747 26.5133C29.8747 26.5133 29.5547 26.7133 30.3597 26.6266C30.3597 26.6266 30.5347 26.6 30.5097 26.6333C30.4947 26.6666 30.4797 26.7 30.5697 26.7333C30.5697 26.7333 29.9697 27.0933 29.0847 26.52V26.52Z" fill="#5A3719"/>
<path d="M26.5347 25.9467C26.5347 25.9467 26.5447 25.9933 26.6547 26.06C26.7697 26.1333 26.8297 26.2533 26.8547 26.32C26.8721 26.3667 26.8967 26.4081 26.9268 26.4414C26.9569 26.4747 26.992 26.4992 27.0297 26.5133C27.0297 26.5133 26.6297 26.6267 26.4497 26.34C26.4497 26.34 26.3147 26.14 26.5297 25.94" fill="black"/>
<path d="M29.6849 27.1733C29.6849 27.1733 29.5299 27.1599 29.3099 27.0599C29.0949 26.9599 29.0399 27.0466 28.9149 26.9266C28.7949 26.7999 28.5499 26.8799 28.5049 26.8866C28.4549 26.8933 28.3249 26.8866 28.4899 26.7466C28.4899 26.7466 28.3599 26.7466 28.3099 26.6533C28.3099 26.6533 28.2499 26.7333 28.0299 26.7066C28.0299 26.7066 28.1299 26.9066 27.7299 26.8466C27.797 26.9497 27.8856 27.0239 27.9845 27.0595C28.0834 27.0951 28.1879 27.0906 28.2849 27.0466C28.2849 27.0599 28.2599 27.2133 28.4349 27.2799C28.6249 27.3399 28.6599 27.3866 28.7549 27.4333C28.7549 27.4333 28.7699 27.3333 28.5249 27.0999C28.5249 27.0999 28.6549 27.0866 28.8449 27.1466C29.0349 27.2066 29.4549 27.3533 29.6849 27.1733V27.1733ZM29.7849 27.4199C29.7849 27.4199 29.8249 27.5399 29.9449 27.5133C30.0649 27.4866 30.2649 27.4466 30.4549 27.5666C30.4549 27.5666 30.4899 27.3533 30.1049 27.3399C30.1049 27.3399 29.8649 27.3533 29.7849 27.4199V27.4199ZM26.5249 26.0199C26.5249 26.0199 26.3749 26.1866 26.5099 26.3533C26.6299 26.5066 26.8199 26.4933 26.9099 26.4866C26.9099 26.4866 26.8599 26.4466 26.8099 26.3533C26.7599 26.2533 26.7599 26.1866 26.6599 26.1266C26.5549 26.0666 26.5449 26.0533 26.5249 26.0199ZM26.3749 25.1799C26.3749 25.1799 26.1449 25.7999 27.0249 25.9533C27.0249 25.9533 27.0249 25.8866 27.0599 25.7866C27.0899 25.6866 27.1649 25.4866 27.0999 25.3599C27.0199 25.2333 27.1549 25.2999 27.1749 25.1333C27.1949 24.9666 27.1599 24.9866 27.2249 24.8799C27.2249 24.8799 26.9499 25.0133 26.8399 25.1799C26.7399 25.3399 26.9849 25.4599 26.8399 25.6399C26.8399 25.6399 26.7149 25.5733 26.6399 25.3999C26.6399 25.3999 26.4749 25.3999 26.3649 25.1799H26.3749Z" fill="#5A3719"/>
<path d="M28.6647 26.62C28.6647 26.62 28.8497 26.58 29.3147 26.8133C29.7847 27.04 29.9797 26.9866 30.0447 26.98C30.0447 26.98 29.7847 27.1666 29.3747 26.9266C29.0147 26.7133 28.9947 26.7933 28.6647 26.62V26.62Z" fill="black"/>
<path d="M31.5899 26.48C31.5899 26.48 31.6899 26.48 31.7599 26.5133C31.7599 26.5133 31.7949 26.4667 31.8949 26.4467C31.8949 26.4467 31.8299 26.3667 31.5899 26.48ZM31.2699 26.1333C31.2699 26.1333 31.3749 26.1333 31.4099 26.0533C31.4099 26.0533 31.3549 25.9667 31.2699 25.92C31.2699 25.92 31.2899 26.0267 31.2699 26.1333ZM27.6849 24.5467C27.6849 24.5467 27.6599 24.48 27.7749 24.4533L29.3399 24.1533C29.3399 24.1533 29.4149 24.1533 29.4249 24.22C29.4399 24.2933 29.4199 24.3467 29.0649 24.4L27.7849 24.6133C27.7849 24.6133 27.6899 24.6333 27.6849 24.5467Z" fill="#FFC221"/>
<path d="M29.0996 24.46C29.0996 24.46 29.0996 24.7333 29.3096 24.7733C29.5096 24.8133 29.5846 24.76 29.6346 24.62C29.6496 24.5733 29.7146 24.2867 29.6246 24.2667C29.5846 24.26 29.5246 24.2667 29.4796 24.2867C29.4096 24.3333 29.3446 24.38 29.3646 24.42C29.4146 24.5267 29.4246 24.5533 29.4146 24.5533C29.3546 24.5733 29.3246 24.5133 29.3146 24.4733C29.2996 24.42 29.3396 24.3933 29.2046 24.42C29.1446 24.4267 29.1046 24.4267 29.1046 24.46H29.0996ZM29.9746 24.2467C30.0746 24.2667 30.0696 24.5667 29.9446 24.7067C29.8046 24.8533 29.6746 24.7933 29.6746 24.7933C29.6046 24.76 29.6146 24.7667 29.6696 24.66C29.7196 24.56 29.7446 24.42 29.7146 24.3267C29.7046 24.2933 29.7296 24.2667 29.7646 24.26C29.7646 24.26 29.8646 24.2333 29.9746 24.2467Z" fill="#FFC221"/>
<path d="M30.0649 24.2733C30.0649 24.2733 30.1449 24.4066 30.0449 24.64C30.0449 24.64 30.0049 24.7066 30.0999 24.7C30.1899 24.6866 30.4049 24.5533 30.3849 24.38C30.3849 24.38 30.3749 24.34 30.3199 24.34C30.2649 24.34 30.3099 24.3066 30.3349 24.2866C30.3549 24.2866 30.4299 24.2466 30.2399 24.0866C30.2399 24.0866 30.2099 24.0466 30.1749 24.0666C30.1449 24.08 30.0449 24.1333 30.0449 24.2133C30.0449 24.2466 30.0649 24.28 30.0649 24.28V24.2733Z" fill="#FFC221"/>
<path d="M30.27 24.0599C30.27 24.0599 30.42 24.1999 30.42 24.2466C30.42 24.2866 30.405 24.3466 30.445 24.3333C30.485 24.3333 30.645 24.2866 30.595 24.1466C30.555 24.0066 30.51 23.9466 30.435 23.9199C30.36 23.8799 30.34 23.9266 30.275 23.9933C30.275 23.9933 30.23 24.0333 30.27 24.0599V24.0599ZM29.465 24.2599C29.465 24.2599 29.49 24.1599 29.355 24.1133C29.355 24.1133 29.41 24.0466 29.525 24.0866C29.635 24.1133 29.625 24.2199 29.625 24.2266C29.625 24.2266 29.535 24.2266 29.465 24.2599V24.2599ZM29.755 24.2333C29.755 24.2333 29.905 24.1999 29.98 24.2066C29.98 24.2066 29.9 23.9866 29.695 24.0533C29.695 24.0533 29.77 24.1733 29.755 24.2333ZM30.02 24.1799C30.02 24.1799 30.02 24.1066 30.15 24.0399C30.15 24.0399 30.09 23.9599 30 23.9733C29.9 23.9733 29.875 24.0199 29.875 24.0199C29.875 24.0199 29.99 24.0733 30.02 24.1799V24.1799ZM30.07 23.9399C30.07 23.9399 30.155 23.9666 30.205 24.0266C30.205 24.0266 30.28 23.9133 30.345 23.8933C30.345 23.8933 30.22 23.7999 30.07 23.9399Z" fill="#FFC221"/>
<path d="M25.7896 23.3933C25.7896 23.3933 26.1496 22.98 26.3496 23.0333C26.5496 23.0866 26.4496 23.0466 26.6696 23C26.8896 22.96 27.1196 22.9266 27.2096 22.94C27.2096 22.94 26.9396 22.6866 26.4646 22.6933C26.4646 22.6933 26.1346 22.8466 25.8996 23.0466C25.8996 23.0466 25.4546 22.72 24.9996 22.9133C24.9996 22.9133 25.4946 23.16 25.7896 23.3933V23.3933Z" fill="#5A3719"/>
<path d="M29.6096 24.0933L29.6696 24.08C29.6696 24.08 29.7696 24.2466 29.6996 24.2466C29.6396 24.2466 29.6596 24.2266 29.6496 24.18C29.6441 24.1459 29.6299 24.1153 29.6096 24.0933V24.0933ZM29.1596 24.1066C29.1596 24.1066 29.1196 24.1733 29.1896 24.16C29.2746 24.14 29.2596 24.16 29.3446 24.0733C29.3446 24.0733 29.4046 24 29.5046 24.0466C29.5046 24.0466 29.5946 24.0866 29.6646 24.04C29.7346 23.9866 29.7496 23.9933 29.7896 24C29.8296 24 29.8296 24.0133 29.8746 23.96C29.9246 23.9133 30.0146 23.9533 30.0696 23.8933C30.1246 23.8266 30.1946 23.88 30.0696 23.76C30.0696 23.76 30.0446 23.7266 30.0446 23.6933C30.0446 23.6933 30.0946 23.72 30.1346 23.76C30.1746 23.8133 30.2346 23.7933 30.2446 23.7866C30.2446 23.7866 30.2546 23.6333 30.3596 23.5C30.4746 23.3666 30.4746 23.3533 30.4096 23.3533C30.3446 23.3533 30.2346 23.3133 30.1946 23.3533C30.1546 23.3933 29.8346 23.6733 29.6446 23.72C29.4546 23.7666 29.2796 23.84 29.1596 24.1066V24.1066ZM24.0946 22.5466C24.0946 22.5466 24.6796 22.7466 24.8096 22.8266C24.8096 22.8266 24.8396 22.7 24.5746 22.6C24.5746 22.6 25.2196 22.5733 25.8946 22.9866C25.8946 22.9866 26.2246 22.6133 27.2796 22.7266C27.2796 22.7266 27.2796 22.6066 27.2896 22.5066C27.2896 22.5066 26.5496 22.48 25.8696 21.9266C25.8696 21.9266 25.2546 22.3266 24.0946 22.5466V22.5466ZM27.3296 22.92C27.2946 22.1333 27.5196 22.0533 27.5196 22.0533C27.5196 22.0533 27.6246 22.0533 27.7396 22.0866C27.7396 22.0866 27.5596 22.3733 27.6096 22.94C27.6096 22.94 27.6296 23.0266 27.4746 23.0266C27.3196 23.0266 27.3296 22.9266 27.3296 22.9266V22.92Z" fill="#FFC221"/>
<path d="M27.4896 23.4466C27.4896 23.4466 27.3746 23.2933 27.3646 23.12C27.3646 23.12 27.3646 23.08 27.4746 23.08C27.5896 23.08 27.5996 23.0666 27.6246 23.1533C27.6546 23.24 27.7246 23.42 27.7396 23.44L27.4896 23.4466Z" fill="#5A3719"/>
<path d="M27.725 23.0466C27.7157 22.9471 27.7124 22.8468 27.715 22.7466C27.72 22.3066 27.775 22.3466 27.8 22.3999H27.915C27.915 22.3999 27.83 21.9066 27.73 22.1999C27.6566 22.4171 27.6306 22.6574 27.655 22.8933C27.66 23.0266 27.67 23.1133 27.685 23.1599L27.725 23.0466Z" fill="#FFC221"/>
<path d="M29.0097 23.0466C29.0097 23.0466 29.2247 23.1 28.8947 23.2C28.8947 23.2 28.9097 23.7466 29.3047 23.3666C29.3047 23.3666 29.5397 23.1666 29.7047 23.0866C29.7047 23.0866 29.7847 23.0466 29.7747 22.9666C29.7747 22.9666 29.7847 22.8666 29.6997 22.8933C29.6997 22.8933 29.6297 22.8933 29.5847 22.8733C29.5847 22.8733 29.5347 22.7933 29.5047 22.82C29.4747 22.8533 29.3997 22.8333 29.4597 22.9333C29.5197 23.0266 29.5347 23 29.5597 22.9733C29.5897 22.9466 29.7147 22.88 29.6047 23.02C29.4947 23.16 29.3947 22.94 29.3547 22.9L29.0097 23.0466ZM27.9097 23.1133H27.8097C27.8097 23.1133 27.7597 23.22 27.7247 23.0466L27.6897 23.1533C27.6897 23.1533 27.8047 23.74 27.9097 23.1133Z" fill="#5A3719"/>
<path d="M27.7698 22.4399C27.7698 22.4399 27.7198 22.8266 27.7848 23.0533L28.8398 23.0866C28.8398 23.0866 28.8298 22.8199 28.8398 22.4399H28.6998C28.6998 22.4399 28.6748 22.7466 28.6998 22.9399H28.6748C28.6748 22.9399 28.6548 22.6733 28.6748 22.4399H28.5498C28.5498 22.4399 28.5298 22.7266 28.5498 22.9399H28.5248C28.5248 22.9399 28.5048 22.6933 28.5248 22.4399H28.3998C28.3998 22.4399 28.3748 22.6999 28.3998 22.9399H28.3698C28.3698 22.9399 28.3448 22.6799 28.3698 22.4399H28.2348C28.2348 22.4399 28.2048 22.6799 28.2348 22.9399H28.2098C28.2098 22.9399 28.1798 22.6999 28.2098 22.4399H28.0748C28.0748 22.4399 28.0448 22.7199 28.0748 22.9399H28.0448C28.0448 22.9399 28.0248 22.6733 28.0498 22.4399H27.9248C27.9248 22.4399 27.8898 22.6733 27.9248 22.9399H27.8898C27.8898 22.9399 27.8698 22.7399 27.8998 22.4399H27.7698ZM28.8848 23.1333C28.8848 23.1333 28.8598 22.4533 28.9548 22.2666C29.0548 22.0933 29.0798 22.1333 29.2448 22.2666C29.4148 22.4133 29.6298 22.5666 29.6698 22.5866C29.6998 22.6066 29.7498 22.6199 29.7498 22.7466C29.7498 22.8733 29.7648 22.9066 29.6198 22.7466C29.6048 22.7266 29.5348 22.6466 29.4848 22.6266C29.3548 22.5666 29.5148 22.6599 29.5598 22.7533C29.5998 22.8199 29.6348 22.8199 29.5298 22.8533C29.3127 22.9377 29.0976 23.0311 28.8848 23.1333Z" fill="#FFC221"/>
<path d="M29.2498 22.64C29.2498 22.64 29.1748 22.52 29.2748 22.4867C29.3748 22.46 29.3798 22.6867 29.3998 22.8267C29.4148 22.9733 29.2748 22.6867 29.2598 22.6467L29.2498 22.64ZM29.1148 23.24C29.1148 23.24 28.9998 23.3 29.0798 23.3467C29.1498 23.3933 29.3548 23.1667 29.2898 23.18C29.2098 23.2 29.1148 23.2467 29.1148 23.2467V23.24ZM29.2648 23.04C29.2648 23.04 29.3648 23.02 29.3448 23.0733C29.3298 23.14 29.2948 23.1 29.2748 23.0867C29.2598 23.0733 29.1948 23.04 29.2698 23.0333L29.2648 23.04Z" fill="black"/>
<path d="M29.8001 22.8533C29.8001 22.8533 29.8301 23.12 30.0001 23.1866C30.0001 23.1866 30.1001 23.2133 30.0751 23.1C30.0751 23.1 30.0601 23 30.0451 22.9666C30.0301 22.92 29.9651 22.9 29.9551 22.8933C29.9451 22.8933 29.9401 22.86 29.9851 22.88C30.0351 22.9 30.0351 22.9066 30.0351 22.86C30.0351 22.8133 30.0051 22.8333 29.9651 22.8066C29.9451 22.7933 29.9651 22.78 29.9801 22.7866C30.0001 22.7866 30.0451 22.8066 30.0451 22.72C30.0451 22.72 30.0501 22.6666 30.0001 22.6666C29.9451 22.6666 29.9501 22.6266 29.9651 22.62C29.9801 22.62 30.0401 22.6733 30.0601 22.58C30.0751 22.4933 29.9801 22.5466 29.9901 22.5C30.0051 22.4466 30.0751 22.52 30.0751 22.4666C30.0851 22.4133 30.1401 22.3933 30.0451 22.3733C30.0001 22.3666 30.0451 22.3333 30.0951 22.3466C30.1451 22.3533 30.1751 22.2666 30.2101 22.24C30.2401 22.2066 30.4201 22.0666 30.1801 22.1133C29.9451 22.16 29.8751 22.3133 29.8651 22.3466C29.8055 22.5029 29.7828 22.6795 29.8001 22.8533V22.8533Z" fill="#FFC221"/>
<path d="M30.3497 23.0533C30.3847 23.0533 30.4097 23.0533 30.4197 23.0867C30.4597 23.1933 30.3697 23.1533 30.3197 23.2333C30.2697 23.3133 30.2697 23.3 30.1997 23.2667C30.1297 23.24 30.0997 23.1 30.0997 23.1C30.0997 23.0533 30.1247 23.0467 30.1597 23.06C30.1597 23.06 30.2747 23.0733 30.3547 23.06L30.3497 23.0533ZM30.0997 23C30.0997 23 30.0997 23.0267 30.1447 23.0333C30.1797 23.0333 30.2947 23.0533 30.3697 23.0267C30.3697 23.0267 30.3897 23.02 30.3797 22.96C30.3797 22.96 30.3797 22.9133 30.3197 22.9333C30.2547 22.9467 30.1697 22.9333 30.1347 22.9267C30.1047 22.9133 30.0847 22.9267 30.0947 22.9933L30.0997 23ZM30.0897 22.8067C30.0897 22.8067 30.0847 22.8933 30.1447 22.9C30.2097 22.9133 30.2897 22.9133 30.3197 22.9C30.3447 22.9 30.3897 22.8867 30.3947 22.8333C30.3947 22.7867 30.4047 22.7533 30.3297 22.78C30.2547 22.8067 30.1597 22.78 30.1497 22.78C30.1447 22.78 30.0897 22.76 30.0897 22.8067V22.8067ZM30.1147 22.64C30.1147 22.64 30.0997 22.68 30.1047 22.72C30.1047 22.7533 30.1497 22.7667 30.2297 22.7667C30.3097 22.7667 30.3797 22.7533 30.3897 22.72C30.3947 22.6733 30.4147 22.6333 30.3547 22.6533C30.2897 22.66 30.2047 22.6667 30.1747 22.6533C30.1447 22.6333 30.1197 22.6267 30.1147 22.64V22.64Z" fill="#FFC221"/>
<path d="M33.1046 23.0666C33.1046 23.0666 33.1046 23.1333 33.1496 23.2133L30.8896 23.1266C30.8896 23.1266 30.9196 23.1 30.9296 22.98L33.1046 23.0666Z" fill="#5A3719"/>
<path d="M30.1348 22.52C30.1348 22.52 30.1148 22.5933 30.1548 22.6133C30.1898 22.6267 30.2648 22.64 30.3548 22.62C30.3548 22.62 30.4048 22.62 30.4198 22.5533C30.4348 22.4866 30.4348 22.5267 30.3048 22.5C30.3048 22.5 30.2648 22.48 30.3798 22.48C30.3798 22.48 30.4498 22.48 30.4548 22.4667C30.4698 22.4533 30.5548 22.3533 30.4398 22.3667C30.3248 22.3667 30.3848 22.3333 30.4398 22.3333C30.4998 22.3333 30.5198 22.3533 30.5398 22.3333C30.5598 22.3133 30.5398 22.32 30.5048 22.28C30.4698 22.24 30.4998 22.2467 30.5198 22.2733C30.5448 22.2933 30.5598 22.3067 30.5848 22.2733C30.6098 22.24 30.5648 22.1933 30.5848 22.2067C30.5998 22.2067 30.6148 22.26 30.6848 22.2067C30.7648 22.16 30.8598 22.1867 30.8848 22.2067C30.9148 22.24 30.9948 22.2733 31.0398 22.2067C31.0898 22.1533 30.9848 22.0933 31.0248 22.0866C31.0748 22.08 31.1048 22.1 31.1198 22.0533C31.1398 22 31.0498 21.96 31.1348 21.9333C31.2148 21.9 31.1448 21.6 31.1198 21.5667C31.1198 21.5667 31.0248 21.64 30.9298 21.8533C30.8248 22.0733 30.7648 22.2 30.6298 22.1333C30.4348 22.0333 30.3298 22.1733 30.3048 22.2C30.2548 22.24 30.4048 22.2533 30.3148 22.26C30.2298 22.26 30.2298 22.2733 30.2248 22.2866C30.2148 22.3066 30.2248 22.32 30.2398 22.3267C30.2548 22.3267 30.2848 22.3667 30.2348 22.3667C30.1848 22.3667 30.1448 22.3467 30.1598 22.4267C30.1598 22.4267 30.1598 22.44 30.1898 22.4467C30.2198 22.4467 30.2298 22.5 30.1748 22.5C30.1348 22.5 30.1348 22.5133 30.1348 22.52V22.52ZM30.3398 23.2733C30.3398 23.2733 30.3048 23.3067 30.3548 23.3133C30.4148 23.3133 30.4398 23.3333 30.4598 23.2933C30.4798 23.2533 30.5498 23.2667 30.4998 23.2133C30.4498 23.16 30.4198 23.1933 30.3398 23.28V23.2733Z" fill="#FFC221"/>
<path d="M30.575 22.3666C30.575 22.3666 30.765 22.1333 30.92 22.2866C31.08 22.4533 31.09 22.4733 31.095 22.48C31.095 22.48 31.115 22.5 31.075 22.5466C31.03 22.6 31.075 22.6 31.12 22.5666C31.165 22.5333 31.17 22.5666 31.19 22.6C31.215 22.6333 31.245 22.6533 31.175 22.6533H30.945C30.945 22.6533 30.84 22.6666 30.895 22.6066C30.945 22.5466 30.935 22.48 30.91 22.4733C30.88 22.4733 30.91 22.5133 30.895 22.54C30.875 22.5666 30.84 22.5866 30.8 22.5866C30.76 22.5866 30.73 22.6266 30.79 22.6533C30.845 22.68 30.78 22.7 30.75 22.7C30.72 22.7 30.575 22.7133 30.725 22.74C30.875 22.76 30.71 22.76 30.825 22.84C30.945 22.9333 30.855 23.1266 30.81 23.1466C30.81 23.1466 30.76 23.18 30.82 23.1733C30.885 23.16 30.92 23.1533 30.87 23.2C30.83 23.24 30.74 23.3933 30.62 23.28C30.62 23.28 30.56 23.24 30.66 23.2333C30.76 23.2333 30.58 23.2 30.545 23.1666C30.52 23.1466 30.395 22.9866 30.47 23C30.55 23.0266 30.52 22.9666 30.475 22.9466C30.435 22.9266 30.425 22.84 30.475 22.8533C30.525 22.8733 30.575 22.9133 30.625 22.9066C30.66 22.9066 30.65 22.8866 30.565 22.8533C30.48 22.8133 30.445 22.8066 30.465 22.72C30.485 22.62 30.58 22.7533 30.555 22.68C30.535 22.6133 30.455 22.6466 30.495 22.5533C30.535 22.46 30.545 22.5 30.57 22.5133C30.585 22.52 30.62 22.5133 30.565 22.46C30.525 22.4266 30.565 22.3733 30.575 22.3666Z" fill="#FFC221"/>
<path d="M30.7097 22.4333C30.7097 22.4333 30.7097 22.3999 30.7497 22.4066C30.7797 22.4066 30.7697 22.3933 30.7797 22.3799C30.7897 22.3799 30.8747 22.4133 30.7947 22.4466C30.7647 22.4666 30.7147 22.4599 30.7147 22.4333H30.7097Z" fill="black"/>
<path d="M30.8949 22.7C30.8949 22.7 30.8299 22.74 30.8849 22.8333C30.9349 22.9 30.9349 22.9333 30.9349 22.98C30.9299 23.0333 33.1049 23.0666 33.1049 23.0666C33.1049 23.0666 33.1049 22.8733 33.1949 22.7666L30.8949 22.7V22.7Z" fill="#FFC221"/>
<path d="M33.1399 23.0133C33.1399 23.0133 33.1499 22.8533 33.2199 22.8066C33.2549 22.7733 33.2999 22.7866 33.3199 22.9133C33.3499 23.0933 33.2349 23.2533 33.1849 23.18C33.1349 23.1133 33.1449 23.0133 33.1449 23.0133H33.1399Z" fill="#5A3719"/>
<path d="M30.6448 23.6933C30.6448 23.6933 30.7898 23.5266 30.8148 23.4533C30.8148 23.4533 31.2048 23.8266 31.1798 23.48L31.1898 23.3066C31.1898 23.3066 31.3348 23.3266 31.3548 23.1733L30.9898 23.1533C30.9898 23.1533 30.9498 23.1466 30.8898 23.2266C30.8398 23.3066 30.7198 23.3933 30.6148 23.32C30.6148 23.32 30.5648 23.2666 30.5198 23.32C30.4698 23.3533 30.4698 23.3666 30.5098 23.42C30.5498 23.4733 30.6298 23.6133 30.6448 23.6866V23.6933ZM31.4848 22.6666L31.2698 22.6533C31.2698 22.6533 31.1948 22.5066 31.0398 22.3466C31.0398 22.3466 30.9948 22.32 31.0798 22.2266C31.1698 22.1333 31.1948 22.04 31.1948 21.9933C31.1948 21.9533 31.1948 21.88 31.2248 21.9266C31.2548 21.98 31.4748 22.2533 31.5148 22.1733C31.5448 22.0933 31.5498 22.06 31.5498 22.0333C31.5598 22.0066 31.5648 21.9333 31.5998 22.0133C31.6298 22.0866 31.6498 22.0666 31.6548 22.2666C31.6548 22.2666 31.6548 22.4666 31.6798 22.5333C31.6798 22.5333 31.3998 22.42 31.4898 22.6666H31.4848ZM30.5548 22.0533C30.5548 22.0533 30.7198 22.1866 30.8048 22.0133C30.8798 21.8466 30.9348 21.8266 30.8748 21.66C30.8148 21.5066 30.8748 21.4333 30.9198 21.3666C30.9698 21.3 31.0098 21.3133 31.0098 21.06C31.0198 20.8 31.1498 20.7266 31.2098 20.64C31.2698 20.56 31.4198 20.44 31.1898 20.3933C30.9698 20.34 30.5198 20.1933 30.4048 19.96C30.2898 19.7266 30.2398 19.86 30.2398 19.8733C30.2398 19.8866 30.1998 20.0533 30.3148 20.36C30.4298 20.6666 30.5248 20.8666 30.6398 20.96C30.7498 21.06 30.8498 21.1133 30.7898 21.32C30.7298 21.5266 30.6398 21.8933 30.5548 22.0533V22.0533Z" fill="#7B3C20"/>
<path d="M31.1597 21.4C31.1597 21.4 31.1897 21.9333 31.4747 22.12C31.4747 22.12 31.5397 21.92 31.5147 21.7133C31.5147 21.7133 31.6097 21.72 31.6347 21.78C31.6347 21.78 31.6347 21.6266 31.5047 21.5666C31.3697 21.52 31.4347 21.1666 31.4847 21.1333C31.5297 21.0933 31.5147 21.02 31.4847 20.96C31.4497 20.8933 31.4447 20.8066 31.5547 20.8466C31.6697 20.8866 31.6547 20.8066 31.5797 20.7333C31.5147 20.66 31.5147 20.5666 31.6147 20.5666C31.7147 20.5666 31.8647 20.44 31.7747 20.4066C31.6747 20.3666 31.6497 20.32 31.7747 20.2733C31.9097 20.22 31.9747 20.16 31.8747 20.14C31.7747 20.1266 31.7097 20.08 31.8047 20.06C31.8997 20.04 31.7897 19.9066 31.6797 19.9066C31.5647 19.8933 31.3297 19.9533 31.5147 19.7533C31.7047 19.5533 31.2447 19.7 31.4347 19.5666C31.6247 19.4333 31.3697 19.4933 31.3347 19.4933C31.2997 19.4933 31.2997 19.4933 31.3147 19.4266C31.3247 19.36 31.2897 19.32 31.2297 19.3666C31.1797 19.4066 31.1797 19.4066 31.1797 19.32C31.1797 19.22 31.1147 19.2933 31.0747 19.32C31.0297 19.34 30.9247 19.4466 30.8797 19.3866C30.8447 19.3266 30.8197 19.2733 30.6897 19.3733C30.5597 19.4733 30.5897 19.3866 30.5897 19.34C30.5897 19.2933 30.6397 19.1133 30.4697 19.3066C30.2997 19.5 30.4347 19.1066 30.2947 19.24C30.1597 19.3733 30.1447 19.4 30.1197 19.34C30.0947 19.2733 30.0697 19.2266 29.9197 19.36C29.7647 19.4866 29.8797 19.2733 29.8947 19.2266C29.9197 19.1866 29.9847 18.8933 29.8497 19.12C29.8497 19.12 29.7847 19.28 29.6397 18.9933C29.6397 18.9933 29.4897 19.28 29.4447 19.1533C29.4047 19.02 29.3697 19.02 29.3147 19.1C29.2647 19.18 29.3047 19.0933 29.2797 19.02C29.2597 18.9533 29.2447 18.8266 28.9897 19.0733C28.7347 19.3266 29.0797 19.14 28.8847 19.2533C28.6897 19.3666 28.2097 19.72 28.6447 19.6466C29.0797 19.56 28.4347 19.8666 28.5847 19.9266C28.7347 19.98 28.6847 20.16 29.2547 19.9466C29.8147 19.7466 29.7247 19.92 30.0147 19.7466C30.3047 19.5866 29.9447 19.8066 30.3347 19.8C30.7197 19.7866 30.3997 19.8 30.4747 19.9066C30.5497 20.0133 30.8747 20.26 31.1797 20.3066C31.4847 20.3466 31.5647 20.1933 31.4747 20.3733C31.3847 20.5466 31.3547 20.6133 31.3047 20.68C31.2547 20.7333 31.1047 20.88 31.1047 21.12C31.1047 21.3666 30.8647 21.4066 30.9547 21.6733L31.1597 21.4066V21.4Z" fill="#5A3719"/>
<path d="M31.6649 21.9933C31.6649 21.9933 31.5949 21.9266 31.5949 21.8066C31.5949 21.8066 31.6449 21.82 31.6649 21.86C31.6649 21.86 31.8399 21.5933 31.6249 21.5C31.4199 21.4066 31.5249 21.1466 31.5949 21.1466C31.6649 21.1466 31.6799 21.1266 31.6149 21.0133C31.5549 20.9133 31.5649 20.9066 31.6799 20.88C31.7949 20.8533 31.7849 20.8133 31.7299 20.78C31.6941 20.7515 31.6621 20.7155 31.6349 20.6733C31.6349 20.6733 31.9749 20.48 31.8649 20.3866C31.7549 20.3 31.8649 20.32 31.9649 20.2333C32.0649 20.14 32.0749 20.12 32.0899 20.08C32.0899 20.08 31.9899 20.1 31.9199 20.08C31.9199 20.08 32.0049 20.02 31.9199 19.9266C31.8349 19.8333 31.8049 19.7533 31.6699 19.7933C31.5349 19.84 31.5799 19.78 31.6299 19.7066C31.6799 19.6333 31.6599 19.5933 31.5649 19.5733C31.5649 19.5733 31.5749 19.4933 31.6499 19.4066C31.6499 19.4066 31.4649 19.42 31.3999 19.38C31.3999 19.38 31.4799 19.3133 31.4799 19.2266C31.4799 19.2266 31.3799 19.2733 31.2549 19.26C31.2549 19.26 31.3299 19.1733 31.3299 19.1C31.3299 19.1 31.1099 19.1666 31.0099 19.2666C31.0099 19.2666 30.9849 19.2666 30.9699 19.2266C30.9499 19.2 30.9399 19.16 30.6949 19.2666C30.6949 19.2666 30.7199 19.12 30.7799 19.0666C30.8399 19.0133 30.8299 18.8933 30.4549 19.2066C30.4549 19.2066 30.4049 19.1666 30.3599 19.0133C30.3599 19.0133 30.2749 19.1666 30.2149 19.22C30.2149 19.22 30.1649 19.2533 30.1649 19.1533C30.1749 19.0533 30.1299 19.12 30.0949 19.1533C30.0549 19.18 30.0299 19.2533 30.0449 19.0533C30.0599 18.8533 29.9949 18.8133 29.9949 18.8133C29.9949 18.8133 29.8799 19.0333 29.8099 19.06C29.8099 19.06 29.6849 18.9 29.6399 18.7933C29.5999 18.6866 29.5999 18.6466 29.5549 18.8333C29.5099 19.0133 29.4549 19.0333 29.4549 19.0333C29.4549 19.0333 29.3799 18.9466 29.3749 18.9C29.3749 18.9 29.3599 18.9466 29.3349 18.9666C29.3349 18.9666 29.2699 18.8666 29.2749 18.72C29.2749 18.72 28.8649 19.02 28.8149 19.2C28.8149 19.2 28.4299 19.1666 28.2749 19.2066C28.2749 19.2066 28.3099 19.0466 28.4099 18.96C28.4099 18.96 28.3099 18.9466 28.3099 18.8066C28.3099 18.8066 28.3899 18.82 28.4399 18.8066C28.4899 18.7933 28.3699 18.6 28.4949 18.5933C28.6199 18.5866 28.7049 18.6733 28.6449 18.4466C28.5949 18.2266 28.6149 18.2266 28.6149 18.2266C28.6149 18.2266 28.8349 18.4 28.8699 18.3533C28.9099 18.3133 28.8449 18.22 29.0399 18.26C29.2349 18.3066 29.1799 18.16 29.2599 18.1466C29.3349 18.1466 29.3749 18.2133 29.3249 17.74C29.2749 17.2666 29.5649 17.9733 29.3699 17.26C29.3699 17.26 29.3199 17.04 29.2049 16.9466C29.2049 16.9466 29.1749 17.1 29.0449 16.9666C28.9149 16.8333 28.6549 16.78 28.7649 16.6733C28.8749 16.56 28.9249 16.4133 28.8949 16.3266C28.8949 16.3266 28.7649 16.5 28.5449 16.3733C28.3649 16.2733 28.3249 16.46 28.1449 16.4066C28.1449 16.4066 28.1449 16.34 28.2999 16.18C28.4499 16.0266 28.2099 16.2333 28.1199 16.2666C28.0249 16.2933 27.9999 16.2666 28.1949 16.06C28.3949 15.86 28.7949 15.4933 28.7449 15.1933C28.7449 15.1933 28.8349 15.3466 29.0799 15.2333C29.3299 15.12 29.5099 15.08 29.5799 14.9C29.6599 14.7333 29.8499 14.5666 29.8999 14.5266C29.9549 14.4933 30.0199 14.46 29.9449 14.6266C29.8649 14.7866 29.7449 15.0666 29.4049 15.2533C29.0649 15.44 28.9299 15.5733 28.8699 15.6733C28.8099 15.7733 28.4999 15.9933 28.7049 15.96C28.9049 15.9133 29.2499 15.96 29.0849 15.8933C28.9249 15.8333 28.7399 15.9333 28.8899 15.7533C29.0399 15.5733 29.0649 15.5133 29.2849 15.3933C29.5049 15.2666 29.7449 14.9866 29.7199 15.2866C29.6949 15.58 29.2899 15.8933 29.1899 15.9933C29.0899 16.0866 29.1299 16.0733 29.1299 16.1133C29.1299 16.1533 29.1099 16.2333 29.0699 16.2666C29.0299 16.3066 29.0449 16.3466 29.0549 16.4266C29.0649 16.5133 29.0449 16.5466 29.0749 16.56C29.1049 16.5666 29.1349 16.5733 29.1449 16.6333C29.1549 16.7 29.1749 16.7 29.2349 16.7C29.2899 16.6866 29.3349 16.7 29.3349 16.74C29.3349 16.7866 29.3949 16.8533 29.3999 16.7133C29.4049 16.5666 29.4499 16.5466 29.3399 16.6133C29.2299 16.6733 29.2099 16.6533 29.2099 16.5866C29.2099 16.52 29.1999 16.5333 29.1599 16.5266C29.1099 16.5266 29.0949 16.44 29.1749 16.38C29.2549 16.3266 29.2549 16.38 29.3549 16.2733C29.4549 16.16 29.4549 16.14 29.4699 16.0733C29.4849 16.0266 29.3249 16.2333 29.2499 16.2733C29.1749 16.3266 29.1999 16.24 29.2099 16.1333C29.2249 16.02 29.4099 15.8666 29.4949 15.8666C29.5849 15.8666 29.7749 15.9333 29.6949 16.0866C29.6099 16.24 29.3749 16.4333 29.4699 16.4466C29.5749 16.46 29.5899 16.4066 29.6499 16.4733C29.7099 16.54 29.6499 16.6866 29.6299 16.7666C29.6031 16.8362 29.5656 16.8976 29.5199 16.9466C29.5199 16.9466 29.4099 16.6933 29.4149 16.8933C29.4149 17.1 29.3899 17.1733 29.4149 17.18C29.4399 17.1866 29.5549 17.2933 29.5949 17.2933C29.6349 17.2933 29.3899 17.4466 29.4949 17.46C29.5949 17.4666 29.7599 17.3933 29.8149 17.26C29.8149 17.26 29.6049 17.1933 29.5199 17.0866C29.5199 17.0866 29.7649 17.0066 29.6949 16.7C29.6949 16.7 29.9399 16.7866 29.8299 16.9333C29.7299 17.0733 29.6649 17.0533 29.7549 17.0933C29.8499 17.1333 29.8899 17.1733 29.8899 17.1733C29.8899 17.1733 29.9549 17.2133 29.9149 17.28C29.8799 17.3466 29.8799 17.4533 29.9149 17.4466C29.9399 17.4466 30.0449 17.38 29.9599 17.3133C29.8699 17.2466 30.0549 17.26 29.9799 17.2C29.8999 17.1333 29.8799 17.1266 29.8599 17.0933C29.8349 17.0733 30.8449 16.28 30.3349 16.5733C30.3349 16.5733 30.4399 16.2666 30.5899 16.2666C30.7399 16.2666 30.7499 16.42 30.6649 16.5466C30.5799 16.66 30.5249 16.8533 30.3299 16.8933C30.3299 16.8933 30.6099 17.0733 30.2799 17.3733C30.2799 17.3733 30.2049 17.42 30.2299 17.4533C30.2549 17.4866 30.4549 17.34 30.4799 17.2533C30.4937 17.2084 30.5141 17.1676 30.5399 17.1333C30.5656 17.0989 30.5962 17.0717 30.6299 17.0533C30.7049 17.0066 31.0799 16.6666 31.1899 16.4133C31.3049 16.1533 31.3299 16.1466 31.5499 15.9133C31.7699 15.68 31.7299 15.7266 31.7599 15.6733C31.7849 15.6133 31.7949 15.52 31.8949 15.4466C31.9949 15.3666 32.3849 15.0866 32.5099 14.9666C32.6299 14.8466 32.8799 14.6333 32.9899 14.4466C33.0949 14.2666 33.3899 14.0333 33.4599 14.0733C33.5299 14.12 33.4499 14.26 33.2849 14.4333C33.1099 14.6 32.6849 15.0533 32.6199 15.1266C32.4503 15.3089 32.2617 15.4571 32.0599 15.5666C31.9249 15.5866 31.9399 15.6533 31.8599 15.7666C31.7799 15.88 31.5949 16.1266 31.5349 16.1933C31.4699 16.26 31.3199 16.3933 31.3149 16.4933C31.3049 16.5933 31.3399 16.6 31.2199 16.7466C31.0422 16.964 30.8418 17.1459 30.6249 17.2866C30.6249 17.2866 30.8499 17.3933 30.7149 17.5933C30.5849 17.7933 30.5899 17.7666 30.5849 17.78C30.5849 17.78 30.9199 17.7133 30.6849 18.0666C30.6849 18.0666 30.6349 18.1666 30.7399 18.0666C30.8549 17.94 30.8099 17.7933 30.7899 17.7666C30.7899 17.7666 30.9749 17.6133 31.1849 17.6133C31.3899 17.6133 31.3849 17.5933 31.1949 17.52C31.1949 17.52 31.3299 17.3066 31.4449 17.4133C31.5549 17.5133 31.5149 17.58 31.3999 17.6666C31.2799 17.7466 31.1099 17.78 30.9749 17.88C30.9749 17.88 31.2249 17.9466 31.3549 17.8066C31.4849 17.6733 31.4949 17.74 31.5049 17.7666C31.5299 17.7933 31.5449 17.8333 31.4849 17.94C31.4249 18.0533 31.4199 18.06 31.4249 18.0866C31.4249 18.1133 31.4199 18.1866 31.2999 18.22C31.1849 18.24 31.1249 18.3066 31.1699 18.38C31.2049 18.46 31.2049 18.6466 31.1099 18.6266C31.0099 18.6066 31.0299 18.5 30.9949 18.46C30.9549 18.42 30.8999 18.36 30.7249 18.4733C30.5449 18.6 30.5349 18.4533 30.5399 18.3733C30.5399 18.3733 30.4249 18.5066 30.3299 18.3866C30.2299 18.26 30.3199 18.2133 30.3799 18.1533C30.4299 18.0866 30.6549 17.9533 30.5199 17.9866C30.3849 18.0066 30.1849 18.0133 30.1399 17.88C30.0899 17.74 30.2399 17.7533 30.2599 17.7666C30.2849 17.78 30.3749 17.88 30.3849 17.7466C30.3849 17.6133 30.5349 17.5933 30.4849 17.5733C30.4349 17.5466 30.3599 17.6333 30.3399 17.66C30.3399 17.66 30.2399 17.4666 30.0699 17.5266C29.8999 17.5933 30.1199 17.5733 30.1699 17.58C30.2099 17.5933 30.1849 17.7 30.0349 17.8866C29.8849 18.0666 29.9499 18.0066 30.0599 18.0066C30.1749 18.0066 30.4549 18.0066 30.2899 18.18C30.1299 18.36 30.0649 18.4466 29.9899 18.42C29.8999 18.3866 29.9899 18.3133 30.0299 18.28C30.0699 18.2466 30.0899 18.2 30.0099 18.24C29.9299 18.2733 29.9049 18.2866 29.8399 18.14C29.7799 17.9866 29.7999 18.0333 29.8299 17.9333C29.8599 17.8333 29.9199 17.7333 29.8499 17.7666C29.7699 17.8066 29.7799 17.8133 29.7849 17.7C29.7899 17.5866 29.6999 17.56 29.6999 17.56C29.6999 17.56 29.7399 17.6733 29.7049 17.7466C29.6749 17.8133 29.6699 17.84 29.7249 17.8533C29.7749 17.88 29.8249 17.94 29.7549 18.0066C29.6849 18.0666 29.6949 18.0533 29.7349 18.0933C29.7849 18.14 29.8499 18.18 29.7799 18.2733C29.7099 18.3666 29.7649 18.34 29.7999 18.34C29.8399 18.34 29.9149 18.38 29.9149 18.4733C29.9149 18.5533 29.9149 18.5733 30.0299 18.4933C30.1449 18.4066 30.3649 18.42 30.3649 18.5333C30.3649 18.6533 30.3349 18.6866 30.4549 18.5866C30.5749 18.4866 30.6299 18.68 30.7149 18.5866C30.7949 18.4866 30.8449 18.4 30.9449 18.56C31.0399 18.72 31.0099 18.76 30.8949 18.88C30.7799 18.9933 30.9499 18.9066 31.0399 18.8466C31.1299 18.7866 31.3749 18.7466 31.5149 18.8333C31.6599 18.9133 31.6999 18.9 31.8049 18.8333C31.9099 18.78 31.9649 18.7666 32.1199 18.9066C32.2849 19.0533 32.4049 19.08 32.4899 19.0733C32.4899 19.0733 32.3149 19.1666 32.1149 19.18C31.9149 19.2 31.8149 19.2466 31.7799 19.2866C31.7799 19.2866 31.8949 19.3866 31.9199 19.5C31.9199 19.5 32.0499 19.48 32.1099 19.5133C32.1099 19.5133 32.0799 19.64 32.1599 19.7066C32.2399 19.7733 32.2949 19.8 32.2349 19.8866C32.1749 19.98 32.3299 19.94 32.2399 20.0666C32.1549 20.2 32.1349 20.2666 32.1299 20.3666C32.1299 20.4733 32.1499 20.4866 32.0749 20.5C31.9949 20.5066 32.0849 20.6266 32.0499 20.7666C32.0149 20.9 31.7999 20.88 31.8099 21.2466C31.8099 21.2466 31.8699 21.0666 31.9999 20.9133C32.1249 20.7533 32.1299 20.74 32.1249 20.6466C32.1249 20.5533 32.1199 20.5733 32.1849 20.5C32.2549 20.4333 32.1549 20.3666 32.2249 20.26C32.2899 20.16 32.2349 20.18 32.3149 20.08C32.3899 19.9733 32.2399 19.9666 32.3249 19.86C32.3999 19.7533 32.1249 19.6266 32.2099 19.56C32.2849 19.4933 32.4249 19.4 31.9599 19.4066C31.9599 19.4066 32.0749 19.1666 32.4599 19.2133C32.4599 19.2133 32.3599 19.32 32.3499 19.4133L32.4299 19.4466C32.4299 19.4466 32.4099 19.52 32.3349 19.6C32.3349 19.6 32.5449 19.7533 32.5799 19.8533C32.5799 19.8533 32.4499 19.9066 32.4149 19.9733C32.4149 19.9733 32.4749 20.06 32.4949 20.1733C32.4949 20.1733 32.3499 20.1466 32.3349 20.2866C32.3149 20.4266 32.2699 20.3333 32.2699 20.42C32.2699 20.5066 32.2749 20.5333 32.2249 20.5533C32.1749 20.5533 32.2199 20.6266 32.2249 20.6733C32.2349 20.72 32.2549 20.8266 32.2449 20.86C32.2449 20.86 32.1699 20.86 32.1399 20.8733C32.1399 20.8733 32.1599 21.0733 32.0749 21.1066C31.9899 21.1333 32.1249 21.1733 32.0299 21.1933C31.9399 21.2133 31.9549 21.2266 31.8449 21.4933C31.8449 21.4933 31.9399 21.4266 32.0349 21.3333C32.1349 21.2466 32.0249 21.2666 32.1849 21.0666C32.3499 20.8466 32.3199 20.8333 32.3049 20.7266C32.2949 20.62 32.2899 20.5266 32.3499 20.4266C32.4099 20.3266 32.4249 20.2133 32.6349 20.2266C32.6349 20.2266 32.5749 20.04 32.4999 19.9933C32.4999 19.9933 32.5999 19.9066 32.6999 19.8933C32.6999 19.8933 32.6099 19.74 32.4199 19.6C32.4199 19.6 32.5699 19.4266 32.6149 19.34C32.6149 19.34 32.5399 19.36 32.4799 19.34C32.4799 19.34 32.5099 19.2533 32.6499 19.1333C32.6499 19.1333 32.7249 19.2266 32.7199 19.3266C32.7199 19.3266 32.9599 19.1466 33.0949 19.1666C33.0949 19.1666 33.1649 19.3933 32.8299 19.8333C32.8299 19.8333 33.0399 19.8533 33.1299 19.8333C33.1299 19.8333 33.0799 20.0466 32.8299 20.1666C32.5799 20.3 32.8799 20.4466 32.6249 20.42C32.3749 20.3933 32.4499 20.5066 32.4549 20.68C32.4649 20.8533 32.4699 21.0333 32.4649 21.08C32.4649 21.08 32.2649 20.9933 32.2649 21.2533C32.2699 21.52 32.1649 21.5733 32.1399 21.5933C32.1399 21.5933 32.0799 21.5266 31.9899 21.48C31.9899 21.48 31.8649 21.8066 31.6649 21.9933V21.9933Z" fill="#5A3719"/>
<path d="M31.3698 18.6999C31.3698 18.6999 31.4398 18.6866 31.5598 18.7799C31.6748 18.8799 31.7898 18.6799 31.6598 18.6266C31.5298 18.5733 31.6598 18.5066 31.7798 18.6399C31.8998 18.7666 31.9448 18.6999 31.9898 18.6599C32.0298 18.6133 32.0848 18.5866 32.0048 18.5133C31.9248 18.4399 32.0548 18.4733 32.1198 18.5333C32.1798 18.5799 32.1548 18.6333 32.1498 18.6466C32.1398 18.6599 32.1348 18.8399 32.2498 18.6799C32.3698 18.5133 32.4348 18.3599 32.4298 18.2799C32.4298 18.2799 32.4948 18.3333 32.5048 18.4333C32.5148 18.5333 32.6048 18.3799 32.6348 18.3266C32.6648 18.2733 32.7148 18.1266 32.7098 18.0333C32.7098 18.0333 32.7898 18.1999 32.9098 18.0333C33.0298 17.8666 32.9798 17.9666 33.1198 17.9199C33.2835 17.8614 33.4311 17.741 33.5448 17.5733C33.6448 17.4066 33.6498 17.5199 33.7748 17.4799C33.8998 17.4399 34.1598 17.1999 34.1848 17.0733C34.2048 16.9466 34.1998 16.8666 34.1648 16.9133C34.1298 16.9533 34.1448 16.9133 34.0898 16.8733C34.0348 16.8266 33.9548 16.9333 33.9548 16.9333C33.9548 16.9333 34.0348 17.0133 33.9698 17.0466C33.9098 17.0866 33.8548 17.1999 33.7398 17.1533C33.6248 17.1133 33.4998 17.2999 33.4998 17.2999C33.4998 17.2999 33.5998 17.4066 33.4648 17.4799C33.3298 17.5466 33.3498 17.5733 33.2698 17.4933C33.2698 17.4933 33.1248 17.7399 33.0398 17.7933C33.0398 17.7933 33.0048 17.7933 32.9798 17.7399C32.9798 17.7399 32.8798 17.8799 32.8398 17.9066C32.8398 17.9066 32.7748 17.8399 32.7248 17.8066C32.7248 17.8066 32.6098 17.9999 32.5148 18.0533C32.5148 18.0533 32.4848 17.9866 32.4248 17.9399C32.4248 17.9399 32.3948 18.1799 32.1948 18.3266C32.1948 18.3266 32.2048 18.2599 32.1048 18.1733C32.1048 18.1733 31.8548 18.4599 31.7598 18.4866C31.6598 18.5133 31.7498 18.4266 31.7598 18.3866C31.7798 18.3533 31.8398 18.2333 31.7198 18.1866C31.5998 18.1399 31.6198 18.2199 31.5948 18.2333C31.5648 18.2466 31.5648 18.2066 31.4848 18.2199C31.4048 18.2333 31.4198 18.2799 31.3848 18.2999C31.3448 18.3133 31.2048 18.2666 31.2148 18.3933C31.2198 18.5133 31.2898 18.5999 31.1648 18.6733C31.0398 18.7399 31.2148 18.7266 31.3698 18.6999V18.6999Z" fill="#7B3C20"/>
<path d="M31.8747 18.3533C31.8747 18.3533 31.9047 18.1867 31.7997 18.12C31.7997 18.12 32.4597 17.98 31.9597 17.64C31.9597 17.64 32.5547 17.4867 32.4097 17.2333C32.2747 16.98 32.1397 17.0333 32.1197 17.0333C32.0997 17.0333 32.2447 16.8933 32.2847 16.9133C32.3197 16.9333 32.7947 17.1733 32.6747 16.96C32.5547 16.76 32.5647 16.7667 32.5447 16.7067C32.5447 16.7067 32.6997 16.7067 32.9397 17.0133C32.9397 17.0133 32.9897 16.9467 32.9847 16.82C32.9847 16.82 33.1497 16.8867 33.2047 16.9533C33.2047 16.9533 33.2347 16.8733 33.2197 16.8333C33.2197 16.8333 33.3697 16.9333 33.4197 17.0467C33.4197 17.0467 33.4847 16.9667 33.4947 16.8733C33.4947 16.8733 33.6447 16.96 33.6797 17.02C33.6797 17.02 33.7297 16.9333 33.7097 16.82C33.7097 16.82 33.9547 16.9067 33.9847 16.7133C33.9847 16.7133 34.2297 16.78 34.0697 16.9067C33.8697 17.0733 34.0497 16.8667 33.8397 17.06C33.6797 17.2133 33.5897 17.3867 33.5097 17.3533C33.4547 17.32 33.3847 17.5467 33.3097 17.44C33.2347 17.3267 33.2347 17.3733 33.1747 17.4867C33.1335 17.57 33.0866 17.6481 33.0347 17.72C33.0347 17.72 32.9947 17.6867 32.9547 17.64C32.9547 17.64 32.9147 17.7467 32.8547 17.8267C32.8547 17.8267 32.8047 17.74 32.7247 17.6933C32.7247 17.6933 32.6097 17.8733 32.5347 17.94C32.5347 17.94 32.4647 17.8467 32.3897 17.8133C32.3897 17.8133 32.3797 18.0667 32.2347 18.1933C32.2347 18.1933 32.2047 18.1133 32.1047 18.06C32.1047 18.06 32.0347 18.2133 31.8747 18.3467V18.3533Z" fill="#5A3719"/>
<path d="M31.5299 17.9667C31.5299 17.9667 31.4499 18.0467 31.4999 18.1333C31.5499 18.2267 31.5549 18.12 31.6199 18.1133C31.6849 18.1 32.4949 17.9133 31.7599 17.6267C31.7599 17.6267 31.7949 17.5867 31.9149 17.5733C32.0449 17.5533 32.5049 17.3933 32.2899 17.1733C32.0749 16.96 31.8949 17.2467 32.0749 16.9867C32.2249 16.78 32.1049 16.68 32.1049 16.68C32.1049 16.68 31.6799 17.0533 31.5849 17.1267C31.4949 17.1933 31.3549 17.3267 31.5149 17.3933C31.6799 17.46 31.7849 17.1667 31.7999 17.2333C31.8149 17.3 31.4799 17.5533 31.5299 17.66C31.5749 17.78 31.5649 17.88 31.6499 17.8533C31.7299 17.8333 31.9499 17.9067 31.7749 17.9C31.5899 17.8933 31.5249 17.9667 31.5249 17.9667H31.5299Z" fill="#5A3719"/>
<path d="M31.82 17.42C31.82 17.42 31.745 17.4933 31.845 17.46C31.945 17.4266 32.14 17.3666 32.105 17.3C32.065 17.2333 31.935 17.3133 31.82 17.42Z" fill="black"/>
<path d="M33.12 16.3C33.12 16.3 33.495 16.2867 33.645 16.4267C33.795 16.56 33.875 16.6533 33.92 16.68C33.92 16.68 33.915 16.8667 33.67 16.7267C33.67 16.7267 33.69 16.82 33.66 16.9133C33.66 16.9133 33.575 16.8333 33.47 16.8C33.47 16.8 33.45 16.8667 33.42 16.9133C33.42 16.9133 33.315 16.7667 33.19 16.72C33.19 16.72 33.17 16.7933 33.15 16.8267C33.15 16.8267 33.02 16.72 32.92 16.72C32.92 16.72 32.94 16.8333 32.92 16.8733C32.92 16.8733 32.65 16.5867 32.405 16.62C32.405 16.62 32.52 16.8533 32.595 16.96C32.595 16.96 32.105 16.9133 32.195 16.56C32.27 16.2067 32.185 16.2933 32.505 16.2933H33.12V16.3Z" fill="#7B3C20"/>
<path d="M30.8151 17.2733C30.8151 17.2733 30.7601 17.34 30.8151 17.3866C30.8701 17.44 31.0651 17.2533 31.0901 17.2266C31.1201 17.2 31.1901 17.2 31.0901 17.3C30.9901 17.4 30.9001 17.5 30.8401 17.6066C30.8401 17.6066 31.1601 17.4866 31.3701 17.2466C31.5851 17 31.3651 17.16 31.7201 16.9266C32.0851 16.6933 32.2751 16.32 32.0801 16.36C31.8901 16.4 31.7151 16.6933 31.5601 16.8066C31.4101 16.92 31.3251 16.94 31.3501 16.8733C31.3701 16.8066 31.4851 16.8333 31.6951 16.6066C31.9001 16.3866 31.8551 16.4066 31.8551 16.3266C31.8551 16.2466 31.7801 16.06 32.0901 15.8333C32.4001 15.6133 33.3701 14.8666 33.4551 14.6C33.4551 14.6 33.1701 14.64 32.7951 15.0066C32.5894 15.2359 32.3646 15.4328 32.1251 15.5933C32.0251 15.6466 32.0351 15.6066 31.9701 15.72C31.8085 15.9469 31.64 16.1648 31.4651 16.3733C31.4001 16.44 31.3751 16.48 31.3701 16.6266C31.3701 16.6933 30.9501 17.1133 30.8201 17.2733H30.8151Z" fill="#5A3719"/>
<path d="M32.0997 16.2866C32.0997 16.2866 32.0247 16.3266 31.9497 16.2866C31.8847 16.24 31.9097 16.0466 32.0747 15.92C32.2729 15.7759 32.4848 15.6682 32.7047 15.6C32.7047 15.6 32.6797 15.8533 32.1997 16.0733C32.1997 16.0733 32.2297 16.2066 32.0997 16.2866V16.2866Z" fill="#5A3719"/>
<path d="M32.2698 16.12C32.2698 16.12 32.2848 16.1866 32.2698 16.24C32.2698 16.24 33.1648 16.3533 33.6248 15.6266C33.6248 15.6266 32.9898 15.7066 32.7398 15.9133C32.7398 15.9133 32.8998 15.6466 33.3748 15.4266C33.8498 15.2066 34.0448 14.9333 34.0848 14.78C34.0848 14.78 33.4848 15.0666 33.1998 15.0666C33.1998 15.0666 33.1398 15.0666 33.0848 15.1C33.0298 15.1466 32.6448 15.5133 32.5448 15.58C32.5448 15.58 32.7598 15.5533 32.8398 15.46C32.8398 15.46 32.6898 15.9933 32.2698 16.1266V16.12Z" fill="#AA5323"/>
<path d="M30.5497 16.8C30.5497 16.8 30.4347 16.9133 30.4847 16.96C30.5347 17.02 30.6147 17.0267 30.7847 16.8333C30.9647 16.6333 31.3897 16.1533 31.1247 16.1333C31.1247 16.1333 30.7747 16.1067 30.7897 16.3867C30.7997 16.6667 30.5697 16.7867 30.5497 16.8ZM29.7547 16.6333C29.7547 16.6333 29.9847 16.8133 29.8947 16.96C29.8947 16.96 30.5947 16.1733 30.3947 16C30.2047 15.8267 30.0497 16.1533 30.0947 16.18C30.1447 16.22 30.2447 16.1533 30.2097 16.22C30.0672 16.3717 29.9168 16.5099 29.7597 16.6333H29.7547ZM29.5747 16.38C29.5747 16.38 29.7247 16.4467 29.7347 16.5333C29.7397 16.6133 30.1947 16.1067 30.0747 15.8867C30.0197 15.7867 29.7747 15.7533 29.7547 15.94C29.7447 16.14 29.9847 15.92 29.9047 16.06C29.7947 16.24 29.6097 16.3533 29.5747 16.38V16.38ZM31.2047 15.9533C31.2047 15.9533 31.1097 16.0467 31.1997 16.1067C31.2897 16.1533 31.3397 16.0667 31.3847 16.02C31.4297 15.9667 31.6497 15.7533 31.6947 15.62C31.7447 15.4867 31.8197 15.44 31.8997 15.3733C31.9747 15.3067 32.5297 14.9333 32.8747 14.5267C33.2147 14.12 33.0747 14.2267 33.4247 13.9667C33.7747 13.7067 34.0097 13.4667 34.0847 13.18C34.0847 13.18 33.9197 13.2467 33.7747 13.38C33.5992 13.5305 33.4208 13.675 33.2397 13.8133C33.1747 13.8467 33.0897 13.8533 33.0397 13.92C32.9897 13.9867 32.9897 14.0733 32.8247 14.2533C32.6497 14.4467 31.7747 15.2733 31.6647 15.3867C31.5087 15.5717 31.3554 15.7606 31.2047 15.9533Z" fill="#5A3719"/>
<path d="M30.5 16.2266C30.5 16.2266 30.6 16.16 30.78 16.1733C30.96 16.1866 31.67 15.2666 31.88 15.0866C32.1994 14.7942 32.5112 14.4874 32.815 14.1666C32.905 14.0466 32.915 13.9266 32.995 13.86C33.07 13.7933 33.145 13.8 33.315 13.6666C33.49 13.5333 34.33 12.8666 34.28 12.48C34.28 12.48 33.03 13.48 32.745 13.8C32.3455 14.2154 31.9335 14.6091 31.51 14.98C31.37 15.1066 31.26 15.3133 31.015 15.5666C30.78 15.8266 30.54 16.0466 30.5 16.2333V16.2266Z" fill="#AA5323"/>
<path d="M30.2396 15.8666C30.2396 15.8666 30.4696 15.84 30.4996 15.9933C30.4996 15.9933 30.9996 15.54 31.1096 15.3533C31.2196 15.1666 31.0696 15.2733 31.3546 15.0266C31.8134 14.619 32.2636 14.1944 32.7046 13.7533C32.8396 13.6 33.0946 13.3866 33.2996 13.2066C33.4996 13.02 34.2946 12.5 34.2046 12.0733L33.4946 12.7066C33.3596 12.8266 33.2996 12.76 33.1696 12.9C33.0396 13.04 32.7446 13.32 32.6946 13.4066C32.4651 13.6689 32.2247 13.9137 31.9746 14.14C31.7546 14.34 31.2696 14.7133 31.0296 14.9933C30.7701 15.2926 30.5067 15.586 30.2396 15.8733V15.8666Z" fill="#AA5323"/>
<path d="M29.52 15.7867C29.52 15.7867 29.635 15.7867 29.675 15.8467C29.675 15.8467 29.89 15.5867 30.12 15.8467C30.12 15.8467 30.96 15.08 31.045 14.8867C31.13 14.7 31.27 14.6933 31.595 14.38C31.925 14.06 32.13 13.92 32.345 13.7C32.565 13.4733 32.75 13.2133 32.905 13.08C33.06 12.9467 33.455 12.6 33.395 12.3C33.395 12.3 33.07 12.54 32.865 12.8467C32.655 13.1533 32.675 12.8933 32.46 13.1467C32.2131 13.4498 31.9394 13.7117 31.645 13.9267C31.37 14.1067 31.535 14.0867 31.335 14.26C31.14 14.4267 31.155 14.3933 31.085 14.4267C30.9868 14.4575 30.8979 14.5272 30.83 14.6267C30.75 14.74 30.56 14.8933 30.35 15.06C30.057 15.2672 29.7791 15.5105 29.52 15.7867V15.7867Z" fill="#AA5323"/>
<path d="M29.775 15.2C29.775 15.2 29.725 15.0733 29.81 14.98C29.89 14.8933 30.04 14.66 30.06 14.5133C30.085 14.36 30.065 14.3867 30.3 14.26C30.9766 13.881 31.6176 13.3977 32.21 12.82C32.3 12.72 32.53 12.5133 32.625 12.4067C32.625 12.4067 32.665 12.5733 32.565 12.6867C32.2216 13.0457 31.8626 13.3773 31.49 13.68C31.38 13.7533 31.11 13.94 31.01 14.0467C30.915 14.1533 30.93 14.18 30.5 14.4667C30.075 14.74 30.05 14.7733 30.065 14.7933C30.08 14.82 30.275 14.7067 30.365 14.6333C30.455 14.5667 30.805 14.3467 30.915 14.2333C31.0263 14.1126 31.1432 14.0013 31.265 13.9C31.5716 13.6655 31.8718 13.4165 32.165 13.1533C32.34 12.9733 32.39 12.92 32.43 12.9533C32.465 12.98 32.53 12.98 32.45 13.0867C32.37 13.1933 32.115 13.4867 32.015 13.5733C31.915 13.66 31.61 13.9067 31.525 13.96C31.44 14.0267 31.405 14.1267 31.355 14.1733C31.31 14.2267 31.17 14.3533 31.005 14.4067C30.84 14.46 30.805 14.6267 30.69 14.7267C30.575 14.82 29.79 15.3933 29.765 15.4133C29.765 15.4133 29.81 15.3467 29.775 15.2V15.2Z" fill="#AA5323"/>
<path d="M32.515 12.8266C32.515 12.8266 32.47 12.88 32.495 12.9066C32.525 12.9466 32.635 13.0533 32.775 12.8666C32.9705 12.6238 33.1794 12.401 33.4 12.2C33.515 12.1 33.58 12.0133 33.575 11.8866C33.575 11.8866 33.005 12.2866 32.515 12.8266ZM33.295 12.76C33.295 12.76 33.38 12.5666 33.595 12.38C33.81 12.2 34.135 11.9333 34.17 11.8733C34.17 11.8733 34.25 11.9866 34.085 12.1266C33.9026 12.2772 33.7226 12.4328 33.545 12.5933C33.51 12.64 33.445 12.7 33.295 12.76Z" fill="#AA5323"/>
<path d="M28.9497 14.8667C28.9497 14.8667 28.7097 15.04 28.7947 15.1467C28.8797 15.2467 29.0047 15.2133 29.0647 15.1867L29.2247 15.12C29.2447 15.12 29.4497 15.0333 29.5047 14.9067C29.5547 14.7733 29.6947 14.6267 29.8047 14.52C29.9147 14.42 29.9547 14.3067 29.9397 14.2333L28.9497 14.8667ZM27.5297 16.3333C27.5297 16.3333 27.6997 16.2 27.9297 16.2867C27.9297 16.2867 27.9197 16.2133 27.8797 16.1733C27.8797 16.1733 28.1647 16.0733 28.2247 15.9067C28.2847 15.74 28.2997 15.7733 28.3497 15.7333C28.4097 15.68 28.7847 15.28 28.7397 15.1933C28.6947 15.1067 28.6897 14.9867 28.6547 14.9467C28.6547 14.9467 28.5797 15.0867 28.2047 15.3267C27.8447 15.5667 27.4347 15.74 27.1347 16.2733C26.8397 16.8067 26.8697 17.1133 27.2347 17.2533C27.2347 17.2533 27.4847 17.04 28.1147 17.1133C28.7347 17.1867 28.9447 17.5 28.9847 17.5533C29.0247 17.6133 29.1497 17.82 29.0297 18.16C29.0297 18.16 29.1547 18.2333 29.1597 18.0733C29.1747 17.92 29.1797 17.9533 29.2097 17.9733C29.2397 18 29.2747 18.0067 29.2597 17.88C29.2473 17.711 29.2081 17.5473 29.1447 17.4C29.0897 17.3 29.1547 17.3467 29.1897 17.36C29.2247 17.38 29.3547 17.5267 29.2797 17.26C29.2047 17.0067 29.1797 17.1267 29.1797 17.14C29.1797 17.16 29.1597 17.22 28.9897 17.0467C28.8579 16.9135 28.7087 16.8141 28.5497 16.7533C28.4347 16.7133 28.5147 16.7133 28.5847 16.6867C28.6547 16.6467 28.7397 16.6333 28.7747 16.5267C28.7747 16.5267 28.7047 16.5467 28.5847 16.4867C28.4876 16.4486 28.3853 16.4409 28.2856 16.464C28.1859 16.4871 28.0915 16.5405 28.0097 16.62C28.0097 16.62 28.0697 16.32 27.8847 16.3333C27.7047 16.3533 27.5747 16.3467 27.3847 16.5467C27.3847 16.5467 27.3697 16.24 27.5547 16.08C27.7397 15.9133 27.7147 16.0133 27.8147 15.9733C27.9147 15.9333 27.9297 15.7933 27.8847 15.7467C27.8847 15.7467 28.1247 15.8067 28.5247 15.36C28.5247 15.36 28.3097 15.74 28.0497 15.8133C28.0497 15.8133 28.0047 16.0133 27.7647 16.06C27.5247 16.1067 27.5347 16.2867 27.5347 16.3333H27.5297Z" fill="#7B3C20"/>
<path d="M26.8498 18.1799C26.8498 18.1799 26.9598 17.2399 27.6248 17.1733C28.1948 17.1066 28.3798 17.2066 28.4948 17.2599C28.6098 17.3133 28.8948 17.4199 28.7848 17.5399C28.6748 17.6599 28.6098 17.6399 28.6098 17.6399C28.6098 17.6399 28.7348 17.4466 28.6198 17.4199C28.5048 17.3866 28.4998 17.4799 28.4848 17.5533C28.4648 17.6399 28.4598 17.7266 28.4048 17.7933C28.4048 17.7933 28.3448 17.6999 28.2598 17.7799C28.1748 17.8599 28.2498 17.8599 28.2848 17.8466C28.3148 17.8333 28.3598 17.8133 28.3498 17.8799C28.3448 17.9466 28.2998 18.0666 28.1598 18.1599C28.0248 18.2533 28.0298 18.2466 27.8698 18.2866C27.7048 18.3199 27.5548 18.4066 27.3448 18.6399C27.1348 18.8799 26.9098 18.7999 26.8648 18.5399C26.8248 18.3133 26.8448 18.1799 26.8448 18.1799H26.8498Z" fill="#5A3719"/>
<path d="M27.5997 18.1467C27.5997 18.1467 27.6597 17.9667 27.5497 17.88C27.5497 17.88 27.2047 17.96 27.0997 17.82C27.0997 17.82 27.4747 17.7933 27.7097 17.6667C27.9397 17.5533 27.8747 17.4667 27.7947 17.44C27.7147 17.42 27.5647 17.4733 27.5497 17.5733C27.5497 17.5733 27.4997 17.4667 27.5597 17.4C27.6247 17.3267 27.7097 17.3133 27.7947 17.3467C27.8797 17.3733 27.9497 17.4267 28.2247 17.24C28.2247 17.24 28.3797 17.2867 28.3897 17.4267C28.3897 17.5733 28.3747 17.6267 28.3597 17.6467C28.3497 17.6733 28.3297 17.7133 28.2947 17.7133C28.2647 17.7 28.2197 17.6933 28.1797 17.7933C28.1447 17.8933 28.1147 17.9733 28.0497 18.04C28.0497 18.04 28.1247 17.7333 27.9247 17.66C27.9247 17.66 27.7597 17.7933 27.6347 17.8C27.6347 17.8 27.7947 18 27.5947 18.1467H27.5997Z" fill="black"/>
<path d="M27.965 17.5866C27.965 17.5866 27.885 17.48 27.985 17.46C28.085 17.4533 28.215 17.5533 28.195 17.64C28.165 17.72 28.045 17.7133 27.965 17.5866V17.5866Z" fill="#5A3719"/>
<path d="M33.6298 16.1067C33.6298 16.1067 33.4448 16.1733 33.6198 16.3267C33.7898 16.48 33.8698 16.6067 33.9948 16.6467C34.1198 16.6933 34.2448 16.7467 34.2448 16.9133C34.2448 17.08 34.2198 17.1467 34.1498 17.26C34.0848 17.3733 34.1898 17.42 34.2798 17.36C34.3698 17.2933 34.4448 17.26 34.5048 17.2133C34.5598 17.1667 34.6548 17.1733 34.5748 17.2333C34.4798 17.3 34.3898 17.3333 34.5048 17.3333C34.6198 17.34 35.3148 17.36 35.4598 17.2933C35.6098 17.2333 35.7998 17.2133 35.8098 16.96C35.8098 16.96 35.8198 16.8533 35.8748 16.8C35.9248 16.7533 35.9648 16.6467 35.8848 16.72C35.8098 16.7933 35.7498 16.8333 35.7348 16.8067C35.7198 16.7867 35.7098 16.7667 35.7698 16.7333C35.8298 16.7 35.8598 16.7333 35.9148 16.6333C35.9648 16.5267 35.9648 16.54 35.9348 16.5C35.9048 16.46 35.8448 16.4333 35.8748 16.38C35.9048 16.3267 35.9348 16.18 35.8048 16.2667C35.6798 16.3533 35.4248 16.5867 35.3048 16.62C35.1948 16.6533 35.1048 16.7 34.9498 16.74C34.7998 16.7867 34.6998 16.8333 34.5248 16.96C34.3598 17.08 34.3748 16.8867 34.3998 16.86C34.3998 16.86 34.4648 17.0133 34.6348 16.8133C34.8048 16.62 34.7498 16.8067 35.1648 16.62C35.5798 16.44 35.4798 16.4133 35.6398 16.3C35.8048 16.1867 35.9598 16.18 35.8398 16.0333C35.7298 15.8733 35.7198 15.8667 35.5748 16.0333C35.3395 16.2635 35.0643 16.4103 34.7748 16.46C34.7748 16.46 35.7148 15.9267 35.6198 15.8467C35.5378 15.7747 35.4486 15.7186 35.3548 15.68C35.2898 15.66 35.2698 15.64 35.1198 15.7333C34.9698 15.82 34.9448 15.84 34.9048 15.8467C34.8548 15.8467 34.7298 15.8867 34.5548 16.0067C34.3748 16.1333 34.2798 16.18 34.1548 16.2733C34.1548 16.2733 34.2398 16.0533 34.6098 15.9067C34.9798 15.76 35.1648 15.6267 35.1298 15.6C35.0948 15.5733 34.9948 15.5467 34.9298 15.5667C34.8548 15.5867 34.8798 15.56 34.6498 15.68C34.4248 15.8 34.5198 15.7733 34.3398 15.8267C34.1548 15.8733 34.0848 15.9267 33.9948 15.98C33.9948 15.98 34.0348 15.9133 34.1498 15.8533C34.2148 15.8267 34.0848 15.7933 34.2598 15.7867H34.3098C34.4603 15.7412 34.6051 15.6671 34.7398 15.5667C34.7048 15.56 34.4848 15.5267 34.2648 15.6733C34.0398 15.8067 34.1398 15.76 34.0648 15.7733C33.9848 15.8 33.8148 15.9333 33.7648 16C33.7098 16.06 33.6298 16.1 33.6298 16.1V16.1067Z" fill="white"/>
<path d="M28.1347 17.4533C28.1347 17.4533 28.2247 17.4866 28.2447 17.5733C28.2697 17.6533 28.3247 17.5333 28.3247 17.5C28.3197 17.46 28.2647 17.3 28.1747 17.3733C28.0747 17.4466 28.1247 17.4466 28.1347 17.4533Z" fill="#5A3719"/>
<path d="M27.8948 19.0666C27.8948 19.0666 28.0798 18.9466 28.2398 18.9666C28.2398 18.9666 28.1748 18.6733 28.2848 18.7199C28.3898 18.7733 28.3598 18.7466 28.3848 18.7466C28.3848 18.7466 28.3898 18.5533 28.3598 18.4799C28.3598 18.4799 28.4748 18.5133 28.5898 18.5133C28.5898 18.5133 28.4798 18.2399 28.5998 18.0466C28.6216 18.1013 28.6514 18.1495 28.6875 18.1885C28.7236 18.2274 28.7652 18.2563 28.8098 18.2733V18.1199C28.8098 18.1199 28.8948 18.0999 28.9598 18.1466C29.0298 18.1999 29.0848 17.6399 28.8848 17.5266C28.8848 17.5266 28.8348 17.6266 28.6498 17.6799C28.4648 17.7333 28.4648 17.7799 28.3898 17.9666C28.3148 18.1533 28.2398 18.1599 28.0798 18.2999C27.9298 18.4333 27.8298 18.6999 27.8298 18.7266C27.8298 18.7266 27.9048 18.8599 27.8948 19.0666V19.0666Z" fill="#7B3C20"/>
<path d="M34.1548 15.8533C34.2198 15.84 34.0848 15.7933 34.2548 15.7866H34.3048C34.457 15.7418 34.6036 15.6677 34.7398 15.5666C34.7048 15.56 34.4848 15.5266 34.2648 15.6666C34.0448 15.8066 34.1398 15.76 34.0648 15.78C33.9848 15.8 33.8148 15.9333 33.7648 16C33.7098 16.06 33.6298 16.1 33.6298 16.1C33.6298 16.1 33.4448 16.1666 33.6198 16.3266C33.7898 16.48 33.8698 16.6066 33.9948 16.6466C34.1198 16.6933 34.2448 16.7466 34.2448 16.9133C34.2475 16.9767 34.2405 17.0401 34.2241 17.0997C34.2078 17.1593 34.1825 17.2138 34.1498 17.26C34.0848 17.3733 34.1898 17.42 34.2798 17.36C34.3698 17.2933 34.4448 17.26 34.5048 17.2133C34.5598 17.1666 34.6548 17.1733 34.5698 17.2333C34.4798 17.3 34.3898 17.3333 34.5048 17.3333C34.6198 17.34 35.3148 17.36 35.4598 17.2933C35.6098 17.2333 35.7998 17.2133 35.8098 16.96C35.8098 16.96 35.8198 16.8533 35.8748 16.8C35.9248 16.7533 35.9648 16.6466 35.8848 16.72C35.8098 16.7933 35.7448 16.8333 35.7348 16.8066C35.7198 16.7866 35.7098 16.7666 35.7698 16.7333C35.8298 16.7 35.8598 16.7333 35.9148 16.6333C35.9648 16.5266 35.9648 16.54 35.9348 16.5L35.8848 16.44C35.8848 16.44 35.8398 16.3933 35.7898 16.4333C35.6798 16.5143 35.5621 16.5748 35.4398 16.6133C35.3598 16.62 35.2648 16.6733 35.1148 16.7733C34.9648 16.8733 34.7048 17.08 34.6648 16.8866L34.5248 16.9533C34.3548 17.0733 34.3748 16.9066 34.3998 16.86C34.3998 16.86 34.3098 16.9933 34.3148 16.8733C34.3148 16.7533 34.3748 16.7733 34.4798 16.7333C34.5798 16.6933 34.7298 16.6 34.6698 16.5333C34.6048 16.4666 34.5348 16.6 34.4598 16.6533C34.3898 16.7 34.2448 16.7333 34.2198 16.5933C34.1998 16.4533 34.1998 16.3533 34.0048 16.34C33.8048 16.3266 33.8098 16.16 33.8648 16.0866C33.9198 16.02 33.9648 15.9 34.1498 15.8533H34.1548Z" fill="#999999"/>
<path d="M34.78 17.1267C34.78 17.1267 35.085 16.94 35.365 16.8533C35.65 16.7667 35.425 16.8667 35.38 16.88C35.33 16.9 34.895 17.0933 34.79 17.16C34.69 17.2267 34.705 17.1733 34.78 17.1333V17.1267ZM34.85 17.2133C34.85 17.2133 35.195 17.06 35.26 17.12C35.325 17.1867 35.27 17.16 35.195 17.1733C35.115 17.18 34.91 17.2267 34.855 17.2267C34.8 17.2267 34.85 17.2133 34.85 17.2133V17.2133ZM35.4 17.0467C35.4 17.0467 35.47 17.0333 35.475 17.0733C35.48 17.1 35.445 17.1067 35.41 17.1C35.375 17.0933 35.345 17.0667 35.405 17.0467H35.4Z" fill="black"/>
<path d="M26.3001 21.06C26.3001 21.06 26.2851 20.6466 26.4401 20.4466C26.5951 20.2466 27.3301 19.2133 27.4451 18.9266C27.4451 18.9266 27.5451 19.0133 27.5451 19.18C27.5451 19.18 27.6701 18.8933 27.7701 18.78C27.7701 18.78 27.8551 18.9 27.8451 19.14C27.8451 19.14 28.0201 19.0133 28.2951 19.0133C28.2951 19.0133 28.1951 19.1733 28.1901 19.2733C28.1901 19.2733 28.5701 19.2066 28.7751 19.2533C28.7751 19.2533 28.2451 19.6533 28.3901 19.6866C28.5451 19.72 28.7001 19.6866 28.7001 19.6866C28.7001 19.6866 28.5301 19.9066 28.2601 19.9533C28.2601 19.9533 28.6051 19.9533 28.6701 20.0533C28.6701 20.0533 28.3401 20.12 28.0701 20.3866C28.0701 20.3866 28.0501 20.3733 28.0501 20.2733C28.0501 20.2733 28.0351 20.3666 27.9601 20.4533C27.8851 20.5333 27.7051 20.72 27.6351 20.8066C27.5651 20.8933 27.4451 21.0733 27.3051 21.0733C27.3051 21.0733 27.3351 20.9333 27.2351 20.8866C27.1832 20.863 27.1272 20.8599 27.074 20.8777C27.0208 20.8954 26.9726 20.9332 26.9351 20.9866C26.9351 20.9866 26.5851 20.9933 26.4651 21.02C26.4651 21.02 26.5451 20.8466 26.6151 20.8466C26.6951 20.8466 26.9951 20.9133 27.0201 20.6333C27.0501 20.3666 26.8301 20.4333 26.9101 20.2733C26.9951 20.1133 26.9751 20.1266 26.9801 20.1C26.9801 20.1 26.9101 20.1533 26.8701 20.3C26.8375 20.4621 26.7632 20.6037 26.6601 20.7C26.5617 20.7846 26.4795 20.8987 26.4201 21.0333C26.4201 21.0333 26.3551 21.0333 26.3001 21.06V21.06Z" fill="white"/>
<path d="M26.6396 20.8133C26.6396 20.8133 26.6546 20.76 26.7546 20.7333C26.8646 20.7133 26.8696 20.6466 26.8546 20.6133C26.8396 20.5866 26.7796 20.5866 26.8796 20.4266C26.8796 20.4266 26.9196 20.4466 26.9396 20.48C26.9696 20.52 27.0846 20.8466 26.6396 20.8133Z" fill="white"/>
<path d="M26.3949 20.5266C26.3949 20.7933 26.6599 20.6933 26.6599 20.6933C26.5895 20.7626 26.5257 20.8432 26.4699 20.9333C26.4899 20.8 26.3199 20.7666 26.3199 20.7666C26.3352 20.6818 26.3605 20.6008 26.3949 20.5266V20.5266ZM27.3599 19.0933L27.4449 18.9266C27.4449 18.9266 27.5449 19.0133 27.5449 19.18C27.5449 19.18 27.6699 18.8933 27.7699 18.78C27.7699 18.78 27.8549 18.9 27.8449 19.14C27.8449 19.14 28.0199 19.0133 28.2949 19.0133C28.2949 19.0133 28.1949 19.1733 28.1899 19.2733C28.1899 19.2733 28.5699 19.2066 28.7749 19.2533C28.7749 19.2533 28.2449 19.6533 28.3899 19.6866C28.5449 19.72 28.6999 19.6866 28.6999 19.6866C28.6999 19.6866 28.5299 19.9066 28.2599 19.9533C28.2599 19.9533 28.6049 19.9533 28.6699 20.0533C28.6699 20.0533 28.5699 20.0733 28.4399 20.1333C28.4399 20.1333 28.3449 20.0133 28.0599 20.0333C28.0599 20.0333 28.2799 19.86 28.4599 19.8066C28.4599 19.8066 28.3799 19.6733 28.2599 19.8C28.2599 19.8 28.0149 19.58 28.2199 19.3866C28.2199 19.3866 28.0799 19.3533 27.9849 19.44C27.9849 19.44 27.9849 19.2866 28.0899 19.22C28.0899 19.22 27.8199 19.1533 27.7549 19.42C27.7549 19.42 27.7049 19.32 27.7299 19.1933C27.7299 19.1933 27.5649 19.32 27.4899 19.46C27.4899 19.46 27.4649 19.1933 27.3599 19.0933M26.8399 20.8C26.7949 20.8133 26.7249 20.82 26.6399 20.8133C26.6399 20.8133 26.6499 20.78 26.7049 20.7466C26.7049 20.7466 26.7249 20.8 26.8399 20.8Z" fill="#999999"/>
<path d="M27.3298 19.78C27.3298 19.78 27.4548 19.9133 27.4948 19.98C27.4948 19.98 27.6098 19.8867 27.6448 19.8C27.6448 19.8 27.7398 19.8733 27.7648 19.9867C27.7648 19.9867 27.8298 19.9333 27.8398 19.8533C27.8398 19.8533 27.9898 19.8933 28.0498 19.96C28.0498 19.96 28.0698 19.76 28.0498 19.64C28.0498 19.64 28.1548 19.6533 28.2198 19.6867C28.2198 19.6867 28.1598 19.5533 28.4698 19.3867C28.4698 19.3867 28.2348 19.46 28.1448 19.5867C28.1448 19.5867 28.0448 19.6 27.9998 19.56V19.86C27.9998 19.86 27.9398 19.82 27.8248 19.7867C27.8248 19.7867 27.7948 19.8533 27.7748 19.8667C27.7748 19.8667 27.6998 19.7867 27.6698 19.6867C27.6698 19.6867 27.5548 19.8267 27.5198 19.8867C27.5198 19.8867 27.4048 19.78 27.3298 19.78V19.78Z" fill="black"/>
<path d="M26.6246 21.82C26.6246 21.82 26.6746 21.8467 26.7896 21.7267C26.9046 21.6067 27.2246 21.3333 27.2496 21.1133C27.2846 20.8933 27.1496 20.8867 27.0496 20.9467C26.9396 21.0133 26.9846 21.1267 26.9896 21.1733C26.9896 21.2133 26.9996 21.3667 26.8246 21.5733L26.6246 21.82Z" fill="#FFC221"/>
<path d="M26.5949 21.8866C26.5949 21.8866 26.3349 21.74 26.5649 21.5866C26.7949 21.4333 26.8999 21.3933 26.9249 21.26C26.9549 21.1333 26.9349 21.16 26.8499 21.2133C26.7649 21.26 26.4399 21.4666 26.3899 21.28C26.3899 21.28 26.5249 21.3466 26.6899 21.24C26.8599 21.1266 26.9999 21.1 26.8899 21.0533C26.7063 21.0278 26.5209 21.039 26.3399 21.0866C26.2699 21.1133 26.2899 21.1066 26.2749 21.1933C26.2649 21.28 26.1949 21.46 26.1649 21.5066C26.1399 21.56 26.0749 21.7733 26.1949 21.8733C26.2557 21.9186 26.324 21.9434 26.3936 21.9458C26.4633 21.9481 26.5324 21.9278 26.5949 21.8866V21.8866Z" fill="#FFC221"/>
<path d="M26.4949 21.1333C26.4949 21.1333 26.4299 21.1466 26.4449 21.18C26.4549 21.2133 26.4699 21.2066 26.4949 21.2066C26.5099 21.2066 26.5449 21.1933 26.5499 21.1733C26.5499 21.1533 26.5099 21.1266 26.4949 21.14V21.1333Z" fill="black"/>
<path d="M26.5747 21.8066C26.5747 21.8066 26.4547 21.7333 26.5947 21.6333C26.7297 21.5333 26.8747 21.4333 26.8947 21.3933C26.8947 21.3933 26.8297 21.52 26.5747 21.8066V21.8066Z" fill="white"/>
</g>
<rect x="2" y="2" width="36" height="36" rx="18" stroke="white" stroke-width="4"/>
<defs>
<clipPath id="clip0_90_37816">
<rect x="4" y="4" width="32" height="32" rx="16" fill="white"/>
</clipPath>
</defs>
</svg>
