<svg width="40" height="40" viewBox="0 0 40 40" fill="none" xmlns="http://www.w3.org/2000/svg">
<g clip-path="url(#clip0_90_37805)">
<path d="M4 4H36V36H4V4Z" fill="#00008B"/>
<path d="M5.875 4L11.975 10.0333L18.05 4H20V6.06667L14 12.0333L20 17.9667V20H18L12 14.0333L6.025 20H4V18L9.975 12.0667L4 6.13333V4H5.875Z" fill="white"/>
<path d="M14.6 13.3667L20 18.6667V20L13.225 13.3667H14.6ZM10 14.0333L10.15 15.2L5.35 20H4L10 14.0333ZM20 4V4.1L13.775 10.3667L13.825 8.9L18.75 4H20ZM4 4L9.975 9.86667H8.475L4 5.4V4Z" fill="#FF0000"/>
<path d="M10.025 4V20H14.025V4H10.025ZM4 9.33333V14.6667H20V9.33333H4Z" fill="white"/>
<path d="M4 10.4333V13.6333H20V10.4333H4ZM10.825 4V20H13.225V4H10.825Z" fill="#FF0000"/>
<path d="M30.3497 30.4466L29.3247 30.6199L29.4347 31.9866L28.6947 31.0266L27.9597 31.9933L28.0597 30.6266L27.0347 30.4666L27.8997 29.7199L27.3547 28.5533L28.3347 28.9866L28.6797 27.6866L29.0347 28.9799L30.0097 28.5333L29.4747 29.7066L30.3447 30.4466H30.3497ZM30.1647 22.6333L30.2997 21.7666L29.8097 21.1666L30.4697 21.0666L30.7447 20.2599L31.0197 21.0666L31.6797 21.1666L31.1897 21.7666L31.3247 22.6333L30.7447 22.1933L30.1647 22.6333V22.6333ZM24.9597 18.6333L23.9447 18.7799L24.0347 20.1333L23.3147 19.1666L22.5747 20.1066L22.6947 18.7533L21.6847 18.5733L22.5497 17.8533L22.0247 16.6866L22.9897 17.1399L23.3497 15.8666L23.6847 17.1533L24.6547 16.7333L24.1097 17.8866L24.9647 18.6333H24.9597ZM35.1497 16.4466L34.1047 16.6266L34.2197 18.0199L33.4647 17.0399L32.7147 18.0266L32.8197 16.6266L31.7747 16.4666L32.6597 15.6999L32.1047 14.5066L33.1047 14.9533L33.4547 13.6333L33.8147 14.9533L34.8097 14.4933L34.2597 15.6933L35.1497 16.4466ZM30.3447 10.8799L29.3097 11.0333L29.4047 12.4199L28.6697 11.4333L27.9147 12.3933L28.0347 11.0133L26.9997 10.8266L27.8847 10.0933L27.3497 8.89994L28.3347 9.35994L28.6997 8.05994L29.0397 9.37327L30.0297 8.93994L29.4747 10.1133L30.3447 10.8799V10.8799ZM15.6997 29.7133L13.4097 30.0733L13.6397 33.1333L11.9997 30.9733L10.3497 33.1199L10.5947 30.0599L8.30469 29.6733L10.2497 28.0199L9.04969 25.3933L11.2297 26.3933L12.0197 23.4999L12.7947 26.3999L14.9797 25.4199L13.7647 28.0333L15.7047 29.7066L15.6997 29.7133Z" fill="white"/>
</g>
<rect x="2" y="2" width="36" height="36" rx="18" stroke="white" stroke-width="4"/>
<defs>
<clipPath id="clip0_90_37805">
<rect x="4" y="4" width="32" height="32" rx="16" fill="white"/>
</clipPath>
</defs>
</svg>
