<svg width="40" height="40" viewBox="0 0 40 40" fill="none" xmlns="http://www.w3.org/2000/svg">
<g clip-path="url(#clip0_90_37625)">
<path d="M4 4V35.9997H39.9996V4H4Z" fill="#3399CC"/>
<path d="M4.00012 25.3331V27.1108H39.9998V25.3331H4.00012ZM4.00012 28.8886V30.6663H39.9998V28.8886H4.00012Z" fill="#FFFF00"/>
<path d="M11.1351 5.86664L11.2801 6.06664L11.1301 5.86664H11.1351ZM10.9851 6.26664L11.1351 6.46664L10.9851 6.26664ZM11.2801 6.26664L11.4301 6.46664L11.2801 6.26664Z" fill="#99CCCC"/>
<path d="M10.9851 6.46663L11.1351 6.65996L10.9851 6.45996M11.2801 6.45996L11.4301 6.65996L11.2801 6.45996Z" fill="#CCCCFF"/>
<path d="M10.835 6.85333L10.985 7.05333L10.835 6.85333Z" fill="#66CCCC"/>
<path d="M11.1351 6.85333L11.2801 7.05333L11.1301 6.85333H11.1351Z" fill="#CC6666"/>
<path d="M11.4299 6.85333L11.5749 7.05333L11.4249 6.85333H11.4299Z" fill="#66CCCC"/>
<path d="M10.835 7.05334L10.985 7.25334L10.835 7.05334ZM11.43 7.05334L11.575 7.25334L11.425 7.05334H11.43Z" fill="#CCCCFF"/>
<path d="M10.9851 7.24664L11.1351 7.44664L10.9851 7.24664ZM11.2801 7.24664L11.4301 7.44664L11.2801 7.24664Z" fill="#FFCCCC"/>
<path d="M10.6899 7.44666L10.8399 7.64666L10.6899 7.44666Z" fill="#66CCCC"/>
<path d="M11.1101 6.26666L10.0751 11.5L6.14014 12.9333L10.0601 14.3L11.1101 19.5267L12.1551 14.3L16.0751 12.9L12.1551 11.5067L11.1051 6.28L11.1101 6.26666Z" fill="#CC0000"/>
<path fill-rule="evenodd" clip-rule="evenodd" d="M11.0105 6.28615L9.99918 11.3997L5.78186 12.9359L9.98459 14.4012L11.1102 20.0044L12.2306 14.4007L16.4333 12.8997L12.2305 11.4058L11.1944 6.24806L11.1392 6.26777L11.0273 6.21149L11.0066 6.26668L11.0105 6.28615ZM11.1069 6.76606L10.1509 11.6002L6.49819 12.9307L10.1355 14.1988L11.1098 19.0489L12.0794 14.1993L15.7167 12.9003L12.0795 11.6074L11.1069 6.76606Z" fill="white"/>
<path d="M11.575 7.44666L11.725 7.64666L11.575 7.44666Z" fill="#66CCCC"/>
<path d="M10.6899 7.64001L10.8399 7.84001L10.6899 7.64001ZM11.5749 7.64001L11.7249 7.84001L11.5749 7.64001Z" fill="#99CCFF"/>
<path d="M10.835 7.84003L10.985 8.04003L10.835 7.84003ZM11.43 7.84003L11.575 8.04003L11.425 7.84003H11.43Z" fill="#FFCCCC"/>
<path d="M10.5403 8.03333L10.6903 8.23333L10.5403 8.03333Z" fill="#6699CC"/>
<path d="M10.8851 8.16663L10.9351 8.29996L10.8851 8.16663ZM11.4751 8.16663L11.5251 8.29996L11.4751 8.16663Z" fill="#CC3333"/>
<path d="M11.7251 8.03333L11.8751 8.23333L11.7251 8.03333Z" fill="#6699CC"/>
<path d="M10.5403 8.23334L10.6903 8.43334L10.5403 8.23334ZM11.7253 8.23334L11.8753 8.43334L11.7253 8.23334Z" fill="#99CCFF"/>
<path d="M10.6899 8.42664L10.8399 8.62664L10.6899 8.42664ZM11.5749 8.42664L11.7249 8.62664L11.5749 8.42664Z" fill="#FFCCCC"/>
<path d="M10.3951 8.62665L10.5451 8.82665L10.3951 8.62665ZM11.8701 8.62665L12.0201 8.82665L11.8701 8.62665Z" fill="#6699CC"/>
<path d="M10.3951 8.81995L10.5451 9.01995L10.3951 8.81995ZM11.8701 8.81995L12.0201 9.01995L11.8701 8.81995Z" fill="#99CCCC"/>
<path d="M10.3951 9.01996L10.5451 9.21996L10.3951 9.01996ZM11.8701 9.01996L12.0201 9.21996L11.8701 9.01996Z" fill="#CCFFFF"/>
<path d="M10.2501 9.21998L10.3951 9.41332L10.2451 9.21332L10.2501 9.21998Z" fill="#6699CC"/>
<path d="M10.5403 9.21998L10.6903 9.41332L10.5403 9.21332M11.7253 9.21332L11.8753 9.41332L11.7253 9.21332Z" fill="#FFCCCC"/>
<path d="M12.0203 9.21998L12.1703 9.41332L12.0203 9.21332V9.21998Z" fill="#6699CC"/>
<path d="M10.2501 9.41333L10.3951 9.61333L10.2451 9.41333H10.2501Z" fill="#99CCCC"/>
<path d="M10.59 9.54663L10.64 9.67996L10.59 9.54663ZM11.77 9.54663L11.82 9.67996L11.77 9.54663Z" fill="#CC3333"/>
<path d="M12.0203 9.41333L12.1703 9.61333L12.0203 9.41333Z" fill="#99CCCC"/>
<path d="M10.2501 9.61334L10.3951 9.81334L10.2451 9.61334M12.0201 9.61334L12.1701 9.81334L12.0201 9.61334Z" fill="#CCFFFF"/>
<path d="M10.3951 9.80664L10.5451 10.0066L10.3951 9.80664ZM11.8701 9.80664L12.0201 10.0066L11.8701 9.80664Z" fill="#FFCCCC"/>
<path d="M10.1 10L10.25 10.2L10.1 10Z" fill="#99CCCC"/>
<path d="M10.4453 10.1333L10.4953 10.2666L10.4453 10.1333ZM11.9203 10.1333L11.9703 10.2666L11.9203 10.1333Z" fill="#CC3333"/>
<path d="M12.1649 10L12.3149 10.2L12.1649 10Z" fill="#99CCCC"/>
<path d="M10.1 10.2L10.25 10.4L10.1 10.2ZM12.165 10.2L12.315 10.4L12.165 10.2Z" fill="#CCCCFF"/>
<path d="M10.2501 10.4L10.3951 10.6L10.2451 10.4M12.0201 10.4L12.1701 10.6L12.0201 10.4Z" fill="#FFCCCC"/>
<path d="M9.94995 10.5999L10.1 10.7933L9.94995 10.5933V10.5999Z" fill="#99CCCC"/>
<path d="M10.3003 10.7266L10.3453 10.86L10.2953 10.7266M12.0653 10.7266L12.1153 10.86L12.0653 10.7266Z" fill="#CC3333"/>
<path d="M12.3149 10.5999L12.4649 10.7933L12.3149 10.5933V10.5999Z" fill="#99CCCC"/>
<path d="M9.94995 10.7933L10.1 10.9933L9.94995 10.7933ZM12.315 10.7933L12.465 10.9933L12.315 10.7933Z" fill="#CCCCFF"/>
<path d="M10.1 10.9866L10.25 11.1866L10.1 10.9866ZM12.165 10.9866L12.315 11.1866L12.165 10.9866Z" fill="#FFCCCC"/>
<path d="M9.80029 11.1866L9.95029 11.3866L9.80029 11.1866Z" fill="#99CCCC"/>
<path d="M10.1 11.1866L10.25 11.3866L10.1 11.1866ZM12.165 11.1866L12.315 11.3866L12.165 11.1866Z" fill="#CC3333"/>
<path d="M12.46 11.1866L12.61 11.3866L12.46 11.1866ZM9.35999 11.3866L9.50999 11.58L9.35999 11.38V11.3866Z" fill="#99CCCC"/>
<path d="M9.51001 11.3799L9.66001 11.5799L9.51001 11.3799ZM12.76 11.3799L12.905 11.5799L12.755 11.3799H12.76Z" fill="#CCCCFF"/>
<path d="M12.9002 11.3799L13.0502 11.5799L12.9002 11.3799ZM8.92017 11.5799L9.07017 11.7799L8.92017 11.5799Z" fill="#99CCCC"/>
<path d="M9.06519 11.58L9.21519 11.78L9.06519 11.58Z" fill="#CCCCFF"/>
<path d="M9.65515 11.58L9.80515 11.78L9.65515 11.58Z" fill="#FFCCCC"/>
<path d="M9.80029 11.58L9.95029 11.78L9.80029 11.58ZM12.4603 11.58L12.6103 11.78L12.4603 11.58Z" fill="#CC3333"/>
<path d="M12.6101 11.58L12.7601 11.78L12.6101 11.58Z" fill="#FFCCCC"/>
<path d="M13.2001 11.58L13.3501 11.78L13.2001 11.58Z" fill="#CCCCFF"/>
<path d="M13.3502 11.58L13.4952 11.78L13.3452 11.58H13.3502Z" fill="#99CCCC"/>
<path d="M8.32983 11.7733L8.47983 11.9733L8.32983 11.7733Z" fill="#6699CC"/>
<path d="M8.47534 11.7733L8.62534 11.9733L8.47534 11.7733Z" fill="#99CCCC"/>
<path d="M8.625 11.7733L8.775 11.9733L8.625 11.7733Z" fill="#CCFFFF"/>
<path d="M9.21484 11.7733L9.36484 11.9733L9.21484 11.7733Z" fill="#FFCCCC"/>
<path d="M9.46033 11.84L9.56033 11.9067L9.46033 11.84ZM12.8553 11.84L12.9553 11.9067L12.8553 11.84Z" fill="#CC3333"/>
<path d="M13.0499 11.7733L13.1999 11.9733L13.0499 11.7733Z" fill="#FFCCCC"/>
<path d="M13.6399 11.7733L13.7899 11.9733L13.6399 11.7733Z" fill="#CCFFFF"/>
<path d="M13.79 11.7733L13.94 11.9733L13.79 11.7733Z" fill="#99CCCC"/>
<path d="M13.935 11.7733L14.085 11.9733L13.935 11.7733ZM7.88501 11.9733L8.03501 12.1733L7.88501 11.9733Z" fill="#6699CC"/>
<path d="M8.03503 11.9733L8.18503 12.1733L8.03503 11.9733Z" fill="#99CCCC"/>
<path d="M8.18018 11.9733L8.33018 12.1733L8.18018 11.9733Z" fill="#CCFFFF"/>
<path d="M8.77002 11.9733L8.92002 12.1733L8.77002 11.9733Z" fill="#FFCCCC"/>
<path d="M9.01501 12.04L9.11501 12.1066L9.01501 12.04ZM13.295 12.04L13.395 12.1066L13.295 12.04Z" fill="#CC3333"/>
<path d="M13.4952 11.9733L13.6452 12.1733L13.4952 11.9733Z" fill="#FFCCCC"/>
<path d="M14.0852 11.9733L14.2352 12.1733L14.0852 11.9733Z" fill="#CCFFFF"/>
<path d="M14.2299 11.9733L14.3799 12.1733L14.2299 11.9733Z" fill="#99CCCC"/>
<path d="M14.3802 11.9733L14.5302 12.1733L14.3802 11.9733ZM7.44019 12.1733L7.59019 12.3667L7.44019 12.1667V12.1733Z" fill="#6699CC"/>
<path d="M7.59021 12.1666L7.74021 12.3666L7.59021 12.1666Z" fill="#99CCFF"/>
<path d="M8.32983 12.1666L8.47983 12.3666L8.32983 12.1666Z" fill="#FFCCCC"/>
<path d="M8.5752 12.2333L8.6752 12.3L8.5752 12.2333ZM13.7402 12.2333L13.8402 12.3L13.7402 12.2333Z" fill="#CC3333"/>
<path d="M13.9351 12.1666L14.0851 12.3666L13.9351 12.1666Z" fill="#FFCCCC"/>
<path d="M14.675 12.1666L14.825 12.3666L14.675 12.1666Z" fill="#99CCFF"/>
<path d="M14.8202 12.1666L14.9702 12.3666L14.8202 12.1666Z" fill="#6699CC"/>
<path d="M7.00024 12.3666L7.15024 12.5666L7.00024 12.3666Z" fill="#66CCCC"/>
<path d="M7.15039 12.3666L7.29539 12.5666L7.14539 12.3666H7.15039Z" fill="#99CCFF"/>
<path d="M7.74035 12.3666L7.88535 12.5666L7.73535 12.3666H7.74035ZM14.5304 12.3666L14.6754 12.5666L14.5254 12.3666H14.5304Z" fill="#FFCCCC"/>
<path d="M15.1149 12.3666L15.2649 12.5666L15.1149 12.3666Z" fill="#99CCFF"/>
<path d="M15.2651 12.3666L15.4151 12.5666L15.2651 12.3666ZM6.55505 12.5666L6.70505 12.76L6.55505 12.56V12.5666Z" fill="#66CCCC"/>
<path d="M6.7002 12.5599L6.8502 12.7599L6.7002 12.5599Z" fill="#CCCCFF"/>
<path d="M7.29504 12.5599L7.44504 12.7599L7.29504 12.5599Z" fill="#FFCCCC"/>
<path d="M7.54004 12.6266L7.64004 12.6933L7.54004 12.6266ZM14.775 12.6266L14.875 12.6933L14.775 12.6266Z" fill="#CC3333"/>
<path d="M14.9702 12.5599L15.1202 12.7599L14.9702 12.5599Z" fill="#FFCCCC"/>
<path d="M15.5602 12.5599L15.7102 12.7599L15.5602 12.5599Z" fill="#CCCCFF"/>
<path d="M15.7102 12.5599L15.8602 12.7599L15.7102 12.5599Z" fill="#66CCCC"/>
<path d="M6.11523 12.7599L6.26523 12.9599L6.11523 12.7599Z" fill="#99CCCC"/>
<path d="M6.26025 12.7599L6.41025 12.9599L6.26025 12.7599Z" fill="#CCCCFF"/>
<path d="M6.85022 12.7599L7.00022 12.9599L6.85022 12.7599ZM15.4152 12.7599L15.5652 12.9599L15.4152 12.7599Z" fill="#FFCCCC"/>
<path d="M16 12.7599L16.15 12.9599L16 12.7599Z" fill="#CCCCFF"/>
<path d="M16.1501 12.7599L16.3001 12.9599L16.1501 12.7599ZM5.82007 12.9599L5.97007 13.1533L5.82007 12.9533V12.9599Z" fill="#99CCCC"/>
<path d="M6.55505 12.9533L6.70505 13.1533L6.55505 12.9533ZM15.7051 12.9533L15.8551 13.1533L15.7051 12.9533Z" fill="#CC6666"/>
<path d="M16.4502 12.9533L16.5952 13.1533L16.4452 12.9533M6.11523 13.1533L6.26523 13.3533L6.11523 13.1533Z" fill="#99CCCC"/>
<path d="M6.26025 13.1533L6.41025 13.3533L6.26025 13.1533Z" fill="#CCCCFF"/>
<path d="M6.85022 13.1533L7.00022 13.3533L6.85022 13.1533ZM15.4152 13.1533L15.5652 13.3533L15.4152 13.1533Z" fill="#FFCCCC"/>
<path d="M16 13.1533L16.15 13.3533L16 13.1533Z" fill="#CCCCFF"/>
<path d="M16.15 13.1533L16.3 13.3533L16.15 13.1533Z" fill="#99CCCC"/>
<path d="M6.55505 13.3533L6.70505 13.5466L6.55505 13.3466V13.3533Z" fill="#66CCCC"/>
<path d="M6.7002 13.3533L6.8502 13.5466L6.7002 13.3466V13.3533Z" fill="#CCCCFF"/>
<path d="M7.29504 13.3533L7.44504 13.5466L7.29504 13.3466V13.3533Z" fill="#FFCCCC"/>
<path d="M7.54004 13.4133L7.64004 13.48L7.54004 13.4133ZM14.775 13.4133L14.875 13.48L14.775 13.4133Z" fill="#CC3333"/>
<path d="M14.9702 13.3533L15.1202 13.5466L14.9702 13.3466V13.3533Z" fill="#FFCCCC"/>
<path d="M15.5602 13.3533L15.7102 13.5466L15.5602 13.3466V13.3533Z" fill="#CCCCFF"/>
<path d="M15.7102 13.3533L15.8602 13.5466L15.7102 13.3466M7.00024 13.5466L7.15024 13.7466L7.00024 13.5466Z" fill="#66CCCC"/>
<path d="M7.15039 13.5466L7.29539 13.7466L7.14539 13.5466H7.15039Z" fill="#99CCFF"/>
<path d="M7.74035 13.5466L7.88535 13.7466L7.73535 13.5466H7.74035ZM14.5304 13.5466L14.6754 13.7466L14.5254 13.5466H14.5304Z" fill="#FFCCCC"/>
<path d="M15.1149 13.5466L15.2649 13.7466L15.1149 13.5466Z" fill="#99CCFF"/>
<path d="M15.265 13.5466L15.415 13.7466L15.265 13.5466Z" fill="#66CCCC"/>
<path d="M7.44019 13.7467L7.59019 13.94L7.44019 13.74V13.7467Z" fill="#6699CC"/>
<path d="M7.59021 13.7467L7.74021 13.94L7.59021 13.74V13.7467Z" fill="#99CCFF"/>
<path d="M8.32983 13.7467L8.47983 13.94L8.32983 13.74V13.7467Z" fill="#FFCCCC"/>
<path d="M8.5752 13.8066L8.6752 13.8733L8.5752 13.8066ZM13.7402 13.8066L13.8402 13.8733L13.7402 13.8066Z" fill="#CC3333"/>
<path d="M13.9351 13.7467L14.0851 13.94L13.9351 13.74V13.7467Z" fill="#FFCCCC"/>
<path d="M14.675 13.7467L14.825 13.94L14.675 13.74V13.7467Z" fill="#99CCFF"/>
<path d="M14.82 13.7467L14.97 13.94L14.82 13.74M7.88501 13.94L8.03501 14.14L7.88501 13.94Z" fill="#6699CC"/>
<path d="M8.03503 13.94L8.18503 14.14L8.03503 13.94Z" fill="#99CCCC"/>
<path d="M8.18018 13.94L8.33018 14.14L8.18018 13.94Z" fill="#CCFFFF"/>
<path d="M8.77002 13.94L8.92002 14.14L8.77002 13.94Z" fill="#FFCCCC"/>
<path d="M9.01501 13.9999L9.11501 14.0666L9.01501 13.9999ZM13.295 13.9999L13.395 14.0666L13.295 13.9999Z" fill="#CC3333"/>
<path d="M13.4952 13.94L13.6452 14.14L13.4952 13.94Z" fill="#FFCCCC"/>
<path d="M14.0852 13.94L14.2352 14.14L14.0852 13.94Z" fill="#CCFFFF"/>
<path d="M14.2299 13.94L14.3799 14.14L14.2299 13.94Z" fill="#99CCCC"/>
<path d="M14.3802 13.94L14.5302 14.14L14.3802 13.94ZM8.3302 14.14L8.4752 14.3333L8.3252 14.1333L8.3302 14.14Z" fill="#6699CC"/>
<path d="M8.47534 14.1333L8.62534 14.3333L8.47534 14.1333Z" fill="#99CCCC"/>
<path d="M8.625 14.1333L8.775 14.3333L8.625 14.1333Z" fill="#CCFFFF"/>
<path d="M9.21484 14.1333L9.36484 14.3333L9.21484 14.1333Z" fill="#FFCCCC"/>
<path d="M9.46033 14.2L9.56033 14.2666L9.46033 14.2ZM12.8553 14.2L12.9553 14.2666L12.8553 14.2Z" fill="#CC3333"/>
<path d="M13.0499 14.1333L13.1999 14.3333L13.0499 14.1333Z" fill="#FFCCCC"/>
<path d="M13.6399 14.1333L13.7899 14.3333L13.6399 14.1333Z" fill="#CCFFFF"/>
<path d="M13.79 14.1333L13.94 14.3333L13.79 14.1333Z" fill="#99CCCC"/>
<path d="M13.9351 14.1333L14.0851 14.3333L13.9351 14.1333Z" fill="#6699CC"/>
<path d="M8.92017 14.3333L9.07017 14.5333L8.92017 14.3333Z" fill="#99CCCC"/>
<path d="M9.06519 14.3333L9.21519 14.5333L9.06519 14.3333Z" fill="#CCCCFF"/>
<path d="M9.65515 14.3333L9.80515 14.5333L9.65515 14.3333Z" fill="#FFCCCC"/>
<path d="M9.80029 14.3333L9.95029 14.5333L9.80029 14.3333ZM12.4603 14.3333L12.6103 14.5333L12.4603 14.3333Z" fill="#CC3333"/>
<path d="M12.6101 14.3333L12.7601 14.5333L12.6101 14.3333Z" fill="#FFCCCC"/>
<path d="M13.2001 14.3333L13.3501 14.5333L13.2001 14.3333Z" fill="#CCCCFF"/>
<path d="M13.35 14.3333L13.495 14.5333L13.345 14.3333M9.35999 14.5333L9.50999 14.7333L9.35999 14.5333Z" fill="#99CCCC"/>
<path d="M9.51001 14.5333L9.66001 14.7333L9.51001 14.5333ZM12.76 14.5333L12.905 14.7333L12.755 14.5333H12.76Z" fill="#CCCCFF"/>
<path d="M12.9003 14.5333L13.0503 14.7333L12.9003 14.5333ZM9.80029 14.7333L9.95029 14.9267L9.80029 14.7267V14.7333Z" fill="#99CCCC"/>
<path d="M10.1 14.7333L10.25 14.9266L10.1 14.7266M12.165 14.7266L12.315 14.9266L12.165 14.7266Z" fill="#CC3333"/>
<path d="M12.4601 14.7333L12.6101 14.9266L12.4601 14.7266V14.7333Z" fill="#99CCCC"/>
<path d="M10.1 14.9266L10.25 15.1266L10.1 14.9266ZM12.165 14.9266L12.315 15.1266L12.165 14.9266Z" fill="#FFCCCC"/>
<path d="M9.94995 15.12L10.1 15.32L9.94995 15.12Z" fill="#CCCCFF"/>
<path d="M10.3003 15.2533L10.3453 15.3866L10.2953 15.2533M12.0653 15.2533L12.1153 15.3866L12.0653 15.2533Z" fill="#CC3333"/>
<path d="M12.3149 15.12L12.4649 15.32L12.3149 15.12Z" fill="#CCCCFF"/>
<path d="M9.94995 15.32L10.1 15.52L9.94995 15.32ZM12.315 15.32L12.465 15.52L12.315 15.32Z" fill="#99CCCC"/>
<path d="M10.2501 15.5133L10.3951 15.7133L10.2451 15.5133M12.0201 15.5133L12.1701 15.7133L12.0201 15.5133Z" fill="#FFCCCC"/>
<path d="M10.1 15.7133L10.25 15.9133L10.1 15.7133Z" fill="#CCCCFF"/>
<path d="M10.4453 15.84L10.4953 15.9734L10.4453 15.84ZM11.9203 15.84L11.9703 15.9734L11.9203 15.84Z" fill="#CC3333"/>
<path d="M12.1649 15.7133L12.3149 15.9133L12.1649 15.7133Z" fill="#CCCCFF"/>
<path d="M10.1 15.9067L10.25 16.1067L10.1 15.9067ZM12.165 15.9067L12.315 16.1067L12.165 15.9067Z" fill="#99CCCC"/>
<path d="M10.3951 16.1067L10.5451 16.3067L10.3951 16.1067ZM11.8701 16.1067L12.0201 16.3067L11.8701 16.1067Z" fill="#FFCCCC"/>
<path d="M10.2501 16.3L10.3951 16.5L10.2451 16.3H10.2501Z" fill="#CCFFFF"/>
<path d="M10.59 16.4333L10.64 16.5666L10.59 16.4333ZM11.77 16.4333L11.82 16.5666L11.77 16.4333Z" fill="#CC3333"/>
<path d="M12.0203 16.3L12.1703 16.5L12.0203 16.3Z" fill="#CCFFFF"/>
<path d="M10.2501 16.5L10.3951 16.7L10.2451 16.5M12.0201 16.5L12.1701 16.7L12.0201 16.5Z" fill="#99CCCC"/>
<path d="M10.2501 16.6933L10.3951 16.8933L10.2451 16.6933H10.2501Z" fill="#6699CC"/>
<path d="M10.5403 16.6933L10.6903 16.8933L10.5403 16.6933ZM11.7253 16.6933L11.8753 16.8933L11.7253 16.6933Z" fill="#FFCCCC"/>
<path d="M12.0203 16.6933L12.1703 16.8933L12.0203 16.6933Z" fill="#6699CC"/>
<path d="M10.3951 16.8933L10.5451 17.0933L10.3951 16.8933ZM11.8701 16.8933L12.0201 17.0933L11.8701 16.8933Z" fill="#CCFFFF"/>
<path d="M10.3951 17.0867L10.5451 17.2867L10.3951 17.0867ZM11.8701 17.0867L12.0201 17.2867L11.8701 17.0867Z" fill="#99CCCC"/>
<path d="M10.3951 17.2867L10.5451 17.4867L10.3951 17.2867ZM11.8701 17.2867L12.0201 17.4867L11.8701 17.2867Z" fill="#6699CC"/>
<path d="M10.6899 17.48L10.8399 17.68L10.6899 17.48ZM11.5749 17.48L11.7249 17.68L11.5749 17.48Z" fill="#FFCCCC"/>
<path d="M10.5403 17.68L10.6903 17.88L10.5403 17.68Z" fill="#99CCFF"/>
<path d="M10.8851 17.8133L10.9351 17.9466L10.8851 17.8133ZM11.4751 17.8133L11.5251 17.9466L11.4751 17.8133Z" fill="#CC3333"/>
<path d="M11.7251 17.68L11.8751 17.88L11.7251 17.68Z" fill="#99CCFF"/>
<path d="M10.5403 17.88L10.6903 18.0733L10.5403 17.8733M11.7253 17.8733L11.8753 18.0733L11.7253 17.8733Z" fill="#6699CC"/>
<path d="M10.835 18.0734L10.985 18.2734L10.835 18.0734ZM11.43 18.0734L11.575 18.2734L11.425 18.0734H11.43Z" fill="#FFCCCC"/>
<path d="M10.6899 18.2667L10.8399 18.4667L10.6899 18.2667ZM11.5749 18.2667L11.7249 18.4667L11.5749 18.2667Z" fill="#99CCFF"/>
<path d="M10.6899 18.4667L10.8399 18.6667L10.6899 18.4667ZM11.5749 18.4667L11.7249 18.6667L11.5749 18.4667Z" fill="#66CCCC"/>
<path d="M10.9851 18.6666L11.1351 18.8666L10.9851 18.6666ZM11.2801 18.6666L11.4301 18.8666L11.2801 18.6666Z" fill="#FFCCCC"/>
<path d="M10.835 18.86L10.985 19.06L10.835 18.86ZM11.43 18.86L11.575 19.06L11.425 18.86H11.43Z" fill="#CCCCFF"/>
<path d="M10.835 19.06L10.985 19.26L10.835 19.06Z" fill="#66CCCC"/>
<path d="M11.1351 19.06L11.2801 19.26L11.1301 19.06H11.1351Z" fill="#CC6666"/>
<path d="M11.4299 19.06L11.5749 19.26L11.4249 19.06H11.4299Z" fill="#66CCCC"/>
<path d="M10.9851 19.4533L11.1351 19.6533L10.9851 19.4533ZM11.2801 19.4533L11.4301 19.6533L11.2801 19.4533Z" fill="#CCCCFF"/>
<path d="M10.9851 19.6466L11.1351 19.8466L10.9851 19.6466ZM11.2801 19.6466L11.4301 19.8466L11.2801 19.6466ZM11.1301 20.0466L11.2801 20.2399L11.1301 20.0399V20.0466Z" fill="#99CCCC"/>
</g>
<rect x="2" y="2" width="36" height="36" rx="18" stroke="white" stroke-width="4"/>
<defs>
<clipPath id="clip0_90_37625">
<rect x="4" y="4" width="32" height="32" rx="16" fill="white"/>
</clipPath>
</defs>
</svg>
