<svg width="40" height="40" viewBox="0 0 40 40" fill="none" xmlns="http://www.w3.org/2000/svg">
<g clip-path="url(#clip0_90_37609)">
<path d="M4.00488 4H36.0049V36H4.00488V4Z" fill="#3F9C35"/>
<path d="M4.00488 4H36.0049V25.3333H4.00488V4Z" fill="#ED2939"/>
<path d="M4.00488 4H36.0049V14.6667H4.00488V4Z" fill="#00B9E4"/>
<path d="M19.1994 24.8C21.1876 24.8 22.7994 22.651 22.7994 20C22.7994 17.349 21.1876 15.2 19.1994 15.2C17.2111 15.2 15.5994 17.349 15.5994 20C15.5994 22.651 17.2111 24.8 19.1994 24.8Z" fill="white"/>
<path d="M19.9998 24C21.6566 24 22.9998 22.2091 22.9998 20C22.9998 17.7909 21.6566 16 19.9998 16C18.3429 16 16.9998 17.7909 16.9998 20C16.9998 22.2091 18.3429 24 19.9998 24Z" fill="#ED2939"/>
<path d="M23.2001 17.3334L23.5851 18.7667L24.6151 18.1134L24.1251 19.4934L25.2001 20L24.1251 20.5134L24.6151 21.8867L23.5851 21.2334L23.2001 22.6667L22.8151 21.2334L21.7851 21.8867L22.2751 20.5134L21.2001 20L22.2751 19.4867L21.7851 18.1134L22.8151 18.7667L23.2001 17.3334Z" fill="white"/>
</g>
<rect x="2" y="2" width="36" height="36" rx="18" stroke="white" stroke-width="4"/>
<defs>
<clipPath id="clip0_90_37609">
<rect x="4" y="4" width="32" height="32" rx="16" fill="white"/>
</clipPath>
</defs>
</svg>
