<svg width="40" height="40" viewBox="0 0 40 40" fill="none" xmlns="http://www.w3.org/2000/svg">
<g clip-path="url(#clip0_90_37604)">
<path fill-rule="evenodd" clip-rule="evenodd" d="M4.0022 4H35.9991V36H4.0022V4Z" fill="#000099"/>
<path fill-rule="evenodd" clip-rule="evenodd" d="M10.6492 4L34.6023 36.0187V4.01875L10.6492 4Z" fill="#FFCC00"/>
<path fill-rule="evenodd" clip-rule="evenodd" d="M28.6213 34.0938L27.3135 32.825L25.9729 34.0875L26.4791 32.0125L25.1572 30.7313H26.7979L27.3041 28.6563L27.8057 30.7375H29.4463L28.1338 32.0313L28.6213 34.0938ZM32.4322 34.7438L30.7916 34.7375L30.29 32.6563L29.7838 34.7313H28.1432L29.465 36.0125L28.9588 38.0875L30.2994 36.825L31.6119 38.0938L31.1197 36.0313L32.4322 34.7438V34.7438ZM25.1385 28.0438L26.451 26.75L24.8104 26.7438L24.3088 24.6688L23.8025 26.7438L22.1619 26.7375L23.4838 28.0188L22.9775 30.1L24.3182 28.8313L25.6307 30.1063L25.1385 28.0438V28.0438ZM22.1244 24.0125L23.4369 22.725L21.7963 22.7188L21.2947 20.6375L20.7838 22.7125H19.1479L20.4697 23.9938L19.9635 26.0688L21.3041 24.8063L22.6119 26.075L22.1244 24.0125V24.0125ZM19.1385 20.0375L20.451 18.7438H18.8104L18.3135 16.6563L17.8072 18.7313H16.1666L17.4885 20.0063L16.9822 22.0875L18.3229 20.8188L19.6354 22.0938L19.1432 20.0313L19.1385 20.0375ZM16.1197 16.0188L17.4322 14.7313L15.7916 14.725L15.29 12.6438L14.7791 14.7188H13.1432L14.4697 16L13.9635 18.075L15.3041 16.8125L16.6119 18.0813L16.1244 16.0188H16.1197ZM13.1385 12.025L14.4463 10.7313H12.8057L12.3088 8.64378L11.7979 10.725H10.1572L11.4885 12L10.9775 14.075L12.3182 12.8125L13.6213 14.0875L13.1385 12.025V12.025ZM10.1385 8.02503L11.4463 6.73128H9.80566L9.30879 4.64377L8.79785 6.72502H7.15723L8.48848 8.00003L7.97285 10.0813L9.31816 8.81253L10.6213 10.0875L10.1385 8.02503V8.02503ZM7.13848 4.02502L8.4416 2.73127H6.80098L6.29941 0.650024L5.79785 2.72502H4.15723L5.48379 4.00002L4.97754 6.07503L6.31816 4.81252L7.62129 6.08753L7.13848 4.02502V4.02502Z" fill="white"/>
</g>
<rect x="2" y="2" width="36" height="36" rx="18" stroke="white" stroke-width="4"/>
<defs>
<clipPath id="clip0_90_37604">
<rect x="4" y="4" width="32" height="32" rx="16" fill="white"/>
</clipPath>
</defs>
</svg>
