<svg width="40" height="40" viewBox="0 0 40 40" fill="none" xmlns="http://www.w3.org/2000/svg">
<g clip-path="url(#clip0_90_37600)">
<path d="M4 4H36V36H4V4Z" fill="#00267F"/>
<path d="M14.6653 4H25.3353V36H14.6653V4Z" fill="#FFC726"/>
<path d="M19.9905 13.0334C19.6405 14.3001 19.2905 15.6067 18.5305 16.6134C18.7655 16.5067 19.1805 16.4134 19.4405 16.4267V21.7267L18.3205 21.9467C18.2805 21.9467 18.2705 21.8601 18.2705 21.7467C18.1605 20.1001 17.8705 18.7134 17.5305 17.2801C17.5055 17.0867 17.0805 16.3467 17.4105 16.4801C17.4505 16.4801 17.8855 16.7201 17.8205 16.6067C17.1923 15.7619 16.3807 15.2021 15.5005 15.0067C15.4255 14.9867 15.3805 15.0401 15.4505 15.1534C16.5705 17.4601 17.5155 20.1867 17.5055 23.4201C17.9455 23.4201 19.0055 23.0734 19.4405 23.0734V26.8134H20.0005L20.1255 16.3667L19.9905 13.0334Z" fill="black"/>
</g>
<rect x="2" y="2" width="36" height="36" rx="18" stroke="white" stroke-width="4"/>
<defs>
<clipPath id="clip0_90_37600">
<rect x="4" y="4" width="32" height="32" rx="16" fill="white"/>
</clipPath>
</defs>
</svg>
