<svg width="40" height="40" viewBox="0 0 40 40" fill="none" xmlns="http://www.w3.org/2000/svg">
<g clip-path="url(#clip0_90_37570)">
<path fill-rule="evenodd" clip-rule="evenodd" d="M-0.098999 4L20.001 20L-0.098999 36V4ZM40.101 4L20.001 20L40.101 36V4Z" fill="#18B637"/>
<path fill-rule="evenodd" clip-rule="evenodd" d="M-0.098999 4L20.001 20L40.101 4H-0.098999ZM-0.098999 36L20.001 20L40.101 36H-0.098999Z" fill="#CF0921"/>
<path fill-rule="evenodd" clip-rule="evenodd" d="M40.101 4H36.3557L-0.098999 33.0188V36H3.64631L40.101 6.98125V4Z" fill="white"/>
<path fill-rule="evenodd" clip-rule="evenodd" d="M26.9432 20C26.9432 22.4541 26.212 24.8076 24.9105 26.5429C23.6091 28.2782 21.8439 29.2531 20.0033 29.2531C18.1628 29.2531 16.3976 28.2782 15.0961 26.5429C13.7946 24.8076 13.0635 22.4541 13.0635 20C13.0635 17.5467 13.7944 15.194 15.0954 13.4592C16.3965 11.7245 18.161 10.75 20.001 10.75C21.8409 10.75 23.6055 11.7245 24.9065 13.4592C26.2076 15.194 26.9385 17.5467 26.9385 20H26.9432Z" fill="white"/>
<path fill-rule="evenodd" clip-rule="evenodd" d="M-0.098999 4V6.98125L36.3557 36H40.101V33.0188L3.64631 4H-0.098999Z" fill="white"/>
<path fill-rule="evenodd" clip-rule="evenodd" d="M21.3698 16.5125L20.4651 16.5312L19.9964 17.5562L19.5323 16.5312L18.6323 16.5062L19.0683 15.45L18.637 14.4L19.537 14.375L20.0058 13.35L20.4698 14.3812L21.3698 14.4062L20.9339 15.4562L21.3698 16.5125ZM18.3417 23.4875L17.4417 23.5062L16.9729 24.5312L16.5089 23.5062L15.6089 23.4812L16.0448 22.425L15.6136 21.375L16.5136 21.35L16.9823 20.325L17.4464 21.3562L18.3464 21.3812L17.9104 22.4312L18.3417 23.4875ZM24.4636 23.4875L23.5636 23.5062L23.0948 24.5312L22.6261 23.5062L21.7308 23.4812L22.1667 22.425L21.7308 21.375L22.6308 21.35L23.0995 20.325L23.5683 21.3562L24.4683 21.3812L24.0276 22.4312L24.4636 23.4875Z" fill="#CF0921"/>
<path fill-rule="evenodd" clip-rule="evenodd" d="M20.0062 13.1145L20.522 14.2608L21.523 14.2886L21.0381 15.4564L21.523 16.6312L20.5168 16.652L19.9958 17.7912L19.4799 16.6517L18.4792 16.6239L18.9638 15.4498L18.4843 14.2823L19.4849 14.2545L20.0062 13.1145ZM20.0049 13.5855L19.5888 14.4954L18.7894 14.5176L19.1723 15.4501L18.785 16.3886L19.5844 16.4108L19.9966 17.3213L20.4131 16.4104L21.2163 16.3938L20.8293 15.4561L21.2163 14.5239L20.4172 14.5017L20.0049 13.5855ZM16.9828 20.0895L17.4986 21.2358L18.4995 21.2636L18.0145 22.4317L18.4941 23.6062L17.4933 23.627L16.9724 24.7662L16.4565 23.6267L15.4558 23.5989L15.9404 22.4248L15.4608 21.2573L16.4614 21.2295L16.9828 20.0895ZM23.0996 20.0904L23.6202 21.2358L24.6222 21.2636L24.132 22.4317L24.6167 23.6062L23.6152 23.627L23.0946 24.7653L22.5739 23.6267L21.5777 23.5989L22.0621 22.4252L21.5773 21.2573L22.5786 21.2295L23.0996 20.0904ZM16.9815 20.5605L16.5654 21.4704L15.7659 21.4926L16.1489 22.4251L15.7616 23.3636L16.5609 23.3858L16.9732 24.2963L17.3897 23.3854L18.189 23.3688L17.806 22.4307L18.1929 21.4989L17.3938 21.4767L16.9815 20.5605ZM23.0991 20.5596L22.6825 21.4704L21.8839 21.4926L22.2709 22.4248L21.8835 23.3636L22.6779 23.3858L23.0946 24.2971L23.5116 23.3854L24.3101 23.3688L23.9229 22.4307L24.314 21.4989L23.5159 21.4767L23.0991 20.5596Z" fill="#18B637"/>
</g>
<rect x="2" y="2" width="36" height="36" rx="18" stroke="white" stroke-width="4"/>
<defs>
<clipPath id="clip0_90_37570">
<rect x="4" y="4" width="32" height="32" rx="16" fill="white"/>
</clipPath>
</defs>
</svg>
