<svg width="40" height="40" viewBox="0 0 40 40" fill="none" xmlns="http://www.w3.org/2000/svg">
<g clip-path="url(#clip0_90_37395)">
<path d="M4 4H36V36H4V4Z" fill="#F7E017"/>
<path d="M4 6.22V20.4467L36 27.1133V19.5533L4 6.22Z" fill="white"/>
<path d="M4 13.78V20.4467L36 33.78V27.1133L4 13.78Z" fill="black"/>
<path d="M19.1903 29.3201C18.6052 29.234 18.0423 28.9727 17.5436 28.5557C17.4636 28.4846 17.3903 28.4223 17.377 28.4223C17.3636 28.4223 17.357 28.5068 17.357 28.6046C17.357 28.889 17.2703 29.0312 17.057 29.1068C16.8503 29.1779 16.537 29.0357 16.2836 28.7512C16.0434 28.4772 15.763 28.2728 15.4603 28.1512C15.145 28.0511 14.813 28.108 14.527 28.3112C14.4987 28.3378 14.4671 28.3573 14.4336 28.369C14.397 28.369 14.4003 28.0623 14.4403 27.969C14.4903 27.8357 14.6103 27.7112 14.7536 27.6446C14.827 27.609 14.887 27.5646 14.887 27.5423C14.887 27.5246 14.8603 27.4535 14.8303 27.3823C14.7336 27.1557 14.7736 26.9379 14.9436 26.7646C15.117 26.5868 15.4103 26.5601 15.667 26.689C15.7103 26.7137 15.7549 26.7344 15.8003 26.7512C15.8336 26.7512 15.8136 26.6846 15.7203 26.5023C15.6136 26.2934 15.5903 26.1912 15.6036 25.9379C15.6128 25.7828 15.6631 25.6372 15.7456 25.5272C15.8281 25.4172 15.9373 25.3501 16.0536 25.3379C16.247 25.3201 16.367 25.409 16.6536 25.769C17.4236 26.8023 18.4348 27.4545 19.5203 27.6179C19.797 27.6623 20.347 27.6401 20.6703 27.5735C21.6946 27.3456 22.6443 26.714 23.397 25.7601C23.6103 25.4934 23.7103 25.4223 23.887 25.4223C24.037 25.4223 24.1437 25.4846 24.2537 25.6446C24.3537 25.7912 24.387 25.929 24.3737 26.1557C24.367 26.2979 24.3503 26.3646 24.287 26.5068C24.1937 26.7068 24.2103 26.729 24.3937 26.6312C24.647 26.4979 24.957 26.5601 25.1237 26.7735C25.2703 26.9601 25.2837 27.1468 25.1703 27.3957C25.127 27.489 25.0937 27.5735 25.0937 27.5912C25.0937 27.6179 25.127 27.6268 25.277 27.6623C25.477 27.7068 25.5937 27.9023 25.5937 28.2046C25.5937 28.2935 25.5837 28.369 25.5737 28.369C25.5637 28.369 25.487 28.329 25.407 28.2846C25.1737 28.1557 25.0403 28.1246 24.767 28.129C24.5603 28.129 24.4903 28.1423 24.347 28.2046C24.1071 28.3158 23.8861 28.4896 23.697 28.7157C23.4837 28.969 23.3503 29.049 23.1437 29.0446C22.9503 29.0446 22.8203 28.969 22.7503 28.8224C22.7137 28.7424 22.707 28.6979 22.717 28.5201C22.7237 28.4046 22.7203 28.3112 22.717 28.3112C22.707 28.3112 22.6337 28.3735 22.5503 28.449C22.36 28.6309 22.1527 28.7789 21.9337 28.889C21.0564 29.3127 20.1175 29.4603 19.1903 29.3201Z" fill="#CF1126"/>
<path d="M19.5436 27.3423C18.8988 27.2633 18.2741 27.0016 17.7113 26.5747C17.1485 26.1477 16.6606 25.5654 16.2803 24.8668C15.4669 23.3912 15.2136 21.4401 15.4603 19.6579C15.5936 18.8445 15.8603 18.0312 16.3103 17.4534C15.9393 18.4799 15.8372 19.6426 16.0203 20.7556C16.3203 22.969 17.7203 24.8401 19.3969 25.1646C20.0636 25.4179 20.747 25.1468 21.3803 24.8757C22.7803 24.2179 23.847 22.449 23.9736 20.4712C24.0836 19.4045 23.9636 18.289 23.6003 17.3156C23.807 17.4623 24.067 18.0356 24.2203 18.4179C24.7536 19.7956 24.777 21.4445 24.4636 22.9157C24.037 24.7868 22.9636 26.4268 21.547 27.0223C20.9006 27.2916 20.2227 27.4 19.5469 27.3423H19.5436Z" fill="#CF1126"/>
<path d="M13.0669 24.8845C12.9836 24.8668 12.8902 24.9779 12.9236 25.0934C12.9836 25.209 13.0902 25.2712 13.1836 25.3245C13.4295 25.4526 13.6934 25.5072 13.9569 25.4845C14.1502 25.4846 14.342 25.4395 14.5236 25.3512C14.6236 25.3068 14.7502 25.2623 14.7902 25.1112C14.8336 25.0179 14.7569 24.9201 14.6869 24.9379C14.5869 24.969 14.4869 25.0268 14.3869 25.0668C14.1671 25.1497 13.938 25.1798 13.7102 25.1557C13.5445 25.1235 13.3829 25.0607 13.2302 24.969C13.1769 24.9379 13.1269 24.8934 13.0669 24.8845V24.8845Z" fill="#CF1126"/>
<path d="M13.1601 24.4223C13.0768 24.4045 13.0035 24.5379 13.0368 24.6445C13.1035 24.769 13.2135 24.8357 13.3168 24.8934C13.4971 24.9877 13.6899 25.0316 13.8835 25.0223H13.9335C14.098 25.0233 14.2611 24.981 14.4135 24.8979C14.5035 24.849 14.6168 24.8001 14.6568 24.6668C14.6868 24.5912 14.6635 24.4845 14.5901 24.4757C14.5301 24.4757 14.4735 24.529 14.4135 24.5512C14.1963 24.6708 13.9609 24.7195 13.7268 24.6934C13.5801 24.6712 13.4435 24.6001 13.3101 24.5157C13.2601 24.4845 13.2168 24.4357 13.1601 24.4268V24.4223Z" fill="#CF1126"/>
<path d="M13.2766 23.9823C13.2032 23.969 13.1532 24.0801 13.1666 24.1646C13.1766 24.2446 13.2266 24.2979 13.2699 24.3423C13.4514 24.51 13.6694 24.5928 13.8899 24.5779H13.9433C14.0819 24.5765 14.2185 24.534 14.3433 24.4534C14.4266 24.409 14.5233 24.3512 14.5533 24.2223C14.5666 24.1646 14.5733 24.0801 14.5233 24.0445C14.4699 24.009 14.4199 24.0668 14.3733 24.089C14.2138 24.2007 14.0367 24.2601 13.8566 24.2623C13.702 24.2541 13.5516 24.1929 13.4199 24.0845C13.3699 24.0534 13.3299 23.9957 13.2766 23.9823V23.9823Z" fill="#CF1126"/>
<path d="M12.0503 17.4534C11.9436 17.6001 12.027 17.8667 12.017 18.0534C12.077 18.6401 12.147 19.2312 12.3103 19.7867C12.5103 20.3201 12.937 20.609 13.1936 21.0845C13.287 21.3112 13.2536 21.5867 13.2736 21.8401C13.287 22.5201 13.2836 23.2045 13.2736 23.8845C13.507 24.0445 13.757 24.1956 14.0236 24.1379C14.1803 24.089 14.4736 24.0579 14.507 23.849L14.4736 20.3156C14.3836 19.9556 14.107 19.769 13.9036 19.5378C13.7337 19.3141 13.5755 19.0751 13.4303 18.8223C13.3436 18.6223 13.0003 18.5556 13.1236 18.8934C13.197 19.1912 13.3803 19.4089 13.427 19.7201C13.437 19.8934 13.5936 20.209 13.4603 20.3067C13.3782 20.1136 13.2537 19.9585 13.1036 19.8623C12.957 19.7156 12.7136 19.6534 12.6603 19.3956C12.6123 19.029 12.4848 18.6891 12.2936 18.4178C12.3436 18.0889 12.2936 17.6756 12.0803 17.4623L12.0503 17.4534V17.4534Z" fill="#CF1126"/>
<path d="M12.3805 17.5201C12.2805 17.5423 12.2872 17.7067 12.3305 17.7956C12.38 17.9869 12.3926 18.1917 12.3672 18.3912C12.55 18.6625 12.6724 18.9966 12.7205 19.3556C12.7205 19.4889 12.8272 19.5334 12.8972 19.6001C13.0606 19.7378 13.2406 19.8401 13.3872 20.0134C13.4172 20.0578 13.4406 20.1023 13.4206 20.0134C13.3972 19.8978 13.3872 19.7734 13.3206 19.6889C13.2272 19.5556 13.1139 19.4401 12.9806 19.4045C12.9706 19.2178 12.9039 19.0489 12.8439 18.8889C12.7772 18.7334 12.7072 18.5689 12.5939 18.4712C12.5939 18.2001 12.5939 17.9156 12.5072 17.6623C12.4805 17.6 12.4405 17.5245 12.3805 17.5201Z" fill="#CF1126"/>
<path d="M12.6569 17.6267C12.5902 17.6534 12.6036 17.7689 12.6236 17.8356C12.6527 18.0286 12.6639 18.2256 12.6569 18.4223C12.7869 18.5556 12.8636 18.7512 12.9369 18.9378C12.9836 19.0623 13.0236 19.1956 13.0402 19.3334C13.1436 19.3778 13.2336 19.4667 13.3136 19.5556C13.2803 19.4312 13.2136 19.3334 13.1636 19.2134C13.1136 19.0934 13.0636 18.9645 13.0402 18.8267C12.9402 18.689 12.8869 18.489 12.9069 18.2934C12.9136 18.0845 12.8636 17.8667 12.7569 17.7067C12.7302 17.6712 12.6969 17.6312 12.6569 17.6267Z" fill="#CF1126"/>
<path d="M12.9734 17.689C12.9334 17.6978 12.9134 17.7423 12.8934 17.7823C12.8834 17.8223 12.9201 17.8623 12.9268 17.9067C12.9703 18.0534 12.9863 18.2121 12.9734 18.369C12.9701 18.4801 13.0001 18.5912 13.0401 18.6801C13.0476 18.6459 13.0628 18.6155 13.0837 18.5933C13.1046 18.571 13.1301 18.5579 13.1568 18.5556C13.1734 18.5556 13.2034 18.5645 13.1901 18.5245C13.1768 18.3112 13.1534 18.0978 13.0968 17.9023C13.0804 17.8253 13.048 17.756 13.0034 17.7023C12.9968 17.6934 12.9834 17.6845 12.9701 17.689H12.9734Z" fill="#CF1126"/>
<path d="M19.8571 25.1557C19.632 25.1232 19.4185 25.0055 19.2419 24.8165C19.0653 24.6275 18.933 24.3751 18.8605 24.089C18.8705 23.9912 18.9605 24.1423 19.0038 24.1557C19.0851 24.2203 19.1762 24.2597 19.2705 24.2712C19.3871 24.3379 19.4605 24.4934 19.5738 24.5779C19.6271 24.6312 19.8138 24.7379 19.7771 24.5646C19.7338 24.4757 19.7038 24.3601 19.7438 24.2534C19.8038 24.0712 19.9005 23.9112 20.0005 23.7557C20.0705 23.7245 20.1205 23.9157 20.1705 23.9779C20.2405 24.1245 20.3271 24.3023 20.2838 24.4801C20.2438 24.5468 20.2171 24.7468 20.3271 24.6846C20.4605 24.6045 20.5705 24.4712 20.6805 24.3468C20.7805 24.2579 20.9038 24.2534 21.0038 24.169C21.0538 24.1557 21.1505 24.0312 21.1705 24.0979C21.1108 24.2966 21.0275 24.4811 20.9238 24.6446C20.7635 24.8983 20.5419 25.0696 20.2971 25.129C20.1505 25.1646 20.0038 25.1734 19.8571 25.1557V25.1557Z" fill="#CF1126"/>
<path d="M20.3834 24.4534C20.3934 24.3334 20.3734 24.2134 20.3267 24.0979C20.2567 23.9112 20.16 23.7423 20.06 23.569C19.9667 23.4979 19.9167 23.7334 19.8567 23.8001C19.76 23.9912 19.64 24.1868 19.6334 24.4223C19.58 24.5334 19.48 24.3334 19.4367 24.2668C19.3479 24.1145 19.3008 23.9263 19.3034 23.7334C19.2953 23.4205 19.3362 23.1087 19.4234 22.8179C19.49 22.569 19.5934 22.329 19.5834 22.0623C19.59 21.8534 19.56 21.6312 19.4367 21.4934C19.3167 21.369 19.5134 21.3423 19.5734 21.4045C19.68 21.4179 19.7367 21.649 19.8334 21.5912C19.87 21.4712 19.88 21.3245 19.96 21.2312C20.0367 21.089 20.1167 21.289 20.1434 21.3868C20.2 21.4668 20.1434 21.6756 20.23 21.6801C20.3367 21.5779 20.4134 21.4134 20.55 21.3734C20.6067 21.329 20.7 21.3734 20.6267 21.4534C20.5267 21.5823 20.44 21.7379 20.42 21.929C20.39 22.1645 20.4334 22.4045 20.51 22.6134C20.66 23.0312 20.7767 23.5023 20.7 23.969C20.6667 24.1734 20.56 24.3512 20.4334 24.4712C20.4167 24.4845 20.39 24.4845 20.3834 24.4534V24.4534Z" fill="#CF1126"/>
<path d="M20.2235 21.3156C20.1786 21.1954 20.115 21.0893 20.0368 21.0045C19.9568 21.0045 19.9068 21.1379 19.8535 21.209C19.8168 21.3023 19.7702 21.4579 19.6768 21.3379C19.5268 21.2223 19.5035 20.969 19.5035 20.7601C19.4935 20.4223 19.5968 20.1067 19.6868 19.8001C19.7435 19.609 19.7302 19.3912 19.6935 19.1956C19.6502 18.9734 19.5135 18.8134 19.4102 18.6356C19.4168 18.569 19.5502 18.6045 19.6002 18.6178C19.7135 18.6578 19.7802 18.7867 19.8635 18.8845C19.9235 18.8578 19.8968 18.6978 19.9268 18.6223C19.9268 18.5156 20.0335 18.3778 20.0768 18.529C20.1435 18.6267 20.0768 18.8178 20.1602 18.8756C20.2402 18.8356 20.2802 18.7201 20.3535 18.6667C20.3918 18.6337 20.4358 18.6143 20.4813 18.6104C20.5268 18.6065 20.5724 18.6183 20.6135 18.6445C20.6435 18.7423 20.5268 18.8223 20.4935 18.9112C20.4269 19.022 20.3807 19.1521 20.3587 19.2911C20.3367 19.43 20.3395 19.5739 20.3668 19.7112C20.4135 19.9334 20.4935 20.1334 20.5235 20.3556C20.5595 20.6091 20.5538 20.8699 20.5068 21.1201C20.4768 21.2712 20.3802 21.369 20.2802 21.4312C20.2535 21.4001 20.2402 21.3556 20.2235 21.3156V21.3156Z" fill="#CF1126"/>
<path d="M19.7206 18.529C19.6073 18.4179 19.5706 18.3156 19.5706 18.1067C19.5706 18.0045 19.5873 17.9467 19.6373 17.849C19.7173 17.7067 19.704 17.6623 19.594 17.7023C19.4173 17.769 19.334 17.7112 19.3273 17.5112C19.3273 17.4134 19.3406 17.3734 19.4373 17.2134C19.5173 17.089 19.5473 17.0223 19.5307 17.0001C19.514 16.9823 19.4206 17.089 19.2306 17.3467C19.1115 17.5142 18.9846 17.6716 18.8506 17.8178C18.524 18.1112 18.2106 18.1556 18.0673 17.929C17.994 17.8134 17.9973 17.7512 18.0806 17.6801C18.1337 17.6323 18.1829 17.5771 18.2273 17.5156C18.3907 17.3167 18.5708 17.1437 18.764 17.0001C18.884 16.9201 18.9106 16.8667 18.834 16.8667C18.734 16.8667 18.4173 17.1423 18.174 17.4356C18.104 17.5245 18.0006 17.6223 17.9473 17.6578C17.799 17.73 17.6385 17.7454 17.484 17.7023C17.4106 17.6712 17.274 17.5023 17.274 17.4401C17.274 17.4267 17.3073 17.3912 17.3406 17.3601C17.395 17.3191 17.4463 17.2715 17.494 17.2178C17.6873 16.9956 18.054 16.7601 18.344 16.6756C18.4373 16.6534 18.4006 16.5867 18.2973 16.5956C17.9913 16.6735 17.7049 16.8523 17.464 17.1156C17.1873 17.4223 16.7706 17.3912 16.6373 17.0578C16.614 17.0001 16.5973 16.9467 16.604 16.9378C16.8401 16.8584 17.0683 16.742 17.284 16.5912C17.4697 16.4452 17.6744 16.3472 17.8873 16.3023C17.9806 16.2801 17.9873 16.2178 17.8973 16.2045C17.7773 16.1867 17.5973 16.2667 17.2806 16.4712C16.8706 16.7423 16.754 16.7912 16.5406 16.7734C16.3406 16.7556 16.2306 16.689 16.074 16.489C15.9673 16.3556 15.8206 16.0223 15.8473 15.9823C16.0204 16.0308 16.1973 16.0502 16.374 16.0401C16.6506 16.0401 16.7273 16.0312 16.874 15.9734C17.1605 15.8523 17.4306 15.6708 17.674 15.4356C18.0171 15.0486 18.4513 14.8347 18.9006 14.8312C19.314 14.8312 19.574 14.9556 19.8073 15.2712C19.8873 15.3778 19.954 15.4445 19.964 15.4312C19.974 15.4178 19.984 15.2312 19.9873 15.0178C19.9873 15.0178 20.1107 15.0001 20.1373 15.0489C20.1373 15.3912 20.1373 15.4223 20.1773 15.4223C20.2007 15.4223 20.2273 15.3867 20.244 15.3334C20.2773 15.2223 20.4107 15.0667 20.5507 14.9689C20.8507 14.7689 21.374 14.7601 21.794 14.9556C21.9948 15.0572 22.1826 15.1996 22.3507 15.3778C22.5959 15.6078 22.8655 15.7876 23.1507 15.9112C23.3773 16.0001 23.784 16.0223 23.9873 15.9556C24.0468 15.9373 24.1069 15.9224 24.1673 15.9112C24.244 15.9112 24.114 16.249 23.9607 16.449C23.6807 16.8134 23.3173 16.809 22.8073 16.4445C22.4873 16.2134 22.1073 16.089 22.1073 16.2134C22.1073 16.2401 22.1273 16.2578 22.1573 16.2578C22.2673 16.2578 22.4807 16.3556 22.7807 16.5467C22.9691 16.6917 23.1759 16.7896 23.3907 16.8356C23.4673 16.8356 23.4707 16.9023 23.3973 17.0445C23.3207 17.1956 23.1907 17.2667 23.0073 17.2667C22.8307 17.2667 22.7307 17.2178 22.574 17.0445C22.3073 16.7512 21.654 16.4223 21.6773 16.6001C21.684 16.6312 21.714 16.6534 21.784 16.6667C22.0655 16.7483 22.3291 16.9156 22.554 17.1556L22.7507 17.3467C22.7873 17.3734 22.7873 17.3823 22.7573 17.4578C22.7107 17.5823 22.584 17.6756 22.4507 17.6934C22.2773 17.7201 22.124 17.649 21.9673 17.4712C21.634 17.1023 21.324 16.8356 21.224 16.8356C21.1407 16.8356 21.1773 16.8978 21.324 17.0001C21.5137 17.1341 21.6906 17.2982 21.8507 17.489C21.9173 17.5734 21.994 17.6534 22.0173 17.6712C22.0807 17.7156 22.0773 17.7778 22.0107 17.8934C21.944 18.009 21.8307 18.0623 21.6873 18.0401C21.4007 18.0001 21.174 17.8178 20.8207 17.329C20.7366 17.2038 20.6452 17.0879 20.5473 16.9823C20.5007 16.9823 20.5307 17.0667 20.6207 17.2045C20.734 17.369 20.754 17.4623 20.7107 17.6045C20.674 17.7201 20.6107 17.7512 20.484 17.7023C20.3507 17.6578 20.3307 17.7023 20.4173 17.8401C20.544 18.0578 20.5273 18.3156 20.3673 18.4979C20.3342 18.5404 20.2959 18.5749 20.254 18.6001C20.2407 18.6001 20.2073 18.5556 20.1773 18.4934C20.0773 18.289 19.9873 18.289 19.8873 18.4934C19.8662 18.5388 19.844 18.5833 19.8207 18.6267C19.7869 18.5949 19.7536 18.5623 19.7206 18.529V18.529Z" fill="#CF1126"/>
<path d="M20.2235 14.3556L20.0502 14.5334L19.8969 14.3823V15.6178H20.2235V14.3556Z" fill="#CF1126"/>
<path d="M19.1638 13.08C19.1335 13.5797 19.0316 14.067 18.8638 14.5156L19.2338 14.0578L19.4904 14.4667L19.7704 14.0489L20.0538 14.4045L20.3271 14.0356L20.6104 14.48L20.8571 14.1156L21.2771 14.5156C21.1238 14.0712 20.9204 13.6889 20.9438 13.0578C20.5404 13.4578 19.5771 13.5289 19.1638 13.0756V13.08Z" fill="#CF1126"/>
<path d="M19.9004 12.7823C19.7504 12.7823 19.5937 12.7867 19.4537 12.8267C19.361 12.8464 19.2724 12.8918 19.1937 12.96C19.2037 13.3423 20.5604 13.4978 20.9237 12.9689C20.842 12.8935 20.7486 12.8434 20.6504 12.8223C20.5171 12.7867 20.3637 12.7867 20.2204 12.7778V13.0934H19.9004V12.7823V12.7823Z" fill="#CF1126"/>
<path d="M20.1632 10.8445H19.9532V13.04H20.1666L20.1632 10.8445Z" fill="#CF1126"/>
<path d="M20.1637 10.8978L20.0837 11.9511L20.8937 12.48L20.4837 11.7467L21.0437 11.5022L20.1637 10.8978ZM20.0737 10.6267C19.9504 10.6267 19.8604 10.6889 19.8604 10.76C19.8604 10.8311 19.9504 10.8933 20.0737 10.8933C20.197 10.8933 20.287 10.8311 20.287 10.76C20.287 10.6889 20.197 10.6267 20.0737 10.6267Z" fill="#CF1126"/>
<path d="M19.6995 29.06C19.8345 29 19.9095 28.8933 19.9645 28.6866C19.9895 28.58 20.0095 28.4733 20.0045 28.4466C19.9945 28.38 19.9345 28.38 19.8745 28.4533C19.8295 28.5 19.8245 28.5266 19.8345 28.6266C19.8695 28.8733 19.7995 28.94 19.4495 28.9866C19.4145 28.9866 19.3095 28.9866 19.2245 28.9666C19.0545 28.94 18.9945 28.9666 19.0545 29.0333C19.0868 29.0608 19.1223 29.0811 19.1595 29.0933C19.2545 29.1266 19.5995 29.1066 19.6995 29.06V29.06ZM20.4345 29.02C20.4545 28.9933 20.5195 28.9533 20.5845 28.92C20.6695 28.8866 20.7145 28.8533 20.7495 28.7733C20.8545 28.5733 20.8345 28.3933 20.6845 28.1533C20.5995 28.02 20.5645 28.0266 20.4995 28.1733C20.4395 28.2933 20.4445 28.3066 20.5245 28.3333C20.5695 28.3466 20.6095 28.3866 20.6295 28.44C20.7195 28.6466 20.6945 28.7733 20.5595 28.7733C20.4395 28.7733 20.4095 28.8 20.3745 28.9066L20.3445 29.0333C20.3445 29.0733 20.3945 29.0666 20.4345 29.02V29.02ZM20.1945 28.7866C20.2145 28.7 20.2245 28.5533 20.2195 28.2533C20.2249 28.1108 20.2199 27.9679 20.2045 27.8266C20.1845 27.8 20.0895 27.88 20.0745 27.94C20.0695 27.9892 20.0784 28.0391 20.0995 28.08C20.1295 28.16 20.1345 28.24 20.1245 28.5466C20.1095 28.9466 20.1295 29.0133 20.1945 28.7866V28.7866Z" fill="#F7E017"/>
<path d="M19.6293 28.6L19.6643 28.2667C19.6693 28.1533 19.6893 28.0133 19.6993 27.9533C19.7343 27.8 19.6993 27.76 19.6093 27.8467L19.5443 27.9133L19.5543 28.1333C19.5693 28.3333 19.5443 28.7 19.5093 28.8467C19.4993 28.8867 19.5143 28.8733 19.5543 28.8133C19.5843 28.7667 19.6193 28.6667 19.6293 28.5933V28.6ZM19.1293 28.7067C19.2493 28.5733 19.2343 28.3333 19.2643 28.1467C19.2643 28.02 19.3243 27.8733 19.2843 27.76C19.1693 27.7867 19.0993 27.9333 19.1593 28.0733C19.1593 28.24 19.1593 28.42 19.0943 28.5667C19.0443 28.6667 18.8743 28.64 18.8843 28.5C18.9243 28.3 18.7393 28.4 18.6693 28.4533C18.6143 28.5067 18.4943 28.5133 18.5393 28.3867C18.5093 28.2067 18.3443 28.32 18.2543 28.32C18.1693 28.32 18.2493 28.0867 18.1243 28.12C17.8993 28.1 17.6493 28.1267 17.4493 27.9467C17.3343 27.8733 17.3493 27.6867 17.4143 27.5667C17.4843 27.4067 17.5043 27.2 17.6143 27.0733C17.7293 26.9333 17.5143 26.9933 17.4643 27.04C17.3543 27.12 17.4543 27.3267 17.3643 27.44C17.3143 27.56 17.2443 27.72 17.1243 27.7C16.9493 27.6533 16.8493 27.4333 16.7243 27.3C16.6143 27.2667 16.6743 27.5267 16.7343 27.58C16.8451 27.6904 16.9707 27.7719 17.1043 27.82C17.2343 27.7867 17.2393 28.02 17.3543 28.0533C17.5543 28.1867 17.7843 28.22 18.0093 28.24C18.0993 28.2467 18.0493 28.46 18.1643 28.4133C18.2293 28.44 18.3793 28.38 18.3843 28.48C18.2843 28.64 18.4793 28.6333 18.5493 28.6133C18.6443 28.5867 18.7593 28.5467 18.7843 28.7067C18.8593 28.82 18.9993 28.8 19.0943 28.74L19.1293 28.7067V28.7067Z" fill="#F7E017"/>
<path d="M17.1393 27.36C17.1863 27.2723 17.2265 27.1785 17.2593 27.08C17.2847 26.9946 17.3184 26.9139 17.3593 26.84C17.4193 26.76 17.3843 26.7066 17.2893 26.7333C17.2393 26.7466 17.2193 26.7733 17.2143 26.8333C17.1919 26.9969 17.1497 27.1545 17.0893 27.3C17.0043 27.4666 17.0043 27.4733 17.0393 27.4733C17.0543 27.4733 17.0993 27.42 17.1393 27.36ZM15.8893 26.3133C15.7943 26.3133 15.7893 26.3933 15.8793 26.4333C15.9293 26.4533 15.9643 26.5 15.9943 26.5866C16.0793 26.82 16.1343 26.8666 16.3693 26.8933L16.5193 26.9066L16.5293 27.0333C16.5293 27.1 16.5443 27.1533 16.5543 27.1533L16.6843 27.0866C16.7943 27.0066 16.8993 26.8333 16.8993 26.72C16.8993 26.6533 16.8093 26.5733 16.7293 26.5733C16.6943 26.5733 16.6293 26.6133 16.5743 26.6666C16.4043 26.8266 16.2243 26.8 16.1243 26.5866C16.0493 26.4133 15.9643 26.32 15.8893 26.32V26.3133ZM16.7043 26.7466C16.7493 26.7466 16.7543 26.7933 16.7343 26.88C16.7312 26.8917 16.7255 26.9019 16.7179 26.9092C16.7103 26.9164 16.7012 26.9203 16.6918 26.9203C16.6825 26.9203 16.6734 26.9164 16.6657 26.9092C16.6581 26.9019 16.6524 26.8917 16.6493 26.88C16.6293 26.8133 16.6543 26.7466 16.6993 26.7466H16.7043ZM23.0293 26.48C22.9643 26.48 22.9493 26.4933 22.9093 26.5733C22.8443 26.7 22.8393 26.9733 22.8993 27.0666C22.9343 27.1266 22.9393 27.1266 23.0143 27.08C23.1243 27.02 23.1443 27.0266 23.1393 27.1C23.1393 27.3 22.9293 27.68 22.7093 27.88C22.6642 27.9155 22.6236 27.9605 22.5893 28.0133C22.5743 28.0666 22.6543 28.06 22.7543 27.9866C22.9199 27.86 23.0564 27.6757 23.1493 27.4533C23.2043 27.3 23.2143 27.2533 23.2243 26.9866C23.2243 26.7333 23.2243 26.6533 23.1943 26.5733C23.1543 26.48 23.1443 26.4733 23.0543 26.4733H23.0293V26.48ZM23.0343 26.6466C23.0843 26.6466 23.0843 26.66 23.0943 26.7533C23.0943 26.82 23.0893 26.8666 23.0593 26.9066C23.0193 26.9533 23.0093 26.9533 22.9793 26.88C22.9293 26.7733 22.9593 26.6466 23.0343 26.6466V26.6466ZM22.0243 28.5466C22.2193 28.4133 22.3343 28.2733 22.4043 28.0666C22.4303 28.0003 22.452 27.9312 22.4693 27.86C22.4693 27.82 22.3743 27.76 22.3193 27.76C22.2643 27.76 22.2493 27.7066 22.2693 27.56C22.2943 27.42 22.2693 27.24 22.2193 27.24C22.2043 27.24 22.1693 27.2733 22.1543 27.3133C22.1243 27.38 22.1193 27.4066 22.1443 27.4933C22.1793 27.6266 22.1493 27.7333 22.0593 27.82C22.0143 27.86 21.9943 27.9066 21.9943 27.9533L21.9993 28.02L22.1043 27.9533L22.2043 27.8733L22.2593 27.94C22.2943 27.9666 22.3193 28.02 22.3193 28.0533C22.3193 28.2133 21.9793 28.48 21.7493 28.5066C21.6243 28.52 21.5993 28.5066 21.5593 28.4533C21.5243 28.4066 21.5143 28.3666 21.5243 28.32L21.5493 28.1466C21.5693 28.0066 21.5293 28.0266 21.4493 28.1866C21.3893 28.32 21.3693 28.46 21.4043 28.5333C21.4343 28.6 21.6243 28.6533 21.7643 28.64C21.8493 28.64 21.9343 28.6066 22.0243 28.5466V28.5466ZM23.3243 27.58C23.4443 27.4133 23.4993 27.2133 23.4993 26.9133V26.68L23.5993 26.6133C23.7343 26.5333 23.8593 26.3666 23.8593 26.2733C23.8593 26.18 23.8243 26.18 23.7693 26.2866C23.7243 26.36 23.6693 26.4066 23.4693 26.5333C23.4193 26.56 23.4143 26.58 23.3993 26.8666C23.3893 27.2 23.3493 27.32 23.2143 27.5466C23.1293 27.68 23.1243 27.7066 23.1843 27.7066C23.2093 27.7066 23.2743 27.6466 23.3243 27.5733V27.58ZM21.9893 27.3933C21.9993 27.3466 21.9293 27.3133 21.9043 27.3533C21.8893 27.3666 21.8843 27.3933 21.8943 27.4133C21.9143 27.4533 21.9743 27.44 21.9893 27.3933V27.3933ZM23.8293 26.76C23.8443 26.7066 23.7743 26.6733 23.7443 26.7133C23.7343 26.7333 23.7293 26.76 23.7393 26.78C23.7593 26.82 23.8193 26.8066 23.8293 26.76ZM21.6143 25.0333C21.5643 25.0666 21.5393 25.1333 21.5093 25.1866C21.4843 25.2066 21.5043 25.2266 21.5143 25.2533C21.5993 25.3666 21.6343 25.5333 21.6743 25.6866C21.7143 25.8666 21.7643 26.06 21.7243 26.2466C21.7093 26.3133 21.6643 26.3866 21.6043 26.3666C21.5043 26.36 21.4043 26.32 21.3043 26.32C21.2093 26.3266 21.1393 26.44 21.0493 26.4266C20.9893 26.4266 20.9893 26.2666 20.9393 26.3133C20.9093 26.4 20.9243 26.4933 20.9193 26.58C20.9293 26.6 20.9593 26.5866 20.9743 26.5933H21.1593C21.1693 26.6733 21.1693 26.7733 21.2093 26.84C21.2743 26.8666 21.3493 26.84 21.4093 26.8066C21.4693 26.7666 21.4793 26.6666 21.4993 26.5866C21.5193 26.5 21.5993 26.52 21.6493 26.4866C21.7095 26.4617 21.7617 26.4109 21.7979 26.3421C21.8341 26.2733 21.8522 26.1905 21.8493 26.1066C21.8393 25.8466 21.7693 25.6133 21.7093 25.3733C21.6843 25.2666 21.6643 25.1533 21.6343 25.0466L21.6143 25.0333V25.0333ZM21.3143 26.4866C21.3793 26.4866 21.4093 26.5933 21.3943 26.6666C21.3693 26.7666 21.2743 26.7066 21.2593 26.6333C21.2243 26.5666 21.2443 26.48 21.3093 26.4866H21.3143Z" fill="#F7E017"/>
<path d="M18.7997 25.6533C18.7697 25.6533 18.7347 25.6666 18.6997 25.7C18.5247 25.8666 18.4747 26.06 18.5997 26.14C18.6847 26.1933 18.6647 26.26 18.5247 26.3533C18.3247 26.4866 18.1497 26.4666 17.8147 26.2866C17.7347 26.24 17.7147 26.26 17.7297 26.3533C17.7497 26.4533 17.8197 26.5066 17.9847 26.5533C18.1647 26.62 18.3847 26.6 18.5247 26.52C18.6069 26.464 18.6799 26.387 18.7397 26.2933L18.8497 26.14L18.9747 26.16C19.1297 26.1866 19.1347 26.1866 19.1347 26.2866C19.1347 26.3666 19.1347 26.3666 19.2797 26.3866L19.5147 26.4C19.5797 26.4 19.6147 26.42 19.6347 26.46C19.6647 26.5066 19.6797 26.5133 19.9147 26.4866C20.1347 26.46 20.1747 26.46 20.2747 26.5066C20.3447 26.5333 20.4247 26.5466 20.4797 26.54C20.6497 26.5133 20.8797 26.3333 20.9147 26.2C20.9147 26.18 20.9797 26.1533 21.0497 26.1333C21.2197 26.0866 21.2247 26.04 21.0697 26.0133C20.9913 25.9995 20.9143 25.9749 20.8397 25.94C20.7839 25.9085 20.7249 25.8883 20.6647 25.88C20.5797 25.88 20.4997 25.9466 20.4997 26.0266C20.4997 26.0733 20.5097 26.08 20.6147 26.0666C20.7047 26.0533 20.7347 26.06 20.7847 26.1133C20.8197 26.1466 20.8397 26.1866 20.8347 26.2C20.8097 26.2533 20.6097 26.3733 20.5247 26.3933C20.4733 26.4047 20.4205 26.3929 20.3747 26.36C20.2947 26.3066 20.1847 26.3 20.1597 26.3466C20.1497 26.3666 20.1297 26.3533 20.0947 26.3133L20.0447 26.2466L19.9247 26.3133C19.8047 26.38 19.7597 26.38 19.7597 26.3C19.7597 26.2666 19.7247 26.26 19.5497 26.28C19.3547 26.2933 19.3347 26.2866 19.2997 26.2333C19.2647 26.1866 19.2647 26.1666 19.2897 26.12C19.3097 26.0666 19.3097 26.0533 19.2897 26.02C19.2697 25.9933 19.2397 25.9933 19.1647 26.02C18.9697 26.0866 18.9147 26.0533 18.9147 25.8533C18.9147 25.7266 18.8647 25.6533 18.7997 25.6533V25.6533ZM18.7497 25.84C18.7597 25.84 18.7697 25.8466 18.7847 25.8666C18.7997 25.8866 18.8097 25.9333 18.7997 25.9533C18.7847 26.0133 18.6997 26.0133 18.6847 25.9533C18.6747 25.92 18.6847 25.8866 18.7097 25.8666L18.7497 25.84Z" fill="#F7E017"/>
<path d="M18.3999 26.0267C18.5199 25.9267 18.5199 25.9333 18.5349 25.66C18.5449 25.46 18.5449 25.4467 18.5049 25.4467C18.4449 25.4467 18.4149 25.5333 18.4149 25.6933C18.4149 25.8 18.4049 25.8467 18.3649 25.8933C18.2649 26.0267 18.0249 25.9667 17.9899 25.8067C17.9799 25.7533 17.9949 25.7 18.0449 25.6067C18.1499 25.4067 18.1299 25.3533 17.9949 25.5067C17.9099 25.6133 17.8949 25.6133 17.9099 25.5267C17.9249 25.44 17.8949 25.4067 17.8199 25.4333C17.7849 25.4467 17.7599 25.4733 17.7549 25.54C17.7449 25.5933 17.7249 25.6267 17.6899 25.64C17.6299 25.66 17.5299 25.5867 17.5299 25.52C17.5299 25.4733 17.6799 25.2267 17.8749 24.96C17.9449 24.86 18.0049 24.76 18.0049 24.7533C18.0049 24.74 17.9649 24.7267 17.9199 24.7267C17.8499 24.7267 17.8299 24.74 17.8299 24.78C17.8299 24.8067 17.7349 24.98 17.6149 25.16C17.3649 25.5333 17.3449 25.6067 17.4649 25.7067C17.5148 25.7477 17.5727 25.7683 17.6314 25.766C17.69 25.7636 17.7469 25.7383 17.7949 25.6933L17.8749 25.62V25.7533C17.8749 25.92 17.8999 25.9867 17.9999 26.0533C18.0624 26.0961 18.1323 26.1162 18.2026 26.1115C18.2728 26.1069 18.3408 26.0776 18.3999 26.0267V26.0267ZM23.6199 23.72C23.5299 23.7933 23.5999 23.9467 23.6199 24.0533C23.5799 24.1867 23.4449 24.2267 23.3449 24.2533C23.2049 24.2867 23.1049 24.44 23.0549 24.6067C23.0249 24.7133 22.9549 24.8733 22.8799 24.7133C22.8149 24.6267 22.6949 24.5533 22.6199 24.66C22.5599 24.7333 22.5449 24.84 22.5199 24.94C22.4849 24.8667 22.4699 24.7533 22.3999 24.7267C22.2799 24.7467 22.3249 24.9467 22.3799 25.0267C22.4299 25.1267 22.4799 25.2467 22.4299 25.36C22.3799 25.4933 22.2299 25.5867 22.1449 25.4733C22.0649 25.4133 22.1199 25.2067 22.0349 25.1933C21.9949 25.2333 21.9949 25.4533 21.9299 25.3333C21.8799 25.2333 21.9099 25.0933 21.8499 25.0067C21.7849 25.02 21.7299 25.1733 21.7499 25.2533C21.8399 25.4133 21.8799 25.6133 21.9149 25.8067C21.9349 25.8867 21.9099 26.04 21.9649 26.0733C21.9999 25.9467 21.9649 25.8067 21.9949 25.68C22.0849 25.6667 22.1799 25.72 22.2699 25.6933C22.4049 25.6733 22.5049 25.52 22.5499 25.3667C22.5649 25.2467 22.5499 25.1267 22.5449 25.0067C22.6449 25.0333 22.7549 25.0333 22.8549 25.0733C22.9049 25.1733 22.8399 25.32 22.8249 25.4267C22.7749 25.6533 22.6399 25.8133 22.5149 25.96C22.4599 26.0067 22.4549 26.12 22.5299 26.06C22.7009 25.9517 22.8348 25.7612 22.9049 25.5267C22.9599 25.3533 22.9149 25.16 22.9549 24.9867C23.0049 24.8533 23.1299 24.88 23.2249 24.88C23.3199 24.88 23.3999 24.7267 23.3699 24.6C23.3399 24.4533 23.4549 24.3867 23.5299 24.3333C23.6349 24.2667 23.7149 24.1267 23.7049 23.9667C23.7049 23.88 23.7049 23.7267 23.6199 23.72V23.72ZM23.2549 24.5533C23.3649 24.5933 23.2349 24.8733 23.1749 24.6933C23.1549 24.6267 23.1999 24.5533 23.2549 24.5533ZM22.7399 24.7533C22.8849 24.7467 22.8299 25.02 22.7099 24.9C22.6449 24.8533 22.6649 24.7533 22.7399 24.7533ZM17.4999 25.84C17.4999 25.8133 17.4899 25.7933 17.4699 25.7933C17.4349 25.7933 17.4099 25.84 17.4249 25.88C17.4449 25.9267 17.4899 25.9 17.4999 25.84ZM19.1999 25.6C19.1999 25.5533 19.1849 25.54 19.1599 25.5467C19.1049 25.56 19.0949 25.66 19.1549 25.66C19.1849 25.66 19.1999 25.64 19.1999 25.5933V25.6ZM17.0999 24.24C17.0349 24.22 16.9899 24.3 16.9649 24.3733C16.9149 24.4867 16.8549 24.6 16.7649 24.66C16.6999 24.6867 16.6299 24.6533 16.5699 24.6067C16.5049 24.56 16.5199 24.4533 16.4899 24.38C16.4399 24.3267 16.3549 24.4 16.3599 24.48C16.3549 24.5867 16.4249 24.6467 16.4899 24.6867C16.5399 24.7333 16.6199 24.7533 16.6399 24.84C16.6399 24.9133 16.6599 25 16.7249 24.9733C16.7999 24.9733 16.8249 25.0933 16.7899 25.1667C16.7565 25.248 16.7441 25.3417 16.7549 25.4333C16.7899 25.48 16.8249 25.3667 16.8549 25.34L16.9049 25.2467C17.0399 25.2533 17.1699 25.28 17.3049 25.2733C17.4049 25.2733 17.4799 25.1933 17.5399 25.1C17.6299 24.98 17.6999 24.84 17.7949 24.74C17.8649 24.7133 17.8299 24.54 17.7549 24.5933C17.6899 24.6267 17.6699 24.7267 17.6249 24.7867C17.5519 24.9148 17.468 25.0311 17.3749 25.1333C17.2999 25.1733 17.2199 25.1533 17.1449 25.1333C17.1149 25.1 17.2049 25.0667 17.2199 25.0267C17.2599 24.9733 17.3099 24.92 17.3349 24.8467C17.3099 24.78 17.2399 24.78 17.1899 24.78C17.0699 24.7933 16.9749 24.9333 16.8499 24.9467C16.7549 24.9467 16.8049 24.8133 16.8499 24.7667C16.9299 24.6333 17.0199 24.5133 17.1049 24.3867C17.1299 24.3467 17.2199 24.3067 17.1649 24.2533C17.1449 24.24 17.1199 24.24 17.0999 24.24V24.24ZM17.1599 24.9067C17.2249 24.9533 17.1199 25.0267 17.0799 25.02C17.0249 25.04 17.0199 24.9667 17.0699 24.9533C17.0999 24.9267 17.1299 24.9067 17.1599 24.9067ZM16.9699 25.08C17.0049 25.08 17.0799 25.1267 17.0099 25.1533C16.9599 25.2067 16.9099 25.1 16.9699 25.08Z" fill="#F7E017"/>
<path d="M18.4698 25.1866C18.4698 25.12 18.3898 25.1333 18.3798 25.2C18.3698 25.24 18.3798 25.2466 18.4198 25.24C18.4498 25.24 18.4698 25.2133 18.4698 25.1866ZM22.2048 24.7466C22.2148 24.6866 22.1548 24.6466 22.1198 24.6933C22.0848 24.7333 22.1198 24.82 22.1598 24.8066C22.1798 24.8066 22.1998 24.7733 22.2098 24.7466H22.2048ZM16.3998 24.14C16.4548 24.0733 16.4598 24.0666 16.4348 23.92C16.3948 23.7133 16.3998 23.6866 16.4598 23.6666C16.5348 23.6466 16.7248 23.78 16.7598 23.8866C16.7998 23.9733 16.7948 23.98 16.7398 24.0466C16.6798 24.12 16.6798 24.2066 16.7398 24.2066C16.7898 24.2066 16.9248 24.0333 16.9248 23.9733C16.9248 23.8866 16.7748 23.68 16.6548 23.6066C16.5828 23.5619 16.5042 23.5392 16.4248 23.54C16.2698 23.54 16.2498 23.5866 16.2898 23.82C16.3398 24.1 16.2748 24.14 16.1048 23.9266C16.0443 23.8557 15.997 23.767 15.9666 23.6675C15.9363 23.568 15.9236 23.4604 15.9298 23.3533C15.9298 23.0866 16.0098 22.9466 16.1848 22.9133C16.3048 22.8933 16.2998 22.8533 16.1848 22.8333C16.0048 22.7933 15.8548 22.9533 15.7998 23.2333C15.7348 23.5466 15.8798 23.9266 16.1348 24.12C16.2698 24.22 16.3198 24.2266 16.3998 24.14V24.14ZM23.3598 23.7933C23.3748 23.78 23.3848 23.7333 23.3848 23.7C23.3848 23.6666 23.4098 23.5933 23.4398 23.54C23.4698 23.4866 23.4898 23.4333 23.4898 23.42C23.4898 23.3666 23.4248 23.3666 23.3748 23.42C23.3198 23.48 23.2748 23.4866 23.2748 23.42L23.3348 23.36C23.4148 23.3133 23.4198 23.26 23.3548 23.22C23.2698 23.1666 23.1798 23.26 23.1748 23.42C23.1698 23.5266 23.1748 23.54 23.2348 23.5866C23.2898 23.6333 23.2998 23.6533 23.2898 23.72C23.2748 23.8266 23.3098 23.8666 23.3598 23.7933V23.7933ZM24.0098 23.7C24.0598 23.6333 24.0998 23.5733 24.0998 23.5533C24.0998 23.5333 24.1448 23.4733 24.1948 23.42C24.3348 23.2866 24.3698 23.1533 24.3048 22.9333C24.2798 22.8466 24.2048 22.7333 24.0298 22.5333C23.9501 22.4198 23.8592 22.3212 23.7598 22.24C23.7148 22.24 23.7248 22.4666 23.7698 22.4866C23.8548 22.5266 23.9098 22.5733 24.0398 22.7333C24.1998 22.92 24.2698 23.1 24.2298 23.2C24.1948 23.2933 24.1448 23.2666 24.0048 23.0666C23.9594 22.9914 23.9054 22.9262 23.8448 22.8733C23.8298 22.8733 23.8198 22.9133 23.8198 22.9666C23.8198 23.0333 23.8448 23.1 23.9198 23.2C24.0348 23.3733 24.0448 23.4733 23.9548 23.5666C23.9345 23.5941 23.9108 23.6166 23.8848 23.6333C23.7705 23.3725 23.6173 23.1456 23.4348 22.9666C23.4198 22.9666 23.4098 22.9933 23.4098 23.06C23.4098 23.1466 23.4198 23.1733 23.4698 23.2066C23.6012 23.3412 23.7189 23.4981 23.8198 23.6733L23.9098 23.8066C23.9471 23.7756 23.9808 23.7374 24.0098 23.6933V23.7ZM24.3098 22.58C24.2848 22.5 23.8898 21.9533 23.8448 21.9533C23.8248 21.9533 23.8198 21.9866 23.8248 22.0733C23.8248 22.18 23.8398 22.1933 23.8948 22.2133C23.9802 22.2799 24.0577 22.363 24.1248 22.46C24.1791 22.5379 24.2414 22.6052 24.3098 22.66V22.58V22.58ZM21.9198 28.7533C21.9225 28.7633 21.923 28.7738 21.9214 28.784C21.9197 28.7942 21.916 28.8039 21.9104 28.8122C21.9048 28.8205 21.8975 28.8273 21.8892 28.8319C21.8808 28.8366 21.8716 28.839 21.8623 28.839C21.8529 28.839 21.8437 28.8366 21.8354 28.8319C21.827 28.8273 21.8198 28.8205 21.8142 28.8122C21.8086 28.8039 21.8048 28.7942 21.8032 28.784C21.8016 28.7738 21.8021 28.7633 21.8048 28.7533C21.8021 28.7434 21.8016 28.7329 21.8032 28.7226C21.8048 28.7124 21.8086 28.7027 21.8142 28.6944C21.8198 28.6861 21.827 28.6793 21.8354 28.6747C21.8437 28.67 21.8529 28.6676 21.8623 28.6676C21.8716 28.6676 21.8808 28.67 21.8892 28.6747C21.8975 28.6793 21.9048 28.6861 21.9104 28.6944C21.916 28.7027 21.9197 28.7124 21.9214 28.7226C21.923 28.7329 21.9225 28.7434 21.9198 28.7533V28.7533ZM22.1298 28.66C22.1298 28.6687 22.1282 28.6774 22.1252 28.6855C22.1222 28.6936 22.1178 28.7009 22.1122 28.7071C22.1066 28.7133 22.1 28.7182 22.0927 28.7216C22.0855 28.7249 22.0777 28.7266 22.0698 28.7266C22.0619 28.7266 22.0541 28.7249 22.0468 28.7216C22.0395 28.7182 22.0329 28.7133 22.0274 28.7071C22.0218 28.7009 22.0174 28.6936 22.0144 28.6855C22.0113 28.6774 22.0098 28.6687 22.0098 28.66C22.0098 28.6512 22.0113 28.6426 22.0144 28.6345C22.0174 28.6264 22.0218 28.619 22.0274 28.6128C22.0329 28.6066 22.0395 28.6017 22.0468 28.5984C22.0541 28.595 22.0619 28.5933 22.0698 28.5933C22.0777 28.5933 22.0855 28.595 22.0927 28.5984C22.1 28.6017 22.1066 28.6066 22.1122 28.6128C22.1178 28.619 22.1222 28.6264 22.1252 28.6345C22.1282 28.6426 22.1298 28.6512 22.1298 28.66V28.66Z" fill="#F7E017"/>
</g>
<rect x="2" y="2" width="36" height="36" rx="18" stroke="white" stroke-width="4"/>
<defs>
<clipPath id="clip0_90_37395">
<rect x="4" y="4" width="32" height="32" rx="16" fill="white"/>
</clipPath>
</defs>
</svg>
