<svg width="40" height="40" viewBox="0 0 40 40" fill="none" xmlns="http://www.w3.org/2000/svg">
<g clip-path="url(#clip0_90_36389)">
<path fill-rule="evenodd" clip-rule="evenodd" d="M4 4H36V36H4V4Z" fill="#229E45"/>
<path fill-rule="evenodd" clip-rule="evenodd" d="M20.0699 33.0667L35.1449 20.02L19.9799 6.93335L4.85486 20.0467L20.0699 33.0667Z" fill="#F8E509"/>
<path fill-rule="evenodd" clip-rule="evenodd" d="M26.6398 20.0001C26.6398 24.6867 23.7848 28.4867 20.2598 28.4867C19.0001 28.4841 17.7693 27.9835 16.723 27.0484C15.6767 26.1132 14.8618 24.7854 14.3813 23.2329C13.9009 21.6803 13.7764 19.9727 14.0238 18.3258C14.2711 16.679 14.8791 15.1669 15.7708 13.9806C16.6626 12.7944 17.7981 11.9874 19.0338 11.6615C20.2695 11.3356 21.5499 11.5055 22.7132 12.1498C23.8765 12.794 24.8705 13.8837 25.5694 15.281C26.2683 16.6783 26.6408 18.3205 26.6398 20.0001V20.0001Z" fill="#2B49A3"/>
<path fill-rule="evenodd" clip-rule="evenodd" d="M18.1649 25.0867L17.9649 24.9333L17.7649 25.0667L17.8099 24.7667L17.6499 24.54L17.8749 24.5067L17.9849 24.24L18.0799 24.52L18.2999 24.5733L18.1349 24.7733M22.4349 26.5267L22.2399 26.3733L22.0399 26.5067L22.0799 26.2067L21.9249 25.9867L22.1499 25.9533L22.2549 25.68L22.3549 25.96L22.5749 26.0133L22.4049 26.22M20.5949 24.22L20.4249 24.0867L20.2499 24.2067L20.2899 23.9467L20.1499 23.7533L20.3499 23.7267L20.4399 23.4867L20.5199 23.7333L20.7149 23.78L20.5649 23.96M24.9149 23.3933L24.7449 23.26L24.5699 23.38L24.6099 23.12L24.4749 22.9333L24.6699 22.9067L24.7599 22.6733L24.8399 22.9133L25.0299 22.96L24.8849 23.1333M20.5199 21.6667L20.3199 21.52L20.1199 21.6533L20.1599 21.3467L20.0049 21.1267L20.2299 21.0933L20.3349 20.82L20.4349 21.1L20.6549 21.1533L20.4849 21.3667M15.2549 19.0333L15.0549 18.8867L14.8549 19.02L14.9049 18.7133L14.7399 18.4933L14.9699 18.46L15.0699 18.1867L15.1699 18.4667L15.3899 18.52L15.2249 18.7267M15.8899 22.54L15.6899 22.3867L15.4899 22.52L15.5349 22.22L15.3749 22L15.5999 21.96L15.7049 21.6933L15.8049 21.9733L16.0249 22.0267L15.8599 22.2333M22.4599 17.7467L22.2799 17.6133L22.0999 17.7333L22.1399 17.4667L21.9999 17.2667L22.1999 17.2333L22.2949 16.9933L22.3799 17.2467L22.5799 17.2933L22.4299 17.4733M22.0949 20.0267L21.9599 19.92L21.8149 20.0133L21.8449 19.8L21.7349 19.6467L21.8949 19.62L21.9699 19.4333L22.0349 19.6333L22.1849 19.6667L22.0749 19.8133M14.9649 23.1733L14.8299 23.0733L14.6949 23.16L14.7249 22.96L14.6199 22.8133L14.7699 22.7867L14.8399 22.6067L14.9049 22.7933L15.0549 22.8333L14.9399 22.9667M24.9499 23.9867L24.8399 23.9133L24.7299 23.98L24.7549 23.8267L24.6699 23.72L24.7899 23.7L24.8499 23.5667L24.8999 23.7L25.0249 23.7333L24.9299 23.8333" fill="#FFFFEF"/>
<path fill-rule="evenodd" clip-rule="evenodd" d="M14.9649 23.1734L14.8299 23.0734L14.6949 23.16L14.7249 22.96L14.6199 22.8134L14.7699 22.7867L14.8399 22.6067L14.9049 22.7934L15.0549 22.8334L14.9399 22.9667" fill="#FFFFEF"/>
<path fill-rule="evenodd" clip-rule="evenodd" d="M14.9649 23.1733L14.8299 23.0733L14.6949 23.16L14.7249 22.96L14.6199 22.8133L14.7699 22.7867L14.8399 22.6067L14.9049 22.7933L15.0549 22.8333L14.9399 22.9667M17.0549 23.1667L16.9249 23.0733L16.7899 23.16L16.8199 22.96L16.7149 22.8133L16.8649 22.7867L16.9349 22.6067L16.9999 22.7933L17.1499 22.8267L17.0349 22.9667M16.7949 24.1L16.6649 24L16.5299 24.0933L16.5599 23.8933L16.4549 23.74L16.6049 23.7133L16.6749 23.5333L16.7399 23.72L16.8899 23.76L16.7749 23.8933M21.1449 22.4133L21.0149 22.3067L20.8749 22.4L20.9049 22.2L20.8049 22.0467L20.9549 22.0267L21.0249 21.8467L21.0849 22.0333L21.2349 22.0667L21.1249 22.2067M19.8699 22.4067L19.7349 22.3067L19.5999 22.4L19.6299 22.2L19.5299 22.0467L19.6799 22.0267L19.7499 21.84L19.8099 22.0333L19.9599 22.0667L19.8499 22.2067M16.4099 21.82L16.3249 21.7533L16.2399 21.8067L16.2599 21.68L16.1949 21.5867L16.2899 21.5733L16.3299 21.46L16.3699 21.58L16.4649 21.6L16.3949 21.6867M24.7849 24.7133L24.6549 24.6133L24.5199 24.7067L24.5499 24.5067L24.4449 24.3533L24.5949 24.3267L24.6649 24.1467L24.7299 24.3333L24.8799 24.3733L24.7649 24.5067M23.7249 24.9067L23.6149 24.8133L23.4999 24.8933L23.5249 24.72L23.4399 24.6L23.5649 24.58L23.6249 24.4267L23.6749 24.5867L23.7999 24.6133L23.7049 24.7333M24.2249 24.8867L24.1249 24.8067L24.0199 24.8733L24.0399 24.72L23.9599 24.6067L24.0749 24.5867L24.1299 24.4533L24.1799 24.5867L24.2949 24.62L24.2099 24.7267M25.6649 23.2067L25.5649 23.14L25.4649 23.2067L25.4899 23.0533L25.4099 22.94L25.5249 22.92L25.5749 22.7867L25.6249 22.9267L25.7299 22.9533L25.6499 23.06M23.7099 25.8467L23.5849 25.7533L23.4499 25.8333L23.4799 25.6467L23.3799 25.5133L23.5299 25.4933L23.5949 25.3267L23.6549 25.5L23.8049 25.5333L23.6899 25.66M23.7199 26.6067L23.5999 26.5133L23.4799 26.6L23.5099 26.4133L23.4149 26.28L23.5499 26.2533L23.6099 26.0867L23.6649 26.26L23.7999 26.2933L23.6999 26.4267M22.7499 24.8867L22.6549 24.8067L22.5549 24.8733L22.5749 24.7267L22.4999 24.6133L22.6099 24.6L22.6599 24.4667L22.7099 24.6L22.8199 24.6267L22.7399 24.7333M21.8499 24.8867L21.7499 24.8067L21.6499 24.8733L21.6749 24.7267L21.5949 24.6133L21.7099 24.6L21.7599 24.4667L21.8099 24.6L21.9149 24.6267L21.8349 24.7333M20.3149 23.0933L20.2149 23.02L20.1149 23.0867L20.1399 22.9333L20.0599 22.8267L20.1699 22.8067L20.2199 22.6733L20.2699 22.8067L20.3799 22.84L20.2999 22.94M20.4849 26.74L20.4049 26.68L20.3149 26.74L20.3349 26.6067L20.2699 26.5133L20.3649 26.5L20.4099 26.3867L20.4499 26.5067L20.5449 26.5267L20.4749 26.6133M18.1649 20.84L17.9649 20.6867L17.7649 20.82L17.8099 20.52L17.6499 20.3L17.8749 20.26L17.9849 19.9933L18.0799 20.2733L18.2999 20.3267L18.1349 20.5333" fill="#FFFFEF"/>
<path fill-rule="evenodd" clip-rule="evenodd" d="M26.2197 23.0534C26.3435 22.6248 26.4405 22.1833 26.5097 21.7334C23.1197 17.7667 19.3447 15.7334 14.5747 16.1534C14.4017 16.5997 14.2594 17.0661 14.1497 17.5467C19.7997 16.8267 23.9497 20.16 26.2197 23.0534Z" fill="white"/>
<path d="M24.6998 20.8267L24.8148 20.9134C24.7976 20.9586 24.7923 21.0103 24.7998 21.06C24.8115 21.1083 24.8365 21.1488 24.8698 21.1734C24.9048 21.2067 24.9398 21.2267 24.9698 21.22C24.9998 21.22 25.0198 21.2 25.0348 21.1734C25.0435 21.1557 25.0471 21.1343 25.0448 21.1134C25.0407 21.0887 25.0321 21.0658 25.0198 21.0467C25.0098 21.0267 24.9848 20.98 24.9448 20.9267C24.9037 20.8701 24.8729 20.8017 24.8548 20.7267C24.8423 20.6699 24.8455 20.6091 24.8639 20.5552C24.8823 20.5014 24.9145 20.4581 24.9548 20.4334C24.9912 20.4131 25.0313 20.4085 25.0698 20.42C25.1168 20.4345 25.1611 20.4617 25.1998 20.5C25.2698 20.5667 25.3148 20.6334 25.3298 20.7134C25.3367 20.7508 25.3376 20.7897 25.3324 20.8276C25.3273 20.8656 25.3161 20.9016 25.2998 20.9334L25.1798 20.8334C25.1948 20.7934 25.1998 20.7534 25.1898 20.72C25.1848 20.6867 25.1648 20.6534 25.1298 20.6267C25.1041 20.5991 25.0727 20.5828 25.0398 20.58C25.0307 20.5796 25.0218 20.5825 25.0138 20.5884C25.0059 20.5942 24.9993 20.6029 24.9948 20.6134C24.9848 20.6334 24.9848 20.6534 24.9898 20.68C24.9948 20.7067 25.0198 20.76 25.0698 20.8267C25.1198 20.8934 25.1498 20.9534 25.1698 20.9934C25.1876 21.0371 25.1957 21.0867 25.1931 21.1363C25.1904 21.1859 25.1771 21.2335 25.1548 21.2734C25.1314 21.3187 25.0983 21.3535 25.0598 21.3734C25.0223 21.3964 24.9804 21.4034 24.9398 21.3934C24.8948 21.38 24.8498 21.3534 24.7998 21.3067C24.7248 21.24 24.6798 21.1667 24.6648 21.0867C24.6485 20.996 24.6593 20.9004 24.6948 20.82L24.6998 20.8267ZM24.1198 20.32L24.2448 20.4067C24.2293 20.4527 24.2258 20.5043 24.2348 20.5534C24.2476 20.5991 24.2725 20.6371 24.3048 20.66C24.3448 20.6934 24.3748 20.7067 24.4048 20.7C24.4348 20.7 24.4548 20.68 24.4698 20.6467C24.4774 20.6308 24.4809 20.6121 24.4798 20.5934C24.4798 20.5734 24.4698 20.5467 24.4548 20.5267C24.4292 20.4855 24.4025 20.4454 24.3748 20.4067C24.3198 20.3334 24.2848 20.2734 24.2748 20.22C24.2666 20.1857 24.2642 20.1494 24.2676 20.1137C24.2711 20.078 24.2803 20.0438 24.2948 20.0134C24.3138 19.9722 24.3417 19.9397 24.3748 19.92C24.4091 19.8989 24.4474 19.8919 24.4848 19.9C24.531 19.9104 24.5752 19.9331 24.6148 19.9667C24.6898 20.0334 24.7348 20.1 24.7498 20.1734C24.7589 20.2108 24.7618 20.2505 24.7584 20.2896C24.7549 20.3287 24.7452 20.3664 24.7298 20.4L24.6048 20.3067C24.6198 20.26 24.6248 20.2267 24.6148 20.1934C24.6048 20.16 24.5848 20.1267 24.5498 20.1C24.5221 20.0736 24.4888 20.0595 24.4548 20.06C24.4466 20.0608 24.4386 20.0642 24.4317 20.07C24.4247 20.0758 24.4189 20.0838 24.4148 20.0934C24.4048 20.1134 24.4048 20.1334 24.4098 20.16C24.4148 20.1867 24.4448 20.24 24.4948 20.3067C24.5448 20.3734 24.5798 20.4267 24.5948 20.4667C24.6148 20.5085 24.6255 20.5571 24.6255 20.6067C24.6255 20.6563 24.6148 20.7049 24.5948 20.7467C24.5732 20.7932 24.542 20.8303 24.5048 20.8534C24.4673 20.8764 24.4254 20.8834 24.3848 20.8734C24.3333 20.8618 24.2841 20.8368 24.2398 20.8C24.1752 20.7541 24.1254 20.6782 24.0998 20.5867C24.0805 20.4977 24.0876 20.4022 24.1198 20.32V20.32ZM23.4098 20.0667L23.7748 19.2667L24.2148 19.6334L24.1548 19.7667L23.8348 19.5L23.7548 19.68L24.0548 19.9267L23.9898 20.06L23.6898 19.8134L23.5898 20.0334L23.9248 20.3L23.8648 20.4334L23.4148 20.0667H23.4098ZM22.3748 18.9334L22.4298 18.8L22.6998 18.98L22.5748 19.3134C22.5348 19.3267 22.4848 19.3334 22.4248 19.3267C22.3672 19.3182 22.3112 19.2956 22.2598 19.26C22.1993 19.2207 22.1476 19.161 22.1098 19.0867C22.0754 19.0177 22.0579 18.9362 22.0598 18.8534C22.0623 18.7672 22.0794 18.6829 22.1098 18.6067C22.1398 18.5265 22.1845 18.4577 22.2398 18.4067C22.2926 18.358 22.3555 18.3323 22.4198 18.3334C22.4698 18.3334 22.5198 18.3534 22.5798 18.4C22.6598 18.4467 22.7098 18.5134 22.7348 18.5867C22.7608 18.6595 22.7661 18.7424 22.7498 18.82L22.6148 18.7667C22.6231 18.722 22.6195 18.6749 22.6048 18.6334C22.5898 18.5934 22.5648 18.5667 22.5248 18.54C22.5015 18.5223 22.4756 18.5113 22.4489 18.5079C22.4222 18.5044 22.3952 18.5086 22.3698 18.52C22.3198 18.54 22.2748 18.6 22.2398 18.6934C22.2048 18.7867 22.1898 18.8734 22.2048 18.9467C22.2117 18.9815 22.2242 19.0138 22.2415 19.0415C22.2588 19.0691 22.2804 19.0914 22.3048 19.1067C22.3298 19.1267 22.3598 19.14 22.3898 19.14C22.4196 19.1461 22.45 19.1461 22.4798 19.14L22.5198 19.0334L22.3748 18.9334V18.9334ZM17.8648 17.4467L17.9648 16.5134L18.1748 16.56L18.2298 17.2134L18.4248 16.6134L18.6348 16.6534L18.5348 17.5734L18.3998 17.5467L18.4848 16.82L18.2648 17.52L18.1298 17.4934L18.0748 16.74L17.9948 17.4734L17.8648 17.4467V17.4467ZM17.1598 17.3334L17.2248 16.4L17.7398 16.4667L17.7298 16.6267L17.3548 16.58L17.3398 16.78L17.6898 16.8267L17.6748 16.9867L17.3248 16.94L17.3098 17.1934L17.6998 17.24L17.6898 17.4L17.1598 17.3334V17.3334Z" fill="#309E3A"/>
<path d="M14.8249 16.7534C14.8249 16.6534 14.8399 16.58 14.8599 16.5134C14.8774 16.466 14.9011 16.4231 14.9299 16.3867C14.9556 16.3522 14.9862 16.325 15.0199 16.3067C15.0699 16.2867 15.1199 16.2734 15.1699 16.2734C15.2749 16.2734 15.3549 16.3267 15.4199 16.4067C15.4509 16.4577 15.4739 16.5163 15.4876 16.5793C15.5013 16.6423 15.5055 16.7082 15.4999 16.7734C15.4999 16.92 15.4649 17.04 15.3999 17.1267C15.3665 17.1679 15.327 17.1992 15.2839 17.2188C15.2409 17.2383 15.1952 17.2455 15.1499 17.24C15.1052 17.2406 15.0609 17.2291 15.0197 17.2062C14.9784 17.1833 14.9411 17.1494 14.9099 17.1067C14.8477 17.0085 14.8171 16.8815 14.8249 16.7534V16.7534Z" fill="#309E3A"/>
<path d="M14.9697 16.7534C14.9697 16.8534 14.9847 16.9333 15.0197 16.9933C15.0547 17.0467 15.0997 17.08 15.1597 17.08C15.1857 17.0824 15.2117 17.0771 15.2359 17.0644C15.2602 17.0517 15.2819 17.032 15.2997 17.0067C15.3347 16.9534 15.3497 16.8733 15.3547 16.76C15.3547 16.6533 15.3447 16.5734 15.3047 16.52C15.2884 16.4931 15.2679 16.4714 15.2445 16.4564C15.2212 16.4415 15.1956 16.4336 15.1697 16.4334C15.1434 16.4322 15.1173 16.4388 15.0931 16.4526C15.0689 16.4665 15.0473 16.4872 15.0297 16.5133C14.9897 16.5667 14.9747 16.6467 14.9697 16.7534V16.7534Z" fill="#F7FFFF"/>
<path d="M15.65 17.2334L15.66 16.3H15.96C16.035 16.3 16.085 16.3134 16.12 16.3334C16.155 16.3467 16.18 16.38 16.2 16.42C16.22 16.46 16.23 16.5134 16.23 16.5734C16.2304 16.6375 16.2125 16.6995 16.18 16.7467C16.1431 16.7929 16.0955 16.8211 16.045 16.8267L16.12 16.9067C16.14 16.9334 16.165 16.9867 16.195 17.06L16.28 17.2467H16.11L16.01 17.0334L15.94 16.9C15.9279 16.8817 15.9124 16.8679 15.895 16.86C15.8723 16.8512 15.8487 16.8467 15.825 16.8467H15.795V17.2334H15.65V17.2334Z" fill="#309E3A"/>
<path d="M15.7997 16.7H15.8997C15.9697 16.7 16.0147 16.7 16.0297 16.6867C16.0447 16.6867 16.0597 16.6667 16.0697 16.6534C16.0797 16.64 16.0847 16.6067 16.0847 16.5867C16.0847 16.5467 16.0797 16.52 16.0647 16.5067C16.0547 16.4867 16.0347 16.4734 16.0147 16.4667H15.9147L15.7997 16.46V16.6934V16.7Z" fill="white"/>
<path d="M16.4499 16.3467L16.7099 16.3667C16.7649 16.3667 16.8099 16.3733 16.8399 16.3867C16.8788 16.4055 16.9133 16.4377 16.9399 16.48C16.9687 16.5266 16.9892 16.5813 16.9999 16.64C17.0149 16.7 17.0199 16.7733 17.0149 16.86C17.0149 16.9281 17.0064 16.9956 16.9899 17.06C16.9699 17.1267 16.9399 17.18 16.9049 17.22C16.8758 17.252 16.8416 17.2748 16.8049 17.2867C16.7749 17.3 16.7299 17.3 16.6799 17.3L16.4149 17.28L16.4499 16.3467V16.3467Z" fill="#309E3A"/>
<path d="M16.5844 16.5133L16.5594 17.1333H16.7494C16.7744 17.1333 16.7944 17.12 16.8094 17.1C16.8244 17.08 16.8394 17.0533 16.8494 17.0133C16.8594 16.9733 16.8694 16.9133 16.8694 16.84L16.8644 16.6733C16.8573 16.6382 16.8435 16.606 16.8244 16.58C16.8078 16.5577 16.7872 16.5416 16.7644 16.5333C16.7266 16.5221 16.6882 16.5154 16.6494 16.5133H16.5844V16.5133Z" fill="white"/>
<path d="M19.8798 18.0134L20.0448 17.1067L20.2648 17.1734L20.4248 17.24C20.4598 17.2667 20.4898 17.3067 20.5048 17.3667C20.5248 17.42 20.5248 17.48 20.5148 17.5534C20.5048 17.6067 20.4898 17.6534 20.4648 17.6867C20.4464 17.716 20.4235 17.7395 20.3976 17.7556C20.3716 17.7718 20.3434 17.7801 20.3148 17.78C20.2798 17.78 20.2298 17.7667 20.1648 17.7467L20.0798 17.7134L20.0198 18.06L19.8798 18.0134V18.0134Z" fill="#309E3A"/>
<path d="M20.15 17.3066L20.11 17.56L20.185 17.5866C20.235 17.6 20.275 17.6133 20.295 17.6066C20.3144 17.603 20.3326 17.5915 20.3469 17.5736C20.3612 17.5557 20.371 17.5323 20.375 17.5066C20.375 17.4733 20.375 17.4466 20.365 17.42C20.354 17.3929 20.3363 17.3717 20.315 17.36L20.22 17.3266L20.155 17.3066H20.15Z" fill="white"/>
<path d="M20.5298 18.2733L20.7648 17.3933L21.0398 17.5266C21.1148 17.56 21.1598 17.5933 21.1898 17.62C21.2148 17.6533 21.2348 17.6866 21.2398 17.74C21.2448 17.7933 21.2498 17.84 21.2398 17.8933C21.2198 17.96 21.1898 18.0066 21.1498 18.04C21.1098 18.0666 21.0598 18.0733 20.9998 18.06C21.0198 18.0933 21.0398 18.1266 21.0498 18.1666L21.0898 18.3466L21.1198 18.5533L20.9648 18.48L20.9148 18.24C20.9057 18.1857 20.894 18.1323 20.8798 18.08C20.8732 18.0592 20.8629 18.0409 20.8498 18.0266C20.8398 18.0066 20.8198 17.9933 20.7848 17.98L20.7598 17.9666L20.6598 18.34L20.5298 18.2733V18.2733Z" fill="#309E3A"/>
<path d="M20.7997 17.8266L20.8947 17.8733C20.9597 17.9066 20.9997 17.92 21.0197 17.92C21.0347 17.92 21.0497 17.92 21.0647 17.9C21.0797 17.8866 21.0897 17.8666 21.0947 17.84C21.1047 17.8133 21.1047 17.7866 21.0947 17.76C21.0873 17.7341 21.0731 17.7128 21.0547 17.7L20.9547 17.6533L20.8547 17.6066L20.7947 17.8266H20.7997Z" fill="white"/>
<path d="M21.3497 18.24C21.3669 18.1619 21.3958 18.0894 21.4347 18.0267C21.46 17.9864 21.4905 17.9526 21.5247 17.9267C21.5557 17.9033 21.5896 17.8875 21.6247 17.88C21.6747 17.88 21.7247 17.88 21.7797 17.9067C21.8244 17.9214 21.8662 17.9487 21.9024 17.9866C21.9386 18.0245 21.9684 18.0723 21.9897 18.1267C22.0297 18.2333 22.0297 18.36 21.9997 18.5067C21.975 18.6327 21.9139 18.7405 21.8297 18.8067C21.7547 18.8667 21.6647 18.8733 21.5697 18.8333C21.5251 18.8182 21.4834 18.7908 21.4473 18.7529C21.4111 18.715 21.3813 18.6675 21.3597 18.6133C21.3397 18.5551 21.3285 18.4921 21.3268 18.428C21.3251 18.3639 21.3328 18.3 21.3497 18.24V18.24Z" fill="#309E3A"/>
<path d="M21.4898 18.2933C21.4698 18.3933 21.4648 18.48 21.4898 18.5467C21.5148 18.6133 21.5498 18.6533 21.6048 18.68C21.6548 18.7 21.7048 18.6933 21.7548 18.6533C21.8048 18.62 21.8348 18.5467 21.8598 18.44C21.8848 18.34 21.8848 18.26 21.8598 18.1933C21.85 18.1617 21.835 18.1334 21.816 18.1103C21.797 18.0873 21.7744 18.0701 21.7498 18.06C21.7252 18.0487 21.6991 18.0446 21.6732 18.0481C21.6473 18.0515 21.6223 18.0624 21.5998 18.08C21.5498 18.12 21.5148 18.1867 21.4898 18.2933V18.2933Z" fill="white"/>
<path d="M22.7145 19.54L23.0345 18.7133L23.2995 18.8933C23.3494 18.9253 23.3951 18.9681 23.4345 19.02C23.4595 19.0533 23.4745 19.0933 23.4745 19.1467C23.4745 19.2 23.4745 19.2467 23.4545 19.2933C23.4353 19.3533 23.3994 19.401 23.3545 19.4267C23.3045 19.44 23.2545 19.44 23.1995 19.4133C23.2195 19.4533 23.2295 19.4933 23.2395 19.5267C23.2495 19.5667 23.2545 19.6267 23.2595 19.7133L23.2695 19.9267L23.1195 19.8267L23.0995 19.58C23.0971 19.5241 23.0921 19.4684 23.0845 19.4133C23.0811 19.3884 23.0724 19.3653 23.0595 19.3467L22.9995 19.3L22.9745 19.28L22.8395 19.6267L22.7145 19.54V19.54Z" fill="#309E3A"/>
<path d="M23.0247 19.1467L23.1197 19.2133C23.1797 19.2533 23.2197 19.28 23.2347 19.28C23.2497 19.28 23.2697 19.28 23.2847 19.2667C23.2997 19.26 23.3097 19.24 23.3197 19.2133C23.3297 19.1867 23.3347 19.16 23.3297 19.1333C23.3235 19.1068 23.3112 19.0835 23.2947 19.0667C23.2654 19.0427 23.2354 19.0205 23.2047 19L23.1047 18.9333L23.0247 19.1467V19.1467Z" fill="white"/>
<path d="M25.3047 21.2467C25.3371 21.1781 25.3796 21.1191 25.4297 21.0733C25.4634 21.0446 25.5006 21.0243 25.5397 21.0133C25.576 21.0035 25.6134 21.0035 25.6497 21.0133C25.6997 21.0267 25.7447 21.0533 25.7897 21.0933C25.8286 21.1256 25.8621 21.1684 25.8879 21.2189C25.9137 21.2694 25.9314 21.3266 25.9397 21.3867C25.9547 21.5 25.9297 21.6267 25.8697 21.7533C25.8195 21.8635 25.7386 21.9426 25.6447 21.9733C25.6 21.9862 25.5536 21.9864 25.5088 21.9737C25.464 21.9611 25.4217 21.936 25.3847 21.9C25.3458 21.8677 25.3124 21.8249 25.2865 21.7744C25.2607 21.7239 25.2431 21.6668 25.2347 21.6067C25.2197 21.4867 25.2447 21.3667 25.3047 21.2467Z" fill="#309E3A"/>
<path d="M25.4298 21.3533C25.3798 21.44 25.3648 21.52 25.3748 21.5933C25.3784 21.6271 25.3875 21.6594 25.4013 21.6881C25.4151 21.7169 25.4333 21.7414 25.4548 21.76C25.5048 21.8066 25.5548 21.82 25.6048 21.8C25.6548 21.78 25.7048 21.7333 25.7498 21.64C25.7948 21.5466 25.8148 21.4666 25.8048 21.4C25.7998 21.3333 25.7698 21.2733 25.7248 21.2266C25.6798 21.18 25.6248 21.1733 25.5748 21.1933C25.5248 21.2066 25.4748 21.26 25.4248 21.3533H25.4298Z" fill="white"/>
<path d="M19.0896 17.6334L19.2046 16.98L19.5646 17.0934L19.5496 17.2L19.2846 17.12L19.2596 17.2667L19.5046 17.34L19.4846 17.4534L19.2396 17.3734L19.2096 17.5534L19.4846 17.64L19.4646 17.7467L19.0896 17.6334V17.6334Z" fill="#309E3A"/>
</g>
<rect x="2" y="2" width="36" height="36" rx="18" stroke="white" stroke-width="4"/>
<defs>
<clipPath id="clip0_90_36389">
<rect x="4" y="4" width="32" height="32" rx="16" fill="white"/>
</clipPath>
</defs>
</svg>
