<svg width="40" height="40" viewBox="0 0 40 40" fill="none" xmlns="http://www.w3.org/2000/svg">
<g clip-path="url(#clip0_90_36221)">
<path fill-rule="evenodd" clip-rule="evenodd" d="M4 4H52.0051V25.2563H4V4Z" fill="#B20000"/>
<path fill-rule="evenodd" clip-rule="evenodd" d="M3.99988 25.2562H52.005V36H3.99988V25.2562Z" fill="#429F00"/>
<path fill-rule="evenodd" clip-rule="evenodd" d="M4 4H9.31619V36H4V4Z" fill="white"/>
<path fill-rule="evenodd" clip-rule="evenodd" d="M4.25281 4.54375H4.50596V5.0875H4.25281V4.54375ZM5.01226 4.54375H5.77172V5.0875H5.01226V4.54375ZM5.26542 4H5.51857V4.54375H5.26542V4ZM6.53118 4H6.78433V4.54375H6.53118V4ZM7.54378 4.54375H8.30324V5.0875H7.54378V4.54375ZM7.79694 4H8.05009V4.54375H7.79694V4ZM4.75911 5.0875H5.26542V5.625H4.75911V5.0875ZM5.51857 5.0875H6.02487V5.625H5.51857V5.0875ZM7.29063 5.0875H7.79694V5.625H7.29063V5.0875ZM8.05009 5.0875H8.55639V5.625H8.05009V5.0875ZM4.50596 5.625H5.01226V6.16875H4.50596V5.625ZM5.77172 5.625H6.27802V6.16875H5.77172V5.625ZM7.03748 5.625H7.54378V6.16875H7.03748V5.625ZM8.30324 5.625H8.80954V6.16875H8.30324V5.625ZM8.80954 4.54375H9.0627V5.0875H8.80954V4.54375ZM4.25281 6.16875H4.75911V6.7125H4.25281V6.16875ZM6.02487 6.16875H6.53118V6.7125H6.02487V6.16875ZM8.55639 6.16875H9.0627V6.7125H8.55639V6.16875ZM4.50596 7.79375H5.01226V8.3375H4.50596V7.79375ZM4.75911 8.3375H5.26542V8.88125H4.75911V8.3375ZM5.77172 7.8H6.27802V8.3375H5.77172V7.8ZM5.51857 8.3375H6.02487V8.88125H5.51857V8.3375ZM5.01226 8.88125H5.77172V9.425H5.01226V8.88125Z" fill="#B20000"/>
<path fill-rule="evenodd" clip-rule="evenodd" d="M5.26564 9.42499H5.51879V9.96874H5.26564V9.42499ZM7.0377 7.79999H7.54401V8.33749H7.0377V7.79999ZM7.29085 8.33749H7.79716V8.88124H7.29085V8.33749ZM8.30346 7.79999H8.80977V8.33749H8.30346V7.79999ZM8.05031 8.33749H8.55661V8.88124H8.05031V8.33749ZM7.54401 8.88124H8.30346V9.42499H7.54401V8.88124ZM7.79716 9.42499H8.05031V9.96874H7.79716V9.42499ZM6.5314 8.87499H6.78455V9.41874H6.5314V8.87499ZM3.99988 8.87499H4.25303V9.41874H3.99988V8.87499ZM9.06292 8.87499H9.31607V9.41874H9.06292V8.87499ZM5.26564 11.5875H5.51879V12.1312H5.26564V11.5875ZM5.01249 12.1375H5.77194V12.675H5.01249V12.1375ZM4.75933 12.675H6.02509V13.2187H4.75933V12.675ZM7.79716 11.5937H8.05031V12.1375H7.79716V11.5937ZM7.54401 12.1375H8.30346V12.675H7.54401V12.1375ZM7.29085 12.675H8.55661V13.2187H7.29085V12.675ZM7.54401 15.3875H8.80977V15.9312H7.54401V15.3875ZM7.0377 13.2187H8.80977V13.7625H7.0377V13.2187ZM4.50618 13.2187H6.27825V13.7625H4.50618V13.2187ZM4.75933 15.9312H5.51879V16.475H4.75933V15.9312ZM4.50618 15.3875H5.77194V15.9312H4.50618V15.3875ZM8.05031 14.3125H9.31607V14.8562H8.05031V14.3125ZM7.79716 15.9375H8.55661V16.4812H7.79716V15.9375Z" fill="#B20000"/>
<path fill-rule="evenodd" clip-rule="evenodd" d="M5.01249 16.475H5.26564V17.0187H5.01249V16.475ZM8.05031 16.475H8.30346V17.0187H8.05031V16.475ZM3.99988 14.3062H5.26564V14.85H3.99988V14.3062ZM6.27825 15.3875H7.0377V15.9312H6.27825V15.3875ZM6.5314 15.9375H6.78455V16.4812H6.5314V15.9375ZM5.77194 14.3125H7.54401V14.8562H5.77194V14.3125ZM6.78455 6.1687H7.29085V6.71245H6.78455V6.1687ZM6.27825 6.71245H7.0377V7.2562H6.27825V6.71245ZM6.02509 7.2562H6.5314V7.7937H6.02509V7.2562ZM6.78455 7.2562H7.29085V7.7937H6.78455V7.2562ZM3.99988 6.71245H4.50618V7.2562H3.99988V6.71245ZM4.25303 7.2562H4.75933V7.7937H4.25303V7.2562ZM8.80977 6.71245H9.31607V7.24995H8.80977V6.71245ZM8.55661 7.24995H9.06292V7.78745H8.55661V7.24995ZM3.99988 12.125H4.25303V12.6687H3.99988V12.125ZM9.06292 12.125H9.31607V12.6687H9.06292V12.125ZM6.27825 16.4687H7.0377V17.0125H6.27825V16.4687ZM6.02509 17.0125H6.5314V17.55H6.02509V17.0125ZM6.78455 17.0125H7.29085V17.55H6.78455V17.0125ZM5.77194 17.55H6.27825V18.0937H5.77194V17.55ZM7.0377 17.55H7.54401V18.0937H7.0377V17.55ZM5.51879 18.0937H6.02509V18.6375H5.51879V18.0937ZM7.29085 18.0937H7.79716V18.6375H7.29085V18.0937ZM5.26564 18.6437H5.77194V19.1875H5.26564V18.6437ZM7.54401 18.6437H8.05031V19.1875H7.54401V18.6437ZM4.75933 19.1875H5.51879V19.7312H4.75933V19.1875ZM7.79716 19.1875H8.55661V19.7312H7.79716V19.1875ZM8.30346 18.6437H8.80977V19.1875H8.30346V18.6437ZM8.55661 18.1H9.06292V18.6437H8.55661V18.1ZM8.80977 17.5562H9.31607V18.1H8.80977V17.5562ZM4.50618 18.6437H5.01249V19.1875H4.50618V18.6437ZM4.25303 18.1H4.75933V18.6437H4.25303V18.1ZM3.99988 17.5625H4.50618V18.1062H3.99988V17.5625ZM5.01249 19.7375H5.26564V20.275H5.01249V19.7375ZM8.05031 19.7375H8.30346V20.275H8.05031V19.7375ZM6.5314 18.1125H6.78455V18.65H6.5314V18.1125ZM5.77194 19.7375H6.02509V20.275H5.77194V19.7375ZM7.29085 19.7375H7.54401V20.275H7.29085V19.7375ZM6.5314 19.7375H6.78455V20.275H6.5314V19.7375ZM3.99988 19.7375H4.25303V20.275H3.99988L3.99988 19.7375ZM9.06292 19.7375H9.31607V20.275H9.06292V19.7375ZM6.5314 12.1375H6.78455V12.675H6.5314V12.1375ZM5.26564 6.71245H5.51879V7.2562H5.26564V6.71245ZM7.79716 6.71245H8.05031V7.2562H7.79716V6.71245ZM6.27825 10.5062H7.0377V11.05H6.27825V10.5062ZM5.77194 11.05H6.5314V11.5937H5.77194V11.05ZM6.02509 11.5937H6.27825V12.1375H6.02509V11.5937ZM5.51879 10.5062H6.02509V11.05H5.51879V10.5062ZM5.77194 9.9687H6.5314V10.5062H5.77194V9.9687ZM6.02509 9.42495H6.27825V9.9687H6.02509V9.42495ZM6.78455 9.9687H7.54401V10.5062H6.78455V9.9687ZM7.0377 9.42495H7.29085V9.9687H7.0377V9.42495ZM7.29085 10.5062H7.79716V11.05H7.29085V10.5062ZM6.78455 11.05H7.54401V11.5937H6.78455V11.05ZM7.0377 11.5937H7.29085V12.1375H7.0377V11.5937ZM8.05031 10.5062H8.55661V11.05H8.05031V10.5062ZM8.30346 9.9687H9.06292V10.5062H8.30346V9.9687ZM8.80977 10.5062H9.31607V11.05H8.80977V10.5062ZM8.30346 11.05H9.06292V11.5937H8.30346V11.05ZM8.55661 11.5937H8.80977V12.1375H8.55661V11.5937ZM8.55661 9.42495H8.80977V9.9687H8.55661V9.42495ZM3.99988 10.5H4.50618V11.0437H3.99988V10.5ZM4.25303 9.96245H5.01249V10.5H4.25303V9.96245ZM4.75933 10.5H5.26564V11.0437H4.75933V10.5ZM4.25303 11.0437H5.01249V11.5875H4.25303V11.0437Z" fill="#B20000"/>
<path fill-rule="evenodd" clip-rule="evenodd" d="M4.50618 11.5937H4.75933V12.1375H4.50618V11.5937ZM4.50618 9.42499H4.75933V9.96874H4.50618V9.42499ZM4.25303 13.7625H5.26564V14.3062H4.25303V13.7625ZM5.51879 13.7625H6.5314V14.3062H5.51879V13.7625ZM6.78455 13.7625H7.79716V14.3062H6.78455V13.7625ZM8.05031 13.7625H9.06292V14.3062H8.05031V13.7625ZM6.02509 14.85H7.29085V15.3875H6.02509V14.85ZM4.25303 14.85H5.51879V15.3875H4.25303V14.85ZM7.79716 14.85H9.06292V15.3875H7.79716V14.85ZM9.06292 17.0187H9.31607V17.5562H9.06292V17.0187ZM3.99988 17.0187H4.25303V17.5562H3.99988V17.0187ZM4.25303 35.4562H4.50618V34.9187H4.25303V35.4562ZM5.01249 35.4562H5.77194V34.9187H5.01249V35.4562ZM5.26564 36H5.51879V35.4562H5.26564V36ZM6.5314 36H6.78455V35.4562H6.5314V36ZM7.54401 35.4562H8.30346V34.9125H7.54401V35.4562ZM7.79716 36H8.05031V35.4562H7.79716V36ZM4.75933 34.9125H5.26564V34.375H4.75933V34.9125ZM5.51879 34.9125H6.02509V34.375H5.51879V34.9125ZM7.29085 34.9125H7.79716V34.375H7.29085V34.9125ZM8.05031 34.9125H8.55661V34.375H8.05031V34.9125ZM5.77194 34.375H6.27825V33.8312H5.77194V34.375ZM7.0377 34.375H7.54401V33.8312H7.0377V34.375ZM8.30346 34.375H8.80977V33.8312H8.30346V34.375ZM8.80977 35.4562H9.06292V34.9125H8.80977V35.4562ZM4.25303 33.8312H4.75933V33.2875H4.25303V33.8312ZM6.02509 33.8312H6.5314V33.2875H6.02509V33.8312ZM8.55661 33.8312H9.06292V33.2875H8.55661V33.8312ZM4.50618 32.2062H5.01249V31.6625H4.50618V32.2062ZM4.75933 31.6625H5.26564V31.1187H4.75933V31.6625ZM5.77194 32.2062H6.27825V31.6625H5.77194V32.2062ZM5.51879 31.6625H6.02509V31.1187H5.51879V31.6625ZM5.01249 31.1187H5.77194V30.575H5.01249V31.1187ZM5.26564 30.575H5.51879V30.0375H5.26564V30.575ZM7.0377 32.2H7.54401V31.6625H7.0377V32.2ZM7.29085 31.6625H7.79716V31.1187H7.29085V31.6625ZM8.30346 32.2062H8.80977V31.6625H8.30346V32.2062ZM8.05031 31.6625H8.55661V31.1187H8.05031V31.6625ZM7.54401 31.1187H8.30346V30.575H7.54401V31.1187ZM7.79716 30.575H8.05031V30.0375H7.79716V30.575ZM6.5314 31.125H6.78455V30.5812H6.5314V31.125ZM3.99988 31.125H4.25303V30.5812H3.99988V31.125ZM9.06292 31.125H9.31607V30.5812H9.06292V31.125ZM5.26564 28.4125H5.51879V27.8687H5.26564V28.4125ZM5.01249 27.8625H5.77194V27.325H5.01249V27.8625ZM4.75933 27.325H6.02509V26.7812H4.75933V27.325ZM7.79716 28.4062H8.05031V27.8625H7.79716V28.4062Z" fill="#B20000"/>
<path fill-rule="evenodd" clip-rule="evenodd" d="M7.54401 27.8625H8.30346V27.325H7.54401V27.8625ZM7.29085 27.325H8.55661V26.7812H7.29085V27.325ZM7.54401 24.6125H8.80977V24.0625H7.54401V24.6125ZM7.0377 26.7812H8.80977V26.2375H7.0377V26.7812ZM4.50618 26.7812H6.27825V26.2375H4.50618V26.7812ZM4.75933 24.0687H5.51879V23.525H4.75933V24.0687ZM4.50618 24.6125H5.77194V24.0625H4.50618V24.6125ZM8.05031 25.6875H9.31607V25.1437H8.05031V25.6875ZM7.79716 24.0625H8.55661V23.5187H7.79716V24.0625ZM3.99988 25.6875H5.26564V25.1437H3.99988V25.6875ZM6.27825 24.6062H7.0377V24.0625H6.27825V24.6062ZM6.5314 24.0625H6.78455V23.5187H6.5314V24.0625ZM5.77194 25.6875H7.54401V25.1437H5.77194V25.6875ZM6.78455 33.825H7.29085V33.2812H6.78455V33.825ZM6.27825 33.2812H7.0377V32.75H6.27825V33.2812ZM6.02509 32.7375H6.5314V32.1937H6.02509V32.7375ZM6.78455 32.7375H7.29085V32.1937H6.78455V32.7375ZM3.99988 33.2875H4.50618V32.75H3.99988V33.2875ZM4.25303 32.7437H4.75933V32.2062H4.25303V32.7437ZM8.80977 33.2875H9.31607V32.75H8.80977V33.2875ZM8.55661 32.7437H9.06292V32.2062H8.55661V32.7437ZM3.99988 27.875H4.25303V27.3312H3.99988V27.875ZM9.06292 27.875H9.31607V27.3312H9.06292V27.875ZM6.02509 22.9875H6.5314V22.45H6.02509V22.9875ZM6.78455 22.9875H7.29085V22.45H6.78455V22.9875ZM5.77194 22.45H6.27825V21.9062H5.77194V22.45ZM7.0377 22.45H7.54401V21.9062H7.0377V22.45ZM5.51879 21.9062H6.02509V21.3625H5.51879V21.9062ZM7.29085 21.9062H7.79716V21.3625H7.29085V21.9062ZM5.26564 21.3562H5.77194V20.8125H5.26564V21.3562ZM7.54401 21.3562H8.05031V20.8125H7.54401V21.3562ZM4.75933 20.8125H5.51879V20.2687H4.75933V20.8125ZM7.79716 20.8125H8.55661V20.2687H7.79716V20.8125ZM8.30346 21.3562H8.80977V20.8125H8.30346V21.3562ZM8.55661 21.9H9.06292V21.3562H8.55661V21.9ZM8.80977 22.4437H9.31607V21.9H8.80977V22.4437ZM4.50618 21.3562H5.01249V20.8125H4.50618V21.3562ZM4.25303 21.9H4.75933V21.3562H4.25303V21.9ZM3.99988 22.4375H4.50618V21.8937H3.99988V22.4375ZM5.01249 20.2625H5.26564V19.725H5.01249V20.2625ZM6.5314 21.8875H6.78455V21.35H6.5314V21.8875ZM6.5314 27.8562H6.78455V27.3187H6.5314V27.8562ZM5.26564 33.2812H5.51879V32.75H5.26564V33.2812ZM7.79716 33.2812H8.05031V32.75H7.79716V33.2812ZM6.27825 29.5H7.0377V28.9562H6.27825V29.5ZM5.77194 28.9562H6.5314V28.4125H5.77194V28.9562ZM6.02509 28.4125H6.27825V27.8687H6.02509V28.4125ZM5.51879 29.5H6.02509V28.9562H5.51879V29.5ZM5.77194 30.0312H6.5314V29.5H5.77194V30.0312ZM6.02509 30.575H6.27825V30.0375H6.02509V30.575ZM6.78455 30.0312H7.54401V29.5H6.78455V30.0312ZM7.0377 30.575H7.29085V30.0375H7.0377V30.575ZM7.29085 29.4937H7.79716V28.95H7.29085V29.4937ZM6.78455 28.95H7.54401V28.4062H6.78455V28.95ZM7.0377 28.4062H7.29085V27.8625H7.0377V28.4062ZM8.05031 29.5H8.55661V28.9562H8.05031V29.5ZM8.30346 30.0312H9.06292V29.5H8.30346V30.0312ZM8.80977 29.4937H9.31607V28.95H8.80977V29.4937ZM8.30346 28.95H9.06292V28.4062H8.30346V28.95ZM8.55661 28.4062H8.80977V27.8625H8.55661V28.4062ZM8.55661 30.575H8.80977V30.0375H8.55661V30.575ZM3.99988 29.5H4.50618V28.9562H3.99988V29.5ZM4.25303 30.0312H5.01249V29.5H4.25303V30.0312Z" fill="#B20000"/>
<path fill-rule="evenodd" clip-rule="evenodd" d="M4.75933 29.4938H5.26564V28.95H4.75933V29.4938ZM4.25303 28.95H5.01249V28.4063H4.25303V28.95ZM4.50618 28.4063H4.75933V27.8625H4.50618V28.4063ZM4.50618 30.575H4.75933V30.0375H4.50618V30.575ZM4.25303 26.2375H5.26564V25.6938H4.25303V26.2375ZM5.51879 26.2375H6.5314V25.6938H5.51879V26.2375ZM6.78455 26.2375H7.79716V25.6938H6.78455V26.2375ZM8.05031 26.2375H9.06292V25.6938H8.05031V26.2375ZM6.02509 25.15H7.29085V24.6125H6.02509V25.15ZM4.25303 25.15H5.51879V24.6125H4.25303V25.15ZM7.79716 25.15H9.06292V24.6125H7.79716V25.15ZM9.06292 22.9875H9.31607V22.4375H9.06292V22.9875ZM3.99988 22.9875H4.25303V22.4375H3.99988V22.9875ZM6.27825 20.2687H6.5314V20.8125H6.27825V20.2687ZM6.78455 20.2687H7.0377V20.8125H6.78455V20.2687ZM6.78455 19.1875H7.0377V19.7312H6.78455V19.1875ZM6.27825 19.1875H6.5314V19.7312H6.27825V19.1875ZM4.50618 33.8312H5.01249V34.375H4.50618V33.8312ZM8.05031 23.525H8.30346V22.9813H8.05031V23.525ZM5.01249 23.525H5.26564V22.9813H5.01249V23.525ZM6.27825 22.9813H7.0377V23.525H6.27825V22.9813Z" fill="#B20000"/>
</g>
<rect x="2" y="2" width="36" height="36" rx="18" stroke="white" stroke-width="4"/>
<defs>
<clipPath id="clip0_90_36221">
<rect x="4" y="4" width="32" height="32" rx="16" fill="white"/>
</clipPath>
</defs>
</svg>
