<svg width="40" height="40" viewBox="0 0 40 40" fill="none" xmlns="http://www.w3.org/2000/svg">
<g clip-path="url(#clip0_90_36064)">
<path d="M11.5046 4H28.4896V36H11.4996L11.5046 4Z" fill="white"/>
<path d="M3.01526 4H11.5053V36H3.01526V4ZM28.4903 4H36.9803V36H28.4953L28.4903 4ZM14.0503 19.4667L13.3853 19.76L16.4553 23.36C16.6903 24.2733 16.3753 24.5467 16.1753 25.0267L19.5053 24.4667L19.4253 28.9333L20.1203 28.9133L19.9653 24.4733L23.3003 25.0067C23.0953 24.4267 22.9103 24.12 23.1003 23.1933L26.1653 19.7933L25.6303 19.5267C25.1903 19.0733 25.8203 17.3533 25.9103 16.2667C25.9103 16.2667 24.1253 17.0867 24.0103 16.6533L23.5503 15.4867L21.9203 17.8733C21.7453 17.9333 21.6703 17.84 21.6253 17.64L22.3753 12.6533L21.1853 13.5467C21.0853 13.6067 20.9853 13.5533 20.9253 13.4L19.7753 10.3333L18.5953 13.52C18.5053 13.6333 18.4153 13.6467 18.3453 13.5667L17.2003 12.72L17.8853 17.66C17.8303 17.86 17.7003 17.9133 17.5503 17.8067L15.9903 15.4533C15.7903 15.8867 15.6503 16.5933 15.3803 16.7533C15.1103 16.9067 14.2053 16.4533 13.6003 16.2867C13.8103 17.2733 14.4503 18.9267 14.0503 19.4667V19.4667Z" fill="#D52B1E"/>
</g>
<rect x="2" y="2" width="36" height="36" rx="18" stroke="white" stroke-width="4"/>
<defs>
<clipPath id="clip0_90_36064">
<rect x="4" y="4" width="32" height="32" rx="16" fill="white"/>
</clipPath>
</defs>
</svg>
