<svg width="40" height="40" viewBox="0 0 40 40" fill="none" xmlns="http://www.w3.org/2000/svg">
<g clip-path="url(#clip0_90_36050)">
<path d="M4 4H36V36H4V4Z" fill="#008000"/>
<path d="M19.9999 24.4467C21.8418 24.4467 23.3349 22.4558 23.3349 20C23.3349 17.5442 21.8418 15.5533 19.9999 15.5533C18.158 15.5533 16.6649 17.5442 16.6649 20C16.6649 22.4558 18.158 24.4467 19.9999 24.4467Z" fill="#FFE000"/>
<path d="M21.0399 23.66C22.5559 23.66 23.7849 22.0214 23.7849 20C23.7849 17.9787 22.5559 16.34 21.0399 16.34C19.5239 16.34 18.2949 17.9787 18.2949 20C18.2949 22.0214 19.5239 23.66 21.0399 23.66Z" fill="#008000"/>
<path d="M9.48988 20.2066C11.4174 20.2066 12.9799 18.1233 12.9799 15.5533C12.9799 12.9833 11.4174 10.9 9.48988 10.9C7.5624 10.9 5.99988 12.9833 5.99988 15.5533C5.99988 18.1233 7.5624 20.2066 9.48988 20.2066Z" fill="#FFE000"/>
<path d="M9.25 19.0666H10.125C10.125 19.0666 10.16 18.96 10.115 18.9066C10.065 18.8533 9.88 18.84 9.93 18.6533C10.03 18.2666 10.05 18.3866 10.115 17.4666C10.1626 16.6789 10.1959 15.8898 10.215 15.1H10.085C10.085 15.1 10.11 15.5466 10.035 16.1333C9.965 16.72 9.94 16.7666 9.86 17.22C9.82231 17.4751 9.76708 17.725 9.695 17.9666C9.625 18.2333 9.615 18.24 9.505 18.4866C9.39 18.7266 9.43 18.6333 9.37 18.78C9.335 18.8533 9.3 18.8333 9.275 18.8866C9.255 18.94 9.25 19.0666 9.25 19.0666V19.0666Z" fill="#802000"/>
<path fill-rule="evenodd" clip-rule="evenodd" d="M10.0448 15.05H10.2539L10.2527 15.1016C10.2336 15.8922 10.2002 16.6822 10.1526 17.4707L10.1526 17.4713C10.1201 17.9308 10.0986 18.1347 10.0722 18.2724C10.0588 18.342 10.0442 18.3942 10.0271 18.4524C10.0244 18.4616 10.0216 18.4709 10.0188 18.4804C10.0037 18.5313 9.98646 18.5892 9.96567 18.6696L9.96553 18.6701C9.95574 18.7067 9.95899 18.7276 9.96424 18.741C9.97031 18.7565 9.98273 18.7714 10.003 18.786C10.0219 18.7996 10.0435 18.8103 10.0662 18.8215C10.0679 18.8223 10.0696 18.8231 10.0712 18.8239L10.0719 18.8243C10.0934 18.8349 10.1206 18.8483 10.1386 18.8676L10.1394 18.8684L10.1401 18.8693C10.1767 18.9126 10.1779 18.9742 10.1743 19.0129C10.1724 19.0334 10.1688 19.0515 10.1657 19.0643C10.1642 19.0707 10.1627 19.0761 10.1616 19.0799C10.1611 19.0818 10.1606 19.0833 10.1603 19.0845L10.1598 19.0859L10.1597 19.0864L10.1596 19.0866L10.1596 19.0866C10.1596 19.0866 10.1596 19.0867 10.1252 19.0667L10.1596 19.0867L10.1497 19.1167H9.25022V19.0667C9.21277 19.064 9.21277 19.064 9.21277 19.064L9.21277 19.0639L9.21279 19.0635L9.21284 19.0623L9.21305 19.0578C9.21324 19.054 9.21353 19.0486 9.21394 19.0419C9.21475 19.0287 9.21606 19.0103 9.21803 18.9902C9.22173 18.9524 9.22849 18.8995 9.24168 18.8643L9.24247 18.8622L9.24342 18.8602C9.26079 18.8231 9.28329 18.8084 9.29832 18.7986C9.29968 18.7978 9.30097 18.7969 9.3022 18.7961C9.31487 18.7876 9.3257 18.7796 9.33794 18.7545C9.36261 18.6941 9.37066 18.6738 9.37955 18.6542C9.39222 18.6262 9.4066 18.5996 9.47329 18.4604C9.48704 18.4296 9.49915 18.4027 9.50996 18.3786C9.54278 18.3057 9.56356 18.2595 9.58176 18.2116C9.60556 18.1489 9.62488 18.0832 9.65982 17.9501L9.66008 17.9491L9.66037 17.9482C9.7316 17.7094 9.78618 17.4624 9.82342 17.2103L9.82356 17.2094L9.82371 17.2085C9.84625 17.0808 9.86438 16.9855 9.88034 16.9016C9.92134 16.6862 9.94801 16.546 9.99818 16.1255L9.99825 16.1249C10.0354 15.8345 10.0478 15.5787 10.0509 15.3955C10.0524 15.304 10.0516 15.2307 10.0505 15.1805C10.0499 15.1554 10.0492 15.136 10.0487 15.123C10.0484 15.1165 10.0482 15.1116 10.0481 15.1084L10.0479 15.1048L10.0478 15.1039L10.0478 15.1037L10.0448 15.05ZM10.1247 15.15C10.125 15.1582 10.1252 15.1674 10.1254 15.1774C10.1266 15.2293 10.1274 15.3043 10.1258 15.3978C10.1227 15.5846 10.1101 15.8453 10.0722 16.1415C10.0215 16.5664 9.99403 16.7109 9.95275 16.9278C9.93687 17.0113 9.91895 17.1055 9.89688 17.2306C9.8588 17.488 9.80306 17.7403 9.73035 17.9842C9.69545 18.1171 9.67481 18.1879 9.64867 18.2567C9.62916 18.3081 9.60653 18.3584 9.57311 18.4327C9.56241 18.4565 9.55061 18.4827 9.53745 18.5122L9.53714 18.5129L9.53682 18.5136C9.46846 18.6562 9.45486 18.6812 9.44299 18.7075C9.43476 18.7258 9.42736 18.7447 9.40314 18.8039L9.40253 18.8054L9.40185 18.8068C9.37936 18.854 9.35534 18.8725 9.33574 18.8855C9.33495 18.8861 9.33419 18.8866 9.33345 18.8871C9.3185 18.897 9.31339 18.9004 9.308 18.9111C9.30152 18.93 9.29606 18.9657 9.2924 19.0031C9.29195 19.0077 9.29153 19.0123 9.29116 19.0167H10.0978C10.0986 19.0115 10.0994 19.0061 10.0999 19.0005C10.1024 18.9732 10.0989 18.955 10.091 18.9449C10.0839 18.9379 10.0697 18.9299 10.0451 18.9177C10.0433 18.9168 10.0413 18.9158 10.0394 18.9149C10.0177 18.9042 9.9912 18.8911 9.96738 18.874C9.94145 18.8553 9.91387 18.8285 9.89775 18.7873C9.88084 18.7441 9.8797 18.6934 9.89483 18.6368C9.91618 18.5542 9.934 18.4942 9.94914 18.4433C9.95194 18.4339 9.95465 18.4247 9.95727 18.4159C9.97402 18.3591 9.98727 18.3113 9.99952 18.2476C10.0243 18.1187 10.0453 17.9226 10.0779 17.4623C10.1243 16.6927 10.1572 15.9217 10.1765 15.15H10.1247Z" fill="#7B3100"/>
<path d="M9.91506 12.1666C9.92652 12.3744 9.9061 12.5831 9.85506 12.78C9.78578 12.9859 9.74674 13.2077 9.74006 13.4333C9.65006 13.4733 9.55506 13.1733 9.46506 13.3533C9.53006 13.6 9.68506 13.7933 9.78506 14.0133C9.80506 14.08 9.95506 14.26 9.86506 14.3C9.65006 14.2 9.59506 13.8333 9.46506 13.6133C9.38898 13.4236 9.2779 13.2628 9.14231 13.1461C9.00672 13.0295 8.85108 12.9608 8.69006 12.9466C8.56506 12.9533 8.17006 12.9133 8.27006 13.1933C8.42006 13.3266 8.61006 13.42 8.76006 13.5733C8.87506 13.5866 9.07506 13.84 9.06506 13.9333C8.86506 13.8266 8.77506 13.7 8.56506 13.5866C8.27506 13.44 7.88006 13.5266 7.71506 13.9066C7.69006 14.0066 7.64506 14.2933 7.74006 14.3266C7.85006 14.1 8.00506 13.84 8.23506 13.9133C8.41506 13.9333 8.03506 14.36 8.18006 14.2733C8.23006 14.2466 8.33006 14.1533 8.41006 14.14C8.48506 14.14 8.52506 14.2066 8.58006 14.22C8.69506 14.24 8.73006 14.3 8.71506 14.34C8.70506 14.38 8.66506 14.34 8.55006 14.3933C8.49506 14.42 8.46506 14.4866 8.40006 14.52C8.33006 14.5466 8.19006 14.5533 8.14006 14.52C7.95506 14.42 7.65506 14.4333 7.60006 14.74C7.60006 14.8733 7.51006 14.7266 7.47006 14.7866C7.43506 14.9333 7.43006 15.08 7.27006 15.0666C7.17006 15.2 7.07006 15.3466 6.94006 15.4466C7.01506 15.6733 7.30506 15.22 7.29006 15.4133C7.16506 15.6466 7.36006 15.6933 7.44006 15.5133C7.58506 15.3133 7.76506 15.0666 7.97506 15.2733C8.07506 15.4 8.13506 15.2066 8.21006 15.2066C8.26006 15.3733 8.31506 15.22 8.37006 15.1733C8.45506 15.16 8.43006 15.32 8.53006 15.22C8.73506 15.04 8.98506 15.1933 9.18506 15.02C9.40006 14.8866 9.21506 15.12 9.16006 15.2133C9.06506 15.4533 9.14506 15.7733 8.94506 15.92C8.86006 16.2066 9.04006 16.5866 8.86006 16.8C8.83506 16.9333 9.09006 16.92 9.16006 16.9733C9.29006 16.9733 9.16006 16.5866 9.28506 16.5333C9.45506 16.6666 9.44506 16.28 9.41006 16.16C9.43006 15.8933 9.44006 15.5866 9.54006 15.34C9.65006 15.04 9.75006 15.4666 9.63006 15.5866C9.56006 15.86 9.46006 16.2133 9.61506 16.4733C9.66506 16.4866 9.70006 16.6333 9.75506 16.6733C9.81506 16.72 9.89506 16.6666 9.90506 16.5333C9.98506 16.1333 9.94506 15.7066 10.0551 15.3133C10.1301 15.1933 10.2351 15.2933 10.2801 15.4066C10.4301 15.64 10.5351 15.9266 10.7151 16.12C10.8855 16.2129 11.0243 16.3861 11.1051 16.6066C11.1051 16.78 11.4751 16.8066 11.3651 16.6066C11.2601 16.4266 11.3301 16.2333 11.4351 16.1066C11.4951 16.1266 11.4801 15.9866 11.4351 16.04C11.3601 16.02 11.3551 15.84 11.4551 15.9266C11.6301 16 11.4451 15.76 11.3801 15.7533C11.2351 15.6333 11.0701 15.5 11.0001 15.2866C11.1901 15.2866 11.3851 15.4266 11.5751 15.3466C11.7301 15.24 11.8851 15.3466 11.9401 15.5333C12.0601 15.5066 12.0101 15.3466 11.9401 15.2933C12.0251 15.2466 12.0901 15.1466 11.9801 15.06C11.9301 14.9666 12.0551 14.7933 11.8951 14.8066C11.9001 14.64 11.8551 14.4933 11.7201 14.4333C11.5851 14.2866 11.1901 14.66 11.2051 14.32C11.1651 14.1333 11.3651 14.2933 11.4201 14.2C11.4751 14 11.1451 14.0266 11.2551 13.8666C11.3251 13.8133 11.6601 13.7266 11.4001 13.66C11.3413 13.6829 11.2794 13.6883 11.2189 13.6756C11.1584 13.6629 11.1007 13.6325 11.0501 13.5866C10.9551 13.7933 10.6901 13.4666 10.7351 13.84C10.7001 13.98 10.4601 14.3466 10.3951 14.0666C10.4451 13.8466 10.7351 13.78 10.6451 13.48C10.6301 13.3 10.5151 13.5133 10.4651 13.5C10.4351 13.3866 10.5451 13.2466 10.6251 13.22C10.7751 13.38 10.7751 13.02 10.9251 13.0533C11.0301 13.02 10.8901 12.96 10.8601 12.9333C10.8901 12.8333 11.0551 12.78 10.8951 12.6866C10.7501 12.5533 10.6451 12.8266 10.5301 12.84C10.4201 12.6733 10.6301 12.5933 10.6901 12.5066C10.6951 12.44 10.5701 12.4866 10.6051 12.4266C10.6401 12.3533 10.8651 12.3466 10.7551 12.2266C10.5869 12.1582 10.406 12.1724 10.2451 12.2666C10.1451 12.3066 10.1201 12.6 10.0351 12.5866C10.0001 12.4533 10.0501 12.2 9.91506 12.1666V12.1666ZM10.6651 14.9866C10.7851 14.96 10.6651 15.2333 10.6151 15.2266C10.6151 15.1333 10.4351 15.14 10.5501 15.0533C10.5852 15.0224 10.6241 14.9998 10.6651 14.9866V14.9866Z" fill="#008000"/>
<path d="M28.0035 25.5893L28.2238 26.5028L28.8969 26.1629L28.4988 26.9626L29.1179 27.4524L28.4003 27.5358L28.4991 28.4866L28.0035 27.7906L27.5075 28.4862L27.6063 27.5358L26.889 27.452L27.5082 26.9622L27.1097 26.1625L27.7828 26.5024L28.0035 25.5893Z" fill="#FFE000"/>
<path d="M24.0029 17.1438L24.2232 18.0574L24.8963 17.7174L24.4982 18.5171L25.1173 19.0069L24.3997 19.0903L24.4985 20.0411L24.0029 19.3451L23.5069 20.0407L23.6057 19.0903L22.8884 19.0065L23.5076 18.5167L23.1091 17.717L23.7822 18.0569L24.0029 17.1438Z" fill="#FFE000"/>
<path d="M28.0035 11.3653L28.2238 12.2788L28.8969 11.9389L28.4988 12.7386L29.1179 13.2284L28.4003 13.3118L28.4991 14.2626L28.0035 13.5666L27.5075 14.2622L27.6063 13.3118L26.889 13.228L27.5082 12.7382L27.1097 11.9385L27.7828 12.2784L28.0035 11.3653Z" fill="#FFE000"/>
<path d="M31.5595 15.7214L31.7798 16.635L32.4529 16.2951L32.0548 17.0947L32.6739 17.5845L31.9564 17.6679L32.0551 18.6187L31.5595 17.9228L31.0636 18.6183L31.1623 17.6679L30.4451 17.5841L31.0642 17.0943L30.6657 16.2946L31.3388 16.6346L31.5595 15.7214Z" fill="#FFE000"/>
<path d="M29.6036 20.0013L29.7779 20.5707L30.2377 20.6155L29.8852 21.0126L29.9954 21.6095L29.6036 21.2853L29.2118 21.6099L29.3217 21.013L28.9692 20.616L29.4296 20.5711L29.6036 20.0013Z" fill="#FFE000"/>
</g>
<rect x="2" y="2" width="36" height="36" rx="18" stroke="white" stroke-width="4"/>
<defs>
<clipPath id="clip0_90_36050">
<rect x="4" y="4" width="32" height="32" rx="16" fill="white"/>
</clipPath>
</defs>
</svg>
