<svg width="40" height="40" viewBox="0 0 40 40" fill="none" xmlns="http://www.w3.org/2000/svg">
<g clip-path="url(#clip0_90_36034)">
<path d="M4 4H36V36H4V4Z" fill="#003399"/>
<path fill-rule="evenodd" clip-rule="evenodd" d="M20 19.5433C19.5402 19.5433 19.1675 20.0403 19.1675 20.6533C19.1675 21.2664 19.5402 21.7633 20 21.7633C20.4598 21.7633 20.8325 21.2664 20.8325 20.6533C20.8325 20.0403 20.4598 19.5433 20 19.5433ZM17.7925 20.6533C17.7925 19.0278 18.7808 17.71 20 17.71C21.2191 17.71 22.2075 19.0278 22.2075 20.6533C22.2075 22.2789 21.2191 23.5967 20 23.5967C18.7808 23.5967 17.7925 22.2789 17.7925 20.6533Z" fill="#FFCC00"/>
<path fill-rule="evenodd" clip-rule="evenodd" d="M20.0001 15.6834C17.9414 15.6834 16.2726 17.9085 16.2726 20.6534C16.2726 23.3982 17.9414 25.6234 20.0001 25.6234C22.0587 25.6234 23.7276 23.3982 23.7276 20.6534C23.7276 17.9085 22.0587 15.6834 20.0001 15.6834ZM14.8976 20.6534C14.8976 16.896 17.1821 13.85 20.0001 13.85C22.8181 13.85 25.1026 16.896 25.1026 20.6534C25.1026 24.4107 22.8181 27.4567 20.0001 27.4567C17.1821 27.4567 14.8976 24.4107 14.8976 20.6534Z" fill="#FFCC00"/>
<path d="M24.235 15.0067L28.47 20.6533L24.235 26.3L20 20.6533L24.235 15.0067Z" fill="#003399"/>
<path d="M12.785 19.74H15.745V21.5733H12.785V19.74ZM25.74 19.74H30.155V21.5733H25.74V19.74ZM22.15 16.4933L24.09 13.9067L25.06 15.2067L23.125 17.7867L22.15 16.4933ZM19.315 7.24001H20.69V14.38H19.315V7.24001Z" fill="#FFCC00"/>
<path d="M15.2551 15.5533C15.6334 15.5533 15.9401 15.1444 15.9401 14.64C15.9401 14.1356 15.6334 13.7267 15.2551 13.7267C14.8768 13.7267 14.5701 14.1356 14.5701 14.64C14.5701 15.1444 14.8768 15.5533 15.2551 15.5533Z" fill="#FFCC00"/>
<path d="M11.2152 21.5667C11.5935 21.5667 11.9002 21.1578 11.9002 20.6533C11.9002 20.1489 11.5935 19.74 11.2152 19.74C10.8368 19.74 10.5302 20.1489 10.5302 20.6533C10.5302 21.1578 10.8368 21.5667 11.2152 21.5667Z" fill="#FFCC00"/>
<path d="M20.0002 30.34C20.3785 30.34 20.6852 29.9311 20.6852 29.4267C20.6852 28.9223 20.3785 28.5134 20.0002 28.5134C19.6219 28.5134 19.3152 28.9223 19.3152 29.4267C19.3152 29.9311 19.6219 30.34 20.0002 30.34Z" fill="#FFCC00"/>
<path d="M20.0002 33.28C20.3785 33.28 20.6852 32.8711 20.6852 32.3667C20.6852 31.8623 20.3785 31.4533 20.0002 31.4533C19.6219 31.4533 19.3152 31.8623 19.3152 32.3667C19.3152 32.8711 19.6219 33.28 20.0002 33.28Z" fill="#FFCC00"/>
<path d="M24.4152 21.5667C24.7935 21.5667 25.1002 21.1578 25.1002 20.6533C25.1002 20.1489 24.7935 19.74 24.4152 19.74C24.0369 19.74 23.7302 20.1489 23.7302 20.6533C23.7302 21.1578 24.0369 21.5667 24.4152 21.5667Z" fill="#FFCC00"/>
<path d="M14.415 26.7667L15.39 25.4733L16.36 26.7667L15.39 28.0667L14.415 26.7667ZM24.65 28.1667L25.625 26.8667L26.6 28.1667L25.625 29.46L24.65 28.1667Z" fill="#FFCC00"/>
</g>
<rect x="2" y="2" width="36" height="36" rx="18" stroke="white" stroke-width="4"/>
<defs>
<clipPath id="clip0_90_36034">
<rect x="4" y="4" width="32" height="32" rx="16" fill="white"/>
</clipPath>
</defs>
</svg>
