<svg width="40" height="40" viewBox="0 0 40 40" fill="none" xmlns="http://www.w3.org/2000/svg">
<g clip-path="url(#clip0_90_36002)">
<path d="M4 4H36V36H4V4Z" fill="#000066"/>
<path fill-rule="evenodd" clip-rule="evenodd" d="M27.5801 18.2L27.8401 17.0867L27.1401 16.38L28.0201 16.3667L28.3201 15.2667L28.6001 16.3667L29.4851 16.4L28.7801 17.1L29.0301 18.2133L28.3051 17.5467M29.6601 18.4133L30.1801 17.4867L29.6951 16.5L30.5301 16.8867L31.0801 15.9867V17.16L31.9001 17.5867L31.0601 17.92L31.0201 19.0867L30.5101 18.1267M25.5901 19.1267L25.5551 17.96L24.7151 17.6133L25.5501 17.2V16.04L26.0951 16.94L26.9351 16.5667L26.4451 17.5467L26.9601 18.48L26.1101 18.18M24.1301 20.9067L23.7601 19.8533L22.8901 19.9733L23.5301 19.1533L23.2001 18.0667L23.9601 18.6133L24.6251 17.8267L24.4551 18.9867L25.2001 19.58L24.3351 19.7467M23.4501 23.4533L22.7851 22.7133L22.0351 23.3267L22.3551 22.2133L21.7101 21.44L22.5751 21.4867L22.9251 20.3933L23.1401 21.54L24.0001 21.64L23.2701 22.2933M23.4301 26.32L22.6051 26L22.1001 26.9667L22.0651 25.7733L21.2451 25.4067L22.0501 24.9933V23.7933L22.5851 24.7333L23.4051 24.36L22.9251 25.36M24.4001 28.7467L23.5501 28.9067L23.3751 30.0667L22.9851 29L22.1301 29.1067L22.7401 28.2867L22.3851 27.1933L23.1501 27.76L23.7901 26.9733L23.6501 28.1333M25.9001 30.6667L25.1451 31.2133L25.2751 32.3867L24.6401 31.56L23.8601 32.0667L24.2251 31.0067L23.6101 30.1467L24.4751 30.32L24.8751 29.2867L25.0451 30.4467M27.7351 31.0467L27.3201 32.0667L27.9051 32.9467L27.0351 32.7267L26.5901 33.7267L26.4701 32.5733L25.6101 32.3067L26.4001 31.8133L26.3151 30.6467L26.9251 31.5M29.7951 30.6267L29.7701 31.7867L30.5851 32.2133L29.7351 32.5467L29.6751 33.7133L29.1751 32.76L28.3251 33.0533L28.8651 32.1267L28.3951 31.1467L29.2251 31.5267M31.9501 17.9867L32.5501 18.8267L33.3451 18.3333L32.9301 19.3867L33.5051 20.26L32.6551 20.0733L32.2051 21.1067L32.1001 19.9333L31.2501 19.7L32.0351 19.1667M33.7451 20.5667L34.0201 21.6733L34.8951 21.6933L34.1851 22.4067L34.4201 23.5267L33.7151 22.86L32.9851 23.5333L33.2551 22.4133L32.5651 21.7067L33.4451 21.68M34.4201 23.8933L34.3201 25.0533L35.1051 25.5667L34.2401 25.8067L34.1051 26.96L33.6701 25.9533L32.8001 26.1467L33.4001 25.28L32.9951 24.2467L33.7951 24.7267M33.9451 27.38L33.5551 28.42L34.1501 29.2667L33.2801 29.0867L32.8601 30.1067L32.7101 28.9533L31.8401 28.7333L32.6201 28.2L32.5051 27.04L33.1351 27.86M32.6451 30.4667L31.9101 31.08L32.1001 32.2333L31.4251 31.4667L30.6751 32.04L30.9901 30.9533L30.3351 30.1467L31.2051 30.2467L31.5551 29.18L31.7751 30.3267" fill="white"/>
<path d="M4 4H20V20H4V4Z" fill="#000066"/>
<path d="M5.875 4L11.975 10.0333L18.05 4H20V6.06667L14 12.0333L20 17.9667V20H18L12 14.0333L6.025 20H4V18L9.975 12.0667L4 6.13333V4H5.875Z" fill="white"/>
<path d="M14.6 13.3667L20 18.6667V20L13.225 13.3667H14.6ZM10 14.0333L10.15 15.2L5.35 20H4L10 14.0333ZM20 4V4.1L13.775 10.3667L13.825 8.9L18.75 4H20ZM4 4L9.975 9.86667H8.475L4 5.4V4Z" fill="#C8102E"/>
<path d="M10.025 4V20H14.025V4H10.025ZM4 9.33333V14.6667H20V9.33333H4Z" fill="white"/>
<path d="M4 10.4333V13.6333H20V10.4333H4ZM10.825 4V20H13.225V4H10.825Z" fill="#C8102E"/>
</g>
<rect x="2" y="2" width="36" height="36" rx="18" stroke="white" stroke-width="4"/>
<defs>
<clipPath id="clip0_90_36002">
<rect x="4" y="4" width="32" height="32" rx="16" fill="white"/>
</clipPath>
</defs>
</svg>
