<svg width="40" height="40" viewBox="0 0 40 40" fill="none" xmlns="http://www.w3.org/2000/svg">
<g clip-path="url(#clip0_90_35955)">
<path fill-rule="evenodd" clip-rule="evenodd" d="M3.98517 18.6014H43.766V31.5107H3.98047L3.98517 18.6014Z" fill="white"/>
<path fill-rule="evenodd" clip-rule="evenodd" d="M4.01367 4.00006H43.7757V20.0803H4.01367V4.00006ZM4.02777 28.1831H44.0765V36.0854H4.02777V28.1831Z" fill="#081873"/>
<path fill-rule="evenodd" clip-rule="evenodd" d="M4.02734 22.963H43.7893V25.4446H4.02734V22.963Z" fill="#DE3929"/>
<path fill-rule="evenodd" clip-rule="evenodd" d="M15.942 29.0166L16.2522 30.295H17.258L16.4402 31.0909L16.7504 32.3755L15.942 31.5734L15.1242 32.3693L15.4391 31.0846L14.6213 30.2887H15.6318M24.684 19.6918L24.9989 20.9765H26L25.1822 21.7661L25.4924 23.0507L24.6746 22.2549L23.8568 23.0507L24.167 21.7661L23.3492 20.9765H24.3644M13.9304 25.0122L14.2406 26.2969H15.2511L14.438 27.099L14.7529 28.3774L13.9351 27.5878L13.1173 28.3774L13.4275 27.099L12.6097 26.3031H13.6202M24.684 24.6487L24.9989 25.9271H26L25.1822 26.723L25.4924 28.0014L24.6746 27.2118L23.8568 28.0077L24.167 26.723L23.3492 25.9271H24.3644M22.4609 15.7939L22.7758 17.0723H23.791L22.9732 17.8682L23.2834 19.1529L22.4656 18.357L21.6478 19.1529L21.9627 17.8682L21.1402 17.0723H22.1554M19.1239 14.2398L19.4388 15.5245H20.4493L19.6315 16.3141L19.9417 17.5987L19.1239 16.8091L18.3061 17.5987L18.621 16.3141L17.8032 15.5245H18.809M15.7775 15.7062L16.0924 16.9909H17.1029L16.2851 17.7805L16.6 19.0651L15.7775 18.2693L14.9597 19.0651L15.2746 17.7805L14.4568 16.9909H15.472M13.8364 19.6981L14.1466 20.9827H15.1618L14.3393 21.7723L14.6542 23.057L13.8364 22.2611L13.0186 23.057L13.3288 21.7723L12.511 20.9827H13.5215M19.1239 30.3451L19.4388 31.6298H20.4493L19.6315 32.4194L19.9464 33.7041L19.1239 32.9082L18.3061 33.7041L18.621 32.4194L17.8032 31.6298H18.809M22.6724 29.0166L22.9826 30.295H23.9931L23.18 31.0909L23.4949 32.3755L22.6771 31.5797L21.8546 32.3755L22.1695 31.0909L21.3517 30.295H22.3622" fill="#FFCE08"/>
</g>
<rect x="2" y="2" width="36" height="36" rx="18" stroke="white" stroke-width="4"/>
<defs>
<clipPath id="clip0_90_35955">
<rect x="4" y="4" width="32" height="32" rx="16" fill="white"/>
</clipPath>
</defs>
</svg>
