<svg width="40" height="40" viewBox="0 0 40 40" fill="none" xmlns="http://www.w3.org/2000/svg">
<g clip-path="url(#clip0_90_35939)">
<path d="M4 4H36V36H4V4Z" fill="#0021AD"/>
<path d="M4 4H36V36L4 4Z" fill="#1C8A42"/>
<path d="M20 23.8533C21.5961 23.8533 22.89 22.1281 22.89 20C22.89 17.8719 21.5961 16.1467 20 16.1467C18.4039 16.1467 17.11 17.8719 17.11 20C17.11 22.1281 18.4039 23.8533 20 23.8533Z" fill="#FFC639"/>
<path d="M18.2343 18.2667C18.4343 18.6333 18.7343 19.24 18.9743 19.08C19.1593 19.08 19.2593 19.1 19.2843 19.2667C19.5974 19.308 19.9133 19.2421 20.202 19.0753C20.4907 18.9085 20.7428 18.6462 20.9343 18.3133C20.9343 18.3133 20.9743 18.3133 20.9593 18.0133C20.9593 17.88 21.0993 17.9067 21.0993 17.9467C21.1193 18.0133 21.1193 18.06 21.1443 18.0667C21.1943 18.04 21.2793 17.8667 21.3443 17.76C21.3593 17.7133 21.3493 17.66 21.3543 17.6C21.3893 17.4867 21.4743 17.5133 21.4943 17.5733L21.5243 17.68C21.6143 17.76 21.7743 17.68 21.7843 17.68C21.7993 17.5867 21.8443 17.6 21.8443 17.6C21.9043 17.58 21.8793 17.5867 21.9193 17.6133C21.8843 18.1267 21.9943 18.1467 21.9843 18.4133C21.9893 18.7067 21.9193 18.7867 21.9193 18.9C21.9393 19.0333 22.2693 19.04 22.1493 19.16C22.0493 19.2267 22.1493 19.36 21.9993 19.4133C21.5593 19.7133 21.4793 19.9667 21.4793 19.9667C21.4793 19.9667 21.3693 20.2467 21.3543 20.2467C21.2793 20.4333 21.1893 20.3267 21.1343 20.42C21.1093 20.5333 21.0843 20.7867 21.1343 20.9133C21.1593 21.0933 21.1343 21.1933 21.0993 21.3733C21.0693 21.7467 20.9593 21.8067 20.9443 21.9333C20.8943 22.08 20.9543 22.7333 20.9043 22.7333C20.5793 22.7467 20.3293 22.6533 20.1993 22.62C20.3243 21.8933 20.2743 21.26 20.2743 21.1933C20.2443 20.6733 19.6943 20.8 19.6093 20.7267C19.5393 20.7133 19.4943 20.64 19.4743 20.6067C19.3943 20.5933 19.3643 20.5667 19.2893 20.56C19.2493 20.5867 19.2743 20.6133 19.1893 20.6467C18.9643 20.68 18.8693 20.3933 18.8693 20.3933C18.8793 20.2933 18.3743 20.4133 18.1043 20.3267C17.9893 20.4133 17.9393 20.66 17.8493 20.6867C17.8493 20.76 17.6993 20.62 17.6693 20.5533C17.6593 20.3267 17.8093 20.2333 17.8093 20.2333C17.9293 20.12 17.9993 20.1 18.0593 20.0267C18.0843 19.8333 18.0693 19.6933 18.1343 19.5533C18.1843 19.44 18.2593 19.4867 18.3093 19.4467C18.3643 19.3933 18.3893 19.0733 18.3393 18.98L18.1043 18.7C18.0343 18.4267 18.1893 18.2467 18.2343 18.2667V18.2667Z" fill="#1C8A42"/>
<path d="M32.0951 13.4934C31.9651 12.8067 30.7951 11.3134 29.9101 10.3667C29.7001 10.18 29.5601 10.2934 29.5901 10.5667C29.7001 10.8067 29.7801 11.0734 29.8901 11.32C29.9201 11.4867 29.9801 11.6 30.0101 11.76C30.0101 11.76 30.0201 12.04 30.0401 12.0667C30.3101 12.4667 30.3501 12.8067 30.3501 12.8067C30.4879 13.201 30.6834 13.5545 30.9251 13.8467C31.2351 14.1067 31.0051 14.9134 31.0151 15.3467C31.0151 15.6134 30.8701 15.5867 30.7401 15.5467C29.7351 14.3134 28.7351 14.3134 27.8501 13.9534C27.5101 13.9067 27.5001 14.1267 27.6151 14.2467C28.1661 15.0651 28.8298 15.735 29.5701 16.22L29.9551 16.54L30.3951 17.0267C30.7351 17.32 30.7601 17.5867 30.7601 17.6134C30.7701 18.16 30.5501 18.5867 30.4851 18.76C30.3701 19.34 30.1351 19.44 30.1351 19.44C28.2551 21.1334 27.2651 21.5734 24.2151 21.0467C24.1651 21.02 23.8751 21.08 24.2151 21.2467C24.9901 21.5934 26.9001 22.1467 28.7451 20.98C29.1951 20.5667 29.4851 20.7 29.8101 20.4467C30.267 20.0695 30.7394 19.7267 31.2251 19.42C31.6401 19.12 32.7901 18.7934 33.0551 18.5C33.3601 18.4667 33.6751 18.4134 33.6951 18.0667C33.7951 17.98 33.9451 18.0467 34.0551 17.76C34.2951 17.7 34.2551 17.5867 34.2551 17.5867C34.1951 17.36 33.9651 17.2667 33.8051 17.1C33.5651 16.9934 33.4051 16.9667 33.2301 17.0734L33.0651 17.1734C33.0651 17.1734 32.8101 17.1267 32.8101 17.1C32.2401 17.06 32.2951 14.5467 32.0951 13.5V13.4934Z" fill="#FFC639"/>
<path d="M33.4294 17.6134C33.4254 17.6284 33.4179 17.6418 33.4075 17.6529C33.397 17.6639 33.3837 17.6724 33.3683 17.6777C33.3529 17.6831 33.3358 17.6853 33.3179 17.6842C33.3 17.683 33.2816 17.6786 33.2639 17.6712C33.2462 17.6638 33.2294 17.6534 33.2146 17.6408C33.1997 17.6282 33.1871 17.6135 33.1774 17.5976C33.1677 17.5817 33.1611 17.5649 33.158 17.5482C33.1549 17.5314 33.1554 17.5151 33.1594 17.5C33.1675 17.4697 33.1895 17.4465 33.2205 17.4357C33.2516 17.4248 33.2891 17.4272 33.3249 17.4422C33.3607 17.4572 33.3919 17.4837 33.4115 17.5158C33.431 17.5479 33.4375 17.583 33.4294 17.6134V17.6134Z" fill="#1C8A42"/>
<path d="M10.0222 17.4827L9.61264 16.9707L9.19984 17.4742L9.24464 16.7318L8.69104 16.6123L9.15504 16.1942L8.87984 15.5456L9.41424 15.7718L9.62224 15.0806L9.82384 15.776L10.3582 15.5627L10.0766 16.2027L10.5374 16.6294L9.98384 16.736L10.0222 17.4784V17.4827Z" fill="white"/>
<path d="M11.4689 23.6481L11.0273 23.2598L10.5985 23.6694L10.7521 23.0081L10.3169 22.6028L10.8481 22.5857L11.0081 21.9244L11.1873 22.5772L11.7217 22.5729L11.2961 22.9868L11.4657 23.6438L11.4689 23.6481Z" fill="white"/>
</g>
<rect x="2" y="2" width="36" height="36" rx="18" stroke="white" stroke-width="4"/>
<defs>
<clipPath id="clip0_90_35939">
<rect x="4" y="4" width="32" height="32" rx="16" fill="white"/>
</clipPath>
</defs>
</svg>
