<svg width="40" height="40" viewBox="0 0 40 40" fill="none" xmlns="http://www.w3.org/2000/svg">
<g clip-path="url(#clip0_90_35935)">
<path d="M4 4H36V36H4V4Z" fill="white"/>
<path d="M19.3904 30.5733C19.3865 30.5697 19.3831 30.5652 19.3804 30.56H19.3754L19.3104 30.4666L19.1204 30.1666L18.8754 29.7466L18.8454 29.6866L18.5354 29.56L18.3054 29.42L18.4254 29.24L18.8454 29.4733L19.1554 29.56L19.7304 30.1266L19.5654 30.32C19.5066 30.3929 19.4515 30.4709 19.4004 30.5533L19.4354 30.52L19.4754 30.56L19.3954 30.5733H19.3904ZM17.2604 29.72C16.9784 29.7166 16.7023 29.6131 16.4604 29.42C16.4604 29.42 16.4954 29.3333 16.5754 29.26C16.6554 29.18 16.7954 29.0933 17.0254 29.0866C17.2954 29.0866 17.6254 29.2133 18.0004 29.4466C17.7763 29.623 17.5206 29.7152 17.2604 29.7133V29.72ZM16.0854 29.3733C16.0354 29.3733 15.9854 29.3466 15.9554 29.3066C15.927 29.2605 15.9081 29.2054 15.9004 29.1466C15.8871 29.0725 15.882 28.9961 15.8854 28.92C15.9062 28.9101 15.9283 28.9056 15.9504 28.9066C16.0504 28.9066 16.1304 29.02 16.1654 29.1333C16.1854 29.2 16.1904 29.2533 16.1754 29.3C16.1654 29.34 16.1254 29.3666 16.0854 29.3666V29.3733ZM18.1504 29.0533C17.4554 28.92 17.1604 28.5866 17.0354 28.3266C16.9054 28.0533 16.9354 27.7933 16.9354 27.7933C16.9354 27.7933 16.9754 27.78 17.0354 27.78C17.2254 27.78 17.6954 27.9066 18.1504 29.0466V29.0533ZM16.7254 28.8666C16.4304 28.8666 16.2054 28.8 16.0554 28.6666C15.9913 28.6129 15.9394 28.5368 15.9054 28.4466C15.8946 28.4127 15.8879 28.3767 15.8854 28.34C15.9994 28.2766 16.1219 28.2449 16.2454 28.2466C16.4238 28.2552 16.5992 28.3108 16.7615 28.4104C16.9237 28.51 17.0694 28.6514 17.1904 28.8266C17.0204 28.8533 16.8654 28.8666 16.7254 28.8666V28.8666ZM15.2904 28.8C14.9804 28.8 14.5504 28.6666 14.2804 28.3133C14.2804 28.3133 14.5754 28.2133 14.9004 28.2H14.9604C15.2554 28.2 15.4804 28.2733 15.6304 28.4266C15.6804 28.48 15.7104 28.5266 15.7154 28.5733C15.7204 28.6133 15.7054 28.6533 15.6754 28.6866C15.6054 28.7533 15.4854 28.7933 15.3154 28.7933H15.2904V28.8ZM14.2754 28.1C14.256 28.0995 14.237 28.0932 14.2197 28.0817C14.2024 28.0702 14.1873 28.0536 14.1754 28.0333C14.1545 27.9936 14.1408 27.9479 14.1354 27.9C14.1204 27.8066 14.1254 27.7133 14.1254 27.7066C14.1411 27.6975 14.1582 27.6929 14.1754 27.6933C14.2204 27.6933 14.2554 27.7266 14.2754 27.76C14.3058 27.797 14.3297 27.8425 14.3454 27.8933C14.3554 27.9533 14.3604 28 14.3454 28.04C14.3454 28.0666 14.3154 28.1066 14.2804 28.1066L14.2754 28.1ZM16.6204 28.0333C16.5704 28.0333 16.5204 28.0066 16.4904 27.9666C16.462 27.9205 16.4431 27.8654 16.4354 27.8066C16.4221 27.7325 16.417 27.6561 16.4204 27.58C16.4412 27.5701 16.4633 27.5656 16.4854 27.5666C16.5854 27.5666 16.6704 27.68 16.7004 27.7933C16.7204 27.86 16.7254 27.9133 16.7154 27.96C16.7004 28 16.6654 28.0266 16.6154 28.0266L16.6204 28.0333ZM15.4804 27.9666C14.8504 27.94 14.5204 27.7 14.3604 27.5C14.2906 27.4196 14.233 27.3223 14.1904 27.2133C14.1654 27.1466 14.1554 27.0933 14.1554 27.08C14.1554 27.0666 14.2154 27.0533 14.3054 27.0533H14.3254C14.5354 27.0533 14.9704 27.1733 15.4754 27.9666H15.4804ZM16.1604 27.8866C15.8005 27.8345 15.4659 27.615 15.2154 27.2666C15.1231 27.1321 15.0533 26.9731 15.0104 26.8C15.0104 26.8 15.0704 26.78 15.1604 26.7733C15.177 26.7725 15.1937 26.7725 15.2104 26.7733C15.4604 26.78 15.9254 26.9333 16.1604 27.8866ZM13.5604 27.5533C13.4006 27.5552 13.2413 27.5329 13.0854 27.4866C12.8204 27.3933 12.7054 27.26 12.6554 27.16C12.6349 27.1199 12.6213 27.0744 12.6154 27.0266C12.6138 27.0089 12.6138 26.991 12.6154 26.9733C12.6154 26.9733 12.7904 26.9066 13.0354 26.9C13.1594 26.8958 13.2834 26.9092 13.4054 26.94C13.6604 27.0116 13.8876 27.2033 14.0454 27.48C14.0454 27.48 13.8454 27.56 13.5604 27.56V27.5533ZM14.7354 26.9933C14.7122 26.9941 14.6892 26.9886 14.6677 26.9772C14.6462 26.9657 14.6267 26.9485 14.6104 26.9266C14.582 26.8805 14.5631 26.8254 14.5554 26.7666C14.5354 26.66 14.5404 26.5533 14.5404 26.54C14.5593 26.5286 14.5796 26.5218 14.6004 26.52H14.6054C14.7054 26.52 14.7854 26.64 14.8204 26.7533C14.8404 26.82 14.8404 26.8733 14.8304 26.9133C14.8154 26.96 14.7804 26.9866 14.7354 26.9866V26.9933ZM13.8554 26.8266C13.6866 26.7628 13.5251 26.6686 13.3754 26.5466C13.1554 26.3666 12.8804 26.0466 12.8504 25.5466L12.9004 25.54H12.9154C12.9804 25.54 13.1154 25.56 13.2804 25.7266C13.4904 25.94 13.6804 26.3133 13.8554 26.8266V26.8266ZM14.4304 26.8C14.2925 26.7163 14.1645 26.6062 14.0504 26.4733C13.7577 26.1365 13.5297 25.7114 13.3854 25.2333C13.3854 25.2333 13.4304 25.2 13.5004 25.1933C13.5037 25.1932 13.507 25.1932 13.5104 25.1933H13.5304C13.6304 25.1933 13.7754 25.2533 13.9354 25.4866C14.1254 25.7533 14.2904 26.1933 14.4354 26.8H14.4304ZM12.9354 26.74C12.7404 26.74 12.6754 26.6066 12.6554 26.54C12.636 26.4767 12.6291 26.4078 12.6354 26.34C12.6682 26.3303 12.7018 26.3258 12.7354 26.3266C12.7975 26.324 12.8592 26.3407 12.9156 26.3755C12.972 26.4102 13.0216 26.4619 13.0604 26.5266C13.0704 26.5533 13.1004 26.62 13.0754 26.68C13.0554 26.72 13.0104 26.7466 12.9354 26.7466V26.74ZM12.5104 26.02C12.3596 26.0221 12.209 26.0065 12.0604 25.9733C11.8904 25.9333 11.7954 25.74 11.7404 25.58C11.6904 25.4133 11.6704 25.2466 11.6704 25.2466C12.2004 25.2666 12.4554 25.4733 12.5704 25.6466C12.643 25.7463 12.6887 25.8753 12.7004 26.0133C12.7004 26.0133 12.6204 26.0266 12.5104 26.0266V26.02ZM13.0604 25.2866C13.0176 25.2137 12.9776 25.1381 12.9404 25.06C12.8754 24.9266 12.8204 24.7933 12.8204 24.6866C12.8204 24.5733 12.8004 24.3533 12.7904 24.22L12.7604 23.92C12.7754 23.92 13.0904 24.08 13.0904 24.48C13.0904 24.88 13.0604 25.28 13.0604 25.28V25.2866ZM12.6504 25.2466H12.6404C12.2974 25.1097 11.9849 24.8624 11.7304 24.5266C11.6454 24.3933 11.5904 24.18 11.5754 23.9C11.5654 23.7 11.5754 23.5333 11.5754 23.5133C11.5933 23.507 11.6119 23.5047 11.6304 23.5066C11.7004 23.5066 11.7804 23.5466 11.8804 23.64C11.9732 23.7276 12.0602 23.8258 12.1404 23.9333C12.3004 24.1466 12.4254 24.36 12.4254 24.36C12.4404 24.3866 12.5254 24.6066 12.6004 24.82C12.6355 24.9179 12.6623 25.0208 12.6804 25.1266C12.6854 25.1666 12.6904 25.1933 12.6804 25.22C12.678 25.231 12.6727 25.2405 12.6654 25.2466C12.6588 25.2486 12.6519 25.2486 12.6454 25.2466H12.6504Z" fill="#435125"/>
<path d="M29.9499 9.09332L29.8599 9.13999L29.8199 9.15999L29.7099 9.15332L29.5999 9.21999L29.4099 9.39332L29.4049 9.39999L29.3299 9.42666L29.2649 9.38666L29.2299 9.41332L29.2149 9.51332L29.1799 9.58666L29.1349 9.62666L28.9849 9.64666L28.8599 9.73999L28.6899 9.67332L28.6149 9.71999L28.4499 9.91999L28.3649 9.96666H28.3399L28.2249 9.95999L28.1799 9.97999L28.1099 10.0667L27.9799 10.08L27.9349 10.12L27.8699 10.2933L27.7999 10.4L27.7599 10.4067L27.7199 10.3867L27.6849 10.3933L27.6699 10.5067L27.6399 10.5533L27.5499 10.5933L27.4799 10.6733L27.4149 10.7133H27.3149L27.2299 10.78L27.0749 10.7933L27.0099 10.8733L26.9949 10.8933L26.9649 10.9133L26.9149 10.9533L26.9049 10.9667L26.8449 10.9533L26.7749 10.9867L26.7449 10.9333L26.6949 10.9667L26.6349 10.9733L26.5549 10.9267L26.4899 10.8867L26.4449 10.9L26.4299 11V11.0133L26.3799 11.0933L26.2949 11.1667L26.2849 11.1867L26.1849 11.36L25.9949 11.6267L25.8349 11.7333L25.6699 11.8L25.5549 11.9267L25.2549 12.1267L24.7699 12.4467L24.6699 12.4867L24.5299 12.5133L24.2799 12.64L24.0599 12.7267L24.0449 12.7333L24.0049 12.7533L23.6899 12.88L23.5449 12.8533L23.4599 12.9L23.2349 12.8667H23.0799L22.9799 12.8933L22.7949 13.0133L22.4799 13.2133L22.3799 13.3467L22.2199 13.4533L22.0299 13.5333V13.4267L21.9649 13.4533L21.9149 13.4733L21.7649 13.5H21.6799L21.6249 13.48H21.6149L21.3049 13.62L20.9549 13.6667L20.7799 13.74H20.6499L20.5699 13.7733L20.4099 13.8L20.3499 13.78L20.3399 13.7733L19.8699 13.8L19.6549 13.7667L19.5549 13.8L19.3799 13.72L19.1299 13.68L19.0699 13.66L18.9399 13.6067L18.8799 13.6533L18.8299 13.66L18.7299 13.6067H18.6899L18.5999 13.6467L18.5499 13.6333L18.4999 13.58L18.3949 13.56L18.3249 13.4867L17.9499 13.5533L17.8499 13.5133L17.5049 13.38H17.4549L17.3849 13.4467L17.2849 13.5L17.1899 13.5267L17.0699 13.5333L16.9299 13.4867L16.7899 13.3933L16.7349 13.3733L16.6149 13.3933H16.5799L16.3599 13.24L16.0799 13.0067L15.8899 12.88L15.8149 12.8667L15.8049 12.9133L15.8399 13.06L15.8549 13.2133V13.3467L15.8499 13.4333L15.8649 13.5067L15.9349 13.6133L15.9649 13.7133L15.9849 13.9933V14.28L15.9499 14.7333L15.9399 14.8L15.8999 15.04L15.8649 15.26L15.7199 15.84L15.6849 15.9067L15.5849 15.9933L15.3699 16.1933L15.2099 16.3133L15.1599 16.34L15.0299 16.3533H14.9499L14.8499 16.28L14.7499 16.2467L14.6199 16.12L14.4799 16.08L14.3199 15.96L14.2799 15.8933L14.1949 15.88L14.0749 15.8333L14.0299 15.8133L13.9999 15.8067L13.8499 15.8L13.7049 15.7133L13.6299 15.6867H13.5299L13.4249 15.7533L13.3699 15.78L13.2999 15.7467H13.2499L13.1999 15.86L13.1899 15.88L13.1499 15.9067H13.0649L13.0249 15.9267L12.9699 15.96L12.9199 15.9867L12.8949 16H12.8799L12.8549 16.0133H12.8249L12.7649 15.9733L12.7349 15.9533L12.6849 15.94L12.6599 15.96L12.6549 16.0867L12.6299 16.16L12.5499 16.2533L12.4699 16.3467L12.4199 16.4533L12.2699 16.9L12.1749 17.08L12.1499 17.1267L12.0499 17.2667L11.9649 17.3533L11.7699 17.5533L11.5849 17.6533L11.4249 17.6933H11.3449L11.1949 17.6667L11.0649 17.6133L10.9149 17.4933L10.7599 17.32L10.5249 17.02L10.4949 16.9933L10.4849 16.9867L10.4149 16.92H10.3599L10.3399 16.9733L10.3249 17.04L10.3149 17.1L10.2899 17.4333V17.4533L10.3049 17.5933L10.4849 17.9267L10.5349 18.1L10.5449 18.12L10.5799 18.2L10.6099 18.2667L10.6749 18.5067L10.6299 18.64L10.6499 18.7333L10.5999 18.7867L10.5899 18.8667L10.7449 19.1333L10.7799 19.2467L10.7449 19.4067L10.6799 19.5L10.6649 19.52L10.6749 19.5867L10.7449 19.68L10.8699 19.8267L10.9349 20.04L10.9849 20.1067L11.0449 20.0867L11.0749 20.12H11.1249L11.1749 20.1867L11.2049 20.2L11.2549 20.2333L11.2949 20.3L11.2999 20.5133L11.3749 20.7667V20.9333L11.4249 21.0333L11.4349 21.1133L11.4099 21.3333L11.4699 21.4L11.5299 21.3867L11.5699 21.3933L11.6349 21.4667L11.7149 21.6267L11.7949 21.6133L11.8449 21.64L12.0799 21.9267L12.1299 21.9667L12.1749 21.9933L12.2249 22.06L12.2949 21.9933H12.3049L12.3849 21.98L12.4199 22.0133L12.4899 22.0733H12.5749L12.7749 22.1533L12.8549 22.18L13.0249 22.32L13.0999 22.38L13.1399 22.4267L13.1999 22.4933L13.3099 22.56L13.4099 22.5867L13.4599 22.6L13.5049 22.62L13.7149 22.7333L13.8299 22.7667L13.9299 22.82L14.0099 22.8533H14.0699L14.1499 22.7667H14.2249L14.2899 22.78L14.3549 22.7667L14.4549 22.6867L14.4699 22.6467L14.5399 22.6067L14.7799 22.5667L14.8499 22.5933L15.0299 22.4933L15.1499 22.5333L15.2499 22.4867L15.4849 22.5533L15.5449 22.6133L15.6149 22.7133H15.6999L15.6649 22.7867L15.7649 22.9333L15.8599 23.1133L15.8649 23.14L15.9299 23.4L15.9799 23.4933L16.0149 23.62V23.7L15.9649 23.76L15.9549 23.7867V23.8L15.9649 23.8333L15.9849 23.82L16.0199 23.7933L16.0699 23.78L16.1499 23.7933L16.2049 23.8L16.2899 23.7467L16.3499 23.7067L16.4399 23.76H16.5399L16.5849 23.78L16.7049 23.8533L16.7649 23.86L16.7849 23.84L16.7999 23.8L16.7949 23.7467L16.7449 23.6733L16.6449 23.5133L16.6049 23.4333L16.5749 23.32L16.5649 23.1733L16.5549 23.0733L16.5699 22.94L16.5949 22.8933L16.6149 22.7867L16.6199 22.76L16.6799 22.66L16.8299 22.5267L16.9899 22.34L17.1149 22.2267L17.2449 22.1533V22.1333L17.2649 22.14L17.5949 21.9867L17.7449 21.9533L18.7449 22.0467L18.7799 22.0333L18.8149 21.9067L18.8299 21.8867L18.8449 21.8733L18.9549 21.8067L19.0049 21.7933L19.1449 21.84L19.2049 21.86L19.2999 21.7933H19.3649L19.4999 21.6933H19.5849L19.6199 21.68L19.7849 21.52L19.9399 21.46L19.9799 21.4333L19.9949 21.42L20.1599 21.3067L20.2599 21.2L20.3499 21.1333L20.4499 21.1067L20.6999 21.08L20.7549 20.9667L20.8649 20.9467L20.9299 20.8467L21.0049 20.8067L21.0599 20.7L21.1099 20.6133L21.1699 20.5667L21.3749 20.5467L21.6149 20.5867L21.6499 20.56L21.6999 20.3L21.7599 20.2533L21.9099 19.9533V19.8467L21.9149 19.7533L21.9399 19.62L21.9249 19.3933L21.9449 19.1533L22.0399 18.8533L22.1249 18.7333L22.2599 18.6067L22.3299 18.5667L22.4299 18.5467H22.4399L22.4649 18.5333H22.9249L23.0399 18.5267L23.3249 18.5933H23.3449L23.4399 18.64L23.5499 18.7533L23.6699 18.9067L23.6899 18.9333L23.7649 18.98L23.7899 18.9933L23.8499 18.98L23.9399 18.9133L24.0099 18.8467L24.0999 18.78V18.7667L24.1549 18.6667L24.1749 18.62L24.3549 18.5267L24.5649 18.5133L24.5899 18.4933H24.5999L24.6549 18.4H24.7049L24.8349 18.4667L24.9199 18.44L24.9899 18.4733L25.0449 18.4667L25.1449 18.4467L25.2599 18.5533L25.3249 18.5667L25.5499 18.74H25.5699L25.5799 18.7467L25.6049 18.7333L25.6449 18.72H25.6499L25.6549 18.7267L25.6849 18.7733L25.7199 18.78L25.7599 18.7133L25.7449 18.6733L25.7399 18.66L25.6549 18.64L25.5849 18.4733L25.6549 18.3733L25.5449 18.2L25.5249 18.1667V18.16L25.4849 18.08L25.2949 17.6933L25.0449 17.4267L24.9599 17.34L24.9299 17.3067L24.7949 17.1267L24.6999 16.96L24.6899 16.9267L24.6699 16.8667L24.6149 16.7067L24.5149 16.6067L24.4349 16.4867L24.2649 16.18L24.2399 16.1333L24.1999 16.1H24.1149L24.1099 16.0867H24.1049V16.08L24.1449 16.0267L24.1949 16.0133L24.2099 15.9533L24.1249 15.6267V15.6133L24.1199 15.5133L24.1849 15.04L24.1949 14.98L24.3149 14.6667L24.3849 14.5867L24.4649 14.38L24.5349 14.2467L24.5999 14.16L24.6099 14.1533L24.7249 14.06L24.8249 14.04L24.9199 14.02L25.0849 14.0867H25.2349L25.2699 14.08L25.3399 14.0667L25.4549 14.02L25.5099 13.9733L25.5399 13.92L25.5999 13.6533L25.6199 13.5667L25.6549 13.4733L25.8699 13.1467L26.0299 12.9467L26.3899 12.6L26.5649 12.46L26.6549 12.3867L27.4599 11.9067L27.6699 11.6267L27.7799 11.48L27.9699 11.3067L28.1949 11.18L28.3949 10.98L28.4349 10.9067L28.4849 10.6733L28.5349 10.66L28.5699 10.5467L28.5849 10.5133L28.7399 10.3667L28.7599 10.3533L29.3749 9.93999L29.4649 9.95999L29.5149 9.85999L29.6899 9.81999H29.7249L29.7699 9.78666L29.8049 9.69999V9.67999L29.8099 9.45332L29.8499 9.39332L29.8699 9.24666L29.8899 9.20666L29.9099 9.17332L29.9599 9.12666L29.9499 9.09999V9.09332Z" fill="#D47600"/>
</g>
<rect x="2" y="2" width="36" height="36" rx="18" stroke="white" stroke-width="4"/>
<defs>
<clipPath id="clip0_90_35935">
<rect x="4" y="4" width="32" height="32" rx="16" fill="white"/>
</clipPath>
</defs>
</svg>
