<svg width="40" height="40" viewBox="0 0 40 40" fill="none" xmlns="http://www.w3.org/2000/svg">
<g clip-path="url(#clip0_90_28795)">
<path d="M19.9995 4H35.9995V36H19.9995V4Z" fill="white"/>
<path d="M4 4H20V36H4V4Z" fill="#006233"/>
<path d="M25.1994 16C24.539 14.4749 23.5197 13.2829 22.2994 12.609C21.0791 11.935 19.7262 11.8168 18.4504 12.2726C17.1746 12.7284 16.0472 13.7328 15.2432 15.1299C14.4391 16.5271 14.0033 18.2389 14.0033 20C14.0033 21.7611 14.4391 23.4729 15.2432 24.8701C16.0472 26.2672 17.1746 27.2716 18.4504 27.7274C19.7262 28.1832 21.0791 28.065 22.2994 27.391C23.5197 26.7171 24.539 25.5251 25.1994 24C24.5779 25.0351 23.7306 25.7872 22.7746 26.1524C21.8186 26.5177 20.8011 26.478 19.8627 26.0388C18.9244 25.5997 18.1115 24.7828 17.5364 23.701C16.9613 22.6192 16.6524 21.326 16.6524 20C16.6524 18.674 16.9613 17.3808 17.5364 16.299C18.1115 15.2173 18.9244 14.4003 19.8627 13.9612C20.8011 13.522 21.8186 13.4823 22.7746 13.8476C23.7306 14.2128 24.5779 14.9649 25.1994 16M25.3994 20L19.9994 17.6533L23.3594 23.7867V16.2133L19.9994 22.3467L25.3994 20Z" fill="#D21034"/>
</g>
<rect x="2" y="2" width="36" height="36" rx="18" stroke="white" stroke-width="4"/>
<defs>
<clipPath id="clip0_90_28795">
<rect x="4" y="4" width="32" height="32" rx="16" fill="white"/>
</clipPath>
</defs>
</svg>
