<svg width="40" height="40" viewBox="0 0 40 40" fill="none" xmlns="http://www.w3.org/2000/svg">
<g clip-path="url(#clip0_90_27946)">
<path d="M3.99976 25.3333H35.9998V36H3.99976V25.3333Z" fill="black"/>
<path d="M3.99976 14.6667H35.9998V25.3333H3.99976V14.6667Z" fill="white"/>
<path d="M4 4H36V14.6667H4V4Z" fill="#CE1126"/>
<path d="M20.0321 20.128L22.7721 23.52L22.5762 17.36C22.5482 16.4267 21.9401 16.64 21.4961 16.976C21.0521 17.36 20.5361 17.36 20.0001 17.1093C19.4601 17.36 18.9481 17.36 18.5041 16.976C18.0641 16.64 17.4521 16.4267 17.4241 17.36L17.2281 23.52L20.0321 20.128V20.128Z" fill="white"/>
<path fill-rule="evenodd" clip-rule="evenodd" d="M17.8071 16.6574C18.0267 16.6353 18.2955 16.7772 18.5165 16.9459C18.5169 16.9462 18.5173 16.9466 18.5177 16.9469C18.9528 17.3233 19.4558 17.325 19.991 17.0766C19.9965 17.074 20.0026 17.074 20.0081 17.0766C20.5393 17.325 21.0462 17.3233 21.4814 16.9469C21.4818 16.9466 21.4823 16.9462 21.4827 16.9459C21.7056 16.7772 21.9744 16.6353 22.1935 16.6574C22.3042 16.6686 22.4038 16.7219 22.4772 16.8365C22.5501 16.9504 22.5944 17.1207 22.6015 17.3586L22.7975 23.5185C22.798 23.5326 22.792 23.5456 22.7824 23.5515C22.7729 23.5574 22.7616 23.555 22.7538 23.5454L20.0313 20.1751L17.245 23.5457C17.2372 23.5551 17.226 23.5573 17.2165 23.5514C17.207 23.5455 17.2011 23.5325 17.2016 23.5185L17.3976 17.3586C17.3976 17.3586 17.3976 17.3586 17.3976 17.3586C17.4047 17.1206 17.4492 16.9504 17.5225 16.8364C17.5962 16.7219 17.6961 16.6686 17.8071 16.6574ZM20.0315 20.128L20.0492 20.1026L22.7429 23.4372L22.5496 17.3615L22.5496 17.3614C22.5427 17.1327 22.5004 16.9796 22.4376 16.8815C22.3753 16.7841 22.2899 16.7367 22.1896 16.7266C21.9869 16.7061 21.73 16.8386 21.509 17.0057C21.0587 17.3947 20.5371 17.3949 19.9995 17.146C19.458 17.3949 18.9403 17.3947 18.49 17.0056C18.2711 16.8386 18.0142 16.7061 17.811 16.7266C17.7104 16.7367 17.6247 16.7841 17.562 16.8816C17.4989 16.9796 17.4564 17.1327 17.4495 17.3614L17.4495 17.3615L17.2562 23.4386L20.0141 20.1023L20.0315 20.128Z" fill="#C09300"/>
<path d="M17.7401 17.1467L17.5481 23.136L17.2281 23.52L17.4241 17.36C17.5186 17.2634 17.6258 17.191 17.7401 17.1467V17.1467ZM18.1241 17.5733L17.9641 22.5867L17.6441 23.024L17.8361 17.2373C17.9001 17.3227 18.0881 17.5307 18.1241 17.5733ZM18.4721 17.9573L18.3481 22.1387L18.0881 22.4747L18.2481 17.7067C18.3121 17.7867 18.4401 17.9093 18.4721 17.9573ZM18.8521 18.1707L18.7281 21.7333L18.4761 22.0053L18.6001 18.0427C18.6641 18.08 18.7881 18.1707 18.8521 18.1707ZM19.2041 18.1707L19.1121 21.1413L18.8521 21.4773L18.9521 18.208C19.0121 18.208 19.1761 18.208 19.2041 18.1707Z" fill="#C09300"/>
<path d="M20.1283 20.8L20.5123 23.136L20.3843 23.3067L20.2523 23.1733L20.0363 21.0933L20.1283 23.1733L20.0003 23.3867L19.8763 23.1733L19.9683 21.0933L19.7483 23.1733L19.6163 23.3067L19.4883 23.136L19.8723 20.8053H20.1283V20.8Z" fill="#C09300"/>
<path fill-rule="evenodd" clip-rule="evenodd" d="M19.8538 20.776H20.1275V20.7968L20.1489 20.7937L20.5355 23.1454L20.3854 23.3455L20.2309 23.1894L20.0903 21.8356L20.1499 23.1829L19.9992 23.4341L19.853 23.1826L19.9136 21.8125L19.768 23.1894L19.6135 23.3455L19.4634 23.1454L19.8538 20.776ZM20.1106 20.8347H19.8891L19.5115 23.1266L19.6174 23.2678L19.7269 23.1573L19.9457 21.0892L19.9894 21.0951L19.8979 23.1641L19.9997 23.3393L20.105 23.1638L20.0135 21.0951L20.0572 21.0893L20.272 23.1573L20.3815 23.2678L20.4874 23.1266L20.1106 20.8347Z" fill="#C09300"/>
<path d="M19.1396 19.776L18.3756 23.3867L19.4276 23.6L19.8716 20.8854L19.1396 19.776Z" fill="white"/>
<path fill-rule="evenodd" clip-rule="evenodd" d="M19.1342 19.7448C19.1428 19.7422 19.1518 19.7461 19.1576 19.7549L19.8896 20.8642C19.8946 20.8719 19.8966 20.8822 19.895 20.8922L19.451 23.6068C19.4483 23.6233 19.4365 23.6342 19.424 23.6317L18.372 23.4183C18.3651 23.4169 18.3591 23.4117 18.3554 23.404C18.3517 23.3963 18.3506 23.3868 18.3525 23.378L19.1165 19.7673C19.1189 19.756 19.1257 19.7474 19.1342 19.7448ZM19.1507 19.8413L18.406 23.3605L19.4089 23.5639L19.8455 20.8943L19.1507 19.8413Z" fill="#C09300"/>
<path fill-rule="evenodd" clip-rule="evenodd" d="M19.4938 20.7024L18.9978 21.3318C18.9916 21.3396 18.9829 21.3429 18.9745 21.3406C18.9662 21.3382 18.9592 21.3306 18.9559 21.32L18.8639 21.0267L18.9119 21L18.9893 21.2469L19.458 20.6522L19.4938 20.7024Z" fill="#C09300"/>
<path fill-rule="evenodd" clip-rule="evenodd" d="M19.3101 21.5664L19.2061 20.2704L19.2578 20.263L19.3549 21.4722L19.6313 20.9871L19.6727 21.029L19.5543 21.2367L19.682 21.8308L19.7423 21.7089L19.7857 21.7471L19.7009 21.9186L19.721 22.0118L19.671 22.0309L19.6632 21.9948L19.4406 22.4451L19.5494 23.1288L19.4985 23.1432L19.3995 22.5209L19.1938 22.9416C19.1883 22.9528 19.1785 22.9588 19.1685 22.957C19.1586 22.9553 19.1503 22.9461 19.1472 22.9333L19.0405 22.4928L18.8381 22.9302C18.8327 22.942 18.8225 22.9483 18.8122 22.9463C18.802 22.9443 18.7936 22.9344 18.7909 22.9211L18.6269 22.1104C18.6245 22.0985 18.627 22.0859 18.6334 22.0771L18.9614 21.6291C18.9679 21.6203 18.9775 21.6167 18.9865 21.6198C18.9955 21.6229 19.0026 21.6322 19.005 21.6442L19.091 22.0611L19.2951 21.6966C19.3013 21.6855 19.3119 21.6804 19.322 21.6836C19.332 21.6868 19.3397 21.6976 19.3416 21.7112L19.4269 22.3468L19.6444 21.907L19.5151 21.3057L19.3567 21.5837C19.3502 21.595 19.3393 21.5999 19.329 21.5961C19.3187 21.5923 19.3113 21.5805 19.3101 21.5664ZM19.3846 22.4246L19.3009 21.8021L19.1008 22.1594C19.0949 22.17 19.0849 22.1752 19.0752 22.1728C19.0654 22.1703 19.0575 22.1606 19.0549 22.1479L18.9669 21.7208L18.6809 22.1114L18.8254 22.8256L19.0259 22.3925C19.0312 22.381 19.041 22.3747 19.0511 22.3763C19.0612 22.3779 19.0696 22.3872 19.0727 22.4L19.18 22.8429L19.3846 22.4246Z" fill="#C09300"/>
<path fill-rule="evenodd" clip-rule="evenodd" d="M18.8162 22.8725C18.826 22.8746 18.8341 22.8841 18.8369 22.8968L18.9561 23.4345L19.1177 23.0755C19.1229 23.0638 19.1328 23.0574 19.1429 23.0589C19.1531 23.0604 19.1616 23.0698 19.1647 23.0827L19.2887 23.5947L19.2392 23.616L19.1328 23.1766L18.9703 23.5378C18.965 23.5496 18.9549 23.5561 18.9447 23.5544C18.9345 23.5527 18.926 23.543 18.923 23.5298L18.8022 22.9851L18.6212 23.3267L18.5787 23.2867L18.7907 22.8867C18.7965 22.8758 18.8064 22.8703 18.8162 22.8725Z" fill="#C09300"/>
<path d="M19.9997 25.0027C20.7997 25.0027 21.5597 24.9174 22.0077 24.752C22.1957 24.704 22.1957 24.576 22.1957 24.4054C22.3877 24.32 22.2917 24.0214 22.4237 24.0214C22.2877 24.0747 22.2637 23.728 22.1037 23.7707C22.1037 23.472 21.8757 23.4347 21.6877 23.52C21.3077 23.6854 20.6357 23.728 19.9997 23.728C19.3597 23.6854 18.6957 23.6854 18.3117 23.5147C18.1237 23.4347 17.8997 23.472 17.8997 23.7707C17.7397 23.728 17.7117 24.0694 17.5797 24.0214C17.7117 24.0214 17.6117 24.3254 17.8037 24.4054C17.8037 24.576 17.8037 24.704 17.9957 24.752C18.4357 24.9174 19.2037 25.0027 19.9997 25.0027V25.0027Z" fill="white"/>
<path fill-rule="evenodd" clip-rule="evenodd" d="M18.0194 23.4402C18.1122 23.3974 18.2266 23.4113 18.3262 23.4537L18.3268 23.454L18.3268 23.454C18.5125 23.5365 18.7691 23.5789 19.0629 23.6055C19.2438 23.6219 19.4361 23.6322 19.6323 23.6427C19.7542 23.6492 19.8776 23.6558 20.0008 23.664C20.6375 23.664 21.3011 23.6208 21.6724 23.4593C21.7723 23.4141 21.8876 23.3988 21.9814 23.4407C22.0291 23.462 22.0725 23.4989 22.1038 23.5557C22.1267 23.5973 22.1416 23.647 22.1481 23.7043C22.1793 23.7088 22.2065 23.7249 22.2299 23.7473C22.2635 23.7794 22.2898 23.8248 22.3107 23.8611L22.3114 23.8623C22.3341 23.9016 22.3504 23.93 22.3679 23.9479C22.3759 23.956 22.383 23.9608 22.3906 23.9624C22.4011 23.959 22.4122 23.9574 22.4236 23.9574C22.4475 23.9574 22.4677 23.9808 22.4711 24.0122C22.4745 24.0437 22.4601 24.0738 22.4372 24.0828C22.4269 24.0868 22.4169 24.0893 22.4073 24.0903C22.4057 24.092 22.4036 24.0951 22.401 24.1011C22.3937 24.118 22.3894 24.1411 22.3823 24.1779C22.3812 24.184 22.3799 24.1904 22.3786 24.1973C22.3702 24.2407 22.3585 24.2952 22.3336 24.3449C22.3129 24.3863 22.284 24.4224 22.2436 24.4484C22.2431 24.5176 22.2395 24.5917 22.2146 24.6546C22.1817 24.7375 22.1188 24.7884 22.0186 24.8144C21.5639 24.9817 20.7995 25.0667 19.9996 25.0667C19.204 25.0667 18.4316 24.9817 17.9846 24.8144C17.8828 24.7885 17.8189 24.7379 17.7854 24.6551C17.7599 24.5922 17.7562 24.5182 17.7557 24.4492C17.7153 24.424 17.6866 24.3882 17.6661 24.3469C17.6415 24.2971 17.6303 24.242 17.6224 24.1983C17.6211 24.1909 17.6199 24.1839 17.6187 24.1774C17.6123 24.1409 17.6082 24.1179 17.6012 24.1008C17.5984 24.0939 17.5961 24.091 17.5946 24.0895C17.5857 24.0887 17.5765 24.0866 17.567 24.0831C17.5438 24.0747 17.5289 24.0447 17.532 24.0129C17.5352 23.9811 17.5556 23.9574 17.5796 23.9574C17.5899 23.9574 17.5999 23.9587 17.6095 23.9615C17.6172 23.96 17.6247 23.9549 17.6333 23.9459C17.6504 23.9282 17.6665 23.9009 17.6882 23.8638C17.6893 23.8621 17.6903 23.8603 17.6913 23.8586C17.7126 23.8224 17.7393 23.7776 17.7732 23.7461C17.7968 23.7242 17.824 23.7085 17.8551 23.7042C17.8614 23.6472 17.8761 23.5976 17.8986 23.556C17.9294 23.4991 17.9722 23.462 18.0194 23.4402ZM17.6894 24.0499C17.7008 24.0818 17.7074 24.1201 17.7128 24.1516C17.7139 24.1575 17.7148 24.1631 17.7158 24.1684C17.7234 24.2108 17.7315 24.2467 17.7462 24.2764C17.7599 24.3038 17.7805 24.3287 17.8179 24.3443C17.838 24.3526 17.8516 24.3774 17.8516 24.4054C17.8516 24.4956 17.8528 24.5521 17.8699 24.5943C17.8841 24.6296 17.9155 24.6669 18.0045 24.6891C18.0059 24.6895 18.0073 24.6899 18.0086 24.6904C18.442 24.8533 19.2045 24.9387 19.9996 24.9387C20.7986 24.9387 21.5533 24.8533 21.9948 24.6904C21.9961 24.6899 21.9973 24.6895 21.9986 24.6892C22.0852 24.6671 22.1157 24.6301 22.1297 24.5948C22.1465 24.5524 22.1476 24.4956 22.1476 24.4054C22.1476 24.3778 22.1608 24.3534 22.1804 24.3447C22.2182 24.3279 22.2396 24.3021 22.2538 24.2738C22.269 24.2435 22.2775 24.2074 22.2856 24.1654C22.2866 24.1603 22.2876 24.1548 22.2887 24.1492C22.2943 24.1191 22.3011 24.0829 22.312 24.052C22.3112 24.0512 22.3104 24.0504 22.3096 24.0496C22.2816 24.021 22.2581 23.98 22.2388 23.9465C22.2374 23.9439 22.236 23.9415 22.2345 23.939C22.2124 23.9006 22.1942 23.8707 22.174 23.8514C22.1564 23.8345 22.1382 23.8268 22.113 23.8335C22.0989 23.8372 22.0843 23.8324 22.0732 23.8202C22.0621 23.808 22.0556 23.7899 22.0556 23.7707C22.0556 23.7072 22.0436 23.6628 22.0264 23.6314C22.009 23.5998 21.9836 23.5767 21.9509 23.562C21.8837 23.532 21.7911 23.5407 21.7031 23.5806L21.7025 23.5809L21.7025 23.5809C21.3141 23.7499 20.6344 23.792 19.9996 23.792C19.9988 23.792 19.998 23.792 19.9972 23.792C19.8758 23.7839 19.7528 23.7773 19.6308 23.7707C19.4333 23.7602 19.2383 23.7497 19.0564 23.7332C18.7622 23.7065 18.495 23.6636 18.2967 23.5756C18.2084 23.538 18.1169 23.5307 18.0508 23.5612C18.0186 23.5761 17.9936 23.5993 17.9765 23.6309C17.9594 23.6624 17.9476 23.707 17.9476 23.7707C17.9476 23.7899 17.9412 23.808 17.9301 23.8202C17.9189 23.8324 17.9043 23.8372 17.8902 23.8335C17.8648 23.8267 17.8462 23.8344 17.8281 23.8511C17.8077 23.8701 17.7892 23.8997 17.7669 23.9375C17.7652 23.9405 17.7634 23.9435 17.7616 23.9465C17.7424 23.9793 17.7192 24.019 17.6923 24.047C17.6913 24.0479 17.6904 24.0489 17.6894 24.0499Z" fill="#C09300"/>
<path d="M18.916 23.3867C19.172 23.4347 19.46 23.472 19.684 23.4347C19.812 23.4347 19.904 23.728 19.648 23.7707C19.428 23.808 19.076 23.7707 18.888 23.728C18.6405 23.6703 18.395 23.5991 18.152 23.5147C17.928 23.3867 18.088 23.1414 18.216 23.1734C18.4443 23.2709 18.6785 23.3423 18.916 23.3867V23.3867ZM21.084 23.3867C20.828 23.4347 20.54 23.472 20.324 23.4347C20.188 23.4347 20.096 23.728 20.352 23.7707C20.576 23.808 20.924 23.7707 21.112 23.728C21.272 23.6854 21.624 23.6054 21.848 23.5147C22.072 23.3867 21.912 23.1414 21.784 23.1734C21.5556 23.2709 21.3214 23.3423 21.084 23.3867V23.3867Z" fill="white"/>
<path fill-rule="evenodd" clip-rule="evenodd" d="M18.1598 23.4818C18.1084 23.452 18.083 23.4178 18.0723 23.3879C18.0618 23.3586 18.0636 23.3284 18.0745 23.2997C18.0857 23.2704 18.1064 23.2436 18.1319 23.2259C18.1567 23.2086 18.1842 23.2014 18.2091 23.2071C18.4383 23.3049 18.6734 23.3764 18.9117 23.421M18.1598 23.4818C18.4015 23.5657 18.6457 23.6364 18.8918 23.6939C19.0785 23.7362 19.4276 23.773 19.6441 23.7363L19.6441 23.7363C19.7047 23.7262 19.7407 23.7019 19.7607 23.6756C19.78 23.65 19.7861 23.6201 19.7835 23.5908C19.778 23.5286 19.7339 23.4705 19.6848 23.4694C19.4574 23.5069 19.1672 23.4689 18.9117 23.421M18.1078 23.1644C18.1414 23.1411 18.1813 23.1296 18.2201 23.1393C18.2212 23.1395 18.2222 23.1399 18.2233 23.1403C18.4502 23.2373 18.683 23.3082 18.919 23.3524L18.9153 23.3867L18.919 23.3524C19.1749 23.4003 19.4599 23.437 19.6801 23.4003C19.6812 23.4001 19.6823 23.4 19.6833 23.4C19.7617 23.4 19.8267 23.488 19.8352 23.5826C19.8396 23.6319 19.8287 23.6834 19.7973 23.7248C19.7665 23.7655 19.7181 23.7938 19.6506 23.8051C19.4271 23.843 19.0722 23.8051 18.883 23.7622L18.8829 23.7622C18.6348 23.7043 18.3885 23.6329 18.1448 23.5482C18.1435 23.5478 18.1423 23.5472 18.1411 23.5466C18.0817 23.5126 18.0435 23.4685 18.0254 23.4178C18.0069 23.3661 18.0111 23.313 18.0282 23.2683C18.045 23.2243 18.0743 23.1878 18.1078 23.1644ZM21.9733 23.4178C21.9551 23.4685 21.917 23.5126 21.8576 23.5466C21.8567 23.5471 21.8558 23.5475 21.8549 23.5479C21.6754 23.6205 21.4145 23.6863 21.2355 23.7315C21.1895 23.7431 21.1489 23.7534 21.1164 23.762L21.1157 23.7622C20.9264 23.8052 20.5756 23.843 20.3481 23.8051C20.2807 23.7938 20.2322 23.7655 20.2015 23.7248C20.1702 23.6832 20.1595 23.6316 20.1646 23.582C20.1743 23.4867 20.2419 23.4 20.3233 23.4C20.3245 23.4 20.3256 23.4001 20.3267 23.4003C20.5388 23.437 20.8237 23.4004 21.0797 23.3524L21.0833 23.3867L21.0797 23.3524C21.3157 23.3082 21.5485 23.2373 21.7754 23.1403C21.7764 23.1399 21.7775 23.1395 21.7786 23.1393C21.8173 23.1296 21.8573 23.1411 21.8909 23.1644C21.9244 23.1878 21.9537 23.2243 21.9705 23.2683C21.9876 23.313 21.9918 23.3661 21.9733 23.4178ZM21.087 23.421C20.8317 23.4689 20.5414 23.5069 20.3218 23.4694C20.2679 23.4705 20.2224 23.5299 20.2161 23.5913C20.2131 23.6205 20.219 23.6502 20.2382 23.6756C20.258 23.7019 20.294 23.7262 20.3546 23.7363C20.5749 23.773 20.9198 23.7363 21.1066 23.6939C21.1399 23.685 21.1812 23.6746 21.2278 23.6629C21.4064 23.6178 21.662 23.5533 21.8384 23.4821C21.8901 23.4522 21.9156 23.4179 21.9264 23.3879C21.9369 23.3586 21.9351 23.3284 21.9242 23.2997C21.913 23.2704 21.8923 23.2436 21.8668 23.2259C21.8419 23.2086 21.8145 23.2014 21.7896 23.2071C21.5604 23.3049 21.3253 23.3765 21.087 23.421" fill="#C09300"/>
<path d="M18.1194 23.2213C17.9274 23.1733 17.8394 23.472 17.8994 23.6427C17.9274 23.5573 18.0594 23.5573 18.0874 23.472C18.1234 23.344 18.0594 23.344 18.1234 23.2213H18.1194ZM18.8874 24.0053C18.8874 23.8347 19.0114 23.856 19.0114 23.6853C19.0114 23.6053 18.9794 23.472 18.9154 23.472C18.882 23.4746 18.8506 23.4934 18.827 23.5248C18.8034 23.5563 18.7893 23.5982 18.7874 23.6427C18.7594 23.808 18.8874 23.8347 18.8874 24.0053V24.0053ZM19.7954 23.52C19.9834 23.52 19.9634 23.856 19.8754 24.0267C19.8754 23.904 19.7154 23.856 19.7154 23.7707C19.7154 23.6427 19.8594 23.6427 19.7954 23.52ZM21.8754 23.2213C22.0714 23.1733 22.1634 23.472 22.0994 23.6427C22.0714 23.5573 21.9394 23.5573 21.9114 23.472C21.8754 23.344 21.9394 23.344 21.8754 23.2213V23.2213ZM21.1194 24C21.1194 23.8293 20.9914 23.8507 20.9914 23.68C20.9914 23.6 21.0234 23.4667 21.0874 23.4667C21.1207 23.4692 21.1522 23.488 21.1758 23.5195C21.1994 23.551 21.2135 23.5929 21.2154 23.6373C21.2434 23.8027 21.1154 23.8293 21.1154 24H21.1194ZM20.1994 23.52C20.0114 23.52 20.0314 23.856 20.1194 24.0267C20.1194 23.904 20.2794 23.856 20.2794 23.7707C20.2794 23.6427 20.1354 23.6427 20.1994 23.52Z" fill="white"/>
<path fill-rule="evenodd" clip-rule="evenodd" d="M18.122 23.1867C18.0144 23.1611 17.9351 23.2332 17.8925 23.3328C17.8505 23.4311 17.842 23.5603 17.8761 23.6574C17.8804 23.6697 17.8897 23.6775 17.9 23.6773C17.9102 23.6772 17.9193 23.669 17.9234 23.6566C17.9273 23.6446 17.9357 23.6333 17.9502 23.6218C17.9648 23.6101 17.9828 23.6004 18.0033 23.5895L18.0043 23.589C18.0236 23.5787 18.0452 23.5672 18.0637 23.5524C18.0827 23.5373 18.1013 23.5166 18.1114 23.4859C18.1116 23.4853 18.1118 23.4848 18.112 23.4842C18.1219 23.4488 18.1253 23.4207 18.1254 23.3962C18.1255 23.3773 18.1234 23.3605 18.1218 23.3478C18.1215 23.3448 18.1211 23.3421 18.1208 23.3396C18.1193 23.326 18.1189 23.3156 18.1213 23.3026C18.1238 23.2888 18.13 23.2698 18.145 23.2411C18.1505 23.2305 18.1511 23.2167 18.1467 23.2053C18.1422 23.1938 18.1333 23.1867 18.1236 23.1867H18.122ZM18.0804 23.2509C18.0149 23.2504 17.9669 23.299 17.9377 23.3672C17.9106 23.4304 17.9012 23.5079 17.9104 23.5738C17.9147 23.5696 17.9191 23.5658 17.9235 23.5622C17.9421 23.5475 17.9637 23.536 17.983 23.5257L17.984 23.5251C18.0044 23.5142 18.0224 23.5046 18.037 23.4929C18.0513 23.4816 18.0595 23.4705 18.0635 23.4589C18.0714 23.4307 18.0734 23.4111 18.0734 23.3959C18.0735 23.3834 18.0723 23.3737 18.0708 23.3617C18.0704 23.358 18.0699 23.354 18.0694 23.3498C18.0674 23.332 18.0661 23.3114 18.0708 23.2859C18.0729 23.2748 18.076 23.2632 18.0804 23.2509ZM21.8756 23.2213L21.8543 23.2411C21.8692 23.2698 21.8754 23.2888 21.8779 23.3026C21.8803 23.3156 21.8799 23.326 21.8784 23.3396C21.8781 23.3421 21.8778 23.3448 21.8774 23.3478C21.8758 23.3605 21.8737 23.3773 21.8738 23.3962C21.8739 23.4207 21.8773 23.4488 21.8873 23.4842C21.8874 23.4848 21.8876 23.4853 21.8878 23.4859C21.8979 23.5166 21.9166 23.5373 21.9355 23.5524C21.9541 23.5672 21.9757 23.5787 21.995 23.589L21.996 23.5895C22.0164 23.6004 22.0344 23.6101 22.049 23.6218C22.0636 23.6333 22.0719 23.6446 22.0758 23.6566C22.0798 23.6689 22.0889 23.677 22.0989 23.6773C22.109 23.6777 22.1184 23.6702 22.1229 23.6582C22.1594 23.5607 22.1507 23.4309 22.1076 23.3325C22.0634 23.232 21.9814 23.1602 21.8709 23.1872L21.8756 23.2213ZM22.0627 23.3675C22.0333 23.3005 21.9847 23.2519 21.9189 23.2509C21.9232 23.2632 21.9264 23.2748 21.9284 23.2859C21.9331 23.3114 21.9318 23.332 21.9298 23.3498C21.9294 23.354 21.9289 23.358 21.9284 23.3617C21.927 23.3737 21.9258 23.3834 21.9258 23.3959C21.9258 23.4111 21.9279 23.4307 21.9357 23.4589C21.9397 23.4705 21.948 23.4816 21.9622 23.4929C21.9768 23.5046 21.9948 23.5142 22.0153 23.5251L22.0163 23.5257C22.0356 23.536 22.0572 23.5475 22.0757 23.5622C22.0804 23.566 22.0852 23.5701 22.0898 23.5747C22.1 23.5089 22.0906 23.4311 22.0627 23.3675ZM21.0389 23.5586C21.0248 23.5969 21.0176 23.6449 21.0176 23.68C21.0176 23.7162 21.0243 23.7403 21.0334 23.7591C21.0431 23.7791 21.0563 23.7948 21.0727 23.8139L21.0737 23.815C21.0869 23.8304 21.1022 23.8483 21.1151 23.8712C21.126 23.8455 21.1388 23.8238 21.1504 23.8041C21.1522 23.8011 21.1539 23.7982 21.1556 23.7953C21.1699 23.771 21.181 23.7505 21.1875 23.7275C21.1937 23.7057 21.1962 23.6799 21.1903 23.645C21.1899 23.6431 21.1897 23.6412 21.1897 23.6393C21.1881 23.6034 21.1767 23.5694 21.1576 23.544C21.1387 23.5188 21.1136 23.5036 21.0869 23.5013C21.0705 23.5018 21.0535 23.5193 21.0389 23.5586ZM21.1439 23.9649C21.1504 23.9167 21.1701 23.8831 21.1926 23.8449C21.1939 23.8426 21.1952 23.8403 21.1966 23.838C21.2109 23.8137 21.2265 23.7859 21.2361 23.752C21.2459 23.7177 21.2489 23.679 21.2414 23.6325C21.2387 23.5806 21.222 23.5318 21.1944 23.495C21.1663 23.4575 21.1288 23.4351 21.0891 23.4321C21.0888 23.432 21.0886 23.432 21.0883 23.432C21.0881 23.432 21.0878 23.432 21.0876 23.432C21.0402 23.432 21.0096 23.4812 20.9923 23.528C20.9744 23.5764 20.9656 23.6351 20.9656 23.68C20.9656 23.7291 20.975 23.7664 20.9898 23.7969C21.0038 23.8256 21.0221 23.847 21.0375 23.865L21.0385 23.8661C21.0549 23.8852 21.0681 23.9009 21.0778 23.9209C21.0837 23.933 21.0885 23.9472 21.0912 23.9654C21.0902 23.9764 21.0896 23.9879 21.0896 24C21.0896 24.0191 21.1013 24.0347 21.1156 24.0347H21.1196C21.134 24.0347 21.1456 24.0191 21.1456 24C21.1456 23.9876 21.145 23.9759 21.1439 23.9649ZM18.9141 23.4374C18.9146 23.4374 18.9151 23.4373 18.9156 23.4373C18.963 23.4373 18.9937 23.4865 19.0109 23.5334C19.0288 23.5818 19.0376 23.6404 19.0376 23.6853C19.0376 23.7342 19.0286 23.7713 19.0143 23.8018C19.0007 23.8305 18.9829 23.852 18.968 23.8699L18.967 23.8711C18.9512 23.8902 18.9384 23.9058 18.929 23.9258C18.9201 23.9447 18.9136 23.9689 18.9136 24.0053H18.8616C18.8616 23.9369 18.8382 23.8971 18.8107 23.8502C18.8093 23.8479 18.808 23.8457 18.8066 23.8433C18.7924 23.819 18.7767 23.7912 18.7671 23.7573C18.7574 23.723 18.7543 23.6843 18.7618 23.6378C18.7645 23.5859 18.7812 23.5371 18.8088 23.5003C18.837 23.4628 18.8744 23.4404 18.9141 23.4374ZM18.8895 23.8799C18.8783 23.8527 18.8649 23.8299 18.8528 23.8094C18.851 23.8065 18.8493 23.8035 18.8476 23.8007C18.8334 23.7763 18.8223 23.7558 18.8157 23.7328C18.8095 23.711 18.8071 23.6853 18.813 23.6503C18.8133 23.6484 18.8135 23.6466 18.8136 23.6446C18.8151 23.6087 18.8265 23.5748 18.8456 23.5493C18.8645 23.5241 18.8896 23.509 18.9163 23.5067C18.9327 23.5071 18.9498 23.5247 18.9643 23.564C18.9784 23.6022 18.9856 23.6503 18.9856 23.6853C18.9856 23.7218 18.9791 23.746 18.9702 23.7649C18.9608 23.7849 18.9481 23.8005 18.9322 23.8196L18.9312 23.8207C18.9179 23.8368 18.9023 23.8556 18.8895 23.8799ZM19.7726 23.5039C19.7771 23.4925 19.7859 23.4853 19.7956 23.4853C19.849 23.4853 19.8903 23.5095 19.9191 23.5519C19.9472 23.5933 19.9609 23.6487 19.965 23.7061C19.9731 23.82 19.9443 23.9547 19.897 24.0463C19.8906 24.0588 19.8788 24.0643 19.8679 24.0598C19.857 24.0553 19.8496 24.0419 19.8496 24.0267C19.8496 24.007 19.8434 23.9888 19.831 23.9696C19.8182 23.95 19.8005 23.9319 19.7805 23.9129C19.7772 23.9098 19.7738 23.9066 19.7704 23.9033C19.7541 23.888 19.7367 23.8717 19.723 23.8549C19.7067 23.8349 19.6896 23.8072 19.6896 23.7707C19.6896 23.6956 19.7291 23.6532 19.7547 23.6257C19.7577 23.6225 19.7604 23.6196 19.7629 23.6168C19.7772 23.6008 19.7833 23.5911 19.7853 23.5826C19.7865 23.5774 19.7877 23.5656 19.7743 23.5398C19.7687 23.5292 19.7681 23.5154 19.7726 23.5039ZM19.8372 23.5623C19.8558 23.5699 19.8698 23.5826 19.8805 23.5984C19.8988 23.6253 19.9098 23.6647 19.9132 23.7126C19.9184 23.7856 19.9054 23.8712 19.8811 23.9428C19.8777 23.9363 19.8741 23.9301 19.8703 23.9242C19.853 23.8977 19.8307 23.8754 19.8107 23.8564C19.8067 23.8527 19.8029 23.8491 19.7992 23.8456C19.783 23.8304 19.7691 23.8173 19.7582 23.8039C19.7445 23.7871 19.7416 23.7768 19.7416 23.7707C19.7416 23.7304 19.7606 23.7095 19.7879 23.6793C19.7906 23.6762 19.7934 23.6731 19.7963 23.6699C19.81 23.6545 19.8279 23.6333 19.8349 23.6032C19.8381 23.5897 19.8388 23.5761 19.8372 23.5623ZM20.0761 23.5519C20.1049 23.5095 20.1463 23.4853 20.1996 23.4853C20.2093 23.4853 20.2182 23.4925 20.2227 23.5039C20.2271 23.5154 20.2265 23.5292 20.221 23.5398C20.2075 23.5656 20.2087 23.5774 20.2099 23.5826C20.2119 23.5911 20.218 23.6008 20.2323 23.6168C20.2348 23.6196 20.2376 23.6225 20.2405 23.6257C20.2661 23.6532 20.3056 23.6956 20.3056 23.7707C20.3056 23.8072 20.2885 23.8349 20.2722 23.8549C20.2586 23.8717 20.2411 23.888 20.2249 23.9033C20.2214 23.9066 20.218 23.9098 20.2147 23.9129C20.1947 23.9319 20.177 23.95 20.1643 23.9696C20.1518 23.9888 20.1456 24.007 20.1456 24.0267C20.1456 24.0419 20.1382 24.0553 20.1273 24.0598C20.1164 24.0643 20.1046 24.0588 20.0982 24.0463C20.051 23.9547 20.0221 23.82 20.0302 23.7061C20.0343 23.6487 20.048 23.5933 20.0761 23.5519ZM20.1142 23.9428C20.0899 23.8712 20.0768 23.7856 20.082 23.7126C20.0854 23.6647 20.0965 23.6253 20.1147 23.5984C20.1254 23.5826 20.1395 23.5699 20.158 23.5623C20.1564 23.5761 20.1571 23.5897 20.1603 23.6032C20.1673 23.6333 20.1852 23.6545 20.1989 23.6699C20.2018 23.6731 20.2046 23.6762 20.2073 23.6793C20.2347 23.7095 20.2536 23.7304 20.2536 23.7707C20.2536 23.7768 20.2507 23.7871 20.237 23.8039C20.2261 23.8173 20.2122 23.8304 20.196 23.8456C20.1923 23.8491 20.1885 23.8527 20.1845 23.8564C20.1645 23.8754 20.1422 23.8977 20.125 23.9242C20.1211 23.9301 20.1175 23.9363 20.1142 23.9428Z" fill="#C09300"/>
<path d="M18.1875 23.3067C18.2515 23.3067 18.3475 23.344 18.3755 23.392L18.1875 23.3067ZM18.5035 23.4347C18.5355 23.4347 18.6635 23.472 18.7235 23.52L18.5035 23.4347ZM19.6475 23.6054C19.5875 23.6054 19.4595 23.6054 19.4275 23.6427L19.6475 23.6V23.6054ZM19.2995 23.6054C19.2635 23.5574 19.1395 23.5574 19.0755 23.6054H19.2995ZM21.8115 23.3067C21.7436 23.3078 21.6778 23.3377 21.6235 23.392L21.8115 23.3067ZM21.4995 23.4347C21.4595 23.4347 21.3395 23.472 21.2755 23.52L21.4995 23.4347ZM20.3515 23.6054C20.4115 23.6054 20.5395 23.6054 20.5755 23.6427L20.3515 23.6V23.6054ZM20.6995 23.6054C20.7355 23.5574 20.8595 23.5574 20.9235 23.6054H20.6995Z" fill="white"/>
<path fill-rule="evenodd" clip-rule="evenodd" d="M21.8289 23.3026C21.8304 23.3142 21.8254 23.3256 21.817 23.3294L21.629 23.4147C21.6206 23.4185 21.6114 23.4137 21.6073 23.4032C21.6031 23.3928 21.6053 23.3799 21.6124 23.3728C21.6697 23.3155 21.7393 23.2839 21.811 23.2827C21.8198 23.2825 21.8274 23.291 21.8289 23.3026ZM18.1694 23.3028C18.1709 23.2912 18.1784 23.2827 18.1872 23.2827C18.2214 23.2827 18.2633 23.2926 18.3002 23.3085C18.3188 23.3165 18.3365 23.3263 18.3517 23.3374C18.3666 23.3484 18.3803 23.3616 18.3894 23.3773C18.3943 23.3857 18.3945 23.3973 18.3899 23.4059C18.3852 23.4146 18.3769 23.4182 18.3694 23.4147L18.1814 23.3294C18.1731 23.3256 18.168 23.3143 18.1694 23.3028ZM18.4854 23.4313C18.4866 23.4195 18.4942 23.4107 18.5032 23.4107C18.5217 23.4107 18.5637 23.4208 18.6073 23.4361C18.6511 23.4516 18.7002 23.4736 18.7325 23.4994C18.7402 23.5056 18.7433 23.5186 18.7397 23.5296C18.7361 23.5407 18.7269 23.5464 18.7182 23.5431L18.4982 23.4577C18.4896 23.4544 18.4841 23.4431 18.4854 23.4313ZM21.3915 23.4362C21.4348 23.4207 21.4767 23.4107 21.4992 23.4107C21.5082 23.4107 21.5158 23.4195 21.517 23.4314C21.5183 23.4432 21.5128 23.4545 21.5041 23.4578L21.2801 23.5431C21.2714 23.5464 21.2621 23.5405 21.2586 23.5293C21.2551 23.518 21.2584 23.5051 21.2664 23.4991C21.3003 23.4736 21.348 23.4517 21.3915 23.4362ZM19.2624 23.5551C19.2815 23.5616 19.2996 23.572 19.3119 23.5884C19.3171 23.5952 19.3186 23.6056 19.3158 23.6145C19.313 23.6235 19.3065 23.6294 19.2992 23.6294H19.0752C19.067 23.6294 19.0599 23.622 19.0578 23.6114C19.0557 23.6009 19.0592 23.5898 19.0664 23.5844C19.102 23.5577 19.1524 23.5454 19.1977 23.5454C19.2206 23.5454 19.243 23.5485 19.2624 23.5551ZM20.8007 23.5454C20.846 23.5454 20.8964 23.5577 20.932 23.5844C20.9391 23.5898 20.9427 23.6009 20.9406 23.6114C20.9385 23.622 20.9314 23.6294 20.9232 23.6294H20.6992C20.6919 23.6294 20.6853 23.6235 20.6826 23.6145C20.6798 23.6056 20.6813 23.5952 20.6865 23.5884C20.6988 23.572 20.7169 23.5616 20.7359 23.5551C20.7554 23.5485 20.7778 23.5454 20.8007 23.5454ZM19.659 23.5819C19.6629 23.5864 19.6652 23.593 19.6652 23.6V23.6054C19.6652 23.6186 19.6571 23.6294 19.6472 23.6294C19.6393 23.6294 19.6303 23.6294 19.6206 23.6294L19.4298 23.6664C19.4219 23.668 19.4142 23.6624 19.4108 23.6527C19.4075 23.6431 19.4093 23.6316 19.4153 23.6246C19.427 23.6111 19.4448 23.6031 19.4627 23.5977C19.4813 23.5921 19.5031 23.5885 19.5252 23.5861C19.557 23.5827 19.5904 23.5817 19.6178 23.5815L19.6446 23.5763C19.6498 23.5753 19.655 23.5773 19.659 23.5819ZM20.3394 23.5819C20.3433 23.5773 20.3486 23.5753 20.3537 23.5763L20.3811 23.5815C20.4084 23.5817 20.4417 23.5827 20.4736 23.5861C20.496 23.5885 20.5182 23.5921 20.5373 23.5977C20.5558 23.6031 20.5739 23.6109 20.5862 23.6237C20.5927 23.6304 20.5949 23.642 20.5918 23.6521C20.5886 23.6621 20.5807 23.668 20.5726 23.6664L20.3784 23.6294C20.3684 23.6294 20.3592 23.6294 20.3512 23.6294C20.3412 23.6294 20.3332 23.6186 20.3332 23.6054V23.6C20.3332 23.5931 20.3355 23.5864 20.3394 23.5819Z" fill="#C09300"/>
<path d="M18.1317 23.9787C18.1117 23.9734 18.0997 23.9467 18.1077 23.9254C18.1117 23.888 18.1317 23.872 18.1477 23.8827C18.1637 23.8827 18.1837 23.9147 18.1837 23.9254L18.1677 23.9627L18.1597 23.968C18.1597 23.9787 18.1437 23.9787 18.1317 23.9787ZM20.3317 24.1867C20.3237 24.1867 20.3077 24.16 20.3077 24.1494C20.3077 24.128 20.3317 24.096 20.3477 24.096L20.3797 24.1174C20.3917 24.1334 20.3917 24.1654 20.3757 24.1814C20.3677 24.192 20.3437 24.192 20.3317 24.1814V24.1867ZM20.3437 24.32C20.3277 24.3094 20.3237 24.2987 20.3197 24.2774C20.3197 24.2507 20.3197 24.2454 20.3397 24.2294L20.3557 24.2187L20.3717 24.2294C20.3877 24.24 20.3997 24.2507 20.3997 24.272C20.3997 24.288 20.3877 24.304 20.3717 24.3147C20.3597 24.3254 20.3557 24.3254 20.3437 24.3147V24.32Z" fill="#C09300"/>
<path d="M18.3114 23.7334C18.2954 23.7334 18.2754 23.7547 18.2634 23.7654C18.2394 23.7707 18.2074 23.792 18.1834 23.7654C18.1594 23.76 18.1274 23.7654 18.1234 23.808C18.1274 23.8454 18.1634 23.8614 18.1874 23.84C18.2034 23.8134 18.2474 23.792 18.2554 23.84C18.2354 23.8827 18.2394 23.9307 18.2234 23.968C18.2234 23.9947 18.2114 24.016 18.2034 24.0374C18.1834 24.0374 18.1634 24.0374 18.1474 24.0534C18.1349 24.0534 18.1227 24.0572 18.1116 24.0646C18.1005 24.072 18.0908 24.0828 18.0834 24.096C18.0674 24.128 18.0514 24.16 18.0474 24.2027C18.0514 24.2347 18.0874 24.2454 18.1114 24.2507L18.1914 24.2827L18.3194 24.3307C18.3834 24.3574 18.4474 24.368 18.5114 24.3894L18.5314 24.3947C18.5594 24.4054 18.5714 24.368 18.5714 24.3414L18.6114 24.1494C18.6194 24.1227 18.6314 24.0694 18.5954 24.08C18.5754 24.096 18.5554 24.1227 18.5314 24.1227C18.4954 24.1227 18.5154 24.176 18.5314 24.192C18.5314 24.224 18.5234 24.2614 18.5114 24.288C18.4874 24.304 18.4634 24.288 18.4394 24.2774C18.4194 24.2774 18.3714 24.2614 18.3914 24.224L18.4114 24.128C18.4234 24.096 18.4234 24.0587 18.4314 24.0214C18.4154 23.984 18.3914 24.0374 18.3714 24.0427C18.3554 24.0534 18.3074 24.0587 18.3314 24.096C18.3554 24.1174 18.3394 24.1547 18.3314 24.1867C18.3314 24.224 18.2994 24.24 18.2754 24.224C18.2514 24.224 18.2154 24.1974 18.2354 24.1654L18.2554 24.0694L18.2834 23.9627C18.2834 23.9254 18.2954 23.8987 18.3074 23.8667C18.3074 23.8294 18.3274 23.7974 18.3274 23.76C18.3274 23.744 18.3194 23.7387 18.3114 23.7387V23.7334ZM18.1634 24.1227C18.1652 24.1213 18.1673 24.1206 18.1694 24.1206C18.1715 24.1206 18.1735 24.1213 18.1754 24.1227C18.1834 24.1334 18.1834 24.144 18.1754 24.1547L18.1634 24.1654C18.1434 24.1654 18.1394 24.16 18.1394 24.1494C18.1394 24.144 18.1394 24.1387 18.1514 24.1334C18.1562 24.1287 18.1616 24.1251 18.1674 24.1227H18.1634ZM18.1234 24.3894C18.1034 24.368 18.1074 24.352 18.1354 24.32C18.1514 24.3094 18.1554 24.3094 18.1714 24.3254C18.1954 24.352 18.1954 24.368 18.1714 24.3947C18.1634 24.4054 18.1594 24.4054 18.1514 24.4054C18.1394 24.4054 18.1354 24.4054 18.1234 24.3947V24.3894ZM18.2434 24.4427C18.2344 24.439 18.2269 24.4308 18.2224 24.4199C18.218 24.4089 18.2169 24.3961 18.2194 24.384C18.2274 24.3627 18.2314 24.3574 18.2554 24.3574C18.2834 24.3574 18.2874 24.3627 18.2914 24.3947C18.2914 24.416 18.2914 24.4214 18.2794 24.432C18.2749 24.4367 18.2697 24.4401 18.2642 24.442C18.2587 24.4438 18.253 24.4441 18.2474 24.4427H18.2434ZM21.8114 24.4427C21.8034 24.4374 21.7994 24.432 21.7994 24.416C21.7994 24.3947 21.8074 24.3787 21.8314 24.368C21.8554 24.352 21.8714 24.352 21.8794 24.3787C21.8914 24.4107 21.8914 24.4214 21.8754 24.4427C21.8674 24.4587 21.8634 24.4587 21.8434 24.4587C21.8234 24.4587 21.8194 24.4587 21.8114 24.448V24.4427ZM18.4114 24.5067C18.3954 24.5067 18.3874 24.4854 18.3874 24.464C18.3874 24.448 18.3874 24.4427 18.3954 24.432L18.4194 24.4214L18.4434 24.4267C18.4634 24.448 18.4674 24.4694 18.4554 24.4907C18.4434 24.512 18.4314 24.512 18.4074 24.5067H18.4114ZM19.2834 24.56L19.2754 24.544C19.2754 24.512 19.2754 24.4854 19.2834 24.4534C19.2874 24.4267 19.2834 24.4 19.2914 24.3734L19.3074 24.224C19.3074 24.1974 19.3074 24.1707 19.3154 24.1494C19.3194 24.1067 19.3154 24.0694 19.3234 24.032C19.3234 24.016 19.3354 23.9787 19.3474 24C19.3634 24.032 19.3834 24.0534 19.4034 24.08C19.4194 24.096 19.4034 24.1174 19.3914 24.1227C19.3754 24.128 19.3714 24.1547 19.3714 24.176L19.3634 24.24C19.3634 24.2774 19.3634 24.3094 19.3554 24.3467L19.3514 24.4427L19.3434 24.5067C19.3434 24.528 19.3434 24.5547 19.3274 24.5654C19.3154 24.576 19.2954 24.576 19.2874 24.56H19.2834ZM20.4714 24.0374L20.4194 24.1014C20.3954 24.128 20.4394 24.1387 20.4434 24.16C20.4514 24.192 20.4514 24.224 20.4514 24.256C20.4594 24.288 20.4634 24.3147 20.4594 24.3467C20.4594 24.384 20.4274 24.3734 20.4114 24.3947C20.3914 24.4054 20.3834 24.432 20.3714 24.448C20.3619 24.4748 20.3564 24.5038 20.3554 24.5334C20.3554 24.56 20.3434 24.5867 20.3554 24.608L20.3594 24.6187H20.3794L20.4394 24.6134C20.4874 24.6027 20.5394 24.6027 20.5874 24.5974L20.6754 24.5867C20.6994 24.592 20.7114 24.56 20.7114 24.5334C20.6954 24.496 20.7074 24.4587 20.6954 24.4267C20.6874 24.384 20.6914 24.3467 20.6874 24.3094C20.6874 24.2774 20.6594 24.2667 20.6474 24.288C20.6314 24.3094 20.6074 24.3147 20.5994 24.336C20.5874 24.368 20.6234 24.368 20.6314 24.3894L20.6354 24.4694C20.6394 24.5014 20.6154 24.5014 20.5954 24.5067C20.5754 24.5174 20.5474 24.5227 20.5354 24.4907C20.5274 24.464 20.5274 24.4374 20.5274 24.4107C20.5274 24.3574 20.5154 24.3147 20.5154 24.2667C20.5154 24.2134 20.5034 24.1547 20.5034 24.096C20.5034 24.0694 20.4994 24.032 20.4714 24.0374V24.0374ZM20.4474 24.4747H20.4594V24.5174L20.4474 24.5227C20.4421 24.5249 20.4368 24.5267 20.4314 24.528C20.4287 24.5282 20.426 24.5282 20.4234 24.528C20.4154 24.5174 20.4154 24.5014 20.4274 24.4854L20.4474 24.4747V24.4747ZM19.2474 23.984C19.2354 23.984 19.2154 24.0214 19.1994 24.016C19.1634 24.0214 19.1674 24.0694 19.1954 24.0854V24.128C19.1994 24.1707 19.1794 24.208 19.1834 24.2507C19.1834 24.2934 19.1714 24.3414 19.1714 24.3894C19.1594 24.4374 19.1594 24.4854 19.1554 24.5334C19.1514 24.576 19.1274 24.56 19.1074 24.5494V24.496C19.1114 24.448 19.0874 24.4374 19.0594 24.432C19.0314 24.432 19.0194 24.4054 19.0274 24.3734C19.0394 24.352 19.0674 24.3574 19.0874 24.3574C19.1274 24.368 19.1234 24.2987 19.1034 24.272C19.0874 24.24 19.0554 24.2187 19.0474 24.1867C19.0474 24.144 19.0274 24.096 18.9994 24.0747C18.9554 24.0694 18.9194 24.1174 18.9074 24.1707C18.8874 24.1707 18.8674 24.1814 18.8514 24.192C18.8234 24.2027 18.7834 24.2667 18.8234 24.2934C18.8434 24.2987 18.9114 24.32 18.8794 24.3574C18.8634 24.4 18.8314 24.4 18.8034 24.3894C18.7754 24.3894 18.7434 24.368 18.7434 24.3254C18.7394 24.2827 18.7394 24.24 18.7274 24.2027C18.7194 24.16 18.6834 24.1707 18.6794 24.2134C18.6514 24.24 18.6554 24.288 18.6754 24.32C18.6874 24.3574 18.6754 24.4054 18.6634 24.4374C18.6554 24.4907 18.6154 24.4907 18.5874 24.5014C18.5754 24.512 18.5234 24.5014 18.5434 24.5387C18.5734 24.5571 18.6069 24.5627 18.6394 24.5547C18.6714 24.5547 18.6994 24.5174 18.7194 24.48C18.7394 24.4534 18.7754 24.4694 18.8074 24.4694C18.8354 24.4694 18.8674 24.496 18.8994 24.4747C18.9074 24.448 18.9474 24.3947 18.9594 24.448C18.9594 24.496 18.9874 24.5174 19.0194 24.512C19.0554 24.512 19.0394 24.544 19.0394 24.576C19.0394 24.624 19.0674 24.6507 19.0994 24.672H19.1314C19.1594 24.656 19.1914 24.64 19.2034 24.5974C19.2154 24.56 19.2154 24.5174 19.2234 24.48C19.2314 24.4214 19.2394 24.3574 19.2394 24.2987C19.2514 24.2454 19.2474 24.1867 19.2554 24.128L19.2674 24.0054C19.2674 23.9787 19.2594 23.9787 19.2474 23.984V23.984ZM18.9794 24.2027C18.9834 24.2027 18.9874 24.2134 18.9874 24.2294C18.9874 24.2507 18.9954 24.2667 19.0074 24.272V24.288L18.9754 24.2987C18.9554 24.2987 18.9394 24.288 18.9274 24.272L18.9194 24.2614L18.9314 24.2507L18.9514 24.224C18.9634 24.208 18.9714 24.2027 18.9794 24.2027V24.2027ZM21.6194 23.7814C21.5963 23.7836 21.5736 23.7889 21.5514 23.7974C21.5114 23.7974 21.4914 23.8507 21.5314 23.8827C21.5554 23.9627 21.5914 23.8614 21.6314 23.872C21.6874 23.8827 21.6914 23.968 21.7034 24.032C21.7034 24.0907 21.7194 24.1494 21.7314 24.208C21.7714 24.2667 21.7034 24.304 21.6754 24.2614C21.6514 24.224 21.5954 24.1814 21.5674 24.2294C21.5314 24.2507 21.5274 24.3147 21.4994 24.336C21.4514 24.352 21.4474 24.272 21.4194 24.24C21.3954 24.192 21.3514 24.1867 21.3154 24.176C21.2994 24.128 21.3074 24.048 21.2754 24.016C21.2434 24.032 21.1874 24.1067 21.2354 24.144C21.2754 24.1974 21.2154 24.2187 21.1954 24.2507C21.1634 24.2987 21.1554 24.3574 21.1554 24.4107C21.1034 24.448 21.0954 24.368 21.0874 24.32C21.0874 24.2614 21.0474 24.2774 21.0194 24.2987C20.9794 24.32 20.9634 24.368 20.9394 24.4054V24.512C20.9474 24.56 20.9874 24.5387 21.0114 24.5334C21.0514 24.512 21.0674 24.5707 21.0354 24.6027C21.0114 24.6347 20.9474 24.6187 20.9554 24.6774H21.0194C21.0594 24.6614 21.1074 24.6187 21.1114 24.5547C21.1194 24.5014 21.1794 24.5067 21.2114 24.496C21.2514 24.48 21.3034 24.4747 21.3154 24.5494C21.3434 24.5867 21.4034 24.6294 21.4354 24.576C21.4506 24.5632 21.4628 24.5448 21.4706 24.5231C21.4784 24.5014 21.4814 24.4773 21.4794 24.4534C21.4754 24.4107 21.5314 24.4107 21.5474 24.4374C21.5674 24.48 21.6314 24.4694 21.6634 24.4374C21.6954 24.4107 21.7034 24.352 21.7514 24.352L21.9674 24.272C22.0234 24.256 21.9594 24.208 21.9434 24.176C21.9034 24.1494 21.8634 24.2667 21.8154 24.208C21.7754 24.1707 21.7794 24.1014 21.7674 24.0427C21.7554 23.968 21.7594 23.8827 21.7194 23.8294C21.6954 23.792 21.6554 23.7814 21.6194 23.7814V23.7814ZM21.3474 24.288C21.3514 24.288 21.3594 24.288 21.3674 24.2987C21.3834 24.3094 21.3954 24.3307 21.3954 24.352C21.3954 24.3627 21.3954 24.3627 21.3834 24.368L21.3634 24.3787C21.3554 24.3787 21.3354 24.3627 21.3354 24.352V24.3307C21.3274 24.3094 21.3274 24.3094 21.3354 24.2987L21.3474 24.288ZM21.6074 24.3094C21.6234 24.3094 21.6314 24.3094 21.6394 24.3254C21.6434 24.3467 21.6394 24.3574 21.6234 24.368L21.6034 24.3787L21.5874 24.3627C21.5794 24.3574 21.5754 24.352 21.5754 24.3414C21.5754 24.3254 21.5914 24.3094 21.6074 24.304V24.3094ZM21.2474 24.3094C21.2554 24.3094 21.2594 24.3094 21.2634 24.32C21.2714 24.3307 21.2754 24.336 21.2754 24.352V24.384C21.2754 24.4 21.2754 24.3947 21.2514 24.3947C21.2274 24.3947 21.2234 24.3947 21.2234 24.3627C21.2234 24.3414 21.2234 24.336 21.2354 24.3254C21.2394 24.3147 21.2474 24.3147 21.2514 24.3147L21.2474 24.3094ZM21.0314 24.3894C21.0351 24.3909 21.0386 24.3936 21.0414 24.3974C21.0442 24.4011 21.0462 24.4057 21.0474 24.4107C21.0474 24.4267 21.0474 24.4374 21.0394 24.4427C21.0274 24.448 21.0074 24.4534 20.9994 24.4427C20.9993 24.4409 20.9993 24.4391 20.9994 24.4374C20.9914 24.432 20.9914 24.4267 20.9994 24.4214V24.416L21.0074 24.4C21.0098 24.3948 21.0136 24.3909 21.0179 24.389C21.0223 24.3871 21.0271 24.3872 21.0314 24.3894V24.3894ZM21.3994 24.4534L21.4194 24.4587V24.4907H21.3714L21.3674 24.48C21.3674 24.4694 21.3674 24.464 21.3754 24.4587L21.3994 24.4534V24.4534ZM20.7154 24.7094C20.7114 24.7094 20.7034 24.704 20.7114 24.6987C20.7154 24.6827 20.7314 24.6774 20.7434 24.6667C20.7652 24.6556 20.7844 24.6373 20.7994 24.6134C20.7994 24.592 20.8154 24.5814 20.8154 24.56L20.8114 24.4854C20.806 24.463 20.7946 24.444 20.7794 24.432C20.7674 24.4267 20.7514 24.4214 20.7474 24.4C20.7474 24.384 20.7594 24.368 20.7634 24.352L20.7874 24.288C20.7994 24.272 20.8154 24.288 20.8194 24.2987L20.8394 24.352C20.8514 24.368 20.8594 24.384 20.8634 24.4054C20.8714 24.4267 20.8794 24.4427 20.8794 24.4587L20.8874 24.528C20.8874 24.5547 20.8874 24.5867 20.8794 24.6134L20.8554 24.656C20.8434 24.672 20.8314 24.688 20.8154 24.6934C20.8034 24.6987 20.7954 24.7147 20.7794 24.7147H20.7194L20.7154 24.7094ZM20.4394 24.7307C20.4314 24.72 20.4274 24.7147 20.4274 24.6987C20.4274 24.6827 20.4274 24.6827 20.4394 24.6667C20.4554 24.6454 20.4634 24.6454 20.4954 24.6667C20.5234 24.688 20.5354 24.688 20.5354 24.672C20.5394 24.6614 20.5554 24.6454 20.5754 24.6454C20.5828 24.6457 20.5898 24.6495 20.5954 24.656C20.6034 24.6667 20.6074 24.672 20.6074 24.6934C20.6074 24.72 20.6074 24.72 20.5954 24.736C20.5834 24.7467 20.5834 24.7467 20.5674 24.7467C20.5603 24.7462 20.5534 24.7429 20.5477 24.7372C20.542 24.7315 20.5377 24.7237 20.5354 24.7147C20.5354 24.704 20.5354 24.6987 20.5274 24.7094L20.5194 24.7147C20.5114 24.7147 20.4954 24.7307 20.4874 24.7414L20.4674 24.7467C20.4514 24.7467 20.4514 24.7467 20.4394 24.7307V24.7307ZM19.6474 24.256C19.6194 24.256 19.5914 24.288 19.5874 24.3254C19.5954 24.3627 19.6194 24.4054 19.6034 24.4427C19.6154 24.496 19.5714 24.5174 19.5434 24.4907C19.5274 24.4374 19.5194 24.384 19.4914 24.3307C19.4594 24.32 19.4474 24.3894 19.4234 24.416C19.4354 24.4534 19.4674 24.4907 19.4714 24.5387C19.4794 24.592 19.4554 24.6454 19.4274 24.6667C19.3994 24.704 19.3594 24.6934 19.3274 24.6987C19.2874 24.7307 19.3554 24.7414 19.3754 24.7414C19.4154 24.7467 19.4594 24.7414 19.4954 24.6987C19.5234 24.6827 19.5194 24.608 19.5554 24.6027L19.7474 24.6187C19.7794 24.6294 19.8314 24.6134 19.8554 24.6454C19.8554 24.6987 19.8954 24.7414 19.9314 24.7627C19.9514 24.7734 19.9714 24.736 19.9914 24.7307C20.0314 24.7147 20.0194 24.6507 20.0434 24.624H20.2434C20.2514 24.624 20.2554 24.5974 20.2674 24.5867L20.2594 24.4854C20.2474 24.4427 20.2594 24.3894 20.2394 24.352C20.2034 24.3414 20.1754 24.3787 20.1434 24.384C20.1034 24.4054 20.0754 24.4534 20.0714 24.5067C20.0514 24.5547 20.0154 24.496 20.0314 24.4534L20.0274 24.4C20.0074 24.3734 19.9714 24.384 19.9434 24.3787L19.8234 24.368C19.7834 24.368 19.7474 24.3734 19.7154 24.3627C19.6754 24.3627 19.6754 24.3094 19.6754 24.2667C19.6674 24.2586 19.6574 24.2548 19.6474 24.256V24.256ZM19.7274 24.4534L19.7674 24.4587H19.8194C19.8594 24.4694 19.8994 24.4694 19.9394 24.4694C19.9474 24.4694 19.9554 24.48 19.9634 24.4907V24.5974C19.9634 24.6134 19.9634 24.6347 19.9554 24.64C19.9533 24.6443 19.9505 24.6479 19.9474 24.6507C19.9415 24.6493 19.9359 24.6462 19.9311 24.6416C19.9263 24.637 19.9222 24.631 19.9194 24.624V24.5494C19.9114 24.5404 19.9017 24.5349 19.8914 24.5334L19.7874 24.528L19.7074 24.5227C19.6954 24.5174 19.6794 24.5227 19.6714 24.5014C19.6634 24.4907 19.6754 24.4694 19.6874 24.464C19.6999 24.4565 19.7136 24.4529 19.7274 24.4534V24.4534ZM20.1794 24.4694C20.1834 24.4694 20.1874 24.4694 20.1874 24.4854L20.1954 24.512C20.1954 24.5174 20.1954 24.5227 20.1874 24.5227C20.1674 24.5334 20.1474 24.5334 20.1394 24.5227C20.1394 24.5174 20.1394 24.496 20.1474 24.4907L20.1794 24.4694Z" fill="#C09300"/>
<path d="M19.9997 21.4507C21.3037 20.1173 21.1917 18.1547 21.1917 18.1547L21.0917 18.1653C20.8157 18.1653 20.1637 17.952 20.0117 17.6907C19.8517 17.9307 19.1797 18.1707 18.9077 18.1707L18.8077 18.1547C18.8077 18.1547 18.6917 20.112 19.9997 21.4507Z" fill="white"/>
<path fill-rule="evenodd" clip-rule="evenodd" d="M20.0125 17.6448L20.0287 17.6727C20.0636 17.7326 20.1291 17.7925 20.2151 17.8488C20.3005 17.9046 20.4036 17.9552 20.5111 17.9979C20.7261 18.0833 20.9553 18.1358 21.0905 18.136L21.2116 18.1231L21.2133 18.1525L21.1913 18.1547C21.2133 18.1525 21.2133 18.1524 21.2133 18.1525L21.2133 18.1529L21.2134 18.1541L21.2136 18.1586C21.2138 18.1625 21.214 18.1682 21.2143 18.1757C21.2148 18.1907 21.2153 18.2128 21.2156 18.2413C21.2161 18.2982 21.2154 18.3808 21.2104 18.4841C21.2005 18.6905 21.1735 18.9795 21.1056 19.3104C20.9696 19.9724 20.6694 20.8025 20.0127 21.474L19.9993 21.4877L19.986 21.474C19.3273 20.7999 19.0271 19.9698 18.8916 19.3084C18.8239 18.9778 18.7973 18.6893 18.7877 18.4833C18.7829 18.3802 18.7823 18.2978 18.7829 18.241C18.7832 18.2126 18.7838 18.1906 18.7844 18.1756C18.7847 18.1681 18.7849 18.1624 18.7851 18.1585L18.7853 18.154L18.7854 18.1528L18.7854 18.1525L18.7854 18.1524C18.7854 18.1524 18.7854 18.1524 18.8073 18.1547L18.7854 18.1524L18.7872 18.1219L18.9087 18.1414C19.0417 18.141 19.2745 18.082 19.4949 17.9926C19.6053 17.9479 19.7117 17.8959 19.8002 17.8404C19.8894 17.7845 19.958 17.7266 19.9949 17.6712L20.0125 17.6448ZM18.828 18.1875C18.8276 18.2013 18.8272 18.2195 18.8269 18.2418C18.8263 18.2973 18.8269 18.3782 18.8316 18.4796C18.8411 18.6824 18.8673 18.9669 18.9341 19.293C19.0667 19.9405 19.3593 20.7516 19.9994 21.4136C20.6374 20.7542 20.93 19.9431 21.0631 19.2949C21.1302 18.9685 21.1567 18.6835 21.1665 18.4803C21.1714 18.3787 21.1721 18.2976 21.1716 18.242C21.1714 18.2189 21.171 18.2002 21.1706 18.1863L21.0922 18.1947H21.0913C20.9504 18.1947 20.7162 18.1406 20.4986 18.0541C20.3896 18.0108 20.284 17.9591 20.1957 17.9014C20.1187 17.8511 20.053 17.795 20.0103 17.7341C19.9657 17.7901 19.8981 17.8439 19.819 17.8935C19.728 17.9505 19.6194 18.0035 19.5077 18.0488C19.285 18.1391 19.0465 18.2 18.9073 18.2H18.906L18.828 18.1875Z" fill="#C09300"/>
<path d="M21.0881 18.2933H21.0561C20.8081 18.2933 20.2321 18.128 20.0081 17.872C19.7761 18.1067 19.1881 18.2987 18.9441 18.2987C18.9333 18.2981 18.9226 18.2963 18.9121 18.2933C18.9143 18.6304 18.9493 18.9656 19.0161 19.2907C19.1765 20.0738 19.5215 20.7675 20.0001 21.2693C20.479 20.7656 20.8239 20.0701 20.9841 19.2853C21.0506 18.962 21.0856 18.6286 21.0881 18.2933V18.2933Z" fill="white"/>
<path fill-rule="evenodd" clip-rule="evenodd" d="M20.0087 17.8412L20.0197 17.8538C20.1285 17.9781 20.3251 18.0823 20.5277 18.1555C20.7298 18.2285 20.9341 18.2693 21.056 18.2693H21.088V18.2933L21.106 18.2936C21.1034 18.6309 21.0683 18.9664 21.0014 19.2917C20.8401 20.0814 20.493 20.7812 20.0111 21.2882L20 21.2999L19.9889 21.2882C19.5072 20.7832 19.1601 20.0851 18.9986 19.297C18.9314 18.97 18.8962 18.6327 18.894 18.2935L18.8938 18.2636L18.9157 18.2699C18.9252 18.2725 18.9347 18.2742 18.9443 18.2747C19.064 18.2746 19.27 18.2273 19.4756 18.1502C19.6818 18.073 19.884 17.9673 19.9971 17.8529L20.0087 17.8412ZM21.0698 18.3173H21.056C20.9299 18.3173 20.7222 18.2755 20.5183 18.2018C20.3212 18.1307 20.1242 18.0286 20.0073 17.9025C19.8869 18.0181 19.6857 18.1214 19.4854 18.1964C19.2782 18.274 19.0684 18.3227 18.944 18.3227H18.9433L18.9433 18.3227C18.9389 18.3224 18.9346 18.322 18.9303 18.3214C18.9341 18.6469 18.9688 18.9704 19.0334 19.2843L19.0334 19.2844C19.1915 20.0564 19.5302 20.741 20 21.2387C20.47 20.7391 20.8087 20.0528 20.9666 19.279L20.9666 19.279C21.0311 18.9654 21.0658 18.6424 21.0698 18.3173Z" fill="#C09300"/>
<path d="M19.5761 18.1334C19.3613 18.2266 19.1379 18.2805 18.9121 18.2934L18.9161 18.512C18.9298 18.7736 18.9633 19.0327 19.0161 19.2854C19.1236 19.8099 19.3146 20.2974 19.5761 20.7147V18.1334ZM20.4001 18.1334V20.7574C20.6742 20.3304 20.8737 19.8277 20.9841 19.2854C21.0369 19.0327 21.0704 18.7736 21.0841 18.512L21.0881 18.2987H21.0561C20.9041 18.2987 20.6401 18.2347 20.4001 18.128V18.1334Z" fill="#C09300"/>
<path d="M20.4917 17.4933C20.5197 17.4987 20.4557 17.3067 20.4557 17.3067C20.5277 17.4027 20.7917 17.4293 20.7917 17.4293C20.6317 17.3333 20.4717 16.624 20.4917 16.0533C20.5077 15.488 20.4317 15.264 20.3717 15.1787C20.2917 15.072 20.0317 14.976 19.8637 14.9653C19.7637 14.96 19.7837 15.0613 19.7837 15.0613C19.6037 15.0027 19.4237 14.976 19.3437 15.0507C19.2717 15.1147 19.2557 15.4507 19.3117 15.392C19.4437 15.248 19.5597 15.3813 19.6397 15.536C19.7117 15.6693 19.7077 16.0533 19.6037 16.5067C19.5116 16.8494 19.3764 17.1686 19.2037 17.4507C19.3637 17.4507 19.5877 17.264 19.5877 17.264L19.5357 17.5573C19.7037 17.4507 19.8357 17.2853 19.8357 17.2853L19.9957 17.5093C20.0477 17.4133 20.1557 17.2853 20.1557 17.2853C20.1557 17.2853 20.2877 17.472 20.4917 17.4987V17.4933Z" fill="white"/>
<path fill-rule="evenodd" clip-rule="evenodd" d="M19.7978 14.9499C19.8149 14.9376 19.837 14.9319 19.8648 14.9334L19.865 14.9334C19.9514 14.9389 20.0604 14.9661 20.1578 15.0054C20.2066 15.025 20.2531 15.0479 20.2927 15.0729C20.3319 15.0977 20.366 15.1256 20.3889 15.156L20.3891 15.1564L20.3894 15.1568C20.4563 15.2519 20.5319 15.4872 20.5159 16.0545L20.5159 16.0548C20.506 16.3361 20.5406 16.6526 20.5974 16.9103C20.6258 17.0392 20.6596 17.1523 20.6957 17.2385C20.7323 17.3262 20.7692 17.3806 20.8017 17.4002L20.7901 17.4612L20.7919 17.4293C20.7901 17.4612 20.7901 17.4612 20.7901 17.4612L20.79 17.4612L20.7898 17.4612L20.7892 17.4612L20.7869 17.4609C20.7849 17.4607 20.7819 17.4603 20.7782 17.4599C20.7707 17.4589 20.7599 17.4575 20.7467 17.4555C20.7205 17.4514 20.6847 17.445 20.6465 17.4355C20.6084 17.426 20.5674 17.4133 20.531 17.3966C20.5221 17.3926 20.5134 17.3882 20.5049 17.3835C20.5056 17.3861 20.5063 17.3887 20.507 17.3914C20.5133 17.4153 20.5193 17.4411 20.5218 17.4614C20.5229 17.4707 20.5239 17.4834 20.5216 17.4949C20.5207 17.4993 20.5191 17.5051 20.5159 17.5106V17.534L20.4895 17.5305C20.3827 17.5165 20.295 17.4608 20.2344 17.4089C20.2041 17.383 20.1803 17.3579 20.164 17.3391C20.1609 17.3356 20.1581 17.3322 20.1555 17.3291C20.1552 17.3295 20.1548 17.3299 20.1545 17.3303C20.1437 17.3437 20.1288 17.3624 20.1122 17.3841C20.0789 17.4279 20.0401 17.4824 20.0153 17.5281L19.9984 17.5593L19.8346 17.3299C19.8326 17.3321 19.8305 17.3346 19.8283 17.3371C19.813 17.3546 19.7908 17.379 19.7634 17.4068C19.7086 17.4623 19.6322 17.5316 19.5462 17.5862L19.501 17.6149L19.5518 17.3287C19.5289 17.3454 19.4993 17.3659 19.4659 17.3864C19.3895 17.4333 19.2894 17.4827 19.2039 17.4827H19.1533L19.1853 17.4304C19.3561 17.1514 19.4899 16.8356 19.5811 16.4966C19.6325 16.2723 19.659 16.066 19.6639 15.9001C19.6664 15.817 19.6634 15.7447 19.6556 15.6857C19.6478 15.6262 19.6354 15.5825 19.6204 15.5547L19.6201 15.5542C19.5808 15.4782 19.5348 15.412 19.4852 15.381C19.4609 15.3658 19.4361 15.3593 19.4107 15.3637C19.3852 15.3682 19.3573 15.3838 19.3271 15.4168L19.3267 15.4172C19.3159 15.4285 19.2991 15.4375 19.2822 15.4245C19.2689 15.4142 19.2631 15.395 19.2601 15.3813C19.2536 15.3513 19.2529 15.308 19.256 15.2643C19.2591 15.2198 19.2665 15.1709 19.2781 15.1284C19.2892 15.0874 19.3058 15.0462 19.3303 15.0243C19.3773 14.9806 19.4492 14.9693 19.5275 14.974C19.5984 14.9783 19.6788 14.9961 19.7596 15.0208C19.7605 15.0139 19.7619 15.0067 19.7641 14.9993C19.7698 14.9807 19.7803 14.9625 19.7978 14.9499ZM19.5752 17.2369L19.6247 17.1956L19.5712 17.4975C19.6347 17.4516 19.6912 17.3995 19.7344 17.3559C19.7609 17.329 19.7823 17.3054 19.797 17.2886C19.8043 17.2802 19.81 17.2734 19.8138 17.2689C19.8157 17.2666 19.8172 17.2648 19.8181 17.2637L19.8192 17.2624L19.8195 17.262M19.5752 17.2369L19.5751 17.237L19.5746 17.2373L19.5728 17.2388C19.5712 17.2401 19.5688 17.242 19.5657 17.2445C19.5594 17.2495 19.5502 17.2566 19.5387 17.2652C19.5156 17.2824 19.4831 17.3054 19.4458 17.3283C19.3877 17.364 19.3197 17.3983 19.2576 17.4122C19.4152 17.142 19.5398 16.84 19.6265 16.5175L19.6267 16.5168L19.6268 16.516C19.6793 16.2872 19.7068 16.0752 19.7119 15.9026C19.7144 15.8163 19.7114 15.7393 19.7029 15.6746C19.6945 15.6106 19.6804 15.5564 19.6595 15.5176C19.6188 15.439 19.5669 15.3613 19.5056 15.323C19.4744 15.3036 19.4404 15.294 19.4045 15.3003C19.3714 15.306 19.3382 15.3249 19.3052 15.3583C19.302 15.3391 19.3011 15.3077 19.3038 15.2703C19.3066 15.2302 19.3133 15.1867 19.3232 15.1502C19.3335 15.1121 19.3458 15.0874 19.3572 15.0773L19.3576 15.0769C19.3907 15.046 19.4487 15.0334 19.5253 15.038C19.6006 15.0425 19.689 15.0633 19.7782 15.0924L19.8174 15.1052L19.8071 15.0534C19.8071 15.0534 19.8071 15.0534 19.8071 15.0533C19.8071 15.0531 19.807 15.0525 19.8069 15.0516C19.8067 15.0499 19.8064 15.0473 19.8063 15.0442C19.8061 15.0376 19.8066 15.03 19.8086 15.0234C19.8105 15.0173 19.8137 15.0112 19.8206 15.0063C19.8279 15.001 19.8407 14.9961 19.8628 14.9973C19.9445 15.0025 20.0495 15.0286 20.1439 15.0666C20.1911 15.0856 20.2352 15.1074 20.2721 15.1308C20.3092 15.1542 20.3375 15.1782 20.3546 15.2009C20.4077 15.2768 20.4838 15.4897 20.4679 16.052C20.4578 16.3413 20.4932 16.6648 20.5514 16.9284C20.5804 17.0602 20.6154 17.1781 20.6537 17.2697C20.6722 17.3138 20.6919 17.3531 20.7128 17.3851" fill="#C09300"/>
<path fill-rule="evenodd" clip-rule="evenodd" d="M19.9617 16.11L19.9877 16.112C20.0136 16.1141 20.0136 16.1141 20.0136 16.1141L20.0135 16.1167L20.0132 16.1243C20.0128 16.131 20.0123 16.1408 20.0117 16.1533C20.0104 16.1783 20.0084 16.2144 20.0056 16.2585C20.0001 16.3467 19.9915 16.4674 19.9795 16.597C19.9674 16.7265 19.9518 16.8654 19.9321 16.9899C19.9125 17.1137 19.8885 17.2264 19.8587 17.3015L19.8127 17.2692C19.8389 17.203 19.8618 17.0984 19.8812 16.9756C19.9005 16.8537 19.9159 16.7169 19.9279 16.5884C19.9398 16.46 19.9483 16.3403 19.9538 16.2527C19.9565 16.2089 19.9585 16.1732 19.9598 16.1484C19.9605 16.136 19.9609 16.1264 19.9613 16.1199L19.9616 16.1124L19.9617 16.11ZM19.8179 16.1341L19.8437 16.1387C19.8695 16.1433 19.8695 16.1433 19.8694 16.1433L19.8694 16.144L19.8692 16.1459L19.8684 16.1534C19.8677 16.16 19.8667 16.1696 19.8653 16.1819C19.8625 16.2065 19.8584 16.2418 19.8529 16.285C19.842 16.3712 19.8257 16.4889 19.804 16.6145C19.7824 16.7399 19.7554 16.8737 19.723 16.9921C19.6909 17.1094 19.6525 17.2155 19.6069 17.2821L19.5685 17.2353C19.6069 17.1792 19.6425 17.0839 19.6741 16.9683C19.7055 16.8537 19.732 16.7229 19.7533 16.5989C19.7747 16.4751 19.7909 16.3588 19.8017 16.2734C19.8071 16.2307 19.8111 16.1958 19.8139 16.1716C19.8152 16.1595 19.8162 16.1501 19.8169 16.1437L19.8177 16.1365L19.8179 16.1347L19.8179 16.1341ZM20.0857 16.1494C20.0857 16.1494 20.0857 16.1494 20.1117 16.1494C20.1377 16.1494 20.1377 16.1494 20.1377 16.1494L20.1377 16.1602C20.1377 16.1674 20.1377 16.1778 20.1378 16.1913C20.1378 16.2181 20.138 16.2566 20.1383 16.3033C20.1389 16.3968 20.1402 16.5231 20.1427 16.6545C20.1452 16.786 20.1489 16.9223 20.1545 17.0358C20.1573 17.0926 20.1605 17.1434 20.1643 17.1849C20.1681 17.2271 20.1723 17.2575 20.1764 17.2747L20.1269 17.296C20.1211 17.2719 20.1165 17.2358 20.1127 17.1932C20.1088 17.15 20.1054 17.0978 20.1026 17.0404C20.097 16.9254 20.0932 16.7881 20.0907 16.6562C20.0882 16.5243 20.0869 16.3976 20.0863 16.3039C20.086 16.2571 20.0858 16.2184 20.0858 16.1915C20.0857 16.1781 20.0857 16.1675 20.0857 16.1604L20.0857 16.1494ZM20.2457 16.1992C20.2457 16.1992 20.2457 16.1992 20.2717 16.1974L20.2976 16.1955L20.2977 16.1961L20.2977 16.1978L20.298 16.2045C20.2983 16.2105 20.2987 16.2193 20.2993 16.2306C20.3005 16.2533 20.3023 16.2861 20.305 16.3264C20.3103 16.407 20.319 16.5174 20.3324 16.6369C20.3458 16.7564 20.3639 16.8845 20.3879 17.0004C20.412 17.1169 20.4416 17.2185 20.4771 17.287L20.4343 17.3264C20.3938 17.2482 20.3624 17.1378 20.3377 17.0188C20.313 16.8993 20.2946 16.7683 20.281 16.6471C20.2674 16.5259 20.2586 16.4141 20.2532 16.3325C20.2505 16.2917 20.2486 16.2584 20.2474 16.2354C20.2468 16.2238 20.2464 16.2148 20.2461 16.2087L20.2458 16.2016L20.2457 16.1998L20.2457 16.1992Z" fill="#C09300"/>
<path d="M19.6795 15.712C19.6759 15.6502 19.6623 15.5901 19.6395 15.536C19.5595 15.376 19.4435 15.248 19.3115 15.392C19.3115 15.392 19.3555 15.2053 19.4555 15.2C19.5275 15.1947 19.6995 15.2747 19.8515 15.616C19.8515 15.616 19.7395 15.584 19.7115 15.616C19.6635 15.6693 19.6835 15.712 19.6835 15.712H19.6795Z" fill="#C09300"/>
<path fill-rule="evenodd" clip-rule="evenodd" d="M19.8396 15.6048C19.69 15.278 19.5239 15.203 19.456 15.208L19.4559 15.208C19.4089 15.2105 19.3744 15.2558 19.3512 15.3024C19.3397 15.3256 19.3312 15.3486 19.3256 15.3659C19.3253 15.3669 19.325 15.3679 19.3247 15.3688C19.3526 15.3429 19.3799 15.3283 19.4065 15.3233C19.4385 15.3174 19.469 15.3252 19.4977 15.3427C19.5547 15.3777 19.6045 15.4512 19.6447 15.5316L19.6449 15.5321C19.6611 15.5706 19.6728 15.6122 19.6796 15.6552C19.6847 15.6413 19.6934 15.6259 19.7078 15.6099C19.7164 15.6001 19.7303 15.5961 19.7449 15.5945C19.7598 15.593 19.7768 15.594 19.7927 15.5961C19.8087 15.5981 19.8237 15.6011 19.8347 15.6036C19.8365 15.604 19.8381 15.6044 19.8396 15.6048ZM19.6888 15.7078L19.6887 15.7077C19.6886 15.7075 19.6885 15.7071 19.6883 15.7066C19.688 15.7057 19.6875 15.7042 19.687 15.7021C19.6861 15.6981 19.6852 15.6921 19.6857 15.6846C19.6865 15.6699 19.6925 15.6477 19.7155 15.6222L19.7156 15.6221C19.721 15.6159 19.7315 15.612 19.7458 15.6105C19.7598 15.609 19.776 15.61 19.7916 15.612C19.8072 15.614 19.8219 15.6169 19.8327 15.6194C19.8381 15.6206 19.8426 15.6218 19.8457 15.6226C19.8472 15.623 19.8484 15.6233 19.8492 15.6235L19.8501 15.6238L19.8503 15.6238L19.8504 15.6238L19.8638 15.6277L19.8568 15.6119C19.7042 15.2691 19.5304 15.1865 19.4554 15.192C19.4025 15.1949 19.365 15.2456 19.3412 15.2936C19.3292 15.3178 19.3204 15.3417 19.3146 15.3596C19.3117 15.3686 19.3096 15.376 19.3081 15.3812C19.3074 15.3839 19.3069 15.3859 19.3065 15.3874L19.3061 15.389L19.306 15.3894L19.306 15.3896C19.306 15.3896 19.3059 15.3896 19.3117 15.392L19.306 15.3896L19.2999 15.4152L19.3155 15.3982C19.3478 15.363 19.3788 15.3447 19.4082 15.3392C19.4376 15.3337 19.4658 15.3408 19.4927 15.3573C19.5466 15.3903 19.5948 15.4607 19.6346 15.5402C19.6568 15.5932 19.6702 15.652 19.6737 15.7126L19.6741 15.72H19.6945L19.6888 15.7078C19.6888 15.7078 19.6888 15.7078 19.6888 15.7078Z" fill="#C09300"/>
<path d="M19.2958 15.1627C19.3078 15.1093 19.3238 15.0667 19.3478 15.0507C19.4278 14.976 19.6038 14.9973 19.7838 15.0613C19.7838 15.0613 19.7678 14.96 19.8638 14.9653C20.0318 14.976 20.2878 15.072 20.3678 15.1787C20.3934 15.2162 20.4137 15.2595 20.4278 15.3067C20.3878 15.232 20.2758 15.2373 20.2478 15.2427C20.2078 15.248 20.1798 15.2427 20.1238 15.264C20.0958 15.2747 20.0558 15.2853 20.0318 15.3067C20.0158 15.328 19.9998 15.392 19.9758 15.392C19.9358 15.392 19.9358 15.3813 19.9238 15.3653C19.9118 15.3387 19.9038 15.3067 19.8878 15.312C19.8478 15.3173 19.7758 15.2747 19.6878 15.1787C19.5958 15.0827 19.5598 15.0613 19.4478 15.072C19.3278 15.0827 19.2958 15.1733 19.2958 15.1733V15.1627V15.1627Z" fill="#C09300"/>
<path fill-rule="evenodd" clip-rule="evenodd" d="M19.7889 15.0597L19.7889 15.0596L19.7888 15.0589C19.7887 15.0583 19.7886 15.0573 19.7885 15.0561C19.7883 15.0536 19.7881 15.0499 19.7881 15.0456C19.7881 15.0369 19.789 15.0255 19.7926 15.0145C19.7961 15.0037 19.8022 14.9929 19.8129 14.9851C19.8237 14.9773 19.8396 14.9721 19.8628 14.9733C19.9462 14.9786 20.0517 15.0052 20.1463 15.0437C20.1936 15.0629 20.2381 15.0851 20.2756 15.1091C20.3132 15.133 20.3434 15.1585 20.3627 15.1842C20.3808 15.2108 20.3963 15.2403 20.4086 15.2721C20.387 15.2524 20.3594 15.242 20.3335 15.2368C20.2964 15.2293 20.2609 15.232 20.2463 15.2347C20.2464 15.2347 20.2464 15.2347 20.2465 15.2347L20.2471 15.2427L20.2462 15.2348C20.2463 15.2348 20.2463 15.2348 20.2463 15.2347M19.9278 15.3604C19.9255 15.3552 19.9234 15.3499 19.9212 15.3444C19.9208 15.3434 19.9203 15.3423 19.9199 15.3412C19.9172 15.3346 19.9145 15.3279 19.9115 15.3222C19.9086 15.3165 19.9051 15.3111 19.9009 15.3076C19.8966 15.304 19.8916 15.3024 19.8861 15.3041C19.8677 15.3064 19.8411 15.2978 19.8077 15.2762C19.7742 15.2545 19.7346 15.2202 19.6909 15.1725L19.6909 15.1725L19.6908 15.1724C19.6448 15.1244 19.6121 15.0943 19.5765 15.0778C19.5409 15.0613 19.5029 15.0587 19.4467 15.064C19.3855 15.0695 19.3463 15.0954 19.3224 15.1204C19.3165 15.1265 19.3116 15.1325 19.3075 15.1382C19.3118 15.1227 19.3165 15.1087 19.3217 15.0967C19.3299 15.0781 19.3392 15.0649 19.3497 15.0578L19.3501 15.0576L19.3505 15.0572C19.3888 15.0215 19.4511 15.008 19.5273 15.012C19.6032 15.016 19.6918 15.0372 19.7815 15.0691L19.7909 15.0724L19.7889 15.0597L19.7889 15.0597L19.7889 15.0597M19.3011 15.1639C19.3031 15.1549 19.3052 15.1463 19.3075 15.1382C19.3032 15.1441 19.2998 15.1495 19.2971 15.1542C19.2955 15.1571 19.2942 15.1597 19.2931 15.1619L19.2893 15.1604C19.2954 15.1334 19.3025 15.1087 19.3114 15.0886C19.3201 15.0688 19.3307 15.0528 19.344 15.0438C19.3439 15.0439 19.3437 15.044 19.3436 15.0441L19.3471 15.0507L19.3444 15.0435C19.3442 15.0436 19.3441 15.0437 19.344 15.0438C19.3857 15.0052 19.4512 14.992 19.5278 14.996C19.6025 14.9999 19.6888 15.0202 19.7762 15.0506C19.7763 15.0535 19.7764 15.056 19.7766 15.058C19.7767 15.0595 19.7769 15.0607 19.777 15.0616L19.7771 15.0626L19.7772 15.0629L19.7772 15.0629L19.7772 15.063L19.7772 15.063C19.7772 15.063 19.7772 15.063 19.7831 15.0614L19.7846 15.0536C19.7818 15.0526 19.779 15.0516 19.7762 15.0506C19.7761 15.0491 19.7761 15.0474 19.7761 15.0456C19.7761 15.0355 19.7771 15.0218 19.7816 15.0082C19.786 14.9944 19.7939 14.9808 19.8072 14.9711C19.8204 14.9615 19.8386 14.956 19.8633 14.9574L19.8633 14.9574V14.9574C19.9479 14.9627 20.0544 14.9896 20.1498 15.0284C20.1975 15.0478 20.2426 15.0703 20.2808 15.0946C20.3189 15.119 20.3506 15.1454 20.3713 15.173L20.3715 15.1733L20.3715 15.1733C20.3976 15.2115 20.4183 15.2557 20.4326 15.3037L20.4222 15.3113C20.4037 15.2768 20.3678 15.2599 20.3317 15.2526C20.2958 15.2454 20.2614 15.248 20.2479 15.2506L20.2477 15.2507L20.2477 15.2507C20.2358 15.2522 20.2252 15.2529 20.2147 15.2536C20.1889 15.2552 20.1641 15.2567 20.1247 15.2717C20.1187 15.274 20.1123 15.2762 20.1058 15.2785C20.0966 15.2817 20.087 15.2851 20.0773 15.289C20.0612 15.2955 20.0461 15.3031 20.0349 15.3129C20.0316 15.3175 20.028 15.3245 20.0241 15.3332C20.0226 15.3363 20.0211 15.3397 20.0196 15.3432C20.0168 15.3493 20.014 15.3557 20.0111 15.3617C20.0065 15.3712 20.0015 15.3805 19.9958 15.3876C19.9901 15.3946 19.9832 15.4 19.9751 15.4C19.9549 15.4 19.9436 15.3974 19.9357 15.3917C19.9317 15.3888 19.9288 15.3854 19.9263 15.3818C19.9251 15.3801 19.9241 15.3787 19.9232 15.3772C19.9219 15.3753 19.9206 15.3734 19.9188 15.371L19.9183 15.3703L19.9179 15.3695C19.9153 15.3637 19.9129 15.3576 19.9106 15.3519C19.9102 15.3509 19.9098 15.3498 19.9093 15.3488C19.9066 15.3421 19.9042 15.3362 19.9016 15.3312C19.899 15.3262 19.8967 15.3229 19.8946 15.3211C19.8926 15.3195 19.8908 15.319 19.8885 15.3198L19.8881 15.3199L19.8877 15.32C19.866 15.3229 19.8368 15.3128 19.8024 15.2906C19.7679 15.2682 19.7276 15.2332 19.6833 15.1849C19.6373 15.137 19.606 15.1084 19.5726 15.0929C19.5393 15.0774 19.5032 15.0747 19.4475 15.08L19.4475 15.08C19.3886 15.0852 19.3518 15.11 19.3298 15.133C19.3187 15.1445 19.3113 15.1557 19.3067 15.1638C19.3044 15.1679 19.3028 15.1712 19.3018 15.1735C19.3013 15.1746 19.301 15.1755 19.3008 15.1761L19.3005 15.1767L19.3005 15.1768C19.3005 15.1768 19.3005 15.1768 19.3005 15.1768L19.2891 15.1734V15.1627H19.2927C19.2929 15.1624 19.293 15.1622 19.2931 15.1619L19.2951 15.1627M19.4467 15.064C19.4466 15.064 19.4466 15.064 19.4466 15.064L19.4471 15.072L19.4467 15.064C19.4467 15.064 19.4467 15.064 19.4467 15.064ZM19.8861 15.3041C19.8859 15.3042 19.8858 15.3042 19.8856 15.3043L19.8871 15.312L19.8865 15.3041C19.8863 15.3041 19.8862 15.3041 19.8861 15.3041ZM19.9278 15.3604C19.928 15.3607 19.9281 15.361 19.9282 15.3612L19.9231 15.3654L19.9273 15.3597C19.9275 15.3599 19.9277 15.3602 19.9278 15.3604Z" fill="#C09300"/>
<path d="M19.9514 15.3013C19.978 15.3013 19.9994 15.2727 19.9994 15.2373C19.9994 15.202 19.978 15.1733 19.9514 15.1733C19.9249 15.1733 19.9034 15.202 19.9034 15.2373C19.9034 15.2727 19.9249 15.3013 19.9514 15.3013Z" fill="white"/>
</g>
<rect x="2" y="2" width="36" height="36" rx="18" stroke="white" stroke-width="4"/>
<defs>
<clipPath id="clip0_90_27946">
<rect x="4" y="4" width="32" height="32" rx="16" fill="white"/>
</clipPath>
</defs>
</svg>
