<svg width="40" height="40" viewBox="0 0 40 40" fill="none" xmlns="http://www.w3.org/2000/svg">
<g clip-path="url(#clip0_90_27931)">
<path fill-rule="evenodd" clip-rule="evenodd" d="M4 4H36V36H4V4Z" fill="#BE0027"/>
<path fill-rule="evenodd" clip-rule="evenodd" d="M4 36L36 35.98V20L4 36Z" fill="#B4D7F4"/>
<path fill-rule="evenodd" clip-rule="evenodd" d="M4 4L36 4.02V20L4 4Z" fill="#239E46"/>
<path fill-rule="evenodd" clip-rule="evenodd" d="M13.3096 28.0267C12.7746 28.2267 12.4696 28.78 12.4746 29.3L15.1146 29.2867C15.1346 28.7267 14.7896 28.2067 14.2646 28C16.8446 27.9333 19.0846 26.64 19.4946 25.8133C19.0946 25.58 18.6246 25.9533 18.2946 25.8667C19.0796 25.38 21.4446 23.34 21.0596 21.1533C20.7596 22.3667 19.8596 23.3733 19.4696 23.6467C20.3546 21.86 21.5596 19.9933 20.5146 18.5533C20.5646 19.3867 20.1146 20.3067 19.9146 20.38C20.4296 18.4867 20.9146 16.1133 19.8096 14.5533C19.9546 15.12 19.8946 16.7133 19.6946 16.7867C19.6346 15.5 19.4696 12.8 18.4546 12.8333C18.7746 13.22 18.9146 14.26 18.9246 15.3133C18.7183 14.5843 18.3503 13.9564 17.8696 13.5133C17.3679 12.3563 16.6539 11.3882 15.7946 10.7C15.8846 11.5467 15.9596 12.2133 16.8446 13.0933C16.3846 13.0533 15.9246 11.8867 15.4296 11.8533C15.0346 11.8267 14.7296 12.3267 14.0846 12.04C14.1546 12.32 14.4546 12.4467 14.5196 12.6533C14.3796 12.7867 14.0546 12.6333 13.7846 12.4533C14.1596 13.12 14.7346 13.52 15.2246 13.3867C15.8096 13.24 16.4346 13.32 17.0346 13.7733C16.6645 13.8766 16.2834 13.8902 15.9096 13.8133C16.2546 14.28 16.4846 14.5933 17.0896 14.5867C17.6246 14.5867 17.9096 14.2 18.0446 14.44C18.3846 14.9733 18.6096 15.5067 18.8946 16.1333C18.2696 16.22 18.4596 15.1933 17.7646 14.6667C17.3696 15.7333 18.2146 17.0133 18.7796 17.5467C18.7636 18.2754 18.8857 18.9976 19.1346 19.6467C19.3096 20.08 19.5346 20.5267 19.4496 21.5067C19.1046 21.1733 18.7746 20.0533 18.8996 19.1667C18.4696 19.32 18.2996 20.3267 18.4996 20.8333C18.6496 21.2133 18.7496 21.9533 18.5796 22.28C18.4096 22.5867 18.3946 22.5467 18.3946 23.2133C18.3996 23.6 18.2346 24.0667 17.9696 24.3933C18.0472 24.0522 18.066 23.6922 18.0246 23.34C17.8146 23.82 17.2796 24.3133 17.1146 24.8333C16.9496 25.3467 16.9096 26.2467 16.1146 26.4533C15.0846 26.72 14.7296 26.96 14.0746 27.32C13.9996 26.6533 14.2196 25.2533 14.6396 25.34C15.0446 25.4333 16.2896 24.7667 15.8396 23.3733C15.7546 23.8133 15.4646 24.24 15.1446 24.26C15.4896 23.6733 16.0946 23.06 15.7996 22.0733C15.621 22.5703 15.3379 22.9872 14.9846 23.2733C15.4046 22.2067 15.0346 21.8733 14.5346 22.7667C14.3446 23.1067 14.2296 23.7933 14.1096 24.6667C13.9096 23.96 13.9246 23.0267 13.6896 22.2667C13.4496 21.4467 14.0146 21.2333 14.2796 21.3C14.9296 21.5333 16.0246 21.5333 15.9446 20.0933C15.6596 20.58 15.1696 20.7267 14.6346 20.56C15.2346 19.9733 15.7046 18.8733 15.0346 18.2933C15.0047 18.6335 14.9118 18.9585 14.7643 19.2389C14.6168 19.5194 14.4193 19.7466 14.1896 19.9C14.0823 19.359 14.0771 18.791 14.1746 18.2467C13.9146 18.62 13.7246 19.38 13.5696 20.26C13.5546 19.3933 13.6796 18.7733 13.7696 18.3067C13.9096 17.6333 14.2496 18.0733 14.7696 18.12C15.2796 18.16 15.9696 17.7867 15.8396 16.8733C15.6696 17.24 15.3146 17.38 14.9546 17.34C15.3896 16.9867 16.1446 16.3667 15.7296 15.4067C15.5546 15.7667 15.4996 16.0733 14.9946 16.1867C15.1246 15.7867 15.1446 15.2067 15.5446 14.9867C14.8446 14.7933 14.4446 15.4067 14.2346 16.3667C14.1546 15.7 14.0546 15.46 14.0346 14.9667C14.4146 14.4133 14.4546 13.3133 13.6346 13.0733C13.5809 13.4606 13.6015 13.8596 13.6946 14.2333C13.3096 13.9267 12.7696 13.76 12.4046 14.1867C12.6546 14.54 13.0296 14.8533 13.6146 14.4667C13.4746 15.0667 13.1146 14.9667 12.6246 14.7333C12.9246 15.4867 13.3046 15.62 13.7246 15.5333C13.9446 16.3067 13.9546 16.8933 13.3096 18.0133C13.3396 17.32 13.3046 16.8 12.8896 16.2333C12.5296 15.7667 12.2396 16.2533 12.7996 17.2867C12.4596 16.9533 12.0796 16.2867 11.9646 15.6133C11.8546 16.44 11.9546 17.42 12.2996 17.9733C12.1346 18.2067 11.9496 17.9467 11.6746 17.3733C11.7746 19.2 12.3596 19.5533 13.1446 19.1467C13.1646 20.1467 13.1646 21.0733 13.2096 22.28C12.7546 21.4 12.1746 20.7467 11.8546 20.5867C11.7546 21.0733 12.1296 21.72 12.3446 22.0733C12.0196 21.98 11.3196 21.2733 11.3196 21.2733C11.2496 22.08 12.0346 22.8333 12.5446 23.1667C11.9446 23.1333 11.6796 22.8333 11.2946 22.34C11.3046 24.5933 13.1246 24.2 13.4696 23.8533L13.6196 27.3533C13.1046 27.2333 13.1446 27.02 12.7046 26.9733C11.4796 26.9067 10.5096 25.0133 10.1896 23.62C10.0946 23.8467 10.1696 24.0867 10.0846 24.3733C9.88463 23.6867 9.63463 22.8 9.28963 22.3867C9.37963 22.7867 9.38963 23.1933 9.35963 23.94C9.23963 23.46 9.13463 23.3067 9.12463 22.74C9.12963 22.3067 9.43963 21.9867 9.42463 21.3733C9.40963 20.9267 9.10463 19.9533 9.05963 19.2067C8.90963 19.98 8.81963 20.7933 8.58963 21.2733C8.70463 20.4467 8.66963 19.8733 8.85963 19.32C9.07963 18.74 9.26463 18.2133 9.11963 17.6267C8.97963 17.8533 9.02463 18.06 8.66963 18.6133C8.59463 18.0133 9.12963 17.0467 9.64963 16.66C10.0146 16.4067 10.4746 15.4867 10.1746 14.86C9.82963 15.1933 9.67463 15.6333 9.18963 16.3933C9.53963 14.5933 10.4396 14.1133 11.5146 14.1067C11.7496 14.1067 12.2296 13.9933 12.3646 13.5733C12.0646 13.7267 11.7046 13.7467 11.3846 13.6667C11.6196 13.2067 12.1046 13.2667 12.5646 13.2667C12.9196 13.2667 13.4796 13.2 13.7046 12.52C13.2106 12.777 12.6685 12.8212 12.1546 12.6467C12.8396 12.18 13.9046 12.1267 14.4546 11.5067C13.8296 10.8867 12.2696 11.6533 11.2846 12.5533C11.5596 12.22 11.9946 11.62 12.2346 11.14C11.6946 10.7933 10.3346 12.8067 9.86463 14.0067C9.41463 14.34 9.23963 14.8733 9.06463 15.24C9.29963 14.1667 9.32463 13.3867 9.52463 12.5067C7.99963 13.2 8.62963 16.9733 8.29963 17.88C8.33963 16.88 8.30463 15.6067 7.99963 14.9467C7.52963 15.4267 7.48963 18.2467 7.92963 20.5933C7.76963 19.9667 7.46963 19.38 7.37463 18.6133C6.67463 20.3067 7.78463 22.3133 8.70963 23.8933C8.00963 23.4067 7.32463 22.3667 6.86963 21.4933C6.99463 24.5333 9.36963 25.16 9.73963 25.9067C9.23963 25.5933 8.28463 24.98 7.87463 25.6267C8.44422 25.7675 8.99084 26.0405 9.48963 26.4333C10.1096 27.46 11.2746 27.9133 13.3096 28.0267V28.0267Z" fill="#F3E295"/>
</g>
<rect x="2" y="2" width="36" height="36" rx="18" stroke="white" stroke-width="4"/>
<defs>
<clipPath id="clip0_90_27931">
<rect x="4" y="4" width="32" height="32" rx="16" fill="white"/>
</clipPath>
</defs>
</svg>
