<svg width="40" height="40" viewBox="0 0 40 40" fill="none" xmlns="http://www.w3.org/2000/svg">
<g clip-path="url(#clip0_90_27143)">
<path fill-rule="evenodd" clip-rule="evenodd" d="M-4.31042 4.21936H44.4756V35.4274H-4.31042V4.21936Z" fill="#FFC621"/>
<path fill-rule="evenodd" clip-rule="evenodd" d="M-4.40491 25.4634H44.4422V36.0854H-4.40491V25.4634Z" fill="#EF2118"/>
<path fill-rule="evenodd" clip-rule="evenodd" d="M-4.31042 4H44.4756V15.28H-4.31042V4Z" fill="#298C08"/>
<path d="M19.2209 27.3406C22.02 27.3406 24.2892 24.3151 24.2892 20.5828C24.2892 16.8505 22.02 13.825 19.2209 13.825C16.4217 13.825 14.1525 16.8505 14.1525 20.5828C14.1525 24.3151 16.4217 27.3406 19.2209 27.3406Z" fill="#006BC6"/>
<path fill-rule="evenodd" clip-rule="evenodd" d="M16.947 15.7939L16.6415 16.0759L17.746 18.1439L18.0421 17.8932L16.9423 15.7939H16.947ZM18.3288 20.6819L17.8729 20.2557L18.0609 19.4599L15.8002 19.5037L15.1422 18.8332L18.2301 18.7893L18.8035 16.4769L19.1137 17.4169L18.3288 20.6756V20.6819ZM21.9243 16.2513L21.6282 15.9505L20.4861 17.9809L20.7493 18.2755L21.9243 16.2513ZM18.8505 19.4787L19.015 18.7768H19.6401L18.9257 15.9067L19.2077 14.8727L20.1712 18.7831L21.9948 18.8144L21.4214 19.4849L18.8505 19.4724V19.4787ZM23.1087 22.6872L23.2356 22.2235L21.4355 21.39L21.3039 21.8287L23.1087 22.6872V22.6872ZM19.861 19.7795L20.4109 19.7732L20.6036 20.5628L22.4272 18.7768L23.2544 18.8144L20.7587 21.2396L21.2992 23.5708L20.6412 23.0444L19.861 19.7795V19.7795ZM18.9304 26.1715L19.3017 26.184L19.3158 23.646L18.968 23.6147L18.9304 26.1777V26.1715ZM19.9644 21.1393L20.143 21.8349L19.6401 22.3363L21.4919 24.0721L21.7269 25.1249L19.2077 22.7436L17.7272 24.1661L17.8917 23.1635L19.9597 21.1393H19.9644ZM15.1093 21.954L15.2174 22.424L17.0363 21.6595L16.9423 21.2083L15.1093 21.954ZM19.0197 21.7033L18.5779 22.1483L18.0703 21.6657L17.4029 24.5484L16.7261 25.1751L17.6426 21.2459L16.1668 19.8045L16.9329 19.7043L19.0197 21.7033V21.7033Z" fill="#FFC621"/>
</g>
<rect x="2" y="2" width="36" height="36" rx="18" stroke="white" stroke-width="4"/>
<defs>
<clipPath id="clip0_90_27143">
<rect x="4" y="4" width="32" height="32" rx="16" fill="white"/>
</clipPath>
</defs>
</svg>
