<svg width="40" height="40" viewBox="0 0 40 40" fill="none" xmlns="http://www.w3.org/2000/svg">
<g clip-path="url(#clip0_90_27129)">
<path d="M4 4H36V36H4V4Z" fill="#003399"/>
<path d="M20.1544 9.76762L20.3572 10.5783L20.9981 10.585C21.0811 10.5858 21.1155 10.727 21.0488 10.7928L20.5331 11.3004L20.7264 12.1152C20.7515 12.2206 20.6614 12.308 20.5939 12.2436L20.0724 11.7466L19.551 12.2436C19.4835 12.3079 19.3934 12.2207 19.4185 12.1152L19.6118 11.3004L19.0961 10.7928C19.0294 10.727 19.0638 10.5858 19.1468 10.585L19.7877 10.5783L19.9905 9.76762C20.0167 9.66266 20.1281 9.66266 20.1544 9.76762Z" fill="#FFE15A"/>
<path d="M20.1544 27.1739L20.3572 27.9846L20.9981 27.9912C21.0811 27.9921 21.1155 28.1332 21.0488 28.199L20.5331 28.7067L20.7264 29.5214C20.7515 29.6269 20.6614 29.7142 20.5939 29.6498L20.0724 29.1529L19.551 29.6498C19.4835 29.7142 19.3934 29.6269 19.4185 29.5214L19.6118 28.7067L19.0961 28.199C19.0294 28.1332 19.0638 27.9921 19.1468 27.9912L19.7877 27.9846L19.9905 27.1739C20.0167 27.0689 20.1281 27.0689 20.1544 27.1739Z" fill="#FFE15A"/>
<path d="M26.6812 18.4711L26.884 19.2818L27.525 19.2884C27.608 19.2892 27.6424 19.4304 27.5756 19.4962L27.06 20.0039L27.2533 20.8186C27.2783 20.924 27.1883 21.0114 27.1207 20.947L26.5993 20.45L26.0779 20.947C26.0104 21.0113 25.9203 20.9241 25.9453 20.8186L26.1386 20.0039L25.623 19.4962C25.5562 19.4304 25.5906 19.2892 25.6736 19.2884L26.3146 19.2818L26.5174 18.4711C26.5436 18.3661 26.655 18.3661 26.6812 18.4711Z" fill="#FFE15A"/>
<path d="M13.6267 18.4711L13.8295 19.2818L14.4704 19.2884C14.5534 19.2892 14.5878 19.4304 14.521 19.4962L14.0054 20.0039L14.1987 20.8186C14.2238 20.924 14.1337 21.0114 14.0661 20.947L13.5447 20.45L13.0233 20.947C12.9558 21.0113 12.8657 20.9241 12.8907 20.8186L13.0841 20.0039L12.5684 19.4962C12.5017 19.4304 12.5361 19.2892 12.6191 19.2884L13.26 19.2818L13.4628 18.4711C13.489 18.3661 13.6005 18.3661 13.6267 18.4711Z" fill="#FFE15A"/>
<path d="M14.6068 13.9259L14.8096 14.7367L15.4505 14.7433C15.5335 14.7441 15.5679 14.8853 15.5011 14.9511L14.9855 15.4588L15.1788 16.2735C15.2039 16.3789 15.1138 16.4663 15.0463 16.4019L14.5248 15.9049L14.0034 16.4019C13.9359 16.4662 13.8458 16.379 13.8709 16.2735L14.0642 15.4588L13.5485 14.9511C13.4818 14.8853 13.5162 14.7441 13.5992 14.7433L14.2401 14.7367L14.4429 13.9259C14.4691 13.821 14.5805 13.821 14.6068 13.9259Z" fill="#FFE15A"/>
<path d="M25.9127 22.6287L26.1155 23.4394L26.7564 23.4461C26.8394 23.4469 26.8738 23.5881 26.8071 23.6538L26.2914 24.1615L26.4847 24.9763C26.5098 25.0817 26.4197 25.1691 26.3522 25.1047L25.8307 24.6077L25.3093 25.1047C25.2418 25.169 25.1517 25.0818 25.1768 24.9763L25.3701 24.1615L24.8544 23.6538C24.7877 23.5881 24.8221 23.4469 24.9051 23.4461L25.546 23.4394L25.7488 22.6287C25.7751 22.5237 25.8864 22.5237 25.9127 22.6287Z" fill="#FFE15A"/>
<path d="M23.5231 10.7405L23.726 11.5512L24.3669 11.5579C24.4499 11.5587 24.4843 11.6999 24.4175 11.7657L23.9019 12.2733L24.0952 13.0881C24.1202 13.1935 24.0302 13.2809 23.9626 13.2165L23.4412 12.7195L22.9198 13.2165C22.8523 13.2808 22.7622 13.1936 22.7872 13.0881L22.9805 12.2733L22.4649 11.7657C22.3982 11.6999 22.4325 11.5587 22.5156 11.5579L23.1565 11.5512L23.3593 10.7405C23.3855 10.6356 23.4968 10.6356 23.5231 10.7405Z" fill="#FFE15A"/>
<path d="M16.9954 25.8141L17.1982 26.6248L17.8392 26.6315C17.9222 26.6323 17.9566 26.7735 17.8898 26.8393L17.3742 27.3469L17.5675 28.1617C17.5925 28.2671 17.5025 28.3545 17.4349 28.2901L16.9135 27.7931L16.3921 28.2901C16.3246 28.3544 16.2345 28.2672 16.2595 28.1617L16.4528 27.3469L15.9372 26.8393C15.8705 26.7735 15.9048 26.6323 15.9878 26.6315L16.6288 26.6248L16.8316 25.8141C16.8578 25.7092 16.9691 25.7092 16.9954 25.8141Z" fill="#FFE15A"/>
<path d="M25.7488 13.9259L25.546 14.7367L24.9051 14.7433C24.8221 14.7441 24.7877 14.8853 24.8544 14.9511L25.3701 15.4588L25.1768 16.2735C25.1517 16.3789 25.2418 16.4663 25.3093 16.4019L25.8307 15.9049L26.3522 16.4019C26.4196 16.4662 26.5098 16.379 26.4847 16.2735L26.2914 15.4588L26.8071 14.9511C26.8738 14.8853 26.8394 14.7441 26.7564 14.7433L26.1155 14.7367L25.9127 13.9259C25.8864 13.821 25.7751 13.821 25.7488 13.9259Z" fill="#FFE15A"/>
<path d="M14.4429 22.6287L14.2401 23.4394L13.5992 23.4461C13.5162 23.4469 13.4818 23.5881 13.5485 23.6538L14.0642 24.1615L13.8709 24.9763C13.8458 25.0817 13.9359 25.1691 14.0034 25.1047L14.5248 24.6077L15.0463 25.1047C15.1137 25.169 15.2039 25.0818 15.1788 24.9763L14.9855 24.1615L15.5011 23.6538C15.5679 23.5881 15.5335 23.4469 15.4505 23.4461L14.8096 23.4394L14.6068 22.6287C14.5805 22.5237 14.4691 22.5237 14.4429 22.6287Z" fill="#FFE15A"/>
<path d="M16.8316 10.7405L16.6288 11.5512L15.9878 11.5579C15.9048 11.5587 15.8705 11.6999 15.9372 11.7657L16.4528 12.2733L16.2595 13.0881C16.2345 13.1935 16.3245 13.2809 16.3921 13.2165L16.9135 12.7195L17.4349 13.2165C17.5024 13.2808 17.5925 13.1936 17.5675 13.0881L17.3742 12.2733L17.8898 11.7657C17.9566 11.6999 17.9222 11.5587 17.8392 11.5579L17.1982 11.5512L16.9954 10.7405C16.9691 10.6356 16.8578 10.6356 16.8316 10.7405Z" fill="#FFE15A"/>
<path d="M23.3593 25.8141L23.1565 26.6248L22.5156 26.6315C22.4325 26.6323 22.3982 26.7735 22.4649 26.8393L22.9805 27.3469L22.7872 28.1617C22.7622 28.2671 22.8523 28.3545 22.9198 28.2901L23.4412 27.7931L23.9626 28.2901C24.0301 28.3544 24.1202 28.2672 24.0952 28.1617L23.9019 27.3469L24.4175 26.8393C24.4843 26.7735 24.4499 26.6323 24.3669 26.6315L23.726 26.6248L23.5231 25.8141C23.4968 25.7092 23.3855 25.7092 23.3593 25.8141Z" fill="#FFE15A"/>
</g>
<rect x="2" y="2" width="36" height="36" rx="18" stroke="white" stroke-width="4"/>
<defs>
<clipPath id="clip0_90_27129">
<rect x="4" y="4" width="32" height="32" rx="16" fill="white"/>
</clipPath>
</defs>
</svg>
