<svg width="40" height="40" viewBox="0 0 40 40" fill="none" xmlns="http://www.w3.org/2000/svg">
<g clip-path="url(#clip0_90_26868)">
<path fill-rule="evenodd" clip-rule="evenodd" d="M-4.02893 3.99997H44.0991V36.0853H-4.02893V3.99997Z" fill="#6797D6"/>
<path fill-rule="evenodd" clip-rule="evenodd" d="M20.0258 11.708L18.503 13.0992L19.0858 10.8494L17.5583 9.45823H19.443L20.0258 7.2085L20.6086 9.4645H22.4886L20.9658 10.8494L21.5486 13.0992M20.0258 28.44L18.503 27.0488L19.0858 29.3048L17.5583 30.6897H19.443L20.0258 32.9394L20.6086 30.6834L22.4886 30.6897L20.9658 29.2985L21.5486 27.0488M12.6938 21.2584L11.5423 23.176L11.6081 20.7946L9.84558 20.0614L11.6504 19.3282L11.7115 16.9469L12.7596 18.877L14.5644 18.1376L13.4082 20.0614L14.461 21.9853M27.3484 21.2521L28.5046 23.176L28.4388 20.7946L30.2013 20.0614L28.3965 19.3282L28.3354 16.9469L27.2873 18.877L25.4825 18.1376L26.6387 20.0614L25.5859 21.9853" fill="white"/>
</g>
<rect x="2" y="2" width="36" height="36" rx="18" stroke="white" stroke-width="4"/>
<defs>
<clipPath id="clip0_90_26868">
<rect x="4" y="4" width="32" height="32" rx="16" fill="white"/>
</clipPath>
</defs>
</svg>
