<svg width="40" height="40" viewBox="0 0 40 40" fill="none" xmlns="http://www.w3.org/2000/svg">
<g clip-path="url(#clip0_90_26847)">
<path d="M3.99976 4H35.9998V36H3.99976V4Z" fill="#012169"/>
<path d="M7.74976 4L19.9498 16.0667L32.0998 4H35.9998V8.13333L23.9998 20.0667L35.9998 31.9333V36H31.9998L19.9998 24.0667L8.04976 36H3.99976V32L15.9498 20.1333L3.99976 8.26667V4H7.74976Z" fill="white"/>
<path d="M25.1998 22.7333L35.9998 33.3333V36L22.4498 22.7333H25.1998ZM15.9998 24.0667L16.2998 26.4L6.69976 36H3.99976L15.9998 24.0667ZM35.9998 4V4.2L23.5498 16.7333L23.6498 13.8L33.4998 4H35.9998ZM3.99976 4L15.9498 15.7333H12.9498L3.99976 6.8V4Z" fill="#C8102E"/>
<path d="M16.0498 4V36H24.0498V4H16.0498ZM3.99976 14.6667V25.3333H35.9998V14.6667H3.99976Z" fill="white"/>
<path d="M3.99976 16.8667V23.2667H35.9998V16.8667H3.99976ZM17.6498 4V36H22.4498V4H17.6498Z" fill="#C8102E"/>
</g>
<rect x="2" y="2" width="36" height="36" rx="18" stroke="white" stroke-width="4"/>
<defs>
<clipPath id="clip0_90_26847">
<rect x="4" y="4" width="32" height="32" rx="16" fill="white"/>
</clipPath>
</defs>
</svg>
