<svg width="40" height="40" viewBox="0 0 40 40" fill="none" xmlns="http://www.w3.org/2000/svg">
<g clip-path="url(#clip0_90_26645)">
<path d="M4 4H36V36H4V4Z" fill="#CE1126"/>
<path d="M7.36023 8.47998H32.6402V31.52H7.36023V8.47998Z" fill="#007A5E"/>
<path d="M7.36023 8.48663H32.6402L7.36023 31.5266H32.6402L7.36023 8.48663Z" fill="#FCD116"/>
<path d="M19.9949 23.8467C21.5854 23.8467 22.8749 22.1274 22.8749 20.0067C22.8749 17.8859 21.5854 16.1667 19.9949 16.1667C18.4043 16.1667 17.1149 17.8859 17.1149 20.0067C17.1149 22.1274 18.4043 23.8467 19.9949 23.8467Z" fill="#CE1126"/>
<path d="M9.11462 20.0466C9.49445 20.9911 10.0779 21.7621 10.7896 22.26C10.7619 21.2181 10.5694 20.1957 10.2246 19.26L9.11462 20.0466V20.0466Z" fill="#CE1126"/>
<path d="M8.50481 16.98C9.02481 18.4266 7.14981 21.8933 10.2798 22.7066C9.85716 21.8901 9.66416 20.9009 9.73481 19.9133C10.4305 20.3421 11.0014 21.0634 11.3598 21.9666C12.1798 18 9.25981 18.2466 8.50481 16.98Z" fill="#FCD116"/>
</g>
<rect x="2" y="2" width="36" height="36" rx="18" stroke="white" stroke-width="4"/>
<defs>
<clipPath id="clip0_90_26645">
<rect x="4" y="4" width="32" height="32" rx="16" fill="white"/>
</clipPath>
</defs>
</svg>
