<svg width="40" height="40" viewBox="0 0 40 40" fill="none" xmlns="http://www.w3.org/2000/svg">
<g clip-path="url(#clip0_90_26640)">
<path d="M4 4H36V36H4V4Z" fill="white"/>
<path d="M17.5997 4H22.3997V36H17.5997V4Z" fill="#FF0000"/>
<path d="M4.00012 16.8H36.0001V23.2H4.00012V16.8Z" fill="#FF0000"/>
<g style="mix-blend-mode:multiply">
<path fill-rule="evenodd" clip-rule="evenodd" d="M11.34 28.8733C11.39 27.7533 11.54 26.8 11.54 26.8C11.54 26.8 11.05 26.8666 10.8 26.8666C10.555 26.8666 10.06 26.8 10.06 26.8C10.06 26.8 10.21 27.7533 10.26 28.88C9.41495 28.8133 8.69995 28.6133 8.69995 28.6133C8.69995 28.6133 8.74995 29.1066 8.74995 29.6C8.74995 30.0933 8.69995 30.5866 8.69995 30.5866C8.69995 30.5866 9.41495 30.3866 10.26 30.32C10.21 31.4466 10.06 32.4 10.06 32.4C10.06 32.4 10.43 32.3333 10.8 32.3333C11.17 32.3333 11.54 32.4 11.54 32.4C11.54 32.4 11.39 31.4466 11.34 30.32C12.185 30.3866 12.9 30.5866 12.9 30.5866C12.9 30.5866 12.85 29.9333 12.85 29.6C12.85 29.2733 12.9 28.6133 12.9 28.6133C12.9 28.6133 12.185 28.8133 11.345 28.88L11.34 28.8733ZM29.74 9.67331C29.79 8.55331 29.94 7.59998 29.94 7.59998C29.94 7.59998 29.45 7.66664 29.2 7.66664C28.955 7.66664 28.46 7.59998 28.46 7.59998C28.46 7.59998 28.61 8.55331 28.66 9.67331C27.815 9.60664 27.1 9.41331 27.1 9.41331C27.1 9.41331 27.15 9.90664 27.15 10.4C27.15 10.8933 27.1 11.3866 27.1 11.3866C27.1 11.3866 27.815 11.1866 28.66 11.12C28.61 12.2466 28.46 13.2 28.46 13.2C28.46 13.2 28.83 13.1333 29.2 13.1333C29.57 13.1333 29.94 13.2 29.94 13.2C29.94 13.2 29.79 12.2466 29.74 11.1266C30.585 11.1933 31.3 11.3933 31.3 11.3933C31.3 11.3933 31.25 10.7266 31.25 10.4C31.25 10.0733 31.3 9.41331 31.3 9.41331C31.3 9.41331 30.585 9.61331 29.74 9.67998V9.67331ZM11.34 9.67331C11.39 8.55331 11.54 7.59998 11.54 7.59998C11.54 7.59998 11.05 7.66664 10.8 7.66664C10.555 7.66664 10.06 7.59998 10.06 7.59998C10.06 7.59998 10.21 8.55331 10.26 9.67998C9.41495 9.61331 8.69995 9.41331 8.69995 9.41331C8.69995 9.41331 8.74995 9.90664 8.74995 10.4C8.74995 10.8933 8.69995 11.3866 8.69995 11.3866C8.69995 11.3866 9.41495 11.1866 10.26 11.12C10.21 12.2466 10.06 13.2 10.06 13.2C10.06 13.2 10.43 13.1333 10.8 13.1333C11.17 13.1333 11.54 13.2 11.54 13.2C11.54 13.2 11.39 12.2466 11.34 11.12C12.185 11.1866 12.9 11.3866 12.9 11.3866C12.9 11.3866 12.85 10.7333 12.85 10.4C12.85 10.0733 12.9 9.41331 12.9 9.41331C12.9 9.41331 12.185 9.61331 11.345 9.67998L11.34 9.67331ZM29.74 28.8733C29.79 27.7533 29.94 26.8 29.94 26.8C29.94 26.8 29.45 26.8666 29.2 26.8666C28.955 26.8666 28.46 26.8 28.46 26.8C28.46 26.8 28.61 27.7533 28.66 28.88C27.815 28.8133 27.1 28.6133 27.1 28.6133C27.1 28.6133 27.15 29.1066 27.15 29.6C27.15 30.0933 27.1 30.5866 27.1 30.5866C27.1 30.5866 27.815 30.3866 28.66 30.32C28.61 31.4466 28.46 32.4 28.46 32.4C28.46 32.4 28.83 32.3333 29.2 32.3333C29.57 32.3333 29.94 32.4 29.94 32.4C29.94 32.4 29.79 31.4466 29.74 30.32C30.585 30.3866 31.3 30.5866 31.3 30.5866C31.3 30.5866 31.25 29.9333 31.25 29.6C31.25 29.2733 31.3 28.6133 31.3 28.6133C31.3 28.6133 30.585 28.8133 29.74 28.88V28.8733Z" fill="#FF0000"/>
</g>
</g>
<rect x="2" y="2" width="36" height="36" rx="18" stroke="white" stroke-width="4"/>
<defs>
<clipPath id="clip0_90_26640">
<rect x="4" y="4" width="32" height="32" rx="16" fill="white"/>
</clipPath>
</defs>
</svg>
