<svg width="40" height="40" viewBox="0 0 40 40" fill="none" xmlns="http://www.w3.org/2000/svg">
<g clip-path="url(#clip0_90_26586)">
<path d="M4 4H36V36H4V4Z" fill="#DA000C"/>
<path d="M4 4H36V25.44H4V4Z" fill="white"/>
<path d="M14.4314 18.5375H20.4314V24.0375H14.4314V18.5375Z" fill="black"/>
<path d="M17.5439 23.2375H13.8876L13.072 23.95V24.7H17.5439M16.0158 20.075C16.5408 20.075 16.972 20.6625 16.972 21.3875V23.225H17.6564V16.225H13.8783V23.225H15.0595V21.3875C15.0595 20.6875 15.4814 20.075 16.0158 20.075V20.075Z" fill="#DA000C"/>
<path fill-rule="evenodd" clip-rule="evenodd" d="M13.8314 16.1625H17.7033V23.2875H17.5908V23.3H13.9016L13.1189 23.9837V24.6375H17.5908V24.7625H13.0251V23.9162L13.8314 23.2119V16.1625ZM15.1064 23.175V21.3875C15.1064 20.7192 15.5093 20.1375 16.0158 20.1375C16.5137 20.1375 16.9251 20.6954 16.9251 21.3875V23.175H15.1064ZM17.0189 23.1625H17.6095V16.2875H13.9251V23.1625H15.0126V21.3875C15.0126 20.6557 15.4535 20.0125 16.0158 20.0125C16.5678 20.0125 17.0189 20.6295 17.0189 21.3875V23.1625Z" fill="black"/>
<path d="M15.1722 11.5H16.916V15.75H15.1722V11.5Z" fill="black"/>
<path d="M16.9063 15.0875H15.3875V14.3625H14.2719V15.0875H13.5219V14.3625H13.0625V15.6625H16.9063M13.5125 15.6625H16.7938V16.225H13.5125V15.6625ZM18.2188 9.37501V14.375H18.7813V13.1625C18.7813 12.7125 19.0156 12.3375 19.3531 12.3125H19.3906C19.5597 12.3125 19.7219 12.4021 19.8414 12.5615C19.961 12.7209 20.0281 12.9371 20.0281 13.1625V14.375H20.5625V9.95001L18.2188 9.37501ZM18.0031 8.77501V9.37501H20.75V8.77501H18.0031ZM17.6563 7.63751V8.77501H20.9375V7.63751H20.4406V8.22501H19.8219V7.63751H18.8844V8.22501H18.275V7.63751H17.6563ZM13.0625 23.95H17.5625ZM20.4688 23.6H17.4313L16.5125 24.1875V25.0625H20.4688" fill="#DA000C"/>
<path fill-rule="evenodd" clip-rule="evenodd" d="M17.6094 7.57501H18.3219V8.16251H18.8375V7.57501H19.8688V8.16251H20.3938V7.57501H20.9844V8.83751H20.7969V9.43751H18.7325L20.6094 9.89796V14.4375H19.9812V13.1625C19.9812 12.9537 19.919 12.7534 19.8083 12.6057C19.6975 12.458 19.5473 12.375 19.3906 12.375H19.3545C19.0456 12.3988 18.8281 12.7419 18.8281 13.1625V14.4375H18.1719V9.43751H17.9562V8.83751H17.6094V7.57501ZM20.8906 8.71251V7.70001H20.4875V8.28751H19.775V7.70001H18.9313V8.28751H18.2281V7.70001H17.7031V8.71251H20.8906ZM18.05 8.83751V9.31251H18.1719V9.29996L18.223 9.31251H20.7031V8.83751H18.05ZM18.2656 9.45006V14.3125H18.7344V13.1625C18.7344 12.6837 18.985 12.2772 19.3505 12.2501L19.3518 12.25H19.3906C19.5721 12.25 19.7462 12.3462 19.8746 12.5173C20.0029 12.6884 20.075 12.9205 20.075 13.1625V14.3125H20.5156V10.0021L18.2656 9.45006ZM13.0156 14.3H13.5687V15.025H14.225V14.3H15.4344V15.025H16.9531V15.15H15.3406V14.425H14.3187V15.15H13.475V14.425H13.1094V15.6H16.9531V15.725H16.8406V16.2875H13.4656V15.725H13.0156V14.3ZM13.5594 15.725V16.1625H16.7469V15.725H13.5594ZM17.4206 23.5375H20.5156V23.6625H17.4419L17.09 23.8875H17.6094V24.0125H16.8946L16.5594 24.2269V25H20.5156V25.125H16.4656V24.1482L16.6778 24.0125H13.0156V23.8875H16.8733L17.4206 23.5375Z" fill="black"/>
<path fill-rule="evenodd" clip-rule="evenodd" d="M20.5625 24.25H16.5125V24.125H20.5625V24.25Z" fill="black"/>
<path d="M21.6221 22.7501C21.3689 22.8751 21.1533 23.0501 20.9189 23.2251C20.6273 23.4472 20.3484 23.6979 20.0846 23.9751C19.9908 24.0626 19.8971 24.1501 19.8314 24.2751C19.7377 24.3751 19.6439 24.5251 19.6627 24.7126C19.6627 24.7876 19.7377 24.6126 19.7939 24.6001C19.883 24.5365 19.9864 24.5187 20.0846 24.5501C20.2064 24.3751 20.3658 24.2626 20.4971 24.1251C20.8792 23.7563 21.2874 23.4382 21.7158 23.1751L21.6221 22.7501Z" fill="#F8D80E"/>
<path fill-rule="evenodd" clip-rule="evenodd" d="M21.6461 22.6846L21.7604 23.2024L21.7309 23.2205C21.3049 23.4821 20.8991 23.7984 20.5191 24.165C20.4731 24.2131 20.4232 24.2587 20.3738 24.3039C20.3518 24.3241 20.3298 24.3442 20.3083 24.3644C20.2375 24.4309 20.1697 24.5004 20.1115 24.5841L20.0966 24.6055L20.0753 24.5987C19.986 24.5702 19.892 24.5864 19.8111 24.6441L19.8056 24.648L19.7995 24.6494C19.7963 24.6501 19.7877 24.6553 19.7735 24.6715C19.761 24.6857 19.7485 24.7031 19.7359 24.7207C19.7352 24.7217 19.7345 24.7227 19.7338 24.7237C19.7274 24.7326 19.7208 24.7417 19.7146 24.7495C19.709 24.7567 19.7015 24.7655 19.6934 24.7717C19.6887 24.7754 19.6642 24.7931 19.6416 24.7684C19.6322 24.758 19.6284 24.7448 19.6267 24.7366C19.6253 24.7294 19.6248 24.7224 19.6247 24.7162C19.6048 24.5057 19.7087 24.3428 19.8033 24.2405C19.8725 24.1114 19.9693 24.021 20.06 23.9364L20.0616 23.9349C20.3267 23.6565 20.6068 23.4048 20.8998 23.1816L20.9001 23.1814C20.9356 23.1549 20.9709 23.1282 21.006 23.1017C21.2006 22.9545 21.3911 22.8105 21.6085 22.7032L21.6461 22.6846ZM20.9368 23.2686C20.6468 23.4895 20.3695 23.7387 20.1072 24.0143L20.1064 24.0152L20.1055 24.016C20.0108 24.1044 19.9228 24.1872 19.8616 24.3037L19.8585 24.3096L19.8543 24.3141C19.7782 24.3953 19.7103 24.502 19.6989 24.6279C19.7071 24.6169 19.7158 24.6056 19.7248 24.5954C19.739 24.5793 19.7584 24.5602 19.7804 24.5527C19.8699 24.4906 19.9724 24.4705 20.0713 24.4953C20.1313 24.4133 20.1985 24.3452 20.2651 24.2826C20.2884 24.2608 20.3113 24.2398 20.3338 24.2192C20.3824 24.1748 20.4292 24.132 20.4733 24.0857L20.4739 24.0851L20.4745 24.0846C20.8499 23.7224 21.2502 23.4087 21.6702 23.1478L21.597 22.816C21.4012 22.918 21.2271 23.0495 21.044 23.1879C21.0087 23.2146 20.973 23.2415 20.9368 23.2686ZM19.6997 24.7139C19.6997 24.7139 19.6997 24.7139 19.6997 24.7138Z" fill="black"/>
<path d="M20.4124 23.675V24.1625ZM20.6374 23.4625V23.95ZM20.8624 23.275V23.75ZM21.0967 23.0875V23.5875Z" fill="#F8D80E"/>
<path fill-rule="evenodd" clip-rule="evenodd" d="M21.0964 23.025C21.1223 23.025 21.1432 23.053 21.1432 23.0875V23.5875C21.1432 23.622 21.1223 23.65 21.0964 23.65C21.0705 23.65 21.0495 23.622 21.0495 23.5875V23.0875C21.0495 23.053 21.0705 23.025 21.0964 23.025ZM20.862 23.2125C20.8879 23.2125 20.9089 23.2405 20.9089 23.275V23.75C20.9089 23.7845 20.8879 23.8125 20.862 23.8125C20.8361 23.8125 20.8151 23.7845 20.8151 23.75V23.275C20.8151 23.2405 20.8361 23.2125 20.862 23.2125ZM20.637 23.4C20.6629 23.4 20.6839 23.428 20.6839 23.4625V23.95C20.6839 23.9845 20.6629 24.0125 20.637 24.0125C20.6111 24.0125 20.5901 23.9845 20.5901 23.95V23.4625C20.5901 23.428 20.6111 23.4 20.637 23.4ZM20.412 23.6125C20.4379 23.6125 20.4589 23.6405 20.4589 23.675V24.1625C20.4589 24.197 20.4379 24.225 20.412 24.225C20.3861 24.225 20.3651 24.197 20.3651 24.1625V23.675C20.3651 23.6405 20.3861 23.6125 20.412 23.6125Z" fill="black"/>
<path d="M18.3969 22.775L18.2844 23.1875C18.8025 23.4525 19.2989 23.7876 19.7657 24.1875C19.925 24.3375 20.0938 24.475 20.2157 24.675C20.2438 24.775 20.1688 24.8625 20.0938 24.825C20.0282 24.8 19.9532 24.7625 19.8875 24.825C19.7844 24.8875 19.6907 25.1 19.8407 25.1625C20.0657 25.3625 20.4125 25.275 20.5157 24.9375C20.5719 24.7625 20.5813 24.5375 20.4688 24.3875C20.2813 24.1 20.0188 23.8875 19.775 23.675C19.3373 23.3193 18.876 23.0181 18.3969 22.775V22.775Z" fill="#F8D80E"/>
<path fill-rule="evenodd" clip-rule="evenodd" d="M18.41 22.7283C18.8912 22.9725 19.3546 23.2751 19.7943 23.6324L19.7948 23.6328L19.7953 23.6332C19.8206 23.6552 19.8461 23.6773 19.8718 23.6996C20.0918 23.8897 20.3244 24.0908 20.496 24.3535C20.6231 24.5242 20.6088 24.7737 20.55 24.9568C20.4929 25.1433 20.3691 25.2584 20.232 25.3004C20.0967 25.3417 19.9451 25.3131 19.824 25.208C19.7824 25.1892 19.7519 25.1577 19.7362 25.1139C19.7199 25.0689 19.7226 25.0202 19.7334 24.9777C19.7543 24.8961 19.8097 24.8188 19.8685 24.7816C19.9099 24.7438 19.9538 24.7371 19.9941 24.7425C20.0273 24.7469 20.0606 24.76 20.0884 24.771C20.0938 24.7731 20.0989 24.7751 20.1038 24.777L20.1053 24.7775L20.1067 24.7782C20.1308 24.7903 20.1535 24.782 20.168 24.7646C20.1809 24.749 20.1875 24.7261 20.182 24.6996C20.0847 24.5425 19.9577 24.4257 19.8256 24.3042C19.7987 24.2795 19.7716 24.2546 19.7445 24.229C19.28 23.8312 18.7862 23.4979 18.2707 23.2342L18.2363 23.2167L18.3614 22.758L18.3967 22.7751L18.41 22.7283ZM18.4189 22.84L18.332 23.1586C18.84 23.4219 19.327 23.7526 19.7857 24.1455L19.7864 24.1461L19.787 24.1467C19.8128 24.171 19.8391 24.1952 19.8657 24.2195C19.9998 24.3427 20.1392 24.4708 20.2445 24.6435L20.2484 24.6499L20.2505 24.6575C20.2704 24.728 20.2535 24.7962 20.2183 24.8387C20.1839 24.8802 20.1324 24.897 20.0819 24.8726C20.0762 24.8705 20.0707 24.8683 20.0652 24.8662C20.0374 24.8553 20.0121 24.8454 19.9867 24.842C19.9577 24.8381 19.9324 24.8435 19.9091 24.8658L19.9061 24.8686L19.9028 24.8706C19.8597 24.8967 19.8183 24.9555 19.8044 25.0099C19.7977 25.0362 19.7986 25.0562 19.8038 25.0706C19.8087 25.0844 19.8209 25.1021 19.8516 25.1148L19.8567 25.117L19.8612 25.121C19.9644 25.2127 20.0967 25.2391 20.2152 25.2029C20.3335 25.1667 20.4346 25.0695 20.4807 24.9187L20.4809 24.9179C20.5344 24.7515 20.5388 24.552 20.442 24.4229L20.4411 24.4217L20.4402 24.4204C20.2759 24.1684 20.0523 23.975 19.8306 23.7831C19.8053 23.7612 19.78 23.7393 19.7548 23.7173C19.33 23.3722 18.8829 23.0786 18.4189 22.84Z" fill="black"/>
<path d="M19.8125 23.75L19.7844 24.175ZM20.075 23.9625L20 24.375ZM20.3563 24.25L20.1875 24.575ZM20.4407 25.025L20.1969 24.85ZM20.5157 24.675L20.2344 24.7125ZM20.1594 25.2125L20.1407 24.8875ZM20.0469 24.85L19.8219 25.075ZM18.9407 23.1125V23.5ZM19.5313 23.5375V23.975ZM19.2313 23.325V23.7375Z" fill="#F8D80E"/>
<path fill-rule="evenodd" clip-rule="evenodd" d="M18.9403 23.05C18.9662 23.05 18.9872 23.078 18.9872 23.1125V23.5C18.9872 23.5346 18.9662 23.5625 18.9403 23.5625C18.9144 23.5625 18.8934 23.5346 18.8934 23.5V23.1125C18.8934 23.078 18.9144 23.05 18.9403 23.05ZM19.2309 23.2626C19.2568 23.2626 19.2778 23.2905 19.2778 23.3251V23.7375C19.2778 23.7721 19.2568 23.8 19.2309 23.8C19.205 23.8 19.1841 23.7721 19.1841 23.7375V23.3251C19.1841 23.2905 19.205 23.2626 19.2309 23.2626ZM19.5309 23.475C19.5568 23.475 19.5778 23.503 19.5778 23.5375V23.9751C19.5778 24.0096 19.5568 24.0376 19.5309 24.0376C19.505 24.0376 19.4841 24.0096 19.4841 23.9751V23.5375C19.4841 23.503 19.505 23.475 19.5309 23.475ZM19.8163 23.6878C19.8421 23.6908 19.8612 23.7212 19.8589 23.7555L19.8308 24.1805C19.8285 24.2149 19.8057 24.2403 19.7799 24.2373C19.7541 24.2343 19.7351 24.2039 19.7374 24.1696L19.7655 23.7446C19.7678 23.7102 19.7905 23.6848 19.8163 23.6878ZM20.0857 23.9018C20.1109 23.9099 20.1263 23.9437 20.1202 23.9773L20.0452 24.3898C20.0391 24.4233 20.0138 24.4439 19.9886 24.4358C19.9635 24.4277 19.948 24.3939 19.9541 24.3603L20.0291 23.9478C20.0352 23.9143 20.0606 23.8937 20.0857 23.9018ZM20.3826 24.1987C20.4039 24.2183 20.4092 24.2572 20.3945 24.2856L20.2257 24.6106C20.211 24.639 20.1818 24.6461 20.1605 24.6264C20.1392 24.6068 20.1339 24.5679 20.1486 24.5395L20.3174 24.2145C20.3321 24.1861 20.3613 24.179 20.3826 24.1987ZM20.562 24.6688C20.5645 24.7032 20.5457 24.7338 20.52 24.7372L20.2387 24.7747C20.213 24.7782 20.19 24.7531 20.1874 24.7188C20.1848 24.6844 20.2036 24.6538 20.2294 24.6504L20.5106 24.6129C20.5364 24.6094 20.5594 24.6345 20.562 24.6688ZM20.1553 24.8204C20.1676 24.79 20.196 24.7787 20.2188 24.795L20.4625 24.97C20.4853 24.9864 20.4939 25.0243 20.4816 25.0547C20.4693 25.0851 20.4409 25.0964 20.4181 25.0801L20.1889 24.9156L20.2058 25.2078C20.2078 25.2422 20.1885 25.2722 20.1627 25.2749C20.1368 25.2775 20.1143 25.2518 20.1123 25.2173L20.0936 24.8923C20.0916 24.8579 20.1109 24.8279 20.1367 24.8252C20.1423 24.8247 20.1478 24.8254 20.1529 24.8273C20.1536 24.825 20.1544 24.8227 20.1553 24.8204ZM20.0841 24.8125C20.0996 24.8402 20.0954 24.8793 20.0747 24.9L19.8497 25.1251C19.829 25.1458 19.7996 25.1402 19.7841 25.1126C19.7685 25.0849 19.7727 25.0458 19.7934 25.0251L20.0184 24.8001C20.0391 24.7793 20.0685 24.7849 20.0841 24.8125Z" fill="black"/>
<path d="M18.1063 32.45V33.45H18.5751V32.95H19.2219V33.45H19.7282V32.45H18.1063ZM18.1063 33.825V34.825H19.7188V33.825H19.2126V34.325H18.5657V33.825H18.1063Z" fill="#F8D80E"/>
<path fill-rule="evenodd" clip-rule="evenodd" d="M18.0594 32.3876H19.7751V33.5126H19.1751V33.0126H18.6219V33.5126H18.0594V32.3876ZM18.1532 32.5126V33.3876H18.5282V32.8876H19.2688V33.3876H19.6813V32.5126H18.1532ZM18.0594 33.7626H18.6126V34.2626H19.1657V33.7626H19.7657V34.8876H18.0594V33.7626ZM18.1532 33.8876V34.7626H19.6719V33.8876H19.2594V34.3876H18.5188V33.8876H18.1532Z" fill="black"/>
<path d="M19.7185 28.2125H20.1873V35.4625H19.7185V28.2125Z" fill="#F8D80E"/>
<path fill-rule="evenodd" clip-rule="evenodd" d="M19.6721 28.15H20.2346V35.525H19.6721V28.15ZM19.7659 28.275V35.4H20.1409V28.275H19.7659Z" fill="black"/>
<path d="M19.7188 28.8375H20.1875V35.0875H19.7188V28.8375ZM19.9625 26.425L20.9563 27.2L19.9625 27.975L18.9594 27.2L19.9625 26.425ZM18.6219 26.925H18.3688V27.475H18.6219L19.9625 28.5125L21.2938 27.475H21.5563V26.925H21.2938L19.9625 25.8875L18.6219 26.925Z" fill="#F8D80E"/>
<path fill-rule="evenodd" clip-rule="evenodd" d="M19.9626 25.8152L21.3065 26.8625H21.6031V27.5375H21.3065L19.9626 28.5848L18.6093 27.5375H18.3219V26.8625H18.6093L19.9626 25.8152ZM19.9624 25.9598L18.6345 26.9875H18.4156V27.4125H18.6345L19.9624 28.4402L21.2811 27.4125H21.5094V26.9875H21.2811L19.9624 25.9598ZM19.9626 26.3527L21.0491 27.2L19.9626 28.0473L18.8659 27.2L19.9626 26.3527ZM19.0529 27.2L19.9624 27.9027L20.8634 27.2L19.9624 26.4973L19.0529 27.2ZM19.6719 28.775H20.2344V35.15H19.6719V28.775ZM19.7656 28.9V35.025H20.1406V28.9H19.7656Z" fill="black"/>
<path d="M19.9347 24.5375C19.8256 24.5671 19.7279 24.6475 19.6592 24.7643C19.5905 24.8811 19.5552 25.0267 19.5597 25.175V26.575C19.5683 26.7237 19.6165 26.8634 19.6956 26.9688C19.7747 27.0743 19.8794 27.1385 19.991 27.15C20.0837 27.1593 20.1764 27.1308 20.2568 27.0683C20.3371 27.0058 20.4013 26.9123 20.441 26.8L20.2816 26.675C20.2595 26.7483 20.22 26.8098 20.1693 26.8505C20.1185 26.8911 20.0592 26.9085 20.0003 26.9C19.8503 26.9 19.7285 26.7 19.7472 26.5125V25.1125C19.7543 25.0208 19.7873 24.9362 19.8396 24.8758C19.8918 24.8154 19.9594 24.7839 20.0285 24.7875C20.0847 24.7625 20.1691 24.875 20.2066 24.7875C20.2628 24.675 20.1691 24.6 20.1128 24.5375H19.9347V24.5375ZM20.4785 25.025C20.4326 25.1106 20.3714 25.1794 20.3003 25.225V26.1625L20.4878 26.3V25.025H20.4785Z" fill="#F8D80E"/>
<path fill-rule="evenodd" clip-rule="evenodd" d="M19.9343 24.475H20.1294L20.1425 24.4895C20.1488 24.4966 20.1558 24.5039 20.1636 24.5121L20.164 24.5126C20.1718 24.5208 20.1803 24.5297 20.1888 24.5391C20.2054 24.5577 20.2238 24.5799 20.2387 24.6057C20.2536 24.6316 20.267 24.6644 20.2699 24.7037C20.2728 24.7436 20.2645 24.783 20.2461 24.8205C20.2295 24.8579 20.2046 24.8786 20.1758 24.883C20.1509 24.8868 20.1267 24.8777 20.1098 24.8705C20.1014 24.8669 20.0945 24.8636 20.0884 24.8608C20.0793 24.8565 20.0717 24.8529 20.0626 24.8498C20.049 24.8451 20.0439 24.8464 20.0429 24.8468L20.0348 24.8504L20.0262 24.85C19.969 24.847 19.9132 24.8731 19.8699 24.923C19.8273 24.9723 19.8001 25.0412 19.7937 25.1159V26.5167L19.7933 26.5208C19.786 26.5942 19.8061 26.6739 19.8458 26.7361C19.8854 26.7981 19.941 26.8375 20 26.8375H20.0025L20.005 26.8379C20.0537 26.8449 20.1028 26.8305 20.1448 26.7969C20.1868 26.7633 20.2194 26.7123 20.2377 26.6517L20.2581 26.5844L20.5012 26.7751L20.483 26.8266C20.4394 26.9503 20.3686 27.0534 20.28 27.1223C20.1915 27.1912 20.0893 27.2226 19.9871 27.2124L19.987 27.2124C19.8643 27.1997 19.7491 27.129 19.6621 27.013C19.5751 26.897 19.5221 26.7434 19.5126 26.5799L19.5125 26.5774V25.1763C19.5078 25.0135 19.5466 24.8539 19.622 24.7257C19.6976 24.5972 19.805 24.5088 19.925 24.4763L19.9343 24.5375V24.475ZM19.9392 24.6C19.8428 24.6276 19.7566 24.6993 19.6958 24.8029C19.6339 24.908 19.6022 25.039 19.6062 25.1725L19.6062 25.1738V26.5726C19.6143 26.7055 19.6576 26.8303 19.7284 26.9246C19.7995 27.0195 19.8938 27.0773 19.9941 27.0877C20.0774 27.096 20.1606 27.0704 20.2328 27.0143C20.2926 26.9678 20.3425 26.9021 20.3781 26.8235L20.3004 26.7626C20.2737 26.8202 20.237 26.8689 20.193 26.904C20.1342 26.9511 20.0656 26.9716 19.9974 26.9625C19.9074 26.9614 19.8281 26.9012 19.7744 26.8171C19.7211 26.7335 19.6898 26.6212 19.7 26.5086V25.1093L19.7002 25.1061C19.7085 24.9986 19.7473 24.8994 19.8085 24.8286C19.8679 24.76 19.9441 24.7231 20.0225 24.7248C20.0463 24.7176 20.0692 24.7229 20.0861 24.7288C20.0984 24.733 20.1132 24.7399 20.125 24.7454C20.1303 24.7478 20.1349 24.7499 20.1385 24.7515C20.1533 24.7578 20.1608 24.7592 20.1644 24.7589C20.1647 24.7584 20.1651 24.7576 20.1655 24.7565L20.1663 24.7547L20.1672 24.7529C20.1763 24.7347 20.1771 24.7231 20.1766 24.7159C20.1759 24.7076 20.1728 24.6966 20.1644 24.6819C20.1558 24.6671 20.1437 24.6518 20.1287 24.6352C20.1214 24.627 20.1138 24.619 20.1059 24.6107L20.105 24.6097C20.102 24.6065 20.0989 24.6033 20.0958 24.6H19.9392ZM20.454 24.9625H20.5343V26.4057L20.2531 26.1995V25.1858L20.2796 25.1687C20.3436 25.1277 20.3987 25.0658 20.4399 24.9887L20.454 24.9625ZM20.4406 25.174C20.412 25.2082 20.3806 25.2381 20.3468 25.263V26.1256L20.4406 26.1943V25.174Z" fill="black"/>
<path d="M18.5752 8.79999H21.3221V15.45H18.5752V8.79999Z" fill="black"/>
<path d="M18.3876 8.80001V14.3625H19.2594V12.7125C19.2594 12.3375 19.4469 11.8 20.0001 11.8C20.5532 11.8 20.7501 12.3375 20.7501 12.7125V14.375H21.6126V8.80001H18.3876ZM19.8688 9.42501H20.1313V11.325H19.8688V9.42501ZM19.0907 9.80001H19.3719V11.1875H19.0907V9.80001ZM20.6376 9.80001H20.9094V11.1875H20.6282L20.6376 9.80001ZM18.0876 8.00001V8.78751H21.9126V8.00001H18.0876ZM17.7313 7.07501V8.00001H22.2782V7.07501H21.7063V7.57501H21.0501V7.07501H20.3188V7.57501H19.6813V7.07501H18.9407V7.57501H18.3126V7.07501H17.7313ZM16.8876 16.225V16.8H23.1219V16.225H16.8876Z" fill="#DA000C"/>
<path fill-rule="evenodd" clip-rule="evenodd" d="M17.6844 7.01251H18.3594V7.51251H18.8938V7.01251H19.7282V7.51251H20.2719V7.01251H21.0969V7.51251H21.6594V7.01251H22.3251V8.06251H21.9594V8.85001H21.6594V14.4375H20.7032V12.7125C20.7032 12.5382 20.6572 12.3252 20.5471 12.1567C20.4383 11.99 20.2641 11.8625 20.0001 11.8625C19.7361 11.8625 19.5644 11.9899 19.458 12.1562C19.3503 12.3244 19.3063 12.5375 19.3063 12.7125V14.425H18.3407V8.85001H18.0407V8.06251H17.6844V7.01251ZM22.2313 7.93751V7.13751H21.7532V7.63751H21.0032V7.13751H20.3657V7.63751H19.6344V7.13751H18.9876V7.63751H18.2657V7.13751H17.7782V7.93751H22.2313ZM18.1344 8.06251V8.72501H21.8657V8.06251H18.1344ZM18.4344 8.86251V14.3H19.2126V12.7125C19.2126 12.5126 19.2623 12.2693 19.3867 12.0751C19.5123 11.8788 19.7109 11.7375 20.0001 11.7375C20.2892 11.7375 20.49 11.8788 20.6178 12.0746C20.7445 12.2686 20.7969 12.5119 20.7969 12.7125V14.3125H21.5657V8.86251H18.4344ZM19.8219 9.36251H20.1782V11.3875H19.8219V9.36251ZM19.9157 9.48751V11.2625H20.0844V9.48751H19.9157ZM19.0438 9.73751H19.4188V11.25H19.0438V9.73751ZM19.1376 9.86251V11.125H19.3251V9.86251H19.1376ZM20.5911 9.73751H20.9563V11.25H20.5809L20.5911 9.73751ZM20.684 9.86251L20.6755 11.125H20.8626V9.86251H20.684ZM16.8407 16.1625H23.1688V16.8625H16.8407V16.1625ZM16.9344 16.2875V16.7375H23.0751V16.2875H16.9344Z" fill="black"/>
<path d="M16.6251 14.3625V16.2375H23.3751V14.3625H22.7376V15.0875H21.8751V14.3625H20.7314V15.0875H19.2501V14.3625H18.1064V15.0875H17.2626V14.3625H16.6251Z" fill="#DA000C"/>
<path fill-rule="evenodd" clip-rule="evenodd" d="M16.5782 14.3H17.3095V15.025H18.0595V14.3H19.297V15.025H20.6845V14.3H21.922V15.025H22.6907V14.3H23.422V16.3H16.5782V14.3ZM16.672 14.425V16.175H23.3282V14.425H22.7845V15.15H21.8282V14.425H20.7782V15.15H19.2032V14.425H18.1532V15.15H17.2157V14.425H16.672Z" fill="black"/>
<path d="M17.4406 16.8V23.6H18.6406V21.05C18.6406 19.8625 19.2406 19.3 19.9999 19.3C20.7312 19.3 21.3593 19.8625 21.3593 21.05V23.6H22.5593V16.8H17.4406Z" fill="#DA000C"/>
<path fill-rule="evenodd" clip-rule="evenodd" d="M17.3937 16.8C17.3937 16.7655 17.4147 16.7375 17.4406 16.7375H22.5593C22.5852 16.7375 22.6062 16.7655 22.6062 16.8V23.6C22.6062 23.6345 22.5852 23.6625 22.5593 23.6625H21.3593C21.3334 23.6625 21.3124 23.6345 21.3124 23.6V21.05C21.3124 20.4721 21.1601 20.0526 20.923 19.7768C20.685 19.4998 20.357 19.3625 19.9999 19.3625C19.6285 19.3625 19.3008 19.5 19.0665 19.7765C18.8332 20.0519 18.6874 20.4712 18.6874 21.05V23.6C18.6874 23.6345 18.6664 23.6625 18.6406 23.6625H17.4406C17.4147 23.6625 17.3937 23.6345 17.3937 23.6V16.8ZM17.4874 16.8625V23.5375H18.5937V21.05C18.5937 20.4413 18.7479 19.9856 19.0044 19.6829C19.26 19.3812 19.612 19.2375 19.9999 19.2375C20.3741 19.2375 20.7258 19.3814 20.9847 19.6826C21.2445 19.9849 21.4062 20.4404 21.4062 21.05V23.5375H22.5124V16.8625H17.4874Z" fill="black"/>
</g>
<rect x="2" y="2" width="36" height="36" rx="18" stroke="white" stroke-width="4"/>
<defs>
<clipPath id="clip0_90_26586">
<rect x="4" y="4" width="32" height="32" rx="16" fill="white"/>
</clipPath>
</defs>
</svg>
