<svg width="40" height="40" viewBox="0 0 40 40" fill="none" xmlns="http://www.w3.org/2000/svg">
<g clip-path="url(#clip0_90_26583)">
<path d="M4 4H36V36H4V4Z" fill="white"/>
<path d="M3.99988 20H35.9999V36H3.99988V20ZM7.99988 20C7.99988 22.829 8.84273 25.5421 10.343 27.5425C11.8433 29.5428 13.8781 30.6666 15.9999 30.6666C18.1216 30.6666 20.1564 29.5428 21.6567 27.5425C23.157 25.5421 23.9999 22.829 23.9999 20C23.9999 17.171 23.157 14.4579 21.6567 12.4575C20.1564 10.4571 18.1216 9.33331 15.9999 9.33331C13.8781 9.33331 11.8433 10.4571 10.343 12.4575C8.84273 14.4579 7.99988 17.171 7.99988 20" fill="#D00C33"/>
</g>
<rect x="2" y="2" width="36" height="36" rx="18" stroke="white" stroke-width="4"/>
<defs>
<clipPath id="clip0_90_26583">
<rect x="4" y="4" width="32" height="32" rx="16" fill="white"/>
</clipPath>
</defs>
</svg>
