<svg width="40" height="40" viewBox="0 0 40 40" fill="none" xmlns="http://www.w3.org/2000/svg">
<g clip-path="url(#clip0_90_26536)">
<path d="M4 4H36V36H4V4Z" fill="#E32118"/>
<path d="M4 4H36V25.3333H4V4Z" fill="white"/>
<path d="M4 4H36V14.6667H4V4Z" fill="#3E9A00"/>
<path d="M4 4V36L13 20L4 4Z" fill="#0073CE"/>
<path d="M18.0802 16.7867H21.9102V22.1333C21.9102 23.9333 20.1502 22.5467 20.0002 23.5067C19.7402 22.52 18.0902 23.9467 18.0902 22.0267L18.0802 16.7867V16.7867Z" fill="white"/>
<path fill-rule="evenodd" clip-rule="evenodd" d="M18.1054 16.82L18.1153 22.0267C18.1153 22.5003 18.2168 22.7589 18.3667 22.9021C18.5186 23.0472 18.7259 23.08 18.9481 23.0834C19.0203 23.0844 19.0931 23.0824 19.1655 23.0805C19.2042 23.0794 19.2429 23.0783 19.2814 23.0777C19.391 23.0761 19.498 23.0783 19.5956 23.0962C19.6931 23.114 19.7828 23.1477 19.857 23.2104C19.9142 23.2588 19.9615 23.3239 19.996 23.4103C20.021 23.328 20.0603 23.2653 20.1112 23.2184C20.1783 23.1567 20.2638 23.1241 20.3587 23.1072C20.4537 23.0903 20.5603 23.0888 20.671 23.0916C20.7138 23.0926 20.7571 23.0943 20.8006 23.096C20.8704 23.0987 20.941 23.1014 21.0116 23.1017C21.2409 23.1025 21.459 23.0767 21.6198 22.944C21.7778 22.8136 21.8853 22.5754 21.8853 22.1334V16.82H18.1054ZM18.0803 16.7867V16.7534H21.9353V22.1334C21.9353 22.5914 21.8228 22.8548 21.6461 23.0007C21.4722 23.1442 21.241 23.1692 21.0115 23.1684C20.9404 23.1681 20.8684 23.1653 20.7979 23.1626C20.7546 23.1609 20.7117 23.1593 20.6701 23.1582C20.5599 23.1555 20.4564 23.1571 20.3653 23.1733C20.2741 23.1895 20.1975 23.2201 20.1396 23.2733C20.0826 23.3258 20.0423 23.4016 20.0248 23.5135L20.0065 23.6307L19.9767 23.5177C19.9461 23.4015 19.8954 23.3219 19.8302 23.2667C19.7644 23.2111 19.6825 23.1794 19.5888 23.1622C19.4951 23.1451 19.3911 23.1427 19.282 23.1444C19.2445 23.145 19.2063 23.146 19.1677 23.1471C19.0947 23.1491 19.0205 23.1511 18.9475 23.15C18.7247 23.1467 18.5032 23.1145 18.3376 22.9563C18.17 22.7962 18.0653 22.5131 18.0653 22.0267L18.0553 16.7868L18.0803 16.7867Z" fill="black"/>
<path d="M20.2703 22.6533C20.2703 22.6533 20.2203 22.7199 20.1303 22.6666C20.0403 22.6133 20.0303 19.2399 20.0303 19.2399C20.2303 18.9466 20.3903 18.8533 20.3903 18.8533L20.5103 18.9866C20.0603 19.2933 20.1003 19.7333 20.1403 20.4933C20.1503 20.7733 20.1503 21.1333 20.2003 21.4799C20.2703 21.9199 20.4103 22.2933 20.4203 22.5733C20.4303 22.7466 20.2703 22.6533 20.2703 22.6533V22.6533Z" fill="#73452B"/>
<path fill-rule="evenodd" clip-rule="evenodd" d="M20.3911 18.8456L20.5193 18.988L20.5126 18.9926C20.4005 19.069 20.3192 19.1534 20.2609 19.2488C20.2025 19.3441 20.1669 19.4507 20.1464 19.5715C20.1081 19.7972 20.1228 20.0721 20.1412 20.4165C20.1425 20.4416 20.1439 20.467 20.1453 20.4929L20.1453 20.493C20.1472 20.5477 20.1488 20.6053 20.1504 20.6653C20.1572 20.913 20.165 21.2001 20.2052 21.4787C20.2364 21.675 20.2816 21.858 20.323 22.0257C20.3279 22.0455 20.3328 22.0652 20.3375 22.0846C20.3825 22.2677 20.4202 22.4319 20.4253 22.5729C20.4278 22.6175 20.4195 22.6466 20.4043 22.664C20.3893 22.6812 20.3688 22.6859 20.3489 22.685C20.3289 22.6841 20.3087 22.6777 20.2937 22.6716C20.2861 22.6685 20.2798 22.6655 20.2754 22.6632C20.2737 22.6624 20.2724 22.6617 20.2713 22.6611C20.2712 22.6611 20.2712 22.6612 20.2712 22.6612C20.2695 22.6631 20.267 22.6656 20.2638 22.6685C20.2574 22.6742 20.2479 22.6811 20.2355 22.6864C20.2106 22.6968 20.1744 22.7001 20.1282 22.6728C20.1258 22.6713 20.1238 22.6687 20.1221 22.6658C20.1204 22.6628 20.1189 22.6591 20.1175 22.6549C20.1147 22.6464 20.112 22.635 20.1095 22.621C20.1044 22.593 20.0996 22.5537 20.0952 22.5049C20.0863 22.4074 20.0785 22.271 20.0717 22.1091C20.0581 21.7853 20.0484 21.3585 20.0415 20.9335C20.0347 20.5084 20.0306 20.0851 20.0282 19.768C20.0271 19.6094 20.0263 19.4775 20.0259 19.3851C20.0257 19.3389 20.0255 19.3027 20.0254 19.2779L20.0253 19.2401C20.0253 19.24 20.0253 19.24 20.0303 19.24L20.0253 19.2401L20.0253 19.2374L20.0266 19.2355C20.1268 19.0885 20.2171 18.9915 20.2824 18.9312C20.3151 18.9011 20.3415 18.8801 20.3597 18.8667C20.3689 18.86 20.376 18.8551 20.3808 18.8519C20.3832 18.8504 20.3851 18.8492 20.3863 18.8484L20.3878 18.8475L20.3881 18.8473L20.3882 18.8473C20.3882 18.8473 20.3883 18.8472 20.3903 18.8533L20.3882 18.8473L20.3911 18.8456ZM20.3895 18.8612C20.3884 18.8618 20.387 18.8628 20.3852 18.8639C20.3805 18.867 20.3736 18.8717 20.3646 18.8783C20.3466 18.8916 20.3205 18.9123 20.2881 18.9422C20.2237 19.0016 20.1345 19.0974 20.0353 19.2426L20.0354 19.2779C20.0355 19.3026 20.0357 19.3388 20.0359 19.385C20.0363 19.4774 20.0371 19.6093 20.0382 19.7679C20.0406 20.0849 20.0447 20.5082 20.0515 20.9332C20.0584 21.3582 20.0681 21.7848 20.0817 22.1084C20.0885 22.2702 20.0962 22.4062 20.1051 22.5033C20.1095 22.5519 20.1142 22.5906 20.1192 22.6178C20.1217 22.6315 20.1242 22.642 20.1266 22.6494C20.1279 22.6531 20.129 22.6559 20.1301 22.6578C20.1312 22.6597 20.132 22.6604 20.1323 22.6606C20.1762 22.6866 20.2099 22.6832 20.2325 22.6736C20.2439 22.6689 20.2525 22.6625 20.2583 22.6574C20.2612 22.6548 20.2633 22.6526 20.2647 22.651C20.2655 22.6502 20.266 22.6496 20.2663 22.6492L20.2667 22.6487L20.2667 22.6486C20.2667 22.6486 20.2667 22.6486 20.2703 22.6533L20.2723 22.6472L20.2724 22.6473L20.2727 22.6475L20.274 22.6482C20.2751 22.6488 20.2768 22.6497 20.2789 22.6508C20.2832 22.653 20.2893 22.6559 20.2966 22.6588C20.3112 22.6648 20.3304 22.6709 20.3492 22.6717C20.368 22.6725 20.3856 22.6679 20.3978 22.6539C20.4098 22.6401 20.4177 22.6159 20.4153 22.5739L20.4153 22.5737C20.4103 22.4347 20.3731 22.2723 20.328 22.0887C20.3233 22.0693 20.3184 22.0497 20.3135 22.0298C20.2721 21.8622 20.2267 21.6785 20.1954 21.4814L20.1954 21.4813C20.155 21.2015 20.1472 20.9131 20.1404 20.6653C20.1388 20.6055 20.1372 20.5481 20.1353 20.4937C20.1339 20.4676 20.1325 20.4419 20.1312 20.4166C20.1128 20.0731 20.098 19.7962 20.1366 19.5685C20.1574 19.446 20.1937 19.3375 20.2531 19.2404C20.3114 19.1452 20.3918 19.0611 20.5013 18.9854L20.3895 18.8612Z" fill="black"/>
<path d="M19.9599 18.7734H20.1399C19.9899 20.7067 20.1199 21.8534 20.1199 22.4134C20.1199 22.6 20.1999 22.6667 20.1899 22.6667C20.0099 22.9334 19.9199 22.6534 19.9199 22.6534L19.9599 18.7734Z" fill="#73452B"/>
<path fill-rule="evenodd" clip-rule="evenodd" d="M19.9551 18.7667H20.1456L20.145 18.7741C20.0321 20.2301 20.0779 21.2392 20.1075 21.8884C20.1171 22.101 20.1251 22.275 20.1251 22.4134C20.1251 22.5054 20.1447 22.5675 20.163 22.6065C20.1722 22.6261 20.1811 22.6399 20.1871 22.649C20.1877 22.6499 20.1884 22.6509 20.189 22.6518C20.1911 22.6549 20.1928 22.6576 20.1939 22.6595C20.1943 22.6602 20.1947 22.6609 20.195 22.6617C20.1953 22.6624 20.1958 22.6637 20.1959 22.6653C20.196 22.6674 20.1955 22.6702 20.1936 22.672C20.1933 22.6722 20.1931 22.6724 20.1928 22.6726C20.1478 22.7389 20.108 22.772 20.0731 22.7836C20.0379 22.7954 20.0084 22.7849 19.9849 22.7657C19.9616 22.7467 19.9443 22.7192 19.9328 22.6967C19.927 22.6854 19.9227 22.6753 19.9198 22.668C19.9184 22.6643 19.9173 22.6614 19.9166 22.6593C19.9162 22.6583 19.9159 22.6575 19.9158 22.6569L19.9155 22.6563L19.9155 22.6561L19.9155 22.656C19.9155 22.656 19.9155 22.656 19.9201 22.6534L19.9155 22.656L19.915 22.6547L19.9551 18.7667ZM19.9251 22.652C19.9252 22.6524 19.9254 22.653 19.9256 22.6536C19.9263 22.6555 19.9273 22.6583 19.9287 22.6618C19.9314 22.6688 19.9356 22.6784 19.9411 22.6892C19.9521 22.7109 19.9685 22.7367 19.9902 22.7544C20.0117 22.7719 20.0384 22.7814 20.0707 22.7707C20.1027 22.76 20.1406 22.7293 20.1844 22.6651C20.1837 22.664 20.1828 22.6627 20.1818 22.6611C20.1811 22.6601 20.1804 22.659 20.1796 22.6578C20.1734 22.6485 20.1641 22.634 20.1546 22.6136C20.1354 22.5726 20.1151 22.5081 20.1151 22.4134C20.1151 22.2757 20.1072 22.1023 20.0975 21.8902C20.068 21.2423 20.0222 20.2335 20.1345 18.7801H19.965L19.9251 22.652Z" fill="black"/>
<path d="M19.68 22.6533C19.51 22.76 19.49 22.5466 19.5 22.52C19.87 21.52 20.03 19.32 19.69 19.08L19.71 18.8666C19.84 18.92 19.96 19.1466 19.96 19.1466C20.01 21.6133 19.96 22.6266 19.93 22.6666C19.75 22.92 19.68 22.6266 19.67 22.6" fill="#A36629"/>
<path fill-rule="evenodd" clip-rule="evenodd" d="M19.7059 18.858L19.7116 18.8604C19.7779 18.8875 19.8411 18.9586 19.8875 19.0221C19.9108 19.0539 19.9299 19.0841 19.9433 19.1063C19.95 19.1174 19.9552 19.1265 19.9588 19.1329C19.9605 19.1361 19.9619 19.1386 19.9628 19.1403L19.9639 19.1422L19.9641 19.1427L19.9642 19.1428L19.9651 19.1445L19.9652 19.1466C19.9902 20.38 19.9902 21.2501 19.9802 21.8169C19.9752 22.1003 19.9677 22.3079 19.9595 22.4473C19.9555 22.5169 19.9512 22.5696 19.9471 22.6062C19.945 22.6245 19.9429 22.6389 19.9408 22.6494C19.9398 22.6547 19.9387 22.6591 19.9377 22.6627C19.9366 22.666 19.9354 22.6692 19.9337 22.6714C19.8884 22.7352 19.8494 22.7654 19.8159 22.7735C19.7821 22.7816 19.7548 22.767 19.7332 22.7436C19.7119 22.7202 19.6962 22.6881 19.6853 22.6605C19.6798 22.6466 19.6755 22.6338 19.6722 22.6236C19.6708 22.6193 19.6697 22.6155 19.6687 22.6124C19.6673 22.608 19.6664 22.6049 19.6657 22.6031L19.6746 22.5971C19.6755 22.5993 19.6767 22.6032 19.6782 22.6082C19.6792 22.6112 19.6802 22.6147 19.6814 22.6184C19.6846 22.6284 19.6888 22.6408 19.6941 22.6543C19.7048 22.6812 19.7197 22.7116 19.7396 22.7332C19.7593 22.7548 19.7838 22.7677 19.8141 22.7604C19.8447 22.753 19.8819 22.725 19.9265 22.6622L19.9266 22.662C19.9268 22.6617 19.9275 22.6606 19.9284 22.6576C19.9293 22.6548 19.9302 22.651 19.9312 22.646C19.9331 22.6361 19.9351 22.6223 19.9372 22.6042C19.9413 22.5681 19.9455 22.5157 19.9495 22.4462C19.9577 22.3072 19.9652 22.0999 19.9702 21.8166C19.9802 21.2504 19.9802 20.3811 19.9552 19.149L19.9547 19.1481C19.9538 19.1464 19.9525 19.144 19.9507 19.1409C19.9472 19.1346 19.9421 19.1256 19.9355 19.1147C19.9223 19.0927 19.9033 19.0629 19.8803 19.0314C19.8356 18.9701 19.7761 18.9034 19.7144 18.8756L19.6955 19.0764C19.7381 19.1081 19.7724 19.1694 19.7994 19.2531C19.8271 19.339 19.8473 19.4491 19.8609 19.5773C19.888 19.8336 19.8883 20.1629 19.8664 20.5156C19.8226 21.2211 19.69 22.022 19.5046 22.523C19.5039 22.5249 19.5031 22.5299 19.503 22.5379C19.503 22.5456 19.5036 22.5553 19.5051 22.5659C19.5081 22.5873 19.5147 22.6121 19.5266 22.6327C19.5384 22.6532 19.5555 22.6696 19.5797 22.6747C19.604 22.6799 19.6361 22.6737 19.678 22.6474L19.6823 22.6594C19.6392 22.6865 19.6051 22.6936 19.5781 22.6879C19.5511 22.6822 19.5319 22.6636 19.5187 22.6408C19.5056 22.6181 19.4985 22.5912 19.4952 22.5684C19.4936 22.557 19.493 22.5464 19.493 22.5377C19.4931 22.5294 19.4939 22.5219 19.4957 22.5171C19.6803 22.0182 19.8127 21.2191 19.8564 20.5145C19.8783 20.1623 19.8779 19.8341 19.851 19.5791C19.8375 19.4516 19.8174 19.3427 19.7902 19.2584C19.763 19.174 19.7289 19.1149 19.6878 19.086L19.6848 19.0838L19.7059 18.858Z" fill="black"/>
<path fill-rule="evenodd" clip-rule="evenodd" d="M19.7025 22.3978C19.6799 22.4881 19.6678 22.5607 19.6751 22.6121L19.6652 22.6146C19.6575 22.5594 19.6704 22.4836 19.6931 22.3935C19.7078 22.3348 19.7269 22.2691 19.7475 22.1981C19.7586 22.16 19.7702 22.1203 19.7817 22.0794C19.8479 21.8445 19.9151 21.5656 19.9051 21.2803L19.9151 21.2797C19.9252 21.5679 19.8573 21.849 19.7911 22.084C19.7794 22.1253 19.7678 22.1652 19.7567 22.2034C19.7362 22.2741 19.7172 22.3393 19.7025 22.3978ZM20.2652 22.6527C20.2851 22.374 20.2453 22.0817 20.1554 21.749L20.1648 21.7444C20.255 22.0783 20.2952 22.3727 20.2751 22.654L20.2652 22.6527Z" fill="black"/>
<path d="M20.5497 17.8667C20.6097 17.7734 20.6097 17.7734 20.7197 17.7734C20.7397 17.5734 20.9897 17.5734 21.0097 17.8267C21.2097 17.7734 21.2497 17.9334 21.1697 18.0934C21.3597 18.0267 21.5297 18.0934 21.4797 18.3867C21.8197 18.5067 21.6897 18.8267 21.5397 18.8934C21.5197 19.0934 21.3797 19.16 21.1897 19.08C20.9497 19.3067 20.8097 19.2267 20.6997 19C20.4297 19.0534 20.4097 18.9734 20.2897 18.7734C20.0797 18.8934 20.0397 18.8934 19.8597 18.7467C19.8497 18.9334 19.7997 18.88 19.7097 18.8667C19.7197 19.1067 19.6497 19.2134 19.4897 19.1334C19.6097 19.4667 19.2997 19.6134 19.1497 19.3334C19.0097 19.3467 18.9997 19.2934 18.9297 19.2267C18.8697 19.4934 18.6497 19.4534 18.6097 19.3067C18.3297 19.2534 18.3597 19.0534 18.5897 19.04C18.6097 18.8267 18.7497 18.8667 18.8397 18.8934C18.8497 18.76 18.9097 18.7867 18.9597 18.8134C18.9297 18.72 18.9497 18.6667 19.0397 18.64C18.9097 18.4134 18.9897 18.3334 19.1197 18.2534C19.0497 18.04 19.1697 18.0534 19.2597 18.04C19.2497 17.8134 19.2997 17.7734 19.4797 17.7467C19.4597 17.6667 19.4897 17.6 19.5897 17.6C19.5297 17.3734 19.6097 17.32 19.7897 17.36C19.8197 17.0267 20.3497 17.1867 20.3097 17.64C20.4597 17.6667 20.5097 17.7067 20.5497 17.8667V17.8667Z" fill="#009A3B"/>
<path fill-rule="evenodd" clip-rule="evenodd" d="M19.891 17.2057C19.8393 17.2298 19.802 17.2804 19.7948 17.3609L19.7942 17.3678L19.789 17.3666C19.7442 17.3567 19.7059 17.3526 19.6745 17.3555C19.6432 17.3583 19.6193 17.3681 19.6029 17.3853C19.5867 17.4023 19.5772 17.4271 19.5754 17.4618C19.5736 17.4967 19.5797 17.5416 19.5945 17.5978L19.5969 17.6067H19.5898C19.5405 17.6067 19.5097 17.6232 19.4936 17.6478C19.4776 17.6721 19.4749 17.706 19.4846 17.7446L19.4865 17.7524L19.4804 17.7534C19.4354 17.76 19.3989 17.7675 19.3695 17.7784C19.34 17.7892 19.3181 17.8034 19.302 17.8233C19.27 17.8627 19.2598 17.9265 19.2648 18.0397L19.2651 18.046L19.2604 18.0467C19.2506 18.0481 19.2404 18.0493 19.2303 18.0504C19.2287 18.0506 19.2271 18.0508 19.2255 18.0509C19.2138 18.0523 19.2021 18.0537 19.1908 18.0556C19.1681 18.0596 19.1477 18.0657 19.1323 18.0775C19.1173 18.0891 19.1071 18.1061 19.1045 18.1328C19.1018 18.16 19.1071 18.1978 19.1244 18.2507L19.1264 18.2567L19.1219 18.2594C19.0895 18.2794 19.0605 18.2992 19.0371 18.3211C19.0137 18.3431 18.9964 18.3668 18.9869 18.3945C18.9681 18.4492 18.979 18.5231 19.0438 18.636L19.0486 18.6443L19.0409 18.6466C18.9962 18.6598 18.9705 18.6793 18.9591 18.7051C18.9479 18.7306 18.9496 18.7647 18.9644 18.8108L18.9692 18.8256L18.958 18.8196C18.9455 18.8129 18.9326 18.8064 18.9202 18.8024C18.9077 18.7983 18.8961 18.7969 18.8859 18.7999C18.8759 18.8029 18.867 18.8102 18.8599 18.8246C18.8527 18.8392 18.8473 18.8613 18.8448 18.8941L18.8442 18.9015L18.8387 18.8999C18.7935 18.8865 18.7371 18.8703 18.6896 18.8833C18.666 18.8897 18.6449 18.9033 18.6284 18.9278C18.6119 18.9524 18.5997 18.9885 18.5948 19.0409L18.5943 19.0465L18.59 19.0467C18.533 19.05 18.4888 19.0649 18.4589 19.0858C18.4288 19.1067 18.4141 19.1329 18.4136 19.1586C18.413 19.1842 18.4265 19.2128 18.4588 19.2387C18.491 19.2646 18.5409 19.2869 18.6105 19.3001L18.6135 19.3007L18.6145 19.3045C18.6336 19.3743 18.6961 19.42 18.7621 19.4151C18.8274 19.4102 18.8956 19.3555 18.925 19.2248L18.9271 19.2159L18.9327 19.2213C18.947 19.2349 18.9588 19.2479 18.9696 19.2598C18.9722 19.2627 18.9747 19.2655 18.9772 19.2682C18.9901 19.2824 19.002 19.2945 19.0159 19.3042C19.0435 19.3233 19.0799 19.3334 19.1495 19.3267L19.1523 19.3265L19.1539 19.3295C19.2277 19.4672 19.3403 19.4993 19.4192 19.4572C19.4587 19.4362 19.4897 19.3967 19.5037 19.3425C19.5177 19.2883 19.5149 19.2184 19.4853 19.1363L19.4799 19.1213L19.4916 19.1272C19.5709 19.1668 19.626 19.1592 19.6601 19.1153C19.6947 19.0707 19.7098 18.9867 19.7048 18.8671L19.7045 18.8592L19.7104 18.8601C19.7266 18.8625 19.7417 18.8662 19.7552 18.8696C19.7606 18.8709 19.7658 18.8722 19.7707 18.8733C19.7882 18.8772 19.8022 18.8791 19.8136 18.8753C19.8245 18.8716 19.8334 18.8627 19.8403 18.8432C19.8474 18.8233 19.8524 18.7927 19.8548 18.7463L19.8554 18.7353L19.8624 18.741C19.9525 18.8145 20.0065 18.8502 20.0638 18.8534C20.1212 18.8567 20.1827 18.8274 20.2879 18.7673L20.2914 18.7653L20.2937 18.7692C20.3037 18.7858 20.3129 18.8016 20.3217 18.8164C20.3394 18.8465 20.355 18.8731 20.3703 18.8963C20.3931 18.9308 20.4148 18.9572 20.4409 18.9759C20.4932 19.0131 20.5642 19.0201 20.6991 18.9935L20.7023 18.9928L20.704 18.9964C20.7587 19.1092 20.8202 19.184 20.897 19.2035C20.9738 19.223 21.0674 19.1875 21.1869 19.0746L21.189 19.0727L21.1913 19.0737C21.2857 19.1135 21.367 19.1164 21.4268 19.0855C21.4862 19.0548 21.5251 18.9903 21.5349 18.8925L21.5353 18.8884L21.5383 18.8871C21.6118 18.8544 21.6801 18.7595 21.6886 18.6593C21.6928 18.6096 21.6824 18.5582 21.6501 18.5117C21.6177 18.465 21.563 18.423 21.4786 18.3932L21.4739 18.3915L21.475 18.3853C21.4873 18.3127 21.486 18.2549 21.4745 18.2099C21.463 18.1651 21.4414 18.1326 21.4124 18.1109C21.3541 18.0671 21.2656 18.0667 21.1711 18.0998L21.1584 18.1043L21.1657 18.0897C21.2053 18.0105 21.214 17.9336 21.1906 17.8836C21.1673 17.834 21.1103 17.8067 21.0108 17.8333L21.0054 17.8347L21.0049 17.8274C20.9951 17.7043 20.9298 17.6432 20.8645 17.6367C20.7988 17.6302 20.7343 17.6787 20.7248 17.7743L20.7242 17.7801H20.7198C20.6923 17.7801 20.6718 17.7801 20.6556 17.7815C20.6395 17.7829 20.6279 17.7858 20.618 17.7912C20.5981 17.8021 20.5839 17.8239 20.5536 17.8711L20.5498 17.8667L20.5451 17.8688C20.5252 17.7894 20.5032 17.741 20.4682 17.7089C20.4331 17.6765 20.3841 17.66 20.3092 17.6467L20.3043 17.6458L20.3049 17.6393C20.3245 17.4169 20.2045 17.2658 20.0746 17.2114C20.0097 17.1842 19.943 17.1815 19.891 17.2057ZM20.5517 17.8535C20.5778 17.813 20.5931 17.7905 20.6142 17.7789C20.6255 17.7727 20.6383 17.7697 20.655 17.7682C20.6707 17.7668 20.6902 17.7667 20.7155 17.7667C20.728 17.6662 20.7971 17.6167 20.8652 17.6234C20.9336 17.6302 21.0019 17.6934 21.0142 17.8188C21.1116 17.7943 21.1728 17.8205 21.1991 17.8765C21.2241 17.9299 21.2156 18.0066 21.1808 18.0828C21.2718 18.0535 21.3582 18.055 21.4173 18.0993C21.4483 18.1225 21.4716 18.1575 21.4839 18.2056C21.4959 18.2522 21.4973 18.3107 21.4857 18.3819C21.5687 18.412 21.6239 18.4543 21.6574 18.5026C21.6917 18.552 21.7031 18.6072 21.6986 18.6608C21.6897 18.7659 21.6197 18.8632 21.5444 18.8984C21.5335 18.9984 21.4926 19.0658 21.4304 19.0979C21.3682 19.1301 21.2853 19.1267 21.1907 19.0874C21.0712 19.1997 20.9754 19.237 20.8951 19.2166C20.8153 19.1963 20.7523 19.1193 20.6974 19.0073C20.5643 19.0332 20.4911 19.0267 20.4362 18.9876C20.4086 18.9679 20.386 18.9402 20.3628 18.9051C20.3473 18.8816 20.3314 18.8546 20.3136 18.8242C20.3056 18.8107 20.2972 18.7964 20.2883 18.7815C20.1856 18.8401 20.1228 18.8701 20.0634 18.8667C20.0047 18.8634 19.95 18.8276 19.8642 18.7581C19.8615 18.7992 19.8566 18.8285 19.8493 18.849C19.8413 18.8716 19.8302 18.8835 19.816 18.8882C19.8024 18.8927 19.7865 18.8904 19.769 18.8864C19.7638 18.8853 19.7585 18.8839 19.753 18.8826C19.7413 18.8797 19.7287 18.8766 19.7151 18.8743C19.7192 18.9907 19.7041 19.0771 19.6671 19.1249C19.6305 19.1719 19.5743 19.1793 19.4993 19.145C19.5251 19.2235 19.5273 19.2919 19.5132 19.3468C19.4981 19.4051 19.4647 19.4473 19.4229 19.4696C19.34 19.5138 19.2237 19.4801 19.1474 19.3403C19.0787 19.3465 19.0408 19.3365 19.0113 19.316C18.9964 19.3056 18.9839 19.2928 18.9709 19.2786C18.9683 19.2757 18.9657 19.2729 18.9631 19.27C18.9538 19.2597 18.944 19.2489 18.9325 19.2376C18.9008 19.3672 18.8307 19.4233 18.7626 19.4284C18.6947 19.4334 18.6283 19.3874 18.6062 19.3128C18.5373 19.2993 18.4869 19.2769 18.4537 19.2501C18.4201 19.2232 18.4029 19.1909 18.4036 19.1582C18.4043 19.1255 18.4228 19.0959 18.4542 19.0739C18.4851 19.0524 18.5294 19.0375 18.5854 19.0337C18.5909 18.9823 18.6034 18.9451 18.621 18.9189C18.6392 18.8918 18.6624 18.8771 18.6876 18.8702C18.7356 18.8571 18.7915 18.8723 18.8355 18.8853C18.8383 18.8552 18.8438 18.833 18.8516 18.8172C18.8601 18.7999 18.8712 18.7906 18.8837 18.7869C18.8961 18.7832 18.9094 18.7851 18.9226 18.7894C18.932 18.7925 18.9416 18.7969 18.9509 18.8016C18.9396 18.7607 18.9382 18.7263 18.9505 18.6983C18.9634 18.6692 18.9902 18.6493 19.0312 18.6359C18.97 18.5265 18.9571 18.4494 18.9778 18.389C18.9883 18.3583 19.0072 18.3329 19.0313 18.3102C19.0544 18.2886 19.0825 18.2692 19.1133 18.2501C19.0972 18.1993 19.0917 18.1606 19.0946 18.1311C19.0976 18.0998 19.1099 18.0794 19.1273 18.066C19.1445 18.0528 19.1666 18.0464 19.1895 18.0424C19.201 18.0404 19.2129 18.039 19.2247 18.0377C19.2263 18.0375 19.2279 18.0373 19.2295 18.0371C19.238 18.0362 19.2464 18.0352 19.2546 18.0341C19.2502 17.9244 19.2603 17.8566 19.2952 17.8135C19.3129 17.7917 19.3365 17.7767 19.3668 17.7655C19.3957 17.7548 19.4309 17.7475 19.4733 17.741C19.4651 17.7025 19.4682 17.6662 19.4861 17.639C19.5041 17.6116 19.536 17.595 19.5828 17.5935C19.5694 17.5404 19.5636 17.4965 19.5655 17.4609C19.5674 17.4231 19.5779 17.3945 19.5967 17.3748C19.6154 17.3553 19.6415 17.3451 19.6739 17.3422C19.7051 17.3393 19.7425 17.3431 19.7856 17.3524C19.7948 17.2701 19.8344 17.218 19.8877 17.1931C19.9423 17.1678 20.0112 17.1709 20.0776 17.1987C20.209 17.2538 20.3328 17.4069 20.3153 17.6343C20.3877 17.6475 20.4374 17.6643 20.4739 17.6979C20.5097 17.7308 20.5323 17.7793 20.5517 17.8535Z" fill="black"/>
<path fill-rule="evenodd" clip-rule="evenodd" d="M20.2612 17.6838C20.2805 17.6692 20.2964 17.6548 20.3057 17.6363L20.314 17.6437C20.3033 17.6651 20.2855 17.6808 20.2661 17.6954C20.2604 17.6997 20.2545 17.7039 20.2486 17.7082C20.2341 17.7186 20.2192 17.7293 20.2052 17.7421C20.1856 17.7601 20.1682 17.7818 20.1568 17.8118C20.1455 17.8416 20.1399 17.8802 20.1448 17.9325L20.1358 17.9372C20.1116 17.8919 20.0752 17.863 20.0404 17.8566C20.0058 17.8502 19.973 17.8661 19.9542 17.91L19.9455 17.9033C19.9667 17.8539 20.0039 17.8364 20.0418 17.8434C20.0747 17.8494 20.1083 17.8738 20.1334 17.9117C20.1316 17.8682 20.1373 17.8337 20.1479 17.8057C20.1603 17.7731 20.1791 17.7499 20.1995 17.7312C20.2141 17.7179 20.2297 17.7066 20.2443 17.6961C20.2501 17.6919 20.2558 17.6878 20.2612 17.6838ZM19.5075 17.7659C19.4978 17.7627 19.4875 17.7592 19.4776 17.7526L19.4821 17.7407C19.4909 17.7466 19.5003 17.7497 19.5102 17.753C19.5108 17.7533 19.5115 17.7535 19.5122 17.7537C19.5226 17.7573 19.5336 17.7612 19.5437 17.7693C19.5625 17.7843 19.5769 17.8126 19.5832 17.8731C19.6013 17.8356 19.6204 17.8114 19.6396 17.7994C19.6618 17.7855 19.6837 17.7881 19.7026 17.8044C19.7213 17.8204 19.7368 17.8493 19.7477 17.8872C19.7586 17.9252 19.7649 17.9727 19.7649 18.0267H19.7549C19.7549 17.974 19.7487 17.9281 19.7383 17.892C19.7279 17.8557 19.7135 17.8296 19.6972 17.8156C19.6811 17.8018 19.6629 17.7995 19.6439 17.8114C19.6246 17.8235 19.604 17.8506 19.5842 17.8966L19.5763 17.915L19.5749 17.8939C19.57 17.8215 19.5553 17.7941 19.5386 17.7807C19.5299 17.7738 19.5202 17.7702 19.5097 17.7667C19.509 17.7664 19.5083 17.7662 19.5075 17.7659ZM20.535 18.0022C20.5424 17.9459 20.5449 17.8929 20.5449 17.8667H20.5549C20.5549 17.8937 20.5524 17.9474 20.5448 18.0045C20.5373 18.0613 20.5246 18.1225 20.504 18.1637L20.4957 18.1563C20.5151 18.1175 20.5275 18.0586 20.535 18.0022ZM21.1654 18.0947C21.1654 18.0968 21.1662 18.0979 21.1663 18.098L21.1734 18.0886C21.1741 18.0896 21.1753 18.0915 21.1754 18.0943C21.1754 18.0974 21.1742 18.0995 21.1732 18.1006C21.1723 18.1016 21.1713 18.1023 21.1705 18.1027C21.1696 18.1031 21.1687 18.1035 21.1678 18.1038C21.1641 18.1049 21.1584 18.1058 21.1516 18.1066C21.1471 18.1072 21.142 18.1077 21.1364 18.1083C21.1246 18.1095 21.1107 18.111 21.0954 18.1133C21.0504 18.12 20.9966 18.1332 20.9628 18.1654L20.957 18.1546C20.9932 18.1201 21.0494 18.1067 21.0943 18.1C21.1097 18.0978 21.124 18.0962 21.1358 18.095C21.1414 18.0944 21.1464 18.0939 21.1507 18.0933C21.1576 18.0925 21.1626 18.0917 21.1654 18.0908C21.1661 18.0906 21.1666 18.0904 21.1669 18.0902C21.1672 18.0901 21.167 18.0901 21.1667 18.0905C21.1663 18.0909 21.1653 18.0923 21.1654 18.0947ZM19.5601 18.2414C19.5255 18.2557 19.4789 18.3041 19.4241 18.4169L19.4184 18.4286L19.4151 18.4154C19.4079 18.3865 19.3972 18.3668 19.3846 18.3533C19.3719 18.3398 19.3571 18.3322 19.3414 18.3282C19.3257 18.3242 19.3093 18.3237 19.2935 18.3244C19.287 18.3246 19.2804 18.3251 19.2741 18.3255C19.2654 18.3261 19.2571 18.3267 19.2499 18.3267V18.3133C19.257 18.3133 19.2647 18.3128 19.2731 18.3122C19.2794 18.3118 19.2861 18.3113 19.2932 18.311C19.3092 18.3104 19.3265 18.3108 19.3433 18.3151C19.3601 18.3194 19.3766 18.3277 19.3908 18.3429C19.4031 18.356 19.4135 18.3741 19.4211 18.3987C19.4741 18.2925 19.5205 18.2438 19.5572 18.2286C19.5956 18.2127 19.6232 18.2339 19.6344 18.2637L19.6254 18.2696C19.6166 18.2461 19.5942 18.2273 19.5601 18.2414ZM19.9773 18.2873C19.9228 18.2428 19.8695 18.2273 19.8316 18.2462L19.8281 18.2337C19.8703 18.2127 19.927 18.2306 19.9825 18.276C20.0358 18.3196 20.089 18.3894 20.1289 18.478C20.1487 18.4127 20.1732 18.3837 20.2007 18.3704C20.2151 18.3634 20.23 18.3609 20.2448 18.3592C20.2487 18.3587 20.2525 18.3584 20.2564 18.358C20.2673 18.3569 20.2782 18.3558 20.2891 18.3534L20.2907 18.3666C20.2793 18.3691 20.2678 18.3702 20.2568 18.3713C20.253 18.3717 20.2493 18.3721 20.2456 18.3725C20.231 18.3741 20.2172 18.3766 20.2041 18.3829C20.1784 18.3954 20.1542 18.4235 20.1346 18.4956L20.1309 18.5091L20.1255 18.4966C20.0859 18.4042 20.0315 18.3317 19.9773 18.2873ZM20.8258 18.5171C20.7857 18.4799 20.7351 18.4606 20.672 18.4994L20.6678 18.4873C20.7347 18.4461 20.7891 18.4668 20.8315 18.5062C20.8676 18.5397 20.8952 18.587 20.9148 18.6205C20.9165 18.6235 20.9182 18.6264 20.9198 18.6291C20.9487 18.5795 20.9758 18.5537 21.0032 18.5404C21.0315 18.5267 21.0598 18.5267 21.0895 18.5267H21.0899V18.54C21.0597 18.54 21.0331 18.5401 21.0066 18.5529C20.9802 18.5657 20.9535 18.5914 20.9239 18.644L20.92 18.6509L20.916 18.6442C20.9131 18.6393 20.91 18.6341 20.9067 18.6285C20.8871 18.5948 20.8605 18.5494 20.8258 18.5171ZM20.2821 18.7329C20.2835 18.7476 20.2849 18.7617 20.2849 18.7733H20.2749C20.2749 18.7626 20.2736 18.7496 20.2722 18.7348C20.2719 18.732 20.2716 18.729 20.2713 18.726C20.2696 18.7079 20.268 18.6878 20.2686 18.668C20.2693 18.6482 20.2722 18.6283 20.2798 18.6106C20.2874 18.5928 20.2995 18.5777 20.3179 18.5672L20.3219 18.5795C20.3053 18.5889 20.2949 18.6021 20.2884 18.6172C20.2819 18.6325 20.2792 18.6501 20.2786 18.6686C20.278 18.6872 20.2795 18.7063 20.2812 18.7244C20.2815 18.7272 20.2818 18.7301 20.2821 18.7329ZM19.1422 18.6117C19.1051 18.61 19.0719 18.62 19.0534 18.6447L19.0463 18.6353C19.0678 18.6066 19.1046 18.5966 19.1425 18.5983C19.1807 18.6 19.2214 18.6136 19.2521 18.634L19.2476 18.646C19.2183 18.6264 19.179 18.6133 19.1422 18.6117ZM19.6397 18.6497C19.6222 18.673 19.61 18.7141 19.6149 18.7726L19.616 18.786L19.6073 18.779C19.5591 18.7405 19.4924 18.7539 19.4642 18.8168L19.4556 18.8099C19.4857 18.7431 19.553 18.7277 19.6041 18.7615C19.6016 18.7063 19.6139 18.6652 19.6326 18.6403C19.6526 18.6136 19.6799 18.6059 19.7021 18.6207L19.6976 18.6326C19.6799 18.6208 19.6572 18.6264 19.6397 18.6497ZM21.3648 18.8882C21.3643 18.8601 21.3621 18.82 21.3507 18.7841C21.3436 18.7615 21.3328 18.7404 21.3164 18.725C21.2999 18.7095 21.2783 18.7 21.2499 18.7V18.7133C21.2765 18.7133 21.2961 18.7222 21.3106 18.7358C21.3251 18.7495 21.3349 18.7684 21.3415 18.7893C21.3548 18.8312 21.3549 18.8799 21.3549 18.9067V18.9267L21.3639 18.9107C21.3784 18.8849 21.3939 18.8699 21.4095 18.8621C21.425 18.8542 21.441 18.8534 21.4566 18.8566C21.4835 18.8621 21.5087 18.8794 21.5282 18.8928C21.5315 18.8951 21.5347 18.8973 21.5376 18.8993L21.5421 18.8874C21.5393 18.8855 21.5363 18.8834 21.533 18.8812C21.5136 18.8678 21.4868 18.8493 21.4581 18.8434C21.4413 18.8399 21.4235 18.8408 21.4059 18.8496C21.3917 18.8568 21.3778 18.8691 21.3648 18.8882ZM20.8009 18.8602C20.8209 18.8591 20.842 18.8671 20.8629 18.888L20.8569 18.8987C20.8377 18.8795 20.8189 18.8726 20.8013 18.8735C20.7838 18.8745 20.7672 18.8835 20.7528 18.8971C20.7384 18.9107 20.7263 18.9287 20.7179 18.9474C20.7095 18.9661 20.7049 18.9849 20.7049 19H20.6949C20.6949 18.9817 20.7003 18.9605 20.7093 18.9405C20.7184 18.9204 20.7314 18.901 20.747 18.8862C20.7626 18.8715 20.781 18.8613 20.8009 18.8602ZM21.1822 18.9363C21.1899 18.9688 21.1949 19.0129 21.1949 19.08H21.1849C21.1849 19.0137 21.1799 18.9711 21.1726 18.9403C21.1653 18.9096 21.1557 18.8903 21.1457 18.8704L21.154 18.863L21.1541 18.8631C21.1641 18.8831 21.1744 18.9037 21.1822 18.9363ZM19.224 19.1246C19.2172 19.0723 19.1918 19.0238 19.1541 19.0054C19.1141 18.9859 19.0622 19.0008 19.0063 19.0753L19.0134 19.0847C19.0676 19.0125 19.1156 19.0008 19.1507 19.0179C19.1861 19.0352 19.2101 19.0828 19.2149 19.1341L19.2149 19.1342L19.215 19.1346C19.2172 19.1495 19.215 19.1603 19.2102 19.1704C19.2058 19.1795 19.1995 19.1879 19.1917 19.1982C19.1904 19.1999 19.189 19.2017 19.1876 19.2036C19.1685 19.2291 19.1453 19.2635 19.135 19.332L19.1448 19.3346C19.1545 19.2698 19.1763 19.2376 19.1947 19.213C19.196 19.2113 19.1973 19.2095 19.1986 19.2078C19.2063 19.1976 19.2136 19.188 19.2186 19.1775C19.2241 19.1661 19.2269 19.1536 19.2255 19.1379C19.2535 19.1263 19.2811 19.1236 19.3041 19.1282C19.3285 19.1331 19.3468 19.1459 19.3557 19.1637L19.364 19.1563C19.3529 19.1341 19.3313 19.1202 19.3056 19.1151C19.2814 19.1102 19.2527 19.113 19.224 19.1246Z" fill="black"/>
<path d="M19.8702 16.0334L19.6502 16.0467L19.5402 16.3134L19.4202 16.06L19.2002 16.0734L19.3002 15.8067L19.1802 15.56L19.4102 15.5467L19.5102 15.28L19.6302 15.5334L19.8502 15.52L19.7502 15.7867L19.8702 16.0334ZM18.9302 16.1334L18.7102 16.2L18.6502 16.4867L18.4902 16.2734L18.2802 16.34L18.3402 16.06L18.1902 15.8467L18.4002 15.7734L18.4602 15.4867L18.6202 15.7L18.8402 15.6334L18.7702 15.92L18.9302 16.1334ZM18.0202 16.38L17.8202 16.5134L17.8102 16.8067L17.6202 16.6467L17.4202 16.78L17.4402 16.48L17.2502 16.32L17.4502 16.1867L17.4702 15.8867L17.6502 16.0534L17.8502 15.92L17.8402 16.2134L18.0202 16.38ZM20.1602 16.0334L20.3802 16.0467L20.4802 16.3134L20.6002 16.06L20.8202 16.0734L20.7202 15.8067L20.8402 15.56L20.6202 15.5467L20.5102 15.28L20.3902 15.5334L20.1702 15.52L20.2702 15.7867L20.1602 16.0334ZM21.1002 16.1334L21.3102 16.2L21.3702 16.4867L21.5302 16.2734L21.7402 16.34L21.6802 16.06L21.8402 15.8467L21.6202 15.7734L21.5602 15.4867L21.4002 15.7L21.1902 15.6334L21.2502 15.92L21.1002 16.1334ZM22.0002 16.38L22.2002 16.5134L22.2102 16.8067L22.4002 16.6467L22.6002 16.78L22.5902 16.48L22.7702 16.32L22.5702 16.1867L22.5602 15.8867L22.3702 16.0534L22.1702 15.92L22.1902 16.2134L22.0002 16.38Z" fill="#FFD700"/>
<path fill-rule="evenodd" clip-rule="evenodd" d="M19.5084 15.2325L19.6395 15.5094L19.8792 15.4949L19.7703 15.7852L19.9015 16.0548L19.6608 16.0694L19.5412 16.3592L19.4108 16.0839L19.1712 16.0984L19.2801 15.8082L19.1488 15.5384L19.3991 15.5239L19.5084 15.2325ZM20.5112 15.2341L20.6308 15.5239L20.8715 15.5385L20.7403 15.8082L20.8492 16.0984L20.6095 16.0839L20.4784 16.3608L20.3691 16.0693L20.1302 16.0549L20.2503 15.7857L20.1412 15.4949L20.3808 15.5094L20.5112 15.2341ZM20.5091 15.3259L20.3995 15.5572L20.1992 15.5451L20.2901 15.7876L20.1901 16.0118L20.3912 16.024L20.482 16.2659L20.5908 16.0361L20.7912 16.0482L20.7001 15.8052L20.8089 15.5814L20.6096 15.5694L20.5091 15.3259ZM19.512 15.3274L19.6208 15.5572L19.8212 15.5451L19.7301 15.7882L19.8389 16.0119L19.6396 16.0239L19.5391 16.2674L19.4295 16.0361L19.2292 16.0482L19.3203 15.8052L19.2115 15.5815L19.4212 15.5694L19.512 15.3274ZM18.4514 15.4419L18.6257 15.6744L18.8664 15.6015L18.7901 15.9136L18.965 16.1467L18.7242 16.2197L18.659 16.5314L18.4847 16.299L18.2551 16.3719L18.3206 16.0663L18.1573 15.834L18.386 15.7541L18.4514 15.4419ZM21.569 15.4419L21.6343 15.754L21.8744 15.834L21.6998 16.0668L21.7652 16.3719L21.5356 16.299L21.3614 16.5314L21.2961 16.2195L21.0668 16.1467L21.2307 15.9136L21.1653 15.6014L21.3947 15.6743L21.569 15.4419ZM21.5514 15.5314L21.4056 15.7257L21.215 15.6652L21.2697 15.9264L21.1336 16.1199L21.3243 16.1805L21.379 16.4419L21.5247 16.2476L21.7151 16.3081L21.6605 16.0532L21.806 15.8593L21.6061 15.7927L21.5514 15.5314ZM18.469 15.5314L18.4143 15.7925L18.2231 15.8593L18.3597 16.0537L18.3052 16.3081L18.4956 16.2476L18.6414 16.4419L18.6961 16.1803L18.8954 16.1199L18.7502 15.9264L18.814 15.6652L18.6146 15.7256L18.469 15.5314ZM17.4554 15.8446L17.6516 16.0263L17.869 15.8813L17.8581 16.2015L18.0544 16.3833L17.8372 16.5281L17.8263 16.8478L17.6192 16.6734L17.4 16.8195L17.4218 16.4921L17.2146 16.3176L17.4336 16.1716L17.4554 15.8446ZM22.5763 15.8446L22.5872 16.1719L22.805 16.3171L22.6081 16.4921L22.619 16.8186L22.4012 16.6734L22.1941 16.8478L22.1832 16.5281L21.9652 16.3827L22.1718 16.2015L22.1499 15.8804L22.369 16.0264L22.5763 15.8446ZM22.5441 15.9287L22.3714 16.0802L22.1905 15.9596L22.2086 16.2251L22.0352 16.3772L22.2172 16.4986L22.2263 16.7655L22.3992 16.6199L22.5814 16.7414L22.5723 16.4679L22.7354 16.3229L22.5532 16.2014L22.5441 15.9287ZM17.4849 15.9287L17.4667 16.2017L17.2858 16.3224L17.4586 16.4679L17.4404 16.7404L17.6212 16.6199L17.7941 16.7655L17.8032 16.4986L17.986 16.3767L17.8223 16.2251L17.8313 15.9586L17.6487 16.0804L17.4849 15.9287Z" fill="black"/>
<path d="M22.2697 22.0267L22.5197 22.5067L22.7497 22.0534L22.5897 21.6667L22.2697 22.0267ZM20.6797 23.4267L20.6997 23.9067C20.6997 23.9067 20.7997 23.9067 20.8897 23.8667C20.9697 23.8267 21.0397 23.7467 21.0397 23.7467L21.0297 23.4934L20.6797 23.4267ZM19.3397 23.4267L19.3197 23.8934C19.3197 23.8934 19.2297 23.8934 19.1397 23.8667C19.0597 23.84 18.9897 23.7734 18.9897 23.7734L18.8897 23.4534L19.3397 23.4267ZM17.7297 22.0267L17.4697 22.5067L17.1897 21.8934L17.3997 21.6L17.7297 22.0267Z" fill="white"/>
<path fill-rule="evenodd" clip-rule="evenodd" d="M17.3995 21.5668L17.7531 22.0239L17.4688 22.5488L17.1681 21.8901L17.3995 21.5668ZM17.4005 21.6331L17.212 21.8964L17.4713 22.4645L17.707 22.0293L17.4005 21.6331ZM22.595 21.6304L22.7705 22.0545L22.5202 22.5479L22.2466 22.0225L22.595 21.6304ZM22.2935 22.0308L22.5198 22.4654L22.7295 22.052L22.585 21.7028L22.2935 22.0308ZM20.6614 23.3995L21.0467 23.4729L21.0579 23.7569L21.0514 23.7643L21.04 23.7466C21.0514 23.7643 21.0514 23.7643 21.0514 23.7643L21.0513 23.7644L21.0511 23.7646L21.0505 23.7654C21.0499 23.7661 21.049 23.767 21.048 23.7682C21.0458 23.7706 21.0426 23.774 21.0386 23.7781C21.0305 23.7865 21.019 23.7981 21.0049 23.8109C20.9768 23.8364 20.938 23.8676 20.8962 23.8885L20.8956 23.8888C20.8489 23.9095 20.8 23.9197 20.7631 23.9248C20.7445 23.9274 20.7289 23.9287 20.7178 23.9293C20.7123 23.9296 20.7079 23.9298 20.7048 23.9299C20.7033 23.9299 20.7021 23.9299 20.7013 23.9299L20.7004 23.93L20.7001 23.93H20.7001C20.7001 23.93 20.7 23.93 20.7 23.9066L20.7001 23.93L20.6835 23.93L20.6614 23.3995ZM20.7166 23.8827C20.727 23.8821 20.7419 23.8808 20.7595 23.8784C20.795 23.8735 20.8409 23.8638 20.8842 23.8446C20.9222 23.8255 20.9583 23.7967 20.9852 23.7723C20.9986 23.7602 21.0095 23.7492 21.0171 23.7414C21.019 23.7394 21.0206 23.7376 21.0221 23.7361L21.0133 23.5137L20.6987 23.4537L20.7166 23.8827ZM19.3586 23.4022L19.3365 23.9166H19.32H19.3199L19.3197 23.9166L19.3189 23.9166L19.3157 23.9166C19.313 23.9165 19.309 23.9164 19.304 23.9162C19.2939 23.9158 19.2796 23.9149 19.2625 23.9132C19.2282 23.9098 19.1823 23.9031 19.1362 23.8894L19.1358 23.8893C19.0938 23.8753 19.0548 23.851 19.0266 23.8304C19.0125 23.8201 19.0009 23.8107 18.9928 23.8038C18.9887 23.8003 18.9855 23.7975 18.9834 23.7955C18.9823 23.7945 18.9814 23.7937 18.9808 23.7932L18.9801 23.7925L18.9799 23.7923C18.9799 23.7923 18.9798 23.7923 18.99 23.7733L18.9799 23.7923L18.9758 23.7884L18.8642 23.4315L19.3586 23.4022ZM19.0042 23.758C19.0061 23.7596 19.0086 23.7619 19.0116 23.7645C19.0192 23.7709 19.0301 23.7798 19.0434 23.7895C19.0701 23.8089 19.1061 23.8312 19.144 23.8439C19.1879 23.8569 19.2319 23.8634 19.2651 23.8667C19.2808 23.8682 19.294 23.8691 19.3035 23.8695L19.3214 23.4511L18.9158 23.4751L19.0042 23.758Z" fill="black"/>
<path d="M18.9806 24.3866C18.9806 24.8399 21.0406 24.8399 21.0406 24.3866V23.7466C21.0406 24.0799 18.9806 24.0132 18.9806 23.7466V24.3866Z" fill="white"/>
<path fill-rule="evenodd" clip-rule="evenodd" d="M21.0052 23.787C21.018 23.7719 21.0224 23.7585 21.0224 23.7466H21.0574V24.3866C21.0574 24.4564 21.0177 24.5121 20.96 24.5556C20.9015 24.5998 20.819 24.6358 20.7218 24.6644C20.527 24.7215 20.2681 24.7499 20.0099 24.7499C19.7517 24.7499 19.4928 24.7215 19.298 24.6644C19.2008 24.6358 19.1183 24.5998 19.0598 24.5556C19.0021 24.5121 18.9624 24.4564 18.9624 24.3866V23.7466H18.9974C18.9974 23.7523 19.0002 23.7622 19.0135 23.7755C19.0266 23.7885 19.0468 23.8018 19.0743 23.8148C19.129 23.8408 19.2082 23.8637 19.3044 23.8829C19.4965 23.9212 19.7531 23.9441 20.0101 23.9483C20.2672 23.9524 20.5237 23.9378 20.7156 23.9016C20.8117 23.8835 20.8906 23.8601 20.945 23.8315C20.9722 23.8172 20.9923 23.8022 21.0052 23.787ZM21.0224 23.8285C21.0057 23.8461 20.9837 23.8614 20.9578 23.8749C20.8996 23.9055 20.8175 23.9295 20.7205 23.9478C20.5261 23.9845 20.2677 23.9991 20.0097 23.9949C19.7517 23.9907 19.4933 23.9678 19.2992 23.929C19.2022 23.9097 19.1205 23.8862 19.0626 23.8588C19.0363 23.8464 19.0141 23.8327 18.9974 23.8175V24.3866C18.9974 24.4301 19.0221 24.4736 19.077 24.515C19.1311 24.5558 19.2097 24.5907 19.3055 24.6188C19.497 24.675 19.7531 24.7032 20.0099 24.7032C20.2667 24.7032 20.5228 24.675 20.7143 24.6188C20.8101 24.5907 20.8887 24.5558 20.9428 24.515C20.9977 24.4736 21.0224 24.4301 21.0224 24.3866V23.8285Z" fill="black"/>
<path d="M17.1399 22.9067C17.3199 24.1333 18.9799 24.16 18.9799 24.16V23.7467C18.9399 23.5867 19.0099 23.5333 19.2799 23.48C19.3899 23.4667 19.3399 23.2533 19.3399 23.2533C19.3399 23.2533 18.6199 23.4267 18.1099 23.16C17.4199 22.7867 17.3199 22.0667 17.3199 22.0667C17.3199 22.0667 17.2699 22.6267 17.1399 22.9067V22.9067ZM22.8699 22.9067C22.6999 24.1333 21.0399 24.16 21.0399 24.16V23.7467C21.0699 23.5867 20.9999 23.5333 20.7299 23.48C20.6199 23.4667 20.6799 23.2533 20.6799 23.2533C20.6799 23.2533 21.3999 23.4267 21.9099 23.16C22.5899 22.7867 22.6699 22.0667 22.6699 22.0667C22.6699 22.0667 22.7399 22.6267 22.8699 22.9067V22.9067Z" fill="white"/>
<path fill-rule="evenodd" clip-rule="evenodd" d="M17.4706 22.4605C17.5801 22.6836 17.7749 22.9536 18.1162 23.1383C18.3679 23.2699 18.6725 23.2933 18.9154 23.2833C19.0367 23.2783 19.1421 23.2651 19.2172 23.2531C19.2547 23.2471 19.2846 23.2414 19.3052 23.2372C19.3154 23.2351 19.3233 23.2334 19.3286 23.2322C19.33 23.2319 19.3312 23.2316 19.3323 23.2314C19.3332 23.2311 19.334 23.231 19.3347 23.2308L19.3362 23.2305L19.3365 23.2304L19.3366 23.2304L19.3397 23.2533C19.3564 23.2464 19.3564 23.2464 19.3564 23.2464L19.3565 23.2466L19.3566 23.2472L19.3571 23.2492C19.3575 23.251 19.358 23.2535 19.3586 23.2566C19.3598 23.2628 19.3614 23.2717 19.363 23.2824C19.3661 23.3035 19.3692 23.3325 19.3685 23.3624C19.3678 23.3919 19.3634 23.4248 19.3501 23.4518C19.3363 23.4798 19.314 23.4991 19.2818 23.5032C19.2148 23.5164 19.1606 23.5296 19.1177 23.5442C19.0744 23.559 19.0438 23.5749 19.023 23.5929C19.0027 23.6104 18.9926 23.6292 18.9888 23.6505C18.9847 23.6727 18.9868 23.7011 18.9963 23.7393L18.9972 23.7429V24.1836L18.9795 24.1833L18.9797 24.16C18.9795 24.1833 18.9795 24.1833 18.9795 24.1833L18.9794 24.1833L18.9792 24.1833L18.9782 24.1833L18.9746 24.1832C18.9714 24.1831 18.9667 24.183 18.9605 24.1827C18.9482 24.1822 18.9302 24.1813 18.9072 24.1797C18.8612 24.1766 18.7953 24.1707 18.7158 24.1599C18.5567 24.1381 18.3426 24.0963 18.1226 24.0158C17.6846 23.8556 17.2147 23.539 17.1226 22.9111L17.1397 22.9066L17.1249 22.8944C17.1882 22.758 17.2327 22.5514 17.2614 22.3767C17.2757 22.2897 17.2859 22.2114 17.2926 22.1549C17.2959 22.1266 17.2984 22.1038 17.3 22.0881C17.3008 22.0802 17.3014 22.0742 17.3018 22.0701L17.3022 22.0654L17.3023 22.0642L17.3024 22.0639L17.3369 22.0624C17.3369 22.0624 17.3369 22.0624 17.3369 22.0624L17.337 22.0627L17.3372 22.0641C17.3374 22.0653 17.3377 22.0672 17.3381 22.0697C17.339 22.0748 17.3403 22.0824 17.3423 22.0923C17.3462 22.1121 17.3527 22.141 17.3626 22.1769C17.3823 22.2489 17.4158 22.3489 17.4706 22.4605ZM17.3254 22.177C17.3187 22.2327 17.3088 22.306 17.2956 22.3866C17.2673 22.5587 17.2229 22.7675 17.1582 22.911C17.2492 23.504 17.697 23.8118 18.1319 23.9708C18.3494 24.0504 18.5615 24.0918 18.7193 24.1134C18.7982 24.1242 18.8635 24.13 18.9089 24.1331C18.9317 24.1347 18.9495 24.1356 18.9616 24.1361C18.9618 24.1361 18.962 24.1361 18.9622 24.1361V23.7504C18.9524 23.7099 18.9487 23.6729 18.9548 23.6395C18.9612 23.6041 18.978 23.5762 19.004 23.5537C19.0294 23.5317 19.0644 23.5143 19.109 23.499C19.1538 23.4837 19.2095 23.4703 19.2772 23.4569L19.2777 23.4568L19.2781 23.4567C19.3007 23.454 19.3132 23.4417 19.3209 23.4261C19.3291 23.4094 19.3329 23.3864 19.3335 23.3609C19.3341 23.3358 19.3315 23.3106 19.3287 23.2913C19.328 23.2872 19.3274 23.2833 19.3268 23.2799C19.3223 23.2808 19.3168 23.282 19.3104 23.2833C19.2896 23.2876 19.2593 23.2933 19.2214 23.2994C19.1455 23.3115 19.039 23.3249 18.9165 23.33C18.672 23.34 18.3616 23.3168 18.1033 23.1817L18.1032 23.1816C17.7546 22.993 17.5544 22.7163 17.4413 22.4861C17.3849 22.3711 17.3503 22.2678 17.3297 22.193C17.3282 22.1875 17.3268 22.1822 17.3254 22.177ZM19.3397 23.2533L19.3564 23.2464L19.3518 23.2267L19.3366 23.2304L19.3397 23.2533ZM22.6525 22.0632L22.687 22.0628L22.687 22.0632L22.6872 22.0643L22.6878 22.069C22.6883 22.0731 22.6891 22.0792 22.6902 22.0871C22.6924 22.1028 22.6956 22.1256 22.6999 22.1539C22.7084 22.2105 22.7212 22.2888 22.7379 22.3758C22.7716 22.5506 22.8211 22.7576 22.8846 22.8944L22.8697 22.9066L22.8869 22.9109C22.7999 23.539 22.3323 23.8556 21.8956 24.0158C21.6763 24.0963 21.4624 24.1381 21.3036 24.1599C21.2241 24.1707 21.1583 24.1766 21.1123 24.1797C21.0893 24.1813 21.0713 24.1822 21.0589 24.1827C21.0528 24.183 21.0481 24.1831 21.0449 24.1832L21.0412 24.1833L21.0403 24.1833L21.04 24.1833L21.04 24.1833C21.04 24.1833 21.0399 24.1833 21.0397 24.16L21.04 24.1833L21.0222 24.1836V23.7438L21.0228 23.741C21.0299 23.703 21.0304 23.6744 21.0252 23.6519C21.0201 23.63 21.009 23.6108 20.9879 23.593C20.9664 23.5749 20.9353 23.559 20.892 23.5443C20.8489 23.5296 20.7947 23.5164 20.7276 23.5032C20.6954 23.4991 20.6734 23.4796 20.6605 23.4509C20.6482 23.4235 20.6453 23.3904 20.646 23.3609C20.6467 23.3311 20.6511 23.3021 20.6551 23.281C20.6572 23.2704 20.6592 23.2615 20.6607 23.2553C20.6615 23.2522 20.6621 23.2497 20.6626 23.248L20.6631 23.246L20.6633 23.2454L20.6633 23.2452L20.6633 23.2451C20.6633 23.2451 20.6633 23.2451 20.6797 23.2533L20.6828 23.2303L20.6829 23.2304L20.6833 23.2305L20.6848 23.2308C20.6862 23.2311 20.6882 23.2316 20.6908 23.2322C20.6962 23.2334 20.7041 23.2351 20.7143 23.2372C20.7348 23.2414 20.7648 23.2471 20.8023 23.2531C20.8774 23.2651 20.9828 23.2783 21.104 23.2833C21.3469 23.2933 21.6515 23.2699 21.9032 23.1383C22.2394 22.9537 22.4266 22.6839 22.5298 22.461C22.5815 22.3495 22.6122 22.2495 22.63 22.1777C22.6389 22.1417 22.6445 22.1129 22.6479 22.0931C22.6496 22.0832 22.6508 22.0756 22.6515 22.0705C22.6518 22.068 22.6521 22.0661 22.6522 22.0649L22.6524 22.0635L22.6524 22.0633C22.6524 22.0633 22.6524 22.0632 22.6525 22.0632ZM22.6674 22.1751C22.6661 22.1806 22.6647 22.1864 22.6632 22.1923C22.6447 22.2671 22.6129 22.3705 22.5596 22.4856C22.4529 22.716 22.2601 22.9929 21.9164 23.1816L21.9161 23.1817C21.6578 23.3168 21.3475 23.34 21.1029 23.33C20.9804 23.3249 20.874 23.3115 20.7981 23.2994C20.7602 23.2933 20.7299 23.2876 20.709 23.2833C20.7022 23.2819 20.6964 23.2807 20.6917 23.2797C20.6909 23.2835 20.6899 23.2879 20.689 23.2927C20.6853 23.312 20.6815 23.3372 20.681 23.3624C20.6804 23.3879 20.6832 23.4106 20.6905 23.4269C20.6972 23.4418 20.7088 23.454 20.7313 23.4567L20.7318 23.4568L20.7323 23.4569C20.8 23.4703 20.8557 23.4837 20.9006 23.499C20.9454 23.5143 20.9806 23.5317 21.0066 23.5536C21.033 23.5758 21.0506 23.6033 21.0586 23.6381C21.0664 23.6714 21.0647 23.7086 21.0572 23.7495V24.1361C21.0574 24.1361 21.0577 24.1361 21.0579 24.1361C21.07 24.1356 21.0878 24.1347 21.1105 24.1331C21.156 24.13 21.2212 24.1242 21.3 24.1134C21.4576 24.0918 21.6694 24.0504 21.8863 23.9708C22.32 23.8118 22.7652 23.504 22.8513 22.9111C22.7865 22.768 22.7372 22.5595 22.704 22.3875C22.6882 22.3054 22.676 22.2311 22.6674 22.1751ZM20.6797 23.2533L20.6828 23.2303L20.6685 23.2269L20.6633 23.2451L20.6797 23.2533Z" fill="black"/>
<path d="M17.2697 22.4399C16.8097 22.1066 17.1697 21.7599 17.2097 20.7733C17.2797 21.3733 17.7897 21.6266 17.7297 22.0133C17.5197 22.0266 17.4197 21.5999 17.3197 22.0666L17.2697 22.4399V22.4399ZM22.7397 22.4399C23.1997 22.0933 22.8197 21.7599 22.7797 20.7733C22.7097 21.3733 22.2097 21.6266 22.2697 22.0133C22.4697 22.0266 22.5697 21.5999 22.6697 22.0666L22.7397 22.4266V22.4399Z" fill="white"/>
<path fill-rule="evenodd" clip-rule="evenodd" d="M17.1923 20.772L17.227 20.7697C17.2611 21.0618 17.4022 21.2703 17.5314 21.4575C17.5332 21.4602 17.5351 21.4629 17.537 21.4656C17.5989 21.5554 17.6582 21.6414 17.6985 21.7286C17.7404 21.819 17.7631 21.9135 17.7469 22.018L17.7441 22.0357L17.7306 22.0366C17.6734 22.0402 17.6243 22.0138 17.5825 21.9819C17.5616 21.966 17.5421 21.9484 17.5243 21.9323L17.5241 21.9322C17.5061 21.9159 17.4901 21.9014 17.4751 21.8904C17.4599 21.8793 17.4473 21.8729 17.4363 21.8714C17.4259 21.87 17.4165 21.8728 17.4067 21.8822C17.3965 21.8921 17.3851 21.9103 17.373 21.9416C17.3611 21.9725 17.3491 22.0149 17.3368 22.0719L17.287 22.4441L17.2697 22.44L17.2614 22.4605C17.1446 22.3759 17.0771 22.2884 17.0446 22.1868C17.0122 22.0855 17.0161 21.9744 17.0351 21.8471C17.0463 21.7718 17.0627 21.6905 17.0809 21.6009C17.1246 21.3846 17.1782 21.1195 17.1923 20.772ZM17.2568 22.4036L17.3027 22.0614L17.3029 22.0602C17.3156 22.0011 17.3285 21.9551 17.3419 21.9202C17.3553 21.8855 17.3697 21.8603 17.3862 21.8444C17.4032 21.828 17.4213 21.8224 17.4398 21.825C17.4577 21.8274 17.4752 21.8373 17.4919 21.8495C17.5084 21.8616 17.5256 21.8771 17.5429 21.8927L17.5439 21.8937C17.5618 21.9099 17.5803 21.9265 17.5998 21.9414C17.6351 21.9682 17.6729 21.9887 17.715 21.9902C17.7237 21.9083 17.7051 21.8317 17.6688 21.753C17.6302 21.6697 17.5729 21.5867 17.5099 21.4952C17.5084 21.4932 17.507 21.4911 17.5056 21.4891C17.3983 21.3336 17.2767 21.1556 17.2187 20.9215C17.1973 21.2046 17.1513 21.4323 17.1136 21.6186C17.0959 21.7065 17.08 21.7852 17.0694 21.8562C17.0509 21.9806 17.0486 22.0803 17.0768 22.1685C17.1031 22.2509 17.1572 22.3269 17.2568 22.4036ZM22.463 21.4577C22.5896 21.2705 22.7284 21.0619 22.7625 20.7697L22.7972 20.772C22.8117 21.1285 22.8704 21.397 22.9181 21.6148C22.9361 21.6969 22.9525 21.7718 22.9643 21.8415C22.9858 21.9678 22.9924 22.0785 22.9619 22.1807C22.9314 22.2831 22.8651 22.3723 22.7484 22.4603L22.7222 22.48V22.4296L22.6529 22.073C22.6529 22.073 22.6529 22.0729 22.6529 22.0728C22.6405 22.0154 22.6284 21.9727 22.6165 21.9415C22.6044 21.9102 22.5931 21.8921 22.5829 21.8822C22.5732 21.8727 22.5639 21.87 22.5538 21.8714C22.543 21.8729 22.5306 21.8793 22.5158 21.8903C22.5011 21.9013 22.4854 21.9158 22.4678 21.9321L22.4671 21.9329C22.45 21.9487 22.4313 21.966 22.4115 21.9817C22.3711 22.0136 22.3238 22.0403 22.2689 22.0366L22.2553 22.0357L22.2526 22.018C22.2364 21.9137 22.2584 21.8193 22.2993 21.7288C22.3388 21.6412 22.3972 21.5549 22.4582 21.4647L22.463 21.4577ZM22.7531 22.4026C22.8521 22.3232 22.9048 22.246 22.9294 22.1634C22.9559 22.0747 22.9512 21.9755 22.9302 21.8518C22.9189 21.7857 22.9031 21.7131 22.8854 21.6326C22.8443 21.4445 22.7937 21.2133 22.771 20.9216C22.7136 21.1555 22.5942 21.3334 22.489 21.4889L22.4856 21.494C22.4234 21.5858 22.3671 21.6692 22.3293 21.7528C22.2937 21.8315 22.2757 21.9082 22.2845 21.9902C22.324 21.9884 22.3598 21.9683 22.3936 21.9416C22.4124 21.9267 22.4301 21.9103 22.4475 21.8942L22.4478 21.8938C22.465 21.8779 22.4822 21.8619 22.4987 21.8496C22.5152 21.8373 22.5324 21.8274 22.5502 21.825C22.5686 21.8224 22.5866 21.828 22.6035 21.8444C22.6198 21.8603 22.6343 21.8855 22.6476 21.9203C22.661 21.9551 22.6739 22.0011 22.6866 22.0602L22.6867 22.0608L22.7531 22.4026Z" fill="black"/>
<path d="M17.5498 22.8934L17.5998 22.9467L17.4898 23.1067C17.4398 23.1734 17.4348 23.2134 17.4648 23.2534C17.4998 23.3 17.5298 23.28 17.5648 23.2267L17.6898 23.0534L17.7298 23.1067L17.6098 23.2934C17.5448 23.3934 17.4848 23.3734 17.4298 23.3067C17.3898 23.2534 17.3598 23.1734 17.4298 23.0734L17.5498 22.8934ZM17.7498 23.12L17.7998 23.16L17.7898 23.48L17.8998 23.2534L17.9498 23.2934L17.7898 23.64L17.7298 23.6L17.7398 23.28L17.6298 23.5067L17.5798 23.4667L17.7498 23.12ZM17.8398 23.68L17.9798 23.3067L18.0298 23.3467L17.8998 23.7067L17.8398 23.68ZM18.0598 23.36L17.9498 23.7467L18.0598 23.8C18.1598 23.8467 18.2098 23.7867 18.2398 23.6734C18.2748 23.5534 18.2598 23.4734 18.1598 23.4134L18.0598 23.36V23.36ZM18.0998 23.4534C18.1998 23.5 18.2098 23.5534 18.1798 23.6534C18.1498 23.74 18.1298 23.7734 18.0298 23.7067L18.0998 23.4534ZM18.3898 23.5067L18.2098 23.8667L18.2798 23.8934L18.3198 23.8L18.4398 23.84L18.4498 23.9334L18.5198 23.9467L18.4498 23.52L18.3898 23.5067V23.5067ZM18.4098 23.6L18.4298 23.76L18.3498 23.7467L18.4098 23.6V23.6ZM18.5598 23.54L18.5498 23.9534H18.6648C18.7748 23.96 18.8048 23.8867 18.8098 23.7534C18.8098 23.6334 18.7748 23.5534 18.6648 23.5534L18.5598 23.54ZM18.6198 23.6067C18.7298 23.6134 18.7448 23.66 18.7448 23.76C18.7398 23.86 18.7248 23.9 18.6148 23.88V23.6134L18.6198 23.6067ZM19.6098 24.12V24.5467H19.6798V24.3867C19.6798 24.3867 19.7398 24.3867 19.7898 24.3734C19.8248 24.36 19.8548 24.3267 19.8548 24.24C19.8548 24.16 19.8198 24.12 19.7598 24.12H19.6098ZM19.6798 24.1867H19.7498C19.8048 24.1867 19.7998 24.3067 19.7498 24.3067H19.6798V24.1867ZM19.9698 24.12L19.8398 24.5467H19.9098L19.9398 24.44H20.0698L20.0998 24.5467H20.1698L20.0398 24.12H19.9698ZM19.9998 24.2134L20.0498 24.3734H19.9598L19.9998 24.2134ZM20.1698 24.4667L20.3398 24.1867H20.1898V24.12H20.4298V24.1867L20.2498 24.4667H20.4298V24.5467H20.1698V24.4667ZM21.1798 23.64L21.2398 23.6267L21.2698 23.8667C21.2798 23.9534 21.2498 24.0067 21.2048 24.0334C21.1548 24.06 21.0848 24.0334 21.0798 23.92L21.1298 23.9067C21.1398 23.9734 21.1598 23.98 21.1798 23.9734C21.2048 23.96 21.2148 23.92 21.2098 23.88L21.1798 23.64ZM21.2798 23.6134L21.3348 23.6L21.3648 23.8C21.3748 23.8867 21.3948 23.92 21.4398 23.9134C21.4898 23.9 21.4948 23.86 21.4848 23.78L21.4498 23.5734L21.5098 23.56L21.5498 23.78C21.5698 23.9134 21.5198 23.96 21.4498 23.98C21.3948 23.9934 21.3298 23.98 21.3098 23.8467L21.2798 23.6134ZM21.5898 23.8L21.6398 23.7734C21.6648 23.8334 21.6998 23.8267 21.7298 23.8134C21.7698 23.7867 21.7798 23.74 21.7548 23.72C21.7248 23.7 21.6548 23.7334 21.6198 23.72C21.5748 23.6934 21.5548 23.6534 21.5598 23.6067C21.5598 23.54 21.5998 23.5134 21.6448 23.4934C21.6948 23.4734 21.7448 23.48 21.7798 23.56L21.7198 23.5867C21.6998 23.54 21.6698 23.5467 21.6498 23.56C21.6298 23.5734 21.5998 23.5934 21.6198 23.6267C21.6298 23.66 21.7048 23.64 21.7448 23.64C21.7848 23.64 21.8148 23.68 21.8198 23.7267C21.8298 23.8 21.8098 23.84 21.7448 23.8734C21.6698 23.9134 21.5998 23.8734 21.5898 23.8V23.8ZM21.8598 23.4667L21.7798 23.52L21.7598 23.4534L21.9798 23.3334L21.9998 23.3867L21.9198 23.44L22.0098 23.7334L21.9598 23.7734L21.8598 23.4667ZM21.9898 23.32L22.0398 23.28L22.1798 23.6267L22.1298 23.6667L21.9898 23.32ZM22.3298 23.3467L22.3898 23.32C22.3975 23.3453 22.4003 23.3727 22.3978 23.3997C22.3954 23.4268 22.3878 23.4525 22.3757 23.4746C22.3637 23.4966 22.3477 23.5142 22.3292 23.5256C22.3106 23.5371 22.2902 23.5421 22.2698 23.54C22.1198 23.54 22.0998 23.3134 22.1248 23.24C22.1648 23.1134 22.2748 23.12 22.3248 23.1867L22.2748 23.24C22.2448 23.1867 22.1748 23.22 22.1748 23.2667C22.1682 23.3057 22.1714 23.3465 22.1841 23.3827C22.1968 23.4189 22.2181 23.4485 22.2448 23.4667C22.2948 23.4934 22.3648 23.4134 22.3298 23.3467ZM22.2998 23.0667L22.3498 23.0134L22.5298 23.3334L22.4798 23.3867L22.2998 23.0667ZM22.4898 22.8667L22.4398 22.92L22.5498 23.32L22.5998 23.2534L22.5698 23.1734L22.6598 23.0667L22.7198 23.1067L22.7698 23.0534L22.4898 22.8667V22.8667ZM22.5098 22.96L22.6098 23.0267L22.5498 23.1067L22.5098 22.96Z" fill="black"/>
</g>
<rect x="2" y="2" width="36" height="36" rx="18" stroke="white" stroke-width="4"/>
<defs>
<clipPath id="clip0_90_26536">
<rect x="4" y="4" width="32" height="32" rx="16" fill="white"/>
</clipPath>
</defs>
</svg>
