<svg width="40" height="40" viewBox="0 0 40 40" fill="none" xmlns="http://www.w3.org/2000/svg">
<g clip-path="url(#clip0_90_26089)">
<path fill-rule="evenodd" clip-rule="evenodd" d="M4 4H36V36H4V4Z" fill="#BE0027"/>
<path fill-rule="evenodd" clip-rule="evenodd" d="M5.27991 5.82001H34.7549V34.38H5.27991V5.82001Z" fill="#3B5AA3"/>
<path fill-rule="evenodd" clip-rule="evenodd" d="M19.7204 31.5467C19.7858 31.5884 19.8573 31.6105 19.9298 31.6117C20.0023 31.6128 20.0742 31.5929 20.1404 31.5534C27.0304 26.6667 27.0304 13.2667 20.1454 8.44669C20.0768 8.40507 20.002 8.38465 19.9267 8.38696C19.8514 8.38926 19.7774 8.41424 19.7104 8.46002C12.9954 13.3534 12.9754 26.6 19.7154 31.5467H19.7204Z" fill="#CBE0E5"/>
<path fill-rule="evenodd" clip-rule="evenodd" d="M19.7201 31.7933C19.8201 31.9067 20.0401 31.8933 20.1401 31.7933C25.2151 26.7267 25.2401 23.5733 25.0201 23.5733H14.9701C14.8201 23.5733 15.0601 26.7867 19.7201 31.7933Z" fill="#ADD2D9"/>
<path fill-rule="evenodd" clip-rule="evenodd" d="M15.7653 26.08C16.2249 25.888 16.7215 25.9283 17.1603 26.1934C17.5403 26.46 17.7603 26.46 18.1703 26.46C18.6003 26.4734 18.9353 26.8934 19.4003 26.9134C20.2553 26.94 20.6153 27.5067 19.9503 27.5134C19.6403 27.5134 18.9653 27.2267 18.6403 27.2867C17.9603 27.38 17.5303 27.58 16.8903 28.5334L17.6303 29.2C18.2703 28.86 18.3753 28.4667 18.7303 28.4534C19.1303 28.4334 19.2653 28.1067 19.7303 28.1067C20.2854 28.1685 20.8444 28.0962 21.3803 27.8934C22.1203 27.6667 21.7703 26.9734 21.3203 26.7267C20.9553 26.52 20.2803 26.72 19.8603 26.5134C19.5403 26.3467 19.8003 26.08 19.9753 26.0267C20.1453 25.98 20.3303 26.06 20.5453 26.1067C20.9303 26.1467 21.4153 26.1 21.7503 26.0267C22.4503 25.8867 22.4203 25.6134 22.7503 25.6067C23.0003 25.5867 23.1853 25.4934 23.3503 25.3334C23.5503 25.1534 23.7553 24.8 23.9953 24.8134L24.6303 24.8467L23.7303 27.54L21.1953 30.9867L19.8803 31.6534L16.9903 29.14L15.5353 26.16L15.7703 26.08H15.7653Z" fill="#FDF9A1"/>
<path fill-rule="evenodd" clip-rule="evenodd" d="M19.0902 23.4667L24.8902 23.4267L24.9902 22.74C24.9902 22.74 24.7852 22.7 24.6152 22.6867C24.4102 22.6667 24.0502 22.98 23.8152 22.9733C23.6402 22.9733 23.4502 22.5733 23.2802 22.5733C22.9802 22.5733 22.9602 22.9267 22.6802 22.94C22.4552 22.9267 22.3602 22.7 22.0652 22.7267C21.7652 22.7467 21.7852 22.9733 21.4002 22.96C20.8902 22.94 20.6852 22.3533 20.2752 22.3467C19.5952 22.3333 19.5752 23.2133 19.0852 23.46L19.0902 23.4667Z" fill="#179A3B"/>
<path fill-rule="evenodd" clip-rule="evenodd" d="M19.09 23.6267L25.06 23.5867V23.3734L18.95 23.4134L19.085 23.6267H19.09Z" fill="#FDF9A1"/>
<path fill-rule="evenodd" clip-rule="evenodd" d="M21.54 26.02C21.635 26.4867 21.73 26.6467 22.1 26.7733C22.465 26.8867 23.025 26.4133 22.68 25.9533C22.35 25.5267 22 25.42 21.705 25.0333C21.08 24.2133 20.14 22.2 20.14 20.78C20.14 19.56 20.05 17.06 20.05 14.6933C20.05 14.54 19.7 15.12 19.7 15.28C19.72 17.3667 19.72 18.9467 19.78 21.0533C19.88 22.5933 20.43 23.6333 20.915 24.5667C21.13 25.02 21.445 25.5 21.54 26.02Z" fill="#A79270"/>
<path d="M17.7752 19.4909C17.7619 19.4366 17.7444 19.388 17.7226 19.345C17.7013 19.3014 17.6757 19.2644 17.6458 19.2337C17.6164 19.2031 17.583 19.1797 17.5455 19.1636C17.508 19.1475 17.4669 19.1394 17.4222 19.1394C17.3488 19.1394 17.2821 19.1647 17.2221 19.2152C17.162 19.2657 17.1143 19.3401 17.0788 19.4385C17.0433 19.5368 17.0256 19.6575 17.0256 19.8004C17.0256 19.9433 17.0435 20.064 17.0794 20.1623C17.1153 20.2607 17.1638 20.3351 17.2251 20.3856C17.2863 20.4361 17.3553 20.4614 17.4318 20.4614C17.5028 20.4614 17.5652 20.4412 17.6192 20.4009C17.6737 20.3601 17.716 20.3026 17.7462 20.2284C17.7768 20.1537 17.7921 20.0659 17.7921 19.9648L17.8381 19.9777H17.4657V19.8004H17.9372V19.9777C17.9372 20.1137 17.9155 20.2319 17.8719 20.3324C17.8288 20.4329 17.7692 20.5108 17.693 20.5662C17.6172 20.621 17.5302 20.6484 17.4318 20.6484C17.3222 20.6484 17.2259 20.614 17.1429 20.5452C17.0602 20.4764 16.9958 20.3786 16.9494 20.2518C16.9035 20.125 16.8805 19.9745 16.8805 19.8004C16.8805 19.6698 16.8936 19.5524 16.9198 19.4482C16.9464 19.3434 16.9839 19.2542 17.0322 19.1805C17.0806 19.1069 17.1378 19.0505 17.2039 19.0113C17.27 18.972 17.3428 18.9524 17.4222 18.9524C17.4875 18.9524 17.5483 18.9656 17.6047 18.9919C17.6616 19.0177 17.7121 19.0545 17.7565 19.1024C17.8012 19.1496 17.8385 19.2063 17.8683 19.2724C17.8981 19.338 17.9187 19.4108 17.93 19.4909H17.7752Z" fill="#BD0728"/>
<path fill-rule="evenodd" clip-rule="evenodd" d="M17.4224 19.0234C17.3497 19.0234 17.2844 19.0413 17.2258 19.0761C17.1668 19.1111 17.1158 19.1613 17.0725 19.2273C17.0293 19.293 16.9951 19.3737 16.9704 19.4708C16.9464 19.5665 16.9339 19.6761 16.9339 19.8004C16.9339 19.9663 16.9558 20.1057 16.9975 20.2208C17.0399 20.3367 17.0978 20.4239 17.1712 20.485C17.2448 20.546 17.3311 20.5775 17.4321 20.5775C17.5228 20.5775 17.6009 20.5523 17.6678 20.5038C17.7353 20.4548 17.7878 20.3863 17.826 20.2972L17.8261 20.2969C17.8642 20.209 17.8843 20.1034 17.8843 19.9777V19.8713H17.5191V19.9068H17.7392V19.8774L17.8493 19.9083L17.8449 19.9648H17.8456C17.8456 20.0755 17.8288 20.1755 17.7931 20.2624C17.7582 20.348 17.7088 20.4153 17.6456 20.4627L17.6455 20.4628C17.5824 20.5099 17.5107 20.5323 17.4321 20.5323C17.3463 20.5323 17.2675 20.5038 17.1973 20.4459C17.1264 20.3874 17.0714 20.3021 17.0318 20.1934C16.9915 20.0829 16.9726 19.9509 16.9726 19.8004C16.9726 19.65 16.9912 19.5182 17.0311 19.4077C17.0702 19.2993 17.1242 19.2139 17.1939 19.1552C17.2627 19.0973 17.3393 19.0685 17.4224 19.0685C17.4719 19.0685 17.5186 19.0774 17.562 19.0961C17.6051 19.1146 17.6441 19.1417 17.6787 19.1777C17.7132 19.2132 17.7427 19.256 17.7672 19.3057C17.7849 19.3409 17.8 19.379 17.8126 19.4199H17.8616C17.8516 19.3805 17.8387 19.3437 17.8231 19.3092L17.823 19.309C17.7964 19.2501 17.7633 19.1999 17.7237 19.1579L17.7232 19.1575C17.684 19.1152 17.639 19.0823 17.5878 19.0591L17.5874 19.0589C17.5371 19.0354 17.4822 19.0234 17.4224 19.0234ZM17.7349 20.0487H17.4127V19.7295H17.9907V19.9777C17.9907 20.1239 17.9672 20.2548 17.9183 20.3677C17.8703 20.4796 17.8035 20.5668 17.7187 20.6285L17.7186 20.6285C17.634 20.6897 17.538 20.7193 17.4321 20.7193C17.3138 20.7193 17.2075 20.6821 17.115 20.6055L17.1149 20.6054C17.0231 20.5289 16.9521 20.4206 16.9018 20.2829L16.9017 20.2827C16.8516 20.1442 16.8275 19.9827 16.8275 19.8004C16.8275 19.6636 16.8412 19.5384 16.8696 19.4256L16.8696 19.4254C16.8982 19.3129 16.9389 19.2153 16.9924 19.1338C17.0458 19.0526 17.1093 18.9899 17.1825 18.9465C17.2561 18.9028 17.3363 18.8815 17.4224 18.8815C17.493 18.8815 17.5598 18.8957 17.6223 18.9249C17.6846 18.9532 17.7406 18.9938 17.79 19.047C17.8396 19.0996 17.8811 19.1626 17.9141 19.2358C17.9474 19.309 17.9701 19.3899 17.9825 19.4778L17.9943 19.5618H17.7369L17.7249 19.5129C17.713 19.4643 17.6975 19.4217 17.6788 19.3847L17.6785 19.3842L17.6783 19.3838C17.6601 19.3467 17.6385 19.3156 17.6136 19.2899L17.6133 19.2897C17.5891 19.2644 17.5613 19.2448 17.5294 19.2311C17.4978 19.2176 17.4623 19.2104 17.4224 19.2104C17.3587 19.2104 17.3019 19.2321 17.2507 19.2752C17.2003 19.3176 17.1588 19.381 17.127 19.4692C17.0958 19.5555 17.079 19.6649 17.079 19.8004C17.079 19.9358 17.096 20.0451 17.1275 20.1313C17.1595 20.2193 17.2017 20.2828 17.2533 20.3253C17.3056 20.3684 17.3647 20.3904 17.4321 20.3904C17.4952 20.3904 17.5485 20.3726 17.5934 20.3391C17.639 20.3049 17.6742 20.2571 17.6997 20.1946L17.6997 20.1944C17.7171 20.1521 17.729 20.1038 17.7349 20.0487Z" fill="white"/>
<path d="M19.2712 18.9839H19.4212V20.0769C19.4212 20.1897 19.4012 20.2905 19.3613 20.3791C19.3218 20.4673 19.266 20.5369 19.1939 20.5879C19.1217 20.6384 19.0371 20.6637 18.94 20.6637C18.8428 20.6637 18.7582 20.6384 18.686 20.5879C18.6139 20.5369 18.5579 20.4673 18.518 20.3791C18.4785 20.2905 18.4587 20.1897 18.4587 20.0769V18.9839H18.6087V20.0608C18.6087 20.1414 18.622 20.2131 18.6486 20.276C18.6752 20.3383 18.7131 20.3875 18.7622 20.4235C18.8118 20.4589 18.871 20.4767 18.94 20.4767C19.0089 20.4767 19.0681 20.4589 19.1177 20.4235C19.1673 20.3875 19.2052 20.3383 19.2313 20.276C19.2579 20.2131 19.2712 20.1414 19.2712 20.0608V18.9839Z" fill="#BD0728"/>
<path fill-rule="evenodd" clip-rule="evenodd" d="M18.4053 18.9129H18.6616V20.0608C18.6616 20.1306 18.673 20.19 18.6946 20.241C18.7161 20.2913 18.7465 20.3312 18.7873 20.3612C18.8276 20.3899 18.8777 20.4058 18.9397 20.4058C19.0017 20.4058 19.0519 20.3898 19.0921 20.3611C19.1333 20.3311 19.1637 20.2913 19.1847 20.2413L19.1847 20.2411C19.2063 20.1901 19.2178 20.1306 19.2178 20.0608V18.9129H19.4741V20.0769C19.4741 20.2013 19.452 20.3149 19.4067 20.4156C19.3619 20.5155 19.2987 20.5938 19.2185 20.6506L19.2183 20.6507C19.1372 20.7075 19.0438 20.7346 18.9397 20.7346C18.8356 20.7346 18.7422 20.7075 18.661 20.6507L18.6608 20.6506C18.5807 20.5939 18.5173 20.5156 18.4722 20.4158L18.472 20.4154C18.4271 20.3147 18.4053 20.2012 18.4053 20.0769V18.9129ZM18.5117 19.0548V20.0769C18.5117 20.1781 18.5293 20.2661 18.5634 20.3427C18.598 20.4191 18.6466 20.4799 18.7106 20.5252C18.7738 20.5694 18.8496 20.5928 18.9397 20.5928C19.0298 20.5928 19.1056 20.5694 19.1688 20.5252C19.2328 20.4798 19.2812 20.4191 19.3154 20.3428L19.3154 20.3427C19.3499 20.266 19.3677 20.1781 19.3677 20.0769V19.0548H19.3242V20.0608C19.3242 20.1521 19.309 20.2361 19.2775 20.3107C19.2461 20.3853 19.2007 20.4438 19.1429 20.4858L19.1426 20.486C19.0837 20.5281 19.0154 20.5476 18.9397 20.5476C18.8639 20.5476 18.7957 20.5281 18.7368 20.486L18.7363 20.4857C18.6789 20.4436 18.6337 20.3853 18.6021 20.3111L18.602 20.3108C18.5704 20.2361 18.5552 20.1521 18.5552 20.0608V19.0548H18.5117Z" fill="white"/>
<path d="M20.3649 20.6347H20.2078L20.6624 18.9839H20.8171L21.2718 20.6347H21.1146L20.7446 19.245H20.7349L20.3649 20.6347ZM20.423 19.9898H21.0565V20.1672H20.423V19.9898Z" fill="#BD0728"/>
<path fill-rule="evenodd" clip-rule="evenodd" d="M20.6248 18.9129H20.8538L21.3475 20.7056H21.0766L20.9521 20.2381H20.5265L20.4021 20.7056H20.1311L20.6248 18.9129ZM20.5643 20.0962H20.9143L20.9049 20.0608H20.5737L20.5643 20.0962ZM20.6115 19.9189H20.8671L20.7393 19.4389L20.6115 19.9189ZM20.98 19.9189L20.7817 19.1741H20.6969L20.4986 19.9189H20.4611L20.6991 19.0548H20.7796L21.0175 19.9189H20.98ZM21.065 20.2381L21.1517 20.5637H21.1951L21.1054 20.2381H21.065ZM20.3732 20.2381H20.4136L20.3269 20.5637H20.2835L20.3732 20.2381Z" fill="white"/>
<path d="M21.8768 18.975H22.0558L22.4765 20.3453H22.491L22.9118 18.975H23.0908V20.6258H22.9505V19.3716H22.9384L22.5515 20.6258H22.4161L22.0292 19.3716H22.0171V20.6258H21.8768V18.975Z" fill="#BD0728"/>
<path fill-rule="evenodd" clip-rule="evenodd" d="M21.8237 18.9041H22.0916L22.4839 20.1817L22.8762 18.9041H23.1441V20.6967H22.8974V19.6913L22.5872 20.6967H22.3805L22.0704 19.6913V20.6967H21.8237V18.9041ZM21.9301 19.0459V20.5549H21.964V19.3006H22.0649L22.4518 20.5549H22.516L22.9029 19.3006H23.0038V20.5549H23.0377V19.0459H22.9476L22.5269 20.4162H22.4409L22.0202 19.0459H21.9301Z" fill="white"/>
<path fill-rule="evenodd" clip-rule="evenodd" d="M16.98 14.7267C16.905 14.9267 17.16 14.6667 17.22 14.64C17.555 14.48 17.685 13.92 18.26 14.26C18.71 14.52 19.315 14.3667 19 14.6333C18.61 14.9467 17.825 15.2933 17.81 16.8467C17.875 16.9933 17.88 16.9733 17.935 16.8067C18.055 16.4467 18.62 15.4667 18.9 15.5467C19.015 15.5867 19.345 15.1 19.35 15.24C19.385 15.6267 18.9 16.4133 18.91 17.46C18.91 17.7067 19.135 17.7867 19.24 17.6133C19.35 17.46 19.41 17.3067 19.6 17.1067C19.93 16.7467 19.84 15.2 19.88 15.2733C20.115 15.6733 20.15 16.8267 20.5 17.2933C20.795 17.6867 21.03 17.4933 20.965 16.96C20.84 15.8667 20.455 16.18 20.27 15.0533C20.23 14.8333 20.22 14.64 20.44 14.7267C20.705 14.8333 20.865 14.9933 21.06 15.3933C21.26 15.78 21.63 16.1467 21.845 16.3667C22.22 16.7533 22.355 16.42 22.175 15.9267C21.9464 15.3664 21.5734 14.9354 21.125 14.7133C20.815 14.5667 20.705 14.5533 20.435 14.4867C20.36 14.4667 20.285 14.26 20.415 14.1467C20.7042 13.8687 21.0412 13.6921 21.395 13.6333C21.73 13.62 21.995 13.98 22.23 14.0733C22.7 14.2333 22.7 13.84 22.49 13.54C22.32 13.2933 21.96 12.8733 21.625 12.9333C20.95 13.0467 20.995 13.02 20.575 13.3867C20.425 13.5067 20.255 13.64 20.32 13.4933C20.47 13.1267 20.33 13.1933 20.565 12.82C20.745 12.5533 20.88 12.3533 21.065 12.2867C21.235 12.2267 21.465 11.9867 21.53 11.86C21.7 11.5533 21.555 11.3733 21.295 11.48C21.065 11.56 20.945 11.76 20.795 11.8133C20.425 11.9733 20.13 13.08 20.085 13.24C20.03 13.4267 19.965 13.3333 19.975 13.1733C20.025 12.3933 20.075 11.0733 19.875 10.5333C19.555 9.73335 19.585 10.1067 19.465 10.4867C19.285 11.0867 19.35 11.6533 19.465 12.24C19.515 12.5333 19.695 12.8667 19.73 13.1C19.755 13.28 19.65 13.0467 19.59 12.9333C19.395 12.5333 19.25 12.2667 18.93 12.0467C18.6104 11.8713 18.2592 11.825 17.92 11.9133C17.83 11.9533 18.02 12.1267 18.095 12.2067C18.31 12.4333 18.715 12.5067 18.995 12.7333C19.225 12.9267 19.405 13.0467 19.485 13.3133C19.515 13.5133 19.565 13.8067 19.465 13.8C19.21 13.78 18.815 13.48 17.995 13.6C17.575 13.68 17.215 14.1533 16.98 14.7267V14.7267Z" fill="#239E46"/>
<path fill-rule="evenodd" clip-rule="evenodd" d="M18.7651 24.7067H19.0001V25.2333H18.7651V24.7067Z" fill="black"/>
<path fill-rule="evenodd" clip-rule="evenodd" d="M17.5851 21.1934C18.5251 22.9267 20.0351 23.94 20.0651 24.7267H17.1251C17.8001 23.6467 18.2151 22.9134 17.5851 21.1934Z" fill="#FDF9FF"/>
<path fill-rule="evenodd" clip-rule="evenodd" d="M16.7299 24.7667C18.0099 25.1467 19.5349 25.36 20.5099 24.7133C20.5199 25.0933 20.1949 25.6467 19.9249 25.6467H17.4749C17.7599 25.5867 17.9249 25.4733 18.3849 25.4467L17.0849 25.46C16.9349 25.4667 16.6849 24.9533 16.7299 24.7667Z" fill="#A68861"/>
<path fill-rule="evenodd" clip-rule="evenodd" d="M19.6304 32.3333C19.7604 32.4333 19.9654 32.4267 20.0804 32.3467C27.4704 27.1 27.4754 12.72 20.0904 7.54667C20.0164 7.50103 19.9357 7.4785 19.8542 7.48081C19.7728 7.48312 19.6928 7.51021 19.6204 7.56C12.4204 12.8133 12.4004 27.0267 19.6304 32.34V32.3333ZM19.6654 31.1533C19.7275 31.1941 19.7956 31.2158 19.8648 31.2169C19.934 31.2181 20.0025 31.1986 20.0654 31.16C26.2454 26.3067 26.3204 13.4867 20.0704 8.89333C19.9504 8.77333 19.7754 8.81333 19.6554 8.89333C13.7354 13.5667 13.4054 25.86 19.6654 31.1533Z" fill="#BE0027"/>
<path d="M17.4397 19.0267C17.5531 19.0267 17.6531 19.0578 17.7397 19.12C17.8564 19.2 17.9281 19.3467 17.9547 19.56H17.7997C17.7797 19.4445 17.7364 19.3556 17.6697 19.2933C17.6097 19.24 17.5314 19.2133 17.4347 19.2133C17.3247 19.2133 17.2297 19.2733 17.1497 19.3933C17.0731 19.5045 17.0347 19.6733 17.0347 19.9C17.0347 20.0867 17.0664 20.2422 17.1297 20.3667C17.1964 20.4867 17.3014 20.5467 17.4447 20.5467C17.5547 20.5467 17.6447 20.5045 17.7147 20.42C17.7914 20.3356 17.8297 20.1978 17.8297 20.0067H17.4497V19.8267H17.9797V20.6933H17.8747L17.8347 20.48C17.7814 20.5645 17.7314 20.6245 17.6847 20.66C17.6114 20.7133 17.5197 20.74 17.4097 20.74C17.2664 20.74 17.1414 20.6778 17.0347 20.5533C16.9214 20.3933 16.8647 20.1778 16.8647 19.9067C16.8647 19.6356 16.9197 19.42 17.0297 19.26C17.1364 19.1045 17.2731 19.0267 17.4397 19.0267Z" fill="#BD0728"/>
<path d="M18.6201 19.0733V20.0867C18.6201 20.2022 18.6367 20.2978 18.6701 20.3733C18.7167 20.4933 18.8001 20.5533 18.9201 20.5533C19.0567 20.5533 19.1517 20.4911 19.2051 20.3667C19.2317 20.2956 19.2451 20.2022 19.2451 20.0867V19.0667H19.4151V19.9867C19.4151 20.1822 19.3917 20.3378 19.3451 20.4533C19.2751 20.6445 19.1384 20.74 18.9351 20.74C18.7251 20.74 18.5834 20.6422 18.5101 20.4467C18.4701 20.3356 18.4501 20.1822 18.4501 19.9867V19.0667L18.6201 19.0733Z" fill="#BD0728"/>
<path d="M20.9199 20.0333L20.7349 19.32L20.5349 20.0333H20.9199ZM20.6499 19.0667H20.8349L21.2849 20.7H21.0949L20.9749 20.2133H20.4899L20.3549 20.7H20.1899L20.6499 19.0667Z" fill="#BD0728"/>
<path d="M21.8499 19.0667H22.0949L22.4399 20.4467L22.7899 19.0667H23.0249V20.6933H22.8649V19.32L22.5149 20.6933H22.3599L22.0099 19.32V20.6933H21.8499V19.0667Z" fill="#BD0728"/>
</g>
<rect x="2" y="2" width="36" height="36" rx="18" stroke="white" stroke-width="4"/>
<defs>
<clipPath id="clip0_90_26089">
<rect x="4" y="4" width="32" height="32" rx="16" fill="white"/>
</clipPath>
</defs>
</svg>
