<svg width="40" height="40" viewBox="0 0 40 40" fill="none" xmlns="http://www.w3.org/2000/svg">
<g clip-path="url(#clip0_90_26076)">
<path fill-rule="evenodd" clip-rule="evenodd" d="M4.12012 4H36.0001V36H4.12012V4Z" fill="#399408"/>
<path fill-rule="evenodd" clip-rule="evenodd" d="M4.01 4C3.965 4 34.99 20.1 34.99 20.1L4 35.9867L4.01 4Z" fill="white"/>
<path fill-rule="evenodd" clip-rule="evenodd" d="M4.01477 5.34668C4.18477 5.34668 31.9648 19.8733 31.8098 20.0133L4.09477 34.88L4.01477 5.35335V5.34668Z" fill="#FFDE08"/>
<path fill-rule="evenodd" clip-rule="evenodd" d="M4.09448 4.05334C4.18448 4.05334 18.6395 20.1133 18.6395 20.1133L4.08948 35.8V4.05334H4.09448Z" fill="black"/>
<path fill-rule="evenodd" clip-rule="evenodd" d="M4.01489 6.26002C4.09489 5.26002 17.0599 20.1534 17.0599 20.1534L4.00989 34.1134V6.26002H4.01489Z" fill="#DE2110"/>
</g>
<rect x="2" y="2" width="36" height="36" rx="18" stroke="white" stroke-width="4"/>
<defs>
<clipPath id="clip0_90_26076">
<rect x="4" y="4" width="32" height="32" rx="16" fill="white"/>
</clipPath>
</defs>
</svg>
