<svg width="40" height="40" viewBox="0 0 40 40" fill="none" xmlns="http://www.w3.org/2000/svg">
<g clip-path="url(#clip0_90_26048)">
<path fill-rule="evenodd" clip-rule="evenodd" d="M37.221 36.0853H2.84521V4H37.221V36.0853Z" fill="#BA0000"/>
<path fill-rule="evenodd" clip-rule="evenodd" d="M19.5445 19.5288C19.5445 19.5288 17.1193 18.1376 17.4671 14.528C17.8008 12.7921 18.3977 11.6077 19.474 10.9623C19.9816 10.7555 20.4986 10.6615 21.025 10.6051C20.884 10.7805 20.7712 10.956 20.7101 11.1691C20.5973 11.5701 20.6819 11.9461 20.837 12.3284C21.0297 12.7671 21.1472 13.2183 21.1848 13.8073C21.2201 14.2088 21.1753 14.6155 21.0548 14.9863C20.9343 15.3572 20.7424 15.679 20.4986 15.9192C20.1884 16.2388 19.8218 16.3516 19.521 16.7151C19.286 17.0159 19.145 17.3229 19.098 17.8493C19.0886 18.8583 19.2907 19.0024 19.5445 19.5288V19.5288Z" fill="white"/>
<path fill-rule="evenodd" clip-rule="evenodd" d="M19.1285 14.2899V14.3087H19.0298V14.2899H19.1285Z" fill="black"/>
<path fill-rule="evenodd" clip-rule="evenodd" d="M18.5906 16.6642C18.5982 17.6111 18.8115 18.5665 19.2666 19.1035L19.2012 19.2021C18.7163 18.6299 18.4996 17.6301 18.4919 16.6656C18.488 16.1818 18.5366 15.7027 18.6322 15.2843C18.7276 14.8668 18.8707 14.5053 19.0585 14.2615L19.1274 14.3558C18.9556 14.5789 18.8191 14.9178 18.7266 15.3227C18.6343 15.7268 18.5868 16.1924 18.5906 16.6642Z" fill="#BA0000"/>
<path fill-rule="evenodd" clip-rule="evenodd" d="M19.6718 13.682L19.8269 14.0267L19.5449 13.87L19.324 14.1833L19.3616 13.776L19.0796 13.6193L19.3851 13.5253L19.4227 13.1243L19.5778 13.4689L19.888 13.3749" fill="#BA0000"/>
<path fill-rule="evenodd" clip-rule="evenodd" d="M19.7512 19.2907C19.7512 19.2907 20.0332 15.7876 22.7263 15.1735C24.0705 15.0983 25.0951 15.5056 25.8753 16.6963C26.1714 17.2791 26.3876 17.912 26.5803 18.5637C26.4158 18.4384 26.2607 18.3444 26.0821 18.3319C25.7672 18.3005 25.5181 18.5199 25.2925 18.8269C25.0291 19.2158 24.7006 19.5164 24.3337 19.7043C24.0566 19.8677 23.7519 19.9306 23.4507 19.8865C23.1494 19.8425 22.8623 19.6932 22.6182 19.4536C22.2986 19.1465 22.1106 18.7141 21.7628 18.4384C21.4802 18.2144 21.1451 18.1384 20.8228 18.2253C20.0943 18.5136 20.0567 18.8144 19.7512 19.2907V19.2907Z" fill="white"/>
<path fill-rule="evenodd" clip-rule="evenodd" d="M23.3703 17.2383H23.3562V17.1067H23.3703V17.2383Z" fill="black"/>
<path fill-rule="evenodd" clip-rule="evenodd" d="M21.526 17.2368C20.849 17.5239 20.2251 18.0762 19.9702 18.8168L19.8805 18.7619C20.1519 17.9734 20.8064 17.4039 21.496 17.1114C21.842 16.9646 22.1996 16.8862 22.5273 16.8852C22.8545 16.8842 23.1552 16.9604 23.3847 17.1273L23.3374 17.2428C23.1274 17.0901 22.8448 17.0159 22.5276 17.0168C22.2109 17.0178 21.8633 17.0937 21.526 17.2368Z" fill="#BA0000"/>
<path fill-rule="evenodd" clip-rule="evenodd" d="M23.9813 17.7428L23.7792 18.0373L23.8074 17.63L23.5254 17.442L23.8215 17.3793L23.8497 16.9595L24.0095 17.3355L24.3103 17.2603L24.1082 17.5548L24.2633 17.9308" fill="#BA0000"/>
<path fill-rule="evenodd" clip-rule="evenodd" d="M19.9303 19.5413C19.9303 19.5413 22.5153 18.7893 23.8031 22.0041C24.2872 23.6773 24.3201 25.0999 23.7232 26.4597C23.4036 27.0237 23.0182 27.4937 22.6187 27.9512C22.6563 27.7005 22.6704 27.4749 22.6234 27.2493C22.5482 26.8357 22.3132 26.5913 22.0218 26.4033C21.6602 26.1925 21.3413 25.8704 21.0912 25.4633C20.8884 25.1647 20.7482 24.8001 20.6847 24.4063C20.6212 24.0124 20.6365 23.6032 20.7293 23.2199C20.8421 22.7185 21.0912 22.3425 21.1758 21.8161C21.2461 21.3887 21.1942 20.9417 21.0301 20.5628C20.593 19.7356 20.3674 19.7795 19.9303 19.5413Z" fill="white"/>
<path fill-rule="evenodd" clip-rule="evenodd" d="M22.5809 23.4329L22.5903 23.4455Z" fill="#BA0000"/>
<path fill-rule="evenodd" clip-rule="evenodd" d="M22.5555 23.492L22.5461 23.4795L22.6159 23.3864L22.6253 23.3989L22.5555 23.492Z" fill="black"/>
<path fill-rule="evenodd" clip-rule="evenodd" d="M21.9566 21.1358C21.538 20.3706 20.9486 19.7574 20.3431 19.6694L20.3538 19.5386C20.9986 19.6323 21.61 20.2787 22.0363 21.0583C22.2502 21.4493 22.4193 21.877 22.5241 22.2919C22.6287 22.7061 22.6703 23.1118 22.6249 23.4568L22.5277 23.4341C22.5693 23.118 22.5321 22.7356 22.4306 22.3339C22.3293 21.933 22.1651 21.5171 21.9566 21.1358Z" fill="#BA0000"/>
<path fill-rule="evenodd" clip-rule="evenodd" d="M22.3741 24.4043L22.0968 24.2413L22.4023 24.1473L22.4399 23.7275L22.5856 24.0847L22.8911 23.9907L22.6796 24.304L22.8206 24.6612L22.548 24.4983L22.3365 24.8179" fill="#BA0000"/>
<path fill-rule="evenodd" clip-rule="evenodd" d="M19.8733 19.8985C19.8733 19.8985 21.1376 22.9943 19.1918 25.5385C18.1202 26.6289 17.105 27.0739 15.9582 26.6916C15.4647 26.4409 15.0182 26.0837 14.5717 25.6952C14.7597 25.6764 14.9336 25.6325 15.084 25.5072C15.3566 25.2941 15.4647 24.9244 15.5211 24.5045C15.57 23.9809 15.7118 23.4804 15.9347 23.0444C16.0924 22.7004 16.3153 22.4179 16.581 22.2253C16.8467 22.0328 17.1458 21.937 17.4481 21.9477C17.8429 21.954 18.1813 22.1733 18.5855 22.1357C18.9098 22.0793 19.1636 21.9603 19.4503 21.5843C19.9203 20.8009 19.8263 20.5189 19.8733 19.8923V19.8985Z" fill="white"/>
<path fill-rule="evenodd" clip-rule="evenodd" d="M17.8149 24.3855L17.8102 24.398Z" fill="#BA0000"/>
<path fill-rule="evenodd" clip-rule="evenodd" d="M17.7662 24.3686L17.7709 24.356L17.8592 24.4149L17.8545 24.4274L17.7662 24.3686Z" fill="black"/>
<path fill-rule="evenodd" clip-rule="evenodd" d="M19.2949 22.9369C19.7279 22.1858 20.0022 21.2568 19.8906 20.4557L19.9877 20.4317C20.1065 21.2851 19.8143 22.2518 19.3732 23.0171C19.1519 23.4011 18.8912 23.7377 18.6217 23.9875C18.3526 24.2369 18.0718 24.4024 17.8104 24.4384L17.8003 24.3075C18.0395 24.2745 18.3045 24.1212 18.5653 23.8795C18.8257 23.6381 19.0791 23.3113 19.2949 22.9369Z" fill="#BA0000"/>
<path fill-rule="evenodd" clip-rule="evenodd" d="M17.0586 24.3917L17.1009 23.9907L17.256 24.3479L17.5662 24.2852L17.35 24.5735L17.5051 24.9307L17.2184 24.7489L17.0022 25.0372L17.0398 24.6361L16.7531 24.4544" fill="#BA0000"/>
<path fill-rule="evenodd" clip-rule="evenodd" d="M19.5866 19.8296C19.5866 19.8296 17.8194 22.4491 15.366 20.8574C14.238 19.8735 13.5894 18.7392 13.4813 17.1726C13.4954 16.4644 13.5941 15.7876 13.721 15.1046C13.8009 15.3302 13.8902 15.5307 14.0265 15.6811C14.2662 15.9506 14.567 15.9631 14.8866 15.8942C15.2702 15.7821 15.6684 15.795 16.0475 15.9318C16.3443 16.0151 16.6194 16.2015 16.8447 16.4723C17.07 16.743 17.2377 17.0884 17.3306 17.4734C17.4575 17.9684 17.4152 18.4698 17.5797 18.9648C17.7207 19.3534 17.8899 19.6291 18.2518 19.8672C18.9662 20.1994 19.1307 19.9863 19.5866 19.8359V19.8296Z" fill="white"/>
<path fill-rule="evenodd" clip-rule="evenodd" d="M15.7285 18.7392L15.7191 18.7329Z" fill="#BA0000"/>
<path fill-rule="evenodd" clip-rule="evenodd" d="M15.7409 18.6741L15.7503 18.6803L15.7062 18.798L15.6968 18.7918L15.7409 18.6741Z" fill="black"/>
<path fill-rule="evenodd" clip-rule="evenodd" d="M17.2453 20.1133C17.9205 20.4082 18.668 20.4455 19.1959 20.042L19.245 20.1561C18.6825 20.5861 17.9024 20.5388 17.2146 20.2384C16.8696 20.0876 16.5448 19.8721 16.2782 19.6167C16.0122 19.3618 15.8014 19.0645 15.6885 18.7487L15.7776 18.6921C15.8809 18.9811 16.0778 19.2626 16.3358 19.5098C16.5933 19.7566 16.9089 19.9663 17.2453 20.1133Z" fill="#BA0000"/>
<path fill-rule="evenodd" clip-rule="evenodd" d="M15.4748 17.7867L15.7709 17.7052L15.5688 18.0185L15.7145 18.3883L15.4419 18.2128L15.2398 18.5261L15.2727 18.1L14.9954 17.9245L15.2915 17.8431L15.3244 17.4169" fill="#BA0000"/>
</g>
<rect x="2" y="2" width="36" height="36" rx="18" stroke="white" stroke-width="4"/>
<defs>
<clipPath id="clip0_90_26048">
<rect x="4" y="4" width="32" height="32" rx="16" fill="white"/>
</clipPath>
</defs>
</svg>
