<svg width="40" height="40" viewBox="0 0 40 40" fill="none" xmlns="http://www.w3.org/2000/svg">
<g clip-path="url(#clip0_90_26041)">
<path d="M4 4H36V36H4V4Z" fill="#00008B"/>
<path d="M5.875 4L11.975 10.0333L18.05 4H20V6.06667L14 12.0333L20 17.9667V20H18L12 14.0333L6.025 20H4V18L9.975 12.0667L4 6.13333V4H5.875Z" fill="white"/>
<path d="M14.6 13.3667L20 18.6667V20L13.225 13.3667H14.6ZM10 14.0333L10.15 15.2L5.35 20H4L10 14.0333ZM20 4V4.1L13.775 10.3667L13.825 8.9L18.75 4H20ZM4 4L9.975 9.86667H8.475L4 5.4V4Z" fill="#FF0000"/>
<path d="M10.025 4V20H14.025V4H10.025ZM4 9.33333V14.6667H20V9.33333H4Z" fill="white"/>
<path d="M4 10.4333V13.6333H20V10.4333H4ZM10.825 4V20H13.225V4H10.825Z" fill="#FF0000"/>
<path d="M30.3501 30.4467L29.3251 30.62L29.4351 31.9867L28.6951 31.0267L27.9601 31.9933L28.0601 30.6267L27.0351 30.4667L27.9001 29.72L27.3551 28.5533L28.3351 28.9867L28.6801 27.6867L29.0351 28.98L30.0101 28.5333L29.4751 29.7067L30.3451 30.4467H30.3501ZM30.1651 22.6333L30.3001 21.7667L29.8101 21.1667L30.4701 21.0667L30.7451 20.26L31.0201 21.0667L31.6801 21.1667L31.1901 21.7667L31.3251 22.6333L30.7451 22.1933L30.1651 22.6333V22.6333ZM24.9601 18.6333L23.9451 18.78L24.0351 20.1333L23.3151 19.1667L22.5751 20.1067L22.6951 18.7533L21.6851 18.5733L22.5501 17.8533L22.0251 16.6867L22.9901 17.14L23.3501 15.8667L23.6851 17.1533L24.6551 16.7333L24.1101 17.8867L24.9651 18.6333H24.9601ZM35.1501 16.4467L34.1051 16.6267L34.2201 18.02L33.4651 17.04L32.7151 18.0267L32.8201 16.6267L31.7751 16.4667L32.6601 15.7L32.1051 14.5067L33.1051 14.9533L33.4551 13.6333L33.8151 14.9533L34.8101 14.4933L34.2601 15.6933L35.1501 16.4467ZM30.3451 10.88L29.3101 11.0333L29.4051 12.42L28.6701 11.4333L27.9151 12.3933L28.0351 11.0133L27.0001 10.8267L27.8851 10.0933L27.3501 8.9L28.3351 9.36L28.7001 8.06L29.0401 9.37333L30.0301 8.94L29.4751 10.1133L30.3451 10.88V10.88ZM15.7001 29.7133L13.4101 30.0733L13.6401 33.1333L12.0001 30.9733L10.3501 33.12L10.5951 30.06L8.30505 29.6733L10.2501 28.02L9.05005 25.3933L11.2301 26.3933L12.0201 23.5L12.7951 26.4L14.9801 25.42L13.7651 28.0333L15.7051 29.7067L15.7001 29.7133Z" fill="white"/>
</g>
<rect x="2" y="2" width="36" height="36" rx="18" stroke="white" stroke-width="4"/>
<defs>
<clipPath id="clip0_90_26041">
<rect x="4" y="4" width="32" height="32" rx="16" fill="white"/>
</clipPath>
</defs>
</svg>
