<svg width="40" height="40" viewBox="0 0 40 40" fill="none" xmlns="http://www.w3.org/2000/svg">
<g clip-path="url(#clip0_90_25716)">
<path d="M4 4H36V14.6667H4V4Z" fill="#FF9933"/>
<path d="M4.00024 14.6667H36.0002V25.3334H4.00024V14.6667Z" fill="white"/>
<path d="M4.00024 25.3333H36.0002V36H4.00024V25.3333Z" fill="#128807"/>
<path d="M20.0002 24.2667C21.7675 24.2667 23.2002 22.3564 23.2002 20C23.2002 17.6436 21.7675 15.7333 20.0002 15.7333C18.2329 15.7333 16.8002 17.6436 16.8002 20C16.8002 22.3564 18.2329 24.2667 20.0002 24.2667Z" fill="#000088"/>
<path d="M20.0006 23.7333C21.547 23.7333 22.8006 22.0619 22.8006 20C22.8006 17.9381 21.547 16.2667 20.0006 16.2667C18.4542 16.2667 17.2006 17.9381 17.2006 20C17.2006 22.0619 18.4542 23.7333 20.0006 23.7333Z" fill="white"/>
<path d="M19.9999 20.7467C20.3092 20.7467 20.5599 20.4124 20.5599 20C20.5599 19.5877 20.3092 19.2534 19.9999 19.2534C19.6907 19.2534 19.4399 19.5877 19.4399 20C19.4399 20.4124 19.6907 20.7467 19.9999 20.7467Z" fill="#000088"/>
<path d="M22.757 20.6791C22.8359 20.6929 22.9082 20.6189 22.9186 20.5138C22.929 20.4087 22.8735 20.3122 22.7946 20.2984C22.7158 20.2845 22.6434 20.3585 22.6331 20.4637C22.6227 20.5688 22.6782 20.6653 22.757 20.6791Z" fill="#000088"/>
<path d="M20.0001 23.7334L20.0961 21.4934L20.0001 20.4267L19.9041 21.4934L20.0001 23.7334Z" fill="#000088"/>
</g>
<rect x="2" y="2" width="36" height="36" rx="18" stroke="white" stroke-width="4"/>
<defs>
<clipPath id="clip0_90_25716">
<rect x="4" y="4" width="32" height="32" rx="16" fill="white"/>
</clipPath>
</defs>
</svg>
