<svg width="40" height="40" viewBox="0 0 40 40" fill="none" xmlns="http://www.w3.org/2000/svg">
<g clip-path="url(#clip0_90_25519)">
<path d="M4 14.6667H36V25.3334H4V14.6667Z" fill="white"/>
<path d="M4 4H36V14.6667H4V4Z" fill="#CE1126"/>
<path d="M4 25.3333H36V36H4V25.3333Z" fill="black"/>
<path d="M23.546 18.0411C23.5004 18.0119 23.4589 17.9724 23.4234 17.9243C23.3971 17.8659 23.4146 17.8659 23.5285 17.9009C23.73 17.9827 23.8614 17.9476 23.9927 17.8075L24.1066 17.679L24.238 17.7608C24.3168 17.8192 24.3957 17.8542 24.4132 17.8425C24.4745 17.8192 24.5971 17.6089 24.5884 17.5389C24.5884 17.4571 24.6409 17.4805 24.676 17.5739C24.7285 17.7608 24.6497 17.9827 24.5008 18.0294C24.4395 18.0527 24.3781 18.0411 24.273 17.9943C24.1504 17.936 24.1241 17.936 24.0628 17.9943C23.9894 18.0683 23.9014 18.1121 23.8096 18.1204C23.7179 18.1287 23.6262 18.1011 23.546 18.0411V18.0411ZM24.0541 17.4221C23.9947 17.2792 23.9645 17.1182 23.9665 16.9549C23.9752 16.8849 23.9927 16.8615 24.0365 16.8849C24.1241 16.9199 24.1416 17.0016 24.1241 17.2352C24.1241 17.4454 24.0978 17.5038 24.0541 17.4221ZM18.1329 17.2002C18.1241 17.352 18.3431 17.7374 18.4395 17.8075C18.3694 17.8425 18.2906 17.8308 18.2293 17.8659C17.8789 18.333 16.6176 19.9681 16.3898 20.3651C17.0731 20.3885 17.8263 20.3535 18.4657 20.3184C18.4657 19.6994 18.9037 19.6644 19.2015 19.4425C19.3504 19.7578 19.7271 19.7345 19.7796 20.2133V22.2688H13.9548C13.9328 22.4246 13.8864 22.5726 13.8188 22.7031C13.7512 22.8335 13.6638 22.9436 13.5622 23.0262C13.4606 23.1087 13.3472 23.1619 13.2293 23.1824C13.1113 23.2028 12.9914 23.1899 12.8774 23.1447C13.0526 22.9111 13.3504 22.8177 13.4555 22.479C13.5431 21.7316 13.2804 21.2761 13.1052 20.844C13.3255 20.7498 13.5327 20.6077 13.7183 20.4235C13.5169 21.2411 14.2614 21.1593 14.8044 21.1359C14.822 20.8556 14.8132 20.5286 14.6555 20.4819C14.857 20.3768 14.892 20.3418 15.2336 19.9681V21.0892L19.2716 21.0775C19.2716 20.7272 19.3417 20.1549 19.1314 20.1549C18.9387 20.1549 19.1314 20.879 18.9738 20.879H15.8468V20.1783C15.9782 19.9914 15.9606 20.0031 16.8628 18.8002C16.9504 18.6834 17.5898 17.9126 18.1417 17.2002H18.1329ZM25.9373 17.1651C26.1562 17.3287 26.3314 17.5389 26.5942 17.6323C26.5679 17.7841 26.4628 17.8425 26.4365 17.9943V21.1476C26.7343 21.2294 26.8044 20.9958 26.9446 20.879C26.9796 21.3812 27.2248 21.8717 27.2073 22.2805H25.9373V17.1768V17.1651ZM24.238 18.8586C24.238 18.8586 24.7022 18.333 24.7022 18.3097V21.0542H25.0351L25.0263 17.9827C25.1577 17.7958 25.4292 17.5389 25.4905 17.352V22.2571H22.565C22.5212 21.2411 22.5125 20.19 23.4059 20.4119V20.0031C23.3796 19.933 23.327 20.0148 23.3183 19.9213C23.4584 19.7345 23.5022 19.6878 23.8876 19.244L23.8964 21.0542H24.238V18.8586V18.8586ZM23.1343 21.0308C23.1957 21.1476 23.4146 21.1476 23.3971 20.9374C23.3708 20.7622 23.0906 20.8206 23.1343 21.0308Z" fill="#007A3D"/>
<path d="M14.655 23.0862C14.7518 23.0862 14.8302 22.9817 14.8302 22.8527C14.8302 22.7237 14.7518 22.6191 14.655 22.6191C14.5583 22.6191 14.4799 22.7237 14.4799 22.8527C14.4799 22.9817 14.5583 23.0862 14.655 23.0862Z" fill="#007A3D"/>
<path d="M20.1735 17.1768C20.3924 17.3286 20.5676 17.5505 20.8392 17.6439C20.8041 17.7841 20.7078 17.8424 20.6815 17.9943V21.1475C20.9793 21.2293 21.0406 21.0074 21.1808 20.8789C21.2246 21.3811 21.4611 21.8833 21.4523 22.2804H20.1735V17.1768Z" fill="#007A3D"/>
</g>
<rect x="2" y="2" width="36" height="36" rx="18" stroke="white" stroke-width="4"/>
<defs>
<clipPath id="clip0_90_25519">
<rect x="4" y="4" width="32" height="32" rx="16" fill="white"/>
</clipPath>
</defs>
</svg>
