<svg width="40" height="40" viewBox="0 0 40 40" fill="none" xmlns="http://www.w3.org/2000/svg">
<g clip-path="url(#clip0_90_25330)">
<path fill-rule="evenodd" clip-rule="evenodd" d="M-1.00012 4H40.9999V36H-1.00012V4Z" fill="white"/>
<path fill-rule="evenodd" clip-rule="evenodd" d="M-1.00024 25.4875H40.9998V36H-1.00024V25.4875Z" fill="#DA0000"/>
<path fill-rule="evenodd" clip-rule="evenodd" d="M6.98755 25.9375H9.28442V26.1437H6.98755V25.9375ZM7.32974 26.9875H7.48911V27.1938H7.32974V26.9875ZM9.2938 26.9875V27.1938H8.83442V26.9813L9.2938 26.9875ZM9.53755 25.9375H9.69692V27.1875H9.53755V25.9375Z" fill="white"/>
<path fill-rule="evenodd" clip-rule="evenodd" d="M10.4559 26.9812V27.1937H9.58403V26.9812H10.4559ZM8.83403 26.4875H8.98403V27.1937H8.82935L8.83403 26.4875Z" fill="white"/>
<path fill-rule="evenodd" clip-rule="evenodd" d="M10.325 25.9375H10.4844V27.1875H10.325V25.9375ZM9.9313 25.9375H10.086V27.1875H9.9313V25.9375ZM7.8313 26.4375V26.65H6.98755V26.4375H7.8313ZM9.67349 26.4375V26.65H8.82974V26.4375H9.67349Z" fill="white"/>
<path fill-rule="evenodd" clip-rule="evenodd" d="M8.83403 26.4937H8.98403V27.1875H8.82935L8.83403 26.4937Z" fill="white"/>
<path fill-rule="evenodd" clip-rule="evenodd" d="M8.83403 26.4937H8.98403V27.1875H8.82935L8.83403 26.4937Z" fill="white"/>
<path fill-rule="evenodd" clip-rule="evenodd" d="M8.83425 26.4937H8.98425V27.1875H8.82957L8.83425 26.4937ZM6.99207 26.4937H7.14675V27.1875H6.99207V26.4937ZM8.34207 26.4937H8.50144V27.1875H8.34207V26.4937ZM7.67175 26.4937H7.83113V27.1875H7.67175V26.4937Z" fill="white"/>
<path fill-rule="evenodd" clip-rule="evenodd" d="M8.44976 26.9813V27.1938H7.74194V26.9813H8.44976ZM8.49663 26.4375V26.65H8.04663V26.4375H8.49663Z" fill="white"/>
<path fill-rule="evenodd" clip-rule="evenodd" d="M3.20923 25.9375H5.5061V26.1437H3.20923V25.9375ZM3.55142 26.9875H3.71079V27.1938H3.54673L3.55142 26.9875ZM5.51548 26.9875V27.1938H5.0561V26.9813L5.51548 26.9875ZM5.75923 25.9375H5.9186V27.1875H5.75923V25.9375Z" fill="white"/>
<path fill-rule="evenodd" clip-rule="evenodd" d="M6.67815 26.9812V27.1937H5.80627V26.9812H6.67815ZM5.05627 26.4875H5.21096V27.1937H5.05627V26.4875Z" fill="white"/>
<path fill-rule="evenodd" clip-rule="evenodd" d="M6.54673 25.9375H6.7061V27.1875H6.54673V25.9375ZM6.15298 25.9375H6.30767V27.1875H6.15298V25.9375ZM4.05298 26.4375V26.65H3.20923V26.4375H4.05298ZM5.89517 26.4375V26.65H5.05142V26.4375H5.89517Z" fill="white"/>
<path fill-rule="evenodd" clip-rule="evenodd" d="M5.05627 26.4937H5.21096V27.1875H5.05627V26.4937Z" fill="white"/>
<path fill-rule="evenodd" clip-rule="evenodd" d="M5.05627 26.4937H5.21096V27.1875H5.05627V26.4937Z" fill="white"/>
<path fill-rule="evenodd" clip-rule="evenodd" d="M5.05654 26.4937H5.21123V27.1875H5.05654V26.4937ZM3.21436 26.4937H3.36904V27.1875H3.21436V26.4937ZM4.56436 26.4937H4.71904V27.1875H4.56436V26.4937ZM3.89404 26.4937H4.05342V27.1875H3.89404V26.4937Z" fill="white"/>
<path fill-rule="evenodd" clip-rule="evenodd" d="M4.672 26.9813V27.1938H3.96887V26.9813H4.672ZM4.71887 26.4375V26.65H4.26887V26.4375H4.71887Z" fill="white"/>
<path fill-rule="evenodd" clip-rule="evenodd" d="M10.7327 25.9375H13.0295V26.1437H10.7327V25.9375ZM11.0749 26.9875H11.2342V27.1938H11.0749V26.9875ZM13.0389 26.9875V27.1938H12.5795V26.9813L13.0389 26.9875ZM13.2874 25.9375H13.4467V27.1875H13.2874V25.9375Z" fill="white"/>
<path fill-rule="evenodd" clip-rule="evenodd" d="M14.2015 26.9812V27.1937H13.3296V26.9812H14.2015ZM12.5796 26.4875H12.739V27.1937H12.5796V26.4875Z" fill="white"/>
<path fill-rule="evenodd" clip-rule="evenodd" d="M14.0702 25.9375H14.2295V27.1875H14.0702V25.9375ZM13.6764 25.9375H13.8358V27.1875H13.6717L13.6764 25.9375ZM11.5764 26.4375V26.65H10.7327V26.4375H11.5764ZM13.4186 26.4375V26.65H12.5749V26.4375H13.4186Z" fill="white"/>
<path fill-rule="evenodd" clip-rule="evenodd" d="M12.5796 26.4937H12.739V27.1875H12.5796V26.4937Z" fill="white"/>
<path fill-rule="evenodd" clip-rule="evenodd" d="M12.5796 26.4937H12.739V27.1875H12.5796V26.4937Z" fill="white"/>
<path fill-rule="evenodd" clip-rule="evenodd" d="M12.5795 26.4937H12.7389V27.1875H12.5795V26.4937ZM10.7373 26.4937H10.8967V27.1875H10.7373V26.4937ZM12.0873 26.4937H12.2467V27.1875H12.0873V26.4937ZM11.417 26.4937H11.5764V27.1875H11.417V26.4937Z" fill="white"/>
<path fill-rule="evenodd" clip-rule="evenodd" d="M12.2 26.9813V27.1938H11.4875V26.9813H12.2ZM12.2469 26.4375V26.65H11.7969V26.4375H12.2469Z" fill="white"/>
<path fill-rule="evenodd" clip-rule="evenodd" d="M14.5015 25.9375H16.803V26.1437H14.5062L14.5015 25.9375ZM14.8483 26.9875H15.003V27.1938H14.8483V26.9875ZM16.8077 26.9875V27.1938H16.3483V26.9813L16.8077 26.9875ZM17.0562 25.9375H17.2155V27.1875H17.0562V25.9375Z" fill="white"/>
<path fill-rule="evenodd" clip-rule="evenodd" d="M17.9748 26.9812V27.1937H17.103V26.9812H17.9748ZM16.3483 26.4875H16.5076V27.1937H16.3483V26.4875Z" fill="white"/>
<path fill-rule="evenodd" clip-rule="evenodd" d="M17.8435 25.9375H18.0029V27.1875H17.8435V25.9375ZM17.445 25.9375H17.6044V27.1875H17.445V25.9375ZM15.345 26.4375V26.65H14.506V26.4375H15.345ZM17.1872 26.4375V26.65H16.3482V26.4375H17.1872Z" fill="white"/>
<path fill-rule="evenodd" clip-rule="evenodd" d="M16.3483 26.4937H16.5076V27.1875H16.3483V26.4937Z" fill="white"/>
<path fill-rule="evenodd" clip-rule="evenodd" d="M16.3483 26.4937H16.5076V27.1875H16.3483V26.4937Z" fill="white"/>
<path fill-rule="evenodd" clip-rule="evenodd" d="M16.3482 26.4937H16.5075V27.1875H16.3482V26.4937ZM14.506 26.4937H14.6654V27.1875H14.506V26.4937ZM15.856 26.4937H16.0154V27.1875H15.856V26.4937ZM15.1904 26.4937H15.345V27.1875H15.1904V26.4937Z" fill="white"/>
<path fill-rule="evenodd" clip-rule="evenodd" d="M15.9687 26.9813V27.1938H15.2609V26.9813H15.9687ZM16.0156 26.4375V26.65H15.5656V26.4375H16.0156Z" fill="white"/>
<path fill-rule="evenodd" clip-rule="evenodd" d="M18.2889 25.9375H20.5858V26.1437H18.2889V25.9375ZM18.6311 26.9875H18.7905V27.1938H18.6311V26.9875ZM20.5952 26.9875V27.1938H20.1358V26.9813L20.5952 26.9875ZM20.8436 25.9375H20.9983V27.1875H20.8436V25.9375Z" fill="white"/>
<path fill-rule="evenodd" clip-rule="evenodd" d="M21.7577 26.9812V27.1937H20.8859V26.9812H21.7577ZM20.1359 26.4875H20.2952V27.1937H20.1359V26.4875Z" fill="white"/>
<path fill-rule="evenodd" clip-rule="evenodd" d="M21.6264 25.9375H21.7858V27.1875H21.6264V25.9375ZM21.2327 25.9375H21.3921V27.1875H21.2327V25.9375ZM19.1327 26.4375V26.65H18.2889V26.4375H19.1327ZM20.9749 26.4375V26.65H20.1311V26.4375H20.9749Z" fill="white"/>
<path fill-rule="evenodd" clip-rule="evenodd" d="M20.1359 26.4937H20.2952V27.1875H20.1359V26.4937Z" fill="white"/>
<path fill-rule="evenodd" clip-rule="evenodd" d="M20.1359 26.4937H20.2952V27.1875H20.1359V26.4937Z" fill="white"/>
<path fill-rule="evenodd" clip-rule="evenodd" d="M20.1361 26.4937H20.2955V27.1875H20.1361V26.4937ZM18.2939 26.4937H18.4486V27.1875H18.2939V26.4937ZM19.6439 26.4937H19.8033V27.1875H19.6439V26.4937ZM18.9736 26.4937H19.133V27.1875H18.9689L18.9736 26.4937Z" fill="white"/>
<path fill-rule="evenodd" clip-rule="evenodd" d="M19.7564 26.9813V27.1938H19.0439V26.9813H19.7564ZM19.8033 26.4375V26.65H19.3439V26.4375H19.8033Z" fill="white"/>
<path fill-rule="evenodd" clip-rule="evenodd" d="M-1.00012 4H40.9999V14.5125H-1.00012V4Z" fill="#239F40"/>
<path fill-rule="evenodd" clip-rule="evenodd" d="M22.0955 25.9375H24.3923V26.1437H22.0955V25.9375ZM22.4376 26.9875H22.597V27.1938H22.4376V26.9875ZM24.4017 26.9875V27.1938H23.9376V26.9813L24.4017 26.9875ZM24.6501 25.9375H24.8048V27.1875H24.6501V25.9375Z" fill="white"/>
<path fill-rule="evenodd" clip-rule="evenodd" d="M25.5638 26.9812V27.1937H24.6919V26.9812H25.5638ZM23.9419 26.4875H24.1013V27.1937H23.9373L23.9419 26.4875Z" fill="white"/>
<path fill-rule="evenodd" clip-rule="evenodd" d="M25.4376 25.9375H25.5923V27.1875H25.4376V25.9375ZM25.0392 25.9375H25.1986V27.1875H25.0392V25.9375ZM22.9392 26.4375V26.65H22.0955V26.4375H22.9392ZM24.7814 26.4375V26.65H23.9376V26.4375H24.7814Z" fill="white"/>
<path fill-rule="evenodd" clip-rule="evenodd" d="M23.9373 26.4937H24.1013V27.1875H23.9373V26.4937Z" fill="white"/>
<path fill-rule="evenodd" clip-rule="evenodd" d="M23.9373 26.4937H24.1013V27.1875H23.9373V26.4937Z" fill="white"/>
<path fill-rule="evenodd" clip-rule="evenodd" d="M23.9375 26.4937H24.1015V27.1875H23.9375V26.4937ZM22.1 26.4937H22.2594V27.1875H22.1V26.4937ZM23.45 26.4937H23.6094V27.1875H23.45V26.4937ZM22.7797 26.4937H22.939V27.1875H22.7797V26.4937Z" fill="white"/>
<path fill-rule="evenodd" clip-rule="evenodd" d="M23.5624 26.9813V27.1938H22.8499V26.9813H23.5624ZM23.6092 26.4375V26.65H23.1592V26.4375H23.6092Z" fill="white"/>
<path fill-rule="evenodd" clip-rule="evenodd" d="M25.8783 25.9375H28.1752V26.1437H25.8783V25.9375ZM26.2205 26.9875H26.3799V27.1938H26.2205V26.9875ZM28.1892 26.9875V27.1938H27.7252V26.9813L28.1892 26.9875ZM28.433 25.9375H28.5924V27.1875H28.433V25.9375Z" fill="white"/>
<path fill-rule="evenodd" clip-rule="evenodd" d="M29.3471 26.9812V27.1937H28.4752V26.9812H29.3471ZM27.7252 26.4875H27.8846V27.1937H27.7252V26.4875Z" fill="white"/>
<path fill-rule="evenodd" clip-rule="evenodd" d="M29.2203 25.9375H29.375V27.1875H29.2203V25.9375ZM28.8219 25.9375H28.9813V27.1875H28.8219V25.9375ZM26.7219 26.4375V26.65H25.8828V26.4375H26.7219ZM28.5641 26.4375V26.65H27.725V26.4375H28.5641Z" fill="white"/>
<path fill-rule="evenodd" clip-rule="evenodd" d="M27.7252 26.4937H27.8846V27.1875H27.7252V26.4937Z" fill="white"/>
<path fill-rule="evenodd" clip-rule="evenodd" d="M27.7252 26.4937H27.8846V27.1875H27.7252V26.4937Z" fill="white"/>
<path fill-rule="evenodd" clip-rule="evenodd" d="M27.725 26.4937H27.8844V27.1875H27.725V26.4937ZM25.8828 26.4937H26.0422V27.1875H25.8828V26.4937ZM27.2328 26.4937H27.3922V27.1875H27.2328V26.4937ZM26.5625 26.4937H26.7219V27.1875H26.5672L26.5625 26.4937Z" fill="white"/>
<path fill-rule="evenodd" clip-rule="evenodd" d="M27.3451 26.9813V27.1938H26.6373V26.9813H27.3451ZM27.392 26.4375V26.65H26.9373V26.4375H27.392Z" fill="white"/>
<path fill-rule="evenodd" clip-rule="evenodd" d="M29.6658 25.9375H31.9626V26.1437H29.6658V25.9375ZM30.008 26.9875H30.1673V27.1938H30.008V26.9875ZM31.972 26.9875V27.1938H31.5126V26.9813L31.972 26.9875ZM32.2158 25.9375H32.3751V27.1875H32.2158V25.9375Z" fill="white"/>
<path fill-rule="evenodd" clip-rule="evenodd" d="M33.1344 26.9812V27.1937H32.2625V26.9812H33.1344ZM31.5078 26.4875H31.6672V27.1937H31.5078V26.4875Z" fill="white"/>
<path fill-rule="evenodd" clip-rule="evenodd" d="M33.0033 25.9375H33.1626V27.1875H33.0033V25.9375ZM32.6095 25.9375H32.7642V27.1875H32.6095V25.9375ZM30.5095 26.4375V26.65H29.6658V26.4375H30.5095ZM32.3517 26.4375V26.65H31.508V26.4375H32.3517Z" fill="white"/>
<path fill-rule="evenodd" clip-rule="evenodd" d="M31.5128 26.4937H31.6675V27.1875H31.5128V26.4937Z" fill="white"/>
<path fill-rule="evenodd" clip-rule="evenodd" d="M31.5128 26.4937H31.6675V27.1875H31.5128V26.4937Z" fill="white"/>
<path fill-rule="evenodd" clip-rule="evenodd" d="M31.5128 26.4937H31.6675V27.1875H31.5128V26.4937ZM29.6659 26.4937H29.8253V27.1875H29.6659V26.4937ZM31.0206 26.4937H31.1753V27.1875H31.0206V26.4937ZM30.3503 26.4937H30.5096V27.1875H30.3503V26.4937Z" fill="white"/>
<path fill-rule="evenodd" clip-rule="evenodd" d="M31.1282 26.9813V27.1938H30.4204V26.9813H31.1282ZM31.1751 26.4375V26.65H30.7251V26.4375H31.1751Z" fill="white"/>
<path fill-rule="evenodd" clip-rule="evenodd" d="M33.4718 25.9375H35.7687V26.1437H33.4718V25.9375ZM33.814 26.9875H33.9734V27.1938H33.814V26.9875ZM35.778 26.9875V27.1938H35.3187V26.9813L35.778 26.9875ZM36.0218 25.9375H36.1812V27.1875H36.0218V25.9375Z" fill="white"/>
<path fill-rule="evenodd" clip-rule="evenodd" d="M36.9405 26.9812V27.1937H36.0686V26.9812H36.9405ZM35.3186 26.4875H35.4733V27.1937H35.3186V26.4875Z" fill="white"/>
<path fill-rule="evenodd" clip-rule="evenodd" d="M36.8093 25.9375H36.9687V27.1875H36.8093V25.9375ZM36.4156 25.9375H36.5702V27.1875H36.4156V25.9375ZM34.3156 26.4375V26.65H33.4718V26.4375H34.3156ZM36.1577 26.4375V26.65H35.314V26.4375H36.1577Z" fill="white"/>
<path fill-rule="evenodd" clip-rule="evenodd" d="M35.3186 26.4937H35.4733V27.1875H35.3186V26.4937Z" fill="white"/>
<path fill-rule="evenodd" clip-rule="evenodd" d="M35.3186 26.4937H35.4733V27.1875H35.3186V26.4937Z" fill="white"/>
<path fill-rule="evenodd" clip-rule="evenodd" d="M35.3184 26.4937H35.4731V27.1875H35.3184V26.4937ZM33.4762 26.4937H33.6309V27.1875H33.4762V26.4937ZM34.8262 26.4937H34.9856V27.1875H34.8262V26.4937ZM34.1559 26.4937H34.3153V27.1875H34.1559V26.4937Z" fill="white"/>
<path fill-rule="evenodd" clip-rule="evenodd" d="M34.9344 26.9813V27.1938H34.2266V26.9813H34.9344ZM34.9812 26.4375V26.65H34.5312V26.4375H34.9812Z" fill="white"/>
<path fill-rule="evenodd" clip-rule="evenodd" d="M6.98755 12.9625H9.28442V13.175H6.98755V12.9625ZM7.32974 14.025H7.48911V14.225H7.32974V14.025ZM9.2938 14.0125V14.225H8.83442V14.0125H9.2938ZM9.53755 12.9625H9.69692V14.225H9.53755V12.9625Z" fill="white"/>
<path fill-rule="evenodd" clip-rule="evenodd" d="M10.4559 14.0125V14.225H9.58403V14.0125H10.4559ZM8.83403 13.5187H8.98403V14.225H8.82935L8.83403 13.5187Z" fill="white"/>
<path fill-rule="evenodd" clip-rule="evenodd" d="M10.325 12.9625H10.4844V14.225H10.325V12.9625ZM9.9313 12.9625H10.086V14.225H9.9313V12.9625ZM7.8313 13.4625V13.675H6.98755V13.4687L7.8313 13.4625ZM9.67349 13.4625V13.675H8.82974V13.4687L9.67349 13.4625Z" fill="white"/>
<path fill-rule="evenodd" clip-rule="evenodd" d="M8.83403 13.5187H8.98403V14.225H8.82935L8.83403 13.5187Z" fill="white"/>
<path fill-rule="evenodd" clip-rule="evenodd" d="M8.83403 13.5187H8.98403V14.225H8.82935L8.83403 13.5187Z" fill="white"/>
<path fill-rule="evenodd" clip-rule="evenodd" d="M8.83425 13.5187H8.98425V14.225H8.82957L8.83425 13.5187ZM6.99207 13.5187H7.14675V14.225H6.99207V13.5187ZM8.34207 13.5187H8.50144V14.225H8.34207V13.5187ZM7.67175 13.5187H7.83113V14.225H7.67175V13.5187Z" fill="white"/>
<path fill-rule="evenodd" clip-rule="evenodd" d="M8.44976 14.0125V14.225H7.74194V14.0125H8.44976ZM8.49663 13.4688V13.675H8.04663V13.4688H8.49663Z" fill="white"/>
<path fill-rule="evenodd" clip-rule="evenodd" d="M3.20923 12.9625H5.5061V13.175H3.20923V12.9625ZM3.55142 14.025H3.71079V14.225H3.54673L3.55142 14.025ZM5.51548 14.0125V14.225H5.0561V14.0125H5.51548ZM5.75923 12.9625H5.9186V14.225H5.75923V12.9625Z" fill="white"/>
<path fill-rule="evenodd" clip-rule="evenodd" d="M6.67815 14.0125V14.225H5.80627V14.0125H6.67815ZM5.05627 13.5187H5.21096V14.225H5.05627V13.5187Z" fill="white"/>
<path fill-rule="evenodd" clip-rule="evenodd" d="M6.54673 12.9625H6.7061V14.225H6.54673V12.9625ZM6.15298 12.9625H6.30767V14.225H6.15298V12.9625ZM4.05298 13.4625V13.675H3.20923V13.4687L4.05298 13.4625ZM5.89517 13.4625V13.675H5.05142V13.4687L5.89517 13.4625Z" fill="white"/>
<path fill-rule="evenodd" clip-rule="evenodd" d="M5.05627 13.5187H5.21096V14.225H5.05627V13.5187Z" fill="white"/>
<path fill-rule="evenodd" clip-rule="evenodd" d="M5.05627 13.5187H5.21096V14.225H5.05627V13.5187Z" fill="white"/>
<path fill-rule="evenodd" clip-rule="evenodd" d="M5.05654 13.5187H5.21123V14.225H5.05654V13.5187ZM3.21436 13.5187H3.36904V14.225H3.21436V13.5187ZM4.56436 13.5187H4.71904V14.225H4.56436V13.5187ZM3.89404 13.5187H4.05342V14.225H3.89404V13.5187Z" fill="white"/>
<path fill-rule="evenodd" clip-rule="evenodd" d="M4.672 14.0125V14.225H3.96887V14.0125H4.672ZM4.71887 13.4688V13.675H4.26887V13.4688H4.71887Z" fill="white"/>
<path fill-rule="evenodd" clip-rule="evenodd" d="M10.7327 12.9625H13.0295V13.175H10.7327V12.9625ZM11.0749 14.025H11.2342V14.225H11.0749V14.025ZM13.0389 14.0125V14.225H12.5795V14.0125H13.0389ZM13.2874 12.9625H13.4467V14.225H13.2874V12.9625Z" fill="white"/>
<path fill-rule="evenodd" clip-rule="evenodd" d="M14.2015 14.0125V14.225H13.3296V14.0125H14.2015ZM12.5796 13.5187H12.739V14.225H12.5796V13.5187Z" fill="white"/>
<path fill-rule="evenodd" clip-rule="evenodd" d="M14.0702 12.9625H14.2295V14.225H14.0702V12.9625ZM13.6764 12.9625H13.8358V14.225H13.6717L13.6764 12.9625ZM11.5764 13.4625V13.675H10.7327V13.4687L11.5764 13.4625ZM13.4186 13.4625V13.675H12.5749V13.4687L13.4186 13.4625Z" fill="white"/>
<path fill-rule="evenodd" clip-rule="evenodd" d="M12.5796 13.5187H12.739V14.225H12.5796V13.5187Z" fill="white"/>
<path fill-rule="evenodd" clip-rule="evenodd" d="M12.5796 13.5187H12.739V14.225H12.5796V13.5187Z" fill="white"/>
<path fill-rule="evenodd" clip-rule="evenodd" d="M12.5795 13.5187H12.7389V14.225H12.5795V13.5187ZM10.7373 13.5187H10.8967V14.225H10.7373V13.5187ZM12.0873 13.5187H12.2467V14.225H12.0873V13.5187ZM11.417 13.5187H11.5764V14.225H11.417V13.5187Z" fill="white"/>
<path fill-rule="evenodd" clip-rule="evenodd" d="M12.2 14.0125V14.225H11.4875V14.0125H12.2ZM12.2469 13.4688V13.675H11.7969V13.4688H12.2469Z" fill="white"/>
<path fill-rule="evenodd" clip-rule="evenodd" d="M14.5015 12.9625H16.803V13.175H14.5062L14.5015 12.9625ZM14.8483 14.025H15.003V14.225H14.8483V14.025ZM16.8077 14.0125V14.225H16.3483V14.0125H16.8077ZM17.0562 12.9625H17.2155V14.225H17.0562V12.9625Z" fill="white"/>
<path fill-rule="evenodd" clip-rule="evenodd" d="M17.9748 14.0125V14.225H17.103V14.0125H17.9748ZM16.3483 13.5187H16.5076V14.225H16.3483V13.5187Z" fill="white"/>
<path fill-rule="evenodd" clip-rule="evenodd" d="M17.8435 12.9625H18.0029V14.225H17.8435V12.9625ZM17.445 12.9625H17.6044V14.225H17.445V12.9625ZM15.345 13.4625V13.675H14.506V13.4687L15.345 13.4625ZM17.1872 13.4625V13.675H16.3482V13.4687L17.1872 13.4625Z" fill="white"/>
<path fill-rule="evenodd" clip-rule="evenodd" d="M16.3483 13.5187H16.5076V14.225H16.3483V13.5187Z" fill="white"/>
<path fill-rule="evenodd" clip-rule="evenodd" d="M16.3483 13.5187H16.5076V14.225H16.3483V13.5187Z" fill="white"/>
<path fill-rule="evenodd" clip-rule="evenodd" d="M16.3482 13.5187H16.5075V14.225H16.3482V13.5187ZM14.506 13.5187H14.6654V14.225H14.506V13.5187ZM15.856 13.5187H16.0154V14.225H15.856V13.5187ZM15.1904 13.5187H15.345V14.225H15.1904V13.5187Z" fill="white"/>
<path fill-rule="evenodd" clip-rule="evenodd" d="M15.9687 14.0125V14.225H15.2609V14.0125H15.9687ZM16.0156 13.4688V13.675H15.5656V13.4688H16.0156Z" fill="white"/>
<path fill-rule="evenodd" clip-rule="evenodd" d="M18.2889 12.9625H20.5858V13.175H18.2889V12.9625ZM18.6311 14.025H18.7905V14.225H18.6311V14.025ZM20.5952 14.0125V14.225H20.1358V14.0125H20.5952ZM20.8436 12.9625H20.9983V14.225H20.8436V12.9625Z" fill="white"/>
<path fill-rule="evenodd" clip-rule="evenodd" d="M21.7577 14.0125V14.225H20.8859V14.0125H21.7577ZM20.1359 13.5187H20.2952V14.225H20.1359V13.5187Z" fill="white"/>
<path fill-rule="evenodd" clip-rule="evenodd" d="M21.6264 12.9625H21.7858V14.225H21.6264V12.9625ZM21.2327 12.9625H21.3921V14.225H21.2327V12.9625ZM19.1327 13.4625V13.675H18.2889V13.4687L19.1327 13.4625ZM20.9749 13.4625V13.675H20.1311V13.4687L20.9749 13.4625Z" fill="white"/>
<path fill-rule="evenodd" clip-rule="evenodd" d="M20.1359 13.5187H20.2952V14.225H20.1359V13.5187Z" fill="white"/>
<path fill-rule="evenodd" clip-rule="evenodd" d="M20.1359 13.5187H20.2952V14.225H20.1359V13.5187Z" fill="white"/>
<path fill-rule="evenodd" clip-rule="evenodd" d="M20.1361 13.5187H20.2955V14.225H20.1361V13.5187ZM18.2939 13.5187H18.4486V14.225H18.2939V13.5187ZM19.6439 13.5187H19.8033V14.225H19.6439V13.5187ZM18.9736 13.5187H19.133V14.225H18.9689L18.9736 13.5187Z" fill="white"/>
<path fill-rule="evenodd" clip-rule="evenodd" d="M19.7564 14.0125V14.225H19.0439V14.0125H19.7564ZM19.8033 13.4688V13.675H19.3439V13.4688H19.8033Z" fill="white"/>
<path fill-rule="evenodd" clip-rule="evenodd" d="M22.0955 12.9625H24.3923V13.175H22.0955V12.9625ZM22.4376 14.025H22.597V14.225H22.4376V14.025ZM24.4017 14.0125V14.225H23.9376V14.0125H24.4017ZM24.6501 12.9625H24.8048V14.225H24.6501V12.9625Z" fill="white"/>
<path fill-rule="evenodd" clip-rule="evenodd" d="M25.5638 14.0125V14.225H24.6919V14.0125H25.5638ZM23.9419 13.5187H24.1013V14.225H23.9373L23.9419 13.5187Z" fill="white"/>
<path fill-rule="evenodd" clip-rule="evenodd" d="M25.4376 12.9625H25.5923V14.225H25.4376V12.9625ZM25.0392 12.9625H25.1986V14.225H25.0392V12.9625ZM22.9392 13.4625V13.675H22.0955V13.4687L22.9392 13.4625ZM24.7814 13.4625V13.675H23.9376V13.4687L24.7814 13.4625Z" fill="white"/>
<path fill-rule="evenodd" clip-rule="evenodd" d="M23.9373 13.5187H24.1013V14.225H23.9373V13.5187Z" fill="white"/>
<path fill-rule="evenodd" clip-rule="evenodd" d="M23.9373 13.5187H24.1013V14.225H23.9373V13.5187Z" fill="white"/>
<path fill-rule="evenodd" clip-rule="evenodd" d="M23.9375 13.5187H24.1015V14.225H23.9375V13.5187ZM22.1 13.5187H22.2594V14.225H22.1V13.5187ZM23.45 13.5187H23.6094V14.225H23.45V13.5187ZM22.7797 13.5187H22.939V14.225H22.7797V13.5187Z" fill="white"/>
<path fill-rule="evenodd" clip-rule="evenodd" d="M23.5624 14.0125V14.225H22.8499V14.0125H23.5624ZM23.6092 13.4688V13.675H23.1592V13.4688H23.6092Z" fill="white"/>
<path fill-rule="evenodd" clip-rule="evenodd" d="M25.8783 12.9625H28.1752V13.175H25.8783V12.9625ZM26.2205 14.025H26.3799V14.225H26.2205V14.025ZM28.1892 14.0125V14.225H27.7252V14.0125H28.1892ZM28.433 12.9625H28.5924V14.225H28.433V12.9625Z" fill="white"/>
<path fill-rule="evenodd" clip-rule="evenodd" d="M29.3471 14.0125V14.225H28.4752V14.0125H29.3471ZM27.7252 13.5187H27.8846V14.225H27.7252V13.5187Z" fill="white"/>
<path fill-rule="evenodd" clip-rule="evenodd" d="M29.2203 12.9625H29.375V14.225H29.2203V12.9625ZM28.8219 12.9625H28.9813V14.225H28.8219V12.9625ZM26.7219 13.4625V13.675H25.8828V13.4687L26.7219 13.4625ZM28.5641 13.4625V13.675H27.725V13.4687L28.5641 13.4625Z" fill="white"/>
<path fill-rule="evenodd" clip-rule="evenodd" d="M27.7252 13.5187H27.8846V14.225H27.7252V13.5187Z" fill="white"/>
<path fill-rule="evenodd" clip-rule="evenodd" d="M27.7252 13.5187H27.8846V14.225H27.7252V13.5187Z" fill="white"/>
<path fill-rule="evenodd" clip-rule="evenodd" d="M27.725 13.5187H27.8844V14.225H27.725V13.5187ZM25.8828 13.5187H26.0422V14.225H25.8828V13.5187ZM27.2328 13.5187H27.3922V14.225H27.2328V13.5187ZM26.5625 13.5187H26.7219V14.225H26.5672L26.5625 13.5187Z" fill="white"/>
<path fill-rule="evenodd" clip-rule="evenodd" d="M27.3451 14.0125V14.225H26.6373V14.0125H27.3451ZM27.392 13.4688V13.675H26.9373V13.4688H27.392Z" fill="white"/>
<path fill-rule="evenodd" clip-rule="evenodd" d="M29.6658 12.9625H31.9626V13.175H29.6658V12.9625ZM30.008 14.025H30.1673V14.225H30.008V14.025ZM31.972 14.0125V14.225H31.5126V14.0125H31.972ZM32.2158 12.9625H32.3751V14.225H32.2158V12.9625Z" fill="white"/>
<path fill-rule="evenodd" clip-rule="evenodd" d="M33.1344 14.0125V14.225H32.2625V14.0125H33.1344ZM31.5078 13.5187H31.6672V14.225H31.5078V13.5187Z" fill="white"/>
<path fill-rule="evenodd" clip-rule="evenodd" d="M33.0033 12.9625H33.1626V14.225H33.0033V12.9625ZM32.6095 12.9625H32.7642V14.225H32.6095V12.9625ZM30.5095 13.4625V13.675H29.6658V13.4687L30.5095 13.4625ZM32.3517 13.4625V13.675H31.508V13.4687L32.3517 13.4625Z" fill="white"/>
<path fill-rule="evenodd" clip-rule="evenodd" d="M31.5128 13.5187H31.6675V14.225H31.5128V13.5187Z" fill="white"/>
<path fill-rule="evenodd" clip-rule="evenodd" d="M31.5128 13.5187H31.6675V14.225H31.5128V13.5187Z" fill="white"/>
<path fill-rule="evenodd" clip-rule="evenodd" d="M31.5128 13.5187H31.6675V14.225H31.5128V13.5187ZM29.6659 13.5187H29.8253V14.225H29.6659V13.5187ZM31.0206 13.5187H31.1753V14.225H31.0206V13.5187ZM30.3503 13.5187H30.5096V14.225H30.3503V13.5187Z" fill="white"/>
<path fill-rule="evenodd" clip-rule="evenodd" d="M31.1282 14.0125V14.225H30.4204V14.0125H31.1282ZM31.1751 13.4688V13.675H30.7251V13.4688H31.1751Z" fill="white"/>
<path fill-rule="evenodd" clip-rule="evenodd" d="M33.4718 12.9625H35.7687V13.175H33.4718V12.9625ZM33.814 14.025H33.9734V14.225H33.814V14.025ZM35.778 14.0125V14.225H35.3187V14.0125H35.778ZM36.0218 12.9625H36.1812V14.225H36.0218V12.9625Z" fill="white"/>
<path fill-rule="evenodd" clip-rule="evenodd" d="M36.9405 14.0125V14.225H36.0686V14.0125H36.9405ZM35.3186 13.5187H35.4733V14.225H35.3186V13.5187Z" fill="white"/>
<path fill-rule="evenodd" clip-rule="evenodd" d="M36.8093 12.9625H36.9687V14.225H36.8093V12.9625ZM36.4156 12.9625H36.5702V14.225H36.4156V12.9625ZM34.3156 13.4625V13.675H33.4718V13.4687L34.3156 13.4625ZM36.1577 13.4625V13.675H35.314V13.4687L36.1577 13.4625Z" fill="white"/>
<path fill-rule="evenodd" clip-rule="evenodd" d="M35.3186 13.5187H35.4733V14.225H35.3186V13.5187Z" fill="white"/>
<path fill-rule="evenodd" clip-rule="evenodd" d="M35.3186 13.5187H35.4733V14.225H35.3186V13.5187Z" fill="white"/>
<path fill-rule="evenodd" clip-rule="evenodd" d="M35.3184 13.5187H35.4731V14.225H35.3184V13.5187ZM33.4762 13.5187H33.6309V14.225H33.4762V13.5187ZM34.8262 13.5187H34.9856V14.225H34.8262V13.5187ZM34.1559 13.5187H34.3153V14.225H34.1559V13.5187Z" fill="white"/>
<path fill-rule="evenodd" clip-rule="evenodd" d="M34.9344 14.0125V14.225H34.2266V14.0125H34.9344ZM34.9812 13.4688V13.675H34.5312V13.4688H34.9812Z" fill="white"/>
<path fill-rule="evenodd" clip-rule="evenodd" d="M4.77476 25.2188H5.05601V25.875H4.77476V25.2188ZM12.2982 25.2188H12.5794V25.875H12.2982V25.2188ZM-1.00024 25.2188H-0.718994V25.875H-1.00024V25.2188ZM2.82007 25.2188H3.10132V25.875H2.82007V25.2188ZM6.61226 25.2188H6.89351V25.875H6.61226V25.2188ZM8.48726 25.2188H8.76851V25.875H8.48726V25.2188ZM10.4044 25.2188H10.6857V25.875H10.4044V25.2188ZM14.1732 25.2188H14.4544V25.875H14.1732V25.2188ZM23.6888 25.2188H23.9748V25.875H23.6935L23.6888 25.2188ZM16.0904 25.2188H16.3716V25.875H16.0904V25.2188ZM17.9654 25.2188H18.2466V25.875H17.9654V25.2188ZM19.8638 25.2188H20.1451V25.875H19.8638V25.2188ZM21.7576 25.2188H22.0388V25.875H21.7576V25.2188ZM36.9076 25.2188H37.1888V25.875H36.9076V25.2188ZM25.531 25.2188H25.8123V25.875H25.531V25.2188ZM27.4435 25.2188H27.7248V25.875H27.4435V25.2188ZM29.3794 25.2188H29.6607V25.875H29.3794V25.2188ZM31.1982 25.2188H31.4794V25.875H31.1982V25.2188ZM33.1341 25.2188H33.4154V25.875H33.1341V25.2188ZM35.0279 25.2188H35.3091V25.875H35.0279V25.2188ZM40.6388 25.2188H40.9201V25.875H40.6388V25.2188ZM38.8201 25.2188H39.1013V25.875H38.8201V25.2188ZM0.902881 25.2188H1.18413V25.875H0.902881V25.2188Z" fill="#D90000"/>
<path fill-rule="evenodd" clip-rule="evenodd" d="M4.77476 14.1625H5.05601V14.8188H4.77476V14.1625ZM12.2982 14.1625H12.5794V14.8188H12.2982V14.1625ZM-1.00024 14.1625H-0.718994V14.8188H-1.00024V14.1625ZM2.82007 14.1625H3.10132V14.8188H2.82007V14.1625ZM6.61226 14.1625H6.89351V14.8188H6.61226V14.1625ZM8.48726 14.1625H8.76851V14.8188H8.48726V14.1625ZM10.4044 14.1625H10.6857V14.8188H10.4044V14.1625ZM14.1732 14.1625H14.4544V14.8188H14.1732V14.1625ZM23.6888 14.1625H23.9748V14.8188H23.6935L23.6888 14.1625ZM16.0904 14.1625H16.3716V14.8188H16.0904V14.1625ZM17.9654 14.1625H18.2466V14.8188H17.9654V14.1625ZM19.8638 14.1625H20.1451V14.8188H19.8638V14.1625ZM21.7576 14.1625H22.0388V14.8188H21.7576V14.1625ZM36.9076 14.1625H37.1888V14.8188H36.9076V14.1625ZM25.531 14.1625H25.8123V14.8188H25.531V14.1625ZM27.4435 14.1625H27.7248V14.8188H27.4435V14.1625ZM29.3794 14.1625H29.6607V14.8188H29.3794V14.1625ZM31.1982 14.1625H31.4794V14.8188H31.1982V14.1625ZM33.1341 14.1625H33.4154V14.8188H33.1341V14.1625ZM35.0279 14.1625H35.3091V14.8188H35.0279V14.1625ZM40.6388 14.1625H40.9201V14.8188H40.6388V14.1625ZM38.8201 14.1625H39.1013V14.8188H38.8201V14.1625ZM0.902881 14.1625H1.18413V14.8188H0.902881V14.1625Z" fill="#239E3F"/>
<path fill-rule="evenodd" clip-rule="evenodd" d="M21.1156 16.3438C21.5093 16.9937 22.7328 20.5688 20.3796 22.9188C19.2687 24.0312 19.9578 24.0812 19.9906 24.2687C21.7718 23.0125 22.3484 21.3 22.3343 19.7687C22.3249 18.2438 21.7156 16.8937 21.1156 16.3438Z" fill="#DA0000"/>
<path fill-rule="evenodd" clip-rule="evenodd" d="M21.3503 16.175C21.7852 16.5278 22.1558 17.0051 22.4355 17.5724C22.7151 18.1396 22.8967 18.7826 22.9671 19.4549C23.0375 20.1272 22.995 20.8119 22.8427 21.4596C22.6903 22.1073 22.432 22.7017 22.0862 23.2C23.3612 22.825 24.9925 17.8 21.3503 16.175V16.175ZM18.6503 16.175C18.2157 16.5284 17.8454 17.0061 17.5663 17.5736C17.2871 18.1411 17.106 18.7842 17.036 19.4564C16.966 20.1287 17.0089 20.8132 17.1617 21.4607C17.3144 22.1081 17.5731 22.7022 17.919 23.2C16.6393 22.825 15.0128 17.8 18.6503 16.175V16.175Z" fill="#DA0000"/>
<path fill-rule="evenodd" clip-rule="evenodd" d="M18.8844 16.3438C18.4907 16.9937 17.2672 20.5688 19.6203 22.9188C20.7266 24.0312 20.0422 24.0812 20.0094 24.2687C18.2282 23.0125 17.6516 21.3 17.6657 19.7687C17.675 18.2438 18.2844 16.8937 18.8844 16.3438Z" fill="#DA0000"/>
<path fill-rule="evenodd" clip-rule="evenodd" d="M22.2595 23.9437C21.5611 23.9562 20.6845 23.8187 20.033 23.3625C20.1408 23.6437 20.2298 23.8187 20.3376 24.0937C20.9564 24.175 21.8142 24.2687 22.2595 23.9437ZM17.8064 23.9437C18.5048 23.9562 19.3814 23.8187 20.033 23.3625C19.9251 23.6437 19.8361 23.8187 19.7283 24.0937C19.1095 24.175 18.2517 24.2687 17.8064 23.9437ZM19.0861 15.275C19.2267 15.775 19.597 15.85 19.9908 15.5562C20.2814 15.7812 20.7267 15.8 20.8814 15.3C20.9986 16.5375 20.0236 16.2375 19.9908 16C19.6251 16.4687 18.9501 16.2 19.0861 15.275Z" fill="#DA0000"/>
<path fill-rule="evenodd" clip-rule="evenodd" d="M20.0188 24.725L20.3844 24.1625L20.436 16.6562L20 16.1437L19.5641 16.6312L19.6531 24.1937L20.0188 24.725Z" fill="#DA0000"/>
</g>
<rect x="2" y="2" width="36" height="36" rx="18" stroke="white" stroke-width="4"/>
<defs>
<clipPath id="clip0_90_25330">
<rect x="4" y="4" width="32" height="32" rx="16" fill="white"/>
</clipPath>
</defs>
</svg>
