<svg width="40" height="40" viewBox="0 0 40 40" fill="none" xmlns="http://www.w3.org/2000/svg">
<g clip-path="url(#clip0_90_25282)">
<path d="M4 4H36V36H4V4Z" fill="white"/>
<path fill-rule="evenodd" clip-rule="evenodd" d="M0 4V6.13333L17.52 20L0.0800003 33.8667V36H2.64L20.08 22.1333L37.44 36H40V33.8667L22.64 20L40.08 6.13333V4H37.44L20 17.8667L2.64 4H0.0800003H0Z" fill="#DF112D"/>
<path d="M22.0798 8.80001C22.6398 11.5733 22.3198 14.9867 19.9998 16.9067C17.6798 14.9867 17.3598 11.5733 17.9198 8.80001C18.4798 8.16001 20.9598 7.73334 22.0798 8.80001Z" fill="#E8112D"/>
<path d="M20 8.26667C20.8 8.26667 21.44 8.48001 22.08 8.90667C22.1952 7.98256 22.469 7.10644 22.88 6.34667C22.48 6.34667 22.32 6.56001 22.32 6.88001C22.24 6.56001 21.84 6.56001 21.68 6.77334C22.16 7.09334 21.84 7.84001 21.44 7.73334C21.2 7.62667 21.12 7.41334 21.12 7.20001C21.1794 7.18663 21.2328 7.14403 21.2697 7.08063C21.3066 7.01724 21.3242 6.93768 21.3192 6.85772C21.3142 6.77777 21.2868 6.70325 21.2425 6.64894C21.1982 6.59463 21.1402 6.56448 21.08 6.56448C21.0199 6.56448 20.9619 6.59463 20.9176 6.64894C20.8733 6.70325 20.8459 6.77777 20.8409 6.85772C20.8358 6.93768 20.8535 7.01724 20.8904 7.08063C20.9273 7.14403 20.9807 7.18663 21.04 7.20001C20.8923 7.40098 20.6911 7.516 20.48 7.52001C20.3882 7.46208 20.3098 7.37192 20.2535 7.25918C20.1971 7.14643 20.1648 7.01536 20.16 6.88001C20.16 6.34667 20.64 6.24001 20.72 6.34667C20.72 6.02667 20.24 5.60001 20.16 6.02667C20.2426 5.81955 20.2717 5.5819 20.2428 5.3505C20.2139 5.11911 20.1286 4.90688 20 4.74667C19.8888 4.89876 19.8141 5.09169 19.7856 5.30074C19.7571 5.50979 19.776 5.72543 19.84 5.92001C19.68 5.60001 19.28 5.92001 19.28 6.34667C19.36 6.24001 19.76 6.34667 19.76 6.88001C19.76 7.09334 19.76 7.41334 19.52 7.41334C19.4221 7.46455 19.3142 7.4714 19.213 7.43286C19.1118 7.39431 19.0229 7.3125 18.96 7.20001L19.12 7.09334C19.1658 7.05812 19.2016 7.00375 19.2218 6.93867C19.242 6.87359 19.2455 6.80143 19.2319 6.73339C19.2182 6.66535 19.1881 6.60522 19.1461 6.56234C19.1042 6.51946 19.0529 6.49621 19 6.49621C18.9472 6.49621 18.8959 6.51946 18.8539 6.56234C18.812 6.60522 18.7819 6.66535 18.7682 6.73339C18.7545 6.80143 18.7581 6.87359 18.7783 6.93867C18.7985 7.00375 18.8343 7.05812 18.88 7.09334C18.88 7.41334 18.72 7.62667 18.56 7.62667C18.4761 7.62667 18.3943 7.59145 18.3262 7.526C18.258 7.46055 18.2071 7.36819 18.1806 7.262C18.154 7.1558 18.1532 7.04116 18.1782 6.93432C18.2033 6.82747 18.2529 6.73384 18.32 6.66667C18.16 6.45334 17.76 6.45334 17.68 6.88001C17.68 6.56001 17.52 6.34667 17.04 6.34667C17.4511 7.10644 17.7248 7.98256 17.84 8.90667C18.5049 8.44219 19.2502 8.22134 20 8.26667V8.26667Z" fill="#F9DD16"/>
<path d="M21.8393 11.04H21.6793H21.9193C21.9993 11.04 22.0793 10.9333 21.9993 10.8266H22.1593L21.9993 10.6133H22.1593L21.9993 10.4H22.0793C22.0652 10.3676 22.0578 10.3308 22.0578 10.2933C22.0578 10.2559 22.0652 10.2191 22.0793 10.1866H21.5193L21.1193 10.08L21.5993 9.75998C21.5993 9.54665 21.3593 9.22665 20.9593 9.43998L20.0793 9.33332L20.6393 9.11998L21.2793 9.01332H20.7193C20.4793 9.01332 19.9193 8.90665 19.9193 9.33332C19.9193 9.75998 20.4793 9.65332 21.0393 9.54665L21.5193 9.65332L21.0393 9.86665C20.8024 9.79371 20.5562 9.79371 20.3193 9.86665H19.7593C19.5993 9.86665 19.3593 9.86665 19.1993 9.65332C19.1993 9.65332 18.8793 9.86665 18.8793 10.08V10.4C19.0393 10.6133 18.8793 10.5066 18.7193 10.5066L18.3193 10.4C18.2393 10.1866 18.1593 10.08 17.9993 10.1866V10.4H18.1593C18.1349 10.3813 18.1074 10.3714 18.0793 10.3714C18.0512 10.3714 18.0236 10.3813 17.9993 10.4V10.6133H18.2393H18.0793V10.72H18.3993C18.3568 10.72 18.3161 10.7425 18.2861 10.7825C18.2561 10.8225 18.2393 10.8767 18.2393 10.9333C18.3193 10.8266 18.3993 10.9333 18.5593 10.9333L18.3993 11.04C18.4793 11.04 18.9593 11.1466 18.9593 10.9333V11.04C18.9593 11.04 19.1993 11.04 19.1993 10.8266V11.04C19.1993 11.04 19.3593 11.04 19.4393 10.8266V10.6133H19.8393C19.9993 10.4 20.0793 10.6133 20.1593 10.5066H20.3193C20.3993 10.5066 20.4793 10.5066 20.5593 10.2933C20.7193 10.4 20.9593 10.5066 21.4393 10.4C21.6793 10.4 21.8393 10.5066 21.8393 10.72H21.4393C21.4393 10.72 21.3593 10.8266 21.4393 10.9333C21.5193 11.04 21.4393 10.9333 21.5193 10.9333C21.5193 10.9333 21.4393 11.04 21.5193 11.1466L21.7593 11.04H21.8393ZM18.6393 9.22665V9.33332L18.7193 9.54665L18.7993 9.22665H18.6393Z" fill="#F9DD16"/>
<path d="M19.199 9.33332C19.279 9.22665 19.359 9.22665 19.359 9.33332L19.279 9.54665L19.199 9.22665V9.33332Z" fill="#F9DD16"/>
<path d="M18.9593 9.12C19.1993 9.12 19.2793 9.33333 19.2793 9.54666L19.1193 9.97333L18.9593 10.08L18.7993 9.97333C18.7993 9.65333 18.6393 9.76 18.6393 9.54666C18.6393 9.33333 18.6393 9.12 18.9593 9.12V9.12Z" fill="#F9DD16"/>
<path d="M18.3192 9.97332H18.1592C18.2392 9.97332 18.2392 10.1867 18.4792 10.1867H18.3192C18.3992 10.1867 18.4792 10.4 18.7192 10.4C18.7992 10.4 18.7192 10.4 18.7192 10.4C18.7192 10.5067 18.8792 10.4 18.9592 10.6133C18.9592 10.5067 18.7992 10.2933 18.9592 10.08C18.6392 10.08 18.5592 9.86665 18.4792 9.75999C18.3192 9.65332 18.3192 9.43999 18.2392 9.22665C18.2392 9.22665 18.1592 9.01332 18.0792 9.11999V9.33332H17.9992C18.0792 9.33332 17.9992 9.54665 18.1592 9.65332C18.0792 9.54665 17.9992 9.43999 17.9192 9.54665H17.9992L18.3192 9.97332V9.97332ZM20.3992 11.04H20.7992L20.9592 10.9333V10.72C20.8792 10.72 20.7992 10.6133 20.8792 10.5067C20.6392 10.08 20.1592 10.2933 20.1592 10.5067L20.4792 10.72H20.5592H19.9992L20.0792 10.8267L19.9192 10.9333C19.9192 11.1467 20.0792 10.9333 20.0792 10.9333V11.04C20.0792 11.04 20.0792 11.1467 20.1592 11.04C20.211 11.0156 20.2674 11.0156 20.3192 11.04H20.3992Z" fill="#F9DD16"/>
<path d="M18.9596 9.97334H19.0396V9.76001H18.7996V9.86668L18.9596 9.97334V9.97334Z" fill="#FF0016"/>
<path d="M18.0795 9.12001C18.0795 9.01334 17.9195 9.12001 17.9195 9.12001H18.0795ZM18.0795 9.22668L17.8395 9.33334H17.9995L18.0795 9.22668ZM18.0795 9.54668H17.8395H17.9995H18.0795ZM18.0795 10.2933C17.9995 10.2933 17.9195 10.2933 17.9195 10.5067C17.9195 10.4 17.9995 10.5067 18.0795 10.5067V10.2933ZM18.0795 10.5067L17.9195 10.72L18.0795 10.6133V10.4V10.5067ZM18.0795 10.6133C18.0795 10.6133 17.9995 10.72 18.0795 10.8267V10.5067V10.6133ZM20.0795 10.9333C19.9995 10.9333 19.9195 10.9333 19.9195 11.1467L20.0795 11.04V10.9333V10.9333ZM20.1595 10.9333C20.0795 10.9333 19.9995 11.1467 20.0795 11.2533L20.1595 11.1467V11.04V10.9333ZM20.1595 10.72C19.9995 10.72 19.9195 10.72 19.9195 10.9333L20.0795 10.8267L20.1595 10.72ZM21.4395 10.9333C21.4395 10.9333 21.2795 11.04 21.3595 11.1467L21.4395 11.04V10.9333V10.9333ZM21.4395 10.8267L21.2795 10.9333H21.4395V10.6133V10.8267ZM21.4395 11.04C21.4395 11.04 21.3595 11.2533 21.4395 11.2533H21.5195V10.9333L21.4395 11.04ZM19.0395 9.97334V10.4C18.8795 10.4 18.8795 10.4 18.8795 10.1867V9.97334H18.9595H19.0395Z" fill="#0051BA"/>
<path d="M21.5193 13.28H21.6793C21.6793 13.28 21.7593 13.28 21.6793 13.1733H21.8393L21.7593 12.96H21.8393L21.7593 12.7467C21.7453 12.7142 21.7379 12.6774 21.7379 12.64C21.7379 12.6026 21.7453 12.5658 21.7593 12.5333H21.3593L20.9593 12.4267C21.1993 12.5333 21.4393 12.32 21.4393 12.1067C21.4393 11.8933 21.1993 11.68 20.8793 11.8933L19.9993 11.7867L20.4793 11.5733H21.1193L20.5593 11.4667C20.3193 11.36 19.8393 11.4667 19.8393 11.7867C19.8393 12.1067 20.3993 12.1067 20.8793 12H21.2793L20.8793 12.2133C20.6687 12.1493 20.4499 12.1493 20.2393 12.2133L19.6793 12.32C19.5993 12.32 19.3593 12.32 19.1993 12.1067L18.8793 12.4267L18.9593 12.8533C19.0393 12.96 18.9593 12.8533 18.7993 12.8533H18.3993C18.3993 12.64 18.2393 12.5333 18.1593 12.64V12.7467H18.3193C18.295 12.7279 18.2674 12.7181 18.2393 12.7181C18.2112 12.7181 18.1836 12.7279 18.1593 12.7467V12.96H18.3193H18.2393C18.3993 12.96 18.3993 13.1733 18.4793 13.0667C18.4531 13.0576 18.4255 13.0576 18.3993 13.0667C18.3993 13.0667 18.5593 13.28 18.6393 13.1733L18.5593 13.3867C18.5593 13.28 19.0393 13.3867 19.0393 13.1733V13.3867C19.0393 13.3867 19.1993 13.3867 19.2793 13.1733H19.4393V12.96H19.5993L19.8393 12.8533H20.2393C20.3193 12.8533 20.3993 12.8533 20.4793 12.64C20.6393 12.7467 20.7993 12.8533 21.2793 12.7467C21.4393 12.7467 21.5193 12.7467 21.5193 12.96V13.0667H21.1993V13.28C21.1993 13.3867 21.2793 13.28 21.3593 13.28C21.2793 13.28 21.1993 13.28 21.2793 13.3867H21.3593L21.5193 13.28V13.28ZM18.7993 11.68H18.6393L18.7193 12L18.7993 11.68V11.68Z" fill="#F9DD16"/>
<path d="M19.1995 11.68H19.3595L19.2795 12L19.1995 11.68Z" fill="#F9DD16"/>
<path d="M19.0394 11.5733C19.2794 11.5733 19.2794 11.7867 19.2794 12C19.2794 12.2133 19.1994 12 19.1194 12.32L18.9594 12.4267H18.8794C18.8794 12.1067 18.7194 12.1067 18.7194 12C18.7194 11.8933 18.7194 11.5733 19.0394 11.5733V11.5733Z" fill="#F9DD16"/>
<path d="M18.3992 12.32H18.3192C18.3192 12.32 18.3192 12.5333 18.5592 12.5333H18.3992L18.7192 12.7467C18.8792 12.7467 18.7192 12.7467 18.7192 12.7467L19.0392 12.96C19.0392 12.7467 18.8792 12.64 18.9592 12.4267C18.7192 12.4267 18.6392 12.2133 18.5592 12.1067C18.3992 12.1067 18.3992 11.8933 18.3992 11.68L18.2392 11.5733C18.2392 11.5733 18.1592 11.5733 18.2392 11.5733V11.7867H18.1592L18.2392 12H18.0792C18.2392 12 18.3192 12.32 18.3992 12.32V12.32ZM20.3192 13.28H20.2392H20.8792V13.0667C20.7992 13.0667 20.7192 12.96 20.7992 12.7467C20.5592 12.4267 20.1592 12.64 20.1592 12.7467L20.4792 12.96C20.4792 12.96 20.6392 12.96 20.4792 13.0667H20.3192C20.1592 13.0667 20.0792 12.96 19.9992 13.0667V13.28H20.0792C20.0792 13.28 20.0792 13.3867 20.1592 13.28C20.211 13.2556 20.2675 13.2556 20.3192 13.28V13.28Z" fill="#F9DD16"/>
<path d="M19.0396 12.4267V12.32C19.0396 12.32 19.1196 12.2133 19.0396 12.1067C19.1196 12.2133 19.0396 12.2133 19.0396 12.1067C19.0396 12.2133 18.8796 12.2133 18.8796 12.1067V12.32H19.0396V12.4267Z" fill="#FF0016"/>
<path d="M18.9596 12.2133L18.7996 12.1067ZM18.9596 12.1067H18.7996ZM18.9596 12.1067L18.7996 12.2133ZM19.0396 12.2133L19.1996 12.1067ZM19.0396 12.1067H19.1996ZM19.0396 12.1067L19.1996 12.2133Z" fill="black"/>
<path d="M18.2395 11.4667L18.0795 11.5733H18.2395V11.4667ZM18.2395 11.68L17.9995 11.7867H18.1595L18.2395 11.68ZM18.1595 12C18.1595 11.8933 17.9995 12 17.9995 12H18.1595ZM18.1595 12.64L17.9995 12.7467H18.2395L18.1595 12.64ZM18.1595 12.8533C18.1595 12.8533 17.9995 12.8533 18.1595 13.0667V12.8533ZM18.3195 12.8533L18.1595 13.1733L18.3195 13.0667V12.96V12.8533ZM19.9195 13.1733C19.9195 13.1733 19.8395 13.1733 19.9195 13.3867L19.9995 13.28V13.1733H19.9195ZM20.0795 13.28C20.0795 13.28 19.9195 13.3867 19.9995 13.4933L20.0795 13.3867V13.28ZM20.0795 12.96C19.9995 12.96 19.8395 13.0667 19.9195 13.1733H19.9995V13.0667L20.0795 12.96ZM21.1995 13.28C21.1995 13.28 21.1195 13.28 21.1995 13.3867V13.1733V13.28ZM21.1995 13.0667L21.1195 13.1733H21.2795V13.0667H21.1995ZM21.2795 13.3867C21.2795 13.3867 21.1995 13.3867 21.2795 13.4933V13.3867ZM19.0395 12.32V12.7467V12.5333C19.0395 12.4267 19.0395 12.32 18.9595 12.4267V12.32H19.0395Z" fill="#0051BA"/>
<path d="M21.5178 15.1253C21.473 15.1253 21.473 15.2053 21.4618 15.2053C21.5514 15.2053 21.5962 15.1573 21.6186 15.0933V15.1893C21.6858 15.1573 21.7082 15.0773 21.6858 15.0293L21.7642 15.0613C21.7194 15.0133 21.753 14.9013 21.6746 14.8373C21.697 14.8373 21.7418 14.8693 21.7642 14.9173C21.753 14.8053 21.7418 14.7413 21.6746 14.6773H21.7306C21.716 14.6634 21.7042 14.6443 21.6963 14.6218C21.6884 14.5994 21.6848 14.5744 21.6858 14.5493C21.6858 14.4853 21.6634 14.4853 21.6186 14.5013L21.417 14.5173C21.305 14.5173 21.193 14.5173 21.1034 14.4213C21.249 14.5173 21.4394 14.3253 21.4394 14.1813C21.4394 14.0213 21.2826 13.8613 20.9914 13.9573C20.7002 14.0533 20.3418 14.0213 20.3418 13.8773C20.3418 13.7333 20.5994 13.7173 20.7338 13.7493C20.8682 13.7813 20.9578 13.7973 21.2042 13.6693C21.1482 13.7013 20.9466 13.7173 20.7898 13.6533C20.633 13.5893 20.2522 13.5893 20.2522 13.8773C20.2522 14.1813 20.6554 14.1493 21.0138 14.0693C21.2154 14.0373 21.3274 14.0693 21.3274 14.1493C21.3274 14.2453 21.137 14.2773 20.9914 14.2613C20.8377 14.2317 20.6813 14.2481 20.5322 14.3093C20.3866 14.3733 20.2858 14.3093 20.129 14.3573C20.0506 14.3573 19.8602 14.3573 19.7706 14.1333C19.7146 14.1973 19.5466 14.3093 19.513 14.4373C19.4794 14.5333 19.513 14.6453 19.5578 14.7573C19.625 14.8853 19.5242 14.8693 19.4458 14.8693C19.3562 14.8693 19.2218 14.8693 19.1546 14.7413C19.0874 14.6453 19.009 14.5653 18.9418 14.6293C18.9082 14.6773 18.9418 14.7253 18.9642 14.7093L19.0538 14.7413C19.0358 14.7296 19.016 14.725 18.9963 14.7278C18.9766 14.7306 18.9578 14.7408 18.9418 14.7573C18.9082 14.7893 18.9418 14.8533 18.9754 14.8373C18.9978 14.8213 19.0538 14.8053 19.0874 14.8373C19.0538 14.8373 19.009 14.8373 18.9978 14.8693C18.9866 14.9013 18.9978 14.9333 19.0314 14.9333C19.0986 14.9333 19.1098 14.9973 19.177 14.9813C19.1614 14.9826 19.1461 14.989 19.1325 15.0001C19.1189 15.0112 19.1073 15.0267 19.0986 15.0453C19.1658 14.9973 19.2218 15.1093 19.3002 15.0773C19.2778 15.0933 19.2218 15.1413 19.2218 15.1733C19.2666 15.0933 19.5802 15.2373 19.5802 15.0613L19.569 15.1893C19.6026 15.1573 19.7258 15.1413 19.7706 15.0293C19.7706 15.0613 19.7706 15.1093 19.7482 15.1253C19.7818 15.1253 19.8378 15.0933 19.8938 14.9813C19.9162 14.9333 19.9162 14.9013 19.9162 14.8693C19.9722 14.8693 20.0058 14.8533 20.0506 14.8053C20.0954 14.7573 20.1402 14.8533 20.2186 14.7733C20.2858 14.7093 20.353 14.7733 20.3978 14.7413C20.4314 14.7093 20.4874 14.7413 20.5322 14.7093C20.577 14.6773 20.6442 14.7253 20.7114 14.6453C20.8234 14.7093 20.969 14.8053 21.2938 14.7253C21.473 14.6773 21.5402 14.7733 21.5402 14.8853C21.5402 14.9813 21.4954 14.9813 21.473 14.9813C21.361 14.9973 21.3274 14.9333 21.2826 14.9493C21.2602 14.9653 21.2378 15.0293 21.2826 15.0613C21.249 15.0773 21.249 15.1253 21.2714 15.1413C21.2938 15.1573 21.3274 15.1413 21.361 15.1253C21.3162 15.1413 21.2826 15.1893 21.305 15.2373C21.3162 15.2693 21.3498 15.2853 21.3834 15.2373C21.417 15.1733 21.473 15.1253 21.5178 15.1253V15.1253ZM19.4346 13.8453C19.345 13.7973 19.3226 13.7973 19.3338 13.9093C19.3338 13.9573 19.3674 14.0213 19.3898 14.0533C19.3898 14.0053 19.401 13.8933 19.4346 13.8613V13.8453Z" fill="#F9DD16"/>
<path fill-rule="evenodd" clip-rule="evenodd" d="M20.4611 13.6257C20.5768 13.5975 20.7122 13.6136 20.7915 13.646C20.8692 13.6777 20.9581 13.6896 21.0348 13.6896C21.0731 13.6896 21.1082 13.6866 21.1371 13.6817C21.1623 13.6774 21.1825 13.6716 21.1961 13.6652C21.1981 13.6642 21.2001 13.6632 21.2021 13.6621L21.2065 13.6764C21.2045 13.6776 21.2024 13.6787 21.2001 13.6797C21.08 13.7416 20.9971 13.7691 20.9275 13.777C20.8566 13.7851 20.8 13.773 20.7327 13.757C20.6661 13.7411 20.5688 13.7371 20.4883 13.755C20.448 13.7639 20.4125 13.7782 20.3871 13.7987C20.3619 13.8191 20.3476 13.845 20.3476 13.8773C20.3476 13.9083 20.3669 13.9355 20.4046 13.957C20.4419 13.9783 20.4951 13.9927 20.5579 13.9996C20.6832 14.0136 20.845 13.9976 20.99 13.9498C21.1365 13.9015 21.2499 13.9174 21.3271 13.9664C21.4042 14.0153 21.4452 14.0977 21.4452 14.1813C21.4452 14.2195 21.4326 14.2601 21.412 14.2977C21.3914 14.3353 21.3625 14.3704 21.329 14.3979C21.2746 14.4426 21.2074 14.4675 21.1436 14.4485C21.2244 14.5094 21.3196 14.5096 21.4168 14.5096L21.6176 14.4937C21.6287 14.4898 21.6386 14.4867 21.6473 14.4854C21.6561 14.4841 21.6642 14.4845 21.6711 14.4882C21.6859 14.4961 21.6916 14.5169 21.6916 14.5493V14.5498C21.6906 14.5736 21.6941 14.5973 21.7015 14.6186C21.709 14.6399 21.7201 14.6579 21.7339 14.671L21.7487 14.6851H21.6918C21.7179 14.7133 21.7345 14.7424 21.7457 14.7762C21.7586 14.8154 21.7643 14.8604 21.7699 14.9163L21.7592 14.9214C21.7486 14.8987 21.7325 14.8794 21.7163 14.8659C21.711 14.8615 21.7058 14.8578 21.7008 14.8547C21.7237 14.8847 21.7321 14.9204 21.7376 14.9537C21.7387 14.9603 21.7397 14.9667 21.7407 14.973C21.7428 14.9872 21.7449 15.0004 21.7478 15.0127C21.752 15.0302 21.7578 15.0446 21.7678 15.0553L21.7625 15.0687L21.6966 15.0418C21.7103 15.0951 21.6829 15.1669 21.6205 15.1966L21.6128 15.2003V15.1231C21.6018 15.1453 21.5874 15.1649 21.5683 15.18C21.542 15.2009 21.5073 15.2131 21.4618 15.2131V15.1976C21.461 15.1976 21.4605 15.198 21.4604 15.1981C21.4605 15.1981 21.4606 15.1978 21.4608 15.1974C21.4616 15.196 21.4624 15.1936 21.4636 15.1899C21.4642 15.1878 21.4649 15.1852 21.4657 15.1824C21.4674 15.1763 21.4695 15.169 21.4719 15.1621C21.4741 15.1558 21.4768 15.1493 21.4802 15.1432C21.47 15.1483 21.4596 15.1553 21.4495 15.1639C21.4263 15.1833 21.4045 15.2106 21.3881 15.2418L21.3879 15.2422L21.3876 15.2426C21.3699 15.2679 21.3514 15.2774 21.3352 15.275C21.3191 15.2727 21.3063 15.259 21.2999 15.241C21.2938 15.2279 21.2914 15.2144 21.2922 15.2012C21.293 15.188 21.297 15.1757 21.3031 15.1647C21.3053 15.1608 21.3077 15.1571 21.3104 15.1536C21.2955 15.1571 21.2809 15.1569 21.2686 15.1482C21.2552 15.1386 21.2486 15.1194 21.2502 15.1004C21.2516 15.085 21.2583 15.0702 21.2706 15.0603C21.2635 15.0532 21.2585 15.0449 21.2553 15.0359C21.2508 15.0235 21.2501 15.0103 21.2517 14.9981C21.2547 14.9739 21.2669 14.9518 21.2798 14.9425L21.2804 14.9421L21.2811 14.9419C21.2935 14.9374 21.305 14.9386 21.3168 14.9423C21.3249 14.9449 21.3335 14.9487 21.3426 14.9528C21.3464 14.9545 21.3503 14.9563 21.3543 14.958C21.3818 14.9698 21.4174 14.9815 21.4724 14.9737L21.473 14.9736C21.4844 14.9736 21.4995 14.9734 21.5118 14.9628C21.5236 14.9527 21.5344 14.9317 21.5344 14.8853C21.5344 14.8315 21.5183 14.7823 21.4811 14.7519C21.4437 14.7214 21.3838 14.7091 21.2949 14.7329L21.2948 14.7329C21.1318 14.7731 21.0135 14.7691 20.9217 14.7469C20.8379 14.7267 20.7764 14.6912 20.7238 14.6609C20.72 14.6587 20.7162 14.6565 20.7124 14.6544C20.6784 14.6932 20.6443 14.7011 20.6137 14.7031C20.6065 14.7035 20.5996 14.7037 20.5929 14.7038L20.5909 14.7039C20.5836 14.704 20.5767 14.7042 20.57 14.7048C20.5567 14.706 20.545 14.7089 20.5349 14.7162C20.5112 14.7331 20.4848 14.7331 20.4614 14.7331H20.4608C20.4364 14.7331 20.4161 14.7334 20.4011 14.7476L20.4008 14.7479L20.4005 14.7482C20.388 14.7571 20.3743 14.7591 20.3602 14.7586C20.3506 14.7582 20.3405 14.7567 20.3302 14.7551C20.3255 14.7544 20.3207 14.7536 20.316 14.753C20.2857 14.7491 20.2538 14.7493 20.222 14.7796C20.2017 14.8002 20.1834 14.8098 20.1664 14.813C20.1494 14.8162 20.1342 14.813 20.1207 14.8089C20.117 14.8078 20.1134 14.8066 20.11 14.8055C20.1007 14.8024 20.0925 14.7997 20.0843 14.7991C20.0738 14.7982 20.0641 14.8008 20.0542 14.8114C20.0315 14.8357 20.0113 14.8522 19.9895 14.8626C19.9692 14.8723 19.9478 14.8765 19.922 14.877C19.9219 14.8907 19.9215 14.905 19.919 14.9209C19.9161 14.9399 19.9102 14.9607 19.8987 14.9854L19.8986 14.9856C19.842 15.0989 19.7844 15.1331 19.7482 15.1331L19.7454 15.1185C19.7544 15.1122 19.7594 15.099 19.7621 15.0818C19.7633 15.0737 19.764 15.0652 19.7644 15.0567C19.7398 15.1007 19.7028 15.1275 19.6678 15.1465C19.6513 15.1554 19.6351 15.1627 19.6207 15.1692C19.6171 15.1708 19.6136 15.1724 19.6102 15.1739C19.593 15.1818 19.5799 15.1884 19.5723 15.1956L19.5617 15.2058L19.5691 15.1212C19.5596 15.1342 19.5469 15.1431 19.5322 15.1492C19.501 15.1622 19.4595 15.1631 19.4176 15.1611C19.4018 15.1603 19.3859 15.1592 19.3704 15.158C19.3443 15.1561 19.3191 15.1543 19.2967 15.1546C19.279 15.1548 19.2636 15.1564 19.2514 15.1603C19.239 15.1642 19.2308 15.1701 19.2264 15.178L19.216 15.1966V15.1733C19.216 15.1626 19.2205 15.1518 19.2264 15.1422C19.2323 15.1324 19.2404 15.1225 19.2489 15.1133C19.2564 15.1053 19.2645 15.0976 19.2721 15.0909C19.2443 15.0913 19.2193 15.0773 19.1963 15.0644C19.1952 15.0637 19.194 15.0631 19.1929 15.0625C19.1604 15.0443 19.1322 15.0301 19.1013 15.0522L19.0822 15.0658L19.0936 15.0413C19.1028 15.0216 19.115 15.0053 19.1294 14.9935C19.1315 14.9918 19.1337 14.9902 19.1358 14.9887C19.1352 14.9885 19.1346 14.9883 19.1339 14.9881C19.1216 14.9841 19.1113 14.9772 19.1014 14.9702C19.1 14.9692 19.0987 14.9682 19.0973 14.9672C19.0791 14.954 19.0611 14.9411 19.0314 14.9411C19.0132 14.9411 18.9998 14.9323 18.9928 14.9174C18.9859 14.9026 18.9863 14.8838 18.9925 14.8661C18.9994 14.8464 19.0161 14.8378 19.0331 14.8337C19.042 14.8316 19.0515 14.8306 19.0609 14.8301C19.0503 14.8267 19.0389 14.826 19.0276 14.8271C19.0073 14.829 18.9885 14.8367 18.9781 14.8442L18.9777 14.8444L18.9773 14.8446C18.9573 14.8542 18.9379 14.8397 18.9284 14.8194C18.9237 14.8092 18.9211 14.7969 18.9224 14.7845C18.9237 14.7721 18.9288 14.7603 18.9383 14.7511C18.9512 14.7379 18.9658 14.7285 18.9813 14.7234L18.9647 14.7175C18.9505 14.7256 18.9346 14.7147 18.927 14.6972C18.9185 14.6779 18.9192 14.6502 18.9375 14.6241L18.9379 14.6235L18.9384 14.6231C18.9743 14.5889 19.0131 14.5936 19.0507 14.6184C19.0881 14.6431 19.1251 14.6879 19.1588 14.7361L19.1591 14.7365L19.1593 14.7369C19.1918 14.7988 19.2406 14.83 19.293 14.8458C19.3455 14.8616 19.4009 14.8616 19.4458 14.8616C19.4538 14.8616 19.4619 14.8618 19.4699 14.8619C19.482 14.8622 19.494 14.8624 19.5057 14.8621C19.5251 14.8616 19.5421 14.8596 19.5545 14.854C19.5668 14.8485 19.573 14.8403 19.5739 14.8281C19.5749 14.8145 19.5697 14.7935 19.553 14.7618L19.5526 14.761C19.5302 14.7049 19.5103 14.6481 19.5003 14.5932C19.4904 14.5382 19.4902 14.4844 19.5076 14.4344C19.5164 14.4011 19.5338 14.3693 19.5553 14.3395C19.577 14.3095 19.6032 14.2812 19.6299 14.2551C19.6539 14.2317 19.6785 14.2099 19.7007 14.1901C19.7032 14.1879 19.7057 14.1856 19.7082 14.1834C19.7324 14.1618 19.7531 14.1431 19.7668 14.1275L19.7723 14.1212L19.7757 14.1297C19.8632 14.3485 20.0491 14.3496 20.1283 14.3496C20.2021 14.3271 20.2637 14.3292 20.3227 14.3312C20.3268 14.3313 20.3308 14.3315 20.3349 14.3316C20.3978 14.3336 20.4586 14.3336 20.5304 14.302L20.5305 14.302C20.6803 14.2404 20.8375 14.2239 20.992 14.2537C21.0644 14.2616 21.1477 14.2576 21.2128 14.2398C21.2454 14.2308 21.273 14.2186 21.2923 14.203C21.3117 14.1873 21.3216 14.1694 21.3216 14.1493C21.3216 14.1322 21.3157 14.1173 21.3032 14.1048C21.2906 14.092 21.2712 14.0818 21.245 14.0749C21.1928 14.0612 21.1151 14.0611 21.0146 14.077C20.8354 14.117 20.6444 14.1451 20.498 14.125C20.4248 14.115 20.3621 14.0928 20.3176 14.0533C20.2727 14.0135 20.2464 13.9561 20.2464 13.8773C20.2464 13.8027 20.2712 13.7465 20.3106 13.7057C20.3497 13.6652 20.4033 13.6399 20.4611 13.6257ZM19.0135 14.735L19.0523 14.7488L19.0563 14.7344C19.0434 14.726 19.0295 14.721 19.0154 14.7197L18.9635 14.7011L18.9614 14.7025C18.9538 14.708 18.9429 14.7031 18.937 14.6894C18.9315 14.6769 18.9307 14.6568 18.9456 14.6352C18.9768 14.6058 19.0106 14.6092 19.0456 14.6323C19.0809 14.6556 19.1166 14.6985 19.1501 14.7462C19.1848 14.8121 19.2366 14.8447 19.2905 14.8609C19.3443 14.8771 19.4009 14.8771 19.4455 14.8771H19.4458C19.4534 14.8771 19.4613 14.8772 19.4694 14.8774C19.4817 14.8776 19.4942 14.8779 19.5059 14.8776C19.5254 14.8771 19.544 14.8751 19.5582 14.8687C19.5726 14.8622 19.5839 14.8504 19.5854 14.8296C19.5869 14.8102 19.5795 14.7853 19.5627 14.7533C19.5404 14.6976 19.5212 14.6424 19.5116 14.5895C19.502 14.5366 19.5022 14.4865 19.5182 14.4406L19.5184 14.4399C19.5265 14.4094 19.5426 14.3793 19.5637 14.3502C19.5847 14.3212 19.6103 14.2935 19.6368 14.2676C19.6606 14.2444 19.6849 14.2227 19.7071 14.203C19.7096 14.2007 19.7122 14.1985 19.7146 14.1963C19.7358 14.1774 19.7548 14.1603 19.7689 14.1453C19.8614 14.3651 20.0512 14.3651 20.1285 14.3651H20.1296L20.1303 14.3649C20.2029 14.3426 20.2633 14.3447 20.3226 14.3467C20.3266 14.3468 20.3306 14.3469 20.3346 14.3471C20.3977 14.3491 20.4602 14.3491 20.5339 14.3167C20.6822 14.2558 20.8377 14.2396 20.9905 14.269L20.9909 14.269C21.0641 14.2771 21.1487 14.2731 21.2151 14.2549C21.2483 14.2458 21.2774 14.2331 21.2983 14.2162C21.3192 14.1993 21.3332 14.1773 21.3332 14.1493C21.3332 14.1265 21.3251 14.1074 21.3102 14.0924C21.2956 14.0777 21.2743 14.0669 21.2473 14.0598C21.1932 14.0455 21.1141 14.0456 21.0131 14.0617L21.0128 14.0617C20.8337 14.1017 20.6439 14.1295 20.4992 14.1097C20.4267 14.0997 20.3662 14.0779 20.324 14.0404C20.2821 14.0032 20.258 13.9506 20.258 13.8773C20.258 13.808 20.2808 13.7562 20.3177 13.7179C20.3548 13.6795 20.4063 13.6548 20.4632 13.6409C20.5771 13.6132 20.7106 13.6291 20.7881 13.6607C20.8672 13.693 20.9574 13.7051 21.0348 13.7051C21.0687 13.7051 21.1002 13.7028 21.1273 13.6988C21.0436 13.7371 20.9807 13.7554 20.9265 13.7616C20.8573 13.7695 20.8019 13.7577 20.7348 13.7417C20.667 13.7256 20.5683 13.7216 20.4864 13.7397C20.4455 13.7488 20.4083 13.7635 20.3811 13.7855C20.3539 13.8075 20.336 13.8377 20.336 13.8773C20.336 13.9183 20.3615 13.9492 20.4 13.9712C20.439 13.9934 20.4936 14.008 20.5569 14.015C20.6835 14.0291 20.8466 14.013 20.9928 13.9648C21.1375 13.9171 21.248 13.9333 21.3221 13.9803C21.3961 14.0273 21.4336 14.105 21.4336 14.1813C21.4336 14.2152 21.4223 14.2526 21.4027 14.2885C21.383 14.3244 21.3553 14.3582 21.3229 14.3848C21.2581 14.4379 21.1763 14.4608 21.1059 14.4144L21.0997 14.4274C21.1909 14.5251 21.3047 14.5251 21.416 14.5251H21.417L21.6195 14.509L21.6201 14.5088C21.6312 14.5048 21.6407 14.502 21.6486 14.5008C21.6566 14.4996 21.6625 14.5002 21.6668 14.5025C21.6744 14.5066 21.6799 14.5178 21.68 14.5491C21.679 14.5754 21.6828 14.6016 21.691 14.6251C21.6969 14.6419 21.7049 14.657 21.7146 14.6696H21.6565L21.6712 14.6836C21.7041 14.715 21.723 14.7459 21.7351 14.7825C21.7451 14.8127 21.7506 14.847 21.7553 14.8892C21.7454 14.8747 21.7339 14.8623 21.7224 14.8528C21.7053 14.8385 21.6874 14.8296 21.6746 14.8296H21.654L21.6715 14.8439C21.7087 14.8743 21.7194 14.9158 21.7263 14.957C21.7273 14.963 21.7282 14.9691 21.7292 14.9752C21.7314 14.9897 21.7336 15.0043 21.7368 15.0174C21.7392 15.0275 21.7422 15.0372 21.7464 15.046L21.6727 15.0159L21.6808 15.0334C21.6997 15.0739 21.6833 15.1449 21.6244 15.178V15.0933L21.6133 15.0901C21.6025 15.1209 21.5865 15.1476 21.5624 15.1667C21.5406 15.184 21.5118 15.1953 21.4738 15.1973C21.474 15.1968 21.4742 15.1963 21.4743 15.1957C21.4752 15.1929 21.476 15.1899 21.4769 15.1869C21.4785 15.1811 21.4802 15.175 21.4824 15.1686C21.4891 15.1495 21.4988 15.1331 21.5178 15.1331V15.1176C21.4939 15.1176 21.4676 15.1303 21.4433 15.1508C21.419 15.1712 21.3961 15.1998 21.3789 15.2325C21.363 15.2549 21.348 15.2613 21.3364 15.2597C21.3246 15.258 21.3151 15.2479 21.3102 15.2341L21.3099 15.2333C21.3049 15.2226 21.3032 15.2122 21.3037 15.2025C21.3043 15.1927 21.3073 15.183 21.3124 15.174C21.3198 15.1607 21.3315 15.1491 21.3456 15.1407C21.3513 15.1382 21.357 15.1354 21.3627 15.1327L21.3629 15.1326L21.3595 15.1179C21.3532 15.1201 21.3472 15.1229 21.3414 15.1263C21.3308 15.1311 21.3205 15.1353 21.3109 15.1378C21.2959 15.1416 21.2835 15.1413 21.2741 15.1345C21.2651 15.1281 21.2606 15.1153 21.2617 15.1022C21.2628 15.0894 21.2696 15.0757 21.2845 15.0686L21.2968 15.0628L21.2853 15.0545C21.275 15.0472 21.269 15.0383 21.2658 15.0293C21.2625 15.0202 21.2619 15.0103 21.2631 15.0006C21.2656 14.9812 21.2754 14.9637 21.2847 14.9566C21.2945 14.9533 21.3038 14.9541 21.3141 14.9574C21.3217 14.9597 21.3295 14.9632 21.3383 14.9672C21.3422 14.9689 21.3464 14.9708 21.3508 14.9727C21.3793 14.9849 21.4164 14.9971 21.4733 14.9891H21.4734C21.4844 14.9891 21.5027 14.9891 21.5181 14.9758C21.5343 14.962 21.546 14.935 21.546 14.8853C21.546 14.8272 21.5284 14.7724 21.4872 14.7388C21.4462 14.7053 21.383 14.6936 21.2927 14.7178C21.1309 14.7576 21.014 14.7535 20.9238 14.7317C20.8414 14.7118 20.781 14.677 20.7284 14.6467C20.7234 14.6438 20.7185 14.641 20.7137 14.6382L20.7103 14.6363L20.7075 14.6396C20.6753 14.6779 20.6432 14.6857 20.6131 14.6876C20.6062 14.6881 20.5994 14.6882 20.5927 14.6884L20.5907 14.6884C20.5834 14.6886 20.5762 14.6887 20.5692 14.6894C20.5552 14.6907 20.5417 14.6938 20.5294 14.7025C20.5085 14.7175 20.4848 14.7176 20.4608 14.7176L20.4597 14.7176C20.4369 14.7176 20.413 14.7176 20.3947 14.7347C20.3849 14.7417 20.3735 14.7436 20.3605 14.7431C20.3515 14.7428 20.3421 14.7414 20.3322 14.7398C20.3273 14.7391 20.3223 14.7383 20.3171 14.7377C20.2859 14.7336 20.2505 14.7334 20.2152 14.7671L20.215 14.7672C20.1961 14.7865 20.1796 14.7949 20.1647 14.7977C20.1498 14.8005 20.1363 14.7977 20.1232 14.7938C20.1201 14.7928 20.1168 14.7918 20.1136 14.7907C20.104 14.7876 20.0943 14.7844 20.0851 14.7836C20.0722 14.7825 20.0595 14.7859 20.0469 14.7993C20.0248 14.823 20.0058 14.8385 19.9856 14.8481C19.9654 14.8577 19.9437 14.8616 19.9162 14.8616H19.9104V14.8693C19.9104 14.8854 19.9104 14.9007 19.9077 14.9178C19.905 14.9348 19.8997 14.9539 19.8889 14.9772C19.8424 15.0702 19.7965 15.1061 19.7647 15.1151C19.7691 15.1062 19.7718 15.0955 19.7734 15.0849C19.7764 15.0661 19.7764 15.0455 19.7764 15.0297V15.0293L19.7655 15.0257C19.744 15.0792 19.7037 15.1104 19.6634 15.1322C19.6473 15.1409 19.6315 15.148 19.6171 15.1545C19.6135 15.1561 19.6099 15.1577 19.6065 15.1593C19.5951 15.1645 19.5845 15.1695 19.5761 15.175L19.5839 15.0852C19.5853 15.0779 19.586 15.0699 19.586 15.0613L19.5744 15.0604L19.5725 15.0824C19.5705 15.0927 19.567 15.1012 19.5623 15.1083C19.5545 15.1199 19.5432 15.1285 19.5287 15.1345C19.4997 15.1465 19.46 15.1476 19.418 15.1456C19.4027 15.1449 19.3871 15.1438 19.3717 15.1426C19.3452 15.1407 19.3193 15.1388 19.2966 15.1391C19.2786 15.1394 19.2622 15.141 19.2487 15.1453C19.2443 15.1466 19.2402 15.1483 19.2364 15.1504C19.2415 15.1422 19.2485 15.1337 19.2562 15.1254C19.2727 15.1077 19.292 15.092 19.3029 15.0842L19.2985 15.07C19.2625 15.0846 19.2315 15.0673 19.1998 15.0495C19.199 15.0491 19.1982 15.0487 19.1974 15.0482C19.1714 15.0337 19.1444 15.0191 19.1156 15.0284C19.1215 15.0199 19.1282 15.0126 19.1355 15.0067C19.1447 14.9992 19.1546 14.994 19.1649 14.9912C19.1691 14.9908 19.1734 14.99 19.178 14.989L19.1766 14.9736C19.1722 14.974 19.1678 14.9747 19.1634 14.9759C19.1531 14.9768 19.1444 14.9756 19.1367 14.9731C19.1259 14.9696 19.1166 14.9635 19.1069 14.9565C19.1055 14.9555 19.1041 14.9545 19.1027 14.9535C19.0844 14.9403 19.0641 14.9256 19.0314 14.9256C19.0159 14.9256 19.0069 14.9183 19.0027 14.9093C18.9984 14.9 18.998 14.8869 19.003 14.8726C19.0073 14.8603 19.0186 14.8529 19.0352 14.849C19.0514 14.8451 19.0704 14.8451 19.0874 14.8451H19.1055L19.0907 14.8311C19.0724 14.8136 19.0484 14.8096 19.0268 14.8116C19.0053 14.8137 18.9851 14.8218 18.973 14.8302C18.9596 14.8364 18.9456 14.8269 18.9383 14.8113C18.9347 14.8035 18.933 14.7948 18.9339 14.7866C18.9347 14.7786 18.9379 14.7705 18.9451 14.7636L18.9453 14.7635C18.9605 14.7478 18.9783 14.7381 18.9969 14.7355C19.0024 14.7347 19.008 14.7345 19.0135 14.735ZM21.4604 15.1982C21.4604 15.1982 21.4604 15.1982 21.4604 15.1981ZM19.3809 13.8119C19.3958 13.817 19.4143 13.8262 19.4367 13.8382L19.4404 13.8401V13.8653L19.4379 13.8676C19.4306 13.8746 19.4242 13.8863 19.4186 13.9015C19.4131 13.9166 19.4086 13.9345 19.4052 13.9532C19.3983 13.9906 19.3956 14.0299 19.3956 14.0533V14.073L19.3855 14.0586C19.3741 14.0422 19.3598 14.0178 19.3483 13.9912C19.3371 13.965 19.3281 13.9358 19.328 13.9099C19.3252 13.882 19.3244 13.8602 19.3265 13.844C19.3286 13.8275 19.334 13.8155 19.3443 13.8101C19.3538 13.8052 19.3662 13.8068 19.3809 13.8119ZM19.3379 13.8466C19.3361 13.8604 19.3367 13.8804 19.3395 13.9083L19.3396 13.9088V13.9093C19.3396 13.9313 19.3473 13.9578 19.3584 13.9835C19.3663 14.0019 19.3757 14.0194 19.3845 14.0335C19.3856 14.0097 19.3885 13.979 19.3939 13.9495C19.3975 13.9302 19.4022 13.9111 19.4082 13.8947C19.4136 13.8798 19.4204 13.8666 19.4288 13.8575V13.8506C19.4081 13.8396 19.3913 13.8314 19.378 13.8268C19.3636 13.8219 19.3543 13.8215 19.3485 13.8245C19.3434 13.8272 19.3396 13.8332 19.3379 13.8466Z" fill="black"/>
<path d="M19.7372 13.8614C19.8268 13.7974 19.8604 13.7974 19.838 13.9094C19.838 13.9574 19.8044 14.0214 19.782 14.0534C19.782 14.0054 19.782 13.8934 19.7372 13.8614Z" fill="#F9DD16"/>
<path fill-rule="evenodd" clip-rule="evenodd" d="M19.748 13.8621C19.767 13.882 19.7766 13.9162 19.7815 13.9498C19.7858 13.9791 19.7869 14.0094 19.7872 14.0328C19.7958 14.0188 19.805 14.0016 19.8128 13.9835C19.8239 13.9578 19.8316 13.9313 19.8316 13.9093V13.9083L19.8318 13.9073C19.8374 13.8796 19.8392 13.8598 19.838 13.8466C19.8374 13.8401 19.836 13.8357 19.8344 13.8327C19.8328 13.8299 19.8306 13.8279 19.8275 13.8268C19.821 13.8244 19.8105 13.8262 19.7953 13.8334C19.7823 13.8395 19.7665 13.8492 19.748 13.8621ZM19.8432 13.9104C19.8487 13.8826 19.851 13.8607 19.8495 13.8446C19.8487 13.8364 19.8469 13.8291 19.8436 13.8234C19.8403 13.8176 19.8359 13.8138 19.8305 13.8119C19.8203 13.8082 19.807 13.8115 19.7914 13.8188C19.7756 13.8262 19.7564 13.8385 19.7339 13.8545L19.7244 13.8613L19.7339 13.8681C19.7538 13.8824 19.7646 13.9152 19.7702 13.9528C19.7756 13.99 19.7756 14.0293 19.7756 14.0533V14.0729L19.7857 14.0586C19.7972 14.0422 19.8114 14.0177 19.8229 13.9912C19.8341 13.9652 19.843 13.9362 19.8432 13.9104Z" fill="black"/>
<path d="M19.5914 13.7813C19.7706 13.7813 19.793 13.9093 19.7818 14.0533C19.7818 14.2133 19.7258 14.1493 19.6922 14.3733C19.681 14.4373 19.6362 14.4533 19.5802 14.4533C19.5466 14.4533 19.5018 14.4533 19.4794 14.3573C19.4458 14.1493 19.3898 14.1973 19.3898 14.0373C19.3898 13.9093 19.4122 13.7813 19.5914 13.7813V13.7813Z" fill="#F9DD16"/>
<path fill-rule="evenodd" clip-rule="evenodd" d="M19.428 13.8661C19.4013 13.9119 19.3956 13.9736 19.3956 14.0373C19.3956 14.0768 19.3991 14.1028 19.4046 14.123C19.41 14.1431 19.4177 14.1579 19.4267 14.1749C19.4272 14.1757 19.4276 14.1765 19.4281 14.1774C19.4369 14.1937 19.4468 14.2122 19.4565 14.2387C19.4667 14.2665 19.4766 14.3031 19.485 14.3554C19.4959 14.4017 19.5118 14.4236 19.5282 14.4344C19.545 14.4455 19.5633 14.4456 19.5802 14.4456C19.608 14.4456 19.6322 14.4416 19.6506 14.4303C19.6687 14.4193 19.6814 14.4011 19.6866 14.3717C19.695 14.3153 19.705 14.2767 19.7152 14.248C19.7254 14.2193 19.7359 14.2008 19.745 14.1847L19.7453 14.1843C19.7543 14.1684 19.7618 14.1552 19.7671 14.1366C19.7726 14.1178 19.776 14.0928 19.776 14.0533V14.0525L19.7761 14.0526C19.7816 13.9809 19.7786 13.9154 19.7533 13.8678C19.7282 13.8207 19.6801 13.7891 19.5914 13.7891C19.5028 13.7891 19.4545 13.8207 19.428 13.8661ZM19.4189 13.8566C19.4484 13.806 19.5009 13.7736 19.5914 13.7736C19.6819 13.7736 19.7346 13.806 19.7628 13.8589C19.7906 13.9112 19.7932 13.9815 19.7876 14.0537C19.7876 14.0941 19.7841 14.121 19.778 14.1421C19.772 14.1629 19.7637 14.1775 19.7548 14.193L19.7542 14.194C19.7452 14.2099 19.7353 14.2274 19.7256 14.2547C19.7159 14.282 19.7062 14.3193 19.6979 14.3749L19.6979 14.3751L19.6979 14.3751C19.6918 14.4096 19.6765 14.4315 19.6554 14.4444C19.6347 14.4571 19.6085 14.4611 19.5802 14.4611H19.5798C19.5632 14.4611 19.5425 14.4611 19.5231 14.4483C19.5031 14.4351 19.4854 14.4092 19.4739 14.3596L19.4737 14.359L19.4738 14.359C19.4654 14.3075 19.4558 14.2721 19.446 14.2455C19.4368 14.2201 19.4274 14.2026 19.4186 14.1863C19.4182 14.1854 19.4177 14.1846 19.4173 14.1838C19.4082 14.1668 19.3997 14.1506 19.3937 14.1282C19.3876 14.1059 19.384 14.0779 19.384 14.0373C19.384 13.9731 19.3896 13.9068 19.4189 13.8566Z" fill="black"/>
<path d="M19.1324 14.3734C19.0876 14.3414 19.054 14.3734 19.0316 14.3734C19.0988 14.3894 19.0988 14.5014 19.2332 14.5334C19.1996 14.5334 19.1884 14.5654 19.1548 14.5334C19.2108 14.5974 19.2668 14.6774 19.4012 14.6774C19.4796 14.6774 19.4236 14.7254 19.3788 14.6934C19.4236 14.7734 19.5244 14.7094 19.5916 14.8534C19.5916 14.7414 19.4796 14.5814 19.5356 14.4694C19.3452 14.4534 19.334 14.3094 19.2332 14.1974C19.1436 14.1014 19.1324 14.0054 19.0988 13.8294C19.0876 13.7494 19.0204 13.7014 18.9868 13.7174C18.9532 13.7174 18.9308 13.7654 18.9644 13.7974C18.9868 13.8294 19.0316 13.8294 19.0316 13.9094C18.998 13.8454 18.942 13.8294 18.9196 13.8614C18.9084 13.8934 18.9196 13.9414 18.942 13.9414C18.998 13.9414 18.9644 14.0374 19.0204 14.1014C18.9644 14.0214 18.9196 14.0054 18.886 14.0534C18.8748 14.0854 18.886 14.1334 18.9308 14.1334C18.9868 14.1334 19.0428 14.3254 19.1324 14.3734V14.3734ZM20.5884 15.1094C20.566 15.1094 20.5772 15.1894 20.5324 15.1894C20.622 15.1894 20.678 15.1574 20.7116 15.1094L20.6892 15.1894C20.734 15.1414 20.8572 15.1254 20.9132 15.1414C20.9692 15.1574 20.9804 15.1254 21.0028 15.0774C21.0252 15.0134 21.0028 14.9814 20.9692 14.9494C20.9356 14.9014 20.9244 14.8374 20.9356 14.7414C20.7788 14.4214 20.4876 14.5814 20.4876 14.7094C20.5884 14.8854 20.5996 14.8694 20.6892 14.8854C20.7676 14.9174 20.8236 14.9174 20.7676 14.9814C20.7452 15.0134 20.6556 14.9814 20.5996 14.9974C20.454 14.9974 20.3756 14.8534 20.342 14.9334C20.3084 14.9974 20.342 15.0294 20.4092 15.0294C20.3644 15.0294 20.2972 15.0294 20.3084 15.0934C20.3308 15.2054 20.398 15.0774 20.4316 15.1094C20.4092 15.1094 20.3644 15.1254 20.3644 15.1574C20.3644 15.1894 20.4204 15.2374 20.4764 15.1574C20.5089 15.1239 20.5484 15.107 20.5884 15.1094V15.1094Z" fill="#F9DD16"/>
<path fill-rule="evenodd" clip-rule="evenodd" d="M19.104 13.8277C19.1069 13.8427 19.1096 13.8572 19.1122 13.8711C19.1401 14.0201 19.1561 14.1053 19.2364 14.1913L19.2365 14.1914C19.2621 14.2199 19.282 14.2503 19.3002 14.2799C19.3038 14.2857 19.3072 14.2913 19.3107 14.2969C19.3251 14.3205 19.3388 14.3431 19.3545 14.3639C19.3926 14.4145 19.4417 14.4537 19.5355 14.4616L19.5456 14.4625L19.54 14.4736C19.5139 14.5259 19.5264 14.5901 19.5475 14.6584C19.5522 14.6736 19.5573 14.6889 19.5624 14.7041C19.5629 14.7058 19.5634 14.7074 19.564 14.709C19.5696 14.7258 19.5751 14.7426 19.5799 14.759C19.5896 14.7917 19.597 14.8238 19.597 14.8533V14.8804L19.5862 14.8574C19.5538 14.7879 19.5135 14.7686 19.4751 14.7569C19.4693 14.7551 19.4635 14.7535 19.4578 14.7519C19.4444 14.7482 19.4312 14.7445 19.4192 14.7392C19.4017 14.7314 19.3859 14.7196 19.3737 14.698L19.3811 14.6865C19.3913 14.6938 19.4023 14.6966 19.4118 14.6966C19.4215 14.6966 19.4291 14.6938 19.4327 14.6907C19.4328 14.6907 19.4329 14.6906 19.433 14.6905C19.4312 14.6893 19.4282 14.688 19.4232 14.687C19.4177 14.6858 19.4104 14.6851 19.4008 14.6851C19.3326 14.6851 19.284 14.6648 19.2454 14.6361C19.2134 14.6124 19.1883 14.5831 19.1648 14.5557C19.16 14.5501 19.1553 14.5446 19.1506 14.5392L19.1577 14.527C19.1656 14.5346 19.1719 14.538 19.1771 14.5392C19.1823 14.5405 19.187 14.5397 19.1921 14.5379C19.1946 14.537 19.1973 14.5357 19.2003 14.5344C19.2015 14.5338 19.2028 14.5332 19.2041 14.5327C19.1533 14.514 19.1247 14.4826 19.1026 14.4528C19.0981 14.4466 19.0939 14.4407 19.0899 14.435C19.0825 14.4245 19.0757 14.4149 19.0683 14.4064C19.0573 14.3938 19.0457 14.3846 19.0301 14.3809L19.0312 14.3656C19.0359 14.3656 19.0415 14.3639 19.0486 14.3614C19.0497 14.361 19.0508 14.3606 19.052 14.3601C19.058 14.3579 19.0648 14.3555 19.0721 14.3537C19.0785 14.3522 19.0852 14.3513 19.0923 14.3514C19.0833 14.3422 19.0747 14.332 19.0665 14.3211C19.0475 14.296 19.0301 14.2671 19.014 14.2401C19.0134 14.2391 19.0127 14.238 19.0121 14.2369C18.9967 14.211 18.9825 14.1872 18.9689 14.1696C18.9545 14.1511 18.9419 14.1411 18.9304 14.1411C18.9063 14.1411 18.8902 14.128 18.882 14.1092C18.8739 14.0908 18.874 14.0682 18.8803 14.0501L18.8807 14.049L18.8813 14.0481C18.8903 14.0353 18.9002 14.0264 18.9112 14.0219C18.9221 14.0175 18.9338 14.0175 18.9459 14.0219C18.9585 14.0264 18.9718 14.0356 18.9857 14.0492C18.9811 14.0336 18.9784 14.0183 18.9761 14.0046C18.9758 14.0028 18.9754 14.0009 18.9751 13.9991C18.9723 13.9828 18.9697 13.9705 18.9649 13.962C18.9606 13.9543 18.9541 13.9491 18.9416 13.9491C18.9268 13.9491 18.9169 13.9333 18.9123 13.9159C18.9077 13.8982 18.9076 13.8761 18.9139 13.8581L18.9143 13.857L18.9149 13.8561C18.9282 13.8371 18.9505 13.8335 18.9726 13.8419C18.99 13.8485 19.0081 13.8629 19.0236 13.8847C19.0224 13.8775 19.0207 13.8714 19.0187 13.8661C19.0146 13.8557 19.009 13.848 19.0025 13.8415C18.9972 13.8362 18.9916 13.8319 18.9857 13.8274C18.9841 13.8262 18.9826 13.825 18.981 13.8238C18.9737 13.8181 18.9663 13.8118 18.9601 13.8032C18.9512 13.7945 18.9455 13.7844 18.943 13.7736C18.9405 13.7627 18.9413 13.7517 18.9447 13.7421C18.9513 13.7234 18.967 13.7101 18.9854 13.7096C18.995 13.7054 19.0063 13.7057 19.0178 13.7093C19.0297 13.713 19.0423 13.7205 19.054 13.7309C19.0773 13.7517 19.098 13.7853 19.104 13.8277ZM19.0032 14.0895C19.0069 14.0956 19.0112 14.1015 19.0162 14.1072L19.0242 14.0961C19.02 14.09 19.0158 14.0843 19.0117 14.079C18.9965 14.054 18.9917 14.026 18.9873 14.0007C18.987 13.999 18.9867 13.9973 18.9864 13.9956C18.9837 13.9798 18.9807 13.9642 18.9742 13.9527C18.9673 13.9404 18.957 13.9336 18.9416 13.9336C18.934 13.9336 18.9271 13.9254 18.9232 13.9108C18.9196 13.8968 18.9195 13.8795 18.924 13.8657C18.9333 13.8534 18.9499 13.8494 18.9694 13.8568C18.989 13.8643 19.0103 13.8831 19.0264 13.9138L19.037 13.9339V13.9093C19.037 13.8884 19.034 13.8721 19.029 13.859C19.0239 13.846 19.0169 13.8366 19.0094 13.8292C19.0036 13.8233 18.9971 13.8183 18.9912 13.8138C18.9897 13.8126 18.9883 13.8115 18.9869 13.8104C18.9796 13.8047 18.9732 13.7992 18.9682 13.7921L18.9678 13.7915L18.9673 13.791C18.9597 13.7838 18.9558 13.7761 18.9541 13.769C18.9525 13.762 18.953 13.755 18.9552 13.7486C18.9598 13.7357 18.9715 13.7251 18.9864 13.7251H18.9874L18.9883 13.7246C18.9953 13.7213 19.0046 13.7211 19.0151 13.7244C19.0256 13.7276 19.0369 13.7342 19.0475 13.7438C19.069 13.7629 19.0874 13.7932 19.0927 13.8308L19.0928 13.8312C19.0957 13.8465 19.0984 13.8612 19.1011 13.8754C19.1288 14.0238 19.1457 14.1139 19.2291 14.2033C19.2539 14.2308 19.2732 14.2604 19.2913 14.2897C19.2947 14.2953 19.2981 14.3009 19.3015 14.3064C19.3159 14.3301 19.3302 14.3535 19.3463 14.3748C19.3852 14.4264 19.4348 14.4662 19.5254 14.4761C19.5024 14.5335 19.5172 14.6007 19.5368 14.6643C19.5416 14.6797 19.5467 14.6952 19.5518 14.7104C19.5523 14.712 19.5528 14.7136 19.5534 14.7153C19.559 14.7321 19.5644 14.7486 19.5692 14.7647C19.5754 14.7858 19.5804 14.8058 19.5831 14.8245C19.5508 14.7699 19.5128 14.7526 19.4777 14.7418C19.4714 14.7399 19.4653 14.7382 19.4594 14.7365C19.4463 14.7329 19.4342 14.7296 19.4229 14.7245C19.415 14.721 19.4077 14.7167 19.4011 14.7111C19.4048 14.7118 19.4084 14.7121 19.4118 14.7121C19.4228 14.7121 19.4327 14.7089 19.4388 14.7039C19.4416 14.7016 19.4451 14.6977 19.4457 14.6919C19.4464 14.6851 19.443 14.6804 19.4396 14.6777C19.4361 14.675 19.4312 14.673 19.4251 14.6717C19.4188 14.6704 19.4108 14.6696 19.4008 14.6696C19.3345 14.6696 19.2879 14.6499 19.251 14.6226C19.2243 14.6028 19.2027 14.5791 19.1821 14.5553C19.1867 14.5553 19.191 14.5543 19.1951 14.5528C19.1988 14.5515 19.2022 14.5499 19.2056 14.5484C19.2137 14.5447 19.2216 14.5411 19.2328 14.5411L19.2338 14.5257C19.168 14.5101 19.1355 14.4751 19.1109 14.4419C19.1068 14.4364 19.1028 14.4308 19.0989 14.4252C19.0912 14.4143 19.0837 14.4037 19.0759 14.3947C19.0693 14.3872 19.0623 14.3805 19.0543 14.3753C19.0546 14.3752 19.0549 14.3751 19.0552 14.375C19.0612 14.3728 19.0674 14.3706 19.0742 14.3689C19.0873 14.3658 19.1019 14.3653 19.1184 14.3736C19.1222 14.3761 19.1259 14.3784 19.1298 14.3805L19.132 14.3733L19.1347 14.3665C19.1308 14.3637 19.1269 14.3614 19.1232 14.3594C19.106 14.3476 19.0899 14.3303 19.0746 14.3101C19.0562 14.2857 19.0392 14.2576 19.0231 14.2305C19.0224 14.2293 19.0217 14.2281 19.0209 14.2269C19.0057 14.2013 18.9911 14.1768 18.9769 14.1585C18.9622 14.1396 18.9468 14.1256 18.9304 14.1256C18.9097 14.1256 18.8978 14.1147 18.892 14.1014C18.8862 14.0882 18.886 14.0714 18.8905 14.0577C18.8981 14.047 18.9062 14.0402 18.9146 14.0367C18.9232 14.0332 18.9326 14.0331 18.9429 14.0368C18.9605 14.0431 18.9806 14.0603 19.0032 14.0895ZM20.6516 14.5497C20.746 14.5333 20.8603 14.5743 20.94 14.7371L20.9412 14.7396L20.9409 14.7425C20.9299 14.8368 20.941 14.8979 20.9726 14.9435C20.9893 14.9594 21.0042 14.9763 21.0118 14.9981C21.0197 15.0207 21.0193 15.0471 21.0076 15.0806L21.0073 15.0814C21.0062 15.084 21.005 15.0864 21.0038 15.0889C20.9996 15.098 20.9956 15.1066 20.9915 15.1143C20.9863 15.1242 20.9806 15.1329 20.9735 15.1396C20.9591 15.1534 20.9404 15.1571 20.9116 15.1489C20.8845 15.1412 20.8404 15.1411 20.7974 15.149C20.7759 15.1529 20.7549 15.1589 20.7366 15.1667C20.7181 15.1746 20.7028 15.1842 20.6924 15.1954L20.676 15.213L20.6973 15.1367C20.6616 15.174 20.6085 15.1971 20.532 15.1971V15.1816C20.5417 15.1816 20.5479 15.1774 20.5524 15.1714C20.5571 15.1651 20.5602 15.1564 20.5629 15.1466C20.5639 15.1433 20.5647 15.1401 20.5655 15.1368C20.5659 15.1352 20.5663 15.1337 20.5667 15.1321C20.568 15.1274 20.5693 15.1226 20.5709 15.1184C20.571 15.118 20.5712 15.1176 20.5713 15.1172C20.5386 15.1197 20.5068 15.1355 20.4799 15.1631C20.4508 15.2043 20.421 15.2135 20.3978 15.2069C20.3862 15.2036 20.3765 15.1965 20.3696 15.1877C20.3628 15.1791 20.3582 15.1682 20.3582 15.1573C20.3582 15.1518 20.3592 15.1467 20.3609 15.1421C20.3509 15.1472 20.3401 15.1502 20.3302 15.1459C20.3174 15.1405 20.3082 15.1243 20.3024 15.0953L20.3023 15.0951C20.2992 15.0772 20.3014 15.0627 20.3082 15.0515C20.3147 15.0407 20.3248 15.0341 20.3358 15.0299C20.3406 15.0281 20.3458 15.0266 20.3512 15.0255C20.3441 15.0217 20.3381 15.0169 20.3334 15.0109C20.3259 15.0014 20.322 14.9892 20.3227 14.9749C20.3233 14.961 20.328 14.9457 20.3367 14.9292C20.3413 14.9184 20.3469 14.9107 20.3537 14.9062C20.3607 14.9016 20.3683 14.9007 20.3762 14.9019C20.3917 14.9043 20.4101 14.9155 20.4308 14.9283C20.4319 14.929 20.433 14.9297 20.4342 14.9304C20.4757 14.9561 20.5294 14.9894 20.5986 14.9896C20.6236 14.9826 20.655 14.9848 20.6834 14.9868C20.6877 14.9871 20.6919 14.9874 20.696 14.9876C20.7122 14.9886 20.7268 14.9891 20.7387 14.9874C20.7509 14.9857 20.7589 14.9819 20.7629 14.9761L20.7634 14.9754C20.7702 14.9676 20.7752 14.961 20.7785 14.9554C20.7819 14.9496 20.7834 14.9454 20.7839 14.9423C20.7843 14.9396 20.7839 14.9377 20.7829 14.9357C20.7817 14.9334 20.7795 14.9309 20.7756 14.9281C20.7679 14.9226 20.756 14.9178 20.7405 14.9123C20.7368 14.911 20.733 14.9097 20.729 14.9083C20.7164 14.9039 20.7024 14.899 20.6875 14.8929C20.6791 14.8914 20.6713 14.8902 20.664 14.8891C20.6335 14.8843 20.6117 14.8809 20.5893 14.8641C20.5615 14.8432 20.5329 14.8018 20.4826 14.714L20.4814 14.712V14.7093C20.4814 14.6736 20.5015 14.6375 20.5318 14.609C20.5624 14.5802 20.6046 14.5578 20.6516 14.5497ZM20.4088 15.0216V15.0371C20.3861 15.0371 20.359 15.0371 20.339 15.0448C20.329 15.0486 20.3216 15.054 20.3172 15.0612C20.3131 15.068 20.3111 15.0774 20.3136 15.0915C20.319 15.1184 20.3265 15.1282 20.3337 15.1312C20.3414 15.1345 20.3512 15.1312 20.363 15.1243C20.3679 15.1214 20.3727 15.1182 20.3777 15.1148C20.3787 15.1142 20.3797 15.1135 20.3807 15.1128C20.3867 15.1089 20.3929 15.1049 20.3988 15.1019C20.4105 15.096 20.4236 15.0926 20.4345 15.103L20.4493 15.1171H20.4312C20.4207 15.1171 20.4047 15.1209 20.3915 15.1284C20.3848 15.1322 20.3792 15.1368 20.3754 15.1418C20.3716 15.1468 20.3698 15.152 20.3698 15.1573C20.3698 15.1625 20.3721 15.1696 20.3776 15.1765C20.3829 15.1832 20.3907 15.1891 20.4002 15.1918C20.4189 15.1971 20.4449 15.1904 20.4717 15.1521L20.4721 15.1516L20.4724 15.1512C20.506 15.1167 20.5468 15.0992 20.5882 15.1016L20.588 15.1093V15.1171C20.5858 15.1171 20.5838 15.1186 20.5813 15.1253C20.58 15.1286 20.5789 15.1325 20.5777 15.1372C20.5773 15.1386 20.577 15.14 20.5766 15.1415C20.5757 15.1449 20.5748 15.1485 20.5738 15.152C20.5711 15.1615 20.5676 15.1719 20.562 15.1803C20.6331 15.1739 20.6786 15.1446 20.7069 15.1041L20.7166 15.112L20.7004 15.17C20.7099 15.1631 20.7211 15.1571 20.733 15.152C20.7521 15.1438 20.7738 15.1377 20.7958 15.1337C20.8395 15.1256 20.8851 15.1255 20.914 15.1338C20.9411 15.1415 20.956 15.1373 20.9668 15.127C20.9724 15.1217 20.9772 15.1145 20.9821 15.1054C20.9859 15.0981 20.9897 15.09 20.9939 15.081C20.995 15.0786 20.9961 15.0762 20.9973 15.0737C21.0078 15.0433 21.0074 15.0219 21.0013 15.0046C20.995 14.9866 20.9822 14.9716 20.9654 14.9556L20.9649 14.9552L20.9645 14.9546C20.9296 14.9048 20.9183 14.8388 20.9291 14.7431C20.8521 14.5879 20.7431 14.5494 20.6531 14.565C20.6078 14.5729 20.5674 14.5944 20.5385 14.6217C20.5101 14.6483 20.494 14.6792 20.493 14.7068C20.5427 14.7935 20.5698 14.8317 20.595 14.8506C20.6152 14.8658 20.6342 14.8688 20.6643 14.8735C20.6719 14.8747 20.6803 14.876 20.6895 14.8777L20.69 14.8778L20.6905 14.8779C20.7052 14.884 20.7191 14.8888 20.7318 14.8933C20.7358 14.8947 20.7397 14.896 20.7435 14.8974C20.7587 14.9028 20.772 14.908 20.7811 14.9145C20.7857 14.9178 20.7897 14.9217 20.7924 14.9269C20.7952 14.9323 20.7963 14.9385 20.7953 14.9453C20.7943 14.9518 20.7916 14.9583 20.7876 14.9649C20.7837 14.9716 20.7782 14.9789 20.7712 14.9869C20.764 14.9969 20.7525 15.001 20.74 15.0028C20.727 15.0046 20.7116 15.0041 20.6955 15.0031C20.6912 15.0028 20.6869 15.0025 20.6826 15.0022C20.6537 15.0002 20.6239 14.9982 20.6004 15.0049L20.5998 15.0051H20.5992C20.5271 15.0051 20.4712 14.9704 20.4296 14.9446C20.4284 14.9439 20.4271 14.9431 20.4259 14.9423C20.4046 14.9292 20.3881 14.9193 20.3748 14.9173C20.3684 14.9163 20.3632 14.9172 20.3589 14.92C20.3545 14.9229 20.3504 14.9281 20.3466 14.9371L20.3463 14.9378C20.3383 14.9532 20.3347 14.9658 20.3342 14.9758C20.3338 14.9854 20.3363 14.9933 20.3414 14.9997C20.3467 15.0065 20.355 15.012 20.3666 15.0158C20.3781 15.0196 20.3923 15.0216 20.4088 15.0216Z" fill="black"/>
<path fill-rule="evenodd" clip-rule="evenodd" d="M19.693 13.9755C19.7004 13.979 19.7074 13.9816 19.7147 13.9816V13.9971C19.7053 13.9971 19.6969 13.9937 19.6892 13.9901C19.6875 13.9893 19.6858 13.9885 19.6841 13.9877C19.6783 13.9849 19.673 13.9824 19.6674 13.9809C19.6606 13.9791 19.6536 13.9792 19.6459 13.9831C19.6404 13.9858 19.6343 13.9907 19.6274 13.9987C19.6295 14.0002 19.6317 14.0021 19.6339 14.004C19.6341 14.0042 19.6342 14.0043 19.6344 14.0045C19.6369 14.0066 19.6393 14.0087 19.6419 14.0105C19.647 14.0142 19.6521 14.0164 19.6574 14.0156C19.6627 14.0149 19.6692 14.0111 19.6769 14.0001L19.6854 14.0106C19.6763 14.0236 19.6674 14.0298 19.6587 14.031C19.65 14.0323 19.6425 14.0285 19.6364 14.0241C19.6334 14.022 19.6306 14.0196 19.6281 14.0174C19.628 14.0173 19.6278 14.0172 19.6277 14.017C19.6253 14.015 19.6234 14.0134 19.6217 14.0121C19.6209 14.0116 19.6203 14.0112 19.6197 14.0109V14.0528C19.6219 14.0739 19.6244 14.0927 19.6266 14.1094C19.6273 14.1146 19.628 14.1195 19.6286 14.1243C19.6312 14.1444 19.6331 14.1618 19.6323 14.1759C19.6315 14.1904 19.6279 14.2026 19.6187 14.2106C19.61 14.2181 19.5974 14.2211 19.5803 14.2211C19.566 14.2211 19.5552 14.2181 19.5479 14.21C19.5404 14.2016 19.5382 14.1893 19.5382 14.1753C19.5382 14.1615 19.5404 14.1443 19.5431 14.1242C19.5435 14.1217 19.5439 14.1191 19.5442 14.1165C19.5468 14.098 19.5497 14.0769 19.5522 14.0528V14.0109C19.5516 14.0112 19.551 14.0116 19.5502 14.0121C19.5485 14.0134 19.5466 14.015 19.5442 14.017C19.5441 14.0172 19.5439 14.0173 19.5438 14.0174C19.5413 14.0196 19.5385 14.022 19.5355 14.0241C19.5294 14.0285 19.5219 14.0323 19.5132 14.031C19.5045 14.0298 19.4956 14.0236 19.4865 14.0106L19.495 14.0001C19.5027 14.0111 19.5092 14.0149 19.5145 14.0156C19.5198 14.0164 19.5249 14.0142 19.53 14.0105C19.5326 14.0087 19.535 14.0066 19.5375 14.0045C19.5377 14.0043 19.5378 14.0042 19.538 14.004C19.5401 14.0022 19.5423 14.0003 19.5444 13.9988C19.5377 13.9914 19.5317 13.9873 19.5265 13.9852C19.5191 13.9823 19.5125 13.983 19.506 13.9849C19.5037 13.9855 19.5016 13.9863 19.4994 13.987C19.4983 13.9874 19.4973 13.9878 19.4961 13.9881C19.4929 13.9892 19.4894 13.9903 19.4859 13.9905C19.4823 13.9908 19.4785 13.9904 19.4747 13.9885C19.4709 13.9866 19.4674 13.9833 19.4641 13.9786L19.4726 13.9681C19.4749 13.9713 19.477 13.9731 19.4788 13.974C19.4807 13.975 19.4828 13.9753 19.4851 13.9751C19.4876 13.9749 19.4902 13.9742 19.4933 13.9731C19.4942 13.9729 19.4952 13.9725 19.4962 13.9722C19.4985 13.9714 19.501 13.9705 19.5035 13.9698C19.511 13.9676 19.5198 13.9664 19.5299 13.9704C19.5399 13.9744 19.5505 13.9834 19.5622 14.0001L19.5579 14.0053H19.5637V14.0538L19.5637 14.0544C19.5612 14.0791 19.5582 14.1008 19.5556 14.1193C19.5552 14.1219 19.5549 14.1245 19.5545 14.127C19.5517 14.1474 19.5497 14.1632 19.5497 14.1753C19.5497 14.1874 19.5517 14.1941 19.5554 14.1982C19.5593 14.2026 19.5667 14.2056 19.5803 14.2056C19.5969 14.2056 19.6067 14.2026 19.6124 14.1976C19.6175 14.1931 19.6201 14.1863 19.6208 14.1748C19.6214 14.1629 19.6198 14.1473 19.6172 14.1269C19.6166 14.1223 19.6159 14.1174 19.6152 14.1124C19.613 14.0954 19.6104 14.0761 19.6082 14.0544L19.6082 14.0538V14.0053H19.6139L19.6097 14.0001C19.6213 13.9835 19.6318 13.9737 19.6418 13.9686C19.652 13.9635 19.6611 13.9635 19.6697 13.9657C19.6762 13.9674 19.6826 13.9705 19.6885 13.9734C19.6901 13.9741 19.6916 13.9749 19.693 13.9755ZM20.5535 14.6058C20.6111 14.5893 20.6685 14.6058 20.7143 14.6385L20.7088 14.6521C20.665 14.6209 20.6104 14.6053 20.556 14.6209L20.5535 14.6058ZM19.8952 14.7657C19.8937 14.7243 19.8996 14.675 19.9223 14.6101L19.9328 14.6166C19.9107 14.6796 19.9054 14.7264 19.9067 14.765C19.9078 14.7942 19.9126 14.8188 19.9174 14.8431C19.919 14.8512 19.9205 14.8593 19.922 14.8676L19.9107 14.8711C19.9094 14.8636 19.9079 14.8559 19.9063 14.8481C19.9015 14.8234 19.8962 14.7967 19.8952 14.7657Z" fill="black"/>
<path d="M19.5915 14.4053C19.6363 14.4053 19.6587 14.4053 19.6587 14.3093C19.6587 14.2773 19.6923 14.2613 19.6699 14.1973C19.6923 14.2613 19.5915 14.2613 19.5915 14.2293C19.5915 14.2613 19.4795 14.2613 19.5019 14.1973C19.4907 14.2613 19.5243 14.2773 19.5131 14.3093C19.5131 14.4053 19.5355 14.4053 19.5915 14.4053V14.4053Z" fill="#FF0016"/>
<path fill-rule="evenodd" clip-rule="evenodd" d="M19.5833 14.2336C19.5855 14.2314 19.5857 14.23 19.5857 14.2294H19.5973C19.5973 14.2303 19.5976 14.2318 19.5995 14.2338C19.6014 14.2358 19.6044 14.2378 19.6085 14.2394C19.6168 14.2426 19.6278 14.2436 19.6384 14.2417C19.649 14.2398 19.658 14.2352 19.663 14.2284C19.6654 14.2252 19.6668 14.2216 19.6672 14.2174C19.6677 14.2131 19.6671 14.2076 19.6647 14.2006L19.6752 14.1941C19.6811 14.2109 19.6834 14.225 19.6834 14.2374C19.6834 14.2498 19.681 14.2599 19.678 14.2686C19.6765 14.2729 19.6748 14.2769 19.6732 14.2806C19.6728 14.2815 19.6724 14.2824 19.672 14.2833C19.6708 14.286 19.6697 14.2885 19.6687 14.291C19.6661 14.2976 19.6645 14.3032 19.6645 14.3094C19.6645 14.3573 19.6591 14.3849 19.6456 14.3994C19.6388 14.4066 19.6306 14.4099 19.6217 14.4115C19.6129 14.4131 19.6028 14.4131 19.5918 14.4131H19.5912C19.5775 14.4131 19.5653 14.4131 19.555 14.4115C19.5446 14.41 19.5354 14.4068 19.528 14.3996C19.5127 14.3852 19.5073 14.3573 19.5073 14.3094V14.3076L19.5079 14.3061C19.5117 14.2952 19.509 14.2875 19.5039 14.2732C19.5034 14.2717 19.5028 14.2702 19.5023 14.2686C19.498 14.2563 19.4936 14.2414 19.4938 14.2209C19.4938 14.2206 19.4937 14.2203 19.4937 14.22C19.4924 14.2119 19.4935 14.2032 19.4967 14.1941L19.5076 14.1991C19.5063 14.2064 19.5056 14.213 19.5055 14.219C19.5063 14.2223 19.5079 14.2252 19.5103 14.228C19.5163 14.235 19.5269 14.2398 19.539 14.2417C19.551 14.2436 19.5636 14.2426 19.5729 14.2394C19.5776 14.2378 19.5811 14.2357 19.5833 14.2336ZM19.6718 14.2385C19.6716 14.2388 19.6714 14.239 19.6712 14.2393C19.6636 14.2496 19.6516 14.2549 19.6399 14.257C19.628 14.2591 19.6153 14.2581 19.6053 14.2543C19.6003 14.2524 19.5957 14.2496 19.5922 14.2458C19.5919 14.2455 19.5916 14.2452 19.5913 14.2448C19.5909 14.2453 19.5906 14.2457 19.5902 14.246C19.5863 14.2498 19.5813 14.2525 19.5758 14.2543C19.5649 14.2581 19.5508 14.2591 19.5376 14.257C19.5269 14.2553 19.516 14.2515 19.5077 14.2446C19.5091 14.251 19.5109 14.2568 19.5128 14.2621C19.5133 14.2636 19.5139 14.2652 19.5145 14.2668C19.5192 14.2798 19.5243 14.2939 19.5189 14.311C19.5191 14.3579 19.5248 14.3777 19.5347 14.3871C19.5398 14.392 19.5467 14.3947 19.5563 14.3962C19.5659 14.3976 19.5774 14.3976 19.5915 14.3976C19.6028 14.3976 19.6122 14.3976 19.6202 14.3962C19.628 14.3948 19.6338 14.3921 19.6383 14.3873C19.6472 14.3778 19.6529 14.3574 19.6529 14.3094C19.6529 14.2995 19.6555 14.2911 19.6585 14.2837C19.6596 14.2809 19.6609 14.2781 19.6621 14.2753C19.6624 14.2745 19.6628 14.2737 19.6632 14.2729C19.6647 14.2693 19.6662 14.2658 19.6675 14.2621C19.6699 14.2551 19.6717 14.2476 19.6718 14.2385Z" fill="black"/>
<path d="M19.5355 14.2133L19.4235 14.1653ZM19.5355 14.2133H19.4235ZM19.5355 14.2293L19.4347 14.2773ZM19.6251 14.2133L19.7371 14.1653ZM19.6251 14.2133H19.7595ZM19.6251 14.2293L19.7371 14.2773Z" fill="black"/>
<path fill-rule="evenodd" clip-rule="evenodd" d="M19.4254 14.158L19.5374 14.206L19.5356 14.2133V14.2211H19.4236V14.2056H19.4987L19.4219 14.1727L19.4254 14.158ZM19.6622 14.2056L19.739 14.1727L19.7355 14.158L19.6235 14.206L19.6252 14.2133V14.2211H19.7596V14.2056H19.6622ZM19.7355 14.2847L19.6235 14.2367L19.627 14.222L19.739 14.27L19.7355 14.2847ZM19.4329 14.2701L19.5337 14.2221L19.5376 14.2366L19.4368 14.2846L19.4329 14.2701Z" fill="black"/>
<path d="M18.6395 13.8133H18.7195H18.6395ZM18.6395 13.92H18.4795H18.6395ZM18.6395 14.1333H18.4795H18.5595H18.6395ZM18.6395 14.7733C18.6395 14.6667 18.5595 14.7733 18.5595 14.7733H18.6395ZM18.6395 14.7733C18.6395 14.7733 18.5595 14.9867 18.6395 14.9867V14.88V14.7733ZM19.9995 15.0933C19.9995 15.0933 19.8395 15.2 19.9195 15.3067V15.0933H19.9995ZM19.9995 15.2V15.4133V15.3067V15.2ZM19.9995 14.9867L19.9195 15.0933H19.9995V14.9867ZM20.8795 15.2V15.3067V15.2ZM20.8795 15.0933C20.8795 15.0933 20.7995 15.0933 20.8795 15.0933V15.0933ZM20.8795 15.3067V15.4133H20.9595V15.3067H20.8795ZM19.2795 14.4533V14.7733V14.4533Z" fill="#0051BA"/>
</g>
<rect x="2" y="2" width="36" height="36" rx="18" stroke="white" stroke-width="4"/>
<defs>
<clipPath id="clip0_90_25282">
<rect x="4" y="4" width="32" height="32" rx="16" fill="white"/>
</clipPath>
</defs>
</svg>
