<svg width="40" height="40" viewBox="0 0 40 40" fill="none" xmlns="http://www.w3.org/2000/svg">
<g clip-path="url(#clip0_90_25251)">
<path d="M4 4H36V36H4V4Z" fill="white"/>
<path d="M4 4H36V13.6H4V4Z" fill="black"/>
<path d="M4.00024 26.4H36.0002V36H4.00024V26.4Z" fill="#006600"/>
<path d="M15.7097 29.5L15.9797 29.7L22.9847 13.5C23.3897 13.38 23.6147 12.86 23.8397 12.34C23.9897 11.98 24.5897 10.6 24.8447 8.80002C24.1331 9.6432 23.5301 10.6364 23.0597 11.74C22.8347 12.26 22.6097 12.78 22.7147 13.32L15.7097 29.5Z" fill="black"/>
<path fill-rule="evenodd" clip-rule="evenodd" d="M24.9597 8.53058L24.9189 8.81858C24.6721 10.5607 24.1055 11.9123 23.9267 12.3386C23.919 12.357 23.912 12.3737 23.9058 12.3886L23.9055 12.3893L23.9032 12.3946C23.7921 12.6513 23.6767 12.918 23.5372 13.1351C23.4027 13.3443 23.2418 13.5139 23.0342 13.5871L16.0084 29.8352L15.6072 29.5381L22.6353 13.3046C22.5883 13.023 22.6225 12.7501 22.6935 12.4885C22.767 12.2177 22.8822 11.9513 22.9934 11.6943L22.995 11.6906C22.9951 11.6905 22.9951 11.6904 22.9952 11.6903C23.4696 10.5773 24.0777 9.57564 24.7954 8.72527L24.9597 8.53058ZM24.7253 9.08137C24.0933 9.87135 23.5539 10.7842 23.1255 11.7894L23.1252 11.79C23.012 12.0517 22.9031 12.3039 22.8345 12.5565C22.7664 12.8074 22.7404 13.0509 22.7878 13.2949L22.7956 13.3346L15.8133 29.462L15.9521 29.5648L22.9368 13.4119L22.969 13.4024C23.1504 13.3486 23.2947 13.2049 23.4233 13.0049C23.5528 12.8035 23.6618 12.5524 23.775 12.2908C23.7811 12.2762 23.7879 12.26 23.7953 12.2421C23.9622 11.844 24.4647 10.6453 24.7253 9.08137Z" fill="black"/>
<path d="M15.7097 29.5L15.9797 29.7L22.9847 13.5C23.3897 13.38 23.6147 12.86 23.8397 12.34C23.9897 11.98 24.5897 10.6 24.8447 8.80002C24.1331 9.6432 23.5301 10.6364 23.0597 11.74C22.8347 12.26 22.6097 12.78 22.7147 13.32L15.7097 29.5Z" fill="white"/>
<path d="M36.0245 15.2H22.8495C22.3995 13.6 20.8995 10.4 19.9995 10.4C19.0995 10.4 17.5995 13.6 17.1495 15.2H3.9895V24.8H17.1495C17.5995 26.4 19.0995 29.6 19.9995 29.6C20.8995 29.6 22.3995 26.4 22.8495 24.8H36.0245V15.2Z" fill="#BB0000"/>
<path d="M22.85 24.8C23.3 23.2 23.6 21.6 23.6 20C23.6 18.4 23.3 16.8 22.85 15.2C22.4 16.8 22.1 18.4 22.1 20C22.1 21.6 22.4 23.2 22.85 24.8Z" fill="black"/>
<path d="M19.9995 21.2C20.3309 21.2 20.5995 20.6628 20.5995 20C20.5995 19.3373 20.3309 18.8 19.9995 18.8C19.6682 18.8 19.3995 19.3373 19.3995 20C19.3995 20.6628 19.6682 21.2 19.9995 21.2Z" fill="white"/>
<path d="M20.1499 21.16C20.1499 21.16 20.7499 22.76 20.7499 25.36C20.7499 27.96 20.1499 29.56 20.1499 29.56V21.16Z" fill="white"/>
</g>
<rect x="2" y="2" width="36" height="36" rx="18" stroke="white" stroke-width="4"/>
<defs>
<clipPath id="clip0_90_25251">
<rect x="4" y="4" width="32" height="32" rx="16" fill="white"/>
</clipPath>
</defs>
</svg>
