<svg width="40" height="40" viewBox="0 0 40 40" fill="none" xmlns="http://www.w3.org/2000/svg">
<g clip-path="url(#clip0_90_25243)">
<path fill-rule="evenodd" clip-rule="evenodd" d="M1.97949 4H38.017V36H1.97949V4Z" fill="#FF0000"/>
<path fill-rule="evenodd" clip-rule="evenodd" d="M12.9251 20.3188C13.5626 19.2813 14.8892 20.2938 15.972 19.55C14.6876 19.6438 13.9892 18.725 12.9767 18.8563C14.0267 17.9938 14.922 19.1375 16.0938 18.6812C14.5423 18.5062 14.6079 17.575 13.1923 17.4438C14.4485 16.7313 15.0673 18.1813 16.3001 17.85C14.847 17.4063 14.6595 16.2687 13.5813 16.025C15.1563 15.7125 15.0532 16.95 16.5954 17.1C15.0298 16.2063 15.4376 15.425 14.1298 14.7437C15.597 14.7 15.4985 16.0563 16.9892 16.4063C15.7142 15.3313 15.8688 14.35 14.8235 13.5813C16.0657 13.6125 16.1829 15.3063 17.4532 15.8313C16.3235 14.6375 16.6188 13.625 15.6438 12.5562C16.8813 12.9437 16.6985 14.4063 17.9876 15.3438C17.0313 13.9313 17.397 12.9187 16.5673 11.7625C17.7579 12.2687 17.3032 13.6625 18.536 14.9875C17.8329 13.4313 18.2688 12.4375 17.5704 11.1312C18.6767 11.8875 18.1423 13.3125 19.1642 14.725C18.6813 13.1313 19.1642 12.1437 18.672 10.7312C19.6188 11.6687 19.0563 13.1875 19.8204 14.6375C19.5392 12.6375 20.186 12.3125 19.9845 10.5625C20.7017 11.7375 19.9001 12.9125 20.4532 14.6438C20.3829 12.675 21.1704 12.2188 21.0345 10.6438C21.7423 12.0563 20.636 13.2875 21.1001 14.8C21.2173 12.9375 22.136 12.45 22.1501 11C22.7126 12.3312 21.4938 13.2938 21.6907 15.0625C22.0892 13.1125 23.0688 12.875 23.1907 11.5625C23.5235 13.1 22.1876 13.8125 22.2673 15.525C22.6657 13.7937 23.8892 13.5875 24.1423 12.3125C24.297 13.9375 23.0923 14.2313 22.7501 16.0313C23.3829 14.5625 24.4938 14.4438 24.9907 13.2813C24.9532 14.8937 23.5938 15.1063 23.1767 16.6125C23.9595 15.3313 24.9438 15.55 25.7267 14.4187C25.6423 15.875 24.2595 15.7938 23.5235 17.3C24.372 16.2563 25.6517 16.5687 26.3032 15.6687C26.2704 16.9562 24.5735 16.8563 23.772 18.0125C24.7563 17.2875 26.0126 17.7125 26.7345 17.0437C26.6032 18.1687 24.8126 17.9063 23.9548 18.7938C25.136 18.3563 26.0501 19.025 27.0017 18.5438C26.5376 19.6375 24.911 18.9438 24.0485 19.6563C25.0798 19.425 26.1673 20.2563 27.1001 19.9875C26.7954 20.9375 25.0095 19.925 24.0532 20.5187C25.197 20.5062 25.9423 21.4875 27.0063 21.4188C26.4298 22.2813 24.8642 21.1 23.9501 21.3C25.0657 21.6125 25.9189 22.8375 26.7626 22.9C26.0642 23.6062 24.7704 21.9938 23.7157 22.1938C24.8032 22.5813 25.7126 24.225 26.3313 24.2625C25.661 24.875 24.3392 22.8562 23.4345 22.9312C24.536 23.5937 25.0376 25.275 25.7642 25.5125C24.8688 25.8938 23.9876 23.6875 23.0267 23.6063C24.1423 24.5438 24.2032 25.9813 25.061 26.6188C24.1563 26.9125 23.5142 24.4187 22.5626 24.2062C23.4767 25.1 23.6173 27.0187 24.222 27.6188C23.3032 27.6813 22.9704 25.075 22.0282 24.7C22.8345 25.6 22.6423 27.55 23.2704 28.3875C22.3142 28.1188 22.436 25.85 21.4376 25.0812C22.1548 26.2937 21.7892 28.0125 22.2579 28.9813C21.3251 28.4813 21.7282 26.4438 20.8423 25.2938C21.3251 26.5813 20.8048 28.0813 21.1892 29.325C20.336 28.7688 20.9079 26.3625 20.2563 25.4063C20.5563 26.8938 20.0032 28.125 20.2282 29.4562C19.3563 28.1125 20.3595 26.7563 19.6048 25.3875C19.8017 26.9563 18.9767 28.0562 19.1079 29.3687C18.4188 28.2937 19.4829 26.575 18.9438 25.2188C19.0563 26.7625 17.9923 28.1188 18.0673 29.0938C17.5048 27.8438 18.6907 26.3688 18.372 24.95C18.3063 26.425 17.2282 27.225 17.0267 28.5688C16.6657 27.0875 17.9454 26.0188 17.8329 24.5625C17.4673 25.9438 16.4267 26.5 16.061 27.8438C15.761 26.3625 17.2798 25.5813 17.3173 24.0313C16.8485 25.4813 15.6063 25.8063 15.1938 26.9188C15.0392 25.45 16.7782 24.7937 16.8438 23.4C16.2813 24.7375 14.922 24.7938 14.4532 25.8563C14.3829 24.3938 16.2157 24.2125 16.5017 22.6812C15.9438 23.8187 14.4532 23.675 13.8298 24.6C13.9282 23.2438 15.911 23.1625 16.2298 21.9375C15.4892 22.8875 14.1204 22.5 13.347 23.25C13.7782 21.9125 15.6392 22.1938 16.0563 21.2313C15.236 21.8 13.7782 21.2438 13.0563 21.8188C13.7126 20.5563 15.1563 21.3125 15.9767 20.4438C14.6454 20.7 13.8438 19.9938 12.9204 20.3188H12.9251Z" fill="#FFFF00"/>
<path fill-rule="evenodd" clip-rule="evenodd" d="M24.6669 20.0062C24.6669 21.6514 24.1767 23.2292 23.3042 24.3925C22.4317 25.5558 21.2484 26.2094 20.0145 26.2094C18.7806 26.2094 17.5973 25.5558 16.7248 24.3925C15.8523 23.2292 15.3622 21.6514 15.3622 20.0062C15.3622 18.3619 15.8521 16.7849 16.7241 15.6222C17.5962 14.4595 18.7789 13.8062 20.0122 13.8062C21.2454 13.8062 22.4282 14.4595 23.3002 15.6222C24.1723 16.7849 24.6622 18.3619 24.6622 20.0062H24.6669Z" fill="#FFFF00"/>
<path fill-rule="evenodd" clip-rule="evenodd" d="M24.0672 20.0187C24.0672 21.4493 23.641 22.8212 22.8823 23.8327C22.1237 24.8442 21.0948 25.4125 20.0219 25.4125C18.949 25.4125 17.92 24.8442 17.1614 23.8327C16.4028 22.8212 15.9766 21.4493 15.9766 20.0187C15.9766 18.5882 16.4028 17.2163 17.1614 16.2048C17.92 15.1933 18.949 14.625 20.0219 14.625C21.0948 14.625 22.1237 15.1933 22.8823 16.2048C23.641 17.2163 24.0672 18.5882 24.0672 20.0187V20.0187Z" fill="#FF0000"/>
<path fill-rule="evenodd" clip-rule="evenodd" d="M23.5046 20.0312C23.5046 21.2595 23.1387 22.4375 22.4873 23.306C21.8359 24.1746 20.9524 24.6625 20.0312 24.6625C19.11 24.6625 18.2265 24.1746 17.5751 23.306C16.9237 22.4375 16.5577 21.2595 16.5577 20.0312C16.5577 18.803 16.9237 17.625 17.5751 16.7565C18.2265 15.8879 19.11 15.4 20.0312 15.4C20.9524 15.4 21.8359 15.8879 22.4873 16.7565C23.1387 17.625 23.5046 18.803 23.5046 20.0312V20.0312Z" fill="#FFFF00"/>
<path fill-rule="evenodd" clip-rule="evenodd" d="M17.0736 17C18.0345 16.9687 19.2298 17.0875 20.022 17.925C20.8683 17.2207 21.8647 16.9067 22.858 17.0312L23.3736 18.2875C22.5724 18.19 21.7657 18.3664 21.0298 18.8C21.5558 19.3172 21.9786 19.9984 22.2614 20.784C22.5441 21.5696 22.6781 22.4356 22.6517 23.3062C22.5251 23.5187 22.3236 23.75 22.197 23.9625C22.3845 22.1812 21.6814 20.1937 20.6548 19.15C21.4892 20.75 21.9814 22.1875 21.8455 24.175L21.3767 24.575C21.5923 22.825 21.283 20.7625 20.3126 19.575C20.8751 20.6687 21.4283 22.6375 21.0814 24.6375C20.9314 24.7 20.697 24.8687 20.547 24.925C20.7308 24.1044 20.7807 23.2409 20.6934 22.3925C20.606 21.5441 20.3835 20.7305 20.0408 20.0062C19.3939 21.2437 19.183 23.1312 19.5486 24.8812C19.3705 24.8187 19.2345 24.7437 19.0517 24.6875C18.7845 22.8125 19.1548 20.6875 19.797 19.5812C19.1408 20.0875 18.5267 22.25 18.7001 24.4562L18.2642 24.1875C18.0533 22.5437 18.6111 20.4 19.4126 19.1625C18.5033 19.925 17.7626 21.8062 17.8892 23.825C17.7486 23.6625 17.622 23.5812 17.4814 23.4125C17.322 21.65 18.0908 19.875 18.9861 18.8125C18.2314 18.3562 17.5798 18.2687 16.6423 18.2875C16.7876 17.8812 16.9236 17.4062 17.0736 16.9937V17Z" fill="#FF0000"/>
</g>
<rect x="2" y="2" width="36" height="36" rx="18" stroke="white" stroke-width="4"/>
<defs>
<clipPath id="clip0_90_25243">
<rect x="4" y="4" width="32" height="32" rx="16" fill="white"/>
</clipPath>
</defs>
</svg>
