<svg width="40" height="40" viewBox="0 0 40 40" fill="none" xmlns="http://www.w3.org/2000/svg">
<g clip-path="url(#clip0_90_25143)">
<path d="M4 4H36V36H4V4Z" fill="#032EA1"/>
<path d="M3.99976 12H35.9998V28H3.99976V12Z" fill="#E00025"/>
<path d="M16.6201 19.08H23.4481V22.584H16.6201V19.08Z" fill="white"/>
<path fill-rule="evenodd" clip-rule="evenodd" d="M16.5902 19.08L16.6202 19.04H23.4482L23.4782 19.08V22.584L23.4482 22.624H16.6202L16.5902 22.584V19.08ZM16.6502 19.12V22.544H23.4182V19.12H16.6502Z" fill="black"/>
<path d="M23.1001 21.008H23.3101V22.328H23.1001V21.008ZM16.6201 20.36H23.4481V20.76H16.6201V20.36ZM16.6201 19.8H23.4481V20.168H16.6201V19.8Z" fill="white"/>
<path fill-rule="evenodd" clip-rule="evenodd" d="M16.5902 19.8L16.6202 19.76H23.4482L23.4782 19.8V20.168L23.4482 20.208H16.6202L16.5902 20.168V19.8ZM16.6502 19.84V20.128H23.4182V19.84H16.6502ZM16.5902 20.36L16.6202 20.32H23.4482L23.4782 20.36V20.76L23.4482 20.8H16.6202L16.5902 20.76V20.36ZM16.6502 20.4V20.72H23.4182V20.4H16.6502ZM23.0702 21.008L23.1002 20.968H23.3102L23.3402 21.008V22.328L23.3102 22.368H23.1002L23.0702 22.328V21.008ZM23.1302 21.048V22.288H23.2802V21.048H23.1302Z" fill="black"/>
<path d="M16.6201 19.256H23.4481V19.6H16.6201V19.256Z" fill="white"/>
<path fill-rule="evenodd" clip-rule="evenodd" d="M16.5928 19.256L16.6198 19.22H23.4478L23.4748 19.256V19.6L23.4478 19.636H16.6198L16.5928 19.6V19.256ZM16.6468 19.292V19.564H23.4208V19.292H16.6468Z" fill="black"/>
<path d="M18.4198 21.008H18.6358V22.328H18.4198V21.008ZM21.3598 21.008H21.5758V22.328H21.3598V21.008ZM16.6798 21.008H16.8898V22.328H16.6798V21.008ZM17.0998 21.008H17.3098V22.328H17.0998V21.008ZM17.5498 21.008H17.7598V22.328H17.5498V21.008ZM17.9998 21.008H18.2098V22.328H17.9998V21.008ZM21.7678 21.008H21.9838V22.328H21.7678V21.008ZM22.2178 21.008H22.4338V22.328H22.2178V21.008ZM22.6678 21.008H22.8838V22.328H22.6678V21.008Z" fill="white"/>
<path fill-rule="evenodd" clip-rule="evenodd" d="M16.6499 21.008L16.6799 20.968H16.8899L16.9199 21.008V22.328L16.8899 22.368H16.6799L16.6499 22.328V21.008ZM16.7099 21.048V22.288H16.8599V21.048H16.7099ZM17.0699 21.008L17.0999 20.968H17.3099L17.3399 21.008V22.328L17.3099 22.368H17.0999L17.0699 22.328V21.008ZM17.1299 21.048V22.288H17.2799V21.048H17.1299ZM17.5199 21.008L17.5499 20.968H17.7599L17.7899 21.008V22.328L17.7599 22.368H17.5499L17.5199 22.328V21.008ZM17.5799 21.048V22.288H17.7299V21.048H17.5799ZM17.9699 21.008L17.9999 20.968H18.2099L18.2399 21.008V22.328L18.2099 22.368H17.9999L17.9699 22.328V21.008ZM18.0299 21.048V22.288H18.1799V21.048H18.0299ZM18.3899 21.008L18.4199 20.968H18.6359L18.6659 21.008V22.328L18.6359 22.368H18.4199L18.3899 22.328V21.008ZM18.4499 21.048V22.288H18.6059V21.048H18.4499ZM21.3299 21.008L21.3599 20.968H21.5759L21.6059 21.008V22.328L21.5759 22.368H21.3599L21.3299 22.328V21.008ZM21.3899 21.048V22.288H21.5459V21.048H21.3899ZM21.7379 21.008L21.7679 20.968H21.9839L22.0139 21.008V22.328L21.9839 22.368H21.7679L21.7379 22.328V21.008ZM21.7979 21.048V22.288H21.9539V21.048H21.7979ZM22.1879 21.008L22.2179 20.968H22.4339L22.4639 21.008V22.328L22.4339 22.368H22.2179L22.1879 22.328V21.008ZM22.2479 21.048V22.288H22.4039V21.048H22.2479ZM22.6379 21.008L22.6679 20.968H22.8839L22.9139 21.008V22.328L22.8839 22.368H22.6679L22.6379 22.328V21.008ZM22.6979 21.048V22.288H22.8539V21.048H22.6979Z" fill="black"/>
<path d="M13.9503 22.7601C14.0758 22.669 14.1703 22.5172 14.2143 22.3361H25.8003C25.8444 22.5172 25.9389 22.669 26.0643 22.7601H13.9503Z" fill="white"/>
<path fill-rule="evenodd" clip-rule="evenodd" d="M14.192 22.2961H25.8216L25.8283 22.3237C25.87 22.4952 25.9594 22.6387 26.0781 22.7249L26.0638 22.8001H13.9498L13.9354 22.7249C14.0541 22.6387 14.1435 22.4952 14.1852 22.3237L14.192 22.2961ZM14.2352 22.3761C14.1979 22.5119 14.1333 22.6308 14.0491 22.7201H25.9644C25.8803 22.6308 25.8157 22.5119 25.7784 22.3761H14.2352Z" fill="black"/>
<path d="M19.8603 13.744C19.8603 13.744 19.8543 13.416 19.9983 13.408C20.1363 13.408 20.1303 13.744 20.1303 13.744H19.8603ZM19.1103 18.104V17.664C19.1103 17.44 18.9423 17.424 18.9423 17.264C18.9423 17.264 18.9183 17.024 18.9663 16.912C19.0323 17.232 19.1463 17.176 19.1463 17.04C19.1463 16.928 19.0863 16.816 18.9483 16.536C18.9003 16.448 18.9303 16.168 18.9903 16.064C19.0143 16.304 19.0443 16.424 19.1223 16.424C19.1703 16.424 19.2063 16.384 19.2063 16.264C19.2063 16.104 19.1283 16.024 19.0863 15.88C19.0656 15.8084 19.0609 15.7303 19.0726 15.6551C19.0843 15.5799 19.112 15.5108 19.1523 15.456C19.1823 15.696 19.1763 15.792 19.2543 15.792C19.4163 15.72 19.2543 15.408 19.2183 15.328C19.1823 15.24 19.2783 15.056 19.2783 15.056C19.3263 15.272 19.3383 15.288 19.3983 15.264C19.4703 15.24 19.4583 15.104 19.3743 14.992C19.3203 14.912 19.3263 14.808 19.3863 14.728C19.4463 14.88 19.5183 14.872 19.5243 14.776L19.4763 14.424H20.5203L20.4663 14.768C20.4543 14.864 20.5503 14.888 20.6103 14.728C20.6703 14.808 20.6763 14.92 20.6223 14.992C20.5383 15.104 20.5263 15.24 20.5983 15.264C20.6583 15.288 20.6703 15.264 20.7183 15.056C20.7183 15.056 20.8083 15.176 20.7783 15.328C20.7423 15.408 20.5803 15.728 20.7423 15.792C20.8203 15.792 20.8143 15.696 20.8443 15.456C20.8837 15.5117 20.9102 15.5812 20.9209 15.6563C20.9315 15.7315 20.9258 15.8091 20.9043 15.88C20.8683 16.024 20.7843 16.104 20.7843 16.264C20.7843 16.384 20.8263 16.424 20.8743 16.424C20.9523 16.424 20.9823 16.312 21.0063 16.064C21.0663 16.168 21.0963 16.448 21.0483 16.544C20.9103 16.816 20.8443 16.928 20.8443 17.04C20.8443 17.176 20.9643 17.232 21.0243 16.912C21.0783 17.024 21.0543 17.264 21.0543 17.264C21.0543 17.424 20.8923 17.44 20.8863 17.664V18.104H19.1103ZM19.5423 14.424L19.5183 14.176H20.4723L20.4483 14.424H19.5423ZM19.6023 14.168L19.5903 13.968H20.4003L20.3823 14.168H19.6023ZM19.7403 13.96L19.7223 13.752H20.2623L20.2563 13.96H19.7403ZM21.7203 22.76C21.6003 22.704 21.4203 22.528 21.4203 22.36V20.416L21.5763 20.144H18.4203L18.5703 20.416V22.36C18.5703 22.528 18.4503 22.704 18.3303 22.76H21.7203Z" fill="white"/>
<path d="M18.972 21.008H19.188V22.328H18.972V21.008ZM20.796 21.008H21.012V22.328H20.796V21.008Z" fill="white"/>
<path fill-rule="evenodd" clip-rule="evenodd" d="M18.9423 21.008L18.9723 20.968H19.1883L19.2183 21.008V22.328L19.1883 22.368H18.9723L18.9423 22.328V21.008ZM19.0023 21.048V22.288H19.1583V21.048H19.0023ZM20.7663 21.008L20.7963 20.968H21.0123L21.0423 21.008V22.328L21.0123 22.368H20.7963L20.7663 22.328V21.008ZM20.8263 21.048V22.288H20.9823V21.048H20.8263Z" fill="black"/>
<path d="M18.3595 17.936V20.144H21.5995V17.936C21.5621 17.9542 21.5284 17.984 21.5013 18.023C21.4742 18.0619 21.4544 18.1089 21.4435 18.16V19.104H18.5215V18.16C18.5215 18.16 18.4855 18 18.3535 17.936H18.3595Z" fill="white"/>
<path fill-rule="evenodd" clip-rule="evenodd" d="M21.6303 17.8788V20.184H18.3303V17.936H18.349L18.3543 17.896H18.3903V17.9126C18.4488 17.949 18.4876 18.0025 18.5123 18.0489C18.5263 18.0754 18.5359 18.0996 18.542 18.1175C18.545 18.1265 18.5472 18.1339 18.5487 18.1392C18.5494 18.1419 18.55 18.144 18.5504 18.1456L18.5508 18.1475L18.551 18.1482L18.551 18.1484L18.551 18.1485C18.551 18.1485 18.5511 18.1485 18.5223 18.16L18.5511 18.1485L18.5523 18.1542V19.064H21.4143V18.1545L21.4155 18.1491C21.4276 18.0919 21.4498 18.0394 21.4801 17.9958C21.5105 17.9522 21.5481 17.9189 21.59 17.8985L21.6303 17.8788ZM18.4923 18.1667C18.4913 18.163 18.4897 18.1575 18.4873 18.1505C18.4825 18.1364 18.4748 18.1167 18.4633 18.0952C18.4471 18.0646 18.4236 18.0307 18.3903 18.0034V20.104H21.5703V17.9996C21.5533 18.0136 21.5378 18.0306 21.5241 18.0502C21.5011 18.0832 21.4841 18.1227 21.4743 18.1658V19.144H18.4923V18.1667Z" fill="black"/>
<path d="M21.1561 22.76C21.0481 22.704 20.8201 22.528 20.8201 22.36V20.184C20.8441 20.064 20.9641 19.992 21.0421 19.912H18.9001C19.0021 19.992 19.1161 20.048 19.1581 20.184V22.36C19.1581 22.528 18.9781 22.704 18.8701 22.76H21.1561Z" fill="white"/>
<path fill-rule="evenodd" clip-rule="evenodd" d="M18.7897 19.872H21.13L21.0601 19.9437C21.0396 19.9648 21.0166 19.9851 20.9941 20.0048L20.9936 20.0052C20.971 20.0251 20.949 20.0445 20.9287 20.0649C20.8883 20.1055 20.8601 20.1452 20.8498 20.1896V22.36C20.8498 22.39 20.8601 22.4241 20.8812 22.4615C20.902 22.4986 20.9316 22.5355 20.9656 22.5703C21.0336 22.6397 21.1151 22.696 21.1667 22.7227L21.1558 22.8H18.8698L18.859 22.7227C18.9093 22.6966 18.9781 22.6414 19.034 22.5726C19.0911 22.5023 19.1278 22.4264 19.1278 22.36V20.1922C19.1096 20.1383 19.0772 20.0977 19.0348 20.0604C19.0127 20.0409 18.9885 20.0228 18.9629 20.0043C18.9578 20.0005 18.9526 19.9968 18.9473 19.993C18.9267 19.9781 18.9054 19.9628 18.8846 19.9465L18.7897 19.872ZM19.0161 19.952C19.0337 19.9652 19.0512 19.9789 19.0679 19.9936C19.1167 20.0367 19.1613 20.0902 19.1856 20.1688L19.1878 20.1761V22.36C19.1878 22.4616 19.1345 22.5577 19.0747 22.6314C19.0481 22.6641 19.0189 22.6941 18.9895 22.72H21.0267C20.994 22.6948 20.9603 22.6656 20.9291 22.6338C20.8926 22.5965 20.8584 22.5545 20.8332 22.5095C20.8081 22.4649 20.7898 22.414 20.7898 22.36V20.1788L20.7909 20.1737C20.8056 20.1 20.8488 20.0451 20.8925 20.0011C20.9096 19.9839 20.9276 19.9676 20.9452 19.952H19.0161Z" fill="black"/>
<path d="M21.4438 19.936V18.368H21.1499V18.216H18.8219V18.376H18.5219V19.936H21.4438ZM20.6999 22.76C20.5919 22.704 20.4419 22.528 20.4419 22.36V20.504L20.5259 20.336H19.4639L19.5539 20.496V22.36C19.5539 22.528 19.3979 22.704 19.2959 22.76H20.6999Z" fill="white"/>
<path fill-rule="evenodd" clip-rule="evenodd" d="M18.7919 18.176H21.1799V18.328H21.4739V19.976H18.4919V18.336H18.7919V18.176ZM18.8519 18.256V18.416H18.5519V19.896H21.4139V18.408H21.1199V18.256H18.8519ZM19.4039 20.296H20.582L20.4719 20.5161V22.36C20.4719 22.429 20.5034 22.5056 20.5523 22.5746C20.6006 22.6428 20.6614 22.6971 20.7108 22.7227L20.6999 22.8H19.2959L19.2845 22.723C19.3312 22.6974 19.3923 22.6428 19.4415 22.5743C19.4914 22.505 19.5239 22.4285 19.5239 22.36V20.5094L19.4039 20.296ZM19.5239 20.376L19.5839 20.4827V22.36C19.5839 22.4595 19.5385 22.5551 19.4849 22.6297C19.4609 22.6631 19.4343 22.6936 19.4073 22.72H20.586C20.5588 22.6936 20.5323 22.6629 20.5086 22.6295C20.4555 22.5545 20.4119 22.459 20.4119 22.36V20.4919L20.4699 20.376H19.5239Z" fill="black"/>
<path d="M19.7216 20.336H20.2616V22.76H19.7216V20.336Z" fill="white"/>
<path fill-rule="evenodd" clip-rule="evenodd" d="M19.6918 20.296H20.2918V22.8H19.6918V20.296ZM19.7518 20.376V22.72H20.2318V20.376H19.7518Z" fill="black"/>
<path d="M20.5435 19.8C20.5435 19.64 20.8915 19.632 21.0715 19.496H18.9115C19.0915 19.632 19.4335 19.64 19.4335 19.8L19.5055 20.112L20.4055 20.16L20.5435 19.8Z" fill="white"/>
<path fill-rule="evenodd" clip-rule="evenodd" d="M18.8975 19.5308L18.9123 19.456H21.0723L21.087 19.5308C21.0389 19.5672 20.9808 19.5942 20.9222 19.6168C20.8855 19.631 20.8472 19.6439 20.8105 19.6563C20.789 19.6636 20.7681 19.6707 20.7485 19.6777C20.6937 19.6972 20.6476 19.7165 20.6156 19.7394C20.5827 19.7629 20.5743 19.7831 20.5743 19.8L20.571 19.8182L20.433 20.1782L20.4051 20.2L19.5051 20.152L19.4776 20.1238L19.4056 19.8118L19.4043 19.8C19.4043 19.7828 19.3958 19.7626 19.3636 19.7393C19.3322 19.7164 19.287 19.6972 19.2329 19.6776C19.2133 19.6706 19.1924 19.6634 19.1709 19.656C19.1349 19.6437 19.0973 19.6308 19.0613 19.6168C19.0033 19.5942 18.9455 19.5671 18.8975 19.5308ZM19.0681 19.536C19.0714 19.5374 19.0748 19.5387 19.0782 19.54C19.1135 19.5538 19.149 19.5659 19.184 19.5779C19.2058 19.5854 19.2273 19.5927 19.2486 19.6004C19.3025 19.6199 19.354 19.6411 19.3924 19.669C19.4287 19.6954 19.4618 19.7344 19.4641 19.7935L19.5287 20.0732L20.3883 20.119L20.5146 19.7895C20.5182 19.7324 20.5514 19.6946 20.5872 19.6689C20.6261 19.6411 20.6783 19.6198 20.733 19.6004C20.7543 19.5928 20.7758 19.5855 20.7975 19.5782C20.8333 19.5661 20.8695 19.5539 20.9055 19.54C20.9089 19.5387 20.9122 19.5374 20.9156 19.536H19.0681Z" fill="black"/>
<path d="M20.9642 18.104C20.9642 17.712 20.9762 17.568 21.0662 17.568V18.8C20.8442 18.912 20.6882 19.28 20.6882 19.28H19.2962C19.2962 19.28 19.1402 18.912 18.9182 18.8V17.56C19.0262 17.56 19.0262 17.72 19.0262 18.096L20.9642 18.104ZM21.0662 17.944C21.0662 17.496 21.3602 17.448 21.3602 17.448V17.848C21.2462 17.84 21.1922 17.976 21.1922 18.168C21.1922 18.368 21.2822 18.368 21.2822 18.368V19.504H21.0662V17.944Z" fill="white"/>
<path fill-rule="evenodd" clip-rule="evenodd" d="M21.3903 17.4028V17.8902L21.3587 17.8879C21.3128 17.8847 21.2808 17.9093 21.2587 17.9548C21.2354 18.0027 21.2223 18.076 21.2223 18.168C21.2223 18.2597 21.2427 18.2969 21.2565 18.3123C21.2639 18.3205 21.2711 18.3244 21.2763 18.3263C21.2788 18.3273 21.2808 18.3277 21.282 18.3279C21.2824 18.328 21.2827 18.328 21.2828 18.328H21.3123V19.544H21.0363V18.8614C20.9495 18.9198 20.8739 19.0174 20.817 19.1077C20.7845 19.1593 20.7588 19.2076 20.7411 19.2429C20.7323 19.2606 20.7256 19.2749 20.7211 19.2848C20.7188 19.2897 20.7171 19.2935 20.716 19.2961L20.7148 19.2989L20.7145 19.2995L20.7144 19.2997L20.7058 19.32H19.2788L19.2702 19.2997L19.2701 19.2995L19.2698 19.2989L19.2686 19.2961C19.2675 19.2935 19.2658 19.2897 19.2636 19.2848C19.259 19.2749 19.2523 19.2606 19.2435 19.2429C19.2259 19.2076 19.2001 19.1593 19.1676 19.1077C19.102 19.0036 19.0115 18.8898 18.9077 18.8374L18.8883 18.8276V17.52H18.9183C18.9514 17.52 18.9801 17.5326 19.0023 17.563C19.0233 17.5919 19.035 17.6324 19.0422 17.6789C19.0554 17.7643 19.0563 17.8902 19.0563 18.0561L20.9344 18.0639C20.9348 17.89 20.9382 17.7641 20.9523 17.6803C20.9599 17.635 20.9714 17.5965 20.9905 17.5693C21.0109 17.5402 21.037 17.528 21.0663 17.528H21.0963V17.6345C21.1247 17.5737 21.1603 17.5284 21.1962 17.4951C21.2361 17.4583 21.2757 17.4367 21.3054 17.4243C21.3203 17.4181 21.3328 17.4142 21.3417 17.4117C21.3461 17.4105 21.3497 17.4097 21.3522 17.4092C21.3535 17.4089 21.3545 17.4087 21.3553 17.4085L21.3562 17.4084L21.3565 17.4083L21.3566 17.4083C21.3566 17.4083 21.3567 17.4083 21.3603 17.448L21.3567 17.4083L21.3903 17.4028ZM21.3303 17.4979C21.3281 17.4987 21.3257 17.4997 21.3233 17.5007C21.2979 17.5113 21.2641 17.5297 21.2304 17.5609C21.1644 17.622 21.0963 17.7341 21.0963 17.944V19.464H21.2523V18.4C21.242 18.3951 21.23 18.3869 21.2181 18.3737C21.1869 18.3391 21.1623 18.2763 21.1623 18.168C21.1623 18.068 21.1762 17.9773 21.2084 17.9112C21.2364 17.8537 21.2776 17.8167 21.3303 17.8091V17.4979ZM21.0363 17.6213C21.0356 17.6221 21.035 17.623 21.0343 17.624C21.0259 17.6359 21.0175 17.658 21.0108 17.6977C20.9974 17.7776 20.9943 17.9068 20.9943 18.104V18.1441L18.9963 18.1359V18.096C18.9963 17.9058 18.9961 17.777 18.9834 17.6951C18.9771 17.6546 18.9686 17.6316 18.9592 17.6187C18.9562 17.6145 18.9526 17.6109 18.9483 17.6079V18.7731C19.0579 18.8361 19.1494 18.9544 19.2135 19.0563C19.2478 19.1107 19.2749 19.1614 19.2934 19.1986C19.3018 19.2154 19.3085 19.2295 19.3133 19.24H20.6713C20.6761 19.2295 20.6828 19.2154 20.6912 19.1986C20.7097 19.1614 20.7368 19.1107 20.7711 19.0563C20.8352 18.9544 20.9267 18.8361 21.0363 18.7731V17.6213Z" fill="black"/>
<path d="M18.9178 17.944C18.9178 17.496 18.6238 17.448 18.6238 17.448V17.848C18.7378 17.84 18.7918 17.976 18.7918 18.168C18.7918 18.368 18.7018 18.368 18.7018 18.368V19.504H18.9178V17.944Z" fill="white"/>
<path fill-rule="evenodd" clip-rule="evenodd" d="M18.6276 17.4083L18.624 17.448C18.6276 17.4083 18.6276 17.4083 18.6276 17.4083L18.6277 17.4083L18.6278 17.4083L18.6281 17.4084L18.629 17.4085C18.6298 17.4087 18.6308 17.4089 18.6321 17.4092C18.6346 17.4097 18.6382 17.4105 18.6426 17.4117C18.6515 17.4142 18.664 17.4181 18.6789 17.4243C18.7086 17.4367 18.7482 17.4583 18.7881 17.4951C18.8691 17.57 18.948 17.7059 18.948 17.944V19.544H18.672V18.328H18.7015C18.7016 18.328 18.7019 18.328 18.7023 18.3279C18.7035 18.3277 18.7055 18.3273 18.708 18.3263C18.7132 18.3244 18.7204 18.3205 18.7278 18.3123C18.7416 18.2969 18.762 18.2597 18.762 18.168C18.762 18.076 18.7489 18.0027 18.7256 17.9548C18.7035 17.9093 18.6715 17.8847 18.6256 17.8879L18.594 17.8902V17.4028L18.6276 17.4083ZM18.732 18.4V19.464H18.888V17.944C18.888 17.7341 18.8199 17.622 18.7539 17.5609C18.7202 17.5297 18.6864 17.5113 18.661 17.5007C18.6586 17.4997 18.6562 17.4987 18.654 17.4979V17.8091C18.7067 17.8167 18.7479 17.8537 18.7759 17.9112C18.8081 17.9773 18.822 18.068 18.822 18.168C18.822 18.2763 18.7974 18.3391 18.7662 18.3737C18.7543 18.3869 18.7423 18.3951 18.732 18.4Z" fill="black"/>
<path fill-rule="evenodd" clip-rule="evenodd" d="M20.5196 14.88H19.4876V14.816H20.5196V14.88ZM20.6276 15.312H19.3676V15.248H20.6276V15.312ZM20.7416 15.832H19.2476V15.768H20.7416V15.832ZM20.8916 16.464H19.1216V16.4H20.8916V16.464ZM20.9036 17.184H19.0796V17.12H20.9036V17.184Z" fill="black"/>
<path fill-rule="evenodd" clip-rule="evenodd" d="M19.4213 19.56H18.5273V19.48H21.4433V19.56H20.5613V20.088H19.4213V19.56ZM19.4813 19.56V20.008H20.5013V19.56H19.4813Z" fill="black"/>
<path d="M19.3195 18.336C19.4995 18.624 19.4755 19.112 19.4755 19.4H20.5195C20.5195 19.112 20.4955 18.624 20.6755 18.336H19.3195ZM19.9015 15.056L19.7575 14.952V14.672C19.8175 14.696 19.8775 14.704 19.8895 14.832C19.9075 14.648 19.9495 14.664 20.0035 14.592C20.0635 14.664 20.0935 14.648 20.1175 14.832C20.1175 14.704 20.1895 14.696 20.2435 14.672V14.952L20.1055 15.048L19.9015 15.056Z" fill="white"/>
<path fill-rule="evenodd" clip-rule="evenodd" d="M20.0026 14.5369L20.0237 14.5623C20.0359 14.5768 20.0465 14.5873 20.0571 14.5978C20.0585 14.5991 20.0599 14.6005 20.0613 14.6019C20.073 14.6135 20.0856 14.6263 20.0969 14.644C20.1071 14.6598 20.1156 14.6783 20.123 14.7019C20.1296 14.6931 20.1368 14.6856 20.1443 14.6793C20.1599 14.666 20.1768 14.6575 20.192 14.651C20.1991 14.648 20.2062 14.6453 20.2127 14.6428L20.2144 14.6421C20.2215 14.6393 20.2281 14.6368 20.2342 14.6341L20.2737 14.6165V14.9763L20.1134 15.0877L19.8945 15.0963L19.7277 14.9758V14.6183L19.7663 14.6337C19.7712 14.6357 19.777 14.6379 19.7831 14.6401C19.7925 14.6436 19.8026 14.6474 19.8111 14.6511C19.8265 14.6577 19.8429 14.6662 19.8581 14.6796C19.8667 14.6871 19.8745 14.6957 19.8815 14.7058C19.8896 14.6798 19.8994 14.6597 19.9112 14.6428C19.9228 14.6262 19.9355 14.6138 19.9465 14.603C19.947 14.6026 19.9475 14.6022 19.9479 14.6017C19.9597 14.5903 19.9707 14.5793 19.9825 14.5637L20.0026 14.5369ZM20.0044 14.6449C19.9968 14.6532 19.9897 14.6601 19.9833 14.6663C19.9711 14.6782 19.9626 14.6865 19.9552 14.6972C19.9418 14.7165 19.9281 14.7489 19.9194 14.8372L19.8599 14.837C19.8548 14.7825 19.8406 14.7599 19.8252 14.7465C19.8164 14.7388 19.8058 14.7328 19.7927 14.7272C19.791 14.7265 19.7893 14.7258 19.7877 14.7251V14.9282L19.9089 15.0157L20.0979 15.0083L20.2137 14.9278V14.7258C20.2126 14.7263 20.2115 14.7268 20.2103 14.7272C20.1969 14.733 20.1857 14.739 20.1765 14.7468C20.1677 14.7542 20.161 14.7631 20.1563 14.7751C20.1514 14.7873 20.1477 14.805 20.1477 14.832L20.0881 14.8389C20.0763 14.7487 20.064 14.7156 20.0514 14.696C20.0448 14.6858 20.0371 14.6775 20.0255 14.6661C20.0243 14.6649 20.0229 14.6636 20.0215 14.6622C20.0164 14.6571 20.0106 14.6514 20.0044 14.6449ZM19.2556 18.296H20.7397L20.6987 18.3616C20.6143 18.4967 20.5762 18.6815 20.56 18.8725C20.547 19.0251 20.5482 19.1772 20.5492 19.3067C20.5494 19.3393 20.5497 19.3706 20.5497 19.4V19.44H19.4457V19.4C19.4457 19.3706 19.4459 19.3393 19.4462 19.3067C19.4472 19.1772 19.4483 19.0251 19.4354 18.8725C19.4191 18.6815 19.3811 18.4967 19.2966 18.3616L19.2556 18.296ZM19.379 18.376C19.4488 18.5189 19.4805 18.6936 19.495 18.8635C19.5084 19.0215 19.5072 19.18 19.5062 19.3097C19.506 19.327 19.5059 19.3438 19.5058 19.36H20.4895C20.4894 19.3438 20.4893 19.327 20.4892 19.3097C20.4882 19.18 20.4869 19.0215 20.5004 18.8635C20.5148 18.6936 20.5465 18.5189 20.6164 18.376H19.379Z" fill="black"/>
<path d="M19.8903 15.512L19.6503 15.288V15.04C19.7403 15.064 19.8303 15.08 19.8423 15.216C19.8663 15.016 19.9203 14.92 20.0043 14.84C20.0823 14.92 20.1363 15.016 20.1663 15.216C20.1723 15.08 20.2683 15.064 20.3463 15.04V15.296L20.1123 15.512H19.8903Z" fill="white"/>
<path fill-rule="evenodd" clip-rule="evenodd" d="M20.0043 14.7902L20.0219 14.8083C20.063 14.8505 20.0989 14.898 20.1282 14.9622C20.1455 14.9998 20.1602 15.0425 20.1725 15.0923C20.185 15.0746 20.1995 15.0611 20.2148 15.0505C20.2474 15.0278 20.2872 15.0162 20.3206 15.0065C20.327 15.0046 20.3331 15.0028 20.3389 15.001L20.3756 14.9897V15.317L20.121 15.552H19.8802L19.6196 15.3088V14.9912L19.6555 15.0008C19.6603 15.0021 19.6651 15.0033 19.67 15.0046C19.7093 15.0148 19.753 15.0262 19.7885 15.0504C19.8042 15.0611 19.819 15.0746 19.8318 15.0924C19.8431 15.0427 19.8572 14.9999 19.8745 14.9622C19.9042 14.8974 19.9419 14.8496 19.9862 14.8075L20.0043 14.7902ZM19.9257 15.0038C19.9013 15.0572 19.8828 15.1259 19.8713 15.2223L19.8118 15.2207C19.8094 15.1926 19.8031 15.1728 19.795 15.1581C19.7869 15.1433 19.7757 15.1315 19.7612 15.1216C19.7387 15.1063 19.7113 15.0974 19.6796 15.0888V15.2672L19.8991 15.472H20.1023L20.3156 15.2751V15.09C20.2883 15.0982 20.2635 15.1069 20.2425 15.1215C20.2283 15.1313 20.2175 15.143 20.2099 15.1575C20.2024 15.1717 20.1968 15.1909 20.1956 15.2184L20.1362 15.2239C20.1217 15.1272 20.1017 15.0579 20.077 15.0038C20.0564 14.9589 20.032 14.9232 20.003 14.8906C19.9717 14.9234 19.9463 14.959 19.9257 15.0038Z" fill="black"/>
<path d="M19.8717 16.224L19.6017 15.904V15.528C19.6977 15.56 19.8057 15.576 19.8177 15.776C19.8477 15.496 19.9077 15.344 19.9977 15.232C20.0937 15.344 20.1537 15.496 20.1897 15.776C20.2017 15.576 20.3097 15.56 20.4057 15.528V15.904L20.1297 16.224H19.8717ZM20.3757 16.648L20.1357 17.104H19.8537L19.6077 16.648H20.3757ZM19.4637 17.408C19.5837 17.496 19.6317 17.68 19.6437 18.016H20.3397C20.3517 17.68 20.3997 17.496 20.5197 17.408H19.4637Z" fill="white"/>
<path fill-rule="evenodd" clip-rule="evenodd" d="M19.9974 15.1781L20.0178 15.2019C20.1017 15.2998 20.1584 15.4253 20.1965 15.6226C20.2112 15.5942 20.2297 15.5722 20.2509 15.5549C20.2891 15.5238 20.3357 15.5092 20.376 15.4965C20.3839 15.494 20.3915 15.4917 20.3988 15.4892L20.436 15.4768V15.9223L20.1413 16.264H19.8606L19.572 15.922V15.4768L19.6093 15.4892C19.6166 15.4917 19.6242 15.494 19.6321 15.4965C19.6724 15.5092 19.719 15.5238 19.7572 15.5549C19.7774 15.5714 19.7952 15.5922 19.8095 15.6187C19.8441 15.4238 19.8997 15.2997 19.9776 15.2028L19.9974 15.1781ZM19.9987 15.2874C19.9258 15.3892 19.8747 15.5299 19.8477 15.7817L19.7881 15.7792C19.7828 15.6909 19.7575 15.6489 19.7259 15.6232C19.6994 15.6015 19.6678 15.5903 19.632 15.5788V15.8861L19.8834 16.184H20.1188L20.376 15.8858V15.5788C20.3403 15.5903 20.3087 15.6015 20.2822 15.6232C20.2506 15.6489 20.2252 15.6909 20.2199 15.7792L20.1605 15.7828C20.1279 15.5297 20.0763 15.3892 19.9987 15.2874ZM19.5495 16.608H20.4337L20.1516 17.144H19.8387L19.5495 16.608ZM19.6666 16.688L19.8694 17.064H20.1204L20.3183 16.688H19.6666ZM19.4496 17.4431L19.464 17.368H20.52L20.5345 17.4431C20.43 17.5197 20.382 17.6822 20.37 18.0179L20.3686 18.056H19.6154L19.6141 18.0179C19.6021 17.6822 19.5541 17.5197 19.4496 17.4431ZM19.5515 17.448C19.6283 17.5569 19.6612 17.7294 19.6725 17.976H20.3116C20.3228 17.7294 20.3558 17.5569 20.4326 17.448H19.5515Z" fill="black"/>
<path d="M20.5321 16.64V16.192C20.4805 16.2067 20.4325 16.2386 20.3926 16.2848C20.3527 16.3309 20.3223 16.3899 20.3041 16.456C20.3041 16.296 20.1541 15.952 19.9921 15.776C19.8301 15.968 19.6741 16.288 19.6801 16.448C19.6501 16.328 19.5721 16.232 19.4521 16.192V16.648L20.5321 16.64Z" fill="white"/>
<path fill-rule="evenodd" clip-rule="evenodd" d="M19.9723 15.7461L20.0112 15.745C20.0956 15.8367 20.1757 15.9707 20.2347 16.1014C20.2643 16.167 20.2889 16.2326 20.3063 16.2927C20.3105 16.3074 20.3144 16.3219 20.3178 16.3361C20.3336 16.3062 20.3521 16.2788 20.373 16.2546C20.4167 16.204 20.4694 16.169 20.526 16.1529L20.5622 16.192V16.64L20.5324 16.68L19.4524 16.688L19.4222 16.648V16.192L19.4595 16.1532C19.5503 16.1835 19.6204 16.2446 19.6656 16.3255C19.6687 16.3131 19.672 16.3005 19.6757 16.2879C19.6929 16.2295 19.7179 16.1662 19.7478 16.1027C19.8077 15.9758 19.889 15.8449 19.9723 15.7461ZM19.993 15.8293C19.921 15.9195 19.8511 16.0341 19.7986 16.1453C19.7701 16.2058 19.7471 16.2646 19.7316 16.3171C19.716 16.3704 19.709 16.4142 19.7102 16.446L19.6518 16.4607C19.6286 16.3679 19.5721 16.2887 19.4822 16.2458V16.6078L20.5022 16.6003V16.2449C20.4694 16.2606 20.4389 16.2843 20.4124 16.315C20.3763 16.3567 20.3488 16.41 20.3324 16.4698L20.2742 16.456C20.2742 16.4232 20.2663 16.377 20.2503 16.3214C20.2344 16.2665 20.2115 16.2051 20.1833 16.1427C20.1316 16.028 20.0636 15.9127 19.993 15.8293Z" fill="black"/>
<path d="M20.5801 17.408V16.96C20.4541 17.008 20.3701 17.096 20.3341 17.224C20.3341 17.064 20.1721 16.72 19.9921 16.544C19.8121 16.744 19.6441 17.056 19.6501 17.224C19.6201 17.104 19.5301 17.008 19.4041 16.96V17.416L20.5801 17.408Z" fill="white"/>
<path fill-rule="evenodd" clip-rule="evenodd" d="M19.9729 16.5133L20.0099 16.5117C20.1035 16.6032 20.1913 16.7371 20.2557 16.8681C20.288 16.9337 20.3149 16.9994 20.3337 17.0596C20.3389 17.0762 20.3436 17.0926 20.3476 17.1087C20.3972 17.0206 20.474 16.9588 20.5719 16.9215L20.6101 16.96V17.408L20.5803 17.448L19.4043 17.456L19.3741 17.416V16.96L19.4124 16.9215C19.5071 16.9576 19.5858 17.0211 19.6352 17.105C19.6389 17.09 19.6433 17.0747 19.6481 17.0595C19.6668 17.0003 19.694 16.9369 19.7267 16.8734C19.792 16.7464 19.8808 16.6156 19.9729 16.5133ZM19.9932 16.5953C19.9118 16.6897 19.834 16.806 19.7761 16.9186C19.7451 16.9791 19.7201 17.0377 19.7034 17.0906C19.6865 17.144 19.6789 17.1886 19.6801 17.2221L19.6217 17.2367C19.5988 17.145 19.5333 17.0642 19.4341 17.0151V17.3758L20.5501 17.3682V17.015C20.4523 17.0626 20.3904 17.138 20.3622 17.2381L20.3041 17.224C20.3041 17.1917 20.2957 17.1459 20.2783 17.0904C20.2612 17.0356 20.2363 16.9743 20.2056 16.912C20.1485 16.796 20.0728 16.6791 19.9932 16.5953Z" fill="black"/>
<path d="M20.7239 18.344V17.816C20.599 17.868 20.491 17.9753 20.4179 18.12C20.4179 17.84 20.1779 17.4 19.9919 17.264C19.7999 17.408 19.5659 17.856 19.5659 18.12C19.4909 17.9743 19.3808 17.867 19.2539 17.816V18.344H20.7239Z" fill="white"/>
<path fill-rule="evenodd" clip-rule="evenodd" d="M19.9774 17.2292L20.0065 17.2289C20.1052 17.3011 20.215 17.4507 20.2996 17.6154C20.3658 17.7441 20.4195 17.8878 20.4396 18.0172C20.5128 17.9056 20.6081 17.8224 20.7152 17.7778L20.7541 17.816V18.344L20.7241 18.384H19.2541L19.2241 18.344V17.816L19.2628 17.7777C19.3723 17.8217 19.4698 17.9055 19.5449 18.0188C19.5649 17.8944 19.6173 17.753 19.6823 17.6246C19.7661 17.4589 19.8758 17.3054 19.9774 17.2292ZM19.9923 17.3103C19.9055 17.3819 19.8088 17.5176 19.732 17.6694C19.6504 17.8306 19.5961 18.0003 19.5961 18.12L19.5414 18.1426C19.478 18.0194 19.3881 17.9252 19.2841 17.872V18.304H20.6941V17.8726C20.5923 17.9266 20.5046 18.0204 20.443 18.1424L20.3881 18.12C20.3881 17.9923 20.3323 17.8206 20.2501 17.6606C20.1728 17.5102 20.0763 17.3783 19.9923 17.3103Z" fill="black"/>
<path d="M20.6395 19.52V18.976C20.4955 19.048 20.4595 19.224 20.4115 19.352C20.4295 18.8 20.1835 18.216 19.9915 18.064C19.7995 18.216 19.5475 18.816 19.5715 19.344C19.5235 19.232 19.4815 19.048 19.3435 18.976V19.512L20.6395 19.52Z" fill="white"/>
<path fill-rule="evenodd" clip-rule="evenodd" d="M19.6735 18.5458C19.7585 18.308 19.8727 18.1116 19.9763 18.0296H20.0069C20.1104 18.1115 20.2231 18.3039 20.3075 18.5409C20.375 18.7306 20.4259 18.9534 20.4391 19.1797C20.4761 19.0852 20.5295 18.9883 20.6291 18.9385L20.6696 18.976V19.52L20.6395 19.56L19.3435 19.552L19.3136 19.512V18.976L19.3545 18.9387C19.4313 18.9788 19.4806 19.0499 19.5165 19.1231C19.5259 19.1425 19.5345 19.1621 19.5424 19.1814C19.5538 18.9602 19.6051 18.7371 19.6735 18.5458ZM19.7277 18.5802C19.6452 18.8111 19.5899 19.0862 19.6015 19.3416L19.5456 19.3638C19.5358 19.3412 19.5263 19.3155 19.5167 19.2897C19.5139 19.2822 19.5111 19.2747 19.5083 19.2673C19.4956 19.2335 19.4821 19.1994 19.4662 19.1668C19.4422 19.1177 19.413 19.0731 19.3736 19.0405V19.4722L20.6096 19.4798V19.0388C20.5318 19.0988 20.4979 19.1981 20.4637 19.2982C20.4555 19.3222 20.4473 19.3463 20.4384 19.3699L20.3816 19.3503C20.3904 19.0823 20.3349 18.8048 20.2532 18.5751C20.1757 18.3573 20.0769 18.1887 19.9916 18.1114C19.9063 18.1891 19.806 18.3612 19.7277 18.5802Z" fill="black"/>
<path d="M20.5437 20.336V19.792C20.3937 19.84 20.3877 19.912 20.3397 20.032C20.3577 19.704 20.1837 19.328 19.9917 19.184C19.7997 19.328 19.6317 19.704 19.6437 20.032C19.5957 19.912 19.5897 19.84 19.4397 19.792V20.336H20.5437Z" fill="white"/>
<path fill-rule="evenodd" clip-rule="evenodd" d="M19.9918 19.1381L20.0065 19.1492C20.1083 19.2255 20.2033 19.3614 20.2706 19.5192C20.3187 19.6319 20.3535 19.7578 20.366 19.8839C20.3706 19.8751 20.3756 19.8666 20.3812 19.8583C20.4131 19.8109 20.4587 19.7781 20.5368 19.7531L20.5738 19.7413V20.376H19.4098V19.7413L19.4468 19.7531C19.5249 19.7781 19.5705 19.8109 19.6024 19.8583C19.6086 19.8675 19.6141 19.8771 19.6192 19.8869C19.6325 19.76 19.6672 19.6331 19.7151 19.5194C19.7816 19.3617 19.8752 19.2256 19.9771 19.1492L19.9918 19.1381ZM19.7674 19.5586C19.705 19.7068 19.6681 19.8754 19.6738 20.0301L19.6173 20.0508C19.6111 20.0353 19.6056 20.0206 19.6005 20.007C19.6001 20.0058 19.5996 20.0046 19.5992 20.0035C19.5946 19.9912 19.5904 19.98 19.5862 19.9693C19.5771 19.9462 19.5685 19.9277 19.5577 19.9117C19.541 19.8869 19.5166 19.8644 19.4698 19.8445V20.296H20.5138V19.8445C20.467 19.8644 20.4426 19.8869 20.4259 19.9117C20.4151 19.9277 20.4065 19.9462 20.3973 19.9693C20.3931 19.98 20.389 19.9911 20.3844 20.0035C20.3839 20.0046 20.3835 20.0058 20.383 20.007C20.378 20.0206 20.3725 20.0353 20.3663 20.0508L20.3099 20.0291C20.3183 19.8751 20.2816 19.7069 20.2185 19.5588C20.1587 19.4187 20.0768 19.3001 19.9918 19.2304C19.9071 19.3 19.8265 19.4184 19.7674 19.5586Z" fill="black"/>
<path d="M14.2196 22.336V20.704C14.1776 20.496 14.0396 20.304 13.9436 20.272V18.832L14.1656 18.992L14.4236 20.504V22.344L14.2196 22.336Z" fill="white"/>
<path fill-rule="evenodd" clip-rule="evenodd" d="M13.9138 18.7649L14.1921 18.9655L14.4538 20.4995V22.3852L14.1898 22.3749V20.7094C14.1698 20.6143 14.1281 20.5216 14.0796 20.4485C14.0296 20.3731 13.976 20.324 13.9365 20.3108L13.9138 20.3032V18.7649ZM13.9738 18.8991V20.2429C14.0242 20.269 14.0781 20.3255 14.1245 20.3955C14.1787 20.4771 14.2263 20.5825 14.2488 20.6936L14.2498 20.6987V22.2972L14.3938 22.3028V20.5085L14.1396 19.0186L13.9738 18.8991Z" fill="black"/>
<path d="M14.2196 22.344V20.704C14.1776 20.496 14.0396 20.304 13.9436 20.272V18.736C14.0936 18.736 14.1656 18.992 14.1656 18.992L14.4236 20.504V22.336L14.2196 22.344Z" fill="white"/>
<path fill-rule="evenodd" clip-rule="evenodd" d="M13.9138 18.696H13.9438C14.0327 18.696 14.0959 18.7719 14.1349 18.8397C14.1547 18.8742 14.1693 18.9085 14.179 18.934C14.1839 18.9468 14.1875 18.9575 14.19 18.9652C14.1912 18.969 14.1922 18.9721 14.1928 18.9743L14.1936 18.9768L14.1938 18.9776L14.1939 18.9778L14.1939 18.9779C14.1939 18.9779 14.1939 18.978 14.1658 18.992L14.1939 18.9779L14.1946 18.9805L14.4538 20.4995V22.3749L14.1898 22.3852V20.7094C14.1698 20.6143 14.1281 20.5216 14.0796 20.4485C14.0296 20.3731 13.976 20.324 13.9365 20.3108L13.9138 20.3032V18.696ZM14.1371 19.0038C14.1366 19.0022 14.1359 18.9999 14.1349 18.9968C14.1328 18.9905 14.1297 18.9812 14.1254 18.9701C14.1169 18.9476 14.1042 18.9178 14.0872 18.8883C14.0586 18.8384 14.0208 18.794 13.9738 18.7803V20.2429C14.0242 20.269 14.0781 20.3255 14.1245 20.3955C14.1787 20.4771 14.2263 20.5825 14.2488 20.6936L14.2498 20.6987V22.3028L14.3938 22.2972V20.5085L14.1371 19.0038Z" fill="black"/>
<path d="M14.0581 22.76C14.1601 22.704 14.3101 22.528 14.3101 22.36V20.312L14.2381 20.152H16.8601L16.7581 20.312V22.36C16.7625 22.4448 16.7837 22.5265 16.8196 22.5968C16.8554 22.6671 16.9046 22.7234 16.9621 22.76H14.0581Z" fill="white"/>
<path fill-rule="evenodd" clip-rule="evenodd" d="M14.1848 20.112H16.9247L16.7878 20.3267V22.3586C16.792 22.4359 16.8114 22.5103 16.8441 22.5743C16.8769 22.6387 16.922 22.6904 16.9747 22.7239L16.9618 22.8H14.0578L14.0464 22.723C14.0929 22.6975 14.1524 22.6431 14.2001 22.5748C14.2483 22.5057 14.2798 22.4291 14.2798 22.36V20.3231L14.1848 20.112ZM14.2908 20.192L14.3398 20.301V22.36C14.3398 22.459 14.2963 22.5544 14.244 22.6293C14.2206 22.6628 14.1946 22.6935 14.168 22.72H16.8617C16.8362 22.6906 16.8136 22.6568 16.7944 22.6193C16.7556 22.5432 16.7326 22.4546 16.7279 22.3628L16.7278 22.3614V20.2973L16.7949 20.192H14.2908Z" fill="black"/>
<path d="M16.4284 22.76C16.3264 22.704 16.1764 22.528 16.1764 22.36V20.416L16.3924 20.144H14.6164L14.8324 20.416V22.36C14.8324 22.528 14.6824 22.704 14.5804 22.76H16.4284Z" fill="white"/>
<path fill-rule="evenodd" clip-rule="evenodd" d="M14.5406 20.104H16.4676L16.2061 20.4332V22.36C16.2061 22.4291 16.2376 22.5056 16.2858 22.5748C16.3335 22.6431 16.393 22.6975 16.4395 22.723L16.4281 22.8H14.5801L14.5687 22.723C14.6152 22.6975 14.6747 22.6431 14.7224 22.5748C14.7706 22.5056 14.8021 22.4291 14.8021 22.36V20.4332L14.5406 20.104ZM14.6916 20.184L14.8621 20.3988V22.36C14.8621 22.4589 14.8186 22.5544 14.7663 22.6293C14.7429 22.6628 14.7169 22.6935 14.6903 22.72H16.3179C16.2913 22.6935 16.2653 22.6628 16.2419 22.6293C16.1896 22.5544 16.1461 22.4589 16.1461 22.36V20.3988L16.3166 20.184H14.6916Z" fill="black"/>
<path d="M16.1827 22.76C16.0807 22.704 15.9247 22.528 15.9247 22.36V20.6L16.0687 20.336H14.9407L15.0847 20.6V22.36C15.0847 22.528 14.9347 22.704 14.8267 22.76H16.1827Z" fill="white"/>
<path fill-rule="evenodd" clip-rule="evenodd" d="M14.881 20.296H16.1269L15.9539 20.613V22.36C15.9539 22.4285 15.9865 22.505 16.0363 22.5743C16.0855 22.6428 16.1466 22.6974 16.1934 22.723L16.1819 22.8H14.8259L14.8151 22.7227C14.8644 22.6971 14.9253 22.6428 14.9736 22.5746C15.0225 22.5056 15.0539 22.429 15.0539 22.36V20.613L14.881 20.296ZM14.9989 20.376L15.1139 20.587V22.36C15.1139 22.459 15.0704 22.5545 15.0172 22.6295C14.9936 22.6629 14.9671 22.6936 14.9399 22.72H16.0706C16.0436 22.6936 16.017 22.663 15.993 22.6297C15.9394 22.5551 15.8939 22.4595 15.8939 22.36V20.587L16.009 20.376H14.9989Z" fill="black"/>
<path d="M15.2406 20.336H15.7746V22.768H15.2346L15.2406 20.336Z" fill="white"/>
<path fill-rule="evenodd" clip-rule="evenodd" d="M15.2101 20.296H15.804V22.808H15.2039L15.2101 20.296ZM15.2699 20.376L15.2641 22.728H15.744V20.376H15.2699Z" fill="black"/>
<path d="M14.5019 21.008H14.7179V22.328H14.5019V21.008ZM16.3499 21.008H16.5599V22.328H16.3439L16.3499 21.008ZM14.3159 18.784H14.5799V20.144H14.3159V18.784ZM14.3159 18.528H14.5739V18.784H14.3159V18.528ZM16.4519 19.08H16.8179V20.12H16.4519V19.08Z" fill="white"/>
<path fill-rule="evenodd" clip-rule="evenodd" d="M14.286 18.528L14.316 18.488H14.574L14.604 18.528V18.776L14.61 18.784V20.144L14.58 20.184H14.316L14.286 20.144V18.528ZM14.346 18.824V20.104H14.55V18.824H14.346ZM14.544 18.744H14.346V18.568H14.544V18.744ZM16.422 19.08L16.452 19.04H16.818L16.848 19.08V20.12L16.818 20.16H16.452L16.422 20.12V19.08ZM16.482 19.12V20.08H16.788V19.12H16.482ZM14.472 21.008L14.502 20.968H14.718L14.748 21.008V22.328L14.718 22.368H14.502L14.472 22.328V21.008ZM14.532 21.048V22.288H14.688V21.048H14.532ZM16.32 21.0078L16.35 20.968H16.56L16.59 21.008V22.328L16.56 22.368H16.344L16.314 22.3278L16.32 21.0078ZM16.3798 21.048L16.3742 22.288H16.53V21.048H16.3798Z" fill="black"/>
<path d="M14.574 20.128V17.808C14.646 17.808 14.658 18.152 14.826 18.152C14.916 18.152 14.91 18.008 14.856 17.896C14.814 17.792 14.76 17.656 14.832 17.392C14.886 17.592 15.018 17.656 14.994 17.536C14.952 17.32 14.826 17.28 14.922 16.952C14.952 17.224 15.084 17.216 15.054 17.056C15.018 16.872 14.94 16.792 15.036 16.536C15.09 16.832 15.156 16.816 15.156 16.632C15.156 16.36 15.156 16.072 15.408 15.968C15.408 15.968 15.426 15.728 15.522 15.728C15.612 15.728 15.63 15.968 15.63 15.968C15.888 16.072 15.882 16.368 15.882 16.632C15.882 16.816 15.948 16.832 16.002 16.536C16.098 16.792 16.02 16.872 15.984 17.056C15.954 17.216 16.086 17.224 16.116 16.952C16.212 17.28 16.086 17.32 16.044 17.536C16.02 17.656 16.152 17.592 16.206 17.392C16.278 17.656 16.224 17.792 16.182 17.896C16.134 18.008 16.122 18.152 16.212 18.152C16.38 18.152 16.392 17.816 16.464 17.816V20.128H14.574ZM14.16 18.376V20.144H14.31V18.376C14.256 18.336 14.208 18.336 14.16 18.376Z" fill="white"/>
<path fill-rule="evenodd" clip-rule="evenodd" d="M15.438 15.972L15.436 15.9984L15.417 16.0062C15.3003 16.0544 15.2443 16.143 15.2159 16.2503C15.1865 16.3616 15.1861 16.4943 15.1861 16.632C15.1861 16.6801 15.1819 16.7217 15.1727 16.7515C15.1681 16.7663 15.1612 16.782 15.1502 16.7928C15.1377 16.805 15.1223 16.8086 15.1072 16.8021C15.0938 16.7964 15.0832 16.7839 15.0749 16.7708C15.0663 16.7572 15.0583 16.7399 15.0508 16.7195C15.0442 16.7019 15.0378 16.6812 15.0314 16.6573C15.017 16.7222 15.018 16.7709 15.025 16.8147C15.0304 16.8486 15.0396 16.8809 15.0506 16.9187L15.0517 16.9224C15.0622 16.9585 15.074 16.999 15.0832 17.0459L15.0832 17.0463C15.0918 17.0918 15.0904 17.1346 15.076 17.1662C15.0687 17.1825 15.0579 17.1955 15.0443 17.2025C15.0307 17.2094 15.0163 17.2095 15.0027 17.2046C14.9762 17.195 14.9525 17.1664 14.9341 17.1265C14.9297 17.1169 14.9255 17.1065 14.9215 17.0952C14.9187 17.1161 14.9173 17.135 14.917 17.1523C14.9161 17.199 14.923 17.2358 14.934 17.2704C14.9424 17.2969 14.9526 17.3208 14.9642 17.3479C14.9686 17.3582 14.9732 17.3689 14.9779 17.3805C14.9947 17.421 15.0117 17.4673 15.0231 17.5259C15.0299 17.5595 15.0303 17.6043 15.0018 17.6267C14.9892 17.6366 14.9753 17.6377 14.9635 17.6355C14.9516 17.6333 14.9396 17.6274 14.9283 17.6194C14.8985 17.5982 14.8658 17.5577 14.8388 17.501C14.8247 17.581 14.8246 17.6448 14.831 17.6976C14.8398 17.7697 14.8612 17.8242 14.882 17.8757C14.9109 17.9361 14.9287 18.0082 14.925 18.0692C14.9232 18.1005 14.9154 18.132 14.8978 18.1558C14.8797 18.1803 14.8549 18.192 14.8261 18.192C14.723 18.192 14.6705 18.0845 14.6374 17.9982C14.6303 17.9797 14.6237 17.9611 14.6176 17.9439C14.6164 17.9405 14.6153 17.9372 14.6141 17.934C14.6106 17.9242 14.6073 17.915 14.6041 17.9065V20.088H16.4341V17.9127C16.4309 17.9211 16.4276 17.9301 16.424 17.9398C16.4229 17.943 16.4217 17.9462 16.4205 17.9495C16.4144 17.9662 16.4078 17.9844 16.4007 18.0026C16.3674 18.0873 16.3149 18.192 16.2121 18.192C16.1834 18.192 16.1586 18.1802 16.1409 18.1552C16.1237 18.1309 16.1168 18.0992 16.1154 18.0684C16.1127 18.0079 16.1304 17.9363 16.1559 17.8766C16.1768 17.8248 16.1984 17.7701 16.2073 17.6976C16.2137 17.6448 16.2135 17.581 16.1995 17.501C16.1724 17.5577 16.1398 17.5982 16.1099 17.6194C16.0986 17.6274 16.0867 17.6333 16.0748 17.6355C16.063 17.6377 16.0491 17.6366 16.0365 17.6267C16.008 17.6043 16.0084 17.5595 16.0151 17.5258C16.0265 17.4673 16.0436 17.421 16.0603 17.3805C16.0651 17.3689 16.0697 17.3582 16.0741 17.3479C16.0856 17.3208 16.0959 17.2969 16.1042 17.2704C16.1152 17.2358 16.1222 17.199 16.1213 17.1523C16.121 17.135 16.1195 17.1161 16.1167 17.0952C16.1128 17.1065 16.1086 17.1169 16.1042 17.1265C16.0858 17.1664 16.062 17.195 16.0355 17.2046C16.022 17.2095 16.0075 17.2094 15.994 17.2025C15.9804 17.1955 15.9696 17.1825 15.9622 17.1662C15.9478 17.1346 15.9465 17.0918 15.955 17.0463L15.9551 17.0459C15.9643 16.999 15.9761 16.9585 15.9866 16.9224L15.9877 16.9187C15.9986 16.8809 16.0079 16.8486 16.0133 16.8147C16.0203 16.7709 16.0213 16.7222 16.0068 16.6573C16.0005 16.6812 15.994 16.7019 15.9875 16.7195C15.9799 16.7399 15.9719 16.7572 15.9634 16.7708C15.9551 16.7839 15.9444 16.7964 15.9311 16.8021C15.916 16.8086 15.9006 16.805 15.8881 16.7928C15.8771 16.782 15.8701 16.7663 15.8655 16.7515C15.8563 16.7217 15.8521 16.6801 15.8521 16.632C15.8521 16.627 15.8521 16.622 15.8521 16.6171C15.8522 16.488 15.8522 16.3611 15.8245 16.253C15.7968 16.1448 15.7409 16.0545 15.6214 16.0063L15.6023 15.9986L15.6003 15.972L15.6002 15.9716L15.6001 15.97C15.6 15.9684 15.5998 15.9661 15.5995 15.9631C15.5988 15.957 15.5979 15.9483 15.5964 15.9377C15.5935 15.9165 15.5888 15.8886 15.5816 15.8612C15.5742 15.8334 15.5651 15.8086 15.5541 15.7914C15.5436 15.7749 15.5333 15.768 15.5221 15.768C15.5088 15.768 15.4972 15.7758 15.4861 15.7923C15.4745 15.8094 15.4649 15.8341 15.4573 15.8618C15.4498 15.8891 15.4449 15.9168 15.4419 15.9379C15.4404 15.9485 15.4394 15.9572 15.4388 15.9632C15.4385 15.9662 15.4383 15.9685 15.4381 15.97L15.438 15.9716L15.438 15.972ZM15.6573 15.9377C15.6567 15.9333 15.6561 15.9285 15.6554 15.9233C15.6522 15.8996 15.6468 15.8674 15.6382 15.8348C15.6298 15.8027 15.6176 15.7675 15.5998 15.7396C15.5817 15.7112 15.556 15.688 15.5221 15.688C15.4875 15.688 15.4608 15.7102 15.4415 15.7388C15.4227 15.7666 15.4098 15.8019 15.401 15.8342C15.392 15.867 15.3863 15.8993 15.383 15.9231C15.3822 15.9284 15.3816 15.9334 15.381 15.9378C15.2576 15.9956 15.1923 16.0991 15.1593 16.2237C15.1261 16.3492 15.1261 16.4949 15.1261 16.6282V16.632C15.1261 16.6714 15.1229 16.6991 15.1187 16.7158C15.1147 16.7087 15.1099 16.6984 15.1046 16.6841C15.0921 16.6504 15.0785 16.599 15.0653 16.5266L15.0459 16.4205L15.0093 16.5181C14.9589 16.6525 14.9526 16.7457 14.9663 16.8314C14.9729 16.8725 14.9839 16.9106 14.9947 16.9476L14.9954 16.9502C15.0061 16.9869 15.0168 17.0236 15.0251 17.0659C15.0315 17.1003 15.0276 17.1185 15.0247 17.1248C15.0241 17.1263 15.0235 17.127 15.0232 17.1273C15.0231 17.1275 15.023 17.1276 15.0229 17.1277C15.0228 17.1278 15.0227 17.1278 15.0226 17.1278C15.0226 17.1279 15.0215 17.1285 15.0185 17.1274C15.012 17.1251 14.999 17.1146 14.9852 17.0846C14.9717 17.0553 14.9589 17.0102 14.9518 16.9462L14.9353 16.7969L14.8942 16.9375C14.8693 17.0224 14.8581 17.091 14.857 17.1502C14.8558 17.2101 14.865 17.2582 14.8787 17.3016C14.8886 17.3327 14.9014 17.3626 14.9135 17.391C14.9176 17.4005 14.9216 17.4099 14.9254 17.4191C14.941 17.457 14.9555 17.4967 14.9651 17.5461L14.9651 17.5463C14.9658 17.5496 14.9662 17.5523 14.9665 17.5546C14.9638 17.5534 14.9604 17.5515 14.9564 17.5487C14.9275 17.5282 14.8853 17.471 14.8604 17.3785L14.8323 17.2745L14.8039 17.3784C14.7665 17.5157 14.7611 17.6227 14.7718 17.7104C14.7824 17.7977 14.8087 17.8629 14.8297 17.915L14.8303 17.9163L14.8309 17.9177C14.8556 17.969 14.8675 18.0243 14.8652 18.0628C14.8641 18.0816 14.8599 18.0931 14.855 18.0997C14.8505 18.1058 14.8424 18.112 14.8261 18.112C14.7613 18.112 14.7237 18.0475 14.6908 17.9618C14.6842 17.9445 14.678 17.9272 14.672 17.91C14.6707 17.9066 14.6695 17.9031 14.6683 17.8997C14.6612 17.8796 14.6539 17.8595 14.6463 17.8419C14.6388 17.8245 14.63 17.807 14.6192 17.7936C14.6081 17.7797 14.593 17.768 14.5741 17.768H14.5441V20.168H16.4941V17.776H16.4641C16.4455 17.776 16.4305 17.7873 16.4193 17.8009C16.4085 17.8141 16.3996 17.8313 16.3921 17.8483C16.3845 17.8655 16.3772 17.8852 16.3701 17.9049C16.3688 17.9082 16.3676 17.9116 16.3664 17.9149C16.3603 17.9317 16.3542 17.9485 16.3476 17.9655C16.3148 18.0488 16.2773 18.112 16.2121 18.112C16.1959 18.112 16.1884 18.1058 16.1846 18.1003C16.1801 18.0941 16.1762 18.0828 16.1753 18.0636C16.1736 18.0243 16.1858 17.9681 16.2082 17.9159L16.2084 17.9154L16.2085 17.915C16.2296 17.8629 16.2559 17.7977 16.2665 17.7104C16.2772 17.6227 16.2718 17.5157 16.2343 17.3784L16.206 17.2745L16.1779 17.3785C16.1529 17.471 16.1108 17.5282 16.0818 17.5487C16.0778 17.5515 16.0745 17.5534 16.0717 17.5546C16.072 17.5523 16.0725 17.5496 16.0731 17.5463L16.0732 17.5461C16.0828 17.4967 16.0972 17.457 16.1129 17.4191C16.1167 17.4099 16.1207 17.4005 16.1247 17.391C16.1369 17.3626 16.1496 17.3327 16.1595 17.3016C16.1733 17.2582 16.1824 17.2101 16.1813 17.1502C16.1801 17.091 16.1689 17.0224 16.1441 16.9375L16.1029 16.7969L16.0864 16.9462C16.0794 17.0102 16.0666 17.0553 16.0531 17.0846C16.0392 17.1146 16.0262 17.1251 16.0197 17.1274C16.0168 17.1285 16.0157 17.1279 16.0156 17.1278C16.0156 17.1278 16.0155 17.1278 16.0154 17.1277C16.0153 17.1277 16.0152 17.1275 16.015 17.1273C16.0147 17.127 16.0142 17.1263 16.0135 17.1248C16.0107 17.1185 16.0068 17.1003 16.0132 17.0659C16.0215 17.0236 16.0322 16.9869 16.0428 16.9502L16.0436 16.9476C16.0544 16.9106 16.0654 16.8725 16.072 16.8314C16.0857 16.7457 16.0793 16.6525 16.029 16.5181L15.9923 16.4205L15.973 16.5266C15.9598 16.599 15.9461 16.6504 15.9337 16.6841C15.9284 16.6984 15.9236 16.7087 15.9196 16.7158C15.9154 16.6991 15.9121 16.6714 15.9121 16.632C15.9121 16.6255 15.9121 16.6189 15.9121 16.6123C15.9122 16.4874 15.9123 16.3483 15.8813 16.2271C15.849 16.1012 15.7836 15.9956 15.6573 15.9377ZM16.0714 17.5646C16.0714 17.5646 16.0713 17.5643 16.0712 17.5633C16.0714 17.5641 16.0715 17.5645 16.0714 17.5646ZM14.9668 17.5646C14.9668 17.5645 14.9668 17.5641 14.9671 17.5633C14.967 17.5643 14.9669 17.5646 14.9668 17.5646ZM14.9738 17.5565C14.9738 17.5565 14.9738 17.5565 14.9738 17.5565ZM14.2329 18.306C14.2639 18.306 14.2944 18.3186 14.3247 18.3411L14.3401 18.3525V20.184H14.1301V18.3539L14.1442 18.3421C14.1722 18.3188 14.2016 18.306 14.2329 18.306ZM14.1901 18.3996V20.104H14.2801V18.4007C14.2628 18.3905 14.2472 18.386 14.2329 18.386C14.219 18.386 14.2049 18.3902 14.1901 18.3996Z" fill="black"/>
<path d="M14.1725 19.52C14.3585 19.648 14.5445 19.8 14.5925 20.144H14.1725V19.52ZM16.7645 18.992V20.144H16.8845V18.992C16.8485 18.968 16.7945 18.96 16.7645 18.992Z" fill="white"/>
<path fill-rule="evenodd" clip-rule="evenodd" d="M16.8234 18.931C16.8495 18.9322 16.8762 18.9417 16.898 18.9562L16.9146 18.9673V20.184H16.7346V18.9728L16.7458 18.9608C16.7685 18.9366 16.7976 18.9299 16.8234 18.931ZM16.7946 19.0154V20.104H16.8546V19.0189C16.844 19.0144 16.8324 19.0115 16.8213 19.011C16.8105 19.0105 16.8016 19.0122 16.7946 19.0154ZM14.1426 19.4544L14.1863 19.4845C14.3729 19.6129 14.5713 19.7725 14.6221 20.1367L14.6287 20.184H14.1426V19.4544ZM14.2026 19.5863V20.104H14.5553C14.5051 19.8373 14.3618 19.7006 14.2026 19.5863Z" fill="black"/>
<path d="M16.8843 19.52C16.6983 19.64 16.5123 19.784 16.4643 20.136H16.8843V19.52ZM15.6483 16.824L15.7563 16.704V16.544C15.7203 16.544 15.6963 16.568 15.6663 16.624C15.6546 16.5727 15.6353 16.5249 15.6096 16.4837C15.5838 16.4425 15.5521 16.4086 15.5163 16.384C15.4799 16.4068 15.4474 16.4391 15.4206 16.479C15.3938 16.5188 15.3733 16.5654 15.3603 16.616C15.3303 16.56 15.3123 16.552 15.2703 16.536V16.696L15.3783 16.824H15.6483Z" fill="white"/>
<path fill-rule="evenodd" clip-rule="evenodd" d="M15.5169 16.3394L15.5301 16.3484C15.5695 16.3754 15.6044 16.4127 15.6327 16.4581C15.6498 16.4855 15.6643 16.5155 15.676 16.5474C15.6812 16.5409 15.6866 16.5351 15.6922 16.53C15.7117 16.5122 15.7326 16.504 15.7564 16.504H15.7864V16.7228L15.6592 16.864H15.367L15.2404 16.714V16.483L15.2786 16.4976C15.2989 16.5053 15.3179 16.5126 15.3355 16.5269C15.3411 16.5315 15.3464 16.5366 15.3515 16.5424C15.3642 16.5099 15.38 16.4796 15.3984 16.4522C15.4279 16.4084 15.4636 16.3729 15.5036 16.3478L15.5169 16.3394ZM15.5158 16.4292C15.4884 16.4489 15.4638 16.4747 15.4431 16.5056C15.4189 16.5415 15.4005 16.5835 15.3887 16.629L15.3698 16.7025L15.3359 16.6393C15.3222 16.6135 15.3129 16.6023 15.3042 16.5952C15.303 16.5941 15.3017 16.5932 15.3004 16.5922V16.6781L15.3898 16.784H15.6375L15.7264 16.6853V16.5958C15.7263 16.5958 15.7262 16.5959 15.726 16.596C15.7161 16.6051 15.705 16.6207 15.6908 16.6473L15.6553 16.7135L15.6376 16.6356C15.6272 16.5894 15.6098 16.5464 15.5866 16.5093C15.5666 16.4773 15.5426 16.4502 15.5158 16.4292ZM16.9144 19.4562V20.176H16.4284L16.4348 20.1289C16.4857 19.7562 16.6844 19.6046 16.8713 19.484L16.9144 19.4562ZM16.5014 20.096H16.8544V19.5844C16.6949 19.6919 16.5515 19.823 16.5014 20.096Z" fill="black"/>
<path d="M15.7083 17.216L15.7563 17.064V16.864C15.7203 16.864 15.6963 16.888 15.6663 16.944C15.6546 16.8926 15.6353 16.8449 15.6096 16.8037C15.5838 16.7624 15.5521 16.7286 15.5163 16.704C15.4799 16.7268 15.4474 16.7591 15.4206 16.7989C15.3938 16.8388 15.3733 16.8854 15.3603 16.936C15.3303 16.88 15.3123 16.872 15.2703 16.864V17.064L15.3183 17.216H15.7083Z" fill="white"/>
<path fill-rule="evenodd" clip-rule="evenodd" d="M15.5169 16.6594L15.5301 16.6684C15.5695 16.6954 15.6044 16.7327 15.6327 16.7781C15.6498 16.8054 15.6643 16.8354 15.676 16.8674C15.6812 16.8609 15.6866 16.8551 15.6922 16.85C15.7117 16.8322 15.7326 16.824 15.7564 16.824H15.7864V17.0721L15.7283 17.256H15.2984L15.2404 17.0721V16.8179L15.2746 16.8244C15.2956 16.8284 15.3156 16.8331 15.3344 16.847C15.3404 16.8515 15.3461 16.8567 15.3514 16.8626C15.3642 16.8301 15.3799 16.7997 15.3984 16.7722C15.4279 16.7284 15.4636 16.6929 15.5036 16.6678L15.5169 16.6594ZM15.5158 16.7492C15.4884 16.7689 15.4638 16.7947 15.4431 16.8256C15.4189 16.8615 15.4005 16.9034 15.3887 16.949L15.3698 17.0225L15.3359 16.9593C15.322 16.9332 15.3131 16.9228 15.3053 16.917C15.3037 16.9158 15.3021 16.9148 15.3004 16.9138V17.0559L15.3383 17.176H15.6884L15.7264 17.0559V16.9157C15.7263 16.9158 15.7262 16.9159 15.726 16.916C15.7161 16.9251 15.705 16.9406 15.6908 16.9672L15.6553 17.0335L15.6376 16.9556C15.6272 16.9093 15.6098 16.8664 15.5866 16.8293C15.5666 16.7973 15.5426 16.7702 15.5158 16.7492Z" fill="black"/>
<path d="M15.72 17.744L15.876 17.48V17.224C15.816 17.224 15.786 17.264 15.744 17.352C15.702 17.168 15.624 17.136 15.516 17.048C15.402 17.128 15.324 17.168 15.288 17.344C15.24 17.256 15.21 17.232 15.15 17.224V17.48L15.312 17.744H15.72Z" fill="white"/>
<path fill-rule="evenodd" clip-rule="evenodd" d="M15.5172 17.002L15.5318 17.0139C15.5468 17.0261 15.5618 17.0377 15.5766 17.0491C15.6118 17.076 15.6455 17.102 15.6739 17.1331C15.7053 17.1676 15.7314 17.2092 15.752 17.2675C15.7624 17.2505 15.7732 17.2357 15.7849 17.2235C15.8111 17.1964 15.8402 17.184 15.8761 17.184H15.9061V17.4939L15.7347 17.784H15.2979L15.1201 17.4943V17.1798L15.1531 17.1842C15.1857 17.1886 15.2134 17.1977 15.2398 17.2204C15.2531 17.2318 15.2654 17.246 15.2776 17.2633C15.2967 17.206 15.3222 17.1639 15.3538 17.1291C15.3883 17.0913 15.4303 17.0623 15.4752 17.0313C15.4841 17.0252 15.4931 17.019 15.5021 17.0126L15.5172 17.002ZM15.3919 17.1909C15.3588 17.2273 15.3335 17.2741 15.3171 17.3545L15.3006 17.4349L15.2639 17.3675C15.2405 17.3248 15.2237 17.3016 15.2074 17.2877C15.1992 17.2806 15.1905 17.2754 15.1801 17.2715V17.4657L15.3263 17.704H15.7056L15.8461 17.4662V17.2694C15.837 17.2731 15.8292 17.2789 15.8218 17.2866C15.8059 17.303 15.7902 17.3299 15.7694 17.3735L15.7344 17.4469L15.7154 17.3637C15.696 17.2788 15.6693 17.2316 15.6358 17.1949C15.6114 17.1681 15.5844 17.1474 15.5518 17.1224C15.5403 17.1136 15.5281 17.1042 15.5151 17.0939C15.5103 17.0972 15.5056 17.1004 15.5011 17.1036C15.4563 17.1346 15.4211 17.1589 15.3919 17.1909Z" fill="black"/>
<path d="M15.7623 18.264C15.7623 18.264 15.9543 18.048 15.9603 17.928V17.648C15.8883 17.656 15.8223 17.68 15.7683 17.8C15.7203 17.568 15.6483 17.504 15.5163 17.4C15.3783 17.504 15.3063 17.568 15.2643 17.8C15.2043 17.68 15.1443 17.656 15.0663 17.64V17.928C15.1167 18.0549 15.1837 18.1687 15.2643 18.264H15.7623Z" fill="white"/>
<path fill-rule="evenodd" clip-rule="evenodd" d="M15.5167 17.3538L15.5316 17.3656C15.5972 17.4172 15.6519 17.4619 15.6958 17.5248C15.7303 17.5742 15.7572 17.6334 15.7791 17.7132C15.7992 17.6838 15.8209 17.6622 15.844 17.6464C15.8813 17.6209 15.9204 17.6123 15.9579 17.6082L15.9904 17.6045V17.9293L15.9903 17.9307C15.9883 17.9719 15.9712 18.0153 15.9518 18.0536C15.9316 18.0932 15.9059 18.1332 15.881 18.1684C15.8559 18.2039 15.8312 18.2353 15.8127 18.2579C15.8035 18.2692 15.7958 18.2783 15.7904 18.2846C15.7877 18.2878 15.7856 18.2902 15.7841 18.2919L15.7824 18.2939L15.7819 18.2944L15.7818 18.2945L15.7817 18.2946C15.7817 18.2946 15.7817 18.2946 15.7624 18.264L15.7817 18.2946L15.7733 18.304H15.253L15.2445 18.2939C15.1612 18.1955 15.0919 18.0779 15.0399 17.9467L15.0364 17.938V17.5934L15.0709 17.6005C15.1107 17.6086 15.1494 17.6194 15.1863 17.6457C15.2094 17.6622 15.231 17.6841 15.2517 17.7137C15.2718 17.6338 15.2978 17.5744 15.3324 17.5248C15.3765 17.4616 15.4331 17.4169 15.5016 17.3652L15.5167 17.3538ZM15.7512 18.224C15.7563 18.2181 15.7635 18.2095 15.7722 18.1989C15.7899 18.1772 15.8136 18.1472 15.8373 18.1136C15.8611 18.0799 15.8845 18.0434 15.9021 18.0087C15.92 17.9734 15.9291 17.9453 15.9304 17.9265V17.6931C15.9091 17.6978 15.8895 17.7052 15.8713 17.7176C15.8447 17.7358 15.8186 17.7661 15.7941 17.8206L15.7581 17.9007L15.7395 17.8107C15.7164 17.699 15.6883 17.6313 15.6519 17.5793C15.6177 17.5302 15.5747 17.4929 15.516 17.4463C15.4546 17.4931 15.4105 17.5304 15.3763 17.5793C15.3403 17.6309 15.3137 17.698 15.2935 17.8094L15.2775 17.8983L15.2394 17.8222C15.2116 17.7666 15.1851 17.7356 15.158 17.7163C15.1392 17.7029 15.1193 17.6944 15.0964 17.6878V17.918C15.1429 18.0327 15.2036 18.1362 15.2759 18.224H15.7512Z" fill="black"/>
<path d="M15.84 19.224C15.84 19.224 16.104 18.848 16.11 18.696V18.264C16.014 18.28 15.918 18.368 15.846 18.552C15.786 18.192 15.69 17.944 15.516 17.768C15.336 17.944 15.24 18.192 15.18 18.552C15.108 18.368 15.018 18.28 14.922 18.264V18.696C14.94 18.848 15.186 19.224 15.186 19.224H15.84Z" fill="white"/>
<path fill-rule="evenodd" clip-rule="evenodd" d="M15.5164 17.7181L15.5342 17.7361C15.6996 17.9035 15.7962 18.1324 15.8581 18.4476C15.9283 18.3113 16.0156 18.2394 16.1064 18.2243L16.1401 18.2187V18.6971L16.14 18.6981C16.1381 18.747 16.1167 18.8066 16.0911 18.8633C16.0646 18.9219 16.0301 18.9847 15.9964 19.0418C15.9626 19.099 15.929 19.1513 15.904 19.1893C15.8914 19.2083 15.8809 19.2238 15.8736 19.2345C15.87 19.2399 15.8671 19.244 15.8651 19.2469L15.8628 19.2502L15.8622 19.251L15.862 19.2513C15.862 19.2513 15.862 19.2513 15.8401 19.224L15.862 19.2513L15.8531 19.264H15.1724L15.1635 19.2503L15.1861 19.224C15.1635 19.2503 15.1635 19.2503 15.1635 19.2503L15.1627 19.2491L15.1606 19.2459C15.1588 19.243 15.1561 19.2389 15.1527 19.2335C15.1458 19.2228 15.136 19.2074 15.1243 19.1884C15.1007 19.1504 15.0691 19.0982 15.0369 19.0411C15.0047 18.984 14.9716 18.9216 14.9452 18.8633C14.9196 18.8065 14.898 18.7486 14.8925 18.7023L14.8921 18.6992V18.2187L14.9258 18.2243C15.0169 18.2395 15.0997 18.3117 15.1683 18.447C15.2302 18.132 15.3273 17.903 15.4983 17.7358L15.5164 17.7181ZM15.1999 19.184H15.8269C15.8277 19.1829 15.8285 19.1818 15.8293 19.1806C15.8364 19.1702 15.8466 19.1551 15.8589 19.1365C15.8835 19.0992 15.9163 19.048 15.9493 18.9923C15.9823 18.9364 16.015 18.8766 16.0397 18.822C16.065 18.7661 16.0787 18.722 16.0801 18.6948V18.3127C16.0067 18.34 15.9322 18.4183 15.8727 18.5705L15.8346 18.6677L15.8168 18.5607C15.7598 18.2188 15.671 17.9855 15.5158 17.8185C15.3553 17.9855 15.2664 18.2186 15.2094 18.5607L15.1915 18.6677L15.1535 18.5705C15.0938 18.4178 15.0237 18.3401 14.9521 18.3129V18.6926C14.9562 18.7223 14.9719 18.7673 14.9966 18.822C15.0215 18.877 15.0532 18.937 15.0848 18.993C15.1163 19.0488 15.1473 19.1001 15.1705 19.1374C15.1821 19.156 15.1916 19.1712 15.1983 19.1816C15.1988 19.1824 15.1994 19.1832 15.1999 19.184Z" fill="black"/>
<path d="M15.84 19.792C15.84 19.792 16.062 19.496 16.11 19.368V18.936C16.014 18.952 15.918 19.04 15.846 19.216C15.8299 19.0704 15.7925 18.9305 15.7359 18.8042C15.6793 18.6779 15.6046 18.5678 15.516 18.48C15.336 18.656 15.24 18.856 15.18 19.216C15.108 19.04 15.018 18.952 14.922 18.936V19.368C14.982 19.496 15.186 19.792 15.186 19.792H15.84Z" fill="white"/>
<path fill-rule="evenodd" clip-rule="evenodd" d="M15.5162 18.4303L15.534 18.4479C15.6257 18.5388 15.7031 18.6529 15.7618 18.7837C15.8072 18.885 15.8406 18.9947 15.8612 19.1091C15.9309 18.9811 16.0171 18.9112 16.1064 18.8963L16.1401 18.8907V19.3775L16.1369 19.3859C16.1234 19.422 16.0988 19.4673 16.071 19.5133C16.0429 19.56 16.0102 19.6096 15.9793 19.655C15.9483 19.7003 15.9188 19.7416 15.8971 19.7716C15.8862 19.7865 15.8773 19.7987 15.8711 19.8071C15.868 19.8113 15.8655 19.8146 15.8639 19.8168L15.862 19.8194L15.8614 19.8202L15.8613 19.8203C15.8613 19.8203 15.8613 19.8203 15.8401 19.792L15.8613 19.8203L15.8525 19.832H15.1729L15.164 19.8191L15.1861 19.792C15.164 19.8191 15.164 19.8191 15.164 19.8191L15.1616 19.8157L15.155 19.806C15.1493 19.7976 15.141 19.7855 15.131 19.7705C15.1108 19.7406 15.0833 19.6994 15.0539 19.6542C14.9957 19.5647 14.9281 19.4563 14.8966 19.3892L14.8921 19.3795V18.8907L14.9258 18.8963C15.0166 18.9115 15.0994 18.9834 15.1679 19.1137C15.196 18.974 15.2312 18.8584 15.2775 18.7581C15.3339 18.6358 15.4059 18.5382 15.4983 18.4478L15.5162 18.4303ZM15.1993 19.752H15.8276C15.8278 19.7517 15.8281 19.7513 15.8284 19.751C15.8345 19.7427 15.8432 19.7307 15.854 19.716C15.8754 19.6864 15.9044 19.6457 15.9349 19.6011C15.9654 19.5564 15.9972 19.5081 16.0243 19.4632C16.0491 19.4219 16.0688 19.3854 16.0801 19.3582V18.9847C16.0065 19.012 15.932 19.0897 15.8724 19.2352L15.8295 19.3402L15.8164 19.2218C15.8009 19.0815 15.7649 18.9465 15.7103 18.8248C15.6595 18.7115 15.5936 18.6117 15.5159 18.5302C15.4372 18.6105 15.3766 18.696 15.3286 18.8C15.2769 18.912 15.2389 19.0475 15.2094 19.2247L15.192 19.3287L15.1538 19.2352C15.094 19.0892 15.0239 19.012 14.9521 18.9848V19.3563C14.9825 19.4181 15.0434 19.5159 15.0993 19.6018C15.1284 19.6466 15.1556 19.6874 15.1756 19.717C15.1855 19.7318 15.1937 19.7437 15.1993 19.752Z" fill="black"/>
<path d="M15.93 20.128C15.87 19.752 15.81 19.472 15.504 19.192C15.192 19.472 15.138 19.752 15.072 20.128H15.93Z" fill="white"/>
<path fill-rule="evenodd" clip-rule="evenodd" d="M15.5039 19.1436L15.5207 19.159C15.6771 19.3021 15.7722 19.4467 15.8355 19.6052C15.8984 19.7627 15.9291 19.9317 15.9591 20.1197L15.9668 20.168H15.0339L15.0426 20.1189C15.0754 19.9315 15.1062 19.7625 15.169 19.6052C15.2324 19.4467 15.3275 19.302 15.487 19.1588L15.5039 19.1436ZM15.1097 20.088H15.8926C15.8651 19.9208 15.836 19.7766 15.7825 19.6428C15.7266 19.5028 15.6431 19.3722 15.5036 19.2406C15.3615 19.3722 15.2779 19.5028 15.222 19.6428C15.1685 19.7766 15.1395 19.9206 15.1097 20.088Z" fill="black"/>
<path d="M16.092 20.336V19.792C15.948 19.872 15.822 19.976 15.774 20.096C15.726 19.792 15.624 19.664 15.498 19.48C15.372 19.664 15.288 19.8 15.234 20.096C15.186 19.976 15.06 19.864 14.922 19.792V20.336H16.092Z" fill="white"/>
<path fill-rule="evenodd" clip-rule="evenodd" d="M15.4981 19.4207L15.5202 19.4531C15.53 19.4673 15.5396 19.4813 15.5492 19.495C15.6504 19.6415 15.7375 19.7675 15.7876 20.002C15.8131 19.9638 15.8448 19.9285 15.8801 19.8961C15.9378 19.843 16.0073 19.7958 16.0806 19.7551L16.1221 19.732V20.376H14.8921V19.7334L14.933 19.7548C15.0039 19.7918 15.0722 19.8392 15.1292 19.8935C15.1646 19.927 15.1964 19.9638 15.2218 20.0032C15.2779 19.7535 15.3607 19.6213 15.4759 19.4531L15.4981 19.4207ZM15.4982 19.5394C15.3861 19.7052 15.3124 19.8363 15.2632 20.1055L15.2446 20.2074L15.2076 20.1149C15.1866 20.0624 15.1472 20.0087 15.0944 19.9586C15.0528 19.9191 15.004 19.8829 14.9521 19.8521V20.296H16.0621V19.8531C16.0073 19.8862 15.9568 19.9228 15.9141 19.962C15.8605 20.0112 15.8214 20.0628 15.8006 20.1149L15.7617 20.2119L15.7447 20.1043C15.7022 19.8347 15.6169 19.7113 15.5045 19.5485C15.5024 19.5454 15.5003 19.5424 15.4982 19.5394Z" fill="black"/>
<path d="M12.6421 24.744H27.3601V25.744H12.6421V24.744ZM12.2521 25.744H27.7501V26.744H12.2521V25.744ZM13.4161 23.24H26.5801V23.888H13.4161V23.24Z" fill="white"/>
<path fill-rule="evenodd" clip-rule="evenodd" d="M13.3862 23.2H26.6102V23.928H13.3862V23.2ZM13.4462 23.28V23.848H26.5502V23.28H13.4462ZM12.6122 24.704H27.3902V25.704H27.7802V26.784H12.2222V25.704H12.6122V24.704ZM12.6722 25.704H27.3302V24.784H12.6722V25.704ZM12.2822 25.784V26.704H27.7202V25.784H12.2822Z" fill="black"/>
<path d="M13.0322 23.888H26.9762V24.736H13.0322V23.888ZM13.6442 22.744H26.3642V23.24H13.6442V22.744Z" fill="white"/>
<path fill-rule="evenodd" clip-rule="evenodd" d="M13.6136 22.704H26.3936V23.28H13.6136V22.704ZM13.6736 22.784V23.2H26.3336V22.784H13.6736ZM13.0016 23.848H27.0056V24.776H13.0016V23.848ZM13.0616 23.928V24.696H26.9456V23.928H13.0616Z" fill="black"/>
<path d="M15.0238 22.744H15.9838V26.744H15.0238V22.744Z" fill="white"/>
<path fill-rule="evenodd" clip-rule="evenodd" d="M14.9939 22.704H16.0139V26.784H14.9939V22.704ZM15.0539 22.784V26.704H15.9539V22.784H15.0539Z" fill="black"/>
<path d="M15.2404 22.744H15.7744V26.744H15.2344L15.2404 22.744ZM19.5004 22.744H20.4604V26.744H19.5004V22.744Z" fill="white"/>
<path fill-rule="evenodd" clip-rule="evenodd" d="M15.2099 22.704H15.8038V26.784H15.2037L15.2099 22.704ZM15.2697 22.784L15.2639 26.704H15.7438V22.784H15.2697ZM19.4698 22.704H20.4898V26.784H19.4698V22.704ZM19.5298 22.784V26.704H20.4298V22.784H19.5298Z" fill="black"/>
<path d="M19.7216 22.744H20.2616V26.744H19.7216V22.744ZM24.0116 22.744H24.9716V26.744H24.0116V22.744Z" fill="white"/>
<path fill-rule="evenodd" clip-rule="evenodd" d="M19.6918 22.704H20.2918V26.784H19.6918V22.704ZM19.7518 22.784V26.704H20.2318V22.784H19.7518ZM23.9818 22.704H25.0018V26.784H23.9818V22.704ZM24.0418 22.784V26.704H24.9418V22.784H24.0418Z" fill="black"/>
<path d="M24.222 22.744H24.762V26.744H24.222V22.744Z" fill="white"/>
<path fill-rule="evenodd" clip-rule="evenodd" d="M24.1923 22.704H24.7923V26.784H24.1923V22.704ZM24.2523 22.784V26.704H24.7323V22.784H24.2523Z" fill="black"/>
<path fill-rule="evenodd" clip-rule="evenodd" d="M25.7995 22.376H14.2195V22.296H25.7995V22.376ZM15.7795 23.28H15.2275V23.2H15.7795V23.28ZM20.2435 23.28H19.7275V23.2H20.2435V23.28ZM24.7675 23.28H24.2155V23.2H24.7675V23.28ZM15.7795 23.776H15.2275V23.696H15.7795V23.776ZM20.2435 23.776H19.7275V23.696H20.2435V23.776ZM24.7675 23.776H24.2155V23.696H24.7675V23.776ZM15.7795 24.28H15.2275V24.2H15.7795V24.28ZM20.2435 24.28H19.7275V24.2H20.2435V24.28ZM24.7675 24.28H24.2155V24.2H24.7675V24.28ZM15.7795 24.776H15.2275V24.696H15.7795V24.776ZM20.2435 24.776H19.7275V24.696H20.2435V24.776ZM24.7675 24.776H24.2155V24.696H24.7675V24.776ZM15.7795 25.28H15.2275V25.2H15.7795V25.28ZM20.2435 25.28H19.7275V25.2H20.2435V25.28ZM24.7675 25.28H24.2155V25.2H24.7675V25.28ZM15.7795 25.776H15.2275V25.696H15.7795V25.776ZM20.2435 25.776H19.7275V25.696H20.2435V25.776ZM24.7675 25.776H24.2155V25.696H24.7675V25.776ZM15.7795 26.28H15.2275V26.2H15.7795V26.28ZM20.2435 26.28H19.7275V26.2H20.2435V26.28ZM24.7675 26.28H24.2155V26.2H24.7675V26.28Z" fill="black"/>
</g>
<rect x="2" y="2" width="36" height="36" rx="18" stroke="white" stroke-width="4"/>
<defs>
<clipPath id="clip0_90_25143">
<rect x="4" y="4" width="32" height="32" rx="16" fill="white"/>
</clipPath>
</defs>
</svg>
