<svg width="40" height="40" viewBox="0 0 40 40" fill="none" xmlns="http://www.w3.org/2000/svg">
<g clip-path="url(#clip0_90_25092)">
<path fill-rule="evenodd" clip-rule="evenodd" d="M0.348389 4H39.5265V23.1563H0.348389V4Z" fill="#E73E2D"/>
<path fill-rule="evenodd" clip-rule="evenodd" d="M17.6265 21.6313C16.7171 20.6813 15.0203 21.0063 14.739 18.425C16.0375 19.7688 15.8031 18.35 17.739 19.6313L17.6265 21.6313Z" fill="#FEC74A"/>
<path fill-rule="evenodd" clip-rule="evenodd" d="M14.6855 18.3022L14.7636 18.383C15.0863 18.717 15.3107 18.876 15.4949 18.9493C15.6784 19.0223 15.825 19.0118 15.9978 18.9985L16.0007 18.9983C16.1734 18.985 16.3696 18.97 16.6437 19.039C16.9188 19.1083 17.2707 19.2619 17.7569 19.5837L17.7809 19.5996L17.6608 21.7344L17.6021 21.6731C17.38 21.441 17.1084 21.2855 16.8176 21.1423C16.7424 21.1053 16.6658 21.0691 16.5886 21.0325C16.3689 20.9286 16.1439 20.8221 15.9304 20.6879C15.6407 20.5058 15.3681 20.2705 15.1503 19.915C14.9322 19.5591 14.7709 19.086 14.6998 18.4326L14.6855 18.3022ZM14.7944 18.5478C14.8701 19.1173 15.0188 19.5325 15.212 19.8477C15.4198 20.1869 15.6811 20.4137 15.9644 20.5918C16.174 20.7235 16.3935 20.8274 16.612 20.9308C16.69 20.9677 16.7679 21.0046 16.8452 21.0427C17.1129 21.1745 17.3719 21.3201 17.5924 21.5306L17.6974 19.663C17.2282 19.355 16.8905 19.2093 16.6289 19.1434C16.3644 19.0768 16.1762 19.0913 16.0044 19.1044L16.0024 19.1046C15.8296 19.1179 15.6703 19.13 15.4721 19.0511C15.291 18.979 15.0798 18.8321 14.7944 18.5478Z" fill="#D8AA3F"/>
<path fill-rule="evenodd" clip-rule="evenodd" d="M17.8705 20.4626C17.219 19.1876 15.5268 18.8001 15.8549 16.2313C16.7877 18.0376 16.8861 16.5876 18.4424 18.6001L17.8705 20.4626Z" fill="#FEC74A"/>
<path fill-rule="evenodd" clip-rule="evenodd" d="M15.8321 16.0934L15.8878 16.2011C16.1196 16.65 16.2974 16.8921 16.4563 17.0364C16.6147 17.1802 16.7569 17.2294 16.9248 17.2868L16.9264 17.2873C17.0945 17.3448 17.2854 17.4101 17.5318 17.5881C17.7785 17.7664 18.0793 18.0564 18.4702 18.5618L18.4895 18.5869L17.8794 20.574L17.8376 20.4924C17.6784 20.1809 17.4547 19.9218 17.21 19.6665C17.1474 19.6012 17.0833 19.536 17.0186 19.4702C16.8323 19.2807 16.6415 19.0867 16.4682 18.8708C16.2338 18.5789 16.0283 18.2435 15.9027 17.8161C15.777 17.3884 15.7326 16.8726 15.8157 16.2223L15.8321 16.0934ZM15.8792 16.3698C15.8197 16.9424 15.8655 17.3983 15.9769 17.7774C16.0967 18.185 16.2934 18.5078 16.5226 18.7932C16.6927 19.0051 16.8789 19.1944 17.0643 19.383C17.1296 19.4494 17.1948 19.5157 17.2592 19.5828C17.4846 19.818 17.6986 20.0626 17.8611 20.3532L18.3953 18.6132C18.0176 18.1279 17.7284 17.851 17.4938 17.6815C17.256 17.5098 17.0729 17.4471 16.9058 17.39L16.9044 17.3895C16.7368 17.3322 16.5824 17.2794 16.4115 17.1243C16.2551 16.9823 16.087 16.7568 15.8792 16.3698Z" fill="#D8AA3F"/>
<path fill-rule="evenodd" clip-rule="evenodd" d="M18.1657 19.625C17.9313 18.1188 16.4782 16.9 17.5188 14.6875C17.8563 16.8375 18.3626 15.55 19.2251 18.2L18.1657 19.625Z" fill="#FEC74A"/>
<path fill-rule="evenodd" clip-rule="evenodd" d="M17.5376 14.5477L17.5578 14.6767C17.6417 15.2111 17.7354 15.5266 17.84 15.7419C17.9442 15.9563 18.0608 16.0749 18.1991 16.2139L18.2026 16.2175C18.3405 16.3561 18.4973 16.5138 18.673 16.8021C18.8499 17.0924 19.045 17.5134 19.2617 18.1789L19.2724 18.2119L18.1418 19.7328L18.1267 19.6359C18.0695 19.2679 17.9374 18.9154 17.7848 18.5554C17.7457 18.4634 17.7053 18.3707 17.6645 18.2773C17.5468 18.0075 17.4261 17.731 17.3279 17.4432C17.1952 17.0541 17.1015 16.6392 17.1081 16.1796C17.1147 15.7197 17.2217 15.2194 17.4851 14.6594L17.5376 14.5477ZM18.1883 19.5192L19.1778 18.1883C18.9675 17.548 18.7794 17.1452 18.6112 16.8691C18.4416 16.5908 18.2911 16.4395 18.154 16.3017L18.1511 16.2988C18.0128 16.1597 17.8857 16.0314 17.7731 15.7997C17.6702 15.588 17.5808 15.2931 17.5012 14.8289C17.282 15.3288 17.1936 15.7742 17.1878 16.1817C17.1815 16.62 17.2707 17.0188 17.4004 17.3992C17.4968 17.6818 17.6145 17.9515 17.7317 18.2199C17.7729 18.3143 17.814 18.4086 17.8541 18.5031C17.9947 18.8346 18.122 19.1689 18.1883 19.5192Z" fill="#D8AA3F"/>
<path fill-rule="evenodd" clip-rule="evenodd" d="M18.8454 18.85C18.9719 17.3187 17.8704 15.5625 19.3657 13.8875C19.1969 16.0687 19.9751 15.0562 20.186 17.925L18.8454 18.85V18.85Z" fill="#FEC74A"/>
<path fill-rule="evenodd" clip-rule="evenodd" d="M19.4155 13.7625L19.4054 13.893C19.3634 14.4352 19.3808 14.7735 19.4315 15.0212C19.482 15.268 19.5662 15.4288 19.6661 15.6179L19.6682 15.6219C19.7679 15.8106 19.8812 16.0249 19.9823 16.3714C20.0839 16.7197 20.1727 17.1993 20.2257 17.9199L20.2283 17.9557L18.8637 18.8972L18.8454 18.85L18.8058 18.8442C18.8367 18.4702 18.7928 18.0802 18.7308 17.6748C18.7147 17.5697 18.6974 17.4634 18.6799 17.3561C18.6305 17.0524 18.5798 16.7413 18.5527 16.4288C18.516 16.0042 18.5222 15.5712 18.6337 15.137C18.7454 14.7025 18.9616 14.2709 19.3401 13.8469L19.4155 13.7625ZM18.8915 18.7585L20.1437 17.8944C20.091 17.2006 20.0047 16.7411 19.908 16.4099C19.8104 16.0755 19.7017 15.8698 19.6026 15.6822L19.6009 15.6791C19.501 15.49 19.4092 15.3157 19.3546 15.0492C19.3048 14.8056 19.2867 14.4885 19.3168 14.0144C18.994 14.3995 18.808 14.7865 18.7091 15.1715C18.6027 15.5856 18.596 16.0014 18.6319 16.4166C18.6584 16.7235 18.7079 17.027 18.7571 17.3291C18.7747 17.4374 18.7924 17.5455 18.8089 17.6536C18.866 18.0269 18.9096 18.3975 18.8915 18.7585Z" fill="#D8AA3F"/>
<path fill-rule="evenodd" clip-rule="evenodd" d="M19.4546 18.2313C20.0358 16.9 19.5718 14.7 21.4515 13.9875C20.6265 15.8813 21.6483 15.3813 20.9593 18.1125L19.4546 18.2313V18.2313Z" fill="#FEC74A"/>
<path fill-rule="evenodd" clip-rule="evenodd" d="M21.5355 13.9005L21.4859 14.0143C21.2809 14.485 21.1927 14.8023 21.1628 15.0552C21.133 15.3072 21.1604 15.4993 21.1935 15.7259L21.1942 15.7306C21.2273 15.9567 21.2648 16.2138 21.2507 16.5848C21.2364 16.9578 21.1701 17.4435 20.9971 18.1295L20.9885 18.1635L19.457 18.2844L19.4546 18.2313L19.4202 18.2046C19.5622 17.8793 19.6411 17.4991 19.7086 17.0953C19.7258 16.9925 19.7422 16.888 19.7588 16.7826C19.807 16.4767 19.8564 16.1632 19.9281 15.8614C20.025 15.4541 20.1638 15.0627 20.3991 14.7277C20.6347 14.3924 20.9648 14.1168 21.4406 13.9365L21.5355 13.9005ZM19.5245 18.1726L20.93 18.0617C21.0951 17.4001 21.1576 16.934 21.1711 16.5794C21.1847 16.2214 21.1487 15.9747 21.1158 15.7499L21.1153 15.7462C21.0822 15.5196 21.0519 15.311 21.0841 15.0387C21.1135 14.79 21.1945 14.4916 21.3676 14.0767C20.9547 14.2519 20.6659 14.5034 20.4573 14.8004C20.2328 15.1199 20.0988 15.4953 20.0041 15.8935C19.9336 16.1897 19.8855 16.4956 19.8375 16.8001C19.8208 16.9065 19.804 17.0128 19.7864 17.1184C19.7243 17.4902 19.6509 17.8525 19.5245 18.1726Z" fill="#D8AA3F"/>
<path fill-rule="evenodd" clip-rule="evenodd" d="M20.3314 18.3938C21.2033 17.3813 21.2877 15.0938 23.2377 15.2126C22.0049 16.6626 23.097 16.6188 21.7845 18.9251L20.3314 18.3938Z" fill="#FEC74A"/>
<path fill-rule="evenodd" clip-rule="evenodd" d="M20.4115 18.368L21.7687 18.8642C22.085 18.3048 22.2565 17.8879 22.3546 17.5564C22.454 17.2203 22.4786 16.9699 22.5011 16.7416L22.5013 16.7397C22.5238 16.5109 22.5445 16.3002 22.6394 16.0556C22.7262 15.8317 22.8738 15.5825 23.1368 15.2616C22.704 15.2533 22.3706 15.37 22.1022 15.5638C21.8134 15.7723 21.597 16.0722 21.4121 16.4102C21.2755 16.66 21.1575 16.9279 21.0399 17.1947C20.9978 17.2904 20.9557 17.3859 20.9129 17.4803C20.7649 17.8066 20.6085 18.1188 20.4115 18.368ZM22.0642 15.4704C22.3673 15.2515 22.7455 15.1294 23.2392 15.1594L23.3376 15.1654L23.2637 15.2523C22.9573 15.6127 22.7985 15.8768 22.7102 16.1044C22.6222 16.3311 22.6028 16.5252 22.5802 16.7545L22.58 16.7565C22.5574 16.9861 22.5317 17.2471 22.4287 17.5954C22.3256 17.9439 22.1456 18.3779 21.816 18.9571L21.7997 18.9857L20.2489 18.4188L20.3049 18.3537C20.518 18.1063 20.6841 17.7796 20.8447 17.4253C20.8864 17.3334 20.9278 17.2395 20.9695 17.1448C21.0876 16.8767 21.2086 16.602 21.3478 16.3476C21.5367 16.002 21.7615 15.689 22.0642 15.4704Z" fill="#D8AA3F"/>
<path fill-rule="evenodd" clip-rule="evenodd" d="M21.1095 18.9937C22.1642 18.3625 22.7454 16.2125 24.5829 17.0875C23.0829 17.9937 24.1376 18.3812 22.3798 20.0687L21.1095 18.9937V18.9937Z" fill="#FEC74A"/>
<path fill-rule="evenodd" clip-rule="evenodd" d="M21.1094 18.9937L21.088 19.0386L22.3811 20.1328L22.403 20.1118C22.8445 19.688 23.1111 19.3441 23.2857 19.0515C23.4599 18.7596 23.5415 18.5205 23.6133 18.3099L23.6142 18.3071C23.686 18.0965 23.7473 17.9183 23.8814 17.7355C24.0161 17.552 24.2264 17.3611 24.5992 17.1359L24.689 17.0816L24.5962 17.0374C24.131 16.8159 23.7428 16.7848 23.4053 16.8753C23.0682 16.9658 22.7849 17.1769 22.5286 17.4333C22.3394 17.6226 22.1631 17.8386 21.991 18.0495C21.9309 18.1231 21.8714 18.196 21.812 18.267C21.581 18.5431 21.3507 18.791 21.093 18.9453L21.1094 18.9937ZM21.8652 18.3461C21.6524 18.6005 21.4345 18.8383 21.1916 19.0004L22.3782 20.0046C22.8025 19.5944 23.0573 19.2636 23.2234 18.9854C23.3915 18.7037 23.4697 18.4743 23.541 18.2649L23.5416 18.2632C23.6134 18.0526 23.6795 17.8586 23.8245 17.6612C23.9569 17.4807 24.1532 17.2997 24.4758 17.0951C24.0641 16.9181 23.72 16.8993 23.4211 16.9795C23.0995 17.0658 22.827 17.2676 22.5764 17.5183C22.3906 17.7041 22.2186 17.9149 22.0474 18.1247C21.9868 18.199 21.9262 18.2732 21.8652 18.3461Z" fill="#D8AA3F"/>
<path fill-rule="evenodd" clip-rule="evenodd" d="M21.7609 19.9374C22.9046 19.7249 23.9171 17.8749 25.4968 19.4124C23.8702 19.7187 24.7937 20.4812 22.7546 21.4437L21.7609 19.9312V19.9374Z" fill="#FEC74A"/>
<path fill-rule="evenodd" clip-rule="evenodd" d="M21.7491 19.9933L22.7429 21.5058L22.7683 21.4938C23.2805 21.252 23.6086 21.0219 23.8379 20.8068C24.0663 20.5925 24.1953 20.3943 24.3089 20.2199L24.3109 20.2168C24.4246 20.0422 24.5214 19.8946 24.6887 19.77C24.8567 19.645 25.0985 19.5412 25.5028 19.465L25.6 19.4467L25.5207 19.3695C25.1208 18.9803 24.7546 18.8035 24.4114 18.763C24.0685 18.7226 23.7519 18.8188 23.4518 18.9689C23.2293 19.0802 23.0137 19.2224 22.8033 19.3612C22.731 19.4089 22.6593 19.4562 22.5882 19.5016C22.3165 19.6753 22.0514 19.8239 21.7806 19.8799L21.7214 19.7899V19.9985L21.7491 19.9933ZM22.6226 19.5974C22.3659 19.7616 22.1079 19.9082 21.8422 19.9737L22.7672 21.3815C23.2599 21.1465 23.574 20.9245 23.7921 20.7199C24.0125 20.5131 24.1363 20.3229 24.2492 20.1494L24.2507 20.1471C24.3644 19.9725 24.4691 19.8119 24.6499 19.6773C24.815 19.5543 25.0413 19.4546 25.3933 19.3795C25.0351 19.0531 24.7085 18.9047 24.4044 18.8689C24.0774 18.8303 23.7732 18.9217 23.4798 19.0684C23.2613 19.1777 23.051 19.3164 22.8416 19.4545C22.7686 19.5026 22.6957 19.5507 22.6226 19.5974Z" fill="#D8AA3F"/>
<path fill-rule="evenodd" clip-rule="evenodd" d="M25.839 20.225L20.5844 20.3812L20.8047 22.2687L25.839 20.225Z" fill="#FEC74A"/>
<path fill-rule="evenodd" clip-rule="evenodd" d="M25.8385 20.1719L25.851 20.2758L20.7727 22.3374L20.5383 20.3295L25.8385 20.1719ZM20.6311 20.433L20.8373 22.2001L25.5505 20.2867L20.6311 20.433Z" fill="#D8AA3F"/>
<path fill-rule="evenodd" clip-rule="evenodd" d="M25.0656 17.65L20.2 20.1438L21.0109 22.225L25.0656 17.65V17.65Z" fill="#FEC74A"/>
<path fill-rule="evenodd" clip-rule="evenodd" d="M25.0513 17.6005L25.0656 17.6501L25.0913 17.6906L20.9985 22.3086L20.144 20.1155L25.0513 17.6005ZM24.8601 17.8123L20.2559 20.1721L21.0232 22.1415L24.8601 17.8123Z" fill="#D8AA3F"/>
<path fill-rule="evenodd" clip-rule="evenodd" d="M21.2033 21.5437L23.7205 15.4437L19.858 20.2375L21.2033 21.5437Z" fill="#FEC74A"/>
<path fill-rule="evenodd" clip-rule="evenodd" d="M23.6933 15.4048L23.7553 15.4693L21.2163 21.6221L19.7954 20.2424L23.6933 15.4048ZM19.9204 20.2324L21.1901 21.4652L23.5658 15.7081L19.9204 20.2324Z" fill="#D8AA3F"/>
<path fill-rule="evenodd" clip-rule="evenodd" d="M21.1515 21.0376L21.9578 14.2001L19.4359 20.2751L21.1515 21.0376Z" fill="#FEC74A"/>
<path fill-rule="evenodd" clip-rule="evenodd" d="M21.923 14.1743L21.9972 14.2083L21.1837 21.1078L19.3779 20.3052L21.923 14.1743ZM19.4941 20.2449L21.1196 20.9673L21.8835 14.489L19.4941 20.2449Z" fill="#D8AA3F"/>
<path fill-rule="evenodd" clip-rule="evenodd" d="M20.847 20.4813L20.0033 13.5938L19.0658 20.5125L20.847 20.4813Z" fill="#FEC74A"/>
<path fill-rule="evenodd" clip-rule="evenodd" d="M19.9642 13.5844L20.0427 13.5852L20.8939 20.5336L19.0181 20.5665L19.9642 13.5844ZM19.1137 20.4586L20.8003 20.429L20.0014 13.9072L19.1137 20.4586Z" fill="#D8AA3F"/>
<path fill-rule="evenodd" clip-rule="evenodd" d="M20.4109 19.8938L17.9594 14.1438L18.8969 21.1313L20.4109 19.8938Z" fill="#FEC74A"/>
<path fill-rule="evenodd" clip-rule="evenodd" d="M17.9203 14.1532L17.9941 14.1176L20.4648 19.9122L18.8681 21.2173L17.9203 14.1532ZM18.0396 14.4392L18.926 21.0453L20.3574 19.8754L18.0396 14.4392Z" fill="#D8AA3F"/>
<path fill-rule="evenodd" clip-rule="evenodd" d="M20.0313 19.85L16.2297 15.5687L18.9297 21.6937L20.0313 19.85V19.85Z" fill="#FEC74A"/>
<path fill-rule="evenodd" clip-rule="evenodd" d="M16.1953 15.5956L16.2554 15.5281L20.0569 19.8093L20.0312 19.8499L20.0624 19.883L18.9247 21.7872L16.1953 15.5956ZM19.9759 19.8572L16.3823 15.8101L18.9346 21.6001L19.9759 19.8572Z" fill="#D8AA3F"/>
<path fill-rule="evenodd" clip-rule="evenodd" d="M14.8937 17.6813L18.9718 22.175L19.5999 19.825L14.8937 17.6813Z" fill="#FEC74A"/>
<path fill-rule="evenodd" clip-rule="evenodd" d="M14.8683 17.7222L14.9065 17.631L19.651 19.7921L18.9902 22.2642L14.8683 17.7222ZM15.0871 17.8255L18.9533 22.0858L19.5488 19.8579L15.0871 17.8255Z" fill="#D8AA3F"/>
<path fill-rule="evenodd" clip-rule="evenodd" d="M18.9298 20.3063L14.1345 20.2125L18.9111 22.3375L18.9298 20.3063V20.3063Z" fill="#FEC74A"/>
<path fill-rule="evenodd" clip-rule="evenodd" d="M14.1217 20.2629L14.1349 20.1594L18.9302 20.2532L18.9296 20.3063L18.9695 20.3069L18.95 22.411L14.1217 20.2629ZM18.8893 20.3586L14.3909 20.2707L18.8717 22.2641L18.8893 20.3586Z" fill="#D8AA3F"/>
<path fill-rule="evenodd" clip-rule="evenodd" d="M22.8202 21.45C22.8358 21.9666 22.773 22.482 22.6356 22.9654C22.4981 23.4488 22.2888 23.8902 22.0202 24.263C21.7516 24.6359 21.4293 24.9326 21.0726 25.1352C20.7159 25.3379 20.3321 25.4423 19.9444 25.4423C19.5567 25.4423 19.1729 25.3379 18.8162 25.1352C18.4595 24.9326 18.1372 24.6359 17.8686 24.263C17.6 23.8902 17.3907 23.4488 17.2533 22.9654C17.1158 22.482 17.053 21.9666 17.0686 21.45C17.0986 20.4598 17.4147 19.5235 17.9507 18.8371C18.4868 18.1507 19.2012 17.7673 19.9444 17.7673C20.6876 17.7673 21.402 18.1507 21.9381 18.8371C22.4741 19.5235 22.7902 20.4598 22.8202 21.45V21.45Z" fill="#FEC74A"/>
<path fill-rule="evenodd" clip-rule="evenodd" d="M19.9445 17.8205C19.2115 17.8205 18.507 18.1985 17.9784 18.8754C17.4498 19.5524 17.1381 20.4757 17.1085 21.4522C17.0931 21.9616 17.155 22.4699 17.2906 22.9466C17.4261 23.4233 17.6325 23.8586 17.8974 24.2263C18.1623 24.594 18.4801 24.8865 18.8319 25.0864C19.1837 25.2862 19.5621 25.3892 19.9445 25.3892C20.3268 25.3892 20.7053 25.2862 21.057 25.0864C21.4088 24.8865 21.7267 24.594 21.9915 24.2263C22.2564 23.8586 22.4628 23.4233 22.5984 22.9466C22.7339 22.4699 22.7959 21.9616 22.7804 21.4522C22.7509 20.4757 22.4391 19.5524 21.9105 18.8754C21.3819 18.1985 20.6774 17.8205 19.9445 17.8205ZM17.9232 18.7988C18.4667 18.1029 19.1909 17.7142 19.9445 17.7142C20.698 17.7142 21.4223 18.1029 21.9657 18.7988C22.5092 19.4948 22.8296 20.444 22.8601 21.4479C22.8759 21.9716 22.8122 22.4942 22.6729 22.9843C22.5335 23.4744 22.3213 23.9218 22.049 24.2999C21.7767 24.6779 21.4499 24.9787 21.0883 25.1841C20.7266 25.3896 20.3376 25.4955 19.9445 25.4955C19.5514 25.4955 19.1623 25.3896 18.8007 25.1841C18.439 24.9787 18.1122 24.6779 17.8399 24.2999C17.5676 23.9218 17.3554 23.4744 17.216 22.9843C17.0767 22.4942 17.013 21.9716 17.0289 21.4479C17.0593 20.444 17.3797 19.4948 17.9232 18.7988Z" fill="#D8AA3F"/>
<path fill-rule="evenodd" clip-rule="evenodd" d="M0.311206 22.9625H39.6815V36H0.306519L0.311206 22.9625Z" fill="#005989"/>
<path fill-rule="evenodd" clip-rule="evenodd" d="M0.287549 32.375C1.0188 32.825 2.0688 33.9563 3.1938 33.9563C5.0688 33.9375 5.11567 32.2438 7.0188 32.325C8.92661 32.3875 8.57974 34.1751 11.1532 34.1688C13.2813 34.1563 13.9657 32 15.8032 32.2563C17.1625 32.1625 17.7157 34.3 19.8016 34.3313C21.9672 34.3938 22.7594 32 24.1141 32.2C25.5672 32.2 26.036 34.1251 28.0657 34.1376C30.6532 34.1563 31.1079 32.1375 32.7204 32.2625C33.8735 32.2313 34.7829 33.7438 36.4704 33.7813C37.811 33.8125 38.9407 32.4563 39.7047 31.9688L39.7375 29.6688C38.9407 30.0626 37.75 31.3625 36.5641 31.375C34.8485 31.4625 33.7938 29.875 32.6032 29.8938C31.1782 29.9125 30.611 31.85 28.1969 31.85C25.9844 31.85 25.4782 29.8938 24.0532 29.8938C22.661 29.9063 22.2344 32.0188 19.8204 31.9813C17.8516 31.95 17.0875 29.9626 15.6954 29.9813C14.2188 29.9813 12.6954 31.9125 11.0547 31.8188C8.80474 31.6938 8.31255 29.9813 6.83599 29.9813C5.73442 29.9813 4.53911 31.5813 3.21255 31.6063C1.89067 31.6375 0.404736 30.0126 0.268799 29.9813L0.287549 32.375V32.375ZM0.287549 27.8125C1.0188 28.2688 2.0688 29.4 3.1938 29.4C5.0688 29.3813 5.11567 27.6876 7.0188 27.7626C8.92661 27.8251 8.57974 29.6188 11.1532 29.6063C13.2813 29.6063 13.9657 27.4438 15.8032 27.7001C17.1625 27.6063 17.7157 29.7438 19.8016 29.7688C21.9672 29.8313 22.7594 27.4438 24.1141 27.6438C25.5672 27.6438 26.036 29.5688 28.0657 29.5813C30.6532 29.6 31.1079 27.5813 32.7204 27.7063C33.8735 27.675 34.7829 29.1875 36.4704 29.225C37.811 29.2563 38.9407 27.9 39.7047 27.4125L39.7375 25.1125C38.9407 25.5063 37.75 26.8 36.5641 26.8188C34.8485 26.9 33.7938 25.3188 32.6032 25.3375C31.1782 25.3563 30.611 27.2938 28.1969 27.2938C25.9844 27.2938 25.4782 25.3375 24.0532 25.3375C22.661 25.35 22.2344 27.4625 19.8204 27.425C17.8516 27.3938 17.0875 25.4063 15.6954 25.425C14.2188 25.425 12.6954 27.35 11.0547 27.2563C8.80474 27.1313 8.31255 25.4188 6.83599 25.4188C5.73442 25.4188 4.53911 27.025 3.21255 27.05C1.89067 27.075 0.404736 25.4563 0.268799 25.425L0.287549 27.8188V27.8125Z" fill="white"/>
<path fill-rule="evenodd" clip-rule="evenodd" d="M0.287549 23.3125C1.0188 23.7625 2.0688 24.8875 3.18911 24.8875C5.06411 24.875 5.11099 23.175 7.01411 23.2562C8.91724 23.3187 8.57036 25.1062 11.1438 25.1C13.2672 25.0937 13.9563 22.9312 15.7844 23.1937C17.1438 23.1 17.6969 25.2375 19.7829 25.2625C21.9438 25.325 22.736 22.9312 24.0954 23.1312C25.5391 23.1312 26.0172 25.0562 28.0422 25.0687C30.6204 25.0875 31.075 23.0687 32.6922 23.1937C33.8407 23.1625 34.75 24.675 36.4329 24.7125C37.7782 24.7437 38.9032 23.3875 39.6672 22.9L39.7 20.6C38.9032 21 37.7172 22.2937 36.5266 22.3062C34.8204 22.3937 33.761 20.8125 32.5704 20.825C31.15 20.8437 30.5829 22.7812 28.1641 22.7812C25.961 22.7812 25.4547 20.825 24.0297 20.825C22.6375 20.8437 22.211 22.95 19.8063 22.9125C17.8375 22.8812 17.0735 20.9 15.6813 20.9125C14.2047 20.9125 12.6813 22.8437 11.05 22.75C8.79536 22.625 8.30786 20.9125 6.8313 20.9125C5.72974 20.9125 4.53911 22.5125 3.21255 22.5375C1.89067 22.5687 0.409424 20.95 0.268799 20.9125L0.287549 23.3062V23.3125Z" fill="white"/>
<path fill-rule="evenodd" clip-rule="evenodd" d="M14.4625 8.74998C17.3219 8.48748 16.8063 8.16248 17.9547 7.91248C19.4078 8.18123 19.5719 9.34998 20.3828 10.0687C20.3828 10.0687 20.0781 11.4437 19.0844 11.25C18.9485 10.7 19.5625 10.525 17.7953 9.08748C16.7641 9.00623 14.9219 9.33123 14.4672 8.74998H14.4625ZM23.336 10.8687L21.2735 10.9812V11.6625C22.6656 11.725 22.9141 11.475 23.336 10.8687Z" fill="#FFC84B"/>
<path fill-rule="evenodd" clip-rule="evenodd" d="M17.9542 7.85559L17.9605 7.85676C18.6971 7.99299 19.1093 8.35865 19.4388 8.78131C19.5474 8.9206 19.6479 9.06733 19.7473 9.21249C19.7969 9.28501 19.8463 9.35715 19.8963 9.42777C20.0475 9.64131 20.2073 9.84562 20.4062 10.0219L20.4321 10.0449L20.4233 10.0847L20.3828 10.0687C20.4233 10.0847 20.4233 10.0847 20.4233 10.0847L20.4232 10.0848L20.4232 10.0851L20.423 10.0861L20.4222 10.0894C20.4215 10.0923 20.4205 10.0964 20.4192 10.1017C20.4166 10.1123 20.4127 10.1276 20.4074 10.1469C20.3967 10.1854 20.3805 10.2398 20.3579 10.3043C20.3127 10.4333 20.2418 10.6036 20.1386 10.7681C19.9315 11.0984 19.5933 11.406 19.0783 11.3056L19.0525 11.3006L19.0443 11.2676C19.0088 11.1238 19.0202 11.0025 19.0306 10.8924C19.0312 10.8866 19.0317 10.8809 19.0323 10.8753C19.0429 10.7606 19.0504 10.6541 19.0122 10.5217C18.9734 10.3876 18.8858 10.2209 18.6952 9.99664C18.5061 9.77413 18.2181 9.49789 17.7823 9.14282C17.47 9.11916 17.0863 9.13211 16.6882 9.14555C16.4314 9.15422 16.1686 9.16309 15.915 9.16247C15.5912 9.16169 15.2835 9.14529 15.0275 9.09208C14.7736 9.03929 14.5617 8.94872 14.438 8.79058L14.4613 8.75821L14.4596 8.69386C15.8885 8.56268 16.4707 8.41612 16.8383 8.27255C16.9524 8.22799 17.0473 8.18291 17.1415 8.13814C17.3481 8.03993 17.5515 7.94325 17.9479 7.85696L17.9542 7.85559ZM14.5829 8.79508C14.692 8.88061 14.8479 8.94087 15.0405 8.98092C15.29 9.03278 15.5926 9.04919 15.9151 9.04997C16.1631 9.05057 16.4235 9.04184 16.6796 9.03324C17.0858 9.01962 17.4809 9.00636 17.7978 9.03132L17.8083 9.03215L17.8173 9.03946C18.26 9.3996 18.5553 9.68203 18.7511 9.91229C18.9466 10.1423 19.0453 10.3233 19.0909 10.4813C19.1371 10.6412 19.127 10.7714 19.116 10.8891C19.1156 10.8935 19.1152 10.8977 19.1148 10.902C19.1052 11.0038 19.0967 11.0944 19.1171 11.1992C19.5808 11.2771 19.8839 10.9989 20.0739 10.6959C20.1711 10.5409 20.2384 10.3796 20.2815 10.2567C20.3029 10.1954 20.3183 10.1439 20.3282 10.108C20.3298 10.1021 20.3313 10.0965 20.3327 10.0915C20.1385 9.91402 19.9813 9.71171 19.835 9.505C19.7829 9.43143 19.7325 9.35783 19.6824 9.28463C19.5842 9.14117 19.487 8.99928 19.3803 8.86239C19.0627 8.455 18.6678 8.10279 17.9552 7.96936C17.5704 8.05365 17.3785 8.14503 17.1763 8.2413C17.0809 8.28669 16.9833 8.33318 16.8621 8.38052C16.496 8.52348 15.9286 8.66657 14.5829 8.79508ZM23.4365 10.8069L23.3669 10.907C23.155 11.2114 22.9814 11.4345 22.6821 11.5697C22.3855 11.7036 21.9687 11.75 21.272 11.7187L21.2312 11.7169V10.9272L23.4365 10.8069ZM21.3156 11.0352V11.608C21.9862 11.6356 22.3794 11.5876 22.655 11.4631C22.9015 11.3518 23.0564 11.1783 23.2344 10.9306L21.3156 11.0352Z" fill="#D8AA3F"/>
<path fill-rule="evenodd" clip-rule="evenodd" d="M16.2439 10.75C16.6048 10.5062 16.783 10.6062 17.097 10.5937C17.308 11.1125 17.5095 11.1562 17.9783 11.2187C18.1857 11.6286 18.4637 11.9662 18.7892 12.2032C19.1146 12.4403 19.4779 12.5699 19.8486 12.5812C21.2501 12.5312 21.6955 11.225 22.6376 11.0812H23.6314C23.4673 10.7062 23.3361 10.4875 22.9751 10.4625C22.2345 10.4125 21.2783 10.4375 20.4439 10.6875L19.2673 11.0812C18.9205 10.8562 18.0814 9.6812 17.5423 9.7062C17.2283 9.8187 17.2283 9.96245 17.0736 10.125C16.7689 10.3 16.4642 10.2125 16.2439 10.75V10.75Z" fill="#FFC84B"/>
<path fill-rule="evenodd" clip-rule="evenodd" d="M19.2721 11.0249L20.4342 10.636L20.4352 10.6356C21.2746 10.3842 22.2349 10.3593 22.9772 10.4094L22.9773 10.4094C23.1641 10.4224 23.2957 10.486 23.402 10.5991C23.5068 10.7105 23.5838 10.8668 23.6659 11.0545C23.6731 11.0709 23.6731 11.0912 23.666 11.1077C23.6589 11.1242 23.6457 11.1344 23.6314 11.1344H22.64C22.244 11.1956 21.9387 11.4667 21.5998 11.7676C21.5466 11.8149 21.4925 11.8629 21.4372 11.9109C21.0303 12.2639 20.5612 12.609 19.8497 12.6343C19.849 12.6344 19.8484 12.6344 19.8477 12.6343C19.4706 12.6228 19.1011 12.491 18.7701 12.2499C18.4446 12.0127 18.1657 11.6767 17.9558 11.2691C17.7323 11.2391 17.5631 11.2112 17.4243 11.1255C17.2839 11.0388 17.178 10.8955 17.0738 10.6476C16.9998 10.6494 16.9342 10.6456 16.8725 10.6421C16.6772 10.631 16.5215 10.6221 16.262 10.7974L16.2439 10.75L16.209 10.7245C16.3244 10.443 16.4639 10.3225 16.6138 10.2515C16.6763 10.2219 16.7409 10.2007 16.8043 10.18C16.8152 10.1765 16.826 10.1729 16.8368 10.1693C16.9097 10.1452 16.9816 10.1193 17.0531 10.0789C17.0874 10.0423 17.1137 10.0065 17.1388 9.97057C17.1435 9.96384 17.1483 9.95704 17.153 9.95017C17.1743 9.91952 17.1963 9.88774 17.2216 9.85737C17.2858 9.78035 17.3703 9.71287 17.532 9.65492C17.535 9.65387 17.538 9.65328 17.541 9.65313C17.686 9.64641 17.8468 9.72007 18.0088 9.83169C18.1716 9.94383 18.3399 10.0974 18.5008 10.2574C18.6117 10.3677 18.7201 10.4821 18.821 10.5886C18.8663 10.6364 18.91 10.6826 18.9518 10.7261C19.0815 10.861 19.1909 10.9687 19.2721 11.0249ZM16.3504 10.6278C16.5622 10.5172 16.7165 10.5261 16.8859 10.5358C16.9521 10.5397 17.0207 10.5436 17.0959 10.5406C17.1109 10.54 17.1249 10.5508 17.1321 10.5684C17.2351 10.8216 17.3327 10.9519 17.4578 11.0291C17.5859 11.1082 17.7462 11.1344 17.9823 11.1659C17.9941 11.1674 18.0047 11.1759 18.0114 11.189C18.2152 11.5918 18.4885 11.9236 18.8083 12.1566C19.1279 12.3894 19.4845 12.5168 19.8486 12.5281C20.5381 12.5032 20.9921 12.1703 21.3937 11.8219C21.4477 11.775 21.501 11.7276 21.5538 11.6806C21.8923 11.3796 22.2155 11.0922 22.6332 11.0284C22.6347 11.0282 22.6362 11.0281 22.6377 11.0281H23.5614C23.4937 10.8801 23.4308 10.7656 23.3523 10.6821C23.2618 10.5858 23.1473 10.5276 22.9732 10.5155C22.2344 10.4657 21.2824 10.4908 20.4532 10.7392L19.2771 11.1328C19.268 11.1358 19.2584 11.1345 19.25 11.129C19.1588 11.0699 19.038 10.9505 18.9028 10.8098C18.8602 10.7655 18.8159 10.7188 18.7704 10.6707C18.6699 10.5647 18.5631 10.452 18.4531 10.3426C18.2935 10.1838 18.1293 10.0343 17.9723 9.92608C17.8164 9.81869 17.6718 9.75508 17.5483 9.75914C17.399 9.81328 17.3274 9.87336 17.2749 9.93634C17.2526 9.96313 17.2335 9.99058 17.2125 10.021C17.2075 10.0281 17.2024 10.0355 17.1971 10.0431C17.1699 10.0819 17.1393 10.1236 17.0983 10.1667C17.0956 10.1696 17.0926 10.1719 17.0894 10.1738C17.0101 10.2193 16.9312 10.2475 16.856 10.2724C16.8448 10.2762 16.8336 10.2798 16.8226 10.2834C16.759 10.3042 16.6989 10.3239 16.6405 10.3516C16.5361 10.4011 16.4383 10.4756 16.3504 10.6278Z" fill="#D8AA3F"/>
<path fill-rule="evenodd" clip-rule="evenodd" d="M17.6641 10.1875C17.668 10.2163 17.6671 10.2458 17.6614 10.2741C17.6558 10.3024 17.6456 10.3286 17.6315 10.3511C17.6174 10.3735 17.5998 10.3915 17.5799 10.4039C17.5601 10.4163 17.5384 10.4227 17.5165 10.4227C17.4945 10.4227 17.4729 10.4163 17.453 10.4039C17.4331 10.3915 17.4155 10.3735 17.4014 10.3511C17.3874 10.3286 17.3771 10.3024 17.3715 10.2741C17.3659 10.2458 17.3649 10.2163 17.3688 10.1875C17.375 10.1413 17.3932 10.0995 17.4202 10.0693C17.4472 10.0392 17.4813 10.0227 17.5165 10.0227C17.5517 10.0227 17.5857 10.0392 17.6127 10.0693C17.6397 10.0995 17.6579 10.1413 17.6641 10.1875V10.1875Z" fill="#FFC84B"/>
<path fill-rule="evenodd" clip-rule="evenodd" d="M17.5165 10.0759C17.4907 10.0759 17.4656 10.088 17.4458 10.1101C17.426 10.1322 17.4126 10.1629 17.4081 10.1969C17.4052 10.218 17.4059 10.2397 17.41 10.2605C17.4142 10.2812 17.4217 10.3005 17.432 10.317C17.4424 10.3335 17.4553 10.3467 17.4699 10.3558C17.4845 10.3649 17.5004 10.3696 17.5165 10.3696C17.5326 10.3696 17.5485 10.3649 17.5631 10.3558C17.5777 10.3467 17.5906 10.3335 17.601 10.317C17.6113 10.3005 17.6188 10.2812 17.623 10.2605C17.6271 10.2397 17.6278 10.218 17.6249 10.1969C17.6204 10.1629 17.607 10.1322 17.5872 10.1101C17.5674 10.088 17.5424 10.0759 17.5165 10.0759ZM17.3947 10.0286C17.4288 9.9905 17.472 9.9696 17.5165 9.9696C17.5611 9.9696 17.6042 9.9905 17.6384 10.0286C17.6725 10.0668 17.6955 10.1197 17.7034 10.1782C17.7083 10.2146 17.7071 10.252 17.7 10.2878C17.6928 10.3236 17.6799 10.3568 17.6621 10.3852C17.6443 10.4136 17.622 10.4364 17.5968 10.4521C17.5717 10.4677 17.5443 10.4759 17.5165 10.4759C17.4887 10.4759 17.4613 10.4677 17.4362 10.4521C17.411 10.4364 17.3887 10.4136 17.3709 10.3852C17.3531 10.3568 17.3402 10.3236 17.333 10.2878C17.3259 10.252 17.3247 10.2146 17.3296 10.1782C17.3375 10.1197 17.3605 10.0668 17.3947 10.0286Z" fill="#D8AA3F"/>
<path fill-rule="evenodd" clip-rule="evenodd" d="M18.625 10.7375C20.7297 7.35623 22.5672 7.76873 24.9672 7.53748C25.0469 7.93123 25.0141 8.51873 23.875 9.03748C22.3094 9.34998 19.511 11.55 19.4969 11.55C18.9766 11.5125 18.611 10.7875 18.625 10.7375V10.7375Z" fill="#FFC84B"/>
<path fill-rule="evenodd" clip-rule="evenodd" d="M24.9988 7.47803L25.0079 7.52282C25.0498 7.72986 25.0628 7.99431 24.9124 8.27342C24.7641 8.54845 24.4612 8.82992 23.8886 9.09071L23.885 9.09235L23.8812 9.09311C23.1057 9.2479 22.0201 9.87212 21.1227 10.4614C20.6749 10.7554 20.2754 11.0398 19.987 11.2507C19.8428 11.3561 19.7263 11.4431 19.6455 11.5038C19.6291 11.5162 19.6141 11.5274 19.6007 11.5375C19.581 11.5523 19.5646 11.5646 19.5518 11.5743C19.5409 11.5824 19.5324 11.5887 19.5264 11.5931C19.5234 11.5952 19.5207 11.5971 19.5186 11.5985C19.5176 11.5992 19.5163 11.6001 19.5149 11.6009C19.5142 11.6013 19.513 11.6021 19.5114 11.6028C19.5106 11.6032 19.5087 11.604 19.5075 11.6044C19.5056 11.605 19.5003 11.606 19.4969 11.6062H19.4957L19.4946 11.6061C19.2205 11.5864 18.99 11.3862 18.8318 11.1896C18.7523 11.0908 18.6898 10.9915 18.6478 10.9129C18.6268 10.8737 18.6105 10.8389 18.5997 10.8112C18.5943 10.7976 18.5898 10.7843 18.5867 10.7723C18.5853 10.7664 18.5838 10.7593 18.583 10.7518C18.5823 10.7456 18.5814 10.7323 18.5855 10.7177L18.625 10.7375L18.5925 10.7016C19.65 9.00269 20.643 8.25338 21.6749 7.90173C22.4178 7.64857 23.1818 7.6019 23.9995 7.55195C24.3126 7.53283 24.6335 7.51323 24.9641 7.48137L24.9988 7.47803ZM18.6714 10.751C18.6723 10.7535 18.6733 10.7562 18.6745 10.7592C18.683 10.7809 18.697 10.8112 18.7165 10.8476C18.7553 10.9202 18.8141 11.0138 18.8893 11.1073C19.0381 11.2921 19.2464 11.4705 19.4879 11.4929C19.4933 11.4889 19.5008 11.4834 19.5105 11.4761C19.5233 11.4666 19.5395 11.4543 19.5591 11.4397C19.5725 11.4295 19.5876 11.4182 19.6041 11.4058C19.6851 11.345 19.8018 11.2577 19.9464 11.152C20.2356 10.9406 20.6362 10.6555 21.0854 10.3605C21.9808 9.77252 23.0751 9.14157 23.8649 8.98261C24.429 8.72513 24.7111 8.4541 24.8438 8.20778C24.9644 7.98413 24.965 7.77455 24.9348 7.59695C24.6112 7.62736 24.2988 7.64645 23.9951 7.665C23.1809 7.71473 22.4297 7.76062 21.6958 8.01072C20.6872 8.35441 19.7133 9.08449 18.6714 10.751Z" fill="#D8AA3F"/>
<path fill-rule="evenodd" clip-rule="evenodd" d="M22.9096 8.52868C22.9107 8.49765 22.9304 8.47363 22.9537 8.47503L24.5053 8.56878C24.5285 8.57019 24.5465 8.59649 24.5455 8.62752C24.5444 8.65856 24.5247 8.68258 24.5014 8.68117L22.9499 8.58742C22.9266 8.58601 22.9086 8.55971 22.9096 8.52868ZM22.741 8.87032C22.7429 8.83937 22.7633 8.81635 22.7865 8.81892L23.9162 8.94392C23.9394 8.94649 23.9567 8.97367 23.9548 9.00463C23.9528 9.03559 23.9325 9.0586 23.9092 9.05603L22.7795 8.93103C22.7563 8.92846 22.7391 8.90128 22.741 8.87032Z" fill="#D9A43E"/>
</g>
<rect x="2" y="2" width="36" height="36" rx="18" stroke="white" stroke-width="4"/>
<defs>
<clipPath id="clip0_90_25092">
<rect x="4" y="4" width="32" height="32" rx="16" fill="white"/>
</clipPath>
</defs>
</svg>
