<svg width="40" height="40" viewBox="0 0 40 40" fill="none" xmlns="http://www.w3.org/2000/svg">
<g clip-path="url(#clip0_90_25044)">
<rect x="4" y="4" width="36.7097" height="27.5323" fill="white"/>
<path fill-rule="evenodd" clip-rule="evenodd" d="M28.338 31.8782L29.9152 28.7605L30.8505 29.6017L29.2733 32.7194L28.338 31.8782Z" fill="black"/>
<path fill-rule="evenodd" clip-rule="evenodd" d="M30.168 28.2619L31.7452 25.1442L32.6805 25.9853L31.1033 29.1031L30.168 28.2619Z" fill="black"/>
<path fill-rule="evenodd" clip-rule="evenodd" d="M27.0288 30.7003L28.606 27.5825L29.5413 28.4237L27.9641 31.5414L27.0288 30.7003Z" fill="black"/>
<path fill-rule="evenodd" clip-rule="evenodd" d="M28.8588 27.0841L30.436 23.9663L31.3713 24.8075L29.7941 27.9252L28.8588 27.0841Z" fill="black"/>
<path fill-rule="evenodd" clip-rule="evenodd" d="M25.7197 29.5231L27.2969 26.4054L28.2323 27.2466L26.6551 30.3643L25.7197 29.5231Z" fill="black"/>
<path fill-rule="evenodd" clip-rule="evenodd" d="M27.5496 25.9061L29.1268 22.7883L30.0621 23.6295L28.4849 26.7473L27.5496 25.9061Z" fill="black"/>
<path fill-rule="evenodd" clip-rule="evenodd" d="M8.13528 25.1442L11.542 31.8785L10.6067 32.7197L7.19995 25.9853L8.13528 25.1442Z" fill="black"/>
<path fill-rule="evenodd" clip-rule="evenodd" d="M11.2743 27.5825L12.8515 30.7003L11.9162 31.5414L10.339 28.4237L11.2743 27.5825Z" fill="black"/>
<path fill-rule="evenodd" clip-rule="evenodd" d="M9.44448 23.9663L11.0217 27.0841L10.0864 27.9252L8.50916 24.8075L9.44448 23.9663Z" fill="black"/>
<path fill-rule="evenodd" clip-rule="evenodd" d="M10.754 22.7883L14.1608 29.5227L13.2255 30.3638L9.81873 23.6295L10.754 22.7883Z" fill="black"/>
<path fill-rule="evenodd" clip-rule="evenodd" d="M20.0485 27.5494C16.624 27.5494 13.8479 23.8449 13.8479 19.2753C13.8479 17.7995 14.1374 16.414 14.6448 15.2144C14.4288 15.791 14.3072 16.4416 14.3072 17.1302C14.3072 19.4996 15.7467 21.114 17.5223 21.114C18.2893 21.114 18.9217 20.9088 19.4744 20.0042C19.5132 19.9352 19.5519 19.8673 19.5905 19.8006L19.7061 19.6041C19.7446 19.5398 19.7831 19.4767 19.8215 19.4148L19.937 19.233C20.6687 18.1054 21.4164 17.4366 22.4598 17.4366C24.1721 17.4366 25.7854 18.6759 25.5601 21.8801C25.4805 23.0123 25.2174 24.0439 24.6625 24.7914L24.6703 24.7913C23.5349 26.4841 21.8849 27.5494 20.0485 27.5494Z" fill="#0047A0"/>
<path fill-rule="evenodd" clip-rule="evenodd" d="M19.8321 11.3033C23.2566 11.3033 26.0326 15.0078 26.0326 19.5774C26.0326 21.0532 25.7431 22.4387 25.2357 23.6384C25.4518 23.0618 25.5733 22.4111 25.5733 21.7226C25.5733 19.3531 24.1339 17.7388 22.3582 17.7388C21.5912 17.7388 20.9588 17.9439 20.4062 18.8486C19.5136 20.4361 18.6838 21.4161 17.4207 21.4161C15.7085 21.4161 14.0952 20.1768 14.3204 16.9726C14.4 15.8404 14.6631 14.8089 15.218 14.0613L15.2103 14.0615C16.3457 12.3687 17.9956 11.3033 19.8321 11.3033Z" fill="#CD2E3A"/>
<path fill-rule="evenodd" clip-rule="evenodd" d="M28.4849 12.1053L30.0621 15.2231L29.1268 16.0643L27.5496 12.9465L28.4849 12.1053Z" fill="black"/>
<path fill-rule="evenodd" clip-rule="evenodd" d="M26.6551 8.4884L28.2323 11.6061L27.2969 12.4473L25.7197 9.32958L26.6551 8.4884Z" fill="black"/>
<path fill-rule="evenodd" clip-rule="evenodd" d="M27.9641 7.31055L31.3709 14.0449L30.4356 14.8861L27.0288 8.15172L27.9641 7.31055Z" fill="black"/>
<path fill-rule="evenodd" clip-rule="evenodd" d="M31.1033 9.74951L32.6805 12.8673L31.7452 13.7084L30.168 10.5907L31.1033 9.74951Z" fill="black"/>
<path fill-rule="evenodd" clip-rule="evenodd" d="M29.2733 6.1333L30.8505 9.25105L29.9152 10.0922L28.338 6.97448L29.2733 6.1333Z" fill="black"/>
<path fill-rule="evenodd" clip-rule="evenodd" d="M9.81873 15.2227L13.2255 8.4884L14.1608 9.32958L10.754 16.0639L9.81873 15.2227Z" fill="black"/>
<path fill-rule="evenodd" clip-rule="evenodd" d="M8.50916 14.0449L11.9159 7.31055L12.8513 8.15172L9.44448 14.8861L8.50916 14.0449Z" fill="black"/>
<path fill-rule="evenodd" clip-rule="evenodd" d="M7.20007 12.8679L10.6068 6.13354L11.5422 6.97472L8.1354 13.7091L7.20007 12.8679Z" fill="black"/>
</g>
<rect x="2" y="2" width="36" height="36" rx="18" stroke="white" stroke-width="4"/>
<defs>
<clipPath id="clip0_90_25044">
<rect x="4" y="4" width="32" height="32" rx="16" fill="white"/>
</clipPath>
</defs>
</svg>
