<svg width="40" height="40" viewBox="0 0 40 40" fill="none" xmlns="http://www.w3.org/2000/svg">
<g clip-path="url(#clip0_90_24912)">
<path fill-rule="evenodd" clip-rule="evenodd" d="M4 4H36V36H4V4Z" fill="#00ABC2"/>
<path fill-rule="evenodd" clip-rule="evenodd" d="M7.01004 35.1333C7.17504 35.3467 7.12004 35.7 7.57504 35.6533C8.26504 35.6533 8.28504 35.0933 8.28504 34.7C8.28504 34.3067 7.25004 33.76 7.20004 33.18C7.15004 32.6 7.44004 32.4467 7.68004 32.4467C7.91504 32.4467 8.08004 32.6267 8.08004 32.7867C8.08004 32.9467 7.97004 33 7.80004 33C7.63004 33 7.87504 32.8867 7.73004 32.8C7.58504 32.7133 7.49004 32.9333 7.49004 33.0667C7.49004 33.2133 7.85004 33.2533 8.09004 33.1533C8.14004 33.4667 8.16004 33.4867 7.82504 34.02C8.06504 33.8133 8.08504 33.7667 8.35004 33.8867C8.08504 33.58 8.28504 32.9667 8.29004 32.8133C8.29504 32.66 8.24004 32.4733 8.14004 32.38C7.94504 32.1467 7.53004 32.1333 7.28004 32.2867C6.91504 32.5 6.89504 33.14 6.99004 33.3533L8.00004 34.7133C8.07004 34.8733 8.10004 35.3267 7.67004 35.3467C7.22004 35.3933 7.06004 34.5733 6.98004 34.3C6.87504 34.6 6.75504 35.42 6.30004 35.3733C5.87004 35.3533 5.79004 34.9067 5.86004 34.74L6.89504 33.34C6.99504 33.1267 6.97504 32.4867 6.61004 32.2733C6.36004 32.12 5.94504 32.14 5.75504 32.3667C5.64504 32.46 5.58504 32.64 5.59504 32.8C5.60504 32.96 5.80004 33.5667 5.54004 33.8667C5.80004 33.7533 5.82504 33.8 6.06504 34C5.73004 33.4733 5.75504 33.4533 5.80004 33.1333C6.04004 33.24 6.40004 33.2 6.40004 33.06C6.40004 32.92 6.30004 32.6867 6.15504 32.78C6.01504 32.8733 6.25504 32.9867 6.08504 32.9867C5.92004 32.9867 5.80004 32.94 5.80004 32.7867C5.80004 32.6333 5.96504 32.4333 6.20504 32.4333C6.44504 32.4333 6.73004 32.5933 6.68004 33.1733C6.63004 33.7533 5.58004 34.38 5.58004 34.7733C5.58004 35.1733 5.65004 35.6467 6.34004 35.6467C6.79004 35.6933 6.84504 35.34 7.01004 35.1267V35.1333Z" fill="#FFEC2D"/>
<path fill-rule="evenodd" clip-rule="evenodd" d="M6.95572 26.8867C7.12072 26.6733 7.25572 26.0467 7.70572 26.0867C8.39572 26.0867 8.65572 26.6 8.65572 26.9933C8.65572 27.3867 7.25572 30.5933 7.20572 31.1733C7.15572 31.7533 7.44572 31.9133 7.68072 31.9133C7.92072 31.9133 8.08572 31.7333 8.08572 31.5667C8.08572 31.4 7.96572 31.3667 7.80072 31.3667C7.63572 31.3667 7.87072 31.48 7.73072 31.5667C7.59072 31.6533 7.49072 31.4333 7.49072 31.2933C7.49072 31.1533 7.85072 31.1067 8.09072 31.2133C8.13572 30.9 8.15572 30.88 7.82572 30.3467C8.06572 30.5467 8.08572 30.6 8.35072 30.48C8.08572 30.7867 8.28072 31.3933 8.29072 31.5467C8.30072 31.7 8.24072 31.8933 8.13572 31.9867C7.94572 32.22 7.52572 32.2267 7.27572 32.08C6.91572 31.86 6.89572 31.2267 6.99072 31.0133L8.35072 27.1067C8.42572 26.9467 8.23572 26.4133 7.80572 26.3933C7.35572 26.3467 7.20072 26.98 7.12072 27.2533L7.73572 27.1867C7.73572 27.1867 7.76072 27.32 7.73572 27.4C7.52938 27.4201 7.32405 27.4557 7.12072 27.5067L7.09572 27.92H7.39572L7.37572 28.1067C7.37572 28.1067 7.12072 28.08 7.09572 28.1067C7.07072 28.1267 7.04572 28.52 7.04572 28.52C7.04572 28.52 6.99572 28.5467 6.94572 28.5467C6.89572 28.5467 6.84572 28.52 6.84572 28.52C6.84572 28.52 6.82572 28.1267 6.80072 28.1067C6.77572 28.08 6.52072 28.1067 6.52072 28.1067L6.49572 27.92H6.80072L6.77572 27.5067C6.77572 27.5067 6.47572 27.4267 6.16072 27.4C6.14072 27.32 6.16072 27.1933 6.16072 27.1933L6.77572 27.2533C6.69572 26.98 6.54072 26.3467 6.09072 26.3867C5.66072 26.4133 5.47072 26.9467 5.54072 27.1067L6.90072 31.0133C6.99572 31.22 6.97572 31.86 6.61572 32.08C6.36572 32.2267 5.94572 32.2133 5.75572 31.9867C5.65072 31.8933 5.59072 31.7067 5.60072 31.5533C5.61072 31.4 5.80072 30.78 5.54072 30.4867C5.80572 30.6 5.83072 30.5533 6.06572 30.3467C5.73572 30.88 5.75572 30.9 5.80572 31.2133C6.04072 31.1067 6.40072 31.1467 6.40072 31.2933C6.40072 31.4267 6.30072 31.66 6.16072 31.5667C6.02072 31.4733 6.26072 31.3667 6.09072 31.3667C5.92572 31.3667 5.80572 31.4067 5.80572 31.5667C5.80572 31.7267 5.97072 31.9133 6.20572 31.9133C6.44072 31.9133 6.73072 31.7533 6.68572 31.18C6.63572 30.6 5.23572 27.38 5.23572 26.9933C5.23572 26.5933 5.49572 26.0933 6.18572 26.0933C6.63572 26.0467 6.80072 26.6733 6.96072 26.8867H6.95572Z" fill="#FFEC2D"/>
<path fill-rule="evenodd" clip-rule="evenodd" d="M6.95572 25.2933C7.12072 25.5067 7.25572 26.1333 7.70572 26.0933C8.39572 26.0933 8.65572 25.58 8.65572 25.1867C8.65572 24.7933 7.25572 21.5867 7.20572 21.0067C7.15572 20.4267 7.44572 20.2667 7.68072 20.2667C7.92072 20.2667 8.08572 20.4467 8.08572 20.6133C8.08572 20.78 7.96572 20.8133 7.80072 20.8133C7.63572 20.8133 7.87072 20.7067 7.73072 20.6133C7.59072 20.52 7.49072 20.7467 7.49072 20.8867C7.49072 21.0267 7.85072 21.0733 8.09072 20.9667C8.13572 21.28 8.15572 21.3 7.82572 21.8333C8.06572 21.6333 8.08572 21.58 8.35072 21.7C8.08572 21.3933 8.28072 20.7867 8.29072 20.6333C8.30072 20.48 8.24072 20.2867 8.13572 20.1933C7.94572 19.9667 7.52572 19.9533 7.27572 20.1C6.91572 20.32 6.89572 20.9533 6.99072 21.1667L8.35072 25.0667C8.42572 25.2267 8.23572 25.76 7.80572 25.78C7.35572 25.8267 7.20072 25.1933 7.12072 24.92L7.73572 24.9867C7.73572 24.9867 7.76072 24.8533 7.73572 24.7733C7.52938 24.7532 7.32405 24.7176 7.12072 24.6667L7.09572 24.2533H7.39572L7.37572 24.0667C7.37572 24.0667 7.12072 24.0933 7.09572 24.0667C7.07072 24.0467 7.04572 23.6533 7.04572 23.6533C7.04572 23.6533 6.99572 23.6267 6.94572 23.6267C6.89572 23.6267 6.84572 23.6533 6.84572 23.6533C6.84572 23.6533 6.82572 24.0467 6.80072 24.0667C6.77572 24.0933 6.52072 24.0667 6.52072 24.0667L6.49572 24.2533H6.80072L6.77572 24.6667C6.77572 24.6667 6.47572 24.7467 6.16072 24.7733C6.14072 24.8533 6.16072 24.98 6.16072 24.98L6.77572 24.92C6.69572 25.1933 6.54072 25.8267 6.09072 25.7867C5.66072 25.76 5.47072 25.2267 5.54072 25.0667L6.90072 21.1667C6.99572 20.9533 6.97572 20.32 6.61572 20.1C6.36572 19.9533 5.94572 19.9667 5.75572 20.1933C5.65072 20.2867 5.59072 20.4733 5.60072 20.6267C5.61072 20.78 5.80072 21.3933 5.54072 21.6933C5.80572 21.58 5.83072 21.6267 6.06572 21.8333C5.73572 21.3 5.75572 21.28 5.80572 20.9667C6.04072 21.0733 6.40072 21.0333 6.40072 20.8867C6.40072 20.7533 6.30072 20.52 6.16072 20.6133C6.02072 20.7067 6.26072 20.8133 6.09072 20.8133C5.92572 20.8133 5.80572 20.7733 5.80572 20.6133C5.80572 20.4533 5.97072 20.2667 6.20572 20.2667C6.44072 20.2667 6.73072 20.4267 6.68572 21C6.63572 21.58 5.23572 24.8 5.23572 25.1867C5.23572 25.5867 5.49572 26.0867 6.18572 26.0867C6.63572 26.1333 6.80072 25.5067 6.96072 25.2933H6.95572Z" fill="#FFEC2D"/>
<path fill-rule="evenodd" clip-rule="evenodd" d="M6.95572 14.7067C7.12072 14.4934 7.25572 13.8667 7.70572 13.9067C8.39572 13.9067 8.65572 14.4201 8.65572 14.8134C8.65572 15.2067 7.25572 18.4134 7.20572 19.0001C7.15572 19.5734 7.44572 19.7334 7.68072 19.7334C7.92072 19.7334 8.08572 19.5534 8.08572 19.3934C8.08572 19.2334 7.96572 19.1801 7.80072 19.1801C7.63572 19.1801 7.87072 19.3001 7.73072 19.3934C7.59072 19.4867 7.49072 19.2534 7.49072 19.1134C7.49072 18.9801 7.85072 18.9267 8.09072 19.0334C8.13572 18.7201 8.15572 18.7001 7.82572 18.1667C8.06572 18.3734 8.08572 18.4201 8.35072 18.3001C8.08572 18.6067 8.28072 19.2201 8.29072 19.3667C8.30072 19.5134 8.24072 19.7134 8.13572 19.8067C7.94572 20.0401 7.52572 20.0467 7.27572 19.9001C6.91572 19.6801 6.89572 19.0467 6.99072 18.8334L8.35072 14.9334C8.42572 14.7734 8.23572 14.2401 7.80572 14.2201C7.35572 14.1734 7.20072 14.8067 7.12072 15.0801L7.73572 15.0134C7.73572 15.0134 7.76072 15.1467 7.73572 15.2267C7.41572 15.2534 7.12072 15.3334 7.12072 15.3334L7.09572 15.7467H7.39572L7.37572 15.9334C7.37572 15.9334 7.12072 15.9134 7.09572 15.9334C7.07072 15.9534 7.04572 16.3534 7.04572 16.3534C7.04572 16.3534 6.99572 16.3734 6.94572 16.3734C6.89572 16.3734 6.84572 16.3534 6.84572 16.3534C6.84572 16.3534 6.82572 15.9534 6.80072 15.9334C6.77572 15.9134 6.52072 15.9334 6.52072 15.9334L6.49572 15.7467H6.80072L6.77572 15.3334C6.77572 15.3334 6.47572 15.2534 6.16072 15.2267C6.14072 15.1467 6.16072 15.0201 6.16072 15.0201L6.77572 15.0801C6.69572 14.8067 6.54072 14.1734 6.09072 14.2134C5.66072 14.2401 5.47072 14.7734 5.54072 14.9334L6.90072 18.8334C6.99572 19.0467 6.97572 19.6801 6.61572 19.9001C6.36572 20.0467 5.94572 20.0334 5.75572 19.8067C5.65072 19.7134 5.59072 19.5267 5.60072 19.3734C5.61072 19.2201 5.80072 18.6067 5.54072 18.3067C5.80572 18.4201 5.83072 18.3734 6.06572 18.1667C5.73572 18.7001 5.75572 18.7201 5.80572 19.0334C6.04072 18.9267 6.40072 18.9734 6.40072 19.1134C6.40072 19.2467 6.30072 19.4801 6.16072 19.3867C6.02072 19.3001 6.26072 19.1867 6.09072 19.1867C5.92572 19.1867 5.80572 19.2267 5.80572 19.3867C5.80572 19.5467 5.97072 19.7334 6.20572 19.7334C6.44072 19.7334 6.73072 19.5734 6.68572 19.0001C6.63572 18.4201 5.23572 15.2067 5.23572 14.8134C5.23572 14.4201 5.49572 13.9134 6.18572 13.9134C6.63572 13.8667 6.80072 14.4934 6.96072 14.7134L6.95572 14.7067Z" fill="#FFEC2D"/>
<path fill-rule="evenodd" clip-rule="evenodd" d="M6.95572 13.1134C7.12072 13.3267 7.25572 13.9601 7.70572 13.9134C8.39572 13.9134 8.65572 13.4001 8.65572 13.0067C8.65572 12.6134 7.25572 9.40673 7.20572 8.82673C7.15572 8.24673 7.44572 8.08673 7.68072 8.08673C7.92072 8.08673 8.08572 8.2734 8.08572 8.4334C8.08572 8.5934 7.96572 8.64006 7.80072 8.64006C7.63572 8.64006 7.87072 8.52673 7.73072 8.4334C7.59072 8.34006 7.49072 8.56673 7.49072 8.70673C7.49072 8.84673 7.85072 8.8934 8.09072 8.78673C8.13572 9.10006 8.15572 9.12006 7.82572 9.6534C8.06572 9.4534 8.08572 9.40006 8.35072 9.52006C8.08572 9.22006 8.28072 8.60673 8.29072 8.4534C8.30072 8.30006 8.24072 8.10673 8.13572 8.0134C7.94572 7.78673 7.52572 7.7734 7.27572 7.92673C6.91572 8.14006 6.89572 8.78006 6.99072 8.98673L8.35072 12.8934C8.42572 13.0534 8.23572 13.5867 7.80572 13.6134C7.35572 13.6534 7.20072 13.0267 7.12072 12.7467L7.73572 12.8134C7.73572 12.8134 7.76072 12.6801 7.73572 12.6001C7.52949 12.582 7.32417 12.5486 7.12072 12.5001L7.09572 12.0801H7.39572L7.37572 11.8934C7.37572 11.8934 7.12072 11.9201 7.09572 11.8934C7.07072 11.8734 7.04572 11.4801 7.04572 11.4801C7.04572 11.4801 6.99572 11.4534 6.94572 11.4534C6.89572 11.4534 6.84572 11.4801 6.84572 11.4801C6.84572 11.4801 6.82572 11.8734 6.80072 11.8934C6.77572 11.9201 6.52072 11.8934 6.52072 11.8934L6.49572 12.0801H6.80072L6.77572 12.5001C6.77572 12.5001 6.47572 12.5734 6.16072 12.6001C6.14072 12.6867 6.16072 12.8134 6.16072 12.8134L6.77572 12.7467C6.69572 13.0267 6.54072 13.6534 6.09072 13.6134C5.66072 13.5867 5.47072 13.0534 5.54072 12.8934L6.90072 8.98673C6.99572 8.78006 6.97572 8.14006 6.61572 7.92006C6.36572 7.7734 5.94572 7.78673 5.75572 8.0134C5.65072 8.10673 5.59072 8.2934 5.60072 8.44673C5.61072 8.60006 5.80072 9.22006 5.54072 9.5134C5.80572 9.40006 5.83072 9.44673 6.06572 9.6534C5.73572 9.12006 5.75572 9.10006 5.80572 8.78673C6.04572 8.8934 6.40072 8.8534 6.40072 8.70673C6.40072 8.5734 6.30072 8.34006 6.16072 8.4334C6.02072 8.52673 6.26072 8.64006 6.09072 8.64006C5.92572 8.64006 5.80572 8.5934 5.80572 8.4334C5.80572 8.2734 5.97072 8.08673 6.20572 8.08673C6.44072 8.08673 6.73572 8.24673 6.68572 8.82006C6.63572 9.40006 5.23572 12.6201 5.23572 13.0067C5.23572 13.4067 5.49572 13.9134 6.18572 13.9134C6.63572 13.9601 6.80072 13.3267 6.96072 13.1134H6.95572Z" fill="#FFEC2D"/>
<path fill-rule="evenodd" clip-rule="evenodd" d="M7.01004 4.86673C7.17504 4.65339 7.12004 4.30006 7.57504 4.34673C8.26504 4.34673 8.28504 4.90673 8.28504 5.30006C8.28504 5.69339 7.25004 6.24006 7.20004 6.82006C7.15004 7.40006 7.44004 7.55339 7.68004 7.55339C7.91504 7.55339 8.08004 7.37339 8.08004 7.21339C8.08004 7.05339 7.97004 7.00006 7.80004 7.00006C7.63004 7.00006 7.87504 7.11339 7.73004 7.20006C7.58504 7.28673 7.49004 7.06673 7.49004 6.93339C7.49004 6.78673 7.85004 6.74006 8.09004 6.84673C8.14004 6.53339 8.16004 6.51339 7.82504 5.98006C8.06504 6.18673 8.08504 6.23339 8.35004 6.11339C8.08504 6.42006 8.28504 7.03339 8.29004 7.18673C8.29504 7.34006 8.24004 7.52673 8.14004 7.62006C7.94004 7.86673 7.52504 7.86673 7.27504 7.72006C6.91004 7.50673 6.89004 6.86673 6.98504 6.65339L8.00004 5.28673C8.07004 5.12673 8.10004 4.67339 7.67004 4.65339C7.22004 4.60673 7.06004 5.42673 6.98004 5.70006C6.87504 5.40006 6.75504 4.57339 6.30004 4.62006C5.87004 4.64006 5.79004 5.08673 5.86004 5.25339L6.89504 6.65339C6.99504 6.86673 6.97504 7.50673 6.61004 7.72006C6.36004 7.87339 5.94504 7.86006 5.75504 7.62673C5.64504 7.53339 5.58504 7.35339 5.59504 7.19339C5.60504 7.03339 5.80004 6.42673 5.54004 6.12673C5.80004 6.24006 5.82504 6.19339 6.06004 5.99339C5.73004 6.52006 5.75504 6.54006 5.80004 6.86006C6.04004 6.75339 6.40004 6.79339 6.40004 6.93339C6.40004 7.07339 6.30004 7.30673 6.15504 7.21339C6.01504 7.12006 6.25504 7.00673 6.08504 7.00673C5.92004 7.00673 5.80004 7.05339 5.80004 7.20673C5.80004 7.36006 5.96504 7.56006 6.20504 7.56006C6.44504 7.56006 6.73004 7.40006 6.68004 6.82006C6.63004 6.24006 5.58004 5.61339 5.58004 5.22006C5.58004 4.82006 5.65004 4.34673 6.34004 4.34673C6.79004 4.30006 6.84504 4.65339 7.01004 4.86673V4.86673Z" fill="#FFEC2D"/>
<path d="M26.0763 17.7274C26.0763 14.5581 24.043 11.9889 21.5349 11.9889C19.0268 11.9889 16.9935 14.5581 16.9935 17.7274C16.9935 20.8967 19.0268 23.4659 21.5349 23.4659C24.043 23.4659 26.0763 20.8967 26.0763 17.7274Z" fill="#FFEC2D"/>
<path fill-rule="evenodd" clip-rule="evenodd" d="M21.3215 8.56644C21.2788 8.56644 21.0761 10.4734 21.0013 10.9003C20.9266 11.8608 21.9619 11.8253 21.7911 10.8647L21.3215 8.55933V8.56644ZM21.6844 27.0521C21.7218 27.0521 22.0313 25.1665 22.1327 24.7467C22.2554 23.8004 21.2201 23.7506 21.3322 24.7182L21.6844 27.0521V27.0521ZM14.4481 17.6883C14.4481 17.7381 15.937 18.1366 16.2679 18.2646C17.015 18.4283 17.0683 17.1262 16.2999 17.2685L14.4481 17.6954V17.6883ZM28.9474 17.916C28.9474 17.8662 27.4425 17.5389 27.1063 17.425C26.3539 17.3041 26.3485 18.6062 27.1063 18.4283L28.9474 17.916ZM15.9744 11.6403C15.9477 11.6758 16.9296 13.1558 17.127 13.5187C17.6393 14.2302 18.3171 13.2341 17.6393 12.7503L15.9744 11.6474V11.6403ZM27.2397 23.8075C27.2664 23.7719 26.1884 22.4058 25.9643 22.0713C25.404 21.4167 24.8009 22.4769 25.5053 22.8896L27.2397 23.8146V23.8075ZM18.221 9.57682C18.189 9.59816 18.6479 11.4339 18.7227 11.868C18.9788 12.7716 19.9074 12.181 19.4271 11.4055L18.2264 9.57682H18.221ZM24.7903 26.1129C24.8276 26.0915 24.4701 24.2202 24.422 23.7861C24.2139 22.8611 23.2587 23.3592 23.6909 24.1846L24.7956 26.1057L24.7903 26.1129ZM26.4072 10.8576C26.3752 10.822 25.1905 12.0387 24.9023 12.2806C24.3313 12.921 25.1051 13.7891 25.5 12.9424L26.4072 10.8576ZM16.6414 24.64C16.6681 24.6756 17.9222 23.5727 18.221 23.3521C18.824 22.7686 18.1036 21.8294 17.6607 22.6406L16.6468 24.64H16.6414ZM14.7736 14.3868C14.7576 14.4295 16.0544 15.4327 16.3372 15.696C17.0043 16.1585 17.3939 14.9489 16.6307 14.7568L14.7736 14.3868V14.3868ZM28.3123 21.3883C28.3284 21.3456 27.085 20.2285 26.8181 19.9439C26.1777 19.4173 25.7241 20.5914 26.4766 20.8475L28.3123 21.3883V21.3883ZM24.0111 9.08586C23.9738 9.07163 23.232 10.7508 23.0345 11.1137C23.0349 11.2296 23.0625 11.3424 23.1134 11.4364C23.1643 11.5303 23.2359 11.6007 23.3183 11.6375C23.4007 11.6744 23.4897 11.676 23.5728 11.642C23.6559 11.6081 23.7289 11.5403 23.7817 11.4482L24.0111 9.08586ZM19.0002 26.4686C19.0375 26.49 19.87 24.8748 20.0835 24.5261C20.473 23.7008 19.5285 23.1742 19.3524 24.1277L19.0002 26.4686V26.4686ZM14.8644 21.5377C14.8804 21.5804 16.3586 21.1108 16.7055 21.0396C17.4312 20.7692 17.0256 19.5739 16.3853 20.1289L14.8644 21.5377ZM28.3177 14.2302C28.307 14.1876 26.8075 14.522 26.4606 14.5647C25.7135 14.771 26.0603 16.002 26.7274 15.5039L28.3177 14.2302V14.2302Z" fill="#FFEC2D"/>
<path fill-rule="evenodd" clip-rule="evenodd" d="M22.7949 8.68741C22.7575 8.6803 22.2559 10.4947 22.1065 10.8932C21.8877 11.8182 22.9069 12.0459 22.8909 11.0639L22.8002 8.6803L22.7949 8.68741ZM20.2067 26.8955C20.244 26.9098 20.847 25.1381 21.0178 24.7467C21.2846 23.8502 20.2814 23.5371 20.244 24.5119L20.2013 26.8955H20.2067ZM19.689 8.8653C19.6517 8.87953 19.7904 10.8007 19.7904 11.2418C19.8918 12.1882 20.8897 11.8609 20.5589 10.9786L19.689 8.8653V8.8653ZM23.3178 26.7888C23.3552 26.7817 23.3178 24.8534 23.3445 24.4123C23.2965 23.4517 22.2772 23.6936 22.5654 24.6044L23.3125 26.7888H23.3178ZM17.1168 10.4591C17.0848 10.4876 17.7946 12.1882 17.928 12.5937C18.3122 13.4262 19.1394 12.6435 18.5577 11.9818L17.1168 10.4591ZM25.9114 25.2519C25.9434 25.2234 25.3244 23.4588 25.2176 23.0462C24.8814 22.1852 24.0169 22.8967 24.5559 23.6012L25.9114 25.2519ZM15.2384 12.8499C15.217 12.8926 16.3644 14.1591 16.6045 14.4864C17.1969 15.0841 17.7465 13.9741 17.0208 13.6255L15.2384 12.8499ZM27.7365 22.79C27.7578 22.7473 26.6852 21.3812 26.461 21.0396C25.906 20.3921 25.2977 21.4523 26.0021 21.865L27.7365 22.79ZM14.4166 15.8312C14.4059 15.881 15.8201 16.5997 16.1296 16.806C16.8447 17.1262 17.0741 15.8526 16.295 15.8241L14.4166 15.8312V15.8312ZM28.6864 19.9439C28.7024 19.9012 27.3309 19.0616 27.032 18.8268C26.3383 18.4425 26.0341 19.6948 26.8079 19.7944L28.6864 19.9439ZM14.3685 19.4956C14.3739 19.5383 15.9001 19.5098 16.247 19.5454C17.0048 19.4956 16.8233 18.2077 16.0976 18.5564L14.3685 19.4956ZM28.7878 16.2937C28.7878 16.2439 27.2615 16.1372 26.92 16.0731C26.1569 16.0589 26.2689 17.361 27.0107 17.0693L28.7878 16.2866V16.2937ZM15.676 23.2952C15.6973 23.3379 17.0635 22.4698 17.3837 22.3062C18.0454 21.8437 17.437 20.7835 16.9087 21.5021L15.676 23.2952ZM27.539 12.4585C27.5177 12.4158 26.1142 13.163 25.778 13.2981C25.0896 13.7037 25.6392 14.8137 26.2049 14.1449L27.539 12.4585V12.4585ZM17.896 25.814C17.928 25.8354 18.9046 24.3554 19.15 24.0423C19.6143 23.281 18.7231 22.6192 18.4616 23.5442L17.896 25.814ZM25.351 9.8899C25.3244 9.86144 24.2677 11.2489 24.0062 11.5407C23.5046 12.2593 24.3585 12.9993 24.668 12.1028L25.3457 9.8899H25.351Z" fill="#FFEC2D"/>
<path fill-rule="evenodd" clip-rule="evenodd" d="M14.5914 21.5443C14.6729 21.9113 14.6845 23.9663 16.3267 25.9478C17.9572 27.9147 20.7523 28.355 20.7523 28.355C20.7523 28.355 20.7639 28.6339 20.566 28.6486C20.368 28.678 19.413 28.4284 18.9355 28.2376C18.4696 28.0615 18.0503 27.7386 18.0037 27.7532C17.9455 27.7826 17.8523 27.9881 17.7126 27.9587C17.5728 27.9294 16.8973 27.0487 16.5945 26.8138C15.9889 26.1541 15.4527 25.3993 14.999 24.5681C14.6729 23.9075 14.5914 23.4672 14.4865 23.4672C14.3817 23.4672 13.9974 23.7901 13.9974 23.7901C13.9974 23.7901 13.648 23.1296 13.3452 22.0728C13.0307 21.0159 13.0657 20.3994 13.1356 20.3554C13.2171 20.3114 13.2171 21.1334 13.45 21.8819C13.6829 22.6452 14.009 22.8801 14.009 22.8801C14.009 22.8801 13.7994 22.4838 13.6364 21.5003C13.4733 20.5169 13.4034 19.5628 13.5199 19.2692C13.6364 18.9757 13.7412 18.8876 13.7528 18.9023C13.7761 18.9316 13.5548 19.3573 13.7062 20.4875C13.8576 21.6177 14.2653 22.5718 14.3584 22.5278C14.4516 22.4838 14.3002 22.2489 14.242 21.5884C14.1837 20.9279 14.3002 20.5169 14.4283 20.4582C14.4865 20.3994 14.5797 21.1921 14.5914 21.5443V21.5443ZM13.45 23.4232C13.1356 23.0562 12.6464 21.7792 12.5416 21.8379C12.4251 21.9113 13.3336 23.7461 13.3568 23.8929C13.3801 24.069 13.5781 24.5681 13.4267 24.4947C13.2753 24.4213 12.1922 22.9828 12.3203 23.2617C12.4484 23.5406 13.2637 24.8029 13.2171 24.8763C13.1705 24.9497 12.5416 24.1718 12.5183 24.2745C12.5067 24.3626 13.1356 25.1258 13.1239 25.2139C13.1123 25.302 12.7163 24.7295 12.7163 24.8469C12.7163 24.9644 13.1239 25.5368 13.1239 25.6249C13.1239 25.713 12.7745 25.2139 12.891 25.4781C12.9958 25.7717 13.2986 26.0212 13.287 26.1093C13.2753 26.1973 13.0307 25.9919 13.0307 26.0359C13.0307 26.0799 13.485 26.2854 13.5898 26.4469C13.7062 26.6083 14.4516 27.6945 15.0106 28.2376C15.5697 28.7807 17.1769 29.7348 17.2933 29.7348C17.3981 29.7348 17.5612 29.4412 17.5262 29.3238C17.4913 29.2064 15.919 28.5312 15.4881 28.0321C15.0456 27.5331 13.9741 26.3295 13.8809 26.2707C13.7994 26.1973 13.5548 26.2267 13.5548 26.1533C13.5548 26.0799 13.8693 26.1973 13.846 26.1533C13.8343 26.1093 13.4151 25.8744 13.4267 25.8304C13.45 25.7864 13.7179 25.9185 13.7179 25.8744C13.7179 25.8304 13.2287 25.4928 13.252 25.4194C13.2637 25.346 13.6131 25.6249 13.6131 25.5662C13.6131 25.5368 13.1472 25.1258 13.1589 25.0524C13.1705 24.9791 13.5199 25.3754 13.5082 25.2873C13.4966 25.1992 13.2287 24.7002 13.2287 24.6415C13.2287 24.5681 13.648 25.1405 13.6946 25.0231C13.7179 24.9203 13.5432 23.9663 13.5548 23.9516C13.5665 23.9369 13.8693 24.1571 13.9159 24.025C13.9741 23.8782 13.7062 23.6874 13.45 23.4232V23.4232ZM18.819 30.6448C18.5977 30.6889 18.4929 30.5861 18.621 30.3513C18.7957 30.3513 19.2616 30.1605 19.4246 30.0724C19.5877 29.9843 19.7624 29.8669 19.9021 29.7054C20.0419 29.5146 20.135 29.8082 20.0535 29.9696C19.9953 30.0724 19.7274 30.2632 19.5294 30.366C19.2383 30.4834 18.982 30.6595 18.819 30.6448ZM20.2748 29.8963C20.1234 29.6908 20.2515 29.544 20.4728 29.3825C20.7989 29.1623 20.7057 28.8541 21.125 28.6046C21.3113 28.4578 23.9201 27.1368 24.7703 26.4322C25.6205 25.7276 28.008 23.4525 28.6485 21.8819C29.2774 20.3261 28.9746 20.2086 29.0678 20.1499C29.1493 20.0765 29.2425 20.3701 29.2309 20.7224C29.2076 21.06 28.9979 22.0874 29.0678 22.1902C29.1377 22.2929 30.0228 21.3829 30.3955 20.282C30.7682 19.1812 31.0477 18.0363 31.2224 18.0363C31.4087 18.0363 30.9196 19.9151 30.6051 20.649C30.3023 21.3829 29.9413 21.7498 30.0228 21.9113C30.116 22.0581 31.0244 21.104 31.3389 20.3994C31.6417 19.6802 31.9328 19.0491 31.991 19.1812C31.8984 20.041 31.6294 20.8555 31.2107 21.5443C30.7216 22.2489 30.1393 22.7626 30.2324 22.8654C30.314 22.9828 30.9778 23.1002 31.665 22.5131C32.3637 21.9113 32.4336 21.0453 32.5151 21.0893C32.6083 21.1334 32.4336 22.3223 31.7698 23.0562C31.1059 23.7901 30.2324 23.8635 30.2557 24.025C30.3023 24.1717 32.1541 23.3498 32.1192 23.5406C32.0842 23.7167 29.72 24.891 29.6967 25.0084C29.6967 25.0965 30.1043 25.1258 30.7449 24.935C31.3738 24.7589 31.9794 24.1277 32.0609 24.2745C32.0842 24.48 31.6067 24.9791 30.8846 25.2139C30.1509 25.4488 29.7899 25.757 29.7666 25.8304C29.7549 25.9038 31.071 25.6249 31.071 25.713C31.071 25.801 29.3473 26.2267 29.3357 26.3441C29.3124 26.4469 30.9662 25.9185 30.9429 26.0506C30.8963 26.1533 28.6951 26.9753 28.7184 27.0193C28.7301 27.078 30.5585 26.5203 30.5236 26.6083C30.477 26.7111 27.449 27.7826 27.4257 27.856C27.4024 27.9147 30.1043 27.0927 30.081 27.1661C30.0578 27.2395 28.6835 27.6652 28.6835 27.7092C28.6835 27.7532 29.7899 27.489 29.7666 27.5624C29.7549 27.6211 26.9715 28.5165 26.9132 28.6486C26.855 28.7954 28.3574 28.2817 28.3341 28.5459C28.3108 28.8101 25.108 30.1605 25.0964 29.9109C25.0731 29.6614 27.0413 29.0302 27.0297 28.9569C27.0064 28.8835 25.9 29.1036 25.8767 28.9715C25.8651 28.8247 26.6104 28.5312 26.5522 28.4725C26.494 28.3991 25.9349 28.678 25.9815 28.5165C26.0397 28.355 27.0996 27.7386 27.0763 27.6945C27.0646 27.6505 26.6919 27.8413 26.7269 27.6945C26.7735 27.5331 29.0212 26.7111 28.9863 26.6083C28.9513 26.5203 27.9498 26.8138 27.8566 26.8432C27.8216 26.7551 29.2541 26.0799 29.2309 25.9625C29.1843 25.8597 28.4622 26.3588 28.4156 26.2267C28.3923 26.0799 29.6851 25.4488 29.6035 25.346C29.522 25.2433 28.9397 25.6102 28.8582 25.5075C28.7766 25.4047 30.081 24.2745 29.8831 24.2451C29.6851 24.2305 29.4405 24.5974 29.4172 24.3626C29.4405 24.069 30.4304 23.5846 30.2092 23.3498C29.8598 23.2177 28.6835 23.4525 28.1943 23.8195C27.7052 24.1864 26.0747 26.2267 25.6787 26.5496C25.2827 26.8579 23.9318 27.5771 23.6755 27.7239C23.2796 27.9 23.2097 28.1642 22.8021 28.4284C22.0683 28.678 22.08 28.9569 21.7306 29.1183C21.6025 29.1623 20.2864 29.955 20.2748 29.8963V29.8963ZM18.4347 30.9237C18.2134 31.0705 18.0154 31.4228 18.1435 31.5696C18.2134 31.7457 18.4347 31.1733 18.6094 31.2026L19.5411 31.2613C20.0419 31.3054 20.2864 31.1292 20.566 31.1586C20.8455 31.1879 21.4627 30.9678 21.7539 30.9678C22.045 30.9678 22.1033 31.0118 22.1266 30.8503C22.1615 30.7036 21.2181 30.8063 20.7989 30.7916C20.3796 30.7623 19.8555 30.8944 19.5411 30.8944C19.2499 30.8797 18.7491 30.7623 18.4347 30.9237V30.9237Z" fill="#FFEC2D"/>
<path d="M19.8323 30.7475C19.8323 30.6259 19.7436 30.5273 19.6343 30.5273C19.5249 30.5273 19.4363 30.6259 19.4363 30.7475C19.4363 30.8691 19.5249 30.9677 19.6343 30.9677C19.7436 30.9677 19.8323 30.8691 19.8323 30.7475Z" fill="#FFEC2D"/>
<path fill-rule="evenodd" clip-rule="evenodd" d="M24.4796 30.322C24.6776 30.2779 25.2133 30.5128 25.586 30.6155C26.2615 30.9531 27.5193 30.7917 27.5193 30.9531C27.5193 31.1146 27.4378 31.3054 27.1466 31.3348C26.8555 31.3641 26.1217 31.188 26.145 31.188C26.1683 31.188 26.7274 31.5256 26.5643 31.6136C26.4013 31.7017 25.9238 31.4228 25.8422 31.4962C25.7607 31.5696 26.2848 31.7017 26.1916 31.7457C26.1218 31.7898 25.7607 31.687 25.6442 31.7017C25.5278 31.7311 25.7374 31.8925 25.5977 31.9512C25.4579 32.0246 25.225 31.8632 25.1318 31.9072C25.027 31.9512 25.3414 32.2008 25.2017 32.2301C25.0619 32.2595 24.7358 32.1127 24.5495 32.0834C24.3631 32.0834 24.7242 32.3182 24.6077 32.3476C24.4913 32.3622 24.1652 32.1567 24.0836 32.1567C24.0021 32.1567 24.0836 32.4503 23.9672 32.4503C23.8507 32.4503 23.7109 32.2008 23.6411 32.2008C23.5712 32.2008 23.6411 32.4943 23.5246 32.4943C23.4081 32.4943 23.3616 32.1861 23.2684 32.2008C23.1519 32.2301 23.2684 32.5971 23.1053 32.5677C22.9539 32.5531 22.9306 32.1861 22.8025 32.2008C22.6861 32.2301 22.8258 32.5677 22.7094 32.5677C22.5929 32.5677 22.5696 32.2301 22.4531 32.2008C22.3367 32.1861 22.3833 32.5237 22.3134 32.5237C22.2435 32.5237 22.1736 32.2008 22.127 32.2008C22.0921 32.2008 22.127 32.5237 21.9873 32.4943C21.8475 32.465 21.8475 32.1421 21.8126 32.1567C21.766 32.1861 21.766 32.4209 21.6728 32.4209C21.5797 32.4209 21.568 32.1861 21.5331 32.2155C21.4865 32.2301 21.3467 32.5237 21.2536 32.4797C21.1487 32.4356 21.2769 32.2008 21.2303 32.2008C21.1837 32.2008 21.0672 32.3622 20.9973 32.3476C20.9275 32.3329 20.9973 32.1421 20.9741 32.1421C20.9508 32.1421 20.7761 32.2595 20.6945 32.2595C20.613 32.2595 20.3917 32.4063 20.3335 32.2742C20.2753 32.1274 20.4849 32.1274 20.5315 31.9953C20.5664 31.8632 20.415 31.4669 20.5781 31.3348C20.7295 31.188 21.2303 31.5256 21.9756 31.2907C23.3266 30.8357 24.3748 30.3073 24.4796 30.322V30.322Z" fill="#FFEC2D"/>
</g>
<rect x="2" y="2" width="36" height="36" rx="18" stroke="white" stroke-width="4"/>
<defs>
<clipPath id="clip0_90_24912">
<rect x="4" y="4" width="32" height="32" rx="16" fill="white"/>
</clipPath>
</defs>
</svg>
