<svg width="40" height="40" viewBox="0 0 40 40" fill="none" xmlns="http://www.w3.org/2000/svg">
<g clip-path="url(#clip0_90_24899)">
<path fill-rule="evenodd" clip-rule="evenodd" d="M2.00012 28H38.0001V36H2.00012V28ZM2.00012 4H38.0001V12H2.00012V4Z" fill="#EE161F"/>
<path fill-rule="evenodd" clip-rule="evenodd" d="M2.00024 12H38.0002V28H2.00024V12Z" fill="white"/>
<path d="M19.8172 12.125C19.4516 13.0938 19.2078 13.0938 18.5984 13.75C18.3547 14.0688 17.9891 14.2313 18.4766 14.5625C17.9844 14.8813 17.7406 15.0438 17.4969 15.6938L17.6187 15.8563C17.6187 15.8563 18.0875 15.5563 18.1062 15.6938C18.1906 15.825 17.4969 16.3188 17.4078 16.4L16.8922 16.8375C16.2781 17.4813 15.9078 17.3188 15.5469 18.2938L16.7656 18.1313C17.0094 19.2688 16.1562 19.4313 15.5469 19.9188L14.5672 20.7313C14.8156 21.8688 15.5469 21.2188 16.1562 20.8938L16.2781 21.0563V21.3813L15.0594 22.1938C15.0594 22.1938 13.6156 23.2938 13.5922 23.3313C13.5828 23.3938 13.5922 23.6563 13.5922 23.6563C14.0797 23.8188 14.8109 23.9813 15.3031 23.6563C15.9125 23.3313 16.0344 23.0063 16.7656 23.0063C16.0618 23.7385 15.2165 24.1893 14.3281 24.3063V24.9563C15.0594 24.9563 15.5469 24.9563 16.1562 24.7938L17.7406 24.1438C18.1062 24.1438 18.4766 24.6313 18.35 25.1188C17.9891 26.9063 16.5219 26.5813 16.0344 28.0438L17.9844 27.0625C18.4719 26.7375 18.9594 26.4188 19.5687 26.5813C20.3 26.9063 20.3 27.5563 21.275 27.8813L21.0312 27.0688C21.275 27.2313 21.5187 27.2313 21.7672 27.3938C22.3766 27.7188 22.4984 28.0438 23.2297 27.8813C22.6203 26.9063 22.4984 27.0688 22.0109 26.4188C21.5234 25.4438 21.275 23.9813 22.0109 23.8188L22.8641 24.1438C23.7172 24.3063 23.7172 23.9813 24.9359 24.6313C25.6719 24.9563 25.9156 25.4438 26.7641 25.1188C26.4031 23.9813 25.0625 23.1688 24.2047 22.8438C25.1844 22.0313 24.9359 23.1688 26.2812 22.6813V22.3563C25.3109 21.375 24.9406 20.5625 23.6 20.5625L25.6766 20.2375V19.9125C25.6766 19.9125 23.6281 19.2 23.5812 19.1688C23.5953 19.0875 23.6469 18.9625 23.7828 18.8875C24.1719 19.225 25.3437 19.1875 25.4141 19.1813C25.3766 18.7813 24.8187 18.45 24.3359 18.125C24.3359 18.125 22.2406 16.4063 22.2312 16.2563C22.2734 15.8188 23.0891 16.325 23.9656 16.6625C23.7219 16.0125 23.2344 15.6875 22.7469 15.525L23.4781 15.3625C22.9906 13.9 21.7719 14.0625 21.0406 13.4125C20.5484 12.925 20.5484 12.6 19.8172 12.1188V12.125Z" fill="#00A850"/>
<path fill-rule="evenodd" clip-rule="evenodd" d="M18.5 22.9375C18.589 22.5562 18.7062 22.2125 18.1625 21.8812C17.6187 21.55 18.4344 23.2 18.5 22.9437V22.9375ZM19.1422 22.1687C19.0344 22.1875 18.9734 22.7187 19.1937 22.8687C19.4375 22.9187 19.2406 22.175 19.1422 22.1687ZM19.775 22.1062C19.6625 22.1562 19.6578 22.9062 20.0562 22.7687C20.4594 22.6375 20.0562 22.05 19.775 22.1125V22.1062ZM20.5156 20.1875C20.6 20 20.5109 19.25 20.1687 19.5625C19.8219 19.8812 20.4031 20.2375 20.5156 20.1875ZM19.7656 19.5625C19.8734 19.5062 19.8828 19.0437 19.5781 19.1687C19.2828 19.2875 19.6859 19.6562 19.7656 19.5625ZM19.0906 19.7437C19.0906 19.7437 18.8797 19.3562 18.7156 19.4375C18.514 19.7 19.1047 19.75 19.0906 19.7437ZM16.7656 20.9812C16.8547 20.9937 17.5156 20.8375 17.7453 20.4937C17.975 20.15 16.5687 20.6375 16.5687 20.6437C16.5687 20.65 16.7 20.95 16.7656 20.9812V20.9812ZM23.3797 18.7937C23.4125 18.7125 23.0281 18.35 22.7984 18.4937C22.7375 18.7625 23.3797 18.85 23.3797 18.7937ZM22.0765 17.9187C22.1515 17.7812 21.9125 17.2125 21.4344 17.5312C20.9562 17.8437 21.9359 18.1437 22.0765 17.925V17.9187ZM20.5719 17.5875C20.5719 17.5875 20.689 17.075 20.975 17.175C21.3031 17.5062 20.5859 17.6062 20.5719 17.5875ZM20.2906 17.2C20.2437 17.0562 19.9484 17.1375 19.6062 17.4437C19.2594 17.7375 20.3937 17.5312 20.2906 17.1937V17.2ZM21.1672 15.8187C21.1672 15.8187 21.4719 15.6312 21.5656 15.8187C21.6922 16.0875 21.1625 15.8187 21.1672 15.8187ZM20.9094 15.6375C20.8484 15.475 20.5109 15.4562 20.5203 15.7C20.464 15.8875 20.9609 15.85 20.9094 15.6375ZM20.1031 15.6375C20.0703 15.5437 19.5875 15.6375 19.4469 16.025C19.6812 16.175 20.2109 15.8812 20.1031 15.6375ZM19.0719 16.0312C19.0719 16.0312 18.4437 16.55 18.4015 16.925C18.4203 17.25 19.189 16.3375 19.189 16.3375C19.189 16.3375 19.2547 15.975 19.0765 16.0312H19.0719ZM18.3734 15.5625C18.3922 15.4562 18.6875 15.2125 18.7109 15.2312C18.7344 15.3375 18.4719 15.625 18.3734 15.5625ZM18.575 17.5375C18.589 17.3812 17.825 17.3937 18.1109 17.8625C18.3547 18.2562 18.6265 17.6062 18.575 17.5375ZM17.8719 18.2062C17.8344 18.1062 17.7781 17.8312 17.675 17.8062C17.5859 17.8062 17.1265 17.9312 17.089 18.0312C17.0703 18.1125 17.2812 18.6187 17.3515 18.6312C17.4359 18.675 17.8625 18.2562 17.8765 18.2062H17.8719ZM22.0156 21.6562C22.039 21.5437 22.8265 21.1875 23.0937 21.5312C23.4125 22.1125 21.9969 21.8437 22.0156 21.6562ZM24.1719 22.3375C24.3453 21.95 23.6422 21.4875 23.3469 21.9312C23.45 22.4625 24.0312 22.6562 24.1719 22.3375Z" fill="white"/>
<path fill-rule="evenodd" clip-rule="evenodd" d="M18.7122 15.1304C18.7201 15.1309 18.7347 15.1333 18.7499 15.1455C18.7661 15.1584 18.778 15.179 18.7833 15.2031C18.7927 15.2459 18.7857 15.2862 18.7777 15.3142C18.7692 15.3436 18.7564 15.3715 18.7425 15.3964C18.7146 15.4463 18.6756 15.4966 18.6342 15.5393C18.5928 15.582 18.5452 15.621 18.4987 15.6452C18.4565 15.6672 18.3957 15.6872 18.3416 15.6528C18.3097 15.6326 18.2927 15.5854 18.3008 15.5396C18.3069 15.5051 18.3216 15.4759 18.3338 15.4552C18.3471 15.4326 18.3634 15.4104 18.3805 15.3896C18.4147 15.3477 18.4573 15.3049 18.4986 15.2674C18.54 15.2298 18.5822 15.1956 18.6165 15.1716C18.6334 15.1598 18.6502 15.1492 18.665 15.1419C18.6721 15.1384 18.6814 15.1344 18.6913 15.1321C18.6963 15.131 18.7037 15.1298 18.7122 15.1304ZM20.8492 15.4513C20.8979 15.4766 20.9499 15.521 20.9768 15.5928C20.9785 15.5973 20.98 15.602 20.9811 15.6067C20.9938 15.6589 20.99 15.7111 20.9715 15.7566C20.9543 15.7988 20.9273 15.8286 20.9011 15.8493C20.8493 15.8903 20.7814 15.9115 20.7198 15.9184C20.6585 15.9253 20.5905 15.9196 20.538 15.8925C20.512 15.8791 20.4809 15.8559 20.4606 15.8147C20.4409 15.7744 20.437 15.7286 20.4455 15.6852C20.4467 15.5974 20.4782 15.5284 20.5252 15.4834C20.5721 15.4384 20.6312 15.4198 20.6855 15.4165C20.7406 15.4132 20.7987 15.4251 20.8492 15.4513ZM20.6128 15.6458C20.6007 15.6574 20.5947 15.6703 20.5956 15.6949C20.5958 15.6992 20.5957 15.7034 20.5955 15.7076C20.6193 15.7185 20.6601 15.7244 20.7071 15.7191C20.7563 15.7136 20.7994 15.6972 20.8245 15.6773C20.8288 15.6739 20.832 15.6709 20.8343 15.6684C20.8269 15.6591 20.8144 15.6478 20.7947 15.6376C20.765 15.6222 20.7279 15.6142 20.6923 15.6163C20.6558 15.6185 20.6283 15.6308 20.6128 15.6458ZM20.1695 15.5899C20.1495 15.5389 20.1101 15.5212 20.0902 15.5145C20.0645 15.5057 20.0349 15.5031 20.0051 15.5041C19.9448 15.506 19.8699 15.523 19.7932 15.5555C19.6424 15.6192 19.4632 15.7516 19.3798 15.9815C19.3711 16.0054 19.3699 16.0329 19.3765 16.058C19.383 16.0831 19.3968 16.1037 19.4148 16.1152C19.4905 16.1636 19.583 16.1727 19.6709 16.1616C19.7602 16.1503 19.8526 16.1172 19.9334 16.0708C20.013 16.0251 20.0879 15.9626 20.1364 15.887C20.161 15.8487 20.1816 15.8026 20.1895 15.7498C20.1975 15.6957 20.1912 15.6406 20.1695 15.5899ZM19.5679 15.9638C19.5947 15.9669 19.6246 15.9666 19.6567 15.9625C19.7294 15.9533 19.8066 15.9258 19.874 15.8871C19.9427 15.8477 19.9946 15.8003 20.0224 15.757C20.036 15.7358 20.0409 15.7201 20.0423 15.7108C20.0426 15.7091 20.0427 15.7075 20.0428 15.7058C20.0346 15.7044 20.0233 15.7035 20.0087 15.704C19.9649 15.7054 19.9041 15.7184 19.8385 15.7461C19.7366 15.7892 19.6356 15.862 19.5679 15.9638ZM20.0573 15.7101C20.0572 15.7101 20.0565 15.7098 20.0553 15.7091C20.0568 15.7097 20.0573 15.71 20.0573 15.7101ZM21.4759 15.6409C21.5311 15.6525 21.5898 15.6861 21.6284 15.7633C21.6288 15.7641 21.6292 15.7648 21.6295 15.7656C21.6477 15.8042 21.6662 15.8565 21.659 15.9128C21.65 15.9829 21.609 16.0157 21.5779 16.028C21.5487 16.0396 21.5162 16.0395 21.4884 16.0366C21.4591 16.0335 21.4274 16.0262 21.3966 16.0173C21.3348 15.9994 21.2701 15.9729 21.2218 15.9514C21.1975 15.9405 21.177 15.9307 21.1624 15.9235C21.1552 15.92 21.1493 15.9169 21.145 15.9147C21.143 15.9136 21.1407 15.9124 21.1387 15.9112C21.1381 15.9109 21.1357 15.9095 21.1329 15.9075C21.1321 15.9069 21.1306 15.9059 21.1288 15.9044C21.1277 15.9035 21.1233 15.9 21.1184 15.8944C21.1156 15.8909 21.1086 15.8807 21.1048 15.8736C21.0989 15.8592 21.0926 15.8151 21.0965 15.7867C21.1047 15.7656 21.1234 15.7419 21.1368 15.7298C21.1362 15.728 21.1362 15.728 21.1362 15.728L21.1363 15.7279L21.1366 15.7277L21.1376 15.7271C21.1383 15.7266 21.1394 15.726 21.1407 15.7252C21.1434 15.7237 21.1471 15.7215 21.1518 15.7189C21.1613 15.7136 21.1746 15.7064 21.1909 15.6985C21.2231 15.6828 21.268 15.6634 21.3169 15.6504C21.3651 15.6376 21.4218 15.6295 21.4759 15.6409ZM19.2624 16.3609C19.2624 16.361 19.2624 16.361 19.1895 16.3375C19.2393 16.4122 19.2393 16.4122 19.2393 16.4122L19.2387 16.413L19.2369 16.415C19.2354 16.4168 19.2332 16.4194 19.2303 16.4228C19.2246 16.4296 19.2162 16.4394 19.2055 16.4517C19.1841 16.4763 19.1537 16.5111 19.1171 16.5518C19.044 16.633 18.9459 16.7386 18.8467 16.8342C18.749 16.9283 18.6447 17.0184 18.5608 17.0632C18.5212 17.0843 18.472 17.1034 18.4263 17.0911C18.4006 17.0842 18.3746 17.0668 18.3552 17.0342C18.3365 17.0029 18.3291 16.9663 18.3272 16.9327C18.3267 16.9252 18.3269 16.9176 18.3278 16.9102C18.3415 16.7879 18.4002 16.6674 18.4674 16.5623C18.5363 16.4545 18.6226 16.3502 18.7055 16.26C18.7887 16.1695 18.8704 16.0913 18.931 16.0357C18.9614 16.0079 18.9867 15.9857 19.0044 15.9704C19.0133 15.9627 19.0203 15.9568 19.0251 15.9527C19.0275 15.9507 19.0294 15.9491 19.0307 15.948L19.0322 15.9468L19.0327 15.9463C19.0327 15.9463 19.0328 15.9463 19.0723 16.0313L19.0328 15.9463C19.0436 15.9374 19.0558 15.9323 19.0685 15.9314C19.1277 15.9156 19.1833 15.9303 19.2236 15.9859C19.2603 16.0366 19.2712 16.1046 19.2747 16.154C19.2784 16.2065 19.275 16.2584 19.2712 16.2952C19.2693 16.3141 19.2672 16.33 19.2655 16.3414C19.2647 16.3471 19.2639 16.3517 19.2634 16.355C19.2631 16.3567 19.2629 16.358 19.2627 16.359L19.2625 16.3603L19.2624 16.3607L19.2624 16.3609L19.2624 16.3609ZM19.0987 16.1273C19.0951 16.1303 19.0909 16.134 19.086 16.1382C19.0692 16.1527 19.0451 16.1739 19.0159 16.2006C18.9575 16.2541 18.8794 16.329 18.8003 16.415C18.7209 16.5014 18.6423 16.5971 18.5816 16.6921C18.5351 16.7648 18.5034 16.8305 18.4873 16.8862C18.4925 16.8839 18.4984 16.8811 18.5051 16.8775C18.5705 16.8426 18.6619 16.7655 18.7588 16.6721C18.8541 16.5802 18.9493 16.4779 19.021 16.3982C19.0568 16.3585 19.0865 16.3245 19.1073 16.3005C19.1123 16.2947 19.1168 16.2895 19.1207 16.2849C19.1214 16.2799 19.122 16.2743 19.1226 16.2683C19.1256 16.2389 19.1275 16.2037 19.1253 16.1726C19.1232 16.1423 19.1181 16.1293 19.1163 16.1258C19.1145 16.1254 19.1091 16.1246 19.0987 16.1273ZM19.1895 16.3375L19.2393 16.4122C19.2507 16.3987 19.2588 16.3807 19.2624 16.3609L19.1895 16.3375ZM20.3435 17.1223C20.3138 17.0688 20.2672 17.0441 20.2234 17.0355C20.1702 17.025 20.1075 17.0342 20.0415 17.0561C19.9084 17.1002 19.7413 17.2029 19.5656 17.3601C19.5418 17.3803 19.521 17.4011 19.5049 17.4228C19.4901 17.4428 19.4711 17.4744 19.4665 17.5168C19.4607 17.5697 19.4796 17.6121 19.5033 17.6371C19.5233 17.6583 19.547 17.6682 19.5654 17.6737C19.6035 17.6851 19.6522 17.6864 19.7023 17.6826C19.7537 17.6786 19.8119 17.6687 19.8713 17.6538C19.9889 17.6243 20.1185 17.5735 20.2144 17.5045C20.2618 17.4704 20.3075 17.4273 20.3376 17.3724C20.37 17.3131 20.3851 17.2367 20.3605 17.156C20.3565 17.143 20.3506 17.1316 20.3435 17.1223ZM20.2221 17.2412C20.2195 17.2391 20.2136 17.2357 20.2015 17.2333C20.1754 17.2282 20.1341 17.2315 20.0777 17.2502C19.9776 17.2834 19.8456 17.3598 19.6996 17.4824C19.7423 17.4787 19.7918 17.4702 19.8436 17.4572C19.9533 17.4297 20.0662 17.3839 20.1432 17.3285C20.1823 17.3004 20.2055 17.2744 20.2164 17.2545C20.2197 17.2486 20.2213 17.2443 20.2221 17.2412ZM19.609 17.5674C19.6089 17.5674 19.6091 17.5671 19.6095 17.5664C19.6092 17.5671 19.609 17.5674 19.609 17.5674ZM20.5723 17.5875L20.5005 17.5584C20.4924 17.5937 20.4996 17.6321 20.5192 17.6582C20.5325 17.676 20.5472 17.6821 20.5507 17.6836L20.5508 17.6837C20.5566 17.6861 20.5616 17.6872 20.5645 17.6878C20.5706 17.689 20.5764 17.6894 20.5807 17.6896C20.5897 17.6899 20.6003 17.6895 20.6115 17.6886C20.6342 17.6868 20.6641 17.6828 20.6977 17.6766C20.7644 17.6642 20.8503 17.642 20.9265 17.6071C20.9646 17.5897 21.0026 17.5681 21.0353 17.541C21.0671 17.5147 21.1001 17.4782 21.1196 17.4273C21.1411 17.3711 21.1419 17.308 21.1211 17.2471C21.102 17.1913 21.0663 17.1414 21.0207 17.0953C21.0128 17.0874 21.0039 17.0816 20.9944 17.0783C20.8086 17.0133 20.68 17.1534 20.6066 17.2838C20.5696 17.3495 20.5434 17.4177 20.5265 17.4685C20.518 17.4941 20.5116 17.5159 20.5074 17.5316C20.5052 17.5394 20.5036 17.5457 20.5025 17.5503C20.5019 17.5526 20.5015 17.5544 20.5011 17.5558L20.5007 17.5574L20.5006 17.558L20.5005 17.5583C20.5005 17.5583 20.5005 17.5584 20.5723 17.5875ZM20.7266 17.4038C20.7133 17.4274 20.7016 17.452 20.6915 17.4757C20.75 17.464 20.8189 17.4449 20.8778 17.4179C20.9098 17.4033 20.9364 17.3874 20.9562 17.3711C20.9769 17.354 20.9842 17.3412 20.986 17.3364C20.9861 17.3362 20.9861 17.3361 20.9862 17.3359C20.986 17.335 20.9856 17.3331 20.9846 17.3301C20.9807 17.3187 20.9696 17.2974 20.9422 17.2674C20.8493 17.2431 20.7806 17.3077 20.7266 17.4038ZM22.1491 17.9524C22.1462 17.9662 22.141 17.9791 22.1339 17.9901C22.1008 18.0416 22.0513 18.0673 22.0063 18.0812C21.9591 18.0957 21.9046 18.1009 21.8488 18.0997C21.7372 18.0973 21.6092 18.0689 21.5009 18.0226C21.4467 17.9994 21.3953 17.9708 21.3524 17.9368C21.3111 17.904 21.2699 17.8601 21.2471 17.8016C21.2209 17.7345 21.2233 17.6592 21.2568 17.5917C21.2863 17.5321 21.3374 17.4836 21.4015 17.4416C21.6647 17.2663 21.8759 17.3301 22.0106 17.4764C22.0757 17.547 22.1215 17.6354 22.1456 17.7198C22.1576 17.7619 22.1651 17.8059 22.1655 17.8482C22.1658 17.8812 22.1619 17.9182 22.1491 17.9524ZM21.9159 17.6315C21.8304 17.5387 21.6831 17.4775 21.4683 17.6207L21.4678 17.6211C21.4125 17.6572 21.3897 17.6863 21.3819 17.7021C21.3789 17.708 21.3791 17.7082 21.3796 17.7086C21.3798 17.7087 21.38 17.7088 21.3801 17.7092C21.3841 17.7194 21.3974 17.7397 21.4291 17.7649C21.4593 17.7889 21.4995 17.812 21.5467 17.8321C21.6412 17.8726 21.7546 17.8977 21.8513 17.8997C21.8996 17.9008 21.941 17.896 21.9725 17.8863C21.9933 17.8799 22.0058 17.8725 22.0127 17.8671C22.0134 17.8656 22.0141 17.8642 22.0148 17.8627C22.0151 17.8612 22.0156 17.8575 22.0155 17.851C22.0154 17.8371 22.0127 17.8165 22.0054 17.791C21.9908 17.74 21.961 17.6804 21.9159 17.6315ZM18.6492 17.5095C18.6416 17.4501 18.6048 17.4149 18.5834 17.3994C18.5537 17.378 18.5165 17.3652 18.4801 17.3576C18.406 17.3423 18.3117 17.3442 18.2263 17.3677C18.1454 17.3899 18.0506 17.4375 18.0021 17.5379C17.9758 17.5924 17.966 17.6569 17.9761 17.7265C17.9858 17.7931 18.0128 17.8594 18.0531 17.9256L18.0535 17.9262C18.1261 18.0435 18.2112 18.0972 18.3002 18.0872C18.384 18.0777 18.4548 18.0135 18.507 17.9444C18.56 17.8742 18.6017 17.7885 18.6271 17.7142C18.6398 17.6773 18.6498 17.6391 18.6542 17.604C18.6564 17.5865 18.6578 17.5659 18.6558 17.5446C18.6549 17.5348 18.6531 17.5225 18.6492 17.5095ZM18.1693 17.7991C18.1383 17.7483 18.1267 17.7118 18.1234 17.6886C18.1205 17.6684 18.1233 17.6563 18.1283 17.6461C18.1422 17.6172 18.1839 17.5835 18.2565 17.5636C18.3246 17.5449 18.4009 17.5437 18.4571 17.5553C18.4792 17.5598 18.4949 17.5657 18.5047 17.5709C18.505 17.5721 18.5054 17.5734 18.5057 17.5746C18.5038 17.587 18.4992 17.6064 18.4907 17.6312C18.472 17.6858 18.4402 17.7509 18.4012 17.8025C18.3614 17.8553 18.3218 17.884 18.2876 17.8879C18.2588 17.8911 18.2185 17.8784 18.1693 17.7991ZM18.5152 17.5779C18.5152 17.5779 18.515 17.5777 18.5145 17.5772C18.515 17.5777 18.5152 17.5779 18.5152 17.5779ZM17.5384 17.7289C17.5941 17.7157 17.6457 17.7063 17.6754 17.7063C17.6799 17.7063 17.6844 17.7068 17.6888 17.7079C17.7377 17.7197 17.7745 17.7595 17.8007 17.7992C17.8272 17.8394 17.8484 17.8878 17.8655 17.9334C17.8828 17.9795 17.8975 18.0273 17.9098 18.0677C17.9114 18.0731 17.9129 18.0783 17.9144 18.0833C17.9208 18.1044 17.9261 18.1221 17.9308 18.1367C17.9337 18.1406 17.9363 18.1448 17.9386 18.1493C17.9526 18.1763 17.9558 18.2107 17.9472 18.2414C17.9409 18.2638 17.9295 18.2806 17.9256 18.2864L17.9254 18.2867C17.9193 18.2957 17.912 18.3052 17.9046 18.3143C17.8895 18.3328 17.8698 18.3548 17.8474 18.3784C17.8024 18.4258 17.7434 18.4831 17.6824 18.5372C17.6216 18.5911 17.5568 18.6436 17.5005 18.6802C17.4725 18.6984 17.4443 18.7143 17.4183 18.7239C17.3982 18.7314 17.3653 18.741 17.3328 18.7281C17.3037 18.7191 17.2813 18.6939 17.2691 18.679C17.2522 18.6585 17.2354 18.6324 17.2194 18.605C17.1871 18.5496 17.1528 18.4783 17.1222 18.4066C17.0914 18.3348 17.0631 18.2596 17.0433 18.1956C17.0335 18.1638 17.0251 18.1325 17.0198 18.1044C17.0171 18.0904 17.0148 18.0752 17.0138 18.0599C17.0129 18.046 17.0125 18.0246 17.0178 18.0019C17.019 17.9966 17.0205 17.9915 17.0224 17.9866C17.0373 17.9467 17.0651 17.9215 17.0833 17.907C17.1047 17.89 17.1303 17.8746 17.1571 17.8607C17.211 17.8328 17.2781 17.8066 17.3448 17.7843C17.4119 17.7618 17.4806 17.7426 17.5384 17.7289ZM17.8152 18.1508C17.8153 18.1507 17.815 18.1513 17.8142 18.1524C17.8148 18.1514 17.8152 18.1508 17.8152 18.1508ZM17.7846 18.1887C17.7814 18.1783 17.7783 18.1678 17.7751 18.1575C17.7736 18.1524 17.7721 18.1474 17.7706 18.1425C17.7585 18.1024 17.7457 18.0611 17.7314 18.0229C17.7168 17.9841 17.7023 17.9529 17.6881 17.9313C17.6782 17.9163 17.6709 17.9097 17.6664 17.9068C17.6475 17.9084 17.6122 17.9146 17.5646 17.9258C17.5101 17.9387 17.4449 17.957 17.3814 17.9783C17.3174 17.9997 17.2571 18.0235 17.2115 18.0471C17.1938 18.0563 17.1796 18.0648 17.1689 18.0723C17.172 18.0853 17.1764 18.1011 17.182 18.1195C17.1987 18.1736 17.224 18.241 17.2524 18.3075C17.281 18.3741 17.3114 18.4368 17.3379 18.4824C17.3513 18.5054 17.3623 18.5216 17.3703 18.5315C17.3709 18.5321 17.3714 18.5328 17.3719 18.5333C17.3735 18.5329 17.3755 18.5322 17.378 18.5313C17.3915 18.5263 17.4106 18.5162 17.4347 18.5005C17.4825 18.4694 17.5411 18.4223 17.5993 18.3707C17.6572 18.3193 17.7128 18.2653 17.7544 18.2215C17.7658 18.2094 17.7759 18.1984 17.7846 18.1887ZM17.3666 18.5345C17.3666 18.5345 17.3667 18.5345 17.3668 18.5345ZM17.3769 18.5386C17.3769 18.5386 17.3767 18.5384 17.3762 18.538C17.3767 18.5383 17.3769 18.5385 17.3769 18.5386ZM17.1633 18.0426C17.1632 18.042 17.1633 18.0421 17.1633 18.0428C17.1633 18.0427 17.1633 18.0427 17.1633 18.0426ZM23.4514 18.8258C23.467 18.7704 23.447 18.7196 23.4383 18.7003C23.4253 18.6714 23.4064 18.6437 23.3863 18.619C23.3454 18.5686 23.2874 18.5152 23.2222 18.4705C23.1569 18.4257 23.0808 18.3871 23.0035 18.3699C22.9265 18.3529 22.8427 18.3559 22.767 18.4032C22.7477 18.4153 22.7332 18.4377 22.727 18.4648C22.7132 18.5256 22.7197 18.5844 22.7408 18.6349C22.7606 18.6822 22.7914 18.7181 22.8228 18.7456C22.8853 18.8002 22.9699 18.8378 23.0493 18.8629C23.1301 18.8885 23.2128 18.9034 23.2764 18.9083C23.3078 18.9106 23.3372 18.9108 23.3605 18.9075C23.3714 18.906 23.3858 18.9031 23.3996 18.8961C23.4063 18.8927 23.4178 18.8858 23.4288 18.8725C23.4371 18.8624 23.4463 18.8467 23.4514 18.8258ZM22.8892 18.5628C22.8935 18.5676 22.8988 18.5728 22.905 18.5783C22.9458 18.6139 23.0104 18.6451 23.0839 18.6684C23.1308 18.6832 23.1784 18.694 23.221 18.7008C23.2008 18.683 23.1781 18.6651 23.1536 18.6483C23.0982 18.6103 23.0371 18.5801 22.9789 18.5672C22.9462 18.56 22.9162 18.5585 22.8892 18.5628ZM23.3109 18.8064C23.3108 18.8064 23.3104 18.8054 23.3099 18.8036C23.3107 18.8056 23.311 18.8065 23.3109 18.8064ZM19.8044 19.6492C19.8553 19.6157 19.8835 19.547 19.8968 19.4889C19.9119 19.4226 19.9144 19.344 19.8992 19.271C19.8838 19.1966 19.8483 19.1221 19.7849 19.0801C19.722 19.0385 19.6444 19.0372 19.5567 19.0731C19.472 19.1072 19.4028 19.1744 19.3972 19.2869C19.3924 19.3829 19.4389 19.4648 19.4795 19.5172C19.5236 19.5741 19.5806 19.6223 19.6342 19.6503C19.6609 19.6643 19.6901 19.6751 19.7188 19.6772C19.7428 19.679 19.7756 19.6752 19.8044 19.6492ZM19.7182 19.2592C19.7005 19.2475 19.6651 19.2379 19.6006 19.2644L19.6002 19.2645C19.5698 19.2767 19.5555 19.2895 19.5497 19.2967C19.5481 19.2987 19.5472 19.3002 19.5469 19.3009C19.5471 19.3065 19.5522 19.3326 19.5838 19.3735C19.6135 19.4119 19.6538 19.4457 19.689 19.4642C19.7062 19.4732 19.719 19.4768 19.7265 19.4775C19.7302 19.4744 19.7342 19.4718 19.7382 19.4696C19.7379 19.4698 19.7378 19.4699 19.7378 19.4698C19.7376 19.4695 19.7462 19.4616 19.7533 19.4305C19.7607 19.3981 19.7617 19.3584 19.7547 19.3244C19.7479 19.2917 19.7352 19.2705 19.7182 19.2592ZM19.7309 19.4775C19.7309 19.4775 19.7307 19.4776 19.7302 19.4776C19.7306 19.4775 19.7309 19.4775 19.7309 19.4775ZM19.1491 19.6804C19.149 19.6801 19.1488 19.6798 19.1486 19.6794C19.1468 19.6762 19.1442 19.6716 19.1408 19.6659C19.1342 19.6545 19.1246 19.6385 19.1127 19.6197C19.0889 19.5824 19.0549 19.5328 19.0148 19.4854C18.9753 19.4386 18.9268 19.3902 18.8738 19.3594C18.8207 19.3286 18.7556 19.3112 18.6899 19.3438C18.6801 19.3486 18.6711 19.3562 18.6636 19.366C18.6326 19.4063 18.6075 19.4543 18.6008 19.5106C18.5934 19.5718 18.61 19.624 18.6347 19.6623C18.6577 19.6979 18.6885 19.7232 18.7174 19.7416C18.7472 19.7606 18.7805 19.7757 18.8132 19.7878C18.8787 19.812 18.9491 19.8266 19.0012 19.8348C19.0275 19.8389 19.0499 19.8415 19.0657 19.843C19.0734 19.8436 19.0803 19.8441 19.0855 19.8442C19.0873 19.8443 19.0921 19.8444 19.0971 19.8438C19.0985 19.8437 19.1016 19.8433 19.1054 19.8423C19.1073 19.8418 19.1107 19.8408 19.1148 19.839C19.1179 19.8376 19.1266 19.8336 19.136 19.8243C19.1448 19.8155 19.167 19.7886 19.1662 19.7417C19.1658 19.7132 19.1568 19.6927 19.1491 19.6804ZM18.7562 19.5269C18.7541 19.5305 18.7525 19.5335 18.7514 19.5358C18.7566 19.542 18.7661 19.551 18.7822 19.5612C18.8014 19.5735 18.8256 19.5849 18.8532 19.595C18.8655 19.5996 18.8782 19.6038 18.8909 19.6076C18.865 19.58 18.8387 19.5572 18.8139 19.5428C18.7897 19.5287 18.7709 19.5247 18.7562 19.5269ZM20.6205 19.9642C20.6225 20.0617 20.6126 20.1673 20.5803 20.239C20.5711 20.2594 20.5567 20.2748 20.5397 20.2824C20.5079 20.2965 20.4716 20.293 20.4427 20.2868C20.4109 20.28 20.3757 20.267 20.34 20.2498C20.269 20.2155 20.1892 20.1609 20.1237 20.0917C20.0606 20.025 19.998 19.931 19.9868 19.8144C19.9744 19.6861 20.0267 19.5719 20.1266 19.4802L20.1268 19.48C20.2249 19.3904 20.3211 19.3633 20.4073 19.4091C20.4892 19.4526 20.5408 19.5513 20.5716 19.6486C20.6031 19.748 20.6185 19.8622 20.6205 19.9642ZM20.2116 19.6449C20.1381 19.7125 20.133 19.7624 20.1356 19.7889C20.1393 19.8272 20.164 19.879 20.2169 19.9349C20.2675 19.9884 20.3324 20.0334 20.3911 20.0618C20.419 20.0753 20.444 20.0842 20.4638 20.0888C20.4685 20.0592 20.4715 20.0189 20.4706 19.9695C20.4689 19.8878 20.4564 19.7989 20.4335 19.7265C20.4098 19.6519 20.3803 19.61 20.3518 19.5949C20.3277 19.5821 20.2846 19.5784 20.2116 19.6449ZM17.8439 20.4585C17.8376 20.4997 17.8193 20.534 17.8017 20.5603C17.7352 20.6599 17.6412 20.7409 17.5414 20.8064C17.4408 20.8725 17.3295 20.9258 17.2243 20.967C17.1189 21.0084 17.018 21.0383 16.9373 21.0572C16.897 21.0666 16.8612 21.0734 16.832 21.0775C16.8048 21.0812 16.7778 21.0835 16.7582 21.0807L16.766 20.9813L16.7408 21.0754C16.7201 21.0656 16.7027 21.0486 16.6901 21.0342C16.6766 21.0188 16.6634 21.0007 16.6513 20.9823C16.6269 20.9454 16.6024 20.9011 16.5811 20.8597C16.5596 20.818 16.5404 20.7772 16.5264 20.7464C16.5195 20.731 16.5137 20.7176 16.5094 20.7076C16.5074 20.7027 16.5054 20.6979 16.5039 20.6938C16.5031 20.6919 16.502 20.689 16.501 20.6858C16.5005 20.6843 16.4995 20.6813 16.4985 20.6776C16.498 20.6758 16.4972 20.6725 16.4964 20.6684C16.4959 20.6655 16.4941 20.6561 16.4941 20.6438C16.4962 20.6204 16.5073 20.5871 16.5134 20.5769C16.5172 20.5715 16.524 20.5638 16.5268 20.5612C16.5318 20.5566 16.5361 20.5539 16.5374 20.5531C16.5408 20.551 16.5436 20.5496 16.5445 20.5492C16.5469 20.548 16.5494 20.547 16.551 20.5463C16.5546 20.5448 16.5593 20.543 16.5646 20.541C16.5755 20.5369 16.5909 20.5314 16.6101 20.5247C16.6487 20.5113 16.7032 20.4929 16.7677 20.4721C16.8967 20.4307 17.0667 20.3795 17.2299 20.3392C17.3912 20.2994 17.5522 20.2686 17.6602 20.2713C17.6876 20.272 17.7143 20.2749 17.738 20.2816C17.7599 20.2878 17.7883 20.2996 17.811 20.3266C17.8389 20.3598 17.8515 20.408 17.8439 20.4585ZM16.7871 20.8817C16.7948 20.8812 16.8046 20.8802 16.8165 20.8786C16.8414 20.8751 16.8737 20.869 16.9114 20.8602C16.9869 20.8426 17.0823 20.8143 17.182 20.7752C17.2818 20.736 17.3844 20.6865 17.4751 20.627C17.5478 20.5793 17.6099 20.527 17.6566 20.4713C17.5654 20.4691 17.4183 20.4961 17.2572 20.5359C17.0976 20.5753 16.9304 20.6256 16.8029 20.6666C16.7575 20.6811 16.7173 20.6945 16.6843 20.7057C16.6908 20.719 16.6977 20.7327 16.7048 20.7466C16.7245 20.7849 16.7452 20.8218 16.7639 20.8502C16.7731 20.8642 16.7809 20.8746 16.7871 20.8817ZM22.0786 21.7078C22.0786 21.7077 22.0789 21.7073 22.0795 21.7066C22.0789 21.7074 22.0786 21.7078 22.0786 21.7078ZM22.1398 21.6598C22.1531 21.6515 22.1681 21.6427 22.1849 21.6336C22.2615 21.5923 22.3658 21.5498 22.4779 21.5209C22.5903 21.4919 22.7071 21.4775 22.8097 21.4896C22.9103 21.5014 22.988 21.5377 23.0375 21.5975C23.068 21.6556 23.0665 21.6828 23.0654 21.6891C23.0647 21.6935 23.0601 21.7108 23.0262 21.7315C22.9562 21.7743 22.8257 21.7911 22.6708 21.7821C22.5198 21.7734 22.3597 21.7414 22.2399 21.7007C22.2002 21.6872 22.1665 21.6733 22.1398 21.6598ZM22.8229 21.2904C22.9426 21.3045 23.0618 21.3507 23.1462 21.4593C23.1493 21.4633 23.1521 21.4676 23.1547 21.4722C23.1998 21.5545 23.2269 21.6441 23.2117 21.7334C23.1961 21.8247 23.1426 21.8804 23.0888 21.9133C22.9836 21.9777 22.8212 21.991 22.6643 21.982C22.5036 21.9727 22.3333 21.9388 22.2029 21.8945C22.1382 21.8725 22.0798 21.8468 22.0365 21.818C22.0153 21.8039 21.9933 21.7862 21.976 21.7635C21.9596 21.742 21.9359 21.7004 21.9417 21.6431C21.9421 21.6385 21.9428 21.634 21.9438 21.6295C21.951 21.5949 21.9683 21.5712 21.9784 21.5588C21.9903 21.5442 22.0045 21.531 22.0189 21.5192C22.048 21.4955 22.0859 21.4713 22.1287 21.4482C22.2147 21.4018 22.3283 21.3557 22.4494 21.3245C22.5702 21.2933 22.7019 21.2761 22.8229 21.2904ZM24.2202 21.9921C24.2785 22.1071 24.2983 22.2509 24.2367 22.3886C24.1874 22.5001 24.1024 22.5597 24.0119 22.5816C23.9216 22.6035 23.8199 22.5898 23.7228 22.5484C23.5302 22.4662 23.3345 22.2644 23.2747 21.9563C23.2684 21.9241 23.2746 21.8898 23.2912 21.8649C23.4698 21.5965 23.7601 21.6142 23.965 21.7307C24.0694 21.7901 24.1637 21.8808 24.2202 21.9921ZM23.4325 21.9595C23.5526 21.8216 23.7429 21.8219 23.9061 21.9147C23.9927 21.9639 24.0602 22.0337 24.0959 22.1042C24.1299 22.171 24.1329 22.2303 24.1079 22.2863L24.1076 22.2868C24.0866 22.3344 24.0464 22.37 23.9851 22.3848C23.9237 22.3997 23.8473 22.3915 23.7686 22.3579C23.6226 22.2956 23.4871 22.1549 23.4325 21.9595ZM18.0906 21.7433C18.1222 21.7514 18.1568 21.7676 18.1941 21.7903C18.4746 21.9612 18.6076 22.1492 18.6423 22.3701C18.6591 22.4768 18.6512 22.5814 18.6349 22.6797C18.6223 22.7563 18.6035 22.8349 18.5857 22.9096C18.582 22.9248 18.5784 22.9399 18.5749 22.9547C18.5743 22.962 18.5731 22.9692 18.5714 22.9761C18.5607 23.0176 18.5354 23.0596 18.492 23.0691C18.4576 23.0766 18.4274 23.0594 18.4089 23.046C18.3697 23.0175 18.3275 22.9646 18.288 22.9065C18.2063 22.7864 18.112 22.6082 18.0379 22.4337C18.0007 22.3462 17.9677 22.2576 17.9436 22.176C17.9202 22.0965 17.9027 22.0152 17.902 21.9449C17.9017 21.9092 17.9055 21.8689 17.9201 21.8318C17.9358 21.7918 17.9617 21.7619 17.9953 21.7473C18.0264 21.7337 18.0595 21.7352 18.0906 21.7433ZM18.446 22.8352C18.4327 22.8193 18.417 22.7984 18.3991 22.7721C18.3263 22.6652 18.2383 22.4997 18.1684 22.3351C18.1335 22.2531 18.104 22.1733 18.0832 22.1029C18.0619 22.0304 18.0523 21.9761 18.052 21.9423C18.052 21.9406 18.052 21.939 18.052 21.9376C18.0547 21.9379 18.0581 21.9386 18.0621 21.9396C18.0782 21.9438 18.101 21.9535 18.1317 21.9722C18.3949 22.1326 18.4752 22.2821 18.4955 22.4112C18.5063 22.4795 18.5023 22.553 18.4884 22.6367C18.4779 22.7008 18.4627 22.7652 18.446 22.8352ZM18.4847 22.8728C18.4847 22.8728 18.4844 22.8727 18.4838 22.8724C18.4844 22.8726 18.4847 22.8728 18.4847 22.8728ZM19.7931 22.0091C19.7796 22.0047 19.7652 22.0054 19.7517 22.0114C19.7114 22.0293 19.6869 22.0724 19.6728 22.1073C19.6578 22.1444 19.6479 22.1882 19.642 22.2327C19.6301 22.3218 19.6318 22.4306 19.6518 22.5331C19.6718 22.6351 19.7123 22.7416 19.7849 22.8114C19.8601 22.8837 19.9583 22.9058 20.0749 22.8658C20.1892 22.8284 20.2704 22.7499 20.2948 22.6278C20.3178 22.5129 20.2818 22.3974 20.2331 22.3088C20.1829 22.2175 20.1094 22.136 20.0288 22.0812C19.9575 22.0327 19.8747 22.0011 19.7931 22.0091ZM19.8024 22.2088C19.7979 22.222 19.7932 22.2417 19.7897 22.2677C19.7815 22.329 19.7825 22.4086 19.797 22.4826C19.8116 22.5571 19.8376 22.6155 19.8727 22.6492C19.905 22.6803 19.9555 22.7004 20.0378 22.672L20.0388 22.6716C20.1259 22.6433 20.1453 22.5992 20.1498 22.5763C20.1559 22.5462 20.149 22.4941 20.1122 22.4271C20.0769 22.363 20.0221 22.3012 19.9606 22.2593C19.9046 22.2212 19.8491 22.2037 19.8024 22.2088ZM19.809 22.1937C19.809 22.1937 19.8089 22.1939 19.8086 22.1942C19.8089 22.1938 19.809 22.1937 19.809 22.1937ZM19.1329 22.0696C19.1373 22.0688 19.1417 22.0686 19.1461 22.0689C19.19 22.0717 19.2216 22.1108 19.2383 22.1351C19.2583 22.1641 19.2765 22.2011 19.2923 22.24C19.3243 22.3183 19.3528 22.4189 19.3698 22.5175C19.3861 22.6126 19.3946 22.7221 19.3745 22.8104C19.364 22.8567 19.3438 22.9047 19.3072 22.9369C19.27 22.9694 19.2264 22.9766 19.1827 22.9676C19.1748 22.966 19.1672 22.9627 19.16 22.9578C19.0125 22.8574 18.969 22.6382 18.9703 22.4685C18.971 22.3809 18.9832 22.2948 19.0051 22.2259C19.0161 22.1915 19.0306 22.1577 19.0498 22.1301C19.0689 22.1026 19.0966 22.0759 19.1329 22.0696ZM19.1446 22.2998C19.1496 22.31 19.155 22.3219 19.1606 22.3356C19.1856 22.3969 19.2095 22.4803 19.2236 22.5622C19.2383 22.6476 19.2395 22.7151 19.231 22.7523C19.2282 22.7647 19.2254 22.7688 19.2247 22.7698C19.2239 22.7702 19.2215 22.7712 19.2169 22.7712C19.1517 22.7172 19.1193 22.6013 19.1203 22.4706C19.1208 22.4043 19.1303 22.3447 19.1432 22.304C19.1437 22.3026 19.1441 22.3012 19.1446 22.2998ZM19.121 22.2618C19.121 22.2618 19.1213 22.262 19.122 22.2627C19.1213 22.2622 19.121 22.2619 19.121 22.2618Z" fill="white"/>
</g>
<rect x="2" y="2" width="36" height="36" rx="18" stroke="white" stroke-width="4"/>
<defs>
<clipPath id="clip0_90_24899">
<rect x="4" y="4" width="32" height="32" rx="16" fill="white"/>
</clipPath>
</defs>
</svg>
