<svg width="40" height="40" viewBox="0 0 40 40" fill="none" xmlns="http://www.w3.org/2000/svg">
<g clip-path="url(#clip0_90_24829)">
<path d="M4 4H36V20H4V4Z" fill="#002B7F"/>
<path d="M4 20H36V36H4V20Z" fill="#CE1126"/>
<path d="M12.6558 10.5226L12.5798 13.856H10.0438C9.73183 13.0453 9.47583 12.3626 9.47583 11.4293C9.47583 10.6506 9.93583 10.032 10.5958 10.032C11.2958 10.032 12.0678 10.3466 12.6558 10.5226V10.5226Z" fill="#FFD83D"/>
<path d="M9.78015 10.6773V12.5973ZM9.98015 10.4799V13.0399ZM10.1882 10.3466V13.3973ZM10.3882 10.2826V12.6773ZM10.5922 10.2719V12.6879ZM10.7962 10.1813V12.6879ZM11.0002 10.1813V12.6879ZM11.2042 10.2079V12.7146ZM11.4082 10.2346V12.7359ZM11.6122 10.3893V12.8959ZM11.8122 10.4159V13.2373ZM12.0202 10.4159V12.9226ZM12.2202 10.4159V12.9226Z" fill="#FFD83D"/>
<path fill-rule="evenodd" clip-rule="evenodd" d="M10.7964 10.1413C10.8129 10.1413 10.8264 10.1592 10.8264 10.1813V12.688C10.8264 12.7101 10.8129 12.728 10.7964 12.728C10.7798 12.728 10.7664 12.7101 10.7664 12.688V10.1813C10.7664 10.1592 10.7798 10.1413 10.7964 10.1413ZM11.0004 10.1413C11.0169 10.1413 11.0304 10.1592 11.0304 10.1813V12.688C11.0304 12.7101 11.0169 12.728 11.0004 12.728C10.9838 12.728 10.9704 12.7101 10.9704 12.688V10.1813C10.9704 10.1592 10.9838 10.1413 11.0004 10.1413ZM11.2044 10.168C11.2209 10.168 11.2344 10.1859 11.2344 10.208V12.7146C11.2344 12.7367 11.2209 12.7546 11.2044 12.7546C11.1878 12.7546 11.1744 12.7367 11.1744 12.7146V10.208C11.1744 10.1859 11.1878 10.168 11.2044 10.168ZM11.4084 10.1946C11.4249 10.1946 11.4384 10.2125 11.4384 10.2346V12.736C11.4384 12.7581 11.4249 12.776 11.4084 12.776C11.3918 12.776 11.3784 12.7581 11.3784 12.736V10.2346C11.3784 10.2125 11.3918 10.1946 11.4084 10.1946ZM10.5924 10.232C10.6089 10.232 10.6224 10.2499 10.6224 10.272V12.688C10.6224 12.7101 10.6089 12.728 10.5924 12.728C10.5758 12.728 10.5624 12.7101 10.5624 12.688V10.272C10.5624 10.2499 10.5758 10.232 10.5924 10.232ZM10.3884 10.2426C10.4049 10.2426 10.4184 10.2605 10.4184 10.2826V12.6773C10.4184 12.6994 10.4049 12.7173 10.3884 12.7173C10.3718 12.7173 10.3584 12.6994 10.3584 12.6773V10.2826C10.3584 10.2605 10.3718 10.2426 10.3884 10.2426ZM10.1884 10.3066C10.2049 10.3066 10.2184 10.3245 10.2184 10.3466V13.3973C10.2184 13.4194 10.2049 13.4373 10.1884 13.4373C10.1718 13.4373 10.1584 13.4194 10.1584 13.3973V10.3466C10.1584 10.3245 10.1718 10.3066 10.1884 10.3066ZM11.6124 10.3493C11.6289 10.3493 11.6424 10.3672 11.6424 10.3893V12.896C11.6424 12.9181 11.6289 12.936 11.6124 12.936C11.5958 12.936 11.5824 12.9181 11.5824 12.896V10.3893C11.5824 10.3672 11.5958 10.3493 11.6124 10.3493ZM11.8124 10.376C11.8289 10.376 11.8424 10.3939 11.8424 10.416V13.2373C11.8424 13.2594 11.8289 13.2773 11.8124 13.2773C11.7958 13.2773 11.7824 13.2594 11.7824 13.2373V10.416C11.7824 10.3939 11.7958 10.376 11.8124 10.376ZM12.0204 10.376C12.0369 10.376 12.0504 10.3939 12.0504 10.416V12.9226C12.0504 12.9447 12.0369 12.9626 12.0204 12.9626C12.0038 12.9626 11.9904 12.9447 11.9904 12.9226V10.416C11.9904 10.3939 12.0038 10.376 12.0204 10.376ZM12.2204 10.376C12.2369 10.376 12.2504 10.3939 12.2504 10.416V12.9226C12.2504 12.9447 12.2369 12.9626 12.2204 12.9626C12.2038 12.9626 12.1904 12.9447 12.1904 12.9226V10.416C12.1904 10.3939 12.2038 10.376 12.2204 10.376ZM9.98037 10.44C9.99693 10.44 10.0104 10.4579 10.0104 10.48V13.04C10.0104 13.0621 9.99693 13.08 9.98037 13.08C9.9638 13.08 9.95037 13.0621 9.95037 13.04V10.48C9.95037 10.4579 9.9638 10.44 9.98037 10.44ZM9.78037 10.6373C9.79693 10.6373 9.81037 10.6552 9.81037 10.6773V12.5973C9.81037 12.6194 9.79693 12.6373 9.78037 12.6373C9.7638 12.6373 9.75037 12.6194 9.75037 12.5973V10.6773C9.75037 10.6552 9.7638 10.6373 9.78037 10.6373Z" fill="black"/>
<path d="M11.0563 10.2933C11.4883 10.3839 12.4323 10.9759 12.3243 11.7706C12.1723 12.9013 11.6763 12.4479 11.0203 12.2879L10.5243 12.5066C10.3443 12.7466 10.0843 12.9706 9.9083 12.6773H9.6123V14.2133H12.8683V10.5066L11.0563 10.2933Z" fill="black"/>
<path fill-rule="evenodd" clip-rule="evenodd" d="M11.0263 10.2884C11.0282 10.267 11.0426 10.2516 11.0587 10.2535L12.8707 10.4668C12.8862 10.4686 12.898 10.4859 12.898 10.5066V14.2133C12.898 14.2354 12.8846 14.2533 12.868 14.2533H9.61203C9.59546 14.2533 9.58203 14.2354 9.58203 14.2133V12.6773C9.58203 12.6552 9.59546 12.6373 9.61203 12.6373H9.90803C9.91714 12.6373 9.92576 12.6428 9.93146 12.6523C9.97184 12.7196 10.0155 12.755 10.0602 12.7692C10.1052 12.7835 10.1539 12.777 10.2049 12.7541C10.3078 12.7077 10.4139 12.5969 10.5028 12.4783C10.5061 12.4739 10.5102 12.4706 10.5146 12.4687L11.0106 12.25C11.0154 12.2479 11.0205 12.2474 11.0254 12.2486C11.1527 12.2797 11.2744 12.3218 11.3876 12.361C11.4213 12.3726 11.4543 12.3841 11.4865 12.3948C11.6278 12.4422 11.7523 12.4771 11.8602 12.4733C11.9666 12.4695 12.0549 12.4281 12.1263 12.324C12.1988 12.2181 12.2569 12.0431 12.2945 11.7636L12.2945 11.7635C12.3452 11.3908 12.1499 11.0576 11.8753 10.8007C11.6024 10.5454 11.2626 10.3772 11.0514 10.3328C11.0354 10.3295 11.0243 10.3098 11.0263 10.2884ZM11.3827 10.3719C11.5553 10.4568 11.7444 10.5805 11.9098 10.7352C12.1882 10.9957 12.4109 11.3557 12.3536 11.7777C12.3151 12.0636 12.2542 12.2559 12.1706 12.3779C12.0857 12.5018 11.9804 12.5491 11.8618 12.5533C11.7447 12.5574 11.6128 12.5197 11.4718 12.4724C11.4388 12.4613 11.4053 12.4497 11.3712 12.4379C11.2606 12.3997 11.1443 12.3594 11.0222 12.3292L10.5402 12.5416C10.45 12.6608 10.3381 12.7785 10.2241 12.8299C10.1656 12.8562 10.1051 12.8657 10.0463 12.847C9.99085 12.8294 9.93934 12.7876 9.89395 12.7173H9.64203V14.1733H12.838V10.5433L11.3827 10.3719Z" fill="black"/>
<path d="M12.512 10.288C12.6203 10.288 12.708 10.171 12.708 10.0266C12.708 9.88229 12.6203 9.76529 12.512 9.76529C12.4038 9.76529 12.316 9.88229 12.316 10.0266C12.316 10.171 12.4038 10.288 12.512 10.288Z" fill="#FFD83D"/>
<path fill-rule="evenodd" clip-rule="evenodd" d="M12.5122 9.81864C12.4261 9.81864 12.3562 9.91177 12.3562 10.0266C12.3562 10.1415 12.4261 10.2346 12.5122 10.2346C12.5984 10.2346 12.6682 10.1415 12.6682 10.0266C12.6682 9.91177 12.5984 9.81864 12.5122 9.81864ZM12.2762 10.0266C12.2762 9.85286 12.3819 9.71198 12.5122 9.71198C12.6426 9.71198 12.7482 9.85286 12.7482 10.0266C12.7482 10.2004 12.6426 10.3413 12.5122 10.3413C12.3819 10.3413 12.2762 10.2004 12.2762 10.0266Z" fill="black"/>
<path d="M12.0681 10.144C12.1763 10.144 12.2641 10.027 12.2641 9.88264C12.2641 9.73831 12.1763 9.62131 12.0681 9.62131C11.9598 9.62131 11.8721 9.73831 11.8721 9.88264C11.8721 10.027 11.9598 10.144 12.0681 10.144Z" fill="#FFD83D"/>
<path fill-rule="evenodd" clip-rule="evenodd" d="M12.0683 9.67463C11.9821 9.67463 11.9123 9.76775 11.9123 9.88263C11.9123 9.9975 11.9821 10.0906 12.0683 10.0906C12.1544 10.0906 12.2243 9.9975 12.2243 9.88263C12.2243 9.76775 12.1544 9.67463 12.0683 9.67463ZM11.8323 9.88263C11.8323 9.70884 11.9379 9.56796 12.0683 9.56796C12.1986 9.56796 12.3043 9.70884 12.3043 9.88263C12.3043 10.0564 12.1986 10.1973 12.0683 10.1973C11.9379 10.1973 11.8323 10.0564 11.8323 9.88263Z" fill="black"/>
<path d="M11.6162 9.99462C11.7244 9.99462 11.8122 9.87762 11.8122 9.73329C11.8122 9.58896 11.7244 9.47195 11.6162 9.47195C11.5079 9.47195 11.4202 9.58896 11.4202 9.73329C11.4202 9.87762 11.5079 9.99462 11.6162 9.99462Z" fill="#FFD83D"/>
<path fill-rule="evenodd" clip-rule="evenodd" d="M11.616 9.52531C11.5298 9.52531 11.46 9.61843 11.46 9.73331C11.46 9.84818 11.5298 9.94131 11.616 9.94131C11.7022 9.94131 11.772 9.84818 11.772 9.73331C11.772 9.61843 11.7022 9.52531 11.616 9.52531ZM11.38 9.73331C11.38 9.55952 11.4857 9.41864 11.616 9.41864C11.7463 9.41864 11.852 9.55952 11.852 9.73331C11.852 9.90709 11.7463 10.048 11.616 10.048C11.4857 10.048 11.38 9.90709 11.38 9.73331Z" fill="black"/>
<path d="M11.1639 9.8933C11.2721 9.8933 11.3599 9.7763 11.3599 9.63197C11.3599 9.48764 11.2721 9.37064 11.1639 9.37064C11.0556 9.37064 10.9679 9.48764 10.9679 9.63197C10.9679 9.7763 11.0556 9.8933 11.1639 9.8933Z" fill="#FFD83D"/>
<path fill-rule="evenodd" clip-rule="evenodd" d="M11.1641 9.42396C11.0779 9.42396 11.0081 9.51708 11.0081 9.63196C11.0081 9.74683 11.0779 9.83996 11.1641 9.83996C11.2503 9.83996 11.3201 9.74683 11.3201 9.63196C11.3201 9.51708 11.2503 9.42396 11.1641 9.42396ZM10.9281 9.63196C10.9281 9.45817 11.0338 9.31729 11.1641 9.31729C11.2944 9.31729 11.4001 9.45817 11.4001 9.63196C11.4001 9.80574 11.2944 9.94662 11.1641 9.94662C11.0338 9.94662 10.9281 9.80574 10.9281 9.63196Z" fill="black"/>
<path d="M10.712 9.83465C10.8202 9.83465 10.908 9.71765 10.908 9.57331C10.908 9.42898 10.8202 9.31198 10.712 9.31198C10.6037 9.31198 10.516 9.42898 10.516 9.57331C10.516 9.71765 10.6037 9.83465 10.712 9.83465Z" fill="#FFD83D"/>
<path fill-rule="evenodd" clip-rule="evenodd" d="M10.7122 9.3653C10.626 9.3653 10.5562 9.45843 10.5562 9.5733C10.5562 9.68818 10.626 9.7813 10.7122 9.7813C10.7984 9.7813 10.8682 9.68818 10.8682 9.5733C10.8682 9.45843 10.7984 9.3653 10.7122 9.3653ZM10.4762 9.5733C10.4762 9.39952 10.5819 9.25864 10.7122 9.25864C10.8425 9.25864 10.9482 9.39952 10.9482 9.5733C10.9482 9.74709 10.8425 9.88797 10.7122 9.88797C10.5819 9.88797 10.4762 9.74709 10.4762 9.5733Z" fill="black"/>
<path d="M10.2722 9.86663C10.3804 9.86663 10.4682 9.74963 10.4682 9.6053C10.4682 9.46097 10.3804 9.34396 10.2722 9.34396C10.1639 9.34396 10.0762 9.46097 10.0762 9.6053C10.0762 9.74963 10.1639 9.86663 10.2722 9.86663Z" fill="#FFD83D"/>
<path fill-rule="evenodd" clip-rule="evenodd" d="M10.2719 9.39732C10.1857 9.39732 10.1159 9.49044 10.1159 9.60532C10.1159 9.72019 10.1857 9.81332 10.2719 9.81332C10.358 9.81332 10.4279 9.72019 10.4279 9.60532C10.4279 9.49044 10.358 9.39732 10.2719 9.39732ZM10.0359 9.60532C10.0359 9.43153 10.1415 9.29065 10.2719 9.29065C10.4022 9.29065 10.5079 9.43153 10.5079 9.60532C10.5079 9.7791 10.4022 9.91998 10.2719 9.91998C10.1415 9.91998 10.0359 9.7791 10.0359 9.60532Z" fill="black"/>
<path d="M9.8481 10.0586C9.95635 10.0586 10.0441 9.94164 10.0441 9.79731C10.0441 9.65298 9.95635 9.53598 9.8481 9.53598C9.73985 9.53598 9.6521 9.65298 9.6521 9.79731C9.6521 9.94164 9.73985 10.0586 9.8481 10.0586Z" fill="#FFD83D"/>
<path fill-rule="evenodd" clip-rule="evenodd" d="M9.84782 9.5893C9.76166 9.5893 9.69182 9.68243 9.69182 9.7973C9.69182 9.91218 9.76166 10.0053 9.84782 10.0053C9.93397 10.0053 10.0038 9.91218 10.0038 9.7973C10.0038 9.68243 9.93397 9.5893 9.84782 9.5893ZM9.61182 9.7973C9.61182 9.62352 9.71748 9.48264 9.84782 9.48264C9.97816 9.48264 10.0838 9.62352 10.0838 9.7973C10.0838 9.97109 9.97816 10.112 9.84782 10.112C9.71748 10.112 9.61182 9.97109 9.61182 9.7973Z" fill="black"/>
<path d="M9.4919 10.4106C9.60015 10.4106 9.6879 10.2936 9.6879 10.1493C9.6879 10.005 9.60015 9.88797 9.4919 9.88797C9.38365 9.88797 9.2959 10.005 9.2959 10.1493C9.2959 10.2936 9.38365 10.4106 9.4919 10.4106Z" fill="#FFD83D"/>
<path fill-rule="evenodd" clip-rule="evenodd" d="M9.4921 9.94129C9.40595 9.94129 9.3361 10.0344 9.3361 10.1493C9.3361 10.2642 9.40595 10.3573 9.4921 10.3573C9.57826 10.3573 9.6481 10.2642 9.6481 10.1493C9.6481 10.0344 9.57826 9.94129 9.4921 9.94129ZM9.2561 10.1493C9.2561 9.97551 9.36176 9.83463 9.4921 9.83463C9.62244 9.83463 9.7281 9.97551 9.7281 10.1493C9.7281 10.3231 9.62244 10.464 9.4921 10.464C9.36176 10.464 9.2561 10.3231 9.2561 10.1493Z" fill="black"/>
<path d="M9.24031 10.896C9.34856 10.896 9.43631 10.779 9.43631 10.6347C9.43631 10.4903 9.34856 10.3733 9.24031 10.3733C9.13206 10.3733 9.04431 10.4903 9.04431 10.6347C9.04431 10.779 9.13206 10.896 9.24031 10.896Z" fill="#FFD83D"/>
<path fill-rule="evenodd" clip-rule="evenodd" d="M9.24015 10.4266C9.15399 10.4266 9.08415 10.5198 9.08415 10.6346C9.08415 10.7495 9.15399 10.8426 9.24015 10.8426C9.32631 10.8426 9.39615 10.7495 9.39615 10.6346C9.39615 10.5198 9.32631 10.4266 9.24015 10.4266ZM9.00415 10.6346C9.00415 10.4609 9.10981 10.32 9.24015 10.32C9.37049 10.32 9.47615 10.4609 9.47615 10.6346C9.47615 10.8084 9.37049 10.9493 9.24015 10.9493C9.10981 10.9493 9.00415 10.8084 9.00415 10.6346Z" fill="black"/>
<path d="M9.11592 11.472C9.22417 11.472 9.31192 11.355 9.31192 11.2106C9.31192 11.0663 9.22417 10.9493 9.11592 10.9493C9.00767 10.9493 8.91992 11.0663 8.91992 11.2106C8.91992 11.355 9.00767 11.472 9.11592 11.472Z" fill="#FFD83D"/>
<path fill-rule="evenodd" clip-rule="evenodd" d="M9.11613 11.0026C9.02997 11.0026 8.96013 11.0958 8.96013 11.2106C8.96013 11.3255 9.02997 11.4186 9.11613 11.4186C9.20228 11.4186 9.27213 11.3255 9.27213 11.2106C9.27213 11.0958 9.20228 11.0026 9.11613 11.0026ZM8.88013 11.2106C8.88013 11.0368 8.98579 10.896 9.11613 10.896C9.24647 10.896 9.35213 11.0368 9.35213 11.2106C9.35213 11.3844 9.24647 11.5253 9.11613 11.5253C8.98579 11.5253 8.88013 11.3844 8.88013 11.2106Z" fill="black"/>
<path d="M9.12007 12.064C9.22832 12.064 9.31607 11.947 9.31607 11.8026C9.31607 11.6583 9.22832 11.5413 9.12007 11.5413C9.01182 11.5413 8.92407 11.6583 8.92407 11.8026C8.92407 11.947 9.01182 12.064 9.12007 12.064Z" fill="#FFD83D"/>
<path fill-rule="evenodd" clip-rule="evenodd" d="M9.11991 11.5946C9.03375 11.5946 8.96391 11.6878 8.96391 11.8026C8.96391 11.9175 9.03375 12.0106 9.11991 12.0106C9.20607 12.0106 9.27591 11.9175 9.27591 11.8026C9.27591 11.6878 9.20607 11.5946 9.11991 11.5946ZM8.88391 11.8026C8.88391 11.6289 8.98957 11.488 9.11991 11.488C9.25025 11.488 9.35591 11.6289 9.35591 11.8026C9.35591 11.9764 9.25025 12.1173 9.11991 12.1173C8.98957 12.1173 8.88391 11.9764 8.88391 11.8026Z" fill="black"/>
<path d="M9.20796 12.6453C9.31621 12.6453 9.40396 12.5283 9.40396 12.384C9.40396 12.2396 9.31621 12.1226 9.20796 12.1226C9.09971 12.1226 9.01196 12.2396 9.01196 12.384C9.01196 12.5283 9.09971 12.6453 9.20796 12.6453Z" fill="#FFD83D"/>
<path fill-rule="evenodd" clip-rule="evenodd" d="M9.20817 12.176C9.12201 12.176 9.05217 12.2691 9.05217 12.384C9.05217 12.4988 9.12201 12.592 9.20817 12.592C9.29432 12.592 9.36417 12.4988 9.36417 12.384C9.36417 12.2691 9.29432 12.176 9.20817 12.176ZM8.97217 12.384C8.97217 12.2102 9.07783 12.0693 9.20817 12.0693C9.33851 12.0693 9.44417 12.2102 9.44417 12.384C9.44417 12.5578 9.33851 12.6986 9.20817 12.6986C9.07783 12.6986 8.97217 12.5578 8.97217 12.384Z" fill="black"/>
<path d="M12.6 10.3733L12.58 10.72C12.088 10.6133 11.392 10.2506 10.74 10.2506C10.14 10.2506 9.67599 10.5706 9.67599 11.3813C9.67599 12.176 9.92799 12.9013 10.264 13.6373L9.91599 13.8506C9.60399 13.0506 9.34399 12.3573 9.34399 11.4293C9.34399 10.6506 9.80399 9.88263 10.596 9.88263C11.296 9.88263 12.012 10.2026 12.6 10.3733V10.3733Z" fill="#FFD83D"/>
<path fill-rule="evenodd" clip-rule="evenodd" d="M10.5958 9.93595C9.82645 9.93595 9.38383 10.6794 9.38383 11.4293C9.38383 12.3256 9.62963 12.9998 9.93375 13.7809L10.2064 13.6138C9.88095 12.8928 9.63583 12.1724 9.63583 11.3813C9.63583 10.9604 9.7571 10.6608 9.95963 10.4685C10.16 10.2782 10.4355 10.1973 10.7398 10.1973C11.0709 10.1973 11.4117 10.2893 11.7294 10.3935C11.8275 10.4257 11.9231 10.4589 12.0156 10.4911C12.207 10.5576 12.3848 10.6194 12.5433 10.6575L12.5573 10.4154C12.4197 10.3745 12.2756 10.3262 12.1273 10.2763L12.1225 10.2747C11.9632 10.2212 11.7988 10.166 11.6311 10.116C11.2922 10.015 10.9415 9.93595 10.5958 9.93595ZM12.5998 10.3733L12.6083 10.3212C12.4621 10.2787 12.3077 10.2269 12.1469 10.1729L12.1416 10.1711C11.9826 10.1177 11.8173 10.0622 11.6486 10.0119C11.3074 9.91023 10.9501 9.82928 10.5958 9.82928C9.78122 9.82928 9.30383 10.6219 9.30383 11.4293C9.30383 12.3718 9.56851 13.0757 9.88034 13.8752C9.89019 13.9005 9.91316 13.911 9.93254 13.8991L10.2805 13.6857C10.2909 13.6794 10.2988 13.6674 10.3021 13.6529C10.3054 13.6383 10.3039 13.6226 10.298 13.6096C9.96296 12.8757 9.71583 12.1608 9.71583 11.3813C9.71583 10.9915 9.82657 10.7258 10.006 10.5554C10.1876 10.383 10.4442 10.304 10.7398 10.304C11.0608 10.304 11.3939 10.3933 11.7103 10.4971C11.8054 10.5283 11.8993 10.5609 11.9909 10.5927C12.2018 10.666 12.4005 10.7351 12.5734 10.7726C12.5845 10.775 12.5958 10.7711 12.6046 10.7619C12.6134 10.7526 12.6189 10.7389 12.6197 10.724L12.6397 10.3774L12.5998 10.3733Z" fill="black"/>
<path d="M12.88 6.83199L12.672 7.34933L12.88 7.86133L13.084 7.34933L12.88 6.82666V6.83199ZM12.88 8.13333L12.672 8.64533L12.88 9.16266L13.08 8.63999L12.876 8.12799L12.88 8.13333ZM12.144 7.99999L12.468 8.27199L12.792 7.99999L12.472 7.72266L12.144 7.99999ZM12.964 7.99999L13.288 8.27199L13.616 7.99999L13.288 7.72266L12.968 7.99999H12.964Z" fill="#FFD83D"/>
<path fill-rule="evenodd" clip-rule="evenodd" d="M12.8707 6.77485C12.8886 6.76901 12.9072 6.78023 12.9157 6.80203L13.1197 7.3247C13.1258 7.34027 13.1258 7.35884 13.1196 7.37434L12.9156 7.88634C12.9087 7.9037 12.8951 7.91457 12.8804 7.91465C12.8657 7.91473 12.8521 7.904 12.8451 7.88672L12.6371 7.37472C12.6307 7.35895 12.6306 7.33993 12.637 7.32412L12.8409 6.81694C12.8437 6.7966 12.8552 6.7799 12.8707 6.77485ZM12.8808 6.94355L12.7177 7.34919L12.8799 7.7485L13.0391 7.34906L12.8808 6.94355ZM12.4508 7.67761C12.464 7.66644 12.4809 7.66657 12.494 7.67794L12.814 7.95527C12.8255 7.96518 12.8323 7.98218 12.8322 8.00037C12.8321 8.01856 12.8251 8.03543 12.8136 8.04512L12.4896 8.31712C12.4765 8.32805 12.46 8.32805 12.4469 8.31712L12.1229 8.04512C12.1113 8.03537 12.1043 8.01837 12.1042 8.00007C12.1042 7.98178 12.1112 7.96474 12.1228 7.95495L12.4508 7.67761ZM13.2664 7.67794C13.2796 7.66657 13.2965 7.66644 13.3097 7.67761L13.6377 7.95495C13.6493 7.96477 13.6563 7.98187 13.6562 8.00022C13.6562 8.01857 13.6491 8.03559 13.6374 8.04528L13.3094 8.31728C13.2964 8.32806 13.2799 8.328 13.2669 8.31712L12.9429 8.04512C12.9279 8.03246 12.9209 8.00803 12.9258 7.9852C12.9298 7.96663 12.941 7.95276 12.9546 7.94824L13.2664 7.67794ZM13.0405 8.00098L13.2884 8.20907L13.541 7.99955L13.2885 7.78603L13.0405 8.00098ZM12.2191 7.99983L12.4682 8.20896L12.718 7.99927L12.472 7.78603L12.2191 7.99983ZM12.8525 8.08511C12.8684 8.06941 12.8905 8.0716 12.9045 8.09027L12.9085 8.09561C12.9142 8.10322 12.9179 8.11271 12.9195 8.12275L13.1156 8.61497C13.1217 8.63034 13.1218 8.64872 13.1159 8.66423L12.9159 9.18689C12.9091 9.20457 12.8955 9.21578 12.8807 9.21598C12.8658 9.21619 12.852 9.20535 12.845 9.18785L12.637 8.67052C12.6306 8.65471 12.6307 8.63569 12.6371 8.61992L12.8363 8.12961C12.8359 8.11261 12.8416 8.09581 12.8525 8.08511ZM12.879 8.24847L12.7177 8.64545L12.8794 9.04759L13.0352 8.64049L12.879 8.24847Z" fill="black"/>
<path d="M12.88 8.21333C12.9662 8.21333 13.036 8.12021 13.036 8.00533C13.036 7.89046 12.9662 7.79733 12.88 7.79733C12.7938 7.79733 12.724 7.89046 12.724 8.00533C12.724 8.12021 12.7938 8.21333 12.88 8.21333Z" fill="#FFD83D"/>
<path fill-rule="evenodd" clip-rule="evenodd" d="M12.8802 7.85065C12.8161 7.85065 12.7642 7.9199 12.7642 8.00532C12.7642 8.09074 12.8161 8.15999 12.8802 8.15999C12.9443 8.15999 12.9962 8.09074 12.9962 8.00532C12.9962 7.9199 12.9443 7.85065 12.8802 7.85065ZM12.6842 8.00532C12.6842 7.86099 12.772 7.74399 12.8802 7.74399C12.9885 7.74399 13.0762 7.86099 13.0762 8.00532C13.0762 8.14965 12.9885 8.26665 12.8802 8.26665C12.772 8.26665 12.6842 8.14965 12.6842 8.00532Z" fill="black"/>
<path d="M12.88 9.89332C13.1119 9.89332 13.3 9.64259 13.3 9.33332C13.3 9.02404 13.1119 8.77332 12.88 8.77332C12.648 8.77332 12.46 9.02404 12.46 9.33332C12.46 9.64259 12.648 9.89332 12.88 9.89332Z" fill="#FFD83D"/>
<path fill-rule="evenodd" clip-rule="evenodd" d="M12.8802 8.82667C12.6703 8.82667 12.5002 9.05351 12.5002 9.33333C12.5002 9.61316 12.6703 9.84 12.8802 9.84C13.09 9.84 13.2602 9.61316 13.2602 9.33333C13.2602 9.05351 13.09 8.82667 12.8802 8.82667ZM12.4202 9.33333C12.4202 8.9946 12.6261 8.72 12.8802 8.72C13.1342 8.72 13.3402 8.9946 13.3402 9.33333C13.3402 9.67207 13.1342 9.94667 12.8802 9.94667C12.6261 9.94667 12.4202 9.67207 12.4202 9.33333Z" fill="black"/>
<path fill-rule="evenodd" clip-rule="evenodd" d="M12.7721 8.75464C12.7887 8.75464 12.8021 8.77255 12.8021 8.79464V9.14664C12.8021 9.16798 12.7896 9.18557 12.7736 9.18659C12.6756 9.19289 12.5779 9.20696 12.4811 9.22875C12.4648 9.23243 12.4493 9.21775 12.4466 9.19597C12.4438 9.17418 12.4548 9.15354 12.4711 9.14986C12.5609 9.12967 12.6513 9.11594 12.7421 9.10873V8.79464C12.7421 8.77255 12.7556 8.75464 12.7721 8.75464ZM12.9841 8.75464C13.0007 8.75464 13.0141 8.77255 13.0141 8.79464V9.10864C13.1063 9.11564 13.1981 9.1294 13.2891 9.14986C13.3055 9.15353 13.3165 9.17417 13.3137 9.19596C13.311 9.21774 13.2955 9.23242 13.2792 9.22875C13.1811 9.2067 13.0821 9.19263 12.9828 9.1866C12.9668 9.18562 12.9541 9.16802 12.9541 9.14664V8.79464C12.9541 8.77255 12.9676 8.75464 12.9841 8.75464ZM12.88 9.38397L12.8801 9.38397C13.0179 9.38397 13.1557 9.40017 13.2857 9.43266C13.302 9.43673 13.3127 9.45763 13.3096 9.47934C13.3066 9.50106 13.2909 9.51536 13.2746 9.51129C13.1486 9.47978 13.0145 9.46398 12.8802 9.46397C12.7451 9.46479 12.6104 9.48065 12.4773 9.51139C12.4609 9.51515 12.4454 9.50057 12.4426 9.4788C12.4398 9.45703 12.4507 9.43633 12.467 9.43256C12.6034 9.40106 12.7416 9.38481 12.88 9.38397Z" fill="black"/>
<path d="M12.472 10.2773C12.432 11.184 12.352 12.1173 12.084 12.7893L12.516 12.5547C12.668 11.792 12.7 10.8053 12.744 10.336L12.472 10.2773V10.2773ZM13.288 10.2773L13.012 10.336C13.06 10.8053 13.092 11.792 13.24 12.5547L13.672 12.7893C13.408 12.1173 13.328 11.1893 13.288 10.2773V10.2773Z" fill="#FFD83D"/>
<path fill-rule="evenodd" clip-rule="evenodd" d="M13.0059 10.2833L13.2819 10.2247L13.2882 10.2773L13.3281 10.2742C13.3681 11.1868 13.4481 12.104 13.7076 12.7646C13.7154 12.7844 13.7131 12.8086 13.7018 12.8252C13.6905 12.8418 13.6726 12.8472 13.6571 12.8387L13.2251 12.6041C13.2134 12.5977 13.2046 12.5843 13.2015 12.568C13.1267 12.1828 13.0815 11.7424 13.0489 11.3411C13.0348 11.1664 13.023 11.0001 13.0124 10.8485C12.9984 10.6495 12.9862 10.4762 12.9726 10.3432C12.9696 10.3145 12.9844 10.2879 13.0059 10.2833ZM13.2509 10.3393L13.0569 10.3805C13.0687 10.5074 13.0798 10.6657 13.0923 10.8426C13.103 10.9941 13.1146 11.1592 13.1285 11.3296C13.1602 11.7205 13.2036 12.1441 13.274 12.5154L13.59 12.6871C13.364 12.0324 13.2892 11.1768 13.2509 10.3393ZM12.4786 10.2247L12.7506 10.2834C12.7718 10.2879 12.7866 10.3141 12.7839 10.3426C12.7728 10.4611 12.7624 10.6146 12.7504 10.7904C12.7159 11.3005 12.6686 11.9978 12.5548 12.5684C12.5516 12.5845 12.5429 12.5978 12.5313 12.6041L12.0993 12.8387C12.0837 12.8472 12.0658 12.8417 12.0545 12.8251C12.0432 12.8084 12.041 12.7841 12.0489 12.7643C12.3123 12.1038 12.3922 11.1816 12.4323 10.2742L12.4722 10.2773L12.4786 10.2247ZM12.5095 10.3394C12.4711 11.172 12.3963 12.0314 12.1672 12.6867L12.4826 12.5153C12.5907 11.9596 12.636 11.2921 12.67 10.7907C12.6805 10.6352 12.69 10.4957 12.6999 10.3805L12.5095 10.3394Z" fill="black"/>
<path d="M12.8801 12.2507C12.3601 12.2507 11.9801 12.5707 11.9601 13.4027C11.8321 13.104 11.3001 12.176 10.8001 12.2987C10.5041 12.3733 10.2401 12.9227 10.2881 13.5467C10.0401 12.608 9.32414 12.4533 8.79614 13.0133C9.26414 13.52 9.47214 15.0293 9.86414 15.68H15.8921C16.2841 15.0293 16.4921 13.52 16.9601 13.0133C16.4361 12.4533 15.7161 12.608 15.4721 13.5467C15.5121 12.9227 15.2521 12.3733 14.9521 12.2987C14.4561 12.176 13.9241 13.104 13.7961 13.4027C13.7761 12.576 13.3961 12.2507 12.8761 12.2507H12.8801Z" fill="#FFD83D"/>
<path fill-rule="evenodd" clip-rule="evenodd" d="M12.8756 12.1973C12.8759 12.1973 12.8761 12.1973 12.8763 12.1973H12.8803M12.8811 12.1973C13.1448 12.1983 13.3786 12.2815 13.5498 12.4761C13.6999 12.6467 13.7974 12.8978 13.8274 13.2383C13.9123 13.0734 14.0475 12.8481 14.2095 12.6531C14.4219 12.3974 14.6918 12.18 14.9596 12.2462L14.9597 12.2462C15.1248 12.2873 15.2733 12.4568 15.3745 12.6899C15.4482 12.8599 15.4984 13.0669 15.5124 13.2911C15.6504 12.9489 15.8629 12.7406 16.1022 12.6661C16.3918 12.5758 16.7151 12.6829 16.9854 12.9717C16.9948 12.9818 17.0003 12.997 17.0003 13.0132C17.0004 13.0293 16.995 13.0446 16.9856 13.0547C16.8745 13.175 16.7767 13.3573 16.6863 13.5778C16.596 13.7979 16.5146 14.0519 16.4349 14.3128C16.4161 14.3743 16.3974 14.4362 16.3787 14.4982C16.3184 14.6978 16.2581 14.8973 16.1952 15.0821C16.1129 15.3242 16.0247 15.5454 15.9235 15.7134C15.9159 15.726 15.9045 15.7333 15.8923 15.7333H9.86435C9.85222 15.7333 9.84076 15.726 9.83316 15.7134C9.73196 15.5454 9.64381 15.3242 9.56148 15.0821C9.49862 14.8973 9.43834 14.6978 9.37802 14.4982C9.35931 14.4362 9.3406 14.3743 9.3218 14.3128C9.2421 14.0519 9.1607 13.7979 9.07044 13.5778C8.98 13.3573 8.88224 13.175 8.77113 13.0547C8.76173 13.0445 8.75629 13.0292 8.75635 13.0131C8.75641 12.9969 8.76196 12.9816 8.77145 12.9716C9.04361 12.6829 9.3669 12.5758 9.65645 12.6661C9.89493 12.7404 10.1067 12.9474 10.2458 13.2872C10.2584 13.0645 10.3077 12.859 10.3807 12.6901C10.4813 12.4569 10.6298 12.2874 10.7929 12.2463L10.7931 12.2462C11.0628 12.18 11.3337 12.3973 11.5466 12.653C11.709 12.848 11.8443 13.0733 11.9292 13.2381C11.9591 12.8956 12.0566 12.6442 12.207 12.474C12.3782 12.2801 12.6121 12.1983 12.8756 12.1973M12.8783 12.304C12.6247 12.3044 12.4111 12.3828 12.2587 12.5553C12.1069 12.7272 12.0101 12.9993 12.0003 13.4044C11.9998 13.4282 11.9874 13.4487 11.97 13.4544C11.9526 13.4602 11.9345 13.4498 11.9256 13.4291C11.8635 13.2843 11.7011 12.9822 11.4931 12.7323C11.2831 12.4801 11.0379 12.2947 10.8077 12.3511C10.6749 12.3846 10.5433 12.5271 10.45 12.7433C10.3572 12.9583 10.305 13.2405 10.3281 13.5412C10.3302 13.5681 10.3169 13.5928 10.2971 13.5987C10.2773 13.6046 10.2574 13.5899 10.2506 13.5644C10.1307 13.1105 9.89967 12.8514 9.63824 12.7699C9.38884 12.6922 9.10667 12.7747 8.85968 13.0159C8.96614 13.1466 9.05791 13.325 9.14063 13.5267C9.23325 13.7524 9.3161 14.0114 9.39589 14.2725C9.41498 14.335 9.43388 14.3975 9.4527 14.4598C9.51287 14.659 9.57225 14.8555 9.63434 15.0381C9.71249 15.2678 9.79367 15.4716 9.88374 15.6267H15.873C15.963 15.4716 16.0442 15.2678 16.1224 15.0381C16.1844 14.8555 16.2438 14.659 16.304 14.4598C16.3228 14.3975 16.3417 14.335 16.3608 14.2725C16.4406 14.0114 16.5234 13.7524 16.6161 13.5267C16.6988 13.3249 16.7906 13.1464 16.8971 13.0158C16.652 12.7747 16.3699 12.6922 16.1204 12.7699C15.859 12.8514 15.6281 13.1105 15.5101 13.5641C15.5035 13.5895 15.4838 13.6044 15.464 13.5988C15.4443 13.5932 15.4308 13.5689 15.4325 13.5421C15.4518 13.241 15.3986 12.9585 15.3052 12.7434C15.2114 12.5272 15.0799 12.3847 14.945 12.3511C14.7169 12.2947 14.4728 12.4799 14.2632 12.7322C14.0556 12.9821 13.8932 13.2842 13.8311 13.4291C13.8222 13.4498 13.8041 13.4602 13.7867 13.4544C13.7693 13.4487 13.7569 13.4282 13.7564 13.4044C13.7466 13.0021 13.6498 12.7299 13.4979 12.5573C13.3455 12.3841 13.1318 12.3044 12.8783 12.304Z" fill="black"/>
<path d="M15.8842 15.68C15.8842 15.9787 14.5402 16.304 12.8802 16.304C11.2202 16.304 9.87219 15.984 9.87219 15.68C9.87219 15.3867 11.2202 15.2267 12.8802 15.2267C14.5362 15.2267 15.8842 15.3867 15.8842 15.68Z" fill="black"/>
<path fill-rule="evenodd" clip-rule="evenodd" d="M9.94865 15.6105C9.91048 15.6414 9.90192 15.6656 9.90192 15.68C9.90192 15.6975 9.91214 15.7253 9.95041 15.7615C9.98729 15.7962 10.0435 15.8322 10.1186 15.8681C10.2684 15.9397 10.4867 16.0077 10.7582 16.0665C11.3008 16.1841 12.0512 16.264 12.8799 16.264C13.7086 16.264 14.458 16.1828 14.9996 16.0645C15.2706 16.0054 15.4884 15.9372 15.6379 15.8658C15.7128 15.8301 15.7689 15.7943 15.8057 15.7598C15.844 15.724 15.8539 15.6966 15.8539 15.68C15.8539 15.6656 15.8454 15.6414 15.8072 15.6105C15.7706 15.5809 15.7146 15.5517 15.6394 15.524C15.4896 15.4686 15.2713 15.4214 14.9998 15.3831C14.4572 15.3067 13.7074 15.2667 12.8799 15.2667C12.0504 15.2667 11.2996 15.3067 10.7566 15.3831C10.4848 15.4214 10.2664 15.4686 10.1165 15.524C10.0413 15.5517 9.98526 15.5809 9.94865 15.6105ZM10.7503 15.3036C11.2962 15.2267 12.0494 15.1867 12.8799 15.1867C13.7084 15.1867 14.4606 15.2267 15.0061 15.3036C15.2786 15.342 15.5008 15.3897 15.6554 15.4469C15.7325 15.4754 15.7947 15.5068 15.8383 15.5421C15.8804 15.5761 15.9139 15.6211 15.9139 15.68C15.9139 15.738 15.8819 15.7862 15.8402 15.8253C15.797 15.8658 15.7351 15.9044 15.6581 15.9412C15.5037 16.0149 15.2818 16.084 15.0093 16.1435C14.4639 16.2626 13.7112 16.344 12.8799 16.344C12.0487 16.344 11.295 16.2639 10.7486 16.1455C10.4756 16.0863 10.2532 16.0174 10.0984 15.9434C10.0211 15.9065 9.95908 15.8676 9.91575 15.8268C9.87383 15.7872 9.84192 15.7385 9.84192 15.68C9.84192 15.6211 9.87548 15.5761 9.91752 15.5421C9.96111 15.5068 10.0233 15.4754 10.1005 15.4469C10.2552 15.3897 10.4775 15.342 10.7503 15.3036Z" fill="black"/>
<path d="M12.8801 10.288C12.9574 10.288 13.0201 10.2044 13.0201 10.1013C13.0201 9.99825 12.9574 9.91467 12.8801 9.91467C12.8028 9.91467 12.7401 9.99825 12.7401 10.1013C12.7401 10.2044 12.8028 10.288 12.8801 10.288Z" fill="#FFD83D"/>
<path fill-rule="evenodd" clip-rule="evenodd" d="M12.8803 9.95466C12.8196 9.95466 12.7703 10.0203 12.7703 10.1013C12.7703 10.1823 12.8196 10.248 12.8803 10.248C12.9411 10.248 12.9903 10.1823 12.9903 10.1013C12.9903 10.0203 12.9411 9.95466 12.8803 9.95466ZM12.7103 10.1013C12.7103 9.97615 12.7864 9.87466 12.8803 9.87466C12.9742 9.87466 13.0503 9.97615 13.0503 10.1013C13.0503 10.2265 12.9742 10.328 12.8803 10.328C12.7864 10.328 12.7103 10.2265 12.7103 10.1013Z" fill="black"/>
<path d="M12.8803 10.704C12.962 10.704 13.0283 10.6156 13.0283 10.5067C13.0283 10.3977 12.962 10.3093 12.8803 10.3093C12.7986 10.3093 12.7323 10.3977 12.7323 10.5067C12.7323 10.6156 12.7986 10.704 12.8803 10.704Z" fill="#FFD83D"/>
<path fill-rule="evenodd" clip-rule="evenodd" d="M12.88 10.3493C12.8149 10.3493 12.762 10.4198 12.762 10.5067C12.762 10.5935 12.8149 10.664 12.88 10.664C12.9452 10.664 12.998 10.5935 12.998 10.5067C12.998 10.4198 12.9452 10.3493 12.88 10.3493ZM12.702 10.5067C12.702 10.3756 12.7817 10.2693 12.88 10.2693C12.9783 10.2693 13.058 10.3756 13.058 10.5067C13.058 10.6377 12.9783 10.744 12.88 10.744C12.7817 10.744 12.702 10.6377 12.702 10.5067Z" fill="black"/>
<path d="M12.8801 11.1627C12.9706 11.1627 13.0441 11.0648 13.0441 10.944C13.0441 10.8232 12.9706 10.7253 12.8801 10.7253C12.7895 10.7253 12.7161 10.8232 12.7161 10.944C12.7161 11.0648 12.7895 11.1627 12.8801 11.1627Z" fill="#FFD83D"/>
<path fill-rule="evenodd" clip-rule="evenodd" d="M12.8803 10.7653C12.8063 10.7653 12.7463 10.8453 12.7463 10.944C12.7463 11.0427 12.8063 11.1227 12.8803 11.1227C12.9543 11.1227 13.0143 11.0427 13.0143 10.944C13.0143 10.8453 12.9543 10.7653 12.8803 10.7653ZM12.6863 10.944C12.6863 10.8011 12.7731 10.6853 12.8803 10.6853C12.9874 10.6853 13.0743 10.8011 13.0743 10.944C13.0743 11.0869 12.9874 11.2027 12.8803 11.2027C12.7731 11.2027 12.6863 11.0869 12.6863 10.944Z" fill="black"/>
<path d="M12.88 11.68C12.9838 11.68 13.068 11.5678 13.068 11.4293C13.068 11.2909 12.9838 11.1786 12.88 11.1786C12.7762 11.1786 12.692 11.2909 12.692 11.4293C12.692 11.5678 12.7762 11.68 12.88 11.68Z" fill="#FFD83D"/>
<path fill-rule="evenodd" clip-rule="evenodd" d="M12.8802 11.2187C12.793 11.2187 12.7222 11.313 12.7222 11.4293C12.7222 11.5457 12.793 11.64 12.8802 11.64C12.9675 11.64 13.0382 11.5457 13.0382 11.4293C13.0382 11.313 12.9675 11.2187 12.8802 11.2187ZM12.6622 11.4293C12.6622 11.2688 12.7598 11.1387 12.8802 11.1387C13.0006 11.1387 13.0982 11.2688 13.0982 11.4293C13.0982 11.5899 13.0006 11.72 12.8802 11.72C12.7598 11.72 12.6622 11.5899 12.6622 11.4293Z" fill="black"/>
<path d="M12.8799 12.24C12.9926 12.24 13.0839 12.1182 13.0839 11.968C13.0839 11.8178 12.9926 11.696 12.8799 11.696C12.7672 11.696 12.6759 11.8178 12.6759 11.968C12.6759 12.1182 12.7672 12.24 12.8799 12.24Z" fill="#FFD83D"/>
<path fill-rule="evenodd" clip-rule="evenodd" d="M12.88 11.736C12.7839 11.736 12.706 11.8399 12.706 11.968C12.706 12.0961 12.7839 12.2 12.88 12.2C12.9761 12.2 13.054 12.0961 13.054 11.968C13.054 11.8399 12.9761 11.736 12.88 11.736ZM12.646 11.968C12.646 11.7957 12.7508 11.656 12.88 11.656C13.0092 11.656 13.114 11.7957 13.114 11.968C13.114 12.1403 13.0092 12.28 12.88 12.28C12.7508 12.28 12.646 12.1403 12.646 11.968Z" fill="black"/>
<path d="M12.8001 12.4907C12.7761 12.4907 12.7561 12.5173 12.7601 12.5653L12.7841 12.7947C12.7921 12.8747 12.8241 12.848 12.8361 12.7947C12.8441 12.7307 12.8401 12.688 12.8441 12.576C12.8441 12.5173 12.8201 12.4907 12.7961 12.4907H12.8001ZM12.9601 12.4907C12.9361 12.4907 12.9161 12.5173 12.9161 12.576C12.9161 12.688 12.9161 12.7307 12.9241 12.7893C12.9321 12.8533 12.9641 12.8747 12.9761 12.7893L12.9961 12.5653C13.0041 12.512 12.9801 12.4907 12.9601 12.4907ZM12.6521 12.5227C12.6415 12.5227 12.6313 12.5283 12.6238 12.5383C12.6163 12.5483 12.6121 12.5619 12.6121 12.576C12.6121 12.6293 12.6241 12.6987 12.6281 12.7787C12.6361 12.8587 12.6801 12.832 12.6841 12.7787C12.6841 12.736 12.6921 12.6613 12.6841 12.5707C12.6841 12.5387 12.6761 12.5227 12.6601 12.5173C12.6575 12.5169 12.6548 12.5169 12.6521 12.5173V12.5227ZM13.0961 12.5227C13.0841 12.5227 13.0721 12.5387 13.0681 12.576C13.066 12.6437 13.0686 12.7116 13.0761 12.7787C13.0761 12.832 13.1241 12.8587 13.1281 12.7787C13.1281 12.6987 13.1441 12.6347 13.1441 12.5813C13.1441 12.5493 13.1241 12.528 13.1041 12.5227C13.1015 12.5222 13.0988 12.5222 13.0961 12.5227V12.5227ZM12.4801 12.6133C12.4601 12.6187 12.4401 12.6507 12.4481 12.6827C12.4601 12.752 12.4721 12.8267 12.4721 12.896C12.4721 12.9547 12.5081 12.9333 12.5121 12.896C12.5152 12.825 12.5166 12.7538 12.5161 12.6827C12.5161 12.6293 12.4961 12.608 12.4761 12.6133H12.4801ZM13.2641 12.6133C13.2521 12.6187 13.2401 12.64 13.2401 12.6827L13.2481 12.896C13.2481 12.9333 13.2881 12.9547 13.2881 12.896C13.2881 12.8267 13.2961 12.752 13.3081 12.6827C13.3161 12.6507 13.2961 12.6187 13.2801 12.6133C13.2762 12.612 13.272 12.612 13.2681 12.6133H13.2641ZM10.9041 12.624C10.8801 12.624 10.8641 12.6613 10.8801 12.704C10.9041 12.7787 10.9321 12.8213 10.9561 12.896C10.9761 12.9653 11.0121 12.9227 11.0001 12.8747L10.9441 12.6773C10.9321 12.64 10.9161 12.624 10.9041 12.624ZM14.8561 12.624C14.8401 12.624 14.8281 12.64 14.8161 12.6773C14.7801 12.7787 14.7681 12.8267 14.7561 12.8747C14.7481 12.928 14.7801 12.9653 14.8041 12.896L14.8761 12.704C14.8921 12.6613 14.8761 12.624 14.8561 12.624ZM11.0641 12.624C11.0441 12.6347 11.0361 12.6613 11.0441 12.6933C11.0681 12.7573 11.0961 12.8267 11.1161 12.896C11.1321 12.9547 11.1721 12.9387 11.1561 12.8853L11.1161 12.688C11.1001 12.6347 11.0761 12.6187 11.0641 12.624V12.624ZM14.6841 12.624C14.6681 12.6293 14.6521 12.6507 14.6441 12.688C14.6161 12.7947 14.6121 12.8267 14.6001 12.8853C14.5841 12.9387 14.6241 12.9547 14.6401 12.896L14.7121 12.6933C14.7201 12.6613 14.7121 12.6347 14.6961 12.624C14.6922 12.6226 14.688 12.6226 14.6841 12.624V12.624ZM11.2641 12.6773C11.2401 12.6827 11.2241 12.7253 11.2401 12.7787C11.2561 12.8427 11.2801 12.9013 11.3041 12.976C11.3281 13.0507 11.3641 13.0347 11.3561 12.9867C11.3441 12.9387 11.3361 12.864 11.3081 12.7467C11.2961 12.6933 11.2801 12.672 11.2641 12.6773V12.6773ZM14.4961 12.6773C14.4801 12.6773 14.4601 12.6933 14.4481 12.7467C14.4241 12.864 14.4081 12.9387 14.4041 12.9867C14.3921 13.04 14.4321 13.0507 14.4521 12.976C14.4761 12.9013 14.5001 12.8427 14.5161 12.7787C14.5321 12.7253 14.5161 12.6827 14.4961 12.6773V12.6773ZM10.7681 12.7147C10.7441 12.7147 10.7281 12.768 10.7401 12.8053C10.7601 12.8587 10.7761 12.88 10.7961 12.944C10.8201 13.008 10.8441 12.96 10.8361 12.9173C10.8241 12.8747 10.8121 12.8267 10.8041 12.768C10.7961 12.7253 10.7801 12.7147 10.7641 12.7147H10.7681ZM14.9921 12.7147C14.9761 12.7147 14.9641 12.7253 14.9521 12.768L14.9241 12.9173C14.9161 12.96 14.9401 13.008 14.9641 12.944C14.9841 12.88 14.9961 12.864 15.0201 12.8053C15.0321 12.768 15.0121 12.72 14.9921 12.7147V12.7147ZM12.3121 12.864C12.2841 12.864 12.2601 12.9067 12.2721 12.944C12.2801 13.008 12.3041 13.0613 12.3161 13.1413C12.3321 13.2107 12.3681 13.1787 12.3641 13.1307C12.3612 13.059 12.3545 12.9877 12.3441 12.9173C12.3361 12.88 12.3241 12.864 12.3081 12.864H12.3121ZM13.4481 12.864C13.4361 12.864 13.4201 12.88 13.4161 12.9173C13.4044 12.9876 13.3963 13.0589 13.3921 13.1307C13.3921 13.1787 13.4281 13.2107 13.4401 13.1413L13.4881 12.944C13.4961 12.9067 13.4721 12.864 13.4481 12.864V12.864ZM12.8801 12.928C12.8481 12.928 12.8441 12.9813 12.8441 13.0187C12.8417 13.1401 12.814 13.2583 12.7641 13.36C12.7241 13.424 12.6721 13.408 12.6241 13.3707C12.5776 13.3369 12.5334 13.2976 12.4921 13.2533C12.4361 13.2 12.3961 13.232 12.4601 13.3547C12.6441 13.7067 12.8441 14.0053 12.8441 14.5813C12.8441 14.6507 12.8561 14.672 12.8801 14.672C12.9041 14.672 12.9121 14.6507 12.9121 14.576C12.9121 14.0053 13.1121 13.7067 13.2961 13.3493C13.3601 13.232 13.3201 13.2 13.2681 13.2533C13.227 13.2979 13.1828 13.3372 13.1361 13.3707C13.0841 13.408 13.0321 13.424 12.9961 13.36C12.9462 13.2583 12.9186 13.1401 12.9161 13.0187C12.9121 12.9813 12.9081 12.928 12.8761 12.928H12.8801ZM11.4681 12.8427C11.4655 12.8421 11.4628 12.8421 11.4601 12.8427C11.4481 12.848 11.4441 12.864 11.4481 12.896L11.4921 13.104C11.5041 13.1573 11.5481 13.1413 11.5401 13.0773L11.5161 12.912C11.5081 12.8693 11.4841 12.8427 11.4681 12.8427ZM14.2921 12.8427C14.2721 12.8427 14.2521 12.8693 14.2441 12.912C14.2281 12.9867 14.2281 13.008 14.2201 13.072C14.2081 13.1413 14.2561 13.152 14.2641 13.104L14.3121 12.8907C14.3121 12.864 14.3081 12.848 14.2961 12.8427C14.2935 12.8421 14.2908 12.8421 14.2881 12.8427H14.2921ZM10.6281 12.864C10.6041 12.864 10.5881 12.9067 10.6121 12.96C10.6361 13.024 10.6801 13.0987 10.7001 13.1467C10.7201 13.1893 10.7561 13.1573 10.7321 13.104C10.7081 13.0507 10.7001 12.9813 10.6681 12.9013C10.6655 12.8901 10.6601 12.8803 10.6529 12.8736C10.6456 12.8668 10.6369 12.8635 10.6281 12.864ZM15.1281 12.864C15.1161 12.864 15.1001 12.8747 15.0881 12.9013C15.0601 12.9813 15.0481 13.0453 15.0281 13.104C15.0041 13.1573 15.0361 13.1893 15.0561 13.1467C15.0761 13.0987 15.1201 13.024 15.1441 12.96C15.1681 12.9067 15.1521 12.864 15.1281 12.864ZM9.36011 13.04C9.33611 13.04 9.32811 13.104 9.35211 13.1467C9.38317 13.1991 9.418 13.2473 9.45611 13.2907C9.48811 13.3333 9.49611 13.28 9.48011 13.2373L9.40811 13.0933C9.38811 13.056 9.37211 13.04 9.36011 13.04ZM16.3961 13.04C16.3841 13.04 16.3681 13.056 16.3521 13.0933L16.2761 13.2373C16.2601 13.28 16.2681 13.3333 16.3041 13.2907C16.3423 13.2473 16.3771 13.1991 16.4081 13.1467C16.4321 13.104 16.4241 13.04 16.3961 13.04ZM9.56411 13.0933C9.54011 13.0933 9.52411 13.1147 9.54411 13.1627L9.62011 13.3653C9.64011 13.4187 9.70011 13.4347 9.67611 13.3547L9.62411 13.152C9.61211 13.1147 9.58411 13.0987 9.56411 13.0987V13.0933ZM16.1961 13.0933C16.1721 13.0933 16.1441 13.1147 16.1321 13.152L16.0841 13.3547C16.0601 13.4347 16.1201 13.4187 16.1401 13.3653C16.1601 13.312 16.1921 13.232 16.2121 13.1627C16.2321 13.1147 16.2161 13.0933 16.1961 13.0933V13.0933ZM9.17211 13.1147C9.14011 13.1147 9.14011 13.152 9.16811 13.1787C9.20411 13.216 9.24811 13.2533 9.28811 13.3013C9.34011 13.3547 9.35611 13.3013 9.32811 13.2587C9.30411 13.216 9.28011 13.1733 9.21211 13.1253C9.19611 13.1147 9.18411 13.1147 9.17211 13.1147ZM16.5841 13.1147C16.5761 13.1147 16.5601 13.1147 16.5441 13.1253C16.4801 13.1733 16.4521 13.216 16.4241 13.2587C16.4001 13.3067 16.4201 13.3547 16.4681 13.3013C16.5081 13.2533 16.5561 13.216 16.5881 13.1787C16.6201 13.152 16.6161 13.1147 16.5881 13.1147H16.5841ZM12.2001 13.152C12.1801 13.152 12.1681 13.1787 12.1721 13.216L12.2121 13.408C12.2201 13.4667 12.2721 13.4667 12.2641 13.408C12.2561 13.3547 12.2521 13.2853 12.2361 13.2C12.2321 13.168 12.2201 13.152 12.2041 13.1467C12.2028 13.1465 12.2014 13.1465 12.2001 13.1467V13.152ZM13.5521 13.152C13.5401 13.152 13.5281 13.168 13.5201 13.2053C13.5041 13.2853 13.5001 13.3547 13.4921 13.4133C13.4841 13.4667 13.5361 13.4667 13.5441 13.408L13.5841 13.216C13.5921 13.1787 13.5761 13.152 13.5601 13.152C13.5575 13.1514 13.5548 13.1514 13.5521 13.152V13.152ZM10.9921 13.0453C10.9801 13.0453 10.9721 13.0827 10.9841 13.136C11.0265 13.2897 11.0482 13.4522 11.0481 13.616C11.0361 13.68 11.0081 13.6853 10.9721 13.6693C10.9329 13.6435 10.8954 13.6132 10.8601 13.5787C10.8281 13.552 10.7921 13.584 10.8401 13.6373C11.0801 13.904 11.2521 14.208 11.3201 14.576C11.3281 14.6507 11.3641 14.6613 11.3561 14.576C11.3001 14.112 11.2881 13.728 11.3721 13.4933C11.4041 13.4027 11.3721 13.3173 11.3241 13.4613C11.2881 13.5573 11.2361 13.5947 11.1921 13.5147C11.1296 13.3845 11.076 13.2471 11.0321 13.104C11.0241 13.0667 11.0121 13.0507 11.0001 13.0453C10.9988 13.045 10.9974 13.045 10.9961 13.0453H10.9921ZM14.7561 13.0453C14.7441 13.0453 14.7321 13.0667 14.7241 13.0987C14.6961 13.2053 14.6081 13.4293 14.5641 13.5147C14.5201 13.6 14.4681 13.5573 14.4361 13.4613C14.3841 13.3173 14.3561 13.4027 14.3841 13.4933C14.4681 13.728 14.4561 14.112 14.4041 14.576C14.3921 14.6613 14.4281 14.6507 14.4441 14.576C14.5181 14.2014 14.6843 13.8708 14.9161 13.6373C14.9641 13.584 14.9281 13.552 14.8961 13.584C14.8606 13.615 14.8231 13.6418 14.7841 13.664C14.7441 13.6853 14.7201 13.68 14.7081 13.6107C14.7001 13.5467 14.7161 13.4027 14.7761 13.1307C14.7841 13.088 14.7761 13.0507 14.7641 13.0453C14.7615 13.0441 14.7587 13.0441 14.7561 13.0453V13.0453ZM9.77611 13.1733C9.75611 13.1733 9.73611 13.1947 9.74811 13.2373C9.76411 13.312 9.79611 13.3867 9.80811 13.4293C9.82011 13.4773 9.85611 13.456 9.84811 13.392L9.82811 13.2267C9.82811 13.1947 9.80011 13.1733 9.77611 13.1733ZM15.9801 13.1733C15.9561 13.1733 15.9321 13.1947 15.9281 13.2267L15.9121 13.392C15.9041 13.456 15.9401 13.4773 15.9521 13.4293C15.9601 13.3867 15.9921 13.312 16.0081 13.2373C16.0201 13.1947 16.0041 13.1733 15.9801 13.1733ZM10.5281 13.0827C10.5041 13.0773 10.5001 13.1627 10.5201 13.2L10.6321 13.3653C10.6641 13.4187 10.6841 13.3707 10.6641 13.328L10.5601 13.1253C10.5481 13.0987 10.5361 13.0827 10.5281 13.0827V13.0827ZM15.2281 13.0827C15.2201 13.0827 15.2081 13.0987 15.1961 13.1253L15.0921 13.328C15.0721 13.3707 15.0921 13.4187 15.1281 13.3653L15.2361 13.2C15.2561 13.1627 15.2561 13.0773 15.2281 13.0827V13.0827ZM9.94811 13.296C9.93211 13.296 9.92011 13.3067 9.92811 13.3493C9.93611 13.4133 9.94811 13.456 9.96011 13.5147C9.97211 13.568 10.0001 13.5627 10.0001 13.5093L9.98811 13.3387C9.98636 13.3259 9.98149 13.3142 9.97425 13.3056C9.96701 13.2969 9.95782 13.2916 9.94811 13.2907V13.296ZM15.8081 13.296C15.7988 13.2957 15.7896 13.2999 15.7823 13.3077C15.775 13.3155 15.77 13.3264 15.7681 13.3387L15.7561 13.5093C15.7561 13.5627 15.7881 13.5733 15.7961 13.5147L15.8321 13.3547C15.8401 13.3067 15.8241 13.2907 15.8081 13.2907V13.296ZM10.4721 13.3707C10.4481 13.3707 10.4281 13.408 10.4561 13.456C10.5001 13.536 10.5521 13.5893 10.5721 13.616C10.5881 13.648 10.6321 13.6373 10.6041 13.5787L10.5121 13.392C10.5041 13.3707 10.4881 13.3653 10.4721 13.3707ZM15.2721 13.3707C15.2641 13.3707 15.2521 13.376 15.2481 13.392L15.1521 13.5787C15.1241 13.6373 15.1681 13.648 15.1881 13.6213C15.2041 13.5893 15.2561 13.536 15.3041 13.456C15.3321 13.4027 15.3081 13.3707 15.2841 13.3707C15.2815 13.3703 15.2788 13.3703 15.2761 13.3707H15.2721ZM9.64411 13.5893C9.62811 13.5893 9.62011 13.6107 9.64411 13.6587C9.70588 13.7586 9.75089 13.875 9.77611 14C9.78011 14.0747 9.75611 14.0747 9.73211 14.0747C9.65611 14.0747 9.62011 14 9.55611 13.9787C9.48811 13.9627 9.47611 14.0053 9.52411 14.0533C9.75338 14.2467 9.95294 14.4964 10.1121 14.7893C10.1521 14.8907 10.2041 14.9227 10.1761 14.832C10.0984 14.624 10.0652 14.3915 10.0801 14.16C10.1001 14.0107 10.1281 13.9147 10.1241 13.8293C10.1241 13.7493 10.0841 13.7547 10.0721 13.8293L10.0321 13.9787C10.0161 14.0053 9.96011 14.0213 9.91211 13.9307C9.84408 13.8194 9.76915 13.7159 9.68811 13.6213C9.67611 13.6053 9.66011 13.5947 9.64811 13.5893H9.64411ZM16.1121 13.5893C16.1001 13.5893 16.0841 13.6 16.0681 13.6213C15.9885 13.7161 15.9149 13.8196 15.8481 13.9307C15.7961 14.0213 15.7401 14.0053 15.7281 13.984C15.7099 13.9349 15.6964 13.883 15.6881 13.8293C15.6721 13.7547 15.6361 13.7493 15.6321 13.8293C15.6321 13.9147 15.6561 14.0107 15.6761 14.16C15.6961 14.3093 15.6761 14.544 15.5841 14.832C15.5521 14.9227 15.6081 14.8853 15.6481 14.7893C15.8058 14.4966 16.004 14.2468 16.2321 14.0533C16.2801 14.0053 16.2721 13.9627 16.2041 13.9787C16.1361 14 16.1001 14.0747 16.0281 14.0747C16.0041 14.0747 15.9761 14.0747 15.9801 14C15.9841 13.9307 16.0521 13.7653 16.1121 13.6587C16.1361 13.6053 16.1321 13.5893 16.1121 13.5893V13.5893Z" fill="black"/>
<path d="M10.004 15.344L10.084 15.6693ZM10.164 15.28L10.236 15.6107ZM10.34 15.2373L10.388 15.5787ZM10.5 15.2L10.552 15.536ZM10.704 15.1733L10.744 15.5147ZM10.924 15.1733L10.968 15.5093ZM11.14 15.0773L11.172 15.4187ZM11.34 15.0933L11.372 15.4347ZM11.536 15.0613L11.568 15.4027ZM11.728 15.0293L11.748 15.376ZM11.94 15.0293L11.956 15.376ZM12.132 15.0133L12.144 15.36ZM12.34 14.9973L12.352 15.3387ZM12.58 14.9867L12.592 15.3333ZM15.752 15.344L15.672 15.6693ZM15.592 15.28L15.524 15.6107ZM15.42 15.2373L15.372 15.5787ZM15.26 15.2L15.208 15.536ZM15.048 15.1733L15.008 15.5147ZM14.832 15.1733L14.788 15.5147ZM14.62 15.0773L14.588 15.4187ZM14.416 15.0933L14.384 15.4347ZM14.224 15.0613L14.188 15.4027ZM14.028 15.0293L14.008 15.376ZM13.816 15.0293L13.8 15.376ZM13.628 15.0133L13.616 15.36ZM13.416 14.9973L13.408 15.3387ZM13.176 14.9867L13.168 15.3333ZM12.88 14.96V15.344Z" fill="#FFD83D"/>
<path fill-rule="evenodd" clip-rule="evenodd" d="M12.8803 14.92C12.8968 14.92 12.9103 14.9379 12.9103 14.96V15.344C12.9103 15.3661 12.8968 15.384 12.8803 15.384C12.8637 15.384 12.8503 15.3661 12.8503 15.344V14.96C12.8503 14.9379 12.8637 14.92 12.8803 14.92ZM12.5789 14.9467C12.5954 14.9457 12.6095 14.9628 12.6102 14.9848L12.6222 15.3315C12.623 15.3536 12.6102 15.3723 12.5936 15.3733C12.5771 15.3743 12.563 15.3573 12.5623 15.3352L12.5503 14.9885C12.5495 14.9665 12.5623 14.9477 12.5789 14.9467ZM13.1772 14.9467C13.1937 14.9474 13.2067 14.9658 13.2062 14.9879L13.1982 15.3346C13.1977 15.3567 13.1839 15.374 13.1673 15.3733C13.1508 15.3726 13.1378 15.3542 13.1383 15.3321L13.1463 14.9854C13.1468 14.9634 13.1606 14.946 13.1772 14.9467ZM12.3388 14.9574C12.3554 14.9564 12.3694 14.9734 12.3702 14.9955L12.3822 15.3368C12.383 15.3589 12.3702 15.3776 12.3537 15.3786C12.3371 15.3797 12.3231 15.3626 12.3223 15.3406L12.3103 14.9992C12.3095 14.9772 12.3223 14.9584 12.3388 14.9574ZM13.4172 14.9574C13.4337 14.9581 13.4468 14.9765 13.4462 14.9986L13.4382 15.3399C13.4377 15.362 13.4239 15.3794 13.4073 15.3787C13.3908 15.378 13.3777 15.3595 13.3783 15.3374L13.3863 14.9961C13.3868 14.974 13.4006 14.9567 13.4172 14.9574ZM12.1309 14.9734C12.1474 14.9724 12.1615 14.9894 12.1622 15.0115L12.1742 15.3582C12.175 15.3802 12.1622 15.399 12.1456 15.4C12.1291 15.401 12.115 15.3839 12.1143 15.3619L12.1023 15.0152C12.1015 14.9931 12.1143 14.9744 12.1309 14.9734ZM13.6296 14.9734C13.6462 14.9744 13.659 14.9931 13.6582 15.0152L13.6462 15.3619C13.6455 15.3839 13.6314 15.401 13.6149 15.4C13.5983 15.399 13.5855 15.3802 13.5863 15.3582L13.5983 15.0115C13.599 14.9894 13.6131 14.9724 13.6296 14.9734ZM11.726 14.9895C11.7425 14.9878 11.7569 15.0043 11.7582 15.0263L11.7782 15.3729C11.7794 15.395 11.7671 15.4142 11.7506 15.4159C11.734 15.4176 11.7196 15.4011 11.7183 15.3791L11.6983 15.0324C11.6971 15.0104 11.7094 14.9912 11.726 14.9895ZM14.0306 14.9895C14.0471 14.9912 14.0594 15.0104 14.0582 15.0324L14.0382 15.3791C14.0369 15.4011 14.0225 15.4176 14.0059 15.4159C13.9894 15.4142 13.9771 15.395 13.9783 15.3729L13.9983 15.0263C13.9996 15.0043 14.014 14.9878 14.0306 14.9895ZM11.9384 14.9894C11.9549 14.9881 11.9692 15.0048 11.9702 15.0269L11.9862 15.3736C11.9872 15.3956 11.9746 15.4146 11.9581 15.4159C11.9416 15.4173 11.9273 15.4005 11.9263 15.3785L11.9103 15.0318C11.9093 15.0098 11.9219 14.9908 11.9384 14.9894ZM13.8181 14.9894C13.8346 14.9908 13.8472 15.0098 13.8462 15.0318L13.8302 15.3785C13.8292 15.4005 13.8149 15.4173 13.7984 15.4159C13.7819 15.4146 13.7693 15.3956 13.7703 15.3736L13.7863 15.0269C13.7873 15.0048 13.8016 14.9881 13.8181 14.9894ZM14.2284 15.0217C14.2448 15.0248 14.2563 15.045 14.254 15.0669L14.218 15.4083C14.2157 15.4301 14.2005 15.4454 14.1841 15.4423C14.1677 15.4392 14.1562 15.419 14.1585 15.3971L14.1945 15.0558C14.1969 15.0339 14.212 15.0187 14.2284 15.0217ZM11.5325 15.0217C11.549 15.0189 11.564 15.0345 11.566 15.0564L11.598 15.3977C11.6001 15.4196 11.5884 15.4396 11.572 15.4424C11.5555 15.4451 11.5405 15.4296 11.5385 15.4076L11.5065 15.0663C11.5044 15.0444 11.5161 15.0244 11.5325 15.0217ZM11.1365 15.0377C11.153 15.0349 11.168 15.0505 11.17 15.0724L11.202 15.4137C11.2041 15.4356 11.1924 15.4556 11.176 15.4584C11.1595 15.4611 11.1445 15.4456 11.1425 15.4236L11.1105 15.0823C11.1084 15.0604 11.1201 15.0404 11.1365 15.0377ZM14.624 15.0377C14.6404 15.0404 14.6521 15.0604 14.65 15.0823L14.618 15.4236C14.616 15.4456 14.601 15.4611 14.5845 15.4584C14.5681 15.4556 14.5564 15.4356 14.5585 15.4137L14.5905 15.0724C14.5925 15.0505 14.6075 15.0349 14.624 15.0377ZM11.3365 15.0537C11.353 15.0509 11.368 15.0665 11.37 15.0884L11.402 15.4297C11.4041 15.4516 11.3924 15.4716 11.376 15.4744C11.3595 15.4771 11.3445 15.4616 11.3425 15.4396L11.3105 15.0983C11.3084 15.0764 11.3201 15.0564 11.3365 15.0537ZM14.42 15.0537C14.4364 15.0564 14.4481 15.0764 14.446 15.0983L14.414 15.4396C14.412 15.4616 14.397 15.4771 14.3805 15.4744C14.3641 15.4716 14.3524 15.4516 14.3545 15.4297L14.3865 15.0884C14.3885 15.0665 14.4035 15.0509 14.42 15.0537ZM10.9191 15.1339C10.9354 15.1301 10.951 15.1447 10.9538 15.1665L10.9978 15.5025C11.0007 15.5242 10.9897 15.545 10.9734 15.5488C10.9571 15.5526 10.9415 15.538 10.9387 15.5162L10.8947 15.1802C10.8918 15.1585 10.9028 15.1377 10.9191 15.1339ZM14.8373 15.1339C14.8537 15.1377 14.8646 15.1584 14.8618 15.1801L14.8178 15.5215C14.815 15.5432 14.7995 15.5578 14.7832 15.5541C14.7668 15.5504 14.7559 15.5297 14.7587 15.5079L14.8027 15.1666C14.8055 15.1448 14.821 15.1302 14.8373 15.1339ZM10.6996 15.1338C10.716 15.1304 10.7313 15.1453 10.7339 15.1672L10.7739 15.5085C10.7764 15.5303 10.7653 15.5508 10.7489 15.5542C10.7325 15.5576 10.7172 15.5427 10.7146 15.5209L10.6746 15.1795C10.6721 15.1577 10.6833 15.1372 10.6996 15.1338ZM15.0529 15.1338C15.0693 15.1372 15.0804 15.1577 15.0779 15.1795L15.0379 15.5209C15.0353 15.5427 15.02 15.5576 15.0036 15.5542C14.9873 15.5508 14.9761 15.5303 14.9786 15.5085L15.0186 15.1672C15.0212 15.1453 15.0365 15.1304 15.0529 15.1338ZM10.4942 15.1608C10.5104 15.1564 10.5263 15.1703 10.5296 15.1919L10.5816 15.5279C10.585 15.5496 10.5745 15.5707 10.5583 15.5752C10.5421 15.5797 10.5262 15.5657 10.5229 15.5441L10.4709 15.2081C10.4675 15.1865 10.478 15.1653 10.4942 15.1608ZM15.2663 15.1608C15.2825 15.1653 15.293 15.1865 15.2896 15.2081L15.2376 15.5441C15.2343 15.5657 15.2184 15.5797 15.2022 15.5752C15.186 15.5707 15.1755 15.5496 15.1789 15.5279L15.2309 15.1919C15.2342 15.1703 15.2501 15.1564 15.2663 15.1608ZM10.3347 15.198C10.351 15.194 10.3667 15.2083 10.3697 15.23L10.4177 15.5713C10.4208 15.593 10.4101 15.6139 10.3938 15.618C10.3775 15.6221 10.3618 15.6078 10.3588 15.5861L10.3108 15.2447C10.3077 15.223 10.3184 15.2021 10.3347 15.198ZM15.4258 15.198C15.4421 15.2021 15.4528 15.223 15.4497 15.2447L15.4017 15.5861C15.3987 15.6078 15.383 15.6221 15.3667 15.618C15.3504 15.6139 15.3397 15.593 15.3428 15.5713L15.3908 15.23C15.3938 15.2083 15.4095 15.194 15.4258 15.198ZM10.1559 15.2416C10.1718 15.2354 10.1884 15.2476 10.1931 15.2689L10.2651 15.5995C10.2697 15.6207 10.2605 15.6429 10.2446 15.6491C10.2287 15.6553 10.2121 15.643 10.2074 15.6218L10.1354 15.2912C10.1308 15.27 10.14 15.2478 10.1559 15.2416ZM15.6002 15.2414C15.6162 15.2473 15.6256 15.2693 15.6212 15.2906L15.5532 15.6213C15.5488 15.6426 15.5323 15.6551 15.5163 15.6493C15.5003 15.6434 15.4909 15.6214 15.4953 15.6001L15.5633 15.2694C15.5677 15.2481 15.5842 15.2356 15.6002 15.2414ZM9.9949 15.306C10.0106 15.2991 10.0276 15.3106 10.0328 15.3316L10.1128 15.6569C10.1179 15.6779 10.1093 15.7005 10.0936 15.7074C10.0779 15.7142 10.0609 15.7028 10.0557 15.6818L9.97574 15.3565C9.97058 15.3355 9.97916 15.3129 9.9949 15.306ZM15.7616 15.306C15.7773 15.3129 15.7859 15.3355 15.7808 15.3565L15.7008 15.6818C15.6956 15.7028 15.6786 15.7142 15.6629 15.7074C15.6472 15.7005 15.6386 15.6779 15.6437 15.6569L15.7237 15.3316C15.7289 15.3106 15.7459 15.2991 15.7616 15.306Z" fill="black"/>
</g>
<rect x="2" y="2" width="36" height="36" rx="18" stroke="white" stroke-width="4"/>
<defs>
<clipPath id="clip0_90_24829">
<rect x="4" y="4" width="32" height="32" rx="16" fill="white"/>
</clipPath>
</defs>
</svg>
