<svg width="40" height="40" viewBox="0 0 40 40" fill="none" xmlns="http://www.w3.org/2000/svg">
<g clip-path="url(#clip0_90_24813)">
<path d="M4 4H36V36H4V4Z" fill="#FFB700"/>
<path d="M5.33484 20L9.73484 5.77997H14.1348V34.22H9.73484L5.33484 20Z" fill="#FF5B00"/>
<path d="M5.33484 5.77997H9.73484V34.22H5.33484V5.77997Z" fill="#005641"/>
<path d="M15.4651 5.77997H34.8001V34.22H15.4651V5.77997Z" fill="#8D2029"/>
<path d="M32.9648 31.24C32.9648 31.24 33.1448 31.7267 33.3448 31.9333C33.6448 32.2267 34.2448 32.2 34.5098 32.5533C34.8148 32.96 34.4848 33.5 34.4848 33.5533L34.5048 33.8333C34.5048 33.8333 34.2948 33.8333 34.2048 33.8533C34.0748 33.88 34.0248 34.0267 33.7748 34.0067C33.1598 33.9533 33.1848 33.2067 33.1498 32.5733C33.1198 32.3333 33.0498 32.0133 33.0048 31.7733C32.9698 31.5733 32.9648 31.24 32.9648 31.24Z" fill="#FFB700"/>
<path fill-rule="evenodd" clip-rule="evenodd" d="M32.965 31.24C32.9375 31.2407 32.9375 31.2407 32.9375 31.2407L32.9375 31.2418L32.9376 31.2447C32.9376 31.2472 32.9377 31.2509 32.9378 31.2557C32.938 31.2654 32.9383 31.2793 32.9388 31.2966C32.9399 31.3313 32.9416 31.3796 32.9444 31.4342C32.9501 31.5428 32.9602 31.6786 32.9782 31.7816L32.9783 31.7822C32.9909 31.8493 33.0053 31.9221 33.0202 31.9973C33.059 32.1932 33.1011 32.4058 33.1227 32.5777C33.1257 32.632 33.1282 32.6876 33.1308 32.7437C33.143 33.0101 33.1559 33.2903 33.2192 33.5201C33.2579 33.661 33.3162 33.7856 33.406 33.8782C33.4959 33.971 33.6152 34.0295 33.7732 34.0432L33.7733 34.0432C33.9034 34.0536 33.9829 34.0205 34.0467 33.9807C34.0623 33.9709 34.0768 33.9609 34.0905 33.9513C34.0916 33.9505 34.0927 33.9498 34.0938 33.949C34.1064 33.9402 34.1181 33.932 34.13 33.9244C34.1555 33.9081 34.1803 33.8955 34.2092 33.8896L34.2095 33.8895C34.2524 33.88 34.3256 33.875 34.3896 33.8725C34.4212 33.8712 34.4501 33.8706 34.4711 33.8703C34.4816 33.8701 34.4901 33.8701 34.4959 33.87L34.5027 33.87L34.5049 33.87L34.5352 33.87L34.5128 33.5557C34.513 33.5549 34.5133 33.5539 34.5137 33.5527C34.5156 33.5471 34.5186 33.5394 34.5227 33.5292C34.5262 33.5206 34.5303 33.5109 34.535 33.4999C34.5358 33.4979 34.5366 33.496 34.5374 33.494C34.5431 33.4806 34.5493 33.4656 34.556 33.4492C34.5825 33.3839 34.6152 33.2962 34.6382 33.1966C34.6842 32.9969 34.6919 32.7439 34.5294 32.5274C34.4595 32.4341 34.3685 32.3673 34.2685 32.3145C34.1684 32.2618 34.0577 32.2223 33.9473 32.1853C33.9299 32.1794 33.9124 32.1736 33.895 32.1678C33.8019 32.1368 33.7103 32.1063 33.6248 32.0694C33.5235 32.0257 33.4331 31.9739 33.3616 31.904C33.2657 31.8048 33.1729 31.6363 33.1032 31.4895C33.0686 31.4166 33.0402 31.35 33.0204 31.3017C33.0105 31.2775 33.0028 31.258 32.9976 31.2445C32.9949 31.2377 32.9929 31.2325 32.9916 31.229L32.9901 31.225L32.9898 31.224L32.9897 31.2238L32.9375 31.2407L32.965 31.24ZM32.9978 31.398C32.9982 31.4081 32.9988 31.4185 32.9993 31.4291C33.0049 31.537 33.0148 31.6678 33.0317 31.7647C33.0439 31.8295 33.058 31.9007 33.0727 31.9749C33.1118 32.1726 33.1551 32.3915 33.1771 32.5673L33.1773 32.5689L33.1774 32.5706C33.1806 32.6278 33.1833 32.6856 33.1859 32.7434C33.1983 33.0095 33.2106 33.2761 33.2708 33.4948C33.307 33.6265 33.3601 33.7382 33.4396 33.8203C33.5191 33.9023 33.6273 33.9571 33.7767 33.9701C33.8967 33.9796 33.9671 33.9494 34.0233 33.9143C34.0377 33.9053 34.0513 33.8959 34.065 33.8863L34.0684 33.8839C34.0808 33.8753 34.0934 33.8665 34.1062 33.8583C34.1344 33.8403 34.1646 33.8245 34.2007 33.8171C34.2478 33.8067 34.3245 33.8016 34.3879 33.7992C34.42 33.7979 34.4493 33.7973 34.4705 33.797C34.4719 33.7969 34.4734 33.7969 34.4748 33.7969L34.4575 33.5551V33.5533C34.4575 33.5461 34.4588 33.5398 34.4597 33.5359C34.4608 33.5314 34.4621 33.527 34.4635 33.5228C34.4663 33.5144 34.4701 33.5047 34.4744 33.4942C34.4781 33.4852 34.4824 33.475 34.487 33.464C34.4878 33.4621 34.4886 33.4601 34.4894 33.4582C34.495 33.4448 34.5012 33.4302 34.5076 33.4143C34.5334 33.3507 34.5642 33.2679 34.5856 33.175C34.6283 32.9898 34.6331 32.7693 34.4906 32.5792C34.428 32.4958 34.3446 32.4335 34.2482 32.3827C34.1519 32.3319 34.0442 32.2934 33.9339 32.2564C33.9167 32.2506 33.8994 32.2448 33.8821 32.2391C33.7891 32.2081 33.6953 32.1769 33.6079 32.1391C33.5041 32.0944 33.4072 32.0396 33.3287 31.9629L33.3284 31.9626L33.3282 31.9623C33.2241 31.8548 33.127 31.6768 33.0568 31.5288C33.0343 31.4815 33.0145 31.4369 32.9978 31.398Z" fill="black"/>
<path d="M22.1753 26.6533L22.2903 26.56L22.3403 26.6533C22.4053 26.7733 22.5903 26.7667 22.7103 26.6533L22.8053 26.5533L22.8853 26.6467C22.9853 26.7733 23.1753 26.7733 23.3003 26.6467C23.3853 26.5667 23.4003 26.56 23.4503 26.6267C23.4853 26.6667 23.5853 26.7067 23.6703 26.7267C23.8303 26.7533 23.8303 26.7533 23.9203 26.5667C24.0003 26.4133 24.0103 26.3533 23.9953 26.2C23.9813 26.0829 23.9713 25.965 23.9653 25.8467C23.9553 25.6733 23.9603 25.6733 24.1453 25.58C24.2371 25.5424 24.3273 25.4979 24.4153 25.4467C24.4903 25.3867 24.7003 25.06 24.7003 24.9933C24.7003 24.98 24.6203 24.9533 24.5203 24.94C24.1203 24.8733 24.0553 24.5933 24.3153 24.0733C24.7303 23.2067 24.9853 22.3733 24.9853 21.8467C24.9853 21.6067 25.0003 21.5267 25.0203 21.58C25.1153 21.7867 24.9453 22.6733 24.6953 23.3133L24.5953 23.5667L24.6903 23.54C24.7403 23.52 25.0603 23.34 25.3903 23.14C26.3003 22.5933 26.6103 22.4867 27.2003 22.52C27.6953 22.5467 27.9003 22.6733 28.2503 23.16C28.4353 23.4267 28.6153 23.6067 28.9403 23.88C29.6303 24.4533 29.6603 24.5067 29.6953 25.1867C29.7303 25.8733 29.7103 25.9133 29.3203 26.0267C28.9853 26.1267 28.7753 26.3333 28.7203 26.6267C28.6903 26.7733 28.7553 26.78 28.9203 26.6333L29.0453 26.5267L29.1003 26.6333C29.1753 26.7733 29.3253 26.7733 29.4503 26.6333L29.5503 26.5333L29.6503 26.6333C29.8003 26.8 30.0003 26.76 30.0603 26.5533C30.0703 26.52 30.1003 26.5267 30.1603 26.6C30.2753 26.7333 30.5603 26.7867 30.5903 26.68C30.6003 26.64 30.5803 26.5467 30.5403 26.4667C30.3753 26.1333 30.3203 25.98 30.3203 25.8C30.3203 25.5467 30.3703 25.42 30.5903 25.22C30.8503 24.9667 30.9303 24.6467 30.7303 24.6467C30.6103 24.6467 30.4853 24.5 30.4053 24.2667C30.2453 23.7867 30.2803 23.2533 30.5203 22.36C30.7043 21.8344 30.7966 21.26 30.7903 20.68C30.7903 20.1867 30.7803 20.1067 30.7003 19.8333C30.6377 19.6433 30.5607 19.4623 30.4703 19.2933L30.3303 19.0467L30.5053 18.8467C31.0453 18.2533 30.9353 17.28 30.2853 16.9067C30.0853 16.7867 30.0353 16.78 29.6853 16.78C29.4853 16.78 29.1603 16.82 28.9853 16.8667C28.7504 16.9162 28.5131 16.943 28.2753 16.9467C27.9353 16.9467 27.8753 16.9333 27.7453 16.84C27.6103 16.7467 27.5853 16.7 27.5603 16.4733C27.5579 16.452 27.5516 16.4317 27.5421 16.4143C27.5325 16.3969 27.5199 16.3828 27.5053 16.3733C27.4553 16.3533 27.2453 16.6 27.2153 16.7067C27.1953 16.7667 27.1853 16.76 27.1403 16.6867C27.0979 16.614 27.0642 16.533 27.0403 16.4467C26.9903 16.2267 27.0553 16.0667 27.2503 15.94L27.4003 15.8467L27.3103 15.7733C27.1303 15.62 26.8203 15.7267 26.7103 15.9733C26.6753 16.04 26.6403 16.1067 26.6303 16.1067C26.6203 16.1067 26.5603 16.04 26.5003 15.9533C26.2653 15.6467 26.3453 15.1933 26.6603 15.06C26.8253 14.9867 26.9753 15.04 27.0053 15.1933C27.0553 15.4133 27.1953 15.12 27.1703 14.8467C27.1553 14.6667 27.1553 14.66 27.2503 14.66C27.3803 14.66 27.6503 14.8867 27.7403 15.06C27.8403 15.2667 27.8303 15.5933 27.7203 15.8333L27.6353 16.02L27.7503 15.9933C27.9103 15.9467 28.0703 15.8133 28.1503 15.6467C28.1925 15.5405 28.2161 15.4231 28.2196 15.303C28.2231 15.183 28.2062 15.0635 28.1703 14.9533C28.0953 14.7733 28.1053 14.7467 28.2153 14.8067C28.3953 14.9067 28.4953 15.02 28.5653 15.2133C28.6353 15.3867 28.6403 15.4267 28.6053 15.6133C28.5814 15.727 28.5442 15.8349 28.4953 15.9333C28.4353 16.04 28.4303 16.06 28.4803 16.06C28.5703 16.06 28.7503 15.9467 28.8153 15.86C28.8503 15.8067 28.9003 15.6933 28.9253 15.5933L28.9753 15.4267L29.0253 15.56C29.1003 15.74 29.2503 15.9067 29.4303 16.0133C29.6253 16.12 29.7053 16.1267 29.6053 16.0267C29.5353 15.96 29.4053 15.46 29.4503 15.4133C29.6661 15.5744 29.8632 15.7766 30.0353 16.0133C30.3203 16.3533 30.5003 16.4667 30.7603 16.4667C31.0953 16.4667 31.2903 16.08 31.1403 15.7133C31.0553 15.5 30.8603 15.4667 30.7403 15.6467C30.6903 15.7333 30.6753 15.8 30.6903 15.8933C30.7103 16 30.7053 16.0133 30.6303 16.0133C30.5303 16.0133 30.3403 15.8467 30.0003 15.4667C29.527 14.9236 28.983 14.501 28.3953 14.22C27.9971 14.0973 27.586 14.068 27.1803 14.1333C26.8603 14.2133 26.4803 14.46 26.2703 14.72C25.9053 15.1867 25.9003 15.8067 26.2553 16.3733L26.3553 16.5333L26.2903 16.68C26.2414 16.785 26.2172 16.9072 26.2208 17.0307C26.2243 17.1543 26.2555 17.2736 26.3103 17.3733C26.3603 17.4667 26.4103 17.54 26.4253 17.54C26.4353 17.54 26.4453 17.48 26.4503 17.4067C26.4603 17.2267 26.5203 17.1067 26.6203 17.06C26.7103 17.0133 26.7703 17.04 27.1803 17.26C27.6153 17.4867 28.3303 17.5 29.0903 17.3C29.4197 17.1986 29.7625 17.2031 30.0903 17.3133C30.4503 17.5133 30.5303 18.0267 30.2703 18.4133C30.1553 18.5867 30.0503 18.6533 29.6853 18.7867C29.3675 18.8984 29.0372 18.9323 28.7103 18.8867C28.1703 18.88 27.9753 18.8933 27.7603 18.9533C27.5153 19.02 27.3703 19.0267 26.6703 19.0067L25.8553 18.98L25.9453 19.0733C25.9935 19.1304 26.0454 19.1817 26.1003 19.2267C26.1653 19.2733 26.1603 19.28 26.0703 19.3267C26.0203 19.3533 25.9003 19.3733 25.8053 19.3733H25.6403L25.6203 19.56C25.6068 19.648 25.6068 19.7387 25.6203 19.8267C25.6403 19.8933 25.6303 19.9067 25.5803 19.88C25.5453 19.86 25.4503 19.8267 25.3653 19.8067C25.2795 19.7821 25.1958 19.7464 25.1153 19.7C25.0203 19.6333 25.0103 19.6333 24.9753 19.72C24.9453 19.7867 24.6653 20.0667 24.6253 20.0667C24.6072 19.8937 24.5702 19.7252 24.5153 19.5667C24.4653 19.4267 24.4203 19.2667 24.4053 19.22C24.3903 19.1467 24.3803 19.14 24.3553 19.2C24.3403 19.2333 24.3203 19.3333 24.3053 19.4133C24.2878 19.5213 24.2574 19.6248 24.2153 19.72L24.1403 19.8667L24.0903 19.74C24.0403 19.6067 23.9603 19.46 23.9303 19.46C23.9203 19.46 23.9053 19.5 23.8953 19.56C23.8703 19.6667 23.6753 19.98 23.6253 19.98C23.6103 19.98 23.5953 19.8933 23.5953 19.78C23.5953 19.68 23.5803 19.5867 23.5603 19.5867C23.5403 19.5867 23.5253 19.62 23.5253 19.6533C23.5253 19.7333 23.3603 19.9867 23.3003 19.9867C23.2803 19.9867 23.2403 20.0133 23.2153 20.0533C23.1553 20.14 23.1053 20.1267 23.1303 20.0267C23.1373 19.9413 23.1305 19.8549 23.1103 19.7733L23.0603 19.56C23.0503 19.5267 22.9903 19.54 22.8603 19.5933C22.6603 19.68 22.5903 19.66 22.6953 19.5533C22.7353 19.5133 22.7953 19.3733 22.8253 19.2467C22.8603 19.1133 22.9103 19 22.9353 18.9867C22.9703 18.9733 22.9703 18.9867 22.9253 19.0667C22.8964 19.1174 22.8774 19.177 22.8703 19.24C22.8703 19.2733 22.8453 19.36 22.8203 19.4333C22.7903 19.5 22.7703 19.5667 22.7753 19.5733C22.7803 19.58 22.8603 19.54 22.9503 19.4867L23.1103 19.38V19.4733C23.1103 19.5267 23.1303 19.66 23.1553 19.7733L23.2003 19.9733L23.3103 19.9067C23.4203 19.84 23.5253 19.6 23.5253 19.4067C23.5253 19.3133 23.5653 19.3267 23.5853 19.4267C23.5853 19.4533 23.6153 19.5667 23.6353 19.6733L23.6853 19.86L23.7603 19.74C23.8053 19.6733 23.8553 19.54 23.8753 19.4533C23.9153 19.2933 23.9753 19.22 23.9753 19.34C23.9753 19.42 24.1453 19.7267 24.1753 19.7C24.1953 19.6867 24.2253 19.5733 24.2503 19.4467C24.3003 19.18 24.3753 19.0067 24.4253 19.0467C24.4453 19.06 24.4503 19.0867 24.4403 19.1133C24.4303 19.1267 24.4703 19.3 24.5303 19.4867C24.5738 19.6266 24.6171 19.7666 24.6603 19.9067C24.6803 19.9733 24.7003 19.9733 24.8253 19.82C24.9003 19.7267 24.9753 19.6267 24.9803 19.5933C24.9953 19.54 25.0103 19.5467 25.0803 19.6067C25.2277 19.7105 25.3892 19.774 25.5553 19.7933C25.5653 19.78 25.5753 19.66 25.5753 19.5267L25.5803 19.28L25.6803 19.3067C25.7303 19.3267 25.8453 19.3267 25.9303 19.3067L26.0803 19.28L25.9453 19.1467C25.8703 19.08 25.7953 18.9933 25.7753 18.9533C25.7603 18.9133 25.6903 18.8733 25.6153 18.8667C25.4103 18.84 25.0453 18.5733 25.0453 18.44C25.0453 18.4133 25.0953 18.46 25.1553 18.5333C25.2953 18.7 25.4853 18.8 25.6553 18.8H25.7753L25.7003 18.6667C25.6469 18.5633 25.6126 18.4445 25.6003 18.32C25.5903 18.12 25.5753 18.0933 25.4203 17.9533C25.3304 17.8684 25.2467 17.7724 25.1703 17.6667L25.0853 17.54L25.0403 17.6933C25.0153 17.78 24.9903 17.8467 24.9753 17.8467C24.9653 17.8467 24.9153 17.7933 24.8753 17.7333C24.8472 17.6899 24.8133 17.6537 24.7753 17.6267C24.7603 17.6267 24.7253 17.7067 24.6853 17.8067L24.6153 17.9867L24.5653 17.8867C24.5208 17.8049 24.4706 17.729 24.4153 17.66C24.3553 17.5933 24.3303 17.54 24.3503 17.54C24.3703 17.54 24.4353 17.6067 24.5003 17.6933L24.6103 17.8467L24.6603 17.7333C24.6892 17.6548 24.698 17.5658 24.6853 17.48C24.6653 17.36 24.6703 17.3533 24.7003 17.4333C24.7434 17.5086 24.7939 17.5758 24.8503 17.6333L24.9603 17.7533L25.0353 17.5733C25.1103 17.3867 25.1103 17.3867 25.1403 17.5C25.1903 17.64 25.5153 18 25.7903 18.2067C25.8403 18.24 25.8203 18.1333 25.7403 17.8733C25.7163 17.7879 25.7028 17.6978 25.7003 17.6067C25.7003 17.4867 25.6753 17.4333 25.5603 17.3133C25.4888 17.2524 25.429 17.17 25.3856 17.0728C25.3422 16.9756 25.3164 16.8662 25.3103 16.7533C25.2953 16.64 25.2653 16.52 25.2403 16.48C25.2103 16.4133 25.2003 16.4533 25.2103 16.6533C25.2203 16.7933 25.2053 16.9667 25.1803 17.04L25.1403 17.1733L25.1103 17.06C25.0903 17 25.0103 16.8933 24.9353 16.8267C24.8603 16.76 24.8053 16.6933 24.8153 16.68C24.8253 16.6667 24.9053 16.7267 24.9903 16.8133C25.1253 16.9533 25.1503 16.9667 25.1703 16.9067C25.1903 16.84 25.1703 16.5333 25.1303 16.32C25.1103 16.2133 25.1103 16.2133 25.2103 16.3467C25.2803 16.44 25.3203 16.56 25.3553 16.76C25.3953 17.0133 25.4153 17.06 25.5903 17.2667C25.6953 17.3933 25.7903 17.4867 25.7953 17.48C25.8053 17.4667 25.8153 17.1467 25.8253 16.76C25.8453 16.02 25.8253 15.84 25.6903 15.6133L25.6203 15.4933L25.7303 15.34C25.8535 15.1828 25.9359 14.9773 25.9653 14.7533L25.9853 14.5733L25.8653 14.7267C25.7653 14.8533 25.7153 14.88 25.6003 14.88C25.4853 14.88 25.4403 14.8533 25.3653 14.7467C25.2485 14.5967 25.106 14.4869 24.9503 14.4267C24.8903 14.4 24.8703 14.4133 24.8703 14.4667C24.8703 14.5067 24.8403 14.6133 24.8003 14.7133L24.7303 14.8867L24.5803 14.6867C24.4853 14.5733 24.3803 14.4733 24.2953 14.4467C24.0903 14.38 24.0803 14.38 24.0803 14.5867C24.0803 14.9 23.9803 14.96 23.8003 14.7533C23.6603 14.5933 23.5503 14.5533 23.2853 14.6L23.0853 14.6267L23.1203 14.7467C23.1503 14.8467 23.1453 14.8933 23.0803 15.0067C22.9753 15.1933 22.8403 15.2733 22.6303 15.2733C22.5303 15.2733 22.4103 15.3 22.3603 15.3333C22.3103 15.3667 22.1803 15.4 22.0753 15.4133C21.9753 15.4267 21.8603 15.4533 21.8253 15.4667C21.7753 15.4933 21.7753 15.4667 21.7903 15.32C21.8153 15.0933 21.6903 14.92 21.5053 14.92C21.2603 14.92 21.1503 15.2133 21.2453 15.6C21.2648 15.6834 21.2814 15.7679 21.2953 15.8533C21.361 16.02 21.4491 16.1692 21.5553 16.2933C21.6853 16.4667 21.8053 16.6467 21.8253 16.6933C21.8656 16.7628 21.9168 16.8197 21.9753 16.86L22.0853 16.94L22.0703 16.78C22.0553 16.6067 22.0803 16.58 22.1503 16.7067C22.1753 16.7467 22.2403 16.82 22.2903 16.86C22.3753 16.9267 22.3903 16.9267 22.3903 16.8733C22.3903 16.8333 22.4053 16.7467 22.4253 16.68L22.4603 16.56L22.5253 16.7267C22.5603 16.82 22.6753 17.0267 22.7803 17.1933C22.9853 17.5067 23.1153 17.86 23.0503 17.94C23.0203 17.9733 22.9503 17.9733 22.8003 17.9333C22.6903 17.9067 22.5503 17.8867 22.4903 17.9C22.3753 17.92 22.3653 17.9 22.4403 17.78C22.5153 17.6467 22.5003 17.6267 22.3503 17.6267C22.1753 17.6267 21.7403 17.5133 21.5703 17.4267C21.4103 17.34 21.3703 17.36 21.3203 17.5667L21.2353 17.94L21.1853 18.14L21.3653 18.12C21.4581 18.107 21.55 18.0848 21.6403 18.0533C21.6757 18.0376 21.713 18.0308 21.7503 18.0333C21.7603 18.04 21.7353 18.12 21.7003 18.2133L21.6303 18.3733L21.7403 18.3467C21.8003 18.3267 21.8903 18.2867 21.9403 18.2533C22.0303 18.2 22.0403 18.2 22.1103 18.3533C22.1953 18.5333 22.2603 18.5267 22.2753 18.3333C22.2903 18.1333 22.3403 18.16 22.4353 18.4267C22.5253 18.68 22.6153 18.7733 22.6353 18.6267C22.6403 18.5733 22.6853 18.4933 22.7403 18.44C22.8503 18.34 22.9303 18.3733 22.9753 18.5267C23.0253 18.6933 22.9153 18.86 22.6053 19.1133C22.3182 19.3247 22.0712 19.6208 21.8831 19.979C21.6951 20.3372 21.571 20.748 21.5203 21.18C21.4253 21.9667 21.7203 22.78 22.3003 23.3733C22.5803 23.6533 23.0253 23.9467 22.9953 23.84C22.8753 23.3533 22.8803 22.44 23.0003 22.2867C23.0203 22.26 23.0153 22.3533 22.9853 22.4933C22.8853 23.02 22.9353 23.4333 23.1853 24.4067C23.4053 25.2867 23.3753 25.6667 23.0553 25.9133C22.9553 25.9933 22.8903 26.0067 22.6153 26C22.3153 26 22.2803 26 22.1853 26.1067C22.0704 26.2631 21.9952 26.4636 21.9703 26.68C21.9703 26.7667 22.0403 26.7533 22.1703 26.6533H22.1753Z" fill="#FFB700"/>
<path d="M27.0249 26.6333L27.1499 26.5266L27.2349 26.6333C27.3449 26.7733 27.4799 26.7666 27.5849 26.6266C27.6349 26.56 27.6749 26.52 27.6799 26.5266L27.7249 26.6333C27.7499 26.6933 27.8049 26.72 27.9049 26.7333C28.0199 26.74 28.0549 26.7333 28.1049 26.64L28.1549 26.5266L28.2799 26.6333C28.6199 26.9266 28.7999 26.62 28.6449 26.0133C28.5699 25.7066 28.6149 25.5333 28.8599 25.1466C28.9649 24.98 29.0499 24.8 29.0499 24.7466C29.0499 24.6733 29.0299 24.66 28.8899 24.6666C28.7599 24.6666 28.7199 24.6466 28.6499 24.5466C28.5349 24.38 28.5449 24.1866 28.6699 23.9733L28.7699 23.8066L28.5899 23.6466C28.4462 23.5051 28.3124 23.3467 28.1899 23.1733C28.0808 23.0016 27.9473 22.8602 27.7972 22.7572C27.6471 22.6543 27.4832 22.5918 27.3149 22.5733L27.0799 22.54V22.78C27.0799 23.08 27.1899 23.3733 27.4799 23.8666C27.8099 24.4266 27.8299 24.5133 27.8449 25.2466L27.8599 25.8666L27.7599 25.9866C27.6749 26.0933 27.6399 26.1133 27.3599 26.1333C27.0949 26.1533 27.0349 26.1733 26.9599 26.2666C26.8721 26.352 26.8115 26.478 26.7899 26.62C26.7749 26.72 26.7799 26.74 26.8349 26.74C26.8699 26.74 26.9549 26.6933 27.0249 26.6333V26.6333ZM19.9149 25.0333C19.9451 24.9741 19.9625 24.9049 19.9649 24.8333C19.9649 24.7666 19.9949 24.74 20.1249 24.7133L20.2799 24.6866L20.1799 24.5733C20.0549 24.44 20.0399 24.34 20.1499 24.34C20.2599 24.34 20.4399 24.1933 20.4699 24.08C20.4849 24.0266 20.4699 23.96 20.4499 23.9266C20.3899 23.8333 20.2749 23.8466 20.2549 23.9533C20.2299 24.06 20.1949 24.06 20.1049 23.9533C19.9799 23.7866 19.9749 23.4466 20.1049 23.2466C20.1599 23.1533 20.1599 23.1533 20.0849 23.0533C20.0049 22.9466 19.9449 22.7466 19.9849 22.6933C19.9949 22.68 20.0599 22.6933 20.1249 22.7266C20.2249 22.7666 20.2599 22.7666 20.2999 22.7266C20.4149 22.6 20.2899 22.44 20.0999 22.48C20.0199 22.4933 19.9899 22.48 19.9799 22.4266C19.9699 22.3866 19.9049 22.3333 19.8299 22.3066C19.6949 22.26 19.6949 22.26 19.6949 22.3866C19.6949 22.52 19.6349 22.5466 19.5249 22.46C19.4349 22.3933 19.3499 22.4466 19.3499 22.5733C19.3499 22.6933 19.4349 22.7466 19.5999 22.7333C19.7199 22.7266 19.7249 22.8466 19.6099 23.02L19.5249 23.1533L19.5899 23.28C19.6899 23.4666 19.6799 23.78 19.5749 23.94L19.4899 24.06L19.4349 23.96C19.3549 23.8266 19.2499 23.8333 19.2199 23.98C19.2049 24.0733 19.2199 24.1133 19.3099 24.22C19.3699 24.2866 19.4599 24.34 19.5049 24.34C19.6199 24.34 19.6149 24.4666 19.4949 24.5866L19.3949 24.6866L19.5449 24.7133C19.6249 24.7333 19.6949 24.76 19.6949 24.78C19.6949 24.8666 19.7949 25.1266 19.8249 25.1266C19.8449 25.1266 19.8849 25.08 19.9149 25.0266V25.0333Z" fill="#FFB700"/>
<path d="M21.8251 23.9266C21.9601 23.86 22.2501 23.5266 22.2501 23.4533C22.2501 23.4266 22.1701 23.3066 22.0701 23.1866C21.8701 22.9466 21.6451 22.5266 21.5851 22.2866C21.5551 22.1533 21.4101 21.94 21.0001 21.4066L20.4551 20.7066L20.3001 20.76C20.2101 20.7866 20.1051 20.8133 20.0651 20.8133C19.9901 20.8133 19.9901 20.8133 20.0901 20.92L20.1901 21.0266L20.3401 20.92C20.4751 20.8133 20.4801 20.8133 20.4951 20.9C20.5051 20.9466 20.4851 21.0333 20.4451 21.0933C20.4101 21.1533 20.3901 21.2266 20.3951 21.2466C20.4101 21.2666 20.3751 21.3133 20.3201 21.3533C20.2201 21.42 20.1451 21.64 20.2251 21.64C20.3001 21.64 20.4601 21.3733 20.4401 21.2866C20.4301 21.24 20.4401 21.1933 20.4501 21.18C20.5151 21.1333 20.5101 21.34 20.4501 21.4466C20.4101 21.5 20.3901 21.5666 20.4001 21.5933C20.4101 21.6133 20.3751 21.66 20.3201 21.7C20.2201 21.7666 20.1451 21.9866 20.2251 21.9866C20.3051 21.9866 20.4601 21.7333 20.4451 21.64C20.4351 21.5933 20.4351 21.54 20.4501 21.5266C20.4951 21.5 20.5151 21.66 20.4801 21.74C20.4709 21.7625 20.4661 21.7877 20.4661 21.8133C20.4661 21.8389 20.4709 21.8641 20.4801 21.8866C20.5151 21.9733 20.4801 22.1333 20.4151 22.1866C20.3901 22.2066 20.4051 22.2533 20.4751 22.32C20.5751 22.4133 20.5751 22.4266 20.5751 22.8533C20.5751 23.2133 20.5851 23.3066 20.6351 23.3666C20.6851 23.4333 20.6951 23.4333 20.6951 23.3666C20.6951 23.3 20.7951 23.2066 20.8701 23.2066C20.8951 23.2066 21.0401 23.3733 21.1951 23.5733C21.3501 23.7733 21.5151 23.9533 21.5601 23.96L21.6701 23.9866C21.6851 23.9866 21.7551 23.9666 21.8251 23.92V23.9266ZM20.1601 22.1866C20.1601 22.0733 19.9801 21.9466 19.7651 21.92C19.5901 21.8866 19.5901 21.8933 19.5901 22.0066C19.5901 22.1 19.6151 22.14 19.7401 22.2066C19.9301 22.32 20.1601 22.3066 20.1601 22.1866Z" fill="#FFB700"/>
<path d="M20.3551 22.1733C20.4451 22.0666 20.4851 21.9466 20.4301 21.9466C20.3701 21.9466 20.2101 22.1333 20.2101 22.2133C20.2101 22.32 20.2401 22.3133 20.3601 22.1733H20.3551ZM20.1701 21.8333C20.1751 21.7666 20.1451 21.7266 20.0551 21.6666C19.8551 21.5533 19.6251 21.4933 19.5701 21.5533C19.4651 21.6666 19.5351 21.8133 19.7001 21.84C19.7701 21.8466 19.8601 21.8733 19.9051 21.9C20.0351 21.9666 20.1551 21.9333 20.1701 21.8333V21.8333ZM20.1701 21.48C20.1801 21.3933 20.1351 21.36 19.7701 21.1866C19.4951 21.0533 19.3751 21.12 19.4651 21.34C19.4951 21.4133 19.5451 21.4466 19.6601 21.4733C19.7451 21.4866 19.8601 21.52 19.9151 21.5466C20.0651 21.6133 20.1551 21.5866 20.1651 21.48H20.1701ZM20.3501 21.1533C20.4051 21.08 20.4501 20.9933 20.4501 20.9533C20.4501 20.8533 20.2351 21.04 20.2051 21.1733C20.1751 21.3266 20.2301 21.32 20.3551 21.1533H20.3501ZM20.1701 21.1333C20.1801 21.0266 20.0501 20.9333 19.7901 20.86C19.5951 20.8 19.5101 20.8333 19.5251 20.9533C19.5351 21.02 19.6001 21.0666 19.7751 21.14C20.0701 21.26 20.1551 21.26 20.1701 21.1333V21.1333ZM20.4201 20.64C20.7601 20.44 20.7851 19.94 20.4701 19.8066C20.3401 19.7533 20.2601 19.7866 20.2101 19.9C20.1701 19.9933 20.1951 20.1533 20.2451 20.1533C20.2651 20.1533 20.2801 20.1866 20.2801 20.22C20.2801 20.4 19.7701 20.4733 19.5601 20.3333C19.4851 20.2866 19.4601 20.1533 19.5151 20.1533C19.5651 20.1533 19.5951 20.02 19.5701 19.9333C19.5401 19.8 19.4401 19.76 19.3051 19.8133C18.9901 19.92 19.0001 20.4133 19.3201 20.6133C19.6741 20.7866 20.0615 20.796 20.4201 20.64V20.64Z" fill="#FFB700"/>
<path d="M20.2154 20.2533C20.2354 20.2267 20.2254 20.1867 20.1954 20.16C20.1254 20.0867 20.1304 19.9733 20.2054 19.8467C20.2654 19.7533 20.2704 19.6067 20.2904 18.1733C20.3254 15.7 20.4654 13.84 20.6454 13.3867C20.7204 13.2133 20.7104 13.2133 20.5204 13.3867C20.2711 13.6182 20.0699 13.9301 19.9354 14.2933C19.6254 15.06 19.5204 16.0933 19.5204 18.3067C19.5204 19.56 19.5254 19.7267 19.5804 19.84C19.6304 19.96 19.6304 20 19.6004 20.12C19.5754 20.1933 19.5654 20.2733 19.5754 20.2867C19.6454 20.3733 20.1454 20.3533 20.2154 20.2533ZM23.0204 17.8933C23.0354 17.8733 23.0104 17.76 22.9704 17.6533C22.9104 17.48 22.8854 17.4533 22.8004 17.4533C22.4006 17.407 22.0107 17.2623 21.6504 17.0267C21.3954 16.8733 21.3004 16.84 21.2754 16.88C21.1954 16.98 21.3254 17.2133 21.5254 17.34C21.8197 17.4814 22.128 17.5645 22.4404 17.5867C22.5754 17.5867 22.5804 17.5867 22.5004 17.74L22.4504 17.8467H22.6004L22.8504 17.8867C23.0004 17.9333 23.0004 17.9333 23.0204 17.8933V17.8933Z" fill="#FFB700"/>
<path d="M24.6001 19.0066C24.6001 18.94 24.4551 18.7733 24.3151 18.66C24.2001 18.5733 24.1801 18.5666 24.1801 18.64C24.1801 18.7466 24.1101 19.02 24.0801 19.02C24.0651 19.02 24.0401 18.9666 24.0301 18.9066C24.0151 18.84 23.9601 18.7066 23.9051 18.62L23.8051 18.4533L23.7351 18.6066C23.6651 18.7533 23.5401 18.8933 23.4851 18.8933C23.4751 18.8933 23.4701 18.8133 23.4851 18.7266C23.4901 18.62 23.4851 18.54 23.4601 18.5266C23.4401 18.5066 23.4201 18.5133 23.4201 18.54C23.4201 18.5933 23.2501 18.8466 23.2201 18.8466C23.2001 18.8466 23.1801 18.78 23.1701 18.6866L23.1301 18.3666C23.1201 18.2866 23.1451 18.34 23.1801 18.5L23.2601 18.7733L23.3401 18.6066C23.3763 18.5378 23.4034 18.4611 23.4201 18.38C23.4201 18.3466 23.4351 18.3333 23.4551 18.3466C23.4751 18.36 23.5001 18.4733 23.5101 18.5933L23.5351 18.82L23.6251 18.6866C23.6722 18.6198 23.7156 18.5485 23.7551 18.4733C23.7901 18.3933 23.7951 18.3933 23.8701 18.4733C23.9101 18.5266 23.9751 18.64 24.0151 18.7333C24.0551 18.8266 24.0901 18.8933 24.0951 18.8866L24.1251 18.6733L24.1451 18.4733C24.1501 18.44 24.4151 18.6733 24.5151 18.7866C24.5751 18.86 24.6351 18.9133 24.6451 18.9C24.6551 18.8866 24.6651 18.78 24.6651 18.6533C24.6651 18.4666 24.6501 18.4133 24.5651 18.3133C24.4651 18.1933 24.4651 18.1933 24.4251 18.28C24.3751 18.3933 24.3201 18.3933 24.3201 18.28C24.3201 18.2 24.1301 17.8866 24.0851 17.8866C24.0701 17.8866 24.0301 17.9533 23.9951 18.04C23.9601 18.1266 23.9201 18.1933 23.9101 18.1933C23.8601 18.1933 23.5951 17.7933 23.5951 17.7266C23.5951 17.6733 23.6151 17.6866 23.6601 17.78C23.7048 17.8675 23.7568 17.948 23.8151 18.02C23.9151 18.14 23.9551 18.1133 23.9951 17.88C24.0101 17.8133 24.0301 17.76 24.0451 17.76C24.0851 17.76 24.3151 18.0866 24.3451 18.1933L24.3801 18.3L24.4051 18.18C24.4351 18.0333 24.4701 18.0333 24.5201 18.1666C24.5401 18.22 24.6401 18.34 24.7401 18.42L24.9251 18.58L24.9601 18.42C24.9801 18.3333 25.0101 18.2866 25.0201 18.3133C25.0401 18.3466 24.9901 18.6133 24.9551 18.6666C24.9551 18.6733 24.8901 18.6266 24.8251 18.5666L24.7001 18.4466V18.66C24.7001 18.7733 24.6901 18.9133 24.6801 18.9666C24.6551 19.0733 24.5951 19.1 24.5951 19.0066H24.6001ZM23.6751 17.3133C23.4551 17.0733 23.4251 17.02 23.4251 16.9L23.4301 16.78L23.4451 16.8933C23.4551 16.96 23.5151 17.0666 23.5851 17.1466L23.7151 17.28L23.7901 17.16C23.8351 17.0933 23.8701 17.0133 23.8701 16.9866C23.8701 16.9066 23.8801 16.9133 24.0301 17.0866C24.1601 17.24 24.1651 17.24 24.1801 17.14C24.1951 17.0866 24.1901 16.98 24.1801 16.9066C24.1301 16.7066 24.1401 16.68 24.2051 16.8L24.3251 16.9866C24.3751 17.06 24.3801 17.06 24.4001 16.9666C24.4151 16.9066 24.4251 16.8066 24.4251 16.74V16.6133L24.5401 16.7933C24.6551 16.9666 24.6651 16.9733 24.6951 16.8866C24.7201 16.84 24.7351 16.7266 24.7351 16.64C24.7351 16.52 24.7451 16.4933 24.7651 16.5333C24.8051 16.6133 24.7801 16.8133 24.7101 16.9866L24.6601 17.12L24.5951 16.98C24.5101 16.8066 24.4801 16.8066 24.4301 16.9933C24.3801 17.1733 24.3451 17.1866 24.2951 17.0466C24.2651 16.96 24.2551 16.9733 24.2351 17.16L24.2101 17.36L24.0601 17.2066L23.9101 17.0533L23.8351 17.1533C23.8001 17.2133 23.7701 17.2866 23.7701 17.3133C23.7701 17.38 23.7301 17.38 23.6751 17.3133V17.3133ZM25.6251 16.4066C25.5501 16.3133 25.4951 16.22 25.5051 16.2066C25.5201 16.1866 25.5301 16.18 25.5351 16.1933C25.5835 16.2621 25.6335 16.3288 25.6851 16.3933C25.8551 16.6333 25.8201 16.64 25.6301 16.4066H25.6251ZM23.0251 16.0466C22.9551 15.9133 22.9601 15.8333 23.0501 15.6866C23.1101 15.5866 23.1401 15.5733 23.2501 15.5933C23.3251 15.6 23.4801 15.6866 23.5951 15.78C23.7613 15.9123 23.9515 15.9815 24.1451 15.98L24.0601 15.7933C23.9501 15.5733 23.9501 15.5466 24.0801 15.68C24.2101 15.82 24.3651 15.86 24.7151 15.8466L24.8851 15.84L24.7851 15.7066C24.6501 15.5266 24.6901 15.5066 24.8451 15.6866C24.9851 15.8533 24.9801 15.8666 24.6751 15.9066C24.5479 15.9238 24.4195 15.9125 24.2951 15.8733C24.1251 15.8066 24.1151 15.8133 24.1501 15.8866C24.1701 15.9333 24.2001 15.9666 24.2151 15.9666C24.2351 15.9666 24.2501 15.9933 24.2501 16.02C24.2501 16.1066 23.8801 16.0266 23.7001 15.9133C23.3001 15.64 23.2501 15.6133 23.1501 15.6533C23.1234 15.667 23.0991 15.6876 23.0785 15.7139C23.0579 15.7402 23.0414 15.7717 23.0301 15.8066C22.9651 16.0266 23.2001 16.2 23.2951 16.0066C23.3251 15.9466 23.3201 15.9133 23.2701 15.84C23.2001 15.7466 23.2101 15.7333 23.3001 15.7733C23.3651 15.8066 23.3701 16.0133 23.3101 16.0933C23.2451 16.18 23.0851 16.16 23.0251 16.0466Z" fill="black"/>
<path d="M24.6205 15.5067C24.5705 15.44 24.6105 15.4267 24.8355 15.42C25.1155 15.4133 25.2855 15.3533 25.4855 15.18C25.6455 15.0467 25.6905 15.0733 25.5355 15.2133C25.4005 15.3467 25.1855 15.44 24.9705 15.4667L24.7155 15.5133C24.6755 15.5267 24.6305 15.52 24.6155 15.5067H24.6205Z" fill="black"/>
</g>
<rect x="2" y="2" width="36" height="36" rx="18" stroke="white" stroke-width="4"/>
<defs>
<clipPath id="clip0_90_24813">
<rect x="4" y="4" width="32" height="32" rx="16" fill="white"/>
</clipPath>
</defs>
</svg>
