<svg width="40" height="40" viewBox="0 0 40 40" fill="none" xmlns="http://www.w3.org/2000/svg">
<g clip-path="url(#clip0_90_24798)">
<path d="M3.99976 4H35.9998V36H3.99976V4Z" fill="white"/>
<path d="M3.99976 26.4H35.9998V36H3.99976V26.4Z" fill="#009543"/>
<path d="M3.99976 4H35.9998V13.6H3.99976V4Z" fill="#00209F"/>
<path d="M19.9796 14.2C19.8446 14.2 19.7096 14.4 19.7096 14.4L19.7246 16.56L19.2096 17.2733H19.6246V18.5066L17.1746 22.9066L16.8146 22.7333L16.1796 24.5333C16.1796 24.5333 17.7446 25.84 20.0146 25.8C22.5046 25.7666 23.8596 24.4733 23.8596 24.4733L23.2096 22.7L22.8846 22.8866L20.4046 18.5133V17.24H20.8146L20.2546 16.5333V14.3866C20.2546 14.3866 20.1196 14.1866 19.9796 14.1933V14.2Z" fill="black"/>
<path fill-rule="evenodd" clip-rule="evenodd" d="M20.2846 14.351C20.2846 14.351 20.2846 14.351 20.2548 14.3867L20.2846 14.351L20.2948 14.3662V16.5104L20.9153 17.2933H20.4448V18.4954L22.8978 22.8211L23.229 22.6309L23.9106 24.4904L23.8831 24.5167L23.8598 24.4733C23.8831 24.5167 23.8831 24.5167 23.8831 24.5167L23.883 24.5168L23.8828 24.517L23.8819 24.5178C23.8812 24.5185 23.8801 24.5195 23.8787 24.5208C23.8759 24.5234 23.8718 24.5272 23.8664 24.5321C23.8555 24.5418 23.8395 24.556 23.8182 24.574C23.7756 24.61 23.7122 24.6612 23.6285 24.7227C23.461 24.8455 23.2121 25.0093 22.8852 25.1741C22.2313 25.5035 21.2655 25.8366 20.0153 25.8533C18.8745 25.8734 17.911 25.5551 17.2326 25.2319C16.8934 25.0702 16.6253 24.9073 16.4419 24.7845C16.3502 24.7232 16.2796 24.6719 16.2318 24.6358C16.2079 24.6178 16.1897 24.6036 16.1775 24.5938C16.1713 24.5889 16.1667 24.5851 16.1635 24.5826L16.1599 24.5796L16.159 24.5788L16.1586 24.5786C16.1586 24.5785 16.1586 24.5785 16.1798 24.5333L16.1586 24.5786L16.1285 24.5534L16.7941 22.6667L17.1604 22.843L19.5848 18.489V17.3267H19.1158L19.6847 16.5387L19.6697 14.3797L19.6801 14.3643L19.7098 14.4C19.6801 14.3643 19.6801 14.3643 19.6801 14.3643L19.6802 14.3642L19.6803 14.364L19.6807 14.3634L19.6821 14.3614C19.6833 14.3597 19.685 14.3574 19.6871 14.3544C19.6914 14.3484 19.6976 14.3401 19.7055 14.3301C19.7211 14.3103 19.7434 14.2838 19.7704 14.2571C19.814 14.2141 19.8742 14.1661 19.9398 14.1513V14.1419L19.9784 14.14C20.062 14.136 20.1398 14.193 20.1932 14.2442C20.2206 14.2705 20.2432 14.2969 20.259 14.3167C20.2669 14.3266 20.2731 14.335 20.2775 14.341C20.2797 14.344 20.2814 14.3464 20.2825 14.3481L20.2839 14.3501L20.2844 14.3507L20.2845 14.3509L20.2846 14.351ZM19.75 14.4212L19.765 16.5813L19.3039 17.22H19.6648V18.5243L17.1892 22.9703L16.8355 22.8L16.2314 24.5124C16.242 24.5207 16.2553 24.531 16.2712 24.543C16.3179 24.5782 16.3873 24.6287 16.4778 24.6892C16.6587 24.8102 16.9238 24.9714 17.2595 25.1314C17.9312 25.4515 18.8851 25.7666 20.0143 25.7467L20.0144 25.7467C21.2542 25.7301 22.2108 25.3998 22.8569 25.0743C23.18 24.9115 23.4255 24.7499 23.5899 24.6292C23.6721 24.5689 23.7341 24.5188 23.7753 24.4839C23.7886 24.4727 23.7997 24.4631 23.8087 24.4552L23.1906 22.7691L22.8718 22.9522L20.3648 18.5312V17.1867H20.7144L20.2148 16.5563V14.4082C20.2119 14.4042 20.2083 14.3995 20.2041 14.3943C20.1902 14.3769 20.1703 14.3537 20.1465 14.3308C20.1084 14.2943 20.0641 14.2623 20.0198 14.2509V14.2533H19.9798C19.9256 14.2533 19.8669 14.2946 19.818 14.3429C19.7943 14.3662 19.7745 14.3897 19.7606 14.4074C19.7565 14.4126 19.753 14.4172 19.75 14.4212ZM20.0153 25.8533C20.0153 25.8533 20.0153 25.8533 20.0153 25.8533L20.0148 25.8L20.0154 25.8533C20.0153 25.8533 20.0153 25.8533 20.0153 25.8533Z" fill="black"/>
<path fill-rule="evenodd" clip-rule="evenodd" d="M19.9565 14.8733C19.6487 14.8794 19.3932 15.0085 19.2035 15.2533C19.0127 15.4995 18.8697 15.8872 18.8233 16.455C18.7805 17 18.8977 17.6884 19.0367 18.2641C19.105 18.5472 19.1764 18.794 19.2306 18.97C19.2449 19.0163 19.2579 19.0576 19.2694 19.0933H20.7059C20.7183 19.0558 20.7325 19.012 20.748 18.9627C20.8044 18.7837 20.8782 18.5328 20.9479 18.2454C21.09 17.6599 21.2047 16.964 21.1464 16.4175L21.1464 16.4171C21.0845 15.8302 20.9556 15.4528 20.7737 15.221C20.5957 14.9941 20.3381 14.8704 19.9565 14.8733ZM20.8344 19.36V19.6266H19.0126L18.9585 19.4736L19.1394 19.36C18.9585 19.4736 18.9585 19.4736 18.9585 19.4735L18.9583 19.473L18.9578 19.4717L18.9563 19.4673C18.955 19.4636 18.9532 19.4582 18.9508 19.4513C18.946 19.4375 18.9392 19.4174 18.9306 19.3916C18.9134 19.34 18.8892 19.2655 18.8606 19.1727C18.8034 18.9872 18.7282 18.7269 18.6559 18.4275C18.5137 17.8384 18.3734 17.0604 18.4255 16.3988L18.4256 16.3983L18.4256 16.3978C18.4793 15.7392 18.6513 15.2236 18.9254 14.87C19.2005 14.515 19.5597 14.3475 19.9516 14.34L19.9524 14.34L19.9532 14.34C20.4011 14.3364 20.7733 14.4827 21.0501 14.8355C21.3233 15.1837 21.4743 15.6963 21.5425 16.3427C21.6142 17.0161 21.4739 17.8101 21.3285 18.4095C21.2545 18.7146 21.1764 18.98 21.1168 19.1691C21.087 19.2639 21.0617 19.3398 21.0437 19.3924C21.0347 19.4188 21.0276 19.4393 21.0226 19.4535C21.0216 19.4562 21.0207 19.4586 21.0199 19.4608C21.0187 19.4645 21.0176 19.4675 21.0167 19.4699L21.0151 19.4744L21.0146 19.4757L21.0144 19.4762C21.0144 19.4763 21.0144 19.4763 20.8344 19.36Z" fill="black"/>
<path d="M17.0243 23.4733C16.9943 23.52 16.7893 24.0667 16.7893 24.0667L17.1393 23.9667L17.0243 23.4733ZM17.2243 24.1733L16.8543 24.3333L17.2993 24.5667L17.2243 24.1733ZM17.3893 23.4867L17.5743 24.2133L18.0243 24.04L17.9093 23.6933L17.3893 23.4867V23.4867ZM17.6793 24.4733L17.7393 24.7667L18.3393 24.9667L18.0993 24.2867L17.6793 24.4733ZM18.3393 23.8533L18.5543 24.5333L19.0043 24.3L18.8543 24L18.3393 23.8533ZM18.6393 24.78L18.7093 25.0333L19.4093 25.1667L19.1143 24.5533L18.6343 24.78H18.6393ZM19.3093 24.0467L19.5693 24.6533L20.2193 24.3333L20.1493 24.1L19.3093 24.0533V24.0467ZM19.6893 24.8733L19.8243 25.1933L20.6343 25.16L20.3343 24.56L19.6843 24.8733H19.6893ZM20.5443 24.0733L20.7643 24.58L21.2843 24.2467L21.1443 23.98L20.5443 24.0733V24.0733ZM21.3943 24.46L20.8793 24.8L21.0143 25.1L21.7043 24.9533L21.3943 24.46V24.46ZM21.5593 23.9267L21.8243 24.3733L22.2593 23.9133L22.1093 23.7133L21.5593 23.9267ZM22.3543 24.16L21.9393 24.58L22.0493 24.84L22.6193 24.64L22.3543 24.16V24.16ZM22.9243 23.2933L23.0243 23.4867L22.7393 24.0533L22.4443 23.5467L22.9243 23.2933V23.2933ZM23.1193 23.78L23.2943 24.2467L22.9443 24.4067L22.9143 24.1867L23.1143 23.7867L23.1193 23.78Z" fill="white"/>
</g>
<rect x="2" y="2" width="36" height="36" rx="18" stroke="white" stroke-width="4"/>
<defs>
<clipPath id="clip0_90_24798">
<rect x="4" y="4" width="32" height="32" rx="16" fill="white"/>
</clipPath>
</defs>
</svg>
