<svg width="40" height="40" viewBox="0 0 40 40" fill="none" xmlns="http://www.w3.org/2000/svg">
<g clip-path="url(#clip0_90_24779)">
<path d="M-4.00024 3.99997H43.9998V36H-4.00024V3.99997Z" fill="#239E46"/>
<path d="M-4.00024 3.99997H43.9998V28H-4.00024V3.99997Z" fill="black"/>
<path d="M-4.00024 3.99997H43.9998V12H-4.00024V3.99997Z" fill="#E70013"/>
<path d="M22.1218 17.1712C21.732 16.8004 21.2732 16.5798 20.7957 16.5338C20.3181 16.4878 19.8403 16.6181 19.4146 16.9103C18.989 17.2025 18.6319 17.6455 18.3826 18.1905C18.1333 18.7355 18.0014 19.3616 18.0014 20C18.0014 20.6384 18.1333 21.2644 18.3826 21.8094C18.6319 22.3545 18.989 22.7974 19.4146 23.0896C19.8403 23.3819 20.3181 23.5121 20.7957 23.4661C21.2732 23.4201 21.732 23.1996 22.1218 22.8288C21.7022 23.3881 21.1676 23.7689 20.5857 23.9232C20.0038 24.0774 19.4006 23.9982 18.8525 23.6954C18.3044 23.3926 17.8359 22.8799 17.5063 22.2221C17.1767 21.5644 17.0007 20.7911 17.0007 20C17.0007 19.2089 17.1767 18.4356 17.5063 17.7778C17.8359 17.12 18.3044 16.6073 18.8525 16.3046C19.4006 16.0018 20.0038 15.9225 20.5857 16.0768C21.1676 16.231 21.7022 16.6119 22.1218 17.1712M21.4594 20L25.4962 18.2528L23.0002 22.8288V17.1712L25.4962 21.7472L21.4594 20Z" fill="white"/>
</g>
<rect x="2" y="2" width="36" height="36" rx="18" stroke="white" stroke-width="4"/>
<defs>
<clipPath id="clip0_90_24779">
<rect x="4" y="4" width="32" height="32" rx="16" fill="white"/>
</clipPath>
</defs>
</svg>
