<svg width="40" height="40" viewBox="0 0 40 40" fill="none" xmlns="http://www.w3.org/2000/svg">
<g clip-path="url(#clip0_90_24776)">
<path d="M36 4H4V36H36V4Z" fill="#C1272D"/>
<path fill-rule="evenodd" clip-rule="evenodd" d="M20 14.6975L20.8946 18.37H23.7814L21.445 20.6294L22.3358 24.286L20 22.027L17.6641 24.286L18.5549 20.6294L16.2185 18.37H19.1053L20 14.6975ZM18.9153 19.15H18.0214L18.7448 19.8496L18.9153 19.15ZM19.2426 20.331L19.5304 19.15H20.4695L20.7573 20.331L20 21.0634L19.2426 20.331ZM19.0527 21.1109L18.7758 22.2473L19.5018 21.5452L19.0527 21.1109ZM20.4981 21.5452L21.2241 22.2473L20.9472 21.1109L20.4981 21.5452ZM21.2551 19.8496L21.9785 19.15H21.0846L21.2551 19.8496ZM20.2795 18.37H19.7204L20 17.2224L20.2795 18.37Z" fill="#006233"/>
</g>
<rect x="2" y="2" width="36" height="36" rx="18" stroke="white" stroke-width="4"/>
<defs>
<clipPath id="clip0_90_24776">
<rect x="4" y="4" width="32" height="32" rx="16" fill="white"/>
</clipPath>
</defs>
</svg>
