<svg width="40" height="40" viewBox="0 0 40 40" fill="none" xmlns="http://www.w3.org/2000/svg">
<g clip-path="url(#clip0_90_24682)">
<path fill-rule="evenodd" clip-rule="evenodd" d="M4 4H14.665V36H4V4Z" fill="#00319C"/>
<path fill-rule="evenodd" clip-rule="evenodd" d="M14.6646 4H25.3346V36H14.6646V4Z" fill="#FFDE00"/>
<path fill-rule="evenodd" clip-rule="evenodd" d="M25.335 4H36V36H25.335V4Z" fill="#DE2110"/>
<path fill-rule="evenodd" clip-rule="evenodd" d="M22.0198 25.36L23.2298 27.6933C23.2998 27.8267 23.3648 27.9533 23.2648 28.04C23.1648 28.1267 23.1948 28.4667 23.2648 28.6C23.3998 28.86 23.5648 28.9 23.6648 28.8133L24.5848 28.04C24.6848 27.96 24.7198 27.74 24.5848 27.48C24.5098 27.3467 24.2848 27.18 24.1848 27.2667C24.0798 27.3533 24.0098 27.22 23.9448 27.0933L22.7298 24.76" fill="#FF1900"/>
<path fill-rule="evenodd" clip-rule="evenodd" d="M22.744 24.7467L23.9591 27.0802C23.9921 27.1444 24.0242 27.2057 24.0601 27.2413C24.0776 27.2586 24.0952 27.2688 24.1133 27.2707C24.1313 27.2725 24.1516 27.2664 24.1753 27.247C24.2049 27.2214 24.2423 27.2157 24.2808 27.2215C24.3195 27.2274 24.3611 27.2452 24.4013 27.2696C24.4812 27.3182 24.5589 27.3953 24.5986 27.466L24.599 27.4667C24.7366 27.7316 24.7065 27.9695 24.5938 28.0599L23.6742 28.8329C23.6741 28.8329 23.6741 28.833 23.6741 28.833C23.5628 28.9293 23.3881 28.8787 23.2503 28.6133C23.2127 28.5418 23.1872 28.4187 23.1834 28.3035C23.1815 28.2456 23.185 28.1881 23.1958 28.1388C23.2066 28.0896 23.2253 28.0463 23.2551 28.0204C23.2777 28.0009 23.2894 27.9805 23.2947 27.9603C23.3 27.94 23.2997 27.917 23.294 27.8905C23.2825 27.836 23.2509 27.7745 23.2153 27.7067L23.2152 27.7066L22.0052 25.3733L22.034 25.3467L23.244 27.68C23.244 27.68 23.244 27.6799 23.244 27.68C23.2784 27.7455 23.3143 27.8141 23.3277 27.8779C23.3346 27.9105 23.3361 27.9438 23.3277 27.9758C23.3193 28.0079 23.3016 28.0358 23.2742 28.0596C23.254 28.0771 23.2389 28.1087 23.2294 28.1519C23.2199 28.1949 23.2166 28.2469 23.2184 28.3015C23.222 28.4113 23.2465 28.5248 23.279 28.5866L23.279 28.5867C23.4112 28.8413 23.5663 28.8707 23.6551 28.7938L23.6553 28.7936L24.5756 28.02C24.6628 27.9503 24.7026 27.7485 24.5704 27.4937C24.5351 27.4311 24.4629 27.3584 24.3868 27.3121C24.3488 27.289 24.3108 27.273 24.2768 27.2679C24.2427 27.2627 24.2145 27.2686 24.1942 27.2862L24.1939 27.2865C24.1651 27.3103 24.1373 27.32 24.1106 27.3172C24.0841 27.3145 24.0604 27.2997 24.0392 27.2788C23.9977 27.2376 23.9623 27.169 23.9302 27.1066C23.9302 27.1066 23.9302 27.1065 23.9302 27.1065L22.7153 24.7733L22.744 24.7467Z" fill="black"/>
<path fill-rule="evenodd" clip-rule="evenodd" d="M22.4944 23.7153C23.0356 24.5349 23.2239 25.4747 22.9154 25.8053C22.6069 26.1359 21.9125 25.7387 21.3713 24.9191C20.8302 24.0995 20.6445 23.1569 20.953 22.8263C21.2614 22.4957 21.9537 22.8895 22.4971 23.7125L22.4944 23.7153Z" fill="#A77B3B"/>
<path fill-rule="evenodd" clip-rule="evenodd" d="M20.8855 23.6762C20.9591 24.046 21.1371 24.4792 21.4044 24.8839C21.6717 25.2887 21.9755 25.5871 22.2483 25.7435C22.5241 25.9016 22.7533 25.9073 22.8878 25.7631C23.0223 25.619 23.0572 25.3303 22.9821 24.957C22.9079 24.5879 22.7291 24.1553 22.4618 23.7505L22.434 23.7084L22.4364 23.7058C22.175 23.3207 21.8827 23.0374 21.6198 22.8869C21.3443 22.7292 21.1156 22.7243 20.981 22.8685C20.8465 23.0127 20.8111 23.3022 20.8855 23.6762ZM22.5551 23.7225L22.558 23.7195L22.5301 23.6773C22.2551 23.2609 21.9412 22.9509 21.6545 22.7868C21.3709 22.6244 21.0993 22.5978 20.9254 22.7842C20.7515 22.9706 20.7255 23.3177 20.8021 23.7025C20.8795 24.0915 21.0648 24.5394 21.3387 24.9543C21.6126 25.3691 21.9265 25.6791 22.2135 25.8436C22.4973 26.0063 22.7695 26.0339 22.9435 25.8474C23.1174 25.661 23.1427 25.3145 23.0654 24.9304C22.99 24.5553 22.8139 24.1253 22.5551 23.7225Z" fill="black"/>
<path fill-rule="evenodd" clip-rule="evenodd" d="M17.0999 24.4067L16.0249 26.8534C15.9649 26.9867 15.9049 27.1201 15.7999 27.0534C15.6949 26.9734 15.4699 27.1667 15.4099 27.3067C15.2899 27.5734 15.3349 27.7867 15.4449 27.8667L16.4049 28.5467C16.5049 28.6201 16.6749 28.5601 16.7949 28.2934C16.8499 28.1467 16.8649 27.8067 16.7599 27.7334C16.6549 27.6601 16.7099 27.5201 16.7749 27.3867L17.8449 24.9401" fill="#FF1900"/>
<path fill-rule="evenodd" clip-rule="evenodd" d="M16.0096 26.8414L17.0845 24.3949L17.1147 24.4185L16.0397 26.8652L16.0396 26.8654L16.0386 26.8676C16.0094 26.9326 15.9782 27.0018 15.9405 27.0459C15.9211 27.0686 15.8991 27.0858 15.8738 27.0919C15.8483 27.0982 15.8211 27.0928 15.7921 27.0744L15.7915 27.074L15.7909 27.0736C15.7697 27.0574 15.7406 27.0539 15.706 27.0624C15.6715 27.0709 15.6335 27.0909 15.5961 27.118C15.5208 27.1727 15.4526 27.2534 15.4248 27.3183L15.4246 27.3187C15.3661 27.4487 15.3489 27.5634 15.3582 27.6535C15.3675 27.7433 15.4031 27.8099 15.4529 27.8461C15.4529 27.8462 15.453 27.8462 15.453 27.8462L16.413 28.5262C16.5012 28.5909 16.6617 28.5426 16.7792 28.2821C16.805 28.213 16.822 28.0959 16.8196 27.9865C16.8184 27.9319 16.8123 27.8807 16.8007 27.8394C16.7891 27.7979 16.7725 27.7687 16.7515 27.754C16.7226 27.7338 16.7031 27.7079 16.6925 27.6766C16.6821 27.6454 16.6813 27.6117 16.6862 27.5781C16.6956 27.5123 16.7275 27.4406 16.7597 27.3745L17.8295 24.9283L17.8597 24.9518L16.7895 27.3989L16.7893 27.3994C16.7566 27.4665 16.7286 27.5312 16.7205 27.5869C16.7166 27.6142 16.7178 27.6375 16.7245 27.6574C16.7311 27.6772 16.7441 27.6962 16.7677 27.7127C16.7992 27.7347 16.8201 27.7755 16.8335 27.823C16.8469 27.8706 16.8533 27.9273 16.8546 27.9852C16.8572 28.1004 16.8394 28.2261 16.8103 28.3038L16.81 28.3046L16.8096 28.3054C16.6872 28.5774 16.508 28.649 16.3963 28.5672C16.3962 28.5672 16.3962 28.5672 16.3962 28.5671L15.4364 27.8873L15.4362 27.8872C15.376 27.8434 15.3342 27.7634 15.3235 27.6599C15.3128 27.5567 15.3331 27.4315 15.3945 27.2949C15.4267 27.2198 15.501 27.134 15.5794 27.077C15.6189 27.0483 15.6605 27.0262 15.6996 27.0166C15.7383 27.007 15.7766 27.0093 15.8077 27.0326C15.8309 27.0473 15.8505 27.0502 15.8675 27.046C15.8848 27.0418 15.9012 27.0298 15.9174 27.0108C15.9505 26.9721 15.9791 26.9091 16.0095 26.8415C16.0096 26.8414 16.0096 26.8414 16.0096 26.8414Z" fill="black"/>
<path fill-rule="evenodd" clip-rule="evenodd" d="M20.5599 22.7067H19.5799C19.5499 22.7467 19.2699 25.08 18.9699 25.9734C18.6049 27.06 17.5099 28.02 17.5099 28.02C17.5099 28.02 18.1649 28.2867 18.3599 28.46C18.4099 28.44 19.4599 28.1467 19.5799 26.44C19.6999 28.1467 18.8499 28.9267 18.8499 28.9267C18.8499 28.9267 20.0699 29.3934 20.0699 30.4801C20.0699 29.3934 21.2899 28.9267 21.2899 28.9267C21.2899 28.9267 20.6799 28.1467 20.5549 26.44C20.8049 28.1467 21.7299 28.44 21.7799 28.46C21.9749 28.2867 22.6299 28.02 22.6299 28.02C22.6299 28.02 21.5349 27.06 21.1699 25.9734C20.8699 25.08 20.5899 22.7467 20.5599 22.7067V22.7067ZM16.4099 14.9267L18.2399 15.7067C18.8449 15.7067 19.4599 14.9267 19.4599 14.1467C19.4799 12.4134 18.9699 11.8134 18.8499 11.8134L19.0899 11.5067L18.7249 11.04C18.7249 11.04 18.8499 10.2334 20.0699 10.26C21.2899 10.2934 21.2899 11.04 21.2899 11.8134C21.2899 12.5867 20.6799 12.5934 20.6799 14.1467C20.6799 14.9267 21.2899 15.7067 21.8999 15.7067L23.7299 14.9267V22.7067H16.4049V14.9267H16.4099Z" fill="#A77B3B"/>
<path fill-rule="evenodd" clip-rule="evenodd" d="M18.7728 11.0231L19.1511 11.5068L18.9288 11.7908C18.9301 11.7917 18.9314 11.7927 18.9326 11.7937C18.9616 11.8162 18.994 11.8495 19.028 11.8936C19.0962 11.9819 19.1733 12.1163 19.2451 12.3044C19.3887 12.6807 19.5122 13.2733 19.5022 14.1472C19.5021 14.5565 19.3412 14.9602 19.1059 15.2602C18.8705 15.5604 18.5554 15.7634 18.2397 15.7634H18.2331L16.4472 15.0022V22.6501H23.6872V15.0043L21.9063 15.7634H21.8997C21.5815 15.7634 21.2664 15.5605 21.0315 15.2601C20.7967 14.9599 20.6372 14.556 20.6372 14.1467C20.6372 13.3574 20.7929 12.9562 20.9498 12.6552C20.9775 12.6021 21.0046 12.5529 21.0306 12.5058C21.1521 12.2857 21.2472 12.1133 21.2472 11.8134C21.2472 11.4218 21.2457 11.062 21.1025 10.792C20.9618 10.5267 20.6743 10.3333 20.0689 10.3167C19.466 10.3036 19.1404 10.4963 18.9664 10.6841C18.8792 10.7782 18.8289 10.8723 18.8006 10.9416C18.7867 10.9756 18.778 11.0038 18.7728 11.0231ZM20.5287 22.7634H19.6106C19.6074 22.7811 19.6034 22.8046 19.5987 22.8338C19.5877 22.9026 19.5732 23.0001 19.5556 23.1193C19.5522 23.1427 19.5486 23.1669 19.5449 23.1918C19.5111 23.4213 19.4678 23.7157 19.4175 24.0318C19.3064 24.7306 19.1606 25.5434 19.0085 25.9966C18.8221 26.5513 18.4515 27.0695 18.1309 27.4467C17.9701 27.636 17.8209 27.7909 17.7118 27.8986C17.67 27.9399 17.6341 27.9742 17.6057 28.0009C17.6128 28.0039 17.6203 28.0071 17.6281 28.0105C17.6928 28.0383 17.7812 28.0772 17.8757 28.1216C17.9701 28.166 18.0711 28.2159 18.161 28.2659C18.2412 28.3105 18.3148 28.3563 18.3669 28.399C18.4379 28.3741 18.6741 28.2857 18.9176 28.0375C19.1929 27.757 19.4786 27.2709 19.5374 26.4348H19.622C19.683 27.3024 19.4973 27.9366 19.2954 28.3541C19.1946 28.5626 19.0898 28.7167 19.0101 28.819C18.983 28.8538 18.9587 28.8826 18.9385 28.9056C18.97 28.9201 19.01 28.9395 19.056 28.964C19.1719 29.0255 19.3269 29.1192 19.4821 29.2478C19.7229 29.4471 19.9723 29.737 20.0697 30.1284C20.167 29.737 20.4165 29.4471 20.6573 29.2478C20.8125 29.1192 20.9674 29.0255 21.0833 28.964C21.1355 28.9363 21.1799 28.9151 21.213 28.9C21.1979 28.8771 21.1797 28.8482 21.1591 28.8133C21.0986 28.7113 21.0171 28.5578 20.9318 28.3507C20.7612 27.9362 20.5755 27.3072 20.5124 26.4456L20.5964 26.4292C20.7194 27.269 21.0076 27.7574 21.2689 28.0385C21.4976 28.2846 21.7073 28.3736 21.7729 28.3987C21.825 28.356 21.8983 28.3104 21.9784 28.2659C22.0683 28.2159 22.1692 28.166 22.2637 28.1216C22.3582 28.0772 22.4466 28.0383 22.5113 28.0105C22.5191 28.0071 22.5266 28.0039 22.5337 28.0009C22.5053 27.9742 22.4694 27.9399 22.4276 27.8986C22.3185 27.7909 22.1692 27.636 22.0084 27.4467C21.6879 27.0695 21.3172 26.5513 21.1309 25.9966C20.9787 25.5434 20.8329 24.7306 20.7219 24.0318C20.6716 23.7157 20.6282 23.4213 20.5944 23.1918C20.5908 23.1668 20.5872 23.1427 20.5838 23.1193C20.5662 23.0001 20.5517 22.9026 20.5406 22.8338C20.536 22.8046 20.532 22.7811 20.5287 22.7634ZM21.3191 28.8859L21.3724 28.954L21.3013 28.9813L21.3007 28.9815L21.2983 28.9824C21.2961 28.9833 21.2929 28.9846 21.2885 28.9864C21.2799 28.9899 21.2671 28.9954 21.2507 29.0027C21.218 29.0172 21.1711 29.0394 21.1148 29.0693C21.0019 29.1292 20.8519 29.2201 20.7021 29.344C20.4001 29.5941 20.1122 29.9677 20.1122 30.4801H20.0272C20.0272 29.9677 19.7393 29.5941 19.4373 29.344C19.2875 29.2201 19.1374 29.1292 19.0246 29.0693C18.9682 29.0394 18.9213 29.0172 18.8886 29.0027C18.8723 28.9954 18.8595 28.9899 18.8508 28.9864C18.8465 28.9846 18.8432 28.9833 18.8411 28.9824L18.8386 28.9815L18.8381 28.9813L18.838 28.9812L18.7514 28.9481L18.8256 28.8801L18.8256 28.8801L18.8259 28.8798L18.8274 28.8783C18.8288 28.877 18.831 28.8749 18.8339 28.8721C18.8397 28.8663 18.8483 28.8576 18.8593 28.8457C18.8815 28.822 18.9132 28.786 18.9512 28.7374C19.027 28.6401 19.1273 28.4926 19.224 28.2927C19.3712 27.9882 19.5105 27.5615 19.5421 27.0039C19.4199 27.5464 19.1925 27.9 18.9692 28.1276C18.7004 28.4016 18.4385 28.4914 18.3817 28.5109C18.377 28.5125 18.3737 28.5136 18.3719 28.5143L18.3527 28.522L18.3361 28.5072C18.291 28.4671 18.2168 28.4197 18.1283 28.3705C18.0404 28.3217 17.9411 28.2725 17.8474 28.2285C17.7538 28.1846 17.6662 28.146 17.602 28.1184C17.5699 28.1046 17.5437 28.0935 17.5255 28.086C17.5164 28.0822 17.5093 28.0792 17.5045 28.0773L17.4991 28.075L17.4977 28.0744L17.4974 28.0743L17.4973 28.0743L17.4107 28.039L17.4863 27.9727L17.4865 27.9726L17.487 27.9721L17.4893 27.9701C17.4913 27.9683 17.4943 27.9656 17.4983 27.9621C17.5063 27.9549 17.518 27.9442 17.5332 27.9301C17.5635 27.9021 17.6074 27.8607 17.6612 27.8076C17.7688 27.7013 17.9161 27.5484 18.0747 27.3618C18.3929 26.9873 18.7522 26.4822 18.9309 25.9502C19.0787 25.5101 19.2229 24.7095 19.3344 24.0083C19.3845 23.6931 19.4277 23.3994 19.4615 23.1699C19.4652 23.145 19.4688 23.1208 19.4722 23.0975C19.4898 22.9784 19.5044 22.88 19.5156 22.8101C19.5184 22.7929 19.5209 22.7773 19.5233 22.7634H16.3622V14.8701H16.4163L18.2462 15.65C18.5334 15.6472 18.8256 15.4609 19.0472 15.1783C19.2706 14.8934 19.4172 14.5173 19.4172 14.1467V14.1459C19.4271 13.2866 19.3056 12.7127 19.1693 12.3558C19.1011 12.1771 19.0294 12.0533 18.9688 11.9749C18.9385 11.9357 18.9115 11.9085 18.8897 11.8915C18.8667 11.8735 18.8535 11.8701 18.8497 11.8701H18.7439L19.0283 11.5067L18.6783 11.0593L18.6831 11.0286L18.7247 11.0401C18.6831 11.0286 18.6831 11.0286 18.6831 11.0285L18.6831 11.0284L18.6832 11.028L18.6833 11.0272C18.6834 11.0265 18.6836 11.0256 18.6837 11.0246C18.6841 11.0225 18.6847 11.0196 18.6854 11.016C18.6869 11.0089 18.6891 10.999 18.6923 10.9867C18.6988 10.962 18.7094 10.9278 18.726 10.8873C18.7592 10.8062 18.8164 10.7002 18.9129 10.596C19.1065 10.3871 19.4534 10.1899 20.0704 10.2034L20.0706 10.2034C20.6851 10.2202 21.0076 10.4168 21.1719 10.7265C21.3322 11.0288 21.3322 11.4245 21.3322 11.8031V11.8134C21.3322 12.1534 21.2184 12.3585 21.0952 12.5807C21.0701 12.626 21.0446 12.6719 21.0196 12.7199C20.8715 13.0039 20.7222 13.3828 20.7222 14.1467C20.7222 14.5175 20.8676 14.8935 21.0903 15.1783C21.3113 15.4609 21.6035 15.6473 21.8931 15.65L23.7722 14.8491V22.7634H20.6161C20.6184 22.7773 20.621 22.7929 20.6238 22.8101C20.635 22.88 20.6496 22.9784 20.6672 23.0975C20.6706 23.1208 20.6742 23.145 20.6779 23.17C20.7117 23.3995 20.7549 23.6931 20.805 24.0083C20.9164 24.7095 21.0606 25.5101 21.2085 25.9502C21.3871 26.4822 21.7465 26.9873 22.0647 27.3618C22.2233 27.5484 22.3706 27.7013 22.4782 27.8076C22.532 27.8607 22.5758 27.9021 22.6062 27.9301C22.6213 27.9442 22.6331 27.9549 22.6411 27.9621C22.6451 27.9656 22.6481 27.9683 22.6501 27.9701L22.6523 27.9721L22.6529 27.9726L22.653 27.9727L22.7287 28.039L22.6421 28.0743L22.642 28.0743L22.6417 28.0744L22.6403 28.075L22.6348 28.0773C22.63 28.0792 22.6229 28.0822 22.6138 28.086C22.5957 28.0935 22.5694 28.1046 22.5373 28.1184C22.4731 28.146 22.3855 28.1846 22.2919 28.2285C22.1983 28.2725 22.0989 28.3217 22.0111 28.3705C21.9226 28.4197 21.8483 28.4671 21.8033 28.5072L21.7866 28.522L21.7675 28.5143C21.766 28.5138 21.7637 28.5129 21.7607 28.5118C21.7125 28.494 21.4751 28.406 21.2155 28.1267C21.0348 27.9322 20.8443 27.6461 20.6985 27.2288C20.7826 27.6789 20.8979 28.0329 21.0063 28.2961C21.0891 28.4973 21.168 28.6455 21.2258 28.7431C21.2547 28.7918 21.2783 28.8279 21.2946 28.8516C21.3027 28.8635 21.309 28.8722 21.3132 28.8779C21.3153 28.8808 21.3168 28.8829 21.3178 28.8842L21.3189 28.8856L21.3191 28.8859ZM18.7663 11.0518C18.7663 11.0519 18.7663 11.0519 18.7663 11.0518Z" fill="black"/>
<path fill-rule="evenodd" clip-rule="evenodd" d="M19.4584 15.224L19.5811 15.6957L19.8255 15.2278L19.9436 15.716L20.068 15.2259L20.2487 15.7203L20.4351 15.2262L20.5562 15.6917L20.6755 15.2366L20.682 15.2397L20.5562 15.72L20.4339 15.2501L20.2486 15.7413L20.0691 15.2504L19.9434 15.7457L19.8231 15.2485L19.579 15.716L19.4583 15.2523L19.3358 15.72L19.2108 15.2397L19.2174 15.2366L19.3358 15.6917L19.4584 15.224Z" fill="black"/>
<path fill-rule="evenodd" clip-rule="evenodd" d="M19.4558 15.2407L19.7004 13.5288L19.707 13.5305L19.4624 15.2424L19.4558 15.2407ZM20.4308 15.242L20.3102 13.5301L20.3169 13.5292L20.4375 15.2411L20.4308 15.242ZM20.6754 15.242L20.5548 13.5301L20.5615 13.5292L20.6821 15.2411L20.6754 15.242ZM19.8209 15.2416V13.5296H19.8277V15.2416H19.8209ZM20.0656 15.2416V13.5296H20.0723V15.2416H20.0656Z" fill="black"/>
<path fill-rule="evenodd" clip-rule="evenodd" d="M15.1829 10.2638C13.9633 11.0407 13.9633 12.599 13.9633 13.376C14.0046 14.0827 13.9633 28.9281 13.9633 28.9281C13.9633 28.9281 14.0425 28.0502 14.5731 27.3742L15.1794 26.5972L15.7892 25.8203C16.2371 25.3023 16.399 24.262 16.399 23.4851V12.599C16.399 12.599 16.399 11.8177 15.1794 10.2638H15.1829Z" fill="#A77B3B"/>
<path fill-rule="evenodd" clip-rule="evenodd" d="M15.1897 10.2491L15.1826 10.2076H15.0742L15.1078 10.2504C13.9209 11.0543 13.9209 12.6085 13.9209 13.3727V13.3781L13.9211 13.3803C13.9312 13.5542 13.9364 14.6111 13.9384 16.1042C13.9403 17.5952 13.939 19.5171 13.9364 21.4169C13.9339 23.3167 13.93 25.1945 13.9267 26.5973C13.9251 27.2987 13.9237 27.8813 13.9226 28.2886C13.9221 28.4923 13.9217 28.6521 13.9214 28.761L13.9209 28.9277C13.9209 28.9278 13.9209 28.9279 13.963 28.9281L13.9209 28.9279L14.0045 28.9348C14.0048 28.9348 14.0048 28.9348 14.0048 28.9348L14.0049 28.9344L14.005 28.9329C14.0052 28.9314 14.0054 28.9291 14.0057 28.926C14.0064 28.9199 14.0074 28.9106 14.009 28.8984C14.0121 28.874 14.0171 28.838 14.0248 28.7927C14.0401 28.7019 14.0661 28.5736 14.1084 28.4245C14.193 28.1259 14.3424 27.7454 14.6019 27.4148L14.602 27.4146L15.2083 26.6378L15.2084 26.6377L15.8174 25.8618C16.0491 25.5933 16.2045 25.193 16.3021 24.7661C16.4 24.3381 16.4409 23.8782 16.4409 23.485V12.599H16.3988C16.4409 12.599 16.4409 12.5989 16.4409 12.5989L16.4409 12.5987L16.4409 12.5984L16.4409 12.5975C16.4409 12.5968 16.4409 12.596 16.4409 12.5949C16.4408 12.5928 16.4407 12.5899 16.4405 12.5862C16.4402 12.5789 16.4395 12.5685 16.4382 12.5552C16.4356 12.5284 16.4305 12.4895 16.4205 12.4385C16.4006 12.3365 16.3613 12.1863 16.2837 11.9881C16.1286 11.5918 15.8205 11.0033 15.2083 10.2232L15.1897 10.2491ZM15.1724 10.3328C14.0079 11.0986 14.0051 12.6005 14.0051 13.3738C14.0155 13.5597 14.0206 14.6209 14.0226 16.104C14.0245 17.5953 14.0232 19.5173 14.0206 21.4171C14.018 23.317 14.0142 25.1948 14.0109 26.5976C14.0093 27.299 14.0079 27.8817 14.0068 28.289C14.0067 28.3541 14.0065 28.4147 14.0064 28.4707C14.0135 28.4429 14.0212 28.4142 14.0296 28.3848C14.1172 28.0754 14.2727 27.679 14.5437 27.3337C14.5437 27.3336 14.5437 27.3336 14.5438 27.3336" fill="black"/>
<path fill-rule="evenodd" clip-rule="evenodd" d="M15.7927 12.521L15.1825 13.2984L14.5727 12.5214L13.9338 13.3354L13.992 13.4166L14.5727 12.6767L15.1825 13.4536L15.792 12.6771C15.8081 12.6981 15.8302 12.7267 15.8563 12.7607C15.9124 12.8335 15.9874 12.9307 16.0628 13.0279C16.1382 13.125 16.2142 13.2223 16.2721 13.2954C16.3011 13.3319 16.3258 13.3626 16.3438 13.3843C16.3527 13.395 16.3603 13.404 16.3661 13.4104C16.3689 13.4135 16.3719 13.4167 16.3746 13.4193C16.3759 13.4206 16.3779 13.4225 16.3804 13.4243C16.3816 13.4252 16.3836 13.4267 16.3862 13.4281C16.3881 13.429 16.3941 13.4321 16.4022 13.4321V13.3199C16.41 13.3199 16.4158 13.3229 16.4172 13.3237C16.4195 13.3249 16.4211 13.3261 16.4218 13.3266C16.4232 13.3277 16.424 13.3285 16.4238 13.3282C16.4235 13.3279 16.4223 13.3267 16.42 13.3242C16.4155 13.3192 16.4089 13.3115 16.4002 13.301C16.383 13.2802 16.3588 13.2502 16.33 13.2138C16.2723 13.1412 16.1967 13.0443 16.1213 12.9472C16.046 12.8501 15.9711 12.7531 15.9151 12.6802C15.887 12.6438 15.8637 12.6135 15.8474 12.5923L15.8218 12.559C15.8218 12.559 15.8218 12.5589 15.7923 12.5991L15.8218 12.559L15.7927 12.521Z" fill="black"/>
<path fill-rule="evenodd" clip-rule="evenodd" d="M15.7927 15.0057L15.1825 14.2284L14.5727 15.0053L13.9338 14.1913L13.992 14.1101L14.5727 14.85L15.1825 14.0731L15.792 14.8496C15.8081 14.8287 15.8302 14.8 15.8563 14.7661C15.9124 14.6932 15.9874 14.596 16.0628 14.4988C16.1382 14.4017 16.2142 14.3044 16.2721 14.2313C16.3011 14.1948 16.3258 14.1641 16.3438 14.1425C16.3527 14.1317 16.3603 14.1228 16.3661 14.1163C16.3689 14.1132 16.3719 14.11 16.3746 14.1074C16.3759 14.1062 16.3779 14.1043 16.3804 14.1024C16.3816 14.1015 16.3836 14.1001 16.3862 14.0987C16.3881 14.0977 16.3941 14.0946 16.4022 14.0946V14.2069C16.41 14.2069 16.4158 14.2038 16.4172 14.2031C16.4195 14.2019 16.4211 14.2007 16.4218 14.2001C16.4232 14.1991 16.424 14.1983 16.4238 14.1985C16.4235 14.1988 16.4223 14.2 16.42 14.2026C16.4155 14.2075 16.4089 14.2153 16.4002 14.2257C16.383 14.2466 16.3588 14.2766 16.33 14.3129C16.2723 14.3855 16.1967 14.4825 16.1213 14.5796C16.046 14.6766 15.9711 14.7737 15.9151 14.8465C15.887 14.8829 15.8637 14.9132 15.8474 14.9345L15.8218 14.9678C15.8218 14.9678 15.8218 14.9678 15.7923 14.9277L15.8218 14.9678L15.7927 15.0057Z" fill="black"/>
<path fill-rule="evenodd" clip-rule="evenodd" d="M15.7927 15.6276L15.1825 16.4049L14.5727 15.628L13.9338 16.442L13.992 16.5232L14.5727 15.7833L15.1825 16.5602L15.792 15.7837C15.8081 15.8046 15.8302 15.8333 15.8563 15.8672C15.9124 15.9401 15.9874 16.0373 16.0628 16.1345C16.1382 16.2316 16.2142 16.3289 16.2721 16.402C16.3011 16.4385 16.3258 16.4692 16.3438 16.4908C16.3527 16.5016 16.3603 16.5105 16.3661 16.517C16.3689 16.5201 16.3719 16.5233 16.3746 16.5259C16.3759 16.5271 16.3779 16.529 16.3804 16.5309C16.3816 16.5318 16.3836 16.5332 16.3862 16.5346C16.3881 16.5356 16.3941 16.5387 16.4022 16.5387V16.4264C16.41 16.4264 16.4158 16.4295 16.4172 16.4302C16.4195 16.4314 16.4211 16.4326 16.4218 16.4332C16.4232 16.4342 16.424 16.435 16.4238 16.4348C16.4235 16.4345 16.4223 16.4333 16.42 16.4307C16.4155 16.4258 16.4089 16.418 16.4002 16.4076C16.383 16.3867 16.3588 16.3567 16.33 16.3204C16.2723 16.2478 16.1967 16.1508 16.1213 16.0537C16.046 15.9567 15.9711 15.8596 15.9151 15.7868C15.887 15.7504 15.8637 15.7201 15.8474 15.6988L15.8218 15.6655C15.8218 15.6655 15.8218 15.6655 15.7923 15.7056L15.8218 15.6655L15.7927 15.6276Z" fill="black"/>
<path fill-rule="evenodd" clip-rule="evenodd" d="M15.8506 25.8208L15.8437 12.5969L15.7277 12.597L15.7346 25.8209L15.8506 25.8208Z" fill="black"/>
<path fill-rule="evenodd" clip-rule="evenodd" d="M15.2473 26.566L15.2404 13.3743L15.1306 13.3744L15.1374 26.5661L15.2473 26.566Z" fill="black"/>
<path fill-rule="evenodd" clip-rule="evenodd" d="M14.6409 27.3782L14.634 12.6005L14.5177 12.6006L14.5246 27.3783L14.6409 27.3782Z" fill="black"/>
<path fill-rule="evenodd" clip-rule="evenodd" d="M24.9518 10.2638C26.1714 11.0407 26.1714 12.599 26.1714 13.376C26.13 14.0827 26.1714 28.9281 26.1714 28.9281C26.1714 28.9281 26.0921 28.0502 25.5616 27.3742L24.9552 26.5972L24.3454 25.8203C23.8975 25.3023 23.7356 24.262 23.7356 23.4851V12.599C23.7356 12.599 23.7356 11.8177 24.9552 10.2638H24.9518Z" fill="#A77B3B"/>
<path fill-rule="evenodd" clip-rule="evenodd" d="M24.9446 10.2491L24.9516 10.2076H25.0601L25.0265 10.2504C26.2134 11.0543 26.2133 12.6085 26.2133 13.3727V13.3781L26.2132 13.3803C26.203 13.5542 26.1978 14.6111 26.1959 16.1042C26.194 17.5952 26.1953 19.5171 26.1978 21.4169C26.2004 23.3167 26.2043 25.1945 26.2075 26.5973C26.2091 27.2987 26.2106 27.8813 26.2117 28.2886C26.2122 28.4923 26.2126 28.6521 26.2129 28.761L26.2133 28.9277C26.2133 28.9278 26.2133 28.9279 26.1712 28.9281L26.2133 28.9279L26.1297 28.9348C26.1295 28.9348 26.1295 28.9348 26.1295 28.9348L26.1294 28.9344L26.1293 28.9329C26.1291 28.9314 26.1289 28.9291 26.1286 28.926C26.1279 28.9199 26.1268 28.9106 26.1253 28.8984C26.1222 28.874 26.1172 28.838 26.1095 28.7927C26.0942 28.7019 26.0682 28.5736 26.0259 28.4245C25.9413 28.1259 25.7918 27.7454 25.5324 27.4148L25.5323 27.4146L24.926 26.6378L24.9259 26.6377L24.3169 25.8618C24.0851 25.5933 23.9297 25.193 23.8321 24.7661C23.7343 24.3381 23.6934 23.8782 23.6934 23.485V12.599H23.7355C23.6934 12.599 23.6934 12.5989 23.6934 12.5989L23.6934 12.5987L23.6934 12.5984L23.6934 12.5975C23.6934 12.5968 23.6934 12.596 23.6934 12.5949C23.6935 12.5928 23.6936 12.5899 23.6937 12.5862C23.6941 12.5789 23.6948 12.5685 23.6961 12.5552C23.6987 12.5284 23.7038 12.4895 23.7138 12.4385C23.7337 12.3365 23.773 12.1863 23.8506 11.9881C24.0057 11.5918 24.3137 11.0033 24.926 10.2232L24.9446 10.2491ZM24.9619 10.3328C26.1264 11.0986 26.1291 12.6005 26.1292 13.3738C26.1187 13.5597 26.1136 14.6209 26.1117 16.104C26.1098 17.5953 26.1111 19.5173 26.1136 21.4171C26.1162 23.317 26.1201 25.1948 26.1233 26.5976C26.125 27.299 26.1264 27.8817 26.1275 28.289C26.1276 28.3541 26.1278 28.4147 26.1279 28.4707C26.1208 28.4429 26.113 28.4142 26.1047 28.3848C26.017 28.0754 25.8616 27.679 25.5906 27.3337C25.5906 27.3336 25.5905 27.3336 25.5905 27.3336" fill="black"/>
<path fill-rule="evenodd" clip-rule="evenodd" d="M24.3415 12.5209L24.9516 13.2982L25.5614 12.5213L26.2003 13.3353L26.1422 13.4165L25.5614 12.6766L24.9516 13.4535L24.3421 12.677C24.326 12.6979 24.304 12.7266 24.2778 12.7605C24.2217 12.8334 24.1467 12.9306 24.0713 13.0278C23.9959 13.1249 23.92 13.2222 23.862 13.2953C23.833 13.3318 23.8084 13.3625 23.7904 13.3841C23.7815 13.3949 23.7739 13.4038 23.7681 13.4103C23.7653 13.4134 23.7623 13.4166 23.7596 13.4192C23.7583 13.4205 23.7562 13.4224 23.7538 13.4242C23.7526 13.4251 23.7506 13.4265 23.7479 13.4279C23.7461 13.4289 23.7401 13.432 23.732 13.432V13.3198C23.7241 13.3198 23.7184 13.3228 23.7169 13.3236C23.7147 13.3248 23.713 13.3259 23.7123 13.3265C23.7109 13.3275 23.7101 13.3283 23.7104 13.3281C23.7107 13.3278 23.7119 13.3266 23.7142 13.324C23.7186 13.3191 23.7252 13.3114 23.7339 13.3009C23.7512 13.28 23.7753 13.25 23.8042 13.2137C23.8618 13.1411 23.9375 13.0441 24.0128 12.9471C24.0881 12.85 24.163 12.7529 24.2191 12.6801C24.2471 12.6437 24.2705 12.6134 24.2868 12.5922L24.3124 12.5588C24.3124 12.5588 24.3124 12.5588 24.3418 12.5989L24.3124 12.5588L24.3415 12.5209Z" fill="black"/>
<path fill-rule="evenodd" clip-rule="evenodd" d="M24.3415 15.0057L24.9516 14.2284L25.5614 15.0053L26.2003 14.1913L26.1422 14.1101L25.5614 14.85L24.9516 14.0731L24.3421 14.8496C24.326 14.8287 24.304 14.8 24.2778 14.7661C24.2217 14.6932 24.1467 14.596 24.0713 14.4988C23.9959 14.4017 23.92 14.3044 23.862 14.2313C23.833 14.1948 23.8084 14.1641 23.7904 14.1425C23.7815 14.1317 23.7739 14.1228 23.7681 14.1163C23.7653 14.1132 23.7623 14.11 23.7596 14.1074C23.7583 14.1062 23.7562 14.1043 23.7538 14.1024C23.7526 14.1015 23.7506 14.1001 23.7479 14.0987C23.7461 14.0977 23.7401 14.0946 23.732 14.0946V14.2069C23.7241 14.2069 23.7184 14.2038 23.7169 14.2031C23.7147 14.2019 23.713 14.2007 23.7123 14.2001C23.7109 14.1991 23.7101 14.1983 23.7104 14.1985C23.7107 14.1988 23.7119 14.2 23.7142 14.2026C23.7186 14.2075 23.7252 14.2153 23.7339 14.2257C23.7512 14.2466 23.7753 14.2766 23.8042 14.3129C23.8618 14.3855 23.9375 14.4825 24.0128 14.5796C24.0881 14.6766 24.163 14.7737 24.2191 14.8465C24.2471 14.8829 24.2705 14.9132 24.2868 14.9345L24.3124 14.9678C24.3124 14.9678 24.3124 14.9678 24.3418 14.9277L24.3124 14.9678L24.3415 15.0057Z" fill="black"/>
<path fill-rule="evenodd" clip-rule="evenodd" d="M24.3415 15.6276L24.9516 16.4049L25.5614 15.628L26.2003 16.442L26.1422 16.5232L25.5614 15.7833L24.9516 16.5602L24.3421 15.7837C24.326 15.8046 24.304 15.8333 24.2778 15.8672C24.2217 15.9401 24.1467 16.0373 24.0713 16.1345C23.9959 16.2316 23.92 16.3289 23.862 16.402C23.833 16.4385 23.8084 16.4692 23.7904 16.4908C23.7815 16.5016 23.7739 16.5105 23.7681 16.517C23.7653 16.5201 23.7623 16.5233 23.7596 16.5259C23.7583 16.5271 23.7562 16.529 23.7538 16.5309C23.7526 16.5318 23.7506 16.5332 23.7479 16.5346C23.7461 16.5356 23.7401 16.5387 23.732 16.5387V16.4264C23.7241 16.4264 23.7184 16.4295 23.7169 16.4302C23.7147 16.4314 23.713 16.4326 23.7123 16.4332C23.7109 16.4342 23.7101 16.435 23.7104 16.4348C23.7107 16.4345 23.7119 16.4333 23.7142 16.4307C23.7186 16.4258 23.7252 16.418 23.7339 16.4076C23.7512 16.3867 23.7753 16.3567 23.8042 16.3204C23.8618 16.2478 23.9375 16.1508 24.0128 16.0537C24.0881 15.9567 24.163 15.8596 24.2191 15.7868C24.2471 15.7504 24.2705 15.7201 24.2868 15.6988L24.3124 15.6655C24.3124 15.6655 24.3124 15.6655 24.3418 15.7056L24.3124 15.6655L24.3415 15.6276Z" fill="black"/>
<path fill-rule="evenodd" clip-rule="evenodd" d="M24.2836 25.8208L24.2905 12.5969L24.4064 12.597L24.3995 25.8209L24.2836 25.8208Z" fill="black"/>
<path fill-rule="evenodd" clip-rule="evenodd" d="M24.8918 26.5659L24.8987 13.3741L25.0086 13.3742L25.0017 26.566L24.8918 26.5659Z" fill="black"/>
<path fill-rule="evenodd" clip-rule="evenodd" d="M25.4987 27.3781L25.5055 12.6003L25.6218 12.6004L25.6149 27.3782L25.4987 27.3781Z" fill="black"/>
<path fill-rule="evenodd" clip-rule="evenodd" d="M18.4636 24.1914C18.1402 25.1801 17.5712 25.8243 17.1992 25.6268C16.8271 25.4293 16.7855 24.4609 17.1088 23.4722C17.4321 22.4836 18.0043 21.841 18.3764 22.0385C18.7485 22.236 18.7914 23.2004 18.4667 24.1931L18.4636 24.1914Z" fill="#A77B3B"/>
<path fill-rule="evenodd" clip-rule="evenodd" d="M17.7517 22.3521C17.5277 22.6049 17.3074 23.005 17.1479 23.493C16.9882 23.981 16.9196 24.4616 16.9357 24.8418C16.9519 25.226 17.0529 25.4888 17.2159 25.5753C17.379 25.6618 17.5965 25.5682 17.8221 25.3124C18.0453 25.0592 18.2648 24.6586 18.4244 24.1706L18.4412 24.1191L18.4441 24.1207C18.5926 23.6485 18.6559 23.1882 18.6403 22.8219C18.6239 22.4384 18.5226 22.1765 18.3595 22.09C18.1964 22.0034 17.978 22.0967 17.7517 22.3521ZM18.4855 24.2635L18.489 24.2653L18.5058 24.2138C18.6702 23.7112 18.7424 23.2133 18.7253 22.8132C18.7084 22.417 18.6022 22.098 18.3932 21.987C18.1842 21.8761 17.9304 22.0053 17.6968 22.2689C17.4608 22.5352 17.2334 22.9507 17.0696 23.4514C16.9059 23.952 16.8337 24.4499 16.8506 24.8505C16.8674 25.247 16.9732 25.5672 17.1823 25.6782C17.3914 25.7892 17.6443 25.6595 17.8771 25.3954C18.1042 25.1378 18.3233 24.7412 18.4855 24.2635Z" fill="black"/>
<path fill-rule="evenodd" clip-rule="evenodd" d="M16.4049 15.7067H23.7299V20.3733H16.4049V15.7067Z" fill="#FF0000"/>
<path fill-rule="evenodd" clip-rule="evenodd" d="M16.4049 20.3734H23.7299V22.7067C23.7299 24.2601 21.8999 24.2601 20.0699 25.8134C18.2349 24.2667 16.3999 24.2667 16.3999 22.7067V20.3734H16.4049Z" fill="#564DFF"/>
<path fill-rule="evenodd" clip-rule="evenodd" d="M16.373 15.662H23.765V22.7126C23.765 23.1152 23.6458 23.4182 23.4395 23.6685C23.2348 23.9169 22.9443 24.1136 22.6007 24.3084C22.4377 24.4007 22.2625 24.4928 22.0778 24.5899C21.4806 24.9038 20.7847 25.2696 20.0871 25.8626L20.069 25.878L20.0509 25.8626C19.3548 25.2697 18.6594 24.904 18.0621 24.5898C17.8773 24.4926 17.7018 24.4003 17.5387 24.3078C17.1949 24.1128 16.904 23.9156 16.699 23.6666C16.4925 23.4157 16.373 23.1119 16.373 22.7082V15.662ZM16.4404 15.7518V22.7082C16.4404 23.0836 16.5501 23.3642 16.7444 23.6002C16.9403 23.8382 17.2219 24.0306 17.565 24.2252C17.7256 24.3162 17.8993 24.4076 18.083 24.5042C18.6759 24.816 19.3729 25.1825 20.069 25.7715C20.7667 25.1823 21.4641 24.8158 22.0569 24.5042C22.2404 24.4078 22.4139 24.3166 22.5743 24.2257C22.9172 24.0314 23.1986 23.8394 23.3942 23.6021C23.5882 23.3666 23.6976 23.0869 23.6976 22.7126V15.7518H16.4404Z" fill="#FFFF00"/>
<path fill-rule="evenodd" clip-rule="evenodd" d="M18.7242 16.0175C18.7242 16.0175 17.5039 17.1614 17.5039 18.2558C17.5039 19.3503 18.7845 19.7172 18.7845 19.7172C18.7845 19.7172 18.3576 19.7172 18.3576 21.1765C18.3576 21.9082 19.6383 21.5434 19.6383 21.9082C19.6383 22.273 19.6214 23.1552 19.6383 23.7343C19.6383 24.0992 18.7845 23.7343 18.7845 24.0992C18.7845 24.2805 19.426 25.1936 20.0675 25.1936C20.7091 25.1936 21.3482 24.2805 21.3482 24.0992C21.3482 23.7343 20.4944 24.0992 20.4944 23.7343V21.9082C20.4944 21.5434 21.775 21.9082 21.775 21.1765C21.775 19.7172 21.3482 19.7172 21.3482 19.7172C21.3482 19.7172 22.6312 19.3524 22.6312 18.2558C22.6312 17.1593 21.4084 16.0175 21.4084 16.0175C21.4084 16.0175 22.0958 17.5262 22.0958 18.2558C22.0958 18.6207 21.775 19.3524 20.9213 19.3524C20.9213 19.3524 20.7042 18.9855 20.4944 19.3524C20.4944 19.3524 20.2484 18.9855 20.0675 19.3524C20.0048 19.476 19.8939 18.9855 19.6383 19.3524C19.5321 19.4492 19.4453 18.9855 19.2114 19.3524C18.7845 19.3524 17.9308 18.9855 17.9308 18.2558C17.9308 17.5262 18.7242 16.0175 18.7242 16.0175V16.0175Z" fill="#FFFF00"/>
<path fill-rule="evenodd" clip-rule="evenodd" d="M21.3879 16.0342L21.4224 15.9911L21.4085 16.0174L21.3879 16.0342ZM21.4397 19.7198C21.4716 19.7082 21.511 19.6929 21.5561 19.6737C21.6773 19.622 21.8391 19.5414 22.0011 19.4261C22.3236 19.1966 22.6554 18.8231 22.6554 18.2558C22.6554 17.9739 22.5769 17.6912 22.461 17.4272C22.3451 17.163 22.1909 16.9155 22.0373 16.7031C21.8836 16.4907 21.73 16.3128 21.6148 16.188C21.5572 16.1256 21.5092 16.0765 21.4755 16.0429C21.4587 16.0261 21.4455 16.0132 21.4364 16.0045C21.4319 16.0001 21.4284 15.9968 21.426 15.9945L21.4233 15.992L21.4226 15.9913L21.4225 15.9912L21.4224 15.9911C21.4224 15.9911 21.4224 15.9911 21.4085 16.0174C21.3879 16.0342 21.3879 16.0341 21.3879 16.0342L21.3879 16.0342L21.3884 16.0352L21.3898 16.0384C21.3911 16.0413 21.393 16.0455 21.3955 16.0511C21.4005 16.0622 21.4079 16.0787 21.4173 16.1C21.436 16.1425 21.4628 16.2041 21.4949 16.2804C21.5592 16.4328 21.6449 16.6437 21.7305 16.8772C21.8162 17.1107 21.9017 17.3665 21.9657 17.609C22.0299 17.8521 22.0717 18.079 22.0717 18.2558C22.0717 18.5988 21.7665 19.3138 20.9325 19.3201C20.9316 19.3188 20.9306 19.3173 20.9295 19.3157C20.9227 19.3057 20.9129 19.2921 20.9004 19.277C20.8756 19.2469 20.8397 19.21 20.7961 19.1852C20.7523 19.1602 20.7 19.147 20.6437 19.1664C20.5932 19.1838 20.5421 19.2266 20.4926 19.3042C20.486 19.296 20.478 19.2864 20.4687 19.276C20.4417 19.2462 20.4032 19.2096 20.358 19.185C20.3128 19.1603 20.2596 19.1469 20.2044 19.1665C20.149 19.1861 20.0952 19.2379 20.0476 19.3345C20.0453 19.339 20.0438 19.3404 20.0434 19.3407C20.0434 19.3407 20.0433 19.3407 20.0433 19.3407C20.0412 19.3405 20.0356 19.3381 20.0244 19.3271C20.0158 19.3186 20.0064 19.3077 19.9954 19.2948C19.9928 19.2919 19.9902 19.2888 19.9875 19.2857C19.9733 19.2693 19.957 19.251 19.9389 19.2346C19.9026 19.2016 19.857 19.1742 19.8016 19.183C19.7471 19.1917 19.688 19.2347 19.6227 19.3275C19.6153 19.3336 19.6091 19.3346 19.6028 19.3333C19.595 19.3317 19.5855 19.326 19.5733 19.315C19.5616 19.3044 19.5494 19.2908 19.5353 19.2752L19.5338 19.2735C19.5195 19.2576 19.5036 19.24 19.4864 19.2245C19.4518 19.1933 19.4093 19.1679 19.3579 19.1795C19.3093 19.1904 19.2577 19.2334 19.2005 19.3201C18.991 19.317 18.681 19.2266 18.4221 19.0491C18.1576 18.8677 17.955 18.6019 17.955 18.2558C17.955 18.0799 18.0031 17.8535 18.0772 17.6104C18.1511 17.3681 18.2497 17.1124 18.3486 16.8789C18.4475 16.6454 18.5464 16.4346 18.6206 16.2821C18.6577 16.2059 18.6886 16.1443 18.7102 16.1018C18.721 16.0805 18.7295 16.064 18.7353 16.0528C18.7382 16.0473 18.7404 16.043 18.7418 16.0402L18.7435 16.037L18.744 16.036C18.7441 16.036 18.7441 16.0359 18.7243 16.0174C18.7104 15.9911 18.7104 15.9911 18.7104 15.9911L18.7104 15.9912L18.7102 15.9914L18.7095 15.992L18.7068 15.9946C18.7044 15.9968 18.701 16.0001 18.6964 16.0045C18.6874 16.0133 18.6742 16.0262 18.6574 16.043C18.6238 16.0766 18.5759 16.1259 18.5184 16.1883C18.4035 16.3133 18.2502 16.4913 18.0968 16.7039C17.9434 16.9164 17.7895 17.164 17.6738 17.4281C17.5582 17.692 17.4799 17.9744 17.4799 18.2558C17.4799 18.822 17.8111 19.1956 18.1329 19.4253C18.2947 19.5408 18.4562 19.6215 18.5771 19.6734C18.6221 19.6927 18.6615 19.708 18.6933 19.7197C18.652 19.7468 18.6018 19.7949 18.5521 19.8798C18.4407 20.0703 18.3336 20.4435 18.3336 21.1765C18.3336 21.2747 18.3552 21.356 18.3936 21.4226C18.4317 21.4887 18.4854 21.5388 18.5477 21.5774C18.6717 21.6542 18.8353 21.689 18.9955 21.7119C19.0518 21.72 19.1075 21.7266 19.1613 21.7329C19.2623 21.7449 19.3563 21.756 19.434 21.7745C19.4934 21.7886 19.5401 21.8064 19.5715 21.83C19.6021 21.8531 19.6142 21.8783 19.6142 21.9082C19.6142 22.0099 19.6129 22.1525 19.6114 22.3178C19.6074 22.7426 19.6021 23.3175 19.6142 23.7349C19.6141 23.7704 19.6041 23.7954 19.5863 23.815C19.5673 23.8358 19.5383 23.8515 19.4999 23.8625C19.4229 23.8844 19.3191 23.8846 19.2115 23.8846H19.2094C19.1042 23.8846 18.9955 23.8846 18.913 23.9081C18.8713 23.9199 18.8336 23.9385 18.8059 23.9689C18.7772 24.0005 18.7605 24.0437 18.7605 24.0992C18.7605 24.1162 18.7641 24.1346 18.7695 24.153C18.7749 24.1718 18.7828 24.1925 18.7927 24.2146C18.8123 24.259 18.8408 24.311 18.8764 24.3674C18.9477 24.4803 19.0492 24.613 19.1707 24.7397C19.413 24.9925 19.739 25.2258 20.0676 25.2258C20.3963 25.2258 20.7217 24.9925 20.9634 24.7397C21.0846 24.613 21.1858 24.4803 21.2568 24.3674C21.2924 24.3109 21.3207 24.2589 21.3403 24.2146C21.3501 24.1925 21.358 24.1717 21.3634 24.153C21.3688 24.1346 21.3724 24.1161 21.3724 24.0992C21.3724 24.0437 21.3557 24.0005 21.3269 23.9689C21.2992 23.9385 21.2615 23.9199 21.2199 23.9081C21.1373 23.8846 21.0286 23.8846 20.9235 23.8846H20.9214C20.8137 23.8846 20.7099 23.8844 20.6329 23.8625C20.5945 23.8515 20.5655 23.8358 20.5465 23.815C20.5286 23.7953 20.5186 23.7701 20.5186 23.7343V21.9082C20.5186 21.8783 20.5308 21.8531 20.5614 21.83C20.5927 21.8064 20.6394 21.7886 20.6988 21.7745C20.7765 21.756 20.8705 21.7449 20.9716 21.7329C21.0253 21.7266 21.0811 21.72 21.1374 21.7119C21.2975 21.689 21.4612 21.6542 21.5852 21.5774C21.6475 21.5388 21.7011 21.4887 21.7392 21.4226C21.7776 21.356 21.7992 21.2747 21.7992 21.1765C21.7992 20.4435 21.6922 20.0703 21.5807 19.8798C21.5311 19.7951 21.4809 19.747 21.4397 19.7198ZM21.3482 19.7489L21.3432 19.6857L21.3434 19.6857L21.344 19.6855L21.3467 19.6847C21.349 19.684 21.3525 19.6829 21.3571 19.6815C21.3664 19.6786 21.38 19.6742 21.3973 19.6682C21.432 19.6562 21.4817 19.6379 21.5414 19.6124C21.6607 19.5614 21.8197 19.4823 21.9784 19.3693C22.2975 19.1422 22.6071 18.7851 22.6071 18.2558C22.6071 17.9895 22.5328 17.7182 22.4194 17.4597C22.306 17.2015 22.1546 16.958 22.0025 16.7478C21.8505 16.5377 21.6985 16.3616 21.5844 16.238C21.5487 16.1993 21.5167 16.1658 21.4897 16.138C21.5036 16.1702 21.5195 16.2074 21.537 16.2488C21.6016 16.402 21.6877 16.614 21.7739 16.8489C21.86 17.0837 21.9464 17.3419 22.0112 17.5876C22.0759 17.8326 22.12 18.0679 22.12 18.2558C22.12 18.641 21.7864 19.3845 20.9214 19.3845H20.9097L20.9024 19.3723L20.9024 19.3722L20.902 19.3716C20.9017 19.3711 20.9012 19.3702 20.9004 19.3691C20.899 19.3667 20.8967 19.3633 20.8938 19.3589C20.8879 19.3503 20.8791 19.3381 20.8679 19.3246C20.8455 19.2973 20.814 19.2654 20.7771 19.2444C20.7404 19.2235 20.6992 19.2138 20.6558 19.2287C20.6124 19.2437 20.5637 19.2844 20.5137 19.3719L20.496 19.4028L20.4765 19.3738L20.4764 19.3737L20.476 19.3731C20.4756 19.3725 20.475 19.3716 20.4742 19.3705C20.4725 19.3681 20.47 19.3646 20.4666 19.3602C20.46 19.3514 20.4501 19.3392 20.4378 19.3255C20.413 19.2981 20.3787 19.2658 20.3398 19.2446C20.3009 19.2234 20.2587 19.2138 20.2168 19.2287C20.1753 19.2434 20.1305 19.2833 20.0878 19.37L20.0876 19.3704C20.0764 19.3925 20.0604 19.4068 20.04 19.4049C20.0231 19.4034 20.0078 19.3907 19.9957 19.3788C19.9853 19.3686 19.9741 19.3556 19.963 19.3426C19.9606 19.3398 19.9582 19.337 19.9558 19.3343C19.9419 19.3182 19.9274 19.302 19.9118 19.2878C19.8805 19.2594 19.8466 19.2407 19.8073 19.2469C19.7677 19.2532 19.7177 19.2857 19.656 19.3743L19.6542 19.3769L19.652 19.3789C19.6338 19.3955 19.6146 19.4009 19.5954 19.3969C19.5773 19.3932 19.5608 19.3814 19.5462 19.3683C19.5325 19.3558 19.5185 19.3403 19.5052 19.3255L19.5029 19.3229C19.4884 19.3068 19.4742 19.2912 19.4593 19.2778C19.4296 19.251 19.3999 19.2353 19.366 19.2429C19.3313 19.2508 19.2866 19.2842 19.2299 19.3732L19.2226 19.3845H19.2115C18.9941 19.3845 18.6702 19.2915 18.4001 19.1063C18.131 18.9218 17.9067 18.6394 17.9067 18.2558C17.9067 18.067 17.9578 17.8312 18.0325 17.5862C18.1074 17.3404 18.2071 17.082 18.3066 16.8472C18.4061 16.6123 18.5055 16.4003 18.5801 16.2471C18.5957 16.215 18.6103 16.1854 18.6235 16.1588C18.6011 16.1821 18.5761 16.2087 18.5489 16.2382C18.435 16.362 18.2832 16.5383 18.1315 16.7485C17.9798 16.9588 17.8286 17.2024 17.7155 17.4606C17.6023 17.719 17.5281 17.99 17.5281 18.2558C17.5281 18.7841 17.8372 19.1412 18.1557 19.3686C18.3141 19.4816 18.4727 19.561 18.5919 19.6121C18.6514 19.6377 18.701 19.6561 18.7357 19.6681C18.753 19.6742 18.7666 19.6786 18.7758 19.6815C18.7804 19.6829 18.7839 19.684 18.7862 19.6847L18.7889 19.6855L18.7895 19.6857L18.7896 19.6857L18.7846 19.7489C18.7846 19.7494 18.7847 19.7494 18.7847 19.7494L18.7844 19.7494C18.7839 19.7494 18.7831 19.7495 18.7819 19.7496C18.7795 19.7499 18.7756 19.7505 18.7706 19.7517C18.7605 19.7541 18.7456 19.7592 18.7274 19.7696C18.6911 19.7902 18.641 19.8325 18.5902 19.9194C18.4882 20.0937 18.3819 20.4501 18.3819 21.1765C18.3819 21.2611 18.4003 21.3285 18.4319 21.3834C18.4638 21.4388 18.5102 21.4832 18.568 21.519C18.6841 21.5909 18.8406 21.625 19.0006 21.6479C19.0546 21.6556 19.1091 21.6621 19.1624 21.6684C19.265 21.6806 19.3628 21.6922 19.4425 21.7111C19.5031 21.7256 19.5565 21.7448 19.5952 21.774C19.6346 21.8037 19.6625 21.8468 19.6625 21.9082C19.6625 22.0112 19.6611 22.1549 19.6596 22.3211C19.6557 22.7458 19.6503 23.3173 19.6625 23.7331L19.6625 23.7337V23.7343C19.6625 23.7898 19.6458 23.833 19.617 23.8646C19.5893 23.895 19.5516 23.9136 19.51 23.9254C19.4275 23.9489 19.3187 23.9489 19.2136 23.9489H19.2115C19.1038 23.9489 19 23.9491 18.923 23.971C18.8846 23.982 18.8557 23.9976 18.8366 24.0185C18.8187 24.0382 18.8087 24.0634 18.8087 24.0992C18.8087 24.1048 18.8101 24.1147 18.8145 24.1297C18.8187 24.1442 18.8252 24.1617 18.8342 24.1819C18.8521 24.2222 18.8788 24.2713 18.9133 24.326C18.9823 24.4352 19.0814 24.5648 19.2004 24.6891C19.4393 24.9382 19.7548 25.1614 20.0676 25.1614C20.3805 25.1614 20.6954 24.9382 20.9336 24.6891C21.0524 24.5649 21.1511 24.4353 21.2199 24.326C21.2543 24.2713 21.2809 24.2222 21.2987 24.1819C21.3077 24.1617 21.3142 24.1442 21.3184 24.1297C21.3227 24.1148 21.3241 24.1048 21.3241 24.0992C21.3241 24.0634 21.3141 24.0382 21.2962 24.0185C21.2772 23.9976 21.2482 23.982 21.2098 23.971C21.1328 23.9491 21.029 23.9489 20.9214 23.9489H20.9193C20.8141 23.9489 20.7054 23.9489 20.6229 23.9254C20.5812 23.9136 20.5435 23.895 20.5158 23.8646C20.4871 23.833 20.4704 23.7898 20.4704 23.7343V21.9082C20.4704 21.8468 20.4982 21.8037 20.5377 21.774C20.5764 21.7448 20.6297 21.7256 20.6904 21.7111C20.7701 21.6922 20.8679 21.6806 20.9704 21.6684C21.0237 21.6621 21.0783 21.6556 21.1322 21.6479C21.2923 21.625 21.4488 21.5909 21.5648 21.519C21.6226 21.4832 21.669 21.4388 21.7009 21.3834C21.7326 21.3285 21.751 21.2611 21.751 21.1765C21.751 20.4501 21.6446 20.0937 21.5426 19.9194C21.4918 19.8325 21.4417 19.7902 21.4055 19.7696C21.3872 19.7592 21.3723 19.7541 21.3622 19.7517C21.3572 19.7505 21.3534 19.7499 21.351 19.7496C21.3505 19.7495 21.35 19.7495 21.3496 19.7495C21.3491 19.7494 21.3487 19.7494 21.3485 19.7494L21.3482 19.7494L21.3482 19.7494C21.3482 19.7494 21.3482 19.7494 21.3482 19.7489Z" fill="black"/>
<path fill-rule="evenodd" clip-rule="evenodd" d="M18.7494 22.5517C18.6626 22.6259 18.8603 23.8151 18.9182 23.8667C19.005 23.9388 19.5187 23.9388 19.6031 23.8667C19.6634 23.8151 19.6031 22.698 19.5187 22.6259C19.4319 22.5517 18.8097 22.5022 18.747 22.5517H18.7494Z" fill="#FFFF00"/>
<path fill-rule="evenodd" clip-rule="evenodd" d="M19.4691 22.568C19.4947 22.5764 19.5174 22.5863 19.5319 22.5987C19.5422 22.6075 19.5498 22.6217 19.5555 22.6354C19.5615 22.6499 19.567 22.6676 19.572 22.6873C19.5822 22.7269 19.5915 22.7783 19.5999 22.8368C19.6167 22.954 19.6303 23.1033 19.6394 23.2513C19.6485 23.3994 19.6531 23.5472 19.6515 23.6617C19.6508 23.7188 19.6485 23.7685 19.6443 23.8062C19.6422 23.8249 19.6396 23.8418 19.636 23.8555C19.633 23.8673 19.6275 23.8841 19.6163 23.8937C19.6021 23.9059 19.5814 23.9147 19.5585 23.9217C19.535 23.9288 19.5067 23.9346 19.4755 23.9392C19.413 23.9484 19.3373 23.9529 19.2617 23.9529C19.1862 23.9529 19.1103 23.9484 19.0475 23.9392C19.0161 23.9346 18.9877 23.9288 18.9639 23.9217C18.9409 23.9147 18.92 23.9059 18.9056 23.8939L18.9053 23.8937L18.905 23.8934C18.8998 23.8887 18.8959 23.8826 18.8931 23.8775C18.8901 23.8721 18.8873 23.8659 18.8847 23.8593C18.8794 23.846 18.8739 23.8292 18.8684 23.8098C18.8572 23.7709 18.8449 23.7189 18.8321 23.6586C18.8066 23.5377 18.779 23.381 18.756 23.2238C18.733 23.0667 18.7144 22.9081 18.7071 22.7837C18.7034 22.7216 18.7025 22.6667 18.7055 22.6243C18.7065 22.6098 18.708 22.5962 18.7102 22.5838H18.6589L18.7348 22.5239C18.7422 22.5181 18.7513 22.5146 18.76 22.512C18.7692 22.5094 18.7801 22.5072 18.7922 22.5055C18.8164 22.5022 18.847 22.5003 18.8816 22.4997C18.951 22.4985 19.038 22.5025 19.1256 22.5102C19.2131 22.518 19.3017 22.5297 19.3741 22.5441C19.4102 22.5514 19.4427 22.5594 19.4691 22.568ZM18.7649 22.5767L18.763 22.5783C18.7628 22.5787 18.7612 22.5811 18.7593 22.5885C18.7569 22.5979 18.7548 22.6117 18.7535 22.6303C18.7509 22.6673 18.7516 22.7179 18.7552 22.7786C18.7623 22.8996 18.7805 23.0555 18.8034 23.2114C18.8262 23.3673 18.8535 23.5222 18.8786 23.6411C18.8912 23.7006 18.9031 23.7506 18.9135 23.7869C18.9187 23.8051 18.9233 23.8192 18.9273 23.8291C18.9293 23.834 18.9308 23.8374 18.932 23.8395C18.9322 23.8399 18.9324 23.8402 18.9325 23.8404C18.9401 23.8462 18.9539 23.8527 18.9746 23.8589C18.9959 23.8653 19.0224 23.8708 19.0528 23.8752C19.1134 23.8841 19.1874 23.8885 19.2617 23.8885C19.336 23.8885 19.4099 23.8841 19.4702 23.8752C19.5004 23.8708 19.5267 23.8653 19.5478 23.8589C19.5677 23.8529 19.581 23.8465 19.5884 23.841C19.5888 23.8399 19.5895 23.8379 19.5904 23.8345C19.5925 23.8261 19.5947 23.8136 19.5965 23.7967C19.6003 23.7631 19.6025 23.7166 19.6033 23.6606C19.6048 23.5488 19.6003 23.4032 19.5913 23.2566C19.5823 23.1099 19.5688 22.9631 19.5524 22.8489C19.5442 22.7917 19.5354 22.7436 19.5264 22.7081C19.5218 22.6903 19.5174 22.6766 19.5133 22.6667C19.5112 22.6618 19.5095 22.6583 19.508 22.6559C19.5066 22.6536 19.5058 22.6529 19.5058 22.6529C19.5058 22.6529 19.5058 22.6529 19.5058 22.6529C19.4986 22.6467 19.4829 22.6388 19.4576 22.6305C19.4331 22.6225 19.4023 22.6148 19.3669 22.6078C19.2962 22.5936 19.209 22.5821 19.1224 22.5744C19.0357 22.5667 18.95 22.5629 18.8823 22.5641C18.8484 22.5646 18.8194 22.5665 18.7972 22.5696C18.7861 22.5711 18.7772 22.5729 18.7703 22.5749C18.7682 22.5755 18.7664 22.5761 18.7649 22.5767Z" fill="black"/>
<path fill-rule="evenodd" clip-rule="evenodd" d="M21.3903 22.5517C21.4771 22.6259 21.2793 23.8151 21.2215 23.8667C21.1346 23.9388 20.6209 23.9388 20.5365 23.8667C20.4762 23.8151 20.5365 22.698 20.6209 22.6259C20.7078 22.5517 21.33 22.5022 21.3927 22.5517H21.3903Z" fill="#FFFF00"/>
<path fill-rule="evenodd" clip-rule="evenodd" d="M20.6706 22.568C20.6451 22.5764 20.6224 22.5863 20.6079 22.5987C20.5976 22.6075 20.59 22.6217 20.5843 22.6354C20.5783 22.6499 20.5728 22.6676 20.5677 22.6873C20.5576 22.7269 20.5483 22.7783 20.5399 22.8368C20.5231 22.954 20.5095 23.1033 20.5004 23.2513C20.4913 23.3994 20.4867 23.5472 20.4882 23.6617C20.489 23.7188 20.4913 23.7685 20.4955 23.8062C20.4976 23.8249 20.5002 23.8418 20.5038 23.8555C20.5068 23.8673 20.5123 23.8841 20.5235 23.8937C20.5377 23.9059 20.5584 23.9147 20.5812 23.9217C20.6047 23.9288 20.633 23.9346 20.6643 23.9392C20.7268 23.9484 20.8025 23.9529 20.878 23.9529C20.9536 23.9529 21.0295 23.9484 21.0923 23.9392C21.1236 23.9346 21.1521 23.9288 21.1758 23.9217C21.1989 23.9147 21.2197 23.9059 21.2342 23.8939L21.2345 23.8937L21.2348 23.8934C21.24 23.8887 21.2439 23.8826 21.2467 23.8775C21.2497 23.8721 21.2525 23.8659 21.2551 23.8593C21.2604 23.846 21.2658 23.8292 21.2714 23.8098C21.2825 23.7709 21.2949 23.7189 21.3077 23.6586C21.3332 23.5377 21.3608 23.381 21.3838 23.2238C21.4068 23.0667 21.4253 22.9081 21.4327 22.7837C21.4363 22.7216 21.4373 22.6667 21.4343 22.6243C21.4333 22.6098 21.4318 22.5962 21.4296 22.5838H21.4808L21.4049 22.5239C21.3976 22.5181 21.3884 22.5146 21.3798 22.512C21.3705 22.5094 21.3596 22.5072 21.3476 22.5055C21.3233 22.5022 21.2927 22.5003 21.2581 22.4997C21.1888 22.4985 21.1018 22.5025 21.0142 22.5102C20.9267 22.518 20.8381 22.5297 20.7657 22.5441C20.7296 22.5514 20.6971 22.5594 20.6706 22.568ZM21.3749 22.5767L21.3768 22.5783C21.377 22.5787 21.3786 22.5811 21.3805 22.5885C21.3829 22.5979 21.3849 22.6117 21.3863 22.6303C21.3888 22.6673 21.3881 22.7179 21.3846 22.7786C21.3774 22.8996 21.3592 23.0555 21.3364 23.2114C21.3136 23.3673 21.2863 23.5222 21.2612 23.6411C21.2486 23.7006 21.2367 23.7506 21.2263 23.7869C21.2211 23.8051 21.2164 23.8192 21.2125 23.8291C21.2105 23.834 21.2089 23.8374 21.2078 23.8395C21.2076 23.8399 21.2074 23.8402 21.2072 23.8404C21.1996 23.8462 21.1858 23.8527 21.1652 23.8589C21.1439 23.8653 21.1173 23.8708 21.087 23.8752C21.0264 23.8841 20.9523 23.8885 20.878 23.8885C20.8038 23.8885 20.7298 23.8841 20.6696 23.8752C20.6394 23.8708 20.613 23.8653 20.592 23.8589C20.572 23.8529 20.5588 23.8465 20.5514 23.841C20.551 23.8399 20.5503 23.8379 20.5494 23.8345C20.5472 23.8261 20.5451 23.8136 20.5432 23.7967C20.5395 23.7631 20.5373 23.7166 20.5365 23.6606C20.535 23.5488 20.5395 23.4032 20.5485 23.2566C20.5575 23.1099 20.571 22.9631 20.5873 22.8489C20.5955 22.7917 20.6043 22.7436 20.6134 22.7081C20.618 22.6903 20.6224 22.6766 20.6265 22.6667C20.6285 22.6618 20.6303 22.6583 20.6318 22.6559C20.6332 22.6536 20.6339 22.6529 20.6339 22.6529C20.6339 22.6529 20.6339 22.6529 20.6339 22.6529C20.6411 22.6467 20.6569 22.6388 20.6822 22.6305C20.7066 22.6225 20.7375 22.6148 20.7729 22.6078C20.8435 22.5936 20.9307 22.5821 21.0174 22.5744C21.1041 22.5667 21.1898 22.5629 21.2575 22.5641C21.2914 22.5646 21.3204 22.5665 21.3425 22.5696C21.3536 22.5711 21.3626 22.5729 21.3694 22.5749C21.3715 22.5755 21.3733 22.5761 21.3749 22.5767Z" fill="black"/>
<path fill-rule="evenodd" clip-rule="evenodd" d="M19.6276 22.1179C19.6276 22.2269 19.5809 22.3315 19.4977 22.4086C19.4146 22.4857 19.3017 22.529 19.1841 22.529C19.0665 22.529 18.9537 22.4857 18.8705 22.4086C18.7873 22.3315 18.7406 22.2269 18.7406 22.1179C18.7406 22.0089 18.7873 21.9043 18.8705 21.8272C18.9537 21.7501 19.0665 21.7068 19.1841 21.7068C19.3017 21.7068 19.4146 21.7501 19.4977 21.8272C19.5809 21.9043 19.6276 22.0089 19.6276 22.1179V22.1179Z" fill="#FFFF00"/>
<path fill-rule="evenodd" clip-rule="evenodd" d="M19.184 21.7453C19.0712 21.7453 18.9644 21.7869 18.8868 21.8588C18.8093 21.9306 18.7693 22.0245 18.7693 22.1178C18.7693 22.2112 18.8093 22.3051 18.8868 22.3769C18.9644 22.4488 19.0712 22.4904 19.184 22.4904C19.2967 22.4904 19.4035 22.4488 19.4811 22.3769C19.5586 22.3051 19.5986 22.2112 19.5986 22.1178C19.5986 22.0245 19.5586 21.9306 19.4811 21.8588C19.4035 21.7869 19.2967 21.7453 19.184 21.7453ZM18.8539 21.7955C18.9426 21.7132 19.0614 21.6682 19.184 21.6682C19.3065 21.6682 19.4253 21.7132 19.5141 21.7955C19.6029 21.8779 19.6564 21.9931 19.6564 22.1178C19.6564 22.2426 19.6029 22.3578 19.5141 22.4402C19.4253 22.5225 19.3065 22.5675 19.184 22.5675C19.0614 22.5675 18.9426 22.5225 18.8539 22.4402C18.765 22.3578 18.7115 22.2426 18.7115 22.1178C18.7115 21.9931 18.765 21.8779 18.8539 21.7955Z" fill="black"/>
<path fill-rule="evenodd" clip-rule="evenodd" d="M21.3928 22.1182C21.3928 22.2272 21.3461 22.3318 21.2629 22.4089C21.1797 22.486 21.0669 22.5293 20.9493 22.5293C20.8316 22.5293 20.7188 22.486 20.6356 22.4089C20.5525 22.3318 20.5057 22.2272 20.5057 22.1182C20.5057 22.0091 20.5525 21.9045 20.6356 21.8274C20.7188 21.7503 20.8316 21.707 20.9493 21.707C21.0669 21.707 21.1797 21.7503 21.2629 21.8274C21.3461 21.9045 21.3928 22.0091 21.3928 22.1182V22.1182Z" fill="#FFFF00"/>
<path fill-rule="evenodd" clip-rule="evenodd" d="M20.9491 21.7455C20.8364 21.7455 20.7296 21.7871 20.652 21.859C20.5745 21.9309 20.5345 22.0247 20.5345 22.1181C20.5345 22.2115 20.5745 22.3053 20.652 22.3772C20.7296 22.4491 20.8364 22.4907 20.9491 22.4907C21.0618 22.4907 21.1686 22.4491 21.2462 22.3772C21.3237 22.3053 21.3637 22.2115 21.3637 22.1181C21.3637 22.0247 21.3237 21.9309 21.2462 21.859C21.1686 21.7871 21.0618 21.7455 20.9491 21.7455ZM20.619 21.7958C20.7078 21.7135 20.8266 21.6685 20.9491 21.6685C21.0717 21.6685 21.1905 21.7135 21.2792 21.7958C21.3681 21.8781 21.4215 21.9934 21.4215 22.1181C21.4215 22.2428 21.3681 22.3581 21.2792 22.4404C21.1905 22.5227 21.0717 22.5678 20.9491 22.5678C20.8266 22.5678 20.7078 22.5227 20.619 22.4404C20.5301 22.3581 20.4767 22.2428 20.4767 22.1181C20.4767 21.9934 20.5301 21.8781 20.619 21.7958Z" fill="black"/>
<path fill-rule="evenodd" clip-rule="evenodd" d="M20.8398 24.4999C20.8398 24.5999 20.7398 24.6799 20.6248 24.6799C20.5048 24.6799 20.4098 24.5999 20.4098 24.4999C20.4098 24.3999 20.5098 24.3199 20.6248 24.3199C20.7398 24.3199 20.8398 24.3999 20.8398 24.4999ZM19.7248 24.4999C19.7248 24.5999 19.6298 24.6799 19.5148 24.6799C19.3948 24.6799 19.2998 24.5999 19.2998 24.4999C19.2998 24.3999 19.3948 24.3199 19.5148 24.3199C19.6298 24.3199 19.7248 24.3999 19.7248 24.4999Z" fill="black"/>
<path fill-rule="evenodd" clip-rule="evenodd" d="M20.0689 18.667L19.8068 18.2259L19.3765 18.2987L19.437 17.7505L19.0908 17.4208L19.437 17.0867L19.3765 16.5386L19.8068 16.6157L20.0689 16.1746L20.3311 16.6157L20.758 16.5386L20.7009 17.0867L21.0437 17.4208L20.7009 17.7548L20.758 18.2987L20.3278 18.2259L20.0689 18.667Z" fill="#FFFF00"/>
<path fill-rule="evenodd" clip-rule="evenodd" d="M20.0693 16.1357L20.3392 16.5899L20.7795 16.5104L20.7206 17.0757L21.0747 17.4207L20.7206 17.7657L20.7795 18.3265L20.336 18.2515L20.0694 18.7059L19.7993 18.2515L19.3555 18.3265L19.4179 17.7615L19.0602 17.4209L19.4179 17.0757L19.3555 16.5104L19.7993 16.5899L20.0693 16.1357ZM20.0693 16.2133L19.8149 16.6413L19.3982 16.5667L19.4568 17.0977L19.1221 17.4206L19.4568 17.7394L19.3982 18.2707L19.8149 18.2002L20.0692 18.628L20.3202 18.2002L20.7371 18.2708L20.6818 17.7438L21.0134 17.4207L20.6818 17.0977L20.7371 16.5667L20.3237 16.6413L20.0693 16.2133Z" fill="black"/>
<path fill-rule="evenodd" clip-rule="evenodd" d="M21.8983 20.3729L22.6322 20.8426L23.366 20.3729L22.6322 19.9076L21.9018 20.3729H21.8983Z" fill="#FFFF00"/>
<path fill-rule="evenodd" clip-rule="evenodd" d="M22.6322 19.8802L23.409 20.3728L22.6322 20.87L21.8904 20.3952L21.8967 20.3584L21.8939 20.3506L22.6322 19.8802ZM21.943 20.3741L22.6322 20.8152L23.3231 20.373L22.6323 19.935L21.943 20.3741Z" fill="black"/>
<path fill-rule="evenodd" clip-rule="evenodd" d="M16.6483 20.3729L17.3822 20.8426L18.116 20.3729L17.3822 19.9076L16.6518 20.3729H16.6483Z" fill="#FFFF00"/>
<path fill-rule="evenodd" clip-rule="evenodd" d="M17.3822 19.8802L18.159 20.3728L17.3822 20.87L16.6404 20.3952L16.6467 20.3584L16.6439 20.3506L17.3822 19.8802ZM16.693 20.3741L17.3822 20.8152L18.0731 20.373L17.3823 19.935L16.693 20.3741Z" fill="black"/>
<path fill-rule="evenodd" clip-rule="evenodd" d="M23.031 23.1562C22.8063 22.9663 22.4278 23.061 22.2157 23.2162C22.0036 23.3714 21.7915 23.5266 21.7629 24.0891C21.5193 23.5486 21.7112 23.0488 22.0338 22.8127C22.2049 22.7055 22.4009 22.6817 22.5848 22.7456C22.7688 22.8096 22.928 22.957 23.0327 23.16L23.031 23.1562Z" fill="#FFFF00"/>
<path fill-rule="evenodd" clip-rule="evenodd" d="M21.7493 24.0064C21.7704 23.7663 21.8279 23.6043 21.9056 23.4842C21.9908 23.3523 22.0993 23.2729 22.2046 23.1959L22.2058 23.195C22.3142 23.1157 22.4644 23.0523 22.616 23.0326C22.7369 23.017 22.8606 23.0289 22.9654 23.0849C22.8658 22.9325 22.7315 22.8218 22.5799 22.7691C22.4006 22.7067 22.2095 22.7299 22.0425 22.8343C21.8848 22.9499 21.7597 23.1294 21.7036 23.3449C21.6525 23.5407 21.658 23.7678 21.7493 24.0064ZM23.0435 23.1384C22.9362 22.9346 22.7749 22.7868 22.5891 22.7222C22.4007 22.6567 22.2001 22.6812 22.025 22.7908L22.0245 22.7912L22.024 22.7915C21.8593 22.912 21.7273 23.1003 21.6678 23.3286C21.6082 23.5576 21.6219 23.8249 21.7463 24.101L21.7774 24.1699L21.7814 24.0912C21.7955 23.814 21.8545 23.6396 21.9347 23.5157C22.0154 23.391 22.1185 23.3153 22.2249 23.2374C22.3286 23.1615 22.4738 23.1 22.6205 23.081C22.7676 23.0619 22.9134 23.0859 23.0205 23.1765L23.0257 23.1662L23.0486 23.1482L23.0446 23.1393L23.0435 23.1384Z" fill="black"/>
<path fill-rule="evenodd" clip-rule="evenodd" d="M17.9905 22.2398C17.9905 22.3218 17.965 22.4005 17.9194 22.4586C17.8738 22.5166 17.8121 22.5492 17.7477 22.5492C17.6832 22.5492 17.6215 22.5166 17.5759 22.4586C17.5304 22.4005 17.5048 22.3218 17.5048 22.2398C17.5048 22.1577 17.5304 22.079 17.5759 22.0209C17.6215 21.9629 17.6832 21.9303 17.7477 21.9303C17.8121 21.9303 17.8738 21.9629 17.9194 22.0209C17.965 22.079 17.9905 22.1577 17.9905 22.2398V22.2398Z" fill="#FFFF00"/>
<path fill-rule="evenodd" clip-rule="evenodd" d="M17.7475 21.955C17.6877 21.955 17.6306 21.9853 17.5885 22.0388C17.5466 22.0923 17.5231 22.1646 17.5231 22.2398C17.5231 22.315 17.5466 22.3873 17.5885 22.4408C17.6306 22.4943 17.6877 22.5246 17.7475 22.5246C17.8073 22.5246 17.8644 22.4943 17.9064 22.4408C17.9484 22.3873 17.9719 22.315 17.9719 22.2398C17.9719 22.1646 17.9484 22.0923 17.9064 22.0388C17.8644 21.9853 17.8073 21.955 17.7475 21.955ZM17.563 22.0031C17.612 21.9406 17.6784 21.9056 17.7475 21.9056C17.8166 21.9056 17.883 21.9406 17.932 22.0031C17.9812 22.0657 18.0089 22.1508 18.0089 22.2398C18.0089 22.3288 17.9812 22.4139 17.932 22.4765C17.883 22.539 17.8166 22.574 17.7475 22.574C17.6784 22.574 17.612 22.539 17.563 22.4765C17.5138 22.4139 17.4861 22.3288 17.4861 22.2398C17.4861 22.1508 17.5138 22.0657 17.563 22.0031Z" fill="black"/>
<path fill-rule="evenodd" clip-rule="evenodd" d="M17.7451 23.3264C17.7451 23.4085 17.7195 23.4872 17.6739 23.5453C17.6284 23.6033 17.5666 23.6359 17.5022 23.6359C17.4377 23.6359 17.376 23.6033 17.3304 23.5453C17.2849 23.4872 17.2593 23.4085 17.2593 23.3264C17.2593 23.2444 17.2849 23.1656 17.3304 23.1076C17.376 23.0496 17.4377 23.017 17.5022 23.017C17.5666 23.017 17.6284 23.0496 17.6739 23.1076C17.7195 23.1656 17.7451 23.2444 17.7451 23.3264V23.3264Z" fill="#FFFF00"/>
<path fill-rule="evenodd" clip-rule="evenodd" d="M17.5025 23.0417C17.4427 23.0417 17.3856 23.072 17.3435 23.1255C17.3016 23.179 17.2781 23.2513 17.2781 23.3265C17.2781 23.4016 17.3016 23.4739 17.3435 23.5274C17.3856 23.581 17.4427 23.6112 17.5025 23.6112C17.5623 23.6112 17.6194 23.581 17.6615 23.5274C17.7034 23.4739 17.7269 23.4016 17.7269 23.3265C17.7269 23.2513 17.7034 23.179 17.6615 23.1255C17.6194 23.072 17.5623 23.0417 17.5025 23.0417ZM17.318 23.0898C17.367 23.0273 17.4334 22.9923 17.5025 22.9923C17.5716 22.9923 17.638 23.0273 17.687 23.0898C17.7362 23.1524 17.7639 23.2375 17.7639 23.3265C17.7639 23.4155 17.7362 23.5006 17.687 23.5631C17.638 23.6257 17.5716 23.6606 17.5025 23.6606C17.4334 23.6606 17.367 23.6257 17.318 23.5631C17.2688 23.5006 17.2411 23.4155 17.2411 23.3265C17.2411 23.2375 17.2688 23.1524 17.318 23.0898Z" fill="black"/>
<path fill-rule="evenodd" clip-rule="evenodd" d="M17.6253 22.7064C17.6253 22.7885 17.5997 22.8672 17.5542 22.9253C17.5086 22.9833 17.4468 23.0159 17.3824 23.0159C17.318 23.0159 17.2562 22.9833 17.2107 22.9253C17.1651 22.8672 17.1395 22.7885 17.1395 22.7064C17.1395 22.6244 17.1651 22.5456 17.2107 22.4876C17.2562 22.4296 17.318 22.397 17.3824 22.397C17.4468 22.397 17.5086 22.4296 17.5542 22.4876C17.5997 22.5456 17.6253 22.6244 17.6253 22.7064V22.7064Z" fill="#FFFF00"/>
<path fill-rule="evenodd" clip-rule="evenodd" d="M17.3823 22.4217C17.3225 22.4217 17.2653 22.452 17.2233 22.5055C17.1813 22.559 17.1579 22.6313 17.1579 22.7065C17.1579 22.7816 17.1813 22.8539 17.2233 22.9074C17.2653 22.961 17.3225 22.9912 17.3823 22.9912C17.442 22.9912 17.4992 22.961 17.5412 22.9074C17.5832 22.8539 17.6066 22.7816 17.6066 22.7065C17.6066 22.6313 17.5832 22.559 17.5412 22.5055C17.4992 22.452 17.442 22.4217 17.3823 22.4217ZM17.1977 22.4698C17.2468 22.4073 17.3132 22.3723 17.3823 22.3723C17.4513 22.3723 17.5177 22.4073 17.5668 22.4698C17.6159 22.5324 17.6437 22.6175 17.6437 22.7065C17.6437 22.7955 17.6159 22.8806 17.5668 22.9432C17.5177 23.0057 17.4513 23.0406 17.3823 23.0406C17.3132 23.0406 17.2468 23.0057 17.1977 22.9432C17.1486 22.8806 17.1208 22.7955 17.1208 22.7065C17.1208 22.6175 17.1486 22.5324 17.1977 22.4698Z" fill="black"/>
<path fill-rule="evenodd" clip-rule="evenodd" d="M18.2355 23.3264C18.2355 23.4085 18.2099 23.4872 18.1644 23.5453C18.1188 23.6033 18.0571 23.6359 17.9926 23.6359C17.9282 23.6359 17.8664 23.6033 17.8209 23.5453C17.7753 23.4872 17.7498 23.4085 17.7498 23.3264C17.7498 23.2444 17.7753 23.1656 17.8209 23.1076C17.8664 23.0496 17.9282 23.017 17.9926 23.017C18.0571 23.017 18.1188 23.0496 18.1644 23.1076C18.2099 23.1656 18.2355 23.2444 18.2355 23.3264V23.3264Z" fill="#FFFF00"/>
<path fill-rule="evenodd" clip-rule="evenodd" d="M17.9925 23.0417C17.9327 23.0417 17.8756 23.072 17.8335 23.1255C17.7915 23.179 17.7681 23.2513 17.7681 23.3265C17.7681 23.4016 17.7915 23.4739 17.8335 23.5274C17.8756 23.581 17.9327 23.6112 17.9925 23.6112C18.0523 23.6112 18.1094 23.581 18.1514 23.5274C18.1934 23.4739 18.2169 23.4016 18.2169 23.3265C18.2169 23.2513 18.1934 23.179 18.1514 23.1255C18.1094 23.072 18.0523 23.0417 17.9925 23.0417ZM17.8079 23.0898C17.857 23.0273 17.9234 22.9923 17.9925 22.9923C18.0616 22.9923 18.128 23.0273 18.177 23.0898C18.2261 23.1524 18.2539 23.2375 18.2539 23.3265C18.2539 23.4155 18.2261 23.5006 18.177 23.5631C18.128 23.6257 18.0616 23.6606 17.9925 23.6606C17.9234 23.6606 17.857 23.6257 17.8079 23.5631C17.7588 23.5006 17.7311 23.4155 17.7311 23.3265C17.7311 23.2375 17.7588 23.1524 17.8079 23.0898Z" fill="black"/>
<path fill-rule="evenodd" clip-rule="evenodd" d="M18.3553 22.7064C18.3553 22.7885 18.3297 22.8672 18.2841 22.9253C18.2386 22.9833 18.1768 23.0159 18.1124 23.0159C18.048 23.0159 17.9862 22.9833 17.9406 22.9253C17.8951 22.8672 17.8695 22.7885 17.8695 22.7064C17.8695 22.6244 17.8951 22.5456 17.9406 22.4876C17.9862 22.4296 18.048 22.397 18.1124 22.397C18.1768 22.397 18.2386 22.4296 18.2841 22.4876C18.3297 22.5456 18.3553 22.6244 18.3553 22.7064V22.7064Z" fill="#FFFF00"/>
<path fill-rule="evenodd" clip-rule="evenodd" d="M18.1124 22.4217C18.0526 22.4217 17.9954 22.452 17.9534 22.5055C17.9114 22.559 17.888 22.6313 17.888 22.7065C17.888 22.7816 17.9114 22.8539 17.9534 22.9074C17.9954 22.961 18.0526 22.9912 18.1124 22.9912C18.1721 22.9912 18.2293 22.961 18.2713 22.9074C18.3133 22.8539 18.3367 22.7816 18.3367 22.7065C18.3367 22.6313 18.3133 22.559 18.2713 22.5055C18.2293 22.452 18.1721 22.4217 18.1124 22.4217ZM17.9278 22.4698C17.9769 22.4073 18.0433 22.3723 18.1124 22.3723C18.1814 22.3723 18.2478 22.4073 18.2969 22.4698C18.346 22.5324 18.3738 22.6175 18.3738 22.7065C18.3738 22.7955 18.346 22.8806 18.2969 22.9432C18.2478 23.0057 18.1814 23.0406 18.1124 23.0406C18.0433 23.0406 17.9769 23.0057 17.9278 22.9432C17.8787 22.8806 17.851 22.7955 17.851 22.7065C17.851 22.6175 17.8787 22.5324 17.9278 22.4698Z" fill="black"/>
<path fill-rule="evenodd" clip-rule="evenodd" d="M17.9905 22.8598C17.9905 22.9418 17.965 23.0205 17.9194 23.0786C17.8738 23.1366 17.8121 23.1692 17.7477 23.1692C17.6832 23.1692 17.6215 23.1366 17.5759 23.0786C17.5304 23.0205 17.5048 22.9418 17.5048 22.8598C17.5048 22.7777 17.5304 22.699 17.5759 22.6409C17.6215 22.5829 17.6832 22.5503 17.7477 22.5503C17.8121 22.5503 17.8738 22.5829 17.9194 22.6409C17.965 22.699 17.9905 22.7777 17.9905 22.8598V22.8598Z" fill="#FFFF00"/>
<path fill-rule="evenodd" clip-rule="evenodd" d="M17.7475 22.575C17.6877 22.575 17.6306 22.6053 17.5885 22.6588C17.5466 22.7123 17.5231 22.7846 17.5231 22.8598C17.5231 22.9349 17.5466 23.0073 17.5885 23.0608C17.6306 23.1143 17.6877 23.1446 17.7475 23.1446C17.8073 23.1446 17.8644 23.1143 17.9064 23.0608C17.9484 23.0073 17.9719 22.9349 17.9719 22.8598C17.9719 22.7846 17.9484 22.7123 17.9064 22.6588C17.8644 22.6053 17.8073 22.575 17.7475 22.575ZM17.563 22.6231C17.612 22.5606 17.6784 22.5256 17.7475 22.5256C17.8166 22.5256 17.883 22.5606 17.932 22.6231C17.9812 22.6857 18.0089 22.7708 18.0089 22.8598C18.0089 22.9488 17.9812 23.0339 17.932 23.0965C17.883 23.159 17.8166 23.194 17.7475 23.194C17.6784 23.194 17.612 23.159 17.563 23.0965C17.5138 23.0339 17.4861 22.9488 17.4861 22.8598C17.4861 22.7708 17.5138 22.6857 17.563 22.6231Z" fill="black"/>
<path fill-rule="evenodd" clip-rule="evenodd" d="M18.8897 12.0267C18.2697 12.0267 18.1897 12.16 17.9097 12.2867C17.9097 11.9267 18.5997 11.5067 19.2097 11.5067C19.2097 11.7667 19.0497 12.0267 18.8897 12.0267Z" fill="#DA4500"/>
<path fill-rule="evenodd" clip-rule="evenodd" d="M19.8245 11.2001C19.8245 11.3667 19.7145 11.5067 19.5795 11.5067C19.4445 11.5067 19.3345 11.3667 19.3345 11.1934C19.3345 11.0201 19.4445 10.8867 19.5795 10.8867C19.7145 10.8867 19.8245 11.0201 19.8245 11.1934V11.2001Z" fill="#CAC9C7"/>
<path fill-rule="evenodd" clip-rule="evenodd" d="M17.2605 10.1103V10.5755H17.8703V12.9064H18.239V10.5755H18.8488V10.1103H18.239V9.48694H17.8669V10.1103H17.2571H17.2605Z" fill="#FFFF00"/>
<path fill-rule="evenodd" clip-rule="evenodd" d="M17.8487 9.46216H18.2578V10.0855H18.8676V10.6002H18.2578V12.931H17.8521V10.6002H17.2423V10.1102H17.2574V10.0855H17.8487V9.46216ZM17.2794 10.1349H17.8857V9.51155H18.2208V10.1349H18.8306V10.5508H18.2208V12.8816H17.8892V10.5508H17.2794V10.1349Z" fill="black"/>
<path fill-rule="evenodd" clip-rule="evenodd" d="M19.2146 11.5067C18.7184 11.4689 18.2212 11.5571 17.7496 11.7667C17.7496 11.2867 18.1696 10.7267 18.8896 10.7267C19.0496 10.7267 19.2146 11.2467 19.2146 11.5067V11.5067Z" fill="#DA4500"/>
<path fill-rule="evenodd" clip-rule="evenodd" d="M12.8629 19.7658C12.6872 19.2608 12.6913 19.0997 13.0038 19.6775L16.7691 29.195L16.6538 29.2384L12.8648 19.7678L12.8629 19.7658Z" fill="#008500"/>
<path fill-rule="evenodd" clip-rule="evenodd" d="M12.8673 19.76C12.8238 19.6348 12.7915 19.5312 12.7722 19.455C12.7626 19.4167 12.7563 19.3857 12.7536 19.3625C12.7522 19.351 12.7517 19.3417 12.7521 19.3347C12.7524 19.3276 12.7536 19.3237 12.7547 19.3218C12.7556 19.3203 12.7569 19.3192 12.7595 19.3194C12.7625 19.3197 12.7668 19.3217 12.7726 19.3264C12.7843 19.3357 12.8002 19.3541 12.8209 19.383C12.8621 19.4408 12.9207 19.5384 12.9986 19.6825L16.7596 29.1892L16.6563 29.2281L12.869 19.7618L12.8673 19.76ZM12.829 19.3702C12.871 19.4289 12.9301 19.5276 13.0083 19.6721L13.0085 19.6727L16.7781 29.2011L16.6508 29.2489L12.8601 19.7741L12.858 19.7719L12.8573 19.7698C12.8133 19.6434 12.7805 19.5383 12.7609 19.4607C12.7511 19.4219 12.7446 19.3897 12.7416 19.3649C12.7402 19.3525 12.7395 19.3417 12.74 19.3326C12.7404 19.3237 12.7419 19.3155 12.7453 19.3097C12.749 19.3034 12.7541 19.3009 12.7598 19.3015C12.7653 19.302 12.7714 19.3053 12.778 19.3106C12.7912 19.3211 12.8081 19.3409 12.829 19.3702Z" fill="black"/>
<path fill-rule="evenodd" clip-rule="evenodd" d="M15.4199 26.0265C15.4599 25.3199 14.4899 24.5599 14.4499 24.6065C14.4149 24.6599 14.5099 25.0732 14.6949 25.2799C14.3449 25.0399 13.9749 24.8932 13.9649 24.9932C13.9349 25.1399 14.5149 25.4732 14.5649 25.6065C14.5649 25.6999 14.1349 25.6865 14.1449 25.7799C14.1549 25.8732 15.3599 26.6865 15.4199 26.0265ZM14.4499 23.9732C14.4899 23.2665 13.5199 22.5065 13.4849 22.5532C13.4449 22.5999 13.5399 23.0132 13.7249 23.2265C13.3749 22.9865 13.0049 22.8332 12.9949 22.9399C12.9699 23.0799 13.5449 23.4199 13.5949 23.5532C13.5999 23.6465 13.1699 23.6332 13.1749 23.7265C13.1849 23.8199 14.3899 24.6265 14.4499 23.9732ZM13.7099 22.1065C13.7499 21.3999 12.7799 20.6399 12.7399 20.6865C12.7049 20.7332 12.7999 21.1465 12.9849 21.3599C12.6349 21.1199 12.2649 20.9665 12.2549 21.0732C12.2299 21.2132 12.8049 21.5532 12.8549 21.6865C12.8549 21.7799 12.4299 21.7665 12.4349 21.8599C12.4449 21.9532 13.6499 22.7665 13.7099 22.1065ZM12.9799 20.0799C13.0149 19.3799 12.0499 18.6132 12.0099 18.6599C11.9699 18.7132 12.0699 19.1265 12.2499 19.3399C11.8999 19.0932 11.5299 18.9465 11.5249 19.0532C11.4949 19.1932 12.0749 19.5332 12.1199 19.6599C12.1249 19.7532 11.6949 19.7465 11.7049 19.8399C11.7099 19.9332 12.9149 20.7399 12.9799 20.0799V20.0799Z" fill="#008F00"/>
<path fill-rule="evenodd" clip-rule="evenodd" d="M13.2298 19.9933C13.6998 19.6133 13.6048 18.1666 13.5548 18.1533C13.4998 18.1466 13.2948 18.4866 13.2698 18.8066C13.2148 18.2999 13.0898 17.8333 13.0198 17.8866C12.9148 17.9399 13.0398 18.7333 12.9848 18.8599C12.9348 18.9266 12.6848 18.4733 12.6348 18.5399C12.5748 18.6066 12.7748 20.3199 13.2348 19.9933H13.2298ZM13.9098 21.7666C14.4498 21.6066 14.7448 20.2066 14.6948 20.1733C14.6448 20.1399 14.3648 20.3733 14.2598 20.6666C14.3398 20.1666 14.3448 19.6733 14.2598 19.6933C14.1448 19.6999 14.0598 20.4999 13.9748 20.5933C13.9098 20.6333 13.7898 20.1066 13.7248 20.1399C13.6548 20.1799 13.3948 21.8799 13.9098 21.7666ZM14.7198 23.58C15.2148 23.26 15.2198 21.8066 15.1698 21.7933C15.1198 21.7733 14.8948 22.0933 14.8448 22.4066C14.8248 21.8933 14.7348 21.4199 14.6598 21.4666C14.5498 21.5066 14.6198 22.3066 14.5598 22.4266C14.4998 22.4866 14.2848 22.0066 14.2248 22.0666C14.1648 22.1199 14.2448 23.8533 14.7248 23.58H14.7198ZM15.5998 25.9533C16.1148 25.6933 16.2398 24.2533 16.1898 24.2266C16.1398 24.2066 15.8898 24.4933 15.8148 24.7999C15.8348 24.2866 15.7848 23.7999 15.7048 23.8399C15.5898 23.8666 15.5998 24.6733 15.5298 24.7866C15.4648 24.8333 15.2898 24.3333 15.2298 24.3866C15.1648 24.4266 15.1048 26.1666 15.5998 25.9533V25.9533Z" fill="#008F00"/>
<path fill-rule="evenodd" clip-rule="evenodd" d="M16.7339 28.427C16.6029 28.7259 16.1886 28.753 15.8035 28.4791C15.4185 28.2052 15.2191 27.7416 15.3501 27.4427C15.4811 27.1437 15.8985 27.1188 16.2805 27.3906C16.6626 27.6623 16.8649 28.128 16.7339 28.427Z" fill="#FF1900"/>
<path fill-rule="evenodd" clip-rule="evenodd" d="M15.7216 27.227C15.5566 27.2364 15.4273 27.3154 15.3664 27.4544C15.3054 27.5936 15.3198 27.7747 15.3997 27.9582C15.4794 28.1412 15.6227 28.3227 15.8128 28.4579C16.0029 28.5931 16.1993 28.6534 16.3634 28.6437C16.5279 28.634 16.6565 28.5546 16.7175 28.4155C16.7784 28.2764 16.7633 28.0948 16.6831 27.911C16.603 27.7276 16.4596 27.5462 16.2711 27.412C16.0825 27.2779 15.8861 27.2176 15.7216 27.227ZM15.7207 27.1785C15.8931 27.1686 16.0963 27.2317 16.2898 27.3694C16.4833 27.507 16.6321 27.6943 16.716 27.8865C16.7996 28.0781 16.8202 28.2789 16.7502 28.4387C16.6801 28.5985 16.5361 28.6821 16.3644 28.6922C16.1923 28.7024 15.9891 28.6392 15.7941 28.5005C15.5991 28.3618 15.4503 28.1746 15.3668 27.9826C15.2834 27.7911 15.2637 27.591 15.3337 27.4312C15.4038 27.2713 15.5487 27.1883 15.7207 27.1785Z" fill="black"/>
<path fill-rule="evenodd" clip-rule="evenodd" d="M26.6757 18.4141L26.7405 18.191L26.9151 18.2643L26.9799 18.0412L27.1545 18.1145L27.0906 18.3345L27.2702 18.4099L27.2045 18.6361L27.0249 18.5607L26.8633 19.1168L26.6887 19.0435L26.8503 18.4874L26.6757 18.4141V18.4141ZM26.3006 20.3789L26.4752 20.4522L24.599 26.909L24.4244 26.8357L26.3006 20.3789Z" fill="#FFFF00"/>
<path fill-rule="evenodd" clip-rule="evenodd" d="M26.9762 18.0306L27.1631 18.109L27.0992 18.329L27.2788 18.4044L27.2084 18.6466L27.0288 18.5712L26.8672 19.1273L26.6803 19.0489L26.842 18.4927L26.6735 18.422L26.6758 18.414L26.6697 18.4114L26.7368 18.1804L26.9114 18.2537L26.9762 18.0306ZM26.6842 18.4086L26.8589 18.4819L26.6973 19.038L26.8596 19.1062L27.0212 18.5501L27.2008 18.6255L27.2619 18.4152L27.0823 18.3398L27.1462 18.1199L26.9839 18.0517L26.919 18.2748L26.7444 18.2015L26.6842 18.4086ZM26.297 20.3682L26.4838 20.4467L24.603 26.9195L24.4161 26.841L26.297 20.3682ZM26.3046 20.3894L24.433 26.8302L24.5954 26.8984L26.4669 20.4575L26.3046 20.3894Z" fill="black"/>
<path fill-rule="evenodd" clip-rule="evenodd" d="M24.3665 26.6879L24.7207 26.8366L24.2031 28.6181L23.8489 28.4694L24.3665 26.6879ZM26.4492 19.1932L26.9805 19.4163C27.3322 19.564 26.5346 20.604 26.5346 20.604L26.1829 20.4563C26.1829 20.4563 26.095 19.0445 26.4492 19.1932V19.1932ZM26.9375 19.2079C26.9101 19.3021 26.8109 19.3451 26.7136 19.3042C26.6163 19.2634 26.5584 19.1544 26.5849 19.0633C26.6114 18.9722 26.7115 18.9261 26.8088 18.967C26.9061 19.0078 26.964 19.1167 26.9366 19.211L26.9375 19.2079Z" fill="#FFFF00"/>
<path fill-rule="evenodd" clip-rule="evenodd" d="M26.6723 18.9735C26.6332 18.9907 26.6035 19.0234 26.5912 19.0658C26.5789 19.1082 26.5859 19.1554 26.6084 19.1976C26.6309 19.2398 26.6686 19.2762 26.7161 19.2962C26.7635 19.3161 26.8112 19.3155 26.8501 19.2987C26.8885 19.2821 26.918 19.2501 26.931 19.2068C26.9432 19.1633 26.9362 19.1159 26.9141 19.0738C26.8917 19.0313 26.8541 18.9948 26.8066 18.9749C26.7592 18.955 26.7113 18.9564 26.6723 18.9735ZM26.9437 19.2104C26.9571 19.161 26.9486 19.1087 26.9251 19.064C26.901 19.0183 26.8611 18.9798 26.8113 18.9589C26.7614 18.938 26.7106 18.9392 26.6686 18.9577C26.6266 18.9761 26.593 19.012 26.5789 19.0607C26.5647 19.1095 26.5734 19.1623 26.5975 19.2075C26.6085 19.2282 26.6228 19.2474 26.6398 19.2641L26.4517 19.1851C26.4059 19.1659 26.3665 19.1717 26.333 19.1976C26.2999 19.2232 26.2735 19.2679 26.2524 19.3245C26.2103 19.4374 26.188 19.6013 26.1768 19.7686C26.1657 19.9362 26.1656 20.1084 26.1683 20.2386C26.1697 20.3037 26.1717 20.3584 26.1734 20.3968C26.1743 20.4159 26.1751 20.4311 26.1756 20.4414C26.1759 20.4466 26.1761 20.4505 26.1763 20.4532L26.1765 20.4563L26.1765 20.4572C26.1765 20.4573 26.1765 20.4573 26.1831 20.4562L26.1765 20.4573L26.1769 20.4626L26.5363 20.6135L26.5393 20.6096L26.5348 20.6039C26.5393 20.6096 26.5393 20.6096 26.5393 20.6096L26.5399 20.6089L26.5416 20.6066C26.5431 20.6046 26.5454 20.6017 26.5483 20.5978C26.554 20.5902 26.5624 20.5789 26.573 20.5645C26.5942 20.5357 26.624 20.4945 26.6587 20.4445C26.7281 20.3446 26.8169 20.2097 26.8949 20.0701C26.9727 19.9307 27.04 19.7858 27.0657 19.6659C27.0785 19.606 27.0811 19.5513 27.0686 19.5065C27.0561 19.4613 27.0284 19.4273 26.983 19.4082L26.7917 19.3279C26.8136 19.3274 26.8346 19.3228 26.8537 19.3146C26.8947 19.2969 26.9278 19.2621 26.9428 19.2135L26.9437 19.2104ZM26.447 19.2011C26.4042 19.1832 26.3689 19.189 26.3394 19.2118C26.3095 19.2349 26.2847 19.2761 26.2642 19.3311C26.2232 19.441 26.201 19.6022 26.1899 19.7692C26.1788 19.9359 26.1787 20.1074 26.1814 20.2373C26.1828 20.3022 26.1848 20.3567 26.1865 20.395C26.1874 20.4141 26.1881 20.4291 26.1887 20.4394C26.1889 20.4438 26.1891 20.4473 26.1893 20.4499L26.5332 20.5943C26.5346 20.5924 26.5366 20.5898 26.539 20.5865C26.5448 20.5789 26.5531 20.5677 26.5637 20.5533C26.5848 20.5247 26.6145 20.4835 26.6491 20.4337C26.7183 20.334 26.8068 20.1997 26.8843 20.0608C26.962 19.9217 27.0281 19.7789 27.053 19.6623C27.0655 19.604 27.0675 19.5532 27.0563 19.5128C27.0452 19.4729 27.0208 19.442 26.9783 19.4242L26.447 19.2011ZM24.3629 26.6773L24.7293 26.8312L24.207 28.6287L23.8406 28.4748L24.3629 26.6773ZM24.7124 26.842L24.3705 26.6984L23.8575 28.464L24.1994 28.6075L24.7124 26.842Z" fill="black"/>
<path fill-rule="evenodd" clip-rule="evenodd" d="M24.6509 27.6132C24.7993 27.8987 24.6281 28.3801 24.2604 28.6904C23.8927 29.0006 23.478 29.0136 23.3296 28.7282C23.1812 28.4427 23.3553 27.9588 23.7201 27.651C24.0849 27.3432 24.5025 27.3278 24.6509 27.6132Z" fill="#FF1900"/>
<path fill-rule="evenodd" clip-rule="evenodd" d="M23.3497 28.2086C23.2806 28.3996 23.2763 28.5822 23.3453 28.7151C23.4145 28.848 23.5474 28.9148 23.712 28.9086C23.8762 28.9024 24.0685 28.8233 24.2499 28.6702C24.4314 28.5171 24.5636 28.3223 24.6321 28.1322C24.7008 27.9415 24.7045 27.7595 24.6353 27.6266C24.5663 27.4937 24.4327 27.4275 24.2677 27.434C24.1031 27.4405 23.9108 27.5196 23.7308 27.6715C23.5508 27.8234 23.4186 28.0181 23.3497 28.2086ZM23.3153 28.1876C23.3876 27.9879 23.5248 27.7868 23.7096 27.6309C23.8944 27.4749 24.0933 27.3924 24.2659 27.3856C24.438 27.3788 24.5874 27.4476 24.6667 27.6001C24.7459 27.7526 24.7382 27.9541 24.6664 28.1531C24.5945 28.3526 24.4573 28.5537 24.271 28.7108C24.0848 28.8679 23.8859 28.9505 23.7137 28.957C23.5419 28.9635 23.3933 28.894 23.314 28.7415C23.2347 28.5889 23.2433 28.3869 23.3153 28.1876Z" fill="black"/>
</g>
<rect x="2" y="2" width="36" height="36" rx="18" stroke="white" stroke-width="4"/>
<defs>
<clipPath id="clip0_90_24682">
<rect x="4" y="4" width="32" height="32" rx="16" fill="white"/>
</clipPath>
</defs>
</svg>
