<svg width="40" height="40" viewBox="0 0 40 40" fill="none" xmlns="http://www.w3.org/2000/svg">
<g clip-path="url(#clip0_90_24552)">
<path fill-rule="evenodd" clip-rule="evenodd" d="M4 4H35.995V36H4V4Z" fill="#3B5AA3"/>
<path fill-rule="evenodd" clip-rule="evenodd" d="M4 35.1333L35.995 4V9.8L4 36V35.1333Z" fill="#E2AE57"/>
<path fill-rule="evenodd" clip-rule="evenodd" d="M5.11988 36.0001L35.9999 15.9468L35.9949 9.58009L3.99988 36.0001H5.11988ZM12.7699 5.01343L12.4499 11.8668L11.0999 7.49343L11.6199 12.1468L9.52488 8.38676L10.8999 12.6734L8.14988 9.83343L10.2899 13.4068L7.18488 11.5668L9.90488 14.3134L6.51988 13.7134L9.71988 15.4068L4.69988 16.0201L9.72988 16.4668L6.54488 18.2134L9.89488 17.6134L7.17988 20.2801L10.3299 18.4401L8.17988 22.0401L10.9099 19.2868L9.55988 23.4801L11.7399 19.8334L11.1499 24.3734L12.5249 20.1268L12.8349 26.8401L13.3199 20.1468L14.5049 24.4134L14.0549 19.8134L16.2249 23.4668L14.7949 19.2001L17.5249 22.1334L15.3549 18.4734L18.5999 20.2734L15.7299 17.4801L19.2249 18.2668L15.8749 16.5534L21.0799 16.1201L15.8799 15.4734L19.3049 13.9534L15.7549 14.5534L18.6849 11.8201L15.3849 13.5868L17.6649 9.90009L14.8849 12.7934L16.2199 8.36676L14.0649 12.1268L14.5299 7.43343L13.2449 11.8668L12.7649 5.01343H12.7699Z" fill="white"/>
</g>
<rect x="2" y="2" width="36" height="36" rx="18" stroke="white" stroke-width="4"/>
<defs>
<clipPath id="clip0_90_24552">
<rect x="4" y="4" width="32" height="32" rx="16" fill="white"/>
</clipPath>
</defs>
</svg>
