<svg width="40" height="40" viewBox="0 0 40 40" fill="none" xmlns="http://www.w3.org/2000/svg">
<g clip-path="url(#clip0_90_24547)">
<path d="M4 4H36V36H4V4Z" fill="#D20000"/>
<path d="M4 4H8.8L20 19.4267L31.2 4H36L4 36H8.8L20 20.5733L31.2 36H36L4 4ZM36 16.8V23.2L4 16.8V23.2L36 16.8ZM18 4L20 17.7133L22 4H18ZM18 36L20 22.2867L22 36H18Z" fill="#FFE600"/>
<path d="M19.9999 25.14C22.129 25.14 23.8549 22.8387 23.8549 20C23.8549 17.1612 22.129 14.86 19.9999 14.86C17.8708 14.86 16.1449 17.1612 16.1449 20C16.1449 22.8387 17.8708 25.14 19.9999 25.14Z" fill="#FFE600"/>
<path fill-rule="evenodd" clip-rule="evenodd" d="M19.9995 15.43C18.1066 15.43 16.572 17.4761 16.572 20C16.572 22.524 18.1066 24.57 19.9995 24.57C21.8925 24.57 23.427 22.524 23.427 20C23.427 17.4761 21.8925 15.43 19.9995 15.43ZM15.717 20C15.717 16.8465 17.6344 14.29 19.9995 14.29C22.3647 14.29 24.282 16.8465 24.282 20C24.282 23.1536 22.3647 25.71 19.9995 25.71C17.6344 25.71 15.717 23.1536 15.717 20Z" fill="#D20000"/>
</g>
<rect x="2" y="2" width="36" height="36" rx="18" stroke="white" stroke-width="4"/>
<defs>
<clipPath id="clip0_90_24547">
<rect x="4" y="4" width="32" height="32" rx="16" fill="white"/>
</clipPath>
</defs>
</svg>
