<svg width="40" height="40" viewBox="0 0 40 40" fill="none" xmlns="http://www.w3.org/2000/svg">
<g clip-path="url(#clip0_90_24524)">
<path d="M4 4H36V36H4V4Z" fill="#DA2032"/>
<path d="M14.665 4H25.335V36H14.665V4Z" fill="#0066B3"/>
<path d="M9.33472 18.7867C10.4393 18.7867 11.3347 17.5928 11.3347 16.12C11.3347 14.6473 10.4393 13.4534 9.33472 13.4534C8.23015 13.4534 7.33472 14.6473 7.33472 16.12C7.33472 17.5928 8.23015 18.7867 9.33472 18.7867Z" fill="#FFD900"/>
<path d="M9.33479 17.8133C10.5388 17.8133 11.5148 16.512 11.5148 14.9067C11.5148 13.3014 10.5388 12 9.33479 12C8.1308 12 7.15479 13.3014 7.15479 14.9067C7.15479 16.512 8.1308 17.8133 9.33479 17.8133Z" fill="#DA2032"/>
<path d="M9.33452 17.3334C10.1381 17.3334 10.7895 16.4648 10.7895 15.3934C10.7895 14.3219 10.1381 13.4534 9.33452 13.4534C8.53094 13.4534 7.87952 14.3219 7.87952 15.3934C7.87952 16.4648 8.53094 17.3334 9.33452 17.3334Z" fill="#FFD900"/>
<path d="M9.48496 9.09338C9.41115 9.13644 9.34775 9.20599 9.30184 9.29428C9.25593 9.38256 9.22932 9.48611 9.22496 9.59338C9.21496 9.76005 9.26996 9.94672 9.27496 10.1067C9.27496 10.3867 9.05996 10.4801 9.05996 10.8734C9.05996 11.0067 9.15496 11.1601 9.15496 11.5134C9.13496 11.7001 9.05496 11.7467 8.96996 11.7601C8.9459 11.7601 8.92207 11.7536 8.8999 11.7412C8.87773 11.7287 8.85766 11.7104 8.84088 11.6874C8.8241 11.6644 8.81095 11.6372 8.8022 11.6073C8.79345 11.5774 8.78929 11.5455 8.78996 11.5134C8.78983 11.4513 8.80775 11.3916 8.83996 11.3467C8.84627 11.3394 8.85295 11.3328 8.85996 11.3267C8.89996 11.2667 8.95996 11.2467 8.95996 11.1001C8.95996 11.0267 8.91996 10.9534 8.88496 10.8201C8.84996 10.6867 8.87496 10.4734 8.95496 10.3467C8.82496 10.4134 8.74996 10.5734 8.70496 10.7201C8.66496 10.9001 8.70496 11.0001 8.64496 11.1534C8.60996 11.2467 8.56996 11.2867 8.52996 11.3667C8.47996 11.4601 8.42996 11.6601 8.42996 11.7601C8.44697 12.0654 8.54997 12.351 8.71828 12.5593C8.8866 12.7677 9.10778 12.8835 9.33746 12.8835C9.56714 12.8835 9.78832 12.7677 9.95664 12.5593C10.125 12.351 10.2279 12.0654 10.245 11.7601C10.245 11.6601 10.19 11.4601 10.145 11.3667C10.1 11.2867 10.06 11.2467 10.025 11.1534C9.96496 11.0001 10.005 10.9001 9.95996 10.7201C9.91996 10.5734 9.84496 10.4134 9.71496 10.3467C9.79496 10.4801 9.81496 10.6934 9.78496 10.8201C9.74996 10.9534 9.71496 11.0201 9.71496 11.1001C9.71496 11.2467 9.76996 11.2667 9.81496 11.3267C9.82025 11.333 9.82526 11.3397 9.82996 11.3467C9.86217 11.3916 9.88009 11.4513 9.87996 11.5134C9.88063 11.5455 9.87647 11.5774 9.86772 11.6073C9.85898 11.6372 9.84582 11.6644 9.82904 11.6874C9.81226 11.7104 9.79219 11.7287 9.77002 11.7412C9.74785 11.7536 9.72403 11.7601 9.69996 11.7601C9.59996 11.7401 9.52496 11.6801 9.51496 11.5134C9.51496 11.0467 9.66496 11.0201 9.66496 10.6734C9.66496 10.1801 9.33496 9.94672 9.33496 9.58672C9.33496 9.46672 9.35496 9.25338 9.48496 9.09338V9.09338ZM5.33496 19.2667H7.14996V30.9001H5.33496V19.2667ZM11.515 19.2667H13.335V30.9001H11.515V19.2667ZM7.51496 19.2667H11.15L9.33496 20.7201L7.51496 19.2667ZM7.51496 21.2001H11.15V22.1734H7.51496V21.2001ZM7.51496 27.9934H11.15V28.9667H7.51496V27.9934ZM7.51496 29.4467H11.15L9.33496 30.9001L7.51496 29.4467Z" fill="#FFD900"/>
<path d="M9.33465 27.5201C10.3398 27.5201 11.1546 26.4336 11.1546 25.0934C11.1546 23.7532 10.3398 22.6667 9.33465 22.6667C8.32949 22.6667 7.51465 23.7532 7.51465 25.0934C7.51465 26.4336 8.32949 27.5201 9.33465 27.5201Z" fill="#FFD900"/>
<path d="M9.33287 24.289C9.5337 24.289 9.69651 24.072 9.69651 23.8042C9.69651 23.5364 9.5337 23.3193 9.33287 23.3193C9.13204 23.3193 8.96924 23.5364 8.96924 23.8042C8.96924 24.072 9.13204 24.289 9.33287 24.289Z" fill="#DA2032"/>
<path d="M9.33287 26.8587C9.5337 26.8587 9.69651 26.6417 9.69651 26.3739C9.69651 26.1061 9.5337 25.889 9.33287 25.889C9.13204 25.889 8.96924 26.1061 8.96924 26.3739C8.96924 26.6417 9.13204 26.8587 9.33287 26.8587Z" fill="#DA2032"/>
<path d="M9.33273 22.3739C9.61724 22.3739 9.89009 22.5246 10.0913 22.7928C10.2924 23.0611 10.4055 23.4249 10.4055 23.8042C10.4055 24.1835 10.2924 24.5473 10.0913 24.8156C9.89009 25.0838 9.61724 25.2345 9.33273 25.2345C9.10609 25.2345 8.88874 25.3545 8.72848 25.5682C8.56822 25.7819 8.47819 26.0717 8.47819 26.3739C8.47819 26.6761 8.56822 26.9659 8.72848 27.1796C8.88874 27.3932 9.10609 27.5133 9.33273 27.5133V27.8042C9.04823 27.8042 8.77538 27.6535 8.5742 27.3853C8.37303 27.117 8.26001 26.7532 8.26001 26.3739C8.26001 25.9945 8.37303 25.6307 8.5742 25.3625C8.77538 25.0943 9.04823 24.9436 9.33273 24.9436C9.55937 24.9436 9.77673 24.8235 9.93699 24.6099C10.0972 24.3962 10.1873 24.1064 10.1873 23.8042C10.1873 23.502 10.0972 23.2122 9.93699 22.9985C9.77673 22.7849 9.55937 22.6648 9.33273 22.6648V22.3739Z" fill="#DA2032"/>
</g>
<rect x="2" y="2" width="36" height="36" rx="18" stroke="white" stroke-width="4"/>
<defs>
<clipPath id="clip0_90_24524">
<rect x="4" y="4" width="32" height="32" rx="16" fill="white"/>
</clipPath>
</defs>
</svg>
