<svg width="40" height="40" viewBox="0 0 40 40" fill="none" xmlns="http://www.w3.org/2000/svg">
<g clip-path="url(#clip0_90_24518)">
<path d="M4 4H36V36H4V4Z" fill="#00785E"/>
<path d="M18.75 11.2467L20.775 13.2134L20 10.0334L19.225 13.2134L21.255 11.2467H18.75Z" fill="#FBD116"/>
<path d="M20.0002 26.1067H14.8752C14.8106 26.0194 14.7473 25.9305 14.6852 25.84H20.0002C20.0208 25.8497 20.0387 25.8678 20.0512 25.8917C20.0638 25.9156 20.0704 25.9441 20.0702 25.9733C20.0702 26.0267 20.0452 26.0867 20.0002 26.1067ZM20.0002 24.02C20.0581 23.863 20.079 23.6864 20.0602 23.5133C20.0506 23.4251 20.0303 23.3396 20.0002 23.26C19.5395 23.8445 18.9832 24.2782 18.3752 24.5267C17.9942 24.681 17.5983 24.7596 17.2002 24.76H14.0452C14.1373 24.9421 14.234 25.12 14.3352 25.2933H17.3852C18.3852 25.2933 19.2952 24.8133 20.0002 24.02V24.02ZM14.5202 22.3733C14.3646 22.4507 14.201 22.4957 14.0352 22.5067C14.4152 23.0826 14.8828 23.544 15.407 23.8601C15.9312 24.1762 16.4999 24.3398 17.0752 24.34C17.6219 24.3402 18.163 24.1926 18.6657 23.9061C19.1684 23.6196 19.6224 23.2003 20.0002 22.6733C20.1407 21.3748 20.2159 20.0652 20.2252 18.7533C20.2372 17.2434 20.162 15.7345 20.0002 14.24C19.6702 14.64 19.0502 15.4867 18.7602 16.7933C18.6514 17.2937 18.5975 17.8124 18.6002 18.3333C18.6 19.4018 18.8385 20.4462 19.2852 21.3333C18.7348 20.3898 18.4357 19.2287 18.4352 18.0333C18.4352 17.2067 18.5752 16.42 18.8252 15.72C18.6512 15.4741 18.5228 15.1773 18.4502 14.8533C18.1044 15.6663 17.9235 16.5854 17.9252 17.52C17.9252 18.72 18.2202 19.8333 18.7202 20.7267C18.2499 20.0677 17.6787 19.5516 17.0454 19.2134C16.4121 18.8752 15.7316 18.7228 15.0502 18.7667C15.1883 18.9368 15.3034 19.1375 15.3902 19.36C16.0315 19.361 16.6661 19.5352 17.2556 19.8721C17.8451 20.2089 18.3773 20.7015 18.8202 21.32C17.9654 20.3645 16.8856 19.8405 15.7702 19.84C15.1404 19.8384 14.5166 20.0038 13.9352 20.3267C14.247 21.4258 14.8186 22.3598 15.5637 22.9876C16.3087 23.6154 17.1868 23.9029 18.0652 23.8067C17.8302 23.86 17.5902 23.8933 17.3452 23.8933C16.2926 23.8958 15.2808 23.3505 14.5252 22.3733H14.5202ZM20.0002 28.2933H17.3452C18.1902 28.74 19.0912 28.9685 20.0002 28.9667C20.0414 28.864 20.0637 28.7497 20.0652 28.6333C20.0645 28.5146 20.0422 28.398 20.0002 28.2933V28.2933ZM20.0002 26.66H15.3202C15.4466 26.8037 15.5766 26.9416 15.7102 27.0733H20.0002C20.0406 27.0178 20.0638 26.944 20.0652 26.8667C20.0662 26.828 20.061 26.7895 20.0498 26.7538C20.0385 26.7181 20.0216 26.6861 20.0002 26.66ZM20.0002 27.4933H16.1652C16.3973 27.6893 16.6377 27.8674 16.8852 28.0267H20.0002C20.0403 27.9432 20.0612 27.8458 20.0602 27.7467C20.0577 27.6565 20.0369 27.569 20.0002 27.4933V27.4933Z" fill="white"/>
<path d="M14.0251 15.6534L15.2951 17.2267L14.9601 14.96L14.2301 17.0534L15.7451 15.9334L14.0251 15.6534ZM15.8701 13.52L17.6051 13.56L16.2201 12.16L16.7251 14.38L17.2901 12.1867L15.8701 13.52Z" fill="#FBD116"/>
</g>
<rect x="2" y="2" width="36" height="36" rx="18" stroke="white" stroke-width="4"/>
<defs>
<clipPath id="clip0_90_24518">
<rect x="4" y="4" width="32" height="32" rx="16" fill="white"/>
</clipPath>
</defs>
</svg>
