<svg width="40" height="40" viewBox="0 0 40 40" fill="none" xmlns="http://www.w3.org/2000/svg">
<g clip-path="url(#clip0_90_24349)">
<path d="M3.99976 4H35.9998V36H3.99976V4Z" fill="#012169"/>
<path d="M23.2441 11.4H33.5191L33.5041 21.1534C33.5891 25.0667 31.7591 27.5 28.3891 28.6C25.9941 27.8 23.2391 26.1667 23.2291 21.2667L23.2441 11.4V11.4Z" fill="white"/>
<path d="M23.4696 11.6934H33.2896L33.2796 21.04C33.3596 24.7934 31.6096 27.12 28.3896 28.1734C26.0996 27.4134 23.4646 25.84 23.4596 21.1467L23.4696 11.6934V11.6934Z" fill="#00A2BD"/>
<path fill-rule="evenodd" clip-rule="evenodd" d="M23.5147 11.7534L23.5048 21.1466C23.5073 23.4758 24.1615 25.0258 25.0971 26.0894C26.0318 27.1519 27.2501 27.7322 28.3899 28.1115C29.9896 27.5863 31.2193 26.7467 32.0394 25.5782C32.8604 24.4085 33.2745 22.9044 33.2348 21.0417L33.2348 21.0408L33.2447 11.7534H23.5147ZM23.4698 11.6934V11.6334H33.3349L33.3248 21.0392C33.3649 22.9294 32.944 24.4651 32.1052 25.6602C31.2672 26.8541 30.0156 27.7033 28.4005 28.2316L28.3897 28.2352L28.3789 28.2316C27.2318 27.8509 25.9923 27.2648 25.0387 26.1807C24.083 25.0943 23.4173 23.5109 23.4148 21.1468V21.1466L23.4248 11.6933L23.4698 11.6934Z" fill="black"/>
<path d="M33.2142 22.1467C32.8542 25.7267 30.7842 27.2933 28.3892 28.1267C26.2642 27.3667 23.9792 26.1533 23.5392 22.16L33.2142 22.1467Z" fill="#A53D08"/>
<path d="M27.9996 13.4333L27.9846 12.26L28.6846 12.2667L28.6896 13.4333H30.5996L30.6046 14.3467L28.6896 14.36L28.6746 25.12L27.9946 25.1267L27.9846 14.3467L26.0846 14.36V13.4267L27.9996 13.4333Z" fill="black"/>
<path fill-rule="evenodd" clip-rule="evenodd" d="M26.4498 22.5867L28.1998 25.0067C28.8048 24.12 28.3848 20.8067 27.5898 20.2C27.4948 20.5934 27.3348 21.0667 27.1598 21.2134C26.7848 21.56 25.8548 21.96 26.1648 22.2134C26.2348 22.0867 26.4198 21.9667 26.5098 22.2534C26.6098 22.7134 26.1198 22.74 26.1198 22.74C26.1198 22.74 25.8098 22.6867 25.7548 22.2734C25.7048 21.8467 26.2198 21.46 26.2648 21.4334C26.3048 21.4134 26.9798 21.1667 27.0948 20.3734C27.2398 19.5867 27.3848 19.7067 27.4098 19.6934C28.2948 19.8067 28.8698 21.9134 28.9048 23.3934C28.9348 24.8734 28.4548 25.86 28.3648 25.9267C28.2798 25.9867 26.2648 22.7334 26.2648 22.7334L26.4548 22.5867H26.4498Z" fill="#FF9A08"/>
<path fill-rule="evenodd" clip-rule="evenodd" d="M27.4069 19.6662L27.4118 19.6668C27.639 19.6959 27.8449 19.8528 28.026 20.0922C28.207 20.3316 28.3642 20.6547 28.4942 21.0194C28.7542 21.7487 28.9073 22.649 28.9249 23.3925L28.9249 23.3926C28.9399 24.1366 28.8268 24.7568 28.6985 25.1996C28.6344 25.421 28.5663 25.5983 28.5085 25.7247C28.4796 25.7879 28.4531 25.8387 28.4308 25.876C28.4196 25.8947 28.4094 25.9102 28.4002 25.9224C28.3913 25.9342 28.3826 25.944 28.3746 25.95L28.3742 25.9503C28.3669 25.9554 28.3596 25.9544 28.3552 25.9532C28.3505 25.9518 28.346 25.9492 28.3421 25.9464C28.3341 25.9409 28.3249 25.9322 28.3149 25.9216C28.2946 25.9002 28.2679 25.8675 28.2362 25.8257C28.1725 25.7419 28.0865 25.6193 27.986 25.4709C27.785 25.1741 27.525 24.7728 27.2678 24.3698C27.0105 23.9668 26.7559 23.5619 26.5657 23.2578C26.4705 23.1058 26.3915 22.9789 26.3362 22.8901C26.3086 22.8456 26.2869 22.8107 26.2721 22.7869L26.2495 22.7504C26.2495 22.7504 26.2494 22.7503 26.2607 22.7379L26.2495 22.7504L26.2448 22.7429C26.2282 22.7479 26.2124 22.7519 26.1981 22.755C26.1754 22.76 26.1562 22.7629 26.1426 22.7645C26.1358 22.7654 26.1304 22.7659 26.1266 22.7662C26.1248 22.7664 26.1233 22.7665 26.1223 22.7666L26.1211 22.7666L26.1208 22.7667L26.1207 22.7667C26.1207 22.7667 26.1207 22.7667 26.1199 22.74C26.1173 22.7665 26.1173 22.7665 26.1173 22.7665L26.1172 22.7665L26.1169 22.7664L26.1161 22.7663C26.1154 22.7661 26.1144 22.7659 26.1132 22.7657C26.1107 22.7651 26.1071 22.7643 26.1026 22.7631C26.0935 22.7607 26.0806 22.7568 26.065 22.7509C26.034 22.739 25.9919 22.7186 25.948 22.6848C25.8598 22.6169 25.7639 22.4942 25.7352 22.278L25.7351 22.2775C25.7217 22.1629 25.7464 22.0526 25.7898 21.9525C25.8332 21.8525 25.8959 21.7612 25.9609 21.6835C26.0905 21.5284 26.2323 21.4235 26.2567 21.409L26.2573 21.4087L26.2578 21.4084C26.2604 21.4071 26.265 21.4051 26.2716 21.4023C26.3208 21.381 26.4769 21.3133 26.6408 21.171C26.8264 21.0099 27.0191 20.7552 27.0752 20.3683L27.0753 20.3676L27.0754 20.367C27.1481 19.973 27.2217 19.7994 27.2839 19.7237C27.3157 19.6849 27.3446 19.6717 27.3682 19.6681C27.3797 19.6664 27.3894 19.667 27.3962 19.6675L27.3963 19.6675C27.3998 19.6678 27.4019 19.6679 27.4035 19.6679C27.4036 19.6679 27.4037 19.6679 27.4038 19.6679L27.4069 19.6662ZM27.4045 19.6678C27.4045 19.6678 27.4045 19.6678 27.4044 19.6678ZM26.1199 22.74L26.1173 22.7665L26.119 22.7668L26.1207 22.7667L26.1199 22.74ZM26.1208 22.7133C26.1216 22.7132 26.1227 22.7131 26.1241 22.713C26.1274 22.7127 26.1325 22.7122 26.1389 22.7114C26.1517 22.7099 26.17 22.7071 26.1916 22.7024C26.2306 22.6938 26.28 22.6791 26.3279 22.6539L26.4195 22.5832L26.4028 22.56H26.4431C26.4549 22.5446 26.4654 22.5277 26.4742 22.5092C26.5025 22.4496 26.5142 22.3702 26.491 22.2623C26.4697 22.195 26.4436 22.154 26.4169 22.1307C26.3902 22.1074 26.3612 22.1005 26.3321 22.1049C26.2727 22.1138 26.2135 22.1702 26.181 22.2292L26.1701 22.2489L26.1544 22.2361C26.1132 22.2024 26.088 22.1626 26.0834 22.1153C26.0788 22.0686 26.0953 22.0235 26.1215 21.9818C26.1737 21.8989 26.2759 21.8122 26.3959 21.725C26.484 21.6609 26.5835 21.5953 26.6832 21.5295C26.7202 21.5051 26.7572 21.4807 26.7936 21.4564C26.9288 21.3661 27.056 21.2769 27.1485 21.1914L27.1488 21.1911L27.1492 21.1908C27.232 21.1214 27.3137 20.9719 27.3872 20.7867C27.4602 20.6026 27.5236 20.3875 27.5708 20.1919L27.5784 20.1605L27.5998 20.1769C27.804 20.3327 27.9815 20.6597 28.1238 21.0712C28.2664 21.4835 28.375 21.9846 28.4396 22.4939C28.5042 23.0032 28.525 23.5219 28.4915 23.9696C28.4581 24.4161 28.3703 24.7965 28.2147 25.0246L28.2003 25.0457L26.449 22.624C26.4219 22.6528 26.3913 22.6756 26.3604 22.6936C26.3554 22.6965 26.3504 22.6993 26.3455 22.702L26.2953 22.7407L26.3029 22.7529C26.3177 22.7767 26.3394 22.8116 26.367 22.856C26.4223 22.9448 26.5013 23.0717 26.5964 23.2237C26.7866 23.5277 27.0411 23.9324 27.2982 24.3352C27.5554 24.7381 27.8151 25.1389 28.0157 25.4352C28.1161 25.5834 28.2015 25.7051 28.2643 25.7877C28.2958 25.8292 28.3211 25.8602 28.3397 25.8798C28.3488 25.8894 28.3555 25.8955 28.3601 25.8988C28.3632 25.8957 28.3672 25.891 28.372 25.8846C28.3797 25.8743 28.389 25.8604 28.3995 25.8428C28.4205 25.8076 28.4461 25.7588 28.4744 25.697C28.5309 25.5734 28.5979 25.399 28.6612 25.1804C28.7879 24.7433 28.8998 24.1301 28.8849 23.3942C28.8675 22.6577 28.7156 21.7647 28.4581 21.0423C28.3293 20.6812 28.1746 20.3638 27.9978 20.1301C27.822 19.8977 27.6254 19.7491 27.4114 19.7204C27.4085 19.7211 27.4059 19.7212 27.4041 19.7212C27.4011 19.7213 27.3977 19.721 27.3948 19.7208L27.394 19.7208C27.3875 19.7203 27.3807 19.7199 27.3727 19.7211C27.3576 19.7234 27.3365 19.7318 27.3109 19.7631C27.2581 19.8273 27.1867 19.9869 27.1144 20.3791C27.0554 20.7851 26.8532 21.0503 26.6627 21.2157C26.4932 21.3628 26.3307 21.4329 26.2838 21.4531C26.2784 21.4554 26.2746 21.457 26.2724 21.4581C26.2501 21.4717 26.1131 21.573 25.9876 21.7232C25.9244 21.7988 25.865 21.8859 25.8244 21.9792C25.784 22.0724 25.7631 22.1703 25.7746 22.269C25.8009 22.4659 25.8874 22.5766 25.968 22.6386C26.0084 22.6698 26.0473 22.6886 26.0761 22.6996C26.0904 22.7051 26.1022 22.7086 26.1103 22.7108C26.1144 22.7118 26.1175 22.7126 26.1196 22.713C26.12 22.7131 26.1204 22.7132 26.1208 22.7133ZM26.4838 22.5952L28.1992 24.9673C28.3375 24.7497 28.4196 24.3929 28.4517 23.9643C28.4848 23.5223 28.4643 23.0085 28.4001 22.5028C28.336 21.9971 28.2283 21.5007 28.0875 21.0935C27.9515 20.7003 27.7859 20.3939 27.6011 20.2401C27.5543 20.4291 27.493 20.6341 27.4225 20.8117C27.3486 20.9979 27.263 21.1582 27.1709 21.2356C27.0759 21.3234 26.9464 21.414 26.8116 21.5041C26.7747 21.5287 26.7374 21.5533 26.7002 21.5778C26.6008 21.6434 26.5024 21.7083 26.4151 21.7718C26.2944 21.8595 26.1988 21.942 26.1521 22.0161C26.1289 22.0531 26.1206 22.0834 26.1231 22.1084C26.1251 22.1293 26.1353 22.1527 26.1607 22.1776C26.1997 22.1172 26.2617 22.0618 26.3276 22.0519C26.3648 22.0463 26.4033 22.0552 26.4388 22.086C26.474 22.1168 26.5047 22.1679 26.5283 22.2431L26.5288 22.2445L26.5291 22.2459C26.5554 22.3672 26.5434 22.4632 26.508 22.5377C26.5044 22.5454 26.5005 22.5529 26.4964 22.56H26.5293L26.4838 22.5952Z" fill="black"/>
<path d="M27.7296 20.3334L27.7396 24.7ZM27.5296 20.42L27.5446 24.38ZM27.3196 20.9934L27.3296 24.14ZM27.1446 21.2134L27.1546 23.82ZM26.9596 21.3334V23.5334ZM26.7596 21.5067V23.2467ZM26.5846 21.6467V22.98Z" fill="#FF9A08"/>
<path fill-rule="evenodd" clip-rule="evenodd" d="M27.7197 24.7001L27.7097 20.3334L27.7497 20.3333L27.7597 24.6999L27.7197 24.7001ZM27.5247 24.3801L27.5097 20.4201L27.5497 20.4199L27.5647 24.3799L27.5247 24.3801ZM27.3097 24.1401L27.2997 20.9934L27.3397 20.9932L27.3497 24.1399L27.3097 24.1401ZM27.1347 23.8201L27.1247 21.2135L27.1647 21.2132L27.1747 23.8199L27.1347 23.8201ZM26.9397 23.5333V21.3333H26.9797V23.5333H26.9397ZM26.7397 23.2467V21.5067H26.7797V23.2467H26.7397ZM26.5647 22.98V21.6467H26.6047V22.98H26.5647Z" fill="black"/>
<path fill-rule="evenodd" clip-rule="evenodd" d="M26.4114 22.8466C26.4197 22.8369 26.4323 22.8381 26.4396 22.8491L28.2396 25.5958C28.2469 25.6069 28.246 25.6238 28.2377 25.6334C28.2294 25.6431 28.2167 25.642 28.2095 25.6309L26.4095 22.8842C26.4022 22.8731 26.4031 22.8563 26.4114 22.8466Z" fill="#FFDF00"/>
<path fill-rule="evenodd" clip-rule="evenodd" d="M28.2998 21.0897C28.3178 21.0787 28.3392 21.0892 28.3475 21.1133L28.3148 21.1333C28.3475 21.1133 28.3475 21.1133 28.3475 21.1133L28.3477 21.1138L28.3482 21.1153L28.35 21.1207C28.3516 21.1254 28.3539 21.1323 28.3569 21.1415C28.3628 21.1597 28.3713 21.1866 28.3819 21.2214C28.4031 21.291 28.4324 21.3925 28.4651 21.5202C28.5306 21.7757 28.6099 22.1367 28.6653 22.5592C28.7759 23.4034 28.7919 24.4989 28.4068 25.4888C28.3976 25.5123 28.3759 25.5215 28.3582 25.5093C28.3406 25.4971 28.3337 25.4681 28.3428 25.4446C28.7177 24.4811 28.7037 23.4099 28.5943 22.5758C28.5397 22.1592 28.4615 21.8031 28.397 21.5513C28.3647 21.4254 28.3359 21.3256 28.3152 21.2574C28.3048 21.2234 28.2965 21.1972 28.2908 21.1796C28.2879 21.1708 28.2857 21.1642 28.2843 21.1598L28.2826 21.1549L28.2822 21.1537L28.2821 21.1534C28.2821 21.1534 28.2821 21.1534 28.2821 21.1534M28.2998 21.0897C28.2817 21.1008 28.2738 21.1293 28.2821 21.1534ZM26.102 21.722C26.115 21.742 26.1134 21.7723 26.0983 21.7897L26.0982 21.7898L26.0977 21.7905C26.0971 21.7911 26.0963 21.7921 26.0952 21.7934C26.093 21.796 26.0898 21.7999 26.0857 21.8051C26.0774 21.8155 26.0657 21.8307 26.0522 21.8497C26.025 21.8879 25.9911 21.9408 25.9627 22.0006C25.9342 22.0609 25.9129 22.1249 25.9081 22.1859C25.9035 22.2447 25.9139 22.3016 25.9509 22.3537C25.9646 22.3729 25.964 22.4033 25.9496 22.4215C25.9351 22.4397 25.9123 22.4389 25.8987 22.4197C25.8457 22.3451 25.8299 22.2595 25.8365 22.1758C25.8429 22.0942 25.8704 22.0158 25.9019 21.9494C25.9335 21.8825 25.9708 21.8246 25.9999 21.7837C26.0145 21.7631 26.0272 21.7466 26.0363 21.7352C26.0408 21.7295 26.0445 21.725 26.0471 21.722C26.0484 21.7204 26.0494 21.7192 26.0501 21.7184L26.0509 21.7174L26.0511 21.7172L26.0512 21.7171C26.0512 21.7171 26.0513 21.717 26.0748 21.7533L26.0513 21.717C26.0663 21.6997 26.0891 21.7019 26.102 21.722ZM26.2484 22.3773L26.2484 22.3771L26.2488 22.3759C26.2492 22.3747 26.2498 22.3728 26.2505 22.3704C26.2521 22.3656 26.2545 22.3587 26.2575 22.3506C26.2637 22.3342 26.2723 22.3142 26.2823 22.2974C26.293 22.2796 26.3021 22.2705 26.3085 22.2677C26.3113 22.2665 26.316 22.2645 26.3262 22.2763C26.3413 22.2936 26.364 22.2915 26.377 22.2714C26.39 22.2514 26.3884 22.2211 26.3734 22.2037C26.3461 22.1722 26.3152 22.1635 26.2857 22.1767C26.2597 22.1882 26.2398 22.2146 26.226 22.2376C26.2117 22.2616 26.2006 22.2879 26.1932 22.3075C26.1894 22.3174 26.1865 22.326 26.1845 22.3322C26.1835 22.3352 26.1827 22.3377 26.1822 22.3395L26.1815 22.3417L26.1813 22.3423L26.1813 22.3425L26.1812 22.3426C26.1812 22.3426 26.1812 22.3427 26.2148 22.36L26.1812 22.3426C26.1741 22.3673 26.1833 22.3952 26.2018 22.4048C26.2203 22.4143 26.2412 22.402 26.2484 22.3773Z" fill="#FFDF00"/>
<path d="M28.6997 15.6933C28.8147 15.56 28.8797 15.4733 28.9547 15.4933C29.0297 15.5067 29.1297 15.4933 29.2047 15.4667C29.4015 15.4057 29.6054 15.3967 29.8047 15.44C29.8547 15.4533 29.9297 15.4867 30.0347 15.6067C30.1397 15.7267 30.2947 15.94 30.2447 16.5133C30.1947 17.0867 30.2097 17.3333 30.1847 17.66C30.1447 18.2267 30.0497 18.6933 29.8847 18.66C30.1097 19.1933 30.1347 19.66 30.2847 20.0267C30.4347 20.3933 30.5247 21.1467 30.4697 21.96C30.4097 22.78 30.2497 24.6067 30.7347 25.84C30.6547 25.9133 30.4597 25.84 30.2847 25.5933C30.1097 25.3467 30.0347 25.3533 29.8947 25.5C29.4547 25.9467 29.0447 26.4867 28.4397 25.9467C28.2997 25.8267 28.2597 25.68 28.3597 25.3C28.6097 24.3667 28.7347 23.0733 28.6947 22.4733V15.6933H28.6997Z" fill="#008021"/>
<path fill-rule="evenodd" clip-rule="evenodd" d="M29.2066 15.4764C29.1309 15.5033 29.03 15.5168 28.9538 15.5032L28.9533 15.5032C28.9187 15.4939 28.8858 15.5089 28.8465 15.5441C28.8142 15.5731 28.7785 15.6148 28.7349 15.6657C28.7253 15.677 28.7152 15.6887 28.7047 15.7009L28.7026 15.7033H28.7023V22.4729C28.7223 22.7741 28.701 23.2481 28.6435 23.7631C28.5859 24.2786 28.4921 24.8359 28.3669 25.3033C28.317 25.4929 28.3026 25.6224 28.3172 25.7189C28.3316 25.8144 28.3748 25.8791 28.4439 25.9382L28.444 25.9384C28.5944 26.0726 28.7323 26.1394 28.8613 26.1575C28.9903 26.1757 29.1107 26.1452 29.2264 26.084C29.4172 25.9831 29.594 25.7992 29.7736 25.6124C29.8123 25.5722 29.8511 25.5318 29.8902 25.4921C29.9602 25.4187 30.0162 25.3778 30.0777 25.3893C30.1387 25.4006 30.2028 25.4632 30.2903 25.5865C30.3771 25.7089 30.4687 25.7879 30.548 25.8273C30.6241 25.865 30.6872 25.8656 30.725 25.8365C30.4842 25.2192 30.4035 24.456 30.3904 23.7452C30.3783 23.0885 30.424 22.4755 30.4547 22.0625C30.4574 22.0264 30.4599 21.9919 30.4623 21.9591C30.4898 21.5531 30.481 21.1622 30.4467 20.8272C30.4124 20.4919 30.3526 20.2133 30.2782 20.0314C30.2111 19.8674 30.1689 19.6835 30.1231 19.4839C30.1174 19.4591 30.1116 19.4341 30.1058 19.4088C30.0527 19.1798 29.9904 18.9306 29.8783 18.6649L29.8707 18.647L29.8859 18.6501C29.924 18.6578 29.9585 18.637 29.9901 18.5908C30.0219 18.5443 30.0501 18.4728 30.0746 18.3816C30.1237 18.1995 30.1574 17.9421 30.1773 17.6591L30.1773 17.659C30.1874 17.527 30.191 17.4082 30.195 17.2751C30.1959 17.2439 30.1969 17.2119 30.1979 17.1787C30.2036 17.0044 30.2123 16.7991 30.2374 16.5122C30.2622 16.2268 30.236 16.032 30.191 15.894C30.1461 15.756 30.0821 15.6738 30.0299 15.6143C29.926 15.4954 29.8522 15.4628 29.8035 15.4498C29.6051 15.4068 29.4024 15.4158 29.2066 15.4764ZM28.697 15.6833C28.7066 15.6722 28.7158 15.6614 28.7247 15.651C28.7683 15.6 28.8049 15.5573 28.8381 15.5275C28.8787 15.4911 28.9158 15.4728 28.956 15.4835C29.0298 15.4965 29.1287 15.4834 29.2029 15.457L29.2031 15.4569C29.4008 15.3957 29.6056 15.3866 29.806 15.4301L29.8063 15.4302C29.8576 15.4439 29.9337 15.478 30.0397 15.5991C30.0926 15.6595 30.1585 15.744 30.2048 15.886C30.2511 16.028 30.2774 16.2265 30.2523 16.5145C30.2273 16.8008 30.2185 17.0056 30.2129 17.1796C30.2119 17.2126 30.2109 17.2445 30.21 17.2757C30.206 17.4088 30.2024 17.5283 30.1923 17.6609C30.1722 17.9446 30.1384 18.2039 30.0887 18.3884C30.0639 18.4806 30.0349 18.5549 30.0012 18.6042C29.9711 18.6483 29.9367 18.673 29.8983 18.6716C30.0068 18.9331 30.068 19.1783 30.1201 19.4029C30.126 19.4282 30.1317 19.4532 30.1374 19.478C30.1833 19.6779 30.2251 19.8597 30.2914 20.0219C30.367 20.2067 30.4272 20.4881 30.4616 20.8245C30.4961 21.1611 30.5048 21.5535 30.4773 21.9609L30.4773 21.961C30.4749 21.9939 30.4723 22.0284 30.4696 22.0644C30.4389 22.4775 30.3934 23.0893 30.4054 23.7447C30.4185 24.4575 30.4997 25.2207 30.7414 25.8354L30.7445 25.8432L30.7391 25.8482C30.696 25.8877 30.6241 25.8864 30.5428 25.846C30.461 25.8054 30.3675 25.7245 30.2794 25.6002C30.1918 25.4768 30.1309 25.4194 30.0756 25.4091C30.0209 25.3989 29.9694 25.4346 29.8994 25.5079L29.8993 25.5079C29.8606 25.5473 29.822 25.5874 29.7835 25.6275C29.6039 25.8144 29.4249 26.0005 29.2319 26.1026C29.1145 26.1648 28.9915 26.196 28.8597 26.1774C28.7279 26.1589 28.5877 26.0907 28.4357 25.955C28.3647 25.8942 28.318 25.8255 28.3024 25.7228C28.287 25.6209 28.3026 25.4871 28.3527 25.2967C28.4775 24.8308 28.5712 24.2747 28.6286 23.7602C28.6861 23.2455 28.7073 22.7731 28.6873 22.4742L28.6873 22.4733L28.6873 15.6833H28.697Z" fill="black"/>
<path d="M29.115 15.12C29.1548 15.2669 29.1531 15.4281 29.11 15.5734C29.06 15.7334 29.045 15.9067 29.135 16.1334C29.27 15.8667 29.465 15.92 29.585 15.7734C29.695 15.62 29.72 15.4734 29.805 15.44C29.72 15.34 29.59 15.2267 29.615 14.94C29.645 14.6467 29.95 14.4067 29.675 13.9667C29.6338 13.8963 29.5801 13.8407 29.5187 13.8051C29.4574 13.7695 29.3903 13.755 29.3236 13.763C29.2569 13.771 29.1928 13.8011 29.1371 13.8507C29.0815 13.9002 29.036 13.9676 29.005 14.0467C28.99 14.1 29.015 14.2067 28.97 14.2734C28.94 14.3267 28.905 14.3734 28.865 14.4067C28.84 14.4334 28.825 14.4667 28.855 14.5134C28.865 14.5334 28.885 14.5334 28.905 14.54L28.865 14.64C28.85 14.66 28.855 14.68 28.875 14.7067C28.85 14.7934 28.895 14.8067 28.865 14.8734C28.835 14.9334 28.805 15.0067 28.895 15.0734C28.925 15.0934 29.045 15.1267 29.115 15.12V15.12ZM27.99 16.6534C27.83 16.7067 27.57 16.6134 27.375 16.64C27.285 16.6534 27.215 16.5934 27.225 16.48C27.24 16.3667 27.255 16.1867 27.235 16.0267C27.2368 15.682 27.302 15.3432 27.425 15.04C27.5238 14.8002 27.5882 14.538 27.615 14.2667C27.615 14.14 27.625 14.0067 27.705 13.9334C27.765 13.8867 27.775 13.84 27.795 13.8C27.845 13.7 27.895 13.68 27.895 13.7334C27.9 13.7667 27.895 13.8 27.87 13.84C27.92 13.7867 28.01 13.72 28.03 13.7067C28.05 13.68 28.15 13.5867 28.155 13.68C28.195 13.6534 28.225 13.6534 28.235 13.68C28.245 13.7134 28.235 13.7267 28.22 13.7467C28.25 13.7467 28.28 13.8067 28.22 13.8667C28.255 13.8534 28.285 13.92 28.23 13.98C28.18 14.0467 28.11 14.0867 28.095 14.14C28.075 14.1934 27.935 14.3334 27.88 14.36C27.825 14.3934 27.82 14.4334 27.82 14.54C27.82 15.7267 27.72 15.6267 27.72 15.92C27.72 15.9867 27.705 16.06 27.76 16.04C27.82 16.0134 27.905 15.98 27.99 15.98V16.6467V16.6534ZM28.025 19.2C28.285 19.0267 28.585 18.96 28.74 18.9067C28.9196 18.8301 29.0936 18.7319 29.26 18.6134C29.385 18.5267 29.485 18.4134 29.555 18.38C29.637 18.3453 29.7053 18.2685 29.745 18.1667C29.9419 17.7239 30.06 17.2266 30.09 16.7134C30.09 16.4467 30.04 16.14 29.84 16.3534C29.636 16.5878 29.4838 16.8921 29.4 17.2334C29.32 17.66 29.25 17.76 29.235 17.84C29.215 17.9267 29.155 17.9267 29.075 17.9467C28.8223 17.9992 28.5863 18.1472 28.395 18.3734C28.1681 18.5973 27.9309 18.8021 27.685 18.9867C27.5 19.1267 27.465 19.14 27.425 19.2534C27.385 19.36 27.345 19.4534 27.315 19.4934C27.275 19.5467 27.265 19.6 27.275 19.6667C27.28 19.72 27.265 19.9467 27.26 20.0267C27.26 20.1067 27.275 20.12 27.295 20.1267C27.315 20.1267 27.345 20.1134 27.36 20.02C27.35 20.1134 27.445 20.0867 27.45 20.0134C27.45 20.1134 27.55 20.0534 27.55 19.96C27.55 20.0267 27.635 19.98 27.635 19.96C27.655 19.8734 27.67 19.7934 27.695 19.7334C27.725 19.64 27.76 19.52 27.83 19.4667C27.905 19.3867 27.87 19.3067 28.025 19.2V19.2ZM29.895 25.5C29.91 25.5867 29.945 25.68 29.955 25.74C29.965 25.7934 29.945 25.8134 29.935 25.8467C29.8678 26.0325 29.8206 26.23 29.795 26.4334C29.795 26.5134 29.745 26.5934 29.73 26.6467C29.705 26.7 29.715 26.7467 29.77 26.8C29.79 26.82 29.87 26.7867 29.875 26.7334C29.91 26.7734 29.955 26.76 29.98 26.7C30.01 26.7334 30.055 26.7134 30.08 26.6534C30.105 26.6734 30.145 26.6334 30.16 26.6C30.2 26.6267 30.24 26.6 30.24 26.4934C30.24 26.4667 30.255 26.4267 30.265 26.4067C30.275 26.38 30.28 26.3334 30.28 26.2934C30.28 26.2467 30.295 26.16 30.325 26.1067C30.355 26.04 30.4 25.94 30.38 25.84C30.36 25.7467 30.33 25.7534 30.305 25.6267C30.24 25.5334 30.155 25.4134 30.065 25.4C29.975 25.4 29.925 25.4734 29.895 25.5V25.5ZM28.25 26.16C28.335 26.2667 28.515 26.2667 28.64 26.0934C28.595 26.0667 28.49 26 28.45 25.96C28.3942 26.0441 28.3261 26.1122 28.25 26.16V26.16Z" fill="#FFE1CF"/>
<path fill-rule="evenodd" clip-rule="evenodd" d="M28.1006 13.6582C28.0736 13.6727 28.0445 13.7018 28.0352 13.7142L28.0343 13.7154L28.0331 13.7162C28.0133 13.7294 27.9239 13.7957 27.8745 13.8483L27.8634 13.8332C27.8871 13.7953 27.8911 13.7652 27.8867 13.7354L27.8865 13.7344V13.7333C27.8865 13.7219 27.8839 13.7179 27.882 13.7165C27.8798 13.7148 27.8749 13.7141 27.8665 13.719C27.8498 13.7286 27.8258 13.7566 27.8012 13.8059C27.7973 13.8136 27.7938 13.8217 27.7902 13.8302C27.7755 13.8641 27.7583 13.9038 27.7088 13.9423C27.6328 14.0122 27.6225 14.1397 27.6225 14.2667V14.2674L27.6225 14.2681C27.5956 14.5407 27.5309 14.8042 27.4316 15.0451C27.3094 15.3465 27.2445 15.6832 27.2425 16.0258C27.2626 16.1872 27.2475 16.368 27.2324 16.4816C27.2278 16.5346 27.2418 16.574 27.2668 16.599C27.2922 16.6244 27.33 16.6359 27.3736 16.6294L27.3737 16.6294C27.4632 16.6172 27.5661 16.6299 27.6659 16.6424C27.676 16.6436 27.6859 16.6448 27.6959 16.6461C27.8028 16.6591 27.9039 16.6686 27.9815 16.6449V15.9908C27.9006 15.9928 27.82 16.0244 27.7621 16.0501L27.7616 16.0503C27.7471 16.0556 27.735 16.0555 27.7259 16.0482C27.7167 16.0407 27.7127 16.0276 27.711 16.0143C27.7093 16.001 27.7095 15.9851 27.7101 15.9692C27.7102 15.9647 27.7104 15.9601 27.7106 15.9556C27.711 15.9437 27.7115 15.9318 27.7115 15.92C27.7115 15.8457 27.7179 15.7961 27.7274 15.7449C27.7305 15.728 27.734 15.7111 27.7377 15.6931C27.7451 15.6568 27.7533 15.6163 27.7617 15.5628C27.7865 15.4039 27.8115 15.133 27.8115 14.54C27.8115 14.4871 27.8127 14.4483 27.8215 14.4186C27.8306 14.3877 27.8476 14.3677 27.8762 14.3503L27.8768 14.35C27.903 14.3372 27.951 14.2965 27.9953 14.2515C28.0173 14.2292 28.0382 14.2061 28.0548 14.1854C28.0714 14.1646 28.0828 14.1471 28.0872 14.1357C28.0916 14.1205 28.0996 14.1069 28.1093 14.0942C28.1192 14.0814 28.1313 14.0689 28.1442 14.0564C28.1489 14.0518 28.1538 14.0471 28.1587 14.0424C28.1807 14.0213 28.2039 13.9991 28.2239 13.9725L28.2242 13.9721L28.2245 13.9718C28.2504 13.9435 28.2544 13.916 28.2506 13.8989C28.2468 13.8815 28.2347 13.872 28.2217 13.8769L28.2147 13.8581C28.2433 13.8296 28.2483 13.8034 28.2455 13.7865C28.2425 13.7688 28.2307 13.7573 28.2195 13.7573H28.2002L28.2139 13.7391C28.2217 13.7287 28.2266 13.7219 28.229 13.7142C28.2311 13.7076 28.2316 13.6991 28.2272 13.6844C28.2239 13.676 28.2174 13.6707 28.2058 13.6707C28.1938 13.6707 28.1776 13.6766 28.1581 13.6895L28.1474 13.6967L28.1465 13.6808C28.146 13.6703 28.1442 13.6636 28.1419 13.6593C28.1398 13.6552 28.137 13.6527 28.1335 13.6513C28.1258 13.6484 28.1143 13.6509 28.1006 13.6582ZM28.1608 13.6643C28.1595 13.6578 28.1577 13.6521 28.1551 13.6472C28.1508 13.6387 28.1447 13.6334 28.1379 13.6308C28.1248 13.6258 28.1091 13.6308 28.0947 13.6384C28.0663 13.6536 28.0363 13.6832 28.0248 13.6979C28.007 13.71 27.9467 13.7545 27.8979 13.7991C27.9048 13.7761 27.9057 13.7542 27.9025 13.7323C27.9024 13.7175 27.8987 13.7045 27.8898 13.6979C27.8811 13.6914 27.8704 13.6934 27.8601 13.6994C27.8393 13.7114 27.8132 13.7434 27.7879 13.7941C27.7835 13.8028 27.7797 13.8117 27.7758 13.8206C27.7612 13.854 27.7462 13.8886 27.7005 13.9241L27.7 13.9246C27.6163 14.0012 27.6066 14.1399 27.6065 14.266C27.5799 14.5357 27.5158 14.7965 27.4175 15.0349L27.4175 15.0349C27.294 15.3397 27.2284 15.6802 27.2265 16.0266L27.2265 16.0275L27.2266 16.0284C27.2464 16.1866 27.2316 16.3652 27.2166 16.4782L27.2166 16.4788C27.2113 16.5389 27.2273 16.5861 27.2572 16.616C27.2868 16.6456 27.329 16.6575 27.3754 16.6506M27.7572 16.0298C27.7444 16.0344 27.7377 16.0328 27.7342 16.0299C27.7308 16.0272 27.7282 16.0216 27.7268 16.0107C27.7254 15.9999 27.7255 15.9862 27.726 15.9702C27.7262 15.966 27.7264 15.9617 27.7265 15.9573C27.727 15.9452 27.7275 15.9324 27.7275 15.92C27.7275 15.8477 27.7337 15.7998 27.7429 15.7501C27.7459 15.7339 27.7493 15.7174 27.7529 15.6996C27.7604 15.663 27.7689 15.6212 27.7774 15.5672C27.8025 15.4062 27.8275 15.1337 27.8275 14.54C27.8275 14.4863 27.8289 14.4517 27.8363 14.4264C27.8434 14.4024 27.8564 14.3858 27.8826 14.3699C27.9114 14.3558 27.9608 14.3134 28.005 14.2685C28.0273 14.2458 28.0487 14.2223 28.0657 14.2009C28.0825 14.1799 28.096 14.16 28.1017 14.1448L28.1019 14.1443L28.102 14.1438C28.1052 14.1325 28.1115 14.1213 28.1205 14.1095C28.1295 14.0978 28.1409 14.0861 28.1536 14.0736C28.1581 14.0692 28.1628 14.0647 28.1676 14.0601C28.1896 14.0391 28.214 14.0158 28.2349 13.9879C28.2638 13.9563 28.2721 13.9206 28.2659 13.8928C28.262 13.8753 28.2524 13.862 28.2402 13.8567C28.2591 13.8309 28.2649 13.8045 28.2611 13.7819C28.2578 13.7623 28.2476 13.7473 28.2351 13.7403C28.2387 13.7348 28.2417 13.729 28.2438 13.7224C28.248 13.7091 28.2475 13.6944 28.242 13.676L28.2417 13.6752C28.2349 13.6572 28.2215 13.6493 28.2058 13.6493C28.1928 13.6493 28.1775 13.6546 28.1608 13.6643C28.1616 13.6689 28.1622 13.6739 28.1625 13.6792M28.2351 13.7403C28.2302 13.7375 28.2249 13.736 28.2195 13.736V13.7467L28.2252 13.7542L28.2258 13.7534C28.229 13.7491 28.2322 13.7448 28.2351 13.7403ZM28.2402 13.8567C28.2332 13.8537 28.2254 13.8533 28.2173 13.8564L28.2195 13.8667L28.2243 13.8752C28.2304 13.8691 28.2357 13.8629 28.2402 13.8567ZM28.2349 13.9879C28.235 13.9878 28.2351 13.9877 28.2352 13.9875L28.2295 13.98L28.2346 13.9883C28.2347 13.9881 28.2348 13.988 28.2349 13.9879ZM27.8826 14.3699C27.8827 14.3698 27.8827 14.3698 27.8828 14.3697L27.8795 14.36L27.8823 14.37C27.8824 14.37 27.8825 14.3699 27.8826 14.3699ZM27.7572 16.0298C27.7573 16.0298 27.7574 16.0297 27.7574 16.0297L27.7595 16.04L27.757 16.0299C27.7571 16.0299 27.7571 16.0298 27.7572 16.0298ZM29.3224 13.7524C29.3905 13.7442 29.4589 13.759 29.5215 13.7953C29.5841 13.8316 29.6388 13.8882 29.6808 13.96C29.7502 14.071 29.7834 14.1703 29.7933 14.2616C29.8032 14.353 29.7895 14.4354 29.7663 14.5123C29.7487 14.5708 29.7255 14.6267 29.7029 14.6811C29.6959 14.6979 29.689 14.7146 29.6823 14.7311C29.6538 14.8016 29.6298 14.8701 29.6225 14.9413C29.6102 15.082 29.6359 15.1794 29.6748 15.2539C29.7064 15.3144 29.7465 15.3599 29.7834 15.4017C29.7925 15.412 29.8013 15.422 29.8098 15.432L29.8207 15.4448L29.8068 15.4502C29.7673 15.4657 29.7412 15.5076 29.7105 15.5677C29.7052 15.5781 29.6998 15.5889 29.6942 15.6002C29.6676 15.6537 29.6362 15.7167 29.5903 15.7807L29.5899 15.7812C29.559 15.8191 29.5233 15.8438 29.4855 15.8639C29.4627 15.876 29.4386 15.8866 29.4142 15.8974C29.3988 15.9042 29.3832 15.9111 29.3678 15.9184C29.288 15.9564 29.2073 16.0087 29.1412 16.1393L29.1337 16.154L29.1275 16.1383C29.082 16.0237 29.0628 15.9221 29.0615 15.8285C29.0603 15.735 29.0768 15.6502 29.1021 15.5693C29.1437 15.429 29.1461 15.2735 29.109 15.1311C29.0738 15.1333 29.0285 15.1267 28.9881 15.1172C28.9667 15.1121 28.9465 15.1062 28.9297 15.1003C28.913 15.0945 28.8992 15.0884 28.8909 15.0829L28.8906 15.0827C28.8442 15.0483 28.8265 15.0103 28.8265 14.9708C28.8265 14.9331 28.8429 14.8973 28.8578 14.8676C28.8646 14.8523 28.8669 14.8407 28.8672 14.8309C28.8676 14.8207 28.8659 14.8116 28.8637 14.8002L28.8635 14.7995C28.8614 14.7885 28.8589 14.7757 28.8586 14.7601C28.8584 14.7457 28.8601 14.7292 28.8653 14.7093C28.8569 14.6974 28.8507 14.6855 28.8486 14.6732C28.8461 14.6585 28.8497 14.6453 28.858 14.6336L28.8925 14.5474C28.8915 14.5472 28.8905 14.5469 28.8894 14.5466L28.8882 14.5463C28.8833 14.5451 28.8783 14.5437 28.8736 14.5419C28.8642 14.5383 28.8547 14.5325 28.8482 14.5198C28.8323 14.495 28.8272 14.4718 28.8311 14.45C28.8349 14.429 28.8466 14.4121 28.8595 14.3983L28.8599 14.398L28.8603 14.3976C28.8992 14.3652 28.9336 14.3195 28.9631 14.2669L28.9633 14.2666L28.9636 14.2662C28.9841 14.2358 28.989 14.1958 28.9903 14.1546C28.9906 14.1444 28.9907 14.1342 28.9907 14.1242L28.9907 14.1217C28.9908 14.1125 28.9908 14.1035 28.9911 14.0949C28.9915 14.0762 28.9928 14.058 28.997 14.0429L28.9972 14.0423L28.9974 14.0417C29.0291 13.9611 29.0755 13.8923 29.1323 13.8418C29.1891 13.7912 29.2544 13.7605 29.3224 13.7524ZM29.1145 15.12L29.122 15.1164C29.1626 15.2657 29.1608 15.4296 29.117 15.5773L29.1169 15.5774C29.0922 15.6565 29.0763 15.7384 29.0775 15.8281C29.0787 15.9137 29.0954 16.0071 29.1355 16.1127C29.2029 15.9874 29.2841 15.9356 29.3625 15.8983C29.3786 15.8906 29.3945 15.8836 29.41 15.8768C29.4339 15.8662 29.4571 15.856 29.4796 15.8441C29.5163 15.8246 29.55 15.801 29.5789 15.7657C29.6237 15.7033 29.6541 15.6422 29.6806 15.5888C29.6863 15.5774 29.6918 15.5663 29.6973 15.5557C29.7248 15.5018 29.7509 15.4575 29.789 15.4361C29.784 15.4304 29.7789 15.4246 29.7737 15.4188C29.7367 15.3768 29.6946 15.3291 29.6617 15.2661C29.6206 15.1873 29.5939 15.0847 29.6066 14.9388L29.6066 14.9386C29.6143 14.8632 29.6396 14.7917 29.6682 14.721C29.6751 14.7039 29.6821 14.6869 29.6892 14.6699C29.7117 14.6158 29.7343 14.5615 29.7515 14.5044C29.774 14.4297 29.7868 14.3512 29.7775 14.2647C29.7681 14.1781 29.7364 14.0824 29.6684 13.9735L29.6682 13.9732C29.6279 13.9042 29.5753 13.8497 29.5151 13.8149C29.455 13.78 29.3892 13.7658 29.3239 13.7736C29.2585 13.7814 29.1957 13.811 29.1412 13.8595C29.0867 13.908 29.0423 13.9738 29.0119 14.051C29.0087 14.0625 29.0075 14.0775 29.0071 14.0956C29.0068 14.1039 29.0068 14.1127 29.0067 14.1219L29.0067 14.1243C29.0067 14.1344 29.0066 14.1448 29.0063 14.1554C29.005 14.1974 29 14.2439 28.9757 14.2801C28.9454 14.3339 28.91 14.3813 28.8692 14.4154C28.8573 14.4282 28.8492 14.4412 28.8467 14.455C28.8443 14.4681 28.8467 14.4847 28.8606 14.5064L28.8609 14.5069L28.8612 14.5074C28.8647 14.5144 28.87 14.5184 28.878 14.5214C28.882 14.5229 28.8863 14.5241 28.8912 14.5254L28.8925 14.5257C28.8969 14.5268 28.9017 14.5281 28.9065 14.5297L28.9164 14.533L28.871 14.6464L28.8702 14.6475C28.8641 14.6556 28.8631 14.662 28.8642 14.6684C28.8655 14.6762 28.8704 14.6861 28.8802 14.6991L28.8839 14.704L28.882 14.7105C28.8761 14.731 28.8744 14.7467 28.8746 14.7597C28.8748 14.7727 28.8769 14.7834 28.8791 14.7947L28.8791 14.7948L28.8792 14.795C28.8813 14.806 28.8837 14.8181 28.8832 14.8318C28.8828 14.8459 28.8794 14.8609 28.8714 14.8788L28.8712 14.8793C28.856 14.9096 28.8425 14.9403 28.8425 14.9708C28.8425 14.9996 28.8548 15.0316 28.8983 15.0639C28.905 15.0684 28.9174 15.0739 28.9338 15.0797C28.9501 15.0854 28.9699 15.0912 28.9909 15.0962C29.0332 15.1061 29.0799 15.1126 29.114 15.1094L29.1145 15.12ZM30.0865 16.5128C30.0944 16.5765 30.0975 16.6463 30.0975 16.7133V16.7142C30.0675 17.229 29.9491 17.7277 29.7515 18.1719C29.7109 18.276 29.641 18.3545 29.5571 18.3901C29.5232 18.4063 29.4817 18.4421 29.4321 18.4856C29.4296 18.4877 29.4271 18.4899 29.4247 18.4921C29.3771 18.5338 29.323 18.5813 29.2633 18.6228C29.0965 18.7416 28.922 18.84 28.742 18.9168L28.7415 18.917C28.7094 18.9281 28.6713 18.9396 28.6287 18.9526C28.4644 19.0024 28.2338 19.0724 28.0282 19.2095C27.9519 19.262 27.923 19.3074 27.9038 19.3489C27.8994 19.3586 27.8954 19.3683 27.8913 19.3781C27.878 19.4103 27.8644 19.4431 27.8345 19.475L27.834 19.4755L27.8335 19.4759C27.8002 19.5013 27.7748 19.5428 27.7539 19.5904C27.7355 19.6324 27.7208 19.6783 27.7072 19.7208C27.7054 19.7264 27.7037 19.732 27.7019 19.7375L27.7017 19.738L27.7015 19.7385C27.6819 19.7857 27.6686 19.8454 27.6536 19.9125C27.65 19.9286 27.6463 19.9451 27.6424 19.962C27.6419 19.9681 27.6388 19.973 27.6365 19.9761C27.6335 19.98 27.6296 19.9837 27.6253 19.9871C27.6166 19.9938 27.6051 19.9998 27.5936 20.003C27.5824 20.006 27.5698 20.0067 27.5596 20.0007C27.5573 19.9993 27.5551 19.9977 27.5531 19.9956C27.5442 20.0304 27.5234 20.0572 27.5027 20.069C27.4889 20.0768 27.4736 20.0788 27.4613 20.0696C27.4555 20.0653 27.4509 20.059 27.4476 20.0508C27.4363 20.0728 27.4175 20.0866 27.4 20.0897C27.3869 20.0921 27.3731 20.0888 27.3632 20.0764C27.361 20.0737 27.3591 20.0706 27.3575 20.0672C27.3509 20.0895 27.343 20.1052 27.3344 20.1161C27.3207 20.1334 27.306 20.1373 27.2945 20.1373H27.2935L27.2926 20.137C27.2817 20.1334 27.2705 20.1273 27.2626 20.1096C27.2553 20.0929 27.2515 20.0671 27.2515 20.0267V20.0258C27.2519 20.0198 27.2524 20.013 27.2528 20.0055C27.2555 19.9629 27.2596 19.8982 27.2628 19.8359C27.2647 19.7993 27.2662 19.7636 27.267 19.7338C27.2678 19.704 27.2677 19.6808 27.2666 19.6684C27.2615 19.634 27.2614 19.6023 27.2681 19.572C27.2748 19.5416 27.2881 19.5134 27.3089 19.4858C27.3231 19.4668 27.3402 19.4344 27.3589 19.3929C27.3775 19.3515 27.3974 19.3018 27.4173 19.2487C27.4378 19.1906 27.4574 19.1575 27.4955 19.1213C27.523 19.0953 27.5604 19.0673 27.6149 19.0266C27.6345 19.012 27.6563 18.9958 27.6806 18.9774C27.9262 18.7931 28.1629 18.5886 28.3895 18.365C28.5819 18.1378 28.8192 17.9889 29.0732 17.9362C29.0842 17.9334 29.0953 17.9309 29.1058 17.9286C29.114 17.9268 29.1218 17.925 29.129 17.9233C29.1461 17.9191 29.1612 17.9147 29.1743 17.9083C29.1873 17.902 29.1981 17.8939 29.2068 17.8828C29.2153 17.8717 29.2222 17.8572 29.2268 17.8371C29.2308 17.816 29.2383 17.7939 29.2482 17.7668C29.2503 17.7611 29.2525 17.7551 29.2548 17.7488C29.2635 17.725 29.2738 17.6971 29.2853 17.6624C29.3145 17.5746 29.3519 17.4435 29.3918 17.2308L29.3919 17.23C29.4762 16.8869 29.6292 16.581 29.8343 16.3453L29.8345 16.345C29.8851 16.291 29.9277 16.2683 29.9635 16.2714C29.9998 16.2747 30.0268 16.3043 30.0464 16.3479C30.0659 16.3912 30.0786 16.4494 30.0865 16.5128ZM27.5415 19.96H27.5575C27.5575 19.9668 27.5586 19.9714 27.56 19.9744C27.5614 19.9774 27.5633 19.9796 27.566 19.9812C27.5718 19.9846 27.5804 19.9848 27.5904 19.9821C27.6002 19.9794 27.61 19.9742 27.6172 19.9686C27.6209 19.9658 27.6236 19.9631 27.6253 19.9609C27.626 19.9599 27.6263 19.9593 27.6265 19.9589V19.9584L27.6269 19.9569C27.6307 19.9402 27.6344 19.9238 27.638 19.9076C27.6529 19.8404 27.6669 19.778 27.6873 19.7286C27.689 19.7234 27.6908 19.718 27.6925 19.7125C27.706 19.6701 27.7211 19.6229 27.7401 19.5796C27.7616 19.5308 27.7886 19.4858 27.825 19.4578C27.8519 19.429 27.8635 19.4009 27.8765 19.3696C27.8807 19.3594 27.8851 19.3488 27.8902 19.3378C27.911 19.2926 27.9422 19.2447 28.0209 19.1905L28.0245 19.2L28.0209 19.1905C28.2286 19.052 28.4618 18.9813 28.6261 18.9314C28.6682 18.9186 28.7058 18.9072 28.7373 18.8964C28.9164 18.82 29.0899 18.7221 29.2558 18.6039L29.2558 18.6039C29.3149 18.5629 29.3684 18.516 29.416 18.4741C29.4184 18.472 29.4209 18.4699 29.4233 18.4678C29.4723 18.4247 29.5157 18.3872 29.5518 18.37L29.5521 18.3698C29.6321 18.3359 29.6988 18.2611 29.7374 18.1618L29.7376 18.1612C29.9339 17.7199 30.0516 17.2244 30.0815 16.7129C30.0815 16.6468 30.0784 16.5784 30.0707 16.5163C30.063 16.454 30.0507 16.3988 30.0327 16.3588C30.0147 16.319 29.9918 16.2953 29.9624 16.2927C29.9326 16.2901 29.894 16.309 29.8446 16.3615C29.6419 16.5947 29.4906 16.8971 29.4072 17.2363C29.3671 17.45 29.3295 17.5821 29.3 17.671C29.2883 17.7062 29.2778 17.7346 29.2691 17.7583C29.2668 17.7646 29.2646 17.7705 29.2626 17.7761C29.2526 17.8035 29.2458 17.8238 29.2423 17.8426L29.2422 17.8431C29.2368 17.8663 29.2287 17.8842 29.2179 17.8981C29.2072 17.9119 29.1942 17.9214 29.1798 17.9284C29.1654 17.9353 29.1492 17.9401 29.1319 17.9443C29.124 17.9462 29.1161 17.9479 29.108 17.9497C29.0978 17.952 29.0873 17.9543 29.076 17.9572L29.0758 17.9572C28.8246 18.0094 28.59 18.1566 28.3998 18.3813L28.3993 18.3819C28.1722 18.6061 27.9347 18.8111 27.6885 18.996C27.6636 19.0147 27.6416 19.0312 27.6219 19.0459C27.5678 19.0863 27.5315 19.1134 27.5048 19.1387C27.4692 19.1725 27.4512 19.2027 27.4318 19.2579L27.4317 19.2581C27.4116 19.3116 27.3915 19.3618 27.3726 19.4038C27.3538 19.4456 27.3359 19.4799 27.3202 19.5009C27.3009 19.5266 27.2892 19.5518 27.2835 19.578C27.2777 19.6043 27.2776 19.6325 27.2824 19.6646L27.2825 19.6653C27.2838 19.6797 27.2838 19.7046 27.283 19.7345C27.2822 19.7647 27.2806 19.8007 27.2788 19.8374C27.2756 19.8998 27.2715 19.9647 27.2688 20.0073C27.2683 20.0146 27.2679 20.0212 27.2675 20.0271C27.2676 20.0664 27.2713 20.0872 27.2764 20.0988C27.2809 20.109 27.2869 20.113 27.2955 20.116C27.3038 20.1158 27.3137 20.1128 27.3234 20.1006C27.3337 20.0876 27.3444 20.0633 27.3517 20.0178L27.3674 20.0215C27.3652 20.0426 27.369 20.0545 27.3741 20.0609C27.3794 20.0675 27.3878 20.0704 27.3978 20.0686C27.4183 20.0649 27.4395 20.0428 27.4416 20.0124L27.4575 20.0133C27.4575 20.0361 27.4631 20.0466 27.4691 20.051C27.4754 20.0558 27.4851 20.0557 27.4964 20.0494C27.519 20.0366 27.5415 20.0017 27.5415 19.96ZM29.9075 25.4736C29.9384 25.4413 29.9879 25.3893 30.0645 25.3893H30.065L30.0654 25.3894C30.1126 25.3964 30.1578 25.4312 30.1989 25.475C30.2401 25.5189 30.2779 25.5728 30.3104 25.6194L30.3118 25.6214L30.3123 25.624C30.3245 25.6859 30.3378 25.7148 30.3505 25.7399C30.3517 25.7422 30.3529 25.7444 30.354 25.7467C30.366 25.7699 30.3778 25.7929 30.3872 25.8371L30.3873 25.8373C30.3978 25.8901 30.3911 25.9425 30.3783 25.9895C30.3655 26.0363 30.3465 26.0787 30.3315 26.1119L30.3312 26.1126L30.3309 26.1131C30.3167 26.1384 30.3058 26.172 30.2985 26.2055C30.2911 26.239 30.2875 26.2713 30.2875 26.2933C30.2875 26.3339 30.2825 26.3825 30.2717 26.4114L30.2715 26.412L30.2712 26.4126C30.2665 26.422 30.2605 26.4364 30.2556 26.4516C30.2508 26.4671 30.2475 26.4822 30.2475 26.4933C30.2475 26.5479 30.2373 26.5852 30.2196 26.6049C30.2032 26.6231 30.1824 26.6241 30.1624 26.6134C30.1539 26.6293 30.1411 26.6452 30.1273 26.6559C30.1139 26.6663 30.0975 26.6733 30.0828 26.667C30.0698 26.6943 30.0525 26.7133 30.034 26.7218C30.0164 26.7299 29.9978 26.7283 29.9819 26.7154C29.9689 26.7416 29.9516 26.7586 29.9326 26.7646C29.9146 26.7702 29.8958 26.7656 29.8789 26.751C29.8756 26.7609 29.8703 26.7695 29.8642 26.777C29.8548 26.7883 29.8428 26.7975 29.8307 26.8041C29.8185 26.8107 29.8056 26.8149 29.7943 26.8162C29.7835 26.8173 29.7722 26.816 29.7648 26.8086M29.8945 25.5L29.8901 25.4911C29.8951 25.4867 29.9009 25.4806 29.9075 25.4736M29.9036 25.5046C29.911 25.545 29.9226 25.5868 29.9339 25.6262C29.9348 25.6295 29.9358 25.6328 29.9367 25.6361C29.9474 25.6737 29.9576 25.7091 29.9623 25.7376C29.9677 25.7665 29.965 25.7871 29.9594 25.805C29.9568 25.8131 29.9537 25.8206 29.9508 25.8275L29.9502 25.8287C29.9471 25.8361 29.9442 25.843 29.942 25.8506L29.9418 25.8513C29.875 26.0359 29.8281 26.2322 29.8025 26.4342C29.8023 26.4767 29.7891 26.5183 29.7747 26.5549C29.7695 26.5682 29.7641 26.5811 29.7589 26.5933C29.7569 26.5981 29.7549 26.6027 29.753 26.6073C29.7462 26.6235 29.7405 26.6379 29.737 26.6504L29.7367 26.6514L29.7363 26.6523C29.7247 26.6771 29.7218 26.6988 29.7271 26.72C29.7326 26.7418 29.7472 26.7652 29.7742 26.7914L29.7743 26.7915C29.7769 26.794 29.783 26.796 29.793 26.7949C29.8025 26.7939 29.8137 26.7902 29.8246 26.7843C29.8356 26.7784 29.8458 26.7704 29.8534 26.7612C29.8611 26.7519 29.8657 26.7419 29.8666 26.732L29.8684 26.7123L29.8797 26.7252C29.8955 26.7433 29.913 26.7488 29.929 26.7438C29.9451 26.7388 29.9609 26.7228 29.9725 26.6948L29.9772 26.6836L29.9846 26.6918C29.9973 26.7058 30.013 26.7088 30.0288 26.7016C30.0447 26.6943 30.0608 26.6763 30.0725 26.6482L30.0765 26.6385L30.0836 26.6442C30.0922 26.6511 30.105 26.6486 30.1192 26.6375C30.1331 26.6266 30.1459 26.6096 30.1527 26.5945L30.1565 26.586L30.1631 26.5905C30.1813 26.6026 30.1976 26.6016 30.2094 26.5885C30.2217 26.5748 30.2315 26.5454 30.2315 26.4933C30.2315 26.4778 30.2358 26.4596 30.2409 26.4434C30.246 26.4272 30.2524 26.4119 30.2576 26.4013C30.2666 26.3768 30.2715 26.3325 30.2715 26.2933C30.2715 26.2688 30.2754 26.2344 30.2831 26.1995C30.2907 26.1648 30.3022 26.1287 30.3179 26.1007C30.3329 26.0674 30.3511 26.0267 30.3633 25.9822C30.3754 25.9376 30.3812 25.89 30.3718 25.8428C30.3631 25.8021 30.3525 25.7816 30.3408 25.7587C30.3396 25.7565 30.3385 25.7542 30.3373 25.7518C30.3239 25.7256 30.3099 25.6949 30.2973 25.632C30.2651 25.5857 30.2284 25.5338 30.1889 25.4917C30.1489 25.449 30.1067 25.4172 30.0641 25.4107C29.9939 25.4109 29.9498 25.4568 29.9187 25.4892C29.9133 25.4949 29.9083 25.5001 29.9036 25.5046ZM28.4484 25.9456L28.4543 25.9515C28.4737 25.9708 28.5094 25.9971 28.5463 26.0222C28.583 26.0471 28.6204 26.0703 28.6428 26.0836L28.6532 26.0898L28.6453 26.1007C28.5179 26.2774 28.3329 26.2793 28.244 26.1678L28.2495 26.16L28.2461 26.1504C28.3213 26.1031 28.3885 26.0359 28.4435 25.9529L28.4484 25.9456ZM28.2639 26.1626C28.3465 26.2519 28.508 26.2502 28.6257 26.0968C28.6029 26.083 28.5708 26.0627 28.539 26.0412C28.5055 26.0185 28.472 25.994 28.4507 25.9743C28.3978 26.0521 28.3345 26.116 28.2639 26.1626Z" fill="black"/>
<path d="M29.0695 13.9334C29.0995 13.6667 29.2445 13.6667 29.3345 13.7C29.3745 13.7067 29.4645 13.72 29.5545 13.6867C29.7245 13.6267 29.8545 13.7067 29.8345 13.9267C29.8845 13.9734 29.9345 14.08 29.9195 14.1734C29.9145 14.2667 29.9295 14.3067 29.9895 14.3134C30.0545 14.3267 30.1895 14.4334 30.0995 14.58C30.1845 14.6467 30.2495 14.8267 30.2045 14.94C30.1595 15.06 30.0245 15.08 29.9645 14.9734C29.8995 15.0134 29.7995 15.02 29.7345 14.9334C29.6895 15 29.5845 14.9934 29.5595 14.9334C29.5395 14.8667 29.5095 14.84 29.4645 14.82C29.4195 14.8 29.4145 14.6334 29.4845 14.6134C29.4795 14.56 29.4845 14.5067 29.4995 14.48C29.5145 14.4534 29.4995 14.4 29.4595 14.36C29.4195 14.3134 29.3845 14.16 29.4245 14.0667C29.3545 14.1 29.2045 14.0067 29.1745 13.9467C29.1395 13.88 29.0945 13.88 29.0695 13.9334V13.9334Z" fill="#870F00"/>
<path fill-rule="evenodd" clip-rule="evenodd" d="M29.7619 13.7103C29.7131 13.6722 29.6404 13.6667 29.5564 13.6963C29.4649 13.7302 29.3736 13.7166 29.3335 13.7099L29.333 13.7099L29.3324 13.7097C29.2881 13.6933 29.2314 13.6855 29.1824 13.7134C29.1385 13.7384 29.0994 13.7928 29.0816 13.9004C29.0925 13.8893 29.1052 13.8838 29.1187 13.885C29.1405 13.887 29.1623 13.9062 29.1806 13.941L29.1807 13.9411L29.1807 13.9411C29.1873 13.9544 29.2012 13.9706 29.2204 13.987C29.2393 14.0033 29.2626 14.0193 29.2872 14.0324C29.3118 14.0455 29.3375 14.0557 29.3612 14.0606C29.385 14.0654 29.4061 14.0648 29.4219 14.0573L29.441 14.0482L29.4309 14.0717C29.4122 14.1154 29.4107 14.1742 29.4193 14.2288C29.4278 14.2834 29.446 14.3308 29.4642 14.3523C29.4849 14.3731 29.4995 14.3976 29.507 14.4211C29.5143 14.4444 29.5152 14.4686 29.5054 14.486C29.499 14.4974 29.4943 14.5156 29.4919 14.5381C29.4895 14.5604 29.4894 14.5862 29.4919 14.6121L29.4927 14.6212L29.486 14.6231C29.456 14.6317 29.4406 14.6722 29.4388 14.7172C29.4379 14.7393 29.4404 14.7612 29.4457 14.7784C29.451 14.7958 29.4585 14.8069 29.4668 14.8105C29.4897 14.8207 29.5095 14.8329 29.5261 14.8515C29.5428 14.8702 29.5559 14.8948 29.5662 14.929C29.5715 14.9413 29.581 14.9515 29.5939 14.9589C29.607 14.9663 29.6229 14.9705 29.6396 14.9709C29.6732 14.9717 29.7083 14.9571 29.7289 14.9267L29.7341 14.9188L29.7397 14.9263C29.8017 15.0089 29.8979 15.0033 29.9613 14.9643L29.9668 14.9609L29.9704 14.9674C29.9986 15.0174 30.0445 15.0381 30.0893 15.0318C30.134 15.0254 30.1765 14.992 30.1977 14.9356L30.1978 14.9353L30.1978 14.9353C30.2188 14.8824 30.2146 14.8124 30.1938 14.7464C30.173 14.6805 30.1365 14.6207 30.0956 14.5886L30.0881 14.5827L30.0936 14.5737C30.1152 14.5385 30.1228 14.5066 30.1219 14.4788C30.1209 14.4508 30.1114 14.4254 30.0969 14.4033C30.0677 14.3587 30.0195 14.3298 29.9885 14.3233C29.9576 14.3198 29.9361 14.3075 29.9237 14.2812C29.9117 14.2557 29.9094 14.2195 29.9119 14.1726L29.912 14.172L29.9121 14.1713C29.9191 14.1276 29.911 14.0799 29.8946 14.0371C29.8783 13.9942 29.854 13.9572 29.8301 13.9349L29.8264 13.9314L29.827 13.9255C29.8367 13.8185 29.81 13.7479 29.7619 13.7103ZM29.0694 13.9334L29.062 13.9319C29.0773 13.7959 29.1223 13.7258 29.1765 13.695C29.2298 13.6647 29.2902 13.6734 29.3359 13.6902C29.3761 13.6969 29.4644 13.7097 29.5524 13.6771L29.5525 13.677L29.5525 13.677C29.6385 13.6467 29.7158 13.6512 29.7695 13.6931C29.8229 13.7348 29.8512 13.8121 29.8424 13.922C29.8672 13.9466 29.8914 13.9846 29.908 14.028C29.9253 14.0732 29.9347 14.1253 29.9269 14.1748C29.9244 14.2208 29.9272 14.2511 29.9364 14.2705C29.9452 14.2892 29.9611 14.3002 29.9901 14.3034L29.9906 14.3035L29.9906 14.3035C30.0246 14.3105 30.0763 14.3414 30.1082 14.3901C30.1243 14.4146 30.1357 14.4442 30.1368 14.4779C30.1379 14.5091 30.13 14.5425 30.1105 14.5774C30.1516 14.6131 30.187 14.6734 30.2076 14.7387C30.2293 14.8076 30.235 14.8843 30.2111 14.9446C30.1873 15.008 30.1398 15.0447 30.0908 15.0516C30.0437 15.0583 29.9942 15.0377 29.9621 14.9857C29.8972 15.0228 29.8007 15.0284 29.7346 14.9474C29.7099 14.9783 29.6731 14.9917 29.6393 14.9909C29.621 14.9904 29.6031 14.9859 29.588 14.9772C29.573 14.9687 29.5602 14.9557 29.5529 14.9382L29.5526 14.9377L29.5525 14.9371C29.5428 14.905 29.531 14.8831 29.5165 14.8669C29.5019 14.8505 29.4841 14.8393 29.4621 14.8295C29.4478 14.8232 29.4379 14.8059 29.4318 14.7859C29.4256 14.7656 29.4228 14.7407 29.4238 14.7162C29.4256 14.6706 29.441 14.621 29.4763 14.6059C29.4744 14.5814 29.4747 14.557 29.477 14.5353C29.4796 14.5112 29.4849 14.4893 29.4934 14.474C29.4986 14.4648 29.4995 14.449 29.4931 14.4289C29.4869 14.4092 29.4741 14.3872 29.4549 14.368L29.4545 14.3676L29.4545 14.3676C29.4328 14.3422 29.4135 14.2898 29.4046 14.2329C29.3968 14.1832 29.3966 14.1278 29.4107 14.0816C29.395 14.085 29.3772 14.0841 29.3589 14.0803C29.3338 14.0752 29.307 14.0645 29.2816 14.051C29.2562 14.0374 29.2321 14.0209 29.2122 14.0038C29.1927 13.987 29.1766 13.9691 29.1682 13.9523C29.1515 13.9205 29.1334 13.9064 29.1177 13.905C29.1023 13.9036 29.0872 13.9143 29.0758 13.9387L29.0694 13.9334Z" fill="black"/>
<path fill-rule="evenodd" clip-rule="evenodd" d="M29.159 13.8969C29.1598 13.9066 29.1633 13.9165 29.1703 13.9258L29.1589 13.9409C29.1497 13.9286 29.1444 13.9143 29.1431 13.8993C29.1418 13.8843 29.1446 13.8694 29.1504 13.8557C29.1619 13.8286 29.1857 13.8057 29.2168 13.7939C29.2794 13.7702 29.3735 13.7903 29.4701 13.9123L29.4703 13.9125C29.4884 13.9367 29.5176 13.9496 29.5462 13.9545C29.5604 13.9569 29.5741 13.9573 29.5857 13.9563C29.5975 13.9553 29.6065 13.9529 29.6116 13.9501L29.6176 13.9699C29.6102 13.9739 29.5992 13.9765 29.5868 13.9776C29.5741 13.9786 29.5594 13.9782 29.5442 13.9756C29.5142 13.9705 29.4809 13.9567 29.459 13.9277C29.3656 13.8098 29.2772 13.7932 29.2212 13.8145C29.1929 13.8252 29.1732 13.8453 29.1643 13.8662C29.1599 13.8766 29.1581 13.8871 29.159 13.8969ZM29.5692 14.0705C29.5232 14.0576 29.4707 14.064 29.4263 14.0771L29.4229 14.0563C29.4685 14.0428 29.5235 14.0358 29.5725 14.0496C29.6218 14.0634 29.6658 14.0985 29.687 14.1694C29.6965 14.2011 29.7078 14.2185 29.7199 14.2296C29.7315 14.2402 29.7442 14.2456 29.7589 14.2519C29.7599 14.2523 29.761 14.2528 29.762 14.2532C29.7778 14.2599 29.7951 14.2678 29.8123 14.2848C29.8296 14.3018 29.8463 14.3273 29.8617 14.3685C29.8917 14.445 29.9285 14.5233 29.9696 14.5676C29.9901 14.5896 30.011 14.6026 30.0321 14.6036C30.053 14.6047 30.0754 14.594 30.0992 14.5654L30.1099 14.5813C30.0838 14.6127 30.0574 14.6262 30.0315 14.625C30.0057 14.6237 29.9816 14.6079 29.9596 14.5842C29.9157 14.5368 29.8775 14.4551 29.8475 14.3783L29.8474 14.3781C29.8329 14.3394 29.8177 14.3166 29.8028 14.302C29.7879 14.2872 29.7727 14.2802 29.7572 14.2735C29.756 14.273 29.7548 14.2725 29.7536 14.272C29.7394 14.266 29.7245 14.2597 29.7108 14.2471C29.6957 14.2333 29.6827 14.2123 29.6722 14.1773C29.6534 14.1149 29.6149 14.0833 29.5692 14.0705ZM29.702 14.6107C29.7001 14.6514 29.7052 14.6895 29.7206 14.713L29.7235 14.7174L29.7223 14.7231C29.7146 14.7571 29.7124 14.7929 29.7157 14.8282C29.719 14.8634 29.7278 14.8974 29.7415 14.9279L29.7277 14.9388C29.7129 14.9058 29.7034 14.869 29.6998 14.8308C29.6964 14.7945 29.6984 14.7577 29.7057 14.7225C29.6885 14.6927 29.6842 14.6499 29.686 14.6094C29.6879 14.5664 29.6969 14.5233 29.7074 14.4953L29.7218 14.5048C29.7123 14.5301 29.7038 14.5703 29.702 14.6107ZM28.9505 14.5892L28.9005 14.5492L28.9087 14.5309L28.9587 14.5709L28.9505 14.5892ZM29.4864 14.659C29.4803 14.6432 29.4766 14.6273 29.4766 14.6134H29.4926C29.4926 14.6227 29.4952 14.6352 29.5006 14.6492C29.506 14.6631 29.514 14.6779 29.5241 14.6918C29.5444 14.7196 29.5729 14.7432 29.6057 14.7495L29.6035 14.7706C29.5663 14.7635 29.5348 14.7371 29.5126 14.7066C29.5015 14.6914 29.4926 14.6749 29.4864 14.659ZM28.8951 14.7289L28.8705 14.7092L28.8787 14.6909L28.9041 14.7112L28.9044 14.7115C28.9224 14.7295 28.9504 14.736 28.9696 14.736V14.7574C28.9489 14.7574 28.9171 14.7506 28.8951 14.7289ZM29.9475 14.7618C29.9375 14.8417 29.9332 14.904 29.9708 14.9667L29.9584 14.98C29.916 14.9094 29.9217 14.8384 29.9317 14.7583L29.9475 14.7618ZM29.2446 15.0686C29.2108 15.0928 29.1722 15.1203 29.1157 15.1306L29.1135 15.1095C29.167 15.0997 29.2034 15.0739 29.2371 15.0498L29.2383 15.0489C29.2714 15.0252 29.3028 15.0027 29.3446 15.0027V15.024C29.3069 15.024 29.2786 15.0443 29.2446 15.0686Z" fill="black"/>
<path fill-rule="evenodd" clip-rule="evenodd" d="M29.5762 13.7496C29.6744 13.7753 29.7656 13.8361 29.84 13.9255L29.8293 13.9413C29.757 13.8545 29.6685 13.7955 29.5731 13.7705L29.5762 13.7496ZM29.5587 14.3198C29.5445 14.2818 29.5366 14.2385 29.5366 14.2H29.5526C29.5526 14.2349 29.5598 14.275 29.573 14.3103C29.5863 14.3456 29.6052 14.3752 29.6282 14.3905L29.6306 14.3921L29.6318 14.3953C29.6461 14.4334 29.6986 14.5356 29.814 14.5227L29.8153 14.544C29.6936 14.5575 29.636 14.452 29.6187 14.4079C29.5928 14.3896 29.5725 14.3567 29.5587 14.3198ZM29.0067 16.9083C28.9664 16.559 29.0269 16.3095 29.1282 16.127L29.1411 16.1397C29.0424 16.3173 28.9829 16.561 29.0225 16.9049C29.0475 17.0781 29.0776 17.2923 29.0783 17.4917C29.0789 17.6908 29.0501 17.8781 28.955 17.9946L28.9442 17.9789C29.0341 17.8687 29.0629 17.6893 29.0623 17.4918C29.0616 17.2946 29.0318 17.0822 29.0068 16.9087L29.0067 16.9083L29.0067 16.9083ZM29.6572 18.6219C29.735 18.6143 29.8159 18.6261 29.8817 18.6497L29.8775 18.6703C29.8134 18.6473 29.7343 18.6358 29.6583 18.6432C29.5822 18.6506 29.5102 18.6769 29.4595 18.7285L29.4594 18.7286C29.4078 18.7802 29.336 18.8073 29.2631 18.8115C29.1901 18.8158 29.1149 18.7972 29.0559 18.7562L29.0633 18.7373C29.1193 18.7762 29.1916 18.7943 29.2624 18.7902C29.3332 18.7861 29.4015 18.7599 29.4498 18.7115" fill="black"/>
<path fill-rule="evenodd" clip-rule="evenodd" d="M29.8021 18.7263C29.8278 18.7993 29.8428 18.9197 29.8428 19.1067H29.8268C29.8268 18.9203 29.8118 18.804 29.7876 18.7354C29.7755 18.7013 29.7614 18.6795 29.7462 18.6666C29.7353 18.6574 29.7235 18.6524 29.7109 18.6509C29.7057 18.6507 29.7003 18.6507 29.6948 18.6507L29.6943 18.6294C29.7002 18.6289 29.706 18.6289 29.7117 18.6296C29.7332 18.6303 29.754 18.633 29.7736 18.6424C29.7987 18.6544 29.8213 18.677 29.8415 18.7183C29.8814 18.7999 29.9128 18.9556 29.9378 19.2521L29.9378 19.2524L29.9378 19.2524C29.96 19.5885 30.0042 19.7546 30.0604 19.9664C30.0798 20.0393 30.1006 20.1176 30.1224 20.2101L30.1225 20.2103C30.2253 20.6651 30.2503 21.2414 30.2628 21.7655C30.2649 21.8535 30.2667 21.9399 30.2684 22.0241C30.2717 22.191 30.2749 22.349 30.2803 22.4919C30.2884 22.707 30.3015 22.8867 30.3275 23.0105L30.3121 23.0162C30.2856 22.8899 30.2725 22.708 30.2643 22.4929C30.2589 22.3498 30.2557 22.1914 30.2524 22.0243C30.2507 21.9402 30.2489 21.8539 30.2468 21.7662C30.2343 21.2419 30.2093 20.6683 30.1072 20.2165C30.0856 20.1251 30.0649 20.0473 30.0456 19.9747C29.9892 19.7622 29.9443 19.5933 29.9219 19.2544C29.8968 18.9577 29.8657 18.8068 29.8281 18.73C29.8096 18.6923 29.7898 18.6728 29.7684 18.6625C29.7811 18.6779 29.7924 18.699 29.8021 18.7263ZM29.4671 18.7508C29.4953 18.68 29.5389 18.6433 29.5984 18.6295L29.6012 18.6505C29.5457 18.6634 29.5068 18.6967 29.4813 18.7608C29.4553 18.826 29.4428 18.9238 29.4428 19.0667C29.4428 19.158 29.4375 19.2636 29.4317 19.3784C29.4286 19.4401 29.4254 19.5044 29.4228 19.5706C29.4153 19.7603 29.4128 19.9663 29.4328 20.172L29.4169 20.1747C29.3968 19.9671 29.3993 19.7597 29.4068 19.5694C29.4095 19.5025 29.4127 19.4378 29.4158 19.3759C29.4216 19.2617 29.4268 19.1573 29.4268 19.0667C29.4268 18.9229 29.4393 18.8207 29.4671 18.7508ZM29.3742 18.7622C29.3805 18.7603 29.3868 18.7584 29.3929 18.7563L29.3968 18.777C29.39 18.7793 29.3833 18.7813 29.3769 18.7833C29.3636 18.7873 29.351 18.7912 29.3389 18.7965C29.3211 18.8042 29.3055 18.8146 29.293 18.8316C29.2681 18.8656 29.2528 18.9296 29.2628 19.0656L29.2469 19.0677C29.2368 18.9304 29.2515 18.8578 29.2816 18.8167C29.2966 18.7963 29.3148 18.7845 29.3339 18.7762C29.3467 18.7706 29.3605 18.7664 29.3742 18.7622ZM29.0438 18.8558C29.0226 18.9097 29.0103 18.988 29.0078 19.0671L28.9918 19.0662C28.9944 18.9853 29.007 18.9036 29.0296 18.8459C29.0409 18.817 29.055 18.7933 29.0723 18.7792C29.0898 18.7647 29.11 18.7606 29.1322 18.7698L29.1274 18.7902C29.1096 18.7828 29.0942 18.7861 29.0807 18.7973C29.0668 18.8087 29.0543 18.8288 29.0438 18.8558ZM29.6473 22.4962C29.9458 21.441 29.9529 20.2785 29.6673 19.2169L29.6823 19.2097C29.9689 20.2749 29.9621 21.4411 29.6633 22.5001C29.7597 22.8586 29.8561 23.1773 29.9398 23.4542C29.9599 23.5208 29.9794 23.5851 29.9979 23.6469C30.0934 23.9657 30.165 24.2202 30.1877 24.4049L30.1719 24.4084C30.1496 24.2264 30.0787 23.9743 29.983 23.6548C29.9645 23.5931 29.9451 23.5289 29.925 23.4623C29.841 23.1844 29.7441 22.8641 29.6473 22.5036L29.6463 22.4999L29.6473 22.4962ZM29.0615 19.9658C29.0565 20.0583 29.0401 20.1757 29.0126 20.3226L29.0126 20.3227C28.9478 20.6583 28.953 20.83 28.9689 20.9413C28.9729 20.9693 28.9776 20.9936 28.9822 21.0159C28.983 21.0198 28.9838 21.0237 28.9845 21.0276C28.9882 21.0455 28.9917 21.0624 28.9944 21.079C29.001 21.1198 29.003 21.1591 28.9925 21.2095L28.9771 21.2038C28.9867 21.1576 28.9849 21.1219 28.9787 21.0835C28.9761 21.0675 28.9728 21.0512 28.9692 21.0334C28.9684 21.0295 28.9675 21.0255 28.9667 21.0215C28.9622 20.999 28.9573 20.9741 28.9532 20.9453C28.9367 20.83 28.9319 20.655 28.9971 20.3174C29.0245 20.171 29.0406 20.055 29.0456 19.9642C29.0506 19.8733 29.0442 19.8089 29.0277 19.7648L29.042 19.7552C29.0604 19.8045 29.0666 19.8734 29.0615 19.9658Z" fill="black"/>
<path fill-rule="evenodd" clip-rule="evenodd" d="M29.0297 20.4252C29.0181 20.3247 29.0139 20.233 29.0267 20.1577L29.0423 20.1624C29.0302 20.2337 29.034 20.322 29.0455 20.4219C29.0537 20.4935 29.0656 20.5701 29.0781 20.6499C29.0831 20.6815 29.0881 20.7137 29.093 20.7463C29.1273 20.9744 29.1554 21.2204 29.1021 21.4301L29.0869 21.4233C29.1387 21.2197 29.1117 20.979 29.0773 20.7505C29.0725 20.7183 29.0675 20.6863 29.0625 20.6548C29.05 20.5748 29.0379 20.4973 29.0297 20.4252ZM28.8295 21.8849C28.8205 21.7516 28.8115 21.6192 28.8115 21.5H28.8275C28.8275 21.6182 28.8364 21.7496 28.8454 21.883C28.8465 21.8994 28.8476 21.9159 28.8487 21.9324C28.8587 22.0823 28.8675 22.233 28.8625 22.3672L28.8625 22.3672C28.8548 22.5673 28.9008 22.6821 28.9645 22.841C28.9824 22.8858 29.0018 22.934 29.0217 22.9886C29.3616 23.8818 29.5826 24.5174 29.5575 25.3604L29.5575 25.3609L29.5575 25.3609C29.5552 25.398 29.5556 25.444 29.556 25.4945L29.5561 25.5039C29.5566 25.5578 29.5569 25.6161 29.5538 25.6725C29.5506 25.7288 29.544 25.7837 29.5303 25.8308C29.5165 25.8779 29.4956 25.9177 29.4636 25.9426L29.4555 25.9241C29.4835 25.9024 29.5025 25.8672 29.5153 25.823C29.5282 25.7788 29.5347 25.7263 29.5378 25.6709C29.5409 25.6156 29.5406 25.5581 29.5401 25.5041C29.5401 25.5008 29.5401 25.4976 29.54 25.4943C29.5396 25.4444 29.5392 25.3975 29.5415 25.3594C29.5664 24.5226 29.3474 23.8915 29.0074 22.9982L29.0073 22.998C28.988 22.945 28.969 22.8977 28.9512 22.8534C28.887 22.6933 28.8386 22.5726 28.8465 22.3661C28.8465 22.3661 28.8465 22.3661 28.8465 22.3661L28.8545 22.3667L28.8465 22.3662C28.8465 22.3662 28.8465 22.3662 28.8465 22.3661C28.8515 22.2337 28.8428 22.0844 28.8328 21.9343C28.8317 21.9178 28.8306 21.9013 28.8295 21.8849ZM29.0725 24.4659C29.1018 24.9837 29.0611 25.5044 28.9522 26.003L28.952 26.0037L28.9518 26.0044C28.9292 26.0715 28.9086 26.1131 28.8887 26.1378C28.8684 26.1631 28.849 26.1707 28.8295 26.1707V26.1494C28.8451 26.1494 28.8606 26.1436 28.8778 26.1222C28.8954 26.1004 28.9148 26.0621 28.937 25.9963C29.0452 25.5004 29.0857 24.9825 29.0565 24.4675L29.0725 24.4659ZM29.0621 25.9295C29.1464 25.6384 29.1465 25.2803 29.1266 25.1083L29.1424 25.1051C29.1626 25.2797 29.1626 25.6417 29.077 25.9372L29.0621 25.9295Z" fill="black"/>
<path fill-rule="evenodd" clip-rule="evenodd" d="M27.9245 13.8982L28.1495 13.6715L28.1592 13.6885L27.9342 13.9152L27.9245 13.8982ZM28.2042 13.7412C28.2094 13.7382 28.2146 13.736 28.2193 13.736V13.7574C28.2179 13.7574 28.2151 13.7581 28.2106 13.7608C28.2062 13.7633 28.2008 13.7672 28.1944 13.7726C28.1814 13.7834 28.1648 13.7994 28.1442 13.8202C28.1262 13.8383 28.1054 13.8599 28.0816 13.8846C28.0782 13.8883 28.0746 13.892 28.071 13.8957C28.0427 13.9251 28.0105 13.9585 27.9742 13.9952L27.9645 13.9782C28.0007 13.9416 28.0329 13.9083 28.0611 13.8789C28.0648 13.8751 28.0683 13.8714 28.0718 13.8678C28.0956 13.8431 28.1165 13.8214 28.1345 13.8032C28.1552 13.7823 28.1723 13.7658 28.1859 13.7545C28.1927 13.7489 28.1988 13.7443 28.2042 13.7412ZM27.7837 13.9458L27.8637 13.8391L27.875 13.8542L27.795 13.9609L27.7837 13.9458ZM28.1255 13.9451C28.1615 13.9054 28.195 13.8709 28.2214 13.8568L28.2273 13.8766C28.2037 13.8892 28.1722 13.9213 28.1357 13.9616C28.126 13.9722 28.1161 13.9834 28.1058 13.9949C28.078 14.0261 28.0486 14.0591 28.0191 14.0886L28.0095 14.0715C28.0386 14.0425 28.0675 14.01 28.0952 13.9789C28.1055 13.9674 28.1156 13.956 28.1255 13.9451ZM27.3665 19.9197C27.3669 19.9494 27.3673 19.9824 27.3673 20.02H27.3513C27.3513 19.9837 27.3509 19.9513 27.3505 19.9218C27.3497 19.8655 27.3491 19.8199 27.352 19.779C27.3565 19.7155 27.3695 19.6622 27.4026 19.5942L27.4161 19.6058C27.3842 19.6711 27.3722 19.7212 27.3679 19.781C27.3651 19.8208 27.3657 19.8644 27.3665 19.9197ZM27.4596 19.9437C27.459 19.9652 27.4582 19.9885 27.4573 20.0138L27.4414 20.0129C27.4422 19.9879 27.4429 19.9648 27.4436 19.9434C27.447 19.8399 27.449 19.7763 27.4559 19.7312C27.4601 19.7036 27.4662 19.6823 27.4757 19.6626C27.485 19.6431 27.4975 19.6257 27.5139 19.6055L27.5248 19.6212C27.5087 19.641 27.4974 19.6569 27.4891 19.6741C27.4809 19.6911 27.4755 19.7098 27.4716 19.7355C27.465 19.7788 27.463 19.8401 27.4596 19.9437ZM27.559 19.9207C27.5586 19.9339 27.5582 19.9472 27.5573 19.9609L27.5414 19.9591C27.5421 19.9471 27.5425 19.9346 27.543 19.9218C27.5439 19.8938 27.5448 19.8637 27.5496 19.8313C27.5567 19.7831 27.5722 19.7284 27.6078 19.6606L27.6209 19.6728C27.5865 19.7384 27.572 19.7903 27.5653 19.8354C27.5608 19.8663 27.5599 19.8935 27.559 19.9207ZM29.9477 24.6709C29.8606 24.3254 29.7697 23.9645 29.6676 23.7524L29.6811 23.7409C29.7842 23.9553 29.8757 24.3184 29.9625 24.6625C29.9667 24.6792 29.9709 24.6959 29.9751 24.7125C30.0204 24.8921 30.0645 25.0645 30.1085 25.206C30.1527 25.3481 30.1962 25.4573 30.2398 25.5123L30.2289 25.5278C30.1825 25.4694 30.1379 25.3561 30.0938 25.2142C30.0495 25.0718 30.0052 24.8988 29.9599 24.7193C29.9558 24.7032 29.9518 24.6871 29.9477 24.6709ZM29.3516 25.5308C29.3962 25.2927 29.3964 24.9544 29.3465 24.5819L29.3622 24.5781C29.4123 24.9523 29.4125 25.294 29.3671 25.5359L29.3516 25.5308ZM29.8529 25.1434C29.8611 25.2126 29.8623 25.2866 29.8623 25.3467H29.8463C29.8463 25.2868 29.8451 25.2142 29.8371 25.1467C29.829 25.0788 29.8143 25.0182 29.7884 24.9806L29.8002 24.9661C29.8294 25.0086 29.8447 25.0745 29.8529 25.1434ZM29.2383 25.6178C29.2355 25.5859 29.2329 25.5573 29.2314 25.5343L29.2473 25.5324C29.2488 25.5545 29.2513 25.5824 29.254 25.6139C29.2603 25.6856 29.2683 25.7759 29.2705 25.8588C29.272 25.9187 29.2707 25.9758 29.2633 26.0203C29.2561 26.064 29.2425 26.1001 29.2166 26.1103L29.2121 26.0898C29.2287 26.0833 29.2407 26.0585 29.2477 26.0158C29.2546 25.9739 29.256 25.9189 29.2545 25.8596C29.2523 25.7775 29.2445 25.6891 29.2383 25.6178ZM30.1562 26.5901C30.156 26.5899 30.1554 26.5894 30.1543 26.5894V26.6107C30.147 26.6107 30.1428 26.6032 30.1407 26.5966C30.1386 26.5898 30.1376 26.5807 30.1376 26.57C30.1376 26.5485 30.1416 26.5173 30.1518 26.4766L30.1669 26.4834C30.1571 26.5228 30.1536 26.5516 30.1536 26.57C30.1536 26.5794 30.1545 26.5853 30.1555 26.5884C30.156 26.5902 30.1563 26.5904 30.1562 26.5901ZM30.0705 26.6063C30.071 26.6279 30.0767 26.6397 30.0829 26.6438L30.0758 26.6629C30.062 26.6537 30.0551 26.6322 30.0545 26.6071C30.0538 26.5815 30.0593 26.5497 30.0722 26.5152L30.0865 26.5248C30.0744 26.557 30.0699 26.5852 30.0705 26.6063ZM29.984 26.6721C29.9848 26.6839 29.987 26.6894 29.9891 26.6915L29.9795 26.7086C29.9717 26.7007 29.9689 26.687 29.9681 26.6738C29.9672 26.6601 29.9683 26.6437 29.9702 26.6268C29.973 26.6018 29.9779 26.5739 29.9822 26.5492C29.9838 26.5404 29.9853 26.5321 29.9865 26.5244L30.0022 26.529C30.0008 26.5372 29.9993 26.5459 29.9977 26.5549C29.9934 26.5794 29.9887 26.6059 29.986 26.6299C29.9842 26.6463 29.9833 26.6608 29.984 26.6721ZM29.8796 26.7249C29.8798 26.7256 29.88 26.7258 29.88 26.7258L29.8687 26.7409C29.8662 26.7376 29.8647 26.7334 29.8636 26.7292C29.8624 26.7249 29.8616 26.7199 29.861 26.7145C29.8599 26.7036 29.8598 26.6901 29.8607 26.6749C29.8627 26.6446 29.8692 26.6068 29.8821 26.5689L29.8966 26.5778C29.8845 26.6133 29.8785 26.6488 29.8767 26.6768C29.8758 26.6908 29.876 26.7027 29.8769 26.7116C29.8773 26.7161 29.878 26.7196 29.8786 26.7221C29.879 26.7234 29.8793 26.7243 29.8796 26.7249Z" fill="black"/>
<path d="M29.025 14.18C29.065 14.2467 29.11 14.2467 29.115 14.2867C29.125 14.34 29.13 14.34 29.135 14.3534C29.145 14.3667 29.115 14.3667 29.105 14.3534H29.035C29.015 14.3534 28.995 14.32 29.005 14.32C29.02 14.3134 29.02 14.3067 29.015 14.2934C29.015 14.2734 29.025 14.2534 29.035 14.2467L29.03 14.2267C29.02 14.2067 29.015 14.16 29.025 14.1734V14.18ZM29.05 14.1067C29.1134 14.1188 29.1726 14.1559 29.22 14.2134C29.255 14.2667 29.225 14.2534 29.21 14.2534C29.195 14.2534 29.16 14.24 29.14 14.2134C29.1138 14.1766 29.0811 14.1491 29.045 14.1334C29.03 14.1334 29.015 14.1067 29.045 14.1067H29.05Z" fill="black"/>
<path d="M3.99976 4H19.9998V20H3.99976V4Z" fill="#012169"/>
<path d="M5.87476 4L11.9748 10.0333L18.0498 4H19.9998V6.06667L13.9998 12.0333L19.9998 17.9667V20H17.9998L11.9998 14.0333L6.02476 20H3.99976V18L9.97476 12.0667L3.99976 6.13333V4H5.87476Z" fill="white"/>
<path d="M14.5998 13.3667L19.9998 18.6667V20L13.2248 13.3667H14.5998ZM9.99976 14.0333L10.1498 15.2L5.34976 20H3.99976L9.99976 14.0333ZM19.9998 4V4.1L13.7748 10.3667L13.8248 8.9L18.7498 4H19.9998ZM3.99976 4L9.97476 9.86667H8.47476L3.99976 5.4V4Z" fill="#C8102E"/>
<path d="M10.0248 4V20H14.0248V4H10.0248ZM3.99976 9.33333V14.6667H19.9998V9.33333H3.99976Z" fill="white"/>
<path d="M3.99976 10.4333V13.6333H19.9998V10.4333H3.99976ZM10.8248 4V20H13.2248V4H10.8248Z" fill="#C8102E"/>
</g>
<rect x="2" y="2" width="36" height="36" rx="18" stroke="white" stroke-width="4"/>
<defs>
<clipPath id="clip0_90_24349">
<rect x="4" y="4" width="32" height="32" rx="16" fill="white"/>
</clipPath>
</defs>
</svg>
