<svg width="40" height="40" viewBox="0 0 40 40" fill="none" xmlns="http://www.w3.org/2000/svg">
<g clip-path="url(#clip0_90_24302)">
<path fill-rule="evenodd" clip-rule="evenodd" d="M19.9995 4H35.9995V36H19.9995V4Z" fill="#CE0000"/>
<path fill-rule="evenodd" clip-rule="evenodd" d="M4 4H20V36H4V4Z" fill="white"/>
<path fill-rule="evenodd" clip-rule="evenodd" d="M11.7562 13.4566C11.7562 13.5526 11.6843 13.6165 11.5964 13.6165C11.5005 13.6165 11.4365 13.5526 11.4365 13.4673C11.4365 13.382 11.5005 13.3074 11.5964 13.3074C11.6843 13.3074 11.7562 13.382 11.7562 13.4673V13.4566Z" fill="#F1EEEE"/>
<path fill-rule="evenodd" clip-rule="evenodd" d="M6.63232 12.7106V16.6751H9.61371C9.61371 17.3359 10.1093 17.9966 10.6048 17.9966V21.9612H13.5862V17.9966C14.0818 17.9966 14.5774 17.3359 14.5774 16.6751H17.5508V12.7106H14.5694C14.5694 12.0498 14.0738 11.3891 13.5782 11.3891V7.42456H10.6048V11.3891C10.1013 11.3891 9.60572 12.0498 9.60572 12.7106H6.63232Z" fill="#CC0000"/>
<path fill-rule="evenodd" clip-rule="evenodd" d="M6.73706 12.8385V16.5472H9.71046C9.71046 17.208 10.206 17.8687 10.7016 17.8687V21.8333H13.4752V17.8794C13.9707 17.8794 14.4663 17.2186 14.4663 16.5579H17.4477V12.8491H14.4743C14.4743 12.1884 13.9787 11.5276 13.4832 11.5276V7.55243H10.7016V11.517C10.206 11.517 9.71046 12.1777 9.71046 12.8385H6.73706V12.8385Z" fill="#FFE600"/>
<path fill-rule="evenodd" clip-rule="evenodd" d="M6.8324 12.977V16.4087H9.80579C9.80579 17.0694 10.3014 17.7302 10.7969 17.7302V21.6947H13.3787V17.7302C13.8742 17.7302 14.3698 17.0694 14.3698 16.4087H17.3432V12.977H14.3698C14.3698 12.3163 13.8742 11.6555 13.3787 11.6555V7.69098H10.7969V11.6448C10.3014 11.6448 9.80579 12.3056 9.80579 12.9664H6.8324V12.977Z" fill="#707070"/>
<path fill-rule="evenodd" clip-rule="evenodd" d="M6.93658 13.1049V16.2808H9.90998C9.90998 16.9415 10.4055 17.6023 10.9011 17.6023V21.5562H13.275V17.5916C13.7706 17.5916 14.2662 16.9309 14.2662 16.2701H17.2396V13.0942H14.2662C14.2662 12.4335 13.7706 11.7727 13.275 11.7727V7.81885H10.9011V11.7834C10.4055 11.7834 9.90998 12.4441 9.90998 13.1049H6.92859H6.93658Z" fill="#A0A0A0"/>
<path fill-rule="evenodd" clip-rule="evenodd" d="M10.9246 11.4531C11.0925 11.6875 10.9566 12.2524 10.6049 12.7213C10.2532 13.1902 9.83757 13.3607 9.66172 13.1476C9.48587 12.9024 9.62975 12.3376 9.98144 11.8687C10.3331 11.3998 10.7488 11.2292 10.9246 11.4531Z" fill="#D0D0D0"/>
<path fill-rule="evenodd" clip-rule="evenodd" d="M10.7095 11.7301C10.8853 11.9646 10.8374 12.4015 10.6056 12.7212C10.3738 13.041 10.0461 13.0942 9.87022 12.8598C9.69438 12.6253 9.74233 12.1884 9.97413 11.8793C10.2059 11.5702 10.5336 11.5063 10.7095 11.7301V11.7301Z" fill="#808080"/>
<path fill-rule="evenodd" clip-rule="evenodd" d="M9.83777 12.4335L9.90171 12.3483L10.1815 12.5294L10.0456 12.1564L10.1175 12.0605L10.3973 12.8065L9.83777 12.4335ZM10.2534 11.8793L10.3333 11.7728L10.749 12.3483L10.677 12.4335L10.2534 11.8793Z" fill="#D0D0D0"/>
<path fill-rule="evenodd" clip-rule="evenodd" d="M14.5141 13.1369C14.3383 13.3714 13.9147 13.1795 13.571 12.7106C13.2273 12.2417 13.0754 11.6875 13.2513 11.453C13.4271 11.2186 13.8507 11.4104 14.2024 11.8793C14.5541 12.3482 14.682 12.9024 14.5221 13.1369H14.5141Z" fill="#D0D0D0"/>
<path fill-rule="evenodd" clip-rule="evenodd" d="M14.3065 12.8598C14.1307 13.0943 13.803 13.0304 13.5712 12.7213C13.3394 12.4122 13.2914 11.9753 13.4593 11.7408C13.6351 11.5064 13.9708 11.5703 14.2026 11.8794C14.4344 12.1884 14.4824 12.6254 14.3065 12.8598Z" fill="#808080"/>
<path fill-rule="evenodd" clip-rule="evenodd" d="M13.7784 11.6875L13.8503 11.7834L13.7065 12.1564L13.9862 11.9646L14.0662 12.0712L13.4987 12.4335L13.7784 11.6875V11.6875ZM14.202 12.2523L14.266 12.3376L13.8503 12.9024L13.7784 12.8065L14.202 12.2523Z" fill="#D0D0D0"/>
<path fill-rule="evenodd" clip-rule="evenodd" d="M13.2511 17.9327C13.0752 17.6982 13.2191 17.1334 13.5708 16.6645C13.9225 16.1955 14.3381 16.0144 14.514 16.2382C14.6898 16.4726 14.5459 17.0375 14.1942 17.5064C13.8426 17.9753 13.4269 18.1565 13.2511 17.9327V17.9327Z" fill="#D0D0D0"/>
<path fill-rule="evenodd" clip-rule="evenodd" d="M13.4673 17.6449C13.2914 17.4105 13.3394 16.9735 13.5712 16.6645C13.803 16.3554 14.1307 16.2915 14.3065 16.5259C14.4824 16.7604 14.4344 17.1973 14.2026 17.5064C13.9708 17.8155 13.6431 17.8794 13.4593 17.6449H13.4673Z" fill="#808080"/>
<path fill-rule="evenodd" clip-rule="evenodd" d="M14.3381 16.9415L14.2662 17.0481L13.9865 16.8563L14.1303 17.2293L14.0584 17.3146L13.7786 16.5685L14.3381 16.9415ZM13.9305 17.5064L13.8506 17.6023L13.4349 17.0375L13.5069 16.9415L13.9305 17.5064Z" fill="#D0D0D0"/>
<path fill-rule="evenodd" clip-rule="evenodd" d="M9.66271 16.2488C9.83856 16.0144 10.2622 16.2062 10.6059 16.6645C10.9496 17.1227 11.0935 17.6982 10.9256 17.922C10.7498 18.1565 10.3261 17.9753 9.97444 17.5064C9.62274 17.0375 9.49486 16.4726 9.65472 16.2488H9.66271Z" fill="#D0D0D0"/>
<path fill-rule="evenodd" clip-rule="evenodd" d="M9.87022 16.5259C10.0461 16.2915 10.3738 16.3554 10.6056 16.6645C10.8374 16.9735 10.8853 17.4105 10.7095 17.6449C10.5416 17.8794 10.2059 17.8155 9.97413 17.5064C9.74233 17.1973 9.69438 16.7604 9.87022 16.5259Z" fill="#808080"/>
<path fill-rule="evenodd" clip-rule="evenodd" d="M10.3975 17.6982L10.3255 17.5916L10.4694 17.2293L10.1897 17.4105L10.1097 17.3145L10.6772 16.9415L10.3975 17.6876V17.6982ZM9.97386 17.1334L9.90991 17.0375L10.3255 16.4833L10.3975 16.5685L9.97386 17.1334Z" fill="#D0D0D0"/>
<path fill-rule="evenodd" clip-rule="evenodd" d="M12.0968 11.9383C10.9539 11.9383 10.0281 13.1723 10.0281 14.6953C10.0281 16.2183 10.9512 17.4522 12.094 17.4522C13.2369 17.4522 14.1627 16.2146 14.1627 14.6953V14.6768H14.1654C14.1579 13.1623 13.2351 11.9383 12.0968 11.9383ZM14.1903 14.7137H14.1931V14.6953C14.1931 13.1519 13.2549 11.9014 12.0968 11.9014C10.9386 11.9014 10.0005 13.1519 10.0005 14.6953C10.0005 16.2386 10.9358 17.4891 12.094 17.4891C13.2476 17.4891 14.1828 16.2449 14.1903 14.7137Z" fill="#707070"/>
<path fill-rule="evenodd" clip-rule="evenodd" d="M12.0859 12.5891C11.2151 12.5891 10.5098 13.5292 10.5098 14.6896C10.5098 15.85 11.2131 16.7902 12.0838 16.7902C12.9546 16.7902 13.6599 15.8472 13.6599 14.6896V14.6756H13.662C13.6563 13.5217 12.9532 12.5891 12.0859 12.5891ZM13.681 14.7037H13.6831V14.6896C13.6831 13.5137 12.9683 12.561 12.0859 12.561C11.2035 12.561 10.4888 13.5137 10.4888 14.6896C10.4888 15.8655 11.2014 16.8183 12.0838 16.8183C12.9627 16.8183 13.6753 15.8703 13.681 14.7037Z" fill="#707070"/>
<path fill-rule="evenodd" clip-rule="evenodd" d="M11.3967 16.9416C11.3967 16.9769 11.3862 17.0108 11.3675 17.0358C11.3487 17.0607 11.3233 17.0748 11.2968 17.0748C11.2703 17.0748 11.2449 17.0607 11.2262 17.0358C11.2074 17.0108 11.1969 16.9769 11.1969 16.9416C11.1969 16.9062 11.2074 16.8724 11.2262 16.8474C11.2449 16.8224 11.2703 16.8083 11.2968 16.8083C11.3233 16.8083 11.3487 16.8224 11.3675 16.8474C11.3862 16.8724 11.3967 16.9062 11.3967 16.9416V16.9416ZM12.9793 16.9416C12.9793 16.9769 12.9688 17.0108 12.9501 17.0358C12.9313 17.0607 12.9059 17.0748 12.8794 17.0748C12.8529 17.0748 12.8275 17.0607 12.8088 17.0358C12.79 17.0108 12.7795 16.9769 12.7795 16.9416C12.7795 16.9062 12.79 16.8724 12.8088 16.8474C12.8275 16.8224 12.8529 16.8083 12.8794 16.8083C12.9059 16.8083 12.9313 16.8224 12.9501 16.8474C12.9688 16.8724 12.9793 16.9062 12.9793 16.9416ZM12.0202 16.9416V17.0801H11.8923C11.7564 17.0801 11.7564 17.2187 11.8923 17.2187H12.0202V17.3465C12.0202 17.4957 12.1401 17.5064 12.1481 17.3572V17.208H12.2839C12.4198 17.208 12.4198 17.0801 12.2839 17.0801H12.1561V16.9416C12.1561 16.803 12.0202 16.803 12.0202 16.9416Z" fill="#D0D0D0"/>
<path fill-rule="evenodd" clip-rule="evenodd" d="M11.5966 14.9806V15.0659C11.5966 15.0659 11.5646 15.1192 11.3648 15.1405C11.165 15.1618 11.133 15.1405 11.133 15.1405C11.141 15.2151 11.181 15.343 11.165 15.4922C11.173 15.6733 11.133 15.8332 11.133 15.8332C11.133 15.8439 11.109 15.8545 11.0691 15.8439C11.101 15.8012 11.101 15.6947 11.101 15.5241C11.101 15.3749 10.9811 15.1298 11.0051 15.0659C11.0291 15.0019 11.5966 14.9806 11.5966 14.9806V14.9806ZM12.3799 14.7035L12.8995 14.6929C12.8995 14.6929 12.9794 14.906 12.9714 15.0126C12.9714 15.1192 12.9394 15.2257 12.9075 15.1725C12.8675 15.1192 12.9234 15.1298 12.9314 15.0126C12.9314 14.8847 12.8675 14.7675 12.8675 14.7675C12.8675 14.7675 12.7236 14.8421 12.5158 14.8314C12.308 14.8101 12.4039 14.7035 12.3799 14.7035Z" fill="#D0D0D0"/>
<path fill-rule="evenodd" clip-rule="evenodd" d="M12.903 14.6904L12.9031 14.6906L12.9032 14.6911L12.9039 14.6929C12.9045 14.6945 12.9054 14.6968 12.9065 14.6999C12.9086 14.7059 12.9117 14.7147 12.9154 14.7256C12.9228 14.7473 12.9326 14.7774 12.9421 14.8108C12.9517 14.8442 12.961 14.8811 12.9674 14.9164C12.9738 14.9514 12.9774 14.9853 12.9754 15.0128C12.9753 15.0665 12.9673 15.1206 12.955 15.1547C12.9489 15.1716 12.9414 15.1848 12.9324 15.1898C12.9278 15.1924 12.9229 15.1927 12.9179 15.1902C12.9132 15.1878 12.9087 15.183 12.9044 15.176C12.8945 15.1626 12.8895 15.1521 12.8892 15.1416C12.8889 15.1312 12.8933 15.1224 12.8982 15.1134C12.8987 15.1123 12.8993 15.1113 12.8999 15.1102C12.9097 15.092 12.9237 15.0661 12.9274 15.0123C12.9274 14.9495 12.9117 14.8892 12.8958 14.8443C12.8879 14.8219 12.88 14.8034 12.874 14.7905C12.8711 14.7841 12.8686 14.7791 12.8669 14.7757C12.8666 14.775 12.8662 14.7744 12.866 14.7738C12.865 14.7743 12.8637 14.7749 12.8622 14.7756C12.8578 14.7777 12.8513 14.7806 12.8429 14.784C12.8261 14.7909 12.8015 14.7999 12.7704 14.8086C12.7082 14.826 12.6199 14.842 12.5156 14.8367L12.5155 14.8367C12.4633 14.8313 12.4298 14.8206 12.4085 14.8072C12.3872 14.7937 12.3778 14.7773 12.375 14.7606C12.3723 14.7446 12.3757 14.7296 12.3781 14.7194L12.3782 14.7189C12.3788 14.7163 12.3793 14.7141 12.3796 14.7122C12.3799 14.7106 12.3801 14.7096 12.3801 14.7088C12.38 14.7088 12.38 14.7088 12.3799 14.7088L12.3798 14.6981L12.3799 14.6981L12.9019 14.6874L12.903 14.6904ZM12.3881 14.7086L12.897 14.6982C12.8975 14.6997 12.8983 14.7019 12.8992 14.7045C12.9014 14.7105 12.9045 14.7192 12.9082 14.73C12.9155 14.7516 12.9252 14.7814 12.9347 14.8146C12.9441 14.8478 12.9533 14.8842 12.9596 14.9189C12.966 14.9537 12.9693 14.9863 12.9674 15.012L12.9674 15.0125C12.9674 15.0653 12.9594 15.1177 12.9478 15.1501C12.9419 15.1665 12.9354 15.1766 12.9294 15.18C12.9265 15.1816 12.9237 15.1817 12.9208 15.1802C12.9177 15.1787 12.9143 15.1753 12.9105 15.1691L12.9103 15.1686C12.9004 15.1554 12.8974 15.1474 12.8972 15.1412C12.897 15.135 12.8996 15.1291 12.9047 15.1195C12.9052 15.1185 12.9058 15.1175 12.9063 15.1165C12.9165 15.0977 12.9315 15.0699 12.9354 15.013L12.9354 15.0125C12.9354 14.9475 12.9192 14.8854 12.903 14.8398C12.895 14.8169 12.8869 14.7981 12.8809 14.7849C12.8778 14.7784 12.8753 14.7732 12.8735 14.7697C12.8726 14.768 12.8719 14.7666 12.8715 14.7657L12.8709 14.7647L12.8707 14.7644L12.8707 14.7643L12.8689 14.761L12.866 14.7625L12.8659 14.7625L12.8656 14.7627L12.8644 14.7633C12.8633 14.7638 12.8617 14.7646 12.8596 14.7656C12.8553 14.7676 12.8489 14.7704 12.8406 14.7738C12.8239 14.7806 12.7996 14.7896 12.7687 14.7982C12.707 14.8154 12.6195 14.8313 12.516 14.826C12.4643 14.8207 12.4319 14.8101 12.4119 14.7976C12.3921 14.7851 12.3849 14.7709 12.3828 14.7582C12.3806 14.7452 12.3834 14.7325 12.3858 14.722C12.3864 14.7195 12.387 14.717 12.3874 14.7147C12.3878 14.7128 12.3881 14.7106 12.3881 14.7086ZM11.0175 15.0591C11.0122 15.0627 11.0096 15.0658 11.0087 15.0682C11.0062 15.0749 11.0054 15.0845 11.0063 15.0972C11.0073 15.1098 11.0099 15.1249 11.0138 15.1419C11.0214 15.1751 11.0337 15.215 11.0468 15.2579L11.0478 15.261C11.0612 15.3049 11.0755 15.3517 11.0865 15.3969C11.0974 15.442 11.105 15.486 11.105 15.5241V15.5244C11.105 15.6094 11.105 15.6789 11.101 15.7324C11.0974 15.7804 11.0905 15.8169 11.0767 15.8402C11.0931 15.8438 11.1062 15.8434 11.1153 15.8412C11.1205 15.84 11.1242 15.8381 11.1265 15.8363C11.1289 15.8344 11.129 15.8331 11.129 15.8331C11.129 15.8331 11.129 15.8331 11.129 15.8331L11.129 15.8323L11.1292 15.8315L11.1292 15.8314L11.1293 15.831L11.1296 15.8297C11.1299 15.8285 11.1303 15.8267 11.1309 15.8244C11.1319 15.8197 11.1334 15.8128 11.1352 15.804C11.1388 15.7862 11.1436 15.7607 11.148 15.7296C11.157 15.6672 11.1649 15.5824 11.161 15.4924L11.1609 15.4919L11.161 15.4914C11.1689 15.4176 11.163 15.349 11.154 15.2893C11.1499 15.2618 11.1451 15.2361 11.1408 15.2128C11.1404 15.2109 11.1401 15.209 11.1397 15.2072C11.1351 15.1824 11.1311 15.1601 11.129 15.1412L11.1279 15.1311L11.1347 15.1356L11.1349 15.1357C11.1351 15.1358 11.1354 15.136 11.136 15.1362C11.1371 15.1367 11.139 15.1374 11.1419 15.1382C11.1478 15.1398 11.1578 15.1418 11.1742 15.1431C11.2069 15.1457 11.2646 15.1458 11.3645 15.1351C11.4642 15.1245 11.5217 15.1059 11.5542 15.0901C11.5705 15.0822 11.5805 15.0751 11.5863 15.07C11.5892 15.0675 11.591 15.0655 11.5922 15.0642C11.5923 15.064 11.5925 15.0638 11.5926 15.0637V14.9861L11.5903 14.9861C11.5862 14.9863 11.5801 14.9866 11.5723 14.9869C11.5567 14.9876 11.5345 14.9887 11.5077 14.9902C11.4541 14.9932 11.3825 14.9979 11.3101 15.0045C11.2377 15.0112 11.1646 15.0198 11.1082 15.0308C11.08 15.0363 11.056 15.0423 11.0385 15.0489C11.0297 15.0522 11.0226 15.0556 11.0175 15.0591ZM11.5966 14.9806C11.5965 14.9752 11.5965 14.9752 11.5965 14.9752L11.5948 14.9753L11.5901 14.9755C11.5859 14.9757 11.5798 14.9759 11.572 14.9763C11.5564 14.977 11.5342 14.9781 11.5074 14.9796C11.4538 14.9826 11.382 14.9872 11.3096 14.9939C11.2371 15.0006 11.1638 15.0092 11.1071 15.0203C11.0787 15.0258 11.0544 15.0319 11.0363 15.0387C11.0273 15.0421 11.0197 15.0457 11.0139 15.0496C11.0083 15.0533 11.0036 15.0578 11.0015 15.0634C10.998 15.0728 10.9973 15.0848 10.9984 15.0983C10.9994 15.1119 11.0022 15.1277 11.0061 15.145C11.0139 15.1787 11.0262 15.219 11.0393 15.2616L11.0404 15.265C11.0539 15.309 11.068 15.3554 11.0788 15.4002C11.0897 15.445 11.097 15.4876 11.097 15.5241C11.097 15.6095 11.097 15.6784 11.093 15.7314C11.089 15.7846 11.0811 15.8202 11.0662 15.84L11.0609 15.8471L11.0683 15.849C11.0886 15.8545 11.1051 15.8545 11.1167 15.8517C11.1225 15.8503 11.1272 15.8482 11.1307 15.8454C11.1338 15.8429 11.1366 15.8391 11.1369 15.8341L11.1372 15.8329C11.1375 15.8317 11.138 15.8299 11.1385 15.8275C11.1396 15.8227 11.1411 15.8157 11.143 15.8067C11.1466 15.7888 11.1514 15.763 11.1559 15.7316C11.1649 15.6688 11.1729 15.5833 11.169 15.4923C11.177 15.4171 11.1709 15.3474 11.1619 15.2873C11.1577 15.2594 11.1529 15.2336 11.1485 15.2103C11.1482 15.2083 11.1478 15.2065 11.1475 15.2046C11.1435 15.1834 11.1401 15.1644 11.1379 15.148C11.1386 15.1482 11.1394 15.1484 11.1403 15.1486C11.1467 15.1504 11.1571 15.1524 11.1737 15.1537C11.2069 15.1564 11.2651 15.1564 11.3651 15.1457C11.4652 15.1351 11.5236 15.1163 11.557 15.1001C11.5737 15.092 11.5842 15.0845 11.5906 15.0789C11.5939 15.0761 11.596 15.0738 11.5975 15.0721C11.5982 15.0713 11.5987 15.0706 11.5991 15.0701C11.5992 15.0699 11.5994 15.0696 11.5995 15.0695L11.5996 15.0693L11.5997 15.0692C11.5997 15.0692 11.5997 15.0692 11.5966 15.0658L11.5997 15.0692L11.6006 15.0677V14.9806H11.5966Z" fill="#707070"/>
<path fill-rule="evenodd" clip-rule="evenodd" d="M12.4438 14.906C12.6356 14.8954 12.7635 14.9273 12.7635 14.9273C12.7635 14.9273 12.8435 15.1405 12.8435 15.2471C12.8355 15.3536 12.8115 15.4602 12.7715 15.4069C12.7395 15.3643 12.7875 15.3749 12.7955 15.2471C12.7955 15.1298 12.7316 15.0019 12.7316 15.0019C12.7316 15.0019 12.5957 15.0765 12.3879 15.0659C12.18 15.0446 12.244 15.0339 12.22 15.0233C12.196 15.0233 12.188 15.1085 11.8763 15.1192C11.5566 15.1192 11.3967 15.0233 11.3967 15.0233C11.3967 15.0233 11.3648 15.0872 11.1729 15.1085H10.9331C10.9411 15.1725 10.9811 15.3003 10.9731 15.4602C10.9731 15.6307 10.9331 15.8012 10.9331 15.8012H10.8772C10.9092 15.7693 10.9012 15.652 10.9091 15.4922C10.9091 15.3323 10.7813 15.0979 10.8052 15.0233C10.8372 14.9593 10.9811 15.0233 11.0051 14.9913C11.029 14.9487 10.8772 14.7035 10.9091 14.4797C10.9331 14.2559 11.101 14.3199 11.3008 14.3199C11.5006 14.3305 11.9402 14.4051 12.0521 14.3199C12.1641 14.2453 12.1161 13.9575 12.212 13.7763C12.2438 13.7245 12.2842 13.6832 12.3299 13.6554C12.3757 13.6277 12.4256 13.6144 12.4758 13.6165C12.5477 13.6165 12.6356 13.9362 12.6356 14.0108L12.6117 14.0534H12.5797V14.0854C12.4998 14.0961 12.4918 14.0001 12.4438 13.9362C12.4278 14.0428 12.5077 14.4051 12.5077 14.6396C12.5077 14.8314 12.4518 14.9167 12.4438 14.906V14.906Z" fill="#D0D0D0"/>
<path fill-rule="evenodd" clip-rule="evenodd" d="M12.4755 13.6218C12.4259 13.6198 12.3766 13.6329 12.3314 13.6603C12.2863 13.6877 12.2465 13.7285 12.215 13.7796C12.1719 13.8613 12.1582 13.9649 12.1455 14.0618C12.1443 14.071 12.1431 14.08 12.1419 14.089C12.1349 14.141 12.1273 14.1901 12.1144 14.231C12.1014 14.272 12.0829 14.3052 12.0539 14.3246C12.025 14.3465 11.9757 14.3579 11.9157 14.3627C11.8554 14.3675 11.7836 14.3658 11.7091 14.3612C11.6346 14.3565 11.5574 14.3488 11.4863 14.3417C11.4831 14.3414 11.4799 14.341 11.4768 14.3407C11.4095 14.3339 11.3482 14.3278 11.3006 14.3252C11.2622 14.3252 11.2251 14.3229 11.19 14.3206C11.1792 14.32 11.1687 14.3193 11.1584 14.3187C11.1141 14.3162 11.074 14.3152 11.0394 14.3212C11.0048 14.3271 10.9762 14.3399 10.9548 14.3644C10.9335 14.3888 10.9188 14.4255 10.913 14.4805L10.9129 14.4807C10.8972 14.5909 10.9267 14.7068 10.9576 14.8013C10.9653 14.8249 10.9731 14.8471 10.9803 14.8675L10.9808 14.8688C10.9877 14.8886 10.9941 14.9068 10.9992 14.9228C11.0044 14.9391 11.0084 14.9534 11.0103 14.9651C11.0121 14.9766 11.0122 14.9872 11.0081 14.9945L11.0078 14.9951C11.0039 15.0003 10.998 15.003 10.9914 15.0045C10.9848 15.006 10.9768 15.0064 10.968 15.0061C10.9562 15.0058 10.9427 15.0043 10.9286 15.0028C10.9217 15.002 10.9147 15.0013 10.9077 15.0006C10.8863 14.9986 10.8649 14.9977 10.847 15.0011C10.8291 15.0045 10.8157 15.012 10.8086 15.0258C10.8061 15.0339 10.8055 15.0445 10.8066 15.0577C10.8078 15.071 10.8107 15.0866 10.815 15.1039C10.8232 15.1372 10.8361 15.1763 10.85 15.2184L10.8517 15.2236C10.8662 15.2676 10.8815 15.3144 10.8932 15.3603C10.9048 15.4061 10.913 15.4514 10.913 15.4922V15.4926C10.911 15.5324 10.91 15.5696 10.9091 15.6036L10.909 15.6081C10.9082 15.6403 10.9074 15.6695 10.906 15.6951C10.9045 15.7218 10.9022 15.7449 10.8982 15.7634C10.8954 15.7763 10.8918 15.7874 10.8867 15.7959H10.93C10.9302 15.7949 10.9305 15.7936 10.9309 15.7921C10.9319 15.7871 10.9335 15.7799 10.9354 15.7706C10.9391 15.752 10.9441 15.7255 10.949 15.6936C10.959 15.6298 10.9689 15.545 10.9689 15.4602V15.4599C10.9729 15.3806 10.965 15.3092 10.9551 15.2496C10.9503 15.2208 10.945 15.1948 10.9404 15.1719L10.9399 15.1694C10.9351 15.146 10.9311 15.1257 10.929 15.1094L10.9283 15.1032H11.1726C11.2681 15.0926 11.3236 15.0714 11.355 15.053C11.3707 15.0439 11.3804 15.0354 11.3861 15.0294C11.3889 15.0264 11.3908 15.024 11.3919 15.0224C11.3924 15.0216 11.3928 15.021 11.393 15.0207L11.3932 15.0203L11.3951 15.0166L11.3982 15.0184L11.3983 15.0185L11.3986 15.0187L11.4 15.0194C11.4012 15.0201 11.4031 15.0211 11.4055 15.0224C11.4105 15.025 11.4179 15.0287 11.4278 15.0332C11.4477 15.0421 11.4775 15.0541 11.5173 15.066C11.597 15.0899 11.7166 15.1139 11.8761 15.1139C12.0317 15.1085 12.1111 15.0846 12.1545 15.0623C12.1761 15.0511 12.1888 15.0404 12.1976 15.0324C12.1986 15.0314 12.1996 15.0306 12.2005 15.0297C12.2037 15.0268 12.2065 15.0242 12.209 15.0223C12.2124 15.0197 12.2159 15.0179 12.2198 15.0179H12.2205L12.2211 15.0182C12.2244 15.0197 12.2267 15.0214 12.2283 15.0236C12.2299 15.0259 12.2304 15.0283 12.2307 15.0297C12.2308 15.0298 12.2308 15.0299 12.2308 15.0299C12.2311 15.0312 12.2312 15.0316 12.2316 15.0322C12.2321 15.0329 12.2333 15.0341 12.2363 15.0356C12.2423 15.0387 12.2541 15.0423 12.2777 15.0465C12.3012 15.0506 12.336 15.0553 12.3879 15.0606C12.4914 15.0659 12.577 15.05 12.6366 15.0327C12.6665 15.0241 12.6898 15.0152 12.7057 15.0084C12.7136 15.005 12.7197 15.0021 12.7238 15.0001C12.7258 14.9991 12.7273 14.9984 12.7284 14.9978L12.7295 14.9972L12.7298 14.9971L12.7299 14.997L12.7329 14.9954L12.7347 14.999L12.7348 14.9991L12.7349 14.9994L12.7355 15.0005C12.736 15.0015 12.7367 15.003 12.7375 15.0049C12.7393 15.0086 12.7418 15.0141 12.7449 15.0211C12.7509 15.035 12.759 15.0548 12.767 15.0783C12.7831 15.1252 12.7993 15.1873 12.7993 15.2471V15.2475C12.7953 15.3126 12.7809 15.3428 12.7717 15.3619L12.7717 15.362C12.7694 15.3667 12.7676 15.3704 12.7664 15.3737C12.7651 15.3771 12.7645 15.3797 12.7645 15.3821C12.7644 15.3867 12.7663 15.3927 12.7742 15.4032C12.7836 15.4157 12.791 15.4175 12.7969 15.4145C12.8034 15.4111 12.8098 15.401 12.8157 15.3846C12.8274 15.3523 12.8353 15.2999 12.8393 15.2468C12.8393 15.221 12.8344 15.1883 12.827 15.1536C12.8195 15.1189 12.8096 15.0824 12.7996 15.0492C12.7897 15.016 12.7797 14.9861 12.7722 14.9646C12.7685 14.9538 12.7654 14.9451 12.7632 14.939C12.7621 14.936 12.7613 14.9337 12.7607 14.9321C12.7597 14.9319 12.7585 14.9316 12.7569 14.9313C12.753 14.9304 12.7473 14.9292 12.7398 14.9278C12.7249 14.925 12.703 14.9213 12.6751 14.918C12.6204 14.9115 12.5426 14.9063 12.4493 14.9111C12.4482 14.9117 12.4471 14.9121 12.446 14.9122C12.4443 14.9124 12.4423 14.9118 12.4408 14.9098L12.4437 14.906L12.4435 14.9007C12.4447 14.9006 12.446 14.9006 12.4472 14.9005C12.4489 14.8991 12.4512 14.8965 12.454 14.8923C12.4601 14.8833 12.4676 14.8682 12.475 14.8466C12.4897 14.8034 12.5036 14.7348 12.5036 14.6396C12.5036 14.523 12.4837 14.3743 12.4657 14.2409L12.4651 14.2367C12.4564 14.1717 12.4481 14.1105 12.4429 14.0588C12.4377 14.0063 12.4356 13.9628 12.4397 13.9352L12.4412 13.9254L12.4465 13.9325C12.4588 13.9488 12.4684 13.9672 12.4772 13.9851C12.4794 13.9895 12.4814 13.9938 12.4835 13.998C12.4899 14.0114 12.496 14.0241 12.5028 14.0355C12.5115 14.0505 12.5211 14.0628 12.5331 14.0708C12.5443 14.0783 12.5579 14.0822 12.5755 14.0805V14.0481H12.6095L12.6315 14.0091C12.6311 13.9909 12.6259 13.9585 12.6168 13.9193C12.6075 13.8791 12.5943 13.8323 12.5789 13.7879C12.5635 13.7435 12.5459 13.7016 12.5278 13.6709C12.5188 13.6556 12.5097 13.6432 12.5008 13.6347C12.4919 13.6262 12.4835 13.6218 12.4756 13.6218L12.4755 13.6218ZM12.4597 14.8999C12.5486 14.896 12.6229 14.9011 12.6758 14.9074C12.7039 14.9107 12.7259 14.9144 12.741 14.9173C12.7485 14.9187 12.7543 14.9199 12.7582 14.9207C12.7601 14.9212 12.7616 14.9215 12.7626 14.9218L12.7637 14.922L12.764 14.9221L12.7641 14.9221L12.7634 14.9274L12.7669 14.925L12.767 14.9251L12.7672 14.9256L12.7679 14.9274C12.7684 14.929 12.7693 14.9314 12.7704 14.9344C12.7726 14.9405 12.7757 14.9492 12.7795 14.9601C12.787 14.9818 12.797 15.0119 12.807 15.0453C12.8171 15.0787 12.8271 15.1155 12.8347 15.1507C12.8422 15.1858 12.8473 15.2197 12.8473 15.2471V15.2476C12.8433 15.301 12.8352 15.3551 12.8229 15.3893C12.8168 15.4062 12.8093 15.4195 12.7998 15.4244C12.7897 15.4296 12.7791 15.4248 12.7685 15.4107C12.7604 15.3999 12.7563 15.3912 12.7565 15.3818C12.7566 15.3772 12.7577 15.373 12.7592 15.369C12.7607 15.3651 12.7627 15.361 12.7648 15.3565L12.765 15.3561C12.7738 15.3379 12.7874 15.3095 12.7913 15.2469C12.7913 15.1894 12.7756 15.1291 12.7597 15.0828C12.7518 15.0596 12.7439 15.0401 12.7379 15.0264C12.735 15.0196 12.7325 15.0142 12.7308 15.0105C12.7304 15.0098 12.7301 15.0091 12.7298 15.0085C12.7289 15.009 12.7278 15.0095 12.7265 15.0101C12.7224 15.0122 12.7162 15.0151 12.7081 15.0185C12.692 15.0254 12.6684 15.0344 12.6383 15.0431C12.5781 15.0605 12.4918 15.0766 12.3875 15.0712L12.3874 15.0712C12.3354 15.0659 12.3004 15.0612 12.2766 15.057C12.253 15.0529 12.2404 15.0491 12.2334 15.0456C12.2299 15.0438 12.2275 15.0418 12.2258 15.0395C12.224 15.037 12.2235 15.0345 12.2231 15.0329C12.2228 15.0314 12.2227 15.0312 12.2225 15.0309C12.2222 15.0305 12.2215 15.0297 12.2192 15.0286C12.2174 15.0288 12.2155 15.0297 12.2129 15.0316C12.2107 15.0333 12.2083 15.0355 12.2053 15.0383C12.2043 15.0392 12.2033 15.0401 12.2021 15.0412C12.1929 15.0495 12.1797 15.0607 12.1573 15.0722C12.1128 15.0952 12.0323 15.1192 11.8763 15.1245L11.8761 15.1245C11.716 15.1245 11.5958 15.1005 11.5156 15.0764C11.4755 15.0644 11.4454 15.0524 11.4253 15.0433C11.4152 15.0388 11.4077 15.035 11.4026 15.0324C11.4006 15.0313 11.3989 15.0304 11.3977 15.0297C11.3963 15.0317 11.3942 15.0345 11.3911 15.0378C11.3848 15.0444 11.3745 15.0533 11.3582 15.0628C11.3257 15.0817 11.2693 15.1032 11.1731 15.1138L11.1728 15.1139L10.9378 15.1139C10.9399 15.1284 10.9434 15.146 10.9476 15.1666L10.9481 15.1692C10.9527 15.1921 10.958 15.2183 10.9629 15.2473C10.9729 15.3074 10.9809 15.3799 10.9769 15.4604C10.9769 15.5461 10.9669 15.6317 10.9569 15.6958C10.9519 15.7279 10.9468 15.7546 10.9431 15.7733C10.9412 15.7827 10.9396 15.7901 10.9385 15.7951C10.938 15.7976 10.9375 15.7995 10.9372 15.8008L10.9369 15.8023L10.9368 15.8027L10.9368 15.8028L10.9359 15.8066H10.865L10.8746 15.797C10.8816 15.79 10.8868 15.778 10.8905 15.7605C10.8943 15.743 10.8965 15.7208 10.898 15.6943C10.8994 15.6689 10.9002 15.6399 10.901 15.6077L10.9011 15.6032C10.902 15.5693 10.903 15.532 10.905 15.492C10.905 15.453 10.8971 15.409 10.8856 15.3637C10.8741 15.3183 10.8589 15.2719 10.8444 15.2279L10.8426 15.2224C10.8288 15.1806 10.8157 15.141 10.8074 15.1072C10.8031 15.0895 10.7999 15.0733 10.7987 15.0589C10.7975 15.0446 10.798 15.0317 10.8014 15.0212L10.8016 15.0207L10.8018 15.0203C10.8107 15.0024 10.8272 14.9941 10.8459 14.9905C10.8647 14.9869 10.8868 14.988 10.9083 14.99C10.9155 14.9907 10.9226 14.9914 10.9296 14.9922C10.9435 14.9937 10.9567 14.9951 10.9682 14.9955C10.9767 14.9957 10.9842 14.9953 10.9901 14.994C10.9959 14.9926 10.9997 14.9905 11.0019 14.9878C11.0036 14.9844 11.0042 14.9781 11.0025 14.9674C11.0007 14.9567 10.997 14.9431 10.9919 14.9269C10.9868 14.9111 10.9805 14.8931 10.9735 14.8732L10.9731 14.872C10.9659 14.8516 10.9581 14.8293 10.9503 14.8056C10.9193 14.711 10.8889 14.5925 10.9051 14.4789C10.9112 14.4221 10.9265 14.3828 10.9496 14.3563C10.9727 14.3299 11.003 14.3167 11.0384 14.3106C11.0737 14.3045 11.1145 14.3056 11.1587 14.3081C11.1691 14.3087 11.1797 14.3093 11.1905 14.31C11.2256 14.3122 11.2625 14.3146 11.3007 14.3146H11.3008C11.3486 14.3171 11.41 14.3233 11.4773 14.3301C11.4805 14.3304 11.4837 14.3307 11.4869 14.3311C11.558 14.3382 11.6351 14.3459 11.7095 14.3505C11.7839 14.3552 11.8554 14.3568 11.9152 14.352C11.9753 14.3472 12.0229 14.3359 12.05 14.3153L12.0502 14.3151C12.0771 14.2972 12.0945 14.2665 12.107 14.2269C12.1196 14.1872 12.127 14.1391 12.134 14.0871C12.1352 14.0781 12.1364 14.069 12.1376 14.0597C12.1503 13.9632 12.1642 13.8571 12.2086 13.7733L12.2088 13.773C12.241 13.7205 12.2818 13.6787 12.3281 13.6506C12.3744 13.6226 12.4249 13.6091 12.4757 13.6112C12.4858 13.6112 12.4958 13.6168 12.5055 13.6261C12.5152 13.6353 12.5248 13.6485 12.5341 13.6643C12.5527 13.6959 12.5706 13.7386 12.5862 13.7835C12.6017 13.8283 12.615 13.8755 12.6244 13.9162C12.6338 13.9566 12.6395 13.9913 12.6395 14.0108V14.0126L12.6135 14.0588H12.5835V14.0902L12.5799 14.0907C12.5593 14.0935 12.5431 14.0894 12.5295 14.0804C12.5161 14.0714 12.5056 14.0577 12.4965 14.0421C12.4895 14.0302 12.4831 14.0169 12.4766 14.0035C12.4746 13.9993 12.4726 13.9951 12.4705 13.9909C12.4633 13.9761 12.4555 13.9613 12.4464 13.9478C12.4443 13.9737 12.4463 14.0114 12.4509 14.0574C12.456 14.1088 12.4642 14.1698 12.473 14.235L12.4736 14.239C12.4915 14.3721 12.5116 14.5218 12.5116 14.6396C12.5116 14.7362 12.4975 14.8062 12.4823 14.851C12.4746 14.8733 12.4667 14.8894 12.46 14.8994C12.4599 14.8996 12.4598 14.8998 12.4597 14.8999ZM12.7634 14.9274L12.7669 14.925L12.7661 14.9226L12.7641 14.9221L12.7634 14.9274Z" fill="#707070"/>
<path fill-rule="evenodd" clip-rule="evenodd" d="M11.8126 14.565C11.8126 14.6396 11.5648 14.8207 11.5409 14.8847C11.5249 14.9593 11.6048 14.9913 11.5808 15.0339C11.5569 15.0765 11.5329 15.0552 11.5249 15.0659L11.429 14.7994C11.429 14.7994 11.6688 14.6502 11.6608 14.5863C11.6528 14.5223 11.4849 14.4797 11.4529 14.3305C11.421 14.1813 11.437 13.8722 11.413 13.8083C11.389 13.7443 11.0933 13.6804 11.0933 13.5951C11.0933 13.4886 11.397 13.2328 11.429 13.1902C11.4609 13.1475 11.4929 13.2328 11.4609 13.2648C11.429 13.3074 11.1972 13.5525 11.1972 13.5845C11.1972 13.6271 11.389 13.6697 11.4529 13.6697C11.5249 13.6697 11.5569 13.6271 11.5569 13.5845C11.5569 13.5525 11.4849 13.5525 11.4849 13.4779C11.4849 13.4033 11.5249 13.35 11.5888 13.35C11.6208 13.35 11.6847 13.4033 11.6847 13.4673C11.6847 13.5312 11.6288 13.5419 11.6208 13.5845C11.6128 13.6378 11.6847 13.6697 11.7487 13.6697C11.8126 13.6697 12.0364 13.8935 12.0684 13.9362C12.1084 13.9681 12.1403 13.9681 12.1084 14.0108C12.0764 14.0534 12.0924 14.096 12.0604 14.0534C12.0449 14.0329 12.0338 14.0071 12.0284 13.9788C12.0284 13.9468 11.7887 13.787 11.7487 13.8189C11.7167 13.8616 11.7487 14.3305 11.7487 14.3731C11.7487 14.4477 11.8206 14.4477 11.8126 14.565V14.565Z" fill="#D0D0D0"/>
<path fill-rule="evenodd" clip-rule="evenodd" d="M11.4508 13.1845C11.4454 13.1826 11.4389 13.1843 11.4316 13.194C11.4274 13.1996 11.4189 13.2085 11.4076 13.2197C11.3962 13.231 11.3817 13.245 11.3652 13.2608L11.3649 13.2611C11.332 13.2927 11.2912 13.3318 11.2514 13.3729C11.2115 13.4142 11.1727 13.4573 11.1439 13.4966C11.1295 13.5163 11.1177 13.5349 11.1096 13.5518C11.1014 13.5688 11.0971 13.5834 11.0971 13.5952C11.0971 13.6037 11.1008 13.6127 11.1086 13.6223C11.1163 13.6318 11.1276 13.6413 11.1415 13.6507C11.1693 13.6695 11.2068 13.6874 11.2453 13.7047C11.2542 13.7087 11.2632 13.7127 11.2722 13.7167C11.3015 13.7297 11.3303 13.7425 11.3542 13.7551C11.3698 13.7633 11.3836 13.7714 11.3942 13.7797C11.4047 13.7878 11.4128 13.7964 11.4164 13.8059C11.4197 13.8146 11.4221 13.8271 11.4241 13.8421C11.426 13.8572 11.4275 13.8753 11.4287 13.8955C11.4308 13.9314 11.432 13.9744 11.4333 14.0199C11.4335 14.0256 11.4336 14.0314 11.4338 14.0372C11.4368 14.1414 11.4408 14.2552 11.4566 14.3291C11.4721 14.4015 11.5208 14.4485 11.5677 14.4858C11.5765 14.4928 11.5852 14.4994 11.5937 14.5058C11.6076 14.5164 11.6206 14.5263 11.6315 14.5359C11.6402 14.5436 11.6479 14.5514 11.6536 14.5594C11.6593 14.5674 11.6634 14.576 11.6646 14.5854C11.6658 14.5957 11.6621 14.6065 11.6561 14.617C11.6501 14.6277 11.6411 14.6391 11.6303 14.6507C11.6087 14.674 11.5792 14.6988 11.5497 14.7215C11.5201 14.7442 11.4903 14.7649 11.468 14.7799C11.4568 14.7874 11.4474 14.7935 11.4408 14.7977C11.4381 14.7995 11.4359 14.8009 11.4342 14.802L11.5265 15.0584C11.5288 15.0574 11.5312 15.0571 11.5333 15.0571C11.5348 15.057 11.5363 15.057 11.5378 15.057C11.5404 15.057 11.5432 15.057 11.5463 15.0566C11.5553 15.0554 11.5662 15.0507 11.5775 15.0307C11.5801 15.0261 11.5811 15.022 11.5812 15.0181C11.5813 15.0142 11.5805 15.0101 11.5787 15.0055C11.5756 14.9972 11.5699 14.9886 11.5632 14.9786C11.5624 14.9774 11.5615 14.9761 11.5607 14.9748C11.5458 14.9523 11.5282 14.9236 11.5369 14.8832L11.537 14.8828L11.5371 14.8823C11.5405 14.8734 11.5475 14.863 11.5566 14.8518C11.5658 14.8404 11.5775 14.8276 11.5909 14.814C11.6096 14.7949 11.6317 14.7738 11.6544 14.7521C11.664 14.743 11.6737 14.7338 11.6832 14.7245C11.7157 14.6932 11.7473 14.6617 11.7707 14.6335C11.7824 14.6193 11.792 14.6062 11.7986 14.5943C11.8053 14.5823 11.8085 14.5725 11.8085 14.565H11.8125L11.8085 14.5645C11.8104 14.5359 11.8075 14.5149 11.8022 14.4981C11.7968 14.4813 11.789 14.4686 11.7806 14.4567C11.7784 14.4536 11.7762 14.4506 11.7739 14.4476C11.7593 14.4277 11.7445 14.4078 11.7445 14.3731C11.7445 14.3648 11.7433 14.3395 11.7415 14.3038C11.741 14.2948 11.7406 14.2851 11.74 14.2749C11.7376 14.2243 11.7346 14.1603 11.7326 14.0963C11.7306 14.0323 11.7295 13.9682 11.7311 13.9173C11.7318 13.8919 11.7332 13.8697 11.7354 13.8524C11.7365 13.8437 11.7379 13.8362 11.7395 13.83C11.7411 13.8239 11.7431 13.8187 11.7457 13.8152L11.7461 13.8147L11.7465 13.8144C11.7527 13.8095 11.7619 13.8087 11.7724 13.81C11.7832 13.8115 11.7961 13.8153 11.8102 13.8208C11.8386 13.8319 11.8725 13.85 11.9051 13.8701C11.9377 13.8901 11.969 13.9122 11.9923 13.9313C12.0039 13.9409 12.0136 13.9498 12.0205 13.9574C12.0239 13.9612 12.0267 13.9648 12.0287 13.9681C12.0304 13.9709 12.0321 13.9744 12.0323 13.978C12.0375 14.0052 12.0481 14.0299 12.0631 14.0496C12.067 14.0549 12.0702 14.0588 12.0727 14.0614C12.0752 14.0641 12.0769 14.0652 12.0778 14.0656C12.0785 14.0659 12.0786 14.0657 12.0787 14.0656C12.0787 14.0656 12.0787 14.0657 12.0787 14.0656C12.079 14.0653 12.0797 14.0642 12.0807 14.0617C12.0814 14.0597 12.0822 14.0572 12.0831 14.0542C12.0866 14.0427 12.0922 14.0246 12.1054 14.007C12.1133 13.9964 12.1165 13.9895 12.1171 13.9847C12.1174 13.9826 12.1172 13.9809 12.1166 13.9793C12.116 13.9776 12.1147 13.9758 12.1128 13.9737C12.1087 13.9695 12.1024 13.9654 12.0941 13.9602L12.0935 13.9598C12.0855 13.9547 12.0761 13.9487 12.0662 13.9408L12.0658 13.9404L12.0654 13.94C12.0497 13.919 11.9861 13.8527 11.9181 13.7914C11.8842 13.7608 11.8494 13.7316 11.8191 13.7101C11.8039 13.6993 11.79 13.6905 11.7779 13.6844C11.7657 13.6783 11.7558 13.6751 11.7485 13.6751C11.7162 13.6751 11.6816 13.667 11.656 13.652C11.6432 13.6445 11.6324 13.6351 11.6252 13.6237C11.618 13.6122 11.6144 13.5986 11.6167 13.5835L11.6168 13.5832C11.619 13.5711 11.6246 13.5616 11.6313 13.5533C11.6358 13.5476 11.6412 13.5421 11.6464 13.5367C11.6487 13.5344 11.6509 13.532 11.6531 13.5297C11.6679 13.5139 11.6806 13.4967 11.6806 13.4673C11.6806 13.4377 11.6657 13.4097 11.6461 13.3888C11.6265 13.3679 11.6034 13.3554 11.5887 13.3554C11.5575 13.3554 11.5326 13.3683 11.5155 13.3899C11.4984 13.4114 11.4888 13.4419 11.4888 13.4779C11.4888 13.5122 11.505 13.5295 11.5227 13.5425C11.5264 13.5453 11.53 13.5478 11.5336 13.5502C11.5343 13.5507 11.5351 13.5512 11.5358 13.5517C11.54 13.5545 11.544 13.5574 11.5476 13.5603C11.5544 13.5661 11.5607 13.5735 11.5607 13.5845C11.5607 13.6077 11.552 13.6306 11.534 13.6475C11.5162 13.6643 11.4893 13.6751 11.4528 13.6751C11.4204 13.6751 11.3562 13.6644 11.3001 13.6483C11.272 13.6403 11.2458 13.6309 11.2265 13.6208C11.2169 13.6157 11.2088 13.6103 11.203 13.6047C11.1975 13.5993 11.193 13.5925 11.193 13.5845C11.193 13.5825 11.1935 13.5806 11.194 13.5788C11.1946 13.5771 11.1953 13.5752 11.1963 13.5732C11.1981 13.5694 11.2008 13.5649 11.204 13.5598C11.2105 13.5498 11.2198 13.5373 11.231 13.5232C11.2533 13.4949 11.2833 13.4599 11.3143 13.4246C11.3372 13.3985 11.3606 13.3722 11.3819 13.3484C11.3894 13.34 11.3967 13.3319 11.4035 13.3242C11.4298 13.2946 11.4501 13.2715 11.458 13.261L11.4584 13.2605C11.4722 13.2466 11.4727 13.2206 11.4653 13.202C11.4616 13.1928 11.4563 13.1865 11.4508 13.1845ZM11.8165 14.5652C11.8164 14.5763 11.8119 14.5883 11.805 14.6007C11.7979 14.6133 11.788 14.627 11.7761 14.6414C11.7523 14.6701 11.7204 14.7019 11.6879 14.7332C11.6783 14.7425 11.6686 14.7517 11.659 14.7609C11.6363 14.7825 11.6144 14.8034 11.5957 14.8225C11.5825 14.836 11.5709 14.8485 11.562 14.8596C11.5531 14.8705 11.5472 14.8796 11.5445 14.8867C11.5374 14.9207 11.5517 14.9451 11.5667 14.9678C11.5675 14.969 11.5684 14.9703 11.5692 14.9716C11.5757 14.9813 11.5822 14.991 11.5859 15.0007C11.588 15.0063 11.5894 15.0122 11.5892 15.0185C11.589 15.0248 11.5873 15.031 11.5839 15.0371C11.5712 15.0597 11.5581 15.0657 11.5471 15.0672C11.5436 15.0676 11.5401 15.0677 11.5371 15.0677C11.5358 15.0677 11.5346 15.0677 11.5336 15.0677C11.5299 15.0679 11.5283 15.0686 11.5276 15.0696L11.5236 15.075L11.4235 14.7969L11.4271 14.7946L11.4278 14.7942L11.4298 14.7929C11.4315 14.7918 11.4341 14.7902 11.4374 14.7881C11.4439 14.7839 11.4532 14.7778 11.4644 14.7704C11.4867 14.7554 11.5163 14.7348 11.5457 14.7122C11.5751 14.6896 11.6041 14.6651 11.6253 14.6424C11.6358 14.6311 11.6443 14.6203 11.6498 14.6106C11.6554 14.6007 11.6574 14.5929 11.6567 14.5872C11.6559 14.5806 11.6529 14.5739 11.6478 14.5667C11.6427 14.5596 11.6356 14.5523 11.6271 14.5448C11.6164 14.5354 11.6038 14.5258 11.5901 14.5154C11.5816 14.5089 11.5727 14.5022 11.5636 14.495C11.5167 14.4577 11.4654 14.4088 11.449 14.332C11.4328 14.2566 11.4288 14.1413 11.4258 14.0376C11.4257 14.0318 11.4255 14.026 11.4253 14.0203C11.424 13.9747 11.4228 13.932 11.4207 13.8963C11.4195 13.8762 11.4181 13.8585 11.4162 13.8439C11.4143 13.8292 11.412 13.818 11.4093 13.8107C11.4068 13.8042 11.4005 13.7969 11.3902 13.7889C11.3801 13.7811 11.3668 13.7731 11.3513 13.765C11.3276 13.7525 11.2991 13.7399 11.2698 13.7269C11.2608 13.7229 11.2517 13.7188 11.2427 13.7148C11.2043 13.6975 11.1663 13.6794 11.1379 13.6602C11.1237 13.6506 11.1117 13.6406 11.1031 13.6301C11.0947 13.6196 11.0891 13.608 11.0891 13.5952C11.0891 13.5803 11.0944 13.5636 11.1029 13.546C11.1114 13.5283 11.1236 13.5091 11.1382 13.4892C11.1674 13.4493 11.2065 13.4058 11.2465 13.3645C11.2864 13.3233 11.3273 13.284 11.3602 13.2525L11.3605 13.2521C11.377 13.2363 11.3915 13.2224 11.4028 13.2112C11.4142 13.1998 11.4222 13.1914 11.426 13.1864C11.4347 13.1747 11.4441 13.1711 11.4528 13.1742C11.4612 13.1772 11.468 13.1862 11.4723 13.197C11.4808 13.2183 11.4813 13.2506 11.4634 13.2688C11.4551 13.2798 11.4346 13.3031 11.4087 13.3323C11.4018 13.34 11.3945 13.3482 11.387 13.3566C11.3658 13.3804 11.3424 13.4066 11.3195 13.4327C11.2885 13.468 11.2586 13.5029 11.2365 13.5309C11.2254 13.545 11.2163 13.5572 11.2101 13.5668C11.2069 13.5717 11.2046 13.5757 11.203 13.579C11.2022 13.5806 11.2017 13.5819 11.2014 13.5829C11.2012 13.5835 11.2011 13.5838 11.2011 13.5841C11.201 13.5844 11.201 13.5845 11.201 13.5845C11.201 13.5871 11.2026 13.5911 11.2077 13.5961C11.2127 13.601 11.2201 13.6059 11.2295 13.6109C11.2481 13.6207 11.2739 13.6299 11.3018 13.6379C11.3576 13.6539 11.4212 13.6644 11.4528 13.6644C11.4882 13.6644 11.5133 13.6539 11.5294 13.6388C11.5455 13.6237 11.5527 13.6039 11.5527 13.5845C11.5527 13.5796 11.55 13.575 11.5433 13.5694C11.5401 13.5667 11.5363 13.564 11.5321 13.5611C11.5314 13.5607 11.5307 13.5602 11.53 13.5597C11.5264 13.5573 11.5226 13.5547 11.5188 13.5519C11.5005 13.5383 11.4808 13.5183 11.4808 13.4779C11.4808 13.4393 11.4911 13.4059 11.51 13.3821C11.5288 13.3584 11.5559 13.3447 11.5887 13.3447C11.6059 13.3447 11.6308 13.3588 11.6511 13.3805C11.6715 13.4023 11.6886 13.4329 11.6886 13.4673C11.6886 13.5018 11.6733 13.5219 11.6581 13.538C11.6557 13.5406 11.6533 13.5431 11.6509 13.5455C11.6458 13.5508 11.641 13.5557 11.6367 13.5611C11.6307 13.5687 11.6263 13.5765 11.6245 13.5857C11.6229 13.5971 11.6254 13.6074 11.6313 13.6169C11.6374 13.6265 11.647 13.6351 11.6592 13.6422C11.6836 13.6565 11.717 13.6644 11.7485 13.6644C11.7573 13.6644 11.7683 13.6682 11.7807 13.6745C11.7933 13.6808 11.8075 13.6898 11.8228 13.7007C11.8535 13.7225 11.8886 13.7519 11.9226 13.7826C11.9901 13.8434 12.0539 13.9098 12.0707 13.932C12.0802 13.9395 12.0891 13.9452 12.097 13.9502L12.0976 13.9505C12.1055 13.9556 12.1128 13.9602 12.1177 13.9653C12.1202 13.9679 12.1223 13.9709 12.1237 13.9745C12.1251 13.9782 12.1256 13.9822 12.125 13.9866C12.1239 13.9948 12.1191 14.0039 12.111 14.0146C12.0991 14.0304 12.0944 14.0458 12.0908 14.0574C12.0897 14.0608 12.0888 14.0638 12.0878 14.0665C12.0868 14.0693 12.0854 14.0722 12.0834 14.0742C12.0811 14.0765 12.0784 14.0769 12.0756 14.0759C12.0731 14.0749 12.0705 14.0727 12.0677 14.0698C12.0648 14.0667 12.0615 14.0626 12.0574 14.0572M11.751 13.8232C11.7497 13.8251 11.7484 13.8284 11.747 13.8335C11.7456 13.8389 11.7444 13.8458 11.7433 13.8542C11.7412 13.8708 11.7398 13.8925 11.739 13.9178C11.7375 13.9682 11.7385 14.0319 11.7405 14.0958C11.7425 14.1597 11.7455 14.2236 11.748 14.2742C11.7485 14.2843 11.749 14.2938 11.7494 14.3027C11.7512 14.3386 11.7525 14.3644 11.7525 14.3731C11.7525 14.4031 11.7648 14.4198 11.7794 14.4397C11.7817 14.4429 11.784 14.4461 11.7864 14.4494C11.795 14.4616 11.8036 14.4754 11.8095 14.494C11.8154 14.5125 11.8185 14.5353 11.8165 14.5652" fill="#707070"/>
<path fill-rule="evenodd" clip-rule="evenodd" d="M11.3967 13.6591H11.7964V14.2026H11.3967V13.6591Z" fill="#A7A7A7"/>
<path d="M12.6683 15.6205L11.3566 12.9952C11.3444 12.9707 11.3282 12.9553 11.3204 12.9608C11.3126 12.9664 11.3162 12.9907 11.3284 13.0152L12.6401 15.6405C12.6524 15.665 12.6686 15.6804 12.6764 15.6749C12.6842 15.6693 12.6806 15.645 12.6683 15.6205Z" fill="#808080"/>
<path fill-rule="evenodd" clip-rule="evenodd" d="M11.5005 13.2325C11.5005 13.2532 11.4936 13.2731 11.4813 13.2878C11.469 13.3025 11.4523 13.3107 11.4349 13.3107C11.4175 13.3107 11.4008 13.3025 11.3885 13.2878C11.3762 13.2731 11.3693 13.2532 11.3693 13.2325C11.3693 13.2117 11.3762 13.1918 11.3885 13.1771C11.4008 13.1624 11.4175 13.1542 11.4349 13.1542C11.4523 13.1542 11.469 13.1624 11.4813 13.1771C11.4936 13.1918 11.5005 13.2117 11.5005 13.2325V13.2325Z" fill="#D0D0D0"/>
<path fill-rule="evenodd" clip-rule="evenodd" d="M11.4344 13.16C11.418 13.16 11.4023 13.1677 11.3909 13.1814C11.3794 13.1951 11.3731 13.2134 11.3731 13.2324C11.3731 13.2514 11.3794 13.2698 11.3909 13.2834C11.4023 13.2971 11.418 13.3049 11.4344 13.3049C11.4508 13.3049 11.4664 13.2971 11.4779 13.2834C11.4893 13.2698 11.4956 13.2514 11.4956 13.2324C11.4956 13.2134 11.4893 13.1951 11.4779 13.1814C11.4664 13.1677 11.4508 13.16 11.4344 13.16ZM11.3851 13.1727C11.3982 13.157 11.416 13.1483 11.4344 13.1483C11.4528 13.1483 11.4705 13.157 11.4837 13.1727C11.4969 13.1884 11.5044 13.2099 11.5044 13.2324C11.5044 13.2549 11.4969 13.2764 11.4837 13.2921C11.4705 13.3078 11.4528 13.3165 11.4344 13.3165C11.416 13.3165 11.3982 13.3078 11.3851 13.2921C11.3719 13.2764 11.3644 13.2549 11.3644 13.2324C11.3644 13.2099 11.3719 13.1884 11.3851 13.1727Z" fill="#707070"/>
<path fill-rule="evenodd" clip-rule="evenodd" d="M12.6432 13.9362C12.6432 13.9682 12.4834 14.0108 12.3155 14.0108C12.1397 14.0108 11.9878 13.9682 11.9878 13.9362C11.9878 13.9042 12.1397 13.9895 12.3075 13.9895C12.4914 13.9895 12.6432 13.9042 12.6432 13.9362V13.9362Z" fill="#808080"/>
<path fill-rule="evenodd" clip-rule="evenodd" d="M11.429 14.2026H11.7567V14.3625H11.4369L11.429 14.2026Z" fill="#A7A7A7"/>
<path fill-rule="evenodd" clip-rule="evenodd" d="M12.4912 13.819C12.4592 13.9042 12.4352 13.9575 12.4272 13.9469C12.4272 13.9469 12.4432 13.8616 12.4752 13.787L12.5391 13.6591C12.5471 13.6698 12.5232 13.7444 12.4912 13.819ZM12.5711 14.0321L12.5072 14.0854C12.5237 14.0483 12.5454 14.0158 12.5711 13.9895C12.6111 13.9469 12.6431 13.9256 12.6431 13.9362L12.5791 14.0215L12.5711 14.0321Z" fill="#808080"/>
<path fill-rule="evenodd" clip-rule="evenodd" d="M12.5396 13.9255L12.5795 14.0534L12.5156 13.9469L12.4756 13.819L12.5396 13.9255ZM12.5076 14.2666C12.5076 14.2666 12.4117 14.2879 12.2838 14.2879C12.1559 14.2879 12.052 14.2772 12.052 14.2666L12.2838 14.2453C12.4117 14.2453 12.5076 14.2453 12.5076 14.2666ZM11.7562 14.2239C11.7562 14.2346 11.6843 14.2453 11.5964 14.2453C11.5005 14.2453 11.4365 14.2453 11.4365 14.2239C11.4365 14.2239 11.5005 14.2026 11.5964 14.2026C11.6843 14.2026 11.7562 14.2133 11.7562 14.2239Z" fill="#808080"/>
<path fill-rule="evenodd" clip-rule="evenodd" d="M11.0369 15.5881C11.0369 15.5881 11.0928 15.7586 11.3246 15.7586C11.5484 15.7586 11.6283 15.7053 11.5404 15.6201C11.4525 15.5348 11.2687 15.5561 11.3006 15.6307C11.3166 15.716 11.2287 15.7373 11.2127 15.684C11.1887 15.6307 11.1088 15.4602 11.2527 15.4496C11.4045 15.4389 11.7163 15.375 11.7962 15.4922C11.8761 15.6094 11.7083 15.7053 11.8362 15.7373C11.9561 15.7586 11.98 15.7053 12.1959 15.6947C12.4117 15.6734 12.4996 15.748 12.5715 15.7373C12.6515 15.7373 12.6355 15.5561 12.5715 15.5242C12.5156 15.4709 12.4037 15.4602 12.3717 15.4176C12.3477 15.3643 12.2678 15.4176 12.2758 15.3536C12.2758 15.3004 12.3877 15.3856 12.3877 15.3643L12.4037 15.343H12.3797L12.3877 15.3217L12.3717 15.3323L12.3797 15.311C12.3797 15.311 12.3557 15.3323 12.3557 15.311H12.3397C12.3557 15.2897 12.3477 15.2897 12.3397 15.279H12.3157V15.2471C12.2998 15.2471 12.2998 15.2471 12.2918 15.2684V15.2151C12.2918 15.2044 12.3078 15.1938 12.3317 15.1938C12.3877 15.1938 12.4117 15.279 12.4356 15.279C12.4516 15.279 12.4756 15.1938 12.5475 15.2258L12.6674 15.2897C12.7074 15.3217 12.6435 15.3536 12.6674 15.3963C12.6914 15.4389 12.8353 15.5774 12.7953 15.7373C12.7554 15.8865 12.6355 15.9078 12.6355 15.9718C12.6195 16.0357 12.9792 16.0144 13.0671 16.0357C13.1282 16.0505 13.1827 16.0963 13.219 16.1636L13.0591 16.1743C13.0591 16.1743 12.9792 16.121 12.7793 16.1103C12.5795 16.1103 12.5076 16.0037 12.4276 15.9824L12.1079 16.0037L11.8681 15.9718C11.8202 15.9611 11.5324 16.1423 11.5324 16.1849H11.3406C11.3406 16.1849 11.3646 16.089 11.4765 16.0783C11.5804 16.057 11.6923 15.9931 11.6843 15.9505L11.7163 15.6734C11.7163 15.6094 11.7642 15.5668 11.7562 15.5455C11.7482 15.5028 11.6204 15.4709 11.5005 15.4709C11.3806 15.4709 11.2527 15.4815 11.2287 15.5135C11.2127 15.5561 11.2287 15.6734 11.2527 15.6521C11.2767 15.6521 11.2447 15.5668 11.2687 15.5561C11.3205 15.5349 11.3743 15.5241 11.4285 15.5242C11.4925 15.5242 11.5964 15.5988 11.5964 15.6307C11.5964 15.6414 11.6283 15.716 11.5804 15.748C11.5006 15.7832 11.4165 15.7977 11.3326 15.7906C11.2491 15.7848 11.1674 15.7557 11.0928 15.7053C11.0608 15.6734 11.0369 15.5988 11.0369 15.5881V15.5881Z" fill="#D0D0D0"/>
<path fill-rule="evenodd" clip-rule="evenodd" d="M12.2973 15.211C12.2959 15.2129 12.2956 15.2143 12.2956 15.2151V15.2485C12.2964 15.2473 12.2973 15.2462 12.2984 15.2453C12.3006 15.2433 12.3031 15.2424 12.3058 15.2421C12.3084 15.2417 12.3116 15.2417 12.3154 15.2417L12.3196 15.2417V15.2737H12.3412L12.3424 15.2752C12.3437 15.277 12.3449 15.2783 12.3462 15.2797C12.3467 15.2803 12.3472 15.2808 12.3478 15.2814C12.3494 15.2832 12.3515 15.2857 12.3524 15.2893C12.3534 15.2933 12.3526 15.2973 12.3509 15.3012C12.3503 15.3026 12.3495 15.3041 12.3486 15.3056H12.3596V15.311C12.3596 15.313 12.3598 15.314 12.36 15.3144C12.3601 15.3146 12.3603 15.3148 12.3606 15.3149C12.3615 15.3153 12.3634 15.3152 12.3663 15.3139C12.3689 15.3127 12.3717 15.3109 12.3738 15.3093C12.3749 15.3085 12.3758 15.3078 12.3764 15.3073L12.3771 15.3067L12.3773 15.3066L12.3773 15.3065M12.3116 15.2524C12.3096 15.2524 12.308 15.2525 12.3066 15.2527C12.3046 15.2529 12.3036 15.2535 12.3028 15.2541C12.302 15.2548 12.3011 15.2561 12.2999 15.2588C12.2986 15.2616 12.2972 15.2653 12.2952 15.2707L12.2876 15.2683V15.2151C12.2876 15.2105 12.2893 15.2066 12.2917 15.2035C12.294 15.2003 12.2972 15.1977 12.301 15.1955C12.3086 15.1912 12.3192 15.1884 12.3316 15.1884C12.3612 15.1884 12.3822 15.2111 12.3983 15.2326C12.4019 15.2373 12.4051 15.2418 12.4081 15.2461C12.4122 15.2519 12.416 15.2572 12.4197 15.2618C12.4262 15.2697 12.4312 15.2737 12.4355 15.2737C12.4362 15.2737 12.4375 15.2732 12.4396 15.2711C12.4416 15.2691 12.444 15.2662 12.4468 15.2624C12.4476 15.2612 12.4486 15.26 12.4495 15.2587C12.4545 15.2519 12.4607 15.2436 12.468 15.2361C12.4769 15.2271 12.4876 15.219 12.501 15.2153C12.5144 15.2116 12.5301 15.2124 12.5487 15.2207L12.5489 15.2208L12.6694 15.285L12.6693 15.2851C12.68 15.2936 12.6848 15.303 12.6848 15.3138C12.6848 15.3237 12.6806 15.3333 12.6767 15.3417C12.6762 15.3427 12.6758 15.3437 12.6753 15.3447C12.6717 15.3525 12.6682 15.3599 12.6666 15.3675C12.6649 15.3756 12.6653 15.3838 12.6705 15.393C12.6733 15.398 12.678 15.4046 12.6841 15.4128C12.6873 15.417 12.6906 15.4214 12.6943 15.4261C12.6979 15.4308 12.7017 15.4358 12.7058 15.4412C12.7221 15.4628 12.7412 15.4893 12.7584 15.5196C12.7926 15.58 12.8196 15.6565 12.799 15.739L12.7989 15.7391C12.7785 15.8153 12.7377 15.8587 12.7025 15.8909C12.6974 15.8956 12.6924 15.9 12.6877 15.9042C12.676 15.9146 12.6655 15.9239 12.6572 15.9332C12.6456 15.9463 12.6393 15.9582 12.6393 15.9717V15.9726L12.6391 15.9734C12.6385 15.9757 12.6388 15.9776 12.6398 15.9797C12.641 15.982 12.6435 15.9846 12.6474 15.9872C12.6554 15.9924 12.668 15.9968 12.6843 16.0004C12.7169 16.0077 12.7629 16.0117 12.8123 16.0144C12.8426 16.016 12.8741 16.0171 12.9046 16.0182C12.9238 16.0189 12.9425 16.0196 12.9603 16.0204C13.006 16.0224 13.0453 16.025 13.0676 16.0304C13.1298 16.0455 13.1852 16.0921 13.222 16.1604L13.2263 16.1684L13.0581 16.1796M12.546 15.2307C12.5287 15.223 12.5144 15.2225 12.5026 15.2258C12.4907 15.2291 12.481 15.2363 12.4729 15.2446C12.466 15.2516 12.4603 15.2593 12.4553 15.2661C12.4543 15.2674 12.4534 15.2687 12.4524 15.2699C12.4496 15.2737 12.4469 15.2772 12.4443 15.2797C12.4418 15.2822 12.4388 15.2843 12.4355 15.2843C12.4278 15.2843 12.4208 15.2776 12.4143 15.2696C12.4105 15.2649 12.4063 15.259 12.402 15.253C12.399 15.2487 12.3958 15.2443 12.3927 15.2401C12.3769 15.219 12.3579 15.1991 12.3316 15.1991C12.32 15.1991 12.3106 15.2017 12.3042 15.2053C12.301 15.2071 12.2987 15.2091 12.2973 15.211M11.2318 15.5166C11.2284 15.5263 11.2265 15.5404 11.2262 15.5563C11.2258 15.5725 11.227 15.59 11.2295 15.6056C11.2319 15.6214 11.2355 15.6345 11.2397 15.6423C11.2417 15.6461 11.2437 15.6482 11.2453 15.6489C11.2466 15.6495 11.2482 15.6495 11.2503 15.6476L11.2513 15.6467H11.2525C11.2545 15.6467 11.2554 15.6459 11.256 15.6449C11.2568 15.6437 11.2575 15.6415 11.2578 15.6379C11.2585 15.6305 11.2576 15.6203 11.2566 15.6087C11.2556 15.5976 11.2545 15.5852 11.2553 15.575C11.2561 15.5648 11.259 15.5547 11.2672 15.551L11.2673 15.551C11.3195 15.5296 11.3738 15.5188 11.4284 15.5188M11.2318 15.5166C11.2343 15.5135 11.2383 15.5104 11.2437 15.5074C11.2495 15.5042 11.2567 15.5012 11.2652 15.4985C11.2822 15.4931 11.304 15.4888 11.3289 15.4855C11.3786 15.4788 11.4404 15.4762 11.5003 15.4762C11.56 15.4762 11.6217 15.4841 11.6693 15.4974C11.6932 15.504 11.7134 15.5119 11.728 15.5207C11.7353 15.525 11.741 15.5296 11.7452 15.5341C11.7493 15.5387 11.7515 15.5429 11.7522 15.5467L11.7523 15.5473L11.7525 15.5478C11.7535 15.5504 11.7531 15.5548 11.7497 15.5628C11.7474 15.5683 11.7442 15.5744 11.7405 15.5815C11.739 15.5843 11.7374 15.5872 11.7358 15.5904C11.7248 15.6117 11.7122 15.6394 11.7121 15.6729L11.6801 15.9507L11.6803 15.9517C11.6809 15.9553 11.6805 15.9596 11.6783 15.9646C11.6761 15.9698 11.6724 15.9754 11.6671 15.9813C11.6565 15.9932 11.6404 16.0056 11.6206 16.0175C11.581 16.0412 11.5275 16.0624 11.4759 16.073C11.4191 16.0785 11.3843 16.1056 11.3637 16.1317C11.3534 16.1448 11.3466 16.1575 11.3425 16.167C11.3404 16.1718 11.339 16.1758 11.338 16.1786C11.3376 16.18 11.3372 16.1811 11.337 16.1819L11.3368 16.1828L11.3367 16.1831L11.3367 16.1831M11.5948 15.6137C11.5979 15.6191 11.6002 15.6249 11.6002 15.6307C11.6002 15.6306 11.6002 15.631 11.6004 15.6321C11.6006 15.633 11.6009 15.6343 11.6013 15.6358C11.6017 15.6373 11.6021 15.639 11.6026 15.641C11.6031 15.6429 11.6037 15.645 11.6043 15.6473C11.6065 15.6564 11.6091 15.6682 11.6102 15.6807C11.6112 15.6933 11.6107 15.7069 11.6066 15.7197C11.6025 15.7326 11.5948 15.7442 11.582 15.7527L11.5815 15.753C11.5012 15.7885 11.4166 15.803 11.3322 15.7959C11.2482 15.79 11.1659 15.7608 11.0909 15.71L11.0902 15.7096L11.0903 15.7096C11.0736 15.6929 11.0593 15.6655 11.0492 15.6413C11.0441 15.6291 11.0401 15.6176 11.0373 15.6084C11.0359 15.6038 11.0347 15.5997 11.034 15.5964C11.0333 15.5933 11.0327 15.5903 11.0327 15.5881M11.5948 15.6137C11.5916 15.6081 11.587 15.6023 11.5815 15.5964ZM11.5815 15.5964C11.5705 15.5846 11.5552 15.5721 11.5381 15.5607ZM11.5381 15.5607C11.5039 15.5379 11.4612 15.5188 11.4284 15.5188Z" fill="#808080"/>
<path fill-rule="evenodd" clip-rule="evenodd" d="M12.4918 15.3216C12.4918 15.3258 12.4912 15.33 12.49 15.3339C12.4888 15.3378 12.487 15.3413 12.4848 15.3443C12.4826 15.3472 12.4799 15.3496 12.477 15.3512C12.4741 15.3528 12.471 15.3536 12.4678 15.3536C12.4647 15.3536 12.4616 15.3528 12.4587 15.3512C12.4557 15.3496 12.4531 15.3472 12.4509 15.3443C12.4486 15.3413 12.4469 15.3378 12.4457 15.3339C12.4445 15.33 12.4438 15.3258 12.4438 15.3216C12.4438 15.3132 12.4464 15.305 12.4509 15.299C12.4554 15.293 12.4615 15.2897 12.4678 15.2897C12.4742 15.2897 12.4803 15.293 12.4848 15.299C12.4893 15.305 12.4918 15.3132 12.4918 15.3216V15.3216Z" fill="black"/>
<path d="M13.7309 14.8207L13.8588 14.8527L14.0746 14.6609L14.0586 14.7675L13.9467 14.8634L13.8828 14.906L13.9228 14.9913L13.9947 15.1405L13.9787 15.247L13.8428 14.938L13.7149 14.906L13.7309 14.8207V14.8207ZM13.5151 13.5632L13.7549 13.414L13.691 13.2221L13.7229 13.2008L13.8828 13.6697L13.8588 13.6911L13.7869 13.4886L13.5471 13.6484L13.5151 13.5632V13.5632ZM13.1315 12.945L13.3553 12.668L13.4032 12.7319V13.2008L13.5791 12.9877L13.619 13.0516L13.3952 13.3287L13.3473 13.2648V12.7958L13.1714 13.009L13.1315 12.945ZM12.1403 12.4122L12.1803 12.0072H12.2442L12.2043 12.3802L12.4441 12.4122V12.4655L12.1403 12.4122ZM11.6528 12.4761L11.5968 12.0711L11.6607 12.0498L11.7087 12.4122L11.9485 12.3482V12.4015L11.6528 12.4761V12.4761ZM10.7495 13.0623L10.7256 13.0303L10.8854 12.8598L10.9654 12.9664C10.9482 13.0124 10.9267 13.0554 10.9014 13.0942C10.8807 13.1334 10.8565 13.1692 10.8295 13.2008C10.7957 13.2368 10.758 13.2656 10.7176 13.2861C10.6776 13.2967 10.6376 13.3074 10.6137 13.2861C10.5831 13.2817 10.5547 13.2628 10.5337 13.2328C10.5176 13.2015 10.5092 13.1642 10.5098 13.1262C10.5098 13.0836 10.5177 13.0303 10.5417 12.9877C10.5577 12.945 10.5897 12.9024 10.6217 12.8704C10.6483 12.8404 10.6779 12.8153 10.7096 12.7958L10.7815 12.7745C10.7975 12.7745 10.8215 12.7745 10.8375 12.7958L10.8055 12.8491C10.7904 12.8406 10.7739 12.8369 10.7575 12.8385L10.7096 12.8491C10.6892 12.8635 10.6704 12.8814 10.6536 12.9024C10.6296 12.9237 10.6057 12.945 10.5977 12.977C10.5842 12.9956 10.5734 13.0172 10.5657 13.041V13.0942C10.5657 13.1262 10.5737 13.1582 10.5897 13.1795L10.6456 13.2328L10.7256 13.2221C10.7991 13.1807 10.8588 13.1049 10.8934 13.009L10.8614 12.945L10.7495 13.0623V13.0623ZM10.7415 16.0144L10.4858 16.2595L10.2939 15.8971L10.3259 15.8652L10.4858 16.1529L10.5577 16.0783L10.4298 15.8332L10.4538 15.8119L10.5897 16.057L10.7016 15.9504L10.7415 16.0144V16.0144ZM10.3659 15.4815C10.4058 15.4708 10.4298 15.4389 10.4458 15.3856V15.2257C10.4332 15.1707 10.4081 15.1223 10.3739 15.0872C10.3499 15.0552 10.3099 15.0445 10.278 15.0552C10.2527 15.0626 10.2301 15.0814 10.214 15.1085C10.206 15.1298 10.19 15.1618 10.19 15.1937L10.198 15.311C10.214 15.3749 10.23 15.4175 10.262 15.4602C10.2859 15.4922 10.3259 15.5028 10.3659 15.4815V15.4815ZM10.3899 15.5668C10.3664 15.5767 10.3414 15.578 10.3175 15.5705C10.2936 15.563 10.2716 15.547 10.254 15.5241C10.2113 15.4729 10.1808 15.4063 10.1661 15.3323C10.1501 15.2683 10.1501 15.2257 10.1501 15.1618C10.1501 15.0978 10.1661 15.0765 10.182 15.0445C10.2002 15.0066 10.229 14.9797 10.262 14.9699C10.2888 14.962 10.3168 14.9657 10.3419 14.9806C10.3739 15.0019 10.3979 15.0232 10.4218 15.0659C10.4709 15.1589 10.4936 15.2723 10.4858 15.3856C10.4829 15.4277 10.4719 15.4681 10.4538 15.5028C10.4378 15.5348 10.4138 15.5561 10.3899 15.5668V15.5668ZM10.4138 14.7355H10.0941V14.4371L10.1101 14.3092L10.1421 14.2346C10.1486 14.2269 10.1562 14.221 10.1644 14.2173C10.1727 14.2137 10.1814 14.2123 10.19 14.2133C10.214 14.2133 10.23 14.2239 10.246 14.2559C10.254 14.2879 10.27 14.3305 10.27 14.3944C10.2805 14.3495 10.2998 14.309 10.3259 14.2772L10.4138 14.1706V14.2772L10.3499 14.3518L10.3019 14.4158C10.2924 14.4283 10.2843 14.4427 10.278 14.4584C10.2766 14.4725 10.2766 14.4869 10.278 14.501V14.5436L10.27 14.6502H10.4138V14.7355V14.7355ZM10.238 14.6396V14.4584C10.2407 14.4265 10.2407 14.3943 10.238 14.3625C10.2351 14.3468 10.2297 14.3323 10.222 14.3198C10.2163 14.309 10.2077 14.3014 10.198 14.2985C10.182 14.2985 10.1661 14.3092 10.1581 14.3305L10.1421 14.4371V14.6502H10.246L10.238 14.6396ZM11.0932 12.8385V12.3589L11.1572 12.3056L11.4849 12.5188L11.421 12.572L11.325 12.5081L11.1572 12.6466V12.7958L11.0932 12.8385V12.8385ZM11.1492 12.5934L11.2931 12.4868L11.2131 12.4228C11.1884 12.4071 11.1643 12.3893 11.1412 12.3696L11.1492 12.4548V12.5934V12.5934ZM12.6359 12.4655L12.9716 12.2843L13.0275 12.3376L13.0036 12.8278L12.9476 12.7639L12.9556 12.6253L12.7958 12.4655L12.6918 12.5188L12.6359 12.4655V12.4655ZM12.8277 12.4442L12.9636 12.572V12.4442C12.9673 12.4082 12.9726 12.3726 12.9796 12.3376C12.9626 12.3582 12.9438 12.3761 12.9236 12.3909L12.8277 12.4442ZM13.651 13.9682L13.9547 13.8722L14.0027 14.16L14.0187 14.2879L14.0027 14.3625C13.9986 14.3729 13.9929 14.382 13.986 14.3894C13.9792 14.3967 13.9712 14.402 13.9627 14.4051C13.9387 14.4051 13.9148 14.4051 13.8988 14.3838C13.8724 14.3481 13.8531 14.3041 13.8428 14.2559C13.8442 14.2736 13.8442 14.2915 13.8428 14.3092L13.8109 14.3944L13.7469 14.5223L13.7309 14.4158L13.7789 14.3092L13.8109 14.2452C13.8217 14.2192 13.8272 14.1898 13.8268 14.16C13.8251 14.142 13.8224 14.1242 13.8189 14.1067L13.8029 14.0108L13.667 14.0534L13.651 13.9682V13.9682ZM13.8348 14.0001L13.8668 14.1813C13.8668 14.2133 13.8828 14.2452 13.8908 14.2666C13.8908 14.2879 13.9068 14.2985 13.9148 14.3092L13.9467 14.3198C13.9547 14.3198 13.9707 14.2985 13.9707 14.2772C13.9772 14.2422 13.9772 14.2056 13.9707 14.1706L13.9308 13.9682L13.8348 14.0001V14.0001Z" fill="#D0D0D0"/>
</g>
<rect x="2" y="2" width="36" height="36" rx="18" stroke="white" stroke-width="4"/>
<defs>
<clipPath id="clip0_90_24302">
<rect x="4" y="4" width="32" height="32" rx="16" fill="white"/>
</clipPath>
</defs>
</svg>
