<svg width="40" height="40" viewBox="0 0 40 40" fill="none" xmlns="http://www.w3.org/2000/svg">
<g clip-path="url(#clip0_90_24291)">
<path d="M4 4H36V36H4V4Z" fill="#D21034"/>
<path d="M9.99976 12H29.9998V28H9.99976V12Z" fill="#007E3A"/>
<path d="M21.5 25.3334C23.7091 25.3334 25.5 22.9455 25.5 20C25.5 17.0545 23.7091 14.6667 21.5 14.6667C19.2909 14.6667 17.5 17.0545 17.5 20C17.5 22.9455 19.2909 25.3334 21.5 25.3334Z" fill="white"/>
<path d="M22.9999 25.3334C25.209 25.3334 26.9999 22.9455 26.9999 20C26.9999 17.0545 25.209 14.6667 22.9999 14.6667C20.7907 14.6667 18.9999 17.0545 18.9999 20C18.9999 22.9455 20.7907 25.3334 22.9999 25.3334Z" fill="#007E3A"/>
</g>
<rect x="2" y="2" width="36" height="36" rx="18" stroke="white" stroke-width="4"/>
<defs>
<clipPath id="clip0_90_24291">
<rect x="4" y="4" width="32" height="32" rx="16" fill="white"/>
</clipPath>
</defs>
</svg>
