<svg width="40" height="40" viewBox="0 0 40 40" fill="none" xmlns="http://www.w3.org/2000/svg">
<g clip-path="url(#clip0_90_24283)">
<path fill-rule="evenodd" clip-rule="evenodd" d="M4 4H36V36H4V4Z" fill="#F41408"/>
<path fill-rule="evenodd" clip-rule="evenodd" d="M4 25.3334H36V36H4V25.3334Z" fill="#21873B"/>
<path fill-rule="evenodd" clip-rule="evenodd" d="M4 4H36V14.6667H4V4Z" fill="black"/>
<path fill-rule="evenodd" clip-rule="evenodd" d="M15.0247 13.4C16.1397 10.12 19.2497 8.5467 21.9647 9.90004C22.6018 10.1881 23.1879 10.6473 23.6867 11.2493C24.1855 11.8513 24.5864 12.5833 24.8647 13.4H15.0247ZM13.7247 13.8267C12.8423 13.7466 11.9662 13.5727 11.1047 13.3067C10.8997 13.22 10.8897 13.0667 10.9147 12.9534C10.9397 12.84 11.0697 12.7134 11.2247 12.7534C11.5047 12.8467 12.6647 13.22 13.7247 13.8267V13.8267ZM19.9547 8.10004C19.7447 6.70004 19.6947 5.1667 19.7147 4.90004C19.7347 4.64004 19.8497 4.60004 19.9497 4.60004C20.0497 4.60004 20.1847 4.72004 20.1847 4.91337C20.1847 5.2667 20.1797 6.71337 19.9547 8.11337V8.10004ZM20.5347 8.13337C20.4517 7.06543 20.4467 5.98927 20.5197 4.92004C20.5597 4.66004 20.6797 4.6267 20.7747 4.64004C20.8747 4.6467 20.9997 4.78004 20.9847 4.97337C20.9597 5.3267 20.8547 6.7667 20.5347 8.13337ZM21.0547 8.22004C21.0447 6.80004 21.2047 5.2667 21.2597 5.02004C21.3147 4.76004 21.4397 4.74004 21.5347 4.76004C21.6347 4.78004 21.7497 4.9267 21.7247 5.11337C21.6747 5.4667 21.4647 6.8867 21.0547 8.22004V8.22004ZM21.6047 8.3667C21.6947 6.95337 21.9697 5.4467 22.0447 5.20004C22.1197 4.95337 22.2447 4.9467 22.3347 4.97337C22.4347 5.0067 22.5347 5.16004 22.4997 5.3467C22.4197 5.6867 22.1147 7.08004 21.6097 8.3667H21.6047ZM22.1497 8.58004C22.3447 7.18004 22.7247 5.7067 22.8147 5.4667C22.9097 5.23337 23.0297 5.23337 23.1247 5.27337C23.2147 5.31337 23.3097 5.4867 23.2597 5.66004C22.9585 6.67724 22.5869 7.6548 22.1497 8.58004V8.58004ZM22.6547 8.83337C22.9447 7.45337 23.4297 6.03337 23.5397 5.80004C23.6497 5.57337 23.7697 5.59337 23.8597 5.6467C23.9497 5.69337 24.0297 5.87337 23.9647 6.0467C23.8397 6.3667 23.3397 7.67337 22.6547 8.83337ZM23.1547 9.1467C23.452 8.12753 23.8203 7.1477 24.2547 6.22004C24.3747 6.0067 24.4997 6.04004 24.5847 6.10004C24.6098 6.11991 24.6318 6.14627 24.6492 6.17758C24.6666 6.20889 24.6792 6.24451 24.6862 6.28238C24.6932 6.32024 24.6944 6.35958 24.6899 6.3981C24.6853 6.43662 24.675 6.47354 24.6597 6.5067C24.5097 6.81337 23.9147 8.0667 23.1547 9.1467ZM23.6247 9.51337C24.1097 8.22004 24.7897 6.91337 24.9297 6.71337C25.0697 6.51337 25.1897 6.56004 25.2697 6.6267C25.2935 6.64923 25.3138 6.67787 25.3292 6.71096C25.3447 6.74404 25.3551 6.7809 25.3597 6.81938C25.3644 6.85786 25.3632 6.8972 25.3563 6.93508C25.3495 6.97297 25.337 7.00865 25.3197 7.04004C25.1447 7.33337 24.4597 8.51337 23.6197 9.5067L23.6247 9.51337ZM24.0647 9.9267C24.6447 8.6867 25.4147 7.46004 25.5697 7.28004C25.7197 7.09337 25.8397 7.1467 25.9147 7.2267C25.9365 7.25208 25.9543 7.28309 25.967 7.31787C25.9796 7.35266 25.9869 7.39049 25.9883 7.4291C25.9897 7.46772 25.9852 7.50631 25.9751 7.54256C25.9651 7.57881 25.9496 7.61196 25.9297 7.64004C25.7397 7.91337 24.9747 9.02004 24.0647 9.9267ZM24.4797 10.3867C24.9869 9.49507 25.5525 8.66515 26.1697 7.9067C26.3347 7.74004 26.4447 7.8067 26.5147 7.8867C26.5354 7.91489 26.5515 7.94847 26.5621 7.98536C26.5726 8.02225 26.5773 8.06164 26.5759 8.10107C26.5745 8.1405 26.567 8.17912 26.5539 8.2145C26.5408 8.24989 26.5223 8.28128 26.4997 8.3067C26.2947 8.56004 25.4497 9.58004 24.4797 10.3867ZM24.8597 10.8867C25.4263 10.0508 26.0489 9.2854 26.7197 8.60004C26.8997 8.4467 27.0047 8.5267 27.0697 8.62004C27.1297 8.7067 27.1447 8.91337 27.0197 9.03337C26.3399 9.73078 25.6173 10.3507 24.8597 10.8867V10.8867ZM25.1847 11.4067C25.8098 10.6308 26.484 9.92817 27.1997 9.3067C27.3847 9.17337 27.4847 9.2667 27.5397 9.3667C27.5997 9.46004 27.5947 9.6667 27.4697 9.77337C27.2297 9.97337 26.2547 10.8134 25.1847 11.4067V11.4067ZM25.4797 11.96C26.1558 11.2566 26.875 10.63 27.6297 10.0867C27.8297 9.97337 27.9247 10.0734 27.9747 10.1734C28.0247 10.28 28.0047 10.48 27.8747 10.5734C27.1043 11.1219 26.3016 11.5857 25.4747 11.96H25.4797ZM25.7497 12.6C26.478 11.9743 27.2439 11.4303 28.0397 10.9734C28.2447 10.88 28.3297 10.9934 28.3697 11.1C28.4147 11.2067 28.3847 11.4067 28.2397 11.4867C27.9747 11.6334 26.8897 12.2467 25.7497 12.6ZM25.9597 13.2134C26.7299 12.6646 27.5326 12.2008 28.3597 11.8267C28.5697 11.76 28.6447 11.88 28.6797 11.9934C28.7097 12.1 28.6647 12.3 28.5197 12.36C28.2447 12.4867 27.1197 12.98 25.9597 13.2134ZM26.1297 13.8667C26.9354 13.4019 27.7682 13.0252 28.6197 12.74C28.8297 12.7 28.8997 12.82 28.9247 12.94C28.9497 13.0534 28.8897 13.24 28.7397 13.2934C28.4547 13.38 27.2997 13.76 26.1297 13.8667V13.8667ZM19.3897 8.13337C19.1525 7.10317 18.9901 6.04498 18.9047 4.97337C18.9047 4.71337 19.0197 4.65337 19.1147 4.64004C19.2147 4.63337 19.3647 4.74004 19.3747 4.9267C19.3997 5.28004 19.5047 6.72004 19.3947 8.13337H19.3897ZM18.8397 8.22004C18.5269 7.22216 18.2875 6.1862 18.1247 5.1267C18.1047 4.86004 18.2147 4.79337 18.3097 4.77337C18.4097 4.75337 18.5597 4.84004 18.5897 5.0267C18.7461 6.07871 18.8297 7.14764 18.8397 8.22004V8.22004ZM18.2897 8.3667C17.9057 7.40408 17.5909 6.39513 17.3497 5.35337C17.3097 5.09337 17.4147 5.01337 17.5097 4.98004C17.6047 4.95337 17.7597 5.02004 17.8047 5.2067C17.8797 5.5467 18.1897 6.94004 18.2847 8.36004L18.2897 8.3667ZM17.7647 8.5667C17.3179 7.64937 16.9362 6.6785 16.6247 5.6667C16.5697 5.41337 16.6647 5.32004 16.7547 5.28004C16.8497 5.24004 17.0097 5.29337 17.0647 5.4667C17.1647 5.80004 17.5747 7.16004 17.7647 8.56004V8.5667ZM17.2597 8.80004C16.7471 7.9348 16.2953 7.0087 15.9097 6.03337C15.8397 5.7867 15.9297 5.68004 16.0197 5.63337C16.1097 5.58004 16.2697 5.62004 16.3397 5.79337C16.4647 6.11337 16.9647 7.4267 17.2597 8.80004ZM16.7447 9.13337C16.1697 8.32665 15.6509 7.45194 15.1947 6.52004C15.1097 6.2867 15.1897 6.17337 15.2747 6.11337C15.3597 6.05337 15.5247 6.07337 15.6047 6.24004C15.7547 6.5467 16.3547 7.79337 16.7447 9.13337ZM16.2747 9.49337C15.6467 8.74725 15.0694 7.9285 14.5497 7.0467C14.4447 6.82004 14.5147 6.70004 14.5997 6.6267C14.6747 6.56004 14.8497 6.56004 14.9347 6.72004C15.1047 7.0067 15.7897 8.1867 16.2747 9.4867V9.49337ZM15.8397 9.89337C15.1599 9.21489 14.5259 8.45869 13.9447 7.63337C13.8247 7.42004 13.8897 7.30004 13.9647 7.22004C14.0175 7.17637 14.0799 7.15787 14.1416 7.16756C14.2034 7.17725 14.2609 7.21454 14.3047 7.27337C14.4947 7.54004 15.2647 8.65337 15.8397 9.89337ZM15.4147 10.36C14.6887 9.75725 14.0028 9.07252 13.3647 8.31337C13.2247 8.11337 13.2797 7.98004 13.3497 7.89337C13.4002 7.84366 13.462 7.81853 13.5248 7.82216C13.5876 7.8258 13.6475 7.85799 13.6947 7.91337C13.9047 8.16004 14.7447 9.18004 15.4147 10.3534V10.36ZM15.0447 10.8267C14.2791 10.3007 13.5482 9.68968 12.8597 9.00004C12.7097 8.81337 12.7547 8.68004 12.8197 8.5867C12.8797 8.49337 13.0447 8.4467 13.1647 8.5667C13.8394 9.24816 14.4685 10.0066 15.0447 10.8334V10.8267ZM14.6947 11.3734C13.893 10.9308 13.1203 10.4001 12.3847 9.7867C12.2197 9.62004 12.2547 9.47337 12.3097 9.38004C12.3647 9.28004 12.5247 9.21337 12.6547 9.32004C12.8947 9.5267 13.8697 10.3534 14.6947 11.3734ZM14.3797 11.96C13.2697 11.4934 12.1347 10.7867 11.9597 10.6334C11.7797 10.4867 11.8097 10.34 11.8547 10.2334C11.8997 10.1267 12.0547 10.0467 12.1947 10.14C12.4447 10.32 13.4847 11.04 14.3797 11.96V11.96ZM14.1147 12.56C12.9747 12.2067 11.7997 11.6267 11.6097 11.4934C11.4247 11.36 11.4347 11.2134 11.4797 11.1067C11.5197 11 11.6647 10.9 11.8097 10.9734C12.0747 11.1267 13.1597 11.7334 14.1147 12.56ZM13.9047 13.16C13.033 12.9814 12.1736 12.7094 11.3347 12.3467C11.1347 12.24 11.1447 12.0867 11.1747 11.98C11.2097 11.8667 11.3497 11.7534 11.4947 11.8134C11.7747 11.94 12.8947 12.4334 13.9047 13.16Z" fill="#F31509"/>
<path fill-rule="evenodd" clip-rule="evenodd" d="M13.7247 13.8267C12.8423 13.7466 11.9662 13.5727 11.1047 13.3067C10.8997 13.22 10.8897 13.0667 10.9147 12.9533C10.9397 12.84 11.0697 12.7133 11.2247 12.7533C11.5047 12.8467 12.6647 13.22 13.7247 13.8267V13.8267Z" fill="#F31509"/>
<path fill-rule="evenodd" clip-rule="evenodd" d="M10.4705 13.4333H29.5305V14.2734H10.4705V13.4333Z" fill="black"/>
</g>
<rect x="2" y="2" width="36" height="36" rx="18" stroke="white" stroke-width="4"/>
<defs>
<clipPath id="clip0_90_24283">
<rect x="4" y="4" width="32" height="32" rx="16" fill="white"/>
</clipPath>
</defs>
</svg>
