<svg width="40" height="40" viewBox="0 0 40 40" fill="none" xmlns="http://www.w3.org/2000/svg">
<g clip-path="url(#clip0_90_23830)">
<path d="M4 4H36V36H4V4Z" fill="#CC0000"/>
<path d="M4.02502 6.66003H35.975V9.22003H4.02502V6.66003ZM4.02502 11.9067H35.975V14.4667H4.02502V11.9067ZM4.02502 17.16H35.975V19.72H4.02502V17.16Z" fill="white"/>
<path d="M4.00012 4.03333H20.0001V22.7H4.00012V4.03333Z" fill="#000066"/>
<path d="M14.3749 8.91999L14.6749 11.6333L15.8249 9.36666L15.2049 11.98L16.9799 10.5933L15.5749 12.5933L17.6249 12.38L15.7099 13.3667L17.6249 14.3533L15.5749 14.14L16.9799 16.14L15.2049 14.7533L15.8199 17.3733L14.6699 15.1L14.3699 17.8133L14.0749 15.1L12.9249 17.3667L13.5449 14.7533L11.7699 16.14L13.1699 14.14L11.1199 14.3533L13.0399 13.3667L11.1249 12.38L13.1749 12.5933L11.7699 10.5933L13.5449 11.98L12.9249 9.35999L14.0749 11.6333L14.3749 8.91999ZM12.7099 9.03333C12.1687 8.71344 11.5761 8.57884 10.986 8.64173C10.3959 8.70462 9.82685 8.96302 9.33061 9.39346C8.83438 9.82391 8.42662 10.4128 8.14434 11.1066C7.86207 11.8005 7.71423 12.5773 7.71423 13.3667C7.71423 14.156 7.86207 14.9329 8.14434 15.6267C8.42662 16.3205 8.83438 16.9094 9.33061 17.3399C9.82685 17.7703 10.3959 18.0287 10.986 18.0916C11.5761 18.1545 12.1687 18.0199 12.7099 17.7C12.1122 18.2718 11.4077 18.6128 10.6741 18.6854C9.94044 18.758 9.20598 18.5594 8.55149 18.1115C7.89701 17.6636 7.34784 16.9837 6.96439 16.1466C6.58093 15.3094 6.37805 14.3476 6.37805 13.3667C6.37805 12.3858 6.58093 11.4239 6.96439 10.5868C7.34784 9.74966 7.89701 9.06976 8.55149 8.62185C9.20598 8.17394 9.94044 7.97536 10.6741 8.04795C11.4077 8.12055 12.1122 8.46151 12.7099 9.03333V9.03333Z" fill="#FFCC00"/>
<path d="M4.02512 22.4133H35.9751V24.9733H4.02512V22.4133ZM4.02512 27.6267H35.9751V30.1867H4.02512V27.6267ZM4.00012 33.44H35.9501V36H4.00012V33.44Z" fill="white"/>
</g>
<rect x="2" y="2" width="36" height="36" rx="18" stroke="white" stroke-width="4"/>
<defs>
<clipPath id="clip0_90_23830">
<rect x="4" y="4" width="32" height="32" rx="16" fill="white"/>
</clipPath>
</defs>
</svg>
