<svg width="40" height="40" viewBox="0 0 40 40" fill="none" xmlns="http://www.w3.org/2000/svg">
<g clip-path="url(#clip0_90_23814)">
<path fill-rule="evenodd" clip-rule="evenodd" d="M4 4H40V14H4V4Z" fill="#009A00"/>
<path fill-rule="evenodd" clip-rule="evenodd" d="M4 14H40V15H4V14Z" fill="white"/>
<path fill-rule="evenodd" clip-rule="evenodd" d="M4 15H40V25H4V15Z" fill="black"/>
<path fill-rule="evenodd" clip-rule="evenodd" d="M4 25H40V26H4V25Z" fill="white"/>
<path fill-rule="evenodd" clip-rule="evenodd" d="M4 26H40V36H4V26Z" fill="#FFCA00"/>
<path fill-rule="evenodd" clip-rule="evenodd" d="M4 4V36L19.75 20L4 4Z" fill="#FF0000"/>
<path fill-rule="evenodd" clip-rule="evenodd" d="M13.3047 24.8125L10.9047 22.4688L8.50469 24.8125L9.4375 21.0438L7.02344 18.725L10 18.7375L10.9047 14.9625L11.8141 18.7438L14.7906 18.725L12.3766 21.0438L13.3047 24.8125Z" fill="#FFCA00"/>
<path fill-rule="evenodd" clip-rule="evenodd" d="M8.81848 22.1812H10.5529C10.6935 22.3875 10.9982 22.475 11.2935 22.1812C11.8372 21.7812 12.8872 22.1812 12.8872 22.1812L13.0935 21.8875L12.5919 19.6875L12.4091 19.425C12.4091 19.425 12.02 19.1125 11.2841 19.2187C10.5482 19.325 10.2904 19.1875 10.2904 19.1875C10.2904 19.1875 9.64817 19.2875 9.46536 19.4125L9.25911 19.6875L8.81848 22.1812V22.1812Z" fill="white"/>
<path fill-rule="evenodd" clip-rule="evenodd" d="M10.3 19.1555C10.3 19.1555 10.2999 19.1555 10.3 19.1555C10.2999 19.1555 10.2999 19.1555 10.2999 19.1555C10.2959 19.1534 10.2916 19.1526 10.2874 19.1533L10.2904 19.1875C10.2874 19.1533 10.2874 19.1533 10.2874 19.1533L10.2855 19.1536L10.28 19.1545C10.2753 19.1552 10.2682 19.1564 10.2592 19.1579C10.2412 19.1609 10.2154 19.1653 10.1837 19.171C10.1205 19.1823 10.0342 19.1988 9.94221 19.2192C9.85023 19.2395 9.7522 19.2639 9.66551 19.2911C9.57949 19.3181 9.50236 19.3485 9.45362 19.3819C9.45123 19.3835 9.44905 19.3856 9.44715 19.3881L9.2409 19.6631C9.23751 19.6677 9.23514 19.6733 9.23404 19.6796L8.79354 22.1726C8.79301 22.1753 8.79272 22.1782 8.79272 22.1812C8.79272 22.2002 8.80427 22.2156 8.81851 22.2156H10.5417C10.6951 22.4277 11.0085 22.5064 11.3075 22.2102C11.5717 22.0169 11.962 22.0155 12.2914 22.0654C12.4555 22.0902 12.6029 22.1275 12.7092 22.1585C12.7623 22.1741 12.8052 22.188 12.8347 22.1981C12.8494 22.2031 12.8609 22.2072 12.8686 22.21C12.8706 22.2107 12.8724 22.2114 12.8739 22.2119C12.8753 22.2124 12.8764 22.2128 12.8773 22.2132L12.8795 22.214L12.88 22.2142L12.8801 22.2142C12.8894 22.2178 12.8995 22.2141 12.9061 22.2047L13.1123 21.9109C13.1186 21.902 13.1209 21.8892 13.1182 21.8775L12.6166 19.6775C12.6155 19.6725 12.6135 19.6679 12.6108 19.6641L12.428 19.4016C12.4264 19.3992 12.4245 19.3972 12.4224 19.3955L12.4091 19.425C12.4224 19.3955 12.4224 19.3955 12.4224 19.3955L12.4223 19.3954L12.422 19.3951L12.421 19.3943C12.4201 19.3937 12.4188 19.3927 12.4172 19.3915C12.4139 19.389 12.4091 19.3856 12.4028 19.3812C12.3902 19.3725 12.3716 19.3604 12.3471 19.3462C12.2979 19.3179 12.225 19.2816 12.129 19.2487C11.9369 19.1829 11.6526 19.1309 11.2814 19.1845C10.9149 19.2374 10.6683 19.2295 10.5139 19.2087C10.4367 19.1983 10.3826 19.1847 10.3481 19.1738C10.3308 19.1684 10.3185 19.1637 10.3106 19.1604C10.3067 19.1587 10.3039 19.1574 10.3021 19.1566C10.3012 19.1562 10.3006 19.1559 10.3003 19.1557L10.3 19.1555ZM12.3929 19.4521C12.3926 19.4519 12.3923 19.4517 12.392 19.4515C12.3892 19.4494 12.3849 19.4462 12.3791 19.4423C12.3676 19.4343 12.35 19.4228 12.3266 19.4093C12.2798 19.3824 12.2094 19.3472 12.1162 19.3153C11.9298 19.2514 11.6516 19.2002 11.2869 19.2529C10.9175 19.3062 10.6672 19.2985 10.5087 19.2771C10.4294 19.2664 10.3731 19.2523 10.3362 19.2407C10.3178 19.2349 10.3043 19.2298 10.2952 19.2259C10.2921 19.2246 10.2895 19.2235 10.2874 19.2225L10.2862 19.2227C10.2815 19.2235 10.2745 19.2246 10.2656 19.2261C10.2478 19.2291 10.2221 19.2334 10.1906 19.2391C10.1277 19.2504 10.042 19.2667 9.95066 19.287C9.85924 19.3072 9.76245 19.3313 9.67732 19.358C9.59384 19.3842 9.52371 19.4123 9.48068 19.4407L9.28254 19.7048L8.85107 22.1468H10.5529C10.5601 22.1468 10.5671 22.1509 10.572 22.1581C10.7026 22.3497 10.9922 22.4381 11.2781 22.1536C11.279 22.1527 11.28 22.1519 11.2811 22.1511C11.5606 21.9455 11.9663 21.947 12.2972 21.997C12.4635 22.0222 12.6127 22.0599 12.7202 22.0914C12.774 22.1071 12.8174 22.1212 12.8475 22.1315C12.8607 22.136 12.8713 22.1398 12.8791 22.1425L13.0645 21.8785L12.569 19.705L12.3929 19.4521Z" fill="black"/>
<path fill-rule="evenodd" clip-rule="evenodd" d="M10.5747 22.1922C10.6904 22.2999 10.8013 22.348 10.9125 22.3439C11.0238 22.3397 11.1384 22.2829 11.2609 22.1738C11.179 22.0413 11.0653 21.9379 10.9319 21.8577C10.8258 21.9255 10.7442 21.996 10.6847 22.057C10.646 22.0967 10.6168 22.1323 10.5962 22.1606C10.5872 22.1729 10.5801 22.1835 10.5747 22.1922ZM10.8692 21.8224C10.7791 21.884 10.7077 21.9467 10.6532 22.0025C10.6128 22.0441 10.5816 22.0819 10.5592 22.1127C10.5374 22.1427 10.5225 22.1678 10.5161 22.1839C10.5101 22.1989 10.5132 22.2176 10.5235 22.2277C10.6535 22.3562 10.7821 22.4175 10.914 22.4126C11.0454 22.4076 11.1768 22.3369 11.313 22.2095C11.3187 22.2041 11.3226 22.1959 11.3237 22.1867C11.3248 22.1775 11.323 22.1681 11.3188 22.1606C11.2376 22.0174 11.1246 21.9063 10.9935 21.8203C11.0067 21.8127 11.0203 21.8051 11.0342 21.7976C11.349 21.6282 11.8354 21.5005 12.5369 21.6279C12.551 21.6305 12.564 21.6173 12.5659 21.5985C12.5679 21.5797 12.558 21.5623 12.5439 21.5598C11.8344 21.4309 11.3388 21.5595 11.0149 21.7338C10.9856 21.7496 10.9577 21.7658 10.9312 21.7821C10.8801 21.7527 10.8266 21.7267 10.7717 21.7037C10.547 21.6097 10.2936 21.5647 10.0563 21.5462C9.81891 21.5278 9.59667 21.5358 9.43385 21.5485C9.35242 21.5548 9.28577 21.5623 9.23945 21.5682C9.21628 21.5712 9.19819 21.5737 9.18587 21.5755C9.17971 21.5765 9.17499 21.5772 9.17179 21.5777L9.16815 21.5783L9.16722 21.5784L9.1669 21.5785C9.16688 21.5785 9.16687 21.5785 9.17007 21.6126L9.1669 21.5785C9.15277 21.5808 9.14272 21.598 9.14449 21.6169C9.14625 21.6357 9.15914 21.6491 9.17327 21.6467L9.17007 21.6126C9.17327 21.6467 9.17326 21.6467 9.17327 21.6467L9.17353 21.6467L9.17438 21.6465L9.17785 21.646C9.18092 21.6455 9.18553 21.6448 9.19157 21.6439C9.20364 21.6421 9.22147 21.6396 9.24436 21.6366C9.29013 21.6308 9.35613 21.6234 9.43685 21.6171C9.59835 21.6046 9.81849 21.5966 10.0533 21.6149C10.2883 21.6332 10.5371 21.6776 10.7562 21.7693C10.795 21.7855 10.8327 21.8032 10.8692 21.8224Z" fill="black"/>
<path fill-rule="evenodd" clip-rule="evenodd" d="M10.895 21.8372L10.9091 19.4122L10.9653 19.4128L10.9513 21.8378L10.895 21.8372ZM12.691 21.3829L12.3816 19.4516L12.4366 19.4359L12.746 21.3672L12.691 21.3829Z" fill="black"/>
<path fill-rule="evenodd" clip-rule="evenodd" d="M9.48982 19.3791C9.5037 19.3833 9.51234 19.4018 9.50913 19.4203L9.3357 20.4203C9.33249 20.4388 9.31864 20.4503 9.30477 20.446C9.2909 20.4418 9.28225 20.4233 9.28546 20.4048L9.4589 19.4048C9.4621 19.3863 9.47595 19.3748 9.48982 19.3791Z" fill="black"/>
<path fill-rule="evenodd" clip-rule="evenodd" d="M7.69824 22.4438L8.10137 23.0812C8.14824 23.1187 8.19512 23.1187 8.2373 23.0812L8.8373 22.1187L9.09043 21.7C9.13262 21.6375 9.14199 21.5688 9.1373 21.5125L9.6248 20.9312L9.72793 20.9438C9.68105 20.9313 9.64824 20.9 9.68105 20.8312L9.79355 20.7188L9.87793 20.8625C9.87793 20.8625 9.75605 21.075 9.74199 21.075H9.61074L9.35762 21.3813L9.47012 21.5063L9.63418 22.1187L9.84043 21.925L9.70918 21.3L9.99512 20.8813L9.8873 20.6563L9.9623 20.5313C9.9623 20.5313 10.9607 21.3687 11.3498 21.1437C11.3592 21.1437 11.3732 20.5438 11.3732 20.5438C11.3732 20.5438 10.3326 20.4 10.3092 20.125C10.2857 19.85 10.5436 19.8125 10.5436 19.8125L10.4311 19.6125L10.4545 19.5L10.6373 19.8L11.0451 19.3375L13.4592 23C13.5904 22.9313 13.6186 22.8875 13.6279 22.7125L11.2654 19.0938L11.4436 18.8375C11.4811 18.7812 11.4904 18.7625 11.4904 18.675L11.7717 18.3562C11.8453 18.3899 11.9082 18.4561 11.9498 18.5437L12.7186 17.6875C12.7373 17.7125 12.7982 17.7375 12.8404 17.7125L14.1014 16.0938L12.7279 17.3875L12.6811 17.3438C12.6811 17.2875 12.7279 17.2812 12.6811 17.1812C12.6248 17.0937 12.5451 17.2625 12.5357 17.2625C12.5217 17.2625 12.3342 17.175 12.292 17.0625L12.2826 17.3562L11.9311 17.7937L11.6639 17.775L11.2795 18.275L11.2326 18.4625L11.2936 18.6313C11.2936 18.6313 11.0873 18.8687 11.0873 18.8562C11.0873 18.8375 11.0451 18.7812 11.0404 18.775L11.2186 18.5625L11.242 18.4187L11.1857 18.2937C11.167 18.3125 10.942 18.6313 10.9279 18.5938L10.2717 17.625L10.3092 17.4438L9.90137 16.85C9.75137 16.7813 9.5123 16.7688 9.46543 17.2063C9.42793 17.3063 9.11855 17.2188 9.11855 17.2188L8.9498 17.2688L7.99355 19.0625L8.52324 19.9125L9.61074 18.0813L9.64355 17.5625L9.86855 17.9C9.94824 17.9125 10.0186 17.9187 10.0889 17.8687L10.7311 18.825L10.6232 18.9688L10.717 19.1062L10.8295 19.0063L10.8717 19.0875C10.8201 19.125 10.7779 19.1813 10.7264 19.2188C10.642 19.1438 10.5576 19.05 10.5623 18.9063L10.2014 19.3062L10.1873 19.3813L9.11387 20.5688L9.02012 20.5875L8.99668 20.9625L9.69512 20.1875V20.075L9.76543 20.1563L10.3092 19.575C10.3092 19.575 10.3467 19.6375 10.3326 19.6375C10.3186 19.6375 9.8498 20.2188 9.8498 20.2188L9.84043 20.2813L9.75605 20.3813L9.70918 20.3312L9.05293 21.1063H8.95918L8.59824 21.5875C8.50449 21.6 8.4248 21.6125 8.34512 21.6812L7.69824 22.4438V22.4438Z" fill="black"/>
<path fill-rule="evenodd" clip-rule="evenodd" d="M14.1211 16.0719C14.1296 16.0858 14.1288 16.1061 14.1191 16.1186L12.8581 17.7373C12.856 17.7401 12.8535 17.7424 12.8507 17.744C12.8229 17.7604 12.7912 17.7596 12.7653 17.7525C12.7493 17.7481 12.7331 17.7407 12.7197 17.7308L11.9661 18.5702C11.9604 18.5766 11.953 18.5793 11.9456 18.5778C11.9383 18.5763 11.9318 18.5706 11.9278 18.5622C11.8919 18.4866 11.8389 18.4283 11.7767 18.3955L11.5159 18.6911C11.5154 18.7277 11.5126 18.7556 11.5047 18.7812C11.4957 18.81 11.481 18.8328 11.4626 18.8604L11.4623 18.8609L11.2999 19.0945L13.6472 22.69C13.6517 22.6969 13.6539 22.7059 13.6535 22.715C13.6487 22.8034 13.6391 22.8673 13.6093 22.9175C13.5799 22.9669 13.5339 22.9978 13.4684 23.0321C13.4583 23.0374 13.4468 23.0336 13.4396 23.0228L11.0423 19.3857L10.6538 19.8263C10.6485 19.8323 10.6417 19.8352 10.6348 19.8343C10.6278 19.8335 10.6215 19.8289 10.6171 19.8218L10.4658 19.5734L10.4591 19.6055L10.564 19.7919C10.5696 19.8018 10.5707 19.8149 10.567 19.8263C10.5633 19.8376 10.5554 19.8454 10.5462 19.8467L10.5458 19.8468C10.5454 19.8469 10.5448 19.847 10.544 19.8471C10.5423 19.8474 10.5398 19.8479 10.5366 19.8486C10.5301 19.8501 10.5208 19.8524 10.5096 19.8561C10.4871 19.8635 10.4578 19.8759 10.4295 19.896C10.4012 19.9162 10.375 19.9432 10.3572 19.9792C10.3398 20.0144 10.3294 20.0602 10.3346 20.1212C10.3363 20.1413 10.3481 20.1661 10.3768 20.1944C10.4048 20.222 10.445 20.2489 10.4945 20.2745C10.5932 20.3255 10.7238 20.3688 10.8549 20.4039C10.9857 20.4388 11.116 20.4653 11.2136 20.483C11.2624 20.4919 11.3029 20.4985 11.3313 20.503C11.3455 20.5052 11.3566 20.5069 11.3642 20.508C11.368 20.5085 11.3709 20.5089 11.3728 20.5092L11.375 20.5095L11.3757 20.5096C11.3757 20.5096 11.3757 20.5096 11.3731 20.5438C11.3988 20.5449 11.3988 20.5449 11.3988 20.5449L11.3988 20.545L11.3988 20.5453L11.3982 20.5707C11.3978 20.5872 11.3972 20.6106 11.3965 20.6388C11.395 20.6951 11.393 20.7701 11.3906 20.8453C11.3883 20.9203 11.3856 20.9956 11.383 21.0522C11.3816 21.0805 11.3803 21.1045 11.379 21.1216C11.3783 21.13 11.3776 21.1376 11.3768 21.1434C11.3764 21.1461 11.3758 21.1499 11.3748 21.1536C11.3744 21.1552 11.3733 21.1589 11.3713 21.1629C11.3704 21.1646 11.3663 21.1725 11.3583 21.1763C11.2532 21.2361 11.1115 21.2235 10.9627 21.1765C10.8121 21.1289 10.6491 21.0443 10.4993 20.9532C10.3493 20.8621 10.2116 20.7639 10.1115 20.6886C10.0615 20.6509 10.0207 20.6189 9.99251 20.5963C9.98283 20.5886 9.97461 20.5819 9.96799 20.5766L9.91879 20.6586L10.0167 20.8628C10.0229 20.8759 10.0218 20.893 10.014 20.9045L9.73767 21.3091L9.86507 21.9158C9.86801 21.9298 9.86402 21.9448 9.85509 21.9532L9.64884 22.1469C9.64226 22.1531 9.63388 22.1548 9.6262 22.1516C9.61852 22.1483 9.61242 22.1405 9.60971 22.1304L9.44802 21.5267L9.34093 21.4077C9.33519 21.4014 9.33181 21.392 9.33165 21.382C9.3315 21.3721 9.33458 21.3626 9.34011 21.3559L9.59323 21.0496C9.59797 21.0439 9.60415 21.0407 9.61055 21.0407H9.73418C9.73801 21.0359 9.74329 21.0286 9.74979 21.0189C9.76274 20.9997 9.77896 20.9736 9.795 20.9472C9.81098 20.9209 9.82655 20.8945 9.83815 20.8746C9.84066 20.8703 9.84299 20.8663 9.84509 20.8627L9.78863 20.7665L9.70031 20.8549C9.69532 20.8664 9.69375 20.8742 9.69345 20.879C9.69316 20.8836 9.69392 20.886 9.69515 20.8882C9.69902 20.8952 9.71041 20.9041 9.7328 20.9101C9.74624 20.9137 9.75522 20.9307 9.75326 20.9488C9.75129 20.9668 9.73906 20.9797 9.72541 20.9781L9.63345 20.9669L9.16379 21.5269C9.1658 21.5876 9.15288 21.6583 9.10989 21.7224L8.85695 22.1408L8.25694 23.1033C8.25535 23.1059 8.25349 23.1081 8.25142 23.1099C8.20015 23.1555 8.14249 23.1545 8.08792 23.1108C8.08548 23.1089 8.0833 23.1064 8.08147 23.1035L7.67834 22.466L7.69805 22.4438L7.68098 22.4181L8.32785 21.6556C8.32882 21.6544 8.32984 21.6534 8.33092 21.6525C8.41364 21.5811 8.49639 21.5667 8.58633 21.5546L8.94076 21.082C8.9456 21.0756 8.95215 21.072 8.95899 21.072H9.04297L9.6919 20.3056C9.70129 20.2945 9.7153 20.294 9.7251 20.3045L9.75499 20.3364L9.81666 20.2633L9.82434 20.2121C9.8254 20.205 9.8281 20.1986 9.83206 20.1937L9.84962 20.2188C9.83206 20.1937 9.83206 20.1937 9.83206 20.1937L9.85225 20.1687C9.8651 20.1527 9.88348 20.13 9.90557 20.1028C9.94975 20.0483 10.0088 19.9756 10.0683 19.9029C10.1278 19.8302 10.1879 19.7574 10.2339 19.7027C10.245 19.6895 10.2554 19.6774 10.2647 19.6665L9.78137 20.1831C9.77166 20.1935 9.75777 20.1932 9.74836 20.1823L9.72071 20.1504V20.1876C9.72071 20.1978 9.71731 20.2075 9.71142 20.214L9.01298 20.989C9.005 20.9979 8.9938 20.9995 8.98459 20.9931C8.97537 20.9867 8.96994 20.9735 8.9708 20.9597L8.99424 20.5847C8.99523 20.5688 9.00428 20.5559 9.01611 20.5536L9.10275 20.5363L10.1642 19.3621L10.1762 19.298C10.1775 19.2909 10.1805 19.2846 10.1847 19.2799L10.5456 18.8799C10.5535 18.8712 10.5644 18.8695 10.5736 18.8755C10.5827 18.8816 10.5883 18.8942 10.5879 18.9078C10.5841 19.0241 10.648 19.1056 10.7273 19.1783C10.7461 19.1629 10.7642 19.1449 10.7834 19.1257L10.784 19.125C10.8 19.1091 10.8167 19.0924 10.8346 19.0769L10.8225 19.0537L10.7311 19.1349C10.7205 19.1444 10.7063 19.142 10.6977 19.1294L10.604 18.9919C10.5947 18.9784 10.5951 18.9575 10.6048 18.9445L10.6954 18.8238L10.0824 17.9111C10.0105 17.9534 9.93881 17.9457 9.86535 17.9342C9.85908 17.9332 9.8533 17.9292 9.8491 17.9229L9.66401 17.6453L9.63624 18.0842C9.63582 18.0909 9.63391 18.0974 9.63077 18.1027L8.54327 19.9339C8.53844 19.942 8.53113 19.9468 8.52336 19.9469C8.51559 19.9471 8.50819 19.9425 8.50323 19.9345L7.97354 19.0845C7.96607 19.0726 7.96558 19.0554 7.97235 19.0427L8.9286 17.2489C8.9323 17.242 8.9378 17.2371 8.94402 17.2353L9.11277 17.1853C9.11638 17.1842 9.12011 17.1842 9.12372 17.1852L9.12389 17.1852L9.1245 17.1854L9.12699 17.1861C9.12918 17.1867 9.13244 17.1876 9.13662 17.1886C9.14498 17.1908 9.15701 17.1938 9.17157 17.197C9.20075 17.2036 9.23986 17.2112 9.27994 17.2158C9.32032 17.2204 9.36037 17.2218 9.39194 17.2164C9.40775 17.2137 9.42018 17.2095 9.42905 17.2042C9.43527 17.2005 9.43867 17.1969 9.44053 17.1941C9.44025 17.1966 9.43998 17.199 9.43972 17.2015L9.46524 17.2063L9.44218 17.191C9.44186 17.1918 9.44134 17.1929 9.44053 17.1941C9.46577 16.9711 9.54113 16.8542 9.63534 16.8062C9.72791 16.7591 9.83211 16.7821 9.90956 16.8176C9.91363 16.8194 9.91729 16.8226 9.92019 16.8269L10.328 17.4206C10.334 17.4293 10.3362 17.4416 10.3338 17.453L10.3001 17.616L10.2906 17.602L10.2715 17.6251L10.2963 17.6342L10.3001 17.616L10.9371 18.5564C10.9344 18.5588 10.9322 18.5606 10.9303 18.5619C10.929 18.5628 10.9284 18.5631 10.9283 18.5631C10.9283 18.5631 10.9291 18.5628 10.9305 18.5626C10.9321 18.5624 10.9358 18.5623 10.9401 18.5649C10.9427 18.5664 10.9449 18.5685 10.9467 18.571C10.9484 18.5732 10.9498 18.5758 10.9508 18.5785C10.9498 18.5757 10.9484 18.5731 10.9469 18.5708L10.9371 18.5564C10.9419 18.5522 10.9479 18.5463 10.9552 18.5386C10.9776 18.5147 11.0069 18.4787 11.037 18.4401C11.067 18.4017 11.0971 18.3615 11.1211 18.3296L11.1213 18.3293C11.1332 18.3135 11.1436 18.2996 11.1516 18.2891C11.159 18.2795 11.166 18.2704 11.1701 18.2663C11.1759 18.2605 11.1833 18.2582 11.1905 18.2601C11.1977 18.262 11.2039 18.2678 11.2077 18.2761L11.2361 18.3393L11.2179 18.4119L11.2166 18.4115L11.2144 18.4248L11.18 18.3483C11.1828 18.3447 11.1854 18.3413 11.1877 18.3382C11.1917 18.333 11.1949 18.3289 11.1974 18.3258C11.1996 18.323 11.2007 18.3218 11.2009 18.3214C11.201 18.3213 11.2011 18.3213 11.201 18.3213L11.1856 18.2938L11.1634 18.3115L11.18 18.3483C11.1735 18.3569 11.166 18.367 11.1576 18.3782L11.1575 18.3783C11.1335 18.4102 11.1031 18.4508 11.0728 18.4897C11.0425 18.5285 11.0118 18.5663 10.9874 18.5923C10.9755 18.605 10.9638 18.6162 10.9539 18.623C10.9492 18.6262 10.9425 18.6302 10.935 18.6311C10.9309 18.6316 10.9252 18.6313 10.9192 18.6277C10.9143 18.6248 10.9103 18.6204 10.9073 18.6149L10.9086 18.6169L10.9277 18.5938L10.9047 18.6092C10.9054 18.6112 10.9063 18.6131 10.9073 18.6149L10.2524 17.6481C10.2465 17.6394 10.2443 17.6273 10.2466 17.6159L10.2803 17.453L10.29 17.467L10.309 17.4438L10.2841 17.4347L10.2803 17.453L9.88665 16.8798C9.88872 16.8807 9.89076 16.8817 9.8928 16.8826L9.90118 16.8501L9.88217 16.8733L9.88665 16.8798C9.81519 16.8484 9.72778 16.8328 9.65374 16.8705C9.58023 16.9079 9.51323 17.0015 9.49076 17.2112C9.49037 17.2148 9.48954 17.2184 9.4883 17.2217C9.47999 17.2439 9.46525 17.2579 9.45009 17.267C9.43487 17.276 9.41697 17.2814 9.3985 17.2846C9.36152 17.2909 9.3172 17.2891 9.27554 17.2843C9.23359 17.2795 9.19301 17.2716 9.16301 17.2648C9.14799 17.2615 9.13555 17.2584 9.12685 17.2561C9.12353 17.2553 9.12076 17.2546 9.11859 17.254L9.12396 17.2524L9.11837 17.2188C9.11302 17.2525 9.11302 17.2525 9.11303 17.2525L9.11329 17.2525L9.11401 17.2527L9.11672 17.2535C9.11728 17.2536 9.1179 17.2538 9.11859 17.254M8.96489 17.2995L8.97063 17.2887L8.94962 17.2688L8.95521 17.3024L8.96489 17.2995ZM11.214 18.4277L11.2144 18.4248L11.2146 18.4252L11.214 18.4277ZM11.2072 18.4694C11.2063 18.4636 11.2065 18.4575 11.208 18.4517L11.214 18.4277L11.2072 18.4694ZM11.2432 18.5717L11.2092 18.4775C11.2083 18.4749 11.2076 18.4722 11.2072 18.4694L11.1949 18.5444L11.0231 18.7495C11.0178 18.7558 11.0147 18.7647 11.0145 18.7741C11.0143 18.7836 11.017 18.7927 11.022 18.7994C11.0243 18.8024 11.0354 18.8173 11.0459 18.8335C11.0512 18.8416 11.0559 18.8494 11.059 18.8557C11.0603 18.8583 11.0612 18.8602 11.0616 18.8614C11.0626 18.8698 11.066 18.8802 11.0745 18.8866C11.0823 18.8925 11.0897 18.8912 11.0918 18.8907C11.0965 18.8897 11.1002 18.8871 11.1013 18.8864L11.1014 18.8863C11.1045 18.8841 11.1079 18.8811 11.1108 18.8783C11.1171 18.8724 11.1257 18.8637 11.1354 18.8533C11.155 18.8325 11.181 18.8038 11.2068 18.7748C11.2327 18.7458 11.2585 18.7165 11.2779 18.6944C11.2876 18.6833 11.2957 18.674 11.3013 18.6676L11.3101 18.6575L11.3102 18.6574L11.2934 18.6313L11.3102 18.6573C11.319 18.6472 11.3217 18.6304 11.3166 18.6164L11.2611 18.4626L11.2638 18.4459L11.3018 18.2939L11.6736 17.8102L11.9295 17.8282C11.9365 17.8286 11.9433 17.8253 11.9485 17.819L12.3 17.3815C12.305 17.3753 12.3079 17.3668 12.3082 17.3578L12.3148 17.1521C12.3197 17.1579 12.3249 17.1634 12.3301 17.1687C12.3555 17.1944 12.3849 17.217 12.4127 17.2355C12.4406 17.2541 12.4675 17.269 12.4885 17.2794C12.499 17.2846 12.5082 17.2887 12.5154 17.2915C12.519 17.293 12.5223 17.2942 12.5251 17.295C12.5272 17.2957 12.5314 17.2969 12.5356 17.2969C12.5424 17.2969 12.5474 17.2935 12.5492 17.2921C12.5515 17.2904 12.5533 17.2886 12.5544 17.2873C12.5568 17.2847 12.559 17.2817 12.5608 17.2792C12.5637 17.2753 12.5672 17.27 12.5707 17.2647C12.5717 17.2633 12.5726 17.2619 12.5735 17.2605C12.5832 17.2461 12.5947 17.2294 12.6071 17.2155C12.6201 17.2012 12.6313 17.193 12.6401 17.191C12.646 17.1896 12.6523 17.1905 12.6601 17.2019C12.6701 17.2235 12.674 17.2379 12.6753 17.2474C12.6766 17.2561 12.6757 17.2617 12.6743 17.267C12.6734 17.2702 12.6722 17.2736 12.6704 17.278C12.67 17.2791 12.6695 17.2802 12.669 17.2815C12.6676 17.2851 12.6658 17.2896 12.6643 17.2938C12.6596 17.3065 12.6551 17.3227 12.6551 17.3438C12.6551 17.355 12.6592 17.3656 12.6661 17.372L12.713 17.4157C12.7219 17.4241 12.7337 17.424 12.7426 17.4156L13.8384 16.3834L12.826 17.6832C12.812 17.6898 12.7939 17.6901 12.7757 17.6852C12.7552 17.6795 12.7409 17.669 12.7366 17.6633C12.7272 17.6507 12.7121 17.6498 12.7018 17.6612L11.9548 18.4933C11.9106 18.415 11.8498 18.3558 11.7799 18.3238C11.7712 18.3199 11.7617 18.3223 11.7548 18.3301L11.4735 18.6489C11.4678 18.6554 11.4645 18.665 11.4645 18.6751C11.4645 18.7179 11.462 18.7388 11.457 18.7549C11.4519 18.7713 11.4433 18.786 11.4243 18.8145L11.4245 18.8142L11.4434 18.8376L11.4241 18.8147L11.2463 19.0705C11.2374 19.0833 11.2371 19.1031 11.2458 19.1164L13.6012 22.7243C13.5963 22.8018 13.5872 22.844 13.5689 22.8748C13.5508 22.9053 13.5212 22.9291 13.4663 22.9591L11.0643 19.3149C11.055 19.3008 11.0389 19.2992 11.0282 19.3114L10.6405 19.7511L10.4743 19.4784C10.4682 19.4684 10.4585 19.4638 10.449 19.4664C10.4396 19.4691 10.432 19.4785 10.4295 19.4909L10.406 19.6034C10.4039 19.6137 10.4054 19.6247 10.4102 19.6332L10.498 19.7891C10.4977 19.7892 10.4975 19.7893 10.4973 19.7894C10.4722 19.7976 10.4385 19.8117 10.4053 19.8354C10.3721 19.859 10.3382 19.8929 10.3142 19.9413C10.2899 19.9904 10.2769 20.0524 10.2834 20.129C10.2875 20.1776 10.3134 20.2174 10.3461 20.2497C10.3795 20.2825 10.4245 20.312 10.4758 20.3386C10.5788 20.3918 10.7128 20.436 10.8447 20.4713C10.977 20.5066 11.1084 20.5333 11.2066 20.5511C11.2558 20.56 11.2967 20.5668 11.3253 20.5713C11.3334 20.5725 11.3405 20.5736 11.3465 20.5745C11.3461 20.5904 11.3456 20.6116 11.3449 20.6364C11.3435 20.6926 11.3414 20.7675 11.3391 20.8424C11.3368 20.9173 11.3341 20.992 11.3315 21.0479C11.3302 21.0759 11.3289 21.0988 11.3277 21.1145C11.3276 21.116 11.3274 21.1174 11.3273 21.1188C11.2388 21.1631 11.1153 21.154 10.9746 21.1096C10.8286 21.0634 10.6691 20.9809 10.5207 20.8907C10.3724 20.8006 10.2361 20.7034 10.1369 20.6287C10.0873 20.5914 10.0469 20.5597 10.019 20.5374C10.0051 20.5262 9.99427 20.5174 9.98694 20.5114C9.98327 20.5084 9.98048 20.5061 9.97862 20.5045L9.97652 20.5028L9.976 20.5024L9.97588 20.5023C9.97587 20.5023 9.97585 20.5022 9.96212 20.5313L9.97588 20.5023C9.96478 20.4929 9.95018 20.4962 9.94199 20.5099L9.86699 20.6349C9.86009 20.6463 9.85945 20.6624 9.86539 20.6748L9.96257 20.8776L9.68993 21.2769C9.68395 21.2857 9.68177 21.2979 9.68417 21.3093L9.81051 21.911L9.64687 22.0647L9.49421 21.4948C9.49266 21.489 9.48997 21.4839 9.48643 21.4799L9.39671 21.3802L9.62051 21.1095H9.7418C9.74774 21.1095 9.75231 21.1069 9.75438 21.1056C9.75684 21.104 9.75892 21.1023 9.76045 21.1008C9.76352 21.098 9.76655 21.0945 9.76926 21.0911C9.77478 21.0842 9.7813 21.075 9.78817 21.0648C9.80202 21.0442 9.8189 21.0171 9.83509 20.9904C9.85134 20.9637 9.86711 20.9369 9.87881 20.9169C9.88467 20.9069 9.88951 20.8985 9.8929 20.8927L9.89682 20.8859L9.89813 20.8836L9.8982 20.8835C9.90533 20.8711 9.90528 20.8537 9.89805 20.8414L9.81367 20.6976C9.80502 20.6829 9.78912 20.6801 9.7779 20.6913L9.6654 20.8038C9.66291 20.8063 9.66078 20.8094 9.65912 20.8129C9.64954 20.8329 9.64333 20.8531 9.64207 20.8733C9.6415 20.8823 9.64195 20.8909 9.64333 20.8991L9.62695 20.8971C9.61983 20.8962 9.61276 20.8993 9.60743 20.9057L9.11993 21.487C9.11372 21.4944 9.11057 21.5053 9.11149 21.5164C9.11548 21.5642 9.1077 21.6228 9.07108 21.6771C9.07077 21.6775 9.07046 21.678 9.07017 21.6785L8.81729 22.0969L8.83712 22.1188L8.81704 22.0973L8.21981 23.0553C8.18854 23.0813 8.15464 23.0822 8.11802 23.0546L7.734 22.4473L8.36053 21.7088C8.43386 21.6463 8.50729 21.6342 8.60062 21.6218C8.60654 21.621 8.61208 21.6175 8.61628 21.6119L8.96967 21.1407H9.05274C9.05904 21.1407 9.06512 21.1376 9.06984 21.1321L9.70984 20.3762L9.73976 20.4082C9.74957 20.4186 9.76361 20.4181 9.773 20.407L9.85737 20.307C9.86156 20.302 9.86442 20.2954 9.86552 20.2881L9.87327 20.2364L9.88732 20.219C9.90016 20.2032 9.91852 20.1805 9.94059 20.1532C9.98474 20.0988 10.0437 20.0261 10.1032 19.9535C10.1626 19.8809 10.2224 19.8084 10.2682 19.7541C10.2911 19.7269 10.3104 19.7044 10.3242 19.6888C10.3312 19.681 10.3366 19.6752 10.3403 19.6715C10.3408 19.6709 10.3413 19.6704 10.3417 19.67C10.3441 19.669 10.3466 19.6674 10.3491 19.6652C10.3556 19.6592 10.3591 19.6507 10.3605 19.6432C10.3628 19.6311 10.36 19.6203 10.359 19.6165C10.3564 19.6064 10.3515 19.5956 10.3476 19.5876C10.3434 19.5789 10.3387 19.5704 10.3353 19.5642C10.3335 19.5611 10.332 19.5585 10.3309 19.5566L10.3296 19.5545L10.3293 19.5539L10.3292 19.5537L10.3291 19.5536C10.3291 19.5536 10.3291 19.5536 10.3278 19.5551L10.3291 19.5536C10.3249 19.5465 10.3186 19.5419 10.3118 19.5409C10.305 19.5399 10.2982 19.5425 10.2929 19.5483L9.76589 20.1116L9.71181 20.0491C9.70419 20.0403 9.6934 20.0382 9.68422 20.0438C9.67504 20.0494 9.66915 20.0616 9.66915 20.0751V20.1715L9.02729 20.8837L9.04393 20.6175L9.1175 20.6028C9.12215 20.6019 9.12652 20.5993 9.13014 20.5953L10.2036 19.4078C10.2078 19.4031 10.2108 19.3968 10.2121 19.3897L10.2241 19.3256L10.5405 18.975C10.5599 19.1 10.6409 19.1843 10.7119 19.2474C10.7199 19.2545 10.7301 19.2551 10.7385 19.249C10.7659 19.2291 10.7906 19.2044 10.8136 19.1814L10.8143 19.1807C10.838 19.157 10.86 19.1351 10.8838 19.1178C10.8903 19.1131 10.8949 19.105 10.8966 19.0955C10.8983 19.086 10.8969 19.076 10.8927 19.068L10.8505 18.9868C10.8425 18.9713 10.8267 18.9673 10.815 18.9777L10.721 19.0613L10.6587 18.97L10.7491 18.8494C10.7588 18.8365 10.7592 18.8157 10.7501 18.8021L10.1079 17.8459C10.1 17.8341 10.087 17.831 10.0765 17.8385C10.0166 17.8812 9.95621 17.8787 9.8811 17.8674L9.66264 17.5397C9.65579 17.5295 9.64501 17.5256 9.63523 17.53C9.62545 17.5343 9.61854 17.546 9.61768 17.5597L9.58552 18.0681L8.52257 19.858L8.02587 19.0609L8.01438 19.0825L7.99337 19.0626L8.0132 19.0406L8.02587 19.0609M8.52257 19.858L8.50284 19.8912L8.52305 19.9126L8.54288 19.8906L8.52257 19.858ZM9.58552 18.0681L9.58486 18.0784L9.61055 18.0813L9.59034 18.06L9.58552 18.0681ZM9.8811 17.8674C9.87789 17.8669 9.87465 17.8664 9.87138 17.8659L9.86837 17.9001L9.88764 17.8772L9.8811 17.8674ZM10.6587 18.97L10.6421 18.9457L10.6231 18.9688L10.6413 18.9931L10.6587 18.97ZM10.721 19.0613L10.7025 19.0777L10.7168 19.1063L10.7359 19.0832L10.721 19.0613ZM10.5405 18.975L10.5786 18.9328L10.5621 18.9063L10.5364 18.9048C10.5356 18.9296 10.5371 18.9529 10.5405 18.975ZM10.2241 19.3256L10.2262 19.3147L10.2012 19.3063L10.2177 19.3328L10.2241 19.3256ZM9.04393 20.6175L9.04562 20.5904L9.01993 20.5876L9.02375 20.6216L9.04393 20.6175ZM9.02729 20.8837L8.98 20.9362L8.99649 20.9626L9.02218 20.9654L9.02729 20.8837ZM9.66915 20.1715V20.1876H9.69493L9.67844 20.1612L9.66915 20.1715ZM9.76589 20.1116L9.74912 20.1295L9.76524 20.1563L9.78213 20.1303L9.76589 20.1116ZM10.3417 19.67C10.3427 19.669 10.3433 19.6685 10.3436 19.6683C10.3439 19.6681 10.3434 19.6685 10.3426 19.669C10.3421 19.6693 10.3412 19.6699 10.3399 19.6704C10.3388 19.6709 10.3361 19.6719 10.3324 19.6719C10.335 19.6719 10.3382 19.6715 10.3417 19.67ZM9.70984 20.3762L9.72609 20.3571L9.70899 20.3313L9.69289 20.3582L9.70984 20.3762ZM8.96967 21.1407L8.97722 21.1306L8.95899 21.1063V21.1407H8.96967ZM8.36053 21.7088L8.36201 21.7071L8.34493 21.6813L8.35894 21.7102C8.35947 21.7097 8.36 21.7093 8.36053 21.7088ZM8.11802 23.0546C8.11683 23.0537 8.11564 23.0528 8.11444 23.0518L8.10118 23.0813L8.12089 23.0592L8.11802 23.0546ZM8.21981 23.0553L8.21729 23.0594L8.23712 23.0813L8.22282 23.0527C8.22182 23.0536 8.22082 23.0545 8.21981 23.0553ZM9.64333 20.8991C9.64518 20.91 9.64869 20.9201 9.65369 20.9291C9.66974 20.9581 9.6982 20.971 9.72269 20.9775L9.72774 20.9438L9.73008 20.9096L9.64333 20.8991ZM9.62051 21.1095L9.62788 21.1005L9.61055 21.0751V21.1095H9.62051ZM9.39671 21.3802L9.37393 21.3549L9.35743 21.3813L9.37475 21.4068L9.39671 21.3802ZM9.64687 22.0647L9.61914 22.0907L9.63399 22.1188L9.65827 22.1073L9.64687 22.0647ZM9.81051 21.911L9.81542 21.9343L9.84024 21.9251L9.82539 21.897L9.81051 21.911ZM9.96257 20.8776L9.9732 20.8998L9.99493 20.8813L9.97587 20.8582L9.96257 20.8776ZM11.339 21.1125C11.3327 21.1164 11.3294 21.1227 11.3288 21.1239C11.3271 21.1272 11.3264 21.13 11.3262 21.1306C11.326 21.1314 11.3259 21.1319 11.3259 21.1319C11.3259 21.1319 11.326 21.1316 11.3261 21.1308C11.3264 21.1283 11.3268 21.1244 11.3273 21.1188C11.3313 21.1168 11.3352 21.1147 11.339 21.1125ZM11.339 21.1125C11.3419 21.1107 11.3454 21.1094 11.3496 21.1094C11.3461 21.1094 11.3426 21.1104 11.3394 21.1123C11.3393 21.1123 11.3391 21.1124 11.339 21.1125ZM10.5434 19.8126L10.5227 19.8332L10.498 19.7891C10.5103 19.7851 10.5207 19.7825 10.5281 19.7808C10.5319 19.78 10.5349 19.7794 10.537 19.779C10.5381 19.7788 10.5389 19.7787 10.5395 19.7786L10.5402 19.7785L10.5404 19.7784L10.5405 19.7784C10.5405 19.7784 10.5406 19.7784 10.5434 19.8126ZM10.6405 19.7511L10.6204 19.7739L10.6371 19.8001L10.6571 19.7784L10.6405 19.7511ZM13.4663 22.9591C13.461 22.962 13.4554 22.965 13.4496 22.9681L13.459 23.0001L13.4784 22.9774L13.4663 22.9591ZM13.6012 22.7243L13.6083 22.7351L13.6277 22.7126L13.602 22.7101C13.6018 22.715 13.6015 22.7197 13.6012 22.7243ZM11.9548 18.4933L11.9331 18.5174L11.9496 18.5438L11.9714 18.5254C11.9662 18.5144 11.9606 18.5037 11.9548 18.4933ZM12.826 17.6832L12.8224 17.6878L12.8402 17.7126L12.8298 17.6812C12.8285 17.6819 12.8273 17.6826 12.826 17.6832ZM12.6601 17.2019C12.6605 17.2025 12.6609 17.2031 12.6613 17.2037L12.6809 17.1813L12.659 17.1995C12.6594 17.2003 12.6597 17.2011 12.6601 17.2019ZM12.3148 17.1521L12.3176 17.064L12.2918 17.0626L12.2687 17.0779C12.2791 17.1056 12.2958 17.1304 12.3148 17.1521ZM11.6736 17.8102L11.6817 17.7997L11.6637 17.7751L11.6623 17.8094L11.6736 17.8102ZM11.3018 18.2939L11.3038 18.2859L11.2793 18.2751L11.2973 18.2997L11.3018 18.2939ZM11.2602 18.4602L11.2611 18.4626L11.2436 18.5699C11.2435 18.5705 11.2433 18.5711 11.2432 18.5717L11.2616 18.6225C11.2567 18.628 11.2509 18.6346 11.2444 18.6421C11.2251 18.6642 11.1994 18.6934 11.1736 18.7222C11.1479 18.7511 11.1223 18.7793 11.1033 18.7995C11.1008 18.8022 11.0984 18.8047 11.0962 18.807C11.0926 18.8006 11.0887 18.7944 11.0849 18.7885C11.0824 18.7846 11.0798 18.7807 11.0773 18.777L11.2356 18.5882C11.2393 18.5838 11.2419 18.5781 11.2432 18.5717M11.0962 18.807C11.0899 18.8135 11.0848 18.8187 11.0811 18.8221C11.0789 18.8243 11.0778 18.8252 11.0775 18.8254C11.0775 18.8254 11.0775 18.8254 11.0775 18.8254C11.0776 18.8253 11.0781 18.825 11.0788 18.8246C11.0794 18.8243 11.0812 18.8234 11.0837 18.8228C11.0853 18.8225 11.0924 18.8211 11.1 18.8268C11.1102 18.8345 11.1129 18.848 11.1129 18.8563C11.1129 18.8465 11.1104 18.8381 11.1087 18.8333C11.1067 18.8277 11.1043 18.8223 11.1019 18.8174C11.1001 18.814 11.0982 18.8105 11.0962 18.807ZM11.0773 18.777L11.0574 18.8007L11.0402 18.7751L11.0585 18.7508C11.0604 18.7533 11.0683 18.7638 11.0773 18.777ZM11.2602 18.4602L11.2638 18.4459L11.267 18.4261C11.2684 18.4176 11.2673 18.4086 11.2639 18.4011L11.2361 18.3393L11.2548 18.2642C11.2561 18.259 11.2584 18.2543 11.2613 18.2505L11.6457 17.7505C11.6508 17.7438 11.6578 17.7402 11.665 17.7407L11.9213 17.7587L11.9133 17.7687L11.9309 17.7938L11.9322 17.7595L11.9213 17.7587L12.2571 17.3408L12.2567 17.3549L12.2824 17.3563L12.2648 17.3312L12.2571 17.3408L12.266 17.0611C12.2665 17.0455 12.2749 17.0322 12.2864 17.029C12.2979 17.0257 12.3096 17.0332 12.3149 17.0472C12.3229 17.0685 12.3389 17.0912 12.3613 17.1139C12.3833 17.1362 12.4097 17.1566 12.4358 17.174C12.4618 17.1914 12.487 17.2053 12.5064 17.2149C12.5151 17.2192 12.5226 17.2225 12.5283 17.2249C12.5264 17.2276 12.5249 17.2299 12.5235 17.2317C12.5221 17.2337 12.5216 17.2343 12.5218 17.2341C12.5218 17.234 12.5227 17.2331 12.5241 17.232C12.525 17.2314 12.5293 17.2282 12.5356 17.2282C12.5368 17.2282 12.5377 17.2284 12.538 17.2284C12.5382 17.2285 12.5379 17.2284 12.5368 17.2281C12.5353 17.2276 12.5331 17.2268 12.5302 17.2257C12.5295 17.2254 12.5289 17.2252 12.5283 17.2249C12.5293 17.2233 12.5305 17.2216 12.5317 17.2197C12.5327 17.2182 12.5339 17.2165 12.5351 17.2147C12.5448 17.2001 12.5585 17.1801 12.5741 17.1627C12.5893 17.1458 12.6091 17.1283 12.6314 17.1232C12.6562 17.1176 12.6807 17.1283 12.7004 17.159C12.7013 17.1603 12.702 17.1616 12.7027 17.1631C12.7154 17.1901 12.723 17.2134 12.726 17.2346C12.7291 17.2569 12.727 17.2751 12.7226 17.2909C12.7206 17.2983 12.7181 17.3048 12.716 17.3101C12.7153 17.3121 12.7146 17.3138 12.7139 17.3153C12.7127 17.3184 12.7117 17.3209 12.7107 17.3238C12.7101 17.3253 12.7096 17.3268 12.7091 17.3282L12.6957 17.3157L12.6809 17.3438H12.7066C12.7066 17.3383 12.7075 17.3336 12.7091 17.3282L12.7277 17.3456L12.7129 17.3595L12.7277 17.3876L12.7425 17.3594L12.7277 17.3456L14.0863 16.0657C14.0973 16.0554 14.1125 16.0581 14.1211 16.0719M11.2616 18.6225C11.2638 18.6199 11.2659 18.6175 11.2677 18.6154L11.2765 18.6054L11.2934 18.6313L11.2701 18.6462L11.2616 18.6225ZM11.0616 18.8614C11.0617 18.8617 11.0618 18.862 11.0619 18.8622C11.0625 18.864 11.0613 18.8615 11.0613 18.8563C11.0613 18.8579 11.0614 18.8596 11.0616 18.8614ZM11.1949 18.5444L11.1932 18.5553L11.2184 18.5626L11.2012 18.537L11.1949 18.5444ZM11.3731 20.5438L11.3988 20.5449C11.3992 20.5269 11.3891 20.5115 11.3757 20.5096L11.3731 20.5438Z" fill="black"/>
</g>
<rect x="2" y="2" width="36" height="36" rx="18" stroke="white" stroke-width="4"/>
<defs>
<clipPath id="clip0_90_23814">
<rect x="4" y="4" width="32" height="32" rx="16" fill="white"/>
</clipPath>
</defs>
</svg>
