<svg width="40" height="40" viewBox="0 0 40 40" fill="none" xmlns="http://www.w3.org/2000/svg">
<g clip-path="url(#clip0_90_23805)">
<path fill-rule="evenodd" clip-rule="evenodd" d="M4.00012 4H36.0001V36H4.00012V4Z" fill="white"/>
<path fill-rule="evenodd" clip-rule="evenodd" d="M2.68005 4.01333L2.72005 27.0533L29.6251 4L2.68005 4.01333Z" fill="#3662A2"/>
<path fill-rule="evenodd" clip-rule="evenodd" d="M37.3204 35.9732L37.2504 12.0199L10.1154 35.9866L37.3154 35.9732H37.3204Z" fill="#38A100"/>
<path fill-rule="evenodd" clip-rule="evenodd" d="M2.70007 28.7866L2.72007 35.9999L8.59507 35.9932L37.2701 10.3599L37.2351 4.08656L31.4351 4.0199L2.70007 28.7799V28.7866Z" fill="#C70000"/>
<path fill-rule="evenodd" clip-rule="evenodd" d="M14.9804 15.4667L13.8904 14.5867L13.2604 16.06L12.6504 14.58L11.5504 15.44L11.5804 13.7467L10.3104 13.76L10.9704 12.3067L9.86536 11.4733L10.9754 10.6533L10.3354 9.18668L11.6054 9.22668L11.6004 7.52668L12.6854 8.40668L13.3154 6.93335L13.9254 8.41335L15.0254 7.55335L14.9954 9.24668L16.2654 9.23335L15.6054 10.6867L16.7104 11.52L15.6004 12.34L16.2404 13.8067L14.9704 13.7667L14.9804 15.4667Z" fill="#FFE700"/>
<path fill-rule="evenodd" clip-rule="evenodd" d="M15.6198 11.4933C15.6198 13.2 14.5748 14.58 13.2898 14.58C12.0048 14.58 10.9598 13.2 10.9598 11.4933C10.9598 9.78666 11.9998 8.41333 13.2898 8.41333C14.5798 8.41333 15.6198 9.79333 15.6198 11.4933V11.4933Z" fill="#3662A2"/>
<path fill-rule="evenodd" clip-rule="evenodd" d="M15.1151 11.4933C15.1151 12.1386 14.9228 12.7576 14.5806 13.2139C14.2383 13.6702 13.7741 13.9266 13.2901 13.9266C12.8061 13.9266 12.3419 13.6702 11.9996 13.2139C11.6574 12.7576 11.4651 12.1386 11.4651 11.4933C11.4651 10.8479 11.6574 10.229 11.9996 9.77264C12.3419 9.3163 12.8061 9.05994 13.2901 9.05994C13.7741 9.05994 14.2383 9.3163 14.5806 9.77264C14.9228 10.229 15.1151 10.8479 15.1151 11.4933V11.4933Z" fill="#FFE700"/>
</g>
<rect x="2" y="2" width="36" height="36" rx="18" stroke="white" stroke-width="4"/>
<defs>
<clipPath id="clip0_90_23805">
<rect x="4" y="4" width="32" height="32" rx="16" fill="white"/>
</clipPath>
</defs>
</svg>
