<svg width="40" height="40" viewBox="0 0 40 40" fill="none" xmlns="http://www.w3.org/2000/svg">
<g clip-path="url(#clip0_90_23791)">
<path d="M4 4H36V36H4V4Z" fill="#009543"/>
<path d="M4 4H36V25.3333H4V4Z" fill="#ED4135"/>
<path d="M4 4H36V14.6667H4V4Z" fill="#0035AD"/>
<path d="M16.0001 30.4868C20.3439 30.4868 23.8651 25.7917 23.8651 20.0001C23.8651 14.2085 20.3439 9.51343 16.0001 9.51343C11.6564 9.51343 8.13513 14.2085 8.13513 20.0001C8.13513 25.7917 11.6564 30.4868 16.0001 30.4868Z" fill="#FAE600"/>
<path fill-rule="evenodd" clip-rule="evenodd" d="M16.0001 9.69C11.7295 9.69 8.26756 14.3059 8.26756 20C8.26756 25.6941 11.7295 30.31 16.0001 30.31C20.2706 30.31 23.7326 25.6941 23.7326 20C23.7326 14.3059 20.2706 9.69 16.0001 9.69ZM8.00256 20C8.00256 14.1108 11.5832 9.33667 16.0001 9.33667C20.417 9.33667 23.9976 14.1108 23.9976 20C23.9976 25.8892 20.417 30.6633 16.0001 30.6633C11.5832 30.6633 8.00256 25.8892 8.00256 20Z" fill="black"/>
<path d="M14.6649 21.5668H17.3299ZM14.6649 18.9334H17.3299ZM15.9999 9.54675V27.4668Z" fill="black"/>
<path fill-rule="evenodd" clip-rule="evenodd" d="M15.8399 18.7201V9.54675H16.1599V18.7201H17.3299V19.1468H16.1599V21.3534H17.3299V21.7801H16.1599V27.4668H15.8399V21.7801H14.6649V21.3534H15.8399V19.1468H14.6649V18.7201H15.8399Z" fill="black"/>
<path d="M12.8297 29.6267C16.0397 31.3801 19.0497 29.7401 19.0497 29.7401C19.0497 29.7401 17.9147 28.1001 17.3347 27.4601C16.7647 26.8334 15.0947 26.8601 14.5247 27.4601C13.934 28.1456 13.3683 28.8687 12.8297 29.6267V29.6267Z" fill="black"/>
<path d="M16.0001 26.5399C16.4861 26.5399 16.8801 25.7758 16.8801 24.8333C16.8801 23.8907 16.4861 23.1266 16.0001 23.1266C15.5141 23.1266 15.1201 23.8907 15.1201 24.8333C15.1201 25.7758 15.5141 26.5399 16.0001 26.5399Z" fill="black"/>
<path d="M16.0002 21.1467C16.5884 21.1467 17.0652 20.7437 17.0652 20.2467C17.0652 19.7496 16.5884 19.3467 16.0002 19.3467C15.412 19.3467 14.9352 19.7496 14.9352 20.2467C14.9352 20.7437 15.412 21.1467 16.0002 21.1467Z" fill="black"/>
<path d="M16.0002 17.5067C16.5884 17.5067 17.0652 16.871 17.0652 16.0867C17.0652 15.3025 16.5884 14.6667 16.0002 14.6667C15.412 14.6667 14.9352 15.3025 14.9352 16.0867C14.9352 16.871 15.412 17.5067 16.0002 17.5067Z" fill="black"/>
<path d="M17.2801 10.7933C17.2801 10.7933 17.3701 10.9933 17.1801 11.46C16.2501 13.6933 15.3151 13.74 15.1401 13.9333C14.9401 14.1466 14.8601 14.1333 14.8601 14.1333C14.8751 13.94 14.8851 13.16 14.8951 13.0866C15.0401 12.04 16.2201 12.0533 17.1451 10.9866C17.2901 10.82 17.2801 10.7866 17.2801 10.7866V10.7933ZM14.1601 15.5933C14.1601 15.5933 14.3751 16.3933 14.4001 17.1933C14.4501 18.4733 15.3701 18.5066 16.0001 18.5066V17.7933C15.5251 17.7933 15.1151 17.7 14.7751 16.7666C14.5962 16.3523 14.3905 15.9597 14.1601 15.5933V15.5933ZM14.1351 25.9C14.1351 25.9 14.4701 25.3466 14.8651 24.0533C15.0651 23.38 15.5551 22.9866 16.0001 22.9866V21.9866C14.9851 21.9866 14.5001 22.4866 14.4501 23.2266C14.3865 24.1255 14.2813 25.0183 14.1351 25.9V25.9Z" fill="black"/>
<path d="M17.8399 15.5934C17.8399 15.5934 17.6249 16.3934 17.5999 17.1934C17.5499 18.4734 16.6299 18.5067 15.9999 18.5067V17.8001C16.4749 17.8001 16.8849 17.7067 17.2249 16.7667C17.4049 16.3534 17.6099 15.9601 17.8399 15.5934ZM17.8649 25.9067C17.8649 25.9067 17.5299 25.3467 17.1349 24.0534C16.9349 23.3801 16.4449 22.9867 15.9999 22.9867V22.0001C17.0149 22.0001 17.4999 22.5001 17.5499 23.2401C17.6137 24.1367 17.7189 25.0273 17.8649 25.9067V25.9067Z" fill="black"/>
</g>
<rect x="2" y="2" width="36" height="36" rx="18" stroke="white" stroke-width="4"/>
<defs>
<clipPath id="clip0_90_23791">
<rect x="4" y="4" width="32" height="32" rx="16" fill="white"/>
</clipPath>
</defs>
</svg>
