<svg width="40" height="40" viewBox="0 0 40 40" fill="none" xmlns="http://www.w3.org/2000/svg">
<g clip-path="url(#clip0_90_23712)">
<path d="M4 4H36V36H4V4Z" fill="#0067C6"/>
<path d="M4.00024 14.6667H36.0002V25.3334H4.00024V14.6667Z" fill="white"/>
<path d="M16.4006 19.9667L16.8006 20.0001V19.9201L16.6506 19.9067L16.6606 19.6534L16.8256 19.4934L16.8306 19.3934L16.6556 19.5601C16.6506 19.5067 16.6256 19.4467 16.5856 19.4267C16.5456 19.4134 16.5056 19.4134 16.4706 19.4467C16.4306 19.4867 16.4206 19.5534 16.4206 19.6134L16.4006 19.9667V19.9667ZM16.4606 19.8934L16.4756 19.6267C16.4806 19.5867 16.4856 19.5334 16.5156 19.5067C16.522 19.5011 16.5292 19.4974 16.5368 19.4961C16.5443 19.4947 16.552 19.4957 16.5593 19.4989C16.5665 19.5021 16.5731 19.5075 16.5785 19.5146C16.584 19.5218 16.5881 19.5305 16.5906 19.5401C16.6106 19.6067 16.6006 19.6801 16.5956 19.7534L16.5906 19.9001L16.4606 19.8934V19.8934ZM16.4506 19.1467L16.8406 19.2667L16.9306 18.7601C16.9123 18.7557 16.894 18.7513 16.8756 18.7467L16.8006 19.1734L16.6806 19.1401L16.7506 18.7534L16.6956 18.7334L16.6256 19.1201L16.5256 19.0867L16.5956 18.6734L16.5356 18.6601L16.4506 19.1467V19.1467ZM16.5906 18.4467L16.9706 18.6267L16.9906 18.5534L16.8406 18.4867L16.9006 18.2534C16.9106 18.1867 16.9206 18.1201 16.8956 18.0534C16.884 18.0327 16.8689 18.0159 16.8515 18.0043C16.8342 17.9928 16.815 17.9867 16.7956 17.9867C16.7456 17.9867 16.7156 18.0334 16.6956 18.0867C16.6656 18.1534 16.6456 18.2334 16.6306 18.3134L16.5906 18.4467V18.4467ZM16.6656 18.4001L16.7256 18.1734C16.7406 18.1334 16.7556 18.0867 16.7906 18.0734C16.7976 18.0715 16.8048 18.0716 16.8117 18.0736C16.8186 18.0757 16.8251 18.0797 16.8308 18.0853C16.8365 18.091 16.8412 18.0982 16.8446 18.1065C16.848 18.1148 16.8501 18.124 16.8506 18.1334C16.8606 18.2001 16.8356 18.2667 16.8206 18.3334L16.7856 18.4601L16.6656 18.4001V18.4001ZM16.8006 17.8001L17.0156 17.9734C17.0556 18.0001 17.1056 18.0134 17.1506 17.9867C17.2048 17.9377 17.2467 17.868 17.2706 17.7867C17.2906 17.7201 17.3106 17.6401 17.2806 17.5734C17.2506 17.5067 17.1956 17.4801 17.1456 17.4401L17.0106 17.3334L16.9806 17.4001L17.1806 17.5601C17.2156 17.5867 17.2406 17.6267 17.2356 17.6867C17.2257 17.7478 17.2051 17.8049 17.1756 17.8534C17.1556 17.8934 17.1156 17.9267 17.0756 17.9201C17.0356 17.9067 17.0006 17.8667 16.9656 17.8401L16.8306 17.7401L16.8006 17.8067V17.8001ZM17.0906 17.1801L17.4056 17.5001L17.5556 17.2467C17.5856 17.1867 17.6056 17.1134 17.5906 17.0467C17.5813 17.0211 17.5673 16.999 17.5498 16.9827C17.5323 16.9664 17.5119 16.9563 17.4906 16.9534C17.4656 16.9534 17.4406 16.9734 17.4306 16.9801C17.4406 16.9201 17.4056 16.8667 17.3706 16.8534C17.3206 16.8334 17.2706 16.8734 17.2406 16.9201L17.1406 17.0867L17.0906 17.1801ZM17.1706 17.1601C17.2056 17.0934 17.2406 17.0267 17.2806 16.9734C17.3006 16.9467 17.3306 16.9067 17.3556 16.9334C17.3806 16.9467 17.3906 16.9934 17.3756 17.0201C17.3556 17.0801 17.3256 17.1201 17.2956 17.1734L17.2556 17.2467L17.1706 17.1601V17.1601ZM17.3006 17.2934L17.4156 17.0934C17.4356 17.0667 17.4656 17.0267 17.4956 17.0401C17.5256 17.0467 17.5456 17.0867 17.5356 17.1267C17.5206 17.1934 17.4806 17.2467 17.4456 17.3067L17.3956 17.3934L17.2956 17.2934H17.3006ZM17.4506 16.6134L17.7256 17.0001L17.9606 16.7001L17.9206 16.6467L17.7306 16.8867H17.7256L17.4906 16.5534L17.4506 16.6134ZM17.8006 16.2001L18.0456 16.6201L18.0956 16.5734L17.8456 16.1534L17.8006 16.2001ZM18.1606 15.8734C18.1216 15.904 18.0875 15.9448 18.0606 15.9934C18.0379 16.0335 18.0252 16.0821 18.0243 16.1323C18.0234 16.1826 18.0344 16.2319 18.0556 16.2734C18.075 16.3158 18.1027 16.3504 18.1356 16.3734C18.1663 16.395 18.2011 16.4042 18.2356 16.4001C18.2838 16.3916 18.3299 16.3688 18.3706 16.3334C18.4123 16.3016 18.4468 16.2556 18.4706 16.2001C18.4906 16.1467 18.4956 16.0934 18.4856 16.0401L18.4356 16.0667C18.4456 16.1734 18.3956 16.2267 18.3356 16.2667C18.2456 16.3467 18.1606 16.3401 18.1056 16.2334C18.0506 16.1067 18.1056 16.0067 18.1856 15.9401C18.2406 15.8934 18.2956 15.8601 18.3456 15.9067L18.3906 15.8534C18.3616 15.8255 18.3264 15.8115 18.2906 15.8134C18.2456 15.8134 18.2056 15.8401 18.1606 15.8801V15.8734ZM18.6356 15.5601L18.5906 16.1601L18.6556 16.1267L18.6656 15.9401L18.8656 15.8334L18.9756 15.9534L19.0356 15.9201L18.6956 15.5267L18.6356 15.5601ZM18.6856 15.6267L18.8206 15.7734L18.6706 15.8534L18.6856 15.6201V15.6267ZM19.5106 15.2267L19.5356 15.7601L19.7506 15.7467C19.8106 15.7334 19.8706 15.7201 19.9056 15.6534C19.9556 15.5867 19.9656 15.4734 19.9406 15.3801C19.9312 15.3396 19.9136 15.3032 19.8898 15.2751C19.866 15.2469 19.8369 15.2279 19.8056 15.2201C19.7456 15.2067 19.6856 15.2201 19.6256 15.2201L19.5106 15.2334V15.2267ZM19.5706 15.3001L19.7456 15.2934C19.7775 15.2915 19.8091 15.3031 19.8356 15.3267C19.8756 15.3667 19.9006 15.4267 19.8956 15.4934C19.8935 15.5306 19.8827 15.566 19.8648 15.5946C19.8468 15.6233 19.8227 15.6438 19.7956 15.6534C19.7656 15.6667 19.7306 15.6667 19.7006 15.6734L19.5906 15.6801L19.5706 15.3001V15.3001ZM20.0706 15.2001L20.0456 15.7334L20.4356 15.7601V15.6867L20.1056 15.6601L20.1106 15.5001L20.4106 15.5201V15.4467L20.1156 15.4267L20.1206 15.2801L20.4406 15.3067V15.2267L20.0656 15.2001H20.0706ZM21.1106 15.4201L20.9656 15.9201L21.0156 15.9467L21.1356 15.5467V15.5334L21.1456 15.5534L21.2856 16.0867L21.3506 16.1201L21.4956 15.6201L21.4456 15.5934L21.3306 15.9934L21.3256 16.0067L21.3156 15.9867L21.1806 15.4534L21.1106 15.4201ZM21.6506 15.7334L21.4656 16.2001L21.4156 16.1667L21.5956 15.6934L21.6506 15.7334ZM21.9506 15.9667C21.9143 15.9343 21.8735 15.9116 21.8306 15.9001C21.7937 15.8861 21.7543 15.8882 21.7183 15.9062C21.6823 15.9242 21.6516 15.9571 21.6306 16.0001C21.6113 16.0423 21.601 16.0906 21.6006 16.1401C21.6006 16.1867 21.6056 16.2334 21.6306 16.2801C21.6506 16.3267 21.6806 16.3667 21.7306 16.4134C21.7709 16.4499 21.8172 16.4728 21.8656 16.4801C21.9052 16.4816 21.944 16.4651 21.9756 16.4334L21.9356 16.3734C21.8656 16.4401 21.8106 16.3934 21.7556 16.3467C21.6656 16.2667 21.6306 16.1601 21.6856 16.0467C21.7456 15.9267 21.8406 15.9601 21.9206 16.0267C21.9706 16.0734 22.0206 16.1267 22.0106 16.2067L22.0606 16.2334C22.0666 16.188 22.0613 16.1412 22.0456 16.1001C22.0256 16.0467 21.9956 16.0067 21.9506 15.9667V15.9667ZM22.3306 16.3467L21.9156 16.5734L21.9656 16.6334L22.0956 16.5667L22.2606 16.7534L22.2256 16.9334L22.2756 16.9934L22.3806 16.4067L22.3306 16.3467V16.3467ZM22.3156 16.4401L22.2756 16.6667L22.1506 16.5334L22.3156 16.4401ZM22.6356 16.7201L22.3256 17.0534L22.3606 17.1201L22.4856 16.9867L22.6056 17.1867L22.5706 17.4534L22.6156 17.5267L22.6556 17.2467C22.6906 17.2801 22.7406 17.3001 22.7806 17.2734C22.8156 17.2467 22.8506 17.2067 22.8506 17.1534C22.8506 17.0801 22.8156 17.0201 22.7856 16.9667L22.6356 16.7201V16.7201ZM22.6256 16.8267L22.7556 17.0401C22.7756 17.0801 22.8006 17.1334 22.7756 17.1734C22.7606 17.2134 22.7206 17.2134 22.6956 17.1867C22.6456 17.1401 22.6156 17.0734 22.5756 17.0134L22.5256 16.9401L22.6256 16.8267ZM23.1006 17.5667L22.6506 17.5934L22.6856 17.6734L22.8256 17.6667L22.9356 17.9201L22.8556 18.0734L22.8906 18.1534L23.1356 17.6467L23.1006 17.5667V17.5667ZM23.0656 17.6467L22.9656 17.8467L22.8906 17.6601L23.0656 17.6467ZM23.3606 18.2734C23.3356 18.1867 23.2956 18.0934 23.2256 18.0467C23.1878 18.0234 23.1453 18.0173 23.1047 18.0294C23.064 18.0414 23.0275 18.071 23.0006 18.1134C22.9506 18.1801 22.9506 18.2801 22.9656 18.3734C22.9806 18.4734 23.0156 18.5734 23.0656 18.6467L23.0356 18.6601L23.0556 18.7334L23.2456 18.6467L23.1706 18.3734L23.1306 18.3934L23.1806 18.5934L23.1206 18.6267C23.0664 18.5593 23.0296 18.4706 23.0156 18.3734C23.0006 18.3001 23.0006 18.2134 23.0406 18.1601C23.0906 18.0934 23.1706 18.0734 23.2256 18.1267C23.2806 18.1801 23.3106 18.2667 23.3256 18.3534C23.3406 18.4134 23.3356 18.4801 23.3056 18.5267C23.2956 18.5267 23.3056 18.5467 23.3106 18.5534L23.3256 18.5867C23.3426 18.5695 23.3563 18.5473 23.3659 18.5219C23.3754 18.4965 23.3804 18.4685 23.3806 18.4401C23.3816 18.3834 23.3748 18.3269 23.3606 18.2734V18.2734ZM23.4756 18.6934L23.2506 18.7467C23.2161 18.7534 23.1834 18.7718 23.1556 18.8001C23.134 18.8262 23.1198 18.8615 23.1156 18.9001V19.0601C23.1306 19.1267 23.1456 19.1734 23.1656 19.2134C23.1806 19.2534 23.2006 19.2801 23.2256 19.2801C23.2584 19.2914 23.2928 19.2914 23.3256 19.2801L23.5506 19.2267L23.5406 19.1534L23.3206 19.2067C23.2206 19.2334 23.1906 19.1667 23.1706 19.0467C23.1556 18.9267 23.1706 18.8467 23.2656 18.8267L23.4856 18.7667L23.4756 18.6934V18.6934ZM23.5956 19.6001L23.1806 19.3601L23.1856 19.4534L23.3156 19.5201L23.3306 19.8134L23.2106 19.9134L23.2156 20.0001L23.6006 19.6867L23.5956 19.6001V19.6001ZM23.5356 19.6467L23.3856 19.7734L23.3756 19.5601L23.5356 19.6467V19.6467ZM16.7106 20.9801L16.6506 21.0001L16.7156 21.3267L16.7756 21.3067L16.7106 20.9801ZM23.2906 20.9801L23.3506 21.0001L23.2856 21.3267L23.2256 21.3067L23.2906 20.9801ZM17.3306 22.3467L16.8806 22.4134L16.9206 22.4867L17.0606 22.4667L17.1806 22.7067L17.1106 22.8734L17.1506 22.9401L17.3656 22.4201L17.3306 22.3467V22.3467ZM17.2956 22.4334L17.2106 22.6334L17.1206 22.4601L17.2956 22.4334ZM17.5006 22.6734L17.2156 23.0267L17.2556 23.0801L17.4956 22.7801L17.3656 23.2467L17.4156 23.3067L17.7556 23.1734L17.5206 23.4601L17.5606 23.5134L17.8456 23.1601L17.7856 23.0801L17.4356 23.2134L17.5656 22.7667L17.5006 22.6734ZM17.9156 23.2334L17.6756 23.6667L17.9856 23.9734L18.0206 23.9134L17.7556 23.6467L17.8306 23.5134L18.0656 23.7601L18.1006 23.6934L17.8656 23.4601L17.9306 23.3467L18.1806 23.6001L18.2156 23.5334L17.9156 23.2334V23.2334ZM18.3056 23.6201L18.1206 24.0867L18.1706 24.1267L18.2456 23.9401L18.4156 24.0601L18.4556 24.3267L18.5206 24.3734L18.4756 24.0934C18.5206 24.1134 18.5756 24.1001 18.6006 24.0534C18.6256 24.0134 18.6456 23.9667 18.6306 23.9134C18.6206 23.8467 18.5656 23.8067 18.5256 23.7734L18.3056 23.6201V23.6201ZM18.3306 23.7201L18.5106 23.8534C18.5406 23.8801 18.5756 23.9134 18.5706 23.9601C18.5706 24.0067 18.5356 24.0267 18.5056 24.0201C18.4456 24.0067 18.3956 23.9601 18.3456 23.9267L18.2706 23.8734L18.3306 23.7201ZM18.7606 23.9334L18.6106 24.4267L18.6606 24.4601L18.8106 23.9667L18.7606 23.9334ZM19.1206 24.1001C19.079 24.0798 19.0349 24.0708 18.9906 24.0734C18.9521 24.0742 18.9148 24.0915 18.8842 24.1227C18.8536 24.1539 18.8313 24.1974 18.8206 24.2467C18.8115 24.2926 18.8115 24.3409 18.8206 24.3867C18.8206 24.4401 18.8406 24.4801 18.8706 24.5201C18.9051 24.5609 18.9462 24.5905 18.9906 24.6067C19.0371 24.6288 19.0873 24.6334 19.1356 24.6201C19.175 24.61 19.2104 24.5816 19.2356 24.5401L19.1856 24.5001C19.1356 24.5867 19.0706 24.5667 19.0056 24.5334C18.9056 24.4867 18.8506 24.4001 18.8806 24.2667C18.9156 24.1334 19.0156 24.1334 19.1006 24.1667C19.1606 24.1934 19.2156 24.2334 19.2206 24.3067L19.2806 24.3201C19.2779 24.2699 19.2619 24.2227 19.2356 24.1867C19.2033 24.1456 19.1638 24.1158 19.1206 24.1001V24.1001ZM19.5206 24.2201L19.2606 24.7067L19.3256 24.7201L19.4056 24.5667L19.6256 24.6134L19.6706 24.7867L19.7356 24.8001L19.5856 24.2334L19.5206 24.2201ZM19.5456 24.3067L19.6056 24.5334L19.4456 24.5001L19.5456 24.3067ZM20.4606 24.2267C20.4106 24.2334 20.3756 24.2534 20.3406 24.2867C20.3076 24.3124 20.2815 24.3515 20.2662 24.3982C20.251 24.445 20.2472 24.497 20.2556 24.5467C20.2606 24.5934 20.2756 24.6334 20.3056 24.6801C20.3256 24.7134 20.3556 24.7334 20.3956 24.7467C20.4306 24.7601 20.4806 24.7601 20.5356 24.7467C20.5856 24.7334 20.6356 24.7067 20.6656 24.6667C20.6949 24.6321 20.7144 24.585 20.7206 24.5334H20.6606C20.6456 24.6401 20.5856 24.6667 20.5206 24.6801C20.4156 24.7067 20.3356 24.6601 20.3156 24.5267C20.2956 24.3867 20.3806 24.3201 20.4656 24.2934C20.5306 24.2801 20.5906 24.2734 20.6256 24.3401L20.6756 24.3134C20.6569 24.2735 20.6287 24.2431 20.5956 24.2267C20.5514 24.2115 20.5049 24.2115 20.4606 24.2267V24.2267ZM20.7256 24.1601L20.8406 24.6734L21.2156 24.5267L21.1956 24.4534L20.8806 24.5801L20.8456 24.4201L21.1306 24.3067L21.1156 24.2401L20.8306 24.3467L20.8006 24.2134L21.1006 24.0934L21.0856 24.0201L20.7256 24.1601ZM21.1606 23.9801L21.3256 24.4667L21.3756 24.4334L21.2356 24.0334L21.6256 24.2667H21.6506L21.7006 24.2334L21.5306 23.7467L21.4806 23.7801L21.6206 24.1801L21.2206 23.9401L21.1606 23.9801V23.9801ZM21.6006 23.7067L21.6306 23.7734L21.7706 23.6401H21.7806L21.9656 24.0201L22.0156 23.9734L21.8306 23.6001V23.5934L21.9756 23.4601L21.9456 23.4001L21.6006 23.7067ZM22.0006 23.3334L22.2706 23.7334L22.3156 23.6734L22.2106 23.5201L22.3506 23.3467L22.5506 23.3867L22.6106 23.3201L22.3956 23.2801C22.4206 23.2334 22.4306 23.1601 22.4056 23.1067C22.3856 23.0601 22.3556 23.0201 22.3106 23.0267C22.2606 23.0267 22.2106 23.0801 22.1756 23.1201L22.0006 23.3401V23.3334ZM22.0806 23.3401L22.2306 23.1534C22.2606 23.1267 22.3006 23.0934 22.3306 23.1201C22.3656 23.1401 22.3656 23.1934 22.3456 23.2267C22.3156 23.2934 22.2706 23.3401 22.2256 23.4001L22.1706 23.4667L22.0806 23.3334V23.3401ZM22.4656 22.7134L22.6456 23.2667L22.6856 23.2001L22.6356 23.0267L22.7706 22.8001L22.9056 22.8401L22.9506 22.7734L22.5106 22.6401L22.4656 22.7134V22.7134ZM22.5356 22.7334L22.7106 22.7801L22.6106 22.9467L22.5356 22.7334ZM22.6406 22.4134L22.9756 22.7001L23.1506 22.3401L23.1006 22.3001L22.9656 22.5867L22.9606 22.6001H22.9556L22.6706 22.3467L22.6406 22.4134Z" fill="#C8A400"/>
<path d="M20.0001 16.0747L18.7401 18.9814L18.1241 20.4054H21.8761L21.2881 19.0507L20.0001 16.0747V16.0747Z" fill="white"/>
<path opacity="0.6" d="M20.0001 16.0747L19.9041 16.288L20.0001 19.2214L20.0961 16.288L20.0001 16.0747Z" fill="#17C0EB"/>
<path opacity="0.6" fill-rule="evenodd" clip-rule="evenodd" d="M20.0006 16.0695L20.0986 16.2873L20.0026 19.2214H19.9986L19.9026 16.2873L20.0006 16.0695ZM19.9066 16.2887L20.0006 19.1601L20.0946 16.2887L20.0006 16.0798L19.9066 16.2887Z" fill="#17C0EB"/>
<path d="M20.0001 18.8H19.9961L20.0001 18.96L20.0041 18.8H20.0001Z" fill="white"/>
<path d="M20.0005 18.176C19.5744 18.1754 19.1625 18.3799 18.8405 18.752L18.2565 20.1067C18.2356 20.2526 18.2249 20.4008 18.2245 20.5494H18.4245C18.4448 20.0111 18.6196 19.5038 18.9125 19.1324C19.2055 18.761 19.5942 18.5539 19.9985 18.5539C20.4027 18.5539 20.7915 18.761 21.0845 19.1324C21.3774 19.5038 21.5521 20.0111 21.5725 20.5494H21.7725C21.7734 20.401 21.7641 20.2528 21.7445 20.1067L21.1605 18.752C20.8383 18.3803 20.4265 18.1759 20.0005 18.176Z" fill="#FF0000"/>
<path d="M20.0008 18.224C19.5488 18.2227 19.1141 18.4561 18.7888 18.8747L18.3088 19.9893C18.2748 20.1708 18.2574 20.357 18.2568 20.544H18.4288C18.4572 20.0139 18.6352 19.5179 18.9268 19.1558C19.2185 18.7936 19.6023 18.5923 20.0008 18.5923C20.3994 18.5923 20.7831 18.7936 21.0748 19.1558C21.3665 19.5179 21.5445 20.0139 21.5728 20.544H21.7448C21.7445 20.3552 21.727 20.1672 21.6928 19.984L21.2128 18.8747C20.8876 18.4561 20.4529 18.2227 20.0008 18.224V18.224Z" fill="#FF6600"/>
<path d="M20.0006 18.2666C19.759 18.2658 19.5199 18.3333 19.2992 18.4648C19.0786 18.5962 18.8814 18.7886 18.7206 19.0293L18.3726 19.8293C18.3172 20.062 18.2902 20.3051 18.2926 20.5493H18.4246C18.445 20.011 18.6197 19.5037 18.9127 19.1323C19.2056 18.7609 19.5944 18.5538 19.9986 18.5538C20.4029 18.5538 20.7917 18.7609 21.0846 19.1323C21.3776 19.5037 21.5523 20.011 21.5726 20.5493H21.7126C21.7126 20.2986 21.6806 20.0586 21.6286 19.8346L21.2766 19.0293C21.1165 18.789 20.92 18.5969 20.7 18.4654C20.4801 18.3339 20.2417 18.2662 20.0006 18.2666V18.2666Z" fill="#FFFF00"/>
<path d="M20.0007 18.3093C19.7248 18.3091 19.4531 18.3995 19.2096 18.5725C18.9662 18.7455 18.7584 18.9958 18.6047 19.3013L18.4927 19.5626C18.3793 19.8696 18.3205 20.2072 18.3207 20.5493H18.4287C18.4571 20.0192 18.635 19.5232 18.9267 19.1611C19.2184 18.7989 19.6021 18.5976 20.0007 18.5976C20.3992 18.5976 20.783 18.7989 21.0747 19.1611C21.3664 19.5232 21.5443 20.0192 21.5727 20.5493H21.6807C21.6809 20.2072 21.622 19.8696 21.5087 19.5626L21.3967 19.296C21.243 18.9905 21.0352 18.7402 20.7917 18.5672C20.5483 18.3942 20.2766 18.3038 20.0007 18.304V18.3093Z" fill="#00FF00"/>
<path d="M20.0002 18.3467C19.7834 18.3467 19.5688 18.4037 19.3686 18.5144C19.1684 18.6252 18.9865 18.7875 18.8334 18.9921C18.6804 19.1968 18.5591 19.4396 18.4765 19.7068C18.3939 19.974 18.3517 20.2603 18.3522 20.5493H18.4282C18.4566 20.0193 18.6345 19.5232 18.9262 19.1611C19.2179 18.799 19.6016 18.5976 20.0002 18.5976C20.3987 18.5976 20.7825 18.799 21.0742 19.1611C21.3659 19.5232 21.5438 20.0193 21.5722 20.5493H21.6482C21.6487 20.2603 21.6065 19.974 21.5239 19.7068C21.4413 19.4396 21.32 19.1968 21.1669 18.9921C21.0138 18.7875 20.832 18.6252 20.6318 18.5144C20.4316 18.4037 20.2169 18.3467 20.0002 18.3467V18.3467Z" fill="#00CCFF"/>
<path d="M20.0005 18.3893C19.5719 18.3893 19.1609 18.6163 18.8578 19.0204C18.5548 19.4244 18.3845 19.9725 18.3845 20.544H18.4405C18.4405 19.9923 18.6049 19.4632 18.8974 19.0732C19.19 18.6831 19.5868 18.464 20.0005 18.464C20.4143 18.464 20.8111 18.6831 21.1036 19.0732C21.3962 19.4632 21.5605 19.9923 21.5605 20.544H21.6165C21.6144 19.9743 21.4432 19.429 21.1404 19.0273C20.8376 18.6255 20.4277 18.3999 20.0005 18.3999V18.3893Z" fill="#0000FF"/>
<path d="M20.0003 18.4373C19.7899 18.4373 19.5816 18.4931 19.3876 18.6016C19.1935 18.7101 19.0176 18.869 18.8702 19.0691C18.7227 19.2692 18.6066 19.5064 18.5287 19.767C18.4508 20.0275 18.4125 20.3062 18.4163 20.5867H18.4483V20.544C18.4525 19.9952 18.6201 19.4711 18.9141 19.087C19.2082 18.7029 19.6046 18.4903 20.0163 18.496C20.4279 18.5017 20.821 18.7251 21.109 19.1172C21.3971 19.5093 21.5565 20.0379 21.5523 20.5867H21.5843V20.544C21.5843 20.2667 21.5433 19.992 21.4637 19.7358C21.3841 19.4795 21.2674 19.2467 21.1203 19.0506C20.9732 18.8545 20.7986 18.6989 20.6064 18.5928C20.4143 18.4866 20.2083 18.432 20.0003 18.432V18.4373Z" fill="#800080"/>
<path d="M20.016 19.3654C19.988 19.3654 19.968 19.3387 19.944 19.3334C19.9324 19.3471 19.9236 19.3647 19.9187 19.3843C19.9138 19.404 19.9129 19.4251 19.916 19.4454C19.928 19.4507 19.928 19.4667 19.952 19.4934C19.976 19.52 19.972 19.5307 19.968 19.6C19.968 19.6214 19.972 19.68 19.992 19.6854C20.012 19.6907 20.032 19.6694 20.036 19.6214C20.04 19.584 20.052 19.5574 20.064 19.536C20.076 19.4347 20.056 19.3974 20.016 19.3654Z" fill="#510000"/>
<path d="M19.8882 19.12C19.8642 19.12 19.8242 19.1734 19.8082 19.1467C19.8002 19.1307 19.7962 19.0987 19.8082 19.072C19.8262 19.019 19.8573 18.9757 19.8962 18.9494C19.9882 18.8747 20.0522 18.896 20.0962 19.0027C20.1402 19.0987 20.1842 19.2054 20.1882 19.2907C20.1882 19.3174 20.2002 19.3654 20.1802 19.392C20.1282 19.4667 19.9962 19.312 19.9202 19.3387C19.8962 19.344 19.8642 19.3707 19.8402 19.3494C19.8242 19.3334 19.8402 19.296 19.8522 19.28C19.8762 19.2534 19.9122 19.152 19.9082 19.1094C19.9082 19.088 19.9082 19.12 19.8882 19.12V19.12Z" fill="#FF0000"/>
<path d="M19.8797 19.0719C19.8317 19.0933 19.8397 19.1253 19.8157 19.1519C19.8237 19.1573 19.8477 19.1679 19.8717 19.1359C19.8797 19.1253 19.8917 19.1199 19.8997 19.1199L19.8717 19.1573C19.848 19.1833 19.8289 19.2161 19.8157 19.2533C19.8037 19.2959 19.7997 19.3439 19.8037 19.3493C19.8037 19.3493 19.8197 19.3919 19.8637 19.4133C19.9437 19.4559 19.9597 19.5466 20.0437 19.5466C20.1077 19.5466 20.0997 19.4879 20.1517 19.4986C20.1917 19.5093 20.2197 19.4613 20.1757 19.4346C20.1044 19.4159 20.0311 19.4159 19.9597 19.4346C19.9437 19.2213 19.9597 19.2959 19.9557 19.1999C19.9517 19.1093 19.9277 19.1039 19.9557 19.0239C19.9357 19.0773 19.9077 19.0666 19.8757 19.0666L19.8797 19.0719Z" fill="url(#paint0_linear_90_23712)"/>
<path d="M20.0401 18.9226L20.0361 18.9546L20.0481 19.0079L20.0561 19.0613C20.0561 19.0773 20.0721 19.0826 20.0841 19.0933C20.1001 19.1093 20.0841 19.1466 20.0961 19.1519C20.1041 19.1519 20.1161 19.0986 20.1161 19.0879V19.0506C20.1099 19.0343 20.1032 19.0183 20.0961 19.0026C20.0937 18.9971 20.091 18.9918 20.0881 18.9866C20.0793 18.9686 20.0685 18.9525 20.0561 18.9386C20.0523 18.9348 20.0483 18.9313 20.0441 18.9279L20.0361 18.9226H20.0401Z" fill="#FF2A2A"/>
<path d="M20.0521 19.328L19.9721 19.2907C19.9201 19.2693 19.8681 19.2267 19.8321 19.248C19.8201 19.2533 19.8201 19.2693 19.8161 19.296C19.8161 19.3227 19.7961 19.3653 19.8161 19.3493C19.8401 19.328 19.9121 19.392 19.9361 19.408C19.9481 19.4187 19.9761 19.44 19.9801 19.4613C19.9881 19.4933 19.9801 19.5573 19.9801 19.5893C19.9801 19.616 19.9881 19.6853 20.0081 19.696C20.0321 19.7013 20.0521 19.6747 20.0601 19.6267C20.0721 19.5787 20.0761 19.552 20.0921 19.5253C20.1081 19.4987 20.1241 19.4827 20.1441 19.4773C20.1681 19.4773 20.2001 19.504 20.2001 19.4667C20.2001 19.4453 20.1841 19.424 20.1921 19.392C20.1961 19.3653 20.1761 19.3707 20.1561 19.36L20.0481 19.328H20.0521Z" fill="url(#paint1_linear_90_23712)"/>
<path d="M19.9358 19.408C19.9198 19.3973 19.8438 19.328 19.8158 19.3546C19.8038 19.3546 19.7998 19.3546 19.7998 19.3386L19.8078 19.2906C19.8078 19.2746 19.8158 19.248 19.8278 19.2373C19.8558 19.2053 19.9198 19.264 19.9518 19.28L19.9358 19.408V19.408Z" fill="#910000"/>
<path d="M20.0721 19.5412C20.1081 19.4559 20.1321 19.4665 20.1761 19.4665C20.1921 19.4665 20.1961 19.4505 20.1921 19.4292C20.1801 19.4612 20.1241 19.4292 20.0921 19.4452C20.0321 19.4825 20.0441 19.6425 20.0121 19.6585C20.0441 19.6959 20.0561 19.5679 20.0721 19.5412V19.5412Z" fill="#FF3A3A"/>
<path d="M18.1244 20.4053L17.7244 21.3279H22.2804L21.8804 20.4106H18.1284L18.1244 20.4053Z" fill="white"/>
<path d="M17.9879 21.1413C17.925 21.1411 17.8622 21.1465 17.7999 21.1573L17.7799 21.2053C17.8759 21.1893 17.9679 21.1679 18.0679 21.1679C18.1959 21.1679 18.3159 21.2106 18.4559 21.2106H18.6399C18.7799 21.2106 18.8959 21.1679 19.0279 21.1679C19.1599 21.1679 19.2799 21.2106 19.4199 21.2106H19.6039C19.7439 21.2106 19.8599 21.1679 19.9919 21.1679C20.1239 21.1679 20.2439 21.2106 20.3839 21.2106H20.5639C20.7039 21.2106 20.8239 21.1679 20.9559 21.1679C21.0879 21.1679 21.2079 21.2106 21.3479 21.2106H21.5279C21.6679 21.2106 21.7879 21.1679 21.9199 21.1679C22.0239 21.1679 22.1199 21.1946 22.2199 21.2053L22.1999 21.1519C22.1414 21.1439 22.0827 21.1403 22.0239 21.1413H21.8439C21.7039 21.1413 21.5839 21.1786 21.4519 21.1839C21.3199 21.1839 21.1999 21.1413 21.0599 21.1413H20.8799C20.7399 21.1413 20.6199 21.1786 20.4879 21.1839C20.3559 21.1839 20.2359 21.1413 20.0959 21.1413H19.9199C19.7799 21.1413 19.6599 21.1786 19.5279 21.1839C19.3959 21.1839 19.2759 21.1413 19.1359 21.1413H18.9559C18.8159 21.1413 18.6959 21.1786 18.5639 21.1839C18.4319 21.1839 18.3159 21.1413 18.1759 21.1413H17.9919H17.9879Z" fill="url(#paint2_linear_90_23712)"/>
<path d="M18.1277 20.4V20.4107H21.8757L21.8717 20.4H18.1277V20.4ZM18.1197 20.416L18.1157 20.432H21.8797L21.8757 20.416H18.1157H18.1197ZM18.1117 20.4374L18.1037 20.4534H21.8957L21.8877 20.4374H18.1117V20.4374ZM18.0997 20.464L18.0877 20.4907H21.9117L21.8997 20.464H18.0997ZM18.0837 20.5014L18.0717 20.528H21.9277L21.9157 20.5014H18.0837V20.5014ZM18.0677 20.5387L18.0597 20.56H21.9397L21.9317 20.5387H18.0677V20.5387ZM18.0517 20.576L18.0437 20.5974H21.9597L21.9477 20.576H18.0517ZM18.0357 20.6134L18.0237 20.6454H21.9757L21.9637 20.6134H18.0397H18.0357Z" fill="url(#paint3_linear_90_23712)"/>
<path d="M18.2957 20.656C18.4317 20.6933 18.4437 20.656 18.4437 20.656H18.2957ZM21.5557 20.656C21.5557 20.656 21.5677 20.6933 21.7037 20.656H21.5557Z" fill="url(#paint4_linear_90_23712)"/>
<path d="M21.2239 19.84C21.1559 19.84 21.1359 19.888 21.1359 19.888C21.0279 20.4533 20.6639 21.024 20.2319 21.024H19.9119V21.6H22.3679L22.1199 21.0133C21.7319 20.9386 21.4159 20.4106 21.3159 19.888C21.3159 19.888 21.2919 19.84 21.2239 19.84V19.84Z" fill="url(#paint5_linear_90_23712)"/>
<path d="M21.2242 19.8667C21.1922 19.8667 21.1762 19.8721 21.1642 19.8827L21.1522 19.8987C21.0922 20.194 20.9765 20.4639 20.8162 20.6827C20.6562 20.9014 20.4562 21.0507 20.2322 21.0507H19.9242V21.5787H22.3602L22.1322 21.0454C21.9442 21.0081 21.7722 20.8747 21.6362 20.6827C21.4758 20.4639 21.3602 20.194 21.3002 19.8987L21.2882 19.8827C21.2685 19.8691 21.2462 19.8635 21.2242 19.8667V19.8667Z" fill="#97C924"/>
<path d="M21.2242 19.8667H21.2402V20.4427C21.2364 20.5638 21.2088 20.6815 21.1602 20.784C21.1402 20.8694 21.1202 20.8374 21.0682 20.9387C21.0007 20.9697 20.931 20.9912 20.8602 21.0027C20.7602 21.024 20.5402 21.0454 20.4242 21.008C20.5731 20.9473 20.7079 20.8372 20.8162 20.688C20.846 20.6456 20.874 20.6011 20.9002 20.5547C20.9448 20.4808 20.9849 20.4024 21.0202 20.32L21.0602 20.2134C21.0793 20.1629 21.0967 20.1113 21.1122 20.0587C21.1276 20.0063 21.141 19.9529 21.1522 19.8987L21.1642 19.8827L21.1882 19.872L21.2282 19.8667H21.2242Z" fill="#EDE71F"/>
<path d="M21.1998 19.9413C21.1798 20.2613 21.1078 20.6453 20.9318 20.8906C20.8678 20.96 20.7838 21.0293 20.7078 21.0133C20.9758 20.72 21.1398 20.2666 21.1958 19.9413H21.1998Z" fill="#C6CB24"/>
<path d="M20.9801 20.496C20.9401 20.64 20.7881 20.8533 20.6281 21.0293H20.5121C20.6121 21.0186 20.8441 20.7626 20.9801 20.496V20.496Z" fill="#9ECB34"/>
<path d="M20.0887 19.8933C20.2007 20.4533 20.5607 21.024 20.9927 21.024H21.3167V21.6H18.6847V21.024H19.0047C19.4367 21.024 19.8007 20.4533 19.9087 19.888C19.9087 19.888 19.9327 19.8453 20.0007 19.8453C20.0687 19.8453 20.0887 19.888 20.0887 19.888V19.8933Z" fill="url(#paint6_linear_90_23712)"/>
<path d="M20.0002 19.8666C20.0322 19.8666 20.0482 19.8773 20.0602 19.8826L20.0722 19.8986C20.1322 20.1939 20.2478 20.4638 20.4082 20.6826C20.5682 20.9013 20.7682 21.0506 20.9922 21.0506H21.3002V21.5786H18.7002V21.0453H19.0082C19.2282 21.0453 19.4322 20.9013 19.5922 20.6826C19.7511 20.4632 19.8654 20.1934 19.9242 19.8986L19.9362 19.8826C19.956 19.8695 19.9782 19.864 20.0002 19.8666V19.8666Z" fill="#97C924"/>
<path d="M19.9722 19.8668C19.9682 19.8665 19.9642 19.8665 19.9602 19.8668L19.9362 19.8828L19.9242 19.8988C19.9131 19.953 19.8997 20.0064 19.8842 20.0588C19.8701 20.1131 19.8541 20.1665 19.8362 20.2188C19.8237 20.2531 19.8103 20.2869 19.7962 20.3201C19.7609 20.4024 19.7208 20.4809 19.6762 20.5548C19.6499 20.5993 19.6218 20.6421 19.5922 20.6828C19.4844 20.8339 19.3495 20.9458 19.2002 21.0081C19.3122 21.0454 19.3602 21.0081 19.4602 20.9868C19.5402 20.9708 19.6282 20.9548 19.7002 20.9228C19.7602 20.8161 19.7402 20.8534 19.7602 20.7681C19.8082 20.6508 19.8802 20.5441 19.8962 20.4108C19.9602 20.2508 19.9722 19.9521 19.9722 19.8668V19.8668Z" fill="#EDE71F"/>
<path d="M19.9716 19.9414C19.9556 20.2614 19.8796 20.6454 19.7036 20.8907C19.6396 20.9601 19.5596 21.0294 19.4796 21.0134C19.7516 20.7201 19.9156 20.2667 19.9716 19.9414Z" fill="#C6CB24"/>
<path d="M19.7521 20.4961C19.6651 20.7058 19.545 20.8878 19.4001 21.0294H19.2881C19.3881 21.0188 19.6161 20.7628 19.7521 20.4961Z" fill="#9ECB34"/>
<path d="M20.0401 19.8721L20.0601 19.8827L20.0761 19.8987C20.0874 19.9529 20.1008 20.0063 20.1161 20.0587C20.1301 20.1131 20.1462 20.1665 20.1641 20.2187L20.2041 20.3201C20.2394 20.4024 20.2795 20.4809 20.3241 20.5547C20.3504 20.5993 20.3784 20.642 20.4081 20.6827C20.5152 20.8398 20.6499 20.959 20.8001 21.0294C20.5081 21.0294 20.3841 20.9974 20.2801 20.8161C20.2045 20.7093 20.1471 20.5819 20.1121 20.4427C20.0921 20.3361 20.0321 20.0961 20.0361 19.8721H20.0401Z" fill="#EDE71F"/>
<path d="M20.0599 19.9414C20.0759 20.2614 20.1479 20.5814 20.3239 20.8267C20.3879 20.9014 20.4679 20.9654 20.5479 20.9494C20.2966 20.7064 20.1226 20.3468 20.0599 19.9414V19.9414Z" fill="#C6CB24"/>
<path d="M19.3925 19.84C19.3205 19.84 19.3005 19.888 19.3005 19.888C19.2005 20.4106 18.8285 21.0773 18.4405 21.1573L18.2485 21.6H20.2085V20.9973C19.8565 20.8693 19.5725 20.3733 19.4805 19.888C19.4805 19.888 19.4605 19.8453 19.3885 19.8453L19.3925 19.84Z" fill="url(#paint7_linear_90_23712)"/>
<path d="M19.3923 19.8667C19.3603 19.8667 19.3403 19.8774 19.3283 19.8827L19.3163 19.8987C19.249 20.1913 19.1389 20.4632 18.9923 20.6987C18.8563 20.928 18.6043 21.1574 18.4323 21.1787L18.2603 21.5787H20.1803V21.008C20.0358 20.9445 19.9053 20.8346 19.8003 20.688C19.6393 20.4677 19.5236 20.1959 19.4643 19.8987L19.4523 19.8827C19.4337 19.8703 19.413 19.8648 19.3923 19.8667V19.8667Z" fill="#97C924"/>
<path d="M19.3359 19.9413C19.3119 20.4213 19.1119 21.0346 18.8839 21.136C18.8079 21.1733 18.6799 21.184 18.6359 21.1893C18.8122 21.0586 18.966 20.88 19.0873 20.665C19.2086 20.45 19.2946 20.2035 19.3399 19.9413H19.3359Z" fill="#93BC30"/>
<path d="M19.3921 19.8666H19.3721V20.4426C19.3721 20.5653 19.4081 20.6666 19.4521 20.7839L19.4601 20.8106C19.4801 20.8693 19.4921 20.8906 19.5521 20.9546C19.7238 21.1181 19.9339 21.1938 20.1441 21.1679C20.1001 21.1199 20.0521 21.0773 20.0081 21.0399L20.1881 21.0133C20.0398 20.9487 19.9063 20.8349 19.8001 20.6826C19.7807 20.6568 19.7621 20.6301 19.7441 20.6026L19.7201 20.5599C19.6727 20.4846 19.6299 20.4043 19.5921 20.3199C19.5779 20.285 19.5645 20.2494 19.5521 20.2133C19.5275 20.1458 19.5062 20.0763 19.4881 20.0053C19.4792 19.9701 19.4712 19.9345 19.4641 19.8986L19.4521 19.8826C19.4445 19.8775 19.4364 19.8739 19.4281 19.8719C19.415 19.8677 19.4015 19.8659 19.3881 19.8666H19.3921Z" fill="#EDE71F"/>
<path d="M19.416 19.9413C19.436 20.2613 19.508 20.6453 19.684 20.8906C19.748 20.96 19.828 21.0293 19.908 21.0133C19.664 20.7333 19.492 20.3584 19.416 19.9413V19.9413Z" fill="#CCD11E"/>
<path d="M19.5844 20.3894C19.7139 20.7272 19.9176 21.0045 20.1684 21.184H20.2684C20.0924 21.056 19.8084 20.8747 19.5884 20.384L19.5844 20.3894Z" fill="#9ECB34"/>
<path d="M22.2605 21.3173C22.2365 21.328 22.0845 21.3066 22.0045 21.3173L21.9525 21.3333H21.8205C21.6765 21.3333 21.5525 21.3866 21.4165 21.3866C21.2805 21.3866 21.1565 21.3333 21.0165 21.3333H20.8805C20.7365 21.3333 20.6125 21.3866 20.4765 21.3866C20.3405 21.3866 20.2165 21.3333 20.0765 21.3333H19.9405C19.7965 21.3333 19.6725 21.3866 19.5405 21.3866C19.4005 21.3866 19.2805 21.3333 19.1365 21.3333H19.0005C18.8565 21.3333 18.7365 21.3866 18.6005 21.3866C18.4605 21.3866 18.3405 21.3333 18.1965 21.3333H18.0605C17.9485 21.3333 17.8125 21.3653 17.7045 21.376L17.4525 21.9573H22.5485L22.2605 21.3173Z" fill="white"/>
<path d="M21.9204 21.2319H21.8964C21.7684 21.2373 21.6724 21.2906 21.4484 21.2906C21.2244 21.2906 21.2004 21.2373 20.9444 21.2479C20.7044 21.2479 20.6084 21.3119 20.4764 21.3119C20.3484 21.3119 20.1404 21.2746 19.9764 21.2959C19.8164 21.3173 19.6244 21.3653 19.4964 21.3653C19.3404 21.3653 19.1844 21.3279 19.0244 21.3493C18.8604 21.3706 18.7844 21.4293 18.5804 21.4293C18.4044 21.4293 18.2204 21.3919 18.0684 21.3919C17.9324 21.3919 17.7804 21.4453 17.6684 21.4666L17.6324 21.5466C17.7244 21.5306 17.9764 21.4773 18.0644 21.4773C18.1604 21.4773 18.4924 21.5039 18.6764 21.4933C18.8644 21.4879 18.8844 21.4293 19.1044 21.4293C19.2564 21.4293 19.3684 21.4506 19.5244 21.4506C19.6244 21.4506 19.7124 21.3866 19.8604 21.3866L19.9724 21.3813C20.0964 21.3546 20.3084 21.3813 20.4524 21.3919C20.5844 21.4026 20.6724 21.3599 20.8124 21.3546L20.9884 21.3493C21.1284 21.3386 21.2444 21.3813 21.3764 21.3813C21.5044 21.3706 21.6324 21.3279 21.7684 21.3279L21.9484 21.3173C22.0404 21.3173 22.1844 21.3173 22.2804 21.3439L22.2484 21.2693C22.1524 21.2639 22.0364 21.2319 21.9204 21.2319V21.2319Z" fill="url(#paint8_linear_90_23712)"/>
<path d="M18.0122 21.8559C17.8762 21.8559 17.7562 21.8986 17.6282 21.9039C17.58 21.9022 17.532 21.8969 17.4842 21.8879L17.4642 21.9306H17.7042C17.8442 21.9306 17.9602 21.8879 18.0882 21.8826C18.2202 21.8879 18.3362 21.9359 18.4762 21.9359H18.6562C18.7922 21.9359 18.9122 21.8879 19.0402 21.8826C19.1722 21.8879 19.2922 21.9359 19.4282 21.9359H19.6082C19.7482 21.9359 19.8642 21.8879 19.9962 21.8826C20.1242 21.8879 20.2402 21.9359 20.3802 21.9359H20.5602C20.6962 21.9359 20.8162 21.8879 20.9482 21.8826C21.0762 21.8879 21.1962 21.9359 21.3322 21.9359H21.5122C21.6522 21.9359 21.7682 21.8879 21.8962 21.8826C22.0282 21.8879 22.1442 21.9359 22.2842 21.9359H22.4642L22.5362 21.9306L22.5162 21.8879C22.4762 21.8933 22.4322 21.9039 22.3882 21.9039C22.2562 21.9039 22.1402 21.8506 22.0002 21.8506H21.8202C21.6842 21.8506 21.5642 21.9039 21.4362 21.9039C21.3042 21.8986 21.1882 21.8506 21.0482 21.8506H20.8682C20.7322 21.8506 20.6122 21.9039 20.4842 21.9039C20.3522 21.8986 20.2362 21.8506 20.0962 21.8506H19.9162C19.7762 21.8506 19.6602 21.9039 19.5322 21.9039C19.4002 21.8986 19.2842 21.8506 19.1442 21.8506H18.9642C18.8282 21.8506 18.7082 21.9039 18.5802 21.9039C18.4482 21.8986 18.3322 21.8506 18.1922 21.8506H18.0122V21.8559Z" fill="url(#paint9_linear_90_23712)"/>
<path d="M17.7565 21.3173L17.6565 21.5413C17.7725 21.5147 17.9405 21.4507 18.0845 21.4507C18.2285 21.4507 18.4045 21.4987 18.5805 21.504C18.7805 21.504 18.8605 21.44 19.0205 21.4187C19.1845 21.3973 19.3405 21.4453 19.5005 21.4507C19.6245 21.4507 19.8165 21.392 19.9805 21.3707C20.1405 21.344 20.2885 21.3867 20.4805 21.3867C20.6765 21.392 20.7085 21.3227 20.9445 21.3173C21.2005 21.312 21.2245 21.3653 21.4485 21.3653C21.6165 21.376 21.7645 21.3173 21.9165 21.3067C22.0685 21.2907 22.1365 21.3067 22.2485 21.3067L22.1725 21.136L18.1205 21.2587L17.7565 21.3173Z" fill="#97C924"/>
<path d="M22.0004 21.312L22.1604 21.328C22.199 21.3342 22.2376 21.3395 22.2764 21.344L22.2604 21.3173C22.2364 21.328 22.0844 21.3067 22.0044 21.3173L22.0004 21.312Z" fill="white"/>
<path d="M20.0005 15.9934L18.7155 18.9601L17.4005 22.0001H22.6005L21.3155 19.0267L20.0005 16.0001V15.9934ZM20.0005 16.1534L21.2605 19.0667L22.4955 21.9201H17.5055L18.7655 19.0001L20.0005 16.1534Z" fill="#C8A400"/>
</g>
<rect x="2" y="2" width="36" height="36" rx="18" stroke="white" stroke-width="4"/>
<defs>
<linearGradient id="paint0_linear_90_23712" x1="19.9477" y1="19.4186" x2="20.0731" y2="19.1365" gradientUnits="userSpaceOnUse">
<stop stop-color="#510000"/>
<stop offset="0.3" stop-color="#8A0000"/>
<stop offset="1" stop-color="#AA0000"/>
</linearGradient>
<linearGradient id="paint1_linear_90_23712" x1="20.0561" y1="19.5413" x2="20.1535" y2="19.3467" gradientUnits="userSpaceOnUse">
<stop stop-color="#FF2A2A"/>
<stop offset="1" stop-color="#FF0000"/>
</linearGradient>
<linearGradient id="paint2_linear_90_23712" x1="17.7799" y1="20.9333" x2="25.3759" y2="20.9333" gradientUnits="userSpaceOnUse">
<stop stop-color="#002255"/>
<stop offset="0.5" stop-color="#0044AA"/>
<stop offset="1" stop-color="#002255"/>
</linearGradient>
<linearGradient id="paint3_linear_90_23712" x1="17.7797" y1="20.9334" x2="25.3757" y2="20.9334" gradientUnits="userSpaceOnUse">
<stop stop-color="#002255"/>
<stop offset="0.5" stop-color="#0044AA"/>
<stop offset="1" stop-color="#002255"/>
</linearGradient>
<linearGradient id="paint4_linear_90_23712" x1="17.7797" y1="20.9333" x2="25.3757" y2="20.9333" gradientUnits="userSpaceOnUse">
<stop stop-color="#002255"/>
<stop offset="0.5" stop-color="#0044AA"/>
<stop offset="1" stop-color="#002255"/>
</linearGradient>
<linearGradient id="paint5_linear_90_23712" x1="19.3919" y1="20.624" x2="19.3919" y2="20.9386" gradientUnits="userSpaceOnUse">
<stop stop-color="#F5F549"/>
<stop offset="1" stop-color="#97C924"/>
</linearGradient>
<linearGradient id="paint6_linear_90_23712" x1="19.3927" y1="20.624" x2="19.3927" y2="20.9387" gradientUnits="userSpaceOnUse">
<stop stop-color="#F5F549"/>
<stop offset="1" stop-color="#97C924"/>
</linearGradient>
<linearGradient id="paint7_linear_90_23712" x1="19.3925" y1="20.624" x2="19.3925" y2="20.9386" gradientUnits="userSpaceOnUse">
<stop stop-color="#F5F549"/>
<stop offset="1" stop-color="#97C924"/>
</linearGradient>
<linearGradient id="paint8_linear_90_23712" x1="17.6329" y1="21.2332" x2="22.2862" y2="21.2332" gradientUnits="userSpaceOnUse">
<stop stop-color="#002255"/>
<stop offset="0.5" stop-color="#0044AA"/>
<stop offset="1" stop-color="#002255"/>
</linearGradient>
<linearGradient id="paint9_linear_90_23712" x1="17.4819" y1="21.8527" x2="22.5184" y2="21.8527" gradientUnits="userSpaceOnUse">
<stop stop-color="#002255"/>
<stop offset="0.5" stop-color="#0044AA"/>
<stop offset="1" stop-color="#002255"/>
</linearGradient>
<clipPath id="clip0_90_23712">
<rect x="4" y="4" width="32" height="32" rx="16" fill="white"/>
</clipPath>
</defs>
</svg>
