<svg width="40" height="40" viewBox="0 0 40 40" fill="none" xmlns="http://www.w3.org/2000/svg">
<g clip-path="url(#clip0_90_23695)">
<path d="M4 4H36V36H4V4Z" fill="white"/>
<path fill-rule="evenodd" clip-rule="evenodd" d="M4.30444 35.5937H22.0607L10.4404 19.8812L22.5013 19.9L4.30913 4.40625V35.5937H4.30444Z" fill="#CE0000"/>
<path fill-rule="evenodd" clip-rule="evenodd" d="M3.98572 3.61908L23.6106 20.333L11.2145 20.3137L22.8339 36.025H4.30447V35.5938H3.98572V3.61908ZM4.63259 35.1625H21.2875L9.66634 19.4488L21.3921 19.467L4.63259 5.19344V35.1625Z" fill="#000063"/>
<path fill-rule="evenodd" clip-rule="evenodd" d="M12.4703 27.2375L11.2047 27.8L12.1984 29.0375L10.8625 28.925L11.4109 30.5625L10.2156 29.7938L10.2391 31.5813L9.35781 30.275L8.85625 31.9375L8.425 30.2938L7.47344 31.5813L7.55781 29.85L6.29688 30.5625L6.8875 29L5.51406 29.0375L6.52188 27.8937L5.24219 27.2375L6.50781 26.675L5.50938 25.4375L6.84063 25.55L6.29688 23.9125L7.49688 24.6813L7.47344 22.8937L8.35469 24.2L8.85625 22.5375L9.28281 24.1813L10.2391 22.8937L10.15 24.625L11.4156 23.9125L10.8203 25.475L12.1984 25.4375L11.1906 26.5812L12.4703 27.2375ZM10.9516 15.6938L10.4219 16.2188L10.6844 16.5063C11.3004 15.9325 11.7958 15.1579 12.1234 14.2563C12.2078 15.5875 11.2938 18.5688 8.90313 18.6C8.46618 18.6074 8.03245 18.4994 7.62698 18.2822C7.2215 18.0649 6.85231 17.7428 6.54071 17.3343C6.22911 16.9258 5.98128 16.439 5.8115 15.9022C5.64173 15.3653 5.55338 14.7889 5.55156 14.2063C6.02031 15.3438 6.31094 15.8938 7.05156 16.4875L7.27188 16.2125L6.775 15.6563L7.41719 15.4312L7.07031 14.6563L7.74531 14.7188L7.66094 13.8188L8.25156 14.2813L8.43906 13.4375L8.86094 14.1125L9.25938 13.4688L9.475 14.3438L10.0281 13.8313L9.95781 14.725L10.6234 14.6187L10.3094 15.4438L10.9516 15.6938V15.6938Z" fill="white"/>
</g>
<rect x="2" y="2" width="36" height="36" rx="18" stroke="white" stroke-width="4"/>
<defs>
<clipPath id="clip0_90_23695">
<rect x="4" y="4" width="32" height="32" rx="16" fill="white"/>
</clipPath>
</defs>
</svg>
