<svg width="40" height="40" viewBox="0 0 40 40" fill="none" xmlns="http://www.w3.org/2000/svg">
<g clip-path="url(#clip0_90_23095)">
<path d="M4.00024 4H36.0002V36H4.00024V4Z" fill="white"/>
<path d="M7.99988 4H31.9999V36H7.99988V4Z" fill="white"/>
<path fill-rule="evenodd" clip-rule="evenodd" d="M17.8646 26.72C17.8646 26.72 18.4046 26.1333 18.9346 26.1333C19.4646 26.1333 19.6046 26.62 19.9746 26.66C20.3396 26.7 20.6446 26.1733 21.0996 26.1533C21.5546 26.1333 22.1246 26.58 22.1246 26.58L20.1346 27.38L17.8646 26.7133V26.72ZM16.7196 25.8533L23.4896 25.9C23.4896 25.9 22.9046 25.0533 22.2146 25.0333C21.5246 25.02 21.7146 25.4333 21.1896 25.4867C20.6596 25.5467 20.5296 25.06 20.0446 25.0733C19.5646 25.0933 19.2846 25.4867 18.9196 25.5067C18.5496 25.5267 18.0846 25.02 17.8046 25.04C17.5246 25.06 16.5296 25.62 16.5296 25.62L16.7196 25.86V25.8533ZM15.8546 24.7867L24.2046 24.82C24.3396 24.5667 23.7946 23.96 23.2996 23.9067C22.8896 23.9267 22.5996 24.4733 22.2596 24.4933C21.9196 24.5133 21.5396 23.9267 21.1596 23.9467C20.7796 23.9667 20.3846 24.4933 20.0046 24.4933C19.6196 24.4933 19.3446 23.9267 18.8596 23.9267C18.3746 23.9267 18.1596 24.5467 17.7896 24.5133C17.4246 24.4733 17.0996 23.8867 16.7496 23.8867C16.3996 23.8867 15.8146 24.5867 15.6996 24.5533C15.5796 24.5067 15.8446 24.84 15.8546 24.78V24.7867Z" fill="#083D9C"/>
<path fill-rule="evenodd" clip-rule="evenodd" d="M16.4334 23.935C16.5413 23.8686 16.6514 23.82 16.7499 23.82C16.8479 23.82 16.9416 23.861 17.0307 23.9191C17.1195 23.977 17.2071 24.0541 17.292 24.1295L17.2968 24.1338C17.4691 24.2869 17.6284 24.4286 17.7936 24.4469C17.952 24.4609 18.0795 24.3411 18.2374 24.1926C18.2426 24.1878 18.2478 24.1829 18.253 24.178C18.4136 24.0272 18.6002 23.86 18.8599 23.86C19.1175 23.86 19.3181 24.0111 19.4956 24.1528C19.5045 24.1599 19.5134 24.1671 19.5222 24.1741C19.6923 24.3102 19.8378 24.4267 20.0049 24.4267C20.1804 24.4267 20.3628 24.3045 20.5594 24.1683C20.5649 24.1645 20.5704 24.1607 20.5759 24.1569C20.7617 24.0281 20.9603 23.8905 21.1579 23.8801C21.365 23.8692 21.568 24.023 21.7498 24.1622C21.7543 24.1657 21.7588 24.1691 21.7633 24.1725C21.8517 24.2403 21.9359 24.3048 22.018 24.3524C22.1042 24.4024 22.1836 24.4311 22.2577 24.4267C22.333 24.4223 22.4077 24.3886 22.4858 24.3364C22.5566 24.2892 22.6272 24.2289 22.702 24.1649C22.7102 24.1579 22.7184 24.1509 22.7267 24.1438C22.8918 24.0032 23.0776 23.8508 23.2981 23.8401L23.301 23.8399L23.3039 23.8402C23.5635 23.8682 23.8326 24.0399 24.0195 24.2359C24.1131 24.334 24.1893 24.4414 24.2335 24.5449C24.2766 24.646 24.2966 24.7631 24.2457 24.8586L24.2307 24.8868L15.8549 24.8533C15.8493 24.8542 15.8441 24.854 15.8395 24.8533L15.8049 24.8531V24.8375C15.7966 24.8317 15.7886 24.825 15.7815 24.8185C15.7538 24.7934 15.721 24.7558 15.6933 24.7188C15.6671 24.6839 15.6389 24.641 15.6266 24.6052C15.6234 24.5957 15.6193 24.5813 15.6188 24.5645C15.6183 24.5457 15.6226 24.5193 15.6403 24.5002C15.6557 24.4837 15.673 24.4819 15.6829 24.4822C15.692 24.4825 15.7012 24.4848 15.7096 24.4878C15.7106 24.4876 15.7125 24.4873 15.7155 24.4864C15.7222 24.4843 15.7315 24.4801 15.7438 24.4731C15.7685 24.4589 15.7999 24.4361 15.8376 24.406C15.8826 24.3701 15.9333 24.3267 15.9887 24.2793C16.027 24.2464 16.0676 24.2116 16.1102 24.176C16.2129 24.0902 16.3246 24.0019 16.4334 23.935ZM15.8549 24.7727L15.855 24.7218C15.8545 24.7216 15.8531 24.7211 15.8509 24.7208C15.8484 24.7205 15.8436 24.7202 15.8374 24.7224C15.8308 24.7247 15.8232 24.7297 15.8167 24.739C15.8103 24.7482 15.8073 24.7581 15.8061 24.7655L15.8549 24.7727ZM15.855 24.7218L15.855 24.72L24.1736 24.7532C24.1795 24.721 24.1739 24.6748 24.1466 24.6109C24.1111 24.5277 24.0455 24.4327 23.9577 24.3407C23.783 24.1575 23.5334 23.9998 23.2988 23.9734C23.1105 23.9839 22.9471 24.1142 22.7806 24.2562C22.7723 24.2633 22.764 24.2704 22.7556 24.2775C22.6816 24.3408 22.6064 24.405 22.5306 24.4557C22.4458 24.5123 22.3568 24.5544 22.2621 24.5599C22.1662 24.5656 22.0706 24.5284 21.9781 24.4747C21.8907 24.424 21.802 24.356 21.7151 24.2894C21.7101 24.2855 21.705 24.2817 21.7 24.2778C21.5118 24.1337 21.3348 24.0042 21.1619 24.0133C20.9869 24.0225 20.8056 24.148 20.6105 24.2831L20.6054 24.2867C20.4145 24.4189 20.2094 24.56 20.0049 24.56C19.809 24.56 19.6405 24.4247 19.4777 24.294C19.4665 24.2851 19.4554 24.2761 19.4442 24.2672C19.2667 24.1255 19.0873 23.9933 18.8599 23.9933C18.6346 23.9933 18.4712 24.1362 18.3106 24.287C18.3021 24.295 18.2936 24.303 18.285 24.3111C18.1369 24.4509 17.9815 24.5974 17.7865 24.5799L17.7862 24.5798L17.7858 24.5798C17.5942 24.5588 17.4157 24.3999 17.253 24.2552C17.2475 24.2502 17.242 24.2454 17.2365 24.2405C17.1508 24.1643 17.0687 24.0922 16.9868 24.0389C16.9051 23.9857 16.8269 23.9533 16.7499 23.9533C16.6734 23.9533 16.5791 23.9922 16.4753 24.0561C16.3724 24.1193 16.2651 24.204 16.1633 24.289C16.1231 24.3226 16.0834 24.3567 16.0452 24.3894C15.9883 24.4381 15.9349 24.4838 15.8889 24.5205C15.8502 24.5513 15.8143 24.5777 15.7835 24.5955C15.7735 24.6012 15.7635 24.6064 15.7537 24.6105C15.757 24.615 15.7604 24.6197 15.764 24.6245C15.7887 24.6575 15.8166 24.6891 15.8377 24.7082C15.8428 24.7129 15.8471 24.7164 15.8505 24.7188C15.8531 24.7207 15.8545 24.7215 15.855 24.7218ZM21.8221 25.0276C21.9163 24.987 22.0396 24.9633 22.2156 24.9667L22.216 24.9667C22.5752 24.9771 22.9037 25.202 23.1396 25.4193C23.2581 25.5285 23.3545 25.6369 23.4214 25.7181C23.4548 25.7587 23.481 25.7926 23.4988 25.8165C23.5077 25.8285 23.5146 25.8379 23.5193 25.8444C23.5216 25.8477 23.5234 25.8502 23.5247 25.852L23.5261 25.854L23.5266 25.8547L23.5266 25.8548C23.5267 25.8548 23.5267 25.8548 23.4899 25.9L23.5266 25.8548L23.6045 25.9675L16.7699 25.9204V26.015L16.44 25.5983L16.5105 25.5586L16.5299 25.62C16.5105 25.5586 16.5104 25.5586 16.5105 25.5586L16.5105 25.5586L16.5134 25.5569L16.5218 25.5522C16.5292 25.5481 16.5401 25.542 16.554 25.5343C16.5819 25.5189 16.622 25.4969 16.6709 25.4704C16.7689 25.4175 16.9024 25.3466 17.0448 25.2751C17.1871 25.2037 17.3387 25.1313 17.4726 25.0754C17.6048 25.0203 17.7251 24.9789 17.8022 24.9734C17.8829 24.9677 17.9724 24.9997 18.0628 25.0449C18.1422 25.0846 18.2271 25.1371 18.3125 25.1899C18.3249 25.1975 18.3372 25.2052 18.3496 25.2128C18.5497 25.3361 18.7471 25.4493 18.9179 25.4401C19.0768 25.4313 19.219 25.3473 19.3819 25.251C19.3942 25.2437 19.4066 25.2364 19.4191 25.229C19.5955 25.1252 19.793 25.0171 20.0433 25.0067L20.0439 25.0067C20.2876 25 20.4481 25.1139 20.5991 25.221C20.6074 25.2269 20.6157 25.2328 20.6239 25.2386C20.7808 25.3493 20.9352 25.4486 21.1857 25.4202L21.1861 25.4202C21.3119 25.4074 21.3917 25.3735 21.4515 25.3322C21.5005 25.2985 21.5369 25.2597 21.5776 25.2164C21.588 25.2053 21.5986 25.194 21.6098 25.1824C21.6644 25.1257 21.727 25.0686 21.8221 25.0276ZM16.6201 25.6422L16.7346 25.7868L23.367 25.8325C23.3628 25.8274 23.3585 25.8221 23.354 25.8167C23.2897 25.7385 23.1967 25.634 23.0827 25.529C22.8537 25.318 22.5447 25.1097 22.214 25.1C22.0451 25.0968 21.9335 25.1197 21.8529 25.1545C21.7731 25.1889 21.721 25.2359 21.6712 25.2876C21.662 25.2972 21.6526 25.3072 21.6431 25.3174C21.6016 25.3616 21.5561 25.4103 21.4975 25.4507C21.4237 25.5015 21.3305 25.5392 21.1939 25.5531C20.9144 25.5847 20.739 25.4707 20.5771 25.3564C20.5696 25.3511 20.5622 25.3458 20.5547 25.3406C20.4033 25.2333 20.2633 25.1341 20.0462 25.14C19.8166 25.1496 19.6342 25.2482 19.4595 25.351C19.446 25.3589 19.4326 25.3669 19.4191 25.3749C19.2602 25.4691 19.1009 25.5635 18.9219 25.5733C18.7227 25.5841 18.5026 25.4539 18.3077 25.3339C18.2951 25.3261 18.2826 25.3184 18.2702 25.3107C18.1844 25.2577 18.1033 25.2075 18.0277 25.1697C17.9405 25.1262 17.8669 25.1023 17.8076 25.1066C17.7447 25.1111 17.6356 25.1472 17.5025 25.2027C17.3711 25.2575 17.2215 25.3289 17.08 25.3999C16.9387 25.4709 16.8059 25.5413 16.7085 25.594C16.6743 25.6125 16.6445 25.6288 16.6201 25.6422ZM17.8577 26.643L17.8149 26.6304V26.8603L17.8826 26.7868L20.1369 27.4489L22.2488 26.5998L22.1502 26.5225L22.1249 26.58C22.1502 26.5225 22.1502 26.5225 22.1502 26.5225L22.1502 26.5225L22.1501 26.5224L22.1497 26.5221L22.1483 26.5211C22.1471 26.5201 22.1454 26.5188 22.1432 26.5171C22.1387 26.5137 22.1322 26.5088 22.1238 26.5025C22.1069 26.4901 22.0824 26.4724 22.0516 26.4513C21.9901 26.409 21.9033 26.353 21.802 26.2975C21.6009 26.1874 21.3366 26.0762 21.0982 26.0867C20.858 26.0973 20.6586 26.2414 20.4816 26.3693L20.4798 26.3706C20.2977 26.5022 20.1439 26.6116 19.979 26.5936L19.9789 26.5936C19.8301 26.5775 19.7231 26.4839 19.5961 26.3727C19.5785 26.3573 19.5605 26.3415 19.542 26.3256C19.3909 26.1959 19.2137 26.0667 18.9349 26.0667C18.6574 26.0667 18.3811 26.2196 18.1772 26.3682C18.0746 26.4429 17.9889 26.5177 17.9289 26.5737C17.8988 26.6018 17.8751 26.6252 17.8588 26.6418C17.8584 26.6422 17.8581 26.6426 17.8577 26.643ZM17.9881 26.6812L20.1329 27.3112L21.9952 26.5625C21.9364 26.5226 21.8564 26.4714 21.764 26.4208C21.5664 26.3126 21.3182 26.2104 21.1015 26.22C20.8876 26.2294 20.7076 26.3577 20.5275 26.4878L20.5185 26.4943C20.346 26.619 20.1675 26.748 19.9709 26.7265C19.7948 26.7074 19.6655 26.5937 19.5401 26.4833C19.5226 26.468 19.5052 26.4527 19.4878 26.4377C19.3439 26.3141 19.186 26.2 18.9349 26.2C18.6823 26.2 18.4237 26.3405 18.2251 26.4852C18.1275 26.5563 18.0457 26.6275 17.9881 26.6812Z" fill="#083D9C"/>
<path fill-rule="evenodd" clip-rule="evenodd" d="M19.0647 18.5933L20.9847 19.2733V15.62C20.1047 15.6866 19.3747 13.3933 20.9247 13.24C19.3997 12.9466 19.2247 13.4733 19.0497 14.04L19.0647 18.5933V18.5933Z" fill="#FF0000"/>
<path fill-rule="evenodd" clip-rule="evenodd" d="M19.4539 13.2425C19.7279 13.0652 20.169 13.0104 20.9339 13.1575C20.9654 13.1636 20.9885 13.2004 20.9874 13.2429C20.9863 13.2854 20.9614 13.32 20.9296 13.3231C20.5534 13.3603 20.3277 13.5259 20.2062 13.7367C20.0845 13.9478 20.0582 14.2196 20.1046 14.4942C20.1511 14.7692 20.2698 15.0397 20.4289 15.2368C20.588 15.4339 20.7827 15.5519 20.9814 15.5368C20.9985 15.5355 21.0154 15.5437 21.0278 15.5594C21.0403 15.5752 21.0474 15.5971 21.0474 15.62V19.2733C21.0474 19.2992 21.0384 19.3236 21.023 19.3394C21.0076 19.3552 20.9876 19.3605 20.9689 19.3539L19.0489 18.6739L19.0649 18.5933L19.0024 18.5937L18.9874 14.0404C18.9874 14.0294 18.989 14.0185 18.9921 14.0083C19.0795 13.7254 19.1743 13.4235 19.4539 13.2425ZM19.1272 18.5292L20.9224 19.165V15.7042C20.706 15.6945 20.5044 15.5577 20.3438 15.3589C20.167 15.1399 20.035 14.84 19.9827 14.5308C19.9304 14.2213 19.9572 13.8952 20.1071 13.6352C20.1994 13.475 20.3351 13.3457 20.5188 13.2608C20.0064 13.2032 19.7015 13.2675 19.5085 13.3925C19.2798 13.5405 19.1983 13.7792 19.1125 14.0563L19.1272 18.5292Z" fill="black"/>
<path fill-rule="evenodd" clip-rule="evenodd" d="M17.8499 21.2466L22.1849 21.2666Z" fill="#083D9C"/>
<path fill-rule="evenodd" clip-rule="evenodd" d="M17.7247 21.2461C17.725 21.1541 17.7811 21.0797 17.8502 21.08L22.1852 21.1C22.2542 21.1003 22.31 21.1752 22.3097 21.2673C22.3095 21.3593 22.2533 21.4337 22.1843 21.4333L17.8493 21.4133C17.7803 21.413 17.7245 21.3382 17.7247 21.2461Z" fill="#083D9C"/>
<path fill-rule="evenodd" clip-rule="evenodd" d="M18.3529 19.6668C18.4081 19.6694 18.4512 19.7311 18.4493 19.8047L18.4458 19.9352L18.5321 19.7953C18.5672 19.7385 18.6302 19.7303 18.6729 19.777C18.7155 19.8238 18.7217 19.9078 18.6866 19.9647L18.4506 20.3475L18.6493 20.6999C18.6825 20.7588 18.6736 20.8423 18.6294 20.8866C18.5853 20.9308 18.5226 20.919 18.4894 20.8601L18.3199 20.5594L18.1316 20.8647C18.0965 20.9216 18.0335 20.9298 17.9908 20.883C17.9482 20.8362 17.942 20.7522 17.9771 20.6953L18.1962 20.3401L17.9744 19.9468C17.9412 19.888 17.9501 19.8044 17.9943 19.7601C18.0384 19.7159 18.1011 19.7277 18.1343 19.7866L18.2445 19.982L18.2494 19.7953C18.2514 19.7217 18.2977 19.6642 18.3529 19.6668ZM19.1729 19.6668C19.2281 19.6694 19.2712 19.7311 19.2693 19.8047L19.2658 19.9352L19.3521 19.7953C19.3872 19.7385 19.4502 19.7303 19.4929 19.777C19.5355 19.8238 19.5417 19.9078 19.5066 19.9647L19.2713 20.3462L19.4695 20.7003C19.5025 20.7593 19.4934 20.8428 19.4492 20.8869C19.4049 20.9309 19.3422 20.9188 19.3092 20.8598L19.1405 20.5584L18.9516 20.8647C18.9165 20.9216 18.8535 20.9298 18.8108 20.883C18.7682 20.8362 18.762 20.7522 18.7971 20.6953L19.0173 20.3383L18.7942 19.9398C18.7612 19.8808 18.7703 19.7972 18.8145 19.7532C18.8588 19.7091 18.9215 19.7213 18.9545 19.7803L19.0646 19.977L19.0694 19.7953C19.0714 19.7217 19.1177 19.6642 19.1729 19.6668ZM20.0079 19.6668C20.0631 19.6694 20.1062 19.7311 20.1043 19.8047L20.1008 19.9352L20.1871 19.7953C20.2222 19.7385 20.2852 19.7303 20.3279 19.777C20.3705 19.8238 20.3767 19.9078 20.3416 19.9647L20.1063 20.3462L20.3045 20.7003C20.3375 20.7593 20.3284 20.8428 20.2842 20.8869C20.2399 20.9309 20.1772 20.9188 20.1442 20.8598L19.9755 20.5584L19.7866 20.8647C19.7515 20.9216 19.6885 20.9298 19.6458 20.883C19.6032 20.8362 19.597 20.7522 19.6321 20.6953L19.8523 20.3383L19.6292 19.9398C19.5962 19.8808 19.6053 19.7972 19.6495 19.7532C19.6938 19.7091 19.7565 19.7213 19.7895 19.7803L19.8996 19.977L19.9044 19.7953C19.9064 19.7217 19.9527 19.6642 20.0079 19.6668ZM21.7029 19.6668C21.7581 19.6694 21.8012 19.7311 21.7993 19.8047L21.7956 19.9437L21.8871 19.7953C21.9222 19.7385 21.9852 19.7303 22.0279 19.777C22.0705 19.8238 22.0767 19.9078 22.0416 19.9647L21.8037 20.3505L21.9995 20.7003C22.0325 20.7593 22.0234 20.8428 21.9792 20.8869C21.9349 20.9309 21.8722 20.9188 21.8392 20.8598L21.6729 20.5626L21.4866 20.8647C21.4515 20.9216 21.3885 20.9298 21.3458 20.883C21.3032 20.8362 21.297 20.7522 21.3321 20.6953L21.5497 20.3425L21.3242 19.9398C21.2912 19.8808 21.3003 19.7972 21.3445 19.7532C21.3888 19.7091 21.4515 19.7213 21.4845 19.7803L21.5946 19.977L21.5994 19.7953C21.6014 19.7217 21.6477 19.6642 21.7029 19.6668ZM20.8667 19.6667C20.9219 19.6685 20.9656 19.7295 20.9643 19.8032L20.9619 19.9417L21.0521 19.7953C21.0872 19.7385 21.1502 19.7303 21.1929 19.777C21.2355 19.8238 21.2417 19.9078 21.2066 19.9647L20.9697 20.3489L21.1648 20.7008C21.1976 20.76 21.1882 20.8435 21.1438 20.8872C21.0994 20.931 21.0368 20.9185 21.0039 20.8593L20.8387 20.5612L20.6516 20.8647C20.6165 20.9216 20.5535 20.9298 20.5108 20.883C20.4682 20.8362 20.462 20.7522 20.4971 20.6953L20.7162 20.3401L20.4939 19.9393C20.4611 19.8801 20.4705 19.7966 20.5149 19.7528C20.5593 19.709 20.6219 19.7216 20.6548 19.7808L20.7613 19.9729L20.7644 19.7969C20.7657 19.7233 20.8115 19.665 20.8667 19.6667Z" fill="black"/>
<path fill-rule="evenodd" clip-rule="evenodd" d="M14.9352 21.3066L16.7802 21.3266V19.7866L14.6702 19.6466L14.9352 21.3066ZM14.8452 19.1733L16.8102 19.4333L16.7952 18.34L14.8752 17.32L14.8452 19.18V19.1733ZM15.2452 16.9933L16.7502 17.9666L16.9652 17.6666C16.9652 17.6666 16.8252 17.54 16.8352 17.42C16.8352 17.3066 16.9752 17.2866 16.9752 17.1533C16.9752 17.04 16.8252 17.02 16.8202 16.9066C16.8102 16.7733 16.9402 16.64 16.9402 16.64L15.5802 15.06L15.2402 16.9933H15.2452ZM25.1452 21.3266H23.1952L23.1802 19.82L25.3202 19.6066L25.1452 21.3266ZM23.2102 19.4666L25.5252 19.0933L25.0252 17.3133L23.1952 18.3533L23.2102 19.4666ZM24.8952 16.8266L23.2252 18C23.2002 17.8666 23.1802 17.7466 23.0652 17.6466C23.0652 17.6466 23.1652 17.5666 23.1652 17.4333C23.1652 17.3 23.0352 17.2733 23.0352 17.2C23.0352 17.1266 23.1552 17.0533 23.1652 16.8733C23.1502 16.7533 23.0352 16.58 23.0552 16.5466L24.3552 15.2266L24.8952 16.8266V16.8266ZM21.2752 19.4333L22.1102 19.3866L22.1252 18.94L21.2752 19.4333V19.4333ZM18.7252 19.4L17.8502 19.3666V18.9L18.7302 19.4H18.7252ZM18.7252 19.2666L17.8502 18.6666V17.88C17.8502 17.88 17.7502 17.9 17.7602 17.7466C17.7652 17.42 18.4052 18.34 18.7302 18.64L18.7252 19.2666V19.2666ZM21.2752 19.1933V18.68C21.2752 18.68 22.0652 17.7333 22.2302 17.5533C22.2302 17.7533 22.1402 17.9 22.1402 17.9V18.6466L21.2752 19.1933V19.1933ZM16.1502 14.92L17.0402 16.2333C17.0602 16.1133 17.2652 16.0933 17.4702 16.1133C17.6702 16.1333 17.8352 16.0933 17.8352 16.2866C17.8352 16.48 17.7352 16.4533 17.7352 16.5933C17.7352 16.7333 17.8852 16.72 17.8852 16.8933C17.8852 17.0666 17.7752 17.0333 17.7752 17.1666C17.7752 17.28 17.8952 17.2866 17.8952 17.2866L18.7252 18.36V17.2133L17.0152 13.6333L16.1502 14.92V14.92ZM17.5202 13.56L18.6852 16.7266C18.6852 16.7266 18.6952 13.8066 18.8902 13.6533L18.5652 12.8533L17.5202 13.56V13.56ZM22.5702 13.6866L21.2702 16.7666V15.4666C21.2702 15.4666 21.3802 15.2533 21.2102 15.2666C21.0402 15.2866 20.8352 15.2533 20.8352 15.2533L21.3552 12.8133L22.5702 13.68V13.6866ZM23.9002 15C23.8852 15.0333 23.0252 16.2 23.0252 16.2C22.9852 16.0666 22.7252 16.1333 22.4752 16.1333C22.2302 16.1333 22.1952 16.24 22.2102 16.3266C22.2352 16.5466 22.3202 16.38 22.3202 16.5933C22.3202 16.8 22.2002 16.7266 22.1852 16.8733C22.2002 17.0533 22.3752 17.0066 22.2702 17.14L21.2752 18.42V17.2066L23.1302 13.3666L23.9002 15Z" fill="#EF7D08"/>
<path fill-rule="evenodd" clip-rule="evenodd" d="M19.4898 21.8933C19.0748 22.8133 17.9598 22.54 17.6948 21.8933C17.6198 21.8666 17.6648 17.9266 17.6648 17.9266C17.6648 17.9266 17.5398 17.8533 17.5348 17.7266C17.5298 17.6066 17.7048 17.5933 17.7048 17.44C17.7048 17.2866 17.5248 17.3466 17.5198 17.1866C17.5198 17.04 17.7148 17.0533 17.7048 16.92C17.6948 16.76 17.4898 16.7866 17.4798 16.64C17.4798 16.5266 17.6298 16.4266 17.6698 16.3733C17.6231 16.3747 17.5765 16.3747 17.5298 16.3733L17.2098 16.38C16.9798 16.38 17.2098 16.4466 17.2098 16.62C17.2098 16.7333 17.0948 16.8133 17.0848 16.9066C17.0798 17.0133 17.2448 17.08 17.2498 17.2066C17.2498 17.3133 17.0848 17.32 17.0898 17.4266C17.0998 17.5933 17.2398 17.6333 17.2348 17.74C17.2348 17.84 17.0548 17.88 17.0498 17.96C17.0598 18.12 17.0798 22.0133 17.0798 22.0133C17.3648 24 19.0198 24.5 19.4898 21.8933ZM20.5848 21.8933C20.9998 22.8133 22.1148 22.54 22.3748 21.8933C22.4548 21.8666 22.4098 17.9266 22.4098 17.9266C22.4098 17.9266 22.5348 17.8533 22.5398 17.7266C22.5448 17.6066 22.3798 17.5933 22.3798 17.44C22.3798 17.2866 22.5498 17.3466 22.5498 17.1866C22.5498 17.04 22.3748 17.0533 22.3848 16.9066C22.3948 16.7533 22.5348 16.7733 22.5398 16.6266C22.5448 16.5 22.4548 16.4266 22.4098 16.3733H22.5448L22.8648 16.38C23.0898 16.38 22.8648 16.4466 22.8648 16.62C22.8648 16.7333 22.9798 16.8133 22.9898 16.9066C22.9898 17.0133 22.8298 17.08 22.8248 17.2066C22.8248 17.3133 22.9898 17.32 22.9848 17.4266C22.9748 17.5933 22.8348 17.6333 22.8348 17.74C22.8398 17.84 23.0198 17.88 23.0198 17.96L22.9948 22.0133C22.7098 24 21.0498 24.5 20.5848 21.8933V21.8933Z" fill="#FF0000"/>
<path fill-rule="evenodd" clip-rule="evenodd" d="M17.7276 16.3405C17.7377 16.3719 17.7324 16.4082 17.7144 16.4322C17.7 16.4515 17.6783 16.4719 17.6603 16.489L17.6598 16.4895C17.6583 16.4909 17.6568 16.4923 17.6553 16.4938C17.6365 16.5115 17.6174 16.5296 17.5995 16.5489C17.5799 16.57 17.5645 16.5898 17.5543 16.608C17.5462 16.6223 17.5437 16.6316 17.5429 16.6367C17.5439 16.6417 17.5467 16.6475 17.5555 16.6563C17.5694 16.6701 17.5888 16.6816 17.6179 16.6988L17.6185 16.6991C17.644 16.7141 17.6783 16.7343 17.7064 16.7644C17.7371 16.7973 17.763 16.8449 17.7674 16.9124C17.7722 16.9787 17.7495 17.0273 17.7218 17.0598C17.699 17.0866 17.6695 17.1061 17.6484 17.1202C17.647 17.1211 17.6457 17.122 17.6444 17.1228C17.6191 17.1397 17.6028 17.1513 17.592 17.1642C17.5844 17.1732 17.5829 17.1785 17.5827 17.185C17.5833 17.1983 17.5863 17.2027 17.5909 17.2078C17.5996 17.2173 17.6129 17.2253 17.6376 17.2384C17.6388 17.239 17.64 17.2396 17.6412 17.2403C17.6616 17.251 17.692 17.267 17.7165 17.2936C17.7469 17.3268 17.7677 17.3749 17.7677 17.44C17.7677 17.5655 17.6938 17.6297 17.6541 17.6642C17.6535 17.6647 17.653 17.6651 17.6524 17.6656C17.6505 17.6673 17.6487 17.6689 17.6468 17.6705C17.6258 17.6887 17.6127 17.7001 17.6034 17.7123C17.5991 17.7179 17.5978 17.721 17.5975 17.7218C17.5975 17.7218 17.5975 17.7213 17.5976 17.722L17.5976 17.7223C17.5987 17.7495 17.6137 17.7797 17.6412 17.8092C17.6538 17.8227 17.6665 17.8333 17.6762 17.8406C17.681 17.8442 17.6849 17.8468 17.6874 17.8485C17.6887 17.8493 17.6896 17.8499 17.6901 17.8502L17.6905 17.8504L17.6904 17.8504M17.6021 17.9758C17.5904 17.9662 17.5768 17.954 17.5629 17.9391C17.5266 17.9002 17.4767 17.8305 17.4728 17.7311C17.4702 17.6692 17.4924 17.624 17.5159 17.5933C17.5348 17.5686 17.5591 17.5476 17.5775 17.5317C17.5798 17.5297 17.5821 17.5278 17.5842 17.526C17.6311 17.4852 17.6427 17.4661 17.6427 17.44C17.6427 17.4284 17.6409 17.4265 17.6375 17.4228C17.6295 17.4141 17.6168 17.4067 17.5915 17.3933C17.5907 17.3928 17.5898 17.3924 17.589 17.392C17.5681 17.3809 17.5369 17.3644 17.5115 17.3365C17.4812 17.3033 17.4598 17.2554 17.4577 17.1901C17.4577 17.189 17.4577 17.1878 17.4577 17.1866C17.4577 17.1206 17.481 17.0727 17.509 17.0395C17.5337 17.0102 17.5646 16.9897 17.5867 16.9749C17.5873 16.9745 17.5879 16.9742 17.5885 16.9738C17.6146 16.9563 17.6297 16.9458 17.6392 16.9347C17.6415 16.9321 17.6426 16.9303 17.643 16.9294C17.643 16.9291 17.643 16.9287 17.643 16.9283L17.6429 16.9269C17.6421 16.9148 17.6388 16.9059 17.628 16.8943C17.6147 16.88 17.5956 16.8678 17.5674 16.8512C17.5657 16.8502 17.564 16.8492 17.5622 16.8481C17.5381 16.834 17.5066 16.8155 17.4808 16.79C17.4506 16.76 17.4225 16.7147 17.4179 16.6475C17.4178 16.645 17.4177 16.6425 17.4177 16.64C17.4177 16.5867 17.4352 16.5419 17.4542 16.508C17.4644 16.49 17.476 16.4731 17.4882 16.4575L17.2299 16.4629C17.2515 16.5009 17.2727 16.5537 17.2727 16.62C17.2727 16.7123 17.2263 16.7832 17.1986 16.8255L17.1985 16.8256C17.1952 16.8306 17.1921 16.8353 17.1891 16.8398C17.1771 16.8581 17.1676 16.8726 17.1595 16.8874C17.153 16.8994 17.1498 16.9075 17.1483 16.9127C17.1493 16.9153 17.1514 16.9198 17.1557 16.9267C17.1663 16.9433 17.1819 16.9606 17.2039 16.9851L17.204 16.9852C17.2239 17.0073 17.2493 17.0355 17.2696 17.068C17.2903 17.1011 17.3104 17.1458 17.3126 17.2023C17.3126 17.2037 17.3127 17.2052 17.3127 17.2066C17.3127 17.2668 17.2881 17.3085 17.2647 17.3347C17.2442 17.3578 17.2187 17.3756 17.2003 17.3884C17.1993 17.3891 17.1983 17.3898 17.1973 17.3905C17.1753 17.4058 17.1624 17.4155 17.1543 17.4249C17.1538 17.4255 17.1533 17.426 17.153 17.4265C17.1573 17.472 17.1776 17.5036 17.2109 17.5448C17.2131 17.5476 17.2155 17.5505 17.218 17.5536C17.2326 17.5715 17.2511 17.5941 17.2652 17.618C17.2829 17.6481 17.2996 17.6896 17.2977 17.7427C17.2968 17.8027 17.2693 17.8443 17.2473 17.869C17.2246 17.8945 17.1962 17.9151 17.174 17.931C17.1707 17.9333 17.1675 17.9356 17.1644 17.9378C17.1442 17.9521 17.129 17.9629 17.1173 17.974C17.1158 17.9754 17.1145 17.9766 17.1134 17.9777C17.1159 18.0633 17.1187 18.32 17.1216 18.6599C17.1249 19.0475 17.1283 19.5493 17.1314 20.0459C17.1345 20.5427 17.1374 21.0343 17.1394 21.4019C17.1404 21.5856 17.1412 21.7383 17.1418 21.8451L17.1426 22.0051C17.2829 22.9695 17.7502 23.5487 18.2202 23.5927C18.6372 23.6317 19.0936 23.2499 19.35 22.2422C19.1222 22.5014 18.8183 22.5908 18.532 22.5639C18.1609 22.5291 17.7954 22.2964 17.6454 21.9455C17.6425 21.941 17.6405 21.937 17.6393 21.9345C17.6342 21.9241 17.6312 21.9137 17.6294 21.9066C17.6256 21.8918 17.6229 21.8747 17.6208 21.8581C17.6165 21.8238 17.613 21.777 17.61 21.7212C17.6039 21.6088 17.5995 21.451 17.5964 21.2642C17.59 20.8899 17.5886 20.3941 17.5895 19.8998C17.5905 19.4053 17.5938 18.9117 17.5968 18.5418C17.5983 18.3568 17.5998 18.2027 17.6009 18.0949C17.6014 18.0446 17.6018 18.0044 17.6021 17.9758ZM17.0802 22.0133C17.0177 22.0139 17.0177 22.0139 17.0177 22.0138L17.0168 21.8463C17.0162 21.7395 17.0154 21.5868 17.0144 21.4031C17.0124 21.0356 17.0095 20.544 17.0064 20.0473C17.0033 19.5507 16.9999 19.0491 16.9966 18.6618C16.9933 18.2714 16.9901 18.003 16.9879 17.9669C16.9876 17.9623 16.9876 17.9577 16.9879 17.9531C16.9917 17.8925 17.0263 17.8556 17.0451 17.8379C17.0639 17.8202 17.0873 17.8037 17.1065 17.79C17.1095 17.7879 17.1124 17.7859 17.1151 17.784C17.1385 17.7673 17.1555 17.7542 17.1667 17.7416C17.1698 17.7381 17.1717 17.7355 17.1728 17.7338C17.1727 17.7336 17.1726 17.7332 17.1725 17.7328C17.172 17.731 17.1706 17.7272 17.1669 17.7209C17.1596 17.7086 17.15 17.6968 17.1351 17.6785C17.1322 17.6749 17.1291 17.671 17.1257 17.6668C17.0893 17.6216 17.0349 17.5509 17.0279 17.4333L17.0278 17.4318C17.0249 17.3708 17.0482 17.3273 17.0718 17.2997C17.0925 17.2754 17.1187 17.2572 17.1373 17.2442C17.138 17.2438 17.1387 17.2433 17.1393 17.2428C17.1615 17.2274 17.1751 17.2175 17.1842 17.2073C17.1853 17.206 17.1862 17.205 17.1868 17.2041C17.1854 17.1973 17.1818 17.1878 17.1736 17.1747C17.1617 17.1557 17.1452 17.1369 17.1239 17.1132C17.1227 17.1118 17.1215 17.1105 17.1203 17.1091C17.1016 17.0885 17.0785 17.0627 17.0606 17.0348C17.0412 17.0044 17.0201 16.9594 17.0228 16.9014C17.0229 16.8992 17.0231 16.897 17.0233 16.8949C17.0279 16.8517 17.0438 16.8161 17.0583 16.7895C17.0702 16.7677 17.0847 16.7458 17.0969 16.7272C17.0995 16.7233 17.102 16.7196 17.1043 16.716C17.1366 16.6667 17.1477 16.6409 17.1477 16.62C17.1477 16.6025 17.142 16.5836 17.1286 16.5607C17.1183 16.5431 17.1079 16.53 17.0962 16.5151C17.091 16.5086 17.0855 16.5017 17.0797 16.4939L17.0795 16.4936C17.0732 16.4852 17.0593 16.4666 17.0517 16.4432C17.0472 16.4292 17.0422 16.4053 17.0482 16.3776C17.0544 16.3491 17.0688 16.3318 17.0801 16.3224C17.0989 16.3067 17.122 16.3025 17.1377 16.3003C17.1565 16.2977 17.1805 16.2967 17.2097 16.2966L17.5292 16.29C17.53 16.29 17.5308 16.29 17.5316 16.29C17.5773 16.2914 17.623 16.2914 17.6687 16.29C17.6943 16.2892 17.7176 16.3092 17.7276 16.3405M17.1887 17.2013C17.1887 17.2013 17.1887 17.2014 17.1885 17.2017C17.1886 17.2014 17.1887 17.2013 17.1887 17.2013ZM22.3518 16.3437C22.361 16.3114 22.3842 16.29 22.4102 16.29H22.5452L22.5461 16.29L22.8657 16.2966C22.8943 16.2967 22.9178 16.2977 22.9363 16.3003C22.9518 16.3025 22.9748 16.3068 22.9937 16.3228C23.005 16.3325 23.0191 16.35 23.025 16.378C23.0308 16.4053 23.026 16.4287 23.0216 16.4426C23.0143 16.466 23.0006 16.4845 22.9944 16.493L22.9942 16.4933C22.9885 16.501 22.9832 16.5079 22.9781 16.5145C22.9666 16.5293 22.9565 16.5424 22.9464 16.56C22.9334 16.5828 22.9277 16.6019 22.9277 16.62C22.9277 16.6409 22.9387 16.6667 22.971 16.716C22.9733 16.7196 22.9758 16.7233 22.9784 16.7272C22.9907 16.7458 23.0052 16.7677 23.017 16.7895C23.0315 16.8161 23.0474 16.8517 23.052 16.8949C23.0525 16.8988 23.0527 16.9027 23.0527 16.9066C23.0527 16.9625 23.0316 17.0056 23.0124 17.0352C22.9949 17.0622 22.9726 17.0872 22.9545 17.1076C22.9529 17.1094 22.9514 17.1111 22.9499 17.1128C22.9291 17.1363 22.913 17.1551 22.9015 17.1739C22.8935 17.1872 22.8899 17.1968 22.8884 17.204C22.8891 17.2049 22.89 17.206 22.8911 17.2073C22.9002 17.2175 22.9139 17.2274 22.936 17.2428L22.9381 17.2442C22.9566 17.2572 22.9828 17.2754 23.0035 17.2997C23.0271 17.3273 23.0504 17.3708 23.0475 17.4318L23.0475 17.4333C23.0404 17.551 22.986 17.6218 22.9486 17.6673C22.9443 17.6725 22.9404 17.6773 22.9367 17.6817C22.9226 17.6987 22.913 17.7103 22.9053 17.7227C22.9025 17.7273 22.9007 17.7308 22.8995 17.7334C22.9009 17.7352 22.9029 17.7377 22.9056 17.7406C22.9178 17.7539 22.9355 17.7672 22.959 17.784C22.9611 17.7855 22.9633 17.7871 22.9656 17.7887C22.9854 17.8027 23.0097 17.8199 23.0289 17.8387C23.0476 17.8569 23.0827 17.8963 23.0827 17.96L23.0827 17.9607L23.0577 22.014C23.0576 22.019 23.0573 22.024 23.0566 22.029C22.9105 23.0469 22.4076 23.708 21.862 23.7589C21.3096 23.8105 20.7604 23.2356 20.5244 21.9126L20.5852 21.8933L20.6387 21.8504C20.8303 22.275 21.1858 22.4304 21.5339 22.3977C21.8855 22.3646 22.2041 22.1423 22.3201 21.8539C22.3216 21.8502 22.3233 21.8467 22.3252 21.8433C22.3257 21.84 22.3264 21.8355 22.3272 21.8297C22.3307 21.8035 22.3342 21.7632 22.3373 21.7088C22.3436 21.6007 22.3484 21.4464 22.3519 21.2602C22.3589 20.8882 22.3608 20.3941 22.3602 19.9001C22.3595 19.4063 22.3564 18.9132 22.3535 18.5436C22.352 18.3588 22.3505 18.2048 22.3495 18.0971C22.3489 18.0432 22.3485 18.0009 22.3482 17.9721L22.3477 17.928C22.3477 17.9279 22.3477 17.9279 22.4102 17.9266L22.3477 17.928C22.3473 17.8946 22.3619 17.864 22.3848 17.8505C22.3848 17.8505 22.3848 17.8505 22.3848 17.8505C22.3848 17.8505 22.3849 17.8505 22.3849 17.8504C22.3849 17.8504 22.3849 17.8504 22.3849 17.8504C22.3849 17.8504 22.3849 17.8504 22.3849 17.8504C22.3849 17.8504 22.3849 17.8504 22.3849 17.8504C22.3849 17.8504 22.385 17.8504 22.385 17.8504L22.3852 17.8502C22.3857 17.8499 22.3867 17.8493 22.3879 17.8485C22.3905 17.8468 22.3943 17.8442 22.3991 17.8406C22.4088 17.8333 22.4216 17.8227 22.4341 17.8092C22.4616 17.7797 22.4767 17.7495 22.4778 17.7223L22.4778 17.722C22.4778 17.7205 22.4777 17.7202 22.4776 17.7199C22.4773 17.7189 22.476 17.7159 22.4722 17.7105C22.4636 17.6986 22.4515 17.6874 22.4315 17.669C22.4299 17.6675 22.4282 17.6659 22.4265 17.6643L22.4255 17.6635C22.3873 17.6282 22.3177 17.5639 22.3177 17.44C22.3177 17.3767 22.3366 17.329 22.3658 17.2953C22.3891 17.2683 22.4181 17.2519 22.437 17.2412C22.4383 17.2405 22.4395 17.2398 22.4407 17.2392C22.4638 17.226 22.4748 17.2187 22.4816 17.2104C22.4845 17.2069 22.4877 17.2031 22.4877 17.1866C22.4877 17.1761 22.4856 17.1697 22.4788 17.1606C22.4693 17.1479 22.4554 17.1367 22.4322 17.1185L22.4304 17.117C22.4108 17.1017 22.3825 17.0795 22.3608 17.0482C22.3353 17.0113 22.3187 16.9621 22.3229 16.8993M22.4732 17.9758C22.4735 18.0044 22.4739 18.0446 22.4744 18.0949C22.4755 18.2027 22.477 18.3568 22.4784 18.5418C22.4814 18.9117 22.4845 19.4053 22.4852 19.8998C22.4858 20.3942 22.4839 20.8901 22.4769 21.2644C22.4733 21.4513 22.4685 21.6091 22.462 21.7217C22.4587 21.7775 22.4549 21.8245 22.4503 21.859C22.448 21.8758 22.4451 21.8932 22.441 21.9082C22.439 21.9155 22.4357 21.9261 22.4303 21.9366C22.429 21.9389 22.4272 21.9422 22.4248 21.9458C22.2771 22.2968 21.9128 22.5291 21.5427 22.5639C21.2565 22.5909 20.9522 22.5012 20.7244 22.2411C20.9789 23.2496 21.4356 23.6317 21.8533 23.5927C22.324 23.5487 22.7924 22.9693 22.9327 22.005L22.9576 17.9757C22.9568 17.9749 22.956 17.9741 22.955 17.9731C22.9435 17.9618 22.9274 17.9504 22.9053 17.9347L22.9001 17.931C22.878 17.9152 22.8497 17.8949 22.8268 17.8699C22.8044 17.8457 22.7758 17.8052 22.7728 17.7455C22.7727 17.7437 22.7727 17.7418 22.7727 17.74C22.7727 17.6865 22.7908 17.6457 22.8091 17.6163C22.8231 17.5937 22.8413 17.5719 22.8559 17.5544C22.8588 17.5509 22.8617 17.5475 22.8643 17.5443C22.8978 17.5034 22.9181 17.4719 22.9224 17.4265C22.922 17.426 22.9216 17.4255 22.921 17.4249C22.913 17.4155 22.9001 17.4058 22.8781 17.3905C22.8771 17.3898 22.8761 17.3891 22.875 17.3884C22.8567 17.3756 22.8311 17.3578 22.8106 17.3347C22.7872 17.3085 22.7627 17.2668 22.7627 17.2066C22.7627 17.2058 22.7627 17.2049 22.7627 17.204C22.7627 17.2034 22.7627 17.2029 22.7628 17.2023C22.765 17.1465 22.7842 17.1021 22.8046 17.0687C22.8245 17.0361 22.8494 17.0078 22.8692 16.9855L22.8711 16.9834C22.8919 16.9599 22.907 16.9429 22.9178 16.9262C22.9226 16.9188 22.9251 16.9137 22.9264 16.9105C22.9246 16.9053 22.9215 16.8978 22.9158 16.8874C22.9078 16.8726 22.8982 16.8581 22.8862 16.8398C22.8832 16.8353 22.8801 16.8306 22.8768 16.8256L22.8768 16.8255C22.8491 16.7832 22.8027 16.7123 22.8027 16.62C22.8027 16.5538 22.8235 16.5011 22.8448 16.4629L22.5643 16.4571C22.5876 16.5025 22.6053 16.5601 22.6026 16.6308C22.5985 16.7464 22.5379 16.7995 22.5029 16.8303C22.5016 16.8314 22.5003 16.8326 22.499 16.8337C22.4608 16.8674 22.4496 16.8811 22.4474 16.9139L22.4474 16.9142C22.4467 16.9247 22.4482 16.9286 22.4527 16.9351C22.4603 16.9461 22.4727 16.9569 22.4956 16.9748C22.4967 16.9757 22.4979 16.9766 22.4991 16.9776C22.5183 16.9926 22.5455 17.0138 22.5672 17.0427C22.5929 17.077 22.6127 17.1239 22.6127 17.1866C22.6127 17.2502 22.5946 17.2989 22.5656 17.3339C22.5414 17.3631 22.5114 17.3802 22.4919 17.3912L22.4897 17.3925C22.4659 17.406 22.4547 17.413 22.4477 17.4212L22.4475 17.4214C22.4449 17.4244 22.4427 17.4269 22.4427 17.44C22.4427 17.4683 22.4544 17.4874 22.4976 17.5273C22.4996 17.5291 22.5016 17.531 22.5038 17.533C22.5211 17.5488 22.5444 17.5701 22.5624 17.5951C22.585 17.6265 22.6051 17.6712 22.6026 17.7313L22.5402 17.7266L22.6026 17.731C22.6026 17.7311 22.6026 17.7312 22.6026 17.7313C22.5986 17.8306 22.5487 17.9002 22.5125 17.9391C22.4986 17.954 22.4849 17.9662 22.4732 17.9758ZM22.9277 16.906C22.9277 16.906 22.9277 16.9061 22.9277 16.9062ZM22.9626 17.9818C22.9625 17.9818 22.9623 17.9814 22.9619 17.9808C22.9624 17.9814 22.9626 17.9818 22.9626 17.9818ZM22.8866 17.2013C22.8866 17.2013 22.8867 17.2014 22.8869 17.2017C22.8867 17.2014 22.8866 17.2013 22.8866 17.2013ZM17.7462 21.8452C17.7456 21.8417 17.7449 21.8369 17.7441 21.8307C17.7408 21.8043 17.7376 21.7637 17.7347 21.7092C17.7289 21.6011 17.7245 21.4466 17.7213 21.2604C17.715 20.8883 17.7136 20.3942 17.7145 19.9002C17.7155 19.4063 17.7188 18.9133 17.7218 18.5436C17.7233 18.3588 17.7248 18.2048 17.7259 18.0971C17.7264 18.0432 17.7269 18.0009 17.7272 17.9721L17.7277 17.928C17.7277 17.9279 17.7277 17.9279 17.6652 17.9266M17.7476 21.8526C17.7476 21.8526 17.7476 21.8525 17.7476 21.8525C17.7477 21.8528 17.7477 21.8529 17.7476 21.8526ZM17.7462 21.8452C17.7476 21.8478 17.7489 21.8505 17.75 21.8534C17.8684 22.1423 18.1887 22.3646 18.5408 22.3977C18.8896 22.4304 19.2451 22.275 19.4366 21.8504C19.4525 21.8151 19.4853 21.8006 19.5139 21.8162C19.5424 21.8318 19.5581 21.8728 19.5509 21.9128C19.3124 23.2356 18.7632 23.8105 18.2114 23.7589C17.6664 23.708 17.1648 23.0468 17.0188 22.029C17.0181 22.024 17.0177 22.0189 17.0177 22.0138L17.0802 22.0133" fill="black"/>
<path fill-rule="evenodd" clip-rule="evenodd" d="M19.0845 23.7067H20.9495C20.9645 23.6867 20.5295 22.84 20.0195 22.9067C19.4445 22.9267 19.0545 23.7067 19.0845 23.7067ZM25.0295 23.64H22.4795C22.4795 23.64 22.8095 23.3867 22.8995 23.1467C23.0645 23.2667 23.0195 23.3867 23.3495 23.4067C23.6795 23.4267 23.9945 22.9066 24.3095 22.9266C24.6245 22.9466 25.0295 23.66 25.0295 23.6467V23.64ZM14.9795 23.64H17.5295C17.5295 23.64 17.1995 23.3867 17.1095 23.1467C16.9445 23.2667 16.9895 23.3867 16.6595 23.4067C16.3295 23.4267 16.0095 22.9066 15.6995 22.9266C15.3845 22.9466 14.9795 23.66 14.9795 23.6467V23.64ZM15.1695 22.5733L16.9845 22.5933C16.9845 22.5933 16.8695 22.26 16.8545 21.8533C16.3845 21.64 16.0045 22.32 15.6645 22.34C15.3295 22.36 14.9795 21.8533 14.9795 21.8533L15.1695 22.5733ZM24.8695 22.5733L23.0495 22.5933C23.0495 22.5933 23.1645 22.26 23.1795 21.8533C23.6495 21.64 24.0295 22.32 24.3695 22.34C24.7045 22.36 25.0545 21.8533 25.0545 21.8533L24.8645 22.5733H24.8695ZM19.5495 22.6L20.4695 22.5667C20.4695 22.5667 20.4845 22.1933 20.0045 22.1933C19.5245 22.1933 19.5645 22.62 19.5495 22.6V22.6ZM18.9895 22.0733C19.1651 21.9709 19.3096 21.7923 19.3995 21.5667L18.7695 21.5866C18.7695 21.5866 18.4795 21.82 18.3345 22.0733H18.9895ZM21.0295 22.0733C20.8539 21.9709 20.7094 21.7923 20.6195 21.5667L21.2495 21.5866C21.2495 21.5866 21.5395 21.82 21.6845 22.0733H21.0295Z" fill="#083D9C"/>
<path fill-rule="evenodd" clip-rule="evenodd" d="M19.4845 21.4973L19.4444 21.5979C19.3492 21.8369 19.1962 22.026 19.0103 22.1344L19.0007 22.14H18.2342L18.2955 22.0329C18.3723 21.8987 18.4856 21.7726 18.5773 21.6815C18.6235 21.6356 18.6651 21.5978 18.6952 21.5714C18.7103 21.5582 18.7225 21.5478 18.7309 21.5407C18.7352 21.5372 18.7385 21.5344 18.7408 21.5326L18.7434 21.5304L18.7441 21.5298L18.7443 21.5297L18.7444 21.5296C18.7444 21.5296 18.7444 21.5296 18.7703 21.5867L18.7444 21.5296L18.7558 21.5204L19.4845 21.4973ZM18.785 21.6529C18.7847 21.6531 18.7844 21.6534 18.7841 21.6537C18.7762 21.6603 18.7646 21.6702 18.7502 21.6828C18.7213 21.7081 18.6814 21.7444 18.637 21.7885C18.5746 21.8505 18.5051 21.9262 18.4456 22.0067H18.9796C19.1137 21.9257 19.228 21.7973 19.3104 21.6362L18.785 21.6529ZM20.536 21.4973L21.2647 21.5204L21.2761 21.5296L21.2503 21.5867C21.2761 21.5296 21.2761 21.5296 21.2761 21.5296L21.2764 21.5298L21.2771 21.5304L21.2798 21.5326C21.282 21.5344 21.2854 21.5372 21.2896 21.5407C21.2981 21.5478 21.3103 21.5582 21.3253 21.5714C21.3554 21.5978 21.397 21.6356 21.4433 21.6815C21.5349 21.7726 21.6482 21.8987 21.725 22.0329L21.7863 22.14H21.0198L21.0102 22.1344C20.8243 22.026 20.6713 21.8369 20.5761 21.5979L20.536 21.4973ZM21.2355 21.6529C21.2358 21.6531 21.2361 21.6534 21.2364 21.6537C21.2444 21.6603 21.256 21.6702 21.2704 21.6828C21.2992 21.7081 21.3392 21.7444 21.3835 21.7885C21.4459 21.8505 21.5155 21.9262 21.575 22.0067H21.0409C20.9068 21.9257 20.7925 21.7973 20.7101 21.6362L21.2355 21.6529ZM16.1872 21.9509C16.3851 21.8038 16.6147 21.6737 16.8714 21.7902L16.9035 21.8048L16.9052 21.8501C16.9124 22.0463 16.9439 22.2257 16.9737 22.3564C16.9886 22.4217 17.003 22.4744 17.0136 22.5106C17.0189 22.5288 17.0233 22.5427 17.0263 22.552C17.0278 22.5567 17.0289 22.5602 17.0297 22.5624L17.0305 22.5649L17.0307 22.5654L17.0307 22.5655L17.0636 22.6609L15.1348 22.6396L14.9331 21.8755L15.017 21.8082C15.017 21.8082 15.017 21.8082 15.017 21.8082L15.0172 21.8084L15.0178 21.8092C15.0184 21.8101 15.0193 21.8114 15.0205 21.8131C15.023 21.8165 15.0267 21.8216 15.0316 21.8282C15.0413 21.8415 15.0558 21.8605 15.0742 21.8834C15.1112 21.9292 15.1638 21.99 15.2264 22.0501C15.3537 22.1723 15.5132 22.2824 15.663 22.2734C15.7368 22.2691 15.8163 22.2285 15.9054 22.1664C15.9576 22.1301 16.0085 22.0899 16.0618 22.0478C16.1018 22.0163 16.143 21.9837 16.1872 21.9509ZM15.0938 22.0826L15.2058 22.5071L16.911 22.5259C16.9012 22.4906 16.8898 22.4465 16.8781 22.3953C16.849 22.268 16.8181 22.0953 16.8075 21.9035C16.6064 21.83 16.4207 21.93 16.2359 22.0674C16.1972 22.0961 16.1573 22.1276 16.1173 22.159C16.0609 22.2034 16.0045 22.2478 15.9517 22.2846C15.8592 22.349 15.7637 22.4009 15.6675 22.4066C15.4824 22.4176 15.2993 22.2844 15.1679 22.1583C15.1414 22.1328 15.1165 22.1072 15.0938 22.0826ZM23.228 21.9035C23.2174 22.0953 23.1865 22.268 23.1575 22.3953C23.1458 22.4465 23.1343 22.4906 23.1245 22.5259L24.8297 22.5071L24.9418 22.0826C24.919 22.1072 24.8942 22.1328 24.8676 22.1583C24.7362 22.2844 24.5532 22.4177 24.368 22.4066C24.2718 22.4009 24.1763 22.349 24.0838 22.2846C24.031 22.2478 23.9746 22.2034 23.9182 22.159C23.8783 22.1276 23.8383 22.0961 23.7997 22.0674C23.6148 21.93 23.4291 21.83 23.228 21.9035ZM25.0186 21.8082L25.1024 21.8755L24.9124 22.5955L24.8705 22.5758L24.8707 22.64L24.8703 22.64L22.9719 22.6609M25.0186 21.8082C25.0185 21.8082 25.0185 21.8082 25.0185 21.8082ZM25.0185 21.8082L25.0184 21.8084L25.0178 21.8092C25.0172 21.8101 25.0163 21.8114 25.015 21.8131C25.0126 21.8165 25.0089 21.8216 25.004 21.8282C24.9942 21.8415 24.9797 21.8605 24.9613 21.8834C24.9243 21.9292 24.8718 21.99 24.8092 22.0501C24.6818 22.1723 24.5224 22.2824 24.3725 22.2734C24.2988 22.2691 24.2192 22.2285 24.1301 22.1664C24.0779 22.1301 24.027 22.0899 23.9737 22.0478C23.9338 22.0163 23.8925 21.9837 23.8484 21.9509C23.6504 21.8038 23.4209 21.6737 23.1642 21.7902L23.132 21.8048L23.1303 21.8501C23.1231 22.0463 23.0917 22.2257 23.0618 22.3564C23.0469 22.4217 23.0325 22.4744 23.0219 22.5106C23.0166 22.5288 23.0122 22.5427 23.0093 22.552C23.0085 22.5544 23.0078 22.5565 23.0073 22.5582C23.0067 22.5599 23.0062 22.5613 23.0059 22.5624L23.005 22.5649L23.0049 22.5654M19.5617 22.3673C19.6251 22.24 19.7531 22.1267 20.0053 22.1267C20.255 22.1267 20.388 22.2243 20.4567 22.3382C20.4904 22.3941 20.5064 22.4504 20.5138 22.4933C20.5175 22.5147 20.5192 22.5328 20.5199 22.5461C20.5202 22.5527 20.5203 22.5582 20.5203 22.5622C20.5203 22.5634 20.5203 22.5645 20.5203 22.5655C20.5203 22.5662 20.5203 22.5668 20.5203 22.5673L20.5202 22.5691L20.5202 22.5697L20.5202 22.57L20.5202 22.5701C20.5202 22.5702 20.5202 22.5702 20.4703 22.5667L20.5202 22.5702L20.5177 22.6316L19.5607 22.6663C19.5371 22.6727 19.5198 22.6536 19.5149 22.6471L19.5503 22.6L19.5489 22.5339C19.5435 22.5342 19.5377 22.5359 19.5315 22.5395C19.5209 22.5457 19.5148 22.5551 19.5119 22.5602C19.5089 22.5656 19.5073 22.5703 19.5066 22.5726C19.5055 22.5758 19.505 22.5786 19.5048 22.5796C19.5049 22.5791 19.505 22.5782 19.5052 22.5768C19.5054 22.5752 19.5057 22.5729 19.506 22.5701C19.5071 22.561 19.5089 22.5464 19.5113 22.5312C19.5179 22.4891 19.5311 22.4288 19.5617 22.3673ZM19.6142 22.531L20.4119 22.5021C20.406 22.4783 20.3959 22.4502 20.3788 22.4218C20.335 22.3491 20.2356 22.26 20.0053 22.26C19.7775 22.26 19.6854 22.36 19.645 22.4411C19.6294 22.4724 19.6201 22.5038 19.6142 22.531ZM21.0006 23.7072C21.0004 23.7148 20.9991 23.7359 20.9856 23.7538L20.971 23.7733H19.0853C19.074 23.7733 19.0593 23.7682 19.0478 23.7518C19.0374 23.7371 19.0347 23.7207 19.034 23.7119C19.0326 23.6958 19.0358 23.6824 19.0368 23.6779C19.0397 23.6656 19.0447 23.6524 19.0496 23.6407C19.0599 23.6158 19.0764 23.5826 19.0979 23.5445C19.141 23.4678 19.2071 23.3663 19.2926 23.2645C19.4623 23.0621 19.7138 22.8514 20.0172 22.8401C20.293 22.8051 20.5424 23.0156 20.7157 23.2247C20.8036 23.3307 20.8745 23.4394 20.9227 23.5233C20.9468 23.5652 20.9656 23.6016 20.9782 23.629C20.9843 23.6424 20.9897 23.6552 20.9934 23.666C20.9951 23.6711 20.9975 23.6785 20.999 23.6867C20.9997 23.6906 21.0008 23.698 21.0006 23.7072ZM20.6486 23.3236C20.4811 23.1215 20.2586 22.9425 20.0251 22.973L20.0234 22.9733L20.0216 22.9733C19.7507 22.9827 19.5204 23.1717 19.3592 23.3639C19.279 23.4595 19.2173 23.5543 19.1778 23.6245C19.1748 23.6298 19.172 23.635 19.1693 23.64H20.8632C20.8572 23.6289 20.8506 23.617 20.8433 23.6044C20.7983 23.526 20.7314 23.4235 20.6486 23.3236ZM23.6147 23.3987C23.53 23.4465 23.4407 23.4789 23.348 23.4733C23.1788 23.463 23.0965 23.4267 23.0346 23.3687C23.013 23.3484 22.9938 23.3251 22.9764 23.304C22.971 23.2974 22.9658 23.291 22.9607 23.2851C22.9477 23.2698 22.9338 23.2544 22.9172 23.2389C22.8594 23.3517 22.7657 23.4578 22.6864 23.5368C22.6736 23.5495 22.661 23.5618 22.6488 23.5733H24.9158C24.8741 23.5104 24.8181 23.4292 24.7539 23.3474C24.6848 23.2594 24.6073 23.172 24.5289 23.1058C24.4497 23.0389 24.3741 22.9975 24.3079 22.9933C24.2398 22.9889 24.169 23.0137 24.0937 23.0572C24.0192 23.1002 23.944 23.1592 23.865 23.2212L23.8612 23.2241C23.782 23.2863 23.6991 23.3511 23.6147 23.3987ZM25.0479 23.5733C25.0469 23.5718 25.0458 23.5701 25.0447 23.5684C25.0334 23.5507 25.0182 23.5268 24.9997 23.4987C24.9563 23.4326 24.8947 23.3424 24.8229 23.251C24.7513 23.1598 24.6685 23.0659 24.5824 22.9932C24.4971 22.9211 24.404 22.8659 24.3126 22.8601C24.2233 22.8544 24.1365 22.8872 24.0539 22.9349C23.9738 22.9812 23.8939 23.0438 23.8169 23.1042L23.8105 23.1092C23.7304 23.1721 23.653 23.2323 23.5757 23.2759C23.4987 23.3194 23.4249 23.3445 23.3525 23.3401C23.1918 23.3303 23.1316 23.2966 23.0922 23.2597C23.0761 23.2446 23.0634 23.2291 23.0474 23.2098C23.0412 23.2023 23.0345 23.1941 23.0269 23.1852C23.001 23.1546 22.9698 23.1213 22.9242 23.0881L22.8787 23.0551L22.8555 23.1169C22.8163 23.2214 22.7203 23.3366 22.6266 23.4299C22.581 23.4754 22.538 23.5136 22.5064 23.5405C22.4906 23.5539 22.4777 23.5644 22.4688 23.5716C22.4644 23.5751 22.4609 23.5779 22.4586 23.5797L22.4561 23.5817L22.4555 23.5821L22.4553 23.5822L22.2932 23.7067H25.008C25.0101 23.708 25.0131 23.7097 25.0167 23.7111C25.0211 23.7127 25.0305 23.7154 25.0421 23.7116C25.0559 23.7071 25.0674 23.6951 25.0741 23.6788C25.0797 23.6652 25.0803 23.6526 25.0803 23.6467V23.5733H25.0479ZM16.4341 23.2759C16.5115 23.3194 16.5857 23.3445 16.658 23.3401C16.8188 23.3303 16.879 23.2966 16.9184 23.2597C16.9344 23.2446 16.9472 23.2291 16.9631 23.2098C16.9693 23.2022 16.9761 23.1941 16.9837 23.1852C17.0095 23.1546 17.0408 23.1213 17.0863 23.0881L17.1318 23.0551L17.155 23.1169C17.1942 23.2214 17.2902 23.3366 17.3839 23.4299C17.4296 23.4754 17.4726 23.5136 17.5042 23.5405C17.52 23.5539 17.5329 23.5644 17.5417 23.5716C17.5462 23.5751 17.5496 23.5779 17.5519 23.5797L17.5545 23.5817L17.5551 23.5821L17.5552 23.5822M15.6979 22.8601C15.7861 22.8544 15.8723 22.8872 15.9546 22.9349C16.0339 22.9808 16.1132 23.0429 16.19 23.1029C16.1927 23.105 16.1954 23.1071 16.198 23.1092C16.2785 23.172 16.3563 23.2322 16.4341 23.2759" fill="#083D9C"/>
<path fill-rule="evenodd" clip-rule="evenodd" d="M1.99951 28H37.9995V36H1.99951V28ZM1.99951 4H37.9995V12H1.99951V4Z" fill="#DE2010"/>
</g>
<rect x="2" y="2" width="36" height="36" rx="18" stroke="white" stroke-width="4"/>
<defs>
<clipPath id="clip0_90_23095">
<rect x="4" y="4" width="32" height="32" rx="16" fill="white"/>
</clipPath>
</defs>
</svg>
