<svg width="40" height="40" viewBox="0 0 40 40" fill="none" xmlns="http://www.w3.org/2000/svg">
<g clip-path="url(#clip0_90_23086)">
<path fill-rule="evenodd" clip-rule="evenodd" d="M4.07969 4L4.05469 36H36.0547L4.07969 4Z" fill="black"/>
<path fill-rule="evenodd" clip-rule="evenodd" d="M36.0297 36L36.0547 4H4.05469L36.0297 36Z" fill="#FF0000"/>
<path d="M23.8123 11.963L23.3905 11.9335C23.2573 11.5206 22.891 11.3732 22.658 11.5501C22.2287 11.5502 21.7994 11.5404 21.3704 11.5206L22.1585 11.9778C22.3694 12.7003 23.0353 12.8478 23.0353 12.8478C22.9687 14.1455 22.0475 12.6856 21.2705 13.4229C20.7156 13.8653 20.7156 14.3814 20.4159 15.2367C20.316 15.4726 19.9275 16.092 19.9275 16.092L20.5824 16.0182L20.3715 16.3869L21.1484 16.2394L20.9819 16.4459C21.0929 16.4754 21.8699 16.1952 21.8699 16.1952L21.8144 16.5344L22.7024 16.1067C22.7024 16.1067 22.8799 16.2984 23.0353 16.3869L23.1463 15.797L23.5903 15.9445L23.7013 15.3547C24.3673 16.5344 24.5893 17.7141 25.8102 18.009L25.6992 17.4191C26.0238 17.6079 26.3457 17.8046 26.6649 18.009L26.7648 17.7583C27.2975 18.2597 27.7304 18.2449 28.0301 18.3039L27.8081 17.5666L28.0301 17.7141L27.6971 16.5344L28.0301 16.6818L27.5861 15.797L27.7526 15.6496L27.6971 15.2072C28.3631 15.5021 29.251 15.9445 29.362 16.9767C29.473 18.5988 28.1411 19.0412 27.2531 18.8938C27.9191 19.6311 29.14 19.3361 29.695 18.5988C29.917 18.3039 30.028 17.8615 30.139 17.4191C30.25 17.8615 30.472 18.4514 30.472 19.0412C30.361 20.3684 29.029 20.8108 28.1411 20.9582C29.14 21.6955 30.9159 20.8108 31.0269 18.8938C31.0269 17.2717 30.25 16.5344 29.917 15.797L29.806 15.0007L30.139 15.2072C30.139 15.2072 29.9392 14.7206 29.917 14.6173C29.917 14.6173 29.5729 13.3639 29.4508 13.0837L29.695 13.1427L28.7849 11.6238L29.0401 11.5944C29.0401 11.5944 27.9857 10.4884 27.6971 10.3409L28.0301 10.1935C27.3641 9.75107 26.5872 10.046 25.9212 10.6358L26.0322 10.1935L25.8324 10.223V9.70683L26.0322 9.30868L25.6992 9.16122L25.9212 8.42391L25.5882 8.57137L25.6992 7.83406C25.6992 7.83406 25.455 7.98152 25.2996 7.96677C25.3634 7.80256 25.4226 7.63533 25.4772 7.4654C25.3662 7.24421 25.4772 6.80182 25.4772 6.80182C24.7003 6.94928 24.5893 7.09674 24.1453 7.98152C23.4793 9.60361 23.7013 10.3409 23.8123 11.963Z" fill="#FFCC00"/>
<path fill-rule="evenodd" clip-rule="evenodd" d="M25.3937 6.90036C25.0631 6.96832 24.8743 7.04065 24.7205 7.1821C24.5518 7.33722 24.4195 7.58025 24.197 8.02373C23.8688 8.82394 23.7614 9.40064 23.7479 9.97485C23.7386 10.3661 23.7726 10.754 23.8129 11.2149C23.8327 11.4412 23.854 11.6851 23.8725 11.9557L23.8789 12.0491L23.349 12.0121L23.3341 11.9657C23.214 11.5936 22.8866 11.4697 22.6876 11.6208L22.6736 11.6314L22.6575 11.6314C22.3332 11.6315 22.0089 11.6259 21.6847 11.6147L22.2056 11.9168L22.2148 11.9483C22.3126 12.2834 22.5169 12.4885 22.7025 12.6109C22.7949 12.6719 22.8812 12.7113 22.9443 12.7354C22.9758 12.7474 23.0014 12.7556 23.0189 12.7607C23.0276 12.7633 23.0343 12.7651 23.0388 12.7662C23.0401 12.7665 23.0412 12.7668 23.042 12.767C23.0427 12.7672 23.0432 12.7673 23.0436 12.7674L23.0447 12.7676L23.0448 12.7677L23.0449 12.7677C23.0449 12.7677 23.0449 12.7677 23.0449 12.7677L23.0994 12.7798L23.0956 12.8534C23.0785 13.1868 23.0045 13.3819 22.8628 13.457C22.7961 13.4923 22.7217 13.4963 22.6461 13.4865C22.5705 13.4767 22.4883 13.4521 22.4042 13.4244C22.3816 13.417 22.3588 13.4093 22.3358 13.4016C22.0085 13.2916 21.643 13.1687 21.3054 13.4891L21.3034 13.491L21.3013 13.4927C21.0351 13.7049 20.904 13.9319 20.8017 14.2107C20.7514 14.3478 20.7082 14.4971 20.6593 14.6664L20.6542 14.684C20.6033 14.8596 20.5465 15.0545 20.4706 15.2711L20.4696 15.2739L20.4684 15.2767C20.4157 15.4013 20.2903 15.6204 20.1815 15.8033C20.1396 15.8738 20.0995 15.9399 20.066 15.9948L20.7136 15.9219L20.5096 16.2786L21.3317 16.1225L21.1572 16.339C21.2439 16.3172 21.3497 16.2855 21.4529 16.2526C21.5564 16.2196 21.6566 16.1856 21.731 16.1599C21.7681 16.147 21.7988 16.1363 21.8202 16.1287C21.8308 16.1249 21.8392 16.1219 21.8449 16.1199L21.8535 16.1168C21.8535 16.1168 21.8535 16.1168 21.8694 16.1952L21.8535 16.1168L21.9503 16.0819L21.897 16.408L22.7135 16.0148L22.7402 16.0436L22.7403 16.0437L22.7406 16.044L22.7419 16.0454C22.7432 16.0468 22.745 16.0487 22.7475 16.0513C22.7524 16.0565 22.7597 16.064 22.7689 16.0734C22.7875 16.0922 22.8138 16.1182 22.8448 16.1469C22.8891 16.1878 22.9416 16.2329 22.994 16.2703L23.1015 15.6986L23.5455 15.8461L23.6728 15.1699L23.7495 15.3058C23.9097 15.5897 24.0444 15.8733 24.172 16.142C24.1784 16.1554 24.1847 16.1688 24.1911 16.1822C24.3248 16.4637 24.4514 16.7271 24.5945 16.9625C24.863 17.4042 25.1896 17.7471 25.7272 17.9042L25.6094 17.2786L25.7231 17.3447C26.0304 17.5235 26.3355 17.7093 26.638 17.9021L26.7429 17.6388L26.7994 17.692C27.2348 18.1017 27.5972 18.1556 27.8837 18.1982C27.9009 18.2008 27.9178 18.2033 27.9344 18.2058L27.6914 17.3986L27.9179 17.5491L27.5946 16.4036L27.8801 16.53L27.501 15.7745L27.6855 15.6111L27.6198 15.0876L27.7158 15.1301C28.0486 15.2775 28.444 15.4646 28.7704 15.7474C29.0975 16.0308 29.3629 16.4171 29.4219 16.9653L29.4221 16.9673L29.4222 16.9694C29.4511 17.3908 29.3863 17.7404 29.2556 18.0239C29.1254 18.3066 28.9321 18.5185 28.7096 18.6711C28.339 18.9252 27.8817 19.0189 27.4772 18.9991C27.7725 19.215 28.142 19.2776 28.5079 19.2187C28.9554 19.1466 29.3857 18.8945 29.6515 18.5413C29.8613 18.2626 29.9685 17.8408 30.0807 17.3934L30.1385 17.1631L30.1963 17.3934C30.2221 17.4961 30.254 17.6073 30.2884 17.7268L30.2943 17.7472C30.3307 17.8739 30.3693 18.009 30.4044 18.1491C30.4746 18.4289 30.5324 18.7335 30.5324 19.0413V19.0458L30.532 19.0503C30.4732 19.7541 30.0902 20.2149 29.6239 20.5153C29.227 20.771 28.7607 20.9169 28.3554 21.0004C28.8127 21.2273 29.391 21.1639 29.8904 20.848C30.4577 20.4891 30.9112 19.8119 30.9655 18.8907C30.965 18.1008 30.7762 17.5271 30.5454 17.0582C30.4305 16.8247 30.3054 16.6175 30.1865 16.4207L30.183 16.4148C30.0639 16.2177 29.9501 16.029 29.8643 15.839L29.8586 15.8264L29.724 14.8606L29.9984 15.0308C29.9929 15.017 29.9874 15.0029 29.9818 14.9886C29.9553 14.9211 29.928 14.8497 29.9057 14.7885C29.8851 14.7317 29.8664 14.677 29.8586 14.6429L29.8554 14.6313C29.8529 14.6221 29.8491 14.6085 29.8443 14.5911C29.8347 14.5564 29.8208 14.5064 29.8038 14.4456C29.7696 14.3239 29.7229 14.1588 29.6724 13.985C29.5703 13.6338 29.4557 13.2578 29.3976 13.1246L29.3314 12.9725L29.5455 13.0242L28.6657 11.556L28.8796 11.5313C28.8652 11.5165 28.8497 11.5006 28.8332 11.4837C28.7301 11.3779 28.5896 11.2354 28.4402 11.0884C28.2907 10.9412 28.1326 10.79 27.9943 10.6665C27.8541 10.5414 27.7396 10.4499 27.6748 10.4168L27.5156 10.3355L27.8589 10.1835C27.2544 9.88586 26.5644 10.1633 25.9544 10.7036L25.8066 10.8345L25.9437 10.2882L25.771 10.3137V9.6822L25.9366 9.35221L25.618 9.21115L25.8152 8.55629L25.5073 8.69263L25.6169 7.96464C25.6041 7.97075 25.5904 7.97701 25.5761 7.98323C25.4949 8.01858 25.3852 8.05644 25.2948 8.04786L25.2025 8.0391L25.245 7.92946C25.3034 7.77905 25.358 7.62608 25.4086 7.4708C25.3853 7.4097 25.3739 7.34175 25.3692 7.27617C25.3635 7.19541 25.3674 7.11277 25.3747 7.03993C25.3799 6.98834 25.3869 6.94056 25.3937 6.90036ZM25.6736 7.76008L25.7819 7.6947L25.6681 8.45019L26.0262 8.29161L25.7794 9.11138L26.1268 9.26524L25.8929 9.73155V10.1323L26.1197 10.0988L26.0328 10.4452C26.6739 9.93136 27.4113 9.69203 28.0568 10.1208L28.1889 10.2086L27.8546 10.3566C27.9165 10.4045 27.9874 10.4649 28.0621 10.5315C28.2027 10.6569 28.3624 10.8098 28.5125 10.9576C28.6628 11.1055 28.804 11.2487 28.9075 11.3549C28.9593 11.408 29.0017 11.4519 29.0312 11.4825C29.046 11.4978 29.0575 11.5098 29.0653 11.518L29.0773 11.5305L29.0773 11.5305C29.0773 11.5305 29.0773 11.5305 29.0397 11.5944L29.0773 11.5305L29.1985 11.6576L28.903 11.6917L29.8436 13.2613L29.5596 13.1927C29.6247 13.3808 29.7105 13.6663 29.786 13.9263C29.8368 14.1009 29.8837 14.2666 29.9179 14.3887C29.935 14.4498 29.949 14.4999 29.9587 14.5348C29.9635 14.5523 29.9673 14.5659 29.9698 14.5752L29.9737 14.5894C29.9737 14.5894 29.9737 14.5895 29.9165 14.6174L29.9737 14.5895L29.9745 14.5922L29.9751 14.595C29.9789 14.6128 29.993 14.656 30.0154 14.7177C30.0369 14.7767 30.0636 14.8464 30.0898 14.9134C30.116 14.9803 30.1416 15.044 30.1606 15.0911C30.1701 15.1146 30.1779 15.1339 30.1834 15.1473L30.1897 15.1628L30.1918 15.1679L30.1919 15.1681L30.1919 15.1682L30.281 15.3852L29.887 15.1409L29.9744 15.7676C30.0545 15.9422 30.1604 16.1184 30.2779 16.3129L30.2828 16.321C30.4008 16.5165 30.5291 16.7289 30.6473 16.9691C30.888 17.4581 31.0874 18.0632 31.0874 18.8938V18.8969L31.0872 18.9001C31.0297 19.8942 30.5401 20.6168 29.9426 20.9948C29.3468 21.3718 28.6318 21.4137 28.1111 21.0294L27.9473 20.9085L28.1331 20.8777C28.5746 20.8043 29.1219 20.6582 29.5709 20.369C30.0192 20.0802 30.3572 19.6576 30.4105 19.0367C30.41 18.7561 30.357 18.4725 30.2888 18.2007C30.2546 18.0643 30.2169 17.9322 30.1805 17.8054L30.1742 17.7837C30.1627 17.7437 30.1514 17.7042 30.1404 17.6654C30.0449 18.0327 29.9326 18.3973 29.7375 18.6564C29.4484 19.0406 28.9907 19.3046 28.5225 19.38C28.0543 19.4554 27.5638 19.3439 27.2137 18.9563L27.0534 18.7788L27.2602 18.8132C27.6953 18.8854 28.2373 18.8123 28.6538 18.5266C28.8614 18.3843 29.0358 18.1907 29.1518 17.9388C29.2672 17.6883 29.3273 17.3749 29.301 16.9863C29.2485 16.5032 29.0146 16.1528 28.704 15.8836C28.4218 15.6391 28.0824 15.4671 27.7735 15.3273L27.8187 15.6882L27.6703 15.8197L28.1791 16.8337L27.7987 16.6652L28.1413 17.8791L27.9239 17.7346L28.1257 18.405L28.0207 18.3843C27.9754 18.3754 27.9262 18.3682 27.8735 18.3604C27.5977 18.3199 27.2243 18.265 26.7861 17.8767L26.6907 18.116L26.638 18.0823C26.3568 17.9022 26.0735 17.7281 25.7881 17.5602L25.8918 18.1114L25.7989 18.089C25.1717 17.9375 24.7988 17.5566 24.4998 17.0648C24.3516 16.821 24.2214 16.5497 24.0881 16.2691C24.082 16.2562 24.0758 16.2432 24.0697 16.2303C23.9629 16.0053 23.8531 15.7742 23.7284 15.5421L23.6341 16.043L23.1901 15.8955L23.0766 16.499L23.0109 16.4617C22.9275 16.4142 22.8403 16.3404 22.7754 16.2804C22.7426 16.2501 22.7148 16.2227 22.6951 16.2028C22.6937 16.2013 22.6923 16.1998 22.6909 16.1984L21.7309 16.6608L21.7886 16.3078C21.7801 16.3108 21.771 16.3139 21.7616 16.3172C21.6868 16.3431 21.5858 16.3773 21.4812 16.4107C21.3768 16.4439 21.2682 16.4766 21.1783 16.499C21.1334 16.5103 21.0923 16.5192 21.0584 16.5243C21.0271 16.5291 20.9939 16.5321 20.9695 16.5256L20.8527 16.4946L20.9641 16.3564L20.2323 16.4953L20.4501 16.1147L19.7865 16.1894L19.8803 16.0399L19.8803 16.0398L19.8846 16.033C19.8874 16.0284 19.8916 16.0217 19.897 16.0131C19.9077 15.9958 19.9232 15.9708 19.9421 15.94C19.98 15.8785 20.0314 15.7941 20.086 15.7024C20.1955 15.5181 20.3133 15.3114 20.3612 15.1994C20.4346 14.9895 20.4899 14.8001 20.5405 14.6255L20.5464 14.6049C20.5947 14.4381 20.6396 14.2829 20.6922 14.1393C20.8034 13.8363 20.9493 13.5846 21.2367 13.3548C21.6217 12.9914 22.0409 13.1336 22.3604 13.2421C22.3854 13.2506 22.4097 13.2588 22.4334 13.2666C22.5172 13.2942 22.5919 13.3162 22.658 13.3248C22.7242 13.3334 22.7766 13.3278 22.8178 13.306C22.886 13.2698 22.9475 13.1742 22.9694 12.9123C22.9529 12.907 22.9331 12.9002 22.9107 12.8916C22.8424 12.8655 22.7489 12.8229 22.6485 12.7566C22.454 12.6283 22.2272 12.4074 22.1109 12.0391L21.3456 11.5952L21.372 11.4395C21.7952 11.459 22.2186 11.4688 22.642 11.4689C22.8996 11.2896 23.2745 11.4441 23.4298 11.855L23.7445 11.877C23.7284 11.6537 23.7102 11.4456 23.693 11.2486C23.6521 10.7798 23.6166 10.3731 23.626 9.96976C23.6403 9.36503 23.7546 8.76279 24.0913 7.94255L24.0926 7.93938L24.0942 7.93638C24.3146 7.497 24.4596 7.22466 24.6513 7.04834C24.8446 6.87057 25.0796 6.79517 25.4681 6.72142L25.5658 6.70288L25.5345 6.82758L25.5345 6.82768L25.5343 6.82835L25.5336 6.83151C25.5329 6.8344 25.5319 6.83883 25.5305 6.84464C25.5279 6.85627 25.5243 6.87338 25.5201 6.89469C25.5119 6.93745 25.502 6.99639 25.4955 7.06148C25.4889 7.12688 25.486 7.19632 25.4906 7.26071C25.4952 7.32564 25.5072 7.38012 25.5274 7.42026L25.5458 7.45691L25.5327 7.49744C25.4917 7.62516 25.4481 7.75137 25.4019 7.87595C25.4465 7.86538 25.494 7.84802 25.5383 7.82875C25.5769 7.81193 25.611 7.79464 25.6354 7.78154C25.6475 7.775 25.6573 7.76955 25.6638 7.76577C25.6671 7.76388 25.6697 7.76241 25.6713 7.76144L25.6731 7.76036L25.6735 7.76012L25.6736 7.76008Z" fill="#FFCC00"/>
<path fill-rule="evenodd" clip-rule="evenodd" d="M28.0072 14.3814C28.0627 14.5141 28.6954 14.9123 29.1615 15.2662C29.0395 14.5879 28.1182 14.4404 28.0072 14.3814Z" fill="#FF0000"/>
<path fill-rule="evenodd" clip-rule="evenodd" d="M27.834 14.1776L28.0367 14.2853C28.0438 14.2891 28.0635 14.2961 28.1018 14.3077C28.1133 14.3113 28.1261 14.3151 28.1401 14.3193C28.1683 14.3277 28.2009 14.3375 28.2359 14.3485C28.341 14.3816 28.474 14.428 28.6081 14.4947C28.7418 14.5611 28.88 14.6495 28.994 14.7687C29.1083 14.8883 29.202 15.0431 29.2378 15.2421L29.2795 15.4742L29.124 15.356C28.9663 15.2363 28.7902 15.1121 28.6227 14.9939C28.5437 14.9382 28.4667 14.8838 28.3944 14.8319C28.2826 14.7516 28.1819 14.6771 28.1054 14.6138C28.0671 14.5822 28.0335 14.5522 28.0069 14.5248C27.9831 14.5002 27.9556 14.4684 27.9403 14.4318L27.834 14.1776ZM28.4629 14.6462C28.4646 14.6474 28.4663 14.6486 28.4679 14.6498C28.5382 14.7002 28.614 14.7538 28.6924 14.8091C28.7773 14.869 28.8651 14.9309 28.9518 14.9932C28.9351 14.9719 28.9172 14.9513 28.8982 14.9314C28.8016 14.8304 28.6797 14.751 28.5539 14.6884C28.5235 14.6733 28.4931 14.6593 28.4629 14.6462Z" fill="#FF0000"/>
<path fill-rule="evenodd" clip-rule="evenodd" d="M12.7501 30.6L12.0401 30L11.0901 30.6067L11.3051 29.5267L10.5801 28.52L11.4151 28.4534L11.9151 27.2267L12.2201 28.26L13.2551 28.5134L12.6051 29.22L12.7501 30.6ZM14.5601 25.3334L14.2301 25.1334L13.9151 25.3734L13.9651 24.8934L13.6951 24.5667L14.0501 24.48L14.2001 24.04L14.3751 24.4667L14.7351 24.52L14.4851 24.8667L14.5601 25.3334ZM16.1601 22.32L15.4351 21.8534L14.7401 22.3734L14.8551 21.3267L14.2651 20.6067L15.0501 20.42L15.3801 19.46L15.7601 20.3934L16.5501 20.5134L16.0001 21.28L16.1601 22.32ZM12.8701 18.12L12.0201 17.5534L11.1951 18.16L11.3351 16.92L10.6451 16.0534L11.5801 15.8534L11.9801 14.72L12.4151 15.8334L13.3551 15.9867L12.6901 16.88L12.8701 18.12ZM9.83009 22.48L8.98009 21.8134L8.13009 22.5L8.34509 21.2134L7.59009 20.3467L8.57509 20.2267L8.96009 19.0067L9.35509 20.22L10.3451 20.3267L9.60009 21.1934L9.83009 22.48Z" fill="white"/>
</g>
<rect x="2" y="2" width="36" height="36" rx="18" stroke="white" stroke-width="4"/>
<defs>
<clipPath id="clip0_90_23086">
<rect x="4" y="4" width="32" height="32" rx="16" fill="white"/>
</clipPath>
</defs>
</svg>
