<svg width="40" height="40" viewBox="0 0 40 40" fill="none" xmlns="http://www.w3.org/2000/svg">
<g clip-path="url(#clip0_90_23081)">
<path d="M4 4H36V20H4V4Z" fill="#0038A8"/>
<path d="M3.99976 20H35.9998V36H3.99976V20Z" fill="#CE1126"/>
<path d="M24.785 20L4 36V4" fill="white"/>
<path d="M5.33532 6.82672L6.05032 7.66672L6.88032 7.05339L6.51032 8.22005L7.21032 9.08672L6.26032 8.98005L5.85532 10.1267L5.64032 8.89339L4.70032 8.73339L5.51532 8.06672L5.33532 6.82672ZM21.5253 18.3134L21.5453 19.5801L22.4453 20.0001L21.5453 20.4134L21.5253 21.6801L20.9503 20.6734L20.0403 21.0401L20.5803 20.0001L20.0403 18.9601L20.9503 19.3267L21.5253 18.3134ZM5.86032 29.8734L6.26032 31.0201L7.21032 30.9134L6.51532 31.7801L6.88532 32.9467L6.05532 32.3401L5.33532 33.1667L5.51532 31.9201L4.70032 31.2667L5.64532 31.1067L5.86032 29.8734ZM11.5703 13.2734L11.2603 13.6867L11.4153 16.8201L11.2653 16.8401L10.9803 13.9801L10.7253 14.3134L11.1053 16.8734C10.798 16.954 10.5058 17.1149 10.2453 17.3467L9.16032 15.1867H8.80032L10.1203 17.4734C10.0792 17.5161 10.0392 17.5606 10.0003 17.6067L8.44532 15.2401H8.00532V15.8267L9.77532 17.8934L9.67532 18.0601L7.96032 16.3067V16.7801L9.58532 18.2267C9.41532 18.5734 9.29032 18.9601 9.23032 19.3734L7.31532 18.8667L7.06032 19.2001L9.20532 19.5801C9.19532 19.6467 9.19032 19.7201 9.19032 19.7867L6.84032 19.5867L6.53032 20.0001L6.84032 20.4134L9.19032 20.2067L9.20532 20.4134L7.06032 20.7934L7.31032 21.1267L9.23032 20.6201C9.29079 21.0297 9.41144 21.4194 9.58532 21.7667L7.96032 23.2134V23.6934L9.67532 21.9401C9.70734 21.9948 9.74069 22.0482 9.77532 22.1001L8.00532 24.1667V24.7534H8.45032L10.0003 22.3934L10.1253 22.5267L8.80032 24.8134H9.16032L10.2453 22.6467C10.5003 22.8734 10.7953 23.0401 11.1053 23.1201L10.7253 25.6801L10.9753 26.0134L11.2603 23.1534C11.3103 23.1667 11.3603 23.1734 11.4153 23.1734L11.2653 26.3067L11.5703 26.7201L11.8853 26.3067L11.7303 23.1734L11.8803 23.1534L12.1653 26.0201L12.4203 25.6801L12.0403 23.1201C12.3476 23.0394 12.6399 22.8786 12.9003 22.6467L13.9853 24.8134H14.3453L13.0253 22.5267C13.0664 22.484 13.1064 22.4396 13.1453 22.3934L14.7003 24.7534H15.1403V24.1667L13.3703 22.1001L13.4703 21.9401L15.1853 23.6934V23.2134L13.5603 21.7667C13.7303 21.4267 13.8553 21.0334 13.9153 20.6201L15.8303 21.1267L16.0853 20.7934L13.9403 20.4134C13.9503 20.3467 13.9553 20.2801 13.9553 20.2067L16.3053 20.4067L16.6153 20.0001L16.3053 19.5867L13.9553 19.7867L13.9403 19.5867L16.0853 19.2067L15.8353 18.8734L13.9153 19.3734C13.8548 18.9637 13.7342 18.574 13.5603 18.2267L15.1853 16.7801V16.3067L13.4703 18.0601C13.4383 18.0053 13.4049 17.9519 13.3703 17.9001L15.1403 15.8334V15.2401H14.7003L13.1503 17.6067C13.1098 17.5604 13.0681 17.516 13.0253 17.4734L14.3453 15.1867H13.9853L12.9003 17.3467C12.6453 17.1201 12.3503 16.9534 12.0403 16.8734L12.4203 14.3201L12.1703 13.9867L11.8853 16.8401L11.7303 16.8201L11.8803 13.6867L11.5703 13.2734Z" fill="#FCD116"/>
</g>
<rect x="2" y="2" width="36" height="36" rx="18" stroke="white" stroke-width="4"/>
<defs>
<clipPath id="clip0_90_23081">
<rect x="4" y="4" width="32" height="32" rx="16" fill="white"/>
</clipPath>
</defs>
</svg>
