<svg width="40" height="40" viewBox="0 0 40 40" fill="none" xmlns="http://www.w3.org/2000/svg">
<g clip-path="url(#clip0_90_23074)">
<path fill-rule="evenodd" clip-rule="evenodd" d="M1.99695 4H37.9969V36H1.99695V4Z" fill="#0C590B"/>
<path fill-rule="evenodd" clip-rule="evenodd" d="M1.99695 4H11.0204V36H1.99695V4Z" fill="white"/>
<path fill-rule="evenodd" clip-rule="evenodd" d="M25.3735 18.0875L23.911 17.675L23.1423 19.3812L22.9829 17.4062L21.5298 16.9562L22.8892 16.1437L22.7626 14.1625L23.7657 15.6375L25.1392 14.8625L24.3938 16.5875L25.3782 18.0875H25.3735Z" fill="white"/>
<path fill-rule="evenodd" clip-rule="evenodd" d="M25.922 23.125C25.6101 24.0326 25.1666 24.8491 24.6172 25.5274C24.0678 26.2057 23.4232 26.7325 22.7205 27.0776C22.0179 27.4226 21.271 27.579 20.5228 27.5378C19.7747 27.4966 19.04 27.2586 18.3611 26.8375C16.9836 25.9871 15.9159 24.442 15.3929 22.5421C14.8698 20.6421 14.9343 18.5429 15.572 16.7063C15.8888 15.7621 16.3502 14.9168 16.9266 14.2247C17.503 13.5326 18.1816 13.009 18.9189 12.6875C18.7259 12.9018 18.5413 13.1292 18.3658 13.3687C17.4512 14.7192 16.9658 16.4904 17.0117 18.3088C17.0576 20.1273 17.6314 21.8509 18.612 23.1162C19.5926 24.3815 20.9034 25.0897 22.268 25.0913C23.6326 25.0929 24.9444 24.388 25.9267 23.125H25.922Z" fill="white"/>
</g>
<rect x="2" y="2" width="36" height="36" rx="18" stroke="white" stroke-width="4"/>
<defs>
<clipPath id="clip0_90_23074">
<rect x="4" y="4" width="32" height="32" rx="16" fill="white"/>
</clipPath>
</defs>
</svg>
