<svg width="40" height="40" viewBox="0 0 40 40" fill="none" xmlns="http://www.w3.org/2000/svg">
<g clip-path="url(#clip0_90_22904)">
<path d="M16.7999 4H35.9999V36H16.7999V4Z" fill="#FF0000"/>
<path d="M4 4H16.8V36H4V4Z" fill="#006600"/>
<path fill-rule="evenodd" clip-rule="evenodd" d="M20.9749 24.4134C19.3599 24.3467 11.9749 18.2 11.9249 17.2134L12.3299 16.3134C13.0649 17.7334 20.6149 23.7134 21.3599 23.5L20.9749 24.4134Z" fill="#FFFF00"/>
<path fill-rule="evenodd" clip-rule="evenodd" d="M12.3294 16.2933C12.3345 16.2931 12.3394 16.2964 12.3423 16.302C12.4328 16.4768 12.6295 16.724 12.9078 17.023C13.1856 17.3216 13.5434 17.6705 13.9547 18.0489C14.7771 18.8055 15.8128 19.6792 16.8488 20.502C17.8849 21.3248 18.9211 22.0964 19.7448 22.6489C20.1566 22.9252 20.5151 23.1465 20.7936 23.2921C20.9329 23.3649 21.0519 23.4185 21.1475 23.4507C21.2437 23.483 21.3139 23.4927 21.3568 23.4804C21.3625 23.4788 21.3685 23.4818 21.372 23.4881C21.3755 23.4945 21.3759 23.5029 21.373 23.5098L20.988 24.4231C20.9853 24.4296 20.98 24.4336 20.9744 24.4333C20.77 24.4249 20.476 24.3205 20.1192 24.144C19.762 23.9673 19.3403 23.7176 18.88 23.4169C17.9592 22.8155 16.8827 22.0098 15.8552 21.1754C14.8278 20.341 13.8491 19.4778 13.124 18.7613C12.7615 18.4031 12.4621 18.0812 12.2516 17.8178C12.1464 17.6862 12.0631 17.5687 12.0052 17.4683C11.9478 17.3687 11.9134 17.2828 11.9099 17.2147C11.9097 17.2106 11.9105 17.2065 11.912 17.203L12.3171 16.303C12.3197 16.2972 12.3243 16.2936 12.3294 16.2933ZM12.331 16.3498L11.9403 17.218C11.9448 17.2729 11.9739 17.3485 12.0289 17.4439C12.0855 17.5419 12.1675 17.6577 12.2722 17.7887C12.4814 18.0505 12.7798 18.3713 13.1419 18.7291C13.866 19.4447 14.8439 20.3073 15.8708 21.1413C16.8978 21.9752 17.9734 22.7803 18.8932 23.381C19.353 23.6814 19.7737 23.9305 20.1296 24.1065C20.4806 24.2802 20.7673 24.382 20.9663 24.3929L21.3322 23.5249C21.2837 23.5287 21.2187 23.5159 21.1401 23.4894C21.0429 23.4567 20.9226 23.4024 20.7827 23.3293C20.5029 23.1831 20.1435 22.9612 19.7313 22.6846C18.9068 22.1315 17.8699 21.3594 16.8335 20.5364C15.797 19.7133 14.7608 18.8391 13.9376 18.0818C13.5261 17.7031 13.1676 17.3536 12.889 17.0542C12.6235 16.7688 12.4292 16.5278 12.331 16.3498Z" fill="black"/>
<path fill-rule="evenodd" clip-rule="evenodd" d="M12.2452 16.1867C12.1002 16.7067 14.1752 18.4134 16.6652 20.44C19.1602 22.46 21.3102 23.7067 21.4652 23.5334L21.5402 23.3467C21.5102 23.4134 21.4402 23.4334 21.3252 23.3867C20.6502 23.1267 18.8952 22.0534 16.7202 20.2934C14.5402 18.5334 12.6502 16.9134 12.3552 16.2267C12.3322 16.1623 12.3219 16.0912 12.3252 16.02H12.3152L12.2552 16.1667L12.2452 16.1867V16.1867ZM21.0102 24.44C20.9852 24.5067 20.9302 24.5067 20.8352 24.4934C20.2352 24.4067 18.4052 23.22 16.2402 21.4934C13.7202 19.48 11.6402 17.6534 11.8702 17.1734L11.9302 17.0267L11.9402 17.0334C11.7402 17.8467 16.0452 21.1267 16.3002 21.34C18.7902 23.3934 20.8902 24.6 21.0752 24.2867L21.0102 24.44V24.44Z" fill="#FFFF00"/>
<path fill-rule="evenodd" clip-rule="evenodd" d="M12.302 16.0104C12.3047 16.004 12.3097 16 12.3152 16H12.3252C12.3293 16 12.3333 16.0023 12.3361 16.0063C12.339 16.0103 12.3404 16.0157 12.3402 16.0212C12.337 16.0888 12.3468 16.1563 12.3685 16.2174C12.4409 16.3854 12.6122 16.6132 12.8646 16.8888C13.1169 17.1642 13.4485 17.4857 13.8393 17.841C14.6208 18.5515 15.638 19.3963 16.728 20.2762L16.728 20.2762C18.9027 22.036 20.6563 23.1082 21.3294 23.3675L21.3296 23.3675C21.3859 23.3904 21.4297 23.3963 21.4622 23.3894C21.4942 23.3827 21.515 23.3638 21.5273 23.3364C21.5315 23.3271 21.5405 23.3239 21.5476 23.3293C21.5547 23.3346 21.5573 23.3465 21.5534 23.3561L21.4784 23.5428C21.4775 23.545 21.4763 23.547 21.4748 23.5487C21.4608 23.5644 21.4385 23.5695 21.4131 23.5694C21.3868 23.5692 21.3535 23.5635 21.3138 23.5526C21.2343 23.5309 21.1271 23.4882 20.9957 23.426C20.7327 23.3017 20.3709 23.0987 19.9363 22.8273C19.0671 22.2845 17.9053 21.4674 16.6574 20.4571L16.6574 20.4571C15.4125 19.4438 14.2709 18.5102 13.4586 17.7648C13.0525 17.3922 12.7282 17.0661 12.5143 16.8003C12.4074 16.6674 12.3274 16.5488 12.2787 16.4463C12.2304 16.3447 12.2104 16.2539 12.2311 16.1797L12.2452 16.1867L12.2327 16.1756L12.2423 16.1563L12.302 16.0104ZM12.2587 16.1957C12.244 16.2513 12.2575 16.327 12.304 16.4249C12.3507 16.5232 12.4286 16.639 12.5347 16.771C12.7469 17.0347 13.0698 17.3595 13.4756 17.7319C14.287 18.4765 15.4279 19.4095 16.673 20.4229C17.9201 21.4326 19.0808 22.2489 19.9491 22.7911C20.3832 23.0622 20.744 23.2646 21.0057 23.3883C21.1366 23.4502 21.2423 23.4923 21.3198 23.5134C21.3586 23.524 21.3898 23.5293 21.4132 23.5294C21.4349 23.5294 21.4474 23.5251 21.4536 23.5199L21.4937 23.4201C21.4854 23.424 21.4764 23.4269 21.4669 23.4289C21.4282 23.4371 21.3795 23.4296 21.321 23.4058C20.6439 23.145 18.8876 22.0706 16.7124 20.3104C15.6224 19.4304 14.6046 18.5852 13.8224 17.874C13.4313 17.5185 13.0988 17.1962 12.8456 16.9197C12.5929 16.6439 12.4175 16.4118 12.3422 16.2366C12.342 16.2362 12.3418 16.2357 12.3417 16.2353C12.3235 16.1845 12.3129 16.1297 12.3102 16.0739L12.2684 16.1762C12.2682 16.1768 12.2679 16.1773 12.2677 16.1778L12.2587 16.1957ZM11.917 17.0171C11.9209 17.0076 11.9297 17.004 11.9369 17.0088L11.9469 17.0154C11.9536 17.0199 11.9568 17.0301 11.9545 17.0396C11.9435 17.0842 11.9474 17.1396 11.9673 17.206C11.9872 17.2723 12.0224 17.3476 12.0715 17.4308C12.1696 17.5971 12.3214 17.7918 12.5109 18.0041C12.8896 18.4285 13.4164 18.9209 13.9578 19.3949C14.8194 20.1493 15.716 20.8554 16.1115 21.1669C16.2132 21.247 16.2818 21.301 16.3082 21.323C17.5527 22.3493 18.6996 23.1639 19.5583 23.6826C19.9877 23.942 20.3446 24.1272 20.6054 24.228C20.7359 24.2784 20.8416 24.3074 20.92 24.3143C20.9592 24.3177 20.9909 24.3156 21.0151 24.3083C21.0394 24.3009 21.0548 24.2889 21.0634 24.2743C21.0683 24.2661 21.077 24.2642 21.0836 24.2701C21.0901 24.2759 21.0921 24.2874 21.0883 24.2965L21.0234 24.4494C21.0084 24.4893 20.9838 24.5089 20.9515 24.5164C20.9204 24.5236 20.8808 24.5199 20.8336 24.5132L20.8336 24.5132C20.6815 24.4912 20.453 24.4 20.1631 24.2495C19.8728 24.0988 19.5198 23.8881 19.118 23.6263C18.3144 23.1027 17.3153 22.374 16.2325 21.5105L16.2325 21.5105C14.9724 20.5038 13.822 19.5434 13.0152 18.7746C12.6119 18.3903 12.2939 18.0533 12.091 17.7818C11.9896 17.6462 11.9162 17.526 11.8753 17.4236C11.8349 17.3222 11.8244 17.2325 11.8573 17.1632L11.917 17.0171ZM21.0102 24.44L20.9971 24.4302L21.0341 24.343C21.0301 24.3446 21.026 24.346 21.0217 24.3473C20.9937 24.3557 20.9588 24.3578 20.9181 24.3542C20.8365 24.347 20.7283 24.3171 20.597 24.2664C20.3342 24.1649 19.9758 23.9788 19.5459 23.7191C18.6858 23.1995 17.5377 22.384 16.2923 21.357L16.2922 21.3569C16.2665 21.3354 16.1989 21.2822 16.0983 21.203C15.7042 20.8926 14.8042 20.1839 13.9413 19.4284C13.3997 18.9541 12.8717 18.4607 12.4916 18.0347C12.3016 17.8218 12.1479 17.6251 12.0479 17.4555C11.9979 17.3708 11.9608 17.292 11.9395 17.2208C11.9264 17.1773 11.919 17.1358 11.9185 17.0971L11.8834 17.1829C11.8832 17.1833 11.883 17.1837 11.8828 17.1841C11.8586 17.2347 11.8628 17.3069 11.9018 17.4048C11.9406 17.502 12.0116 17.619 12.1122 17.7536C12.3133 18.0226 12.6297 18.358 13.0327 18.7421C13.8384 19.5099 14.988 20.4695 16.2479 21.4762C17.3301 22.3393 18.3285 23.0673 19.1312 23.5904C19.5325 23.8519 19.8848 24.062 20.174 24.2122C20.4636 24.3625 20.6889 24.4521 20.8368 24.4734C20.8845 24.4801 20.92 24.4831 20.9464 24.477C20.9715 24.4711 20.9868 24.4576 20.9968 24.4311L21.0102 24.44Z" fill="black"/>
<path fill-rule="evenodd" clip-rule="evenodd" d="M16.8098 17.8133C18.4198 17.7933 20.4098 17.5199 21.5598 16.9066L21.3098 16.3733C20.6348 16.8733 18.6348 17.2066 16.7948 17.2533C14.6248 17.2266 13.0898 16.9533 12.3198 16.2666L12.0898 16.8399C13.4998 17.6399 14.9498 17.8066 16.8098 17.8133" fill="#FFFF00"/>
<path fill-rule="evenodd" clip-rule="evenodd" d="M12.3163 16.2473C12.3204 16.2459 12.3248 16.2469 12.3283 16.2501C12.7106 16.591 13.2843 16.8304 14.0348 16.9878C14.785 17.1451 15.7103 17.22 16.7949 17.2334C17.7143 17.21 18.6736 17.1151 19.4873 16.9636C19.8941 16.8878 20.2644 16.7979 20.5749 16.6958C20.8856 16.5937 21.1357 16.4796 21.3027 16.3559C21.3096 16.3507 21.3184 16.3537 21.3227 16.3628L21.5727 16.8961C21.575 16.9011 21.5756 16.9073 21.5742 16.9129C21.5728 16.9185 21.5696 16.9231 21.5655 16.9253C20.4128 17.5401 18.4204 17.8134 16.8101 17.8334C16.81 17.8334 16.81 17.8334 16.8099 17.8334C16.8017 17.8333 16.795 17.8245 16.795 17.8136C16.7949 17.8025 16.8015 17.7935 16.8098 17.7934C16.8098 17.7934 16.8099 17.7934 16.8099 17.7934C14.9571 17.7867 13.5133 17.6212 12.1109 16.8302L12.3254 16.2955C12.713 16.6347 13.287 16.8715 14.0301 17.0273C14.7824 17.185 15.7095 17.26 16.7948 17.2734L16.7948 17.2734L16.7952 17.2734C17.7157 17.25 18.6764 17.155 19.4914 17.0032C19.8989 16.9273 20.2702 16.8372 20.5821 16.7347C20.8861 16.6347 21.1345 16.5227 21.3047 16.4L21.5377 16.897C20.388 17.5026 18.4118 17.7735 16.8099 17.7934M12.3163 16.2473C12.3122 16.2487 12.3087 16.2523 12.3067 16.2573ZM12.3067 16.2573L12.0767 16.8306ZM16.8099 17.8334C14.9494 17.8267 13.4969 17.6601 12.0841 16.8584C12.0802 16.8562 12.0772 16.852 12.0758 16.8467C12.0744 16.8414 12.0747 16.8356 12.0767 16.8306" fill="black"/>
<path fill-rule="evenodd" clip-rule="evenodd" d="M21.6254 16.92C21.5854 17.0067 20.8354 17.3467 19.7354 17.6C18.7657 17.7959 17.7861 17.8918 16.8054 17.8867C15.8657 17.8914 14.9269 17.8112 13.9954 17.6467C12.8404 17.4067 12.2454 17.0733 12.0204 16.9533L12.0754 16.8067C12.7104 17.14 13.3104 17.34 14.0104 17.4867C14.9351 17.6531 15.8673 17.7356 16.8004 17.7333C17.776 17.7347 18.7504 17.6389 19.7154 17.4467C20.8404 17.2 21.4554 16.8867 21.5454 16.7467L21.6254 16.9267V16.92ZM21.4054 16.38C21.2854 16.5133 20.6754 16.8 19.6054 17.0267C18.6814 17.2049 17.749 17.294 16.8154 17.2933C15.7154 17.2933 14.8104 17.1867 14.1254 17.0533C13.0354 16.8667 12.4554 16.52 12.2454 16.4267L12.3104 16.28C12.4754 16.3933 13.0304 16.6933 14.1354 16.9C15.0237 17.0586 15.9192 17.1344 16.8154 17.1267C17.7423 17.127 18.6681 17.0379 19.5854 16.86C20.6604 16.66 21.2404 16.3 21.3304 16.2067L21.4054 16.38V16.38ZM11.5154 20.4C12.5054 21.1133 14.7104 21.4667 16.7954 21.4933C18.6954 21.5 21.1654 21.1067 22.0904 20.4533L22.0654 19.74C21.7754 20.34 19.1254 20.92 16.7754 20.9C14.4254 20.8733 12.2404 20.3933 11.5104 19.7667V20.4" fill="#FFFF00"/>
<path fill-rule="evenodd" clip-rule="evenodd" d="M21.3332 16.187C21.3375 16.1881 21.3412 16.1916 21.3434 16.1967L21.4184 16.37L21.4054 16.38L21.415 16.3953C21.383 16.4308 21.3205 16.4747 21.2296 16.5239C21.1382 16.5734 21.0168 16.6291 20.8658 16.6875C20.5638 16.8045 20.1432 16.933 19.6077 17.0464L19.6075 17.0464C18.6828 17.2248 17.7497 17.314 16.8154 17.3133L16.8154 17.2933V17.3133C16.8154 17.3133 16.8154 17.3133 16.8154 17.3133C15.7147 17.3133 14.809 17.2066 14.1233 17.0731C14.1234 17.0731 14.1234 17.0731 14.1235 17.0731L14.1254 17.0533L14.1232 17.0731C14.1232 17.0731 14.1233 17.0731 14.1233 17.0731C13.1912 16.9135 12.6309 16.6368 12.3567 16.5014C12.3098 16.4783 12.2712 16.4592 12.2406 16.4456C12.2363 16.4437 12.2329 16.4393 12.2313 16.4336C12.2297 16.428 12.2301 16.4217 12.2324 16.4165L12.2974 16.2698C12.3015 16.2607 12.3102 16.2573 12.3172 16.2622C12.4803 16.3742 13.0336 16.6737 14.1374 16.8802C14.1374 16.8802 14.1374 16.8802 14.1374 16.8802L14.1354 16.9L14.1374 16.8802C14.1374 16.8802 14.1374 16.8802 14.1374 16.8802C15.025 17.0387 15.9198 17.1144 16.8153 17.1066L16.8154 17.1066C17.7416 17.107 18.6666 17.018 19.5832 16.8402L19.5833 16.8402C20.1199 16.7403 20.5328 16.6006 20.8226 16.4743C20.9675 16.4112 21.0815 16.3514 21.1648 16.3017C21.2485 16.2518 21.3002 16.2126 21.3212 16.1909C21.3246 16.1873 21.329 16.1859 21.3332 16.187ZM21.3858 16.3749L21.3256 16.2357C21.2972 16.2607 21.2475 16.2962 21.177 16.3382C21.0927 16.3886 20.9776 16.4488 20.8319 16.5123C20.5404 16.6394 20.1258 16.7796 19.5875 16.8798C18.6695 17.0578 17.743 17.147 16.8154 17.1466C15.9185 17.1544 15.0223 17.0786 14.1334 16.9198L14.1333 16.9198C13.0536 16.7179 12.4973 16.4267 12.3161 16.3063L12.2677 16.4157C12.2953 16.4285 12.3284 16.4448 12.367 16.4639C12.6415 16.5993 13.1987 16.8745 14.1273 17.0335L14.1275 17.0335L14.1275 17.0335C14.8118 17.1667 15.7161 17.2733 16.8154 17.2733H16.8154C17.7482 17.274 18.6799 17.185 19.6031 17.0069C20.1376 16.8936 20.5569 16.7655 20.8574 16.6491C21.0077 16.5909 21.1281 16.5357 21.2183 16.4869C21.2994 16.4429 21.3549 16.4047 21.3858 16.3749ZM21.5467 16.7267C21.5515 16.7273 21.5558 16.7309 21.5583 16.7364L21.6318 16.9019C21.637 16.9052 21.6404 16.9122 21.6404 16.92V16.9266C21.6404 16.9357 21.6358 16.9436 21.6293 16.9459C21.6286 16.9462 21.6279 16.9464 21.6272 16.9465C21.6244 16.9496 21.6213 16.9527 21.6181 16.9556C21.6094 16.9636 21.5982 16.9722 21.5846 16.9815C21.5575 17 21.5201 17.0217 21.4733 17.0458C21.3796 17.0941 21.2473 17.1528 21.082 17.2167C20.7515 17.3444 20.2884 17.4929 19.7379 17.6197L19.7376 17.6198C18.7672 17.8158 17.7869 17.9117 16.8054 17.9066C15.865 17.9113 14.9256 17.8311 13.9934 17.6665L13.9931 17.6664L13.9931 17.6664C12.8791 17.4349 12.285 17.1166 12.0412 16.986C12.0319 16.981 12.0231 16.9763 12.0148 16.9719C12.0109 16.9698 12.0078 16.9656 12.0063 16.9604C12.0048 16.9552 12.0051 16.9494 12.0069 16.9444L12.0619 16.7977C12.0654 16.7884 12.0736 16.7842 12.0809 16.788C12.7146 17.1207 13.3135 17.3204 14.0125 17.4669C14.9365 17.6332 15.868 17.7155 16.8003 17.7133H16.8004C17.7753 17.7147 18.7489 17.6189 19.713 17.4269C20.275 17.3037 20.7092 17.1639 21.014 17.0375C21.1665 16.9744 21.2863 16.9146 21.3735 16.8622C21.4171 16.8359 21.4523 16.8116 21.4792 16.7897C21.5064 16.7676 21.5243 16.7487 21.534 16.7336C21.5371 16.7287 21.5418 16.7262 21.5467 16.7267ZM21.6046 16.9193L21.5423 16.7789C21.53 16.7932 21.5141 16.8082 21.4948 16.8239C21.4665 16.8469 21.4301 16.8719 21.3858 16.8986C21.2972 16.952 21.1761 17.0123 21.0229 17.0757C20.7165 17.2027 20.2808 17.3429 19.7178 17.4664L19.7176 17.4664C18.7519 17.6588 17.7768 17.7547 16.8004 17.7533C15.8666 17.7555 14.9338 17.6731 14.0084 17.5065L14.008 17.5064L14.008 17.5064C13.3119 17.3605 12.7141 17.1619 12.0826 16.8319L12.0411 16.9428C12.0448 16.9448 12.0485 16.9468 12.0524 16.9489C12.2951 17.079 12.8869 17.3961 13.9975 17.6268C14.9283 17.7912 15.8664 17.8713 16.8053 17.8666H16.8054C17.7853 17.8717 18.7641 17.776 19.733 17.5802C20.2824 17.4537 20.7443 17.3055 21.0737 17.1783C21.2384 17.1146 21.3699 17.0563 21.4625 17.0085C21.5088 16.9846 21.5451 16.9635 21.5709 16.9459C21.5839 16.9371 21.5939 16.9293 21.6011 16.9226C21.6024 16.9214 21.6036 16.9203 21.6046 16.9193ZM22.0693 19.7207C22.0756 19.7229 22.08 19.7304 22.0803 19.739L22.1053 20.4524C22.1056 20.4601 22.1025 20.4674 22.0974 20.471C21.6323 20.7995 20.7812 21.0615 19.8105 21.2406C18.8392 21.4199 17.746 21.5166 16.7953 21.5133L16.7952 21.5133C15.7522 21.5 14.679 21.4049 13.7426 21.2239C12.8087 21.0434 12.0092 20.7772 11.5115 20.4199C11.5111 20.42 11.5107 20.42 11.5104 20.42C11.5021 20.42 11.4954 20.411 11.4954 20.4V19.7666C11.4954 19.7593 11.4984 19.7526 11.5032 19.7491C11.508 19.7456 11.5139 19.7459 11.5185 19.7498C11.8806 20.0607 12.6065 20.3369 13.5378 20.5386C14.4682 20.7401 15.6011 20.8667 16.7755 20.88C17.9496 20.89 19.1988 20.7501 20.1904 20.5327C20.6863 20.4241 21.1174 20.2961 21.4424 20.1581C21.6049 20.0891 21.7405 20.0177 21.8442 19.9452C21.9484 19.8724 22.0187 19.7997 22.0528 19.7291C22.0563 19.7218 22.063 19.7184 22.0693 19.7207ZM11.5254 20.3844C12.0181 20.7383 12.8134 21.0039 13.7469 21.1844C14.6817 21.365 15.7535 21.46 16.7955 21.4733M11.5254 20.3844V19.8029Z" fill="black"/>
<path fill-rule="evenodd" clip-rule="evenodd" d="M22.1398 20.3V20.4667C21.9998 20.6933 21.1298 21.0267 20.0398 21.2667C18.9569 21.4742 17.8638 21.5723 16.7698 21.56C15.7325 21.5718 14.696 21.4759 13.6698 21.2733C12.9041 21.1554 12.1559 20.8857 11.4498 20.4733V20.28C11.9348 20.7067 13.2448 21.0267 13.6848 21.12C14.4748 21.28 15.4898 21.4 16.7698 21.4C18.1148 21.4 19.1898 21.2733 20.0198 21.1067C20.8048 20.9533 21.9198 20.56 22.1398 20.3V20.3ZM22.1398 19.7V19.8667C21.9998 20.0867 21.1298 20.42 20.0398 20.66C18.9571 20.8698 17.8639 20.9701 16.7698 20.96C15.7326 20.9681 14.6963 20.8723 13.6698 20.6733C12.9041 20.5554 12.1559 20.2857 11.4498 19.8733V19.6733C11.9348 20.1067 13.2498 20.42 13.6848 20.5133C14.7062 20.7128 15.7375 20.8087 16.7698 20.8C18.1148 20.8 19.1948 20.6667 20.0198 20.5C20.8048 20.3533 21.9198 19.96 22.1398 19.7V19.7ZM16.7898 24.2867C14.5098 24.2733 12.5548 23.46 12.1398 23.3267L12.4398 23.9533C13.8423 24.6156 15.3222 24.9385 16.8098 24.9067C18.5448 24.84 20.0598 24.66 21.1248 23.9667L21.4348 23.3133C20.7098 23.7733 18.2348 24.2867 16.7848 24.2867" fill="#FFFF00"/>
<path fill-rule="evenodd" clip-rule="evenodd" d="M11.4428 19.6557C11.4476 19.6522 11.4536 19.6526 11.4582 19.6567C11.6982 19.8711 12.1456 20.0571 12.5896 20.2014C13.0327 20.3454 13.4697 20.4469 13.6871 20.4936C14.7077 20.6929 15.7382 20.7886 16.7697 20.78L16.7698 20.78C18.1141 20.78 19.1933 20.6467 20.0176 20.4802L20.0177 20.4802C20.4095 20.407 20.8839 20.2722 21.2877 20.1232C21.4896 20.0487 21.6736 19.9708 21.8208 19.8954C21.9686 19.8196 22.0771 19.7473 22.1299 19.685L22.1398 19.7H22.1548V19.8667C22.1548 19.8714 22.1536 19.876 22.1513 19.8796C22.1321 19.9096 22.1015 19.9403 22.0617 19.9713C22.0216 20.0026 21.9712 20.035 21.9117 20.0681C21.7927 20.1345 21.6361 20.2045 21.4502 20.2751C21.0782 20.4161 20.5877 20.5596 20.0423 20.6797L20.042 20.6798C18.9585 20.8897 17.8646 20.99 16.7698 20.98C15.7319 20.9881 14.695 20.8922 13.6679 20.6932C12.9007 20.5749 12.1511 20.3048 11.4438 19.8916C11.4383 19.8885 11.4348 19.8813 11.4348 19.8733V19.6733C11.4348 19.6659 11.4379 19.6592 11.4428 19.6557ZM22.1248 19.7415C22.0627 19.8019 21.9601 19.8668 21.8315 19.9327C21.6832 20.0088 21.4982 20.0871 21.2957 20.1618C20.8908 20.3111 20.4152 20.4463 20.022 20.5198C19.1963 20.6866 18.1155 20.82 16.7699 20.82C16.7698 20.82 16.7698 20.82 16.7698 20.82V20.8L16.7699 20.82C16.7699 20.82 16.7699 20.82 16.7699 20.82C15.7368 20.8286 14.7048 20.7327 13.6826 20.5331L13.6824 20.5331L13.6824 20.5331C13.4647 20.4864 13.0268 20.3846 12.5825 20.2403C12.1527 20.1006 11.7145 19.9204 11.4648 19.7102V19.6733H11.4498L11.4415 19.6899C11.4491 19.6967 11.4568 19.7035 11.4648 19.7102V19.8602C11.4618 19.8585 11.4588 19.8567 11.4558 19.855L11.4498 19.8733H11.4648V19.8602C12.1669 20.2689 12.9105 20.5362 13.6715 20.6535L13.672 20.6535L13.672 20.6535C14.6977 20.8524 15.7332 20.9481 16.7697 20.94L16.7699 20.94C17.8632 20.95 18.9555 20.8498 20.0375 20.6402C20.0375 20.6402 20.0374 20.6402 20.0374 20.6403L20.0398 20.66L20.0377 20.6402C20.0376 20.6402 20.0376 20.6402 20.0375 20.6402C20.582 20.5203 21.0714 20.3771 21.442 20.2366C21.6273 20.1663 21.7826 20.0967 21.9001 20.0312C21.9589 19.9985 22.008 19.9668 22.0465 19.9368C22.0825 19.9087 22.1086 19.8827 22.1248 19.8591V19.8667H22.1398L22.1284 19.8537C22.1272 19.8555 22.1261 19.8573 22.1248 19.8591V19.7415ZM11.4427 20.2624C11.4476 20.2589 11.4535 20.2592 11.4581 20.2633C11.6981 20.4745 12.1444 20.6605 12.5878 20.8056C13.0303 20.9504 13.4673 21.0536 13.6871 21.1002C14.4763 21.2601 15.4905 21.38 16.7698 21.38C18.1141 21.38 19.1884 21.2534 20.0176 21.0869L20.0176 21.0869C20.4095 21.0103 20.8838 20.8738 21.2877 20.7241C21.4896 20.6492 21.6736 20.571 21.8208 20.4955C21.9686 20.4196 22.0771 20.3474 22.1299 20.285L22.1398 20.3H22.1548V20.4667C22.1548 20.4713 22.1536 20.4758 22.1514 20.4794C22.1323 20.5103 22.1017 20.5417 22.0618 20.5734C22.0217 20.6053 21.9713 20.6383 21.9118 20.6719C21.7927 20.7393 21.6361 20.8099 21.4502 20.8809C21.0783 21.0228 20.5877 21.1663 20.0423 21.2864L20.0419 21.2864C18.9583 21.4941 17.8645 21.5923 16.7698 21.58C15.7318 21.5918 14.6947 21.4959 13.6679 21.2932C12.9007 21.1749 12.1511 20.9048 11.4438 20.4916C11.4383 20.4885 11.4348 20.4813 11.4348 20.4733V20.28C11.4348 20.2726 11.4378 20.2659 11.4427 20.2624ZM22.1248 20.3415C22.0627 20.4019 21.9601 20.4668 21.8315 20.5328C21.6832 20.609 21.4982 20.6875 21.2957 20.7626C20.8908 20.9128 20.4152 21.0496 20.022 21.1264C19.1912 21.2933 18.1155 21.42 16.7698 21.42C15.4891 21.42 14.4734 21.2999 13.6826 21.1398L13.6825 21.1397C13.4622 21.093 13.0243 20.9896 12.5806 20.8444C12.1514 20.704 11.7144 20.5237 11.4648 20.3165V20.4602C12.1669 20.8689 12.9105 21.1362 13.6715 21.2535L13.672 21.2535L13.672 21.2535C14.6974 21.456 15.7331 21.5518 16.7697 21.54H16.7699C17.8631 21.5522 18.9554 21.4543 20.0375 21.2469C20.5821 21.127 21.0714 20.9838 21.4419 20.8424C21.6272 20.7717 21.7825 20.7016 21.9001 20.6351C21.9588 20.6019 22.0079 20.5697 22.0464 20.5391C22.0825 20.5104 22.1086 20.4836 22.1248 20.4593V20.3415ZM21.446 23.3001C21.4505 23.3067 21.4511 23.3165 21.4475 23.324L21.1375 23.9773C21.136 23.9805 21.1339 23.983 21.1314 23.9846C20.0631 24.6801 18.5449 24.86 16.8102 24.9266L16.8101 24.9267C15.3206 24.9585 13.8389 24.6352 12.4348 23.9722C12.4317 23.9707 12.429 23.9678 12.4272 23.9641L12.1272 23.3374C12.1239 23.3305 12.124 23.3217 12.1276 23.315C12.1312 23.3084 12.1374 23.3053 12.1433 23.3072C12.1942 23.3235 12.2679 23.35 12.3625 23.3839C13.0414 23.6275 14.7902 24.2549 16.7895 24.2667C17.513 24.2661 18.4911 24.1381 19.3794 23.9527C20.2702 23.7669 21.0681 23.5238 21.4284 23.2953C21.4344 23.2914 21.4416 23.2934 21.446 23.3001ZM16.7839 24.3066C16.7842 24.3066 16.7845 24.3067 16.7848 24.3067C16.7864 24.3067 16.788 24.3067 16.7895 24.3067M16.7839 24.3066C14.7825 24.2937 13.032 23.6656 12.3545 23.4225C12.2809 23.3961 12.2199 23.3742 12.1727 23.3582L12.4497 23.9368C13.849 24.5967 15.3254 24.9184 16.8095 24.8867C18.5427 24.8201 20.0529 24.6403 21.1144 23.9512L21.3952 23.3593C21.012 23.5823 20.2387 23.8139 19.384 23.9922C18.4951 24.1777 17.5156 24.306 16.79 24.3067" fill="black"/>
<path fill-rule="evenodd" clip-rule="evenodd" d="M21.245 23.82C21.1995 23.91 21.1528 23.9989 21.105 24.0867C20.605 24.3267 19.805 24.58 19.475 24.6467C18.5895 24.8667 17.6908 24.9783 16.79 24.98C14.77 24.94 13.115 24.4134 12.34 23.96L12.275 23.82L12.285 23.7934L12.39 23.8534C13.8131 24.4812 15.3012 24.8074 16.8 24.82C17.74 24.82 18.675 24.68 19.43 24.5C20.59 24.1867 21.06 23.9534 21.205 23.8467L21.24 23.82H21.245ZM21.51 23.2334C21.4771 23.3114 21.4438 23.3892 21.41 23.4667C21.14 23.6 20.41 23.88 19.345 24.08C18.645 24.2067 18.21 24.3334 16.815 24.3667C15.2204 24.3453 13.6355 24.0313 12.105 23.4334L12.05 23.2667C13.605 23.8397 15.2072 24.1532 16.82 24.2C18.095 24.1667 18.64 24.04 19.335 23.9134C20.575 23.66 21.2 23.38 21.385 23.3067C21.3852 23.3022 21.3852 23.2978 21.385 23.2934L21.515 23.2267L21.51 23.2334Z" fill="#FFFF00"/>
<path fill-rule="evenodd" clip-rule="evenodd" d="M21.5277 23.2158C21.5316 23.2237 21.5308 23.2341 21.5258 23.2408L21.5222 23.2455C21.4896 23.3229 21.4566 23.4 21.4231 23.4767C21.4214 23.4807 21.4186 23.4838 21.4154 23.4854C21.1441 23.6194 20.4131 23.8997 19.3472 24.0998L19.3472 24.0998C19.2388 24.1194 19.1367 24.1391 19.0365 24.1583C18.4893 24.2635 17.9952 24.3585 16.8154 24.3867L16.815 24.3867C15.2189 24.3653 13.6327 24.051 12.1009 23.4525C12.0967 23.4509 12.0932 23.4468 12.0914 23.4414L12.0364 23.2747C12.0341 23.2677 12.035 23.2594 12.0388 23.2536C12.0426 23.2477 12.0486 23.2453 12.0542 23.2474C13.6078 23.8199 15.2087 24.1332 16.8202 24.18C17.9555 24.1503 18.5112 24.0466 19.1107 23.9347C19.1838 23.9211 19.2575 23.9073 19.333 23.8935C20.4634 23.6626 21.082 23.4096 21.3221 23.3113C21.3403 23.3039 21.3563 23.2973 21.3702 23.2918C21.3707 23.2842 21.3743 23.2775 21.3798 23.2747L21.5098 23.208C21.5164 23.2046 21.5239 23.2078 21.5277 23.2158ZM21.4788 23.2667L21.4002 23.3071C21.4002 23.3072 21.4002 23.3073 21.4001 23.3074C21.3999 23.3159 21.3956 23.3234 21.3894 23.3258C21.3732 23.3323 21.3537 23.3403 21.3306 23.3497C21.0901 23.4481 20.4699 23.7017 19.3374 23.9331L19.3372 23.9332C19.2617 23.9469 19.1879 23.9607 19.1148 23.9743C18.515 24.0863 17.9578 24.1903 16.8205 24.22L16.8198 24.22L16.8198 24.22C15.2163 24.1734 13.6232 23.8635 12.0766 23.2971L12.1161 23.4168C13.643 24.0124 15.2242 24.3253 16.8151 24.3467C17.9929 24.3185 18.4854 24.2238 19.0322 24.1187C19.1325 24.0994 19.2346 24.0798 19.3431 24.0602C20.4007 23.8616 21.1271 23.5841 21.3999 23.4504C21.4265 23.3894 21.4528 23.3281 21.4788 23.2667ZM12.2717 23.7844C12.2753 23.7749 12.2838 23.7708 12.2911 23.775L12.3955 23.8346C13.8168 24.4616 15.3031 24.7874 16.8002 24.8C17.7391 24.8 18.6731 24.6602 19.4273 24.4804C20.587 24.1671 21.055 23.9343 21.1978 23.8292C21.1979 23.8292 21.1979 23.8292 21.1979 23.8292L21.2327 23.8026C21.235 23.8009 21.2375 23.8 21.2402 23.8H21.2452C21.2507 23.8 21.2558 23.8041 21.2584 23.8106C21.261 23.8171 21.2607 23.8251 21.2576 23.8312C21.212 23.9213 21.1652 24.0104 21.1173 24.0984C21.1155 24.1017 21.1131 24.1041 21.1102 24.1055C20.6094 24.3459 19.8087 24.5995 19.4777 24.6664C18.5913 24.8866 17.6918 24.9982 16.7902 25L16.7899 25C14.7685 24.96 13.1114 24.433 12.3341 23.9783C12.3313 23.9767 12.329 23.974 12.3274 23.9705L12.2624 23.8305C12.2597 23.8246 12.2594 23.8173 12.2617 23.8111L12.2717 23.7844ZM12.2925 23.8193L12.3505 23.9442C13.125 24.3956 14.7754 24.9201 16.7903 24.96C17.6901 24.9582 18.5878 24.8468 19.4724 24.627L19.4729 24.6269L19.4729 24.6269C19.801 24.5606 20.5964 24.3089 21.0957 24.0699C21.1311 24.0049 21.1658 23.9393 21.1999 23.8731C21.0394 23.9851 20.562 24.2147 19.4331 24.5196L19.4328 24.5197C18.6771 24.6999 17.7412 24.84 16.8002 24.84L16.8001 24.84C15.2996 24.8274 13.81 24.5008 12.3854 23.8723C12.385 23.8721 12.3846 23.8719 12.3842 23.8717L12.2925 23.8193Z" fill="black"/>
<path fill-rule="evenodd" clip-rule="evenodd" d="M21.5404 19.84C21.5454 21.84 20.7754 23.64 20.1604 24.4267C19.2521 25.6079 18.039 26.2806 16.7704 26.3067C15.2554 26.34 13.8304 25.0267 13.4454 24.4467C12.5841 23.2288 12.0939 21.6269 12.0704 19.9533C12.1604 17.7667 12.8054 16.2467 13.7354 15.2C14.6388 14.2084 15.7753 13.6726 16.9454 13.6867C17.6284 13.7308 18.2971 13.9647 18.9084 14.3734C19.5197 14.7821 20.0602 15.3566 20.4954 16.06C21.1204 17.0733 21.3954 18.1733 21.5404 19.84V19.84ZM16.7804 13C18.1791 12.9999 19.5212 13.7371 20.514 15.0509C21.5068 16.3646 22.0698 18.1484 22.0804 20.0133C22.0804 20.9387 21.9437 21.855 21.6781 22.71C21.4125 23.5649 21.0232 24.3417 20.5324 24.9961C20.0417 25.6504 19.4591 26.1695 18.8179 26.5236C18.1767 26.8777 17.4894 27.06 16.7954 27.06C16.1013 27.06 15.4141 26.8777 14.7729 26.5236C14.1317 26.1695 13.5491 25.6504 13.0583 24.9961C12.5676 24.3417 12.1783 23.5649 11.9127 22.71C11.6471 21.855 11.5104 20.9387 11.5104 20.0133C11.5054 16.1467 13.8754 13 16.7804 13" fill="#FFFF00"/>
<path fill-rule="evenodd" clip-rule="evenodd" d="M20.5034 15.0652C19.5134 13.7552 18.1752 13.02 16.7804 13.0201C13.8836 13.0201 11.5204 16.1579 11.5254 20.0134L11.5254 20.0134C11.5254 20.9362 11.6617 21.8499 11.9265 22.7024C12.1914 23.5549 12.5796 24.3296 13.0689 24.982C13.5583 25.6345 14.1392 26.1521 14.7786 26.5052C15.418 26.8584 16.1033 27.0401 16.7954 27.0401C17.4874 27.0401 18.1727 26.8584 18.8121 26.5052C19.4515 26.1521 20.0325 25.6345 20.5218 24.982C21.0112 24.3296 21.3994 23.5549 21.6642 22.7024C21.9291 21.8499 22.0654 20.9362 22.0654 20.0135C22.0548 18.1538 21.4934 16.3752 20.5034 15.0652ZM16.7804 12.9801C18.1831 12.98 19.5289 13.7193 20.5245 15.0368C21.5201 16.3543 22.0848 18.1431 22.0954 20.0133L22.0954 20.0134C22.0954 20.9414 21.9583 21.8604 21.6919 22.7177C21.4256 23.5751 21.0352 24.3541 20.543 25.0103C20.0509 25.6665 19.4666 26.1871 18.8236 26.5422C18.1806 26.8973 17.4914 27.0801 16.7954 27.0801C16.0994 27.0801 15.4102 26.8973 14.7671 26.5422C14.1241 26.1871 13.5399 25.6665 13.0477 25.0103C12.5556 24.3541 12.1652 23.5751 11.8988 22.7177C11.6325 21.8604 11.4954 20.9415 11.4954 20.0135C11.4904 16.1357 13.8671 12.9801 16.7804 12.9801ZM16.9449 13.7068C15.7785 13.6928 14.6456 14.227 13.745 15.2155C12.8184 16.2583 12.1753 17.7729 12.0854 19.9538C12.109 21.6222 12.5977 23.219 13.4563 24.4331L13.4566 24.4335L13.4566 24.4335C13.6475 24.7211 14.0982 25.193 14.6908 25.5889C15.2832 25.9847 16.0158 26.3034 16.7701 26.2868H16.7701C18.035 26.2607 19.2443 25.5901 20.1499 24.4125L20.15 24.4123C20.7622 23.6292 21.5301 21.8348 21.5254 19.8413C21.3805 18.1774 21.1062 17.0819 20.4838 16.0728C20.05 15.3716 19.5111 14.7989 18.9016 14.3914C18.2923 13.984 17.6258 13.7508 16.9449 13.7068ZM21.5404 19.8401L21.5553 19.8378C21.4101 18.169 21.1345 17.0648 20.507 16.0474L20.5069 16.0474C20.0705 15.3418 19.5283 14.7656 18.9151 14.3557C18.3019 13.9457 17.6312 13.7111 16.9461 13.6668L16.9461 13.6668L16.9455 13.6668C15.7719 13.6527 14.632 14.1901 13.7258 15.1847L13.7257 15.1848C12.7924 16.2351 12.1456 17.7603 12.0554 19.9523C12.0554 19.9528 12.0554 19.9533 12.0554 19.9538C12.079 21.6323 12.5706 23.2388 13.4343 24.4603C13.6285 24.7527 14.0827 25.2273 14.6774 25.6247C15.2725 26.0222 16.0099 26.3435 16.7706 26.3268C18.0431 26.3006 19.2597 25.6259 20.1708 24.4412C20.1708 24.4412 20.1708 24.4412 20.1708 24.4412L20.1604 24.4268L20.1708 24.4411C20.1708 24.4411 20.1708 24.4412 20.1708 24.4412" fill="black"/>
<path fill-rule="evenodd" clip-rule="evenodd" d="M16.7953 12.9667C19.7053 12.9667 22.0753 16.1267 22.0753 20.0067C22.0753 23.8867 19.7053 27.0467 16.8003 27.0467C13.8953 27.0467 11.5203 23.8867 11.5203 20.0067C11.5203 16.1267 13.8903 12.9667 16.8003 12.9667H16.7953ZM11.6303 20C11.6303 23.7867 13.9653 26.8867 16.7953 26.8867C19.6253 26.8867 21.9603 23.7867 21.9603 20C21.9603 16.2133 19.6253 13.1133 16.7953 13.1133C13.9653 13.1133 11.6303 16.2133 11.6303 20Z" fill="#FFFF00"/>
<path fill-rule="evenodd" clip-rule="evenodd" d="M16.7979 12.9867C13.8973 12.9885 11.5354 16.1388 11.5354 20.0067C11.5354 23.8756 13.9036 27.0267 16.8004 27.0267C19.6971 27.0267 22.0604 23.8756 22.0604 20.0067C22.0604 16.1388 19.6984 12.9885 16.7979 12.9867ZM16.8007 12.9467C19.7165 12.9505 22.0904 16.118 22.0904 20.0067C22.0904 23.8977 19.7137 27.0667 16.8004 27.0667C13.8871 27.0667 11.5054 23.8977 11.5054 20.0067C11.5054 16.118 13.8792 12.9505 16.7951 12.9467C16.7952 12.9467 16.7953 12.9467 16.7954 12.9467H16.8004C16.8005 12.9467 16.8006 12.9467 16.8007 12.9467ZM11.6154 20C11.6154 16.2023 13.9571 13.0933 16.7954 13.0933C19.6336 13.0933 21.9754 16.2023 21.9754 20C21.9754 23.7977 19.6336 26.9067 16.7954 26.9067C13.9571 26.9067 11.6154 23.7977 11.6154 20ZM16.7954 13.1333C13.9736 13.1333 11.6454 16.2244 11.6454 20C11.6454 23.7756 13.9736 26.8667 16.7954 26.8667C19.6171 26.8667 21.9454 23.7756 21.9454 20C21.9454 16.2244 19.6171 13.1333 16.7954 13.1333Z" fill="black"/>
<path fill-rule="evenodd" clip-rule="evenodd" d="M16.7997 13.5533C18.0808 13.5586 19.3083 14.2395 20.2142 15.4474C21.1201 16.6552 21.6308 18.2919 21.6347 20C21.6308 21.7088 21.1203 23.3461 20.2145 24.555C19.3088 25.7639 18.0813 26.4463 16.7997 26.4533C14.1497 26.4533 11.9647 23.5467 11.9647 20C11.97 18.2924 12.4811 16.6568 13.3867 15.4493C14.2923 14.2418 15.519 13.5604 16.7997 13.5533V13.5533ZM12.0797 20C12.0797 23.4667 14.2097 26.2933 16.7997 26.2933C19.3897 26.2933 21.5197 23.46 21.5197 20C21.5197 16.5333 19.3897 13.7067 16.7997 13.7067C15.5495 13.7137 14.352 14.379 13.468 15.5577C12.584 16.7364 12.085 18.3331 12.0797 20V20Z" fill="#FFFF00"/>
<path fill-rule="evenodd" clip-rule="evenodd" d="M20.2036 15.4615C19.3005 14.2574 18.0768 13.5786 16.7997 13.5733C15.523 13.5803 14.3001 14.2597 13.3973 15.4634C12.4945 16.6671 11.985 18.2977 11.9797 20C11.9797 23.5356 14.158 26.4333 16.7996 26.4333C18.0772 26.4263 19.301 25.7461 20.2039 24.5409C21.1068 23.3357 21.6158 21.7034 21.6197 20C21.6158 18.2972 21.1067 16.6656 20.2036 15.4615ZM16.7997 13.5533L16.7998 13.5333C18.0848 13.5386 19.3161 14.2216 20.2248 15.4332C21.1335 16.6448 21.6457 18.2865 21.6497 19.9999V20.0001C21.6457 21.7141 21.1337 23.3565 20.2251 24.5692C19.3166 25.7818 18.0853 26.4663 16.7998 26.4733H16.7997C14.1414 26.4733 11.9497 23.5577 11.9497 20L11.9497 19.9999C11.955 18.287 12.4677 16.6463 13.3761 15.4351C14.2845 14.2239 15.515 13.5404 16.7996 13.5333L16.7997 13.5533ZM16.7997 13.6867C19.398 13.6867 21.5347 16.5223 21.5347 20C21.5347 23.4711 19.398 26.3133 16.7997 26.3133C14.2014 26.3133 12.0647 23.4777 12.0647 20H12.0797L12.0647 19.9999C12.07 18.3277 12.5705 16.726 13.4574 15.5435C14.3442 14.3611 15.5455 13.6937 16.7996 13.6867L16.7997 13.6867ZM12.0947 20C12.0947 23.4556 14.218 26.2733 16.7997 26.2733C19.3814 26.2733 21.5047 23.4489 21.5047 20C21.5047 16.5444 19.3815 13.7267 16.7997 13.7267C15.5535 13.7337 14.3598 14.3969 13.4786 15.5718C12.5974 16.7468 12.1 18.3384 12.0947 20Z" fill="black"/>
<path fill-rule="evenodd" clip-rule="evenodd" d="M17.0147 12.9333H16.5597V27.0867H17.0097L17.0147 12.9333Z" fill="#FFFF00"/>
<path fill-rule="evenodd" clip-rule="evenodd" d="M16.5448 12.9333C16.5448 12.9223 16.5515 12.9133 16.5598 12.9133H17.0148C17.0188 12.9133 17.0226 12.9154 17.0254 12.9192C17.0282 12.9229 17.0298 12.928 17.0298 12.9333L17.0248 27.0867C17.0248 27.0977 17.0181 27.1067 17.0098 27.1067H16.5598C16.5515 27.1067 16.5448 27.0977 16.5448 27.0867V12.9333ZM16.5748 12.9533V27.0667H16.9948L16.9998 12.9533H16.5748Z" fill="black"/>
<path fill-rule="evenodd" clip-rule="evenodd" d="M16.9649 12.8533H17.0799V27.1666H16.9699V12.8533H16.9649ZM16.5149 12.8533H16.6349V27.1666H16.5199V12.8533H16.5149Z" fill="#FFFF00"/>
<path fill-rule="evenodd" clip-rule="evenodd" d="M16.5 12.8534C16.5 12.8423 16.5067 12.8334 16.515 12.8334H16.635C16.6433 12.8334 16.65 12.8423 16.65 12.8534V27.1667C16.65 27.1778 16.6433 27.1867 16.635 27.1867H16.52C16.5117 27.1867 16.505 27.1778 16.505 27.1667V12.8683C16.5019 12.8646 16.5 12.8593 16.5 12.8534ZM16.535 12.8734V27.1467H16.62V12.8734H16.535ZM16.95 12.8534C16.95 12.8423 16.9567 12.8334 16.965 12.8334H17.08C17.0883 12.8334 17.095 12.8423 17.095 12.8534V27.1667C17.095 27.1778 17.0883 27.1867 17.08 27.1867H16.97C16.9617 27.1867 16.955 27.1778 16.955 27.1667V12.8683C16.9519 12.8646 16.95 12.8593 16.95 12.8534ZM16.985 12.8734V27.1467H17.065V12.8734H16.985Z" fill="black"/>
<path fill-rule="evenodd" clip-rule="evenodd" d="M22.0804 20.28V19.76L21.7604 19.36L19.9454 18.72L17.3354 18.3667L14.1854 18.58L11.9454 19.2867L11.4954 19.7334V20.26L12.6404 19.5734L15.3604 19.0067H17.9754L19.8954 19.2867L21.2254 19.7134L22.0804 20.28Z" fill="#FFFF00"/>
<path fill-rule="evenodd" clip-rule="evenodd" d="M17.3347 18.3467C17.3355 18.3467 17.3362 18.3467 17.337 18.3468L19.947 18.7001C19.9478 18.7002 19.9485 18.7004 19.9493 18.7007L21.7643 19.3407C21.7667 19.3415 21.7689 19.3432 21.7707 19.3454L22.0907 19.7454C22.0938 19.7492 22.0955 19.7545 22.0955 19.76V20.28C22.0955 20.2869 22.0928 20.2934 22.0884 20.297C22.084 20.3007 22.0784 20.301 22.0738 20.2979L21.2203 19.7323L19.8929 19.3064L17.9747 19.0267H15.3616L12.6448 19.5927L11.5016 20.2783C11.497 20.281 11.4916 20.2805 11.4873 20.2768C11.483 20.2731 11.4805 20.2668 11.4805 20.26V19.7333C11.4805 19.727 11.4827 19.7211 11.4865 19.7173L11.9365 19.2706C11.9382 19.269 11.94 19.2678 11.942 19.2672L14.182 18.5606C14.1829 18.5603 14.1838 18.5601 14.1847 18.56L17.3347 18.3467ZM14.1876 18.5999L11.9519 19.3052L11.5105 19.7434V20.2291L12.6343 19.5551C12.6355 19.5544 12.6368 19.5539 12.6382 19.5536L15.3582 18.9869C15.3589 18.9868 15.3597 18.9867 15.3605 18.9867H17.9755C17.9757 18.9867 17.9759 18.9867 17.9761 18.9867C17.9764 18.9867 17.9768 18.9868 17.9771 18.9868L19.8971 19.2668C19.8977 19.2669 19.8984 19.267 19.899 19.2672L21.229 19.6939C21.2301 19.6943 21.2311 19.6948 21.2321 19.6954L22.0655 20.2477V19.7687L21.753 19.3781L19.9428 18.7398L17.3351 18.3867L14.1876 18.5999Z" fill="black"/>
<path fill-rule="evenodd" clip-rule="evenodd" d="M16.7998 18.92C18.0448 18.92 19.2498 19.0734 20.2148 19.32C21.2048 19.5867 21.8998 19.92 22.1398 20.2867V20.4734C21.8498 20.0067 20.9148 19.6734 20.1898 19.4734C19.2398 19.2334 18.0398 19.0734 16.7948 19.0734C15.4898 19.0734 14.2698 19.2467 13.3298 19.4867C12.5798 19.6867 11.5748 20.0867 11.4498 20.4734V20.28C11.5148 20.0134 12.2648 19.6134 13.3148 19.3267C14.2598 19.08 15.4798 18.92 16.7948 18.92H16.7998ZM16.7998 18.3134C17.9448 18.3103 19.0878 18.4442 20.2148 18.7134C21.2048 18.98 21.8998 19.3134 22.1398 19.6867V19.8667C21.8498 19.4067 20.9148 19.0667 20.1898 18.8734C19.2398 18.6267 18.0398 18.4734 16.7948 18.4734C15.6344 18.4685 14.4761 18.6068 13.3348 18.8867C12.6098 19.0667 11.5648 19.48 11.4498 19.8667V19.68C11.5198 19.4134 12.2798 18.9934 13.3148 18.7267C14.2648 18.48 15.4798 18.3134 16.7998 18.3134V18.3134ZM16.7698 15.2334C18.7348 15.22 20.4498 15.6 21.2348 16.1334L21.5198 16.8C20.8398 16.3067 18.9898 15.8 16.7748 15.8667C14.9698 15.8867 13.0398 16.1334 12.0748 16.8267L12.4148 16.0667C13.2098 15.5134 15.0798 15.2334 16.7698 15.2334" fill="#FFFF00"/>
<path fill-rule="evenodd" clip-rule="evenodd" d="M19.4425 15.4981C18.6709 15.3383 17.7517 15.2467 16.7699 15.2534C16.7699 15.2534 16.7698 15.2534 16.7698 15.2534M19.4425 15.4981C20.2118 15.6575 20.8334 15.8844 21.224 16.1485ZM21.224 16.1485L21.4814 16.7505C21.13 16.5128 20.5149 16.276 19.7254 16.1036C18.9001 15.9234 17.883 15.8133 16.7746 15.8467C15.8717 15.8567 14.9373 15.9234 14.1078 16.0744C13.3051 16.2205 12.5992 16.4457 12.115 16.776L12.4255 16.0818C12.821 15.8082 13.4832 15.601 14.2587 15.4623C15.036 15.3233 15.9253 15.2534 16.7698 15.2534M16.7698 15.2134C15.9242 15.2134 15.0336 15.2834 14.2547 15.4227C13.4763 15.5619 12.8079 15.7706 12.4079 16.049C12.4054 16.0507 12.4034 16.0533 12.4019 16.0564L12.0619 16.8164C12.0585 16.8242 12.0593 16.834 12.064 16.8405C12.0686 16.847 12.076 16.8486 12.0819 16.8443C12.562 16.4994 13.2835 16.2648 14.1118 16.114C14.9398 15.9633 15.8728 15.8967 16.7749 15.8867L16.7752 15.8867C17.8817 15.8534 18.8971 15.9633 19.7205 16.1431C20.5444 16.323 21.1749 16.5726 21.5126 16.8176C21.5185 16.8219 21.5258 16.8204 21.5305 16.814C21.5352 16.8076 21.5362 16.7979 21.5328 16.7901L21.2478 16.1234C21.2464 16.1201 21.2442 16.1173 21.2416 16.1155C20.847 15.8474 20.2202 15.6187 19.4471 15.4586C18.6738 15.2984 17.753 15.2067 16.7698 15.2134ZM20.212 18.733C19.0859 18.464 17.9439 18.3303 16.7998 18.3334L16.7998 18.3134V18.3334C15.4807 18.3334 14.2667 18.4999 13.3177 18.7463L13.3177 18.7463C12.8008 18.8795 12.353 19.0508 12.0259 19.222C11.8623 19.3076 11.7293 19.3929 11.6332 19.473C11.5851 19.5131 11.5465 19.5516 11.518 19.5879C11.4903 19.6231 11.4729 19.6552 11.4648 19.6835V19.7911C11.4806 19.7623 11.5006 19.7339 11.5241 19.706C11.5661 19.6561 11.6202 19.6068 11.6834 19.5584C11.81 19.4616 11.975 19.3676 12.1585 19.2803C12.5257 19.1058 12.969 18.9572 13.3321 18.867L13.3321 18.867C14.4743 18.5869 15.6335 18.4485 16.7949 18.4534C18.0407 18.4534 19.2416 18.6068 20.1927 18.8537L20.1928 18.8537C20.5556 18.9505 20.9713 19.084 21.3329 19.2511C21.5136 19.3347 21.6811 19.4267 21.8218 19.527C21.9466 19.6159 22.051 19.7117 22.1248 19.8145V19.6941C22.0064 19.5136 21.7771 19.3402 21.4533 19.1788C21.1269 19.0159 20.7065 18.8662 20.212 18.733ZM16.7998 18.2934C17.9457 18.2903 19.0895 18.4243 20.2175 18.6937L20.2178 18.6937C20.7132 18.8272 21.1353 18.9774 21.4638 19.1413C21.7917 19.3048 22.0286 19.4829 22.1512 19.6737C22.1535 19.6773 22.1548 19.6819 22.1548 19.6867V19.8667C22.1548 19.8751 22.1509 19.8826 22.1449 19.8855C22.139 19.8884 22.1324 19.886 22.1283 19.8796C22.0576 19.7674 21.9467 19.6613 21.8077 19.5622C21.6688 19.4633 21.5029 19.372 21.323 19.2889C20.9633 19.1227 20.549 18.9895 20.1869 18.893C19.238 18.6466 18.039 18.4934 16.7948 18.4934H16.7948C15.6353 18.4885 14.4779 18.6267 13.3375 18.9064C12.9756 18.9962 12.5339 19.1443 12.1686 19.318C11.9859 19.4049 11.8227 19.498 11.6984 19.5931C11.6362 19.6406 11.584 19.6884 11.5441 19.7359C11.504 19.7835 11.4769 19.8298 11.4638 19.8741C11.4611 19.883 11.4541 19.8881 11.447 19.8863C11.4399 19.8845 11.4348 19.8763 11.4348 19.8667V19.68C11.4348 19.6778 11.4351 19.6755 11.4357 19.6734C11.4455 19.6359 11.4669 19.5975 11.4972 19.559C11.5277 19.5202 11.5681 19.4801 11.6173 19.4391C11.7156 19.3572 11.8504 19.2708 12.015 19.1847C12.3441 19.0125 12.7938 18.8406 13.312 18.707C14.263 18.4601 15.4789 18.2934 16.7998 18.2934ZM16.7948 18.94C15.4807 18.94 14.2617 19.0999 13.3178 19.3463C12.7934 19.4895 12.3442 19.6609 12.0184 19.8295C11.8554 19.9138 11.7237 19.9973 11.6289 20.0759C11.5815 20.1151 11.5437 20.1529 11.516 20.1886C11.489 20.2234 11.4723 20.2551 11.4648 20.2833V20.4C11.5093 20.3199 11.5859 20.2418 11.6833 20.1669C11.8079 20.071 11.9696 19.9781 12.1504 19.8912C12.5119 19.7174 12.9514 19.5672 13.3269 19.4671L13.327 19.467C14.2679 19.2268 15.4889 19.0534 16.7948 19.0534C18.0407 19.0534 19.2416 19.2135 20.1926 19.4537L20.1929 19.4538C20.5556 19.5538 20.9713 19.6874 21.3329 19.8545C21.5136 19.938 21.6811 20.0301 21.8218 20.1307C21.9466 20.22 22.051 20.3165 22.1248 20.4207V20.2942C22.0063 20.1169 21.777 19.9452 21.4533 19.7846C21.1268 19.6226 20.7065 19.4729 20.2119 19.3396C19.248 19.0933 18.0439 18.94 16.7998 18.94H16.7948ZM13.3119 19.3071C14.258 19.0601 15.479 18.9 16.7948 18.9H16.7998C18.0457 18.9 19.2516 19.0534 20.2176 19.3004L20.2178 19.3004C20.7132 19.4339 21.1353 19.5841 21.4638 19.7471C21.7917 19.9098 22.0285 20.0862 22.1511 20.2735C22.1535 20.2772 22.1548 20.2819 22.1548 20.2867V20.4734C22.1548 20.4818 22.1508 20.4893 22.1449 20.4922C22.139 20.495 22.1323 20.4926 22.1283 20.4861C22.0575 20.3723 21.9467 20.2654 21.8076 20.166C21.6688 20.0666 21.5029 19.9754 21.323 19.8923C20.9633 19.726 20.5491 19.5929 20.1869 19.493C19.2379 19.2532 18.0389 19.0934 16.7948 19.0934C15.4908 19.0934 14.2717 19.2666 13.3327 19.5063C12.9582 19.6062 12.5202 19.7559 12.1605 19.9288C11.9806 20.0153 11.8208 20.1073 11.6983 20.2015C11.5751 20.2963 11.4928 20.3911 11.4636 20.4813C11.4608 20.49 11.4538 20.4949 11.4468 20.4929C11.4398 20.491 11.4348 20.4828 11.4348 20.4734V20.28C11.4348 20.2779 11.4351 20.2758 11.4355 20.2738C11.4447 20.2361 11.4655 20.198 11.4951 20.1599C11.5249 20.1215 11.5646 20.0821 11.6131 20.0419C11.71 19.9615 11.8436 19.877 12.0075 19.7922C12.3354 19.6225 12.7862 19.4506 13.3118 19.3071L13.3119 19.3071Z" fill="black"/>
<path fill-rule="evenodd" clip-rule="evenodd" d="M16.8002 15.7801C17.8261 15.757 18.8517 15.8529 19.8652 16.0667C20.6652 16.2667 21.4302 16.5601 21.5402 16.7201L21.6252 16.9201C21.3602 16.6934 20.6952 16.4334 19.8452 16.2201C18.9952 16.0067 17.9102 15.9334 16.7952 15.9401C15.5302 15.9334 14.5452 16.0201 13.7052 16.2201C13.1261 16.3283 12.5639 16.5601 12.0402 16.9067L12.1252 16.7001C12.4252 16.5001 12.8902 16.2534 13.6802 16.0601C14.5552 15.8467 15.5502 15.7867 16.8002 15.7801V15.7801ZM16.8002 15.1801C17.8702 15.1667 18.9302 15.2467 19.7552 15.4467C20.2897 15.5526 20.8069 15.7779 21.2852 16.1134L21.4102 16.3801C21.2002 16.0667 20.4102 15.7667 19.7052 15.6067C18.8852 15.4134 17.8702 15.3401 16.8002 15.3267C15.8041 15.3149 14.8091 15.413 13.8252 15.6201C13.3107 15.7157 12.811 15.9205 12.3452 16.2267L12.4552 16.0067C12.7452 15.8067 13.2152 15.6201 13.8052 15.4667C14.7955 15.257 15.7974 15.1588 16.8002 15.1734V15.1801ZM19.4202 22.9334C18.5535 22.7333 17.6745 22.6441 16.7952 22.6667C13.5202 22.7201 12.4652 23.5667 12.3352 23.8201L12.0852 23.2867C12.9252 22.4867 14.7052 22.0334 16.8152 22.0734C17.9102 22.1001 18.8552 22.2001 19.6452 22.4067L19.4202 22.9401" fill="#FFFF00"/>
<path fill-rule="evenodd" clip-rule="evenodd" d="M13.8079 15.4863C13.2207 15.6389 12.7539 15.8243 12.4656 16.022L12.3884 16.1764C12.8414 15.8871 13.3253 15.6926 13.8231 15.6002C14.8077 15.3929 15.8036 15.2948 16.8004 15.3066L16.8004 15.3066C17.8706 15.3199 18.8866 15.3933 19.7078 15.5869C20.0608 15.667 20.4353 15.7822 20.748 15.9167C20.9043 15.984 21.0455 16.0562 21.161 16.1314C21.2316 16.1775 21.2932 16.225 21.3427 16.2736L21.2747 16.1285C20.799 15.7954 20.2846 15.5716 19.7531 15.4664L19.7526 15.4663L19.7526 15.4663C18.9289 15.2666 17.8699 15.1866 16.8004 15.1999C16.7964 15.2 16.7926 15.1979 16.7897 15.1941C16.7895 15.1938 16.7892 15.1935 16.789 15.1931C15.7909 15.1794 14.7937 15.2775 13.8079 15.4863ZM16.8114 15.1598C16.8086 15.1558 16.8048 15.1533 16.8004 15.1533C15.7968 15.1387 14.7941 15.2369 13.8029 15.4468L13.8029 15.4468L13.8024 15.447C13.212 15.6004 12.7403 15.7875 12.4484 15.9888C12.4461 15.9904 12.4442 15.9927 12.4428 15.9955L12.3328 16.2155C12.329 16.223 12.3295 16.233 12.334 16.2398C12.3385 16.2466 12.3458 16.2485 12.3519 16.2445C12.8163 15.9392 13.3145 15.735 13.8273 15.6397L13.8273 15.6397L13.8276 15.6397C14.8107 15.4328 15.8049 15.3348 16.8001 15.3466C17.8699 15.3599 18.8839 15.4333 19.7027 15.6263L19.7028 15.6263C20.0547 15.7062 20.4278 15.821 20.7388 15.9548C20.8943 16.0217 21.0341 16.0933 21.1478 16.1674C21.2619 16.2417 21.3485 16.3179 21.3991 16.3933C21.4043 16.401 21.413 16.4022 21.4193 16.3959C21.4255 16.3897 21.4271 16.3781 21.423 16.3693L21.298 16.1027C21.2966 16.0997 21.2946 16.0972 21.2923 16.0956C20.8126 15.7591 20.2938 15.533 19.7577 15.4269C18.9343 15.2273 17.8779 15.1472 16.8114 15.1598ZM19.8627 16.0863C18.8501 15.8727 17.8255 15.7769 16.8005 15.7999L16.8003 15.7799L16.8003 15.7999C15.5505 15.8066 14.5566 15.8666 13.683 16.0796C12.8979 16.2717 12.435 16.5164 12.1362 16.715L12.0762 16.8608C12.5892 16.5287 13.138 16.3058 13.7029 16.2002C14.5441 15.9999 15.5299 15.9133 16.7953 15.9199C17.9106 15.9133 18.9967 15.9866 19.848 16.2003C20.2734 16.307 20.6527 16.4255 20.9589 16.5457C21.2303 16.6523 21.4454 16.7607 21.5843 16.8641L21.5281 16.7319C21.5159 16.7147 21.4941 16.6945 21.4624 16.6717C21.4301 16.6485 21.3886 16.6234 21.3391 16.597C21.24 16.5443 21.1096 16.4865 20.9573 16.4275C20.6529 16.3094 20.2622 16.1862 19.8627 16.0863ZM16.8001 15.7599C15.55 15.7666 14.5539 15.8266 13.6776 16.0403L13.6776 16.0403C12.8863 16.2339 12.4199 16.4811 12.1186 16.682C12.1158 16.6839 12.1136 16.6868 12.1121 16.6903L12.0271 16.897C12.024 16.9046 12.0249 16.9141 12.0294 16.9205C12.034 16.9268 12.0411 16.9284 12.0469 16.9245C12.5692 16.5789 13.1299 16.3476 13.7074 16.2397L13.7074 16.2398L13.7079 16.2396C14.5467 16.0399 15.5307 15.9533 16.7952 15.9599H16.7953C17.91 15.9533 18.9939 16.0266 19.8425 16.2396C20.2671 16.3462 20.6454 16.4644 20.9504 16.5841C21.2558 16.704 21.4866 16.8251 21.6172 16.9368C21.623 16.9417 21.6306 16.9408 21.6356 16.9345C21.6406 16.9281 21.6417 16.9181 21.6383 16.9101L21.5533 16.7101C21.5528 16.7088 21.5521 16.7075 21.5513 16.7064C21.5358 16.6839 21.51 16.6605 21.4766 16.6365C21.443 16.6123 21.4004 16.5866 21.3502 16.5599C21.2499 16.5064 21.1185 16.4483 20.9657 16.3891C20.6602 16.2705 20.2684 16.147 19.868 16.0469L19.868 16.0469L19.8676 16.0468C18.8533 15.8328 17.8269 15.7368 16.8001 15.7599ZM12.1055 23.292L12.3366 23.785C12.3791 23.7182 12.4694 23.6259 12.6196 23.5226C12.7891 23.406 13.0365 23.2742 13.382 23.149C14.0729 22.8984 15.1567 22.6733 16.7951 22.6466C16.7951 22.6466 16.7951 22.6466 16.7951 22.6466L16.7953 22.6666L16.795 22.6466C16.795 22.6466 16.795 22.6466 16.7951 22.6466C17.6727 22.624 18.5499 22.7127 19.4149 22.9117L19.4072 22.9301C19.4044 22.9368 19.4047 22.9446 19.4076 22.9506C18.5452 22.7524 17.6706 22.664 16.7956 22.6866L16.7955 22.6866C15.1588 22.7133 14.0777 22.9381 13.3898 23.1876C13.0459 23.3123 12.8005 23.4431 12.6333 23.5581C12.4654 23.6736 12.3779 23.7722 12.3476 23.8312C12.3448 23.8368 12.34 23.8401 12.335 23.8399C12.3299 23.8398 12.3252 23.8363 12.3225 23.8305L12.0725 23.2972C12.0683 23.2882 12.0701 23.2765 12.0765 23.2703C12.4991 22.8679 13.1566 22.5538 13.9712 22.3453C14.7861 22.1367 15.7597 22.0333 16.8155 22.0533L16.8155 22.0533C17.911 22.0799 18.8569 22.18 19.6482 22.387C19.6529 22.3882 19.6569 22.3924 19.6589 22.3982C19.6609 22.404 19.6607 22.4108 19.6583 22.4164L19.4333 22.9497C19.4293 22.9594 19.4201 22.9628 19.4129 22.9574C19.4107 22.9557 19.4089 22.9534 19.4076 22.9506M19.622 22.4209L19.4149 22.9117ZM19.622 22.4209C19.6288 22.4227 19.6356 22.4245 19.6424 22.4262L19.6453 22.4066L19.6322 22.3968L19.622 22.4209ZM19.622 22.4209C18.8374 22.2182 17.9002 22.1197 16.8151 22.0933L16.8153 22.0733L16.815 22.0933C16.815 22.0933 16.815 22.0933 16.8151 22.0933C15.7609 22.0733 14.7894 22.1765 13.9768 22.3846C13.1714 22.5908 12.5234 22.8996 12.1055 23.292" fill="black"/>
<path fill-rule="evenodd" clip-rule="evenodd" d="M16.7802 22.5933C17.6902 22.6133 18.5802 22.66 19.4452 22.8733L19.3852 23.02C18.5852 22.82 17.7252 22.7533 16.7852 22.7533C15.5702 22.74 14.3502 22.8933 13.2852 23.3C12.9502 23.4267 12.3952 23.7133 12.3352 23.9533L12.2752 23.82C12.2952 23.6733 12.6252 23.38 13.2552 23.1533C14.4752 22.6867 15.6152 22.6 16.7802 22.5933ZM16.8202 21.98C17.7807 21.9787 18.7394 22.0902 19.6852 22.3133L19.6202 22.4667C18.6966 22.2408 17.7591 22.1314 16.8202 22.14C15.6102 22.14 14.3252 22.26 13.1552 22.7133C12.7802 22.86 12.1252 23.18 12.1052 23.4267L12.0452 23.28C12.0552 23.0533 12.6202 22.7533 13.1302 22.56C14.3052 22.1 15.5952 21.9867 16.8202 21.98V21.98Z" fill="#FFFF00"/>
<path fill-rule="evenodd" clip-rule="evenodd" d="M19.6617 22.3281C18.7235 22.1085 17.7727 21.9987 16.8202 22C15.5957 22.0066 14.3073 22.12 13.1344 22.5792L13.1343 22.5792C12.8797 22.6757 12.6117 22.7987 12.4065 22.9256C12.3037 22.9891 12.2174 23.0532 12.1562 23.115C12.1257 23.1459 12.1019 23.1757 12.0856 23.2041C12.0706 23.2303 12.0625 23.2542 12.0605 23.2757L12.1011 23.375C12.1079 23.3558 12.1175 23.3368 12.1291 23.3183C12.1508 23.2839 12.1806 23.2495 12.2162 23.2155C12.2874 23.1474 12.3839 23.0791 12.4908 23.0143C12.7048 22.8846 12.963 22.7676 13.1509 22.6941L13.151 22.6941C14.3229 22.24 15.6095 22.12 16.8201 22.12C17.7564 22.1114 18.6913 22.22 19.6123 22.4444L19.6617 22.3281ZM16.8202 21.98L16.8201 21.96C17.7815 21.9587 18.7411 22.0703 19.6878 22.2936C19.6926 22.2947 19.6966 22.2989 19.6987 22.3048C19.7008 22.3106 19.7006 22.3175 19.6982 22.3231L19.6332 22.4765C19.6301 22.4839 19.6237 22.4878 19.6174 22.4863C18.6948 22.2606 17.7583 22.1514 16.8203 22.16L16.8202 22.16C15.6107 22.16 14.3274 22.2799 13.1593 22.7325C12.9723 22.8057 12.7155 22.922 12.5032 23.0507C12.397 23.115 12.3026 23.1821 12.2337 23.248C12.1992 23.2809 12.1716 23.3131 12.1521 23.344C12.1326 23.3751 12.1221 23.4034 12.1201 23.4288C12.1194 23.4375 12.1145 23.4446 12.1081 23.4463C12.1016 23.448 12.0951 23.4439 12.092 23.4362L12.032 23.2895C12.0306 23.2863 12.03 23.2825 12.0302 23.2788C12.0317 23.2451 12.0434 23.2118 12.0618 23.1797C12.0803 23.1475 12.1063 23.1152 12.1381 23.0831C12.2017 23.0188 12.2903 22.9533 12.3938 22.8893C12.601 22.7612 12.8706 22.6376 13.126 22.5408C14.303 22.08 15.5946 21.9666 16.8201 21.96L16.8202 21.98ZM16.7804 22.5733V22.5733C17.6905 22.5933 18.5816 22.64 19.4479 22.8536C19.4526 22.8548 19.4566 22.8589 19.4587 22.8647C19.4608 22.8705 19.4606 22.8773 19.4583 22.8829L19.3983 23.0295C19.3952 23.0372 19.3888 23.0412 19.3824 23.0396C18.5837 22.8399 17.7247 22.7733 16.7852 22.7733L16.785 22.7733C15.5709 22.76 14.3525 22.9132 13.2893 23.3192L13.2892 23.3192C13.1223 23.3823 12.9006 23.4853 12.7134 23.6022C12.6197 23.6607 12.5352 23.7224 12.4705 23.7841C12.4052 23.8463 12.3628 23.9061 12.3494 23.9596C12.3475 23.967 12.3426 23.9723 12.3368 23.9732C12.331 23.974 12.3253 23.9703 12.3223 23.9636L12.2623 23.8303C12.2604 23.8261 12.2597 23.8212 12.2604 23.8164C12.2663 23.7727 12.2941 23.723 12.3382 23.6709C12.3829 23.6179 12.4467 23.5596 12.5292 23.4991C12.6942 23.3782 12.9353 23.2477 13.2511 23.134C14.473 22.6667 15.6146 22.58 16.7801 22.5733L16.7804 22.5733ZM16.7801 22.6133C15.6156 22.62 14.4773 22.7066 13.2593 23.1725L13.2591 23.1726L13.2591 23.1726C12.9449 23.2856 12.7061 23.4151 12.5436 23.5342C12.4624 23.5937 12.4006 23.6504 12.3581 23.7008C12.3182 23.748 12.2973 23.7875 12.2911 23.8166L12.3333 23.9104C12.3563 23.8563 12.3992 23.8029 12.4531 23.7515C12.5198 23.6879 12.6062 23.625 12.7007 23.566C12.8897 23.448 13.1129 23.3443 13.281 23.2807C14.3478 22.8734 15.5693 22.72 16.7852 22.7333C17.7215 22.7333 18.579 22.7994 19.3772 22.9976L19.4221 22.888C18.5648 22.6792 17.6828 22.6331 16.7801 22.6133Z" fill="black"/>
<path fill-rule="evenodd" clip-rule="evenodd" d="M21.4695 23.3667L21.0795 24.1867L19.9445 22.8467L17.0145 20.2134L13.7045 17.7934L11.9895 17.0134L12.3545 16.1067L12.4795 16.02L13.5445 16.3734L17.0645 18.7934L19.0945 20.5L20.7995 22.1334L21.4945 23.2L21.4695 23.3667Z" fill="#FFFF00"/>
<path fill-rule="evenodd" clip-rule="evenodd" d="M12.4727 16.0023C12.4759 16 12.4797 15.9994 12.4832 16.0006L13.5482 16.3539C13.5494 16.3543 13.5505 16.3548 13.5515 16.3556L17.0715 18.7756C17.0719 18.7758 17.0722 18.7761 17.0726 18.7764L19.1026 20.4831C19.1029 20.4833 19.1031 20.4835 19.1034 20.4838L20.8084 22.1171C20.8093 22.118 20.8102 22.119 20.8109 22.1202L21.5059 23.1869C21.509 23.1916 21.5102 23.1979 21.5093 23.2039L21.4843 23.3706C21.484 23.373 21.4833 23.3753 21.4823 23.3774L21.0923 24.1974C21.0899 24.2023 21.0861 24.2056 21.0817 24.2065C21.0774 24.2073 21.073 24.2055 21.0697 24.2016L19.9354 22.8625L17.0068 20.2304L13.6985 17.8117L11.9848 17.0323C11.9806 17.0304 11.9773 17.0261 11.9757 17.0207C11.974 17.0152 11.9743 17.0091 11.9764 17.0039L12.3414 16.0972C12.3428 16.0937 12.345 16.0908 12.3477 16.0889L12.4727 16.0023ZM12.4815 16.0412L12.3656 16.1216L12.0112 17.002L13.7095 17.7744C13.7103 17.7748 13.7111 17.7752 13.7118 17.7758L17.0218 20.1958C17.0222 20.1961 17.0226 20.1964 17.023 20.1967L19.953 22.8301C19.9535 22.8306 19.9541 22.8311 19.9546 22.8317L21.0764 24.1561L21.4554 23.3591L21.4785 23.2057L20.7894 22.1482L19.0862 20.5166L17.0572 18.8107L13.5393 16.3922L12.4815 16.0412Z" fill="black"/>
<path fill-rule="evenodd" clip-rule="evenodd" d="M11.9302 17.0334C12.2302 16.7667 14.4402 18.0734 16.7602 19.9401C19.0652 21.8067 21.2752 23.9134 21.0752 24.3067L21.0102 24.4467L20.9802 24.4801C20.9852 24.4734 21.0202 24.4134 20.9802 24.2734C20.8802 23.8401 19.3102 22.1734 16.7152 20.0801C14.1802 18.0734 12.0702 16.8601 11.8652 17.2067L11.9302 17.0334V17.0334ZM21.5502 23.3601C21.7402 22.8534 19.6902 20.7934 17.1452 18.7867C14.5452 16.8201 12.6652 15.6601 12.3202 16.0067L12.2502 16.2001C12.2502 16.2067 12.2502 16.1867 12.2702 16.1667C12.3302 16.1001 12.4352 16.1001 12.4802 16.1001C13.0702 16.1134 14.7552 17.1467 17.1202 18.9534C18.1602 19.7534 21.5002 22.6201 21.4852 23.4201C21.4852 23.4867 21.4902 23.5001 21.4702 23.5401L21.5552 23.3667L21.5502 23.3601Z" fill="#FFFF00"/>
<path fill-rule="evenodd" clip-rule="evenodd" d="M13.8931 16.5109C14.732 17.0038 15.8525 17.7859 17.1526 18.7693L17.1529 18.7695C18.4257 19.7731 19.575 20.7902 20.3825 21.62C20.7862 22.0349 21.1049 22.4034 21.311 22.7003C21.414 22.8487 21.4894 22.9801 21.5332 23.0911C21.574 23.1946 21.5891 23.2854 21.568 23.3561C21.571 23.3626 21.571 23.371 21.5678 23.3777L21.4847 23.5471C21.484 23.5484 21.4834 23.5498 21.4827 23.5511C21.4781 23.5603 21.4688 23.5628 21.462 23.5567C21.4551 23.5507 21.4531 23.5383 21.4577 23.5291L21.4577 23.529C21.4583 23.5278 21.4589 23.5266 21.4595 23.5254C21.4671 23.5095 21.4694 23.4998 21.4703 23.4881C21.4708 23.481 21.4708 23.4729 21.4707 23.4617C21.4705 23.4507 21.4702 23.437 21.4702 23.42L21.4702 23.4195C21.4711 23.374 21.46 23.3193 21.4366 23.2556C21.4133 23.1922 21.3784 23.1212 21.3328 23.0436C21.2417 22.8884 21.1091 22.7085 20.9457 22.512C20.6191 22.119 20.171 21.6612 19.6896 21.203C18.7269 20.2867 17.6323 19.3704 17.1127 18.9707C15.9305 18.0676 14.9184 17.3579 14.1283 16.8724C13.7333 16.6296 13.3939 16.443 13.1167 16.3164C12.8392 16.1895 12.6251 16.1234 12.4801 16.12C12.4576 16.12 12.4212 16.1201 12.3832 16.1281C12.3448 16.1363 12.3068 16.1522 12.2798 16.1821C12.2796 16.1823 12.2794 16.1825 12.2792 16.1827C12.2712 16.1907 12.2677 16.1982 12.2661 16.2023C12.2654 16.2044 12.265 16.2058 12.2648 16.2068C12.2647 16.2069 12.2645 16.2077 12.2643 16.2084C12.2643 16.2087 12.2638 16.2103 12.2629 16.2121C12.2626 16.2128 12.261 16.2162 12.2578 16.2187C12.2558 16.2202 12.2526 16.2218 12.2486 16.2212C12.2444 16.2206 12.2415 16.2179 12.2397 16.2155C12.2368 16.2117 12.236 16.2075 12.2358 16.2067C12.2358 16.2067 12.2358 16.2067 12.2358 16.2066C12.2355 16.2053 12.2354 16.2042 12.2354 16.2037C12.2353 16.2027 12.2352 16.2019 12.2352 16.2016C12.2352 16.201 12.2352 16.2003 12.2352 16.2C12.2352 16.197 12.2357 16.1941 12.2367 16.1914L12.3067 15.998C12.3078 15.9952 12.3093 15.9927 12.3112 15.9907C12.3583 15.9434 12.4296 15.9236 12.5203 15.926C12.6114 15.9284 12.7245 15.9533 12.8578 15.9989C13.1243 16.09 13.4738 16.2645 13.8931 16.5109ZM21.5004 23.442L21.5365 23.3683C21.5347 23.3629 21.5347 23.3566 21.5368 23.3511C21.5571 23.2969 21.549 23.2172 21.5066 23.1097C21.4647 23.0032 21.3912 22.8748 21.289 22.7275C21.0846 22.433 20.7674 22.0661 20.3642 21.6517C19.558 20.8232 18.4098 19.8071 17.1377 18.804C15.8379 17.8208 14.7185 17.0396 13.881 16.5475C13.4623 16.3014 13.1145 16.128 12.8503 16.0377C12.7182 15.9925 12.6075 15.9683 12.5197 15.966C12.4335 15.9637 12.3714 15.9824 12.3321 16.0199L12.2952 16.1217C12.3216 16.1044 12.351 16.0945 12.3785 16.0886C12.419 16.08 12.4575 16.08 12.48 16.08H12.4805C12.6304 16.0834 12.8482 16.1514 13.1264 16.2785C13.405 16.4058 13.7453 16.593 14.1409 16.8361C14.932 17.3222 15.945 18.0325 17.1277 18.936C17.6481 19.3363 18.7435 20.2534 19.7071 21.1704C20.1888 21.6289 20.6379 22.0878 20.9658 22.4823C21.1297 22.6795 21.2637 22.8611 21.3564 23.0189C21.4028 23.0978 21.4391 23.1712 21.4636 23.2381C21.488 23.3046 21.5012 23.3659 21.5002 23.4203C21.5002 23.4283 21.5003 23.4354 21.5004 23.442ZM11.9418 17.0473L11.904 17.148C11.9097 17.1452 11.9156 17.1427 11.9218 17.1405C11.951 17.1301 11.9871 17.1264 12.029 17.1284C12.113 17.1324 12.2234 17.1596 12.357 17.2079C12.6243 17.3047 12.9872 17.487 13.4225 17.7426C14.2932 18.2538 15.455 19.0592 16.7229 20.0629L16.723 20.0629C18.0208 21.1099 19.0625 22.0502 19.7924 22.7832C20.1573 23.1497 20.4444 23.4645 20.6468 23.7151C20.7479 23.8403 20.828 23.9498 20.8862 24.0418C20.9437 24.1328 20.9808 24.2087 20.9944 24.2669C21.0101 24.3221 21.0148 24.3662 21.0141 24.4004L21.0628 24.2955C21.0724 24.2767 21.0756 24.2514 21.0703 24.2174C21.0651 24.1831 21.0514 24.1417 21.029 24.0932C20.9842 23.9964 20.9063 23.8759 20.799 23.7352C20.5847 23.4542 20.2558 23.0963 19.8481 22.6919C19.033 21.8833 17.9047 20.8903 16.7524 19.9571C15.5929 19.0242 14.4609 18.2312 13.5816 17.705C13.1418 17.4418 12.7656 17.2455 12.4809 17.1317C12.3385 17.0748 12.2195 17.0387 12.1271 17.025C12.0809 17.0182 12.0418 17.017 12.01 17.0215C11.9801 17.0256 11.9576 17.0346 11.9418 17.0473ZM11.9302 17.0334L11.9219 17.0167C11.9435 16.9976 11.9724 16.9865 12.0069 16.9817C12.0415 16.9769 12.0829 16.9783 12.1304 16.9853C12.2253 16.9993 12.3463 17.0361 12.4895 17.0934C12.776 17.2079 13.1536 17.405 13.5939 17.6685C14.4745 18.1955 15.6076 18.9893 16.768 19.9229C17.9207 20.8565 19.0499 21.8502 19.8661 22.6598C20.274 23.0646 20.6042 23.4238 20.82 23.7067C20.9278 23.8481 21.0078 23.9713 21.0545 24.0722C21.0779 24.1227 21.0935 24.1686 21.0997 24.2093C21.106 24.2502 21.1031 24.2873 21.0878 24.3176L21.023 24.4572C21.0221 24.4591 21.0211 24.4607 21.0198 24.4621L20.9898 24.4954C20.9837 24.5023 20.9746 24.5014 20.9691 24.4935C20.9637 24.4856 20.9639 24.4735 20.9696 24.4659C20.9697 24.4657 20.9719 24.4625 20.9746 24.4555C20.9773 24.4485 20.9804 24.4379 20.9823 24.4233C20.9862 24.3941 20.9854 24.3478 20.9662 24.2805C20.9661 24.2801 20.966 24.2797 20.9659 24.2793C20.9543 24.2292 20.9206 24.1584 20.8632 24.0675C20.8062 23.9773 20.727 23.869 20.6263 23.7444C20.4251 23.4951 20.1388 23.1812 19.7743 22.8152C19.0455 22.0832 18.0047 21.1436 16.7075 20.0972C15.4404 19.0942 14.2797 18.2896 13.4104 17.7792C12.9757 17.5239 12.6143 17.3425 12.3491 17.2465C12.2164 17.1985 12.1086 17.1722 12.028 17.1683C11.9877 17.1664 11.9549 17.1702 11.9295 17.1791C11.9041 17.1881 11.8871 17.2019 11.877 17.2191C11.8722 17.2272 11.8637 17.2291 11.8572 17.2236C11.8507 17.2181 11.8484 17.2069 11.8518 17.1978L11.9168 17.0244L11.9302 17.0334Z" fill="black"/>
<path d="M13.6321 20.7844C13.6329 21.3364 13.7158 21.8827 13.876 22.3917C14.0362 22.9007 14.2705 23.3623 14.5654 23.7497C14.8567 24.1441 15.2037 24.4577 15.5863 24.6725C15.9689 24.8873 16.3796 24.9991 16.7948 25.0013C17.6349 25.0012 18.4407 24.5561 19.0348 23.764C19.3286 23.3744 19.5619 22.9112 19.7211 22.4011C19.8804 21.891 19.9625 21.344 19.9628 20.7915V15.1595L13.6321 15.1453V20.7844V20.7844Z" fill="white"/>
<path fill-rule="evenodd" clip-rule="evenodd" d="M13.6128 15.1204L19.9808 15.1347V20.7915C19.9805 21.3473 19.8979 21.8976 19.7377 22.4107C19.5775 22.9239 19.3429 23.3897 19.0473 23.7816C19.0473 23.7816 19.0473 23.7816 19.0473 23.7816M14.5516 23.7674C14.8446 24.164 15.1936 24.4795 15.5784 24.6955C15.9633 24.9116 16.3765 25.024 16.7941 25.0262H16.7941C17.6393 25.0261 18.4498 24.5784 19.0473 23.7816M14.5516 23.7674C14.255 23.3776 14.0193 22.9134 13.8581 22.4014C13.697 21.8893 13.6136 21.3398 13.6128 20.7845L13.6128 15.1204M13.6501 20.7844C13.6509 21.3331 13.7333 21.8762 13.8926 22.3821C14.0518 22.8881 14.2848 23.3469 14.5779 23.732L14.5781 23.7323C14.8677 24.1243 15.2126 24.4361 15.5929 24.6496C15.9733 24.8632 16.3815 24.9742 16.7942 24.9764C17.6294 24.9763 18.4304 24.5339 19.0209 23.7464L19.021 23.7463C19.3131 23.3591 19.545 22.8987 19.7033 22.3916C19.8616 21.8845 19.9432 21.3408 19.9435 20.7915V15.1844L13.6501 15.1702V20.7844Z" fill="black"/>
<path d="M13.7489 20.7916C13.75 21.3211 13.8298 21.845 13.9836 22.3332C14.1374 22.8214 14.3621 23.2642 14.6449 23.636C15.2127 24.3971 15.9838 24.8267 16.7889 24.8307C17.5926 24.8313 18.3637 24.4067 18.9329 23.6502C19.2147 23.2779 19.4385 22.8348 19.5914 22.3466C19.7442 21.8585 19.8232 21.3348 19.8236 20.8058V15.3302H13.7596V20.7916M18.6129 16.9729V20.4502L18.6076 20.8129C18.6094 21.1306 18.5631 21.4455 18.4714 21.7387C18.3798 22.032 18.2447 22.2976 18.0742 22.5196C17.7351 22.9733 17.2747 23.2291 16.7942 23.2307C16.2929 23.2307 15.8502 22.9462 15.5196 22.5053C15.1792 22.0531 14.9874 21.4393 14.9862 20.7987V16.9586L18.6129 16.9729Z" fill="#FF0000"/>
<path fill-rule="evenodd" clip-rule="evenodd" d="M13.7464 15.3124H19.8371V20.8057C19.8366 21.3371 19.7574 21.8631 19.6038 22.3534C19.4503 22.8438 19.2255 23.2888 18.9425 23.6628C18.3707 24.4226 17.5963 24.849 16.7891 24.8484C15.9804 24.8444 15.2059 24.4129 14.6356 23.6485C14.3516 23.2751 14.1259 22.8304 13.9714 22.3401C13.817 21.8497 13.7368 21.3234 13.7357 20.7916L13.7491 20.7915H13.7464V15.3124ZM13.7624 20.7915C13.7635 21.3187 13.8429 21.8403 13.996 22.3263C14.1491 22.8124 14.3729 23.2532 14.6544 23.6233L14.6545 23.6234C15.2198 24.3811 15.9875 24.8089 16.7891 24.8129C17.5893 24.8134 18.3569 24.3908 18.9237 23.6376C19.2042 23.2669 19.427 22.8258 19.5792 22.3397C19.7314 21.8537 19.81 21.3324 19.8104 20.8057V15.3479H13.7731V20.7915H13.7624ZM14.9731 16.9408L18.6264 16.9551V20.4502L18.6264 20.4505L18.6211 20.8127C18.6211 20.8128 18.6211 20.8129 18.6211 20.8129C18.6229 21.1329 18.5762 21.4501 18.4839 21.7455C18.3916 22.041 18.2555 22.3085 18.0838 22.5322C17.7421 22.9892 17.2784 23.2468 16.7944 23.2484C16.2891 23.2484 15.8432 22.9617 15.5103 22.5179C15.1675 22.0623 14.9742 21.444 14.9731 20.7987V16.9408ZM14.9997 16.9764V20.7986C15.0009 21.4345 15.1913 22.0438 15.5291 22.4927C15.8576 22.9307 16.297 23.2128 16.7944 23.2128C17.2713 23.2113 17.7283 22.9574 18.065 22.507L18.0651 22.5068C18.2342 22.2865 18.3683 22.0229 18.4593 21.7318C18.5502 21.4408 18.5962 21.1283 18.5944 20.813L18.5944 20.8125L18.5997 20.4502V16.9906L14.9997 16.9764Z" fill="black"/>
<path d="M14.1436 16.7596C14.1489 16.3684 14.3569 16.276 14.3569 16.276C14.3622 16.276 14.5862 16.3756 14.5862 16.7667H14.1436" fill="#FFFF00"/>
<path d="M13.9619 16.2831L13.9246 16.7311H14.1486C14.1486 16.3613 14.3619 16.3044 14.3619 16.3044C14.3673 16.3044 14.5753 16.3827 14.5806 16.7311H14.8046L14.7619 16.276H13.9619V16.2831ZM13.9086 16.7382H14.8153C14.8313 16.7382 14.8473 16.7596 14.8473 16.788C14.8473 16.8236 14.8313 16.8449 14.8153 16.8449H13.9086C13.8926 16.8449 13.8766 16.8236 13.8766 16.788C13.8766 16.7596 13.8926 16.7382 13.9139 16.7382H13.9086Z" fill="#FFFF00"/>
<path fill-rule="evenodd" clip-rule="evenodd" d="M13.9495 16.2582H14.7746L14.8179 16.7205C14.8418 16.7219 14.8615 16.7524 14.8615 16.788C14.8615 16.8298 14.8419 16.8626 14.8161 16.8626H13.9095C13.8837 16.8626 13.8641 16.8298 13.8641 16.788C13.8641 16.7521 13.8834 16.7241 13.9095 16.7207V16.7204H13.9129L13.9495 16.2821V16.2582ZM13.9753 16.2937L13.9404 16.7133H14.1363C14.1396 16.5339 14.193 16.4273 14.2475 16.3655C14.2754 16.3339 14.3034 16.3143 14.3243 16.3027C14.3311 16.2989 14.3371 16.296 14.3422 16.2937H13.9753ZM14.3628 16.3044C14.3621 16.2997 14.3616 16.2962 14.3612 16.2937L14.3628 16.3044ZM14.3823 16.2937C14.3883 16.2967 14.3957 16.3007 14.4042 16.306C14.4254 16.3193 14.4532 16.3409 14.481 16.3738C14.535 16.4377 14.5884 16.5439 14.5944 16.7133H14.7904L14.751 16.2937H14.3823ZM14.5679 16.7204C14.5633 16.5581 14.513 16.4591 14.4633 16.4004C14.4377 16.3701 14.4122 16.3503 14.3928 16.3381C14.3831 16.3321 14.375 16.3279 14.3692 16.3253C14.3665 16.324 14.3644 16.3232 14.3629 16.3226C14.3615 16.3231 14.3597 16.3237 14.3574 16.3246C14.352 16.3267 14.3441 16.3302 14.3346 16.3355C14.3156 16.346 14.2902 16.3638 14.2648 16.3926C14.2154 16.4486 14.1649 16.5474 14.1629 16.7204H14.5679ZM13.9148 16.756C13.9008 16.756 13.8908 16.7693 13.8908 16.788C13.8908 16.8172 13.9032 16.8271 13.9095 16.8271H14.8161C14.8224 16.8271 14.8348 16.8172 14.8348 16.788C14.8348 16.7675 14.8235 16.756 14.8161 16.756H13.9148Z" fill="black"/>
<path d="M14.2394 16.7311C14.2394 16.4965 14.3621 16.4325 14.3621 16.4325C14.3621 16.4325 14.4847 16.5036 14.4847 16.7311H14.2394ZM13.9301 16.0911H14.7994C14.8154 16.0911 14.8314 16.1196 14.8314 16.148C14.8314 16.1693 14.8154 16.1907 14.7994 16.1907H13.9301C13.9141 16.1907 13.8981 16.1693 13.8981 16.1409C13.8981 16.1196 13.9141 16.0982 13.9301 16.0982V16.0911ZM14.2607 16.8378H14.7727C14.7887 16.8378 14.8047 16.8591 14.8047 16.8876C14.8047 16.916 14.7887 16.9374 14.7727 16.9374H13.9461C13.9247 16.9374 13.9141 16.916 13.9141 16.8876C13.9141 16.8591 13.9247 16.8378 13.9461 16.8378H14.2607ZM14.5274 16.084H14.5914V16.1409H14.6394V16.084H14.7087V16.148H14.7567V16.0769H14.8207V16.2191C14.8207 16.2476 14.8101 16.2618 14.7941 16.2618H14.5594C14.5434 16.2618 14.5274 16.2476 14.5274 16.2262V16.084ZM14.7727 16.276L14.7887 16.7311H14.5594L14.5754 16.2689H14.7727" fill="#FFFF00"/>
<path fill-rule="evenodd" clip-rule="evenodd" d="M14.7436 16.0591H14.8342V16.102C14.8407 16.1149 14.8449 16.1312 14.8449 16.148C14.8449 16.1621 14.8405 16.1751 14.8342 16.1851V16.2191C14.8342 16.2361 14.831 16.2514 14.8236 16.2628C14.8159 16.2744 14.8053 16.2795 14.7942 16.2795H14.7864L14.8029 16.7489H14.5456L14.5618 16.2795H14.5596C14.5488 16.2795 14.5378 16.2748 14.5294 16.266C14.5208 16.2571 14.5142 16.2433 14.5142 16.2262V16.2084H13.9302C13.9056 16.2084 13.8849 16.1773 13.8849 16.1409C13.8849 16.1244 13.8909 16.1095 13.8988 16.099C13.9037 16.0924 13.9099 16.0868 13.9169 16.0835V16.0733H14.5142V16.0662H14.6049V16.0733H14.6262V16.0662H14.7222V16.0733H14.7436V16.0591ZM14.7436 16.1089H14.7222V16.1302H14.7436V16.1089ZM14.6956 16.1089V16.1657H14.7702V16.1089H14.7996C14.8012 16.1089 14.8042 16.1102 14.8076 16.1145V16.1695C14.8047 16.1718 14.8019 16.1729 14.7996 16.1729H14.5409V16.1089H14.5782V16.1586H14.6529V16.1089H14.6956ZM14.6262 16.1089H14.6049V16.1231H14.6262V16.1089ZM14.5142 16.1089H13.9436V16.116H13.9302C13.9266 16.116 13.9218 16.1186 13.9176 16.1241C13.9135 16.1296 13.9116 16.136 13.9116 16.1409C13.9116 16.1613 13.9229 16.1729 13.9302 16.1729H14.5142V16.1089ZM14.5409 16.2084V16.2262C14.5409 16.2304 14.5424 16.2344 14.5457 16.2379C14.5493 16.2416 14.5544 16.244 14.5596 16.244H14.7942C14.7991 16.244 14.8018 16.2419 14.8035 16.2394C14.8054 16.2365 14.8076 16.2305 14.8076 16.2191V16.2073C14.805 16.208 14.8023 16.2084 14.7996 16.2084H14.5409ZM14.5883 16.2866L14.5735 16.7133H14.7749L14.7599 16.2866H14.5883ZM14.3675 16.4161L14.3622 16.4324L14.3574 16.4159L14.3625 16.4132L14.3675 16.4161ZM14.362 16.4521C14.359 16.4541 14.355 16.4571 14.3502 16.4611C14.3395 16.4701 14.3252 16.4844 14.3108 16.5057C14.2838 16.5456 14.256 16.6109 14.2531 16.7133H14.4713C14.4683 16.6143 14.4407 16.5491 14.4136 16.5082C14.3991 16.4864 14.3847 16.4714 14.374 16.4619C14.3691 16.4575 14.365 16.4543 14.362 16.4521ZM14.3574 16.4159C14.3574 16.4159 14.3574 16.4159 14.3622 16.4324C14.3675 16.4161 14.3675 16.4161 14.3675 16.4161L14.3676 16.4162L14.3677 16.4162L14.3681 16.4165C14.3684 16.4166 14.3689 16.4169 14.3694 16.4173C14.3704 16.4179 14.3719 16.4189 14.3738 16.4202C14.3775 16.4229 14.3826 16.4268 14.3888 16.4323C14.4011 16.4432 14.4173 16.4602 14.4335 16.4846C14.4662 16.5338 14.4982 16.6126 14.4982 16.7311V16.7489H14.2262V16.7311C14.2262 16.6092 14.2582 16.5303 14.291 16.4818C14.3073 16.4578 14.3236 16.4414 14.3359 16.431C14.3421 16.4259 14.3473 16.4221 14.351 16.4197C14.3529 16.4185 14.3544 16.4175 14.3555 16.4169C14.356 16.4166 14.3564 16.4164 14.3568 16.4162L14.3572 16.416L14.3573 16.4159L14.3574 16.4159ZM13.9326 16.8631C13.9297 16.8679 13.9276 16.876 13.9276 16.8875C13.9276 16.899 13.9297 16.9071 13.9326 16.912C13.9352 16.9163 13.9392 16.9195 13.9462 16.9195H14.7729C14.7802 16.9195 14.7916 16.908 14.7916 16.8875C14.7916 16.8671 14.7802 16.8555 14.7729 16.8555H13.9462C13.9392 16.8555 13.9352 16.8588 13.9326 16.8631ZM13.9118 16.8409C13.9199 16.8274 13.9319 16.82 13.9462 16.82H14.7729C14.7975 16.82 14.8182 16.8511 14.8182 16.8875C14.8182 16.924 14.7975 16.9551 14.7729 16.9551H13.9462C13.9319 16.9551 13.9199 16.9477 13.9118 16.9342C13.904 16.9213 13.9009 16.9045 13.9009 16.8875C13.9009 16.8706 13.904 16.8538 13.9118 16.8409Z" fill="black"/>
<path d="M14.1861 15.8494V16.0911H13.9728V15.8494H14.1861Z" fill="#FFFF00"/>
<path fill-rule="evenodd" clip-rule="evenodd" d="M13.9595 15.8315H14.1995V16.1089H13.9595V15.8315ZM13.9861 15.8671V16.0733H14.1728V15.8671H13.9861Z" fill="black"/>
<path d="M13.9354 15.6644H13.9994V15.7355H14.0474V15.6644H14.1114V15.7355H14.1594V15.6644H14.2234V15.8067C14.2234 15.8351 14.2128 15.8493 14.1968 15.8493H13.9674C13.9589 15.8493 13.9508 15.8448 13.9448 15.8368C13.9388 15.8288 13.9354 15.818 13.9354 15.8067V15.6644V15.6644Z" fill="#FFFF00"/>
<path fill-rule="evenodd" clip-rule="evenodd" d="M13.9488 15.6823V15.8067C13.9488 15.8133 13.9508 15.8197 13.9543 15.8243C13.9578 15.829 13.9625 15.8316 13.9675 15.8316H14.1968C14.2017 15.8316 14.2044 15.8296 14.2061 15.827C14.208 15.8241 14.2101 15.8182 14.2101 15.8067V15.6823H14.1728V15.7534H14.0981V15.6823H14.0608V15.7534H13.9861V15.6823H13.9488ZM13.9355 15.6645V15.6467H14.0128V15.7178H14.0341V15.6467H14.1248V15.7178H14.1461V15.6467H14.2368V15.8067C14.2368 15.8237 14.2336 15.8391 14.2262 15.8504C14.2185 15.8621 14.2079 15.8672 14.1968 15.8672H13.9675C13.9554 15.8672 13.9439 15.8608 13.9354 15.8495C13.9269 15.8381 13.9221 15.8228 13.9221 15.8067V15.6645H13.9355Z" fill="black"/>
<path d="M14.3408 15.7782C14.3408 15.7355 14.3888 15.7355 14.3888 15.7782V15.892H14.3408V15.7782Z" fill="black"/>
<path d="M14.059 15.9347C14.059 15.892 14.1016 15.892 14.1016 15.9347V16.02H14.059V15.9347Z" fill="black"/>
<path d="M16.4054 20.1729C16.4044 20.323 16.4464 20.4679 16.5227 20.5782C16.5584 20.6313 16.6019 20.674 16.6506 20.7033C16.6992 20.7327 16.752 20.7482 16.8054 20.7489C16.9174 20.7489 17.0187 20.6778 17.0881 20.5782C17.1644 20.4679 17.2064 20.323 17.2054 20.1729V19.4049H16.4054V20.1729Z" fill="#003399"/>
<path d="M16.5915 19.8032C16.6357 19.8032 16.6715 19.7554 16.6715 19.6965C16.6715 19.6376 16.6357 19.5898 16.5915 19.5898C16.5473 19.5898 16.5115 19.6376 16.5115 19.6965C16.5115 19.7554 16.5473 19.8032 16.5915 19.8032Z" fill="white"/>
<path d="M17.0342 19.8032C17.0784 19.8032 17.1142 19.7554 17.1142 19.6965C17.1142 19.6376 17.0784 19.5898 17.0342 19.5898C16.99 19.5898 16.9542 19.6376 16.9542 19.6965C16.9542 19.7554 16.99 19.8032 17.0342 19.8032Z" fill="white"/>
<path d="M16.8103 20.0876C16.8545 20.0876 16.8903 20.0398 16.8903 19.9809C16.8903 19.922 16.8545 19.8743 16.8103 19.8743C16.7662 19.8743 16.7303 19.922 16.7303 19.9809C16.7303 20.0398 16.7662 20.0876 16.8103 20.0876Z" fill="white"/>
<path d="M16.5915 20.3862C16.6357 20.3862 16.6715 20.3384 16.6715 20.2795C16.6715 20.2206 16.6357 20.1729 16.5915 20.1729C16.5473 20.1729 16.5115 20.2206 16.5115 20.2795C16.5115 20.3384 16.5473 20.3862 16.5915 20.3862Z" fill="white"/>
<path d="M17.0342 20.3862C17.0784 20.3862 17.1142 20.3384 17.1142 20.2795C17.1142 20.2206 17.0784 20.1729 17.0342 20.1729C16.99 20.1729 16.9542 20.2206 16.9542 20.2795C16.9542 20.3384 16.99 20.3862 17.0342 20.3862Z" fill="white"/>
</g>
<rect x="2" y="2" width="36" height="36" rx="18" stroke="white" stroke-width="4"/>
<defs>
<clipPath id="clip0_90_22904">
<rect x="4" y="4" width="32" height="32" rx="16" fill="white"/>
</clipPath>
</defs>
</svg>
