<svg width="40" height="40" viewBox="0 0 40 40" fill="none" xmlns="http://www.w3.org/2000/svg">
<g clip-path="url(#clip0_90_22900)">
<path fill-rule="evenodd" clip-rule="evenodd" d="M-1.15442 4H41.1606V36H-1.15442V4Z" fill="#4AADD6"/>
<path fill-rule="evenodd" clip-rule="evenodd" d="M24.2951 19.4734C24.3198 20.6318 24.1623 21.7847 23.832 22.8641C23.5017 23.9435 23.0053 24.9275 22.3722 25.7579C21.739 26.5883 20.9819 27.2484 20.1455 27.6991C19.3091 28.1498 18.4105 28.382 17.5026 28.382C16.5948 28.382 15.6962 28.1498 14.8598 27.6991C14.0234 27.2484 13.2663 26.5883 12.6331 25.7579C11.9999 24.9275 11.5036 23.9435 11.1733 22.8641C10.843 21.7847 10.6855 20.6318 10.7101 19.4734C10.6855 18.315 10.843 17.1621 11.1733 16.0827C11.5036 15.0033 11.9999 14.0194 12.6331 13.1889C13.2663 12.3585 14.0234 11.6984 14.8598 11.2477C15.6962 10.797 16.5948 10.5648 17.5026 10.5648C18.4105 10.5648 19.3091 10.797 20.1455 11.2477C20.9819 11.6984 21.739 12.3585 22.3722 13.1889C23.0053 14.0194 23.5017 15.0033 23.832 16.0827C24.1623 17.1621 24.3198 18.315 24.2951 19.4734V19.4734Z" fill="#FFDE00"/>
</g>
<rect x="2" y="2" width="36" height="36" rx="18" stroke="white" stroke-width="4"/>
<defs>
<clipPath id="clip0_90_22900">
<rect x="4" y="4" width="32" height="32" rx="16" fill="white"/>
</clipPath>
</defs>
</svg>
