<svg width="40" height="40" viewBox="0 0 40 40" fill="none" xmlns="http://www.w3.org/2000/svg">
<g clip-path="url(#clip0_90_22271)">
<path d="M3.99976 4H35.9998V36H3.99976V4Z" fill="#20603D"/>
<path d="M3.99976 4H35.9998V28H3.99976V4Z" fill="#FAD201"/>
<path d="M3.99976 4H35.9998V20H3.99976V4Z" fill="#00A1DE"/>
<path d="M33.4196 12.36L30.7396 12.5689L33.2863 13.6978L30.6596 12.9733L32.9029 14.9378L30.5029 13.3289L32.2829 16.0089L30.2796 13.6311L31.4862 16.8311L30.0096 13.84L30.5496 17.3378L29.7062 13.9467L29.5496 17.52L29.5162 12.3156L33.4196 12.36Z" fill="#E5BE01"/>
<path d="M29.5493 13.8845C30.1808 13.8845 30.6927 13.202 30.6927 12.36C30.6927 11.5181 30.1808 10.8356 29.5493 10.8356C28.9179 10.8356 28.406 11.5181 28.406 12.36C28.406 13.202 28.9179 13.8845 29.5493 13.8845Z" fill="#E5BE01"/>
<path fill-rule="evenodd" clip-rule="evenodd" d="M29.5497 10.9111C28.9496 10.9111 28.4631 11.5598 28.4631 12.36C28.4631 13.1602 28.9496 13.8089 29.5497 13.8089C30.1499 13.8089 30.6364 13.1602 30.6364 12.36C30.6364 11.5598 30.1499 10.9111 29.5497 10.9111ZM28.3497 12.36C28.3497 11.4764 28.887 10.76 29.5497 10.76C30.2125 10.76 30.7497 11.4764 30.7497 12.36C30.7497 13.2437 30.2125 13.96 29.5497 13.96C28.887 13.96 28.3497 13.2437 28.3497 12.36Z" fill="#00A1DE"/>
</g>
<rect x="2" y="2" width="36" height="36" rx="18" stroke="white" stroke-width="4"/>
<defs>
<clipPath id="clip0_90_22271">
<rect x="4" y="4" width="32" height="32" rx="16" fill="white"/>
</clipPath>
</defs>
</svg>
