<svg width="40" height="40" viewBox="0 0 40 40" fill="none" xmlns="http://www.w3.org/2000/svg">
<g clip-path="url(#clip0_90_22252)">
<path fill-rule="evenodd" clip-rule="evenodd" d="M2 4H38V36H2V4Z" fill="#199D00"/>
<path fill-rule="evenodd" clip-rule="evenodd" d="M11.0694 13.0688C11.0319 13.8188 10.9757 15.1313 11.4585 15.2688C12.035 15.3438 11.7163 13.9688 11.9272 13.7188C11.9647 13.5938 12.035 13.5938 12.0397 13.75V14.9188C12.0397 15.2938 12.2272 15.4063 12.3679 15.4813C12.5179 15.4688 12.621 15.4813 12.6772 15.6688L12.7522 17.6875C12.7522 17.6875 13.0991 17.825 13.1179 16.5563C13.1319 15.8063 13.0054 15.1875 13.0804 15.0438C13.0804 14.9 13.221 14.8938 13.3147 14.9625C13.4647 15.1 13.5304 15.275 13.7647 15.2125C14.121 15.075 14.3366 14.8438 14.3413 14.4813C14.3343 14.125 14.2787 13.7735 14.1772 13.4438C14.196 13.3813 14.1116 13.2125 14.1304 13.15C14.1913 13.2875 14.2897 13.275 14.3085 13.15C14.2475 12.8875 14.1538 12.6313 14.0038 12.525C13.8772 12.375 13.6897 12.4 13.6288 12.7125C13.5913 13.0688 13.7225 13.4875 13.9147 13.8375C13.9569 13.9688 14.0132 14.1938 13.9897 14.3938C13.8866 14.475 13.7835 14.4375 13.6944 14.3188C13.6944 14.3188 13.4132 14.0375 13.4132 13.9688C13.4882 13.3313 13.4272 13.2563 13.385 13.075C13.3569 12.8313 13.2679 12.75 13.1975 12.5875C13.1272 12.4875 13.0335 12.4875 12.9866 12.5875C12.86 12.875 12.921 13.4938 13.01 13.775C13.0757 14.0313 13.1741 14.1938 13.1272 14.1938C13.0897 14.3375 13.01 14.3 12.9491 14.1313C12.8805 13.7761 12.8474 13.4105 12.8507 13.0438C12.8272 12.7563 12.7991 12.1438 12.6538 11.9813C12.5694 11.8313 12.4429 11.9063 12.396 12.0438C12.3836 12.323 12.3883 12.6031 12.41 12.8813C12.5038 13.3438 12.5366 13.7563 12.5835 14.225C12.5975 14.8563 12.3116 14.5 12.3257 14.1813C12.3872 13.7806 12.3824 13.3668 12.3116 12.9688C12.2647 12.8063 12.2132 12.7688 12.096 12.7938C12.0069 12.7938 11.7772 13.125 11.7116 13.6875C11.7116 13.6875 11.6554 13.975 11.6319 14.2313C11.5991 14.5188 11.4585 14.7313 11.3554 14.1938C11.271 13.8 11.2147 12.8438 11.0741 13.0688H11.0694Z" fill="white"/>
<path fill-rule="evenodd" clip-rule="evenodd" d="M12.6403 16.1375L11.1403 17.1C11.1543 16.6437 11.8481 15.825 12.3262 15.8187C12.6309 15.825 12.5559 15.975 12.6356 16.1375H12.6403Z" fill="white"/>
<path fill-rule="evenodd" clip-rule="evenodd" d="M12.3732 16.7625C11.5857 19.4812 14.2248 19.8625 14.5201 16.875C14.5482 16.75 14.6607 16.6312 14.6795 16.8312C14.6185 19.5375 12.6357 19.7187 12.2982 18.8687C12.2188 18.5763 12.1791 18.2673 12.181 17.9562C12.1341 17.425 11.9232 17.6312 11.8904 18.1562C11.8576 18.45 11.867 18.5312 11.867 18.8125C11.9701 20.95 14.5248 20.0312 14.942 18.2687C15.1623 17.2937 14.9045 16.575 15.0216 16.575C15.2748 16.9375 15.631 16.625 15.7107 16.5C15.7435 16.4375 15.8279 16.3937 15.8841 16.475C16.081 16.6625 16.4279 16.575 16.5029 16.2437C16.5451 15.9125 16.5779 15.575 16.5873 15.2312C16.4232 15.2937 16.306 15.3375 16.292 15.4312L16.2591 15.7187C16.2451 15.8125 16.1091 15.8125 16.0998 15.6937C16.0388 15.3187 15.7857 15.275 15.631 15.85C15.5326 15.9625 15.3451 15.9875 15.3263 15.8187C15.3498 15.4312 15.2326 15.3812 14.9982 15.5625L14.7732 13.3C14.867 13.3 14.9607 13.3937 15.0498 13.2437C14.956 12.8375 14.7451 12.0125 14.6279 11.95C14.5763 11.8625 14.5295 11.9187 14.4545 11.9437C14.3326 11.9937 14.2201 12.1312 14.2576 12.4062C14.3982 13.5812 14.492 14.475 14.6373 15.6562C14.6607 15.7875 14.5763 15.9687 14.4638 15.95C14.2763 15.7812 14.2295 15.4375 13.9013 15.45C13.667 15.45 13.4045 15.7937 13.3716 16.1187C13.3295 16.3812 13.3154 16.6625 13.3716 16.8875C13.5357 17.15 13.7326 17.125 13.906 17.0687C14.0466 16.9875 14.1638 16.8 14.2154 16.8437C14.2482 16.9 14.2201 17.525 13.5451 18C13.1373 18.25 12.8091 18.3 12.6357 17.8562C12.5279 17.575 12.6451 16.5187 12.3732 16.7625V16.7625Z" fill="white"/>
<path fill-rule="evenodd" clip-rule="evenodd" d="M15.7339 14C15.8886 13.925 16.6386 12.775 16.6386 12.775L16.5261 12.65C16.4839 12.6063 16.4886 12.5563 16.5261 12.5125C16.7136 12.3625 16.6527 12.05 16.5589 11.9C16.4953 11.8586 16.4253 11.8377 16.3545 11.8388C16.2837 11.8398 16.214 11.863 16.1511 11.9063C16.0199 12.075 15.9917 12.3438 16.0949 12.5063C16.1933 12.5688 16.2917 12.7063 16.2261 12.7813C15.9167 13.2188 15.0777 13.975 15.1761 14C15.1949 14.0375 15.7152 14.0375 15.7292 14H15.7339ZM11.187 18.0625C10.9058 18.6625 10.8824 19.5563 11.037 19.825C11.1214 19.95 11.2574 20.0063 11.3558 19.9625C11.5339 19.8625 11.6136 19.3813 11.5714 19.2125C11.5105 19.0875 11.4636 19.0688 11.4027 19.1688C11.2808 19.5063 11.2292 19.275 11.2152 19.0875C11.2017 18.77 11.2143 18.4514 11.2527 18.1375C11.2855 17.875 11.2527 17.95 11.187 18.0625V18.0625ZM23.2386 17.1063C22.9667 16.3188 22.587 15.5438 22.4699 15.25C22.1046 14.48 21.7168 13.7295 21.3074 13C21.0167 12.5375 21.7855 13.1938 21.2136 12.2688L20.7964 11.8C20.7027 11.7125 20.4777 11.55 20.4402 11.8125C20.4214 12.05 20.4308 12.175 20.4589 12.3688C20.4824 12.4938 20.623 12.7125 20.6933 12.8375C21.6543 14.5347 22.4983 16.3441 23.2152 18.2438C23.337 18.1625 23.3089 17.2375 23.2386 17.1063V17.1063Z" fill="white"/>
<path fill-rule="evenodd" clip-rule="evenodd" d="M22.0432 19.7187C21.987 19.8 22.1745 20.1437 22.4182 20.1437C22.8214 20.0812 23.1776 19.7812 23.5057 18.9812C23.6391 18.7151 23.7241 18.4112 23.7542 18.0937C23.7939 16.5765 23.7027 15.0582 23.4823 13.5687C23.4682 13.4437 23.4823 13.2937 23.4917 13.2562C23.5198 13.2125 23.6089 13.2562 23.6557 13.15C23.7261 13.0562 23.4682 12.275 23.3276 11.9812C23.2807 11.8437 23.2573 11.7562 23.1729 11.9937C23.0711 12.2558 23.0226 12.5489 23.0323 12.8437C23.2245 14.625 23.2854 16.1812 23.4073 17.9625C23.4214 18.1375 23.4026 18.3875 23.3136 18.4875C22.9599 19.0125 22.527 19.4321 22.0432 19.7187V19.7187ZM27.5042 19.7125C27.2136 19.9375 27.2136 20.1937 27.4479 20.2C27.8511 20.1375 28.3292 20.0937 28.6573 19.4312C28.7732 19.1192 28.8402 18.7789 28.8542 18.4312C28.9132 16.9373 28.8392 15.4394 28.6339 13.9687C28.6245 13.8437 28.5823 13.55 28.5964 13.5125C28.6245 13.425 28.7557 13.5187 28.8026 13.4187C28.8682 13.325 28.4604 12.625 28.3151 12.325C28.2682 12.1875 28.2495 12.1 28.1604 12.3375C28.066 12.6019 28.0365 12.8993 28.0761 13.1875C28.2917 15.125 28.4511 16.575 28.4839 18.2875C28.4651 18.45 28.4604 18.5375 28.4042 18.7437C28.2776 18.9562 28.137 19.2312 28.0057 19.3625C27.8745 19.4875 27.5932 19.6125 27.5042 19.7125V19.7125Z" fill="white"/>
<path fill-rule="evenodd" clip-rule="evenodd" d="M27.7196 17.9813C27.7196 17.525 27.7243 17.1375 27.7149 16.7938C27.7119 16.5026 27.664 16.2155 27.5743 15.95C27.4899 15.6938 27.5415 15.4875 27.4993 15.2125C27.4618 14.9375 27.4711 14.525 27.4149 14.2063C27.3961 14.0813 27.3493 13.675 27.3633 13.6313C27.3868 13.5438 27.4758 13.6313 27.5227 13.5313C27.5883 13.4375 27.2883 12.4063 27.1383 12.1125C27.0868 11.9813 26.9836 12.025 26.8665 12.2375C26.7493 12.3813 26.7915 12.7 26.8383 13.0063C27.1243 15.025 27.3446 16.8563 27.2977 18.775C27.279 18.9375 27.7196 18.2875 27.7196 17.9813V17.9813ZM25.5774 15.4813C25.3946 15.4688 25.0149 15 24.9024 14.7313C24.884 14.6656 24.8761 14.5955 24.8794 14.5255C24.8826 14.4555 24.8968 14.3872 24.9211 14.325C24.9915 14.2625 25.0946 14.2 25.1743 14.2625C25.1743 14.2625 25.254 14.4125 25.2399 14.4313C25.3336 14.4938 25.3805 14.4625 25.3899 14.4063C25.3946 14.3125 25.3618 14.2563 25.3618 14.1563C25.404 13.8688 25.643 13.825 25.7368 14.0063C25.8024 14.1188 25.8305 14.35 25.8352 14.5063C25.8352 14.5875 25.7415 14.4938 25.6805 14.5063C25.629 14.5313 25.6149 14.6188 25.6102 14.6938C25.6008 14.9 25.5821 15.2313 25.5774 15.475V15.4813ZM22.2118 18.4813C22.2586 17.8688 22.193 16.775 22.1883 16.4125C22.1633 15.4802 22.1054 14.5501 22.0149 13.625C21.9586 13.1 22.1743 13.6813 22.1461 13.375C22.0758 12.8563 21.8602 12.5 21.6024 12.0313C21.5227 11.875 21.5227 11.8438 21.3961 12.0688C21.2555 12.4875 21.3774 12.7813 21.4149 13.1125C21.5977 14.1875 21.7055 15.175 21.7571 16.1563C21.8111 17.1756 21.8173 18.1984 21.7758 19.2188C21.9165 19.225 22.1321 18.925 22.2118 18.4813Z" fill="white"/>
<path fill-rule="evenodd" clip-rule="evenodd" d="M28.3431 17.5C28.0197 16.775 27.5369 16 27.4056 15.7063C26.9709 14.897 26.5144 14.1089 26.0369 13.3438C25.6384 12.7813 26.2244 13.25 25.9619 12.8125C25.7415 12.4938 25.6806 12.3875 25.4884 12.1938C25.3947 12.1125 25.3384 11.9563 25.3009 12.225C25.286 12.4578 25.2828 12.6917 25.2915 12.925C25.2915 13.0313 25.3759 13.2375 25.4509 13.3625C26.4212 14.9563 27.4853 16.5813 28.3384 18.625C28.4603 18.5438 28.4181 17.625 28.3384 17.5H28.3431Z" fill="white"/>
<path fill-rule="evenodd" clip-rule="evenodd" d="M13.7467 16.1688C13.7232 16.225 13.6717 16.2938 13.6904 16.3625C13.7232 16.425 13.7561 16.4438 13.8123 16.4438C13.8639 16.4438 13.9389 16.4625 13.9529 16.425C13.9811 16.3813 13.9998 16.3 13.9811 16.2188C13.9248 16.0313 13.7748 16.1063 13.7467 16.1688V16.1688Z" fill="#1BA400"/>
<path fill-rule="evenodd" clip-rule="evenodd" d="M24.6024 26.6562C25.0337 26.6812 25.3149 26.6875 25.6946 26.7437L26.1446 26.6812C26.6415 26.6187 26.6603 27.625 26.6603 27.625C26.6603 28.2187 26.4868 28.25 26.2665 28.3125C26.1399 28.3375 26.079 28.2125 26.0087 28.0875C25.9027 28.1328 25.7898 28.1414 25.6806 28.1125C25.4978 28.1 25.3196 28.1 25.1415 28.0812C24.954 28.0625 24.8509 28.1125 24.6587 28.0875C24.6212 28.1687 24.5649 28.2812 24.4524 28.25C24.3587 28.2312 24.2415 27.875 24.2743 27.5937C24.3446 27.3937 24.3212 27.4625 24.3212 27.375C22.5587 27.3125 20.7821 27.2062 19.0571 27.2375C17.7071 27.2437 16.3759 27.3187 15.0399 27.3937C14.3274 27.3812 13.7837 27.2312 13.4087 26.5C13.4462 26.5 15.2274 26.6312 15.7478 26.5875C16.7087 26.575 17.5899 26.4687 18.5696 26.4312C20.5009 26.475 22.4181 26.475 24.3493 26.6562C24.1618 26.4875 24.1618 26.0937 24.4431 25.9937C24.4665 25.9687 24.4806 26.1875 24.5228 26.1812C24.7524 26.1625 24.6493 26.575 24.6024 26.6562V26.6562ZM16.8399 12.4562C16.5493 13.5687 17.0087 14.7937 17.3274 14.675C17.5618 14.8 17.7024 14.2125 17.7962 13.575C17.8665 13.3937 17.9134 13.375 17.9462 13.4687C17.9368 14.3187 17.9931 14.5125 18.1571 14.7687C18.5228 15.1437 18.8274 14.8187 18.8509 14.7875L19.1321 14.4062C19.1978 14.3125 19.2821 14.3125 19.3712 14.3875C19.4603 14.4937 19.4462 14.675 19.6337 14.8C19.7931 14.8875 20.1259 14.825 20.2056 14.6437C20.3087 14.4 20.3368 14.3187 20.3837 14.2312C20.4587 14.1 20.5853 14.1562 20.5853 14.2C20.5712 14.275 20.4962 14.3437 20.5478 14.4812C20.6415 14.5687 20.6603 14.5125 20.7118 14.4937C20.8993 14.3687 21.0399 13.8312 21.0399 13.8312C21.0446 13.6312 20.9603 13.6437 20.904 13.6937L20.7587 13.825C20.6649 13.8437 20.4915 13.925 20.4024 13.7437C20.3134 13.5312 20.3134 13.225 20.2478 13.0062C20.2478 12.9937 20.1259 12.6625 20.2384 12.6437C20.2946 12.6562 20.4118 12.7 20.4306 12.5687C20.4868 12.4375 20.3087 12.0687 20.1821 11.8812C20.0743 11.725 19.9243 11.7062 19.779 11.8687C19.6759 11.9937 19.6899 12.1312 19.6712 12.2625C19.6534 12.3565 19.6526 12.4549 19.6689 12.5494C19.6852 12.6439 19.7181 12.732 19.7649 12.8062C19.8681 13.0687 20.0509 13.4125 19.9899 13.9C19.9899 13.9 19.8821 14.125 19.6946 14.0937C19.6149 14.075 19.4884 14.0312 19.4228 13.3562C19.3712 12.8562 19.4321 12.1437 19.2728 11.8125C19.2118 11.6062 19.1696 11.4125 19.029 11.7562C18.9915 11.8937 18.8274 12.1 18.9446 12.5187C19.0555 12.8961 19.0879 13.3064 19.0384 13.7062C18.9681 13.8437 18.954 13.8875 18.8649 14.0187C18.7431 14.2062 18.6071 14.1562 18.504 14.0875C18.4103 14.0062 18.3353 13.9625 18.2884 13.6812C18.2978 13.2437 18.3165 12.525 18.2556 12.375C18.1665 12.1375 18.0212 12.225 17.9603 12.3C17.6814 12.713 17.4947 13.2217 17.4212 13.7687C17.3368 14.1312 17.2478 14.025 17.1868 13.8812C17.0368 13.6937 17.0228 12.2125 16.8399 12.4562V12.4562Z" fill="white"/>
<path fill-rule="evenodd" clip-rule="evenodd" d="M17.7219 14.8812C17.8578 14.7562 17.7969 14.6687 17.9938 14.9312C18.2479 15.5307 18.3954 16.2 18.425 16.8875C18.4157 17.05 18.5 17.15 18.5422 17.1125C18.561 16.7375 19.25 16.2125 19.8828 16.1375C19.9766 16.1062 19.9297 15.8625 19.9438 15.7375C19.9063 15.2687 20.1407 14.8437 20.4688 14.8125C20.9188 14.9 21.0688 15.2187 21.0782 15.7C21.0266 16.6375 20.2953 16.7937 19.8875 16.8687C19.8266 16.9 19.7985 16.9375 19.8875 16.9812L21.6032 16.9937L21.6922 17.0562C21.7016 17.1187 21.6641 17.0687 21.5985 17.2187C21.5041 17.4398 21.445 17.6845 21.425 17.9375C20.9141 18.1625 20.3844 18.25 19.85 18.3437C19.6625 18.4687 19.5688 18.6375 19.6063 18.825C19.6719 19.0312 20.0844 19.2437 20.0844 19.25C20.1641 19.3125 20.2532 19.4687 20.061 19.7875C19.2266 19.7375 18.575 19.2625 18.35 18.5937C18.2844 18.525 18.2094 18.5937 18.1625 18.6812C17.8344 19.2437 17.5157 19.7437 16.9578 20.0187C16.6297 20.1312 16.2875 19.95 16.1282 19.6625C16.0203 19.4937 16.025 19.3125 15.9875 19.275C15.8047 19.3812 14.2578 20.2562 14.4547 19.8437C14.8297 19.3125 15.486 18.9125 16.0578 18.3875C16.1 18.2062 16.175 17.6062 16.4 17.4125C16.4141 17.4125 16.3672 17.7625 16.3719 17.9125C16.3719 18.0375 16.3625 18.0812 16.3813 18.05C16.4235 18.0187 17.1172 17.2875 17.1782 17.0625C17.2438 16.9375 17.1922 16.6125 17.1922 16.6C17.061 16.15 16.8782 16.1125 16.8125 15.8875C16.7516 15.5937 16.7797 15.2562 16.9063 15.1562C17.0188 15.025 17.15 15.0375 17.2766 15.1875C17.4172 15.3562 17.5391 15.6875 17.5766 15.9312C17.5532 16.025 17.3891 15.8687 17.3422 15.9125C17.4324 16.0507 17.4924 16.2194 17.5157 16.4C17.6094 16.9125 17.5813 17.1125 17.4875 17.4437C17.1782 18.3125 16.7844 18.5687 16.4375 18.8937C16.4282 18.8937 16.4235 19.1125 16.55 19.2312C16.5969 19.2937 16.7797 19.325 16.9907 19.2312C17.4413 18.8976 17.8057 18.3899 18.036 17.775C18.0758 17.3071 18.0374 16.8332 17.9235 16.3875C17.7875 15.9687 17.6282 15.375 17.6282 15.3625C17.6235 15.1 17.6375 15.0125 17.7219 14.8812V14.8812ZM13.2313 12.4687C13.4282 12.5937 13.8032 12.5375 13.7844 12.1125L13.775 11.9187C13.7375 11.7937 13.625 11.825 13.6016 11.95C13.5922 11.9937 13.6157 12.0625 13.5875 12.0812C13.5688 12.1062 13.5078 12.0937 13.5078 11.975C13.5078 11.9375 13.4891 11.9 13.475 11.875C13.4657 11.8625 13.4563 11.8625 13.4328 11.8625C13.4047 11.8625 13.4047 11.8687 13.3907 11.9C13.386 11.9312 13.3766 11.9625 13.3766 12C13.3766 12.0437 13.3578 12.0562 13.3391 12.0625C13.311 12.0625 13.3157 12.0625 13.2922 12.05C13.2828 12.0312 13.2688 12.025 13.2688 11.9875L13.2547 11.8875C13.2453 11.8687 13.2266 11.8562 13.2078 11.85C13.1 11.85 13.0907 12.0187 13.1 12.0812C13.0907 12.0937 13.086 12.3875 13.2313 12.4687V12.4687Z" fill="white"/>
<path fill-rule="evenodd" clip-rule="evenodd" d="M19.0201 15.7313C19.217 15.8563 19.6905 15.7875 19.5733 15.3813L19.5639 15.1813C19.5217 15.0563 19.4139 15.0875 19.3905 15.2188C19.3811 15.2563 19.4045 15.325 19.3717 15.3438C19.3576 15.3688 19.292 15.3563 19.2967 15.2438C19.2967 15.2063 19.278 15.1625 19.2639 15.1375C19.2498 15.1313 19.2451 15.125 19.217 15.125C19.1936 15.125 19.1936 15.1375 19.1795 15.1688C19.1701 15.2 19.1655 15.2313 19.1655 15.2688C19.1608 15.3063 19.1467 15.3188 19.1233 15.3313C19.0998 15.3313 19.1045 15.3313 19.0858 15.3125C19.0717 15.2938 19.0576 15.2875 19.0576 15.2563L19.0436 15.1563C19.0342 15.1375 19.0155 15.125 18.9967 15.1188C18.8889 15.1188 18.8795 15.2813 18.8842 15.3438C18.8795 15.3563 18.8748 15.6563 19.0248 15.7313H19.0201ZM22.3951 14.3813C22.592 14.5063 22.9623 14.45 22.9483 14.0313L22.9389 13.8313C22.8967 13.7063 22.7889 13.7375 22.7655 13.8625C22.7561 13.9063 22.7795 13.975 22.7467 14C22.7326 14.0188 22.667 14.0063 22.6717 13.8875C22.6717 13.85 22.6529 13.8125 22.6389 13.7875C22.6248 13.775 22.6201 13.775 22.592 13.775C22.5686 13.775 22.5686 13.7875 22.5545 13.8188L22.5405 13.9125C22.5358 13.9563 22.5217 13.975 22.4983 13.975C22.4748 13.975 22.4795 13.975 22.4608 13.9625C22.4467 13.9438 22.4326 13.9375 22.4326 13.9063C22.4326 13.875 22.428 13.825 22.4186 13.8C22.4092 13.7813 22.3905 13.775 22.3717 13.7688C22.2639 13.7688 22.2545 13.9313 22.2592 13.9938C22.2545 14.0063 22.2498 14.3 22.3998 14.3813H22.3951ZM24.1436 17.775C23.8014 18.2938 23.9514 19.15 24.0311 19.3375C24.1436 19.6375 24.2326 19.8313 24.453 19.9813C24.6545 20.175 24.8139 20.0563 24.8983 19.9188C25.0998 19.6375 25.1045 18.9188 25.1983 18.7813C25.2639 18.5188 25.4326 18.5625 25.5123 18.6813C25.5869 18.8224 25.6868 18.9363 25.803 19.0125C25.9905 19.2313 26.2155 19.275 26.4405 19.075C26.5905 18.9563 26.6889 18.8125 26.778 18.5188C26.8717 18.1688 26.8248 16.5438 26.8014 15.5813L26.6045 14.2375C26.6045 14.225 26.5811 13.6 26.5576 13.4563C26.5576 13.3938 26.5436 13.375 26.5905 13.3813C26.642 13.4438 26.6467 13.4438 26.6842 13.4625C26.7311 13.475 26.778 13.3563 26.7451 13.2563L26.2764 12.0938C26.2389 12.0438 26.1873 11.9938 26.1264 12.1063C26.0904 12.1497 26.0618 12.2027 26.0424 12.262C26.023 12.3213 26.0133 12.3854 26.0139 12.45C26.028 12.725 26.0608 13.0063 26.0748 13.2813L26.2623 14.6938C26.3233 15.6938 26.3373 16.5188 26.3983 17.525C26.3889 17.95 26.2905 18.3188 26.1967 18.375C26.1967 18.375 26.0561 18.4813 25.9623 18.3625C25.892 18.325 25.6155 17.7438 25.6155 17.7438C25.4748 17.575 25.3811 17.6188 25.2826 17.7438C25.0014 18.1063 24.8795 18.7688 24.6873 19.2313C24.6405 19.3375 24.4998 19.4188 24.3498 19.225C23.9654 18.5188 24.1904 17.5188 24.1436 17.775V17.775ZM22.4842 11.9188C22.6623 12.0125 22.7842 12.4938 22.7467 12.7313C22.7092 13.0125 22.6154 13.325 22.5498 13.2875C22.4748 13.25 22.5967 13 22.5264 12.7375C22.4889 12.5625 22.2451 12.25 22.2733 12.1625C22.2264 11.9688 22.3764 11.8813 22.4842 11.9125V11.9188Z" fill="white"/>
<path fill-rule="evenodd" clip-rule="evenodd" d="M24.7152 18.0625C24.748 17.4875 24.687 17.1375 24.6777 16.8C24.6683 16.4625 24.3917 13.8875 24.3355 13.6375C24.2652 13.15 24.6027 13.575 24.5652 13.2875C24.448 12.9375 24.162 12.4187 24.073 12.1125C24.0167 11.9875 24.0402 11.8625 23.9183 12.0812C23.8133 12.4648 23.7764 12.8755 23.8105 13.2812C24.1011 15.3 24.3964 16.975 24.3495 18.8937C24.4902 18.8937 24.6448 18.475 24.7152 18.0625V18.0625ZM27.7339 12.7312C27.898 12.8375 27.9917 13.4375 27.973 13.6062C27.9402 13.9187 27.8558 14.2562 27.7948 14.2125C27.7245 14.175 27.8089 13.75 27.7761 13.6187C27.7386 13.4312 27.5183 13.0937 27.5417 12.9937C27.4948 12.7812 27.6355 12.6937 27.7339 12.7312V12.7312ZM15.748 16.975C15.9027 17.0562 15.9964 17.4937 15.9823 17.6187C15.9448 17.85 15.8652 18.1 15.8042 18.0625C15.7433 18.0375 15.8183 17.725 15.7902 17.625C15.7761 17.3937 15.5605 17.2687 15.5652 17.1687C15.5277 16.9812 15.6589 16.95 15.7527 16.975H15.748Z" fill="white"/>
<path fill-rule="evenodd" clip-rule="evenodd" d="M19.479 17.6375C19.6759 17.65 19.7743 17.8625 19.5915 17.95C19.404 18.0313 19.2306 18.1 19.2259 18.45C19.2962 18.95 19.1321 18.775 19.0384 18.7125C18.9259 18.6 18.6071 18.3375 18.5603 17.775C18.5556 17.6438 18.6353 17.525 18.7618 17.525C18.9493 17.5938 19.2306 17.6 19.479 17.6375V17.6375Z" fill="#1B9D00"/>
<path fill-rule="evenodd" clip-rule="evenodd" d="M11.6277 11.775C11.8527 11.8625 11.8668 12.3125 11.8527 12.4437C11.8199 12.6812 11.7402 12.9375 11.684 12.9062C11.6184 12.875 11.684 12.55 11.6512 12.45C11.6184 12.3125 11.4262 12.05 11.4449 11.975C11.4027 11.8187 11.5387 11.7437 11.6277 11.775V11.775ZM16.1231 13.875C15.9449 14 15.8793 14.375 15.9871 14.6C16.0902 14.7875 16.2496 14.7187 16.2684 14.7187C16.4418 14.7437 16.5449 14.2875 16.5449 14.2875C16.5449 14.2875 16.5496 14.1625 16.3481 14.4062C16.259 14.425 16.2543 14.3812 16.2309 14.3187C16.2094 14.1998 16.2176 14.0747 16.2543 13.9625C16.2871 13.85 16.2215 13.8 16.1231 13.875ZM17.4356 11.6C17.3418 11.6812 17.1684 11.925 17.1637 12.2C17.159 12.3562 17.1356 12.3562 17.2106 12.45C17.2715 12.5625 17.3231 12.5562 17.4356 12.475C17.4636 12.4515 17.4876 12.4204 17.5062 12.3838C17.5248 12.3473 17.5374 12.3059 17.5434 12.2625C17.5715 12.0875 17.4027 12.35 17.384 12.15C17.3465 11.9625 17.4543 11.8875 17.5574 11.7125C17.5574 11.5875 17.5574 11.5062 17.4309 11.6H17.4356ZM18.4856 11.85C18.4442 12.0776 18.4191 12.3099 18.4106 12.5437C18.3824 12.7187 18.5512 12.7937 18.6215 12.5687C18.734 12.1625 18.734 11.9875 18.7434 11.8187C18.7106 11.55 18.5746 11.5562 18.4856 11.85ZM25.1418 16.3687C25.1606 16.3375 26.0793 15.4687 26.0793 15.4687C26.1731 15.425 26.1496 15.9187 26.1074 15.9125C25.8225 16.2786 25.4948 16.5805 25.1371 16.8062C25.0902 16.85 25.0481 16.475 25.1371 16.3687H25.1418ZM25.9715 16.3562C26.1356 16.4625 26.2012 17.0937 26.1824 17.2625C26.1824 17.6 26.0277 17.8625 25.9621 17.825C25.8965 17.7812 25.9715 17.4062 25.9387 17.275C25.9012 17.0875 25.7652 16.7437 25.7887 16.6437C25.7418 16.4312 25.8731 16.3187 25.9762 16.3562H25.9715ZM20.534 19.0687C20.61 18.9504 20.6984 18.8473 20.7965 18.7625C20.8902 18.7 20.9746 18.8125 20.9699 18.8062C20.984 18.9312 20.9137 19.0375 20.9371 19.2C20.9559 19.2625 20.9699 19.3375 21.059 19.3125C21.2043 19.1562 21.3402 19.1437 21.4809 19.1375C21.5981 19.1437 21.6027 19.4 21.5277 19.4C21.2606 19.475 21.1434 19.575 20.9512 19.6687C20.8574 19.7437 20.7824 19.65 20.7824 19.6437C20.7824 19.6375 20.7309 19.575 20.7637 19.4125C20.7731 19.2875 20.7356 19.2125 20.6512 19.225C20.5949 19.275 20.5387 19.3 20.5106 19.2062C20.4965 19.1437 20.4918 19.1062 20.534 19.0687V19.0687ZM26.9371 19.4062C26.9746 19.4687 27.0027 19.5312 26.9324 19.6437L26.759 19.8437C26.7309 19.9062 26.7121 20.0187 26.8059 20.05C26.9746 20.1125 27.3684 19.7687 27.3684 19.7625C27.434 19.7 27.4152 19.575 27.4059 19.575C27.3684 19.5187 27.284 19.5562 27.2277 19.5437C27.1996 19.5437 27.1106 19.5312 27.1527 19.4187C27.1842 19.3635 27.2095 19.3025 27.2277 19.2375C27.2512 19.1625 27.2277 19.1125 27.134 19.0687C27.0356 19.0437 26.9934 19.0562 26.8856 19.0687C26.8293 19.0812 26.8106 19.1187 26.7965 19.2125C26.8012 19.3562 26.8668 19.35 26.9371 19.4V19.4062Z" fill="white"/>
<path fill-rule="evenodd" clip-rule="evenodd" d="M20.567 15.8563C20.5436 15.9188 20.4592 15.9188 20.3795 15.8563C20.2999 15.7938 20.253 15.6938 20.2811 15.6375C20.3092 15.5813 20.3889 15.5813 20.4686 15.6375C20.5483 15.6938 20.5905 15.8 20.567 15.8563ZM16.3952 12.5063C16.3483 12.525 16.2827 12.4688 16.2545 12.3813C16.2264 12.2938 16.2405 12.2188 16.2874 12.2C16.3342 12.1813 16.3952 12.2438 16.428 12.325C16.4608 12.4063 16.442 12.4938 16.3905 12.5125L16.3952 12.5063Z" fill="#259F00"/>
<path fill-rule="evenodd" clip-rule="evenodd" d="M24.65 27.4375C25.0907 27.4625 25.5032 27.4375 25.9391 27.4688C26.0188 27.5625 25.9625 27.7812 25.911 27.7687L25.5454 27.75C25.5407 27.5625 25.1844 27.5938 25.1938 27.7563C25.0016 27.7875 24.8282 27.75 24.6313 27.7375C24.575 27.6437 24.5844 27.475 24.65 27.4375V27.4375Z" fill="#209000"/>
</g>
<rect x="2" y="2" width="36" height="36" rx="18" stroke="white" stroke-width="4"/>
<defs>
<clipPath id="clip0_90_22252">
<rect x="4" y="4" width="32" height="32" rx="16" fill="white"/>
</clipPath>
</defs>
</svg>
