<svg width="40" height="40" viewBox="0 0 40 40" fill="none" xmlns="http://www.w3.org/2000/svg">
<g clip-path="url(#clip0_90_22246)">
<path fill-rule="evenodd" clip-rule="evenodd" d="M4 35.7L50.2844 4H4V35.7Z" fill="#0000D6"/>
<path fill-rule="evenodd" clip-rule="evenodd" d="M52.0004 4L5.27539 36H52.0004V4Z" fill="#006000"/>
<path fill-rule="evenodd" clip-rule="evenodd" d="M52 4H49.4266L4 34.3375V36H6.57344L52 5.725V4Z" fill="#FFCC00"/>
<path fill-rule="evenodd" clip-rule="evenodd" d="M7.34688 4.56873L7.9 6.72498H9.70469L8.24688 8.04373L8.80469 10.1937L7.34688 8.87498L5.88906 10.2L6.44688 8.04998L4.98906 6.71873H6.78906L7.34688 4.56873ZM16.3047 4.56873L16.8625 6.72498H18.6672L17.2047 8.04998L17.7672 10.2L16.3 8.87498L14.8469 10.2062L15.4047 8.05623L13.9422 6.72498H15.7469L16.3047 4.56873ZM16.3047 13.6L16.8625 15.7562H18.6672L17.2047 17.0812L17.7672 19.2312L16.3047 17.9L14.8516 19.2312L15.4094 17.0812L13.9469 15.75H15.7516L16.3047 13.6ZM11.8516 9.13748L12.4094 11.2875H14.2094L12.7563 12.6187L13.3094 14.7687L11.8563 13.4375L10.3937 14.7687L10.9562 12.6187L9.49375 11.2875H11.2984L11.8516 9.13748ZM7.34688 13.6L7.9 15.7562H9.70469L8.24688 17.0812L8.80469 19.2312L7.34688 17.9L5.88906 19.2312L6.45156 17.0812L4.98438 15.75H6.78438L7.34688 13.6Z" fill="white"/>
</g>
<rect x="2" y="2" width="36" height="36" rx="18" stroke="white" stroke-width="4"/>
<defs>
<clipPath id="clip0_90_22246">
<rect x="4" y="4" width="32" height="32" rx="16" fill="white"/>
</clipPath>
</defs>
</svg>
