<svg width="40" height="40" viewBox="0 0 40 40" fill="none" xmlns="http://www.w3.org/2000/svg">
<g clip-path="url(#clip0_90_22225)">
<path fill-rule="evenodd" clip-rule="evenodd" d="M3.00024 4H39.0002V36H3.00024V4Z" fill="white"/>
<path fill-rule="evenodd" clip-rule="evenodd" d="M3.00024 4H39.0002V20H3.00024V4Z" fill="#DF0000"/>
<path fill-rule="evenodd" clip-rule="evenodd" d="M11.2997 6.68C10.3526 6.95138 9.50435 7.64896 8.89739 8.65561C8.29042 9.66227 7.96169 10.9167 7.96638 12.2083C7.97107 13.4999 8.3089 14.7501 8.92315 15.7488C9.5374 16.7476 10.3907 17.4342 11.3397 17.6933C10.796 17.9031 10.2266 17.9677 9.66421 17.8834C9.10178 17.7991 8.55737 17.5676 8.06218 17.2022C7.567 16.8368 7.13079 16.3446 6.77858 15.7539C6.42636 15.1632 6.16507 14.4856 6.00968 13.76C5.70107 12.3014 5.83815 10.7392 6.39095 9.41497C6.94375 8.09074 7.86731 7.11221 8.95968 6.69333C9.75968 6.38667 10.4997 6.38 11.3047 6.68H11.2997Z" fill="white"/>
<path fill-rule="evenodd" clip-rule="evenodd" d="M10.6498 11.3333L10.8948 12.3333L10.2448 11.72L9.60483 12.3467L9.83983 11.3333L9.19983 10.7133L9.99483 10.7L10.2448 9.7L10.4948 10.7H11.2848L10.6498 11.3333ZM11.5248 14.8L11.7748 15.8067L11.1248 15.1933L10.4798 15.8133L10.7198 14.8067L10.0798 14.18L10.8748 14.1733L11.1198 13.1667L11.3698 14.1667H12.1698L11.5248 14.8ZM14.4498 14.7733L14.6948 15.7867L14.0448 15.1667L13.4048 15.7867L13.6398 14.78L12.9998 14.16L13.7948 14.1467L14.0448 13.1467L14.2948 14.1467H15.0848L14.4498 14.7733ZM15.3198 11.3333L15.5648 12.34L14.9148 11.7267L14.2748 12.3467L14.5148 11.34L13.8698 10.7133L14.6698 10.7067L14.9098 9.7L15.1598 10.7H15.9598L15.3198 11.3333ZM13.0048 9.04666L13.2548 10.06L12.6048 9.44L11.9598 10.0667L12.1998 9.05333L11.5598 8.42666L12.3498 8.42L12.5998 7.41333L12.8498 8.41333H13.6498L13.0048 9.04666Z" fill="white"/>
</g>
<rect x="2" y="2" width="36" height="36" rx="18" stroke="white" stroke-width="4"/>
<defs>
<clipPath id="clip0_90_22225">
<rect x="4" y="4" width="32" height="32" rx="16" fill="white"/>
</clipPath>
</defs>
</svg>
