<svg width="40" height="40" viewBox="0 0 40 40" fill="none" xmlns="http://www.w3.org/2000/svg">
<g clip-path="url(#clip0_90_22122)">
<path fill-rule="evenodd" clip-rule="evenodd" d="M1.79871 4H49.7987V36H1.79871V4Z" fill="white"/>
<path fill-rule="evenodd" clip-rule="evenodd" d="M1.79883 25.3312H49.7988V35.9999H1.79883V25.3312Z" fill="#D50000"/>
<path fill-rule="evenodd" clip-rule="evenodd" d="M1.79883 14.6687H49.7988V25.3312H1.79883V14.6687Z" fill="#0000BF"/>
<path fill-rule="evenodd" clip-rule="evenodd" d="M15.4117 9.8125C15.2242 13.6625 15.1117 15.775 14.6758 16.75C14.1977 17.8 13.7383 18.5688 11.8773 19.5C10.0211 18.5688 9.56172 17.8 9.08359 16.75C8.64297 15.775 8.53516 13.6625 8.34766 9.8125L8.61953 9.6875C9.17266 9.4625 9.58516 9.28125 9.88984 9.2C10.3258 9.075 10.7008 8.9375 11.8727 8.90625C13.0445 8.93125 13.4195 9.08125 13.8555 9.20625C14.1555 9.29375 14.5867 9.45625 15.1352 9.6875L15.4117 9.8125Z" fill="#D50000"/>
<path fill-rule="evenodd" clip-rule="evenodd" d="M15.1395 9.6875C14.9613 13.5313 14.8113 15.2938 14.577 16.1375C14.127 17.5875 13.4145 18.3813 11.877 19.1375C10.3395 18.3813 9.62695 17.5875 9.17227 16.1375C8.93789 15.2875 8.79727 13.5313 8.61914 9.68125C9.16289 9.45625 9.58477 9.28125 9.88945 9.2C10.3254 9.075 10.7004 8.93125 11.8723 8.90625C13.0441 8.93125 13.4191 9.075 13.8551 9.2C14.289 9.33169 14.7176 9.49231 15.1395 9.68125V9.6875Z" fill="#0000BF"/>
<path fill-rule="evenodd" clip-rule="evenodd" d="M11.8769 10.8624L11.9472 11.0937L12.2754 11.1562L12.0644 11.3249L12.266 11.5062L11.9707 11.5687L11.8769 11.7812L11.7832 11.5624L11.5019 11.5124L11.6894 11.3249L11.4926 11.1562L11.8066 11.0937L11.8769 10.8624V10.8624Z" fill="#FFDF00"/>
<path fill-rule="evenodd" clip-rule="evenodd" d="M14.4694 15.2249L14.2866 15.0374L14.16 14.7499L13.9069 14.4562L13.771 14.1624L13.5178 13.8562L13.396 13.5624L13.2553 13.4187L13.171 13.2999L12.9366 13.5687L12.8147 13.8624L12.66 14.0499L12.4866 13.8687L12.36 13.5687L11.8772 12.4249L11.3944 13.5687L11.2678 13.8687L11.0944 14.0499L10.9397 13.8624L10.8132 13.5687L10.5835 13.2999L10.4944 13.4124L10.3585 13.5624L10.2366 13.8562L9.98347 14.1624L9.84753 14.4562L9.59441 14.7499L9.46785 15.0374L9.28503 15.2249C9.38809 16.0852 9.69339 16.8796 10.1569 17.4937C10.6598 18.0675 11.2429 18.503 11.8725 18.7749C12.507 18.509 13.094 18.073 13.5975 17.4937C13.8694 17.1187 14.3757 16.2874 14.4694 15.2249V15.2249Z" fill="white"/>
<path fill-rule="evenodd" clip-rule="evenodd" d="M12.6456 9.24368L12.7206 9.47493L13.0487 9.53743L12.8331 9.70618L13.0393 9.88743L12.744 9.94993L12.6502 10.1624L12.5565 9.94368L12.2752 9.89368L12.4627 9.70618L12.2659 9.53743L12.5752 9.47493L12.6502 9.24368H12.6456ZM11.0987 9.24368L11.1737 9.47493L11.5018 9.53118L11.2909 9.69993L11.4924 9.88118L11.1971 9.94368L11.1034 10.1562L11.0096 9.94368L10.7284 9.88743L10.9159 9.69993L10.719 9.53118L11.0331 9.46868L11.1034 9.23743L11.0987 9.24368Z" fill="#FFDF00"/>
<path fill-rule="evenodd" clip-rule="evenodd" d="M14.0664 16.6875H13.7195L13.3914 16.6563L13.0023 16.4063H12.5617L12.182 16.6563L11.8773 16.6938L11.5773 16.6563L11.1976 16.4063H10.7523L10.3586 16.6563L10.0351 16.6938L9.67888 16.6875L9.51013 16.3L9.51482 16.2875L10.0398 16.4063L10.3633 16.375L10.7523 16.1188H11.1929L11.5773 16.3688L11.8773 16.4063L12.182 16.3688L12.5617 16.1188H13.0023L13.3961 16.3688L13.7195 16.4063L14.2258 16.2813L14.2351 16.3063L14.0617 16.6875H14.0664ZM10.0164 17.2813L10.3633 17.25L10.7523 17H11.1929L11.5773 17.25L11.8773 17.2813L12.1773 17.25L12.5617 17H13.0023L13.3914 17.25L13.7429 17.2813L13.9679 16.9063H13.9633L13.7195 16.9938L13.3961 16.9625L13.007 16.7125H12.5664L12.182 16.9625L11.882 17L11.5773 16.9625L11.1976 16.7125H10.7523L10.3586 16.9625L10.0351 17L9.80076 16.9188V16.9313L10.0117 17.2813H10.0164Z" fill="#0000BF"/>
</g>
<rect x="2" y="2" width="36" height="36" rx="18" stroke="white" stroke-width="4"/>
<defs>
<clipPath id="clip0_90_22122">
<rect x="4" y="4" width="32" height="32" rx="16" fill="white"/>
</clipPath>
</defs>
</svg>
