<svg width="40" height="40" viewBox="0 0 40 40" fill="none" xmlns="http://www.w3.org/2000/svg">
<g clip-path="url(#clip0_90_22108)">
<path d="M4 4H36V36H4V4Z" fill="#EE1C25"/>
<path d="M4 4H36V25.3333H4V4Z" fill="#0B4EA2"/>
<path d="M4 4H36V14.6667H4V4Z" fill="white"/>
<path d="M15.6504 28.72C13.5004 27.34 10.4204 24.5934 10.4204 19.1734C10.4204 13.7467 10.6204 11.28 10.6204 11.28H20.6854C20.6854 11.28 20.8804 13.7467 20.8804 19.1734C20.8804 24.6 17.8004 27.3334 15.6504 28.72Z" fill="white"/>
<path d="M15.6499 28C13.6749 26.7333 10.8499 24.2133 10.8499 19.24C10.8499 14.2667 11.0299 12 11.0299 12H20.2699C20.2699 12 20.4449 14.2667 20.4449 19.24C20.4499 24.22 17.6249 26.7333 15.6499 28Z" fill="#EE1C25"/>
<path d="M16.07 17.9333C16.605 17.9466 17.65 17.9733 18.575 17.56C18.575 17.56 18.555 18.0066 18.555 18.52C18.555 19.0333 18.58 19.48 18.58 19.48C17.73 19.1 16.675 19.0933 16.07 19.1V21.8466H15.23V19.1C14.63 19.0933 13.575 19.1 12.725 19.48C12.725 19.48 12.75 19.0333 12.75 18.52C12.75 18 12.725 17.56 12.725 17.56C13.65 17.9733 14.695 17.9466 15.225 17.9333V16.2066C14.74 16.2066 14.04 16.2333 13.245 16.5866C13.245 16.5866 13.27 16.1466 13.27 15.6266C13.27 15.1133 13.245 14.6666 13.245 14.6666C14.04 15.02 14.74 15.0533 15.225 15.0466C15.2 13.9533 14.96 12.58 14.96 12.58C14.96 12.58 15.455 12.6266 15.65 12.6266C15.85 12.6266 16.34 12.58 16.34 12.58C16.34 12.58 16.1 13.9533 16.075 15.0466C16.56 15.0533 17.26 15.02 18.055 14.6666C18.055 14.6666 18.03 15.1133 18.03 15.6266C18.03 16.1466 18.055 16.5866 18.055 16.5866C17.4142 16.3111 16.743 16.1826 16.07 16.2066V17.94V17.9333Z" fill="white"/>
<path d="M15.6501 21.5532C14.6551 21.5532 14.1251 23.3866 14.1251 23.3866C14.1251 23.3866 13.8251 22.5199 13.0151 22.5199C12.4651 22.5199 12.0651 23.1666 11.8051 23.7732C12.8051 25.8866 14.4001 27.1932 15.6501 27.9999C16.9001 27.1999 18.5001 25.8866 19.4951 23.7732C19.2351 23.1732 18.8351 22.5199 18.2851 22.5199C17.4751 22.5199 17.1751 23.3866 17.1751 23.3866C17.1751 23.3866 16.6501 21.5532 15.6501 21.5532Z" fill="#0B4EA2"/>
</g>
<rect x="2" y="2" width="36" height="36" rx="18" stroke="white" stroke-width="4"/>
<defs>
<clipPath id="clip0_90_22108">
<rect x="4" y="4" width="32" height="32" rx="16" fill="white"/>
</clipPath>
</defs>
</svg>
