<svg width="40" height="40" viewBox="0 0 40 40" fill="none" xmlns="http://www.w3.org/2000/svg">
<g clip-path="url(#clip0_90_21296)">
<path fill-rule="evenodd" clip-rule="evenodd" d="M4 4H40V20H19.9984L4 4Z" fill="#ED2939"/>
<path fill-rule="evenodd" clip-rule="evenodd" d="M4.00012 36H40.0001V20H19.9986L4.00012 36Z" fill="#002395"/>
<path fill-rule="evenodd" clip-rule="evenodd" d="M4 4L19.9984 20L4 36V4Z" fill="white"/>
<path d="M12.0767 16.075L12.0814 15.825C12.0814 15.825 11.983 15.6125 12.1001 15.3875C12.1001 15.3875 11.8517 15.2125 11.9126 14.9375C11.9126 14.9375 11.6876 14.8625 11.7017 14.5375C11.7017 14.5375 11.4673 14.5188 11.4392 14.2438C11.4392 14.2438 11.2001 14.2938 11.0923 14.0313C11.0923 14.0313 10.858 14.0938 10.7923 13.875C10.7923 13.875 10.5626 13.975 10.4314 13.7188C10.4314 13.7188 10.1876 13.85 10.0892 13.6063C9.99077 13.85 9.74702 13.7188 9.74702 13.7188C9.61577 13.975 9.38608 13.8688 9.38608 13.8688C9.32046 14.0875 9.09077 14.025 9.09077 14.025C8.98296 14.2938 8.7439 14.2375 8.7439 14.2375C8.72046 14.5125 8.4814 14.5375 8.4814 14.5375C8.48816 14.626 8.47114 14.7147 8.43336 14.788C8.39558 14.8613 8.33951 14.9143 8.27515 14.9375C8.33608 15.2063 8.08765 15.3813 8.08765 15.3813C8.20952 15.6125 8.11108 15.8188 8.11108 15.8188L8.1064 16.05L12.0767 16.075" fill="#FFFF00"/>
<path fill-rule="evenodd" clip-rule="evenodd" d="M10.094 13.587L10.101 13.6044C10.1473 13.7212 10.2283 13.7491 10.2992 13.7473C10.3347 13.7465 10.3673 13.7381 10.3911 13.73C10.403 13.7259 10.4126 13.7219 10.4192 13.7189C10.4226 13.7175 10.4251 13.7162 10.4268 13.7154C10.4277 13.7149 10.4284 13.7146 10.4288 13.7144L10.4293 13.7142L10.4294 13.7141L10.4353 13.7109L10.439 13.7179C10.5044 13.8434 10.5931 13.88 10.6659 13.8852C10.7024 13.8879 10.7348 13.8826 10.7581 13.8767C10.7697 13.8737 10.7791 13.8706 10.7855 13.8683C10.7886 13.8671 10.7911 13.8661 10.7928 13.8654C10.7932 13.8652 10.7935 13.8651 10.7938 13.8649C10.7941 13.8648 10.7944 13.8647 10.7946 13.8646L10.795 13.8644L10.7951 13.8644M9.75293 13.7141L9.75304 13.7142L9.75351 13.7144C9.75394 13.7146 9.75459 13.7149 9.75545 13.7154C9.75718 13.7162 9.75975 13.7175 9.76307 13.7189C9.76972 13.7219 9.77938 13.7259 9.7913 13.73C9.81516 13.7381 9.84793 13.7465 9.88374 13.7473C9.95533 13.7491 10.0378 13.7212 10.0868 13.6042L10.094 13.587" fill="black"/>
<path d="M11.9826 15.7625C11.3592 15.6812 10.642 15.4812 10.0888 15.9C9.71384 15.6062 9.19822 15.625 8.75759 15.6812C8.51853 15.7437 8.23728 15.7437 7.98416 15.7937L7.94666 15.8C7.49197 15.8437 7.07947 15.6625 6.68103 15.425C6.81228 16.375 6.94822 17.3437 7.01853 18.3375C7.16853 19.8125 6.49822 21.0437 6.76541 22.5C6.92947 23.2 7.50603 23.6062 8.03103 23.6875C8.53876 23.7302 9.04333 23.8243 9.54041 23.9687C9.62887 23.9978 9.71516 24.0375 9.79822 24.0875C9.91549 24.1558 10.0208 24.2558 10.1076 24.3812C10.3888 23.9875 10.8107 23.875 11.2185 23.8187C11.9592 23.7 12.8732 23.7625 13.3279 22.8687V22.8187C13.5763 22.3187 13.5435 21.5687 13.4357 21.0062C13.4263 20.8125 13.3888 20.6375 13.3654 20.45C12.9154 18.8562 13.3045 17.0625 13.4967 15.45C13.254 15.6127 12.9951 15.7284 12.7279 15.7937C12.517 15.8312 12.2826 15.8187 12.0717 15.8L11.9779 15.7687" fill="#FF0000"/>
<path d="M12.9157 20.3437C12.9157 20.4437 12.9579 20.5312 12.9719 20.625C13.061 21.325 13.1407 22.25 12.6063 22.6812C12.0063 23.1812 11.2282 22.9687 10.5391 23.2375C10.3985 23.2875 10.211 23.4562 10.1172 23.575C10.0516 23.5187 9.99067 23.4375 9.91099 23.3875C9.3438 22.9875 8.60317 23.1187 7.96567 22.9C7.64224 22.7687 7.30942 22.4312 7.22505 21.9937C7.0188 20.8437 7.51567 19.8625 7.45942 18.7187C7.42192 17.8437 7.30942 17.0125 7.15942 16.1937C7.66099 16.5062 8.23755 16.5562 8.80005 16.4062C9.23392 16.3 9.6813 16.3541 10.0938 16.5625C10.3094 16.4375 10.5625 16.3812 10.7969 16.35C11.2329 16.4125 11.7063 16.5125 12.161 16.5125C12.4657 16.4875 12.7422 16.375 13.0047 16.2187C12.85 17.5687 12.5454 18.9812 12.9157 20.3437Z" fill="#80CFE1"/>
<path d="M12.0156 20.6125V19.3375H12.1281L10.6749 18.0875L10.6702 17.4313H10.8109L10.0796 16.7438L9.35774 17.4313H9.49836V18.0875L8.04993 19.3375H8.16711V20.6063H12.0156" fill="white"/>
<path fill-rule="evenodd" clip-rule="evenodd" d="M10.0833 16.6868L10.914 17.4847H10.707L10.7118 18.0629L12.2397 19.3829H12.0501V20.615H12.0179V20.6508H8.13801V19.3829H7.94299L9.47051 18.0632L9.46568 17.4775H9.25771L10.0833 16.6868ZM11.9856 20.5648V19.2969H12.0217L10.6477 18.1099L10.6418 17.3987H10.7142L10.0833 16.7927L9.45799 17.3916H9.52945L9.53537 18.1096L8.16107 19.2969H8.20249V20.5648H11.9856Z" fill="black"/>
<path d="M12.4656 22.2812V22.675H7.77344V22.275H12.4609" fill="white"/>
<path fill-rule="evenodd" clip-rule="evenodd" d="M7.74023 22.2338H12.5014V22.7209H7.74023V22.2338ZM7.80471 22.3198V22.635H12.4369V22.3198H7.80471Z" fill="black"/>
<path d="M8.08291 22.2562V20.9125H8.27041L8.26104 22.2687L8.27041 20.9187L7.99854 20.9125V20.6187L12.1892 20.6312V20.9125H11.936V22.275L11.9313 20.9125H12.1188L12.1282 22.2625" fill="white"/>
<path fill-rule="evenodd" clip-rule="evenodd" d="M7.97156 20.5791L12.2276 20.5864V20.9588H12.1579L12.1631 22.2623L12.0986 22.2627L12.0934 20.9588H11.9698L11.975 22.2764L11.975 22.2766L11.9105 22.2773L11.9105 22.2771L11.8994 20.8728H12.1631V20.6722L8.03603 20.6652V20.8674L8.05216 20.8682V20.8657H8.30506L8.30494 20.8817L8.30505 20.8817L8.29397 22.2701L8.2295 22.2692L8.2398 20.9643L8.11664 20.9577V22.2553H8.05216V20.9543L7.97156 20.95V20.5791Z" fill="black"/>
<path fill-rule="evenodd" clip-rule="evenodd" d="M8.38489 20.9445H9.01898V21.9258H8.98137L8.98106 21.9688L8.38489 21.9612V20.9445ZM8.95451 21.8825V21.0304H8.44936V21.8761L8.95451 21.8825Z" fill="black"/>
<path fill-rule="evenodd" clip-rule="evenodd" d="M11.1475 20.9517H11.7706L11.7765 21.9688H11.1475V20.9517ZM11.212 21.0376V21.8829H11.7115L11.7066 21.0376H11.212ZM8.5735 21.1379H8.86905V21.7683H8.54663V21.1809H8.5735V21.1379ZM8.61111 21.2239V21.6823H8.80457V21.2239H8.61111Z" fill="black"/>
<path fill-rule="evenodd" clip-rule="evenodd" d="M11.1422 19.4259H11.7709V20.4431H11.1422V19.4259ZM11.2067 19.5119V20.3571H11.7065V19.5119H11.2067ZM11.2981 21.1451H11.6205V21.7754H11.2981V21.1451ZM11.3625 21.231V21.6894H11.556V21.231H11.3625Z" fill="black"/>
<path fill-rule="evenodd" clip-rule="evenodd" d="M8.38489 19.4188H9.01361V20.4001H8.98137V20.4359H8.38489V19.4188ZM8.94913 20.35V19.5047H8.44936V20.35H8.94913ZM11.2921 19.6193H11.6145V20.2497H11.2921V19.6193ZM11.3566 19.7053V20.1637H11.55V19.7053H11.3566Z" fill="black"/>
<path fill-rule="evenodd" clip-rule="evenodd" d="M9.40595 19.4188H10.0347V20.4001H10.0024V20.4359H9.40595V19.4188ZM9.97019 20.35V19.5047H9.47042V20.35H9.97019ZM8.54077 19.6122H8.86319V20.2425H8.54077V19.6122ZM8.60525 19.6981V20.1566H8.79871V19.6981H8.60525Z" fill="black"/>
<path fill-rule="evenodd" clip-rule="evenodd" d="M10.1906 19.4183L10.8193 19.4263V20.4435L10.1906 20.4355V19.4183ZM10.2551 19.5051V20.3504L10.7549 20.3567V19.5115L10.2551 19.5051ZM9.55652 19.6121H9.87894V20.2425H9.55652V19.6121ZM9.621 19.6981V20.1565H9.81446V19.6981H9.621Z" fill="black"/>
<path fill-rule="evenodd" clip-rule="evenodd" d="M10.3412 19.6122H10.669V20.2426H10.3412V19.6122ZM10.4057 19.6982V20.1566H10.6045V19.6982H10.4057Z" fill="black"/>
<path d="M10.9236 20.1125L10.933 22.275H9.29705L9.29236 20.1125H10.9189" fill="white"/>
<path fill-rule="evenodd" clip-rule="evenodd" d="M9.62113 17.5133H10.5562V18.1437H9.62113V17.5133ZM9.68561 17.5993V18.0577H10.4917V17.5993H9.68561ZM9.56226 18.2583H10.6204L11.6224 19.2325H8.5603L9.56226 18.2583ZM9.58327 18.3442L8.75815 19.1465H11.4245L10.5994 18.3442H9.58327ZM9.26636 20.0705H10.9591L10.9647 22.3198H9.27195L9.26636 20.0705ZM9.33105 20.1565L9.33237 20.6866H10.8961L10.8948 20.1565H9.33105ZM10.8963 20.7725H10.7657V22.2338H10.9L10.8963 20.7725ZM10.7013 22.2338V20.7725H9.5244V22.2338H10.7013ZM9.45992 22.2338V20.7725H9.33258L9.33621 22.2338H9.45992Z" fill="black"/>
<path fill-rule="evenodd" clip-rule="evenodd" d="M9.70624 17.3414H10.4662L10.0862 16.9813L9.70624 17.3414ZM10.0862 16.9209L10.0702 16.8909L9.50427 17.4274H10.6681L10.1022 16.8909L10.0862 16.9209ZM9.85783 17.6494H10.32V18.0076H9.85783V17.6494ZM9.9223 17.7354V17.9216H10.2555V17.7354H9.9223Z" fill="black"/>
<path d="M12.0343 16.625C12.1702 16.625 12.2031 17.375 12.2031 17.75C12.3249 17.8 12.5827 18.0187 12.6999 18.2125H11.3781C11.4906 18.0187 11.7484 17.8 11.8656 17.7563C11.8656 17.3813 11.8937 16.6188 12.0343 16.6313" fill="white"/>
<path fill-rule="evenodd" clip-rule="evenodd" d="M11.9321 17.0546C11.9075 17.2873 11.8995 17.5681 11.8995 17.7568V17.7893L11.8761 17.7982C11.8247 17.8177 11.7341 17.8809 11.6409 17.9652C11.571 18.0284 11.5023 18.1012 11.4498 18.1723H12.6287C12.5762 18.1012 12.5073 18.0285 12.437 17.9653C12.3431 17.881 12.2513 17.8179 12.1973 17.7983L12.1736 17.7897V17.7568C12.1736 17.5681 12.1655 17.2874 12.1403 17.0547C12.1277 16.938 12.111 16.8361 12.0897 16.7643C12.079 16.7283 12.068 16.7027 12.0573 16.6867C12.0469 16.6712 12.0392 16.6681 12.0338 16.6681C12.0297 16.6681 12.0226 16.6705 12.0126 16.6862C12.0023 16.7021 11.9916 16.7278 11.9813 16.7639C11.9607 16.8357 11.9444 16.9378 11.9321 17.0546ZM11.9637 16.6301C11.9811 16.6031 12.0045 16.5821 12.0338 16.5821C12.0634 16.5821 12.0873 16.6024 12.1054 16.6295C12.1232 16.6562 12.1376 16.6923 12.1496 16.7327C12.1737 16.8139 12.1913 16.9237 12.2041 17.0424C12.2286 17.268 12.2371 17.5355 12.238 17.7253C12.3015 17.7551 12.3886 17.8182 12.473 17.894C12.5689 17.9801 12.6662 18.087 12.7256 18.1889L12.7661 18.2583H11.3123L11.3528 18.1889C11.4123 18.087 11.5095 17.9802 11.6047 17.8941C11.6882 17.8185 11.7739 17.7556 11.8351 17.7257C11.8359 17.5359 11.8444 17.2682 11.8683 17.0426C11.8808 16.9239 11.8978 16.8142 11.921 16.7332C11.9326 16.6928 11.9465 16.6568 11.9637 16.6301ZM12.2972 16.5821H12.5016L12.4475 16.716C12.453 16.7289 12.4591 16.7466 12.4634 16.7682C12.4717 16.8106 12.4721 16.8663 12.4477 16.9261L12.4992 17.0405H12.2725L12.3251 16.9235C12.3249 16.9227 12.3246 16.9218 12.3243 16.921C12.3196 16.9058 12.3138 16.8843 12.3099 16.8595C12.3034 16.8178 12.3014 16.7604 12.3238 16.7084L12.2972 16.6432V16.5821ZM12.3864 16.8957C12.407 16.8525 12.4061 16.8159 12.401 16.79C12.3982 16.7758 12.394 16.7642 12.3905 16.7562C12.3888 16.7523 12.3873 16.7494 12.3863 16.7476C12.3858 16.7467 12.3855 16.7461 12.3853 16.7458C12.3853 16.7458 12.3853 16.7458 12.3853 16.7457C12.3852 16.7457 12.3852 16.7457 12.3852 16.7457C12.3852 16.7457 12.3852 16.7457 12.3852 16.7457L12.3837 16.7432C12.3686 16.7709 12.3675 16.8065 12.3731 16.8419C12.3759 16.8601 12.3802 16.8762 12.3838 16.8879C12.3848 16.8908 12.3856 16.8934 12.3864 16.8957ZM12.3873 16.6839L12.3936 16.6681H12.3808L12.3873 16.6839ZM12.6441 16.6681L12.6506 16.6839L12.657 16.6681H12.6441ZM12.647 16.7432C12.6319 16.7709 12.6308 16.8065 12.6364 16.8419C12.6392 16.8601 12.6435 16.8762 12.6472 16.8879C12.6481 16.8908 12.6489 16.8934 12.6497 16.8957C12.6703 16.8525 12.6694 16.8159 12.6643 16.79C12.6615 16.7758 12.6573 16.7642 12.6538 16.7562C12.6521 16.7523 12.6506 16.7494 12.6496 16.7476C12.6491 16.7467 12.6488 16.7461 12.6486 16.7458L12.6486 16.7457L12.6485 16.7457L12.647 16.7432ZM12.5891 16.9255C12.5886 16.924 12.5881 16.9225 12.5876 16.921C12.5829 16.9058 12.5771 16.8843 12.5732 16.8595C12.5667 16.8178 12.5647 16.7604 12.5872 16.7084L12.5644 16.6528L12.5927 16.6322V16.5821H12.7649L12.7108 16.716C12.7163 16.7289 12.7224 16.7466 12.7267 16.7682C12.735 16.8106 12.7354 16.8663 12.711 16.9261L12.7625 17.0405H12.5459L12.5891 16.9255ZM12.8017 16.5893H13.0304L12.9745 16.7169C12.9799 16.7297 12.9858 16.7471 12.99 16.7682C12.9983 16.8106 12.9988 16.8663 12.9743 16.9261L13.0258 17.0405H12.8092L12.8524 16.9255C12.8519 16.924 12.8515 16.9225 12.851 16.921C12.8462 16.9058 12.8404 16.8843 12.8366 16.8595C12.8301 16.8178 12.828 16.7604 12.8505 16.7084L12.8017 16.5893ZM12.913 16.8957C12.9336 16.8525 12.9327 16.8159 12.9276 16.79C12.9248 16.7758 12.9206 16.7642 12.9171 16.7562C12.9154 16.7523 12.9139 16.7494 12.9129 16.7476C12.9124 16.7467 12.9121 16.7461 12.9119 16.7458C12.9119 16.7458 12.9119 16.7458 12.9119 16.7457C12.9119 16.7457 12.9118 16.7456 12.9118 16.7457L12.9103 16.7432C12.8952 16.7709 12.8941 16.8065 12.8997 16.8419C12.9025 16.8601 12.9068 16.8762 12.9105 16.8879C12.9114 16.8908 12.9122 16.8934 12.913 16.8957ZM12.9141 16.6844L12.9181 16.6752H12.9103L12.9141 16.6844ZM9.32167 20.1278H9.54423L9.49637 20.2554C9.50143 20.269 9.5074 20.2882 9.51141 20.3117C9.51867 20.3543 9.51934 20.4108 9.49705 20.4709L9.54901 20.5863H9.31689L9.36957 20.4693C9.36931 20.4684 9.36904 20.4676 9.36877 20.4667C9.36402 20.4515 9.35826 20.4301 9.35437 20.4052C9.34782 20.3633 9.34578 20.3054 9.3687 20.2532L9.32167 20.1278ZM9.43295 20.4955L9.43079 20.5003H9.43512L9.43295 20.4955ZM9.43306 20.4477C9.45397 20.4023 9.45372 20.3611 9.44854 20.3308C9.44587 20.3151 9.44185 20.3023 9.43855 20.2935C9.4369 20.2891 9.43548 20.2858 9.43455 20.2838C9.43408 20.2828 9.43374 20.2821 9.43357 20.2817C9.43353 20.2817 9.4335 20.2816 9.43348 20.2816C9.43346 20.2815 9.43344 20.2815 9.43344 20.2815L9.43306 20.2808L9.43085 20.2843C9.41318 20.3126 9.41163 20.3502 9.41749 20.3877C9.42033 20.4058 9.42463 20.422 9.42828 20.4336C9.43009 20.4394 9.4317 20.444 9.4328 20.447C9.43289 20.4472 9.43297 20.4474 9.43306 20.4477ZM9.43295 20.2323L9.4399 20.2138H9.42601L9.43295 20.2323ZM9.56349 20.1278H9.78605L9.73819 20.2554C9.74325 20.269 9.74922 20.2882 9.75323 20.3117C9.76049 20.3543 9.76116 20.4108 9.73887 20.4709L9.79083 20.5863H9.55871L9.61139 20.4693C9.61113 20.4684 9.61086 20.4676 9.61059 20.4667C9.60584 20.4515 9.60007 20.4301 9.59619 20.4052C9.58964 20.3633 9.5876 20.3054 9.61051 20.2532L9.56349 20.1278ZM9.67477 20.4955L9.67261 20.5003H9.67694L9.67477 20.4955ZM9.67488 20.4477C9.69579 20.4023 9.69553 20.3611 9.69036 20.3308C9.68769 20.3151 9.68367 20.3023 9.68036 20.2935C9.67872 20.2891 9.6773 20.2858 9.67636 20.2838C9.6759 20.2828 9.67556 20.2821 9.67539 20.2817C9.67535 20.2817 9.67532 20.2816 9.6753 20.2816L9.67526 20.2815L9.67487 20.2808L9.67267 20.2843C9.65499 20.3126 9.65345 20.3502 9.65931 20.3877C9.66215 20.4058 9.66645 20.422 9.6701 20.4336C9.67191 20.4394 9.67352 20.444 9.67462 20.447C9.67471 20.4472 9.67479 20.4474 9.67488 20.4477ZM9.67477 20.2323L9.68171 20.2138H9.66783L9.67477 20.2323ZM9.82681 20.1278H10.0494L10.0015 20.2554C10.0066 20.269 10.0125 20.2882 10.0165 20.3117C10.0238 20.3543 10.0245 20.4108 10.0022 20.4709L10.0541 20.5863H9.83218L9.87534 20.4712C9.87487 20.4698 9.87439 20.4683 9.8739 20.4667C9.86916 20.4515 9.86339 20.4301 9.8595 20.4052C9.85295 20.3633 9.85091 20.3054 9.87383 20.2532L9.82681 20.1278ZM9.93821 20.4958L9.93652 20.5003H9.94025L9.93821 20.4958ZM9.93819 20.4477C9.9591 20.4023 9.95885 20.3611 9.95367 20.3308C9.951 20.3151 9.94698 20.3023 9.94368 20.2935C9.94204 20.2891 9.94061 20.2858 9.93968 20.2838C9.93921 20.2828 9.93888 20.2821 9.9387 20.2817C9.93866 20.2817 9.93863 20.2816 9.93861 20.2816C9.93859 20.2815 9.93858 20.2815 9.93858 20.2815C9.93857 20.2815 9.93858 20.2815 9.93858 20.2815L9.93819 20.2808L9.93598 20.2843C9.91831 20.3126 9.91676 20.3502 9.92263 20.3877C9.92546 20.4058 9.92977 20.422 9.93342 20.4336C9.93523 20.4394 9.93683 20.444 9.93793 20.447C9.93802 20.4472 9.93811 20.4474 9.93819 20.4477ZM9.93809 20.2323L9.94503 20.2138H9.93114L9.93809 20.2323Z" fill="black"/>
<path d="M10.1173 25.05C10.7267 25.05 11.4767 24.8813 11.8282 24.6438L12.6017 24.55L12.6204 25.8063C11.9642 26.2875 10.4548 26.3938 10.122 26.3875C9.78916 26.3875 8.26104 26.2875 7.6001 25.8063L7.60947 24.5438L8.38291 24.6375C8.93566 24.9229 9.52461 25.063 10.1173 25.05" fill="#FFFF00"/>
<path fill-rule="evenodd" clip-rule="evenodd" d="M7.60319 24.5358L8.38726 24.6301L8.38866 24.6311C8.56487 24.7521 8.84601 24.8539 9.15948 24.9255C9.47276 24.9971 9.81756 25.0382 10.1207 25.0382C10.4265 25.0382 10.7659 24.9971 11.0731 24.9255C11.3805 24.854 11.655 24.7521 11.8312 24.6311L11.8326 24.6301L12.6113 24.543L12.6276 25.8145L12.6234 25.8176C12.2968 26.0587 11.754 26.2057 11.2529 26.2916C10.7516 26.3776 10.2904 26.4028 10.126 26.3992C9.95902 26.3992 9.49256 26.3741 8.98514 26.2881C8.47801 26.2021 7.92848 26.0551 7.5965 25.8105L7.59229 25.8074L7.60319 24.5358ZM7.61911 24.5593L7.60851 25.7947C7.93795 26.0354 8.48217 26.1812 8.98717 26.2667C9.49398 26.3526 9.95982 26.3777 10.1261 26.3777L10.1262 26.3777C10.2896 26.3813 10.75 26.3562 11.2508 26.2703C11.7498 26.1847 12.2873 26.039 12.6113 25.8019L12.5955 24.5663L11.8372 24.6512C11.6587 24.7733 11.383 24.8752 11.0759 24.9467C10.7678 25.0184 10.4275 25.0597 10.1207 25.0597C9.81658 25.0597 9.47086 25.0184 9.15676 24.9467C8.84366 24.8752 8.56121 24.7733 8.38268 24.6511L7.61911 24.5593Z" fill="black"/>
<path d="M5.61229 19.6875L6.29198 19.975L6.08573 21.4438L5.44354 21.5812C5.44354 21.5812 5.33573 20.8063 5.61229 19.6875Z" fill="#FFFF00"/>
<path fill-rule="evenodd" clip-rule="evenodd" d="M5.61268 19.6775L6.30413 19.9701L6.09759 21.4553L5.43936 21.5943L5.43793 21.584L5.44586 21.582C5.43793 21.584 5.43793 21.584 5.43793 21.584L5.43791 21.5838L5.43785 21.5833L5.43762 21.5816C5.43742 21.58 5.43713 21.5778 5.43676 21.5748C5.43603 21.5687 5.435 21.5598 5.4338 21.548C5.43139 21.5245 5.42827 21.4898 5.4254 21.4446C5.41967 21.3542 5.41495 21.2222 5.41899 21.0552C5.42708 20.7212 5.47018 20.2474 5.61017 19.6875L5.61268 19.6775ZM5.45248 21.5697L6.08382 21.4365L6.28569 19.9848L5.62296 19.7044C5.48551 20.2576 5.44309 20.7257 5.4351 21.0559C5.43108 21.222 5.43578 21.3532 5.44146 21.4428C5.4443 21.4876 5.44739 21.522 5.44977 21.5451C5.45085 21.5557 5.45179 21.5639 5.45248 21.5697Z" fill="black"/>
<path d="M6.08579 21.4313L5.4436 21.5813L5.85142 20.8063L6.08579 21.4313Z" fill="#7E7E7E"/>
<path fill-rule="evenodd" clip-rule="evenodd" d="M5.85522 20.7876L6.10265 21.4397L5.42786 21.5896L5.85522 20.7876ZM5.46345 21.5599L6.07836 21.4233L5.8529 20.8291L5.46345 21.5599Z" fill="black"/>
<path d="M5.20473 20.75L5.86098 20.8125C5.87504 21.55 5.94535 24.375 8.4766 24.5312L8.39691 25.5625C5.31723 25.6 5.08285 22.0937 5.20941 20.75" fill="#FFFF00"/>
<path fill-rule="evenodd" clip-rule="evenodd" d="M5.21627 20.7625C5.15579 21.4365 5.18454 22.6412 5.60921 23.6738C5.82253 24.1926 6.13573 24.6678 6.58776 25.0107C7.02745 25.3443 7.59891 25.553 8.33834 25.5543L8.38875 25.5399L8.39105 25.5541C8.39201 25.5541 8.39297 25.5541 8.39393 25.554L8.4729 24.5434C7.20757 24.4616 6.55693 23.7161 6.22111 22.8962C5.88782 22.0825 5.86516 21.1967 5.85694 20.8185L5.21627 20.7625ZM8.34004 25.5758C8.36033 25.5759 8.38074 25.5757 8.40128 25.5754L8.40847 25.5753L8.4907 24.523L8.48218 24.5225C7.21671 24.4439 6.56906 23.7009 6.23526 22.8859C5.90108 22.07 5.8809 21.1805 5.87284 20.8081L5.87263 20.7983L5.20972 20.7404L5.20919 20.7511L5.20119 20.7498C5.13927 21.4244 5.16611 22.6411 5.59508 23.6842C5.80964 24.2059 6.12484 24.6843 6.57979 25.0294C7.00784 25.3542 7.55922 25.5607 8.2662 25.575L7.61493 25.7619L7.61833 25.7829L8.34004 25.5758Z" fill="black"/>
<path d="M14.5657 19.7L13.8907 19.9875L14.1064 21.45L14.7532 21.5875C14.7532 21.5875 14.8564 20.8188 14.5657 19.7Z" fill="#FFFF00"/>
<path fill-rule="evenodd" clip-rule="evenodd" d="M14.5755 19.6847L14.578 19.6946C14.7234 20.258 14.7692 20.7336 14.7786 21.0685C14.7834 21.236 14.779 21.3683 14.7734 21.4588C14.7706 21.504 14.7675 21.5388 14.7652 21.5623C14.764 21.5741 14.7629 21.5831 14.7622 21.5891C14.7619 21.5921 14.7616 21.5944 14.7614 21.5959L14.7611 21.5977L14.7611 21.5981L14.7611 21.5982C14.7611 21.5983 14.761 21.5983 14.7531 21.5963L14.7611 21.5982L14.7596 21.6087L14.1014 21.4624L13.884 19.9773L14.5755 19.6847ZM14.7465 21.584C14.7472 21.5782 14.7481 21.57 14.7492 21.5595C14.7515 21.5363 14.7546 21.5019 14.7573 21.457C14.7629 21.3673 14.7672 21.2359 14.7625 21.0694C14.7532 20.7383 14.7081 20.2684 14.5653 19.7115L13.9026 19.992L14.1151 21.4437L14.7465 21.584Z" fill="black"/>
<path d="M14.106 21.4375L14.7482 21.5937L14.3357 20.8187L14.1013 21.4375" fill="#7E7E7E"/>
<path fill-rule="evenodd" clip-rule="evenodd" d="M14.3382 20.802L14.7713 21.6043L14.0963 21.4468L14.3382 20.802ZM14.3407 20.8434L14.1204 21.4306L14.7351 21.574L14.3407 20.8434Z" fill="black"/>
<path d="M14.9831 20.7562L14.3268 20.8187C14.3174 21.5562 14.2659 24.3812 11.7346 24.5375L11.8284 25.5625C14.9081 25.6125 15.119 22.1 14.9877 20.7562" fill="#FFFF00"/>
<path fill-rule="evenodd" clip-rule="evenodd" d="M14.9924 20.7468V20.7647C15.0596 21.4359 15.0407 22.6503 14.6186 23.6913C14.4074 24.2121 14.0952 24.6896 13.6424 25.0337C13.2125 25.3603 12.6563 25.5664 11.9401 25.5756L12.6108 25.7619L12.6075 25.7829L11.8618 25.5759C11.8494 25.5758 11.837 25.5756 11.8245 25.5754L11.8173 25.5753L11.7296 24.5301L11.7382 24.5296C13.0037 24.4546 13.6459 23.7117 13.9737 22.8958C14.3018 22.079 14.3153 21.1878 14.3207 20.8153L14.3208 20.8055L14.9924 20.7468ZM11.8635 25.5544L11.837 25.547L11.8358 25.5541C11.8345 25.5541 11.8331 25.5541 11.8318 25.5541L11.7475 24.5506C13.0128 24.4723 13.6581 23.7268 13.9879 22.906C14.3151 22.0914 14.3312 21.2039 14.3366 20.8256L14.9766 20.7697C15.0433 21.4387 15.0239 22.6465 14.6044 23.6811C14.3945 24.1989 14.0843 24.6732 13.6345 25.015C13.1922 25.351 12.6145 25.5593 11.8635 25.5544Z" fill="black"/>
<path d="M9.70935 25.6687C9.6906 25.6812 9.66248 25.6875 9.63904 25.6812L9.51716 25.675L9.52654 25.4687L9.64841 25.4812C9.67185 25.4812 9.69529 25.4875 9.70466 25.5C9.7281 25.5125 9.73747 25.5437 9.73747 25.5875C9.73747 25.625 9.72341 25.65 9.70466 25.6687M9.5031 25.9812L9.51247 25.7375L9.6531 25.75C9.69997 25.7562 9.73747 25.7375 9.76091 25.7062C9.78435 25.6812 9.79841 25.6437 9.79841 25.5937C9.80076 25.5714 9.79946 25.5487 9.79461 25.5271C9.78975 25.5055 9.78146 25.4856 9.77029 25.4687C9.74498 25.4358 9.71178 25.4159 9.67654 25.4125L9.47029 25.3937L9.44216 25.9812H9.5031ZM9.94373 25.5H10.0937L10.1453 25.5125C10.1687 25.5312 10.1781 25.5562 10.1781 25.6C10.1781 25.6375 10.1734 25.6625 10.1547 25.6812C10.1345 25.6955 10.1118 25.702 10.089 25.7H9.94373V25.5M9.94373 26.0125V25.7625L10.0844 25.7687C10.1078 25.7687 10.1312 25.7687 10.1406 25.7812C10.1593 25.7937 10.1734 25.8187 10.1734 25.8562V26L10.1828 26.0187H10.2578V26.0062C10.2532 26.003 10.2492 25.9986 10.246 25.9932C10.2427 25.9878 10.2404 25.9816 10.239 25.975C10.236 25.9586 10.2344 25.9418 10.2343 25.925V25.8437C10.2343 25.8062 10.225 25.7812 10.2156 25.7687C10.2062 25.7515 10.1931 25.7384 10.1781 25.7312C10.1969 25.7187 10.2156 25.7 10.225 25.6812C10.2344 25.6562 10.2437 25.6312 10.2437 25.5937C10.2437 25.5312 10.2203 25.4812 10.1781 25.4562C10.1515 25.4405 10.1228 25.432 10.0937 25.4312H9.88279V26.0187H9.94373M10.4125 25.8937C10.3844 25.8475 10.3679 25.7906 10.3656 25.7312C10.3656 25.65 10.375 25.5875 10.4031 25.5437C10.4173 25.5231 10.4348 25.5068 10.4542 25.496C10.4736 25.4852 10.4946 25.4802 10.5156 25.4812C10.536 25.4781 10.5566 25.481 10.576 25.4896C10.5954 25.4983 10.6132 25.5125 10.6281 25.5312C10.6609 25.5687 10.675 25.625 10.6797 25.6937C10.6833 25.7545 10.6735 25.8153 10.6515 25.8687C10.6281 25.9187 10.5906 25.95 10.5343 25.95C10.4781 25.95 10.4406 25.9375 10.4078 25.8937M10.3375 25.525C10.3103 25.5875 10.2973 25.6591 10.3 25.7312C10.3047 25.8187 10.3234 25.8937 10.3656 25.9437C10.3877 25.9726 10.4142 25.9948 10.4433 26.0089C10.4725 26.0229 10.5035 26.0284 10.5343 26.025C10.5664 26.0245 10.5979 26.0141 10.6263 25.9945C10.6548 25.975 10.6795 25.9469 10.6984 25.9125C10.7316 25.846 10.748 25.7672 10.7453 25.6875C10.7437 25.6162 10.7238 25.5479 10.689 25.4937C10.6468 25.4312 10.5859 25.4 10.5062 25.4062C10.4312 25.4062 10.375 25.45 10.3375 25.525M12.4 24.6812C12.4468 24.675 12.4843 24.675 12.5172 24.6875C12.564 24.7125 12.5968 24.7562 12.6203 24.8312L12.5594 24.8437C12.549 24.8081 12.5289 24.779 12.5031 24.7625C12.4734 24.7462 12.4408 24.7418 12.4093 24.75C12.3904 24.7542 12.3723 24.7637 12.3562 24.7776C12.34 24.7916 12.3262 24.8098 12.3156 24.8312C12.2922 24.875 12.2828 24.9375 12.2922 25.0187C12.2971 25.0796 12.3169 25.1367 12.3484 25.1812C12.3765 25.2187 12.4187 25.2312 12.4703 25.225C12.5068 25.2182 12.5402 25.1937 12.564 25.1562C12.5922 25.1187 12.5968 25.0687 12.5875 25L12.4468 25.0312L12.4422 24.9687L12.639 24.925L12.6765 25.2375H12.6343L12.6109 25.175L12.564 25.2375C12.5406 25.2687 12.5078 25.2812 12.4703 25.2937C12.4179 25.3061 12.364 25.2904 12.3203 25.25C12.2955 25.2243 12.2749 25.1923 12.2596 25.1558C12.2443 25.1193 12.2347 25.079 12.2312 25.0375C12.2236 24.995 12.2225 24.9509 12.2282 24.9079C12.2338 24.8649 12.246 24.8239 12.264 24.7875C12.2803 24.7572 12.3013 24.732 12.3256 24.7137C12.3499 24.6953 12.3768 24.6842 12.4047 24.6812M12.8453 24.6375L12.9859 24.5687C13.0047 24.5562 13.0234 24.5562 13.0375 24.5562C13.0656 24.5562 13.0844 24.5812 13.0937 24.6187C13.1031 24.6562 13.1031 24.6875 13.0937 24.7125C13.0797 24.7312 13.0609 24.75 13.0328 24.7625L12.9015 24.825L12.8453 24.6375M12.9859 25.1187L12.9203 24.8875L13.0515 24.825C13.0677 24.8144 13.0852 24.808 13.1031 24.8062C13.1265 24.8125 13.1453 24.8312 13.1593 24.8687L13.1875 24.9562L13.2015 25L13.2109 25.0187L13.2812 24.9812V24.9687C13.2672 24.9687 13.2578 24.9625 13.2531 24.9437C13.2437 24.9375 13.239 24.9187 13.2344 24.9L13.2109 24.825C13.2015 24.7937 13.1875 24.775 13.1781 24.7625C13.1633 24.7539 13.1473 24.7496 13.1312 24.75L13.1593 24.675C13.1593 24.65 13.1593 24.6187 13.15 24.5875C13.1312 24.525 13.1031 24.4875 13.0562 24.4875C13.0259 24.4851 12.9955 24.4915 12.9672 24.5062L12.7703 24.6L12.9297 25.15L12.9859 25.125M13.5015 24.8312L13.2531 24.3437L13.525 24.1062L13.5578 24.1687L13.3328 24.3562L13.4078 24.5062L13.6187 24.3312L13.6469 24.3875L13.4359 24.5625L13.5203 24.7312L13.7547 24.5312L13.7828 24.5937L13.5015 24.8312M13.7218 23.9687L13.7922 23.8625C13.8297 23.8125 13.8625 23.7937 13.9 23.8C13.9422 23.8 13.9797 23.8312 14.0219 23.8812C14.0516 23.9144 14.0742 23.9576 14.0875 24.0062C14.0968 24.0437 14.0922 24.075 14.0875 24.1062C14.079 24.1292 14.0679 24.1502 14.0547 24.1687L13.9844 24.2687L13.7218 23.9687M14.1015 24.1937C14.1531 24.1187 14.1625 24.0437 14.1343 23.9437C14.1147 23.8932 14.0876 23.8485 14.0547 23.8125C14.015 23.7624 13.9638 23.7316 13.9093 23.725C13.8531 23.7187 13.8062 23.7437 13.764 23.8062L13.6422 23.9812L13.9797 24.375L14.1015 24.2M14.364 23.7437L13.975 23.4312L14.0078 23.3687L14.3969 23.675L14.364 23.7375M14.5187 23.3875L14.0968 23.1625L14.2187 22.7687L14.2703 22.7937L14.1719 23.1187L14.2984 23.1812L14.3922 22.8875L14.439 22.9125L14.3453 23.2125L14.4859 23.2875L14.5937 22.9625L14.6406 22.9875L14.5187 23.3875M14.7062 22.7L14.2656 22.575L14.2843 22.4812L14.6922 22.2937L14.3312 22.1875L14.3453 22.1187L14.7859 22.2437L14.7719 22.3312L14.364 22.5187L14.725 22.625L14.7109 22.7M14.6734 21.95L14.6781 21.875C14.7062 21.875 14.725 21.875 14.7437 21.8625C14.7765 21.8375 14.7906 21.7937 14.8 21.7312C14.8026 21.7019 14.801 21.6722 14.7953 21.6437C14.7859 21.6 14.7672 21.5687 14.7344 21.5687C14.7062 21.5625 14.6875 21.5687 14.6781 21.5875C14.664 21.6062 14.6547 21.6375 14.6453 21.6812L14.6219 21.7562C14.6125 21.8062 14.5984 21.8437 14.5844 21.8625C14.5656 21.9 14.5375 21.9125 14.5 21.9062C14.482 21.9049 14.4643 21.8987 14.4482 21.888C14.4321 21.8772 14.4178 21.8622 14.4062 21.8437C14.3781 21.8062 14.3687 21.75 14.3734 21.6812C14.3781 21.6187 14.3922 21.5687 14.4203 21.5312C14.4437 21.4937 14.4812 21.4687 14.5328 21.4812L14.5281 21.5562C14.5047 21.5562 14.4812 21.5562 14.4718 21.575C14.4437 21.5937 14.4297 21.6375 14.425 21.6937C14.425 21.7375 14.425 21.7687 14.4437 21.7937C14.4578 21.8187 14.4719 21.8312 14.4906 21.8312C14.514 21.8312 14.5328 21.8312 14.5422 21.8062L14.575 21.7L14.5937 21.6187C14.6031 21.5812 14.6172 21.5562 14.6312 21.5312C14.6547 21.5 14.6875 21.4875 14.725 21.4875C14.7765 21.4937 14.814 21.525 14.8281 21.575C14.8469 21.625 14.8562 21.675 14.8515 21.7437C14.8489 21.8054 14.8288 21.8635 14.7953 21.9062C14.7625 21.9437 14.725 21.9562 14.6734 21.95M5.50466 21.9125L5.51872 21.9875C5.4906 21.9937 5.47185 22.0062 5.45779 22.025C5.43435 22.0562 5.42497 22.1062 5.43435 22.175C5.43758 22.2011 5.44391 22.2265 5.4531 22.25C5.47185 22.2937 5.49997 22.3125 5.53279 22.3062C5.55622 22.3 5.57029 22.2875 5.57966 22.2625L5.59372 22.1625V22.0812C5.59372 22.0312 5.6031 21.9875 5.60779 21.9687C5.62185 21.9312 5.64997 21.9062 5.68747 21.8937C5.72497 21.8875 5.76247 21.8937 5.7906 21.9312C5.82341 21.9562 5.84216 22.0062 5.85154 22.0687C5.86065 22.1235 5.8557 22.1807 5.83747 22.2312C5.81872 22.2812 5.7906 22.3062 5.73904 22.3187L5.72966 22.25C5.74698 22.2417 5.7629 22.2289 5.77654 22.2125C5.79997 22.1812 5.80466 22.1375 5.79997 22.0812C5.7906 22.0312 5.78122 22 5.76247 21.9875C5.75464 21.9792 5.74557 21.9732 5.73587 21.97C5.72617 21.9668 5.71606 21.9663 5.70622 21.9687C5.69588 21.9681 5.68568 21.972 5.6772 21.9799C5.66872 21.9879 5.66244 21.9993 5.65935 22.0125L5.65466 22.125L5.64997 22.2062C5.64979 22.2411 5.64336 22.2754 5.63122 22.3062C5.62361 22.3265 5.61236 22.344 5.59845 22.3571C5.58455 22.3702 5.56843 22.3785 5.55154 22.3812C5.50466 22.3937 5.45779 22.375 5.43435 22.3312C5.4057 22.289 5.38625 22.2371 5.3781 22.1812C5.37277 22.1504 5.3721 22.1186 5.37613 22.0874C5.38015 22.0563 5.38879 22.0266 5.40154 22C5.41318 21.9771 5.42846 21.958 5.44629 21.944C5.46411 21.9299 5.48405 21.9213 5.50466 21.9187M5.47654 22.6875L5.91247 22.5125L6.01091 22.9187L5.95935 22.9437L5.87497 22.6125L5.74372 22.6625L5.82341 22.975L5.77185 22.9937L5.69685 22.6812L5.54685 22.7437L5.63122 23.0812L5.58435 23.1L5.47654 22.6875M5.66872 23.3937L6.06716 23.1125L6.11404 23.2125L5.83747 23.5937L6.23591 23.5062L6.2781 23.6L5.87966 23.8812L5.85154 23.8187L6.08591 23.65L6.1281 23.625L6.18904 23.5812L5.7906 23.675L5.76247 23.6062L6.03435 23.2187L6.02029 23.2312L5.97341 23.2625C5.95994 23.2743 5.94584 23.2847 5.93122 23.2937L5.69685 23.4562L5.66872 23.3937M6.40935 24.175C6.3906 24.1687 6.37185 24.15 6.3531 24.125L6.26872 24.0125L6.38122 23.875L6.4656 23.9875C6.47963 24.0051 6.4908 24.0264 6.49841 24.05C6.50779 24.0812 6.49841 24.1125 6.47497 24.1437C6.45154 24.1687 6.4281 24.1812 6.40935 24.175ZM6.0906 24.225L6.23122 24.0562L6.32497 24.1875C6.36247 24.2312 6.39529 24.25 6.4281 24.25C6.46291 24.2494 6.49632 24.2315 6.52185 24.2C6.54552 24.1659 6.55889 24.1214 6.55935 24.075C6.55935 24.0375 6.54529 23.9937 6.51716 23.9562L6.37654 23.7687L6.04841 24.1687L6.09529 24.2312M6.48904 24.7L6.7281 24.2L7.00935 24.425L6.98122 24.4875L6.74685 24.3L6.67654 24.4562L6.88747 24.625L6.86404 24.6875L6.64841 24.5125L6.56872 24.6812L6.8031 24.8687L6.77497 24.9312L6.48904 24.7ZM7.19216 24.6L7.33747 24.6625L7.38435 24.6937C7.4031 24.7187 7.40779 24.75 7.39372 24.7875C7.38435 24.825 7.37497 24.85 7.35154 24.8562L7.28122 24.85L7.14529 24.7875L7.19216 24.6M7.07029 25.0937L7.13122 24.8562L7.26247 24.9125C7.28591 24.9187 7.30935 24.9312 7.31404 24.9437C7.3281 24.9625 7.33279 24.9937 7.3281 25.0312L7.30466 25.125L7.29997 25.1687V25.1875L7.37029 25.2187V25.2062L7.36091 25.1625L7.37029 25.1187L7.38904 25.0437C7.39372 25.0062 7.39841 24.9812 7.38904 24.9687C7.38904 24.95 7.37497 24.9312 7.36091 24.9125C7.38435 24.9125 7.40779 24.9 7.42185 24.8812C7.43591 24.8625 7.44997 24.8375 7.45466 24.8062C7.47341 24.7437 7.46404 24.6875 7.42654 24.65C7.40424 24.6254 7.37884 24.6064 7.35154 24.5937L7.14997 24.5125L7.00935 25.0687L7.07029 25.0937" fill="#009FC5"/>
<path d="M7.67983 14.975C7.7267 14.8062 8.20951 14.35 9.77983 14.55C9.77983 14.55 10.047 14.7687 10.2017 14.7375C10.2955 14.725 10.1548 14.75 10.033 14.6187C9.91576 14.4937 9.89233 14.225 10.1595 14.2375C10.4314 14.2437 11.4392 14.3187 11.458 14.4437C11.4767 14.5625 10.9236 14.6125 10.722 14.6062C10.5158 14.6 10.5345 14.7375 10.7408 14.7312C11.383 14.6937 12.0814 14.3937 12.8173 15.0937C12.9064 15.175 12.597 15.1875 12.358 15.0562C12.358 15.0562 11.7017 15.1 11.4205 15.0375C11.4205 15.0375 11.2095 15.275 10.9236 15.25C10.9611 15.375 10.8205 15.825 9.9392 15.4812C9.7892 15.5437 9.25951 15.6625 9.31576 15.45C9.17514 15.45 8.93139 15.5125 8.89389 15.4062C8.85639 15.3 9.32514 15.1437 9.40951 15.0312C9.40951 15.0312 8.41576 15.0437 8.22826 14.95C8.22826 14.95 7.64233 15.125 7.67983 14.975" fill="#BC715F"/>
<path d="M7.99844 16.825C8.01719 16.7875 8.02657 16.7125 8.07344 16.7187C8.16719 16.75 8.2375 16.9937 8.35469 16.8375C8.40157 16.825 8.41563 16.9 8.44844 16.9125C8.47188 17.0437 8.55625 16.8812 8.6125 16.8937C8.74375 16.8187 8.89844 16.8 9.05313 16.8312C9.05313 16.9687 8.97813 17.1125 8.88438 17.1875C8.88438 17.3125 8.97813 17.4 8.97344 17.5312C8.95938 17.5812 8.97344 17.6562 8.91719 17.675C8.84219 17.6562 8.77657 17.65 8.71563 17.5937C8.70625 17.5875 8.70157 17.5687 8.6875 17.575C8.67813 17.6187 8.73438 17.6625 8.75313 17.7062C8.71563 17.7875 8.65938 17.7125 8.60782 17.7125C8.59375 17.7625 8.60782 17.8187 8.57032 17.85C8.50938 17.85 8.49532 17.7562 8.45782 17.7125C8.41563 17.7687 8.48594 17.8 8.49532 17.8437C8.46719 18.0187 8.47188 18.1875 8.34532 18.3L8.25625 18.3562C8.23282 18.2687 8.24688 18.1375 8.23282 18.0437C8.18594 18.1562 8.13907 18.2562 8.06875 18.35C7.975 18.3125 7.92813 18.175 7.90938 18.0562C7.89026 17.9907 7.88585 17.9192 7.89667 17.8504C7.90749 17.7816 7.93307 17.7185 7.97032 17.6687C7.94688 17.6062 7.85313 17.6187 7.83907 17.5187C7.69844 17.3937 7.62813 17.725 7.53907 17.5562C7.52526 17.4728 7.52657 17.3862 7.54287 17.3036C7.55917 17.221 7.59001 17.1448 7.63282 17.0812C7.60938 17.0187 7.54375 17.0312 7.50625 16.9937C7.42188 16.8937 7.29532 16.7937 7.30469 16.6187C7.42234 16.5619 7.54972 16.5512 7.6718 16.5877C7.79389 16.6243 7.9056 16.7066 7.99375 16.825" fill="#008737"/>
<path d="M8.1203 16.8063C8.11562 16.95 8.19062 16.8438 8.25155 16.9313C8.20468 16.9063 8.17187 17.0375 8.12499 16.9625L8.09687 17C8.11562 17.05 8.14374 17.0563 8.11562 17.1125C8.06874 17.1375 8.05468 17.05 8.03124 17.0188C8.03124 17.0063 8.04062 16.9813 8.02187 16.9688C7.99374 17 7.96562 17.0125 7.92812 17.0063C7.91874 16.9813 7.8953 16.9438 7.91874 16.9188C7.95624 16.8563 8.01249 16.9438 8.04062 16.9C8.0453 16.8563 8.01718 16.8063 8.05468 16.775C8.07812 16.7813 8.11093 16.7625 8.1203 16.8063M8.41093 16.925C8.41562 16.95 8.40155 16.9875 8.42968 17.0125C8.46718 16.9875 8.50468 17.0063 8.52343 17.05C8.52343 17.075 8.52812 17.1125 8.50468 17.125L8.44843 17.1063C8.45312 17.0938 8.43437 17.0875 8.42968 17.0688C8.40624 17.0625 8.38749 17.0875 8.37343 17.1063C8.38749 17.1313 8.4203 17.15 8.41093 17.1813C8.37812 17.225 8.36405 17.1438 8.32655 17.1688C8.29843 17.1563 8.33124 17.0875 8.29374 17.0625C8.24687 17.0625 8.27968 17.1625 8.21874 17.125C8.19999 17.0938 8.18124 17.05 8.19999 17.0188C8.21387 17.0078 8.23003 17.0031 8.24608 17.0054C8.26212 17.0076 8.27719 17.0167 8.28905 17.0313C8.32655 16.975 8.32655 16.775 8.41562 16.925M8.04999 17.1313C8.07343 17.1813 8.04062 17.2438 8.07343 17.2938C8.1203 17.1688 8.16718 17.3188 8.22343 17.3063C8.24218 17.3375 8.22812 17.375 8.2328 17.4063C8.16249 17.4313 8.07812 17.4625 8.01718 17.3875L7.99843 17.4125C8.03593 17.4563 8.06874 17.5125 8.04062 17.5875C7.98905 17.6 7.90468 17.6063 7.88124 17.5313C7.86718 17.4688 7.91405 17.4313 7.86249 17.3813C7.82968 17.4438 7.82968 17.5188 7.75937 17.4625C7.73924 17.4479 7.72411 17.4235 7.71713 17.3944C7.71014 17.3653 7.71184 17.3337 7.72187 17.3063C7.76874 17.2063 7.85312 17.3063 7.89999 17.2625C7.90937 17.175 7.88593 17.1 7.94687 17.0563C7.99374 17.0438 8.01718 17.0938 8.04999 17.1313" fill="#FFFF00"/>
<path d="M8.24695 17.1875C8.22351 17.3313 8.14382 17.1813 8.10632 17.175C8.1532 17.05 8.18601 17.2125 8.24695 17.1875ZM8.50007 17.3438C8.44382 17.3625 8.4532 17.2688 8.42507 17.2313L8.44851 17.2063C8.46726 17.2375 8.48132 17.3 8.50007 17.3438" fill="white"/>
<path d="M8.42515 17.3125C8.43921 17.3625 8.38765 17.4062 8.43452 17.4375L8.47202 17.3937C8.51421 17.4062 8.5564 17.4187 8.58452 17.4687C8.61265 17.575 8.53296 17.575 8.49077 17.6062H8.4439C8.45327 17.5687 8.42046 17.5562 8.41577 17.5437C8.40677 17.5395 8.39701 17.539 8.38779 17.5424C8.37857 17.5457 8.37035 17.5527 8.36421 17.5625C8.37358 17.625 8.43452 17.6875 8.37358 17.7437C8.31733 17.7437 8.23296 17.7687 8.23765 17.6687C8.2189 17.6062 8.2939 17.525 8.21421 17.5187C8.18608 17.6 8.15796 17.6687 8.08765 17.6L8.09702 17.4875C8.16265 17.4875 8.24233 17.5062 8.27046 17.4062C8.28921 17.3375 8.23765 17.2687 8.28452 17.2187C8.35483 17.1937 8.39233 17.2562 8.42515 17.3125" fill="#FFFF00"/>
<path d="M8.37831 17.475C8.39238 17.5313 8.35019 17.5375 8.32675 17.5625C8.29863 17.5625 8.27988 17.55 8.26113 17.525C8.24706 17.4625 8.28456 17.45 8.308 17.425C8.34081 17.4063 8.35488 17.4563 8.37831 17.475" fill="black"/>
<path d="M8.33621 17.5125C8.33152 17.525 8.31746 17.5188 8.30808 17.525L8.29871 17.4625C8.32214 17.4625 8.34558 17.4688 8.33621 17.5125Z" fill="white"/>
</g>
<rect x="2" y="2" width="36" height="36" rx="18" stroke="white" stroke-width="4"/>
<defs>
<clipPath id="clip0_90_21296">
<rect x="4" y="4" width="32" height="32" rx="16" fill="white"/>
</clipPath>
</defs>
</svg>
