<svg width="40" height="40" viewBox="0 0 40 40" fill="none" xmlns="http://www.w3.org/2000/svg">
<g clip-path="url(#clip0_90_21259)">
<path d="M4 4H36V36H4V4Z" fill="#3E5EB9"/>
<path d="M3.99988 10H35.9999V30H3.99988V10Z" fill="#FFD900"/>
<path d="M3.99988 12H35.9999V28H3.99988V12Z" fill="#B10C0C"/>
<path d="M31.4134 16.3441L29.9554 17.0321L31.4074 17.7121L32.8654 17.0321L31.4134 16.3441Z" fill="white"/>
<path fill-rule="evenodd" clip-rule="evenodd" d="M31.4141 16.3016L32.9563 17.0323L31.408 17.7544L29.8658 17.0322L31.4141 16.3016ZM30.0463 17.0319L31.4081 17.6696L32.7758 17.0317L31.414 16.3865L30.0463 17.0319Z" fill="black"/>
<path d="M30.4475 16.8H9.39352C9.29079 16.8 9.20752 16.9021 9.20752 17.028C9.20752 17.154 9.29079 17.256 9.39352 17.256H30.4475C30.5502 17.256 30.6335 17.154 30.6335 17.028C30.6335 16.9021 30.5502 16.8 30.4475 16.8Z" fill="#FFD900"/>
<path fill-rule="evenodd" clip-rule="evenodd" d="M9.39361 16.84C9.30503 16.84 9.23761 16.9273 9.23761 17.028C9.23761 17.1287 9.30503 17.216 9.39361 17.216H30.4476C30.5362 17.216 30.6036 17.1287 30.6036 17.028C30.6036 16.9273 30.5362 16.84 30.4476 16.84H9.39361ZM9.17761 17.028C9.17761 16.8769 9.27674 16.76 9.39361 16.76H30.4476C30.5645 16.76 30.6636 16.8769 30.6636 17.028C30.6636 17.1791 30.5645 17.296 30.4476 17.296H9.39361C9.27674 17.296 9.17761 17.1791 9.17761 17.028Z" fill="black"/>
<path d="M30.1241 17.256C30.1688 17.2542 30.2114 17.2302 30.2435 17.1888C30.2757 17.1474 30.2951 17.0915 30.2981 17.032C30.2966 16.9712 30.2778 16.9133 30.2455 16.8702C30.2132 16.8271 30.1698 16.802 30.1241 16.8M29.9561 17.256C29.9997 17.2523 30.0408 17.2275 30.0718 17.1863C30.1027 17.145 30.1213 17.0902 30.1241 17.032C30.1227 16.9725 30.1047 16.9157 30.0737 16.8728C30.0426 16.8299 30.0007 16.804 29.9561 16.8M29.7821 17.256C29.8268 17.2542 29.8694 17.2302 29.9015 17.1888C29.9337 17.1474 29.9531 17.0915 29.9561 17.032C29.9546 16.9712 29.9358 16.9133 29.9035 16.8702C29.8712 16.8271 29.8278 16.802 29.7821 16.8" fill="#FFD900"/>
<path fill-rule="evenodd" clip-rule="evenodd" d="M29.7825 16.7601C29.8358 16.7624 29.8864 16.7917 29.9241 16.8419C29.9618 16.8922 29.9837 16.9597 29.9855 17.0307L29.9855 17.0327L29.9854 17.0347C29.982 17.1041 29.9593 17.1693 29.9218 17.2176C29.8842 17.2659 29.8346 17.2939 29.7824 17.296L29.7806 17.2161C29.8178 17.2145 29.8533 17.1946 29.8801 17.16C29.9065 17.126 29.9227 17.0802 29.9255 17.0314C29.9239 16.9814 29.9082 16.9339 29.8817 16.8985C29.8547 16.8626 29.8186 16.8417 29.7805 16.84L29.7825 16.7601ZM30.1245 16.7601C30.1778 16.7624 30.2284 16.7917 30.2661 16.8419C30.3038 16.8922 30.3257 16.9597 30.3275 17.0307L30.3275 17.0327L30.3274 17.0347C30.324 17.1041 30.3013 17.1693 30.2638 17.2176C30.2262 17.2659 30.1766 17.2939 30.1244 17.296L30.1226 17.2161C30.1598 17.2145 30.1953 17.1946 30.2221 17.16C30.2485 17.126 30.2647 17.0802 30.2675 17.0314C30.2659 16.9814 30.2502 16.9339 30.2237 16.8985C30.1967 16.8626 30.1606 16.8417 30.1225 16.84L30.1245 16.7601ZM29.9575 16.7601C30.0095 16.7647 30.0584 16.795 30.0947 16.845C30.1309 16.8951 30.1519 16.9613 30.1535 17.0308L30.1535 17.0327L30.1534 17.0346C30.1501 17.1025 30.1284 17.1664 30.0924 17.2145C30.0563 17.2626 30.0083 17.2916 29.9574 17.296L29.9536 17.2161C29.9899 17.213 30.0242 17.1923 30.0499 17.158C30.0754 17.1241 30.0908 17.0791 30.0935 17.0314C30.092 16.9824 30.077 16.9359 30.0515 16.9006C30.0256 16.8649 29.9907 16.8432 29.9535 16.84L29.9575 16.7601Z" fill="black"/>
<path d="M34.3177 19.656H5.67973C5.54056 19.656 5.42773 19.81 5.42773 20C5.42773 20.19 5.54056 20.344 5.67973 20.344H34.3177C34.4569 20.344 34.5697 20.19 34.5697 20C34.5697 19.81 34.4569 19.656 34.3177 19.656Z" fill="#FFD900"/>
<path fill-rule="evenodd" clip-rule="evenodd" d="M5.67965 19.7001C5.55943 19.7001 5.46065 19.8334 5.46065 20.0001C5.46065 20.1667 5.55943 20.3001 5.67965 20.3001H34.3177C34.4379 20.3001 34.5367 20.1667 34.5367 20.0001C34.5367 19.8334 34.4379 19.7001 34.3177 19.7001H5.67965ZM5.39465 20.0001C5.39465 19.7868 5.52152 19.6121 5.67965 19.6121H34.3177C34.4758 19.6121 34.6027 19.7868 34.6027 20.0001C34.6027 20.2134 34.4758 20.3881 34.3177 20.3881H5.67965C5.52152 20.3881 5.39465 20.2134 5.39465 20.0001Z" fill="black"/>
<path d="M28.4097 20C26.6947 22.2867 24.4097 26.86 19.8397 26.86C15.8397 26.86 12.9847 22.2867 11.2697 20C12.9797 17.7133 15.8397 13.14 19.8397 13.14C24.4097 13.14 26.6947 17.7133 28.4097 20V20Z" fill="white"/>
<path fill-rule="evenodd" clip-rule="evenodd" d="M11.3121 19.9999C11.4855 20.2318 11.6703 20.4863 11.8665 20.7564C12.6391 21.8202 13.588 23.1268 14.7158 24.2555C16.1411 25.6818 17.8486 26.82 19.8397 26.82C23.6872 26.82 25.9073 23.5695 27.541 21.1775C27.8332 20.7497 28.1067 20.3494 28.3673 20C28.1067 19.6506 27.8332 19.2503 27.541 18.8225C25.9073 16.4304 23.6872 13.18 19.8397 13.18C17.8486 13.18 16.1399 14.3181 14.7139 15.7445C13.5798 16.879 12.6267 18.1934 11.8532 19.2602C11.6618 19.5241 11.4815 19.7728 11.3121 19.9999ZM28.4097 20L28.4309 19.9717C28.1665 19.6192 27.8881 19.2113 27.5893 18.7736C25.9564 16.3816 23.7162 13.1 19.8397 13.1C17.8308 13.1 16.1095 14.2485 14.6779 15.6805C13.5395 16.8193 12.5821 18.1397 11.8084 19.2067C11.6096 19.4809 11.4229 19.7384 11.2484 19.9717L11.2273 20L11.2485 20.0283C11.427 20.2663 11.6181 20.5294 11.8217 20.8098C12.5945 21.8739 13.5478 23.1866 14.6798 24.3195C16.1108 25.7515 17.8308 26.9 19.8397 26.9C23.7162 26.9 25.9564 23.6183 27.5893 21.2263C27.8881 20.7887 28.1665 20.3808 28.4309 20.0283L28.4097 20Z" fill="black"/>
<path d="M19.2397 15.5333C19.6997 16.2133 19.3147 16.4867 19.7997 16.5333C20.3097 16.58 20.0197 17.2533 20.4497 17.28C20.7497 17.2933 20.4197 18.8933 20.7047 19.4133C20.9997 19.9667 21.2447 19.58 21.2547 19.9733C21.2547 20.3867 20.4547 20.34 20.4397 21.6067C20.4147 22.3333 19.7597 22.38 19.7297 22.8467C19.6897 23.2867 21.0197 23.5333 20.9997 23.9267C20.9847 24.3267 19.5647 24.26 19.4997 24.7067C19.4697 25.1067 21.4497 25.44 21.6097 26.6067C21.3097 26.74 20.4747 26.8533 19.8397 26.86C15.8397 26.86 12.9847 22.2867 11.2697 19.9933C12.9847 17.7133 15.8397 13.14 19.8397 13.14C19.8397 13.14 18.6547 14.5867 19.2397 15.5267V15.5333Z" fill="black"/>
<path d="M14.6799 19.392V17.56ZM15.5079 17.56V19.392ZM16.3359 17.56V19.392Z" fill="black"/>
<path fill-rule="evenodd" clip-rule="evenodd" d="M14.8865 17.56V19.392H14.4725V17.56H14.8865ZM15.3005 19.392V17.56H15.7145V19.392H15.3005ZM16.1285 19.392V17.56H16.5425V19.392H16.1285Z" fill="white"/>
<path d="M32.5194 19.7334C32.2594 20.3267 32.7194 19.5334 33.8394 20.5334C33.9532 20.6588 34.0466 20.8141 34.1137 20.9895C34.1808 21.165 34.2201 21.3569 34.2294 21.5534C34.1794 21.5067 34.1344 21.4001 34.0794 21.3401C33.9994 21.4467 34.1594 21.9401 34.1794 22.1734C34.0044 22.0401 34.0194 21.9867 33.9644 21.8267C33.9744 22.0134 33.9294 22.5467 34.0044 22.7601C33.8644 22.7067 33.8744 22.5601 33.8044 22.5267C33.8544 22.7601 33.7594 23.0067 33.7844 23.2734C33.7044 23.1667 33.6144 23.0801 33.5794 23.0401C33.5694 23.1734 33.4244 23.4934 33.4194 23.6134C33.3933 23.5911 33.3709 23.5618 33.3537 23.5274C33.3365 23.4929 33.3248 23.4541 33.3194 23.4134C33.1607 23.6656 33.0263 23.9434 32.9194 24.2401C32.6844 23.9734 32.0894 23.3067 32.0094 22.9467C31.9394 23.1467 31.8394 23.2134 31.6494 23.3601C31.5694 22.8001 31.2744 22.1734 31.4294 21.6867C31.3243 21.7733 31.2225 21.8668 31.1244 21.9667C31.2138 21.4755 31.3865 21.0182 31.6292 20.6299C31.8719 20.2416 32.1781 19.9326 32.5244 19.7267L32.5194 19.7334Z" fill="#333333"/>
<path fill-rule="evenodd" clip-rule="evenodd" d="M32.4617 19.8026C32.149 20.0053 31.8718 20.2944 31.6488 20.6511C31.4237 21.0113 31.2594 21.4315 31.1668 21.8831C31.2478 21.8038 31.3312 21.7288 31.4167 21.6583L31.4836 21.6032L31.4528 21.6997C31.379 21.9314 31.4114 22.1996 31.4756 22.4863C31.4982 22.5872 31.5244 22.6889 31.5507 22.7913C31.5617 22.8341 31.5728 22.8771 31.5836 22.9201C31.6162 23.05 31.6468 23.1802 31.6674 23.308C31.6687 23.307 31.6699 23.306 31.6712 23.305C31.8402 23.1751 31.9251 23.1098 31.9872 22.9326L32.0151 22.8529L32.0338 22.9372C32.0523 23.0207 32.1019 23.1256 32.1722 23.2422C32.242 23.3581 32.3305 23.4825 32.4242 23.6045C32.5991 23.8324 32.791 24.0502 32.9115 24.1868C33.0169 23.9021 33.1476 23.6353 33.3007 23.3919L33.3351 23.3372L33.3444 23.4075C33.3493 23.4437 33.3596 23.4782 33.3749 23.5088C33.3831 23.5251 33.3925 23.54 33.403 23.5535C33.408 23.5303 33.4147 23.5052 33.4223 23.4797C33.437 23.4297 33.4562 23.3735 33.4752 23.3179L33.4754 23.3173C33.4944 23.2615 33.5133 23.2062 33.5281 23.1567C33.5431 23.1062 33.5528 23.065 33.5549 23.0367L33.5597 22.9731L33.5961 23.0147C33.6046 23.0245 33.6174 23.0379 33.633 23.0544C33.6654 23.0886 33.7103 23.136 33.7556 23.1905C33.7546 23.0939 33.7656 23.0006 33.776 22.9126C33.7771 22.9024 33.7783 22.8924 33.7795 22.8824C33.7939 22.7578 33.8041 22.6446 33.7808 22.5358L33.7674 22.4735L33.8132 22.4953C33.8369 22.5066 33.853 22.5273 33.8657 22.5494C33.8733 22.5626 33.881 22.5789 33.8883 22.5944C33.8921 22.6025 33.8959 22.6103 33.8994 22.6173C33.9143 22.6473 33.9324 22.6772 33.9626 22.7007C33.9536 22.6563 33.9476 22.6063 33.9435 22.5539C33.9368 22.4692 33.9351 22.3754 33.9354 22.2832C33.9357 22.2079 33.9373 22.133 33.9388 22.0649C33.9391 22.0497 33.9394 22.0348 33.9397 22.0203C33.9414 21.9403 33.9423 21.8737 33.9399 21.829L33.9875 21.8128C33.9981 21.8435 34.0062 21.8707 34.0134 21.8945C34.0157 21.9024 34.018 21.9099 34.0201 21.917C34.0291 21.946 34.037 21.9694 34.0481 21.9915C34.0655 22.0264 34.0921 22.0612 34.1462 22.1075C34.1397 22.0658 34.1307 22.0188 34.1204 21.9685C34.1139 21.9371 34.107 21.9043 34.0999 21.8709C34.089 21.8199 34.078 21.7677 34.0681 21.7176C34.0518 21.6344 34.0382 21.5531 34.034 21.4852C34.0318 21.4512 34.0319 21.4191 34.0357 21.391C34.0395 21.3631 34.0472 21.3363 34.0621 21.3164L34.0781 21.2951L34.0956 21.3142C34.1241 21.3453 34.1497 21.3873 34.1727 21.425C34.1738 21.4269 34.175 21.4288 34.1761 21.4307C34.1839 21.4434 34.1914 21.4556 34.1986 21.4669C34.1833 21.3059 34.1473 21.1495 34.0918 21.0046C34.0265 20.8337 33.9356 20.6824 33.8249 20.5601C33.27 20.065 32.8802 20.015 32.6622 20.0142C32.6348 20.0141 32.6099 20.0148 32.5876 20.0155C32.5846 20.0156 32.5816 20.0156 32.5786 20.0157C32.56 20.0163 32.5429 20.0169 32.5279 20.0169C32.5106 20.0168 32.4948 20.0161 32.4814 20.0133C32.4684 20.0107 32.4546 20.0057 32.4436 19.9944C32.4312 19.9817 32.425 19.9638 32.4242 19.9437C32.4234 19.9254 32.427 19.9057 32.4325 19.8856C32.4387 19.8629 32.4485 19.8355 32.4617 19.8026ZM32.5398 19.7539L32.5425 19.7502L32.5146 19.6962C32.1649 19.9042 31.8556 20.2162 31.6104 20.6085C31.3653 21.0007 31.1909 21.4626 31.1005 21.9588L31.0839 22.0503L31.14 21.9932C31.2186 21.9131 31.2996 21.8372 31.3828 21.7657C31.3349 21.997 31.3708 22.2513 31.4277 22.5054C31.4506 22.6076 31.4773 22.7113 31.5038 22.8143C31.5147 22.8568 31.5256 22.8992 31.5362 22.9413C31.5726 23.0862 31.6056 23.2286 31.6253 23.3662L31.6319 23.4124L31.6623 23.3889C31.6752 23.3789 31.6877 23.3693 31.6999 23.36C31.8453 23.2484 31.9389 23.1765 32.0063 23.0268C32.034 23.1062 32.0788 23.1938 32.1332 23.284C32.2048 23.4028 32.2948 23.5292 32.3892 23.6522C32.5672 23.884 32.7624 24.1053 32.8825 24.2415C32.8898 24.2498 32.8969 24.2577 32.9036 24.2654L32.9283 24.2934L32.9424 24.2544C33.0416 23.9792 33.1646 23.7204 33.3089 23.4834C33.3153 23.5052 33.3235 23.5261 33.3333 23.5458C33.3525 23.584 33.3773 23.6166 33.4063 23.6414L33.4424 23.6723L33.4448 23.6152C33.4458 23.5911 33.4543 23.5531 33.4688 23.5041C33.483 23.4561 33.5016 23.4015 33.5207 23.3455L33.5212 23.344C33.54 23.2888 33.5593 23.2323 33.5745 23.1813C33.5829 23.1532 33.5904 23.1257 33.5958 23.1003C33.5988 23.1035 33.602 23.1068 33.6052 23.1101C33.6489 23.1562 33.71 23.2207 33.7671 23.2969L33.8187 23.3656L33.8096 23.2692C33.7986 23.1513 33.8119 23.0373 33.8255 22.9216C33.8266 22.9119 33.8278 22.9023 33.8289 22.8926C33.8392 22.8038 33.8484 22.7135 33.843 22.6235C33.8433 22.6242 33.8436 22.6249 33.8439 22.6256C33.848 22.6342 33.8524 22.6436 33.8578 22.6543C33.8836 22.7059 33.9204 22.7625 33.9979 22.7921L34.0508 22.8122L34.0275 22.7459C34.0105 22.6976 33.9996 22.6287 33.9932 22.547C33.9868 22.4658 33.9851 22.3747 33.9854 22.2835C33.9857 22.2091 33.9873 22.1352 33.9888 22.0672C33.9891 22.0518 33.9894 22.0368 33.9897 22.0222C33.9899 22.0117 33.9901 22.0014 33.9903 21.9913C33.9951 22.0039 34.0004 22.0162 34.0065 22.0285C34.0347 22.0849 34.0787 22.1347 34.1674 22.2023L34.2103 22.2349L34.2047 22.1696C34.1994 22.1084 34.1852 22.0316 34.1686 21.9509C34.1619 21.9181 34.1548 21.8849 34.1477 21.8514C34.137 21.8012 34.1263 21.7506 34.1165 21.7007C34.1003 21.6181 34.0877 21.5415 34.0838 21.4796C34.0819 21.4487 34.0822 21.423 34.0849 21.4027C34.0854 21.3995 34.0859 21.3964 34.0864 21.3935C34.1027 21.4159 34.1186 21.442 34.1352 21.4693L34.1373 21.4727C34.1611 21.5117 34.1871 21.5541 34.2155 21.5806L34.258 21.6203L34.2548 21.5513C34.2453 21.3502 34.205 21.1538 34.1364 20.9743C34.0678 20.7948 33.9722 20.636 33.8557 20.5076L33.8548 20.5066L33.8537 20.5056C33.2892 20.0016 32.8892 19.9484 32.6624 19.9475C32.6342 19.9474 32.6088 19.9481 32.5864 19.9488C32.5833 19.9489 32.5803 19.949 32.5774 19.9491C32.5586 19.9497 32.5423 19.9502 32.5279 19.9502C32.5113 19.9502 32.4985 19.9494 32.4889 19.9474C32.4792 19.9455 32.4754 19.9428 32.4742 19.9417C32.4742 19.9414 32.4741 19.9408 32.4741 19.9399C32.4739 19.935 32.4748 19.9254 32.4794 19.9085C32.4885 19.8753 32.5081 19.8264 32.5398 19.7539Z" fill="black"/>
<path d="M31.5498 22.7001C31.6598 22.4134 31.7598 22.3201 31.8298 22.1334C31.9498 21.8134 31.9698 21.5467 32.0798 21.5867C32.1798 21.6267 32.1798 21.7601 32.0448 22.0801C31.9098 22.4001 31.8448 22.4667 31.5498 22.7001ZM32.2798 23.3801C32.2698 23.1667 32.3148 23.0734 32.3098 22.9334C32.2898 22.6801 32.2148 22.5134 32.3148 22.5001C32.4148 22.4934 32.4598 22.5734 32.4598 22.8201C32.4598 23.0734 32.4298 23.1401 32.2798 23.3801ZM32.8348 23.8067C32.7898 23.5067 32.8248 23.3734 32.7948 23.1734C32.7448 22.8267 32.6498 22.6001 32.7448 22.5667C32.8348 22.5334 32.8948 22.6467 32.9298 23.0001C32.9598 23.3467 32.9448 23.4467 32.8348 23.8134V23.8067ZM33.4098 21.6734C33.2748 21.5401 33.1948 21.5267 33.1098 21.4401C32.9598 21.2801 32.8798 21.1201 32.8298 21.2001C32.7798 21.2801 32.8148 21.3734 32.9798 21.5134C33.1448 21.6534 33.1898 21.6667 33.4098 21.6734V21.6734ZM33.3148 22.6867C33.2448 22.4867 33.1648 22.4401 33.1248 22.3134C33.0448 22.0867 33.0448 21.8934 32.9498 21.9401C32.8648 21.9934 32.8548 22.0934 32.9498 22.3134C33.0498 22.5267 33.0998 22.5667 33.3098 22.6867H33.3148Z" fill="#B3B3B3"/>
<path d="M6.68945 20.3067C6.66945 20.1334 6.69945 20.1067 6.61945 19.9734C6.73945 20.04 6.73945 20.22 6.88445 20.0934C6.93445 20.06 6.95945 20.06 6.89445 19.86C7.04445 19.8734 7.52945 20.0934 7.60945 20.1C7.81445 20.1134 8.18945 19.8134 8.44945 20.18C8.69945 20.5134 8.60945 20.8667 8.60945 21.3267C8.50945 21.26 8.55945 21.24 8.44945 21.0667C8.52945 21.48 8.44945 22.2067 8.44945 22.64C8.40945 22.5334 8.41445 22.58 8.37445 22.4734C8.27445 22.8667 8.14445 22.94 8.14445 23.4134C8.10445 23.2267 8.14445 23.2667 8.09945 23.1734C7.99945 23.4734 7.29945 23.7267 7.56945 24.0267C7.32945 23.84 7.21945 23.8534 7.11945 23.6934C7.06945 23.7267 7.02945 23.8067 6.98945 23.9067C6.56445 23.6534 6.71445 23.0934 6.38445 22.7134C6.32445 22.8734 6.34945 22.8534 6.28445 23.1067C6.22445 22.7534 6.20445 22.5267 6.12945 22.2667C6.06445 22.4134 6.06945 22.3534 5.94945 22.5734C5.89945 22.1467 5.82445 22.04 5.84945 21.7534C5.72945 21.8734 5.80945 21.82 5.68445 21.9667C5.80445 20.8667 6.31445 20.0467 6.68445 20.3L6.68945 20.3067Z" fill="#333333"/>
<path fill-rule="evenodd" clip-rule="evenodd" d="M6.84352 19.8121L6.89669 19.8168C6.93745 19.8204 6.99848 19.8376 7.06617 19.8602C7.13457 19.883 7.21223 19.9121 7.28726 19.9409C7.31012 19.9497 7.33271 19.9584 7.35473 19.9669C7.40527 19.9864 7.45283 20.0047 7.49382 20.0198C7.52321 20.0307 7.54885 20.0397 7.56946 20.0462C7.59058 20.0528 7.60438 20.0561 7.61136 20.0568C7.65746 20.0597 7.71503 20.045 7.78353 20.0243C7.79485 20.0209 7.80643 20.0174 7.81823 20.0137C7.87634 19.9959 7.9399 19.9763 8.00453 19.9646C8.16099 19.9363 8.3325 19.9523 8.47284 20.1498C8.6043 20.3253 8.64659 20.5076 8.65572 20.7032C8.66023 20.7998 8.65666 20.8999 8.65213 21.0029C8.65156 21.016 8.65097 21.0291 8.65037 21.0422C8.64627 21.1336 8.64203 21.2276 8.64203 21.3267V21.3968L8.595 21.3655C8.56872 21.3479 8.54991 21.332 8.53551 21.3138C8.52264 21.2977 8.51452 21.2813 8.50766 21.2647C8.5213 21.4422 8.51902 21.646 8.512 21.8479C8.50819 21.9575 8.50299 22.0663 8.498 22.171C8.48974 22.3441 8.48203 22.5057 8.48203 22.64L8.42046 22.6594C8.40187 22.6098 8.39416 22.5966 8.38696 22.5843L8.38638 22.5833C8.38469 22.5804 8.38301 22.5775 8.38128 22.5744C8.3518 22.6734 8.32066 22.7525 8.29246 22.8242C8.27776 22.8615 8.26386 22.8969 8.2514 22.9319C8.20836 23.0531 8.17703 23.1834 8.17703 23.4134L8.11328 23.4253C8.09464 23.3383 8.09242 23.2968 8.09166 23.2692C8.05653 23.3257 8.00718 23.3779 7.95523 23.4265C7.9168 23.4625 7.87523 23.498 7.8341 23.5327C7.82916 23.5369 7.82424 23.541 7.81933 23.5452C7.78304 23.5758 7.74738 23.6059 7.71396 23.636C7.63649 23.7057 7.57777 23.7697 7.55283 23.8299C7.54111 23.8583 7.53812 23.8829 7.54229 23.9061C7.54662 23.9302 7.55984 23.9595 7.59034 23.9934L7.55316 24.0641C7.4552 23.9879 7.37986 23.946 7.31642 23.9107C7.30357 23.9036 7.2912 23.8967 7.27923 23.8899C7.21593 23.8537 7.16309 23.8182 7.11369 23.7496C7.10146 23.7625 7.08913 23.7797 7.0765 23.8015C7.05691 23.8353 7.03791 23.8778 7.01821 23.9271L7.00394 23.9628L6.97627 23.9463C6.75122 23.8121 6.67846 23.5943 6.62069 23.3717C6.61448 23.3478 6.60845 23.3239 6.60243 23.3C6.55631 23.1172 6.51115 22.9382 6.39484 22.785C6.38031 22.8279 6.37428 22.854 6.3678 22.8862C6.36639 22.8933 6.36495 22.9006 6.36341 22.9085C6.35485 22.9523 6.3432 23.0119 6.31528 23.1207L6.27816 23.2654L6.25283 23.1163C6.23484 23.0103 6.22051 22.9164 6.20734 22.8302C6.18077 22.6562 6.15893 22.5131 6.12123 22.3638C6.10801 22.3878 6.09698 22.4037 6.08377 22.4223L6.08224 22.4245C6.06131 22.454 6.03343 22.4932 5.97582 22.5989L5.92956 22.6837L5.91742 22.5801C5.89795 22.4139 5.8748 22.2978 5.85498 22.1984C5.84966 22.1718 5.84459 22.1463 5.83989 22.1215C5.82284 22.0312 5.81105 21.9494 5.81214 21.8493C5.80294 21.8609 5.79935 21.8677 5.79572 21.8745L5.79543 21.8751C5.79509 21.8757 5.79475 21.8764 5.79441 21.877C5.78244 21.8996 5.76843 21.926 5.706 21.9992L5.63965 22.0771L5.65237 21.9605C5.71307 21.404 5.87253 20.9164 6.06552 20.5986C6.16197 20.4398 6.26812 20.3212 6.3762 20.2591C6.46802 20.2063 6.56179 20.1943 6.65053 20.234C6.64987 20.2228 6.64938 20.2125 6.64896 20.2027C6.64872 20.1972 6.64851 20.1919 6.6483 20.187C6.64739 20.1647 6.6467 20.1477 6.64488 20.1314C6.64098 20.0963 6.63184 20.0632 6.59415 20.0004L6.63203 19.9334C6.66703 19.9528 6.69282 19.9803 6.71357 20.0067C6.72216 20.0176 6.73017 20.0286 6.73733 20.0385C6.73866 20.0403 6.73996 20.0421 6.74123 20.0439C6.74963 20.0555 6.75674 20.065 6.76369 20.0728C6.77713 20.088 6.78728 20.094 6.79894 20.0941C6.81201 20.0942 6.83279 20.0868 6.86672 20.0571L6.86831 20.0557L6.87 20.0546C6.87463 20.0515 6.87847 20.049 6.88174 20.0469C6.88921 20.0421 6.89369 20.0392 6.89768 20.0355C6.90056 20.0328 6.90064 20.032 6.90074 20.0311C6.90076 20.031 6.90077 20.0308 6.90079 20.0307C6.90146 20.0262 6.90171 20.0144 6.89613 19.9879C6.89071 19.9621 6.88078 19.9267 6.86471 19.8773L6.84352 19.8121ZM6.66525 20.3356C6.58414 20.2823 6.49481 20.2853 6.40192 20.3387C6.30657 20.3935 6.20835 20.5011 6.11604 20.6531C5.94649 20.9323 5.8014 21.3539 5.73297 21.8422C5.73621 21.8367 5.73859 21.8322 5.74077 21.8281C5.74132 21.827 5.74185 21.826 5.74239 21.825C5.75595 21.7995 5.76916 21.7796 5.83003 21.7187L5.89055 21.6582L5.88182 21.7584C5.86993 21.8947 5.8816 21.9874 5.90292 22.1003C5.90739 22.1239 5.9123 22.1486 5.91751 22.1747C5.93331 22.2538 5.95182 22.3466 5.96882 22.4672C6.00008 22.4141 6.01959 22.3867 6.03549 22.3642L6.03655 22.3628C6.05694 22.334 6.07042 22.3149 6.10155 22.2447L6.13574 22.1675L6.15987 22.2511C6.21394 22.4386 6.24024 22.6108 6.27214 22.8197C6.27794 22.8577 6.28392 22.8969 6.29029 22.9376C6.29438 22.918 6.29761 22.9015 6.30054 22.8865C6.30209 22.8786 6.30355 22.8711 6.30501 22.8638C6.31501 22.814 6.32459 22.7763 6.35546 22.694L6.37415 22.6442L6.40578 22.6806C6.56012 22.8583 6.61455 23.0751 6.66414 23.2725C6.67015 23.2965 6.67609 23.3201 6.68212 23.3434C6.7355 23.5491 6.79684 23.7303 6.97575 23.8501C6.99145 23.813 7.00771 23.7785 7.02507 23.7485C7.0479 23.7091 7.07396 23.6753 7.105 23.6546L7.12802 23.6393L7.1445 23.6656C7.18955 23.7377 7.23637 23.7711 7.30484 23.8102C7.31625 23.8167 7.32824 23.8234 7.34085 23.8304C7.37975 23.852 7.42459 23.877 7.47689 23.9112C7.47202 23.8675 7.48022 23.826 7.49592 23.7881C7.52942 23.7071 7.60133 23.6327 7.6776 23.5641C7.71188 23.5333 7.74841 23.5025 7.7846 23.4719C7.78951 23.4678 7.79441 23.4636 7.79931 23.4595C7.84048 23.4247 7.88086 23.3903 7.91789 23.3556C7.99365 23.2847 8.04889 23.2186 8.06983 23.1558L8.0943 23.0824L8.12687 23.1499C8.12738 23.151 8.12787 23.152 8.12836 23.153C8.14268 23.0517 8.16544 22.9714 8.19266 22.8948C8.20692 22.8547 8.22189 22.8167 8.23721 22.7778C8.27241 22.6884 8.30942 22.5945 8.34375 22.4595L8.36876 22.3611L8.4036 22.454C8.41003 22.4711 8.41515 22.4839 8.41941 22.4938C8.42238 22.3909 8.42777 22.2778 8.43333 22.1609C8.43829 22.0568 8.44339 21.9496 8.44707 21.8439C8.45708 21.556 8.45669 21.2771 8.41806 21.0775L8.47434 21.0387C8.52467 21.118 8.54362 21.168 8.55668 21.2025C8.55858 21.2075 8.56035 21.2122 8.56207 21.2166C8.56758 21.2306 8.57182 21.2395 8.57784 21.2478C8.5793 21.1746 8.58247 21.1042 8.5855 21.0369C8.58609 21.0237 8.58668 21.0107 8.58724 20.9978C8.59178 20.8947 8.59508 20.7994 8.59085 20.7086C8.58248 20.5293 8.54483 20.3684 8.42655 20.2107L8.42623 20.2102L8.42592 20.2098C8.30631 20.0411 8.16046 20.0238 8.01328 20.0505C7.95189 20.0616 7.89178 20.0801 7.8337 20.0979C7.82167 20.1016 7.80972 20.1053 7.79787 20.1089C7.73041 20.1292 7.66431 20.147 7.60795 20.1433L7.60751 20.1433C7.59442 20.1422 7.57563 20.1372 7.55452 20.1305C7.53272 20.1237 7.50617 20.1143 7.4765 20.1034C7.43512 20.0881 7.38694 20.0695 7.3362 20.0499C7.31427 20.0415 7.29185 20.0328 7.2693 20.0242C7.19434 19.9954 7.11762 19.9667 7.0504 19.9443C7.01083 19.9311 6.97536 19.9204 6.94588 19.9131C6.95128 19.9323 6.95554 19.9494 6.95872 19.9645C6.96517 19.9952 6.96823 20.023 6.96453 20.0477C6.96033 20.0757 6.94844 20.0939 6.93498 20.1065C6.92633 20.1145 6.91509 20.1218 6.90592 20.1277C6.90408 20.1289 6.90232 20.13 6.90068 20.1311C6.86281 20.1638 6.82973 20.1809 6.79872 20.1808C6.76585 20.1806 6.74131 20.1612 6.72162 20.1389C6.71758 20.1343 6.71364 20.1295 6.7098 20.1246C6.71165 20.1435 6.71245 20.1634 6.71327 20.1837C6.71346 20.1884 6.71365 20.193 6.71385 20.1978C6.71507 20.226 6.71687 20.2587 6.72165 20.3001L6.73675 20.431L6.66525 20.3356Z" fill="black"/>
<path d="M6.16956 22.1134C6.27456 21.7534 6.36956 21.6467 6.44456 21.4201C6.56956 21.0134 6.58956 20.6867 6.69456 20.7334C6.79456 20.7867 6.79456 20.9467 6.65456 21.3467C6.51456 21.7467 6.45456 21.8267 6.16956 22.1134V22.1134ZM6.57956 23.0001C6.61956 22.6801 6.68956 22.5734 6.71956 22.3601C6.76956 22.0001 6.74456 21.7334 6.83956 21.7467C6.93956 21.7601 6.95956 21.9001 6.89456 22.2534C6.82956 22.6201 6.78456 22.7067 6.57456 23.0001H6.57956ZM7.06956 23.6267C7.08456 23.3201 7.13956 23.1934 7.14956 22.9934C7.16456 22.6467 7.10956 22.3934 7.19956 22.3934C7.29956 22.3934 7.32956 22.5201 7.29956 22.8667C7.26956 23.2134 7.23956 23.3067 7.06956 23.6267V23.6267ZM8.12956 21.6001C7.92956 21.3334 7.80956 21.2801 7.67956 21.1067C7.44956 20.8001 7.33456 20.5201 7.24956 20.6201C7.16956 20.7201 7.21956 20.8667 7.46456 21.1534C7.70456 21.4534 7.78956 21.4934 8.13456 21.6001H8.12956ZM8.00956 22.6401C7.87956 22.3734 7.77956 22.3001 7.69456 22.1201C7.54456 21.8201 7.49456 21.5601 7.40956 21.6201C7.32456 21.6867 7.34456 21.8201 7.50456 22.1201C7.66956 22.4134 7.72956 22.4667 8.00956 22.6401Z" fill="#B3B3B3"/>
<path d="M17.0698 14.36C16.8298 14.9734 17.4848 14.16 18.5098 15.1867C18.7589 15.5421 18.9196 15.9915 18.9698 16.4734C18.7609 16.3844 18.5598 16.2659 18.3698 16.12C18.3698 16.12 18.8198 16.7334 18.8198 17.4267C18.6598 17.2934 18.5798 17.3134 18.5198 17.1534C18.5198 17.3734 18.6698 17.52 18.6698 17.8667C18.5713 17.761 18.4658 17.6673 18.3548 17.5867C18.5048 17.94 18.0798 18.62 18.2948 18.84C18.1143 18.807 17.9409 18.7248 17.7852 18.5987C17.6295 18.4725 17.4949 18.3051 17.3898 18.1067C17.3098 18.1734 17.2998 18.2867 17.2948 18.4134C17.3098 18.42 16.7298 17.8334 16.7848 17.6134C16.7186 17.7237 16.6801 17.859 16.6748 18C16.4556 17.7566 16.2898 17.4387 16.1948 17.08C16.1048 17.24 16.0948 17.24 15.9998 17.4134C15.9298 16.8334 15.9298 16.8534 16.0698 16.36C15.9729 16.4492 15.8794 16.5448 15.7898 16.6467C15.8629 16.163 16.0157 15.707 16.237 15.3115C16.4584 14.9161 16.7428 14.5911 17.0698 14.36V14.36Z" fill="#333333"/>
<path fill-rule="evenodd" clip-rule="evenodd" d="M17.0142 14.4387C16.7186 14.6635 16.4607 14.9673 16.2569 15.3314C16.0522 15.6971 15.9068 16.1151 15.8295 16.5589C15.9025 16.4794 15.9779 16.4039 16.0555 16.3326L16.1214 16.272L16.093 16.3718C16.0901 16.3821 16.0872 16.3922 16.0845 16.402C16.0197 16.6299 15.9888 16.7388 15.9808 16.8572C15.9732 16.9695 15.9862 17.0908 16.0149 17.33C16.042 17.2821 16.061 17.2509 16.0797 17.2205C16.0817 17.2172 16.0838 17.2139 16.0858 17.2106C16.1094 17.1724 16.1336 17.1331 16.1746 17.06L16.2027 17.0102L16.2182 17.0689C16.3064 17.4019 16.4566 17.6991 16.6544 17.9329C16.6679 17.8087 16.706 17.6911 16.7651 17.5925L16.8084 17.6239C16.8041 17.641 16.8051 17.6656 16.8148 17.6993C16.8242 17.7326 16.841 17.7709 16.8635 17.8126C16.9086 17.896 16.9741 17.988 17.0419 18.0742C17.1095 18.1602 17.1784 18.2393 17.2296 18.2966C17.2462 18.3152 17.261 18.3314 17.2732 18.3449C17.2806 18.2418 17.3005 18.1416 17.3764 18.0784L17.3964 18.0617L17.4101 18.0874C17.5132 18.2821 17.6453 18.4464 17.798 18.5701C17.9316 18.6784 18.0786 18.7537 18.2318 18.7925C18.209 18.7361 18.2044 18.6686 18.2095 18.5979C18.2171 18.4932 18.2465 18.3728 18.2766 18.2528C18.2784 18.2455 18.2802 18.2382 18.282 18.231C18.3108 18.1165 18.3396 18.002 18.3537 17.8949C18.3687 17.7808 18.3661 17.6814 18.3329 17.6031L18.2898 17.5017L18.3666 17.5574C18.463 17.6274 18.5552 17.7071 18.6424 17.7959C18.634 17.6658 18.6034 17.5668 18.572 17.4766C18.5678 17.4646 18.5636 17.4527 18.5594 17.4409C18.5268 17.3492 18.4946 17.2589 18.4946 17.1534L18.542 17.1384C18.569 17.2104 18.5993 17.2409 18.6433 17.2702C18.6559 17.2786 18.67 17.2871 18.6857 17.2965C18.7161 17.3147 18.7521 17.3364 18.7935 17.3673C18.7817 17.0517 18.6783 16.7548 18.5734 16.531C18.5179 16.4125 18.4623 16.3154 18.4207 16.2479C18.3998 16.2141 18.3825 16.1879 18.3704 16.1701C18.3644 16.1612 18.3597 16.1544 18.3565 16.1499C18.3549 16.1477 18.3537 16.146 18.3529 16.1449L18.352 16.1437L18.3518 16.1433C18.3518 16.1433 18.3518 16.1433 18.3555 16.1384C18.3581 16.1351 18.3624 16.1295 18.3696 16.12H18.3446V16.0624L18.3821 16.0911C18.5589 16.2269 18.7454 16.3387 18.9389 16.4249C18.8836 15.9709 18.7285 15.5486 18.4929 15.2116C17.9866 14.7053 17.573 14.6533 17.3152 14.6517C17.2827 14.6515 17.2527 14.6521 17.225 14.6527C17.2227 14.6527 17.2203 14.6528 17.218 14.6528C17.1931 14.6534 17.1701 14.6539 17.1494 14.6537C17.1054 14.6534 17.0664 14.6503 17.039 14.634C17.0244 14.6252 17.0116 14.6119 17.0035 14.5918C16.9956 14.572 16.9938 14.5495 16.9957 14.526C16.9977 14.5013 17.004 14.4724 17.0142 14.4387ZM17.0696 14.36L17.0579 14.3306C16.7277 14.5639 16.4404 14.8922 16.2168 15.2916C15.9933 15.691 15.839 16.1516 15.7651 16.6401L15.7509 16.7346L15.8059 16.6721C15.8742 16.5944 15.9447 16.5204 16.0173 16.4502C15.9665 16.63 15.9388 16.7365 15.931 16.8512C15.9222 16.9815 15.9391 17.1219 15.9719 17.3929C15.9729 17.4014 15.9739 17.4099 15.975 17.4186L15.9845 17.4975L16.0198 17.433C16.067 17.347 16.093 17.3041 16.1184 17.2628C16.1204 17.2595 16.1224 17.2562 16.1245 17.2529C16.1424 17.2238 16.1609 17.1937 16.187 17.1486C16.2855 17.4894 16.4478 17.7914 16.6586 18.0256L16.6971 18.0683L16.6996 18.0017C16.7035 17.8987 16.726 17.7989 16.7647 17.7107C16.7657 17.7148 16.7668 17.7189 16.768 17.723C16.7797 17.7639 16.7991 17.8075 16.823 17.8516C16.8707 17.9399 16.9389 18.0353 17.0074 18.1225C17.0761 18.2098 17.1459 18.2899 17.1975 18.3476C17.2165 18.3689 17.2331 18.3872 17.2462 18.4017C17.2509 18.4068 17.2551 18.4115 17.2588 18.4156C17.2629 18.4201 17.2663 18.4239 17.2691 18.427L17.2687 18.4369L17.2867 18.445C17.2876 18.4453 17.2891 18.446 17.2911 18.4464C17.2926 18.4467 17.2972 18.4475 17.3027 18.4451C17.31 18.4419 17.3171 18.4336 17.3193 18.4208C17.32 18.4168 17.32 18.4131 17.3198 18.4101C17.3244 18.2971 17.3338 18.2102 17.384 18.1533C17.4889 18.3434 17.6207 18.5044 17.7721 18.6271C17.9307 18.7556 18.1074 18.8393 18.2912 18.873L18.3847 18.8902L18.3099 18.8136C18.266 18.7687 18.2524 18.6993 18.2593 18.6043C18.2662 18.5085 18.2935 18.3956 18.324 18.2739C18.3259 18.2663 18.3278 18.2586 18.3298 18.2508C18.3582 18.1377 18.3882 18.0186 18.4029 17.9064C18.4141 17.8219 18.4171 17.7381 18.4032 17.6616C18.4908 17.7304 18.5747 17.8076 18.654 17.8927L18.6946 17.9363V17.8667C18.6946 17.6862 18.6554 17.5576 18.6173 17.4485C18.613 17.4361 18.6088 17.4242 18.6046 17.4125C18.588 17.3653 18.5729 17.3227 18.562 17.2805C18.5798 17.3001 18.5994 17.3155 18.621 17.3298C18.6361 17.3399 18.6518 17.3493 18.6684 17.3593C18.7072 17.3826 18.7512 17.409 18.8064 17.455L18.8446 17.4868V17.4267C18.8446 17.071 18.7294 16.738 18.6158 16.4957C18.5671 16.3918 18.5185 16.304 18.4787 16.2374C18.6338 16.3446 18.7955 16.4341 18.962 16.5051L18.9999 16.5212L18.9944 16.4688C18.9435 15.9801 18.7806 15.5244 18.5279 15.1639L18.5264 15.1618L18.5247 15.16C18.0067 14.6413 17.581 14.5867 17.3154 14.585C17.2824 14.5848 17.2519 14.5854 17.2242 14.586C17.2219 14.5861 17.2195 14.5861 17.2173 14.5862C17.1923 14.5867 17.1698 14.5872 17.1497 14.5871C17.1043 14.5867 17.0758 14.5829 17.0595 14.5731C17.0523 14.5689 17.0492 14.5644 17.0476 14.5604C17.0459 14.556 17.0442 14.548 17.0454 14.533C17.0479 14.5015 17.0618 14.4521 17.0918 14.3754L17.0696 14.36Z" fill="black"/>
<path d="M16.4796 17.3467C16.5196 16.9267 16.5996 16.7734 16.6296 16.4934C16.6696 16.0267 16.6196 15.6667 16.7496 15.68C16.8696 15.6934 16.9096 15.8667 16.8496 16.3467C16.7846 16.82 16.7296 16.9334 16.4846 17.3534L16.4796 17.3467ZM17.1446 18.12C17.1196 17.7734 17.1696 17.6134 17.1496 17.3867C17.1246 16.9867 17.0296 16.7067 17.1396 16.6867C17.2496 16.66 17.3096 16.7934 17.3196 17.2067C17.3296 17.6067 17.3046 17.72 17.1446 18.12V18.12ZM18.1846 18.76C18.0696 18.4467 17.9696 18.36 17.8996 18.16C17.7696 17.8067 17.7396 17.5267 17.6446 17.5734C17.5446 17.6267 17.5496 17.7734 17.6946 18.12C17.8346 18.4534 17.8996 18.5267 18.1796 18.76H18.1846ZM18.5396 15.9934C18.2496 15.7934 18.1046 15.7934 17.9196 15.66C17.5946 15.4334 17.4046 15.1867 17.3396 15.3267C17.2696 15.46 17.3596 15.6 17.6946 15.8067C18.0296 16.0134 18.1346 16.02 18.5346 15.9934H18.5396ZM18.6396 17.1467C18.4396 16.92 18.3096 16.88 18.1746 16.7334C17.9346 16.4667 17.8196 16.22 17.7446 16.32C17.6646 16.4267 17.7146 16.56 17.9646 16.8067C18.2146 17.0534 18.2996 17.08 18.6446 17.1467H18.6396Z" fill="#B3B3B3"/>
</g>
<rect x="2" y="2" width="36" height="36" rx="18" stroke="white" stroke-width="4"/>
<defs>
<clipPath id="clip0_90_21259">
<rect x="4" y="4" width="32" height="32" rx="16" fill="white"/>
</clipPath>
</defs>
</svg>
