<svg width="40" height="40" viewBox="0 0 40 40" fill="none" xmlns="http://www.w3.org/2000/svg">
<g clip-path="url(#clip0_90_21099)">
<path d="M4 4H36V36H4V4Z" fill="#002395"/>
<path d="M4 4H18.64V17.12H4V4Z" fill="white"/>
<path d="M4 4H8.8V16.8H4V4Z" fill="#002395"/>
<path d="M13.6002 4H18.4002V16.8H13.6002V4Z" fill="#ED2939"/>
<path d="M25.3003 18.64L26.0703 20.28H28.2703V26L26.6203 22.56L24.4003 27.28H25.4803L26.6203 24.56L28.9603 30.16L31.3003 24.56L32.4403 27.28H33.5203L31.3003 22.56L29.6503 26V22.84H30.6403L31.3753 21.28H29.6503V20.28H31.8503L32.6203 18.64H25.3003V18.64ZM27.8803 25.64H25.4803V26.76H27.8803V25.64ZM32.4403 25.64H30.0403V26.76H32.4403V25.64Z" fill="white"/>
<path d="M28.9599 31.28L29.6979 34.32L27.7599 32.44H30.1599L28.2219 34.32L28.9599 31.28Z" fill="white"/>
<path d="M26.2603 28.56L26.9983 31.6L25.0603 29.72H27.4603L25.5223 31.6L26.2603 28.56Z" fill="white"/>
<path d="M31.6603 28.56L32.3983 31.6L30.4603 29.72H32.8603L30.9223 31.6L31.6603 28.56Z" fill="white"/>
<path d="M23.9803 20.48L24.7183 23.52L22.7803 21.64H25.1803L23.2423 23.52L23.9803 20.48Z" fill="white"/>
<path d="M33.9396 20.48L34.6776 23.52L32.7396 21.64H35.1396L33.2016 23.52L33.9396 20.48Z" fill="white"/>
</g>
<rect x="2" y="2" width="36" height="36" rx="18" stroke="white" stroke-width="4"/>
<defs>
<clipPath id="clip0_90_21099">
<rect x="4" y="4" width="32" height="32" rx="16" fill="white"/>
</clipPath>
</defs>
</svg>
