<svg width="40" height="40" viewBox="0 0 40 40" fill="none" xmlns="http://www.w3.org/2000/svg">
<g clip-path="url(#clip0_90_21076)">
<path d="M4 4H36V36H4V4Z" fill="#006600"/>
<path d="M4 4H36V26.86H4V4Z" fill="white"/>
<path d="M4 4H36V13.14H4V4Z" fill="#CC0000"/>
<path d="M19.0401 19.5733C19.0872 19.4668 19.1589 19.3834 19.2444 19.3357C19.33 19.2879 19.4248 19.2783 19.5148 19.3083C19.6048 19.3383 19.6851 19.4063 19.7437 19.5021C19.8023 19.5979 19.8361 19.7164 19.8401 19.8399V22.1333H20.1601V19.8466C20.1641 19.7231 20.1979 19.6046 20.2565 19.5087C20.3152 19.4129 20.3955 19.345 20.4854 19.315C20.5754 19.285 20.6702 19.2946 20.7558 19.3423C20.8413 19.3901 20.913 19.4734 20.9601 19.5799C21.0097 19.3778 21.0226 19.1628 20.9979 18.9526C20.9731 18.7425 20.9114 18.5431 20.8178 18.3709C20.7241 18.1987 20.6012 18.0585 20.4591 17.9619C20.3169 17.8652 20.1597 17.8148 20.0001 17.8148C19.8406 17.8148 19.6833 17.8652 19.5412 17.9619C19.3991 18.0585 19.2761 18.1987 19.1825 18.3709C19.0888 18.5431 19.0271 18.7425 19.0023 18.9526C18.9776 19.1628 18.9905 19.3778 19.0401 19.5799" fill="#F8C300"/>
<path d="M19.2704 18.98C19.4108 18.9413 19.5567 18.9623 19.6877 19.0401C19.8186 19.1178 19.928 19.2484 20.0004 19.4134C20.0728 19.2484 20.1821 19.1178 20.3131 19.0401C20.444 18.9623 20.59 18.9413 20.7304 18.98C20.7094 18.7415 20.6235 18.5216 20.4889 18.3619C20.3543 18.2023 20.1805 18.1141 20.0004 18.1141C19.8203 18.1141 19.6464 18.2023 19.5119 18.3619C19.3773 18.5216 19.2914 18.7415 19.2704 18.98" fill="white"/>
<path d="M19.8403 21.22C19.8191 21.5449 19.7295 21.8552 19.5819 22.1153C19.4343 22.3754 19.2347 22.5746 19.006 22.6902C18.7772 22.8058 18.5287 22.833 18.2889 22.7687C18.0491 22.7044 17.8278 22.5512 17.6503 22.3266C17.5751 22.5827 17.4569 22.8123 17.3047 22.9979C17.1526 23.1836 16.9705 23.3202 16.7726 23.3975C16.5747 23.4747 16.3661 23.4905 16.1629 23.4435C15.9597 23.3966 15.7672 23.2882 15.6003 23.1266C15.7253 24.7933 17.6003 24.4533 17.7403 22.8333C18.3253 24.2133 19.6203 23.8133 20.0003 22.1266L19.8403 21.22Z" fill="#F8C300"/>
<path d="M18.5902 24.1734C18.3252 24.9267 17.8052 25.0534 17.3502 24.4467C17.3502 24.4467 17.5302 24.2734 17.7302 24.2267C17.6902 24.02 17.7652 23.7267 17.8752 23.5734C18.0208 23.7007 18.1286 23.8916 18.1802 24.1134C18.4552 24.0667 18.5902 24.18 18.5902 24.18V24.1734Z" fill="#F8C300"/>
<path fill-rule="evenodd" clip-rule="evenodd" d="M23.2469 26.2047C21.1285 25.364 18.8723 25.364 16.7538 26.2047L16.5969 25.5019C18.8177 24.6205 21.183 24.6205 23.4038 25.5019L23.2469 26.2047Z" fill="#F8C300"/>
<path d="M20.5177 15.9232L19.1626 14.6105H20.8376L19.4825 15.9232L20.0001 13.7992L20.5177 15.9232Z" fill="#F8C300"/>
</g>
<rect x="2" y="2" width="36" height="36" rx="18" stroke="white" stroke-width="4"/>
<defs>
<clipPath id="clip0_90_21076">
<rect x="4" y="4" width="32" height="32" rx="16" fill="white"/>
</clipPath>
</defs>
</svg>
