<svg width="40" height="40" viewBox="0 0 40 40" fill="none" xmlns="http://www.w3.org/2000/svg">
<g clip-path="url(#clip0_90_21072)">
<path d="M4 4H36V36H4V4Z" fill="#00247D"/>
<path d="M9.40483 27.64C9.06983 27.6333 12.5448 25.1733 15.4498 22.0133C19.2598 17.8733 27.4648 11.2533 29.8798 10.1733C30.1298 10.06 29.3648 10.7466 29.2648 10.9666C26.6898 15.0333 28.7448 22.7 31.9648 26.56C32.9348 27.5466 32.8848 27.6 34.6798 27.6933V27.92L9.40483 27.64V27.64ZM9.19483 28.0866C9.19483 28.0866 8.94983 28.32 8.94983 28.4933C8.94983 28.6866 9.22483 28.94 9.22483 28.94L34.1498 29.3066L34.6098 28.9L33.9698 28.3733L9.19483 28.0866V28.0866Z" fill="#FED100"/>
<path d="M9.34007 11.2733L9.14007 12.0866L9.66007 11.5866L10.1751 12.0866L9.98007 11.2733L10.4951 10.7733H9.85507L9.66007 9.95996L9.46007 10.7733H8.82007L9.34007 11.2733ZM13.2451 15.1L13.6751 14.68H13.1401L12.9751 14.0066L12.8101 14.68H12.2801L12.7101 15.1L12.5451 15.7733L12.9751 15.3533L13.4101 15.7733L13.2451 15.1ZM5.98507 15.9666L5.78507 15.1533L5.59007 15.9666H4.95007L5.46507 16.4666L5.27007 17.28L5.78507 16.78L6.30507 17.28L6.10507 16.4666L6.62507 15.9666H5.98507ZM9.89007 24.12L9.66007 23.1733L9.43007 24.12H8.68007L9.28507 24.7L9.05507 25.6533L9.66007 25.0666L10.2651 25.6533L10.0301 24.7L10.6351 24.12H9.89007Z" fill="white"/>
</g>
<rect x="2" y="2" width="36" height="36" rx="18" stroke="white" stroke-width="4"/>
<defs>
<clipPath id="clip0_90_21072">
<rect x="4" y="4" width="32" height="32" rx="16" fill="white"/>
</clipPath>
</defs>
</svg>
