<svg width="40" height="40" viewBox="0 0 40 40" fill="none" xmlns="http://www.w3.org/2000/svg">
<g clip-path="url(#clip0_90_20836)">
<path fill-rule="evenodd" clip-rule="evenodd" d="M2 4H38V36H2V4Z" fill="#00843D"/>
<path fill-rule="evenodd" clip-rule="evenodd" d="M14.342 12.5937C15.6499 13.4312 17.2061 12.5937 17.7686 11.4312C18.3499 10.3437 18.4202 8.52495 17.4217 6.8562C18.9686 8.5687 19.3155 10.5125 18.542 12.1125C17.5108 13.9437 15.2327 13.8875 14.342 12.5937V12.5937Z" fill="white"/>
<path fill-rule="evenodd" clip-rule="evenodd" d="M16.6628 8.3375L16.9253 8.34375L16.719 8.5625L16.7987 8.9125L16.5784 8.70625L16.3675 8.9125L16.4378 8.56875L16.2269 8.35L16.4894 8.34375L16.5784 8L16.6628 8.3375ZM15.3644 10.5125H15.6269L15.4206 10.7375L15.5003 11.0813L15.28 10.875L15.0644 11.0875L15.1394 10.7375L14.9284 10.525L15.1909 10.5125L15.2753 10.1687L15.3644 10.5125ZM15.4487 8.8H15.7159L15.505 9.025L15.5847 9.36875L15.369 9.1625L15.1534 9.375L15.2284 9.025L15.0175 8.80625L15.28 8.8L15.3644 8.45625L15.4487 8.8ZM15.4487 7.08125H15.7159L15.5003 7.3125L15.58 7.65625L15.3644 7.45625L15.1487 7.6625L15.2237 7.31875L15.0128 7.1L15.2753 7.09375L15.3597 6.75L15.4487 7.08125ZM14.0097 9.25625H14.2722L14.0612 9.48125L14.1409 9.825L13.9253 9.61875L13.7097 9.83125L13.7847 9.48125L13.5737 9.26875L13.8362 9.25625L13.9206 8.9125L14.0097 9.25625Z" fill="white"/>
<path fill-rule="evenodd" clip-rule="evenodd" d="M4.2262 4H11.9418V36H4.2262V4Z" fill="#CA3745"/>
<path fill-rule="evenodd" clip-rule="evenodd" d="M4.2262 12.3438V12.1125L4.54495 11.5437L4.48401 11.425L4.67151 11.0875L4.61057 10.9688L4.48401 11.2L4.41838 11.0875L4.86838 10.2875L4.93401 10.4L4.86838 10.5125L4.99963 10.75L5.31838 10.175L4.99495 9.61875L4.86838 9.83125L4.93401 9.95L4.86838 10.0625L4.41838 9.2625L4.48401 9.15L4.61057 9.375L4.6762 9.2625L4.48401 8.91875L4.54495 8.80625L4.2262 8.23125V8L4.6762 8.8L4.61057 8.9125L4.80276 9.25625L4.6762 9.4875L4.80276 9.7125L4.99963 9.375L5.45432 10.1875L4.99963 10.975L4.81213 10.6313L4.68088 10.8625L4.80745 11.0938L4.61995 11.4313L4.68088 11.55L4.23088 12.35L4.2262 12.3438Z" fill="#FAAE29"/>
<path fill-rule="evenodd" clip-rule="evenodd" d="M4.22595 9.48755L4.29158 9.71255V10.0625H4.48376L4.61501 10.175L4.48376 10.2938H4.29626V10.6313L4.23064 10.8625V9.48755H4.22595Z" fill="#FAAE29"/>
<path fill-rule="evenodd" clip-rule="evenodd" d="M4.2262 17.8312V17.6L4.54495 17.0312L4.48401 16.9125L4.67151 16.5687L4.61057 16.4562L4.48401 16.6875L4.41838 16.5687L4.86838 15.7687L4.93401 15.8875L4.86838 16L4.99963 16.2312L5.31838 15.6562L4.99495 15.1L4.86838 15.3125L4.93401 15.4312L4.86838 15.5437L4.41838 14.7437L4.48401 14.625L4.61057 14.85L4.6762 14.7375L4.48401 14.3937L4.54495 14.2812L4.2262 13.7062V13.4812L4.6762 14.2812L4.61057 14.3937L4.80276 14.7375L4.6762 14.9625L4.80276 15.1937L4.99495 14.85L5.44963 15.6625L4.99495 16.45L4.80745 16.1062L4.6762 16.3375L4.80276 16.5625L4.61526 16.9062L4.6762 17.025L4.2262 17.825V17.8312Z" fill="#FAAE29"/>
<path fill-rule="evenodd" clip-rule="evenodd" d="M4.22595 14.9688L4.29158 15.2V15.5437H4.48376L4.61501 15.6563L4.48376 15.7688H4.29626V16.1125L4.23064 16.3438V14.9688H4.22595Z" fill="#FAAE29"/>
<path fill-rule="evenodd" clip-rule="evenodd" d="M4.2262 23.3125V23.0875L4.54495 22.5125L4.48401 22.4L4.67151 22.0562L4.61057 21.9438L4.48401 22.1688L4.41838 22.0562L4.86838 21.2563L4.93401 21.3687L4.86838 21.4875L4.99963 21.7188L5.31838 21.1437L4.99495 20.5812L4.86838 20.8L4.93401 20.9125L4.86838 21.025L4.41838 20.225L4.48401 20.1125L4.61057 20.3438L4.6762 20.225L4.48401 19.8875L4.54495 19.7688L4.2262 19.2V18.9688L4.6762 19.7688L4.61057 19.8875L4.80276 20.225L4.6762 20.4562L4.80276 20.6875L4.99963 20.3438L5.44963 21.1563L4.99495 21.9438L4.80745 21.6L4.6762 21.825L4.80276 22.0562L4.61526 22.4L4.6762 22.5125L4.2262 23.3125V23.3125Z" fill="#FAAE29"/>
<path fill-rule="evenodd" clip-rule="evenodd" d="M4.22595 20.4562L4.29626 20.6875V21.0312H4.48376L4.61501 21.1437L4.48376 21.25H4.29626V21.5937L4.23064 21.825V20.45L4.22595 20.4562Z" fill="#FAAE29"/>
<path fill-rule="evenodd" clip-rule="evenodd" d="M4.2262 28.4563V28.2251L4.54495 27.6563L4.48401 27.5438L4.67151 27.2001L4.61057 27.0875L4.48401 27.3125L4.41838 27.2001L4.86838 26.4L4.93401 26.5126L4.86838 26.625L4.99963 26.8563L5.31838 26.2875L4.99495 25.7251L4.86838 25.9438L4.93401 26.0563L4.86838 26.1688L4.41838 25.3688L4.48401 25.2563L4.61057 25.4875L4.6762 25.3688L4.48401 25.025L4.54495 24.9126L4.2262 24.3438V24.1125L4.6762 24.9126L4.61057 25.025L4.80276 25.3688L4.6762 25.6001L4.80276 25.8251L4.99963 25.4875L5.44963 26.3L4.99495 27.0875L4.80745 26.7438L4.6762 26.9688L4.80276 27.2001L4.61526 27.5438L4.6762 27.6563L4.2262 28.4563V28.4563Z" fill="#FAAE29"/>
<path fill-rule="evenodd" clip-rule="evenodd" d="M4.22595 25.6L4.29158 25.825V26.1688H4.48376L4.61501 26.2875L4.48376 26.4H4.29626V26.7437L4.23064 26.9688V25.5938L4.22595 25.6Z" fill="#FAAE29"/>
<path fill-rule="evenodd" clip-rule="evenodd" d="M11.9424 12.3438V12.1125L11.6237 11.5437L11.6893 11.425L11.4971 11.0875L11.5581 10.9688L11.6893 11.2L11.7549 11.0875L11.3049 10.2875L11.2393 10.4L11.3049 10.5125L11.169 10.7438L10.8549 10.1687L11.1737 9.6125L11.3049 9.825L11.2393 9.94375L11.3002 10.0563L11.7502 9.25625L11.6893 9.14375L11.5581 9.36875L11.4971 9.25625L11.6846 8.9125L11.6237 8.8L11.9424 8.225V8L11.4971 8.8L11.5581 8.9125L11.3706 9.25625L11.4971 9.4875L11.3659 9.7125L11.1737 9.36875L10.719 10.1813L11.1737 10.9688L11.3659 10.625L11.4971 10.8562L11.3659 11.0875L11.5581 11.425L11.4971 11.5437L11.9424 12.3438Z" fill="#FAAE29"/>
<path fill-rule="evenodd" clip-rule="evenodd" d="M11.9427 9.48755L11.8771 9.71255V10.0625H11.6896L11.5583 10.175L11.6849 10.2938H11.8771V10.6313L11.9427 10.8625V9.48755V9.48755Z" fill="#FAAE29"/>
<path fill-rule="evenodd" clip-rule="evenodd" d="M11.9656 17.8313V17.6L11.6469 17.0313L11.7078 16.9125L11.5203 16.5688L11.5812 16.4563L11.7078 16.6875L11.7734 16.5688L11.3234 15.7688L11.2578 15.8875L11.3234 16L11.1922 16.2313L10.8734 15.6563L11.1969 15.1L11.3234 15.3125L11.2578 15.425L11.3234 15.5438L11.7734 14.7438L11.7078 14.625L11.5812 14.8563L11.5156 14.7438L11.7078 14.4L11.6469 14.2875L11.9656 13.7125V13.4875L11.5156 14.2875L11.5812 14.4L11.3891 14.7438L11.5156 14.9688L11.3891 15.2L11.1969 14.8563L10.7422 15.6688L11.1969 16.4563L11.3844 16.1125L11.5156 16.3438L11.3891 16.5688L11.5766 16.9125L11.5156 17.025L11.9656 17.825V17.8313Z" fill="#FAAE29"/>
<path fill-rule="evenodd" clip-rule="evenodd" d="M11.9661 14.9688L11.9005 15.2V15.5437H11.7036L11.5724 15.6563L11.7036 15.7688H11.8911V16.1125L11.9615 16.3438V14.9688H11.9661Z" fill="#FAAE29"/>
<path fill-rule="evenodd" clip-rule="evenodd" d="M11.9424 23.3125V23.0875L11.6237 22.5125L11.6893 22.4L11.4971 22.0562L11.5581 21.9438L11.6893 22.1688L11.7549 22.0562L11.3049 21.2563L11.2393 21.3687L11.3049 21.4875L11.169 21.7188L10.8549 21.1437L11.1737 20.5812L11.3049 20.8L11.2393 20.9125L11.3002 21.025L11.7502 20.225L11.6893 20.1125L11.5581 20.3438L11.4971 20.225L11.6846 19.8875L11.6237 19.7688L11.9424 19.2V18.9688L11.4971 19.7688L11.5581 19.8875L11.3706 20.225L11.4971 20.4562L11.3659 20.6875L11.1737 20.3438L10.719 21.1563L11.1737 21.9438L11.3659 21.6L11.4971 21.825L11.3659 22.0562L11.5581 22.4L11.4971 22.5125L11.9377 23.3125H11.9424Z" fill="#FAAE29"/>
<path fill-rule="evenodd" clip-rule="evenodd" d="M11.9427 20.4562L11.8771 20.6874V21.0312H11.6896L11.5583 21.1437L11.6849 21.2562H11.8771V21.5999L11.9427 21.8312V20.4562V20.4562Z" fill="#FAAE29"/>
<path fill-rule="evenodd" clip-rule="evenodd" d="M11.9424 28.4563V28.225L11.6237 27.6563L11.6893 27.5438L11.4971 27.2L11.5581 27.0875L11.6893 27.3125L11.7549 27.2L11.3049 26.4L11.2393 26.5125L11.3049 26.625L11.169 26.8563L10.8549 26.2875L11.1737 25.725L11.3049 25.9438L11.2393 26.0563L11.3002 26.1688L11.7502 25.375L11.6893 25.2625L11.5581 25.4938L11.4971 25.375L11.6846 25.0313L11.6237 24.9188L11.9424 24.35V24.1188L11.4971 24.9188L11.5581 25.0313L11.3706 25.375L11.4971 25.6063L11.3659 25.8313L11.1737 25.4938L10.719 26.3063L11.1737 27.0938L11.3659 26.75L11.4971 26.975L11.3659 27.2063L11.5581 27.55L11.4971 27.6625L11.9424 28.4625V28.4563Z" fill="#FAAE29"/>
<path fill-rule="evenodd" clip-rule="evenodd" d="M11.9427 25.6L11.8771 25.825V26.1688H11.6896L11.5583 26.2875L11.6849 26.4H11.8771V26.7437L11.9427 26.9688V25.5938V25.6Z" fill="#FAAE29"/>
<path fill-rule="evenodd" clip-rule="evenodd" d="M4.22673 6.16875V5.94375L4.54548 5.36875L4.48455 5.25625L4.67205 4.9125L4.61111 4.8L4.48455 5.03125L4.41892 4.9125L4.86892 4.1125L4.93455 4.23125L4.86892 4.34375L5.00017 4.575L5.31892 4H5.45017L5.00017 4.8L4.8033 4.45625L4.67673 4.6875L4.8033 4.9125L4.6158 5.25625L4.67205 5.375L4.22673 6.175V6.16875ZM4.22673 4H4.6158L4.48455 4.1125H4.29705V4.45625L4.22205 4.6875V4H4.22673ZM11.9424 6.16875V5.94375L11.6236 5.36875L11.6892 5.25625L11.497 4.9125L11.558 4.8L11.6892 5.03125L11.7502 4.9125L11.3002 4.1125L11.2392 4.23125L11.3002 4.34375L11.1689 4.575L10.8502 4H10.7189L11.1736 4.8L11.3658 4.45625L11.497 4.6875L11.3658 4.9125L11.558 5.25625L11.497 5.36875L11.9424 6.16875V6.16875ZM11.9424 4H11.558L11.6845 4.1125H11.8767V4.45625L11.9424 4.6875V4ZM7.44236 35.5437C7.44236 35.5437 7.72361 34.8937 8.41736 34.7C9.1158 34.5 9.23767 35.1312 9.63611 35.1312C10.0345 35.1312 10.6674 34.6937 10.6674 34.6937C10.6674 34.6937 10.0345 35.525 9.54236 35.5062C9.05955 35.4875 8.89548 35.0687 8.39392 35.1312C7.89705 35.1937 7.44236 35.5625 7.44236 35.5437V35.5437Z" fill="#FAAE29"/>
<path fill-rule="evenodd" clip-rule="evenodd" d="M8.78794 35.5437C8.78794 35.5437 8.51138 34.8937 7.81763 34.6999C7.1145 34.4999 6.99731 35.1312 6.59888 35.1312C6.20044 35.1312 5.56763 34.6937 5.56763 34.6937C5.56763 34.6937 6.20044 35.5249 6.68794 35.5062C7.17544 35.4874 7.34419 35.0687 7.83638 35.1312C8.33794 35.1937 8.78794 35.5624 8.78794 35.5437Z" fill="#FAAE29"/>
<path fill-rule="evenodd" clip-rule="evenodd" d="M6.50969 34.4687C6.44875 34.3 6.29407 33.55 6.37375 33.4562C6.50032 33.3937 6.82844 34.1625 6.79563 34.8437C6.58 35 5.85813 34.7812 5.86282 34.5812C5.91438 34.3 6.32688 34.3937 6.50969 34.4687Z" fill="#FAAE29"/>
<path fill-rule="evenodd" clip-rule="evenodd" d="M6.06825 33.8124C6.03075 33.6249 5.96513 32.8374 6.05888 32.7749C6.18544 32.7624 6.41513 33.6312 6.30732 34.2874C6.07763 34.3624 5.39325 33.8812 5.42607 33.6874C5.51044 33.4374 5.89482 33.6749 6.06825 33.8124V33.8124Z" fill="#FAAE29"/>
<path fill-rule="evenodd" clip-rule="evenodd" d="M5.71233 33.0874C5.68421 32.8874 5.67483 32.0874 5.76858 32.0499C5.89514 32.0624 6.06858 32.9749 5.91858 33.6062C5.68421 33.6312 5.03733 33.0062 5.08421 32.8249C5.17796 32.5874 5.55296 32.9062 5.71233 33.0874V33.0874Z" fill="#FAAE29"/>
<path fill-rule="evenodd" clip-rule="evenodd" d="M5.43085 32.3124C5.42148 32.1062 5.47773 31.3124 5.57616 31.2999C5.70273 31.3437 5.79179 32.2937 5.58554 32.8749C5.35585 32.8374 4.76991 32.0437 4.83554 31.8749C4.94804 31.6687 5.29023 32.0874 5.43085 32.3124Z" fill="#FAAE29"/>
<path fill-rule="evenodd" clip-rule="evenodd" d="M5.23396 31.4938C5.24334 31.2875 5.36521 30.525 5.46365 30.5313C5.58084 30.6125 5.5949 31.5688 5.34646 32.0938C5.12146 31.9938 4.60115 31.0625 4.67615 30.9063C4.81209 30.7313 5.11209 31.2375 5.23865 31.4938H5.23396Z" fill="#FAAE29"/>
<path fill-rule="evenodd" clip-rule="evenodd" d="M5.29072 30.5624C5.27666 31.3749 5.16416 31.3874 4.96259 30.7874C4.86884 30.5562 4.85947 29.6187 4.93916 29.5812C5.05634 29.5812 5.28603 30.2499 5.29072 30.5624Z" fill="#FAAE29"/>
<path fill-rule="evenodd" clip-rule="evenodd" d="M9.68756 34.5625C9.7485 34.3875 9.90319 33.6375 9.8235 33.5438C9.69694 33.4813 9.3735 34.2438 9.40163 34.9313C9.61725 35.0875 10.3438 34.8688 10.3344 34.6688C10.2829 34.3875 9.87506 34.4813 9.68756 34.5563V34.5625Z" fill="#FAAE29"/>
<path fill-rule="evenodd" clip-rule="evenodd" d="M10.1283 33.9001C10.1705 33.7126 10.2315 32.9251 10.1424 32.8626C10.0158 32.8501 9.78146 33.7126 9.89396 34.3751C10.119 34.4501 10.808 33.9688 10.7705 33.7751C10.6908 33.5188 10.3018 33.7626 10.1283 33.9001V33.9001Z" fill="#FAAE29"/>
<path fill-rule="evenodd" clip-rule="evenodd" d="M10.485 33.1751C10.5131 32.9751 10.5225 32.1751 10.4287 32.1376C10.3022 32.1501 10.1287 33.0563 10.2834 33.6876C10.5178 33.7126 11.1647 33.0938 11.1178 32.9063C11.0147 32.6688 10.649 32.9938 10.485 33.1751V33.1751Z" fill="#FAAE29"/>
<path fill-rule="evenodd" clip-rule="evenodd" d="M10.766 32.3937C10.7753 32.1937 10.7191 31.4 10.6207 31.3875C10.4941 31.4312 10.405 32.3812 10.6113 32.9625C10.8457 32.925 11.4269 32.1312 11.366 31.9625C11.2488 31.75 10.9113 32.1749 10.766 32.3937V32.3937Z" fill="#FAAE29"/>
<path fill-rule="evenodd" clip-rule="evenodd" d="M10.9625 31.5751C10.9578 31.3751 10.8312 30.6063 10.7375 30.6188C10.6156 30.6938 10.6015 31.6563 10.8546 32.1813C11.0796 32.0813 11.5953 31.1501 11.5203 30.9938C11.3843 30.8188 11.0843 31.3251 10.9578 31.5751H10.9625Z" fill="#FAAE29"/>
<path fill-rule="evenodd" clip-rule="evenodd" d="M10.9065 30.6501C10.9252 31.4626 11.0331 31.4688 11.2346 30.8688C11.3284 30.6438 11.3377 29.7001 11.2581 29.6688C11.1409 29.6688 10.9112 30.3376 10.9065 30.6501Z" fill="#FAAE29"/>
<path fill-rule="evenodd" clip-rule="evenodd" d="M10.7462 24.5572H10.3626V24.9003H9.99286V25.2435H8.51398L8.26285 25.5965L8.38842 25.773H9.00926L9.12785 25.5965H8.51398L8.63257 25.42H9.49757L9.12785 25.9396H8.26983L8.02567 25.773L7.77454 25.9396H6.90954L6.53982 25.42H7.40482L7.53039 25.5965H6.90954L7.0351 25.773H7.65595L7.77454 25.5965L7.53039 25.2435H6.1701V24.9003H5.80038V24.5572H5.43066V22.9884H5.80038V22.6452H6.1701V22.2922H7.53039L7.77454 21.949L7.65595 21.7726H7.0351L6.90954 21.949H7.53039L7.40482 22.1157H6.53982L6.90954 21.5961H7.78152L8.03265 21.7726L8.2768 21.5961H9.1418L9.51152 22.1157H8.64652L8.52793 21.949H9.1418L9.01624 21.7726H8.40237L8.26983 21.949L8.52096 22.2922H9.99983V22.6452H10.3696V22.9884H10.7462V24.5572V24.5572Z" fill="#CA3745"/>
<path fill-rule="evenodd" clip-rule="evenodd" d="M6.90853 21.5913H7.78293L8.03315 21.7672L8.27642 21.5913H9.14387L9.52039 22.1205H8.64551L8.52013 21.9443H9.134L9.01523 21.7773H8.40438L8.27539 21.9491L8.52299 22.2875H10.0039V22.6404H10.3737V22.9836H10.7504V24.5572H10.7468V24.5619H10.3667V24.9051H9.99697V25.2483H8.51605L8.26832 25.5965L8.39048 25.7682H9.00819L9.12037 25.6013H8.50649L8.6315 25.4152H9.50643L9.12992 25.9444H8.26949L8.02618 25.7783L7.77591 25.9444H6.90853L6.53202 25.4152H7.40689L7.53925 25.6013H6.9184L7.03717 25.7682H7.65488L7.77023 25.5965L7.52935 25.2483H6.16705V24.9051H5.79733V24.5619H5.42761V22.9836H5.79733V22.6404H6.16705V22.2875H7.52938L7.7702 21.949L7.65488 21.7773H7.03717L6.9184 21.9443H7.53959L7.40683 22.1205H6.53202L6.90853 21.5913ZM10.7432 24.5524V22.9932H10.3665V22.65H9.99678V22.297H8.51998L8.26532 21.949L8.40141 21.7678H9.01831L9.15067 21.9538H8.53679L8.64859 22.111H9.50372L9.14079 21.6009H8.27824L8.0332 21.778L7.78116 21.6009H6.91161L6.54868 22.111H7.40387L7.52225 21.9538H6.90174L7.03409 21.7678H7.65808L7.77994 21.9492L7.53246 22.297H6.17421V22.65H5.80449V22.9932H5.43477V24.5524H5.80449V24.8956H6.17421V25.2387H7.53249L7.77991 25.5964L7.65808 25.7778H7.03409L6.90174 25.5917H7.52258L7.40381 25.4248H6.54868L6.91161 25.9349H7.77423L8.02622 25.7676L8.27122 25.9349H9.12684L9.48977 25.4248H8.6347L8.52253 25.5917H9.1364L9.01139 25.7778H8.38741L8.25844 25.5965L8.51297 25.2387H9.9898V24.8956H10.3595V24.5524H10.7432Z" fill="black"/>
<path fill-rule="evenodd" clip-rule="evenodd" d="M5.55505 23.171V24.3868H5.92477V24.73H6.29448V25.0732H7.53267L8.02795 25.5977L8.51974 25.0781H9.88001V24.7349L10.2497 24.73V24.3868H10.6264V23.1661H10.2532V22.823H9.8835V22.47H8.52323L8.03144 21.9503L7.53616 22.47H6.29797V22.823H5.92825V23.1661H5.55854L5.55505 23.171Z" fill="#00843D"/>
<path fill-rule="evenodd" clip-rule="evenodd" d="M8.03166 21.9077L8.53212 22.4365H9.90873V22.7895H10.2784V23.1327H10.6516V24.4202H10.275V24.7631L9.90524 24.768V25.1115H8.52864L8.0281 25.6404L7.5241 25.1066H6.26958V24.7634H5.89987V24.4202H5.53015V23.1577L5.54793 23.1327H5.90335V22.7895H6.27307V22.4365H7.52765L8.03166 21.9077ZM8.03155 21.9929L7.54501 22.5034H6.3232V22.8564H5.95349V23.1995H5.58029V24.3534H5.95V24.6966H6.31971V25.0397H7.54158L8.02814 25.5551L8.51118 25.0446H9.85511V24.7018L10.2248 24.6969V24.3534H10.6015V23.1995H10.2283V22.8564H9.8586V22.5034H8.51467L8.03155 21.9929Z" fill="#FAAE29"/>
<path fill-rule="evenodd" clip-rule="evenodd" d="M7.28385 22.6401L6.54333 23.5099V22.6401H7.28385ZM8.76488 22.6401L9.51008 23.5099V22.6401H8.76488V22.6401ZM7.28385 24.9016L6.54333 24.0318V24.9016H7.28385ZM8.76488 24.9016L9.51008 24.0318V24.9016H8.76488V24.9016ZM9.01328 23.162L8.76488 23.5099H9.26168L9.01328 23.162V23.162ZM7.03545 23.162L6.79174 23.5099H7.28385L7.03545 23.162ZM7.03545 24.3797L6.79174 24.0318H7.28385L7.03545 24.3797ZM9.01328 24.3797L8.76488 24.0318H9.26168L9.01328 24.3797V24.3797Z" fill="#CA3745"/>
<path fill-rule="evenodd" clip-rule="evenodd" d="M8.02379 25.2496L7.77539 24.9017H8.27219L8.02379 25.2496V25.2496ZM8.02379 23.5101L7.77539 23.1621H8.27219L8.02379 23.5101V23.5101ZM8.02379 22.2924L7.77539 22.6482H8.27219L8.02379 22.2924V22.2924ZM8.02379 24.0319L7.77539 24.3799H8.27219L8.02379 24.0319V24.0319Z" fill="#FAAE29"/>
<path fill-rule="evenodd" clip-rule="evenodd" d="M8.76709 23.5143H9.26585V23.6859H8.77058L8.76709 23.5143Z" fill="#FAAE29"/>
<path fill-rule="evenodd" clip-rule="evenodd" d="M8.76538 23.5117H9.26778V23.6881H8.76896L8.76538 23.5117ZM8.76906 23.5165L8.77245 23.6833H9.26419V23.5165H8.76906Z" fill="black"/>
<path fill-rule="evenodd" clip-rule="evenodd" d="M6.91479 23.6859H7.15895V23.8624H6.91479V23.6859ZM8.89241 23.6859H9.13657V23.8624H8.89241V23.6859Z" fill="#CC0000"/>
<path fill-rule="evenodd" clip-rule="evenodd" d="M6.91321 23.6833H7.16094V23.8646H6.91321V23.6833ZM6.91679 23.6881V23.8598H7.15736V23.6881H6.91679ZM8.89083 23.6833H9.13856V23.8646H8.89083V23.6833ZM8.89441 23.6881V23.8598H9.13498V23.6881H8.89441Z" fill="black"/>
<path fill-rule="evenodd" clip-rule="evenodd" d="M7.7804 22.6466H8.27219V22.8182H7.7804V22.6466ZM7.7804 22.9898H8.27219V23.1663H7.7804V22.9898Z" fill="#990000"/>
<path fill-rule="evenodd" clip-rule="evenodd" d="M7.77881 22.644H8.27418V22.8204H7.77881V22.644ZM7.78239 22.6488V22.8156H8.2706V22.6488H7.78239ZM7.77881 22.9872H8.27418V23.1685H7.77881V22.9872ZM7.78239 22.992V23.1637H8.2706V22.992H7.78239Z" fill="black"/>
<path fill-rule="evenodd" clip-rule="evenodd" d="M7.65442 22.8181H8.39734V22.9946H7.65442V22.8181ZM7.77998 24.3869H8.27177V24.5536H7.77998V24.3869ZM7.77998 24.7301H8.27177V24.9017H7.77998V24.7301ZM7.65442 24.5585H8.39734V24.7301H7.65442V24.5585Z" fill="#990000"/>
<path fill-rule="evenodd" clip-rule="evenodd" d="M7.65271 22.8157H8.39921V22.9969H7.65271V22.8157ZM7.65629 22.8204V22.9922H8.39563V22.8204H7.65629ZM7.77827 24.3845H8.27364V24.5559H7.77827V24.3845ZM7.78185 24.3892V24.5511H8.27006V24.3892H7.78185ZM7.65271 24.556H8.39921V24.7324H8.27364V24.904H7.77827V24.7324H7.65271V24.556ZM8.39563 24.7276V24.5608H7.65629V24.7276H8.39563ZM7.78185 24.7324V24.8992H8.27006V24.7324H7.78185Z" fill="black"/>
<path fill-rule="evenodd" clip-rule="evenodd" d="M8.76657 23.8624H9.26533V24.0339H8.77005L8.76657 23.8624ZM6.78895 23.5143H7.28422V23.6859H6.78895V23.5143ZM6.78895 23.8575H7.28422V24.0339H6.78895V23.8575ZM6.66687 23.6859H6.91102V23.8624H6.66687V23.6859ZM7.16215 23.6859H7.4063V23.8624H7.16215V23.6859ZM8.64449 23.6859H8.88864V23.8624H8.64449V23.6859ZM9.13977 23.6859H9.38392V23.8624H9.13977V23.6859Z" fill="#FAAE29"/>
<path fill-rule="evenodd" clip-rule="evenodd" d="M6.78736 23.5117H7.28622V23.6833H7.40829V23.8646H7.28622V24.0362H6.78736V23.8646H6.66528V23.6833H6.78736V23.5117ZM6.79094 23.6833H7.28264V23.5165H6.79094V23.6833ZM7.16056 23.6881H6.91302V23.8549H7.16056V23.6881ZM7.16056 23.8597H6.91302V23.8646H6.79094V24.0314H7.28264V23.8646H7.16056V23.8597ZM7.28622 23.8598V23.8549H7.16414V23.6881H7.40471V23.8598H7.28622ZM7.28264 23.8598H7.16414V23.8597H7.28264V23.8598ZM6.79094 23.8598H6.90943V23.8597H6.79094V23.8598ZM6.90943 23.8549V23.6881H6.66886V23.8598H6.78736V23.8549H6.90943ZM8.6429 23.6833H8.89064V23.8598H9.13818V23.6833H9.38591V23.8646H9.26733V24.0362H8.76852L8.76503 23.8646H8.6429V23.6833ZM8.88706 23.8598V23.6881H8.64649V23.8598H8.88706ZM8.76861 23.8646L8.772 24.0314H9.26374V23.8646H8.76861ZM9.38233 23.8598V23.6881H9.14176V23.8598H9.38233Z" fill="black"/>
<path d="M7.72231 24.68C7.73965 24.68 7.7537 24.6603 7.7537 24.6359C7.7537 24.6116 7.73965 24.5918 7.72231 24.5918C7.70497 24.5918 7.69092 24.6116 7.69092 24.6359C7.69092 24.6603 7.70497 24.68 7.72231 24.68Z" fill="white"/>
<path d="M8.02736 24.68C8.0447 24.68 8.05875 24.6603 8.05875 24.6359C8.05875 24.6116 8.0447 24.5918 8.02736 24.5918C8.01003 24.5918 7.99597 24.6116 7.99597 24.6359C7.99597 24.6603 8.01003 24.68 8.02736 24.68Z" fill="white"/>
<path d="M8.33669 24.68C8.35403 24.68 8.36808 24.6603 8.36808 24.6359C8.36808 24.6116 8.35403 24.5918 8.33669 24.5918C8.31935 24.5918 8.3053 24.6116 8.3053 24.6359C8.3053 24.6603 8.31935 24.68 8.33669 24.68Z" fill="white"/>
<path d="M7.84414 24.514C7.86147 24.514 7.87553 24.4943 7.87553 24.4699C7.87553 24.4455 7.86147 24.4258 7.84414 24.4258C7.8268 24.4258 7.81274 24.4455 7.81274 24.4699C7.81274 24.4943 7.8268 24.514 7.84414 24.514Z" fill="white"/>
<path d="M8.20974 24.514C8.22707 24.514 8.24113 24.4943 8.24113 24.4699C8.24113 24.4455 8.22707 24.4258 8.20974 24.4258C8.1924 24.4258 8.17834 24.4455 8.17834 24.4699C8.17834 24.4943 8.1924 24.514 8.20974 24.514Z" fill="white"/>
<path d="M7.83999 24.854C7.85732 24.854 7.87138 24.8342 7.87138 24.8099C7.87138 24.7855 7.85732 24.7657 7.83999 24.7657C7.82265 24.7657 7.80859 24.7855 7.80859 24.8099C7.80859 24.8342 7.82265 24.854 7.83999 24.854Z" fill="white"/>
<path d="M8.20974 24.8619C8.22707 24.8619 8.24113 24.8422 8.24113 24.8178C8.24113 24.7934 8.22707 24.7737 8.20974 24.7737C8.1924 24.7737 8.17834 24.7934 8.17834 24.8178C8.17834 24.8422 8.1924 24.8619 8.20974 24.8619Z" fill="white"/>
<path d="M8.70229 23.8103C8.71963 23.8103 8.73368 23.7905 8.73368 23.7662C8.73368 23.7418 8.71963 23.722 8.70229 23.722C8.68495 23.722 8.6709 23.7418 8.6709 23.7662C8.6709 23.7905 8.68495 23.8103 8.70229 23.8103Z" fill="white"/>
<path d="M9.01149 23.8103C9.02883 23.8103 9.04288 23.7905 9.04288 23.7662C9.04288 23.7418 9.02883 23.722 9.01149 23.722C8.99416 23.722 8.9801 23.7418 8.9801 23.7662C8.9801 23.7905 8.99416 23.8103 9.01149 23.8103Z" fill="white"/>
<path d="M9.32082 23.8103C9.33816 23.8103 9.35221 23.7905 9.35221 23.7662C9.35221 23.7418 9.33816 23.722 9.32082 23.722C9.30348 23.722 9.28943 23.7418 9.28943 23.7662C9.28943 23.7905 9.30348 23.8103 9.32082 23.8103Z" fill="white"/>
<path d="M8.82912 23.6363C8.84646 23.6363 8.86051 23.6166 8.86051 23.5922C8.86051 23.5679 8.84646 23.5481 8.82912 23.5481C8.81178 23.5481 8.79773 23.5679 8.79773 23.5922C8.79773 23.6166 8.81178 23.6363 8.82912 23.6363Z" fill="white"/>
<path d="M9.19399 23.6363C9.21133 23.6363 9.22538 23.6166 9.22538 23.5922C9.22538 23.5679 9.21133 23.5481 9.19399 23.5481C9.17665 23.5481 9.1626 23.5679 9.1626 23.5922C9.1626 23.6166 9.17665 23.6363 9.19399 23.6363Z" fill="white"/>
<path d="M8.82412 23.9763C8.84145 23.9763 8.85551 23.9566 8.85551 23.9322C8.85551 23.9078 8.84145 23.8881 8.82412 23.8881C8.80678 23.8881 8.79272 23.9078 8.79272 23.9322C8.79272 23.9566 8.80678 23.9763 8.82412 23.9763Z" fill="white"/>
<path d="M9.19399 23.9842C9.21133 23.9842 9.22538 23.9645 9.22538 23.9401C9.22538 23.9158 9.21133 23.896 9.19399 23.896C9.17665 23.896 9.1626 23.9158 9.1626 23.9401C9.1626 23.9645 9.17665 23.9842 9.19399 23.9842Z" fill="white"/>
<path d="M7.71816 22.9484C7.7355 22.9484 7.74955 22.9286 7.74955 22.9042C7.74955 22.8799 7.7355 22.8601 7.71816 22.8601C7.70082 22.8601 7.68677 22.8799 7.68677 22.9042C7.68677 22.9286 7.70082 22.9484 7.71816 22.9484Z" fill="white"/>
<path d="M8.02736 22.9484C8.0447 22.9484 8.05875 22.9286 8.05875 22.9042C8.05875 22.8799 8.0447 22.8601 8.02736 22.8601C8.01003 22.8601 7.99597 22.8799 7.99597 22.9042C7.99597 22.9286 8.01003 22.9484 8.02736 22.9484Z" fill="white"/>
<path d="M8.33669 22.9405C8.35403 22.9405 8.36808 22.9208 8.36808 22.8964C8.36808 22.8721 8.35403 22.8523 8.33669 22.8523C8.31935 22.8523 8.3053 22.8721 8.3053 22.8964C8.3053 22.9208 8.31935 22.9405 8.33669 22.9405Z" fill="white"/>
<path d="M7.83999 22.7744C7.85732 22.7744 7.87138 22.7546 7.87138 22.7303C7.87138 22.7059 7.85732 22.6862 7.83999 22.6862C7.82265 22.6862 7.80859 22.7059 7.80859 22.7303C7.80859 22.7546 7.82265 22.7744 7.83999 22.7744Z" fill="white"/>
<path d="M8.20974 22.7744C8.22707 22.7744 8.24113 22.7546 8.24113 22.7303C8.24113 22.7059 8.22707 22.6862 8.20974 22.6862C8.1924 22.6862 8.17834 22.7059 8.17834 22.7303C8.17834 22.7546 8.1924 22.7744 8.20974 22.7744Z" fill="white"/>
<path d="M7.83999 23.1145C7.85732 23.1145 7.87138 23.0947 7.87138 23.0704C7.87138 23.046 7.85732 23.0262 7.83999 23.0262C7.82265 23.0262 7.80859 23.046 7.80859 23.0704C7.80859 23.0947 7.82265 23.1145 7.83999 23.1145Z" fill="white"/>
<path d="M8.20974 23.1223C8.22707 23.1223 8.24113 23.1025 8.24113 23.0782C8.24113 23.0538 8.22707 23.0341 8.20974 23.0341C8.1924 23.0341 8.17834 23.0538 8.17834 23.0782C8.17834 23.1025 8.1924 23.1223 8.20974 23.1223Z" fill="white"/>
<path d="M6.72902 23.8262C6.74636 23.8262 6.76041 23.8064 6.76041 23.782C6.76041 23.7577 6.74636 23.7379 6.72902 23.7379C6.71169 23.7379 6.69763 23.7577 6.69763 23.782C6.69763 23.8064 6.71169 23.8262 6.72902 23.8262Z" fill="white"/>
<path d="M7.03823 23.8262C7.05556 23.8262 7.06962 23.8064 7.06962 23.782C7.06962 23.7577 7.05556 23.7379 7.03823 23.7379C7.02089 23.7379 7.00684 23.7577 7.00684 23.782C7.00684 23.8064 7.02089 23.8262 7.03823 23.8262Z" fill="white"/>
<path d="M7.34755 23.8181C7.36489 23.8181 7.37894 23.7983 7.37894 23.774C7.37894 23.7496 7.36489 23.7299 7.34755 23.7299C7.33022 23.7299 7.31616 23.7496 7.31616 23.774C7.31616 23.7983 7.33022 23.8181 7.34755 23.8181Z" fill="white"/>
<path d="M6.85585 23.6521C6.87319 23.6521 6.88725 23.6323 6.88725 23.608C6.88725 23.5836 6.87319 23.5638 6.85585 23.5638C6.83852 23.5638 6.82446 23.5836 6.82446 23.608C6.82446 23.6323 6.83852 23.6521 6.85585 23.6521Z" fill="white"/>
<path d="M7.22146 23.6521C7.23879 23.6521 7.25285 23.6323 7.25285 23.608C7.25285 23.5836 7.23879 23.5638 7.22146 23.5638C7.20412 23.5638 7.19006 23.5836 7.19006 23.608C7.19006 23.6323 7.20412 23.6521 7.22146 23.6521Z" fill="white"/>
<path d="M6.85085 23.9922C6.86819 23.9922 6.88224 23.9724 6.88224 23.9481C6.88224 23.9237 6.86819 23.9039 6.85085 23.9039C6.83351 23.9039 6.81946 23.9237 6.81946 23.9481C6.81946 23.9724 6.83351 23.9922 6.85085 23.9922Z" fill="white"/>
<path d="M7.22146 24C7.23879 24 7.25285 23.9802 7.25285 23.9559C7.25285 23.9315 7.23879 23.9117 7.22146 23.9117C7.20412 23.9117 7.19006 23.9315 7.19006 23.9559C7.19006 23.9802 7.20412 24 7.22146 24Z" fill="white"/>
<path fill-rule="evenodd" clip-rule="evenodd" d="M8.51084 19.9874L8.72178 19.8499L8.9374 19.9874H8.51084ZM7.87334 19.9874L8.08428 19.8499L8.2999 19.9874H7.87334ZM7.23584 19.9874L7.44678 19.8499L7.6624 19.9874H7.23584ZM8.51084 16.9249L8.72178 17.0624L8.9374 16.9312H8.51084V16.9249ZM7.87334 16.9249L8.08428 17.0624L8.2999 16.9312H7.87334V16.9249ZM7.23584 16.9249L7.44678 17.0624L7.6624 16.9312H7.23584V16.9249Z" fill="white"/>
<path fill-rule="evenodd" clip-rule="evenodd" d="M8.33269 20.3813L8.08425 20.65L7.83582 20.3813L7.58738 20.65L7.33894 20.3813V20.5187L7.50769 20.6437L7.42332 20.7813V20.9125H7.50769L7.58738 20.7875L7.67175 20.9125H7.75613V20.7875L7.67175 20.65L7.83582 20.5187L8.00457 20.6437L7.92019 20.7813V20.9125H8.00457L8.08425 20.7875L8.16863 20.9125H8.24832V20.7875L8.16863 20.65L8.33269 20.5187L8.49675 20.6437L8.41707 20.7813V20.9125H8.49675L8.58113 20.7875L8.6655 20.9125H8.74519V20.7875L8.6655 20.65L8.82957 20.5187V20.375L8.58113 20.6437L8.33269 20.375V20.3813ZM8.33269 16.5313L8.08425 16.2625L7.83582 16.5313L7.58738 16.2625L7.33894 16.5313V16.4L7.50769 16.2625L7.42332 16.1375V16H7.50769L7.58738 16.1313L7.67175 16H7.75613V16.1313L7.67175 16.2688L7.83582 16.3938L8.00457 16.2688L7.92019 16.1313V16H8.00457L8.08425 16.1313L8.16863 16H8.24832V16.1313L8.16863 16.2688L8.33269 16.3938L8.49675 16.2688L8.41707 16.1313V16H8.49675L8.58113 16.1313L8.6655 16H8.74519V16.1313L8.6655 16.2688L8.82957 16.3938V16.5313L8.58113 16.2625L8.33269 16.5313V16.5313ZM10.2077 18.7437L10.4796 18.4563L10.2124 18.1687L10.4796 17.8813L10.2124 17.5938H10.3436L10.4796 17.7813L10.6108 17.6875H10.7421V17.7875L10.6108 17.8813L10.7421 17.975V18.075H10.6108L10.4796 17.975L10.3436 18.1687L10.4796 18.3562L10.6108 18.2688H10.7421V18.3625L10.6108 18.4563L10.7421 18.55V18.65H10.6108L10.4796 18.55L10.3436 18.7437L10.4796 18.9312L10.6108 18.8375H10.7421V18.9375L10.6108 19.0313L10.7421 19.1313V19.225H10.6108L10.4796 19.1313L10.3436 19.3188H10.2124L10.4796 19.0313L10.2124 18.7437H10.2077ZM5.96082 18.7437L5.69363 18.4563L5.96082 18.1687L5.69363 17.8813L5.96082 17.5938H5.82488L5.69363 17.7813L5.56238 17.6875H5.42175V17.7875L5.56238 17.875L5.42644 17.9688V18.0688H5.56238L5.69363 17.9688L5.82488 18.1625L5.69363 18.35L5.56238 18.2625H5.42175V18.3562L5.55769 18.45L5.42175 18.5437V18.6438H5.56238L5.69363 18.5437L5.82488 18.7375L5.69363 18.9312L5.56238 18.8375H5.42175V18.9312L5.55769 19.025L5.42175 19.125V19.2188H5.56238L5.69363 19.125L5.82488 19.3125H5.96082L5.69363 19.025L5.96082 18.7375V18.7437Z" fill="#00843D"/>
<path fill-rule="evenodd" clip-rule="evenodd" d="M10.314 19.7233H10.4219V19.8507H10.314V19.7233ZM10.206 19.8507H10.314V19.9857H10.212L10.206 19.8507ZM9.67806 20.5179H9.78604V20.6529H9.67806V20.5179ZM9.78604 20.383H9.88803V20.5179H9.78604V20.383ZM6.27659 20.383H6.38458V20.5179H6.27059L6.27659 20.383ZM5.74268 19.7233H5.85066V19.8507H5.74268V19.7233ZM5.85066 19.8507H5.95864V19.9857H5.85066V19.8507ZM5.85066 16.9269H5.95864V17.0619H5.85066V16.9269ZM5.74268 17.0619H5.85066V17.1968H5.74268V17.0619ZM6.38458 16.2672H6.48656V16.4022H6.39057L6.38458 16.2672ZM6.27659 16.4022H6.38458V16.5371H6.27059L6.27659 16.4022ZM9.67806 16.2672H9.78604V16.4022H9.67806V16.2672ZM9.78604 16.4022H9.88803V16.5371H9.78604V16.4022ZM10.206 16.9269H10.314V17.0619H10.212L10.206 16.9269ZM10.314 17.0694H10.4219V17.1968H10.314V17.0694ZM6.39057 20.5179H6.49256V20.6529H6.39057V20.5179Z" fill="#00843D"/>
<path fill-rule="evenodd" clip-rule="evenodd" d="M6.37489 16.2556H6.49483V16.4138H6.39284V16.5487H6.26091L6.26794 16.3906H6.38089L6.37489 16.2556ZM6.39834 16.3906H6.4774V16.2788H6.39338L6.39834 16.3906ZM6.37542 16.4138H6.28436L6.27939 16.5255H6.37542V16.4138ZM9.66891 16.2556H9.79431V16.3906H9.8963V16.5487H9.77689V16.4138H9.66891V16.2556ZM9.79431 16.4138V16.5255H9.87887V16.4138H9.79431ZM9.77689 16.3906V16.2788H9.68633V16.3906H9.77689ZM5.8415 16.9153H5.96691V17.0735H5.85893V17.2085H5.73352V17.0503H5.8415V16.9153ZM5.8415 17.0735H5.75094V17.1852H5.8415V17.0735ZM5.85893 17.0503H5.94949V16.9386H5.85893V17.0503ZM10.1963 16.9153H10.3222V17.0578H10.4302V17.2085H10.3048V17.0735H10.2033L10.1963 16.9153ZM10.3222 17.081V17.1852H10.4128V17.081H10.3222ZM10.3048 17.0503V16.9386H10.2148L10.2197 17.0503H10.3048ZM5.73352 19.7117H5.85893V19.8391H5.96691V19.9973H5.8415V19.8624H5.73352V19.7117ZM5.85893 19.8624V19.9741H5.94949V19.8624H5.85893ZM5.8415 19.8391V19.7349H5.75094V19.8391H5.8415ZM10.3048 19.7117H10.4302V19.8624H10.3222V19.9973H10.2033L10.1963 19.8391H10.3048V19.7117ZM10.3048 19.8624H10.2148L10.2197 19.9741H10.3048V19.8624ZM10.3222 19.8391H10.4128V19.7349H10.3222V19.8391ZM6.26794 20.3714H6.39284V20.5063H6.50083V20.6645H6.38142V20.5296H6.26091L6.26794 20.3714ZM6.39884 20.5296V20.6413H6.4834V20.5296H6.39884ZM6.37542 20.5063V20.3946H6.28436L6.27939 20.5063H6.37542ZM9.77689 20.3714H9.8963V20.5296H9.79431V20.6645H9.66891V20.5063H9.77689V20.3714ZM9.77689 20.5296H9.68633V20.6413H9.77689V20.5296ZM9.79431 20.5063H9.87887V20.3946H9.79431V20.5063Z" fill="black"/>
<path fill-rule="evenodd" clip-rule="evenodd" d="M7.76133 18.4562H7.44727V18.1937H7.6582V17.95H7.86445V17.725H8.07539V18.0062C7.90195 18.0062 7.76133 18.1937 7.76133 18.4562V18.4562Z" fill="white"/>
<path fill-rule="evenodd" clip-rule="evenodd" d="M8.38901 18.4562H8.70308V18.1937H8.49214V17.95H8.2812V17.725H8.07495V18.0062C8.24839 18.0062 8.38901 18.1937 8.38901 18.4562V18.4562Z" fill="#FAAE29"/>
<path fill-rule="evenodd" clip-rule="evenodd" d="M8.38901 18.4562H8.70308V18.7187H8.49214V18.9624H8.2812V19.1874H8.07495V18.9062C8.24839 18.9062 8.38901 18.7187 8.38901 18.4562V18.4562Z" fill="white"/>
<path fill-rule="evenodd" clip-rule="evenodd" d="M7.76133 18.4562H7.44727V18.7187H7.6582V18.9624H7.86445V19.1874H8.07539V18.9062C7.90195 18.9062 7.76133 18.7187 7.76133 18.4562V18.4562Z" fill="#FAAE29"/>
<path fill-rule="evenodd" clip-rule="evenodd" d="M8.38901 18.4562H8.07495V18.0062C8.24839 18.0062 8.38901 18.2125 8.38901 18.4562Z" fill="#00843D"/>
<path fill-rule="evenodd" clip-rule="evenodd" d="M8.38901 18.4562H8.07495V18.9062C8.24839 18.9062 8.38901 18.7062 8.38901 18.4562Z" fill="#CA3745"/>
<path fill-rule="evenodd" clip-rule="evenodd" d="M7.76147 18.4562H8.07554V18.9062C7.9021 18.9062 7.76147 18.7062 7.76147 18.4562V18.4562Z" fill="#00843D"/>
<path fill-rule="evenodd" clip-rule="evenodd" d="M7.76147 18.4562H8.07554V18.0062C7.9021 18.0062 7.76147 18.2125 7.76147 18.4562V18.4562Z" fill="#CA3745"/>
<path fill-rule="evenodd" clip-rule="evenodd" d="M8.40305 20.1187L8.0843 19.85L7.76555 20.1187L7.4468 19.85L7.12805 20.1187V19.9875L7.33899 19.85L7.23586 19.7187V19.5875H7.33899L7.4468 19.7187L7.55461 19.5875H7.66243V19.7187L7.55461 19.85L7.76555 19.9875L7.98118 19.85L7.87336 19.7187V19.5875H7.98118L8.0843 19.7187L8.19211 19.5875H8.29993V19.7187L8.19211 19.85L8.40305 19.9875L8.61868 19.85L8.51086 19.7187V19.5875H8.61868L8.7218 19.7187L8.82961 19.5875H8.93743V19.7187L8.82961 19.85L9.04055 19.9875V20.1125L8.7218 19.85L8.40305 20.1187V20.1187ZM8.40305 16.8L8.0843 17.0625L7.76555 16.8L7.4468 17.0625L7.12805 16.8V16.925L7.33899 17.0625L7.23586 17.1937V17.3312H7.33899L7.4468 17.1937L7.55461 17.3312H7.66243V17.1875L7.55461 17.0625L7.76555 16.925L7.98118 17.0562L7.87336 17.1875V17.325H7.98118L8.0843 17.1875L8.19211 17.325H8.29993V17.1875L8.19211 17.0625L8.40305 16.925L8.61868 17.0562L8.51086 17.1875V17.325H8.61868L8.7218 17.1875L8.82961 17.325H8.93743V17.1875L8.82961 17.0625L9.04055 16.925V16.7937L8.7218 17.0562L8.40305 16.7937V16.8ZM9.57493 18.7875L9.41555 18.4562L9.57493 18.125L9.41555 17.7937L9.57493 17.4625H9.49524L9.41555 17.6812L9.33586 17.5687H9.25618V17.6812L9.33586 17.7937L9.25618 17.9062V18.0125H9.33586L9.41555 17.9062L9.49524 18.125L9.41555 18.3437L9.33586 18.2375H9.25618V18.3437L9.33586 18.4562L9.25618 18.5687V18.6812H9.33586L9.41555 18.5687L9.49524 18.7875L9.41555 19.0125L9.33586 18.9H9.25618V19.0125L9.33586 19.1187L9.25618 19.2312V19.3437H9.33586L9.41555 19.2312L9.49524 19.4562H9.57493L9.41555 19.1187L9.57493 18.7875V18.7875Z" fill="#00843D"/>
<path fill-rule="evenodd" clip-rule="evenodd" d="M7.12966 16.9344L6.70972 17.4592V19.4533L7.12966 19.9856H9.04936L9.46929 19.4608V17.4667L9.04336 16.9344H7.12966ZM7.02167 16.5295L5.95984 17.864V19.0635L7.02767 20.3829H9.15134L10.2132 19.056V17.8565L9.15134 16.5295H7.02767H7.02167Z" fill="#00843D"/>
<path fill-rule="evenodd" clip-rule="evenodd" d="M7.01793 16.5142H9.15681L10.2257 17.8499V19.0628L9.15681 20.3985H7.02399L5.9491 19.0704V17.8574L7.01793 16.5142ZM7.02716 16.5451L5.97233 17.8708V19.0568L7.0331 20.3676H9.14762L10.2024 19.0494V17.8633L9.14762 16.5451H7.02716ZM7.12594 16.919H9.04882L9.48178 17.46V19.4676L9.05482 20.0012H7.12589L6.69898 19.4601V17.4525L7.12594 16.919ZM7.13512 16.95L6.72221 17.466V19.4468L7.13517 19.9702H9.04564L9.45855 19.4542V17.4735L9.03964 16.95H7.13512Z" fill="black"/>
<path fill-rule="evenodd" clip-rule="evenodd" d="M7.57145 20.1156L7.73942 20.3855L7.9122 20.1156H7.56665H7.57145Z" fill="#FAAE29"/>
<path fill-rule="evenodd" clip-rule="evenodd" d="M7.92609 20.1072L7.73945 20.3987L7.56856 20.1241H7.56675V20.1212L7.56665 20.1211L7.56675 20.121V20.1072H7.92609ZM7.58509 20.1241H7.8985L7.73959 20.3724L7.58509 20.1241Z" fill="black"/>
<path fill-rule="evenodd" clip-rule="evenodd" d="M7.57145 16.7969L7.73942 16.527L7.9122 16.7969H7.56665H7.57145Z" fill="#FAAE29"/>
<path fill-rule="evenodd" clip-rule="evenodd" d="M7.92609 16.8053L7.73945 16.5138L7.56856 16.7883H7.56675V16.7912L7.56665 16.7914L7.56675 16.7915V16.8053H7.92609ZM7.58509 16.7883H7.8985L7.73959 16.5401L7.58509 16.7883Z" fill="black"/>
<path fill-rule="evenodd" clip-rule="evenodd" d="M8.25639 16.7969L8.42436 16.527L8.59713 16.7969H8.25159H8.25639Z" fill="#FAAE29"/>
<path fill-rule="evenodd" clip-rule="evenodd" d="M8.61102 16.8053L8.42439 16.5138L8.25349 16.7883H8.25168V16.7912L8.25159 16.7914L8.25168 16.7915V16.8053H8.61102ZM8.27003 16.7883H8.58343L8.42453 16.5401L8.27003 16.7883Z" fill="black"/>
<path fill-rule="evenodd" clip-rule="evenodd" d="M8.25639 20.1156L8.42436 20.3855L8.59713 20.1156H8.25159H8.25639Z" fill="#FAAE29"/>
<path fill-rule="evenodd" clip-rule="evenodd" d="M8.61102 20.1072L8.42439 20.3987L8.25349 20.1241H8.25168V20.1212L8.25159 20.1211L8.25168 20.121V20.1072H8.61102ZM8.27003 20.1241H8.58343L8.42453 20.3724L8.27003 20.1241Z" fill="black"/>
<path fill-rule="evenodd" clip-rule="evenodd" d="M7.23405 16.7969L7.40202 16.527L7.57479 16.7969H7.22925H7.23405Z" fill="#CA3745"/>
<path fill-rule="evenodd" clip-rule="evenodd" d="M7.58869 16.8053L7.40205 16.5138L7.23116 16.7883H7.22934V16.7912L7.22925 16.7914L7.22934 16.7915V16.8053H7.58869ZM7.24769 16.7883H7.5611L7.40219 16.5401L7.24769 16.7883Z" fill="black"/>
<path fill-rule="evenodd" clip-rule="evenodd" d="M7.91386 16.7969L8.08183 16.527L8.2546 16.7969H7.90906H7.91386Z" fill="#CA3745"/>
<path fill-rule="evenodd" clip-rule="evenodd" d="M8.2685 16.8053L8.08186 16.5138L7.91097 16.7883H7.90915V16.7912L7.90906 16.7914L7.90915 16.7915V16.8053H8.2685ZM7.9275 16.7883H8.24091L8.082 16.5401L7.9275 16.7883Z" fill="black"/>
<path fill-rule="evenodd" clip-rule="evenodd" d="M8.59379 16.7969L8.76176 16.527L8.93454 16.7969H8.58899H8.59379Z" fill="#CA3745"/>
<path fill-rule="evenodd" clip-rule="evenodd" d="M8.94843 16.8053L8.76179 16.5138L8.5909 16.7883H8.58909V16.7912L8.58899 16.7914L8.58909 16.7915V16.8053H8.94843ZM8.60743 16.7883H8.92084L8.76193 16.5401L8.60743 16.7883Z" fill="black"/>
<path fill-rule="evenodd" clip-rule="evenodd" d="M6.8147 19.719L7.12963 20.1125H6.8147V19.719Z" fill="#CA3745"/>
<path fill-rule="evenodd" clip-rule="evenodd" d="M6.80139 20.1298H7.16244L6.80139 19.6786V20.1298ZM6.82752 20.0949V19.759L7.09634 20.0949H6.82752Z" fill="black"/>
<path fill-rule="evenodd" clip-rule="evenodd" d="M6.59412 18.7874L6.75818 18.4562L6.59412 18.1249L6.75349 17.7937L6.59412 17.4624H6.6738L6.75349 17.6812L6.83318 17.5687H6.91287V17.6812L6.83318 17.7937L6.91287 17.9062V18.0124H6.83318L6.75349 17.9062L6.6738 18.1249L6.75349 18.3437L6.83318 18.2374H6.91287V18.3437L6.83318 18.4562L6.91287 18.5687V18.6812H6.83318L6.75349 18.5687L6.6738 18.7874L6.75349 19.0124L6.83318 18.8999H6.91287V19.0124L6.83318 19.1187L6.91287 19.2312V19.3437H6.83318L6.75349 19.2312L6.6738 19.4562H6.59412L6.75349 19.1187L6.59412 18.7874Z" fill="#00843D"/>
<path fill-rule="evenodd" clip-rule="evenodd" d="M9.67676 18.0977H10.1027L10.2107 18.2191L10.1027 18.3406H9.68276V18.0909L9.67676 18.0977Z" fill="#CA3745"/>
<path fill-rule="evenodd" clip-rule="evenodd" d="M9.67477 18.1087H9.65442L9.6913 18.0673V18.0867H10.106L10.2238 18.2192L10.106 18.3516H9.67477V18.1087ZM9.6913 18.1087H10.0999L10.1981 18.2192L10.0999 18.3296H9.6913V18.1087Z" fill="black"/>
<path fill-rule="evenodd" clip-rule="evenodd" d="M6.81172 17.1968L6.59576 17.4667V19.4533L6.81172 19.7232H6.49377V17.1968H6.81172Z" fill="#CA3745"/>
<path fill-rule="evenodd" clip-rule="evenodd" d="M6.48218 17.1813H6.84112L6.60739 17.4734V19.4466L6.84112 19.7387H6.48218V17.1813ZM6.50541 17.2122V19.7077H6.78236L6.58416 19.46V17.4599L6.78236 17.2122H6.50541Z" fill="black"/>
<path fill-rule="evenodd" clip-rule="evenodd" d="M7.23405 20.1156L7.40202 20.3855L7.57479 20.1156H7.22925H7.23405Z" fill="#CA3745"/>
<path fill-rule="evenodd" clip-rule="evenodd" d="M7.58869 20.1072L7.40205 20.3987L7.23116 20.1241H7.22934V20.1212L7.22925 20.1211L7.22934 20.121V20.1072H7.58869ZM7.24769 20.1241H7.5611L7.40219 20.3724L7.24769 20.1241Z" fill="black"/>
<path fill-rule="evenodd" clip-rule="evenodd" d="M7.91386 20.1156L8.08183 20.3855L8.2546 20.1156H7.90906H7.91386Z" fill="#CA3745"/>
<path fill-rule="evenodd" clip-rule="evenodd" d="M8.2685 20.1072L8.08186 20.3987L7.91097 20.1241H7.90915V20.1212L7.90906 20.1211L7.90915 20.121V20.1072H8.2685ZM7.9275 20.1241H8.24091L8.082 20.3724L7.9275 20.1241Z" fill="black"/>
<path fill-rule="evenodd" clip-rule="evenodd" d="M8.59379 20.1156L8.76176 20.3855L8.93454 20.1156H8.58899H8.59379Z" fill="#CA3745"/>
<path fill-rule="evenodd" clip-rule="evenodd" d="M8.94843 20.1072L8.76179 20.3987L8.5909 20.1241H8.58909V20.1212L8.58899 20.1211L8.58909 20.121V20.1072H8.94843ZM8.60743 20.1241H8.92084L8.76193 20.3724L8.60743 20.1241Z" fill="black"/>
<path fill-rule="evenodd" clip-rule="evenodd" d="M9.35722 17.1968L9.57319 17.4667V19.4533L9.35722 19.7232H9.67517V17.1968H9.35722Z" fill="#CA3745"/>
<path fill-rule="evenodd" clip-rule="evenodd" d="M9.68677 17.1813H9.32782L9.56155 17.4734V19.4466L9.32782 19.7387H9.68677V17.1813ZM9.66354 17.2122V19.7077H9.38658L9.58478 19.46V17.4599L9.38658 17.2122H9.66354Z" fill="black"/>
<path fill-rule="evenodd" clip-rule="evenodd" d="M9.35925 19.719L9.04432 20.1125H9.35925V19.719Z" fill="#CA3745"/>
<path fill-rule="evenodd" clip-rule="evenodd" d="M9.37256 20.1298H9.01151L9.37256 19.6786V20.1298ZM9.34643 20.0949V19.759L9.07761 20.0949H9.34643Z" fill="black"/>
<path fill-rule="evenodd" clip-rule="evenodd" d="M9.35925 17.1935L9.04432 16.7999H9.35925V17.1935Z" fill="#CA3745"/>
<path fill-rule="evenodd" clip-rule="evenodd" d="M9.37256 16.7827H9.01151L9.37256 17.2339V16.7827ZM9.34643 16.8176V17.1535L9.07761 16.8176H9.34643Z" fill="black"/>
<path fill-rule="evenodd" clip-rule="evenodd" d="M6.8147 17.1935L7.12963 16.7999H6.8147V17.1935Z" fill="#CA3745"/>
<path fill-rule="evenodd" clip-rule="evenodd" d="M6.80139 16.7827H7.16244L6.80139 17.2339V16.7827ZM6.82752 16.8176V17.1535L7.09634 16.8176H6.82752Z" fill="black"/>
<path fill-rule="evenodd" clip-rule="evenodd" d="M7.13033 16.9344L6.7104 17.4592V19.4533L7.13033 19.9856H9.05003L9.46997 19.4608V17.4667L9.04404 16.9344H7.13033ZM7.13033 16.7994L6.60242 17.4592V19.4533L7.13033 20.1206H9.05003L9.57795 19.4533V17.4592L9.04404 16.7994H7.13033Z" fill="#00843D"/>
<path fill-rule="evenodd" clip-rule="evenodd" d="M7.12576 16.7841H9.04861L9.58959 17.4525V19.4601L9.05468 20.1361H7.12572L6.59082 19.4601V17.4526L7.12576 16.7841ZM7.13495 16.815L6.61405 17.466V19.4468L7.13498 20.1052H9.04542L9.56636 19.4468V17.466L9.0395 16.815H7.13495ZM7.12576 16.919H9.04865L9.4816 17.4601V19.4676L9.05465 20.0012H7.12571L6.6988 19.4601V17.4526L7.12576 16.919ZM7.13495 16.95L6.72203 17.466V19.4468L7.13499 19.9702H9.04546L9.45837 19.4542V17.4735L9.03946 16.95H7.13495Z" fill="black"/>
<path fill-rule="evenodd" clip-rule="evenodd" d="M9.67676 18.336H10.1027L10.2107 18.4574L10.1027 18.5789H9.68276V18.3292L9.67676 18.336Z" fill="#FAAE29"/>
<path fill-rule="evenodd" clip-rule="evenodd" d="M9.67477 18.3468H9.65442L9.6913 18.3053V18.3247H10.106L10.2238 18.4572L10.106 18.5897H9.67477V18.3468ZM9.6913 18.3468H10.0999L10.1981 18.4572L10.0999 18.5677H9.6913V18.3468Z" fill="black"/>
<path fill-rule="evenodd" clip-rule="evenodd" d="M9.67676 18.5728H10.1027L10.2107 18.6942L10.1027 18.8157H9.68276V18.566L9.67676 18.5728Z" fill="#CA3745"/>
<path fill-rule="evenodd" clip-rule="evenodd" d="M9.67477 18.5837H9.65442L9.6913 18.5422V18.5617H10.106L10.2238 18.6941L10.106 18.8266H9.67477V18.5837ZM9.6913 18.5837H10.0999L10.1981 18.6941L10.0999 18.8046H9.6913V18.5837Z" fill="black"/>
<path fill-rule="evenodd" clip-rule="evenodd" d="M9.67676 18.8109H10.1027L10.2107 18.9324L10.1027 19.0539H9.68276V18.8042L9.67676 18.8109Z" fill="#FAAE29"/>
<path fill-rule="evenodd" clip-rule="evenodd" d="M9.67477 18.8218H9.65442L9.6913 18.7803V18.7997H10.106L10.2238 18.9322L10.106 19.0647H9.67477V18.8218ZM9.6913 18.8218H10.0999L10.1981 18.9322L10.0999 19.0426H9.6913V18.8218Z" fill="black"/>
<path fill-rule="evenodd" clip-rule="evenodd" d="M9.67676 17.8546H10.1027L10.2107 17.9761L10.1027 18.0976H9.68276V17.8479L9.67676 17.8546Z" fill="#FAAE29"/>
<path fill-rule="evenodd" clip-rule="evenodd" d="M9.67477 17.8656H9.65442L9.6913 17.8241V17.8435H10.106L10.2238 17.976L10.106 18.1085H9.67477V17.8656ZM9.6913 17.8656H10.0999L10.1981 17.976L10.0999 18.0865H9.6913V17.8656Z" fill="black"/>
<path fill-rule="evenodd" clip-rule="evenodd" d="M6.49219 18.0977H6.06625L5.95827 18.2191L6.06625 18.3406H6.48619V18.0909L6.49219 18.0977Z" fill="#CA3745"/>
<path fill-rule="evenodd" clip-rule="evenodd" d="M6.49418 18.1087H6.51453L6.47765 18.0673V18.0867H6.06296L5.94518 18.2192L6.06296 18.3516H6.49418V18.1087ZM6.47765 18.1087H6.069L5.97081 18.2192L6.069 18.3296H6.47765V18.1087Z" fill="black"/>
<path fill-rule="evenodd" clip-rule="evenodd" d="M6.49219 18.336H6.06625L5.95827 18.4574L6.06625 18.5789H6.48619V18.3292L6.49219 18.336Z" fill="#FAAE29"/>
<path fill-rule="evenodd" clip-rule="evenodd" d="M6.49418 18.3468H6.51453L6.47765 18.3053V18.3247H6.06296L5.94518 18.4572L6.06296 18.5897H6.49418V18.3468ZM6.47765 18.3468H6.069L5.97081 18.4572L6.069 18.5677H6.47765V18.3468Z" fill="black"/>
<path fill-rule="evenodd" clip-rule="evenodd" d="M6.49219 18.5728H6.06625L5.95827 18.6942L6.06625 18.8157H6.48619V18.566L6.49219 18.5728Z" fill="#CA3745"/>
<path fill-rule="evenodd" clip-rule="evenodd" d="M6.49418 18.5837H6.51453L6.47765 18.5422V18.5617H6.06296L5.94518 18.6941L6.06296 18.8266H6.49418V18.5837ZM6.47765 18.5837H6.069L5.97081 18.6941L6.069 18.8046H6.47765V18.5837Z" fill="black"/>
<path fill-rule="evenodd" clip-rule="evenodd" d="M6.49219 18.8109H6.06625L5.95827 18.9324L6.06625 19.0539H6.48619V18.8042L6.49219 18.8109Z" fill="#FAAE29"/>
<path fill-rule="evenodd" clip-rule="evenodd" d="M6.49418 18.8218H6.51453L6.47765 18.7803V18.7997H6.06296L5.94518 18.9322L6.06296 19.0647H6.49418V18.8218ZM6.47765 18.8218H6.069L5.97081 18.9322L6.069 19.0426H6.47765V18.8218Z" fill="black"/>
<path fill-rule="evenodd" clip-rule="evenodd" d="M6.49219 17.8546H6.06625L5.95827 17.9761L6.06625 18.0976H6.48619V17.8479L6.49219 17.8546Z" fill="#FAAE29"/>
<path fill-rule="evenodd" clip-rule="evenodd" d="M6.49418 17.8656H6.51453L6.47765 17.8241V17.8435H6.06296L5.94518 17.976L6.06296 18.1085H6.49418V17.8656ZM6.47765 17.8656H6.069L5.97081 17.976L6.069 18.0865H6.47765V17.8656Z" fill="black"/>
<path fill-rule="evenodd" clip-rule="evenodd" d="M5.85046 17.0694V19.8432H6.38438V20.5105H9.78585V19.8432H10.3138V17.0694H9.78585V16.4097H6.38438V17.0694H5.85046ZM5.95845 17.1968V19.7233H6.48636V20.383H9.67787V19.7233H10.2118V17.1968H9.67787V16.5446H6.48636V17.2043H5.95845V17.1968Z" fill="#970000"/>
<path fill-rule="evenodd" clip-rule="evenodd" d="M6.37608 16.3981H9.79497V17.0578H10.3229V19.8549H9.79497V20.5221H6.37608V19.8549H5.84216V17.0578H6.37608V16.3981ZM6.3935 16.4213V17.081H5.85959V19.8316H6.3935V20.4989H9.77755V19.8316H10.3055V17.081H9.77755V16.4213H6.3935ZM6.47806 16.533H9.68699V17.1852H10.2209V19.7349H9.68699V20.3946H6.47806V19.7349H5.95015V17.1969H5.95886V17.1927H6.47806V16.533ZM5.96757 17.216V19.7117H6.49549V20.3714H9.66957V19.7117H10.2035V17.2085H9.66957V16.5562H6.49549V17.216H5.96757Z" fill="black"/>
<path fill-rule="evenodd" clip-rule="evenodd" d="M10.7401 6.68794L10.4221 6.17608V5.79398L10.1042 5.41188H9.46828L8.93436 5.02979H7.23663L6.70271 5.41188H6.06681L5.74886 5.79398V6.17608L5.43091 6.68073V7.71167L5.74886 8.21633V8.60563L6.06681 8.98773H6.70271L7.23663 9.36983H8.93436L9.46828 8.98773H10.1042L10.4281 8.60563V8.22354L10.7461 7.71167V6.68073L10.7401 6.68794Z" fill="#CA3745"/>
<path fill-rule="evenodd" clip-rule="evenodd" d="M7.23472 5.01831H8.93675L9.47067 5.40041H10.1077L10.4309 5.78883V6.17189L10.7412 6.67144L10.7549 6.65505V7.71569L10.4369 8.22756V8.61068L10.1077 8.99904H9.47067L8.93675 9.38114H7.23472L6.7008 8.99904H6.06377L5.74056 8.61062V8.2204L5.42261 7.71574V6.6765L5.74056 6.17184V5.78883L6.06377 5.40041H6.7008L7.23472 5.01831ZM10.7378 6.70162L10.4138 6.1801V5.79896L10.1011 5.42319H9.46637L8.93246 5.04109H7.23902L6.7051 5.42319H6.07033L5.75764 5.79896V6.18014L5.43969 6.6848V7.70744L5.75764 8.2121V8.60048L6.07033 8.97626H6.7051L7.23902 9.35835H8.93246L9.46637 8.97626H10.1012L10.4198 8.60042V8.21935L10.7378 7.70748V6.70162Z" fill="black"/>
<path fill-rule="evenodd" clip-rule="evenodd" d="M5.53455 7.19995V7.5812L5.8533 8.0937V8.47495L6.17205 8.86245H6.80955L7.34392 9.23745H8.08455V7.2062H5.53455V7.19995Z" fill="#FAAE29"/>
<path fill-rule="evenodd" clip-rule="evenodd" d="M7.18892 8.09375L6.79985 8.425H6.56548L6.64517 8.53125L6.49048 8.75L6.57017 8.8625L6.80454 8.75L6.87954 8.8625L6.91235 8.56875L7.3436 8.21875L7.18892 8.09375V8.09375Z" fill="#CA3745"/>
<path fill-rule="evenodd" clip-rule="evenodd" d="M6.76228 7.83745L6.37322 8.1687H6.14353L6.21853 8.27495L6.06853 8.4937L6.14353 8.6062L6.37791 8.4937L6.45291 8.6062L6.49041 8.31245L6.91697 7.9687L6.76228 7.8437V7.83745ZM6.55134 7.32495L6.16228 7.6562H5.92791L6.00759 7.7687L5.85291 7.98745L5.93259 8.0937L6.16697 7.9812L6.24197 8.0937L6.27478 7.79995L6.70603 7.4562L6.55134 7.3312V7.32495Z" fill="#CA3745"/>
<path fill-rule="evenodd" clip-rule="evenodd" d="M10.6348 7.19988V6.81863L10.3161 6.30613V5.92488L9.99734 5.53738H9.35984L8.83015 5.15613H8.08484V7.19988H10.6348V7.19988Z" fill="#FAAE29"/>
<path fill-rule="evenodd" clip-rule="evenodd" d="M8.08423 9.24373H7.88735L7.66235 8.98748H7.29673L7.09985 8.86248L7.19829 8.73748L7.39517 8.86248H7.59204L7.78892 8.47498L8.08423 8.59998V8.86248H7.78892L8.08423 9.23748V9.24373Z" fill="#CA3745"/>
<path fill-rule="evenodd" clip-rule="evenodd" d="M5.53455 7.19988V6.81863L5.8533 6.30613V5.92488L6.17205 5.53738H6.80955L7.34392 5.15613H8.08455V7.19988H5.53455V7.19988Z" fill="white"/>
<path fill-rule="evenodd" clip-rule="evenodd" d="M8.08423 5.15613H7.88735L7.66235 5.40613H7.29673L7.09985 5.53738L7.19829 5.66238L7.39517 5.53738H7.59204L7.78892 5.92488L8.08423 5.79988V5.53738H7.78892L8.08423 5.15613Z" fill="#CA3745"/>
<path fill-rule="evenodd" clip-rule="evenodd" d="M8.08484 5.15613H8.28171L8.5114 5.40613H8.87234L9.06921 5.53738L8.97546 5.66238L8.7739 5.53738H8.57703L8.38015 5.92488L8.08484 5.79988V5.53738H8.38015L8.08484 5.15613V5.15613Z" fill="#CA3745"/>
<path fill-rule="evenodd" clip-rule="evenodd" d="M10.6348 7.19995V7.5812L10.3161 8.0937V8.47495L9.99734 8.86245H9.35984L8.83015 9.23745H8.08484V7.2062H10.6348V7.19995Z" fill="white"/>
<path fill-rule="evenodd" clip-rule="evenodd" d="M8.08411 9.24373H8.28098L8.51067 8.98748H8.87161L9.06848 8.86248L8.97473 8.73748L8.77317 8.86248H8.57629L8.37942 8.47498L8.08411 8.59998V8.86248H8.37942L8.08411 9.23748V9.24373ZM6.76223 6.55623L6.37317 6.23123H6.14348L6.21848 6.12498L6.06848 5.90623L6.14348 5.79373L6.37786 5.90623L6.45286 5.79373L6.49036 6.08748L6.91692 6.43123L6.76223 6.55623V6.55623ZM8.98411 6.30623L9.36848 5.97498H9.60286L9.52317 5.86873L9.67786 5.64998L9.60286 5.53748L9.36848 5.64998L9.29348 5.53748L9.25598 5.83123L8.82942 6.18123L8.98411 6.30623V6.30623Z" fill="#CA3745"/>
<path fill-rule="evenodd" clip-rule="evenodd" d="M7.18938 6.30623L6.80032 5.97498H6.56594L6.64563 5.86873L6.49094 5.64998L6.57063 5.53748L6.80501 5.64998L6.88 5.53748L6.91282 5.83123L7.34407 6.17498L7.18938 6.29998V6.30623ZM6.54719 7.07498L6.15813 6.74373H5.92375L6.00344 6.63123L5.84875 6.41248L5.93782 6.31248L6.17219 6.42498L6.24719 6.31248L6.28001 6.60623L6.71126 6.94998L6.55657 7.07498H6.54719Z" fill="#CA3745"/>
<path fill-rule="evenodd" clip-rule="evenodd" d="M5.72693 7.19995H5.82068L5.91912 7.32495L6.01755 7.19995H8.08474V8.98745H7.99099L8.08474 9.11245V9.24995L7.78943 8.8687V8.7437H7.88787V8.8687H7.9863V8.7437L7.18943 8.1812H6.51443V7.6187L6.21912 7.33745H6.02224L5.9238 7.46245L6.01755 7.58745H5.9238L5.72693 7.21245V7.19995Z" fill="white"/>
<path fill-rule="evenodd" clip-rule="evenodd" d="M5.72693 7.19988H5.82068L5.91912 7.07488L6.01755 7.19988H8.08474V5.41238H7.99099L8.08474 5.28738V5.15613L7.78943 5.53738V5.66238H7.88787V5.53738H7.9863V5.66238L7.18943 6.23113H6.51443V6.78738L6.21912 7.07488H6.02224L5.9238 6.94988L6.01755 6.81863H5.9238L5.72693 7.19988Z" fill="#FAAE29"/>
<path fill-rule="evenodd" clip-rule="evenodd" d="M6.17212 7.19995H8.08462V8.7312L7.23618 8.0937H6.59868V7.5812L6.17681 7.19995H6.17212Z" fill="#00843D"/>
<path fill-rule="evenodd" clip-rule="evenodd" d="M9.40647 6.56245L9.79553 6.2312H10.0299L9.95022 6.12495L10.1049 5.9062L10.0299 5.7937L9.79553 5.9062L9.72053 5.7937L9.68303 6.08745L9.25647 6.4312L9.40647 6.5562V6.56245ZM9.62209 7.07495L10.0112 6.7437H10.2408L10.1612 6.6312L10.3158 6.41245L10.2408 6.3062L10.0065 6.4187L9.93147 6.3062L9.89397 6.59995L9.46741 6.9437L9.62209 7.0687V7.07495Z" fill="#CA3745"/>
<path fill-rule="evenodd" clip-rule="evenodd" d="M10.4473 7.19988H10.3489L10.2505 7.07488L10.152 7.19988H8.08484V5.41238H8.18328L8.08484 5.28738V5.15613L8.38015 5.53738V5.66238H8.28171V5.53738H8.18328V5.66238L8.98015 6.23113H9.65515V6.78738L9.95515 7.07488H10.152L10.2458 6.94988L10.152 6.81863H10.2458L10.4473 7.19988V7.19988Z" fill="white"/>
<path fill-rule="evenodd" clip-rule="evenodd" d="M9.99734 7.19995H8.08484V5.6687L8.93796 6.3062H9.57546V6.8187L10.002 7.19995H9.99734Z" fill="#00843D"/>
<path fill-rule="evenodd" clip-rule="evenodd" d="M8.98501 8.09375L9.36938 8.425H9.60376L9.52407 8.53125L9.67876 8.75L9.60376 8.8625L9.36938 8.75L9.29439 8.8625L9.25689 8.56875L8.83032 8.21875L8.98501 8.09375V8.09375Z" fill="#CA3745"/>
<path fill-rule="evenodd" clip-rule="evenodd" d="M9.40647 7.83745L9.79553 8.1687H10.0299L9.95022 8.27495L10.1049 8.4937L10.0299 8.6062L9.79553 8.4937L9.72053 8.6062L9.68303 8.31245L9.25647 7.9687L9.40647 7.8437V7.83745ZM9.62209 7.32495L10.0112 7.6562H10.2408L10.1612 7.76245L10.3158 7.9812L10.2408 8.0937L10.0065 7.9812L9.93147 8.0937L9.89397 7.79995L9.46741 7.4562L9.62209 7.3312V7.32495Z" fill="#CA3745"/>
<path fill-rule="evenodd" clip-rule="evenodd" d="M10.4473 7.19995H10.3489L10.2505 7.32495L10.152 7.19995H8.08484V8.98745H8.18328L8.08484 9.11245V9.24995L8.38015 8.8687V8.7437H8.28171V8.8687H8.18328V8.7437L8.98015 8.1812H9.65515V7.6187L9.95515 7.33745H10.152L10.2458 7.46245L10.152 7.58745H10.2458L10.4473 7.21245V7.19995Z" fill="#FAAE29"/>
<path fill-rule="evenodd" clip-rule="evenodd" d="M9.99712 7.19995H8.08462V8.7312L8.93774 8.0937H9.57524V7.5812L10.0018 7.19995H9.99712ZM6.17212 7.19995H8.08462V5.6687L7.23618 6.3062H6.59868V6.8187L6.17681 7.19995H6.17212Z" fill="#CA3745"/>
<path fill-rule="evenodd" clip-rule="evenodd" d="M8.29561 7.1999L8.82998 6.81865H9.14873L9.04092 6.69365L9.25654 6.43115L9.14873 6.30615L8.82998 6.43115L8.72217 6.30615L8.67529 6.6499L8.08467 7.0499L8.29561 7.1999V7.1999ZM7.87373 7.1999L7.34404 7.58115H7.02529L7.12842 7.70615L6.91748 7.96865L7.02529 8.09365L7.34404 7.96865L7.44717 8.09365L7.49404 7.7499L8.08467 7.3499L7.87373 7.1999Z" fill="#CA3745"/>
<path fill-rule="evenodd" clip-rule="evenodd" d="M7.87319 7.1999L7.34351 6.81865H7.02476L7.13257 6.69365L6.92163 6.43115L7.02944 6.30615L7.34819 6.43115L7.45132 6.30615L7.49819 6.6499L8.08882 7.0499L7.87788 7.1999H7.87319ZM8.29507 7.1999L8.82944 7.58115H9.14819L9.04038 7.70615L9.25601 7.96865L9.14819 8.09365L8.82944 7.96865L8.72163 8.09365L8.67476 7.7499L8.08413 7.3499L8.29507 7.1999V7.1999Z" fill="#00843D"/>
<path fill-rule="evenodd" clip-rule="evenodd" d="M7.44727 7.2L8.08477 6.5625L8.72227 7.2L8.08477 7.8375L7.44727 7.2V7.2Z" fill="white"/>
<path fill-rule="evenodd" clip-rule="evenodd" d="M6.01777 7.4562L6.11621 7.5812L6.02246 7.7062H5.91934L5.62402 7.19995H5.72246L5.91934 7.5812H6.01777L5.92402 7.4562L6.01777 7.3312H6.21934V7.4562H6.02246H6.01777Z" fill="#CA3745"/>
<path fill-rule="evenodd" clip-rule="evenodd" d="M6.01777 6.94373L6.11621 6.81873L6.02246 6.69373H5.91934L5.62402 7.19998H5.72246L5.91934 6.81873H6.01777L5.92402 6.94373L6.01777 7.06873H6.21934V6.94373H6.02246H6.01777ZM10.1521 7.45623L10.0584 7.58123L10.1521 7.70623H10.2506L10.5459 7.19998H10.4521L10.2506 7.58123H10.1568L10.2506 7.45623L10.1568 7.33123H9.95527V7.45623H10.1521V7.45623Z" fill="#CA3745"/>
<path fill-rule="evenodd" clip-rule="evenodd" d="M10.1565 6.94373L10.0534 6.81873L10.1518 6.69373H10.2503L10.5456 7.19998H10.4518L10.2503 6.81873H10.1565L10.2503 6.94373L10.1565 7.06873H9.95496V6.94373H10.1518H10.1565ZM7.98621 6.69373H8.18308V7.71248H7.98621V6.69373Z" fill="#CA3745"/>
<path fill-rule="evenodd" clip-rule="evenodd" d="M7.69104 6.94373H8.47854V7.45623H7.69104V6.94373Z" fill="#CA3745"/>
<path fill-rule="evenodd" clip-rule="evenodd" d="M7.1857 26.6119L5.41931 27.9103V30.0262L7.20237 31.3245H8.96876L10.7351 30.0262V27.9103L8.96876 26.636H7.20237L7.1857 26.6119Z" fill="#00843D"/>
<path fill-rule="evenodd" clip-rule="evenodd" d="M7.18697 26.5974L7.20567 26.6244H8.97047L10.7433 27.9034V30.0329L8.9705 31.336H7.19967L5.41016 30.033V27.9034L7.18697 26.5974ZM5.42749 27.9171V30.0193L7.20409 31.3129H8.96604L10.726 30.0193V27.9171L8.96608 26.6475H7.19809L7.18346 26.6264L5.42749 27.9171Z" fill="black"/>
<path fill-rule="evenodd" clip-rule="evenodd" d="M6.08752 28.7687H6.19065V28.5H6.40627V28.7625H6.51409V28.15H6.40627V28.4125H6.19534V28.15H6.08752V28.7625V28.7687ZM8.80159 30.8062H8.9094V30.5437H9.12034V30.8062H9.22815V30.1875H9.12502V30.45H8.9094V30.1875H8.80627V30.8L8.80159 30.8062ZM7.08596 27.7437H7.19377V27.4874H7.4094V27.75H7.51252V27.1375H7.4094V27.4H7.19377V27.1375H7.08596V27.75V27.7437ZM8.65627 27.7437H8.76409V27.4874H8.97971V27.75H9.08752V27.1375H8.97971V27.4H8.76409V27.1375H8.65627V27.75V27.7437ZM9.6594 28.7687H9.76252V28.5H9.97815V28.7625H10.086V28.15H9.97815V28.4125H9.76252V28.15H9.6594V28.7625V28.7687ZM9.6594 29.7875H9.76252V29.525H9.97815V29.7875H10.086V29.1749H9.97815V29.4375H9.76252V29.1749H9.6594V29.7875Z" fill="#CC0000"/>
<path fill-rule="evenodd" clip-rule="evenodd" d="M8.08425 31.2125V28.9687H10.6577V29.9874L8.93738 31.2125H8.07957H8.08425ZM8.08425 26.7312V28.9687H5.5155V27.95L7.22644 26.7312H8.08425Z" fill="#FAAE29"/>
<path fill-rule="evenodd" clip-rule="evenodd" d="M8.08425 26.7312V28.9687H10.6577V27.95L8.93738 26.7312H8.07957H8.08425ZM8.08425 31.2125V28.9687H5.5155V29.9874L7.22644 31.2125H8.08425V31.2125Z" fill="white"/>
<path fill-rule="evenodd" clip-rule="evenodd" d="M9.45813 28.0574H10.4886L9.45813 27.4479V28.0574ZM10.658 27.9539V28.9716H9.03239V28.1609H8.6889L8.25832 27.8561V27.1431L8.51957 26.8326H8.17607V27.8561H8.08899V26.7349H8.94531L10.658 27.9539V27.9539Z" fill="#FAAE29"/>
<path fill-rule="evenodd" clip-rule="evenodd" d="M8.08655 26.7319H8.94572L10.6589 27.9513L10.6578 27.954H10.6601V28.9748H9.02995V28.164H8.68817L8.25588 27.8581V27.1419L8.51342 26.8358H8.1782V27.8593H8.08655V26.7319ZM10.6555 27.9558L8.94458 26.738H8.09112V27.8532H8.17363V26.8297H8.52541L8.26044 27.1446V27.8544L8.68931 28.1579H9.03452V28.9687H10.6555V27.9558ZM9.45569 27.4433L10.4894 28.0547L10.4885 28.0605H9.45569V27.4433ZM9.46026 27.4527V28.0544H10.4777L9.46026 27.4527Z" fill="black"/>
<path fill-rule="evenodd" clip-rule="evenodd" d="M7.22681 28.2562V29.6875H7.48462L8.08462 30.1L8.68462 29.6875H8.94243V28.2625H8.68462L8.08462 27.8562L7.48462 28.2625H7.22681V28.2562Z" fill="#CA3745"/>
<path fill-rule="evenodd" clip-rule="evenodd" d="M6.71569 29.8862H5.68521L6.71569 30.4957V29.8862ZM5.51588 29.9897V28.972H7.14143V29.7827H7.48493L7.91551 30.0875V30.8005L7.65426 31.111H7.99776V30.0875H8.08484V31.2087H7.22852L5.51588 29.9897V29.9897Z" fill="#FAAE29"/>
<path fill-rule="evenodd" clip-rule="evenodd" d="M8.08655 31.2118H7.22737L5.51423 29.9924L5.5153 29.9897H5.51302V28.969H7.14314V29.7797H7.48492L7.91722 30.0857V30.8019L7.65968 31.108H7.9949V30.0845H8.08655V31.2118ZM5.51759 29.9879L7.22851 31.2057H8.08198V30.0905H7.99946V31.114H7.64769L7.91265 30.7991V30.0893L7.48379 29.7858H7.13858V28.975H5.51759V29.9879ZM6.7174 30.5004L5.6837 29.889L5.68463 29.8832H6.7174V30.5004ZM6.71283 30.4911V29.8893H5.69541L6.71283 30.4911Z" fill="black"/>
<path fill-rule="evenodd" clip-rule="evenodd" d="M6.71569 28.0574H5.68521L6.71569 27.4479V28.0574ZM5.51588 27.9539V28.9716H7.14143V28.1609H7.48493L7.91551 27.8561V27.1431L7.65426 26.8326H7.99776V27.8561H8.08484V26.7349H7.22852L5.51588 27.9539V27.9539Z" fill="white"/>
<path fill-rule="evenodd" clip-rule="evenodd" d="M8.08655 26.7319H7.22737L5.51423 27.9513L5.5153 27.954H5.51302V28.9748H7.14314V28.164H7.48492L7.91722 27.8581V27.1419L7.65968 26.8358H7.9949V27.8593H8.08655V26.7319ZM5.51759 27.9558L7.22851 26.738H8.08198V27.8532H7.99946V26.8297H7.64769L7.91265 27.1446V27.8544L7.48379 28.1579H7.13858V28.9687H5.51759V27.9558ZM6.7174 27.4433L5.6837 28.0547L5.68463 28.0605H6.7174V27.4433ZM6.71283 27.4527V28.0544H5.69541L6.71283 27.4527Z" fill="black"/>
<path fill-rule="evenodd" clip-rule="evenodd" d="M9.45813 29.8862H10.4886L9.45813 30.4957V29.8862ZM10.658 29.9897V28.972H9.03239V29.7827H8.6889L8.25832 30.0875V30.8005L8.51957 31.111H8.17607V30.0875H8.08899V31.2087H8.94531L10.658 29.9897V29.9897Z" fill="white"/>
<path fill-rule="evenodd" clip-rule="evenodd" d="M8.08655 31.2118H8.94572L10.6589 29.9924L10.6578 29.9897H10.6601V28.969H9.02995V29.7797H8.68817L8.25588 30.0857V30.8019L8.51342 31.108H8.1782V30.0845H8.08655V31.2118ZM10.6555 29.9879L8.94458 31.2057H8.09112V30.0905H8.17363V31.114H8.52541L8.26044 30.7991V30.0893L8.68931 29.7858H9.03452V28.975H10.6555V29.9879ZM9.45569 30.5004L10.4894 29.889L10.4885 29.8832H9.45569V30.5004ZM9.46026 30.4911V29.8893H10.4777L9.46026 30.4911Z" fill="black"/>
<path fill-rule="evenodd" clip-rule="evenodd" d="M6.03081 29.7875H6.13394V29.475H6.34956V29.7875H6.45737V29.075H6.34956V29.3812H6.13394V29.0687H6.03081V29.7875ZM7.05737 30.8062H7.16519V30.4937H7.37612V30.8062H7.48394V30.0937H7.37612V30.4H7.16519V30.0875H7.05737V30.8125V30.8062ZM6.02612 28.1562H6.13394V28.4625H6.34956V28.15H6.45737V28.875H6.34956V28.5625H6.13394V28.8687H6.03081V28.1562H6.02612ZM7.05737 27.1375H7.16519V27.4437H7.37612V27.1312H7.48394V27.85H7.37612V27.5437H7.16519V27.8562H7.05737V27.1375ZM8.68394 30.8062H8.79175V30.4937H9.00737V30.8062H9.11519V30.0937H9.00737V30.4H8.79175V30.0875H8.68394V30.8125V30.8062ZM9.71519 28.8687H9.823V28.5625H10.0339V28.875H10.1417V28.1562H10.0339V28.4625H9.82768V28.15H9.71987V28.875L9.71519 28.8687Z" fill="#CA3745"/>
<path fill-rule="evenodd" clip-rule="evenodd" d="M8.68433 30.8063H8.79214V30.4938H9.00776V30.8063H9.11558V30.0938H9.00776V30.4H8.79214V30.0875H8.68433V30.8125V30.8063Z" fill="#CA3745"/>
<path fill-rule="evenodd" clip-rule="evenodd" d="M8.68433 30.8062H8.79214V30.4937H9.00776V30.8062H9.11558V30.0937H9.00776V30.4H8.79214V30.0875H8.68433V30.8125V30.8062ZM9.71558 29.7875H9.82339V29.475H10.0343V29.7875H10.1421V29.075H10.0343V29.375H9.82808V29.0687H9.72026V29.7875H9.71558ZM8.68433 27.85H8.79214V27.5437H9.00776V27.8562H9.11558V27.1375H9.00776V27.4437H8.79214V27.1312H8.68433V27.85Z" fill="#CA3745"/>
<path fill-rule="evenodd" clip-rule="evenodd" d="M8.17346 28.9687L8.51565 28.5937H8.6844V28.7812H8.51565V28.875H8.77346V28.5062H8.51565V28.225H8.17346V28.5062H8.25784V28.3187H8.42659V28.5062L8.0844 28.8812L7.74221 28.5062V28.3187H7.91565V28.5062H8.00002V28.225H7.65784V28.5062H7.40002V28.8812H7.65784V28.7875H7.4844V28.6H7.65784L8.00002 28.975L7.65784 29.3437H7.4844V29.1562H7.65784V29.0625H7.40002V29.4375H7.65784V29.7125H8.00002V29.4375H7.91565V29.625H7.74221V29.4375L8.0844 29.0625L8.42659 29.4375V29.625H8.25784V29.4375H8.17346V29.7125H8.51565V29.4375H8.77346V29.0625H8.51565V29.1562H8.6844V29.3437H8.51565L8.17346 28.9687Z" fill="white"/>
<path fill-rule="evenodd" clip-rule="evenodd" d="M5.68306 13.1819L5.84755 12.9543H6.84417L7.58922 11.954H8.58584L9.33089 12.9603H10.3275L10.492 13.1819L10.3275 13.4035H9.32605L8.581 14.4098H7.58438L6.84417 13.4035H5.84271L5.67822 13.1819H5.68306Z" fill="#CA3745"/>
<path fill-rule="evenodd" clip-rule="evenodd" d="M5.76782 13.2002L5.85791 13.0913H6.8849L7.65514 12.0349H8.51097L9.28571 13.0967H10.3127L10.3983 13.2056L10.3127 13.3091H9.28571L8.59655 14.262H7.56956L6.8849 13.3091H5.8534L5.76782 13.2002V13.2002Z" fill="#CA3745"/>
<path fill-rule="evenodd" clip-rule="evenodd" d="M7.65271 12.0264H8.51397L9.28872 13.0882H10.3156L10.408 13.2058L10.3155 13.3177H9.28874L8.59957 14.2706H7.5671L6.88244 13.3177H5.85112L5.76367 13.2064L5.76811 13.2002L5.76379 13.1939L5.85572 13.0828H6.88247L7.65271 12.0264ZM5.77756 13.2004L5.85627 13.3006H6.88794L7.5726 14.2535H8.59411L9.28327 13.3006H10.3105L10.3891 13.2055L10.3104 13.1054H9.28329L8.50854 12.0435H7.65815L6.88791 13.0999H5.86068L5.77756 13.2004Z" fill="black"/>
<path fill-rule="evenodd" clip-rule="evenodd" d="M8.50358 13.2958L8.83256 13.739L8.66807 13.9606L8.58098 13.8528H8.50358V13.9606L8.58582 14.0744H8.75515L8.91964 13.8528V13.6252L8.58582 13.1819L8.91964 12.7327V12.5111L8.75515 12.2895H8.58582L8.50358 12.3973V12.5111H8.58582L8.67291 12.3973L8.8374 12.6249L8.50358 13.0681L8.17459 12.6249L8.50358 12.1756V12.0618H8.42133L8.09235 12.5111L7.75853 12.0618H7.67628V12.1756L8.00527 12.6249L7.67628 13.0681L7.34246 12.6249L7.51179 12.3973L7.59404 12.5111H7.67628V12.3973L7.59404 12.2895H7.42471L7.26022 12.5111V12.7327L7.59404 13.1819L7.26022 13.6252V13.8528L7.42471 14.0744H7.59404L7.67628 13.9606V13.8528H7.58436L7.50212 13.9606L7.33279 13.739L7.66661 13.2958L7.99559 13.739L7.66661 14.1882V14.2961H7.74885L8.08267 13.8528L8.41166 14.2961H8.4939V14.1882L8.16492 13.739L8.4939 13.2958H8.50358ZM8.08751 12.7327L7.75369 13.1819L8.08751 13.6252L8.41649 13.1819L8.08751 12.7327ZM7.5892 14.4099V15.3084L7.67145 15.1886L7.75369 15.3084L7.83594 15.1886L7.91818 15.3084L8.00527 15.1886L8.08751 15.3084L8.16976 15.1886L8.252 15.3084L8.33425 15.1886L8.41649 15.3084L8.49874 15.1886L8.58582 15.3084V14.4099H7.58436H7.5892ZM8.58582 11.954V11.0555L8.49874 11.1753L8.41649 11.0555L8.33425 11.1753L8.252 11.0555L8.16976 11.1753L8.08751 11.0555L8.00043 11.1753L7.91818 11.0555L7.83594 11.1753L7.75369 11.0555L7.67145 11.1753L7.5892 11.0555V11.954H8.58582V11.954ZM9.98883 12.9603V12.0618L9.91143 12.1816L9.82918 12.0618L9.74693 12.1816L9.65985 12.0618L9.57761 12.1816L9.49536 12.0618L9.41311 12.1816L9.33087 12.0618V12.9603H9.99367H9.98883ZM6.84415 12.9603V12.0618L6.75707 12.1816L6.67482 12.0618L6.59258 12.1816L6.51033 12.0618L6.42809 12.1816L6.34584 12.0618L6.25876 12.1816L6.17651 12.0618V12.9603H6.83932H6.84415ZM9.99367 13.4036V14.3021L9.91143 14.1823L9.82918 14.3021L9.74693 14.1823L9.65985 14.3021L9.57761 14.1823L9.49536 14.3021L9.41311 14.1823L9.33087 14.3021V13.4036H9.99367V13.4036ZM6.83932 13.4036V14.3021L6.75707 14.1823L6.67482 14.3021L6.59258 14.1823L6.51033 14.3021L6.42809 14.1823L6.34584 14.3021L6.25876 14.1823L6.17651 14.3021V13.4036H6.83932V13.4036Z" fill="#FAAE29"/>
<path fill-rule="evenodd" clip-rule="evenodd" d="M8.58131 14.4099V14.9669L8.66839 14.8531L8.75064 14.9729L8.83289 14.8531L8.91513 14.9729L8.99738 14.8531L9.07962 14.9729L9.1667 14.8531L9.24895 14.9729L9.3312 14.8531V13.4036L8.58131 14.4099V14.4099ZM7.58953 14.4099V14.9669L7.50244 14.8531L7.4202 14.9729L7.33795 14.8531L7.25571 14.9729L7.17346 14.8531L7.09122 14.9729L7.00897 14.8531L6.92673 14.9729L6.83964 14.8531V13.4036L7.58953 14.4099V14.4099ZM7.58953 11.954V11.397L7.50244 11.5048L7.4202 11.397L7.33795 11.5048L7.25571 11.397L7.17346 11.5048L7.09122 11.397L7.00897 11.5048L6.92673 11.397L6.83964 11.5048V12.9603L7.58953 11.954V11.954ZM8.58131 11.954V11.397L8.66839 11.5048L8.75064 11.397L8.83289 11.5048L8.91513 11.397L8.99738 11.5048L9.07962 11.397L9.16187 11.5048L9.24895 11.397L9.3312 11.5048V12.9603L8.58131 11.954V11.954ZM6.17684 14.0744L6.09459 13.9606L6.01235 14.0804L5.9301 13.9606L5.84786 14.0804L5.76561 13.9606L5.67853 14.0804L5.59628 13.9606L5.51404 14.0804V12.2835L5.59628 12.4033L5.67853 12.2835L5.76561 12.4033L5.84786 12.2835L5.9301 12.4033L6.01235 12.2835L6.09459 12.4033L6.17684 12.2835V12.9603H5.84786L5.67853 13.182L5.84786 13.4036H6.17684V14.0744V14.0744ZM9.994 14.0744L10.0762 13.9606L10.1585 14.0804L10.2407 13.9606L10.3278 14.0804L10.4101 13.9606L10.4923 14.0804L10.5746 13.9606L10.6568 14.0804V12.2835L10.5746 12.4033L10.4923 12.2835L10.4101 12.4033L10.3278 12.2835L10.2407 12.4033L10.1585 12.2835L10.0762 12.4033L9.994 12.2835V12.9603H10.3278L10.4923 13.182L10.3278 13.4036H9.994V14.0744V14.0744Z" fill="#00843D"/>
<path fill-rule="evenodd" clip-rule="evenodd" d="M7.1781 14.4817C7.1781 14.4817 7.11037 14.5656 7.11037 14.6135C7.11037 14.6554 7.18294 14.7452 7.2168 14.7452C7.25551 14.7452 7.3184 14.6554 7.3184 14.6135C7.3184 14.5715 7.25067 14.4817 7.25067 14.4817V14.302C7.25067 14.302 7.39581 14.6075 7.39581 14.4757C7.39581 14.3799 7.25067 14.2181 7.25067 14.2181H7.1781C7.1781 14.2181 7.03296 14.4098 7.03296 14.4757C7.03296 14.6075 7.1781 14.302 7.1781 14.302V14.4817V14.4817Z" fill="white"/>
<path fill-rule="evenodd" clip-rule="evenodd" d="M8.04448 14.8232C8.04448 14.8232 7.96223 14.943 7.96223 15.0029C7.96223 15.0627 8.04932 15.1945 8.08802 15.1945C8.1364 15.1945 8.20897 15.0687 8.20897 15.0088C8.20897 14.9489 8.12672 14.8232 8.12672 14.8232V14.5716C8.12672 14.5716 8.27186 14.9789 8.27186 14.7932C8.27186 14.6734 8.12672 14.4518 8.12672 14.4518H8.04448C8.04448 14.4518 7.87515 14.7273 7.89934 14.7932C7.89934 14.9789 8.04448 14.5716 8.04448 14.5716V14.8232V14.8232Z" fill="#CA3745"/>
<path d="M7.17205 13.289C7.26255 13.289 7.33591 13.2382 7.33591 13.1755C7.33591 13.1128 7.26255 13.062 7.17205 13.062C7.08154 13.062 7.00818 13.1128 7.00818 13.1755C7.00818 13.2382 7.08154 13.289 7.17205 13.289Z" fill="#00843D"/>
<path d="M8.08647 13.289C8.17697 13.289 8.25034 13.2382 8.25034 13.1755C8.25034 13.1128 8.17697 13.062 8.08647 13.062C7.99597 13.062 7.92261 13.1128 7.92261 13.1755C7.92261 13.2382 7.99597 13.289 8.08647 13.289Z" fill="#00843D"/>
<path d="M8.99602 13.289C9.08652 13.289 9.15989 13.2382 9.15989 13.1755C9.15989 13.1128 9.08652 13.062 8.99602 13.062C8.90552 13.062 8.83215 13.1128 8.83215 13.1755C8.83215 13.2382 8.90552 13.289 8.99602 13.289Z" fill="#00843D"/>
<path fill-rule="evenodd" clip-rule="evenodd" d="M7.16389 11.8942C7.16389 11.8942 7.09616 11.8043 7.09616 11.7624C7.09616 11.7205 7.16873 11.6246 7.19776 11.6246C7.23646 11.6246 7.29936 11.7145 7.29936 11.7564C7.29936 11.8043 7.23162 11.8942 7.23162 11.8942V12.0739C7.23162 12.0739 7.3816 11.7624 7.3816 11.8942C7.3816 11.99 7.23646 12.1577 7.23646 12.1577H7.16389C7.16389 12.1577 7.01392 11.9661 7.01392 11.9002C7.01392 11.7684 7.15906 12.0679 7.15906 12.0679V11.8882L7.16389 11.8942Z" fill="white"/>
<path fill-rule="evenodd" clip-rule="evenodd" d="M8.02527 11.5468C8.02527 11.5468 7.94302 11.427 7.94302 11.3671C7.94302 11.3072 8.03494 11.1814 8.06881 11.1814C8.11719 11.1814 8.1946 11.3012 8.1946 11.3611C8.1946 11.421 8.11235 11.5528 8.11235 11.5528V11.7924C8.11235 11.7924 8.25749 11.391 8.25749 11.5767C8.25749 11.6965 8.11235 11.9241 8.11235 11.9241H8.02043C8.02043 11.9241 7.8511 11.6426 7.87529 11.5767C7.87529 11.397 8.02043 11.7984 8.02043 11.7984V11.5468H8.02527Z" fill="#CA3745"/>
<path fill-rule="evenodd" clip-rule="evenodd" d="M8.9444 14.4818C8.9444 14.4818 8.87667 14.5657 8.87667 14.6136C8.87667 14.6555 8.94924 14.7454 8.9831 14.7454C9.02181 14.7454 9.0847 14.6555 9.0847 14.6136C9.0847 14.5717 9.01697 14.4818 9.01697 14.4818V14.3021C9.01697 14.3021 9.16211 14.6076 9.16211 14.4758C9.16211 14.38 9.01697 14.2183 9.01697 14.2183H8.93956C8.93956 14.2183 8.79442 14.4099 8.79442 14.4758C8.79442 14.6076 8.93956 14.3021 8.93956 14.3021V14.4818H8.9444ZM8.92988 11.8942C8.92988 11.8942 8.86215 11.8043 8.86215 11.7564C8.86215 11.7205 8.93472 11.6246 8.96375 11.6246C9.00245 11.6246 9.06535 11.7145 9.06535 11.7564C9.06535 11.8043 8.99762 11.8942 8.99762 11.8942V12.0739C8.99762 12.0739 9.14759 11.7624 9.14759 11.8942C9.14759 11.99 9.00245 12.1577 9.00245 12.1577H8.92988C8.92988 12.1577 8.77991 11.9661 8.77991 11.9002C8.77991 11.7684 8.92505 12.0679 8.92505 12.0679V11.8882L8.92988 11.8942Z" fill="white"/>
<path fill-rule="evenodd" clip-rule="evenodd" d="M6.45719 13.8587C6.45719 13.8587 6.36527 13.9426 6.36527 13.9785C6.36527 14.0205 6.46203 14.1103 6.50557 14.1043C6.55395 14.1043 6.64103 14.0265 6.64103 13.9845C6.64103 13.9426 6.54911 13.8587 6.54911 13.8587V13.691C6.54911 13.691 6.7136 13.9606 6.7136 13.8408C6.7136 13.7569 6.54911 13.6072 6.54911 13.6072H6.45719C6.45719 13.6072 6.26851 13.7988 6.29753 13.8408C6.29753 13.9606 6.45719 13.691 6.45719 13.691V13.8587V13.8587ZM6.43784 12.5949C6.43784 12.5949 6.34591 12.511 6.34591 12.4691C6.34591 12.4272 6.44267 12.3433 6.48622 12.3493C6.5346 12.3493 6.62168 12.4272 6.62168 12.4691C6.62168 12.511 6.52976 12.5889 6.52976 12.5889V12.7566C6.52976 12.7566 6.69425 12.4871 6.69425 12.6128C6.69425 12.6907 6.52976 12.8405 6.52976 12.8405H6.43784C6.43784 12.8405 6.24915 12.6548 6.27818 12.6128C6.27818 12.493 6.43784 12.7566 6.43784 12.7566V12.5949V12.5949ZM9.64541 13.8288C9.64541 13.8288 9.54865 13.9126 9.54865 13.9546C9.54865 13.9965 9.65025 14.0804 9.69379 14.0804C9.74217 14.0804 9.82925 13.9965 9.82925 13.9606C9.82925 13.9126 9.73249 13.8288 9.73249 13.8288V13.6671C9.73249 13.6671 9.89698 13.9366 9.89698 13.8108C9.89698 13.7329 9.73733 13.5832 9.73733 13.5832H9.64057C9.64057 13.5832 9.45673 13.7689 9.48092 13.8108C9.48092 13.9366 9.64541 13.6671 9.64541 13.6671V13.8348V13.8288ZM9.62606 12.5709C9.62606 12.5709 9.5293 12.4871 9.5293 12.4451C9.5293 12.4032 9.63089 12.3193 9.67444 12.3193C9.72282 12.3193 9.8099 12.4032 9.8099 12.4391C9.8099 12.4871 9.71314 12.5649 9.71314 12.5649V12.7326C9.71314 12.7326 9.87763 12.4631 9.87763 12.5829C9.87763 12.6667 9.71798 12.8165 9.71798 12.8165H9.62122C9.62122 12.8165 9.43738 12.6308 9.46157 12.5889C9.46157 12.4631 9.62606 12.7326 9.62606 12.7326V12.5649V12.5709Z" fill="#CA3745"/>
<path fill-rule="evenodd" clip-rule="evenodd" d="M5.78042 13.8468C5.75139 13.7689 5.76107 13.733 5.76107 13.6911C5.76107 13.6491 5.84331 13.5713 5.87234 13.5713C5.91105 13.5713 5.97394 13.6551 5.97394 13.703C5.97394 13.745 5.97394 13.7809 5.95943 13.8588L5.92072 13.733C5.8675 13.9127 5.86267 13.9127 5.83364 13.727L5.78526 13.8468H5.78042ZM5.78042 12.559C5.75623 12.6368 5.76107 12.6728 5.76107 12.7147C5.76107 12.7566 5.84331 12.8345 5.87718 12.8345C5.91588 12.8345 5.97878 12.7507 5.97878 12.7027C5.97878 12.6608 5.97878 12.6249 5.96426 12.547L5.92072 12.6728C5.87234 12.4931 5.86751 12.4931 5.83364 12.6788L5.78526 12.559H5.78042ZM10.2555 13.8288C10.2265 13.751 10.2314 13.715 10.2314 13.6731C10.2314 13.6312 10.3184 13.5533 10.3475 13.5533C10.3862 13.5533 10.4491 13.6431 10.4491 13.6851C10.4491 13.727 10.4491 13.7689 10.4345 13.8408L10.391 13.715C10.3426 13.8947 10.3378 13.9007 10.3039 13.715L10.2555 13.8288ZM10.2555 12.547C10.2265 12.6189 10.2362 12.6548 10.2362 12.7027C10.2362 12.7387 10.3184 12.8225 10.3475 12.8225C10.3862 12.8225 10.4539 12.7327 10.4539 12.6908C10.4539 12.6428 10.4539 12.6069 10.4394 12.529L10.391 12.6608C10.3426 12.4751 10.3426 12.4691 10.3088 12.6608L10.2604 12.541L10.2555 12.547Z" fill="white"/>
<path fill-rule="evenodd" clip-rule="evenodd" d="M7.57523 15.3323V15.0088H6.80115V14.3739H6.11416V14.1642H5.51425V12.2475H6.11416V12.0379H6.80115V11.4029H7.57523V11.0855H8.60088V11.4029H9.37495V12.0379H10.0571V12.2535H10.6619V14.1642H10.0619V14.3739H9.37979V15.0088H8.60571V15.3263H7.58007L7.57523 15.3323ZM7.48814 15.4341V15.1166H6.71407V14.4817H6.03192V14.2661H5.43201V12.1457H6.03192V11.936H6.71407V11.2951H7.48814V10.9777H8.68796V11.2951H9.46203V11.936H10.1442V12.1457H10.7441V14.2661H10.1442V14.4817H9.4572V15.1166H8.68312V15.4341H7.48814V15.4341Z" fill="#CA3745"/>
<path fill-rule="evenodd" clip-rule="evenodd" d="M7.48534 10.9745H8.68981V11.2919H9.46389V11.9329H10.146V12.1425H10.746V14.2691H10.146V14.4847H9.45905V15.1197H8.68498V15.4371H7.48767V15.434H7.48534V15.1197H6.71126V14.4847H6.02911V14.2691H5.4292V12.1425H6.02911V11.9329H6.71126V11.2919H7.48534V10.9745ZM7.49 15.4309H8.68031V15.1135H9.45439V14.4785H10.1414V14.2629H10.7413V12.1487H10.1414V11.9391H9.45923V11.2982H8.68515V10.9807H7.49V11.2982H6.71592V11.9391H6.03377V12.1487H5.43386V14.2629H6.03377V14.4785H6.71592V15.1135H7.49V15.4309ZM7.57242 11.0823H8.60273V11.3998H9.37681V12.0347H10.059V12.2503H10.6637V14.1673H10.0638V14.3769H9.38164V15.0118H8.60757V15.3293H7.5805L7.57242 15.3393V15.0118H6.79834V14.3769H6.11135V14.1673H5.51144V12.2443H6.11135V12.0347H6.79834V11.3998H7.57242V11.0823ZM7.57708 11.0885V11.406H6.80301V12.0409H6.11601V12.2505H5.51611V14.1611H6.11601V14.3707H6.80301V15.0056H7.57708V15.3251L7.57867 15.3231H8.60291V15.0056H9.37698V14.3707H10.0591V14.1611H10.659V12.2565H10.0543V12.0409H9.37214V11.406H8.59807V11.0885H7.57708Z" fill="black"/>
</g>
<rect x="2" y="2" width="36" height="36" rx="18" stroke="white" stroke-width="4"/>
<defs>
<clipPath id="clip0_90_20836">
<rect x="4" y="4" width="32" height="32" rx="16" fill="white"/>
</clipPath>
</defs>
</svg>
