<svg width="40" height="40" viewBox="0 0 40 40" fill="none" xmlns="http://www.w3.org/2000/svg">
<g clip-path="url(#clip0_90_20830)">
<path fill-rule="evenodd" clip-rule="evenodd" d="M2.00012 4H38.0001V36H2.00012V4Z" fill="#E70013"/>
<path fill-rule="evenodd" clip-rule="evenodd" d="M26.0841 19.9875C26.0841 22.1274 25.4465 24.1797 24.3116 25.6929C23.1767 27.2061 21.6375 28.0562 20.0325 28.0562C18.4275 28.0562 16.8883 27.2061 15.7534 25.6929C14.6185 24.1797 13.981 22.1274 13.981 19.9875C13.981 17.8475 14.6185 15.7952 15.7534 14.282C16.8883 12.7688 18.4275 11.9187 20.0325 11.9187C21.6375 11.9187 23.1767 12.7688 24.3116 14.282C25.4465 15.7952 26.0841 17.8475 26.0841 19.9875V19.9875Z" fill="white"/>
<path fill-rule="evenodd" clip-rule="evenodd" d="M20.0323 25.3375C18.9913 25.29 18.0047 24.7053 17.2808 23.7066C16.557 22.7078 16.1523 21.3732 16.1523 19.9844C16.1523 18.5955 16.557 17.2609 17.2808 16.2621C18.0047 15.2634 18.9913 14.6787 20.0323 14.6312C20.5855 14.6312 21.2183 14.8062 21.6448 15.225C18.7105 15.3687 17.9651 18.6937 17.9651 20.0312C17.9651 21.3687 18.4386 24.35 21.6448 24.7937C21.2792 25.1062 20.5855 25.3375 20.0323 25.3375Z" fill="#E70013"/>
<path fill-rule="evenodd" clip-rule="evenodd" d="M23.5672 22.2375L21.7438 21.35L20.5391 23.375L20.6094 20.7938L18.7906 19.8875L20.6563 19.175L20.736 16.5938L21.8235 18.7375L23.6891 18.05L22.4938 20.0812L23.5672 22.2375Z" fill="#E70013"/>
</g>
<rect x="2" y="2" width="36" height="36" rx="18" stroke="white" stroke-width="4"/>
<defs>
<clipPath id="clip0_90_20830">
<rect x="4" y="4" width="32" height="32" rx="16" fill="white"/>
</clipPath>
</defs>
</svg>
