<svg width="40" height="40" viewBox="0 0 40 40" fill="none" xmlns="http://www.w3.org/2000/svg">
<g clip-path="url(#clip0_90_20817)">
<path fill-rule="evenodd" clip-rule="evenodd" d="M4 4H36V36H4V4Z" fill="#E30A17"/>
<path fill-rule="evenodd" clip-rule="evenodd" d="M24.3497 20.5C24.3497 24.9134 21.6197 28.4934 18.2497 28.4934C14.8797 28.4934 12.1497 24.9134 12.1497 20.4934C12.1497 16.0734 14.8797 12.5067 18.2497 12.5067C21.6197 12.5067 24.3497 16.0867 24.3497 20.5Z" fill="white"/>
<path fill-rule="evenodd" clip-rule="evenodd" d="M24.6499 20.5C24.6499 24.0334 22.4699 26.8934 19.7749 26.8934C17.0799 26.8934 14.8949 24.0267 14.8949 20.4934C14.8949 16.96 17.0799 14.1067 19.7749 14.1067C22.4699 14.1067 24.6549 16.9667 24.6549 20.5H24.6499Z" fill="#E30A17"/>
<path fill-rule="evenodd" clip-rule="evenodd" d="M25.5349 16.7667L25.4849 19.72L23.4199 20.4667L25.4599 21.4333L25.4099 24.1467L26.7349 22.0267L28.7449 22.96L27.5849 20.6867L28.9999 18.4267L26.8249 19.2267L25.5349 16.76V16.7667Z" fill="white"/>
</g>
<rect x="2" y="2" width="36" height="36" rx="18" stroke="white" stroke-width="4"/>
<defs>
<clipPath id="clip0_90_20817">
<rect x="4" y="4" width="32" height="32" rx="16" fill="white"/>
</clipPath>
</defs>
</svg>
