<svg width="40" height="40" viewBox="0 0 40 40" fill="none" xmlns="http://www.w3.org/2000/svg">
<g clip-path="url(#clip0_90_20805)">
<path d="M4 4H36V36H4V4Z" fill="#009FCA"/>
<path fill-rule="evenodd" clip-rule="evenodd" d="M33.6652 12.1801H35.0502L33.9352 13.1934L34.3602 14.8401L33.2452 13.8201L32.1352 14.8401L32.5602 13.1934L31.4452 12.1801H32.8202L33.2452 10.5334L33.6652 12.1801ZM30.2052 25.3001H31.5852L30.4702 26.3134L30.8952 27.9601L29.7802 26.9401L28.6652 27.9601L29.0952 26.3134L27.9802 25.3001H29.3502L29.7752 23.6534L30.2052 25.3001ZM33.6652 22.3267H35.0502L33.9352 23.3401L34.3602 24.9867L33.2452 23.9667L32.1352 24.9867L32.5602 23.3401L31.4452 22.3267H32.8202L33.2452 20.6801L33.6652 22.3267ZM18.7902 31.8467H20.1702L19.0502 32.8534L19.4802 34.4934L18.3652 33.4801L17.2502 34.4934L17.6802 32.8534L16.5602 31.8334H17.9402L18.3652 30.1934L18.7902 31.8467ZM21.9202 26.7467H20.5402L21.6552 25.7267L21.2302 24.0867L22.3452 25.1001L23.4602 24.0867L23.0302 25.7267L24.1452 26.7467H22.7702L22.3452 28.3867L21.9202 26.7467ZM25.9852 19.2467H24.6002L25.7152 18.2334L25.2902 16.5867L26.4052 17.6067L27.5202 16.5867L27.0902 18.2334L28.2052 19.2467H26.8302L26.4052 20.8934L25.9852 19.2467ZM29.4002 17.6934H28.0202L29.1402 16.6734L28.7102 15.0334L29.8252 16.0467L30.9402 15.0334L30.5102 16.6734L31.6302 17.6934H30.2502L29.8252 19.3334L29.4002 17.6934ZM25.9852 30.6667H24.6002L25.7152 29.6534L25.3002 28.0001L26.4152 29.0134L27.5302 28.0001L27.1002 29.6467L28.2152 30.6601H26.8402L26.4152 32.3067L25.9852 30.6667ZM21.9202 31.9934H20.5402L21.6552 30.9801L21.2302 29.3334L22.3452 30.3467L23.4602 29.3334L23.0302 30.9734L24.1502 32.0001H22.7752L22.3502 33.6467L21.9202 31.9934Z" fill="#FFF40D"/>
<path d="M4 4H20V20H4V4Z" fill="#012169"/>
<path d="M5.875 4L11.975 10.0333L18.05 4H20V6.06667L14 12.0333L20 17.9667V20H18L12 14.0333L6.025 20H4V18L9.975 12.0667L4 6.13333V4H5.875Z" fill="white"/>
<path d="M14.6 13.3667L20 18.6667V20L13.225 13.3667H14.6ZM10 14.0333L10.15 15.2L5.35 20H4L10 14.0333ZM20 4V4.1L13.775 10.3667L13.825 8.9L18.75 4H20ZM4 4L9.975 9.86667H8.475L4 5.4V4Z" fill="#C8102E"/>
<path d="M10.025 4V20H14.025V4H10.025ZM4 9.33333V14.6667H20V9.33333H4Z" fill="white"/>
<path d="M4 10.4333V13.6333H20V10.4333H4ZM10.825 4V20H13.225V4H10.825Z" fill="#C8102E"/>
</g>
<rect x="2" y="2" width="36" height="36" rx="18" stroke="white" stroke-width="4"/>
<defs>
<clipPath id="clip0_90_20805">
<rect x="4" y="4" width="32" height="32" rx="16" fill="white"/>
</clipPath>
</defs>
</svg>
