<svg width="40" height="40" viewBox="0 0 40 40" fill="none" xmlns="http://www.w3.org/2000/svg">
<g clip-path="url(#clip0_90_20777)">
<path d="M4 4H40V36H4V4Z" fill="#FF0000"/>
<path d="M4 4H22V20H4V4Z" fill="#000095"/>
<path d="M11.7003 12.4601L11.5753 13.1001L12.0453 13.2734L11.9553 12.8001L11.7003 12.4601ZM14.0453 12.8001L13.9553 13.2734L14.4253 13.1001L14.3003 12.4601L14.0453 12.8001ZM11.9553 11.2001L11.7003 11.5401L11.7953 12.0001L11.9553 11.2001Z" fill="white"/>
<path d="M11.7951 12.0001L11.7001 12.4601L11.9551 12.8001L11.7951 12.0001Z" fill="white"/>
<path d="M11.7002 11.5401L11.3552 12.0001L11.7002 12.4601L11.7952 12.0001L11.7002 11.5401ZM12.4002 13.3934L12.6552 13.7334L13.0002 13.6068L12.4002 13.3934ZM13.3452 13.7334L13.8252 13.9001L13.9552 13.2734L13.6002 13.3934L13.3452 13.7334Z" fill="white"/>
<path d="M13.6 13.3934L13.955 13.2734L14.045 12.8L13.6 13.3934ZM12.045 13.2734L12.175 13.9L12.655 13.7334L12.4 13.3934L12.045 13.2734ZM13 13.6067L13.345 13.7334L13.6 13.3934L13 13.6067Z" fill="white"/>
<path d="M12.6553 13.7334L13.0003 14.1934L13.3453 13.7334L13.0003 13.6067L12.6553 13.7334ZM12.0453 10.7267L11.5753 10.9001L11.7003 11.5401L11.9553 11.2001L12.0453 10.7267ZM11.9553 12.8001L12.0453 13.2734L12.4003 13.3934L11.9553 12.8001ZM14.2053 12.0001L14.3003 11.5401L14.0453 11.2001L14.2053 12.0001Z" fill="white"/>
<path d="M12.4001 10.6068L12.0451 10.7268L11.9551 11.2001L12.4001 10.6068ZM14.0451 11.2001L13.9551 10.7268L13.6001 10.6068L14.0451 11.2001ZM14.3001 12.4601L14.6451 12.0001L14.3001 11.5401L14.2051 12.0001L14.3001 12.4601Z" fill="white"/>
<path d="M14.045 11.2L13.6 10.6067L13 10.3934L12.4 10.6067L11.955 11.2L11.795 12L11.955 12.8L12.4 13.3934L13 13.6067L13.6 13.3934L14.045 12.8L14.205 12L14.045 11.2Z" fill="white"/>
<path d="M14.045 12.8001L14.3 12.4601L14.205 12.0001L14.045 12.8001ZM14.3 11.5401L14.425 10.9001L13.955 10.7268L14.045 11.2001L14.3 11.5401ZM13.955 10.7268L13.825 10.1001L13.345 10.2668L13.6 10.6068L13.955 10.7268ZM12.655 10.2668L12.175 10.1001L12.045 10.7268L12.4 10.6068L12.655 10.2668ZM13 10.3934L12.655 10.2668L12.4 10.6068L13 10.3934Z" fill="white"/>
<path d="M13.3453 10.2668L13.0003 9.80676L12.6553 10.2668L13.0003 10.3934L13.3453 10.2668Z" fill="white"/>
<path d="M13.6002 10.6067L13.3452 10.2667L13.0002 10.3934L13.6002 10.6067ZM12.6552 13.7334L12.1752 13.9001L12.4002 15.0067L13.0002 14.1934L12.6552 13.7334ZM12.4002 15.0067L13.0002 18.0001L13.6002 15.0067L13.0002 14.1934L12.4002 15.0067ZM12.0452 13.2734L11.5752 13.1001L11.3552 14.1934L12.1752 13.9001L12.0452 13.2734Z" fill="white"/>
<path d="M11.355 14.1934L10.755 17.2L12.4 15.0067L12.175 13.9L11.355 14.1934ZM10.755 12.8L9.09998 15.0067L11.355 14.1934L11.575 13.1L10.755 12.8Z" fill="white"/>
<path d="M11.7004 12.4601L11.3554 12.0001L10.7554 12.8001L11.5754 13.1001L11.7004 12.4601ZM11.7004 11.5401L11.5754 10.9001L10.7554 11.2001L11.3554 12.0001L11.7004 11.5401Z" fill="white"/>
<path d="M10.7551 11.2001L8.50012 12.0001L10.7551 12.8001L11.3551 12.0001L10.7551 11.2001ZM15.2551 12.8001L14.4251 13.1001L14.6451 14.1934L16.9001 15.0067L15.2551 12.8001Z" fill="white"/>
<path d="M13.9551 13.2734L13.8251 13.9001L14.6451 14.1934L14.4251 13.1001L13.9551 13.2734ZM13.3451 13.7334L13.0001 14.1934L13.6001 15.0067L13.8251 13.9001L13.3451 13.7334ZM14.3001 12.4601L14.4251 13.1001L15.2551 12.8001L14.6451 12.0001L14.3001 12.4601Z" fill="white"/>
<path d="M13.6 15.0068L15.255 17.2001L14.645 14.1934L13.825 13.9001L13.6 15.0068ZM13.955 10.7268L14.425 10.9001L14.645 9.80676L13.825 10.1001L13.955 10.7268Z" fill="white"/>
<path d="M15.255 11.2L16.9 9.00672L14.645 9.80672L14.425 10.9L15.255 11.2ZM14.645 9.80672L15.255 6.80005L13.6 9.00672L13.825 10.1L14.645 9.80672ZM15.255 12.8L17.5 12L15.255 11.2L14.645 12L15.255 12.8Z" fill="white"/>
<path d="M14.3004 11.54L14.6454 12L15.2554 11.2L14.4254 10.9L14.3004 11.54ZM12.4004 9.00672L10.7554 6.80005L11.3554 9.80672L12.1754 10.1L12.4004 9.00672Z" fill="white"/>
<path d="M12.0452 10.7268L12.1752 10.1001L11.3552 9.80676L11.5752 10.9001L12.0452 10.7268Z" fill="white"/>
<path d="M11.355 9.80677L9.09998 9.00677L10.755 11.2001L11.575 10.9001L11.355 9.80677ZM13.345 10.2668L13.825 10.1001L13.6 9.00677L13 9.80677L13.345 10.2668Z" fill="white"/>
<path d="M13.6003 9.00673L13.0003 6.00006L12.4003 9.00673L13.0003 9.80673L13.6003 9.00673Z" fill="white"/>
<path d="M12.6552 10.2668L13.0002 9.80677L12.4002 9.00677L12.1752 10.1001L12.6552 10.2668Z" fill="white"/>
<path d="M13.0002 15.4067C14.4113 15.4067 15.5552 13.8815 15.5552 12.0001C15.5552 10.1186 14.4113 8.59338 13.0002 8.59338C11.5891 8.59338 10.4452 10.1186 10.4452 12.0001C10.4452 13.8815 11.5891 15.4067 13.0002 15.4067Z" fill="#000095"/>
<path d="M13 15.0067C14.2454 15.0067 15.255 13.6606 15.255 12C15.255 10.3395 14.2454 8.99335 13 8.99335C11.7546 8.99335 10.745 10.3395 10.745 12C10.745 13.6606 11.7546 15.0067 13 15.0067Z" fill="white"/>
</g>
<rect x="2" y="2" width="36" height="36" rx="18" stroke="white" stroke-width="4"/>
<defs>
<clipPath id="clip0_90_20777">
<rect x="4" y="4" width="32" height="32" rx="16" fill="white"/>
</clipPath>
</defs>
</svg>
