<svg width="40" height="40" viewBox="0 0 40 40" fill="none" xmlns="http://www.w3.org/2000/svg">
<g clip-path="url(#clip0_90_20731)">
<path fill-rule="evenodd" clip-rule="evenodd" d="M1.99951 25.3376H37.9995V30.6688H1.99951V25.3376Z" fill="#FFE700"/>
<path fill-rule="evenodd" clip-rule="evenodd" d="M1.99951 20.0001H37.9995V25.3313H1.99951V20.0001Z" fill="black"/>
<path fill-rule="evenodd" clip-rule="evenodd" d="M1.99951 14.6688H37.9995V20.0001H1.99951V14.6688Z" fill="#DE3908"/>
<path fill-rule="evenodd" clip-rule="evenodd" d="M1.99951 9.33759H37.9995V14.6688H1.99951V9.33759Z" fill="#FFE700"/>
<path fill-rule="evenodd" clip-rule="evenodd" d="M1.99951 4.00006H37.9995V9.33131H1.99951V4.00006Z" fill="black"/>
<path fill-rule="evenodd" clip-rule="evenodd" d="M23.7352 20C23.7352 21.3212 23.3416 22.5882 22.641 23.5223C21.9403 24.4565 20.9901 24.9813 19.9992 24.9813C19.0084 24.9813 18.0582 24.4565 17.3575 23.5223C16.6569 22.5882 16.2633 21.3212 16.2633 20C16.2633 18.6789 16.6569 17.4119 17.3575 16.4778C18.0582 15.5436 19.0084 15.0188 19.9992 15.0188C20.9901 15.0188 21.9403 15.5436 22.641 16.4778C23.3416 17.4119 23.7352 18.6789 23.7352 20V20Z" fill="#FFFDFF"/>
<path fill-rule="evenodd" clip-rule="evenodd" d="M19.9994 15.05C19.0147 15.05 18.0705 15.5716 17.3742 16.4999C16.678 17.4282 16.2869 18.6872 16.2869 20C16.2869 21.3129 16.678 22.5719 17.3742 23.5002C18.0705 24.4285 19.0147 24.95 19.9994 24.95C20.984 24.95 21.9283 24.4285 22.6245 23.5002C23.3207 22.5719 23.7119 21.3129 23.7119 20C23.7119 18.6872 23.3207 17.4282 22.6245 16.4999C21.9283 15.5716 20.984 15.05 19.9994 15.05ZM17.3411 16.4557C18.0461 15.5156 19.0023 14.9875 19.9994 14.9875C20.9964 14.9875 21.9526 15.5156 22.6576 16.4557C23.3627 17.3957 23.7587 18.6707 23.7587 20C23.7587 21.3294 23.3627 22.6044 22.6576 23.5444C21.9526 24.4844 20.9964 25.0125 19.9994 25.0125C19.0023 25.0125 18.0461 24.4844 17.3411 23.5444C16.6361 22.6044 16.24 21.3294 16.24 20C16.24 18.6707 16.6361 17.3957 17.3411 16.4557Z" fill="black"/>
<path fill-rule="evenodd" clip-rule="evenodd" d="M19.343 16.1813L19.0992 15.5875C19.193 15.4625 19.3477 15.3625 19.6008 15.3625L19.5727 16.0188L19.3383 16.1813H19.343Z" fill="#DE3108"/>
<path fill-rule="evenodd" clip-rule="evenodd" d="M19.1292 15.5935L19.3523 16.1369L19.5508 15.9993L19.5768 15.3941C19.3545 15.4001 19.2158 15.4868 19.1292 15.5935ZM19.3748 16.1918L19.5961 16.0383L19.6264 15.3313H19.6016C19.3436 15.3313 19.1825 15.4335 19.0835 15.5655L19.071 15.582L19.3232 16.1963L19.3346 16.188L19.3391 16.2125H19.3833L19.3748 16.1918Z" fill="black"/>
<path fill-rule="evenodd" clip-rule="evenodd" d="M19.5782 16.0189L19.611 15.3626C19.611 15.3626 20.1125 15.3251 20.3844 15.7626L20.1172 16.2751L19.5735 16.0251L19.5782 16.0189Z" fill="#FFE700"/>
<path fill-rule="evenodd" clip-rule="evenodd" d="M19.6321 15.3931L19.6015 16.0053L20.1073 16.2379L20.354 15.7646C20.2235 15.5658 20.0423 15.4724 19.89 15.4291C19.8118 15.4069 19.7419 15.3981 19.6916 15.3948C19.6665 15.3932 19.6463 15.3929 19.6324 15.3931C19.6323 15.3931 19.6322 15.3931 19.6321 15.3931ZM19.5545 16.0051L19.5881 15.333L19.6088 15.3314L19.6101 15.3626C19.6088 15.3314 19.6088 15.3314 19.6088 15.3314L19.6089 15.3314L19.609 15.3314L19.6093 15.3314L19.6105 15.3313C19.6116 15.3312 19.6131 15.3312 19.615 15.3311C19.619 15.3309 19.6247 15.3307 19.632 15.3306C19.6466 15.3304 19.6678 15.3307 19.6939 15.3324C19.7461 15.3358 19.8186 15.3449 19.8998 15.368C20.0617 15.414 20.2609 15.5163 20.4016 15.7427L20.413 15.761L20.1255 16.3124L19.5295 16.0384L19.5545 16.0051Z" fill="black"/>
<path fill-rule="evenodd" clip-rule="evenodd" d="M20.1216 16.2688L20.37 15.7563C20.5341 15.9876 20.6044 16.1501 20.6278 16.4001C20.6325 16.4063 20.2388 16.5313 20.2388 16.5251L20.1216 16.2688V16.2688Z" fill="#DE3108"/>
<path fill-rule="evenodd" clip-rule="evenodd" d="M20.3666 15.7059L20.3872 15.7348C20.5529 15.9685 20.6266 16.1367 20.6511 16.3946C20.6516 16.3988 20.6516 16.4032 20.6507 16.4077C20.6492 16.4161 20.6455 16.4212 20.6443 16.4228C20.6416 16.4263 20.6388 16.4282 20.6381 16.4287L20.638 16.4287C20.6359 16.4302 20.6337 16.4313 20.6323 16.432C20.6289 16.4336 20.6244 16.4355 20.6191 16.4375C20.6085 16.4416 20.5932 16.4471 20.575 16.4534C20.5386 16.4659 20.4896 16.482 20.4406 16.4976C20.3916 16.5133 20.3424 16.5286 20.3054 16.5396C20.287 16.545 20.2714 16.5495 20.2603 16.5524C20.2549 16.5538 20.2502 16.555 20.2468 16.5557C20.2452 16.556 20.2432 16.5563 20.2413 16.5565C20.2406 16.5565 20.2385 16.5567 20.236 16.5562C20.235 16.556 20.2318 16.5554 20.2282 16.5529C20.2258 16.5513 20.221 16.547 20.2181 16.5396L20.1017 16.2851L20.1217 16.2688L20.102 16.2519L20.3666 15.7059ZM20.1494 16.2693L20.2508 16.4912C20.251 16.4912 20.2511 16.4911 20.2513 16.4911C20.2617 16.4883 20.2769 16.484 20.2952 16.4785C20.3319 16.4677 20.3809 16.4525 20.4297 16.4369C20.4786 16.4213 20.5272 16.4053 20.5633 16.3929C20.5791 16.3874 20.5924 16.3827 20.6022 16.379C20.5784 16.1619 20.5154 16.012 20.3735 15.8069L20.1494 16.2693ZM20.2595 16.5101L20.2585 16.508C20.2589 16.5087 20.2592 16.5094 20.2595 16.5101Z" fill="black"/>
<path fill-rule="evenodd" clip-rule="evenodd" d="M19.4655 24.6938C19.4655 24.6938 19.9296 23.9876 20.8296 24.1376C20.6936 23.8438 20.253 23.8813 20.253 23.8813C20.253 23.8813 20.1218 22.5063 20.2249 22.4313C20.328 22.3563 20.7874 22.4376 20.7874 22.4376C20.8436 22.4376 20.9468 22.2251 20.8624 22.0876C20.7827 21.9501 20.5436 21.4313 20.6421 21.3251C20.7405 21.2251 21.2702 21.3876 21.2702 21.3876L19.7702 18.8251C19.7702 18.8251 19.6155 17.8563 19.9249 17.3876C20.2952 16.9813 20.253 16.5376 20.2436 16.5438C20.1921 16.0938 19.6811 15.7751 19.3343 16.1876C19.1327 16.5126 19.2686 16.7626 19.2686 16.7626C19.2686 16.7626 18.7296 16.9563 18.7108 17.0813C18.6874 17.2063 19.3155 17.0626 19.3155 17.0626L19.2546 17.6313C19.2546 17.6313 18.0358 19.1063 18.9733 20.3813L19.0014 20.3313C19.0014 20.3313 19.3296 20.8688 19.6718 20.9876C19.9999 21.4251 19.9671 21.3626 19.9671 21.3626C19.9671 21.3626 20.028 22.0563 19.9671 22.1938C19.8874 22.1626 19.0624 22.1188 18.9405 22.1813C18.828 22.2313 18.4061 22.2001 18.5093 23.1251L18.6639 22.6563C18.6639 22.6563 18.6499 22.9876 18.753 23.1063C18.7343 22.7563 18.8514 22.5188 18.8514 22.5188C18.8514 22.5188 18.8702 22.9063 18.9358 22.9563C19.0014 23.0188 19.0014 22.3313 19.3577 22.3938C19.7046 22.4501 19.9624 22.4313 19.9624 22.4313C19.9624 22.4313 20.0796 23.7688 20.0421 23.8938C19.7889 23.8126 19.1796 23.9251 19.1421 24.1313C19.4983 24.1001 19.6624 24.1563 19.6624 24.1563C19.6624 24.1563 19.3764 24.5001 19.4655 24.6938V24.6938Z" fill="black"/>
<path fill-rule="evenodd" clip-rule="evenodd" d="M20.2632 16.5322C20.2338 16.2978 20.0874 16.1018 19.9064 16.0158C19.7226 15.9284 19.4998 15.9526 19.3198 16.1666C19.319 16.1675 19.3183 16.1685 19.3176 16.1696C19.2132 16.3379 19.195 16.4893 19.2045 16.6001C19.2092 16.6551 19.2206 16.6993 19.2309 16.7299C19.2327 16.7355 19.2346 16.7405 19.2363 16.7452C19.2217 16.7507 19.2016 16.7584 19.1777 16.7678C19.1267 16.788 19.0584 16.8163 18.9894 16.8485C18.9205 16.8807 18.8504 16.9171 18.796 16.9537C18.7688 16.9719 18.7449 16.9907 18.7268 17.0096C18.7098 17.0273 18.6939 17.0492 18.6898 17.0752C18.6871 17.0907 18.6893 17.106 18.6965 17.1187C18.7031 17.1303 18.7126 17.1376 18.7218 17.1425C18.7401 17.1523 18.7656 17.1571 18.7938 17.1592C18.8511 17.1634 18.9288 17.157 19.006 17.1468C19.0836 17.1366 19.1617 17.1225 19.2204 17.1109C19.249 17.1053 19.273 17.1002 19.2901 17.0966L19.2343 17.6175C19.2322 17.6202 19.2294 17.6237 19.2261 17.6279C19.2173 17.6392 19.2045 17.6559 19.1886 17.6775C19.1567 17.7208 19.1124 17.7839 19.0622 17.8636C18.9619 18.023 18.8377 18.2492 18.7429 18.5162C18.6482 18.783 18.5824 19.0919 18.6003 19.4158C18.6183 19.7404 18.7202 20.0778 18.9578 20.401C18.9622 20.4069 18.9682 20.4099 18.9743 20.4094C18.9804 20.4088 18.9861 20.4048 18.9898 20.3982L19.002 20.3764C19.0117 20.3913 19.0252 20.4118 19.0421 20.4362C19.0786 20.4889 19.1308 20.5605 19.1938 20.6358C19.3179 20.7842 19.4863 20.9501 19.6604 21.0128C19.8217 21.2277 19.895 21.3208 19.928 21.3601C19.9363 21.37 19.9424 21.3768 19.9467 21.3814C19.9468 21.3815 19.9469 21.3816 19.9471 21.3817C19.9474 21.3857 19.9478 21.3904 19.9482 21.3956C19.9497 21.4148 19.9519 21.4423 19.9542 21.4758C19.959 21.5427 19.9647 21.6333 19.9684 21.7281C19.9722 21.8231 19.9741 21.9216 19.9713 22.0047C19.9699 22.0462 19.9673 22.0833 19.9634 22.1138C19.9608 22.1335 19.9578 22.1494 19.9545 22.1617C19.942 22.1589 19.9256 22.1563 19.9068 22.1538C19.876 22.1496 19.8365 22.1456 19.7911 22.1418C19.7003 22.1343 19.5856 22.1278 19.4697 22.1243C19.3537 22.1208 19.2363 22.1202 19.14 22.1244C19.0919 22.1265 19.0488 22.1298 19.0138 22.1346C18.9797 22.1393 18.9512 22.1457 18.933 22.1548C18.9206 22.1603 18.9033 22.1649 18.881 22.1707L18.8788 22.1712C18.8573 22.1768 18.8322 22.1833 18.8055 22.1926C18.7502 22.2116 18.687 22.2426 18.6304 22.3031C18.5156 22.4259 18.4358 22.6615 18.488 23.1292C18.4894 23.1416 18.4967 23.1513 18.506 23.1529C18.5154 23.1546 18.5244 23.1479 18.5282 23.1364L18.6443 22.7846C18.6452 22.8022 18.6466 22.821 18.6485 22.8404C18.6533 22.8904 18.6615 22.9452 18.6754 22.9956C18.6892 23.0458 18.7093 23.0936 18.7388 23.1276C18.7453 23.135 18.7544 23.1366 18.7621 23.1315C18.7697 23.1264 18.7742 23.1157 18.7736 23.1043C18.7645 22.9339 18.7885 22.7909 18.8147 22.6906C18.8221 22.6623 18.8296 22.6375 18.8367 22.6164C18.8394 22.6482 18.843 22.6854 18.8478 22.7234C18.8543 22.7756 18.863 22.8304 18.8746 22.8759C18.8803 22.8986 18.887 22.9198 18.8948 22.9374C18.9022 22.9543 18.9117 22.9702 18.9241 22.9801C18.9321 22.9873 18.9425 22.9911 18.9535 22.9864C18.9634 22.9821 18.9703 22.9724 18.9748 22.9641C18.9838 22.9477 18.9915 22.9224 18.9988 22.8955C19.0031 22.8796 19.0075 22.8622 19.0121 22.8438C19.0241 22.7964 19.0379 22.7419 19.0566 22.6866C19.0824 22.6102 19.1161 22.5367 19.1635 22.4861C19.2101 22.4362 19.2711 22.4071 19.3545 22.4217L19.3547 22.4217C19.5291 22.45 19.681 22.4594 19.7894 22.4618C19.8436 22.463 19.8869 22.4624 19.9167 22.4615C19.9273 22.4612 19.9362 22.4608 19.9433 22.4605C19.944 22.4691 19.9449 22.4797 19.946 22.4922C19.9491 22.529 19.9535 22.5817 19.9587 22.6453C19.9691 22.7726 19.9826 22.9435 19.9949 23.1183C20.0072 23.2932 20.0183 23.4717 20.024 23.6141C20.0268 23.6853 20.0283 23.7471 20.0279 23.7948C20.0277 23.8186 20.0271 23.8385 20.0259 23.8541C20.0258 23.8563 20.0256 23.8584 20.0255 23.8603C19.8932 23.8255 19.6872 23.8353 19.5072 23.877C19.412 23.8991 19.3226 23.9305 19.2541 23.97C19.2199 23.9897 19.1901 24.0119 19.1674 24.0368C19.1447 24.0615 19.1273 24.0907 19.1212 24.1247C19.1196 24.1334 19.1212 24.1426 19.1255 24.1494C19.1298 24.1563 19.1363 24.16 19.143 24.1594C19.3201 24.1438 19.4491 24.1501 19.5335 24.1601C19.5699 24.1644 19.5979 24.1694 19.618 24.1737C19.6136 24.1797 19.6087 24.1864 19.6035 24.1936C19.5777 24.2294 19.544 24.2794 19.5131 24.3358C19.4823 24.392 19.4535 24.4559 19.4382 24.5195C19.4229 24.5831 19.4204 24.6503 19.4471 24.7085L19.4651 24.6938C19.481 24.7123 19.481 24.7124 19.481 24.7124L19.481 24.7123L19.4812 24.712L19.4821 24.7107C19.4829 24.7095 19.4842 24.7076 19.4859 24.7052C19.4893 24.7003 19.4946 24.693 19.5016 24.6838C19.5157 24.6653 19.5369 24.6388 19.5652 24.6074C19.6217 24.5447 19.7066 24.4623 19.8193 24.3844C20.0446 24.2289 20.3813 24.0913 20.8265 24.1655C20.8346 24.1668 20.8425 24.1619 20.8469 24.1528C20.8513 24.1437 20.8514 24.132 20.8471 24.1228C20.7739 23.9646 20.6211 23.899 20.4933 23.8715C20.4284 23.8576 20.3681 23.853 20.324 23.8519C20.3019 23.8514 20.2838 23.8517 20.2712 23.8522C20.2712 23.8522 20.2712 23.8522 20.2711 23.8522C20.2703 23.8432 20.2693 23.832 20.2681 23.8187C20.2647 23.7811 20.26 23.7272 20.2547 23.6622C20.244 23.5323 20.2308 23.3585 20.2209 23.1823C20.211 23.006 20.2043 22.8282 20.2064 22.6901C20.2075 22.6209 20.2108 22.5629 20.2168 22.5203C20.2198 22.499 20.2233 22.4827 20.2271 22.4713C20.2311 22.4593 20.2342 22.4563 20.2346 22.456C20.2444 22.4489 20.2601 22.4426 20.2817 22.4378C20.3029 22.4331 20.3284 22.4302 20.3567 22.4288C20.4132 22.4259 20.4795 22.4289 20.543 22.4344C20.6065 22.4398 20.6668 22.4476 20.7113 22.454C20.7335 22.4572 20.7518 22.4601 20.7645 22.4621C20.7708 22.4632 20.7758 22.464 20.7791 22.4646L20.7829 22.4652L20.7839 22.4654L20.7841 22.4654L20.7842 22.4654C20.7851 22.4656 20.786 22.4657 20.787 22.4657C20.8098 22.4657 20.832 22.4455 20.8493 22.4219C20.8676 22.3971 20.8846 22.3632 20.8966 22.3251C20.9206 22.2495 20.9273 22.1499 20.8785 22.0701C20.8395 22.0027 20.7608 21.8406 20.7041 21.6825C20.6756 21.6031 20.6533 21.5265 20.644 21.4642C20.6394 21.433 20.6382 21.407 20.6405 21.3868C20.6426 21.3671 20.6478 21.3548 20.6547 21.3472C20.6629 21.339 20.6777 21.3316 20.7003 21.3268C20.7225 21.322 20.7499 21.3202 20.781 21.3208C20.8432 21.3219 20.9176 21.3327 20.9896 21.3466C21.0615 21.3606 21.1304 21.3777 21.1813 21.3913C21.2068 21.3981 21.2278 21.404 21.2424 21.4083C21.2496 21.4104 21.2553 21.4121 21.2592 21.4132L21.2636 21.4145L21.2647 21.4149L21.265 21.4149L21.265 21.415C21.2737 21.4176 21.2828 21.4127 21.2876 21.4027C21.2924 21.3926 21.2919 21.3796 21.2864 21.3703L19.7895 18.813C19.7893 18.8117 19.7891 18.8103 19.7888 18.8087C19.7878 18.8016 19.7863 18.7912 19.7845 18.7776C19.7809 18.7506 19.7762 18.7113 19.7714 18.6627C19.7618 18.5654 19.7522 18.4309 19.7522 18.2821C19.7522 17.9834 19.7908 17.6341 19.9392 17.4078C20.1268 17.2014 20.2109 16.9846 20.2465 16.8187C20.2643 16.7358 20.27 16.6658 20.2705 16.6163C20.2708 16.5916 20.2698 16.5717 20.2683 16.5576C20.2675 16.5508 20.2666 16.5443 20.2653 16.5391C20.2649 16.5375 20.2643 16.535 20.2632 16.5322ZM19.7698 18.8251C19.7492 18.8309 19.7492 18.8309 19.7491 18.8309L19.7491 18.8307L19.749 18.8301L19.7487 18.8279C19.7484 18.826 19.748 18.8232 19.7474 18.8195C19.7463 18.8121 19.7448 18.8013 19.743 18.7874C19.7393 18.7596 19.7344 18.7196 19.7295 18.67C19.7198 18.571 19.71 18.434 19.71 18.2821C19.71 17.98 19.7486 17.6115 19.9086 17.369C19.9094 17.3679 19.9102 17.3668 19.9111 17.3658C20.0928 17.1665 20.1725 16.9589 20.206 16.8033C20.2227 16.7253 20.2279 16.6602 20.2284 16.6155C20.2286 16.5931 20.2277 16.5762 20.2265 16.5656C20.2263 16.563 20.226 16.5611 20.2258 16.5596C20.224 16.5562 20.2229 16.5523 20.2224 16.5481C20.198 16.3357 20.0644 16.1506 19.8922 16.0687C19.7213 15.9875 19.5158 16.0099 19.3491 16.2071C19.2528 16.3632 19.2383 16.4987 19.2464 16.5938C19.2505 16.6419 19.2605 16.6805 19.2694 16.7069C19.2738 16.7201 19.278 16.7302 19.2809 16.7368C19.2824 16.7402 19.2836 16.7426 19.2843 16.7442C19.2847 16.745 19.285 16.7455 19.2852 16.7458L19.2853 16.7461C19.2894 16.7535 19.2904 16.7632 19.2881 16.7719C19.2858 16.7807 19.2804 16.7873 19.2737 16.7897L19.2733 16.7899L19.2722 16.7903L19.2678 16.7919C19.2638 16.7933 19.2581 16.7955 19.2507 16.7982C19.236 16.8037 19.215 16.8117 19.1897 16.8218C19.1391 16.8418 19.0714 16.8698 19.0033 16.9016C18.935 16.9335 18.8669 16.969 18.815 17.0039C18.7889 17.0214 18.7677 17.0383 18.7528 17.0539C18.7377 17.0696 18.7324 17.0806 18.7313 17.086C18.7314 17.0861 18.7315 17.0862 18.7317 17.0864C18.7329 17.0875 18.7348 17.0889 18.7376 17.0903C18.7491 17.0965 18.7688 17.101 18.7962 17.103C18.8501 17.107 18.925 17.101 19.0019 17.0908C19.0785 17.0807 19.1559 17.0667 19.2142 17.0552C19.2434 17.0495 19.2677 17.0444 19.2848 17.0407C19.2933 17.0389 19.3 17.0374 19.3046 17.0364L19.3098 17.0352L19.3115 17.0349C19.3182 17.0333 19.325 17.0361 19.3298 17.0424C19.3346 17.0487 19.3369 17.0576 19.336 17.0665L19.275 17.6353C19.2743 17.6418 19.272 17.6477 19.2683 17.6521L19.2682 17.6523L19.2676 17.6531L19.2651 17.6562C19.2629 17.6589 19.2596 17.663 19.2553 17.6685C19.2467 17.6794 19.2343 17.6957 19.2187 17.7169C19.1875 17.7593 19.1439 17.8213 19.0945 17.8998C18.9956 18.0568 18.8738 18.279 18.781 18.5402C18.6883 18.8015 18.6252 19.1004 18.6424 19.4117C18.6591 19.7145 18.7521 20.0311 18.9709 20.338L18.9842 20.3144C18.9881 20.3075 18.9941 20.3034 19.0006 20.3032C19.0071 20.303 19.0133 20.3068 19.0174 20.3136L19.0176 20.3139L19.0183 20.315C19.0186 20.3155 19.0191 20.3163 19.0196 20.3172C19.02 20.3178 19.0205 20.3185 19.021 20.3193C19.0234 20.3232 19.027 20.3289 19.0318 20.3363C19.0413 20.351 19.0553 20.3722 19.0732 20.3981C19.1089 20.4499 19.1602 20.5201 19.222 20.594C19.3461 20.7424 19.5106 20.9027 19.6767 20.9603C19.6803 20.9616 19.6836 20.9641 19.6863 20.9677C19.8504 21.1865 19.9238 21.2797 19.9561 21.3181C19.9627 21.326 19.9674 21.3314 19.9707 21.335C19.9759 21.3363 19.9807 21.3403 19.9839 21.3464L19.9667 21.3626L19.9465 21.3657C19.9465 21.3657 19.9465 21.3657 19.9465 21.3657L19.9667 21.3626C19.9839 21.3464 19.9839 21.3464 19.9839 21.3464L19.984 21.3465L19.984 21.3466L19.9841 21.3468L19.9843 21.3472C19.9844 21.3474 19.9846 21.3477 19.9847 21.348C19.9848 21.3481 19.9849 21.3483 19.985 21.3485C19.9853 21.3494 19.9862 21.3514 19.987 21.354C19.9874 21.3552 19.9881 21.3577 19.9884 21.3609C19.9886 21.3623 19.9889 21.3654 19.9885 21.3692C19.9889 21.3742 19.9894 21.3811 19.9901 21.3896C19.9917 21.409 19.9938 21.4367 19.9962 21.4705C20.001 21.5379 20.0067 21.6293 20.0106 21.7251C20.0144 21.8208 20.0163 21.9215 20.0134 22.0072C20.012 22.05 20.0093 22.0897 20.0049 22.1234C20.0007 22.1565 19.9944 22.1865 19.9848 22.2081C19.9799 22.2192 19.97 22.2244 19.9607 22.2208C19.953 22.2178 19.9334 22.2139 19.9026 22.2097C19.8725 22.2057 19.8336 22.2017 19.7885 22.198C19.6983 22.1905 19.5842 22.184 19.4687 22.1805C19.3532 22.177 19.2366 22.1764 19.1414 22.1806C19.0938 22.1827 19.0518 22.186 19.0181 22.1906C18.9837 22.1953 18.96 22.2012 18.9477 22.2076C18.9474 22.2077 18.9471 22.2079 18.9468 22.208C18.9311 22.2149 18.9107 22.2203 18.8891 22.2259L18.8872 22.2264C18.8655 22.232 18.8415 22.2382 18.816 22.247C18.7638 22.2651 18.7069 22.2934 18.6568 22.347C18.5659 22.4443 18.491 22.632 18.5203 23.0206L18.6442 22.645C18.6483 22.6325 18.6585 22.6258 18.6685 22.629C18.6784 22.6321 18.6852 22.6443 18.6846 22.6579M18.6846 22.6579L18.6846 22.658L18.6846 22.6587L18.6845 22.6613C18.6844 22.6636 18.6843 22.667 18.6842 22.6715C18.684 22.6805 18.6839 22.6935 18.684 22.7096C18.6843 22.7418 18.6858 22.7857 18.6903 22.8332C18.6949 22.8808 18.7025 22.9311 18.715 22.9762C18.7193 22.9918 18.7241 23.0066 18.7295 23.0203C18.7305 22.8793 18.7518 22.7602 18.7749 22.6721C18.7887 22.6191 18.8032 22.5773 18.8143 22.5485C18.8198 22.5342 18.8245 22.523 18.8279 22.5154C18.8295 22.5116 18.8309 22.5087 18.8318 22.5067C18.8323 22.5057 18.8327 22.5049 18.8329 22.5043L18.8333 22.5037L18.8334 22.5034C18.8334 22.5034 18.8334 22.5034 18.851 22.5188L18.8334 22.5034C18.8384 22.4933 18.8477 22.4885 18.8564 22.4916C18.8652 22.4947 18.8715 22.5049 18.8721 22.517L18.8721 22.5172L18.8721 22.518L18.8723 22.5212C18.8725 22.5239 18.8727 22.5281 18.873 22.5333C18.8736 22.5439 18.8746 22.559 18.876 22.5773C18.8787 22.6141 18.8831 22.6634 18.8894 22.7142C18.8958 22.7652 18.9041 22.8166 18.9145 22.8579C18.9198 22.8785 18.9253 22.8958 18.9311 22.9089C18.9353 22.9183 18.939 22.9244 18.9421 22.9282C18.9468 22.9186 18.9523 22.9017 18.9591 22.8765C18.9629 22.8623 18.967 22.8461 18.9715 22.8284C18.9837 22.7804 18.9986 22.7215 19.0181 22.6635C19.0451 22.5837 19.0822 22.5009 19.1371 22.4422C19.1927 22.3827 19.2653 22.3493 19.3599 22.3659C19.5325 22.3939 19.6828 22.4032 19.7901 22.4055C19.8437 22.4067 19.8865 22.4061 19.9158 22.4052C19.9305 22.4048 19.9418 22.4043 19.9494 22.4039C19.9532 22.4037 19.9561 22.4035 19.958 22.4034L19.9602 22.4033L19.9607 22.4032L19.9608 22.4032C19.9719 22.4024 19.9816 22.4133 19.9829 22.4281L19.962 22.4313C19.9829 22.4281 19.9829 22.428 19.9829 22.4281L19.9842 22.4431C19.9851 22.453 19.9863 22.4674 19.9879 22.4859C19.991 22.5227 19.9955 22.5755 20.0007 22.6392C20.0111 22.7666 20.0246 22.9379 20.0369 23.1131C20.0492 23.2882 20.0604 23.4675 20.0661 23.6111C20.069 23.6828 20.0705 23.746 20.0701 23.7954C20.0699 23.8201 20.0692 23.8417 20.0679 23.8595C20.0667 23.8765 20.0648 23.8925 20.0612 23.9043C20.0574 23.9172 20.0469 23.9244 20.0367 23.9212C19.9142 23.8818 19.7019 23.889 19.5144 23.9325C19.421 23.9541 19.3351 23.9845 19.2709 24.0216C19.2387 24.0401 19.2128 24.0599 19.1941 24.0803C19.1879 24.0871 19.1827 24.0937 19.1784 24.1002C19.3382 24.0885 19.4569 24.0945 19.5373 24.1041C19.5806 24.1092 19.6128 24.1154 19.6343 24.1203C19.6451 24.1228 19.6532 24.1249 19.6586 24.1265C19.6614 24.1272 19.6634 24.1279 19.6649 24.1283L19.6665 24.1288L19.667 24.129L19.6671 24.129L19.6672 24.1291C19.6672 24.1291 19.6672 24.1291 19.662 24.1563L19.6672 24.1291C19.6747 24.1316 19.6806 24.1395 19.6825 24.1496C19.6843 24.1597 19.6819 24.1703 19.6761 24.1772C19.6761 24.1772 19.6761 24.1772 19.6761 24.1772L19.6759 24.1774L19.6754 24.1781L19.6731 24.1808C19.6711 24.1833 19.6682 24.187 19.6645 24.1918C19.657 24.2013 19.6464 24.2152 19.6339 24.2325C19.6089 24.2672 19.5766 24.3153 19.5472 24.369C19.5176 24.423 19.4917 24.4813 19.4784 24.5367C19.4689 24.5762 19.4663 24.6122 19.472 24.6437C19.4869 24.6241 19.5089 24.5966 19.5382 24.5642C19.5967 24.4992 19.6841 24.4144 19.7999 24.3345C20.0233 24.1802 20.3521 24.0441 20.7827 24.1022C20.7128 24.0009 20.5962 23.9506 20.4865 23.9271C20.4242 23.9136 20.3659 23.9092 20.3232 23.9082C20.3018 23.9076 20.2844 23.908 20.2724 23.9084C20.2664 23.9086 20.2617 23.9089 20.2586 23.9091C20.2576 23.9091 20.2567 23.9092 20.256 23.9092L20.255 23.9093L20.2542 23.9094L20.254 23.9094C20.2429 23.9103 20.2331 23.8996 20.2317 23.8849L20.2526 23.8813C20.2317 23.8849 20.2317 23.8849 20.2317 23.8849L20.2317 23.8848L20.2316 23.8846L20.2313 23.8809L20.2302 23.8693C20.2293 23.8592 20.2279 23.8443 20.2262 23.8254C20.2228 23.7876 20.2181 23.7335 20.2127 23.6684C20.202 23.5381 20.1888 23.3635 20.1788 23.1866C20.1689 23.0097 20.1621 22.8298 20.1643 22.6889C20.1654 22.6187 20.1687 22.557 20.1753 22.51C20.1786 22.4865 20.1829 22.4656 20.1885 22.4486C20.1939 22.4323 20.2019 22.4157 20.2144 22.4066C20.2303 22.395 20.2515 22.3874 20.2748 22.3823C20.2984 22.3771 20.3258 22.374 20.3551 22.3725C20.4137 22.3696 20.4816 22.3728 20.5457 22.3782C20.61 22.3838 20.671 22.3916 20.7159 22.3981C20.7383 22.4013 20.7567 22.4042 20.7696 22.4063C20.7731 22.4069 20.7762 22.4074 20.7789 22.4078C20.7811 22.4082 20.7829 22.4085 20.7845 22.4088L20.788 22.4094C20.7937 22.4087 20.8049 22.4019 20.8192 22.3825C20.8335 22.3632 20.8476 22.3354 20.8578 22.3032C20.8784 22.2382 20.881 22.163 20.8456 22.1054L20.8453 22.1048C20.8045 22.0344 20.724 21.8686 20.666 21.7067C20.637 21.6259 20.613 21.5443 20.6027 21.4752C20.5975 21.4406 20.5955 21.4076 20.5987 21.3786C20.602 21.3493 20.6108 21.3222 20.6284 21.3032L20.6289 21.3027C20.6453 21.286 20.6685 21.2766 20.6936 21.2713C20.7191 21.2658 20.7492 21.2639 20.7816 21.2645C20.8465 21.2657 20.923 21.2769 20.9957 21.291C21.0685 21.3051 21.1382 21.3224 21.1896 21.3362C21.1996 21.3388 21.2089 21.3413 21.2173 21.3437L19.7532 18.8424C19.7512 18.839 19.7498 18.8351 19.7491 18.8309L19.7698 18.8251M20.2252 16.5565C20.2252 16.5565 20.2252 16.5565 20.2252 16.5565Z" fill="black"/>
<path fill-rule="evenodd" clip-rule="evenodd" d="M19.6054 17.4251C19.6054 17.4251 18.7195 18.7251 19.1039 19.7188C19.1226 19.5813 19.1132 19.4938 19.1273 19.5001C19.1039 19.4813 19.2351 19.6188 19.2257 19.5938C19.2257 19.5188 19.1882 19.3626 19.1882 19.3626L19.3054 19.4063L19.2351 19.2313L19.4086 19.2563C19.4086 19.2563 19.3476 19.0438 19.3664 19.0438L19.507 19.0563C19.2539 18.4563 19.4929 17.9563 19.6054 17.4188V17.4251Z" fill="#9CA69C"/>
<path fill-rule="evenodd" clip-rule="evenodd" d="M19.6088 17.3909C19.6192 17.3929 19.627 17.4048 19.627 17.4188V17.4251C19.627 17.431 19.6256 17.4367 19.623 17.4415C19.6 17.5492 19.5721 17.6555 19.5446 17.7606C19.5388 17.7825 19.5331 17.8044 19.5274 17.8263C19.4932 17.958 19.461 18.0882 19.4402 18.2199C19.3988 18.4822 19.4024 18.7499 19.5259 19.0425C19.5297 19.0515 19.5295 19.0626 19.5253 19.0713C19.5212 19.08 19.5138 19.0851 19.5061 19.0844L19.3866 19.0738C19.3895 19.0919 19.3949 19.1162 19.401 19.1414C19.4073 19.1675 19.4143 19.1938 19.4196 19.2135C19.4223 19.2234 19.4246 19.2316 19.4262 19.2373L19.4281 19.244L19.4286 19.2457L19.4287 19.2461L19.4287 19.2462C19.4314 19.2554 19.4302 19.2657 19.4257 19.2735C19.4213 19.2812 19.4141 19.2853 19.4068 19.2843L19.2731 19.265L19.3245 19.393C19.3285 19.403 19.3277 19.4151 19.3224 19.4239C19.3171 19.4327 19.3084 19.4364 19.3002 19.4334L19.2199 19.4034C19.2224 19.4153 19.2251 19.4288 19.2279 19.443C19.2369 19.4895 19.2466 19.548 19.2473 19.5894C19.2475 19.5907 19.2477 19.5921 19.2477 19.5935C19.2481 19.6005 19.2466 19.6129 19.2377 19.6205C19.231 19.6261 19.2243 19.625 19.2225 19.6247C19.2198 19.6242 19.2176 19.6232 19.2163 19.6225C19.2113 19.62 19.2053 19.6152 19.2001 19.6107C19.1888 19.6011 19.1735 19.5863 19.159 19.5717C19.1522 19.5648 19.1454 19.5578 19.1392 19.5513C19.1391 19.5532 19.139 19.5552 19.1389 19.5573C19.1388 19.5586 19.1388 19.5601 19.1387 19.5615C19.1369 19.5997 19.1344 19.6558 19.1251 19.7238C19.1235 19.7357 19.1164 19.7449 19.1075 19.7466C19.0985 19.7484 19.0897 19.7424 19.0856 19.7317C18.8885 19.222 19.0181 18.6374 19.1922 18.1864C19.2796 17.96 19.3791 17.7651 19.4566 17.6269C19.4954 17.5577 19.5287 17.5027 19.5524 17.4648C19.5643 17.4459 19.5737 17.4313 19.5802 17.4214C19.582 17.4186 19.5836 17.4161 19.585 17.4141C19.5852 17.4131 19.5854 17.4122 19.5856 17.4113C19.5884 17.3977 19.5983 17.389 19.6088 17.3909ZM19.5535 17.5519C19.5351 17.5825 19.5137 17.6189 19.4904 17.6606C19.4138 17.7971 19.3158 17.9893 19.2298 18.2122C19.0672 18.6332 18.9503 19.156 19.0932 19.6197C19.0948 19.5961 19.0958 19.5753 19.0966 19.5578L19.0968 19.5538C19.0976 19.5355 19.0984 19.5186 19.1001 19.5069C19.1009 19.5019 19.1022 19.4939 19.1057 19.4869C19.1115 19.4695 19.1249 19.4701 19.1265 19.4702C19.1298 19.4705 19.1322 19.4718 19.1329 19.4721C19.134 19.4726 19.1348 19.4732 19.1354 19.4736C19.1366 19.4743 19.1377 19.4752 19.1386 19.4759C19.142 19.4786 19.1446 19.4824 19.1464 19.4868C19.1469 19.4874 19.1475 19.488 19.1481 19.4887C19.1566 19.4982 19.1703 19.5126 19.1844 19.5268C19.1901 19.5326 19.1958 19.5382 19.2013 19.5434C19.1979 19.5163 19.1926 19.4857 19.1871 19.4571C19.1824 19.4333 19.1778 19.4117 19.1744 19.3961C19.1726 19.3883 19.1712 19.3821 19.1702 19.3777L19.169 19.3728L19.1687 19.3715L19.1686 19.3711L19.1887 19.3626M19.4708 19.0249C19.3592 18.7349 19.3581 18.467 19.3989 18.2083C19.4203 18.0729 19.4532 17.9398 19.4876 17.8078C19.4933 17.7857 19.4991 17.7636 19.5049 17.7415C19.5215 17.6783 19.538 17.6152 19.5535 17.5519" fill="#9CA69C"/>
<path fill-rule="evenodd" clip-rule="evenodd" d="M19.9152 16.3063C19.9152 16.3063 19.962 16.7563 19.7745 16.8813C19.7511 16.9126 19.6339 16.9626 19.6527 17.0563C19.6714 17.1813 19.723 17.1563 19.7933 17.1313C19.9855 17.0876 20.2105 16.5438 19.9152 16.3063Z" fill="#9CA69C"/>
<path fill-rule="evenodd" clip-rule="evenodd" d="M19.8846 16.2457L19.9267 16.2796C20.0055 16.3429 20.0507 16.4279 20.0698 16.521C20.0887 16.6135 20.0815 16.7116 20.0587 16.8015C20.0359 16.8914 19.9972 16.9748 19.9514 17.0389C19.9061 17.1022 19.8522 17.149 19.7978 17.1619C19.795 17.1629 19.7923 17.1639 19.7895 17.1649C19.7755 17.1699 19.7614 17.175 19.7482 17.1784C19.7322 17.1826 19.715 17.185 19.6986 17.1808C19.6812 17.1762 19.6657 17.1645 19.6535 17.1434C19.642 17.1234 19.6343 17.0966 19.6293 17.0634C19.6162 16.9955 19.6537 16.9481 19.6837 16.9199C19.6989 16.9055 19.7153 16.8932 19.7286 16.8832C19.7294 16.8826 19.7302 16.882 19.7309 16.8815C19.738 16.8761 19.7439 16.8716 19.7488 16.8675C19.7539 16.8632 19.7564 16.8606 19.7574 16.8592L19.7601 16.8556L19.7635 16.8534C19.846 16.7984 19.8798 16.6694 19.8914 16.5432C19.897 16.4813 19.897 16.423 19.8956 16.38C19.8949 16.3585 19.8938 16.341 19.8929 16.3289C19.8925 16.3229 19.8921 16.3182 19.8918 16.3151C19.8917 16.3136 19.8916 16.3124 19.8915 16.3116L19.8914 16.3108L19.8914 16.3106L19.8846 16.2457ZM19.9422 16.3705C19.9423 16.3727 19.9424 16.3749 19.9424 16.3772C19.9439 16.4225 19.9439 16.4845 19.9379 16.5507C19.9261 16.6795 19.8902 16.8362 19.7875 16.9072C19.7832 16.9122 19.7783 16.9166 19.7737 16.9204C19.7678 16.9254 19.7609 16.9307 19.754 16.9359C19.7534 16.9363 19.7528 16.9367 19.7522 16.9372C19.7385 16.9475 19.724 16.9585 19.7108 16.9709C19.6812 16.9988 19.6697 17.0229 19.6748 17.0483L19.675 17.0492L19.6751 17.0502C19.6794 17.079 19.6852 17.0957 19.6907 17.1052C19.6956 17.1138 19.7009 17.1177 19.7076 17.1194C19.7152 17.1214 19.7253 17.1207 19.7393 17.1171C19.7506 17.1141 19.7627 17.1098 19.7766 17.1048C19.7799 17.1036 19.7832 17.1024 19.7867 17.1011L19.7877 17.1008L19.7888 17.1005C19.8301 17.0911 19.8759 17.0538 19.9174 16.9958C19.9586 16.9382 19.9937 16.8626 20.0143 16.7815C20.0349 16.7003 20.0405 16.6152 20.0246 16.5375C20.0122 16.4769 19.9863 16.4193 19.9422 16.3705Z" fill="#9CA69C"/>
<path fill-rule="evenodd" clip-rule="evenodd" d="M19.5873 16.6876C19.5873 16.7124 19.5799 16.7363 19.5667 16.7539C19.5535 16.7714 19.5356 16.7813 19.517 16.7813C19.4983 16.7813 19.4804 16.7714 19.4672 16.7539C19.4541 16.7363 19.4467 16.7124 19.4467 16.6876C19.4467 16.6627 19.4541 16.6389 19.4672 16.6213C19.4804 16.6037 19.4983 16.5938 19.517 16.5938C19.5356 16.5938 19.5535 16.6037 19.5667 16.6213C19.5799 16.6389 19.5873 16.6627 19.5873 16.6876V16.6876Z" fill="white"/>
<path fill-rule="evenodd" clip-rule="evenodd" d="M19.3009 17.0626C19.254 17.1188 19.0103 17.4563 19.254 17.5813C19.5025 17.4938 19.4321 17.4313 19.4884 17.3563C19.4884 17.2001 19.3665 17.1626 19.3009 17.0688V17.0626Z" fill="#DE3108"/>
<path fill-rule="evenodd" clip-rule="evenodd" d="M19.3246 17.056V16.9924L19.2855 17.0393C19.2612 17.0685 19.1857 17.1704 19.1474 17.2832C19.1282 17.3397 19.1167 17.4036 19.1296 17.464C19.1429 17.5262 19.1802 17.5768 19.2458 17.6105L19.2529 17.6141L19.2602 17.6115C19.3846 17.5677 19.4364 17.5282 19.4622 17.483C19.4733 17.4636 19.4789 17.4439 19.4832 17.4286C19.4839 17.4263 19.4845 17.4242 19.4851 17.4221C19.4898 17.4061 19.4945 17.3927 19.5052 17.3784L19.5121 17.3692V17.3563C19.5121 17.2644 19.4753 17.2079 19.434 17.1646C19.4193 17.1491 19.4031 17.1344 19.3878 17.1205C19.3822 17.1155 19.3768 17.1105 19.3715 17.1056C19.3539 17.0894 19.338 17.0735 19.3246 17.056ZM19.2986 17.1092C19.2681 17.1505 19.2176 17.2278 19.1901 17.309C19.1729 17.3596 19.1662 17.407 19.1747 17.4469C19.1825 17.4832 19.2045 17.52 19.2557 17.5484C19.3738 17.5059 19.4099 17.4714 19.4249 17.4452C19.4316 17.4334 19.4348 17.4224 19.4392 17.407C19.4399 17.4046 19.4406 17.4021 19.4414 17.3994C19.4462 17.3829 19.4525 17.364 19.4649 17.3445C19.4621 17.2869 19.4388 17.2491 19.405 17.2136C19.3917 17.1996 19.3776 17.1869 19.3627 17.1734C19.3569 17.1681 19.3509 17.1626 19.3447 17.1569C19.3292 17.1425 19.3132 17.127 19.2986 17.1092Z" fill="black"/>
<path fill-rule="evenodd" clip-rule="evenodd" d="M19.84 20.2813C19.8259 20.3563 19.7697 20.6313 19.8447 20.8438C20.0603 20.7188 20.1587 20.7563 20.2291 20.8188C20.0556 20.6313 19.9853 20.5501 19.84 20.2813V20.2813Z" fill="#9CA69C"/>
<path fill-rule="evenodd" clip-rule="evenodd" d="M19.8574 20.2648C20.0013 20.5309 20.0701 20.6104 20.2427 20.7969C20.2514 20.8064 20.2531 20.8234 20.2464 20.8355C20.2397 20.8476 20.2271 20.8505 20.2177 20.8422C20.1852 20.8133 20.1468 20.7905 20.0913 20.7891C20.0351 20.7876 19.9597 20.808 19.8534 20.8696C19.843 20.8756 19.8308 20.8695 19.8259 20.8558C19.7862 20.7432 19.7817 20.6156 19.7883 20.5087C19.7944 20.4088 19.8104 20.3243 19.8183 20.283C19.8188 20.2799 19.8194 20.2771 19.8199 20.2745L19.8403 20.2813L19.8574 20.2648ZM19.8501 20.3468C19.9511 20.5289 20.0179 20.62 20.1201 20.7353C20.1112 20.7339 20.1019 20.7331 20.0921 20.7328C20.0315 20.7313 19.9558 20.7518 19.8561 20.807C19.8281 20.713 19.8245 20.6073 19.8303 20.5133C19.8343 20.4484 19.8427 20.3902 19.8501 20.3468Z" fill="#9CA69C"/>
<path fill-rule="evenodd" clip-rule="evenodd" d="M20.2062 21.5688L20.2156 22.2063C20.2156 22.2063 20.3843 22.2438 20.4593 22.2063C20.5343 22.1688 20.4593 21.7688 20.2062 21.5688Z" fill="white"/>
<path fill-rule="evenodd" clip-rule="evenodd" d="M20.195 21.5445C20.2017 21.5394 20.2098 21.5394 20.2164 21.5446C20.3474 21.6481 20.4322 21.8032 20.4747 21.9376C20.4959 22.0047 20.5071 22.0681 20.5076 22.1187C20.5078 22.1439 20.5054 22.1675 20.4993 22.1871C20.4931 22.2071 20.4825 22.2245 20.4662 22.2327C20.4444 22.2436 20.4173 22.2484 20.3901 22.2502C20.3626 22.2521 20.3336 22.2508 20.3074 22.2485C20.281 22.2461 20.2572 22.2425 20.2399 22.2395C20.2312 22.238 20.2242 22.2367 20.2193 22.2357C20.2169 22.2352 20.215 22.2348 20.2136 22.2345L20.2121 22.2342L20.2117 22.2341L20.2116 22.2341C20.2116 22.2341 20.2116 22.2341 20.215 22.2063L20.2116 22.2341C20.2016 22.2319 20.1941 22.2204 20.1939 22.2069L20.1846 21.5694C20.1844 21.5592 20.1884 21.5497 20.195 21.5445ZM20.2358 22.182C20.2386 22.1825 20.2418 22.1831 20.2453 22.1837C20.262 22.1866 20.285 22.19 20.3102 22.1923C20.3355 22.1946 20.3628 22.1957 20.388 22.1941C20.4136 22.1924 20.4357 22.1879 20.4514 22.18C20.4538 22.1788 20.4573 22.1755 20.4603 22.1656C20.4635 22.1554 20.4656 22.1401 20.4654 22.1194C20.465 22.0782 20.4556 22.0221 20.4358 21.9595C20.4 21.846 20.3313 21.716 20.2275 21.6208L20.2358 22.182Z" fill="white"/>
<path fill-rule="evenodd" clip-rule="evenodd" d="M21.4055 21.6501C21.4055 21.6501 21.1008 20.6626 20.318 20.4126C19.5352 20.1626 19.6383 19.0501 19.6993 18.9814C19.7368 18.8876 19.7602 18.7376 19.9852 18.8814C20.2102 19.0251 21.2508 19.7189 21.4008 19.7564C21.5508 19.7939 21.4196 21.6751 21.4102 21.6501H21.4055Z" fill="#9CA69C"/>
<path fill-rule="evenodd" clip-rule="evenodd" d="M19.7318 18.965C19.7281 18.9753 19.7242 18.986 19.7202 18.996L19.7181 19.0013L19.7147 19.0052C19.7148 19.0051 19.7147 19.0051 19.7146 19.0053C19.7141 19.0062 19.7122 19.0097 19.7093 19.0184C19.7061 19.0284 19.7026 19.0423 19.6992 19.06C19.6925 19.0953 19.6867 19.1434 19.6838 19.2009C19.6779 19.3158 19.6837 19.4656 19.7151 19.6208C19.7778 19.9298 19.9421 20.2603 20.3237 20.3822C20.7215 20.5092 20.9974 20.8235 21.1736 21.105C21.2617 21.2458 21.325 21.3787 21.3664 21.4765C21.3786 21.5054 21.3889 21.5312 21.3973 21.5533C21.4012 21.506 21.4058 21.4424 21.4107 21.3673C21.422 21.1942 21.4345 20.9607 21.4421 20.7253C21.4497 20.4897 21.4523 20.2531 21.4438 20.0735C21.4395 19.9835 21.4324 19.9094 21.4223 19.8574C21.4171 19.8312 21.4116 19.8124 21.406 19.8004C21.4033 19.7944 21.401 19.791 21.3992 19.789C21.3977 19.7873 21.3969 19.7871 21.3968 19.787C21.3755 19.7817 21.3408 19.7656 21.2978 19.7429C21.2541 19.7198 21.1999 19.6889 21.1387 19.6525C21.0163 19.5798 20.8648 19.4849 20.7113 19.3868C20.5577 19.2887 20.4017 19.1873 20.2702 19.1015C20.2373 19.08 20.206 19.0596 20.1766 19.0404C20.0883 18.9827 20.0175 18.9364 19.9753 18.9095C19.8645 18.8387 19.8123 18.8464 19.7843 18.869C19.7697 18.8808 19.7586 18.8989 19.7486 18.9217C19.7436 18.9331 19.7391 18.9452 19.7344 18.9579C19.7336 18.9602 19.7327 18.9626 19.7318 18.965ZM21.3841 21.662L21.3841 21.6619L21.3839 21.6614L21.3833 21.6595C21.3828 21.6577 21.3819 21.6551 21.3807 21.6516C21.3784 21.6445 21.3748 21.6341 21.37 21.6206C21.3604 21.5937 21.3456 21.5548 21.3255 21.5072C21.2853 21.412 21.2235 21.2824 21.1376 21.1451C20.9657 20.8703 20.6979 20.5659 20.3128 20.443C19.9116 20.3148 19.7361 19.964 19.6699 19.6371C19.6369 19.4743 19.6309 19.3175 19.637 19.1967C19.6401 19.1363 19.6462 19.0843 19.6538 19.0446C19.6575 19.0248 19.6618 19.0075 19.6663 18.9935C19.6698 18.9828 19.6744 18.9713 19.6805 18.9625C19.6834 18.9549 19.6863 18.9469 19.6894 18.9383C19.6904 18.9358 19.6913 18.9332 19.6923 18.9305C19.697 18.9176 19.7022 18.9037 19.7082 18.8901C19.7201 18.863 19.736 18.835 19.76 18.8155C19.8094 18.7756 19.8814 18.7802 19.9956 18.8531C20.0379 18.8802 20.109 18.9266 20.1975 18.9844C20.2268 19.0036 20.258 19.024 20.2908 19.0453C20.4223 19.1312 20.5781 19.2325 20.7315 19.3305C20.885 19.4285 21.0359 19.5231 21.1578 19.5954C21.2187 19.6316 21.2722 19.6622 21.3151 19.6848C21.3585 19.7078 21.3892 19.7215 21.4054 19.7256C21.4242 19.7303 21.4372 19.7485 21.446 19.7677C21.455 19.7873 21.462 19.8128 21.4676 19.8416C21.4789 19.8995 21.4862 19.9783 21.4905 20.0696C21.4993 20.2525 21.4966 20.4917 21.489 20.728C21.4813 20.9644 21.4687 21.1989 21.4574 21.3727C21.4517 21.4596 21.4464 21.5315 21.4422 21.5809C21.4401 21.6056 21.4382 21.6251 21.4367 21.6381C21.436 21.6444 21.4352 21.6501 21.4345 21.6544L21.4344 21.6545C21.4342 21.6559 21.4334 21.6601 21.4318 21.6642C21.4313 21.6655 21.4303 21.6678 21.4287 21.6704C21.4274 21.6725 21.4238 21.6777 21.4175 21.6802C21.4142 21.6816 21.4108 21.6819 21.4077 21.6813H21.3901L21.3841 21.662Z" fill="black"/>
<path fill-rule="evenodd" clip-rule="evenodd" d="M20.6652 20.4063C20.6511 20.4188 21.7105 21.2438 21.3918 21.95C21.6918 21.6813 21.598 21.2188 21.598 21.2188C21.598 21.2188 21.8418 22.075 21.2418 22.4938C21.3074 22.5688 21.3496 22.5563 21.3496 22.5563L21.2465 22.6875C21.2465 22.6875 21.1996 22.7938 21.6027 22.5313C21.4949 22.65 21.4855 22.7375 21.4855 22.7375C21.4855 22.7375 21.5136 22.85 21.7761 22.5438C21.5652 22.85 21.5183 23.0063 21.5183 23C22.0949 22.9375 23.3465 20.4375 21.1246 19.7063L21.223 19.8438L20.6605 20.4063H20.6652Z" fill="#DE3108"/>
<path fill-rule="evenodd" clip-rule="evenodd" d="M21.1067 19.6922C21.1114 19.6814 21.1209 19.676 21.13 19.679C21.6884 19.8628 22.0319 20.1588 22.2219 20.5041C22.4122 20.8498 22.4464 21.2413 22.3919 21.6095C22.3375 21.9771 22.1945 22.3226 22.0289 22.5802C21.946 22.7091 21.8571 22.8166 21.7701 22.894C21.6844 22.9704 21.5992 23.0188 21.5228 23.0279C21.5189 23.0289 21.5135 23.0288 21.508 23.0245C21.5009 23.0189 21.4988 23.0101 21.4983 23.0074C21.4976 23.004 21.4976 23.0012 21.4976 23.0001C21.4976 22.9937 21.4992 22.9877 21.502 22.983L21.5025 22.9817C21.5041 22.9775 21.5069 22.9705 21.5108 22.9609C21.5188 22.9417 21.5315 22.9126 21.5509 22.8736C21.5703 22.8347 21.5962 22.7861 21.6306 22.728C21.5897 22.7614 21.5595 22.7774 21.5367 22.7832C21.513 22.7892 21.4954 22.7847 21.483 22.7741C21.477 22.7689 21.4729 22.763 21.4702 22.7578C21.4689 22.7552 21.4679 22.7529 21.4672 22.751C21.4669 22.75 21.4666 22.7491 21.4664 22.7484L21.4661 22.7473L21.466 22.7469L21.4659 22.7467L21.4659 22.7466C21.4659 22.7465 21.4659 22.7465 21.4859 22.7376C21.465 22.7336 21.465 22.7336 21.465 22.7336L21.465 22.7335L21.465 22.7335L21.465 22.7332L21.4651 22.7327L21.4653 22.7314C21.4654 22.7303 21.4656 22.7289 21.466 22.7271C21.4666 22.7236 21.4675 22.7189 21.469 22.713C21.472 22.7012 21.4771 22.6849 21.4857 22.665C21.4911 22.6525 21.4978 22.6387 21.5062 22.6237C21.4571 22.6536 21.4173 22.6761 21.3849 22.6927C21.3322 22.7199 21.2983 22.7323 21.2763 22.7358C21.2654 22.7376 21.2557 22.7375 21.2476 22.7345C21.2388 22.7312 21.2305 22.7239 21.2264 22.7113C21.2228 22.7 21.2241 22.6895 21.2252 22.6842C21.2259 22.6812 21.2266 22.6788 21.2272 22.677C21.2275 22.6761 21.2278 22.6754 21.228 22.6748L21.2284 22.674L21.2285 22.6736L21.2286 22.6735L21.2286 22.6734C21.2286 22.6734 21.2286 22.6733 21.2468 22.6876L21.2286 22.6733C21.2296 22.6711 21.2308 22.6691 21.2322 22.6673L21.304 22.576C21.2833 22.5666 21.2577 22.5487 21.2284 22.5152C21.2231 22.5091 21.2204 22.4999 21.2212 22.4907C21.2219 22.4814 21.2261 22.4733 21.2323 22.4689C21.5246 22.265 21.6105 21.9561 21.6242 21.6973C21.6273 21.6382 21.6267 21.5817 21.6238 21.5296C21.6036 21.6761 21.5462 21.846 21.4039 21.9734C21.3957 21.9808 21.3847 21.9796 21.3776 21.9705C21.3704 21.9614 21.3689 21.9469 21.374 21.9356C21.4495 21.7685 21.444 21.5942 21.3916 21.4233C21.3388 21.2515 21.239 21.0849 21.1282 20.938C21.0177 20.7914 20.8975 20.6659 20.8055 20.5762C20.7642 20.5359 20.7288 20.5029 20.7024 20.4784C20.6994 20.4756 20.6965 20.4729 20.6937 20.4704C20.6803 20.4579 20.6695 20.4477 20.6622 20.4405C20.6599 20.4381 20.6576 20.4358 20.6556 20.4336C20.6488 20.4313 20.6432 20.4245 20.6409 20.4152C20.638 20.4038 20.6409 20.3911 20.6482 20.3838L21.1917 19.8404L21.1097 19.7258C21.1032 19.7167 21.102 19.7031 21.1067 19.6922ZM20.6974 20.405C20.703 20.4103 20.7098 20.4168 20.7179 20.4242C20.7206 20.4268 20.7235 20.4295 20.7265 20.4322C20.7529 20.4568 20.7887 20.4901 20.8304 20.5308C20.9232 20.6214 21.0453 20.7487 21.158 20.8981C21.2704 21.0473 21.3748 21.2201 21.4306 21.402C21.4755 21.5483 21.4892 21.7015 21.45 21.8522C21.5409 21.7354 21.5758 21.5973 21.5868 21.4802C21.5936 21.4083 21.5913 21.3444 21.5874 21.2985C21.5854 21.2756 21.583 21.2573 21.5811 21.2448C21.5802 21.2385 21.5794 21.2337 21.5788 21.2306C21.5785 21.229 21.5783 21.2278 21.5782 21.2271L21.578 21.2263L21.578 21.2262L21.578 21.2262L21.578 21.2262C21.5751 21.2117 21.5812 21.1967 21.5919 21.1921C21.6026 21.1875 21.6141 21.1949 21.6181 21.2089L21.5984 21.2188C21.6181 21.2089 21.6181 21.2089 21.6181 21.2089L21.6181 21.209L21.6182 21.2091L21.6183 21.2097L21.6189 21.2118C21.6194 21.2135 21.6201 21.2161 21.6209 21.2194C21.6226 21.2261 21.625 21.2359 21.6279 21.2483C21.6335 21.2732 21.6409 21.3091 21.6477 21.3535C21.6615 21.442 21.6735 21.5648 21.6663 21.7013C21.6523 21.9666 21.5655 22.283 21.2808 22.4978C21.2997 22.5146 21.3149 22.5223 21.3257 22.5259C21.3334 22.5285 21.339 22.529 21.3423 22.529C21.344 22.529 21.3451 22.5289 21.3456 22.5288C21.3457 22.5288 21.3458 22.5288 21.3459 22.5288C21.3549 22.5264 21.3642 22.5322 21.3685 22.5431C21.373 22.5542 21.3713 22.568 21.3645 22.5767L21.2861 22.6765C21.304 22.6712 21.3306 22.6604 21.3697 22.6403C21.4212 22.6137 21.4933 22.5715 21.5938 22.5061C21.6034 22.4998 21.615 22.5041 21.6208 22.5161C21.6266 22.5281 21.6247 22.544 21.6165 22.553C21.5643 22.6105 21.5368 22.6595 21.5223 22.693C21.5158 22.7083 21.5119 22.7204 21.5096 22.7287C21.5131 22.7298 21.5191 22.7304 21.5288 22.7279C21.5626 22.7193 21.6316 22.6755 21.7626 22.5227C21.771 22.5128 21.7838 22.5135 21.7916 22.5242C21.7994 22.5349 21.7996 22.5519 21.792 22.5629C21.6872 22.715 21.6235 22.8295 21.5861 22.9047C21.5744 22.9281 21.5653 22.9477 21.5583 22.9635C21.6157 22.9464 21.6798 22.9068 21.7467 22.8472C21.8299 22.7731 21.916 22.6693 21.9968 22.5436C22.1586 22.292 22.2977 21.9551 22.3505 21.5986C22.4032 21.2425 22.3698 20.8679 22.1879 20.5373C22.0136 20.2207 21.7013 19.941 21.1912 19.7582L21.2386 19.8244C21.2428 19.8302 21.2449 19.8382 21.2444 19.8462C21.2439 19.8542 21.2408 19.8615 21.236 19.8663L20.6974 20.405ZM21.4859 22.7376L21.465 22.7336C21.4645 22.7379 21.4648 22.7424 21.4659 22.7465L21.4859 22.7376Z" fill="black"/>
<path fill-rule="evenodd" clip-rule="evenodd" d="M20.7122 20.1626C20.8528 20.3001 20.9044 20.3501 20.9232 20.4126C20.7919 20.3751 20.6747 20.3876 20.6747 20.3876C20.6747 20.3876 20.3888 20.0251 20.3372 19.9938C20.2997 19.9938 20.0747 19.8063 20.0747 19.8063C19.9669 19.7313 19.8638 19.2251 20.2716 19.3688C20.428 19.4776 20.5893 19.5736 20.7544 19.6563L21.256 19.8688L21.5466 20.3001C21.5466 20.3001 21.031 19.9626 20.9653 19.9563C21.106 20.1063 21.1857 20.3188 21.1857 20.3188C21.0216 20.2563 20.881 20.1938 20.7122 20.1626V20.1626Z" fill="white"/>
<path fill-rule="evenodd" clip-rule="evenodd" d="M20.0214 19.6747C20.0391 19.728 20.0632 19.7669 20.084 19.7814C20.0845 19.7817 20.0849 19.7821 20.0854 19.7825L20.0879 19.7845L20.095 19.7904C20.1012 19.7955 20.1101 19.8028 20.1209 19.8116C20.1425 19.8291 20.1717 19.8524 20.2019 19.8757C20.2323 19.899 20.2635 19.9221 20.2893 19.9394C20.3022 19.948 20.3135 19.9549 20.3224 19.9596C20.3269 19.9619 20.3305 19.9636 20.3332 19.9646C20.3358 19.9655 20.3368 19.9657 20.3368 19.9657C20.3368 19.9657 20.3368 19.9657 20.3367 19.9657C20.3397 19.9657 20.3427 19.9665 20.3454 19.9682C20.3543 19.9736 20.3661 19.9845 20.3788 19.9973C20.3919 20.0106 20.4077 20.0277 20.4248 20.047C20.4592 20.0857 20.5 20.1342 20.539 20.1816C20.5781 20.229 20.6155 20.2754 20.6431 20.3099C20.657 20.3272 20.6684 20.3415 20.6763 20.3515L20.6821 20.3587C20.6853 20.3585 20.6892 20.3583 20.6939 20.3581C20.7073 20.3575 20.7264 20.3571 20.7497 20.3579C20.7847 20.3591 20.8293 20.363 20.8778 20.373C20.8702 20.3622 20.8609 20.3504 20.8492 20.337C20.8176 20.3009 20.7712 20.2556 20.7023 20.1882L20.6992 20.1852L20.7117 20.1626L20.7146 20.1347C20.855 20.1607 20.9764 20.2082 21.1058 20.2587C21.1175 20.2633 21.1293 20.2679 21.1412 20.2726C21.1329 20.2545 21.1226 20.2332 21.1104 20.2099C21.0736 20.1393 21.0198 20.051 20.9517 19.9783C20.9444 19.9706 20.9418 19.9575 20.9452 19.9461C20.9486 19.9346 20.9571 19.9274 20.9663 19.9283C20.9779 19.9294 20.9959 19.9368 21.0158 19.9464C21.0367 19.9565 21.0626 19.9704 21.0916 19.9868C21.1495 20.0195 21.2203 20.0624 21.289 20.105C21.3508 20.1435 21.411 20.1817 21.4585 20.2121L21.2436 19.8933L20.7475 19.6831C20.7472 19.683 20.7468 19.6828 20.7465 19.6826C20.5813 19.5999 20.42 19.5039 20.2634 19.3952C20.1649 19.3609 20.1012 19.3672 20.062 19.3915C20.0238 19.4151 20.0053 19.4577 20.0002 19.5092C19.995 19.5618 20.0041 19.6224 20.0214 19.6747ZM21.5461 20.3001C21.5368 20.3253 21.5368 20.3253 21.5368 20.3253L21.531 20.3215C21.5272 20.3191 21.5217 20.3154 21.5146 20.3108C21.5004 20.3016 21.48 20.2884 21.4553 20.2726C21.406 20.2408 21.3396 20.1985 21.2712 20.156C21.2027 20.1135 21.1323 20.0709 21.0751 20.0385C21.0673 20.0342 21.0598 20.03 21.0526 20.026C21.0902 20.0785 21.1212 20.132 21.145 20.1777C21.1642 20.2144 21.1788 20.2463 21.1888 20.2692C21.1937 20.2806 21.1975 20.2897 21.2 20.2961C21.2013 20.2993 21.2023 20.3017 21.203 20.3035L21.2037 20.3054L21.2039 20.306L21.204 20.3061L21.204 20.3062C21.204 20.3062 21.204 20.3062 21.1851 20.3188L21.204 20.3062C21.2077 20.3162 21.2067 20.3282 21.2014 20.3368C21.196 20.3453 21.1874 20.3489 21.1794 20.3458C21.1498 20.3346 21.1211 20.3234 21.093 20.3124C20.9917 20.2728 20.8973 20.2359 20.7952 20.2096C20.8291 20.2432 20.8558 20.2706 20.8766 20.2943C20.9103 20.3328 20.931 20.3645 20.9422 20.4021C20.9451 20.4118 20.9438 20.4227 20.9388 20.4307C20.9337 20.4386 20.9258 20.4422 20.9182 20.4401C20.8542 20.4218 20.7935 20.4156 20.7487 20.4141C20.7263 20.4133 20.708 20.4137 20.6953 20.4143C20.6889 20.4146 20.684 20.4149 20.6807 20.4152C20.6791 20.4153 20.6778 20.4154 20.677 20.4155L20.6761 20.4156L20.6759 20.4156C20.6759 20.4156 20.6759 20.4156 20.6759 20.4156M20.6742 20.3876L20.6597 20.4079L20.6565 20.4039L20.6473 20.3924C20.6394 20.3824 20.6281 20.3682 20.6143 20.351C20.5867 20.3165 20.5495 20.2703 20.5106 20.2232C20.4717 20.176 20.4313 20.128 20.3976 20.09C20.3807 20.071 20.3656 20.0546 20.3533 20.0421C20.3428 20.0316 20.3354 20.0248 20.3307 20.0213C20.3328 20.0217 20.3348 20.0219 20.3367 20.0219V19.9938L20.328 20.0194C20.3287 20.0199 20.3297 20.0205 20.3307 20.0213C20.323 20.0198 20.3145 20.0159 20.3069 20.0119C20.2964 20.0063 20.2839 19.9986 20.2704 19.9897C20.2435 19.9717 20.2115 19.948 20.1809 19.9244C20.1502 19.9008 20.1208 19.8773 20.099 19.8596C20.0881 19.8508 20.0791 19.8434 20.0729 19.8383L20.0656 19.8323L20.0637 19.8307C20.0309 19.8074 20.002 19.7553 19.9828 19.6974C19.9633 19.6383 19.9519 19.5672 19.9584 19.5018C19.965 19.4354 19.9904 19.3737 20.0442 19.3405C20.0967 19.3081 20.1724 19.3049 20.2765 19.3416C20.278 19.3421 20.2794 19.3429 20.2808 19.3439C20.4363 19.452 20.5966 19.5475 20.7608 19.6297L21.2618 19.842C21.2654 19.8435 21.2686 19.8463 21.2711 19.85L21.5618 20.2813C21.5685 20.2913 21.569 20.3063 21.5629 20.317C21.5568 20.3278 21.5459 20.3312 21.5368 20.3253L21.5461 20.3001M20.6759 20.4156C20.6759 20.4156 20.6759 20.4156 20.6759 20.4156C20.6699 20.4162 20.664 20.4134 20.6597 20.4079L20.6742 20.3876" fill="black"/>
<path fill-rule="evenodd" clip-rule="evenodd" d="M18.7109 17.1462C18.6996 17.1499 18.6881 17.1407 18.6853 17.1256C18.6825 17.1105 18.6894 17.0953 18.7007 17.0916L18.7058 17.1189C18.7007 17.0916 18.7007 17.0916 18.7007 17.0916L18.7063 17.0897C18.7099 17.0885 18.7153 17.0868 18.7221 17.0846C18.7357 17.0802 18.7552 17.0739 18.7788 17.0665C18.826 17.0516 18.8895 17.032 18.9551 17.0132C19.0205 16.9945 19.0882 16.9764 19.1434 16.9645C19.171 16.9586 19.1959 16.9542 19.216 16.9521C19.226 16.951 19.2352 16.9505 19.2431 16.9507C19.2506 16.9509 19.2585 16.9517 19.2651 16.9545C19.2763 16.959 19.2825 16.9748 19.2791 16.9896C19.2757 17.0045 19.2638 17.0128 19.2527 17.0082C19.2518 17.0079 19.2486 17.0071 19.2422 17.0069C19.2362 17.0067 19.2286 17.0071 19.2193 17.0081C19.2008 17.0101 19.1772 17.0143 19.1501 17.0201C19.096 17.0317 19.0291 17.0495 18.9639 17.0682C18.8988 17.0869 18.8355 17.1064 18.7885 17.1212C18.765 17.1286 18.7456 17.1349 18.732 17.1393C18.7253 17.1415 18.72 17.1432 18.7164 17.1444L18.7109 17.1462Z" fill="white"/>
<path fill-rule="evenodd" clip-rule="evenodd" d="M1.99951 30.6688H37.9995V36.0001H1.99951V30.6688Z" fill="#DE3908"/>
</g>
<rect x="2" y="2" width="36" height="36" rx="18" stroke="white" stroke-width="4"/>
<defs>
<clipPath id="clip0_90_20731">
<rect x="4" y="4" width="32" height="32" rx="16" fill="white"/>
</clipPath>
</defs>
</svg>
