<svg width="40" height="40" viewBox="0 0 40 40" fill="none" xmlns="http://www.w3.org/2000/svg">
<g clip-path="url(#clip0_90_20724)">
<path fill-rule="evenodd" clip-rule="evenodd" d="M4 4H49.6V6.4625H4V4ZM4 8.925H49.6V11.3875H4V8.925ZM4 13.8438H49.6V16.3125H4V13.8438ZM4 18.7688H49.6V21.2313H4V18.7688ZM4 23.6938H49.6V26.1563H4V23.6938ZM4 28.6125H49.6V31.075H4V28.6125ZM4 33.5375H49.6V36H4V33.5375Z" fill="#BD3D44"/>
<path fill-rule="evenodd" clip-rule="evenodd" d="M3.99988 6.46252H49.5999V8.92502H3.99988V6.46252ZM3.99988 11.3875H49.5999V13.8438H3.99988V11.3875ZM3.99988 16.3063H49.5999V18.7688H3.99988V16.3063ZM3.99988 21.2313H49.5999V23.6938H3.99988V21.2313ZM3.99988 26.1563H49.5999V28.6188H3.99988V26.1563ZM3.99988 31.075H49.5999V33.5375H3.99988V31.075Z" fill="white"/>
<path fill-rule="evenodd" clip-rule="evenodd" d="M4 4H22.2391V21.2312H4V4Z" fill="#192F5D"/>
<path fill-rule="evenodd" clip-rule="evenodd" d="M5.51807 4.73755L5.68682 5.4188H6.22119L5.78994 5.83755L5.954 6.52505L5.51807 6.10005L5.08682 6.5188L5.25088 5.83755L4.81494 5.4188H5.35869L5.51807 4.73755ZM8.56025 4.73755L8.72432 5.4188H9.26338L8.82744 5.83755L8.9915 6.52505L8.56025 6.10005L8.12432 6.5188L8.28838 5.83755L7.85713 5.4188H8.3915L8.56025 4.73755ZM11.5978 4.73755L11.7665 5.4188H12.2962L11.8649 5.83755L12.029 6.52505L11.5931 6.10005L11.1618 6.5188L11.3259 5.83755L10.8899 5.4188H11.429L11.5978 4.73755ZM14.6399 4.73755L14.804 5.4188H15.3431L14.9071 5.83755L15.0759 6.52505L14.6399 6.10005L14.204 6.5188L14.3728 5.83755L13.9368 5.4188H14.4712L14.6399 4.73755ZM17.6774 4.73755L17.8462 5.4188H18.3806L17.9493 5.83755L18.1134 6.52505L17.6774 6.10005L17.2462 6.5188L17.4103 5.83755L16.979 5.4188H17.5134L17.6774 4.73755ZM20.7196 4.73755L20.8837 5.4188H21.4228L20.9868 5.83755L21.1556 6.52505L20.7196 6.10005L20.2837 6.5188L20.4524 5.83755L20.0165 5.4188H20.5556L20.7196 4.73755ZM7.0415 6.46255L7.20557 7.1438H7.74463L7.30869 7.56255L7.46807 8.2438L7.04619 7.82505L6.61025 8.2438L6.76494 7.56255L6.34307 7.1438H6.87744L7.0415 6.46255ZM10.079 6.46255L10.2478 7.1438H10.7821L10.3462 7.56255L10.5149 8.2438L10.079 7.82505L9.64307 8.2438L9.81182 7.56255L9.37588 7.1438H9.91494L10.079 6.46255ZM13.1212 6.46255L13.2853 7.1438H13.8243L13.3884 7.56255L13.5524 8.2438L13.1212 7.82505L12.6853 8.2438L12.8493 7.56255L12.4181 7.1438H12.9524L13.1212 6.46255ZM16.1587 6.46255L16.3274 7.1438H16.8618L16.4259 7.56255L16.5946 8.2438L16.1587 7.82505L15.7274 8.2438L15.8915 7.56255L15.4556 7.1438H15.9993L16.1587 6.46255ZM19.2009 6.46255L19.3649 7.1438H19.904L19.4681 7.56255L19.6321 8.2438L19.2009 7.82505L18.7649 8.2438L18.929 7.56255L18.4978 7.1438H19.0321L19.2009 6.46255ZM5.51807 8.1813L5.68682 8.87505H6.22119L5.78994 9.2938L5.954 9.97505L5.51807 9.55005L5.08682 9.97505L5.25088 9.28755L4.81494 8.8688H5.35869L5.51807 8.1813ZM8.56025 8.1813L8.72432 8.8688H9.26338L8.82744 9.28755L8.9915 9.9688L8.56025 9.5438L8.12432 9.9688L8.28838 9.2813L7.85713 8.86255H8.3915L8.56025 8.1813ZM11.5978 8.1813L11.7665 8.8688H12.2962L11.8649 9.28755L12.029 9.9688L11.5931 9.5438L11.1618 9.9688L11.3259 9.2813L10.8899 8.86255H11.429L11.5978 8.1813ZM14.6399 8.1813L14.804 8.8688H15.3431L14.9071 9.28755L15.0759 9.9688L14.6399 9.5438L14.204 9.9688L14.3728 9.2813L13.9368 8.86255H14.4712L14.6399 8.1813ZM17.6774 8.1813L17.8462 8.8688H18.3806L17.9493 9.28755L18.1134 9.9688L17.6774 9.5438L17.2462 9.9688L17.4103 9.2813L16.979 8.86255H17.5134L17.6774 8.1813ZM20.7196 8.1813L20.8837 8.8688H21.4228L20.9868 9.28755L21.1556 9.9688L20.7196 9.5438L20.2837 9.9688L20.4524 9.2813L20.0165 8.86255H20.5556L20.7196 8.1813ZM7.0415 9.9063L7.20557 10.5875H7.74463L7.30869 11.0063L7.47275 11.6938L7.0415 11.2688L6.60557 11.6875L6.76963 11.0063L6.33838 10.5875H6.87275L7.0415 9.9063ZM10.079 9.9063L10.2478 10.5875H10.7821L10.3462 11.0063L10.5149 11.6938L10.079 11.2688L9.64307 11.6875L9.81182 11.0063L9.37588 10.5875H9.91494L10.079 9.9063ZM13.1212 9.9063L13.2853 10.5875H13.8243L13.3884 11.0063L13.5524 11.6938L13.1212 11.2688L12.6853 11.6875L12.8493 11.0063L12.4181 10.5875H12.9524L13.1212 9.9063ZM16.1587 9.9063L16.3274 10.5875H16.8618L16.4306 11.0063L16.5946 11.6938L16.1587 11.2688L15.7274 11.6875L15.8915 11.0063L15.4556 10.5875H15.9993L16.1587 9.9063ZM19.2009 9.9063L19.3649 10.5875H19.904L19.4681 11.0063L19.6321 11.6938L19.2009 11.2688L18.7649 11.6875L18.929 11.0063L18.4978 10.5875H19.0321L19.2009 9.9063ZM5.51807 11.6313L5.68682 12.3125H6.22119L5.78994 12.7313L5.954 13.4188L5.51807 12.9938L5.08682 13.4125L5.25088 12.7313L4.81494 12.3125H5.35869L5.51807 11.6313ZM8.56025 11.6313L8.72432 12.3125H9.26338L8.82744 12.7313L8.9915 13.4125L8.56025 12.9938L8.12432 13.4125L8.28838 12.7313L7.85713 12.3125H8.3915L8.56025 11.6313ZM11.5978 11.6313L11.7665 12.3125H12.2962L11.8649 12.7313L12.029 13.4188L11.5931 12.9938L11.1618 13.4125L11.3259 12.7313L10.8899 12.3125H11.429L11.5978 11.6313ZM14.6399 11.6313L14.804 12.3125H15.3431L14.9071 12.7313L15.0759 13.4188L14.6399 12.9938L14.204 13.4125L14.3728 12.7313L13.9368 12.3125H14.4712L14.6399 11.6313ZM17.6774 11.6313L17.8462 12.3125H18.3806L17.9493 12.7313L18.1134 13.4188L17.6774 12.9938L17.2462 13.4125L17.4103 12.7313L16.979 12.3125H17.5134L17.6774 11.6313ZM20.7196 11.6313L20.8837 12.3125H21.4228L20.9868 12.7313L21.1556 13.4188L20.7196 12.9938L20.2837 13.4125L20.4524 12.7313L20.0165 12.3125H20.5556L20.7196 11.6313ZM7.0415 13.3563L7.20557 14.0375H7.74463L7.30869 14.4563L7.47275 15.1375L7.0415 14.7125L6.60557 15.1375L6.76963 14.45L6.33838 14.0313H6.87275L7.0415 13.3563ZM10.079 13.3563L10.2478 14.0375H10.7821L10.3462 14.4563L10.5149 15.1375L10.079 14.7125L9.64307 15.1375L9.81182 14.45L9.37588 14.0313H9.91494L10.079 13.3563ZM13.1212 13.3563L13.2853 14.0375H13.8243L13.3884 14.4563L13.5524 15.1375L13.1212 14.7125L12.6853 15.1375L12.8493 14.45L12.4181 14.0313H12.9524L13.1212 13.3563ZM16.1587 13.3563L16.3274 14.0375H16.8618L16.4306 14.4563L16.5946 15.1375L16.1587 14.7125L15.7274 15.1375L15.8915 14.45L15.4556 14.0313H15.9993L16.1587 13.3563ZM19.2009 13.3563L19.3649 14.0375H19.904L19.4681 14.4563L19.6321 15.1375L19.2009 14.7125L18.7649 15.1375L18.929 14.45L18.4978 14.0313H19.0321L19.2009 13.3563ZM5.51807 15.075L5.68682 15.7625H6.22119L5.78994 16.1813L5.954 16.8563L5.51807 16.4375L5.08682 16.8563L5.25088 16.175L4.81494 15.7563H5.35869L5.51807 15.075ZM8.56025 15.075L8.72432 15.7625H9.26338L8.82744 16.1813L8.99619 16.8563L8.56025 16.4375L8.12432 16.8563L8.29307 16.175L7.85713 15.7563H8.3915L8.56025 15.075ZM11.5978 15.075L11.7665 15.7625H12.2962L11.8649 16.1813L12.029 16.8563L11.5931 16.4375L11.1618 16.8563L11.3259 16.175L10.8899 15.7563H11.429L11.5978 15.075ZM14.6399 15.075L14.804 15.7625H15.3431L14.9071 16.1813L15.0759 16.8563L14.6399 16.4375L14.204 16.8563L14.3728 16.175L13.9368 15.7563H14.4712L14.6399 15.075ZM17.6774 15.075L17.8462 15.7625H18.3806L17.9493 16.1813L18.1134 16.8563L17.6774 16.4375L17.2462 16.8563L17.4103 16.175L16.979 15.7563H17.5134L17.6774 15.075ZM20.7196 15.075L20.8837 15.7625H21.4228L20.9868 16.1813L21.1556 16.8563L20.7196 16.4375L20.2837 16.8563L20.4524 16.175L20.0165 15.7563H20.5556L20.7196 15.075ZM7.0415 16.8L7.20557 17.4813H7.74463L7.30869 17.9L7.47275 18.5875L7.0415 18.1625L6.60557 18.5813L6.76963 17.9L6.33838 17.4813H6.87275L7.0415 16.8ZM10.079 16.8L10.2478 17.4813H10.7821L10.3462 17.9L10.5149 18.5875L10.079 18.1625L9.64307 18.5813L9.81182 17.9L9.37588 17.4813H9.91494L10.079 16.8ZM13.1212 16.8L13.2853 17.4813H13.8243L13.3884 17.9L13.5524 18.5875L13.1212 18.1625L12.6853 18.5813L12.8493 17.9L12.4181 17.4813H12.9524L13.1212 16.8ZM16.1587 16.8L16.3274 17.4813H16.8618L16.4306 17.9L16.5946 18.5875L16.1587 18.1625L15.7274 18.5813L15.8915 17.9L15.4556 17.4813H15.9993L16.1587 16.8ZM19.2009 16.8L19.3649 17.4813H19.904L19.4681 17.9L19.6321 18.5875L19.2009 18.1625L18.7649 18.5813L18.929 17.9L18.4978 17.4813H19.0321L19.2009 16.8ZM5.51807 18.525L5.68682 19.2063H6.22119L5.78994 19.625L5.954 20.3063L5.51807 19.8875L5.08682 20.3063L5.25088 19.6188L4.81494 19.2H5.35869L5.51807 18.525ZM8.56025 18.525L8.72432 19.2063H9.26338L8.82744 19.625L8.99619 20.3063L8.56025 19.8875L8.12432 20.3063L8.29307 19.6188L7.85713 19.2H8.3915L8.56025 18.525ZM11.5978 18.525L11.7665 19.2063H12.2962L11.8743 19.625L12.0384 20.3063L11.6024 19.8875L11.1712 20.3063L11.3353 19.6188L10.8993 19.2H11.4384L11.5978 18.525ZM14.6399 18.525L14.804 19.2063H15.3431L14.9071 19.625L15.0759 20.3063L14.6399 19.8875L14.204 20.3063L14.3728 19.6188L13.9368 19.2H14.4712L14.6399 18.525ZM17.6774 18.525L17.8462 19.2063H18.3806L17.9493 19.625L18.1134 20.3063L17.6774 19.8875L17.2462 20.3063L17.4103 19.6188L16.979 19.2H17.5134L17.6774 18.525ZM20.7196 18.525L20.8837 19.2063H21.4228L20.9868 19.625L21.1556 20.3063L20.7196 19.8875L20.2837 20.3063L20.4524 19.6188L20.0165 19.2H20.5556L20.7196 18.525Z" fill="white"/>
</g>
<rect x="2" y="2" width="36" height="36" rx="18" stroke="white" stroke-width="4"/>
<defs>
<clipPath id="clip0_90_20724">
<rect x="4" y="4" width="32" height="32" rx="16" fill="white"/>
</clipPath>
</defs>
</svg>
