<svg width="40" height="40" viewBox="0 0 40 40" fill="none" xmlns="http://www.w3.org/2000/svg">
<g clip-path="url(#clip0_90_20711)">
<path fill-rule="evenodd" clip-rule="evenodd" d="M4 4H36V36H4V4Z" fill="#4B92DB"/>
<path d="M21.8874 27.4801C21.8004 27.606 21.705 27.7211 21.6024 27.8241C20.9664 26.9441 20.2164 25.9761 19.5054 25.9761C19.0644 25.9761 18.7494 26.4241 18.3774 26.7361C17.8644 27.1761 17.1594 27.4241 16.5564 27.1001C16.2154 26.9444 15.9126 26.6678 15.6804 26.3001C15.9358 26.5124 16.2251 26.6412 16.5249 26.676C16.8247 26.7108 17.1264 26.6505 17.4054 26.5001C17.9964 26.1721 18.6024 25.7361 19.2774 25.7361C20.2734 25.7361 21.2214 26.6361 21.8874 27.4801ZM14.5194 24.7201C15.1794 25.7201 16.2564 25.4001 17.1354 25.6481C17.2584 25.6881 17.3754 25.7401 17.5074 25.7121C17.4024 25.6241 17.2614 25.6121 17.1414 25.5521C16.4574 25.2081 16.3524 24.2321 15.9774 23.5641C16.4574 23.9881 16.8504 24.5641 17.2974 25.1121C17.6125 25.4595 17.9936 25.6838 18.3984 25.7601C18.3024 25.8081 18.1764 25.8001 18.0684 25.8321C17.3484 26.0721 16.5504 26.4481 15.7824 26.1121C15.2469 25.874 14.7974 25.3775 14.5224 24.7201H14.5194ZM13.4634 22.4001C13.8744 23.6441 14.9094 23.7441 15.5934 24.5041C15.7161 24.6493 15.8522 24.773 15.9984 24.8721L16.0074 24.8641C15.8383 24.6675 15.6863 24.4461 15.5544 24.2041C15.1614 23.4441 15.2904 22.4041 14.9874 21.5961C15.2689 22.0132 15.5024 22.4837 15.6804 22.9921C15.9354 23.8001 16.0224 24.7241 16.5954 25.3401C15.9744 25.0681 15.2604 25.1201 14.7054 24.6361C14.1174 24.1241 13.5744 23.3161 13.4634 22.4041V22.4001ZM13.0224 19.8881C13.0824 20.9841 13.9524 21.5681 14.3724 22.4681C14.4624 22.6601 14.5524 22.8601 14.6814 23.0121C14.6604 22.8961 14.5914 22.7921 14.5494 22.6801C14.4117 22.2757 14.3568 21.8299 14.3904 21.3881C14.4294 20.8281 14.6034 20.3081 14.5374 19.7201C14.8974 20.7561 14.7804 22.0481 14.9874 23.1641C15.0354 23.4121 15.1464 23.6281 15.2154 23.8641C14.8644 23.5041 14.4024 23.1841 14.0154 22.7841C13.6296 22.4143 13.3284 21.9088 13.1454 21.3241C13.0276 20.8627 12.9857 20.373 13.0224 19.8881V19.8881ZM13.0464 17.8721C13.0884 17.6281 13.1214 17.3761 13.1994 17.1521C13.0494 18.1841 13.5654 18.9281 13.7394 19.8241C13.8054 20.1601 13.8294 20.5161 13.9314 20.8321C13.9404 20.8361 13.9494 20.8241 13.9554 20.8161C13.7004 19.8641 14.0754 18.9841 14.4354 18.2361C14.5236 18.0308 14.5864 17.808 14.6214 17.5761C14.6604 18.0081 14.5914 18.5041 14.5314 18.9481C14.4564 19.5201 14.3094 20.0561 14.1924 20.6081C14.1291 20.9678 14.124 21.3415 14.1774 21.7041L14.1384 21.6641C13.8684 21.0001 13.3344 20.4801 13.1754 19.7521C13.0234 19.1473 12.9793 18.5036 13.0464 17.8721V17.8721ZM13.3314 16.7601C13.3412 16.0253 13.5428 15.3181 13.9014 14.7601C13.9104 14.7521 13.9194 14.7401 13.9314 14.7441C13.5534 15.5041 13.8984 16.4721 13.8474 17.3401L13.7994 18.2281C13.8054 18.2361 13.8054 18.2641 13.8234 18.2521C13.8474 18.1521 13.8534 18.0481 13.8654 17.9441C13.9554 17.2241 14.4294 16.7281 14.8284 16.2241C14.9207 16.1079 14.9925 15.9658 15.0384 15.8081C15.0054 16.1681 14.9304 16.5321 14.8104 16.8561C14.5014 17.6881 13.9074 18.3601 13.7994 19.3081C13.7484 18.4001 13.3314 17.7241 13.3314 16.7601V16.7601ZM14.3214 14.1241C14.4939 13.8476 14.7234 13.6446 14.9814 13.5401C14.4864 13.9921 14.5134 14.7961 14.3634 15.4681C14.3094 15.7121 14.2284 15.9441 14.1834 16.1961L14.1984 16.2121C14.2868 15.9095 14.4253 15.6374 14.6034 15.4161C14.9484 14.9841 15.4674 14.7201 15.6384 14.0841C15.6294 14.9681 15.0654 15.6401 14.5494 16.1601C14.3197 16.3911 14.1329 16.6895 14.0034 17.0321C14.0214 16.7921 14.0334 16.5841 14.0154 16.3481C13.9614 15.5761 13.9254 14.7081 14.3244 14.1241H14.3214ZM16.3164 12.6401C15.9534 13.0681 15.7104 13.6161 15.4284 14.1081C15.1974 14.5201 14.8764 14.7721 14.6034 15.1161C14.7534 14.7081 14.7774 14.2361 14.9664 13.8401C15.2874 13.1601 15.8214 12.8961 16.3164 12.6401V12.6401Z" fill="white"/>
<path d="M24.4499 21.4667L24.3449 21.3867C24.1169 22.0117 23.8146 22.5835 23.4499 23.08L22.8249 22.24C23.127 21.824 23.3754 21.3442 23.5599 20.82L23.4549 20.74C23.2743 21.2523 23.031 21.721 22.7349 22.1267L22.1649 21.3667C22.4063 21.0343 22.6025 20.6486 22.7449 20.2267L22.6399 20.1467C22.5028 20.5561 22.3133 20.9306 22.0799 21.2534L21.4549 20.42C21.6268 20.1762 21.7625 19.8912 21.8549 19.58L21.7499 19.5C21.6625 19.7965 21.5336 20.068 21.3699 20.3L20.7949 19.54C20.9563 19.3006 21.0516 18.9948 21.0649 18.6734H21.8749C21.8689 18.9564 21.8266 19.236 21.7499 19.5L21.8549 19.58C21.9411 19.2911 21.9885 18.9842 21.9949 18.6734H22.8849C22.8758 19.1818 22.7909 19.6826 22.6349 20.1467L22.7449 20.2267C22.9088 19.7374 22.9972 19.2091 23.0049 18.6734H23.8149C23.806 19.3885 23.6833 20.0929 23.4549 20.74L23.5599 20.82C23.7964 20.1477 23.9225 19.4159 23.9299 18.6734H24.8249C24.8166 19.6139 24.6527 20.5403 24.3449 21.3867L24.4499 21.4667C24.7771 20.5739 24.9481 19.5937 24.9499 18.6C24.9505 17.7524 24.8283 16.9125 24.5899 16.1267L24.4799 16.1934C24.704 16.9332 24.8227 17.7222 24.8299 18.52H23.9349C23.9296 17.8806 23.8364 17.248 23.6599 16.6534L23.5499 16.72C23.7214 17.2931 23.8129 17.9031 23.8199 18.52H22.9999C22.9943 18.0501 22.9266 17.5853 22.7999 17.1467L22.6899 17.2134C22.8098 17.6309 22.8741 18.0731 22.8799 18.52H21.9999C21.9942 18.2332 21.9536 17.9496 21.8799 17.68L21.7699 17.7467C21.837 17.9951 21.8741 18.2561 21.8799 18.52H21.0699C21.0566 18.1986 20.9613 17.8928 20.7999 17.6534L21.3749 16.8867C21.5487 17.1324 21.6831 17.4228 21.7699 17.74L21.8799 17.68C21.7875 17.343 21.6446 17.0345 21.4599 16.7734L22.0899 15.9334C22.3552 16.3016 22.5626 16.7368 22.6999 17.2134L22.8099 17.1467C22.6649 16.6521 22.4473 16.2011 22.1699 15.82L22.7449 15.06C23.093 15.5395 23.3665 16.1059 23.5499 16.7267L23.6599 16.66C23.4687 16.0213 23.185 15.4391 22.8249 14.9467L23.4549 14.1067C23.8957 14.7061 24.244 15.4151 24.4799 16.1934L24.5899 16.1267C24.3405 15.3076 23.9698 14.5639 23.4999 13.94C23.0297 13.3096 22.4683 12.8129 21.8499 12.48L21.8099 12.6334C22.3932 12.946 22.9249 13.408 23.3749 13.9934L22.7449 14.8334C22.3817 14.3641 21.9538 13.9928 21.4849 13.74L21.4349 13.8867C21.8912 14.1331 22.3073 14.4954 22.6599 14.9534L22.0899 15.7134C21.8156 15.3598 21.4931 15.0792 21.1399 14.8867L21.0999 15.0334C21.4343 15.2179 21.7397 15.4847 21.9999 15.82L21.3749 16.66C21.2001 16.4398 20.9969 16.2636 20.7749 16.14L20.7299 16.2934C20.9366 16.4074 21.1263 16.57 21.2899 16.7734L20.7099 17.5334C20.5303 17.3182 20.301 17.1912 20.0599 17.1734V16.0934C20.2886 16.103 20.514 16.1686 20.7249 16.2867L20.7699 16.14C20.5448 16.0136 20.3041 15.9436 20.0599 15.9334V14.7467C20.4149 14.7542 20.7658 14.8491 21.0949 15.0267L21.1399 14.88C20.7966 14.6942 20.4304 14.5947 20.0599 14.5867V13.5067C20.5317 13.5164 20.9979 13.643 21.4349 13.88L21.4749 13.7334C21.0249 13.4912 20.5452 13.3623 20.0599 13.3534V12.16C20.6583 12.1697 21.2501 12.3279 21.8049 12.6267L21.8449 12.4734C21.258 12.1618 20.6317 12.0034 19.9999 12.0067C19.2328 12.0047 18.4759 12.2421 17.7899 12.7L17.8399 12.8334C18.4929 12.4014 19.211 12.1734 19.9399 12.1667V13.3534C19.355 13.3628 18.7792 13.5474 18.2549 13.8934L18.3099 14.0267C18.8174 13.6936 19.3743 13.5159 19.9399 13.5067V14.5867C19.5064 14.5974 19.0799 14.7339 18.6899 14.9867L18.7399 15.1267C19.1146 14.8858 19.524 14.7561 19.9399 14.7467V15.9334C19.668 15.9452 19.4008 16.0314 19.1549 16.1867L19.2049 16.32C19.4358 16.1787 19.6859 16.1016 19.9399 16.0934V17.1734C19.8196 17.1823 19.7012 17.2183 19.5899 17.28L19.6399 17.4134C19.7546 17.3537 19.8769 17.3242 19.9999 17.3267C20.1242 17.3261 20.2474 17.3581 20.3623 17.4211C20.4773 17.484 20.5818 17.5765 20.6699 17.6934C20.7597 17.8119 20.8307 17.9532 20.8788 18.1089C20.9269 18.2646 20.9511 18.4316 20.9499 18.6C20.9499 18.936 20.8498 19.2582 20.6717 19.4957C20.4935 19.7333 20.2519 19.8667 19.9999 19.8667C19.8753 19.8665 19.752 19.8333 19.637 19.7693C19.522 19.7052 19.4176 19.6114 19.3299 19.4934C19.2414 19.3764 19.1711 19.2373 19.123 19.084C19.075 18.9307 19.0501 18.7662 19.0499 18.6C19.0495 18.4328 19.074 18.267 19.122 18.1125C19.1701 17.958 19.2408 17.8178 19.3299 17.7C19.4188 17.5826 19.5241 17.4897 19.6399 17.4267L19.5849 17.2867C19.475 17.3483 19.3737 17.4339 19.2849 17.54L18.7149 16.7734C18.861 16.5901 19.0281 16.4393 19.2099 16.3267L19.1549 16.1934C18.9625 16.3109 18.7853 16.4684 18.6299 16.66L17.9999 15.82C18.2181 15.5409 18.4678 15.3092 18.7399 15.1334L18.6899 15C18.407 15.1829 18.1472 15.4236 17.9199 15.7134L17.3449 14.9334C17.6294 14.5662 17.9549 14.2603 18.3099 14.0267L18.2599 13.8934C17.8923 14.1335 17.555 14.4484 17.2599 14.8267L16.6299 13.98C16.9881 13.5164 17.3979 13.1296 17.8449 12.8334L17.7899 12.6934C16.8247 13.3404 16.0437 14.3888 15.5649 15.68L15.6649 15.7467C15.891 15.1371 16.188 14.5791 16.5449 14.0934L17.1799 14.94C16.8843 15.3452 16.6395 15.8111 16.4549 16.32L16.5549 16.3934C16.7337 15.8965 16.9718 15.4417 17.2599 15.0467L17.8349 15.8067C17.602 16.1289 17.411 16.5007 17.2699 16.9067L17.3699 16.98C17.5072 16.5879 17.6931 16.2295 17.9199 15.92L18.5499 16.76C18.3859 16.9893 18.2539 17.2557 18.1599 17.5467L18.2649 17.6267C18.3514 17.3482 18.4751 17.093 18.6299 16.8734L19.2049 17.6334C19.0428 17.8749 18.9475 18.183 18.9349 18.5067H18.1249C18.1313 18.2045 18.1787 17.9063 18.2649 17.6267L18.1649 17.5467C18.0671 17.8506 18.0128 18.1762 18.0049 18.5067H17.1149C17.1219 17.9794 17.2104 17.4597 17.3749 16.98L17.2749 16.9134C17.0998 17.4129 17.0045 17.9555 16.9949 18.5067H16.1849C16.1939 17.7744 16.3218 17.0534 16.5599 16.3934L16.4549 16.32C16.2088 17.0029 16.0774 17.7491 16.0699 18.5067H15.1749C15.1837 17.5512 15.3528 16.6104 15.6699 15.7534L15.5649 15.68C15.2295 16.5837 15.055 17.5784 15.0549 18.5867C15.0549 19.2162 15.1222 19.8426 15.2549 20.4467L15.3699 20.4067C15.2457 19.8413 15.1801 19.2559 15.1749 18.6667H16.0699C16.074 19.1568 16.1296 19.6438 16.2349 20.1134L16.3499 20.0734C16.2458 19.6171 16.1903 19.1436 16.1849 18.6667H16.9999C17.0047 19.0559 17.0519 19.4422 17.1399 19.8134L17.2599 19.7734C17.173 19.4156 17.1258 19.0427 17.1199 18.6667H17.9999C18.0063 18.9441 18.0451 19.2186 18.1149 19.48L18.2299 19.44C18.163 19.1916 18.1258 18.9306 18.1199 18.6667H18.9299C18.9433 18.9882 19.0385 19.2939 19.1999 19.5334L18.6249 20.3C18.4507 20.0522 18.3163 19.7596 18.2299 19.44L18.1149 19.48C18.2079 19.8277 18.3544 20.1456 18.5449 20.4134L17.9099 21.2534C17.6086 20.8332 17.3829 20.3271 17.2499 19.7734L17.1299 19.8134C17.2707 20.3959 17.5103 20.9274 17.8299 21.3667L17.2599 22.1334C16.8399 21.5548 16.5296 20.8508 16.3549 20.08L16.2399 20.12C16.4196 20.9184 16.7402 21.6477 17.1749 22.2467L16.5499 23.0867C15.9999 22.3374 15.5965 21.4194 15.3749 20.4134L15.2549 20.4534C15.4881 21.5121 15.9181 22.4752 16.5049 23.2534C16.9015 23.7847 17.3631 24.2221 17.8699 24.5467L17.9299 24.4067C17.4497 24.1028 17.0104 23.6951 16.6299 23.2L17.2599 22.36C17.5828 22.7749 17.9566 23.1131 18.3649 23.36L18.4249 23.2267C18.0253 22.9853 17.66 22.6537 17.3449 22.2467L17.9149 21.4867C18.1791 21.8252 18.4875 22.0964 18.8249 22.2867L18.8849 22.1467C18.5566 21.964 18.2566 21.7018 17.9999 21.3734L18.6299 20.5334C18.8312 20.7851 19.0696 20.9781 19.3299 21.1L19.3849 20.96C19.1355 20.8451 18.9072 20.6611 18.7149 20.42L19.2899 19.6534C19.4695 19.8686 19.6988 19.9956 19.9399 20.0134V21.0934C19.7526 21.0858 19.5672 21.0409 19.3899 20.96L19.3249 21.0934C19.5223 21.1897 19.7299 21.2437 19.9399 21.2534V22.44C19.5775 22.4318 19.2196 22.3323 18.8849 22.1467L18.8249 22.28C19.1778 22.4808 19.5563 22.5894 19.9399 22.6V23.68C19.4169 23.6696 18.9011 23.5152 18.4249 23.2267L18.3649 23.36C18.8592 23.6641 19.3956 23.8276 19.9399 23.84V25.0267C19.2441 25.0167 18.5583 24.8052 17.9299 24.4067L17.8699 24.54C18.5347 24.9655 19.2626 25.1865 19.9999 25.1867C20.7899 25.1867 21.5499 24.94 22.2299 24.48L22.1699 24.3334C21.5157 24.777 20.7938 25.0142 20.0599 25.0267V23.8334C20.6507 23.8223 21.2318 23.6331 21.7599 23.28L21.7099 23.14C21.1973 23.4821 20.6331 23.6645 20.0599 23.6734V22.6067C20.5051 22.5933 20.9424 22.4476 21.3399 22.18L21.2849 22.04C20.9039 22.2928 20.4855 22.4295 20.0599 22.44V21.2534C20.3427 21.2429 20.6206 21.152 20.8749 20.9867L20.8249 20.84C20.5864 20.9962 20.3256 21.0826 20.0599 21.0934V20.0134C20.301 19.9956 20.5303 19.8686 20.7099 19.6534L21.2849 20.42C21.1465 20.5902 20.9898 20.7318 20.8199 20.84L20.8749 20.9867C21.0561 20.8697 21.223 20.7168 21.3699 20.5334L21.9999 21.3667C21.7886 21.6382 21.5475 21.8652 21.2849 22.04L21.3349 22.18C21.6102 21.9991 21.8632 21.763 22.0849 21.48L22.6549 22.24C22.3746 22.603 22.0542 22.9065 21.7049 23.14L21.7649 23.28C22.1235 23.0393 22.4523 22.7268 22.7399 22.3534L23.3649 23.1934C23.0124 23.6522 22.6094 24.0366 22.1699 24.3334L22.2299 24.48C22.6977 24.1631 23.1247 23.7491 23.4949 23.2534C23.8858 22.733 24.2086 22.1291 24.4499 21.4667V21.4667Z" fill="white"/>
<path d="M20.2851 17.0667H20.2551V17.1134H20.2851V17.0667ZM20.2101 17H20.2501V17.04H20.2101V17ZM20.1401 16.9867L20.1701 16.9934L20.1751 16.9534H20.1401V16.9867ZM20.1101 16.9734H20.0751V16.9267L20.1151 16.9334L20.1101 16.9734ZM19.8201 16.92H19.8601V16.96H19.8201V16.92ZM19.7351 17L19.7701 17.0067V16.9667H19.7401L19.7351 17ZM19.7351 17.0667L19.7001 17.0467V17.0067L19.7451 17.0267L19.7351 17.0667ZM19.6651 17.1134V17.0734L19.6901 17.0667L19.6951 17.1067L19.6651 17.1134ZM15.7351 21.22V21.1867H15.7101V21.2534H15.7501V21.34H15.7801V21.24L15.7351 21.22ZM16.1101 21.82L16.0601 21.7534L16.0151 21.68L15.9951 21.6134L15.9601 21.4934L16.0351 21.5467L16.0601 21.64L16.0951 21.6734L16.1301 21.7734L16.1101 21.82ZM17.1451 23.6267L17.1401 23.5667L17.0951 23.4867L17.1601 23.5L17.2201 23.5734L17.2501 23.66L17.2101 23.6867L17.1951 23.6467L17.1451 23.6267ZM19.8451 17.5H19.7951L19.7801 17.3534L19.8101 17.3267V17.2534H19.6351V17.18L19.6551 17.16L19.6151 17.14L19.5851 17.1934L19.5751 17.2534L19.5251 17.2667V17.3H19.4901V17.3867L19.3501 17.54L19.0701 17.5267C19.0551 17.5934 19.0051 17.5267 19.0051 17.5267C18.9901 17.48 18.9251 17.5267 18.9251 17.5267C18.9251 17.5934 18.8251 17.4867 18.8251 17.4867L18.6551 17.32C18.5551 17.2 18.4051 17.3534 18.4001 17.3867C18.4001 17.48 18.2851 17.4067 18.2851 17.4067C18.2851 17.4067 18.1851 17.3667 18.1701 17.42C18.1551 17.4734 18.0901 17.46 18.0901 17.46L18.0801 17.4867L18.0301 17.5L18.0201 17.54L17.9601 17.5534H18.1101C18.1501 17.54 18.0951 17.6667 18.0701 17.66H18.0001L17.9751 17.7H17.9101L17.8801 17.7534L17.7851 17.7467C17.7851 17.7467 17.7351 17.8067 17.7351 17.8267C17.7401 17.8467 17.7251 17.9067 17.7101 17.9067C17.6951 17.9067 17.6651 17.9734 17.6751 17.9867C17.6851 18.0067 17.6451 18.0734 17.6451 18.0734L17.6351 18.14L17.6051 18.16V18.34L17.5451 18.3934V18.4734L17.4551 18.6067L17.4651 18.7067L17.3901 18.82L17.4001 18.9267L17.3551 18.9467L17.3451 18.9934L17.3251 19.1334L17.3751 19.14C17.4001 19.1267 17.3951 19.2267 17.3751 19.2467C17.3551 19.26 17.3001 19.2867 17.3301 19.3134C17.3601 19.34 17.2501 19.3334 17.2501 19.2934C17.2501 19.2467 17.1901 19.2134 17.1751 19.2267C17.1601 19.24 17.1351 19.1667 17.1351 19.1667C17.0851 19.1 16.9151 19.1734 16.9151 19.1734L16.8901 19.2867C16.8351 19.2934 16.8001 19.42 16.8001 19.42C16.7501 19.44 16.7201 19.5134 16.7351 19.5334C16.7501 19.5534 16.7101 19.56 16.7101 19.56V19.7067L16.6851 19.7534V19.92C16.7201 19.92 16.7151 19.9867 16.7151 19.9867C16.6651 20 16.6751 20.0867 16.6751 20.0867L16.5701 20.1334L16.5501 20.1734H16.4201L16.3851 20.2134L16.3501 20.1667H16.1001L16.0901 20.1334L16.0401 20.12V20.0467H15.9601L15.9451 20.0934L15.8651 20.1C15.8701 20.1667 15.7851 20.2667 15.7751 20.24C15.7651 20.2134 15.7101 20.14 15.7351 20.1267C15.7646 20.115 15.7946 20.1061 15.8251 20.1V20.0534L15.6401 20.0467L15.6201 20.0867L15.5451 20.0934V20.2L15.5101 20.2134C15.4851 20.2334 15.5151 20.3067 15.5151 20.3067C15.5501 20.3534 15.5151 20.4334 15.5151 20.4334C15.4801 20.4734 15.5351 20.5467 15.5351 20.5467C15.5751 20.56 15.5101 20.6 15.5101 20.6C15.5201 20.6667 15.5501 20.6867 15.5501 20.6867C15.5201 20.7534 15.5701 20.7867 15.5701 20.7867L15.5751 20.9L15.6101 20.9267V21.0067L15.6301 21.0534H15.7101V20.88C15.6351 20.7734 15.7651 20.7467 15.7701 20.7867C15.7751 20.8267 15.8301 20.8534 15.8301 20.8534C15.8401 20.9534 15.9301 21.0134 15.9501 20.9067C15.9751 20.8067 16.0001 20.8667 16.0101 20.9134C16.0251 20.9667 16.1201 21.08 16.1201 21.08H16.1951L16.2051 21.1734C16.2901 21.1667 16.3151 21.1734 16.3501 21.3334C16.3585 21.378 16.3746 21.4193 16.3972 21.454C16.4198 21.4888 16.4482 21.516 16.4801 21.5334L16.5501 21.5267C16.5501 21.44 16.6201 21.54 16.6201 21.58C16.6201 21.62 16.7551 21.7734 16.7551 21.7734L16.8901 21.8134L17.0151 21.9467L17.1101 21.9334H17.1501C17.1751 21.82 17.2951 21.94 17.3001 21.98C17.3101 22.02 17.3901 22.0934 17.4001 22.06C17.4101 22.0267 17.4651 22.0467 17.4751 22.1467C17.4851 22.2467 17.5251 22.2267 17.5251 22.2267L17.8051 22.22L17.9051 22.1067L18.1601 22.1C18.2901 22.0934 18.2101 21.8534 18.1851 21.8534C18.1401 21.8067 18.2001 21.6134 18.2001 21.6134L17.8351 21.16C17.7501 21.16 17.8251 21 17.8251 21C17.8901 20.9467 17.8101 20.8534 17.8101 20.8534C17.8201 20.7734 17.7751 20.68 17.7751 20.68C17.6851 20.6 17.7101 20.4467 17.7101 20.4467V20.3334C17.6351 20.24 17.7401 20.2267 17.7401 20.2267C17.7751 20.1467 17.7151 20.0867 17.7151 20.0867V20L17.6301 19.9867L17.6201 19.6667L17.4401 19.3267C17.4051 19.3134 17.4301 19.2267 17.4301 19.2267C17.4801 19.1934 17.4201 19.1134 17.4201 19.1134V18.9667L17.5201 18.9534L17.5451 18.9H17.5951V18.7267C17.6151 18.6334 17.6751 18.68 17.6751 18.68L17.7451 18.6867L17.7851 18.5867L17.7951 18.5067H17.7451C17.6801 18.4534 17.7101 18.28 17.7101 18.28C17.8101 18.0867 17.9151 18.2 17.9151 18.2L17.9851 18.1934C18.0901 18.2867 17.9951 18.46 17.9951 18.46C17.9751 18.5 17.9851 18.6267 17.9851 18.6267L18.0101 18.8467L17.9451 18.9134C17.8951 18.96 17.8951 19.0534 17.9501 19.0734C17.9901 19.08 17.9751 19.2067 17.9151 19.12C17.8251 19.12 17.9651 19.2267 17.9251 19.2C18.0151 19.2667 17.9951 19.1467 17.9951 19.1467L18.1151 19.02C18.1651 18.9734 18.2401 19.12 18.2401 19.14C18.2401 19.16 18.4401 19.1467 18.4401 19.1467C18.4901 19.1934 18.5151 19.32 18.5151 19.32C18.5651 19.22 18.6851 19.3134 18.6001 19.3667C18.6801 19.4334 18.6801 19.4934 18.6801 19.4934C18.7451 19.4667 18.7451 19.5334 18.7451 19.5534L18.7651 19.4534C18.6901 19.38 18.8651 19.3534 18.8151 19.4867L18.7851 19.5467L18.8351 19.6V19.7534C18.9501 19.74 18.9201 19.56 18.9201 19.56L18.9701 19.5467C18.9701 19.48 19.0051 19.52 19.0051 19.52C18.9701 19.2934 19.0851 19.2534 19.0851 19.2534C19.1501 19.2267 19.1551 19.0467 19.1551 19.0467C19.1051 19.02 19.1351 18.9267 19.1851 19.0067C19.2351 19.0867 19.1551 18.8467 19.1551 18.8467L19.1151 18.8L19.0601 18.7934L19.0551 18.72H18.9651L18.9501 18.8134L18.9151 18.8267L18.9051 18.8L18.8901 18.8667H18.8001L18.7951 18.7934L18.8451 18.7734L18.8701 18.7334L18.8851 18.62H18.9501L19.0351 18.5867C19.0351 18.4734 19.0851 18.5 19.0851 18.5L19.1151 18.5334L19.1601 18.58V18.62L19.1351 18.64L19.1301 18.6934L19.1451 18.7734H19.1801C19.1951 18.66 19.3001 18.66 19.3301 18.7334L19.3601 18.6334C19.2901 18.5867 19.3601 18.5134 19.3801 18.5467C19.4001 18.58 19.4451 18.46 19.4451 18.46C19.4451 18.46 19.4801 18.5267 19.4451 18.44C19.4101 18.36 19.4701 18.32 19.4701 18.32C19.4601 18.24 19.5351 18.2534 19.5351 18.2534L19.5401 18.14H19.4701C19.4551 18.2334 19.3951 18.1467 19.4251 18.1267C19.4551 18.1067 19.4851 18.0667 19.4851 18.0667V18L19.5151 17.9867L19.5201 17.92H19.5951L19.6601 17.88L19.6751 17.8467L19.7451 17.84L19.8451 17.72L19.8351 17.6667C19.7751 17.6667 19.8351 17.6 19.8351 17.6L19.8451 17.5V17.5Z" fill="white"/>
<path d="M17.8358 18.8401L17.7458 18.8267L17.7508 18.8734H17.7758C17.8158 18.9667 17.7808 19.1934 17.7808 19.1934C17.7808 19.1934 17.7208 19.2001 17.7108 19.1601C17.7008 19.1201 17.6758 19.2467 17.6958 19.2734C17.7158 19.2934 17.7858 19.2734 17.7958 19.3401C17.7958 19.4201 17.8358 19.3001 17.8358 19.3001V18.8334V18.8401Z" fill="white"/>
<path d="M17.8354 19.4134L17.8654 19.4067L17.8704 19.36L17.7954 19.4267L17.7454 19.3867V19.5467L17.8254 19.6867L17.8554 19.5934L17.8654 19.5334L17.8304 19.5134L17.8354 19.4134ZM17.8754 19.84V19.7734H17.8404V19.8334L17.8754 19.84ZM17.8304 20.16V20.1134L17.7904 20.12V20.1667L17.8304 20.16ZM17.8904 19.9534C17.8963 19.9534 17.9021 19.9502 17.9063 19.9446C17.9105 19.939 17.9129 19.9313 17.9129 19.9234C17.9129 19.9154 17.9105 19.9078 17.9063 19.9022C17.9021 19.8965 17.8963 19.8934 17.8904 19.8934C17.8873 19.8932 17.8842 19.8941 17.8813 19.8958C17.8785 19.8976 17.876 19.9001 17.8741 19.9034C17.8722 19.9066 17.8708 19.9104 17.8702 19.9145C17.8695 19.9185 17.8696 19.9227 17.8704 19.9267C17.8704 19.94 17.8804 19.9534 17.8904 19.9534Z" fill="white"/>
<path d="M17.9254 20.0934C17.9364 20.0934 17.9454 20.0814 17.9454 20.0667C17.9454 20.052 17.9364 20.04 17.9254 20.04C17.9143 20.04 17.9054 20.052 17.9054 20.0667C17.9054 20.0814 17.9143 20.0934 17.9254 20.0934Z" fill="white"/>
<path d="M17.9254 19.3201C17.9364 19.3201 17.9454 19.3081 17.9454 19.2934C17.9454 19.2787 17.9364 19.2667 17.9254 19.2667C17.9143 19.2667 17.9054 19.2787 17.9054 19.2934C17.9054 19.3081 17.9143 19.3201 17.9254 19.3201Z" fill="white"/>
<path d="M19.6205 18.3L19.5705 18.2934L19.5555 18.3267H19.5305V18.38H19.5555L19.5605 18.42L19.5405 18.4467L19.5305 18.48L19.4905 18.4934L19.4005 18.6067V18.66L19.3705 18.7067L19.3405 18.8134H19.2405L19.2155 18.94L19.2305 19.04L19.3205 19.0867L19.3305 19.02L19.3605 19L19.3655 18.9334L19.3855 18.8867L19.4155 18.84L19.4255 18.7867L19.4755 18.7467L19.5355 18.7267L19.5605 18.6867L19.5705 18.6067V18.5467L19.5955 18.5067L19.6555 18.4734V18.34H19.6255L19.6205 18.3ZM19.7605 18.76V18.66L19.7505 18.5734L19.6755 18.5267L19.6255 18.5934L19.6105 18.6867V18.7534L19.5605 18.7667L19.5505 18.9467L19.5105 18.9667L19.5155 19.0334L19.4655 19.0534L19.4055 19.0734L19.3955 19.16L19.3555 19.1934L19.3355 19.28L19.3105 19.4734C19.3105 19.4734 19.3605 19.5867 19.3805 19.5334C19.4055 19.48 19.4455 19.4667 19.4455 19.4667L19.4605 19.4267H19.5955C19.6055 19.36 19.6705 19.3867 19.6705 19.42C19.6705 19.4534 19.7205 19.42 19.7205 19.42L19.7555 19.3534H19.8105L19.8155 19.2667L19.8405 19.2467V19.1334C19.9205 19.1 19.9105 19 19.9105 19L19.9305 18.9667L19.9205 18.92C19.8805 18.9 19.9005 18.8534 19.9255 18.8667C19.9505 18.88 19.8905 18.8 19.8905 18.8C19.8605 18.84 19.8405 18.7667 19.8405 18.7667H19.7605V18.76ZM19.8405 19.5734C19.8405 19.6534 19.7605 19.68 19.7605 19.68L19.7105 19.66L19.6755 19.6267V19.5334L19.7155 19.5267L19.7255 19.5667L19.8405 19.5734ZM20.1105 19.14C20.1205 19.2067 20.1205 19.0467 20.1405 19.0534C20.1605 19.06 20.1455 18.96 20.1455 18.96L20.0555 19.0467C20.1005 19.0534 20.1055 19.1134 20.1105 19.14V19.14ZM20.3755 18.7934C20.3955 18.8534 20.3905 18.94 20.4655 19.0067C20.4905 19.0267 20.4505 19.0734 20.4255 19.0534C20.3878 19.0027 20.3542 18.9469 20.3255 18.8867V18.8C20.3455 18.7467 20.3655 18.7667 20.3755 18.7934ZM20.3905 20.86L20.4055 20.8934L20.4405 20.8267L20.4105 20.8067L20.3755 20.84L20.3905 20.86ZM20.2505 20.7334V20.8134ZM20.9705 20.64L21.0105 20.6067L20.9955 20.5667L20.9555 20.6L20.9705 20.64ZM21.6955 22.1334L21.7405 22.1667V22.28C21.8055 22.36 22.0005 22.2934 22.0005 22.2734L21.9905 22.02L21.9655 21.9867L21.9605 21.82C21.9805 21.7334 21.8605 21.6067 21.8555 21.6334C21.8455 21.66 21.7805 21.6334 21.7805 21.6667C21.7805 21.6934 21.7405 21.8267 21.7605 21.8734C21.7805 21.92 21.7455 21.92 21.7405 21.9667C21.7355 22.0134 21.6855 22.1 21.6905 22.14L21.6955 22.1334ZM21.5855 21.8667C21.5755 21.92 21.5355 21.9467 21.5205 21.9334C21.5005 21.9067 21.5455 21.96 21.5555 21.9867C21.5655 22.0134 21.5955 22.0134 21.6055 21.9867C21.6155 21.96 21.6055 21.9 21.6205 21.8734C21.6305 21.8467 21.5905 21.84 21.5855 21.8734V21.8667ZM21.3505 20.6267H21.3855V20.76H21.3505V20.6267ZM21.8705 19.3334C21.8455 19.2934 21.9705 19.22 21.9905 19.3067C22.0105 19.3867 21.9905 19.3734 21.9705 19.3667C21.9505 19.36 21.9005 19.3867 21.8705 19.3334ZM21.9755 18.4267V18.4667L22.0255 18.48L22.0305 18.44L21.9755 18.4267ZM21.7505 18.5334L21.7905 18.5667H21.8055L21.8355 18.54V18.5534L21.8655 18.54L21.8555 18.5067V18.4867L21.8355 18.4934L21.8005 18.5267L21.7655 18.4934L21.7505 18.5334ZM22.7505 16.8H22.6755C22.6755 16.8 22.7005 16.8134 22.6255 16.7267C22.5605 16.64 22.5155 16.7467 22.5155 16.7467L22.4355 16.76V16.8667L22.3955 16.8867V16.9534H22.4555C22.4555 16.9534 22.4555 17.0267 22.4705 16.9934C22.4855 16.96 22.6105 17 22.6005 17.0867C22.5955 17.12 22.7255 17.2067 22.7105 17.3134C22.7755 17.3267 22.7605 17.4134 22.7605 17.4134L22.8455 17.4267L22.8705 17.36L22.8955 17.3667V17.3267L22.8405 17.3067L22.8305 17.0867L22.7955 17.0534L22.8055 17L22.7655 16.98L22.7855 16.8934L22.7505 16.8V16.8ZM22.9655 17.4867H22.9255L22.8355 17.5L22.7855 17.6334C22.7855 17.6334 22.8105 17.6534 22.8355 17.7C22.8505 17.7467 22.8605 18.02 22.8005 18.0667C22.7405 18.1134 22.8055 18.0867 22.8055 18.0867L22.7955 18.24C22.8105 18.3067 22.8355 18.2734 22.8505 18.24C22.8655 18.2067 22.8805 18.2 22.9005 18.1667C22.9205 18.1334 22.9505 18.0667 22.9555 18.02C22.9605 17.9734 22.9855 17.9 22.9705 17.88C22.9555 17.86 22.9855 17.7667 22.9855 17.7667C22.9855 17.7667 23.0055 17.7134 22.9855 17.66C22.9655 17.6067 22.9905 17.54 23.0055 17.5134L22.9655 17.4867V17.4867ZM23.0255 17.7667L23.0305 17.7134H23.0605V17.7667H23.0255ZM23.0255 17.9534L23.0005 17.9334L23.0155 17.8934L23.0405 17.9134L23.0255 17.9534ZM22.9805 17.42L22.9605 17.3534C22.9605 17.3534 22.9605 17.3 22.9705 17.2734C22.9805 17.2467 22.9505 17.22 22.9355 17.2067C22.9205 17.2067 22.9255 17.1534 22.9205 17.1267C22.9205 17.1 22.8805 17.08 22.8805 17.08L22.8705 16.9534C22.8705 16.9334 22.8255 16.9067 22.8405 16.8867L22.8805 16.8267C22.8955 16.8134 22.8655 16.72 22.8905 16.74C22.9155 16.76 22.9155 16.7934 22.9255 16.82C22.9355 16.8467 22.9255 16.94 22.9455 16.96C22.9705 16.98 22.9455 17.0534 22.9805 17.0534C23.0205 17.0534 22.9955 17.18 22.9955 17.18C22.9955 17.18 22.9855 17.2734 23.0105 17.28C23.0355 17.2867 23.0205 17.4467 23.0205 17.4467L22.9805 17.4134V17.42ZM22.6605 16.32C22.6755 16.3467 22.7055 16.3667 22.7055 16.3934C22.7055 16.42 22.6955 16.44 22.7255 16.4467C22.7555 16.4534 22.7755 16.4467 22.7855 16.4734C22.7955 16.5067 22.7955 16.5667 22.7855 16.5934C22.7855 16.62 22.7955 16.66 22.8205 16.66C22.8455 16.66 22.8505 16.66 22.8505 16.6867C22.8505 16.7067 22.8805 16.6134 22.8805 16.6134C22.8555 16.5867 22.8305 16.5267 22.8305 16.5267L22.8105 16.4134C22.8105 16.4 22.7755 16.3867 22.7605 16.38C22.7455 16.38 22.7205 16.3134 22.7205 16.3134L22.6605 16.32V16.32ZM22.7105 16.26C22.6955 16.2334 22.6805 16.2134 22.6605 16.2C22.6405 16.1867 22.6255 16.1734 22.6055 16.1734C22.5997 16.173 22.5941 16.1708 22.5891 16.1668C22.5842 16.1629 22.58 16.1574 22.577 16.1508C22.5741 16.1442 22.5724 16.1367 22.5721 16.129C22.5718 16.1213 22.573 16.1137 22.5755 16.1067C22.5855 16.08 22.5605 16.0667 22.5605 16.04C22.5605 16.0134 22.5755 16.0134 22.6005 16.0334C22.6255 16.0534 22.6205 16.06 22.6405 16.0934C22.6605 16.1267 22.6705 16.16 22.6905 16.1534C22.7105 16.1467 22.7255 16.2134 22.7405 16.1934C22.7655 16.1734 22.7605 16.24 22.7605 16.24L22.7105 16.26V16.26ZM22.1255 17.02C22.1505 17.06 21.9755 17.0467 21.9755 17.02C21.9755 16.9934 21.9905 16.9 22.0355 16.92C22.0805 16.94 22.0855 16.8 22.0855 16.8C22.0855 16.8 22.0455 16.8067 22.0805 16.78C22.1155 16.7534 22.0805 16.7134 22.0655 16.6934L22.0355 16.64H22.1055C22.1355 16.6134 22.1455 16.4867 22.1455 16.4867C22.2055 16.5134 22.2355 16.4534 22.2355 16.4534L22.2655 16.5334C22.2855 16.5667 22.2155 16.58 22.2405 16.6C22.2655 16.62 22.2755 16.68 22.2655 16.7C22.2555 16.72 22.2005 16.7 22.2005 16.68C22.2005 16.66 22.1805 16.7134 22.2005 16.7467C22.2205 16.78 22.1755 16.8267 22.1655 16.8267C22.1555 16.8267 22.0905 16.84 22.1455 16.88C22.1955 16.92 22.2605 16.9 22.2605 16.9C22.2605 16.9 22.3055 16.9 22.3205 16.9267C22.3355 16.96 22.3155 16.9667 22.2905 16.9667L22.1405 16.9534C22.1405 16.9534 22.1105 17 22.1255 17.02V17.02ZM21.8055 17.0867C21.8305 17.08 21.8905 17.0734 21.9055 17.0867C21.9105 17.1134 21.8655 17.14 21.8655 17.14L21.8055 17.1534C21.7855 17.12 21.7805 17.0867 21.8055 17.0867ZM22.4505 16.52C22.4905 16.4934 22.5755 16.4934 22.5705 16.4534C22.5655 16.4067 22.6205 16.3934 22.6205 16.3934L22.6355 16.4734L22.6805 16.52V16.5867L22.6455 16.6C22.5905 16.62 22.6255 16.6534 22.6255 16.6534H22.5005L22.4855 16.5867L22.4455 16.52H22.4505ZM22.2505 16.1534C22.2855 16.1534 22.2455 16.3067 22.3255 16.2934C22.4055 16.28 22.3255 16.34 22.3905 16.3467C22.4505 16.3534 22.4355 16.2867 22.4555 16.24C22.4755 16.1934 22.4655 16.1667 22.4305 16.1534C22.3955 16.14 22.3955 16.14 22.3805 16.0867C22.3755 16.0334 22.3305 16.02 22.3305 16.02L22.3205 15.94L22.2555 15.9934L22.1905 16.1067C22.1905 16.1934 22.2255 16.1534 22.2555 16.1534H22.2505ZM22.3855 16.72L22.4005 16.68L22.4305 16.7L22.4155 16.74L22.3855 16.72ZM22.3355 16.6534H22.3655V16.7067H22.3355V16.6534ZM22.3605 15.76V15.82H22.3355L22.3305 15.7667L22.3605 15.76ZM22.2755 16.3867H22.3055V16.42H22.2755V16.3867ZM22.1955 16.3867V16.3467H22.2455V16.38L22.1955 16.3867ZM21.7855 17.04L21.7555 17.02L21.7705 16.9734L21.8005 16.9934L21.7855 17.04ZM21.6255 16.9134V16.8734H21.6755V16.9067L21.6255 16.9134ZM20.7605 16.9L20.6505 16.9067V16.9467H20.7655L20.7605 16.9ZM20.5805 16.96L20.5705 16.9L20.6005 16.8934L20.6105 16.9534L20.5805 16.96ZM20.5605 17L20.5505 16.9667L20.5655 16.96L20.5755 16.9934L20.5605 17ZM20.8105 16.8867L20.8055 16.9334L20.8555 16.94C20.8555 16.94 20.8805 16.9667 20.8805 16.9867C20.8805 17.0067 20.9155 17.0267 20.9355 17.0267C20.9555 17.0267 21.0105 16.9734 21.0105 16.9734C21.0105 16.9734 21.0355 16.88 21.0155 16.8867C20.9955 16.8934 20.9555 16.9334 20.9505 16.8934C20.9505 16.8534 20.8855 16.8734 20.8855 16.8734L20.8055 16.8867H20.8105ZM21.0605 16.82C21.0605 16.8334 21.0455 16.86 21.0755 16.8667C21.1055 16.8734 21.1605 16.84 21.1655 16.88C21.1705 16.92 21.1705 16.9467 21.2155 16.9667C21.244 16.983 21.2745 16.992 21.3055 16.9934L21.4055 16.98C21.4055 16.98 21.4705 17 21.4855 17.0134C21.5405 17.0934 21.5755 17.1134 21.5905 17.08C21.6055 17.0467 21.5905 16.9667 21.5805 16.9467C21.5805 16.9134 21.5055 16.7867 21.4805 16.8134C21.4555 16.84 21.4505 16.8134 21.4055 16.8334C21.3605 16.8534 21.2655 16.84 21.2605 16.8134C21.2605 16.7867 21.1855 16.7734 21.1855 16.7467C21.1855 16.72 21.1355 16.68 21.1405 16.7267C21.1455 16.7667 21.1055 16.7867 21.0955 16.7734C21.0855 16.76 21.0555 16.8134 21.0555 16.8134L21.0605 16.82ZM22.2055 15.9534L22.2405 15.8C22.1905 15.7867 22.2005 15.7134 22.2005 15.7134C22.1955 15.6467 22.1255 15.58 22.1005 15.6067C22.0755 15.6267 22.0855 15.4667 22.0855 15.4667C22.0855 15.4667 22.1305 15.4267 22.1505 15.4467C22.1705 15.4667 21.9805 15.1067 21.9405 15.14C21.9005 15.1734 21.8105 15.1067 21.8155 15.0467C21.8205 14.98 21.6355 14.78 21.6355 14.78C21.6355 14.78 21.5755 14.7267 21.5655 14.7667C21.5555 14.8067 21.5355 14.8334 21.5655 14.86C21.5955 14.88 21.5905 14.8267 21.6255 14.8734C21.6605 14.92 21.7255 14.98 21.7005 15.02C21.6755 15.06 21.6505 15.0734 21.6505 15.0734L21.6805 15.1267H21.7355L21.7455 15.24C21.7455 15.24 21.8055 15.28 21.8205 15.3267C21.8355 15.3734 21.8355 15.4 21.8205 15.4334C21.8055 15.46 21.7755 15.5 21.7805 15.5534C21.7855 15.6 21.8305 15.62 21.8305 15.62H21.8655L21.8955 15.6467V15.7334C21.9355 15.72 22.0005 15.8 21.9955 15.84C21.9955 15.8867 22.0055 15.86 22.0555 15.9067C22.1055 15.9534 22.0905 15.96 22.1255 16C22.1605 16.0334 22.1905 16.0134 22.2055 15.9467V15.9534Z" fill="white"/>
<path d="M21.3755 15.0401C21.3755 15.0134 21.3605 14.92 21.3905 14.9267C21.4205 14.9267 21.4005 14.9267 21.4405 14.9467C21.4805 14.9667 21.4755 14.9134 21.4755 14.9134H21.5305L21.6005 14.98L21.5905 15.0467H21.5405C21.5155 15 21.4655 15.02 21.4755 15.0667C21.4855 15.1134 21.4505 15.2001 21.4305 15.2067C21.4105 15.2134 21.3455 15.2134 21.3505 15.1734L21.3755 15.0401V15.0401ZM21.3355 14.86V14.8C21.3355 14.8 21.3355 14.7467 21.3055 14.7467C21.2755 14.7467 21.2355 14.7067 21.2455 14.68C21.2555 14.6534 21.1605 14.6267 21.1605 14.6267C21.1605 14.6267 21.0755 14.52 21.1105 14.5334C21.1355 14.5467 21.1205 14.4867 21.1205 14.4867C21.1205 14.4867 21.0605 14.5001 21.0455 14.4867C21.0305 14.4867 21.0355 14.4201 21.0355 14.4201C21.0355 14.4201 20.9755 14.4067 20.9755 14.4201C20.9755 14.4334 20.9955 14.4467 21.0055 14.4867C21.0155 14.5267 21.0105 14.5934 21.0555 14.6067C21.1055 14.6201 21.1105 14.6334 21.1155 14.66C21.1205 14.6867 21.1755 14.6934 21.1755 14.6934L21.2155 14.7201L21.3355 14.8534V14.86ZM20.8005 14.1667L20.7855 14.1134L20.7455 14.1V14.1667H20.8005ZM20.7855 13.8867C20.7355 13.8334 20.8555 13.9267 20.8555 13.9267C20.8955 13.9267 20.9205 13.9667 20.9205 13.9867C20.9205 14.0067 20.9705 14 20.9705 14L20.9755 13.9534L20.9355 13.8867L20.9005 13.8534C20.9005 13.8534 20.8505 13.8467 20.8505 13.8267C20.8505 13.8067 20.8005 13.9067 20.7805 13.8867H20.7855ZM21.7005 13.9267C21.6855 13.9867 21.6805 14.0667 21.6555 14.0667C21.6305 14.0667 21.6405 14.1534 21.6405 14.1534L21.7255 14.16C21.7455 14.1667 21.7455 14.2334 21.7455 14.2334C21.8205 14.2334 21.8505 14.3667 21.8455 14.4C21.8305 14.4334 21.8705 14.4334 21.8705 14.4334C21.8705 14.4334 21.8705 14.54 21.8605 14.5667C21.8505 14.5934 21.9255 14.6134 21.9455 14.6534C21.9655 14.6934 21.9355 14.8267 21.9205 14.8334C21.9055 14.8467 21.9605 14.8667 21.9555 14.9C21.9505 14.9334 21.9705 14.9001 21.9755 14.9534L21.9905 15.1201L22.0605 15.1267C22.0705 15.04 22.2005 15.0334 22.2205 15.0467C22.3055 15.0867 22.3705 15.26 22.3705 15.3C22.3705 15.34 22.3155 15.3467 22.3155 15.3467L22.3255 15.5467C22.4105 15.58 22.4755 15.7467 22.4705 15.7667C22.4605 15.7934 22.5305 15.7867 22.5305 15.7867C22.5405 15.6667 22.6255 15.7067 22.6305 15.7467C22.6305 15.7867 22.6505 15.88 22.6505 15.88L22.6755 15.9334L22.7105 15.98H22.7605L22.7805 16.0201L22.8405 16.0334C22.8405 16.0334 22.8955 16.1134 22.9005 16.1334C22.9055 16.1534 22.9805 16.1467 23.0005 16.1534C23.0205 16.1534 23.0505 16.18 23.0555 16.2134C23.0605 16.2467 23.0905 16.3001 23.0905 16.3001C23.0905 16.3001 23.1505 16.32 23.1555 16.3467L23.1855 16.4334L23.2355 16.4867L23.2405 16.5534H23.2955L23.3105 16.6401L23.4005 16.6334L23.4505 16.5867C23.4968 16.5562 23.5364 16.5103 23.5655 16.4534C23.5705 16.4201 23.5805 16.3201 23.6305 16.3401C23.6805 16.3601 23.6455 16.1934 23.6455 16.1934C23.6455 16.1934 23.5755 16.1267 23.5805 16.0934C23.5855 16.06 23.5105 15.9934 23.5155 15.96C23.5205 15.94 23.4505 15.8801 23.4555 15.8534C23.4605 15.8267 23.4205 15.7534 23.4205 15.7534L23.3505 15.6667L23.3405 15.6001H23.2805L23.1605 15.4L23.1655 15.3467H23.1305V15.2667L23.0955 15.2401H23.0455L22.9305 15.0734L22.9205 15H22.8705L22.8805 14.86C22.9155 14.7934 22.8955 14.68 22.8955 14.68C22.8955 14.68 22.8255 14.7267 22.7905 14.7067C22.7555 14.6867 22.8055 14.6401 22.8055 14.6401V14.5867L22.7755 14.5467C22.7755 14.5467 22.6905 14.5601 22.6855 14.5401L22.6655 14.4334L22.6605 14.3201L22.6255 14.3L22.6205 14.2534L22.5655 14.26V14.18L22.5355 14.1667L22.5055 14.1467L22.5005 14.0667L22.3905 14.06L22.3555 13.9934L22.3155 13.9134L22.1905 13.9L22.1605 13.86L22.1105 13.8467L22.0755 13.8267L22.0605 13.86H21.9605V13.9067C21.9105 13.9401 21.7105 13.9067 21.7105 13.9334L21.7005 13.9267ZM22.2255 13.7467C22.2155 13.7 22.3255 13.6467 22.3505 13.6867C22.3755 13.7267 22.4455 13.7334 22.4505 13.9401C22.4555 14.0067 22.3655 13.8667 22.3655 13.8667L22.2905 13.8334C22.2505 13.82 22.2305 13.7867 22.2255 13.7534V13.7467ZM20.7605 13.8334L20.7355 13.8134L20.7555 13.7534L20.7805 13.7734L20.7605 13.8334ZM20.5055 13.1667L20.4405 13.08V13.0134L20.4205 12.98L20.4005 12.8867L20.3355 12.86L20.2705 12.8934L20.2005 12.9534L20.1255 12.9667L20.0855 13.0334L20.2455 13.0467L20.2755 13.1134L20.3905 13.1267L20.4655 13.2267C20.5305 13.26 20.5455 13.2134 20.5055 13.1667V13.1667ZM20.4955 12.8334C20.4855 12.78 20.4205 12.9134 20.4855 12.9401C20.5505 12.9667 20.6155 12.9401 20.6155 12.9401L20.6305 12.9L20.8805 12.9067C20.9005 12.8801 20.9105 12.8401 20.9105 12.8401C20.9105 12.8401 20.9705 12.8134 20.9955 12.8267C21.0205 12.84 20.9955 12.7334 20.9755 12.7467C20.9505 12.76 20.9005 12.7467 20.9005 12.7467H20.8105C20.8055 12.7067 20.7255 12.7267 20.7205 12.7467C20.7155 12.78 20.6855 12.7867 20.6855 12.7867L20.5705 12.8C20.5605 12.84 20.5005 12.8667 20.4955 12.8401V12.8334ZM20.0005 13.98C20.0755 14.0134 20.1055 13.98 20.1105 13.96C20.1155 13.9334 20.1205 13.9267 20.1505 13.9201C20.1805 13.9134 20.1455 13.8334 20.1155 13.8401C20.0855 13.8401 20.0555 13.8267 20.0505 13.7934C20.0455 13.7534 19.9955 13.6667 19.9905 13.7334C19.9855 13.8 19.9555 13.8001 19.9605 13.8534C19.9655 13.9001 19.9805 13.9667 20.0005 13.98V13.98ZM19.4255 14.0534C19.4255 14.0267 19.5255 14.0267 19.5405 14.0467C19.5555 14.0667 19.5455 14.1 19.5905 14.1C19.6355 14.1 19.6155 14.14 19.6105 14.1667C19.6105 14.18 19.5605 14.1734 19.5505 14.1534C19.5505 14.1334 19.4705 14.1267 19.4705 14.1267C19.4705 14.1267 19.4305 14.0867 19.4255 14.0534V14.0534ZM21.1255 12.6067L21.0855 12.6467L21.0605 12.6134L21.0355 12.6467L21.0705 12.6934L21.0805 12.7067L21.0905 12.6934L21.1405 12.6401L21.1255 12.6067ZM20.8505 12.4867L20.8155 12.46L20.8005 12.4934L20.8405 12.5267H20.8555L20.9105 12.48L20.8955 12.4467L20.8505 12.4867ZM20.6855 13.8734H20.6805L20.6305 13.8667V13.9067H20.6705L20.7005 13.9734L20.7255 13.9534L20.6905 13.8867L20.6855 13.8734ZM19.0355 15.7534L19.0405 15.8267H19.1155C19.1455 15.8267 19.0905 15.78 19.0905 15.78C19.0905 15.78 19.0305 15.7867 19.0405 15.7534H19.0355ZM19.1355 15.7534L19.1505 15.7267L19.1805 15.76L19.1605 15.7867L19.1355 15.7534ZM18.2255 14.4934L18.2455 14.4667L18.2755 14.5067L18.2555 14.5334L18.2255 14.4934ZM19.6755 23.1801L19.6255 23.1467L19.6105 23.1801L19.6405 23.2001L19.6305 23.2134L19.6505 23.2467L19.6755 23.2134L19.6905 23.1934L19.6755 23.1801ZM19.2855 22.6934L19.2655 22.66L19.2355 22.6934L19.2205 22.7134L19.2405 22.7267L19.2755 22.76L19.2905 22.7267L19.2705 22.7067L19.2855 22.6934ZM22.9955 21.4134C22.9905 21.3801 22.9605 21.3667 22.9555 21.36L22.9455 21.4001L22.9555 21.4067L22.9605 21.4401L22.9555 21.4534L22.9755 21.4801C22.9955 21.4601 23.0005 21.4334 22.9955 21.4134V21.4134ZM23.0455 21.2801H22.9955V21.22L23.0455 21.2334V21.2801ZM24.1955 20.76C24.2205 20.74 24.2455 20.7067 24.2455 20.7867C24.2405 20.8601 24.2155 20.8334 24.1955 20.86C24.1805 20.8867 24.1655 20.7867 24.1955 20.76ZM24.4505 20.4734C24.4504 20.4712 24.4504 20.4689 24.4505 20.4667C24.4499 20.4503 24.4464 20.4344 24.4405 20.4201L24.4155 20.4401L24.4205 20.4667C24.4205 20.4801 24.4205 20.4934 24.4305 20.5001C24.4355 20.5067 24.4405 20.5067 24.4505 20.5001L24.4455 20.4667L24.4505 20.4734V20.4734ZM24.3855 20.5067L24.4055 20.5867L24.4305 20.5734C24.4244 20.5471 24.4194 20.5204 24.4155 20.4934L24.3855 20.5067V20.5067ZM24.2755 20.6667H24.2455C24.2455 20.6934 24.2455 20.7334 24.2705 20.7334L24.2805 20.7001L24.2755 20.6667V20.6667ZM24.1455 19.8667C24.1448 19.8592 24.1426 19.8521 24.1391 19.8462C24.1355 19.8403 24.1308 19.8359 24.1255 19.8334C24.1055 19.8201 24.0705 19.84 24.0505 19.86L24.0655 19.8934C24.0855 19.8734 24.1105 19.8667 24.1155 19.8667L24.1455 19.86V19.8667ZM22.7605 17.7067C22.7405 17.7334 22.6955 17.7467 22.6955 17.7467L22.6805 17.8134L22.6605 17.8467V17.9134C22.6605 17.96 22.6105 17.9867 22.6105 17.9867L22.5905 18.0201H22.4555C22.4055 17.9934 22.4405 17.9134 22.4705 17.9201C22.5005 17.9267 22.4655 17.8067 22.4655 17.8067L22.5055 17.8001C22.5055 17.8001 22.5055 17.68 22.5255 17.68C22.5405 17.68 22.5205 17.64 22.5005 17.6134C22.4805 17.5934 22.4505 17.5267 22.4355 17.5334H22.3355L22.3205 17.5734L22.2655 17.5867L22.2605 17.6534C22.2305 17.7067 22.1105 17.8067 22.1605 17.6401L22.1805 17.5934V17.5334H22.0905C22.0905 17.5334 22.0405 17.5067 22.0405 17.48V17.4201L21.9355 17.2667L21.8105 17.2467L21.8005 17.2134L21.7255 17.2001C21.6355 17.1334 21.5555 17.1934 21.5755 17.2934C21.5855 17.3934 21.6105 17.4334 21.5605 17.4334C21.5105 17.4334 21.5005 17.38 21.5005 17.38C21.5005 17.38 21.4605 17.3601 21.4605 17.3867C21.4605 17.4134 21.4455 17.4667 21.4605 17.4934C21.4755 17.52 21.4405 17.5601 21.4255 17.5401C21.4105 17.5201 21.3755 17.4601 21.3805 17.4401C21.3905 17.4201 21.3105 17.2934 21.3905 17.2734C21.4705 17.2534 21.3905 17.1934 21.4155 17.18L21.4555 17.1534H21.4955L21.5205 17.1267L21.4555 17.1134L21.4155 17.1067L21.3405 17.1001C21.2986 17.1335 21.2668 17.1854 21.2505 17.2467C21.2105 17.3467 21.1155 17.2067 21.1505 17.1534C21.1855 17.1001 21.0405 17.1467 21.0155 17.1734C20.9905 17.2001 20.9155 17.1867 20.9155 17.1867C20.9005 17.2467 20.8305 17.1801 20.8505 17.1401C20.8705 17.1001 20.8705 17.0734 20.8705 17.0734L20.8455 17.06L20.8155 17.1401C20.7505 17.1401 20.7305 17.1934 20.7405 17.2267C20.7555 17.26 20.7205 17.2201 20.7105 17.2667C20.7055 17.3134 20.7205 17.3134 20.7455 17.3334C20.7755 17.3534 20.7305 17.3534 20.7505 17.3867C20.7705 17.4201 20.8305 17.3867 20.8005 17.4334C20.7605 17.4801 20.6955 17.46 20.6955 17.46C20.6905 17.5267 20.5955 17.5067 20.5855 17.4867L20.5005 17.3467L20.4005 17.3401C20.3955 17.2467 20.4505 17.2934 20.4705 17.2201C20.4905 17.1467 20.5005 17.0201 20.5005 17.0201C20.5005 17.0201 20.4205 17.02 20.4155 17.0467C20.4105 17.08 20.3605 17.1067 20.3605 17.1067C20.3605 17.1067 20.3205 17.1267 20.3355 17.1534C20.3505 17.1801 20.3055 17.1934 20.3055 17.1934C20.3055 17.1934 20.3105 17.2334 20.3005 17.2534C20.2605 17.3067 20.1605 17.2534 20.1455 17.2401L20.0855 17.2067L20.0255 17.1534L19.9555 17.1934L19.9355 17.2201H19.8605L19.8555 17.3001L19.9905 17.3201L20.0005 17.4867L19.9455 17.46H19.9105L19.8955 17.4201H19.8655V17.56L19.8955 17.5934L19.9205 17.6267L19.9705 17.6334L19.9805 17.7201H20.1055L20.1205 17.76H20.1955L20.3405 17.96L20.3305 18.0267L20.3055 18.0401C20.3155 18.0867 20.2405 18.06 20.2405 18.06V18.1001L20.2755 18.1067L20.3105 18.1334L20.3605 18.0201C20.4105 17.9734 20.4405 18.0401 20.4455 18.0867C20.4455 18.1201 20.4205 18.1134 20.4205 18.1134V18.2134L20.4505 18.2267C20.5005 18.3067 20.4305 18.3534 20.4305 18.3534L20.4155 18.4201C20.4005 18.4801 20.3455 18.4667 20.3455 18.4667L20.3255 18.5067L20.2655 18.5267L20.3855 18.5467C20.3955 18.4934 20.4255 18.4801 20.4355 18.5067C20.4555 18.5334 20.4555 18.58 20.4555 18.58L20.4855 18.5867L20.4805 18.66L20.5105 18.6734V18.8934L20.5455 18.9467C20.6055 18.9134 20.6055 18.9667 20.5755 18.9934C20.5455 19.02 20.5655 19.1401 20.5655 19.1401L20.5405 19.1734V19.2267L20.5105 19.2534V19.3334C20.4605 19.3001 20.4005 19.3134 20.3855 19.3334C20.3355 19.2934 20.2455 19.3067 20.2455 19.3334C20.2755 19.3934 20.2105 19.4001 20.2105 19.4001L20.1755 19.46C20.2005 19.5267 20.1505 19.5334 20.1505 19.5334V19.6667L20.0905 19.7334V19.9134C20.0905 19.9601 20.1705 19.9667 20.1855 19.9401C20.2005 19.9134 20.2605 19.9934 20.2605 19.9934H20.3055L20.3155 19.8734L20.2855 19.8534V19.6534L20.3355 19.5867C20.3955 19.5534 20.3755 19.7534 20.3755 19.7734C20.3755 19.8534 20.4055 19.84 20.4255 19.8267C20.4755 19.8 20.4405 19.9067 20.4005 19.8934C20.3605 19.8934 20.3855 19.96 20.3855 19.96L20.4105 19.9801L20.3605 20.0267L20.3255 20.0867L20.2755 20.0667L20.2155 20.06L20.1955 20.0134L20.1605 20.0067L20.1555 20.1001L20.1305 20.1401L20.0705 20.2201C20.1505 20.2201 20.0605 20.2934 20.0405 20.2934C20.0855 20.3134 20.0355 20.3734 19.9205 20.3267V20.3734L19.8805 20.3801L19.9155 20.4401H19.9555L19.9405 20.56C19.9405 20.6467 19.7755 20.5867 19.7605 20.56V20.6934H19.7255L19.7305 20.7734V20.8867L19.7805 20.8734V20.9201L19.9155 20.9267L20.1105 20.6534L20.2255 20.6201C20.2355 20.5534 20.2855 20.6334 20.2855 20.6334C20.3355 20.6267 20.3455 20.6734 20.3455 20.6734L20.4105 20.6867C20.4605 20.7067 20.4305 20.7134 20.4355 20.7401C20.4355 20.7801 20.4655 20.7667 20.4655 20.7667L20.4755 20.6801L20.5055 20.6867L20.4755 20.6401L20.4205 20.6067L20.3605 20.5734C20.3205 20.5001 20.3705 20.5067 20.4105 20.5201H20.4755C20.4755 20.5201 20.5505 20.6534 20.5505 20.6867C20.5505 20.7201 20.5855 20.7267 20.5855 20.7267H20.6305L20.6455 20.7667H20.6905L20.7055 20.8067H20.7955V20.7467L20.7155 20.7267L20.7105 20.66L20.6505 20.6401C20.6305 20.5267 20.6655 20.4934 20.6905 20.5467H20.7205L20.7105 20.4534L20.7455 20.4401L20.7355 20.2934L20.7055 20.2801V20.2334L20.8305 20.2401C20.8205 20.1534 20.8305 20.1134 20.8305 20.1134H20.8705V20.1467L21.0255 20.1667L21.1355 20.0001C21.1305 19.9867 21.1455 19.9801 21.1355 19.9667C21.1155 19.9467 21.0955 19.9667 21.0705 19.9467C21.0455 19.9267 21.0705 19.8134 21.0705 19.7801C21.0605 19.7534 21.1505 19.7134 21.1355 19.7801C21.1205 19.8334 21.1355 19.8667 21.1355 19.8667C21.2005 19.7801 21.2555 19.8667 21.2505 19.8934C21.2505 19.9134 21.2855 19.9334 21.3105 19.9134C21.3355 19.8934 21.3655 19.9734 21.3605 20.0134C21.3455 20.0534 21.2605 20.0467 21.2505 20.0067C21.2505 19.9667 21.2305 19.9801 21.2205 20.0001C21.2105 20.0201 21.1705 20.0334 21.1405 20.0134C21.1381 20.0095 21.1364 20.0049 21.1355 20.0001L21.0255 20.1667H21.0305C21.0905 20.2134 21.0605 20.2734 21.0405 20.2867C21.0205 20.3001 20.9905 20.3001 20.9905 20.3001L20.9755 20.3267L20.8455 20.3401L20.8355 20.4067C20.7755 20.4001 20.7505 20.4934 20.7655 20.5401C20.7805 20.5867 20.7655 20.6267 20.7655 20.6267L20.8155 20.66L20.8905 20.6334C20.9005 20.5667 20.9405 20.5534 20.9805 20.5134C21.0205 20.4734 21.0855 20.5801 21.0655 20.6401C21.0455 20.6934 21.0455 20.7134 21.0455 20.7134L21.0505 20.7801L21.0005 20.8001L20.9605 20.8267V20.86H20.8205L20.8005 20.8934L20.7355 20.9001L20.7155 20.9467H20.6655C20.6655 20.9467 20.5955 21.0001 20.6255 21.0534C20.6555 21.1067 20.5005 21.1 20.4655 21.0267C20.4555 21.0934 20.4005 21.0267 20.4005 21.0267L20.3455 21.0134L20.3405 20.9134C20.3305 20.8467 20.2355 20.8467 20.2405 20.8934C20.2405 20.94 20.0605 20.9134 20.0605 20.9134L20.0005 20.9467L19.9455 20.9934L19.9405 21.0267L19.8505 21.0401L19.8105 21.0667L19.7955 21.0267H19.7555L19.7155 21.0934C19.6155 21.1067 19.5155 21.1867 19.5205 21.2267C19.5305 21.2534 19.4805 21.2934 19.4805 21.2934L19.4355 21.3067L19.4055 21.3734L19.3455 21.3934L19.3355 21.5401L19.3055 21.5667V21.6267L19.2705 21.6401V21.6734H19.2205L19.2505 21.7801L19.2905 21.8067C19.3605 21.8201 19.3305 21.9401 19.3305 21.9401H19.3705L19.3905 22.0134L19.4305 22.1267C19.4455 22.2067 19.4905 22.1867 19.5105 22.1801C19.5305 22.1734 19.5505 22.26 19.5505 22.26L19.7505 22.2667C19.7505 22.2667 19.7405 22.2934 19.7755 22.3067C19.8105 22.3201 20.0405 22.3334 20.0505 22.3134C20.0405 22.2534 20.1755 22.24 20.2305 22.2934C20.2805 22.3467 20.3605 22.3134 20.3605 22.3134L20.4355 22.4334L20.4855 22.5867L20.5705 22.62L20.6305 22.6401L20.6505 22.7534H20.6955L20.7105 22.8334C20.7605 22.8867 20.6955 23.0001 20.6955 23.0001V23.1534L20.7355 23.1801L20.7305 23.2334L20.7955 23.32H20.8705L21.0555 23.5934L21.2055 23.6601L21.2305 23.7667L21.2705 23.7601L21.3005 23.7267L21.4205 23.72L21.4805 23.6401L21.5455 23.6267L22.0955 23.0001L22.0455 22.96V22.8134C22.1405 22.7267 22.1455 22.5667 22.0605 22.5534C21.9955 22.5467 22.0255 22.4534 22.0855 22.4401L22.1205 22.42V22.36L22.2355 22.22V22.1134L21.9855 21.8334C21.8755 21.7801 21.9855 21.4534 22.0605 21.46C22.1355 21.4667 22.0555 20.9667 22.0555 20.9667L22.0155 20.9401L22.0255 20.7734H21.9705L21.8805 20.9334L21.8555 21.0401C21.8455 21.1801 21.5355 21.1534 21.5205 21.1334C21.5055 21.1134 21.4005 21.0534 21.4005 21.0534C21.4005 21.0534 21.3205 20.9667 21.3055 20.9867C21.2905 21.0201 21.2205 20.9601 21.2205 20.9801C21.2205 21.0001 21.1555 20.9267 21.1555 20.9267L21.0555 20.8801L21.1305 20.86L21.1155 20.7801L21.2455 20.8667C21.2605 20.8934 21.3255 20.8867 21.3255 20.8867L21.3455 20.9201C21.3455 20.9201 21.3855 20.9201 21.4105 20.9534C21.4355 21.0001 21.5655 20.9667 21.5655 20.9667L21.6005 21.0067L21.6555 21.0334H21.8105L21.8155 20.9067L21.8455 20.8667V20.7867L21.8755 20.7467V20.6801L21.9055 20.6667L21.9105 20.5201L21.9355 20.5134V20.1867L21.8605 20.0934C21.8555 20.1267 21.7755 20.1267 21.7755 20.1267C21.7755 20.1267 21.7555 20.1734 21.7405 20.1734C21.7255 20.1734 21.7605 20.2401 21.7505 20.2734C21.7405 20.3134 21.7005 20.3134 21.7005 20.3134L21.6255 20.3401L21.6055 20.3734H21.5255L21.5155 20.2867L21.6055 20.2534L21.6555 20.2201L21.6805 20.1534C21.6855 20.0867 21.7455 20.0934 21.7455 20.0934C21.7455 20.0934 21.8605 19.9601 21.8655 19.9067C21.8705 19.8401 21.9105 19.6734 21.9805 19.6734H22.1105C22.1605 19.6467 22.1455 19.56 22.1455 19.56L22.2105 19.5467L22.2205 19.5934C22.2205 19.5934 22.3105 19.6067 22.3205 19.5934C22.3305 19.5667 22.3505 19.5267 22.3705 19.5401C22.4005 19.5601 22.4805 19.4934 22.4805 19.4934C22.4805 19.4467 22.6105 19.4667 22.6105 19.4667L22.6255 19.4001C22.6255 19.4001 22.5405 19.2467 22.5255 19.2467C22.5105 19.2467 22.4255 19.1534 22.4205 19.1867C22.3405 19.1601 22.3455 19.0134 22.3455 19.0134L22.3155 18.9201C22.3155 18.8667 22.2405 18.7534 22.2255 18.7667C22.214 18.7579 22.2046 18.7453 22.198 18.7301C22.1914 18.7149 22.1879 18.6976 22.1879 18.68C22.1879 18.6625 22.1914 18.6452 22.198 18.63C22.2046 18.6148 22.214 18.6022 22.2255 18.5934C22.2455 18.5934 22.2955 18.4934 22.2955 18.4934L22.3205 18.4001L22.4055 18.3667L22.4155 18.28L22.3655 18.2734C22.3655 18.2734 22.4155 18.1467 22.4455 18.1467C22.4755 18.1467 22.6355 18.1467 22.6455 18.1334C22.6655 18.1201 22.6955 18.0134 22.6955 18.0001C22.6955 17.9734 22.7355 17.9667 22.7455 17.96C22.7655 17.96 22.7955 17.9001 22.8105 17.8734C22.8205 17.8467 22.7855 17.6734 22.7605 17.7067V17.7067Z" fill="white"/>
<path d="M20.0002 20.1333C20.0052 20.1333 20.0152 20.1667 20.0302 20.16C20.0452 20.16 20.0552 20.2 20.0352 20.2C20.0252 20.2 20.0252 20.22 20.0252 20.2333C20.0252 20.24 20.0252 20.2667 20.0102 20.2867C20.0002 20.3 19.9902 20.2867 19.9752 20.28C19.9602 20.2667 19.9502 20.2667 19.9302 20.2667C19.9152 20.2667 19.9302 20.3067 19.9302 20.3067C19.9302 20.3067 19.8502 20.3067 19.8652 20.2867C19.8802 20.2733 19.8952 20.2667 19.8852 20.26C19.8752 20.2467 19.8852 20.24 19.8852 20.22C19.8852 20.2 19.9202 20.2067 19.9102 20.1933C19.9002 20.18 19.9102 20.12 19.9302 20.1533L19.9402 20.12C19.9302 20.1 19.9402 20.1 19.9152 20.0867C19.8902 20.0733 19.9102 20.02 19.9102 20.02V19.9733C19.9202 19.9267 19.9952 19.92 20.0002 19.9667V20.04L20.0252 20.0533C20.0252 20.0533 20.0202 20.08 20.0002 20.08C19.9802 20.08 20.0002 20.0933 19.9902 20.1133L20.0002 20.14V20.1333ZM19.7502 20.1867C19.7652 20.16 19.7902 20.0267 19.8202 20.0667C19.8502 20.1067 19.8702 20.0667 19.8702 20.0667C19.8702 20.0667 19.8852 20.0867 19.8752 20.1333C19.8702 20.1667 19.8602 20.2067 19.8452 20.2133C19.8252 20.2133 19.8102 20.2333 19.7852 20.24C19.7652 20.24 19.7552 20.1867 19.7552 20.1867H19.7502Z" fill="white"/>
</g>
<rect x="2" y="2" width="36" height="36" rx="18" stroke="white" stroke-width="4"/>
<defs>
<clipPath id="clip0_90_20711">
<rect x="4" y="4" width="32" height="32" rx="16" fill="white"/>
</clipPath>
</defs>
</svg>
