<svg width="40" height="40" viewBox="0 0 40 40" fill="none" xmlns="http://www.w3.org/2000/svg">
<g clip-path="url(#clip0_90_20704)">
<path fill-rule="evenodd" clip-rule="evenodd" d="M4 4H49.6V6.46667H4V4ZM4 8.92667H49.6V11.3933H4V8.92667ZM4 13.8467H49.6V16.3133H4V13.8467ZM4 18.7667H49.6V21.2333H4V18.7667ZM4 23.7H49.6V26.1533H4V23.7ZM4 28.6133H49.6V31.08H4V28.6133ZM4 33.5333H49.6V36H4V33.5333Z" fill="#BD3D44"/>
<path fill-rule="evenodd" clip-rule="evenodd" d="M4.00024 6.46674H49.6002V8.92674H4.00024V6.46674ZM4.00024 11.3867H49.6002V13.8467H4.00024V11.3867ZM4.00024 16.3067H49.6002V18.7734H4.00024V16.3067ZM4.00024 21.2334H49.6002V23.7001H4.00024V21.2334ZM4.00024 26.1534H49.6002V28.6201H4.00024V26.1534ZM4.00024 31.0734H49.6002V33.5401H4.00024V31.0734Z" fill="white"/>
<path fill-rule="evenodd" clip-rule="evenodd" d="M4 4H22.24V21.2333H4V4Z" fill="#192F5D"/>
<path fill-rule="evenodd" clip-rule="evenodd" d="M5.51945 4.7334L5.68945 5.42007H6.21945L5.78945 5.84007L5.95445 6.52673L5.51945 6.10007L5.08945 6.52007L5.24945 5.84007L4.81445 5.42007H5.35945L5.51945 4.7334ZM8.55945 4.7334L8.72445 5.42007H9.26445L8.82945 5.84007L8.98945 6.52673L8.55945 6.10007L8.12445 6.52007L8.28945 5.84007L7.85945 5.42007H8.38945L8.55945 4.7334ZM11.5995 4.7334L11.7645 5.42007H12.2995L11.8695 5.84007L12.0345 6.52673L11.5995 6.10007L11.1645 6.52007L11.3295 5.84007L10.8945 5.42007H11.4345L11.5995 4.7334ZM14.6395 4.7334L14.8045 5.42007H15.3445L14.9095 5.84007L15.0745 6.52673L14.6395 6.10007L14.2045 6.52007L14.3745 5.84007L13.9345 5.42007H14.4695L14.6395 4.7334ZM17.6795 4.7334L17.8445 5.42007H18.3795L17.9495 5.84007L18.1145 6.52673L17.6795 6.10007L17.2445 6.52007L17.4095 5.84007L16.9795 5.42007H17.5145L17.6795 4.7334ZM20.7195 4.7334L20.8845 5.42007H21.4245L20.9845 5.84007L21.1545 6.52673L20.7195 6.10007L20.2845 6.52007L20.4545 5.84007L20.0145 5.42007H20.5545L20.7195 4.7334ZM7.03945 6.46673L7.20445 7.14673H7.74945L7.31445 7.56007L7.47445 8.24673L7.04945 7.82673L6.61445 8.24673L6.76945 7.56007L6.34945 7.14673H6.88445L7.03945 6.46673ZM10.0795 6.46673L10.2495 7.14673H10.7845L10.3445 7.56007L10.5145 8.24673L10.0795 7.82673L9.64445 8.24673L9.80945 7.56007L9.37445 7.14673H9.91445L10.0795 6.46673ZM13.1195 6.46673L13.2845 7.14673H13.8245L13.3895 7.56007L13.5545 8.24673L13.1195 7.82673L12.6845 8.24673L12.8495 7.56007L12.4195 7.14673H12.9495L13.1195 6.46673ZM16.1595 6.46673L16.3295 7.14673H16.8645L16.4245 7.56007L16.5945 8.24673L16.1595 7.82673L15.7295 8.24673L15.8895 7.56007L15.4545 7.14673H15.9995L16.1595 6.46673ZM19.1995 6.46673L19.3645 7.14673H19.9045L19.4695 7.56007L19.6345 8.24673L19.1995 7.82673L18.7645 8.24673L18.9295 7.56007L18.4995 7.14673H19.0345L19.1995 6.46673ZM5.51945 8.1734L5.68945 8.86673H6.21945L5.78945 9.28673L5.95445 9.96673L5.51945 9.54673L5.08945 9.96673L5.24945 9.28673L4.81445 8.86673H5.35945L5.51945 8.1734ZM8.55945 8.1734L8.72445 8.86673H9.26445L8.82945 9.28673L8.98945 9.96673L8.55945 9.54673L8.12445 9.96673L8.28945 9.28007L7.85945 8.86007H8.38945L8.55945 8.1734ZM11.5995 8.1734L11.7645 8.86007H12.2995L11.8695 9.28007L12.0345 9.96007L11.5995 9.54007L11.1645 9.96007L11.3295 9.2734L10.8945 8.8534H11.4345L11.5995 8.1734ZM14.6395 8.1734L14.8045 8.86007H15.3445L14.9095 9.28007L15.0745 9.96007L14.6395 9.54007L14.2045 9.96007L14.3745 9.2734L13.9345 8.8534H14.4695L14.6395 8.1734ZM17.6795 8.1734L17.8445 8.86007H18.3795L17.9495 9.28007L18.1145 9.96007L17.6795 9.54007L17.2445 9.96007L17.4095 9.2734L16.9795 8.8534H17.5145L17.6795 8.1734ZM20.7195 8.1734L20.8845 8.86007H21.4245L20.9845 9.28007L21.1545 9.96007L20.7195 9.54007L20.2845 9.96007L20.4545 9.2734L20.0145 8.8534H20.5545L20.7195 8.1734ZM7.03945 9.90673L7.20445 10.5867H7.74945L7.31445 11.0067L7.47945 11.6934L7.04445 11.2667L6.60945 11.6867L6.77445 11.0067L6.34445 10.5867H6.87945L7.03945 9.90673ZM10.0795 9.90673L10.2495 10.5867H10.7845L10.3445 11.0067L10.5145 11.6934L10.0795 11.2667L9.64445 11.6867L9.80945 11.0067L9.37445 10.5867H9.91445L10.0795 9.90673ZM13.1195 9.90673L13.2845 10.5867H13.8245L13.3895 11.0067L13.5545 11.6934L13.1195 11.2667L12.6845 11.6867L12.8495 11.0067L12.4195 10.5867H12.9495L13.1195 9.90673ZM16.1595 9.90673L16.3295 10.5867H16.8645L16.4295 11.0067L16.5945 11.6934L16.1595 11.2667L15.7295 11.6867L15.8895 11.0067L15.4545 10.5867H15.9995L16.1595 9.90673ZM19.1995 9.90673L19.3645 10.5867H19.9045L19.4695 11.0067L19.6345 11.6934L19.1995 11.2667L18.7645 11.6867L18.9295 11.0067L18.4995 10.5867H19.0345L19.1995 9.90673ZM5.51945 11.6334L5.68945 12.3134H6.21945L5.78945 12.7334L5.95445 13.4201L5.51945 12.9934L5.08945 13.4134L5.24945 12.7334L4.81445 12.3134H5.35945L5.51945 11.6334ZM8.55945 11.6334L8.72445 12.3134H9.26445L8.82945 12.7334L8.98945 13.4134L8.55945 12.9934L8.12445 13.4134L8.28945 12.7334L7.85945 12.3134H8.38945L8.55945 11.6334ZM11.5995 11.6334L11.7645 12.3134H12.2995L11.8695 12.7334L12.0345 13.4201L11.5995 12.9934L11.1645 13.4134L11.3295 12.7334L10.8945 12.3134H11.4345L11.5995 11.6334ZM14.6395 11.6334L14.8045 12.3134H15.3445L14.9095 12.7334L15.0745 13.4201L14.6395 12.9934L14.2045 13.4134L14.3745 12.7334L13.9345 12.3134H14.4695L14.6395 11.6334ZM17.6795 11.6334L17.8445 12.3134H18.3795L17.9495 12.7334L18.1145 13.4201L17.6795 12.9934L17.2445 13.4134L17.4095 12.7334L16.9795 12.3134H17.5145L17.6795 11.6334ZM20.7195 11.6334L20.8845 12.3134H21.4245L20.9845 12.7334L21.1545 13.4201L20.7195 12.9934L20.2845 13.4134L20.4495 12.7334L20.0095 12.3134H20.5495L20.7195 11.6334ZM7.03945 13.3534L7.20445 14.0401H7.74945L7.31445 14.4534L7.47945 15.1401L7.04445 14.7134L6.60945 15.1401L6.77445 14.4534L6.34445 14.0334H6.87945L7.03945 13.3534ZM10.0795 13.3534L10.2495 14.0401H10.7845L10.3445 14.4534L10.5145 15.1401L10.0795 14.7134L9.64445 15.1401L9.80945 14.4534L9.37445 14.0334H9.91445L10.0795 13.3534ZM13.1195 13.3534L13.2845 14.0401H13.8245L13.3895 14.4534L13.5545 15.1401L13.1195 14.7134L12.6845 15.1401L12.8495 14.4534L12.4195 14.0334H12.9495L13.1195 13.3534ZM16.1595 13.3534L16.3295 14.0401H16.8645L16.4295 14.4534L16.5945 15.1401L16.1595 14.7134L15.7295 15.1401L15.8895 14.4534L15.4545 14.0334H15.9995L16.1595 13.3534ZM19.1995 13.3534L19.3645 14.0401H19.9045L19.4695 14.4534L19.6345 15.1401L19.1995 14.7134L18.7645 15.1401L18.9295 14.4534L18.4995 14.0334H19.0345L19.1995 13.3534ZM5.51945 15.0734L5.68945 15.7601H6.21945L5.78945 16.1801L5.95445 16.8534L5.51945 16.4401L5.08945 16.8534L5.24945 16.1734L4.81445 15.7534H5.35945L5.51945 15.0734ZM8.55945 15.0734L8.72445 15.7601H9.26445L8.82945 16.1801L8.99445 16.8534L8.55945 16.4401L8.12445 16.8534L8.29445 16.1734L7.85945 15.7534H8.38945L8.55945 15.0734ZM11.5995 15.0734L11.7645 15.7601H12.2995L11.8695 16.1801L12.0345 16.8534L11.5995 16.4401L11.1645 16.8534L11.3295 16.1734L10.8945 15.7534H11.4345L11.5995 15.0734ZM14.6395 15.0734L14.8045 15.7601H15.3445L14.9095 16.1801L15.0745 16.8534L14.6395 16.4401L14.2045 16.8534L14.3745 16.1734L13.9345 15.7534H14.4695L14.6395 15.0734ZM17.6795 15.0734L17.8445 15.7601H18.3795L17.9495 16.1801L18.1145 16.8534L17.6795 16.4401L17.2445 16.8534L17.4095 16.1734L16.9795 15.7534H17.5145L17.6795 15.0734ZM20.7195 15.0734L20.8845 15.7601H21.4245L20.9845 16.1801L21.1545 16.8534L20.7195 16.4401L20.2845 16.8534L20.4545 16.1734L20.0145 15.7534H20.5545L20.7195 15.0734ZM7.03945 16.8001L7.20445 17.4801H7.74945L7.31445 17.9001L7.47945 18.5867L7.04445 18.1601L6.60945 18.5801L6.77445 17.9001L6.34445 17.4801H6.87945L7.03945 16.8001ZM10.0795 16.8001L10.2495 17.4801H10.7845L10.3445 17.9001L10.5145 18.5867L10.0795 18.1601L9.64445 18.5801L9.80945 17.9001L9.37445 17.4801H9.91445L10.0795 16.8001ZM13.1195 16.8001L13.2845 17.4801H13.8245L13.3895 17.9001L13.5545 18.5867L13.1195 18.1601L12.6845 18.5801L12.8495 17.9001L12.4195 17.4801H12.9495L13.1195 16.8001ZM16.1595 16.8001L16.3295 17.4801H16.8645L16.4295 17.9001L16.5945 18.5867L16.1595 18.1601L15.7295 18.5801L15.8895 17.9001L15.4545 17.4801H15.9995L16.1595 16.8001ZM19.1995 16.8001L19.3645 17.4801H19.9045L19.4695 17.9001L19.6345 18.5867L19.1995 18.1601L18.7645 18.5801L18.9295 17.9001L18.4995 17.4801H19.0345L19.1995 16.8001ZM5.51945 18.5267L5.68945 19.2067H6.21945L5.78945 19.6267L5.95445 20.3067L5.51945 19.8867L5.08945 20.3067L5.24945 19.6201L4.81445 19.2001H5.35945L5.51945 18.5267ZM8.55945 18.5267L8.72445 19.2067H9.26445L8.82945 19.6267L8.99445 20.3067L8.55945 19.8867L8.12445 20.3067L8.29445 19.6201L7.85945 19.2001H8.38945L8.55945 18.5267ZM11.5995 18.5267L11.7645 19.2067H12.2995L11.8795 19.6267L12.0445 20.3067L11.6095 19.8867L11.1745 20.3067L11.3395 19.6201L10.9045 19.2001H11.4445L11.5995 18.5267ZM14.6395 18.5267L14.8045 19.2067H15.3445L14.9095 19.6267L15.0745 20.3067L14.6395 19.8867L14.2045 20.3067L14.3745 19.6201L13.9345 19.2001H14.4695L14.6395 18.5267ZM17.6795 18.5267L17.8445 19.2067H18.3795L17.9495 19.6267L18.1145 20.3067L17.6795 19.8867L17.2445 20.3067L17.4095 19.6201L16.9795 19.2001H17.5145L17.6795 18.5267ZM20.7195 18.5267L20.8845 19.2067H21.4245L20.9845 19.6267L21.1545 20.3067L20.7195 19.8867L20.2845 20.3067L20.4545 19.6201L20.0145 19.2001H20.5545L20.7195 18.5267Z" fill="white"/>
</g>
<rect x="2" y="2" width="36" height="36" rx="18" stroke="white" stroke-width="4"/>
<defs>
<clipPath id="clip0_90_20704">
<rect x="4" y="4" width="32" height="32" rx="16" fill="white"/>
</clipPath>
</defs>
</svg>
