<svg width="40" height="40" viewBox="0 0 40 40" fill="none" xmlns="http://www.w3.org/2000/svg">
<g clip-path="url(#clip0_90_20684)">
<path d="M4 4H36V36H4V4Z" fill="white"/>
<path d="M17.3 7.55341H36V11.1134H17.3V7.55341ZM17.3 14.6667H36V18.2201H17.3V14.6667ZM4 21.7801H36V25.3334H4V21.7801ZM4 28.8867H36V32.4467H4V28.8867Z" fill="#0038A8"/>
<path d="M10.3628 14.625L10.8042 15.5038C8.99052 17.2538 10.0978 18.2887 8.81251 18.8488C9.61191 17.8087 8.68664 17.721 9.36016 15.553" fill="#FCD116"/>
<path fill-rule="evenodd" clip-rule="evenodd" d="M10.3749 14.5437L10.8643 15.5182L10.83 15.5513C10.38 15.9855 10.1132 16.3733 9.94546 16.7179C9.77784 17.0622 9.70749 17.3663 9.65266 17.6378C9.64656 17.668 9.64064 17.6979 9.63477 17.7276C9.58835 17.9622 9.54531 18.1797 9.44706 18.3693C9.33456 18.5864 9.15316 18.7621 8.82615 18.9046L8.64643 18.983L8.78175 18.8069C8.97866 18.5507 9.06456 18.3592 9.09796 18.1854C9.13159 18.0103 9.11381 17.8459 9.08999 17.6325L9.08989 17.6317C9.06625 17.4198 9.0381 17.1676 9.05898 16.8315C9.07988 16.4951 9.14967 16.0771 9.31948 15.5305L9.33632 15.4763L9.41762 15.5212L9.40078 15.5754C9.23383 16.1128 9.16671 16.5189 9.14668 16.8412C9.12667 17.1633 9.15349 17.4043 9.17703 17.6152L9.17766 17.6209C9.2008 17.8281 9.22161 18.0146 9.1832 18.2145C9.15382 18.3674 9.0908 18.5241 8.97474 18.705C9.17839 18.5872 9.29676 18.4529 9.37466 18.3026C9.46358 18.131 9.50259 17.9346 9.54977 17.697C9.55558 17.6677 9.56152 17.6378 9.56769 17.6073C9.62341 17.3313 9.69664 17.0135 9.87165 16.6541C10.0421 16.304 10.3077 15.9172 10.7441 15.4896L10.3017 14.6089L10.3749 14.5437Z" fill="black"/>
<path fill-rule="evenodd" clip-rule="evenodd" d="M9.3503 17.4206C9.422 16.7763 9.51634 15.9285 10.01 14.8437L10.0852 14.9045C9.6008 15.9691 9.50856 16.7979 9.43728 17.4384C9.43564 17.4531 9.43401 17.4677 9.43239 17.4823C9.39643 17.8045 9.36306 18.0863 9.28057 18.3227C9.1967 18.5632 9.06309 18.7546 8.83177 18.9018L8.79387 18.7959C9.00774 18.6598 9.126 18.4876 9.20078 18.2733C9.27693 18.055 9.30898 17.7908 9.34535 17.465C9.34699 17.4503 9.34863 17.4355 9.3503 17.4206Z" fill="black"/>
<path d="M10.6645 12.8868H11.5445L10.6645 19.3401L9.78455 12.8868H10.6645V19.3401Z" fill="#FCD116"/>
<path fill-rule="evenodd" clip-rule="evenodd" d="M9.7323 12.8281H11.5977L10.665 19.668L9.7323 12.8281ZM9.83774 12.9454L10.621 18.6894V12.9454H9.83774ZM10.709 12.9454V18.6894L11.4923 12.9454H10.709Z" fill="black"/>
<path d="M10.6651 15.0379C11.5561 15.0379 12.2784 14.0748 12.2784 12.8868C12.2784 11.6987 11.5561 10.7357 10.6651 10.7357C9.77407 10.7357 9.05176 11.6987 9.05176 12.8868C9.05176 14.0748 9.77407 15.0379 10.6651 15.0379Z" fill="#FCD116"/>
<path fill-rule="evenodd" clip-rule="evenodd" d="M10.6651 10.7943C9.79843 10.7943 9.09581 11.7311 9.09581 12.8867C9.09581 14.0423 9.79843 14.9792 10.6651 14.9792C11.5319 14.9792 12.2345 14.0423 12.2345 12.8867C12.2345 11.7311 11.5319 10.7943 10.6651 10.7943ZM9.00781 12.8867C9.00781 11.6663 9.74982 10.6769 10.6651 10.6769C11.5805 10.6769 12.3225 11.6663 12.3225 12.8867C12.3225 14.1071 11.5805 15.0965 10.6651 15.0965C9.74982 15.0965 9.00781 14.1071 9.00781 12.8867Z" fill="black"/>
<path d="M11.8526 12.0263C11.75 12.1827 11.6913 11.9089 11.3247 11.9089C10.958 11.9089 10.8993 12.2023 10.8407 12.1436C10.782 12.0849 11.1487 11.7329 11.266 11.7134C11.3833 11.6938 11.7207 11.8503 11.8526 12.0263ZM11.4273 12.2023C11.53 12.3196 11.442 12.5738 11.3393 12.5738C11.2367 12.5738 11.046 12.3392 11.134 12.1827" fill="black"/>
<path d="M10.9437 12.3782C10.9584 12.1435 11.1051 12.1044 11.3397 12.1044C11.5744 12.1044 11.6771 12.3391 11.765 12.3978C11.6624 12.3978 11.5744 12.2022 11.3397 12.2022C11.1051 12.2022 11.1051 12.2022 10.9437 12.3978M10.9877 12.4369C11.0464 12.3195 11.1197 12.5542 11.2811 12.5542C11.4424 12.5542 11.5304 12.4955 11.6331 12.3978C11.7357 12.3 11.4864 12.6324 11.3251 12.6324C11.1637 12.6324 10.9437 12.5151 10.9877 12.4369Z" fill="black"/>
<path d="M11.4861 12.5543C11.6768 12.4174 11.5594 12.2218 11.4861 12.1827C11.5154 12.2218 11.6328 12.4174 11.4861 12.5543ZM10.6648 13.7276C10.7528 13.7276 10.7821 13.6885 10.8994 13.6885C11.0168 13.6885 11.2954 13.9036 11.4568 13.8254C11.1194 14.0014 11.2514 13.8841 10.6648 13.8841H10.5914M11.5154 14.0014C11.4568 13.8645 11.4714 13.9036 11.3541 13.6885C11.4714 13.8058 11.5008 13.8645 11.5154 14.0014ZM10.6648 14.1969C11.0314 14.1969 10.9728 14.0992 11.4568 13.8254C11.1048 13.8841 11.0314 14.0405 10.6648 14.0405H10.5914M10.6648 13.4734C10.7674 13.4734 10.7968 13.3756 10.9141 13.3756C11.0314 13.3756 11.1928 13.4343 11.2661 13.5125C11.2808 13.5321 11.2221 13.3561 11.1048 13.3365C10.9874 13.3169 11.0314 13.0627 10.8994 13.0236C10.8994 13.1018 10.9434 13.0823 10.9581 13.1996C10.9581 13.2974 10.8261 13.2974 10.7968 13.1996C10.8261 13.3561 10.7381 13.3561 10.6648 13.3561" fill="black"/>
<path d="M10.6648 14.3729C10.5915 14.3729 10.4008 14.4316 10.6648 14.4316C10.9288 14.4316 10.7381 14.3729 10.6648 14.3729Z" fill="black"/>
</g>
<rect x="2" y="2" width="36" height="36" rx="18" stroke="white" stroke-width="4"/>
<defs>
<clipPath id="clip0_90_20684">
<rect x="4" y="4" width="32" height="32" rx="16" fill="white"/>
</clipPath>
</defs>
</svg>
