<svg width="40" height="40" viewBox="0 0 40 40" fill="none" xmlns="http://www.w3.org/2000/svg">
<g clip-path="url(#clip0_90_20671)">
<path d="M3.99976 25.3334H35.9998V36H3.99976V25.3334Z" fill="#1EB53A"/>
<path d="M4 4H36V14.6667H4V4Z" fill="#0099B5"/>
<path d="M3.99976 14.2401H35.9998V25.7601H3.99976V14.2401Z" fill="#CE1126"/>
<path d="M3.99976 14.88H35.9998V25.12H3.99976V14.88Z" fill="white"/>
<path d="M10.7202 12.96C12.3108 12.96 13.6002 11.2408 13.6002 9.12003C13.6002 6.99926 12.3108 5.28003 10.7202 5.28003C9.12963 5.28003 7.84021 6.99926 7.84021 9.12003C7.84021 11.2408 9.12963 12.96 10.7202 12.96Z" fill="white"/>
<path d="M11.6804 12.96C13.271 12.96 14.5604 11.2408 14.5604 9.12003C14.5604 6.99926 13.271 5.28003 11.6804 5.28003C10.0898 5.28003 8.80042 6.99926 8.80042 9.12003C8.80042 11.2408 10.0898 12.96 11.6804 12.96Z" fill="#0099B5"/>
<path d="M17.0551 11.4254L16.8727 12.155L17.1511 12.283" fill="white"/>
</g>
<rect x="2" y="2" width="36" height="36" rx="18" stroke="white" stroke-width="4"/>
<defs>
<clipPath id="clip0_90_20671">
<rect x="4" y="4" width="32" height="32" rx="16" fill="white"/>
</clipPath>
</defs>
</svg>
