<svg width="40" height="40" viewBox="0 0 40 40" fill="none" xmlns="http://www.w3.org/2000/svg">
<g clip-path="url(#clip0_90_19651)">
<path d="M4 4H36V36H4V4Z" fill="#009543"/>
<path d="M4 4H36V20H4V4Z" fill="#D21034"/>
<path d="M4 3.99988L18.9333 17.1368H35.9999V22.8631H18.9333L4 36" fill="black"/>
<path fill-rule="evenodd" clip-rule="evenodd" d="M2.71643 6.59438L5.28405 1.40552L19.6333 14.0286H38.3314V25.9714H19.6333L5.28405 38.5945L2.71643 33.4056L17.9552 20L2.71643 6.59438Z" fill="#FDCE12"/>
<path fill-rule="evenodd" clip-rule="evenodd" d="M3.30029 5.415L4.70081 2.58472L19.3155 15.4413H36.0005V18.8322H18.5522L3.30029 5.415ZM18.5522 21.1677H36.0005V24.5585H19.3155L4.70081 37.4151L3.30029 34.5848L18.5522 21.1677Z" fill="black"/>
<path d="M8.30086 23.0653V24.8843C9.48823 24.8843 11.8226 23.6717 11.8226 19.7575C11.8226 15.8434 9.3316 15.1158 8.58886 15.1158C7.84107 15.1158 5.54211 15.83 5.54211 19.0232C5.54211 22.23 7.80065 22.5264 8.24528 22.5264C8.68992 22.5264 10.3573 21.9874 10.1653 19.5891C10.1155 20.1745 9.90545 20.7147 9.57539 21.1063C9.24532 21.4979 8.81847 21.7133 8.37665 21.7112C7.16401 21.7112 6.40612 20.5121 6.40612 19.3264C6.40612 18.1407 7.1438 16.5508 8.42212 16.5508C9.70045 16.5508 10.6352 18.0666 10.6352 19.5891C10.6352 21.1184 9.73581 23.0586 8.30086 23.0586V23.0653Z" fill="#FDCE12"/>
<path d="M7.25513 20.6874L7.32586 20.7548C7.32586 20.7548 7.89176 19.0369 9.4025 17.8175C9.2105 17.9522 8.19997 18.6259 7.25513 20.6874V20.6874Z" fill="#FDCE12"/>
<path fill-rule="evenodd" clip-rule="evenodd" d="M9.37915 17.8031C9.38415 17.7996 9.38877 17.7964 9.393 17.7935L9.41288 17.8404C8.66015 18.4479 8.14281 19.1797 7.81368 19.7595C7.64912 20.0494 7.53166 20.3012 7.45538 20.4804C7.41724 20.57 7.38941 20.6414 7.37114 20.6904C7.362 20.7149 7.35526 20.7337 7.35081 20.7464C7.34859 20.7527 7.34694 20.7575 7.34586 20.7607L7.34465 20.7643L7.34436 20.7652L7.34429 20.7654L7.33427 20.7958L7.24329 20.7091L7.25504 20.6872L7.23779 20.6732C8.16457 18.6511 9.15501 17.9596 9.37915 17.8031ZM7.28211 20.6799L7.31766 20.7137C7.32202 20.7015 7.32777 20.6856 7.33495 20.6664C7.35353 20.6166 7.3817 20.5443 7.42022 20.4538C7.49726 20.2728 7.61569 20.019 7.78145 19.7269C7.80705 19.6818 7.83378 19.6358 7.86166 19.5891C7.67094 19.8995 7.47523 20.2607 7.28211 20.6799Z" fill="#FDCE12"/>
<path d="M7.40168 20.3908C7.40168 20.3908 7.22989 19.9192 7.38147 19.7037C7.53305 19.4948 7.46737 20.2628 7.46737 20.2628L7.53305 20.1348C7.53305 20.1348 7.432 19.5555 7.54316 19.4342C7.65937 19.3062 7.60379 19.9934 7.60379 19.9934L7.67452 19.8721C7.67452 19.8721 7.59873 19.3062 7.70989 19.1984C7.8261 19.0906 7.75537 19.7374 7.75537 19.7374L7.83621 19.6026C7.83621 19.6026 7.77558 19.0637 7.912 18.9357C8.04842 18.8077 7.92716 19.4477 7.92716 19.4477L8.0181 19.3129C8.0181 19.3129 7.97768 18.8211 8.09389 18.7066C8.2101 18.5988 8.1141 19.1782 8.1141 19.1782L8.19495 19.0569C8.19495 19.0569 8.16968 18.5988 8.28084 18.491C8.39705 18.3832 8.29095 18.9289 8.29095 18.9289L8.37684 18.8211C8.37684 18.8211 8.35663 18.3563 8.49811 18.2687C8.63958 18.1811 8.47284 18.6999 8.47284 18.6999L8.5739 18.5921C8.5739 18.5921 8.59916 18.0531 8.72042 18.006C8.84169 17.9521 8.6699 18.4776 8.6699 18.4776L8.75579 18.3832C8.75579 18.3832 8.80126 17.9251 8.93263 17.8712C9.06906 17.8106 8.85179 18.2889 8.85179 18.2889L8.93769 18.2013C8.93769 18.2013 9.03369 17.7432 9.16 17.6893C9.28127 17.6422 9.02863 18.1272 9.02863 18.1272L9.11453 18.0464C9.11453 18.0464 9.25095 17.6287 9.36716 17.6018C9.47327 17.5748 9.23579 17.9453 9.23579 17.9453L9.3419 17.8645C9.3419 17.8645 9.51874 17.4333 9.58443 17.5613C9.64506 17.6961 9.33179 17.8915 9.33179 17.8915L9.23074 17.9723C9.23074 17.9723 9.60969 17.7298 9.65516 17.851C9.70064 17.9723 9.13474 18.0531 9.13474 18.0531L9.04379 18.134C9.04379 18.134 9.42274 17.9992 9.37727 18.1272C9.32674 18.2552 8.95284 18.2283 8.95284 18.2283L8.86695 18.3091C8.86695 18.3091 9.2459 18.1879 9.19537 18.3091C9.14484 18.4169 8.776 18.4102 8.776 18.4102L8.68505 18.5112C8.68505 18.5112 9.0539 18.3765 8.99832 18.5315C8.94779 18.6797 8.52337 18.6729 8.52337 18.6729L8.42232 18.8077C8.42232 18.8077 8.81137 18.6258 8.776 18.7672C8.74569 18.902 8.30105 18.9693 8.30105 18.9693L8.2 19.1041C8.2 19.1041 8.61937 18.9222 8.49305 19.0906C8.37179 19.2658 8.06358 19.3062 8.06358 19.3062L7.94737 19.5083C7.94737 19.5083 8.36168 19.1715 8.30105 19.3601C8.24547 19.5487 7.83621 19.6767 7.83621 19.6767L7.75537 19.8115C7.75537 19.8115 8.12926 19.5218 8.08884 19.6767C8.05347 19.8451 7.65431 20.0136 7.65431 20.0136L7.58863 20.1348C7.58863 20.1348 8.02821 19.7845 7.99284 19.9664C7.95242 20.1416 7.53305 20.2696 7.53305 20.2696L7.48252 20.3841C7.48252 20.3841 7.88674 20.0675 7.88674 20.2224C7.89684 20.3706 7.41179 20.5188 7.41179 20.5188L7.40168 20.3908V20.3908Z" fill="#FDCE12"/>
</g>
<rect x="2" y="2" width="36" height="36" rx="18" stroke="white" stroke-width="4"/>
<defs>
<clipPath id="clip0_90_19651">
<rect x="4" y="4" width="32" height="32" rx="16" fill="white"/>
</clipPath>
</defs>
</svg>
