<svg width="40" height="40" viewBox="0 0 40 40" fill="none" xmlns="http://www.w3.org/2000/svg">
<g clip-path="url(#clip0_90_19641)">
<path fill-rule="evenodd" clip-rule="evenodd" d="M4 4H36V36H4V4Z" fill="#CE1126"/>
<path fill-rule="evenodd" clip-rule="evenodd" d="M4 4H20V20H4V4Z" fill="#002B7F"/>
<path fill-rule="evenodd" clip-rule="evenodd" d="M12.9998 19.2866L11.9648 18.3533L10.9698 19.2933L11.2948 17.6333L10.3448 16.62L11.5698 16.52L11.9748 14.9466L12.4148 16.5466L13.6148 16.5933L12.6648 17.68L12.9998 19.2866ZM12.8198 8.24662L11.9898 7.53328L11.1898 8.22662L11.4098 6.89328L10.6798 6.04662L11.6498 5.93995L12.0098 4.69995L12.3798 5.94662L13.3348 6.05995L12.5998 6.95328L12.8198 8.24662ZM9.1698 12.2133L8.3698 11.48L7.53479 12.2133L7.7948 10.92L7.03979 10.0666L7.99979 9.99995L8.34979 8.73328L8.6898 9.99328L9.6698 10.0666L8.9198 10.9L9.1698 12.2133ZM16.4998 11.3333L15.7298 10.6666L14.9798 11.3333L15.1998 10.1133L14.4998 9.32662L15.4148 9.22662L15.7298 8.07995L16.0798 9.23995L16.9648 9.30662L16.2798 10.1266L16.4998 11.3333ZM14.3448 14.2266L13.8298 13.8L13.3148 14.24L13.4498 13.42L12.9898 12.8666L13.5898 12.8L13.8198 12.0266L14.0648 12.8L14.6598 12.8666L14.2048 13.42L14.3448 14.2266Z" fill="white"/>
</g>
<rect x="2" y="2" width="36" height="36" rx="18" stroke="white" stroke-width="4"/>
<defs>
<clipPath id="clip0_90_19641">
<rect x="4" y="4" width="32" height="32" rx="16" fill="white"/>
</clipPath>
</defs>
</svg>
