<svg width="40" height="40" viewBox="0 0 40 40" fill="none" xmlns="http://www.w3.org/2000/svg">
<g clip-path="url(#clip0_90_19635)">
<path d="M4 4H36V36H4V4Z" fill="#244AA5"/>
<path d="M16.6502 18.9867C16.6502 18.9867 16.7102 18.9333 16.7302 18.9267C16.7552 18.9267 16.8302 18.8867 16.8302 18.8867C16.8302 18.8867 16.8802 18.8533 16.9052 18.8533C16.9352 18.8533 16.9852 18.8933 17.0052 18.9267C17.0202 18.96 17.1052 19.02 17.1052 19.02C17.1052 19.02 17.1652 19.0467 17.1802 19.02C17.1902 18.9933 17.2152 18.9733 17.2452 18.9733C17.2702 18.9733 17.2752 18.94 17.2752 18.9133C17.2752 18.8867 17.2852 18.8533 17.3052 18.82C17.3302 18.7867 17.3702 18.7667 17.3702 18.7667C17.3702 18.7667 17.4302 18.7333 17.4352 18.6867C17.4452 18.64 17.5002 18.6067 17.5352 18.6C17.5702 18.6 17.5352 18.5733 17.6252 18.5867C17.7102 18.6 17.7252 18.56 17.7252 18.5267C17.7302 18.4933 17.7252 18.46 17.7802 18.46C17.8352 18.4733 17.8602 18.4733 17.8602 18.4333C17.8602 18.3933 17.9102 18.3667 17.8252 18.34C17.7352 18.3067 17.7452 18.3333 17.7352 18.2733C17.7352 18.2267 17.7352 18.2333 17.6802 18.2267C17.6202 18.22 17.6502 18.18 17.6452 18.14C17.6402 18.1 17.6252 18.0733 17.6152 18.0533C17.6002 18.0267 17.5702 18.0267 17.5702 17.9867C17.5702 17.9467 17.5652 17.92 17.5352 17.92C17.5002 17.92 17.4852 17.92 17.4852 17.8867C17.4852 17.8467 17.4952 17.82 17.5252 17.82C17.5602 17.82 17.5752 17.78 17.5752 17.74C17.5652 17.7 17.5652 17.6133 17.5652 17.6133L17.6102 17.5467C17.6102 17.5467 17.7402 17.4067 17.7502 17.38C17.7602 17.3533 17.8052 17.3333 17.8252 17.3867C17.8452 17.44 17.8552 17.4533 17.8752 17.48C17.8902 17.5067 17.9402 17.4867 17.9502 17.46C17.9602 17.4333 17.9652 17.3333 17.9952 17.28C18.0252 17.2333 18.0452 17.2067 18.0502 17.16C18.0552 17.1133 18.0752 17.08 18.1102 17.08C18.1402 17.08 18.1602 17.02 18.1602 16.9867C18.1602 16.9533 18.1802 16.92 18.2202 16.9067C18.2602 16.9 18.2852 16.8667 18.3002 16.92C18.3152 16.9733 18.3302 16.9667 18.3552 16.9867C18.3852 17.0067 18.4252 17.0267 18.4452 17.0067C18.4702 16.98 18.4802 16.94 18.5102 16.96C18.5402 16.9867 18.5602 16.96 18.5702 16.9133L18.5852 16.7867C18.5852 16.7867 18.5902 16.7533 18.6402 16.7533C18.6902 16.7533 18.6552 16.7133 18.6802 16.6867C18.7102 16.66 18.7102 16.6333 18.7452 16.6467C18.7802 16.6667 18.8352 16.6267 18.8102 16.58C18.7802 16.54 18.7202 16.4733 18.7552 16.42C18.7902 16.3667 18.8052 16.2867 18.7702 16.2733C18.7352 16.2667 18.6802 16.28 18.6752 16.2333C18.6702 16.18 18.6552 16.14 18.7002 16.1333C18.7402 16.1267 18.8102 16.1267 18.8352 16.1C18.8552 16.0733 18.9252 16.0533 18.9252 15.98C18.9252 15.9 18.9452 15.8933 18.9552 15.8467C18.9602 15.8067 18.9602 15.7133 18.9302 15.6733C18.9002 15.6267 18.8602 15.5667 18.8552 15.54C18.8452 15.5133 18.8202 15.4733 18.7752 15.4533C18.7352 15.44 18.6952 15.4267 18.6952 15.3867C18.6952 15.34 18.7252 15.3933 18.7252 15.28C18.7252 15.1667 18.6702 15.1467 18.6702 15.1467L18.5852 15.08C18.5852 15.08 18.4352 15.0267 18.3952 15.0267C18.3552 15.0267 18.3052 14.9733 18.3502 14.9333C18.4002 14.9 18.4102 14.8333 18.3952 14.7867C18.3752 14.74 18.3652 14.7 18.3002 14.68C18.2352 14.66 18.2202 14.64 18.2502 14.5867C18.2752 14.54 18.2852 14.5 18.3202 14.54C18.3502 14.5733 18.4102 14.5867 18.4552 14.56C18.5052 14.5333 18.5202 14.5067 18.5452 14.54C18.5652 14.5667 18.5952 14.5933 18.6302 14.5533C18.6652 14.5067 18.7302 14.5 18.7602 14.52C18.7852 14.5467 18.8602 14.54 18.8802 14.52C18.9002 14.5067 18.9502 14.4533 18.9502 14.4333C18.9502 14.4133 18.9802 14.3533 19.0052 14.3333C19.0352 14.3067 19.0702 14.24 19.1002 14.24C19.1302 14.24 19.1402 14.1933 19.1402 14.1733C19.1402 14.14 19.1652 14.08 19.1702 14.06C19.1702 14.04 19.2302 14.0067 19.2702 14.06C19.3152 14.0933 19.3702 14.1133 19.3702 14.1133C19.3702 14.1133 19.4202 14.1267 19.4552 14.1133C19.471 14.1004 19.4892 14.0935 19.5077 14.0935C19.5262 14.0935 19.5444 14.1004 19.5602 14.1133C19.6052 14.1533 19.6602 14.1533 19.6602 14.1533L19.6752 14.0667C19.6752 14.04 19.6852 13.9867 19.6602 13.9667C19.6402 13.9467 19.6102 13.92 19.6552 13.8733C19.7052 13.8333 19.7052 13.84 19.7502 13.84L19.8602 13.8467C19.8952 13.8467 19.9502 13.8933 19.9502 13.9333C19.9502 13.9733 19.9752 14 20.0002 14.0267C20.0302 14.0467 20.0652 14.0667 20.0502 14.1067C20.0452 14.14 20.0452 14.1733 20.0802 14.16C20.1152 14.1533 20.1252 14.18 20.1252 14.22C20.1252 14.2533 20.1352 14.2733 20.1752 14.2867C20.2052 14.3 20.2252 14.3333 20.2252 14.3667C20.2252 14.4 20.2152 14.4267 20.2252 14.46L20.2752 14.5533C20.2752 14.5533 20.3402 14.6533 20.2552 14.6C20.1752 14.5533 20.1552 14.5333 20.1302 14.5333L20.0802 14.5667L20.0152 14.58C19.9852 14.58 19.9552 14.66 20.0052 14.6733C20.0502 14.6867 20.0652 14.7 20.0652 14.7533C20.0652 14.8067 20.0502 14.7867 20.0252 14.82C20.0052 14.86 19.9852 14.8333 19.9452 14.8333C19.9052 14.8333 19.8952 14.88 19.8952 14.92C19.8952 14.96 19.9102 14.96 19.9252 14.9867C19.9452 15.0267 19.9752 15.0333 20.0052 15C20.0302 14.9667 20.0552 14.94 20.0702 15.0067C20.0902 15.0733 20.1152 15.0733 20.1452 15.0733C20.1802 15.0733 20.1952 15.0733 20.2252 15.0467C20.2502 15.0267 20.2852 15.0467 20.2902 15.1067C20.3002 15.16 20.3252 15.1733 20.3552 15.1933C20.3852 15.2133 20.4052 15.2267 20.4052 15.26C20.4152 15.3 20.4302 15.3133 20.4602 15.2933C20.4902 15.2667 20.5352 15.2533 20.5552 15.2867L20.6002 15.3667V15.44L20.7152 15.4933L20.7252 15.56C20.7252 15.58 20.7452 15.6 20.7752 15.5867H20.8552C20.8552 15.5867 20.8952 15.5667 20.8952 15.52C20.8952 15.48 20.9102 15.4667 20.9452 15.4667C20.9702 15.4667 21.0352 15.5 21.0502 15.4533C21.0702 15.4133 21.1202 15.4 21.1602 15.42L21.3102 15.5C21.3102 15.5 21.2952 15.5 21.3302 15.5733C21.3652 15.6467 21.4302 15.6467 21.4302 15.6467C21.4302 15.6467 21.4302 15.7133 21.4452 15.74C21.4552 15.7667 21.5102 15.78 21.5352 15.7533C21.5652 15.7267 21.6052 15.6867 21.6402 15.6867C21.6752 15.6867 21.7002 15.6867 21.7002 15.66C21.7002 15.6333 21.6652 15.6133 21.6652 15.5667C21.6652 15.52 21.7002 15.5267 21.7052 15.48C21.7102 15.44 21.7452 15.48 21.7702 15.5067C21.7952 15.5333 21.8202 15.56 21.8202 15.5867C21.8202 15.62 21.8702 15.72 21.8952 15.7333C21.9252 15.7467 22.0002 15.7533 22.0252 15.72C22.0452 15.68 22.1052 15.6667 22.1002 15.7533C22.0952 15.84 22.0802 15.8467 22.1202 15.8733C22.1602 15.9 22.1702 16.0067 22.1352 16.0333C22.1002 16.06 22.0852 16.0667 22.0852 16.1133C22.0852 16.16 22.0752 16.22 22.1052 16.2467C22.1352 16.28 22.1552 16.3 22.1552 16.3267C22.1552 16.36 22.1852 16.4867 22.1852 16.4867C22.1852 16.4867 22.2052 16.6133 22.1952 16.64C22.1952 16.6733 22.1802 16.72 22.2302 16.7133C22.2802 16.7067 22.2952 16.7067 22.2952 16.76C22.2952 16.8133 22.3152 16.84 22.2852 16.86C22.2552 16.8867 22.2352 16.9533 22.2652 16.9667C22.2952 16.98 22.3152 17.0067 22.3252 17.0333C22.3302 17.06 22.3752 17.1133 22.4052 17.08C22.4352 17.0533 22.4402 17.04 22.4652 17.0333C22.4852 17.0267 22.5052 17.0067 22.4802 16.9667C22.4602 16.9333 22.4502 16.9 22.4752 16.8733C22.5002 16.8533 22.5102 16.7867 22.5102 16.7867C22.5102 16.7867 22.5452 16.72 22.5852 16.7867C22.6252 16.8533 22.6352 16.8267 22.6602 16.8267C22.6852 16.8267 22.7002 16.86 22.7002 16.8933C22.7002 16.9333 22.7602 16.9267 22.7602 16.98L22.7702 17.18C22.7702 17.18 22.7702 17.2533 22.8052 17.28C22.8402 17.3133 22.8352 17.32 22.8152 17.3467C22.8002 17.3867 22.8052 17.4467 22.8052 17.48C22.8052 17.5133 22.8152 17.5133 22.7902 17.5467C22.7602 17.5733 22.7452 17.6133 22.7652 17.6533C22.7802 17.6933 22.7752 17.72 22.8202 17.7733C22.8702 17.82 22.8652 17.84 22.8652 17.88C22.8652 17.9133 22.9102 17.9667 22.9102 18C22.9102 18.0333 22.9452 18.08 22.9752 18.0867C23.0052 18.0933 23.0352 18.1533 23.0352 18.1933L23.0402 18.32C23.0402 18.32 23.0402 18.34 23.0702 18.34C23.1052 18.34 23.1302 18.3933 23.1402 18.34C23.1502 18.2733 23.1902 18.2733 23.2102 18.2533C23.2302 18.2333 23.2802 18.2133 23.3052 18.2333C23.3302 18.2533 23.3552 18.2533 23.3802 18.2533L23.5102 18.26C23.5102 18.26 23.5402 18.26 23.5602 18.3133C23.5752 18.3667 23.6252 18.4333 23.6002 18.46C23.5702 18.4933 23.5702 18.5467 23.6002 18.5467C23.6302 18.5467 23.6752 18.5467 23.6752 18.58C23.6752 18.62 23.6752 18.6467 23.7102 18.6267C23.7352 18.6067 23.7552 18.6 23.7652 18.6267C23.7802 18.6533 23.8002 18.6533 23.8302 18.6733C23.8602 18.7 23.8702 18.68 23.8902 18.6533C23.9052 18.6267 23.9752 18.6 23.9752 18.6C23.9752 18.6 24.0652 18.5667 24.1002 18.58L24.1852 18.6267C24.1852 18.6267 24.2052 18.6933 24.1952 18.74C24.1852 18.78 24.1702 18.7733 24.1852 18.84C24.1952 18.9067 24.1702 18.9067 24.1502 18.9067C24.1252 18.8933 24.1002 18.8933 24.1002 18.9533C24.1002 19.0067 24.0802 19.02 24.0802 19.0733C24.0802 19.1267 24.0802 19.1133 24.0552 19.14C24.0352 19.16 24.0252 19.1933 24.0602 19.2067C24.0952 19.2067 24.0852 19.26 24.0852 19.2867L24.0802 19.38C24.0802 19.38 24.0802 19.4133 24.0452 19.4133C24.0102 19.4133 23.9702 19.4133 23.9652 19.4467C23.9552 19.48 23.9152 19.5333 23.9502 19.5733C23.9902 19.6067 23.9802 19.6267 23.9552 19.64C23.9352 19.66 23.9152 19.7267 23.9652 19.7467C24.0102 19.7733 24.0052 19.7933 23.9752 19.82C23.9452 19.8467 23.8902 19.8733 23.8902 19.9133C23.8902 19.9533 23.8752 19.9533 23.8402 19.96C23.8052 19.9667 23.7902 20.0267 23.8302 20.0933C23.8702 20.1667 23.8802 20.16 23.9102 20.16C23.9402 20.16 23.9402 20.0933 23.9402 20.0933L24.0652 20.1067C24.0952 20.1067 24.1352 20.1067 24.1602 20.0867C24.1852 20.06 24.2452 20.0267 24.2452 20.0867C24.2452 20.1533 24.2602 20.1533 24.2852 20.1733C24.3152 20.2067 24.3202 20.18 24.3452 20.2267C24.3702 20.2667 24.3752 20.2267 24.3952 20.18C24.4102 20.1333 24.4452 20.0867 24.4752 20.14C24.5002 20.2 24.5002 20.18 24.5352 20.18C24.5702 20.18 24.5852 20.2067 24.5852 20.24C24.5852 20.2733 24.6152 20.2733 24.6602 20.2667C24.7002 20.2667 24.7052 20.3 24.7202 20.3333C24.7352 20.3667 24.7452 20.36 24.7702 20.36C24.7902 20.36 24.8152 20.36 24.8302 20.3333C24.8502 20.3067 24.8702 20.2667 24.8952 20.3133C24.9202 20.3533 24.9652 20.3467 24.9752 20.3C24.9902 20.2467 25.0402 20.2067 25.0702 20.26C25.1002 20.32 25.1202 20.32 25.1502 20.3267C25.1802 20.3267 25.2202 20.3267 25.2352 20.3667C25.2552 20.4067 25.3102 20.46 25.2702 20.5C25.2302 20.5467 25.1852 20.6 25.2202 20.62C25.2516 20.6302 25.2796 20.6536 25.3002 20.6867C25.3252 20.7133 25.4002 20.7333 25.4352 20.74C25.4702 20.74 25.4952 20.7533 25.5352 20.7067C25.5802 20.6667 25.6202 20.6667 25.6152 20.7267C25.6102 20.78 25.6302 20.8467 25.6302 20.8467C25.6302 20.8467 25.6602 20.94 25.6602 20.9733C25.6602 21.0067 25.6552 21.0133 25.7102 21.06C25.7602 21.1 25.7502 21.1267 25.7952 21.0867C25.8352 21.0467 25.8452 21.02 25.8452 20.9867V20.8733C25.8452 20.8733 25.9052 20.86 25.9252 20.84C25.9502 20.8133 26.0402 20.7533 26.0652 20.78C26.0902 20.8067 26.1152 20.8 26.1402 20.7867C26.1652 20.7733 26.2102 20.7733 26.2352 20.7733C26.2552 20.7733 26.2952 20.78 26.3452 20.7333C26.3902 20.68 26.3902 20.6933 26.4202 20.7333C26.4452 20.7667 26.4452 20.8067 26.4302 20.84C26.4102 20.8667 26.4302 20.9267 26.4702 20.9267C26.5102 20.9267 26.5202 20.96 26.5202 20.9933L26.5352 21.1067C26.5352 21.1333 26.5352 21.1533 26.6052 21.1733C26.6652 21.1933 26.6552 21.24 26.6652 21.28C26.6802 21.3134 26.6802 21.3467 26.6452 21.3467C26.6102 21.3467 26.5952 21.3667 26.5952 21.4C26.5852 21.4333 26.5352 21.4467 26.5352 21.4467L26.4852 21.4333C26.4852 21.4333 26.4452 21.4333 26.4302 21.46C26.4102 21.4933 26.3802 21.5467 26.4002 21.5933C26.4252 21.6467 26.4252 21.6733 26.4002 21.7C26.3802 21.72 26.3652 21.8267 26.3452 21.8067C26.3202 21.78 26.2952 21.8067 26.2702 21.8267C26.2452 21.84 26.2502 21.94 26.2952 21.9733C26.3452 22.0133 26.3552 22.06 26.3552 22.06L26.4052 22.1667C26.4052 22.1667 26.3902 22.1867 26.3802 22.2267C26.3652 22.26 26.3302 22.3334 26.3652 22.3467C26.4002 22.36 26.3852 22.44 26.3502 22.44C26.3152 22.44 26.2752 22.4134 26.2702 22.4734C26.2652 22.5334 26.2452 22.5134 26.2102 22.5067C26.1752 22.5067 26.0902 22.4733 26.0652 22.5267C26.0402 22.5867 26.0352 22.6067 25.9952 22.6C25.9552 22.6 25.9702 22.6867 25.9852 22.72L26.0352 22.8067C26.0352 22.8067 26.0702 22.84 26.0702 22.9134C26.0702 22.98 26.0452 22.98 26.0202 22.9267C26.0002 22.88 25.9552 22.8867 25.9502 22.94C25.9452 23 25.9352 23.0867 25.9002 23.0867C25.8552 23.0867 25.8402 23.1 25.8202 23.1267C25.8052 23.1533 25.7752 23.2067 25.7752 23.2334C25.7752 23.26 25.7702 23.2934 25.7402 23.3C25.7102 23.3067 25.7052 23.38 25.7052 23.38C25.7052 23.38 25.6352 23.4 25.6302 23.4334C25.6252 23.4667 25.6352 23.5267 25.5802 23.5334C25.5578 23.5369 25.5362 23.5471 25.5172 23.5632C25.4982 23.5794 25.4821 23.6011 25.4702 23.6267C25.4502 23.66 25.4452 23.6933 25.4702 23.7267C25.4952 23.76 25.5102 23.8733 25.5402 23.8933C25.5652 23.9133 25.5902 23.9267 25.5852 23.98C25.5802 24.04 25.5452 24.08 25.5902 24.08C25.6402 24.08 25.6652 24.0934 25.6502 24.1467C25.6302 24.1934 25.6302 24.2 25.6002 24.22C25.5602 24.2467 25.5452 24.2467 25.5452 24.3C25.5452 24.3534 25.5552 24.36 25.5252 24.38C25.4952 24.4 25.4952 24.4267 25.4952 24.4734C25.4952 24.52 25.4852 24.5 25.4502 24.5467C25.4152 24.6 25.3702 24.6 25.3402 24.5867C25.3102 24.5733 25.3052 24.5733 25.3002 24.5267C25.2952 24.4867 25.2452 24.4867 25.2152 24.4933C25.1852 24.4933 25.1452 24.54 25.1452 24.54C25.1452 24.54 25.0952 24.5867 25.1152 24.62C25.1402 24.6533 25.1252 24.7134 25.0852 24.7067C25.0452 24.7 24.9552 24.76 24.9252 24.7C24.8952 24.6334 24.8152 24.5934 24.8002 24.68C24.7902 24.76 24.8352 24.7534 24.8302 24.84C24.8302 24.9267 24.8152 24.9267 24.7902 24.9533C24.7702 24.98 24.7702 25.0067 24.7602 25.04C24.7602 25.0734 24.7502 25.1534 24.7902 25.18C24.8302 25.2134 24.8502 25.2867 24.8502 25.3334C24.8502 25.3734 24.8502 25.42 24.8902 25.42C24.9302 25.42 24.9652 25.4067 24.9702 25.36C24.9752 25.3133 25.0552 25.28 25.0652 25.38C25.0652 25.48 25.0652 25.5334 25.1002 25.5734C25.1252 25.6134 25.1502 25.6733 25.1752 25.6933C25.1952 25.7133 25.2352 25.8933 25.2352 25.8933C25.1802 25.9133 25.1652 26.0133 25.1302 26.0267C25.1102 26.04 25.0852 26.0267 25.0652 26.0467C25.0552 26.0667 25.0552 26.0934 25.0352 26.1C24.9902 26.1267 25.0002 26.04 24.9452 26.0734C24.9002 26.1 24.8952 26.1734 24.8302 26.14C24.7952 26.1267 24.7752 25.94 24.7652 25.9L24.7102 25.78C24.6702 25.7 24.5952 25.78 24.5702 25.7533C24.5302 25.72 24.5452 25.66 24.4852 25.6533C24.3652 25.64 24.4502 25.7534 24.4002 25.7734C24.3002 25.82 24.3002 25.6534 24.2302 25.7334C24.2052 25.76 24.2802 25.78 24.2602 25.8267C24.2452 25.8667 24.1752 25.9334 24.1752 25.98C24.1852 26.0467 24.2352 26.0667 24.2502 26.1134C24.3002 26.2667 24.2252 26.3667 24.1152 26.2467C24.0552 26.1867 24.0402 26.0667 23.9502 26.08C23.9252 26.08 23.9202 26.1067 23.9002 26.1134C23.8752 26.1134 23.8602 26.0867 23.8352 26.0933C23.8002 26.1133 23.8352 26.1467 23.8252 26.1734C23.8252 26.1734 23.7752 26.22 23.7752 26.24C23.7452 26.28 23.7552 26.32 23.7152 26.36C23.6852 26.3933 23.6602 26.3733 23.6252 26.4267C23.5902 26.4733 23.5852 26.5534 23.5402 26.6C23.5152 26.6267 23.5002 26.5267 23.4702 26.5933L23.4602 26.62C23.4502 26.64 23.4502 26.6467 23.4602 26.6667C23.5202 26.8267 23.3902 26.88 23.3502 26.9933C23.3352 27.04 23.3802 27.08 23.3652 27.12L23.2902 27.2334C23.2902 27.2467 23.2802 27.2867 23.2702 27.3C23.2602 27.3134 23.2202 27.3 23.2202 27.3267C23.2202 27.3533 23.2602 27.3733 23.2702 27.3867C23.2802 27.4067 23.2602 27.4334 23.2702 27.44C23.3302 27.5267 23.2952 27.5 23.3252 27.5734C23.3302 27.5867 23.3502 27.5667 23.3602 27.5933C23.3652 27.62 23.3402 27.62 23.3502 27.6467C23.3502 27.66 23.4002 27.74 23.4002 27.74C23.4002 27.7667 23.3102 27.82 23.2902 27.82C23.2352 27.82 23.3402 27.6734 23.2502 27.6734C23.2102 27.6734 23.2052 27.7867 23.2002 27.8067H23.1502C23.0902 27.8067 23.0502 27.9 23.0302 27.9067C23.0152 27.9134 22.9802 27.8934 22.9552 27.9067C22.9352 27.9067 22.9052 27.94 22.8852 27.94C22.8702 27.94 22.8652 27.9267 22.8502 27.9134C22.8252 27.8934 22.7752 27.8867 22.7502 27.8734C22.7302 27.8734 22.7002 27.9 22.6902 27.8933C22.6752 27.88 22.7052 27.8267 22.6602 27.8L22.6252 27.6867C22.6402 27.62 22.6552 27.5534 22.6502 27.48C22.6402 27.4067 22.5502 27.3467 22.5302 27.28C22.5152 27.24 22.5002 27.12 22.4652 27.0933C22.4271 27.0544 22.3963 27.0042 22.3752 26.9467C22.3752 26.9334 22.3902 26.9067 22.3752 26.88C22.3602 26.86 22.3352 26.8467 22.3252 26.8134C22.3202 26.7867 22.3252 26.6934 22.3002 26.6734C22.2752 26.6534 22.1002 26.62 22.0502 26.6134C22.0302 26.6134 22.0152 26.6133 22.0002 26.5933L21.9702 26.5467L21.9202 26.56C21.9052 26.56 21.8802 26.5467 21.8702 26.56C21.8152 26.6067 21.8002 26.6734 21.7452 26.7334C21.6902 26.7867 21.6302 26.7867 21.5752 26.8467C21.5402 26.8867 21.5152 26.9867 21.4802 27.0334C21.4652 27.0534 21.4452 27.0334 21.4402 27.04C21.4102 27.0867 21.3702 27.12 21.3402 27.16C21.3352 27.1733 21.3402 27.1867 21.3302 27.1933L21.2652 27.22H21.2052C21.1802 27.2333 21.1802 27.2734 21.0802 27.3L21.0552 27.32L21.0252 27.3533H20.9802C20.9552 27.3533 20.9402 27.3867 20.9202 27.3867C20.8702 27.4 20.7802 27.3534 20.7402 27.38C20.7152 27.3867 20.6502 27.4934 20.6252 27.5C20.6102 27.5067 20.5952 27.5 20.5752 27.4933L20.5452 27.64L20.4252 27.78C20.4102 27.8 20.4052 27.8267 20.3852 27.8467C20.3752 27.8667 20.3552 27.88 20.3352 27.88C20.3152 27.88 20.2802 27.8533 20.2552 27.8533C20.2152 27.84 20.0902 27.8334 20.0552 27.8467C20.0102 27.8534 20.0252 28.0067 19.9252 28.02L19.7602 28.0467C19.7552 28.0467 19.7202 28.02 19.6852 28.0267C19.6702 28.0333 19.6302 28.0934 19.6302 28.1067V28.14L19.6402 28.1667C19.6202 28.2 19.5702 28.2534 19.5552 28.3L19.5352 28.3267C19.5252 28.34 19.4552 28.3733 19.4502 28.3867C19.4352 28.44 19.5002 28.4934 19.4902 28.5134C19.4752 28.58 19.4052 28.6467 19.3802 28.7134C19.3752 28.74 19.4052 28.8267 19.4052 28.8533C19.3952 28.94 19.3752 29.0467 19.3802 29.1267L19.3902 29.24L19.4252 29.2734L19.5152 29.5134C19.5302 29.66 19.3652 29.6067 19.4652 29.7533C19.4752 29.78 19.4852 29.8 19.5052 29.82L19.6452 29.9734C19.6452 30 19.5452 30.02 19.5302 30.04C19.4802 30.1067 19.4452 30.2134 19.4002 30.28C19.3702 30.3134 19.3502 30.2734 19.3102 30.3667C19.3002 30.4 19.3102 30.4734 19.2952 30.5C19.2702 30.5267 19.2552 30.4867 19.2302 30.5C19.2202 30.5 19.2152 30.5467 19.2052 30.5533C19.1802 30.5867 18.9452 30.7534 18.9252 30.7334C18.9152 30.7267 18.9002 30.6734 18.9002 30.66C18.9002 30.64 18.8802 30.6 18.8702 30.5934C18.8102 30.5267 18.7202 30.5067 18.6602 30.5934C18.6452 30.6134 18.6452 30.6467 18.6252 30.66L18.5252 30.7667L18.5002 30.8C18.4752 30.8 18.4202 30.7133 18.4002 30.6867C18.3802 30.6467 18.3002 30.5534 18.2952 30.5067C18.2952 30.3467 18.2002 30.18 18.1652 30.0267H18.2202C18.2852 29.9667 18.2702 29.8267 18.3852 29.88C18.4002 29.8534 18.4002 29.8267 18.4252 29.8134C18.4352 29.8 18.4552 29.7934 18.4602 29.78C18.5002 29.7 18.5452 29.3934 18.5052 29.3134C18.4702 29.2467 18.4302 29.2467 18.4052 29.1334C18.3952 29.1 18.4052 29.0667 18.4052 29.0267L18.3552 28.82C18.3452 28.8 18.3202 28.7867 18.3202 28.7734L18.3102 28.5667C18.2752 28.42 18.1402 28.3334 18.1352 28.3134L18.0852 28.2C18.0652 28.1534 18.0652 28.1333 18.0552 28.0933C18.0502 28.0733 18.0252 28.0534 18.0252 28.0334C18.0252 27.9934 18.1052 27.92 18.1002 27.8533C18.1002 27.8333 18.0502 27.7667 18.0602 27.7334C18.0702 27.6934 18.1202 27.6134 18.1202 27.5667C18.1202 27.5134 18.0402 27.3934 18.0302 27.34C18.0252 27.3067 18.0602 27.2867 18.0502 27.2667C18.0402 27.24 17.9602 27.14 17.9502 27.1134C17.9352 27.0934 17.9752 27.0667 17.9502 27.0267C17.9202 26.9933 17.9452 27 17.9352 26.9734C17.9252 26.94 17.9002 26.9067 17.8852 26.8734C17.8752 26.84 17.8052 26.5067 17.8102 26.4867C17.7952 26.4667 17.7752 26.4467 17.7652 26.42L17.7452 26.34C17.7452 26.34 17.6652 26.3067 17.6502 26.2734C17.6402 26.2534 17.6352 26.1667 17.6152 26.1267C17.6052 26.1067 17.5902 26.1134 17.5802 26.1C17.5702 26.0867 17.5702 26.0667 17.5652 26.0533C17.5402 26.0133 17.4952 26.0533 17.4652 25.8933C17.4152 25.8533 17.3802 25.8267 17.3452 25.7734L17.3252 25.7467C17.2952 25.7334 17.2502 25.7267 17.2252 25.7C17.2102 25.7 17.1352 25.7 17.1252 25.6867L17.1052 25.6334C17.0652 25.6267 16.9952 25.6333 16.9602 25.5933C16.9352 25.56 16.9302 25.4067 16.8802 25.4267C16.8737 25.4241 16.8667 25.4241 16.8602 25.4267C16.8252 25.36 16.7152 25.36 16.6702 25.32C16.6602 25.3133 16.6202 25.32 16.6202 25.3067L16.6252 25.22L16.5702 25.1267C16.5252 25.1133 16.5402 25.1067 16.5202 25.0867C16.4452 25.0867 16.4352 25.1 16.3902 25.1533C16.3802 25.1667 16.3552 25.1734 16.3402 25.18C16.3152 25.2 16.3102 25.26 16.2752 25.2334L16.2452 25.2C16.2252 25.1734 16.2152 25.1867 16.2052 25.1467C16.1452 25.1 15.9802 25.2467 15.9452 25.1467C15.9152 25.1267 15.8952 25.1467 15.8702 25.12C15.8602 25.1067 15.9052 24.92 15.7852 24.8533L15.8652 24.78C15.8752 24.76 15.8652 24.7267 15.8652 24.7134C15.8652 24.68 15.8802 24.62 15.8752 24.6C15.8752 24.58 15.8552 24.56 15.8502 24.5334C15.8402 24.5134 15.8502 24.48 15.8402 24.4533L15.8002 24.4267C15.7702 24.3933 15.7402 24.3734 15.7152 24.3334L15.6952 24.3C15.6752 24.28 15.6052 24.2467 15.6052 24.2067C15.6052 24.1934 15.6252 24.1867 15.6252 24.1734C15.6302 24.1534 15.6252 24.1333 15.6402 24.12C15.6702 24.0533 15.7452 24.0867 15.7352 23.9734C15.7302 23.92 15.7002 23.88 15.6952 23.8267C15.6802 23.8133 15.6802 23.7934 15.6702 23.78C15.5952 23.7734 15.6052 23.6734 15.5802 23.6467C15.5052 23.58 15.4452 23.62 15.5302 23.4867C15.5402 23.44 15.4552 23.3667 15.4402 23.3467C15.4102 23.3067 15.4252 23.22 15.4102 23.18C15.4102 23.16 15.3552 23.12 15.3402 23.0933L15.3152 23.0267V23.02C15.3302 23 15.3252 22.9667 15.3152 22.9533C15.3102 22.9333 15.2852 22.94 15.2802 22.9267C15.2102 22.8467 15.1302 22.8067 15.0352 22.76C15.0102 22.7467 15.0202 22.72 14.9952 22.7067L14.8452 22.6267C14.8352 22.6267 14.8252 22.5533 14.8152 22.5267L14.7702 22.46C14.7702 22.3933 14.7402 22.3933 14.7002 22.3533V22.3134L14.7302 22.1733C14.7352 22.1467 14.7602 22.12 14.7552 22.0933L14.7352 21.94C14.6952 21.8067 14.6502 21.82 14.6752 21.64C14.6752 21.6 14.6702 21.58 14.6902 21.5467L14.7002 21.5267L14.7602 21.4667C14.7802 21.4267 14.7952 21.34 14.8202 21.3134L14.9102 21.2333C14.9202 21.22 14.9302 21.1733 14.9252 21.1533C14.9052 21.14 14.8852 21.1467 14.8652 21.14C14.8552 21.14 14.8302 21.1134 14.8102 21.1134C14.8052 21.1 14.7952 21.0934 14.7952 21.08L14.7852 21.0667C14.7602 21.0667 14.7352 21.0467 14.7152 21.0333C14.6902 21.02 14.6552 21.02 14.6302 21C14.5802 20.9667 14.5302 20.8667 14.4852 20.8533C14.4252 20.8333 14.3852 20.86 14.3252 20.8667C14.2902 20.8667 14.2902 20.84 14.2602 20.8267C14.2202 20.8067 14.2502 20.8533 14.1602 20.8133C14.1452 20.8 14.1602 20.76 14.1602 20.7467H14.1102C14.0402 20.72 14.0652 20.6267 14.0452 20.5667C14.0402 20.5533 14.0052 20.5533 13.9952 20.5533C13.9852 20.5533 13.9852 20.54 13.9852 20.54L13.9952 20.5333C14.0052 20.5067 13.9602 20.44 13.9602 20.4267C13.9652 20.4067 14.0602 20.3867 14.0702 20.3867C14.0752 20.3667 14.0652 20.3533 14.0602 20.34C14.0602 20.3067 14.0752 20.26 14.0852 20.2267V20.2133C14.0552 20.1933 14.0502 20.1667 14.0252 20.1467C14.0252 20.1267 14.0402 20.12 14.0452 20.1C14.0902 19.9333 14.1602 20.0667 14.2202 19.9133C14.2252 19.9 14.2452 19.8667 14.2502 19.84H14.2602C14.2702 19.84 14.2902 19.8533 14.3002 19.84C14.3102 19.8267 14.3252 19.8267 14.3402 19.82H14.3652C14.4752 19.7933 14.4502 19.74 14.5152 19.68C14.5352 19.66 14.5852 19.6533 14.6052 19.64C14.6302 19.66 14.6652 19.7067 14.7102 19.7333C14.7452 19.7467 14.8602 19.78 14.8802 19.8C14.9052 19.8133 14.9102 19.8533 14.9302 19.8667C14.9952 19.92 14.9552 19.84 15.0202 19.8533C15.0852 19.8733 15.1352 19.9467 15.1952 19.98L15.2452 19.9733C15.2602 19.9667 15.3602 19.94 15.3702 19.9467L15.4102 19.9667C15.4252 19.9733 15.4352 19.9333 15.4502 19.9333C15.4902 19.9467 15.4902 19.9667 15.5502 19.96C15.5502 19.96 15.5802 19.74 15.6102 19.7333C15.6252 19.7267 15.6702 19.78 15.6802 19.7867C15.7002 19.7933 15.6802 19.74 15.6802 19.74C15.6702 19.72 15.6402 19.5867 15.6452 19.5733C15.6452 19.5733 15.6702 19.5867 15.6852 19.58C15.7152 19.5667 15.7602 19.5533 15.7852 19.52L15.8352 19.42C15.8402 19.4067 15.8252 19.3667 15.8352 19.3533L15.8802 19.3133C15.9002 19.2867 15.9002 19.2467 15.9302 19.2267C16.0302 19.2133 16.0652 19.1067 16.1602 19.0933H16.1902L16.2102 19.1333C16.2102 19.14 16.2752 19.1933 16.2852 19.1867C16.2952 19.1867 16.3002 19.1667 16.3102 19.16C16.3252 19.1667 16.3802 19.1267 16.3852 19.1C16.3852 19.1 16.3752 19.08 16.3802 19.06C16.4052 19.0304 16.4319 19.0037 16.4602 18.98H16.5302C16.5402 18.9933 16.5402 19.02 16.5552 19.02H16.6152C16.6252 19.02 16.6302 18.9867 16.6502 18.9867V18.9867Z" fill="#D0A650"/>
<path d="M21.5948 8.89343L22.3998 12.2001L20.2898 10.1534H22.8998L20.7898 12.2001L21.5898 8.89343H21.5948ZM24.7348 9.63343L25.5348 12.9401L23.4298 10.8934H26.0348L23.9248 12.9401L24.7348 9.63343ZM27.7298 11.0868L28.5298 14.3934L26.4248 12.3468H29.0298L26.9198 14.4001L27.7298 11.0934V11.0868Z" fill="white"/>
<path d="M18.4054 8.89343L17.6004 12.2001L19.7104 10.1534H17.1004L19.2104 12.2001L18.4104 8.89343H18.4054ZM15.2654 9.63343L14.4654 12.9401L16.5704 10.8934H13.9654L16.0754 12.9401L15.2654 9.63343ZM12.2854 11.0868L13.0954 14.3934L10.9854 12.3468H13.5904L11.4804 14.3934L12.2854 11.0868V11.0868Z" fill="white"/>
</g>
<rect x="2" y="2" width="36" height="36" rx="18" stroke="white" stroke-width="4"/>
<defs>
<clipPath id="clip0_90_19635">
<rect x="4" y="4" width="32" height="32" rx="16" fill="white"/>
</clipPath>
</defs>
</svg>
