<svg width="40" height="40" viewBox="0 0 40 40" fill="none" xmlns="http://www.w3.org/2000/svg">
<g clip-path="url(#clip0_90_19571)">
<path d="M3.88428 3.99329H53.1167V35.9861H3.88428V3.99329Z" fill="#006400"/>
<path d="M3.88428 8.56372H53.1167V31.4157H3.88428V8.56372Z" fill="#FFD200"/>
<path d="M3.88428 13.1341H53.1167V26.8453H3.88428V13.1341Z" fill="#D40000"/>
<path d="M3.88428 17.7045H53.1167V22.2749H3.88428V17.7045Z" fill="black"/>
<path d="M3.88428 3.99329V35.9861L20.2951 19.9897L3.88428 3.99329Z" fill="black"/>
<path fill-rule="evenodd" clip-rule="evenodd" d="M3.30579 2.47357L21.2757 19.9897L3.30579 37.5059V2.47357ZM4.46309 5.5131V34.4664L19.3148 19.9897L4.46309 5.5131Z" fill="black"/>
<path d="M3.88428 3.99329V35.9861L20.2951 19.9897L3.88428 3.99329Z" fill="white"/>
<path d="M10.1262 11.9458L13.3791 24.9486L4.8689 16.9123H15.3894L6.87336 24.9486L10.1262 11.9458Z" fill="#D40000"/>
<path d="M8.73732 23.3185L9.3117 23.1814L10.3725 23.1281L10.7652 23.1738L11.6444 23.3642L11.7088 23.2499V22.4273L11.8143 21.7188L11.9902 21.0028L12.1836 20.4315L12.4297 19.8374L12.8283 19.9669H12.9338L12.9455 19.8678L12.1015 18.9309L11.2224 18.0549L9.95054 16.8209L9.83332 16.7828L9.69852 15.4879L9.59888 15.0994L9.46408 14.947L9.21206 14.8404L8.93073 14.8556L8.80179 14.947L8.53218 15.0232L8.39152 15.0537L8.29774 15.1984L8.28602 15.3812L8.67871 15.3965L8.77834 15.4498L8.76662 15.5031L8.5439 15.5412L8.43841 15.5869L8.56149 15.7088L8.69043 15.7697L8.85454 15.8459L8.8897 15.9982L8.90143 17.9635L8.81351 18.2682L8.78421 18.8395L8.91315 19.5251L8.58493 20.0126L8.39738 20.4468L8.36221 20.7134L8.26258 20.98L8.25085 21.1475L8.31533 21.3304L8.56735 22.412L8.69629 23.3033L8.73732 23.3185Z" fill="#FFCC00"/>
<path d="M9.04163 14.8099C8.93613 14.8099 8.88924 14.8252 8.78961 14.8937C8.70705 14.9552 8.61489 14.9916 8.52 15.0004C8.37348 15.0004 8.25626 15.1375 8.25626 15.3127V15.4269L8.46725 15.4193C9.08852 15.4422 8.52586 15.5183 8.47897 15.526C8.32659 15.5641 8.51414 15.724 8.69583 15.8078C8.88924 15.884 8.87752 15.8383 8.87752 16.9504C8.87752 17.8569 8.87752 17.9864 8.81891 18.192C8.74272 18.4967 8.74272 18.9538 8.81891 19.2585C8.85408 19.3803 8.87752 19.487 8.87752 19.5098C8.87752 19.5251 8.78375 19.6698 8.67239 19.8374C8.46725 20.1421 8.34417 20.4544 8.34417 20.6753C8.33686 20.7464 8.31678 20.8142 8.28556 20.8733C8.20937 21.0028 8.20937 21.2237 8.2797 21.3075C8.35589 21.3989 8.66653 22.9681 8.67239 23.2652C8.67239 23.3718 8.68411 23.3718 9.15885 23.2499C9.54568 23.1509 10.4541 23.1281 10.9171 23.2042C11.1281 23.2423 11.3743 23.3033 11.4622 23.3261C11.7436 23.4251 11.7318 23.4404 11.7318 22.9986C11.734 22.3025 11.8353 21.6129 12.0307 20.9647C12.1427 20.5954 12.278 20.2387 12.4351 19.8983C12.4351 19.8983 12.5406 19.9136 12.6696 19.9593C12.9099 20.0354 12.9802 20.0278 12.9802 19.8831C12.9802 19.8069 12.7282 19.5327 11.4915 18.2834C10.9927 17.7529 10.4786 17.2472 9.95008 16.7676C9.91492 16.7676 9.87975 16.7447 9.87389 16.7143L9.78598 15.9906C9.74495 15.6174 9.68634 15.2517 9.6629 15.1756C9.58084 14.947 9.42259 14.8328 9.15885 14.8099C9.11979 14.8083 9.08069 14.8083 9.04163 14.8099V14.8099ZM9.04749 14.8861H9.16471C9.55154 14.9166 9.62187 15.0537 9.72737 15.9525C9.75584 16.1903 9.77929 16.4291 9.7977 16.6686C9.7977 16.7295 9.74495 16.8057 9.61015 16.9199C9.38835 17.1222 9.19084 17.3661 9.02405 17.6436L8.94785 17.7807L8.93027 17.4608V16.5619C8.94785 15.8992 8.93027 15.8383 8.76616 15.7621C8.63136 15.7012 8.45553 15.6402 8.50242 15.6021C8.56103 15.5564 8.61964 15.5869 8.7603 15.5336C8.81891 15.5183 8.81305 15.526 8.80133 15.465C8.78961 15.366 8.70755 15.3127 8.4907 15.3279C8.31487 15.3432 8.29728 15.3355 8.309 15.2746C8.33245 15.1527 8.42622 15.0765 8.57275 15.0537C8.66245 15.0402 8.74969 15.0067 8.83063 14.9547C8.89606 14.9035 8.97116 14.8772 9.04749 14.8785V14.8861ZM9.92078 16.8514H9.94422C10.0439 16.8742 12.9216 19.7993 12.9216 19.8831C12.9216 19.9136 12.8982 19.9364 12.863 19.9364C12.8396 19.9364 12.1069 19.6698 11.2395 19.3422C9.85631 18.809 9.65703 18.7329 9.59842 18.6338C9.55765 18.5669 9.53498 18.4844 9.53393 18.399C9.53287 18.3136 9.55347 18.2302 9.59256 18.1616C9.6207 18.1172 9.64074 18.0651 9.65117 18.0092C9.65117 17.9178 9.50465 18.1463 9.47534 18.2758C9.44604 18.4282 9.50465 18.6872 9.59256 18.7709C9.62773 18.809 9.89147 18.9233 10.1787 19.0376C10.671 19.2204 10.7062 19.2432 10.7296 19.3499C10.7882 19.6012 10.5831 19.8983 10.29 19.9821C10.1801 20.0163 10.0766 20.0784 9.98525 20.1649C9.68117 20.4922 9.34145 20.7592 8.97716 20.9571C8.95371 20.98 8.92441 21.1019 8.90683 21.2161C8.87166 21.4675 8.85994 21.5056 8.80133 21.5056C8.77202 21.5056 8.76616 21.4827 8.78961 21.3989C8.83063 21.2466 8.82477 21.0638 8.78375 21.0638C8.75444 21.0638 8.74272 21.1171 8.74272 21.2009C8.74272 21.2771 8.72514 21.3685 8.70169 21.3913C8.67239 21.437 8.66653 21.4065 8.67825 21.2161C8.68997 21.0866 8.68411 20.9876 8.67239 20.9876C8.64308 20.9876 8.59033 21.178 8.57275 21.3456C8.56103 21.4446 8.56103 21.4446 8.53758 21.3228C8.52 21.2313 8.52586 21.1704 8.57861 21.0561C8.61192 20.9734 8.63186 20.8827 8.63722 20.7895C8.63722 20.6905 8.69583 20.5915 8.9713 20.2335C9.14713 19.9973 9.36398 19.7003 9.44018 19.5708C9.57498 19.3575 9.58084 19.3422 9.57498 19.1213C9.57498 18.9995 9.56326 18.8852 9.55154 18.87C9.51637 18.8243 9.46948 19.068 9.49293 19.1975C9.50465 19.3194 9.49293 19.3575 9.29951 19.6546C9.16036 19.8616 9.01367 20.0599 8.85994 20.2487C8.63136 20.5229 8.54931 20.6753 8.54931 20.8124C8.54931 20.8581 8.52586 20.9647 8.4907 21.0638C8.45553 21.1628 8.44381 21.2618 8.45553 21.2847C8.46725 21.3075 8.45553 21.3075 8.43795 21.2847C8.40864 21.2466 8.40864 21.1856 8.43209 21.0561C8.4455 20.9917 8.44948 20.9245 8.44381 20.8581C8.4145 20.7819 8.37348 20.8733 8.35589 21.0638C8.34417 21.1704 8.32659 21.2542 8.309 21.239C8.26798 21.2085 8.2797 21.0104 8.33245 20.9038C8.36175 20.8505 8.39106 20.7286 8.40864 20.6296C8.44967 20.3477 8.54344 20.1192 8.74858 19.8145C8.81428 19.7216 8.87685 19.625 8.93613 19.5251L8.87752 19.2737C8.79891 18.934 8.79485 18.5726 8.8658 18.2301C8.94199 17.9407 9.09438 17.6512 9.33468 17.3389C9.56912 17.0418 9.7977 16.859 9.92078 16.8514V16.8514ZM10.7999 19.3042C10.8073 19.3034 10.8148 19.3041 10.8219 19.3061C10.829 19.308 10.8355 19.3113 10.8411 19.3156C10.8466 19.3199 10.851 19.3252 10.854 19.3311C10.8571 19.337 10.8586 19.3434 10.8585 19.3499C10.8549 19.3588 10.8482 19.3666 10.8393 19.3721C10.8304 19.3776 10.8197 19.3805 10.8087 19.3805C10.7978 19.3805 10.7871 19.3776 10.7782 19.3721C10.7692 19.3666 10.7625 19.3588 10.7589 19.3499C10.7586 19.3393 10.7625 19.329 10.77 19.3207C10.7775 19.3123 10.7881 19.3065 10.7999 19.3042V19.3042ZM10.9465 19.327C10.9539 19.3263 10.9614 19.3269 10.9684 19.3289C10.9755 19.3309 10.9821 19.3341 10.9876 19.3385C10.9931 19.3428 10.9976 19.3481 11.0006 19.354C11.0036 19.3599 11.0051 19.3663 11.0051 19.3727C11.0015 19.3817 10.9947 19.3895 10.9858 19.3949C10.9769 19.4004 10.9662 19.4034 10.9552 19.4034C10.9443 19.4034 10.9336 19.4004 10.9247 19.3949C10.9158 19.3895 10.909 19.3817 10.9054 19.3727C10.9051 19.3622 10.909 19.3519 10.9165 19.3435C10.924 19.3352 10.9346 19.3294 10.9465 19.327V19.327ZM11.0988 19.3651C11.1062 19.3644 11.1137 19.365 11.1208 19.367C11.1279 19.369 11.1345 19.3722 11.14 19.3766C11.1455 19.3809 11.1499 19.3862 11.153 19.3921C11.156 19.398 11.1575 19.4044 11.1575 19.4108C11.1539 19.4198 11.1471 19.4275 11.1382 19.433C11.1293 19.4385 11.1186 19.4415 11.1076 19.4415C11.0967 19.4415 11.086 19.4385 11.0771 19.433C11.0681 19.4275 11.0614 19.4198 11.0578 19.4108C11.0575 19.4003 11.0614 19.3899 11.0689 19.3816C11.0764 19.3733 11.087 19.3674 11.0988 19.3651V19.3651ZM11.2395 19.4032C11.2469 19.4025 11.2544 19.4031 11.2615 19.4051C11.2686 19.4071 11.2751 19.4103 11.2807 19.4146C11.2862 19.419 11.2906 19.4242 11.2936 19.4301C11.2966 19.436 11.2982 19.4424 11.2981 19.4489C11.2945 19.4579 11.2878 19.4656 11.2789 19.4711C11.2699 19.4766 11.2592 19.4796 11.2483 19.4796C11.2373 19.4796 11.2267 19.4766 11.2177 19.4711C11.2088 19.4656 11.2021 19.4579 11.1985 19.4489C11.1982 19.4383 11.2021 19.428 11.2096 19.4197C11.2171 19.4114 11.2276 19.4055 11.2395 19.4032ZM10.8703 19.4489C10.8777 19.4482 10.8852 19.4488 10.8923 19.4508C10.8993 19.4528 10.9059 19.456 10.9114 19.4603C10.9169 19.4647 10.9214 19.4699 10.9244 19.4758C10.9274 19.4818 10.9289 19.4881 10.9289 19.4946C10.9253 19.5036 10.9185 19.5113 10.9096 19.5168C10.9007 19.5223 10.89 19.5253 10.8791 19.5253C10.8681 19.5253 10.8574 19.5223 10.8485 19.5168C10.8396 19.5113 10.8328 19.5036 10.8292 19.4946C10.8289 19.484 10.8329 19.4737 10.8403 19.4654C10.8478 19.4571 10.8584 19.4512 10.8703 19.4489ZM11.0109 19.4794C11.0183 19.4786 11.0258 19.4793 11.0329 19.4813C11.04 19.4832 11.0465 19.4865 11.0521 19.4908C11.0576 19.4951 11.062 19.5004 11.065 19.5063C11.068 19.5122 11.0696 19.5186 11.0695 19.5251C11.0659 19.534 11.0592 19.5418 11.0503 19.5473C11.0414 19.5528 11.0307 19.5557 11.0197 19.5557C11.0088 19.5557 10.9981 19.5528 10.9892 19.5473C10.9802 19.5418 10.9735 19.534 10.9699 19.5251C10.9696 19.5145 10.9735 19.5042 10.981 19.4959C10.9885 19.4875 10.999 19.4817 11.0109 19.4794V19.4794ZM11.3157 19.4946C11.3231 19.4939 11.3306 19.4945 11.3377 19.4965C11.3448 19.4985 11.3513 19.5017 11.3568 19.506C11.3624 19.5104 11.3668 19.5156 11.3698 19.5216C11.3728 19.5275 11.3744 19.5338 11.3743 19.5403C11.3707 19.5493 11.364 19.557 11.355 19.5625C11.3461 19.568 11.3354 19.571 11.3245 19.571C11.3135 19.571 11.3029 19.568 11.2939 19.5625C11.285 19.557 11.2783 19.5493 11.2747 19.5403C11.2744 19.5297 11.2783 19.5194 11.2858 19.5111C11.2932 19.5028 11.3038 19.4969 11.3157 19.4946ZM11.1575 19.4946C11.1649 19.4939 11.1723 19.4945 11.1794 19.4965C11.1865 19.4985 11.1931 19.5017 11.1986 19.506C11.2041 19.5104 11.2086 19.5156 11.2116 19.5216C11.2146 19.5275 11.2161 19.5338 11.2161 19.5403C11.2125 19.5493 11.2057 19.557 11.1968 19.5625C11.1879 19.568 11.1772 19.571 11.1662 19.571C11.1553 19.571 11.1446 19.568 11.1357 19.5625C11.1268 19.557 11.12 19.5493 11.1164 19.5403C11.1161 19.5297 11.12 19.5194 11.1275 19.5111C11.135 19.5028 11.1456 19.4969 11.1575 19.4946V19.4946ZM11.4505 19.5403C11.4564 19.5403 11.6674 19.6012 11.9194 19.6926L12.3824 19.8678L12.2945 20.0735C12.2454 20.1836 12.1985 20.2954 12.1538 20.4087C12.0952 20.561 12.0835 20.561 11.8022 20.4772C11.4974 20.3858 11.0168 20.302 10.5245 20.2487L10.0556 20.1954L10.2314 20.1116C10.3376 20.0585 10.4413 19.9974 10.542 19.9288C10.6593 19.845 10.7062 19.8298 10.8878 19.8526C11.1516 19.8755 11.3274 19.8069 11.3978 19.6698L11.4564 19.5403H11.4505ZM10.9347 19.586C10.9421 19.5853 10.9496 19.5859 10.9567 19.5879C10.9638 19.5899 10.9703 19.5931 10.9759 19.5975C10.9814 19.6018 10.9858 19.6071 10.9888 19.613C10.9919 19.6189 10.9934 19.6253 10.9933 19.6317C10.9897 19.6407 10.983 19.6484 10.9741 19.6539C10.9652 19.6594 10.9545 19.6624 10.9435 19.6624C10.9326 19.6624 10.9219 19.6594 10.913 19.6539C10.904 19.6484 10.8973 19.6407 10.8937 19.6317C10.8934 19.6212 10.8973 19.6108 10.9048 19.6025C10.9123 19.5942 10.9229 19.5883 10.9347 19.586V19.586ZM11.2629 19.586C11.2704 19.5853 11.2778 19.5859 11.2849 19.5879C11.292 19.5899 11.2986 19.5931 11.3041 19.5975C11.3096 19.6018 11.3141 19.6071 11.3171 19.613C11.3201 19.6189 11.3216 19.6253 11.3216 19.6317C11.3171 19.6392 11.3104 19.6454 11.3021 19.6498C11.2939 19.6542 11.2844 19.6565 11.2747 19.6565C11.265 19.6565 11.2555 19.6542 11.2472 19.6498C11.2389 19.6454 11.2322 19.6392 11.2278 19.6317C11.2275 19.6212 11.2314 19.6108 11.2389 19.6025C11.2464 19.5942 11.2569 19.5883 11.2688 19.586H11.2629ZM10.7941 19.586C10.8015 19.5853 10.809 19.5859 10.8161 19.5879C10.8232 19.5899 10.8297 19.5931 10.8352 19.5975C10.8408 19.6018 10.8452 19.6071 10.8482 19.613C10.8512 19.6189 10.8527 19.6253 10.8527 19.6317C10.8491 19.6407 10.8423 19.6484 10.8334 19.6539C10.8245 19.6594 10.8138 19.6624 10.8029 19.6624C10.7919 19.6624 10.7812 19.6594 10.7723 19.6539C10.7634 19.6484 10.7566 19.6407 10.753 19.6317C10.7546 19.6225 10.7593 19.6139 10.7667 19.6071C10.774 19.6003 10.7836 19.5956 10.7941 19.5936V19.586ZM11.1047 19.6012C11.1183 19.5998 11.132 19.6029 11.1429 19.61C11.1538 19.6171 11.1611 19.6276 11.1633 19.6393C11.1597 19.6483 11.153 19.6561 11.1441 19.6616C11.1351 19.6671 11.1244 19.67 11.1135 19.67C11.1025 19.67 11.0919 19.6671 11.0829 19.6616C11.074 19.6561 11.0673 19.6483 11.0637 19.6393C11.0652 19.6301 11.07 19.6215 11.0773 19.6147C11.0846 19.6079 11.0942 19.6032 11.1047 19.6012ZM10.7179 19.685C10.7253 19.6843 10.7328 19.685 10.7399 19.6869C10.747 19.6889 10.7535 19.6922 10.759 19.6965C10.7646 19.7008 10.769 19.7061 10.772 19.712C10.775 19.7179 10.7765 19.7243 10.7765 19.7307C10.7729 19.7397 10.7662 19.7475 10.7572 19.753C10.7483 19.7585 10.7376 19.7614 10.7267 19.7614C10.7157 19.7614 10.705 19.7585 10.6961 19.753C10.6872 19.7475 10.6804 19.7397 10.6768 19.7307C10.6765 19.7202 10.6805 19.7099 10.6879 19.7015C10.6954 19.6932 10.706 19.6874 10.7179 19.685V19.685ZM10.8644 19.685C10.8726 19.6841 10.8809 19.6849 10.8887 19.6873C10.8965 19.6897 10.9036 19.6937 10.9093 19.6988C10.915 19.704 10.9192 19.7103 10.9216 19.7172C10.924 19.724 10.9245 19.7313 10.923 19.7384C10.9194 19.7473 10.9127 19.7551 10.9038 19.7606C10.8948 19.7661 10.8841 19.769 10.8732 19.769C10.8622 19.769 10.8516 19.7661 10.8426 19.7606C10.8337 19.7551 10.827 19.7473 10.8234 19.7384C10.8231 19.7278 10.827 19.7175 10.8345 19.7092C10.8419 19.7008 10.8525 19.695 10.8644 19.6926V19.685ZM11.0168 19.7003C11.0303 19.6988 11.044 19.7019 11.055 19.7091C11.0659 19.7162 11.0732 19.7267 11.0754 19.7384C11.0718 19.7473 11.0651 19.7551 11.0561 19.7606C11.0472 19.7661 11.0365 19.769 11.0256 19.769C11.0146 19.769 11.0039 19.7661 10.995 19.7606C10.9861 19.7551 10.9794 19.7473 10.9758 19.7384C10.9773 19.7291 10.9821 19.7206 10.9894 19.7137C10.9967 19.7069 11.0063 19.7022 11.0168 19.7003ZM11.1809 19.7003C11.1883 19.6995 11.1958 19.7002 11.2029 19.7022C11.21 19.7041 11.2165 19.7074 11.222 19.7117C11.2276 19.716 11.232 19.7213 11.235 19.7272C11.238 19.7331 11.2396 19.7395 11.2395 19.746C11.2359 19.7549 11.2292 19.7627 11.2202 19.7682C11.2113 19.7737 11.2006 19.7767 11.1897 19.7767C11.1787 19.7767 11.1681 19.7737 11.1591 19.7682C11.1502 19.7627 11.1435 19.7549 11.1399 19.746C11.1396 19.7354 11.1435 19.7251 11.151 19.7168C11.1584 19.7084 11.169 19.7026 11.1809 19.7003V19.7003ZM9.99111 20.3173C10.683 20.3411 11.3717 20.4482 12.0483 20.6372C12.0542 20.6448 12.0132 20.8276 11.9487 21.0485L11.8315 21.5056C11.8256 21.5437 11.7846 21.5437 11.6849 21.5284C11.1985 21.4294 9.79184 21.437 9.25263 21.5437C8.94199 21.6046 8.90097 21.597 8.92441 21.5132L8.98302 21.2466L9.01819 21.0409L9.33468 20.8276C9.54564 20.6877 9.74582 20.5219 9.9325 20.3325H9.98525L9.99111 20.3173ZM8.40864 21.3989C8.42622 21.3989 8.46139 21.4218 8.50242 21.4599C8.56103 21.5056 8.63136 21.5437 8.66066 21.5437C8.81305 21.5437 8.8951 21.8255 9.02405 22.7624L9.07093 23.0976C9.08266 23.1738 9.07093 23.189 8.93613 23.2271C8.77202 23.2728 8.731 23.2804 8.731 23.2499C8.731 23.1738 8.56689 22.2064 8.49656 21.8636C8.46155 21.7126 8.43027 21.5602 8.40278 21.4065C8.40367 21.4059 8.40468 21.4055 8.40571 21.4055C8.40674 21.4055 8.40775 21.4059 8.40864 21.4065V21.3989ZM10.0849 21.5513H10.2549L10.1962 21.6274C10.0966 21.7798 10.0497 21.7874 9.97939 21.6884C9.95469 21.6552 9.93483 21.6165 9.92078 21.5741C9.92078 21.5589 9.99697 21.5437 10.0849 21.5437V21.5513ZM10.4424 21.5513H10.7589L10.6886 21.6427C10.6065 21.7646 10.6007 21.7646 10.5127 21.6427L10.4424 21.5437V21.5513ZM10.923 21.5513H10.9992C11.0402 21.5513 11.1164 21.5513 11.1633 21.5665L11.2512 21.5894L11.1692 21.6884C11.1223 21.7417 11.0813 21.7874 11.0754 21.7798L10.9933 21.6579L10.923 21.5437V21.5513ZM11.4212 21.5741L11.4915 21.597C11.5326 21.6122 11.6205 21.6198 11.6849 21.6274H11.8022L11.7142 21.7265C11.6824 21.7651 11.647 21.7983 11.6087 21.8255C11.6029 21.8255 11.5501 21.7646 11.5091 21.696L11.4212 21.5741V21.5741ZM9.65117 21.5817H9.6629C9.66876 21.597 9.64531 21.6579 9.60429 21.7112L9.54568 21.8179L9.45776 21.7265L9.36985 21.6274L9.51051 21.6046L9.65117 21.5817V21.5817ZM9.78598 21.597L9.87975 21.7036L9.97353 21.8179L9.7977 21.8331L9.62187 21.8407L9.70392 21.7265L9.78598 21.597ZM10.841 21.597C10.8585 21.597 10.8703 21.6046 10.8878 21.6198C10.9185 21.6573 10.9442 21.7011 10.964 21.7493C10.9875 21.8103 10.9816 21.8255 10.9054 21.8255L10.7589 21.7874L10.6886 21.7646L10.7648 21.6655C10.7999 21.6198 10.8234 21.5894 10.8468 21.5894L10.841 21.597ZM10.3545 21.597C10.3838 21.597 10.4131 21.6198 10.4483 21.696C10.4893 21.7798 10.4893 21.7798 10.331 21.7798H10.1728L10.2549 21.6808C10.2959 21.6274 10.331 21.6046 10.3545 21.6046V21.597ZM11.3509 21.6122L11.4212 21.7036C11.5032 21.8026 11.515 21.8636 11.4564 21.856L11.2923 21.8331L11.1633 21.8179L11.2571 21.7189L11.3509 21.6122V21.6122ZM9.28779 21.6655C9.29951 21.6655 9.3464 21.7036 9.38157 21.7569L9.4519 21.856L9.30537 21.8864L9.10024 21.9245C9.05921 21.9398 9.07093 21.9017 9.15885 21.8026C9.21746 21.7265 9.27607 21.6655 9.28779 21.6655ZM9.07093 21.6655H9.09438C9.14127 21.6808 9.14127 21.696 9.05921 21.8026L8.9713 21.9169L8.94199 21.8179C8.91855 21.7417 8.92441 21.7189 8.97716 21.6884C9.00719 21.6739 9.0389 21.6662 9.07093 21.6655V21.6655ZM11.767 21.8026C11.7787 21.8026 11.7787 21.8179 11.767 21.8484C11.7553 21.9093 11.7025 21.9245 11.7025 21.8636C11.7025 21.8484 11.7201 21.8255 11.7436 21.8103H11.7611L11.767 21.8026ZM10.5127 21.9245C10.964 21.9245 11.4212 21.9398 11.5326 21.955C11.7142 21.9855 11.7318 21.9931 11.7318 22.0845C11.7318 22.1911 11.7084 22.1987 11.4622 22.1454C11.3919 22.1226 11.093 22.0921 10.8058 22.0616C10.2484 22.0178 9.68906 22.0433 9.13541 22.1378C9.02405 22.153 8.99474 22.1378 8.99474 22.0921C8.99474 21.9931 9.59256 21.9245 10.5127 21.9245V21.9245ZM9.90906 22.1454H10.2256L10.1552 22.2445C10.0673 22.3663 10.0614 22.3663 9.97939 22.2445L9.90906 22.1454ZM10.3193 22.1454L10.4014 22.2521L10.4834 22.3739L10.3135 22.3816H10.1435L10.2314 22.2597L10.3135 22.1454H10.3193ZM10.4424 22.1454H10.7589L10.6886 22.2445C10.6065 22.3663 10.6007 22.3663 10.5127 22.2445L10.4424 22.1454ZM9.6922 22.1454C9.70392 22.1454 9.6922 22.1835 9.65117 22.2597C9.61015 22.3282 9.56912 22.3816 9.56326 22.3816C9.55154 22.3816 9.51051 22.3359 9.47534 22.2825L9.40501 22.1835H9.51051C9.56414 22.1839 9.61751 22.1736 9.66876 22.153C9.67649 22.151 9.68447 22.151 9.6922 22.153V22.1454ZM9.80942 22.1835L9.88561 22.2749L9.97353 22.3739L9.82114 22.3892L9.65117 22.4044L9.73323 22.2902L9.80942 22.1835V22.1835ZM10.8292 22.1835L10.9113 22.3054C11.0051 22.4349 10.9992 22.4425 10.7882 22.3892L10.6886 22.3663L10.7589 22.2749L10.8292 22.1835V22.1835ZM10.9465 22.1835H11.0871C11.2395 22.1835 11.2571 22.214 11.1692 22.3206C11.0988 22.3968 11.0988 22.3968 11.0168 22.2825L10.9465 22.1835V22.1835ZM9.15299 22.2216C9.22332 22.2216 9.21746 22.2292 9.12954 22.3435C9.06507 22.4273 9.05921 22.4273 9.03577 22.3663C9.01819 22.2902 9.07093 22.2292 9.15299 22.2216ZM11.4271 22.2368C11.4505 22.2368 11.4974 22.2368 11.5443 22.2521L11.6791 22.2825L11.6029 22.3739L11.5326 22.4654L11.4681 22.3587L11.4095 22.2368H11.4271V22.2368ZM9.3171 22.2749C9.33468 22.2749 9.35226 22.2902 9.38157 22.3282C9.44018 22.4044 9.44018 22.4044 9.39329 22.4349C9.34787 22.4543 9.30043 22.4646 9.25263 22.4654H9.15885L9.23504 22.3587C9.27607 22.3054 9.29365 22.2825 9.31124 22.2749H9.3171ZM11.3157 22.2978C11.3391 22.2978 11.3567 22.313 11.386 22.3739L11.4388 22.4654H11.3157C11.2336 22.4654 11.1985 22.4501 11.1985 22.4197C11.2102 22.3892 11.2395 22.3435 11.2747 22.3206L11.3157 22.2978V22.2978ZM11.6908 22.3968C11.7025 22.3968 11.7025 22.412 11.7025 22.4349C11.7025 22.5111 11.6498 22.5644 11.6263 22.5111C11.6205 22.4882 11.6322 22.4501 11.6556 22.4273L11.6908 22.3968V22.3968ZM10.1728 22.4882C10.6827 22.4882 11.2454 22.5339 11.5794 22.6101L11.6732 22.6329V22.9681C11.6732 23.2195 11.6615 23.3033 11.6322 23.3033L11.3391 23.2271C10.6614 23.0777 9.97097 23.0521 9.28779 23.1509L9.15299 23.1738L9.11782 22.8919C9.10326 22.7966 9.09541 22.6997 9.09438 22.6025C9.09438 22.6025 9.22918 22.5644 9.38743 22.5415C9.58084 22.5034 9.86803 22.4882 10.1728 22.4882V22.4882Z" fill="black"/>
<path d="M11.1988 20.5839C11.023 20.5839 10.8999 20.7439 10.8999 20.98C10.8999 21.3457 11.2164 21.5285 11.4039 21.2695C11.5915 21.0105 11.4626 20.5839 11.1988 20.5839V20.5839ZM11.1988 20.6753C11.2296 20.6753 11.2601 20.6832 11.2885 20.6985C11.317 20.7138 11.3428 20.7363 11.3646 20.7646C11.3864 20.7929 11.4036 20.8265 11.4154 20.8634C11.4272 20.9004 11.4333 20.94 11.4333 20.98C11.4333 21.2085 11.2398 21.3609 11.0816 21.2619C10.9233 21.1476 10.9351 20.7972 11.105 20.7058C11.1327 20.6888 11.1625 20.6785 11.193 20.6753H11.1988Z" fill="black"/>
<path d="M9.04202 15.0613C9.01755 15.0632 8.99446 15.0775 8.97716 15.1014C8.95986 15.1253 8.94956 15.1571 8.94824 15.1908C8.94824 15.2282 8.95905 15.2641 8.97828 15.2906C8.99752 15.317 9.02361 15.3319 9.05081 15.3319C9.07801 15.3319 9.1041 15.317 9.12334 15.2906C9.14257 15.2641 9.15338 15.2282 9.15338 15.1908C9.15271 15.172 9.14925 15.1536 9.14319 15.1367C9.13713 15.1198 9.12861 15.1048 9.11817 15.0927C9.10772 15.0805 9.09557 15.0715 9.08247 15.0661C9.06937 15.0607 9.0556 15.059 9.04202 15.0613V15.0613ZM9.04788 15.107C9.06653 15.107 9.08442 15.1158 9.09761 15.1315C9.1108 15.1472 9.11821 15.1685 9.11821 15.1908C9.11821 15.213 9.1108 15.2343 9.09761 15.25C9.08442 15.2657 9.06653 15.2746 9.04788 15.2746C9.02923 15.2746 9.01134 15.2657 8.99815 15.25C8.98496 15.2343 8.97755 15.213 8.97755 15.1908C8.97755 15.1798 8.97937 15.1689 8.9829 15.1587C8.98644 15.1485 8.99162 15.1393 8.99815 15.1315C9.00468 15.1237 9.01243 15.1176 9.02096 15.1134C9.0295 15.1091 9.03864 15.107 9.04788 15.107Z" fill="black"/>
</g>
<rect x="2" y="2" width="36" height="36" rx="18" stroke="white" stroke-width="4"/>
<defs>
<clipPath id="clip0_90_19571">
<rect x="4" y="4" width="32" height="32" rx="16" fill="white"/>
</clipPath>
</defs>
</svg>
