<svg width="32" height="32" viewBox="0 0 32 32" fill="none" xmlns="http://www.w3.org/2000/svg">
<path opacity="0.2" fill-rule="evenodd" clip-rule="evenodd" d="M21.2033 15.8979C23.3285 20.766 25.0831 24.7873 25.1025 24.8341C25.1301 24.9008 24.7883 24.9188 23.5217 24.9177L21.9056 24.9163L18.9139 17.8539C17.2684 13.9696 15.9016 10.7677 15.8765 10.7385C15.8515 10.7095 14.4717 13.8882 12.8104 17.8024L9.78966 24.9192H8.23699H6.68433L6.77692 24.6979C7.01424 24.1307 14.3967 7.23876 14.454 7.13173C14.5139 7.01993 14.6339 7.01156 15.9293 7.02844L17.3395 7.04682L21.2033 15.8979Z" fill="white"/>
<path fill-rule="evenodd" clip-rule="evenodd" d="M21.2032 15.8979C23.3284 20.766 25.083 24.7873 25.1024 24.8341C25.13 24.9008 24.7882 24.9188 23.5216 24.9177L21.9055 24.9163L18.9137 17.8539C17.2683 13.9696 15.9015 10.7677 15.8764 10.7385C15.8514 10.7095 14.4716 13.8882 12.8102 17.8024L9.78954 24.9192H8.23687H6.6842L6.7768 24.6979C7.01412 24.1307 14.3966 7.23876 14.4539 7.13173C14.5138 7.01993 14.6338 7.01156 15.9292 7.02844L17.3393 7.04682L21.2032 15.8979Z" stroke="white" stroke-width="2"/>
</svg>
