<svg width="24" height="24" viewBox="0 0 24 24" fill="none" xmlns="http://www.w3.org/2000/svg">
<g clip-path="url(#clip0_981_8805)">
<path opacity="0.2" d="M17.25 14.25L15.8803 20.4131C15.8432 20.5796 15.7504 20.7285 15.6173 20.8352C15.4842 20.9419 15.3187 21 15.1481 21H8.85187C8.68128 21 8.51577 20.9419 8.38266 20.8352C8.24955 20.7285 8.15679 20.5796 8.11969 20.4131L6.75 14.25H17.25Z" fill="white"/>
<path d="M13.5262 10.4737C11.175 6.55401 14.31 2.63526 20.9728 3.02714C21.3647 9.68995 17.4459 12.825 13.5262 10.4737Z" stroke="white" stroke-width="2" stroke-linecap="round" stroke-linejoin="round"/>
<path d="M9.18751 10.6874C10.8975 7.83645 8.61751 4.98645 3.77157 5.27145C3.4847 10.1155 6.3347 12.3955 9.18751 10.6874Z" stroke="white" stroke-width="2" stroke-linecap="round" stroke-linejoin="round"/>
<path d="M5.25 14.25H18.75" stroke="white" stroke-width="2" stroke-linecap="round" stroke-linejoin="round"/>
<path d="M17.25 14.25L15.8803 20.4131C15.8432 20.5796 15.7504 20.7285 15.6173 20.8352C15.4842 20.9419 15.3187 21 15.1481 21H8.85187C8.68128 21 8.51577 20.9419 8.38266 20.8352C8.24955 20.7285 8.15679 20.5796 8.11969 20.4131L6.75 14.25" stroke="white" stroke-width="2" stroke-linecap="round" stroke-linejoin="round"/>
<path d="M13.5262 10.4736L9.75 14.2499" stroke="white" stroke-width="2" stroke-linecap="round" stroke-linejoin="round"/>
<path d="M9.18561 10.6855L11.25 12.7499" stroke="white" stroke-width="2" stroke-linecap="round" stroke-linejoin="round"/>
</g>
<defs>
<clipPath id="clip0_981_8805">
<rect width="24" height="24" fill="white"/>
</clipPath>
</defs>
</svg>
