<svg width="32" height="34" viewBox="0 0 32 34" fill="none" xmlns="http://www.w3.org/2000/svg">
<path d="M25.9156 23.1209C29.2759 23.1209 32 20.3804 32 16.9999C32 13.6194 29.2759 10.8789 25.9156 10.8789C22.5552 10.8789 19.8311 13.6194 19.8311 16.9999C19.8311 20.3804 22.5552 23.1209 25.9156 23.1209Z" fill="white"/>
<path d="M6.0845 23.1209C9.44487 23.1209 12.169 20.3804 12.169 16.9999C12.169 13.6194 9.44487 10.8789 6.0845 10.8789C2.72412 10.8789 0 13.6194 0 16.9999C0 20.3804 2.72412 23.1209 6.0845 23.1209Z" fill="white"/>
<path d="M16.3118 5.30125C14.6317 2.37363 10.9104 1.37055 8.00026 3.06081C5.09009 4.75108 4.093 8.49461 5.77318 11.4222C7.45337 14.3498 11.1746 15.3529 14.0848 13.6627C16.9949 11.9724 17.992 8.22887 16.3118 5.30125Z" fill="white"/>
<path d="M26.2269 22.5781C24.5467 19.6505 20.8255 18.6474 17.9153 20.3377C15.0051 22.0279 14.008 25.7715 15.6882 28.6991C17.3684 31.6267 21.0896 32.6298 23.9998 30.9395C26.91 29.2492 27.9071 25.5057 26.2269 22.5781Z" fill="white"/>
<path d="M16.3113 28.6992C14.6312 31.6269 10.9099 32.6299 7.99977 30.9397C5.0896 29.2494 4.09251 25.5059 5.77269 22.5783C7.45288 19.6506 11.1741 18.6476 14.0843 20.3378C16.9944 22.0281 17.9915 25.7716 16.3113 28.6992Z" fill="white"/>
<path d="M26.2269 11.4219C24.5467 14.3495 20.8255 15.3526 17.9153 13.6623C15.0051 11.9721 14.008 8.22854 15.6882 5.30092C17.3684 2.3733 21.0896 1.37023 23.9998 3.06049C26.91 4.75075 27.9071 8.49428 26.2269 11.4219Z" fill="white"/>
<path d="M16.075 23.7281C19.8087 23.7281 22.8356 20.6832 22.8356 16.9271C22.8356 13.1709 19.8087 10.126 16.075 10.126C12.3413 10.126 9.31445 13.1709 9.31445 16.9271C9.31445 20.6832 12.3413 23.7281 16.075 23.7281Z" fill="white"/>
</svg>
