<svg width="1329" height="1121" viewBox="0 0 1329 1121" fill="none" xmlns="http://www.w3.org/2000/svg">
<g opacity="0.5">
<path opacity="0.010101" d="M442.658 539.655C425.069 557.87 421.208 585.339 433.096 607.697L628.185 974.604C640.072 996.961 665.004 1009.12 689.94 1004.72L1099.18 932.566C1124.11 928.169 1143.38 908.214 1146.91 883.139L1204.74 471.635C1208.26 446.56 1195.24 422.068 1172.48 410.968L798.989 228.803C776.231 217.703 748.913 222.52 731.323 240.734L442.658 539.655Z" stroke="url(#paint0_linear_1854_9340)" stroke-width="2.25"/>
<path opacity="0.020202" d="M437.247 545.048C419.978 563.567 416.598 591.1 428.874 613.247L629.892 975.892C642.168 998.038 667.308 1009.76 692.165 1004.93L1099.18 925.814C1124.03 920.982 1142.95 900.696 1146.04 875.563L1196.57 464.021C1199.65 438.888 1186.21 414.628 1163.26 403.926L787.474 228.695C764.525 217.994 737.295 223.286 720.026 241.805L437.247 545.048Z" stroke="url(#paint1_linear_1854_9340)" stroke-width="2.25"/>
<path opacity="0.030303" d="M431.961 550.439C415.017 569.256 412.118 596.845 424.779 618.773L631.637 977.062C644.298 998.991 669.639 1010.27 694.406 1005.01L1099.08 918.992C1123.85 913.727 1142.41 893.113 1145.06 867.93L1188.3 456.481C1190.95 431.298 1177.08 407.276 1153.95 396.977L775.999 228.703C752.867 218.404 725.735 224.171 708.791 242.988L431.961 550.439Z" stroke="url(#paint2_linear_1854_9340)" stroke-width="2.25"/>
<path opacity="0.040404" d="M426.796 555.825C410.184 574.935 407.766 602.569 420.808 624.274L633.415 978.112C646.457 999.817 671.991 1010.66 696.664 1004.96L1098.88 912.1C1123.56 906.404 1141.75 885.468 1143.96 860.243L1179.94 449.014C1182.15 423.79 1167.86 400.013 1144.55 390.119L764.567 228.825C741.258 218.931 714.229 225.171 697.617 244.281L426.796 555.825Z" stroke="url(#paint3_linear_1854_9340)" stroke-width="2.25"/>
<path opacity="0.050505" d="M421.754 561.205C405.478 580.603 403.543 608.274 416.961 629.748L635.226 979.045C648.645 1000.52 674.364 1010.91 698.933 1004.78L1098.58 905.141C1123.15 899.015 1140.98 877.765 1142.75 852.506L1171.48 441.625C1173.25 416.366 1158.55 392.842 1135.07 383.357L753.176 229.062C729.699 219.577 702.784 226.287 686.508 245.684L421.754 561.205Z" stroke="url(#paint4_linear_1854_9340)" stroke-width="2.25"/>
<path opacity="0.0606061" d="M416.833 566.579C400.898 586.257 399.446 613.959 413.237 635.195L637.066 979.861C650.857 1001.1 676.754 1011.04 701.212 1004.48L1098.18 898.118C1122.63 891.564 1140.09 870.007 1141.42 844.721L1162.92 434.316C1164.25 409.03 1149.14 385.766 1125.5 376.692L741.832 229.414C718.193 220.34 691.398 227.519 675.463 247.198L416.833 566.579Z" stroke="url(#paint5_linear_1854_9340)" stroke-width="2.25"/>
<path opacity="0.0707071" d="M412.035 571.942C396.446 591.895 395.478 619.618 409.637 640.61L638.935 980.558C653.095 1001.55 679.161 1011.04 703.501 1004.06L1097.67 891.032C1122.01 884.053 1139.09 862.194 1139.97 836.888L1154.28 427.087C1155.16 401.781 1139.65 378.785 1115.86 370.124L730.536 229.878C706.742 221.218 680.078 228.864 664.488 248.817L412.035 571.942Z" stroke="url(#paint6_linear_1854_9340)" stroke-width="2.25"/>
<path opacity="0.0808081" d="M407.356 577.291C392.117 597.513 391.633 625.249 406.157 645.991L640.827 981.133C655.351 1001.88 681.579 1010.91 705.794 1003.5L1097.05 883.884C1121.27 876.481 1137.96 854.327 1138.4 829.01L1145.54 419.937C1145.98 394.62 1130.07 371.898 1106.13 363.654L719.288 230.453C695.346 222.209 668.818 230.319 653.579 250.541L407.356 577.291Z" stroke="url(#paint7_linear_1854_9340)" stroke-width="2.25"/>
<path opacity="0.0909091" d="M402.8 582.626C387.917 603.112 387.917 630.851 402.8 651.336L642.746 981.591C657.629 1002.08 684.01 1010.65 708.092 1002.82L1096.33 876.678C1120.41 868.854 1136.72 846.412 1136.72 821.09V412.872C1136.72 387.55 1120.41 365.109 1096.33 357.285L708.092 231.138C684.01 223.314 657.629 231.885 642.746 252.371L402.8 582.626Z" stroke="url(#paint8_linear_1854_9340)" stroke-width="2.25"/>
<path opacity="0.10101" d="M398.363 587.945C383.839 608.687 384.323 636.423 399.562 656.646L644.683 981.931C659.922 1002.15 686.449 1010.26 710.391 1002.02L1095.5 869.415C1119.44 861.171 1135.35 838.449 1134.91 813.132L1127.8 405.891C1127.36 380.574 1110.67 358.421 1086.45 351.017L696.949 231.934C672.734 224.531 646.506 233.562 631.982 254.304L398.363 587.945Z" stroke="url(#paint9_linear_1854_9340)" stroke-width="2.25"/>
<path opacity="0.111111" d="M394.046 593.243C379.887 614.236 380.855 641.958 396.444 661.911L646.641 982.148C662.23 1002.1 688.895 1009.75 712.689 1001.09L1094.57 862.095C1118.36 853.435 1133.87 830.437 1132.99 805.132L1118.81 398.993C1117.92 373.688 1100.84 351.829 1076.5 344.85L685.861 232.835C661.52 225.855 635.454 235.342 621.295 256.335L394.046 593.243Z" stroke="url(#paint10_linear_1854_9340)" stroke-width="2.25"/>
<path opacity="0.121212" d="M389.848 598.524C376.057 619.76 377.509 647.461 393.444 667.139L648.615 982.249C664.55 1001.93 691.344 1009.11 714.984 1000.03L1093.52 854.725C1117.16 845.651 1132.27 822.386 1130.94 797.1L1109.72 392.186C1108.4 366.899 1090.94 345.342 1066.48 338.789L674.83 233.845C650.371 227.292 624.474 237.232 610.683 258.469L389.848 598.524Z" stroke="url(#paint11_linear_1854_9340)" stroke-width="2.25"/>
<path opacity="0.131313" d="M385.769 603.778C372.351 625.252 374.286 652.924 390.562 672.321L650.604 982.227C666.88 1001.62 693.795 1008.33 717.273 998.849L1092.37 847.301C1115.85 837.816 1130.55 814.291 1128.78 789.031L1100.56 385.463C1098.79 360.204 1080.96 338.955 1056.39 332.829L663.856 234.959C639.287 228.833 613.568 239.224 600.15 260.698L385.769 603.778Z" stroke="url(#paint12_linear_1854_9340)" stroke-width="2.25"/>
<path opacity="0.141414" d="M381.806 609.009C368.764 630.714 371.182 658.347 387.794 677.458L652.604 982.086C669.216 1001.2 696.245 1007.44 719.553 997.543L1091.1 839.829C1114.41 829.935 1128.7 806.158 1126.49 780.933L1091.31 378.832C1089.11 353.607 1070.91 332.672 1046.23 326.976L652.943 236.177C628.27 230.481 602.736 241.32 589.694 263.025L381.806 609.009Z" stroke="url(#paint13_linear_1854_9340)" stroke-width="2.25"/>
<path opacity="0.151515" d="M377.963 614.213C365.302 636.142 368.202 663.73 385.145 682.547L654.618 981.826C671.562 1000.64 698.694 1006.41 721.826 996.112L1089.73 832.311C1112.86 822.012 1126.73 797.988 1124.09 772.806L1081.99 372.291C1079.34 347.109 1060.78 326.495 1036.01 321.23L642.093 237.5C617.325 232.235 591.984 243.518 579.324 265.447L377.963 614.213Z" stroke="url(#paint14_linear_1854_9340)" stroke-width="2.25"/>
<path opacity="0.161616" d="M374.234 619.388C361.958 641.535 365.339 669.067 382.608 687.586L656.638 981.447C673.907 999.966 701.137 1005.26 724.086 994.557L1088.24 824.748C1111.19 814.046 1124.64 789.785 1121.56 764.652L1072.59 365.842C1069.5 340.71 1050.58 320.423 1025.73 315.592L631.306 238.923C606.45 234.092 581.309 245.815 569.033 267.961L374.234 619.388Z" stroke="url(#paint15_linear_1854_9340)" stroke-width="2.25"/>
<path opacity="0.171717" d="M370.62 624.531C358.733 646.888 362.593 674.357 380.183 692.572L658.664 980.946C676.253 999.161 703.571 1003.98 726.329 992.878L1086.65 817.14C1109.4 806.04 1122.43 781.547 1118.9 756.473L1063.11 359.485C1059.59 334.411 1040.32 314.457 1015.38 310.06L620.582 240.446C595.646 236.049 570.714 248.209 558.826 270.566L370.62 624.531Z" stroke="url(#paint16_linear_1854_9340)" stroke-width="2.25"/>
<path opacity="0.181818" d="M367.123 629.64C355.627 652.202 359.967 679.601 377.871 697.505L660.694 980.328C678.599 998.233 705.998 1002.57 728.559 991.077L1084.94 809.493C1107.5 797.997 1120.09 773.282 1116.13 748.272L1053.56 353.224C1049.6 328.215 1029.98 308.6 1004.98 304.639L609.928 242.069C584.918 238.108 560.202 250.702 548.706 273.263L367.123 629.64Z" stroke="url(#paint17_linear_1854_9340)" stroke-width="2.25"/>
<path opacity="0.191919" d="M363.739 634.715C352.639 657.474 357.456 684.792 375.67 702.381L662.727 979.589C680.942 997.178 708.411 1001.04 730.768 989.152L1083.11 801.806C1105.47 789.919 1117.63 764.987 1113.23 740.05L1043.94 347.057C1039.54 322.12 1019.59 302.851 994.513 299.327L599.341 243.789C574.266 240.265 549.774 253.288 538.674 276.046L363.739 634.715Z" stroke="url(#paint18_linear_1854_9340)" stroke-width="2.25"/>
<path opacity="0.20202" d="M360.468 639.755C349.767 662.704 355.06 689.934 373.578 707.203L664.759 978.733C683.278 996.003 710.811 999.383 732.957 987.107L1081.18 794.086C1103.32 781.81 1115.05 756.669 1110.22 731.813L1034.25 340.988C1029.42 316.132 1009.13 297.215 983.996 294.129L588.824 245.607C563.692 242.521 539.43 255.97 528.729 278.919L360.468 639.755Z" stroke="url(#paint19_linear_1854_9340)" stroke-width="2.25"/>
<path opacity="0.212121" d="M357.31 644.754C347.011 667.886 352.778 695.019 371.595 711.962L666.79 977.756C685.607 994.699 713.194 997.599 735.123 984.938L1079.13 786.327C1101.06 773.666 1112.34 748.325 1107.08 723.557L1024.49 335.014C1019.22 310.246 998.609 291.686 973.427 289.039L578.379 247.517C553.197 244.871 529.174 258.74 518.875 281.872L357.31 644.754Z" stroke="url(#paint20_linear_1854_9340)" stroke-width="2.25"/>
<path opacity="0.222222" d="M354.261 649.714C344.368 673.022 350.608 700.051 369.718 716.663L668.814 976.664C687.925 993.276 715.559 995.693 737.263 982.652L1076.96 778.538C1098.67 765.497 1109.51 739.963 1103.81 715.291L1014.66 329.141C1008.97 304.469 988.031 286.271 962.806 284.064L568.007 249.523C542.782 247.316 519.005 261.603 509.111 284.911L354.261 649.714Z" stroke="url(#paint21_linear_1854_9340)" stroke-width="2.25"/>
<path opacity="0.232323" d="M351.324 654.63C341.839 678.108 348.549 705.023 367.946 721.299L670.834 975.452C690.231 991.727 717.902 993.662 739.376 980.244L1074.69 770.719C1096.16 757.301 1106.55 731.581 1100.43 707.012L1004.77 323.366C998.646 298.797 977.397 280.967 952.137 279.201L557.709 251.62C532.45 249.853 508.926 264.553 499.44 288.03L351.324 654.63Z" stroke="url(#paint22_linear_1854_9340)" stroke-width="2.25"/>
<path opacity="0.242424" d="M348.497 659.501C339.423 683.14 346.602 709.934 366.28 725.87L672.844 974.121C692.523 990.056 720.225 991.507 741.461 977.716L1072.29 762.87C1093.53 749.079 1103.47 723.182 1096.92 698.723L994.82 317.69C988.266 293.232 966.709 275.775 941.423 274.45L547.489 253.805C522.203 252.48 498.938 267.587 489.864 291.227L348.497 659.501Z" stroke="url(#paint23_linear_1854_9340)" stroke-width="2.25"/>
<path opacity="0.252525" d="M345.778 664.327C337.118 688.121 344.763 714.786 364.717 730.375L674.845 972.673C694.798 988.262 722.52 989.23 743.513 975.071L1069.79 754.997C1090.78 740.837 1100.27 714.771 1093.29 690.43L984.808 312.117C977.828 287.777 955.97 270.7 930.664 269.816L537.346 256.081C512.04 255.197 489.043 270.709 480.383 294.503L345.778 664.327Z" stroke="url(#paint24_linear_1854_9340)" stroke-width="2.25"/>
<path opacity="0.262626" d="M343.165 669.104C334.921 693.046 343.031 719.574 363.254 734.813L676.831 971.11C697.054 986.349 724.789 986.833 745.531 972.309L1067.16 747.099C1087.91 732.575 1096.94 706.348 1089.53 682.133L974.737 306.647C967.334 282.432 945.18 265.739 919.862 265.297L527.281 258.444C501.964 258.002 479.24 273.913 470.997 297.855L343.165 669.104Z" stroke="url(#paint25_linear_1854_9340)" stroke-width="2.25"/>
<path opacity="0.272727" d="M340.659 673.831C332.834 697.913 341.406 724.295 361.891 739.178L678.804 969.429C699.29 984.312 727.029 984.312 747.514 969.429L1064.43 739.178C1084.91 724.295 1093.48 697.913 1085.66 673.831L964.61 301.278C956.785 277.196 934.343 260.892 909.022 260.892L517.296 260.892C491.975 260.892 469.534 277.196 461.709 301.278L340.659 673.831Z" stroke="url(#paint26_linear_1854_9340)" stroke-width="2.25"/>
<path opacity="0.282828" d="M338.259 678.507C330.855 702.722 339.887 728.95 360.628 743.473L680.761 967.633C701.503 982.157 729.238 981.672 749.461 966.433L1061.57 731.239C1081.8 716 1089.91 689.472 1081.66 665.531L954.429 296.013C946.185 272.071 923.462 256.161 898.145 256.603L507.395 263.424C482.078 263.866 459.924 280.56 452.52 304.775L338.259 678.507Z" stroke="url(#paint27_linear_1854_9340)" stroke-width="2.25"/>
<path opacity="0.292929" d="M335.962 683.128C328.982 707.468 338.47 733.534 359.462 747.694L682.698 965.719C703.69 979.878 731.413 978.911 751.366 963.322L1058.61 723.279C1078.56 707.689 1086.21 681.025 1077.55 657.231L944.194 290.851C935.533 267.057 912.537 251.546 887.231 252.429L497.575 266.037C472.269 266.921 450.411 283.998 443.431 308.339L335.962 683.128Z" stroke="url(#paint28_linear_1854_9340)" stroke-width="2.25"/>
<path opacity="0.30303" d="M333.767 687.696C327.213 712.155 337.154 738.052 358.39 751.842L684.614 963.694C705.85 977.485 733.551 976.033 753.23 960.098L1055.52 715.307C1075.2 699.372 1082.38 672.578 1073.3 648.938L933.908 285.797C924.833 262.158 901.57 247.05 876.283 248.376L487.839 268.732C462.553 270.057 440.995 287.515 434.442 311.974L333.767 687.696Z" stroke="url(#paint29_linear_1854_9340)" stroke-width="2.25"/>
<path opacity="0.313131" d="M331.674 692.205C325.549 716.774 335.94 742.494 357.414 755.912L686.508 961.552C707.982 974.97 735.653 973.035 755.05 956.759L1052.32 707.319C1071.72 691.043 1078.43 664.127 1068.94 640.65L923.574 280.846C914.088 257.369 890.564 242.67 865.305 244.436L478.19 271.505C452.93 273.272 431.681 291.103 425.555 315.672L331.674 692.205Z" stroke="url(#paint30_linear_1854_9340)" stroke-width="2.25"/>
<path opacity="0.323232" d="M329.682 696.657C323.986 721.33 334.825 746.864 356.529 759.905L688.376 959.299C710.081 972.341 737.715 969.923 756.825 953.31L1049.01 699.321C1068.12 682.709 1074.36 655.68 1064.46 632.372L913.194 276.003C903.3 252.695 879.522 238.409 854.297 240.616L468.627 274.357C443.402 276.564 422.466 294.763 416.77 319.435L329.682 696.657Z" stroke="url(#paint31_linear_1854_9340)" stroke-width="2.25"/>
<path opacity="0.333333" d="M327.788 701.047C322.524 725.815 333.807 751.157 355.736 763.818L690.219 956.932C712.148 969.592 739.735 966.692 758.552 949.75L1045.58 691.312C1064.39 674.369 1070.16 647.236 1059.86 624.104L902.768 271.267C892.469 248.135 868.447 234.266 843.264 236.912L459.151 277.284C433.969 279.931 413.355 298.492 408.09 323.259L327.788 701.047Z" stroke="url(#paint32_linear_1854_9340)" stroke-width="2.25"/>
<path opacity="0.343434" d="M325.992 705.377C321.161 730.233 332.884 755.373 355.03 767.65L692.031 954.452C714.178 966.728 741.711 963.348 760.23 946.079L1042.03 683.297C1060.55 666.028 1065.84 638.798 1055.14 615.849L892.3 266.638C881.598 243.689 857.337 230.242 832.205 233.327L449.765 280.285C424.632 283.37 404.345 302.289 399.513 327.145L325.992 705.377Z" stroke="url(#paint33_linear_1854_9340)" stroke-width="2.25"/>
<path opacity="0.353535" d="M324.294 709.642C319.897 734.579 332.057 759.511 354.414 771.399L693.815 951.861C716.173 963.749 743.642 959.888 761.856 942.299L1038.37 675.275C1056.58 657.686 1061.4 630.368 1050.3 607.609L881.791 262.117C870.691 239.358 846.199 226.336 821.124 229.86L440.469 283.357C415.394 286.881 395.441 306.15 391.043 331.087L324.294 709.642Z" stroke="url(#paint34_linear_1854_9340)" stroke-width="2.25"/>
<path opacity="0.363636" d="M322.689 713.843C318.728 738.853 331.321 763.569 353.883 775.064L695.565 949.16C718.126 960.656 745.524 956.316 763.429 938.411L1034.59 667.251C1052.49 649.346 1056.83 621.948 1045.34 599.387L871.242 257.704C859.747 235.143 835.031 222.55 810.022 226.511L431.264 286.5C406.254 290.461 386.639 310.076 382.678 335.085L322.689 713.843Z" stroke="url(#paint35_linear_1854_9340)" stroke-width="2.25"/>
<path opacity="0.373737" d="M321.179 717.977C317.655 743.051 330.678 767.544 353.436 778.644L697.282 946.348C720.04 957.448 747.358 952.632 764.948 934.417L1030.7 659.224C1048.29 641.01 1052.15 613.54 1040.26 591.183L860.659 253.399C848.771 231.042 823.839 218.883 798.902 223.28L422.151 289.711C397.215 294.108 377.946 314.062 374.422 339.137L321.179 717.977Z" stroke="url(#paint36_linear_1854_9340)" stroke-width="2.25"/>
<path opacity="0.383838" d="M319.762 722.044C316.677 747.176 330.125 771.437 353.074 782.139L698.963 943.43C721.912 954.131 749.142 948.838 766.411 930.319L1026.69 651.2C1043.96 632.681 1047.34 605.148 1035.07 583.002L850.041 249.206C837.765 227.06 812.624 215.338 787.768 220.169L413.134 292.99C388.278 297.822 369.359 318.109 366.273 343.242L319.762 722.044Z" stroke="url(#paint37_linear_1854_9340)" stroke-width="2.25"/>
<path opacity="0.393939" d="M318.434 726.04C315.788 751.222 329.657 775.245 352.789 785.545L700.604 940.402C723.736 950.7 750.869 944.933 767.812 926.116L1022.57 643.178C1039.51 624.36 1042.41 596.773 1029.75 574.844L839.388 245.122C826.727 223.193 801.386 211.911 776.618 217.175L404.207 296.334C379.44 301.598 360.879 322.212 358.232 347.395L318.434 726.04Z" stroke="url(#paint38_linear_1854_9340)" stroke-width="2.25"/>
<path opacity="0.40404" d="M317.197 729.968C314.991 755.193 329.277 778.97 352.586 788.864L702.206 937.268C725.514 947.162 752.544 940.923 769.156 921.812L1018.34 635.163C1034.95 616.053 1037.37 588.419 1024.32 566.714L828.706 241.15C815.664 219.445 790.13 208.607 765.458 214.303L395.379 299.743C370.706 305.439 352.507 326.374 350.3 351.599L317.197 729.968Z" stroke="url(#paint39_linear_1854_9340)" stroke-width="2.25"/>
<path opacity="0.414141" d="M316.048 733.819C314.282 759.079 328.981 782.603 352.459 792.089L703.767 934.026C727.244 943.511 754.159 936.8 770.435 917.403L1013.99 627.15C1030.26 607.753 1032.2 580.082 1018.78 558.608L817.994 237.284C804.576 215.811 778.857 205.42 754.288 211.546L386.644 303.209C362.075 309.335 344.245 330.584 342.479 355.844L316.048 733.819Z" stroke="url(#paint40_linear_1854_9340)" stroke-width="2.25"/>
<path opacity="0.424242" d="M314.985 737.598C313.66 762.885 328.768 786.149 352.407 795.223L705.284 930.68C728.923 939.754 755.718 932.575 771.653 912.896L1009.52 619.149C1025.46 599.471 1026.91 571.77 1013.12 550.533L807.256 233.531C793.465 212.295 767.569 202.355 743.11 208.909L378.009 306.737C353.55 313.291 336.093 334.848 334.767 360.135L314.985 737.598Z" stroke="url(#paint41_linear_1854_9340)" stroke-width="2.25"/>
<path opacity="0.434343" d="M314.007 741.303C313.124 766.609 328.636 789.605 352.429 798.266L706.756 927.23C730.55 935.89 757.214 928.244 772.803 908.291L1004.95 611.16C1020.54 591.206 1021.51 563.483 1007.35 542.491L796.494 229.889C782.335 208.897 756.268 199.411 731.927 206.39L369.47 310.323C345.13 317.302 328.051 339.161 327.167 364.467L314.007 741.303Z" stroke="url(#paint42_linear_1854_9340)" stroke-width="2.25"/>
<path opacity="0.444444" d="M313.113 744.929C312.672 770.247 328.582 792.969 352.524 801.213L708.179 923.675C732.121 931.919 758.649 923.809 773.888 903.587L1000.26 603.181C1015.5 582.958 1015.98 555.223 1001.46 534.481L785.709 226.357C771.185 205.616 744.957 196.585 720.743 203.988L361.03 313.964C336.815 321.367 320.12 343.521 319.678 368.838L313.113 744.929Z" stroke="url(#paint43_linear_1854_9340)" stroke-width="2.25"/>
<path opacity="0.454545" d="M312.303 748.478C312.303 773.799 328.607 796.241 352.689 804.065L709.557 920.018C733.639 927.843 760.02 919.271 774.904 898.786L995.46 595.216C1010.34 574.731 1010.34 546.992 995.461 526.506L774.904 222.936C760.021 202.451 733.639 193.88 709.557 201.704L352.689 317.657C328.607 325.482 312.303 347.924 312.303 373.245L312.303 748.478Z" stroke="url(#paint44_linear_1854_9340)" stroke-width="2.25"/>
<path opacity="0.464646" d="M311.57 751.949C312.012 777.266 328.706 799.42 352.921 806.823L710.882 916.262C735.097 923.665 761.324 914.634 775.848 893.892L990.547 587.27C1005.07 566.528 1004.59 538.793 989.348 518.571L764.079 219.628C748.84 199.406 722.313 191.296 698.371 199.54L344.448 321.405C320.506 329.649 304.596 352.372 305.038 377.689L311.57 751.949Z" stroke="url(#paint45_linear_1854_9340)" stroke-width="2.25"/>
<path opacity="0.474747" d="M310.918 755.339C311.802 780.645 328.88 802.504 353.22 809.484L712.155 912.406C736.496 919.386 762.563 909.898 776.722 888.906L985.524 579.343C999.684 558.351 998.716 530.629 983.126 510.675L753.238 216.432C737.649 196.478 710.984 188.833 687.19 197.493L336.309 325.202C312.515 333.863 297.003 356.861 297.887 382.167L310.918 755.339Z" stroke="url(#paint46_linear_1854_9340)" stroke-width="2.25"/>
<path opacity="0.484848" d="M310.342 758.647C311.668 783.934 329.125 805.492 353.583 812.045L713.376 908.45C737.834 915.004 763.73 905.063 777.521 883.827L980.391 571.436C994.182 550.2 992.73 522.499 976.794 502.82L742.382 213.345C726.447 193.667 699.653 186.488 676.014 195.563L328.27 329.048C304.631 338.122 289.523 361.386 290.848 386.673L310.342 758.647Z" stroke="url(#paint47_linear_1854_9340)" stroke-width="2.25"/>
<path opacity="0.494949" d="M309.843 761.874C311.609 787.134 329.44 808.384 354.009 814.51L714.54 904.4C739.109 910.525 764.829 900.134 778.247 878.66L975.147 563.553C988.565 542.079 986.631 514.407 970.355 495.01L731.515 210.372C715.239 190.975 688.324 184.265 664.846 193.751L320.334 332.942C296.857 342.428 282.158 365.952 283.924 391.211L309.843 761.874Z" stroke="url(#paint48_linear_1854_9340)" stroke-width="2.25"/>
<path opacity="0.50505" d="M309.417 765.015C311.624 790.239 329.823 811.175 354.495 816.871L715.647 900.249C740.32 905.945 765.853 895.106 778.895 873.402L969.795 555.692C982.836 533.987 980.418 506.353 963.806 487.243L720.637 207.509C704.025 188.399 676.997 182.159 653.688 192.053L312.501 336.878C289.193 346.771 274.907 370.548 277.113 395.773L309.417 765.015Z" stroke="url(#paint49_linear_1854_9340)" stroke-width="2.25"/>
<path opacity="0.515152" d="M309.063 768.071C311.71 793.253 330.272 813.867 355.039 819.132L716.695 896.004C741.463 901.269 766.804 889.986 779.465 868.057L964.333 547.857C976.993 525.928 974.094 498.341 957.15 479.524L709.749 204.757C692.806 185.94 665.673 180.173 642.541 190.471L304.771 340.856C281.639 351.155 267.769 375.178 270.416 400.361L309.063 768.071Z" stroke="url(#paint50_linear_1854_9340)" stroke-width="2.25"/>
<path opacity="0.525253" d="M308.781 771.042C311.867 796.174 330.785 816.461 355.641 821.293L717.684 891.666C742.54 896.498 767.68 884.775 779.956 862.629L958.764 540.053C971.04 517.906 967.659 490.373 950.39 471.855L698.856 202.117C681.587 183.599 654.357 178.306 631.409 189.007L297.145 344.877C274.196 355.578 260.748 379.839 263.834 404.971L308.781 771.042Z" stroke="url(#paint51_linear_1854_9340)" stroke-width="2.25"/>
<path opacity="0.535354" d="M308.568 773.924C312.092 798.999 331.361 818.953 356.298 823.35L718.612 887.235C743.548 891.632 768.48 879.472 780.368 857.114L953.087 532.276C964.975 509.919 961.114 482.45 943.525 464.235L687.958 199.587C670.368 181.373 643.051 176.557 620.292 187.657L289.624 348.934C266.865 360.034 253.842 384.527 257.366 409.601L308.568 773.924Z" stroke="url(#paint52_linear_1854_9340)" stroke-width="2.25"/>
<path opacity="0.545455" d="M308.421 776.719C312.383 801.729 331.997 821.343 357.007 825.305L719.475 882.714C744.485 886.674 769.2 874.081 780.696 851.52L947.304 524.533C958.8 501.971 954.461 474.573 936.556 456.668L677.057 197.169C659.152 179.265 631.754 174.926 609.193 186.422L282.206 353.03C259.644 364.525 247.051 389.241 251.012 414.25L308.421 776.719Z" stroke="url(#paint53_linear_1854_9340)" stroke-width="2.25"/>
<path opacity="0.555556" d="M308.341 779.426C312.738 804.362 332.692 823.632 357.767 827.156L720.275 878.103C745.35 881.627 769.842 868.604 780.942 845.845L941.417 516.823C952.517 494.065 947.7 466.747 929.485 449.157L666.156 194.863C647.942 177.274 620.473 173.414 598.116 185.301L274.895 357.16C252.537 369.048 240.377 393.98 244.774 418.917L308.341 779.426Z" stroke="url(#paint54_linear_1854_9340)" stroke-width="2.25"/>
<path opacity="0.565657" d="M308.325 782.04C313.157 806.895 333.444 825.814 358.576 828.9L721.008 873.4C746.141 876.486 770.402 863.038 781.103 840.089L935.425 509.147C946.126 486.198 940.833 458.969 922.314 441.699L655.257 192.665C636.738 175.396 609.206 172.016 587.06 184.292L267.688 361.322C245.542 373.598 233.819 398.738 238.651 423.594L308.325 782.04Z" stroke="url(#paint55_linear_1854_9340)" stroke-width="2.25"/>
<path opacity="0.575758" d="M308.37 784.565C313.634 809.333 334.249 827.895 359.432 830.541L721.674 868.614C746.856 871.261 770.879 857.391 781.179 834.258L929.327 501.511C939.626 478.379 933.859 451.246 915.042 434.303L644.36 190.58C625.543 173.637 597.956 170.738 576.027 183.398L260.588 365.517C238.659 378.177 227.376 403.519 232.641 428.287L308.37 784.565Z" stroke="url(#paint56_linear_1854_9340)" stroke-width="2.25"/>
<path opacity="0.585859" d="M308.475 786.996C314.171 811.668 335.106 829.866 360.331 832.074L722.271 863.739C747.496 865.946 771.273 851.659 781.166 828.351L923.127 493.912C933.021 470.603 926.781 443.575 907.671 426.963L633.469 188.602C614.358 171.99 586.725 169.573 565.021 182.614L253.593 369.739C231.889 382.78 221.051 408.314 226.747 432.986L308.475 786.996Z" stroke="url(#paint57_linear_1854_9340)" stroke-width="2.25"/>
<path opacity="0.59596" d="M308.639 789.336C314.765 813.905 336.015 831.735 361.274 833.502L722.797 858.782C748.056 860.548 771.581 845.848 781.066 822.371L916.825 486.355C926.311 462.878 919.6 435.962 900.203 419.686L622.584 186.736C603.187 170.46 575.516 168.526 554.042 181.944L246.706 373.989C225.232 387.407 214.84 413.127 220.966 437.696L308.639 789.336Z" stroke="url(#paint58_linear_1854_9340)" stroke-width="2.25"/>
<path opacity="0.606061" d="M308.861 791.581C315.414 816.039 336.972 833.496 362.258 834.822L723.252 853.74C748.539 855.065 771.803 839.958 780.877 816.319L910.422 478.839C919.497 455.2 912.318 428.406 892.64 412.471L611.71 184.978C592.031 169.043 564.33 167.592 543.094 181.383L239.925 378.264C218.688 392.055 208.748 417.951 215.301 442.409L308.861 791.581Z" stroke="url(#paint59_linear_1854_9340)" stroke-width="2.25"/>
<path opacity="0.616162" d="M309.137 793.733C316.116 818.073 337.975 835.151 363.281 836.035L723.634 848.618C748.939 849.502 771.937 833.99 780.598 810.196L903.92 471.368C912.58 447.574 904.935 420.91 884.982 405.32L600.846 183.329C580.893 167.74 553.171 166.773 532.178 180.932L233.25 382.561C212.257 396.72 202.77 422.788 209.75 447.128L309.137 793.733Z" stroke="url(#paint60_linear_1854_9340)" stroke-width="2.25"/>
<path opacity="0.626263" d="M309.467 795.788C316.87 820.002 339.024 836.696 364.341 837.138L723.943 843.414C749.26 843.856 771.983 827.946 780.226 804.004L897.319 463.942C905.563 440.001 897.453 413.473 877.23 398.235L589.996 181.788C569.774 166.549 542.039 166.066 521.297 180.589L226.683 386.879C205.941 401.403 196.911 427.631 204.314 451.846L309.467 795.788Z" stroke="url(#paint61_linear_1854_9340)" stroke-width="2.25"/>
<path opacity="0.636364" d="M309.847 797.746C317.672 821.827 340.113 838.132 365.434 838.132L724.174 838.132C749.496 838.132 771.937 821.827 779.762 797.745L890.619 456.563C898.443 432.481 889.871 406.1 869.386 391.216L579.159 180.354C558.674 165.471 530.935 165.471 510.45 180.354L220.222 391.216C199.737 406.099 191.166 432.482 198.99 456.564L309.847 797.746Z" stroke="url(#paint62_linear_1854_9340)" stroke-width="2.25"/>
<path opacity="0.646465" d="M310.278 799.609C318.522 823.551 341.244 839.462 366.561 839.02L724.331 832.774C749.648 832.332 771.802 815.638 779.205 791.424L883.823 449.235C891.226 425.021 882.194 398.792 861.453 384.269L568.34 179.029C547.598 164.506 519.864 164.99 499.641 180.229L213.87 395.572C193.648 410.811 185.538 437.338 193.781 461.279L310.278 799.609Z" stroke="url(#paint63_linear_1854_9340)" stroke-width="2.25"/>
<path opacity="0.656566" d="M310.754 801.374C319.415 825.168 342.412 840.68 367.718 839.796L724.408 827.34C749.714 826.456 771.573 809.378 778.553 785.038L876.929 441.956C883.908 417.616 874.421 391.55 853.429 377.39L557.539 177.81C536.547 163.651 508.825 164.619 488.871 180.208L207.624 399.941C187.671 415.531 180.025 442.196 188.685 465.99L310.754 801.374Z" stroke="url(#paint64_linear_1854_9340)" stroke-width="2.25"/>
<path opacity="0.666667" d="M311.278 803.043C320.352 826.682 343.617 841.79 368.903 840.465L724.407 821.833C749.693 820.508 771.25 803.052 777.804 778.593L869.942 434.732C876.495 410.274 866.554 384.377 845.318 370.586L546.758 176.699C525.522 162.908 497.821 164.36 478.143 180.296L201.486 404.328C181.808 420.263 174.628 447.057 183.703 470.696L311.278 803.043Z" stroke="url(#paint65_linear_1854_9340)" stroke-width="2.25"/>
<path opacity="0.676768" d="M311.846 804.612C321.331 828.089 344.856 842.789 370.115 841.023L724.325 816.254C749.585 814.487 770.835 796.656 776.96 772.087L862.861 427.56C868.987 402.991 858.595 377.271 837.122 363.853L536.001 175.692C514.527 162.274 486.856 164.209 467.459 180.485L195.455 408.722C176.058 424.999 169.347 451.914 178.833 475.392L311.846 804.612Z" stroke="url(#paint66_linear_1854_9340)" stroke-width="2.25"/>
<path opacity="0.686869" d="M312.457 806.082C322.351 829.39 346.128 843.677 371.353 841.47L724.164 810.603C749.389 808.396 770.324 790.198 776.02 765.526L855.689 420.444C861.385 395.772 850.546 370.237 828.841 357.196L525.268 174.79C503.563 161.749 475.93 164.167 456.82 180.779L189.533 413.128C170.423 429.74 164.183 456.768 174.076 480.077L312.457 806.082Z" stroke="url(#paint67_linear_1854_9340)" stroke-width="2.25"/>
<path opacity="0.69697" d="M313.107 807.453C323.406 830.585 347.429 844.455 372.612 841.808L723.919 804.884C749.102 802.237 769.716 783.676 774.981 758.908L848.424 413.385C853.688 388.617 842.405 363.275 820.477 350.615L514.56 173.994C492.631 161.333 465.044 164.233 446.227 181.176L183.716 417.541C164.899 434.484 159.131 461.618 169.43 484.75L313.107 807.453Z" stroke="url(#paint68_linear_1854_9340)" stroke-width="2.25"/>
<path opacity="0.707071" d="M313.796 808.722C324.497 831.67 348.759 845.119 373.891 842.033L723.591 799.094C748.723 796.009 769.011 777.091 773.842 752.235L841.069 406.382C845.901 381.526 834.177 356.386 812.031 344.11L503.879 173.298C481.733 161.023 454.201 164.403 435.682 181.672L178.007 421.958C159.488 439.227 154.195 466.456 164.896 489.405L313.796 808.722Z" stroke="url(#paint69_linear_1854_9340)" stroke-width="2.25"/>
<path opacity="0.717172" d="M314.522 809.893C325.622 832.652 350.114 845.675 375.189 842.151L723.179 793.243C748.254 789.719 768.209 770.45 772.606 745.513L833.627 399.443C838.024 374.506 825.864 349.573 803.506 337.685L493.23 172.708C470.872 160.821 443.403 164.683 425.188 182.272L172.406 426.381C154.191 443.971 149.374 471.289 160.474 494.048L314.522 809.893Z" stroke="url(#paint70_linear_1854_9340)" stroke-width="2.25"/>
<path opacity="0.727273" d="M315.281 810.961C326.777 833.522 351.493 846.116 376.502 842.155L722.681 787.325C747.69 783.364 767.304 763.749 771.266 738.74L826.095 392.561C830.056 367.552 817.463 342.836 794.902 331.34L482.609 172.219C460.048 160.724 432.651 165.063 414.746 182.968L166.909 430.805C149.004 448.71 144.665 476.107 156.161 498.668L315.281 810.961Z" stroke="url(#paint71_linear_1854_9340)" stroke-width="2.25"/>
<path opacity="0.737374" d="M316.075 811.929C327.963 834.286 352.895 846.446 377.831 842.049L722.098 781.346C747.035 776.949 766.304 756.994 769.828 731.919L818.48 385.744C822.004 360.669 808.981 336.177 786.222 325.077L472.025 171.832C449.266 160.732 421.949 165.55 404.359 183.764L161.522 435.229C143.932 453.443 140.072 480.913 151.959 503.27L316.075 811.929Z" stroke="url(#paint72_linear_1854_9340)" stroke-width="2.25"/>
<path opacity="0.747475" d="M316.898 812.793C329.174 834.939 354.315 846.662 379.171 841.831L721.427 775.303C746.282 770.471 765.2 750.184 768.286 725.052L810.778 378.989C813.863 353.857 800.415 329.595 777.466 318.894L461.472 171.543C438.523 160.842 411.294 166.136 394.025 184.654L156.238 439.649C138.969 458.168 135.589 485.7 147.865 507.846L316.898 812.793Z" stroke="url(#paint73_linear_1854_9340)" stroke-width="2.25"/>
<path opacity="0.757576" d="M317.751 813.558C330.412 835.487 355.753 846.769 380.521 841.505L720.666 769.205C745.435 763.94 763.997 743.326 766.643 718.143L802.993 372.303C805.639 347.121 791.769 323.098 768.637 312.799L450.956 171.358C427.824 161.059 400.692 166.827 383.748 185.644L151.062 444.068C134.119 462.886 131.219 490.473 143.879 512.402L317.751 813.558Z" stroke="url(#paint74_linear_1854_9340)" stroke-width="2.25"/>
<path opacity="0.767677" d="M318.632 814.219C331.674 835.923 357.208 846.762 381.88 841.066L719.82 763.046C744.492 757.35 762.691 736.415 764.898 711.19L795.126 365.682C797.333 340.457 783.046 316.679 759.738 306.786L440.48 171.269C417.171 161.375 390.144 167.615 373.531 186.725L145.991 448.48C129.379 467.59 126.962 495.224 140.003 516.928L318.632 814.219Z" stroke="url(#paint75_linear_1854_9340)" stroke-width="2.25"/>
<path opacity="0.777778" d="M319.538 814.777C332.956 836.251 358.676 846.642 383.245 840.516L718.882 756.832C743.451 750.707 761.281 729.457 763.048 704.197L787.177 359.128C788.943 333.868 774.244 310.344 750.767 300.859L430.042 171.277C406.564 161.792 379.65 168.503 363.373 187.9L141.025 452.883C124.749 472.281 122.814 499.953 136.232 521.427L319.538 814.777Z" stroke="url(#paint76_linear_1854_9340)" stroke-width="2.25"/>
<path opacity="0.787879" d="M320.467 815.233C334.258 836.469 360.155 846.41 384.614 839.856L717.854 750.564C742.313 744.01 759.769 722.453 761.094 697.166L779.151 352.643C780.476 327.356 765.368 304.092 741.728 295.018L419.646 171.382C396.007 162.308 369.214 169.488 353.278 189.166L136.164 457.278C120.229 476.957 118.778 504.658 132.569 525.894L320.467 815.233Z" stroke="url(#paint77_linear_1854_9340)" stroke-width="2.25"/>
<path opacity="0.79798" d="M321.418 815.587C335.578 836.579 361.644 846.067 385.985 839.087L716.735 744.246C741.075 737.266 758.154 715.407 759.037 690.101L771.046 346.231C771.929 320.925 756.417 297.928 732.623 289.268L409.294 171.585C385.5 162.925 358.835 170.571 343.246 190.525L131.409 461.663C115.82 481.616 114.851 509.339 129.011 530.331L321.418 815.587Z" stroke="url(#paint78_linear_1854_9340)" stroke-width="2.25"/>
<path opacity="0.808081" d="M322.387 815.835C336.911 836.577 363.14 845.608 387.355 838.205L715.523 737.873C739.738 730.47 756.432 708.317 756.874 682.999L762.863 339.888C763.305 314.57 747.394 291.848 723.453 283.604L398.985 171.88C375.043 163.637 348.517 171.747 333.278 191.97L126.756 466.032C111.518 486.255 111.034 513.989 125.557 534.731L322.387 815.835Z" stroke="url(#paint79_linear_1854_9340)" stroke-width="2.25"/>
<path opacity="0.818182" d="M323.375 815.983C338.259 836.468 364.64 845.04 388.722 837.216L714.219 731.455C738.301 723.631 754.606 701.189 754.606 675.868L754.606 333.62C754.606 308.299 738.301 285.858 714.219 278.033L388.722 172.273C364.641 164.448 338.259 173.02 323.376 193.505L122.208 470.389C107.324 490.874 107.324 518.614 122.207 539.099L323.375 815.983Z" stroke="url(#paint80_linear_1854_9340)" stroke-width="2.25"/>
<path opacity="0.828283" d="M324.38 816.026C339.618 836.249 366.146 844.359 390.087 836.115L712.822 724.988C736.764 716.744 752.674 694.022 752.232 668.705L746.276 327.426C745.834 302.108 729.14 279.955 704.925 272.551L378.508 172.756C354.293 165.353 328.066 174.384 313.542 195.126L117.762 474.728C103.239 495.469 103.723 523.204 118.962 543.427L324.38 816.026Z" stroke="url(#paint81_linear_1854_9340)" stroke-width="2.25"/>
<path opacity="0.838384" d="M325.399 815.968C340.989 835.922 367.653 843.568 391.447 834.907L711.333 718.479C735.127 709.818 750.639 686.821 749.755 661.515L737.875 321.308C736.991 296.003 719.913 274.143 695.573 267.163L368.345 173.332C344.005 166.353 317.939 175.841 303.779 196.832L113.421 479.049C99.2618 500.042 100.23 527.764 115.819 547.718L325.399 815.968Z" stroke="url(#paint82_linear_1854_9340)" stroke-width="2.25"/>
<path opacity="0.848485" d="M326.428 815.805C342.364 835.484 369.158 842.663 392.797 833.589L709.746 711.923C733.386 702.849 748.493 679.585 747.168 654.298L729.4 315.264C728.075 289.978 710.618 268.421 686.16 261.867L358.229 173.998C333.771 167.445 307.875 177.386 294.084 198.622L109.179 483.35C95.3883 504.586 96.84 532.287 112.775 551.965L326.428 815.805Z" stroke="url(#paint83_linear_1854_9340)" stroke-width="2.25"/>
<path opacity="0.858586" d="M327.47 815.54C343.747 834.937 370.662 841.648 394.139 832.163L708.068 705.328C731.545 695.842 746.245 672.317 744.478 647.058L720.86 309.3C719.093 284.041 701.263 262.791 676.693 256.665L348.169 174.755C323.6 168.629 297.881 179.021 284.463 200.494L105.041 487.628C91.6228 509.102 93.5575 536.774 109.834 556.171L327.47 815.54Z" stroke="url(#paint84_linear_1854_9340)" stroke-width="2.25"/>
<path opacity="0.868687" d="M328.519 815.171C345.131 834.281 372.159 840.521 395.468 830.627L706.29 698.69C729.599 688.796 743.886 665.019 741.679 639.795L712.25 303.413C710.043 278.188 691.844 257.253 667.171 251.557L338.16 175.599C313.488 169.903 287.954 180.742 274.913 202.446L101.001 491.882C87.9602 513.587 90.3777 541.22 106.99 560.33L328.519 815.171Z" stroke="url(#paint85_linear_1854_9340)" stroke-width="2.25"/>
<path opacity="0.878788" d="M329.575 814.698C346.519 833.515 373.652 839.283 396.784 828.984L704.419 692.015C727.552 681.716 741.421 657.693 738.774 632.51L703.575 297.606C700.928 272.423 682.367 251.809 657.599 246.544L328.208 176.53C303.44 171.265 278.099 182.548 265.439 204.477L97.0637 496.11C84.403 518.039 87.3023 545.627 104.246 564.444L329.575 814.698Z" stroke="url(#paint86_linear_1854_9340)" stroke-width="2.25"/>
<path opacity="0.888889" d="M330.635 814.123C347.904 832.642 375.134 837.935 398.083 827.234L702.451 685.304C725.4 674.602 738.848 650.341 735.762 625.209L694.834 291.879C691.748 266.746 672.831 246.458 647.975 241.627L318.311 177.546C293.455 172.715 268.315 184.439 256.039 206.586L93.224 500.312C80.9481 522.459 84.3286 549.991 101.598 568.509L330.635 814.123Z" stroke="url(#paint87_linear_1854_9340)" stroke-width="2.25"/>
<path opacity="0.89899" d="M331.698 813.445C349.287 831.66 376.605 836.477 399.364 825.377L700.386 678.559C723.144 667.459 736.167 642.966 732.643 617.891L686.031 286.234C682.507 261.159 663.238 241.204 638.301 236.807L308.472 178.649C283.536 174.252 258.604 186.413 246.717 208.771L89.4828 504.484C77.5951 526.842 81.4555 554.312 99.0451 572.526L331.698 813.445Z" stroke="url(#paint88_linear_1854_9340)" stroke-width="2.25"/>
<path opacity="0.909091" d="M332.762 812.663C350.667 830.568 378.065 834.907 400.626 823.412L698.224 671.778C720.785 660.283 733.378 635.567 729.417 610.558L677.168 280.669C673.207 255.66 653.592 236.044 628.583 232.083L298.694 179.834C273.684 175.873 248.969 188.467 237.473 211.028L85.8401 508.625C74.3446 531.186 78.6838 558.584 96.5886 576.489L332.762 812.663Z" stroke="url(#paint89_linear_1854_9340)" stroke-width="2.25"/>
<path opacity="0.919192" d="M333.827 811.782C352.042 829.372 379.511 833.232 401.869 821.345L695.964 664.971C718.322 653.084 730.483 628.151 726.086 603.215L668.246 275.19C663.849 250.254 643.895 230.985 618.82 227.46L288.977 181.104C263.902 177.58 239.41 190.603 228.31 213.361L82.2955 512.736C71.1954 535.494 76.012 562.813 94.2267 580.403L333.827 811.782Z" stroke="url(#paint90_linear_1854_9340)" stroke-width="2.25"/>
<path opacity="0.929293" d="M334.889 810.797C353.407 828.066 380.94 831.446 403.086 819.171L693.607 658.132C715.754 645.856 727.476 620.716 722.645 595.86L659.264 269.794C654.433 244.938 634.146 226.02 609.014 222.934L279.321 182.453C254.188 179.367 229.928 192.815 219.226 215.764L78.8461 516.811C68.1449 539.76 73.4376 566.989 91.9565 584.258L334.889 810.797Z" stroke="url(#paint91_linear_1854_9340)" stroke-width="2.25"/>
<path opacity="0.939394" d="M335.945 809.71C354.763 826.653 382.35 829.553 404.279 816.892L691.151 651.266C713.08 638.606 724.363 613.264 719.098 588.496L650.227 264.483C644.963 239.715 624.348 221.154 599.165 218.507L269.728 183.882C244.546 181.235 220.523 195.105 210.224 218.237L75.491 520.85C65.1919 543.982 70.96 571.116 89.7774 588.059L335.945 809.71Z" stroke="url(#paint92_linear_1854_9340)" stroke-width="2.25"/>
<path opacity="0.949495" d="M336.996 808.521C356.106 825.133 383.74 827.55 405.444 814.509L688.597 644.373C710.301 631.332 721.14 605.798 715.444 581.126L641.135 259.256C635.439 234.584 614.503 216.385 589.278 214.178L260.199 185.388C234.975 183.181 211.198 197.468 201.304 220.776L72.231 524.852C62.3374 548.16 68.5781 575.188 87.6882 591.8L336.996 808.521Z" stroke="url(#paint93_linear_1854_9340)" stroke-width="2.25"/>
<path opacity="0.959596" d="M338.039 807.233C357.436 823.509 385.108 825.445 406.582 812.026L685.945 637.461C707.419 624.042 717.81 598.322 711.684 573.753L631.991 254.12C625.865 229.55 604.615 211.719 579.356 209.953L250.738 186.973C225.479 185.207 201.955 199.908 192.469 223.385L69.0659 528.817C59.5804 552.295 66.2919 579.21 85.6892 595.487L338.039 807.233Z" stroke="url(#paint94_linear_1854_9340)" stroke-width="2.25"/>
<path opacity="0.969697" d="M339.071 805.843C358.749 821.778 386.451 823.23 407.688 809.439L683.193 630.523C704.429 616.732 714.37 590.835 707.817 566.377L622.793 249.066C616.24 224.608 594.682 207.151 569.395 205.826L241.343 188.633C216.056 187.308 192.793 202.416 183.718 226.055L65.9926 532.74C56.9185 556.379 64.0979 583.173 83.7759 599.108L339.071 805.843Z" stroke="url(#paint95_linear_1854_9340)" stroke-width="2.25"/>
<path opacity="0.979798" d="M340.092 804.354C360.045 819.944 387.768 820.911 408.76 806.752L680.342 623.568C701.334 609.408 710.821 583.342 703.842 559.001L613.547 244.104C606.567 219.764 584.708 202.686 559.402 201.802L232.015 190.37C206.709 189.486 183.713 204.998 175.053 228.792L63.0107 536.623C54.3503 560.417 61.9962 587.082 81.9496 602.672L340.092 804.354Z" stroke="url(#paint96_linear_1854_9340)" stroke-width="2.25"/>
<path opacity="0.989899" d="M341.101 802.763C361.323 818.001 389.058 818.486 409.8 803.962L677.393 616.591C698.135 602.067 707.166 575.84 699.763 551.625L604.254 239.228C596.851 215.013 574.697 198.319 549.38 197.877L222.758 192.176C197.441 191.734 174.719 207.645 166.475 231.586L60.121 540.46C51.8774 564.401 59.9875 590.928 80.2097 606.167L341.101 802.763Z" stroke="url(#paint97_linear_1854_9340)" stroke-width="2.25"/>
<path d="M342.094 801.074C362.579 815.958 390.319 815.957 410.804 801.074L674.345 609.601C694.831 594.717 703.402 568.335 695.578 544.253L594.914 234.442C587.089 210.36 564.648 194.056 539.327 194.056L213.572 194.056C188.251 194.056 165.809 210.36 157.985 234.442L57.3207 544.253C49.496 568.335 58.0678 594.717 78.5532 609.601L342.094 801.074Z" stroke="url(#paint98_linear_1854_9340)" stroke-width="2.25"/>
</g>
<defs>
<linearGradient id="paint0_linear_1854_9340" x1="870.31" y1="382.779" x2="799.602" y2="885.895" gradientUnits="userSpaceOnUse">
<stop stop-color="#007AFF"/>
<stop offset="1" stop-color="white"/>
</linearGradient>
<linearGradient id="paint1_linear_1854_9340" x1="861.265" y1="381.089" x2="799.461" y2="884.442" gradientUnits="userSpaceOnUse">
<stop stop-color="#007AFF"/>
<stop offset="1" stop-color="white"/>
</linearGradient>
<linearGradient id="paint2_linear_1854_9340" x1="852.228" y1="379.475" x2="799.316" y2="882.908" gradientUnits="userSpaceOnUse">
<stop stop-color="#007AFF"/>
<stop offset="1" stop-color="white"/>
</linearGradient>
<linearGradient id="paint3_linear_1854_9340" x1="843.198" y1="377.938" x2="799.16" y2="881.294" gradientUnits="userSpaceOnUse">
<stop stop-color="#007AFF"/>
<stop offset="1" stop-color="white"/>
</linearGradient>
<linearGradient id="paint4_linear_1854_9340" x1="834.177" y1="376.477" x2="798.995" y2="879.6" gradientUnits="userSpaceOnUse">
<stop stop-color="#007AFF"/>
<stop offset="1" stop-color="white"/>
</linearGradient>
<linearGradient id="paint5_linear_1854_9340" x1="825.166" y1="375.094" x2="798.818" y2="877.829" gradientUnits="userSpaceOnUse">
<stop stop-color="#007AFF"/>
<stop offset="1" stop-color="white"/>
</linearGradient>
<linearGradient id="paint6_linear_1854_9340" x1="816.167" y1="373.787" x2="798.631" y2="875.978" gradientUnits="userSpaceOnUse">
<stop stop-color="#007AFF"/>
<stop offset="1" stop-color="white"/>
</linearGradient>
<linearGradient id="paint7_linear_1854_9340" x1="807.18" y1="372.554" x2="798.426" y2="874.048" gradientUnits="userSpaceOnUse">
<stop stop-color="#007AFF"/>
<stop offset="1" stop-color="white"/>
</linearGradient>
<linearGradient id="paint8_linear_1854_9340" x1="798.209" y1="371.397" x2="798.209" y2="872.041" gradientUnits="userSpaceOnUse">
<stop stop-color="#007AFF"/>
<stop offset="1" stop-color="white"/>
</linearGradient>
<linearGradient id="paint9_linear_1854_9340" x1="789.252" y1="370.317" x2="797.973" y2="869.957" gradientUnits="userSpaceOnUse">
<stop stop-color="#007AFF"/>
<stop offset="1" stop-color="white"/>
</linearGradient>
<linearGradient id="paint10_linear_1854_9340" x1="780.313" y1="369.308" x2="797.72" y2="867.793" gradientUnits="userSpaceOnUse">
<stop stop-color="#007AFF"/>
<stop offset="1" stop-color="white"/>
</linearGradient>
<linearGradient id="paint11_linear_1854_9340" x1="771.392" y1="368.376" x2="797.448" y2="865.555" gradientUnits="userSpaceOnUse">
<stop stop-color="#007AFF"/>
<stop offset="1" stop-color="white"/>
</linearGradient>
<linearGradient id="paint12_linear_1854_9340" x1="762.49" y1="367.514" x2="797.155" y2="863.239" gradientUnits="userSpaceOnUse">
<stop stop-color="#007AFF"/>
<stop offset="1" stop-color="white"/>
</linearGradient>
<linearGradient id="paint13_linear_1854_9340" x1="753.608" y1="366.728" x2="796.838" y2="860.848" gradientUnits="userSpaceOnUse">
<stop stop-color="#007AFF"/>
<stop offset="1" stop-color="white"/>
</linearGradient>
<linearGradient id="paint14_linear_1854_9340" x1="744.751" y1="366.014" x2="796.501" y2="858.382" gradientUnits="userSpaceOnUse">
<stop stop-color="#007AFF"/>
<stop offset="1" stop-color="white"/>
</linearGradient>
<linearGradient id="paint15_linear_1854_9340" x1="735.915" y1="365.371" x2="796.137" y2="855.842" gradientUnits="userSpaceOnUse">
<stop stop-color="#007AFF"/>
<stop offset="1" stop-color="white"/>
</linearGradient>
<linearGradient id="paint16_linear_1854_9340" x1="727.102" y1="364.799" x2="795.746" y2="853.226" gradientUnits="userSpaceOnUse">
<stop stop-color="#007AFF"/>
<stop offset="1" stop-color="white"/>
</linearGradient>
<linearGradient id="paint17_linear_1854_9340" x1="718.317" y1="364.3" x2="795.33" y2="850.538" gradientUnits="userSpaceOnUse">
<stop stop-color="#007AFF"/>
<stop offset="1" stop-color="white"/>
</linearGradient>
<linearGradient id="paint18_linear_1854_9340" x1="709.559" y1="363.869" x2="794.885" y2="847.776" gradientUnits="userSpaceOnUse">
<stop stop-color="#007AFF"/>
<stop offset="1" stop-color="white"/>
</linearGradient>
<linearGradient id="paint19_linear_1854_9340" x1="700.828" y1="363.51" x2="794.41" y2="844.944" gradientUnits="userSpaceOnUse">
<stop stop-color="#007AFF"/>
<stop offset="1" stop-color="white"/>
</linearGradient>
<linearGradient id="paint20_linear_1854_9340" x1="692.128" y1="363.218" x2="793.904" y2="842.038" gradientUnits="userSpaceOnUse">
<stop stop-color="#007AFF"/>
<stop offset="1" stop-color="white"/>
</linearGradient>
<linearGradient id="paint21_linear_1854_9340" x1="683.456" y1="362.996" x2="793.365" y2="839.064" gradientUnits="userSpaceOnUse">
<stop stop-color="#007AFF"/>
<stop offset="1" stop-color="white"/>
</linearGradient>
<linearGradient id="paint22_linear_1854_9340" x1="674.817" y1="362.841" x2="792.794" y2="836.019" gradientUnits="userSpaceOnUse">
<stop stop-color="#007AFF"/>
<stop offset="1" stop-color="white"/>
</linearGradient>
<linearGradient id="paint23_linear_1854_9340" x1="666.211" y1="362.752" x2="792.188" y2="832.903" gradientUnits="userSpaceOnUse">
<stop stop-color="#007AFF"/>
<stop offset="1" stop-color="white"/>
</linearGradient>
<linearGradient id="paint24_linear_1854_9340" x1="657.639" y1="362.73" x2="791.547" y2="829.72" gradientUnits="userSpaceOnUse">
<stop stop-color="#007AFF"/>
<stop offset="1" stop-color="white"/>
</linearGradient>
<linearGradient id="paint25_linear_1854_9340" x1="649.102" y1="362.775" x2="790.868" y2="826.47" gradientUnits="userSpaceOnUse">
<stop stop-color="#007AFF"/>
<stop offset="1" stop-color="white"/>
</linearGradient>
<linearGradient id="paint26_linear_1854_9340" x1="640.601" y1="362.883" x2="790.151" y2="823.152" gradientUnits="userSpaceOnUse">
<stop stop-color="#007AFF"/>
<stop offset="1" stop-color="white"/>
</linearGradient>
<linearGradient id="paint27_linear_1854_9340" x1="632.138" y1="363.055" x2="789.396" y2="819.768" gradientUnits="userSpaceOnUse">
<stop stop-color="#007AFF"/>
<stop offset="1" stop-color="white"/>
</linearGradient>
<linearGradient id="paint28_linear_1854_9340" x1="623.712" y1="363.29" x2="788.6" y2="816.316" gradientUnits="userSpaceOnUse">
<stop stop-color="#007AFF"/>
<stop offset="1" stop-color="white"/>
</linearGradient>
<linearGradient id="paint29_linear_1854_9340" x1="615.325" y1="363.589" x2="787.762" y2="812.804" gradientUnits="userSpaceOnUse">
<stop stop-color="#007AFF"/>
<stop offset="1" stop-color="white"/>
</linearGradient>
<linearGradient id="paint30_linear_1854_9340" x1="606.98" y1="363.948" x2="786.883" y2="809.225" gradientUnits="userSpaceOnUse">
<stop stop-color="#007AFF"/>
<stop offset="1" stop-color="white"/>
</linearGradient>
<linearGradient id="paint31_linear_1854_9340" x1="598.675" y1="364.369" x2="785.96" y2="805.585" gradientUnits="userSpaceOnUse">
<stop stop-color="#007AFF"/>
<stop offset="1" stop-color="white"/>
</linearGradient>
<linearGradient id="paint32_linear_1854_9340" x1="590.413" y1="364.849" x2="784.993" y2="801.882" gradientUnits="userSpaceOnUse">
<stop stop-color="#007AFF"/>
<stop offset="1" stop-color="white"/>
</linearGradient>
<linearGradient id="paint33_linear_1854_9340" x1="582.194" y1="365.389" x2="783.979" y2="798.119" gradientUnits="userSpaceOnUse">
<stop stop-color="#007AFF"/>
<stop offset="1" stop-color="white"/>
</linearGradient>
<linearGradient id="paint34_linear_1854_9340" x1="574.02" y1="365.985" x2="782.92" y2="794.295" gradientUnits="userSpaceOnUse">
<stop stop-color="#007AFF"/>
<stop offset="1" stop-color="white"/>
</linearGradient>
<linearGradient id="paint35_linear_1854_9340" x1="565.89" y1="366.64" x2="781.813" y2="790.413" gradientUnits="userSpaceOnUse">
<stop stop-color="#007AFF"/>
<stop offset="1" stop-color="white"/>
</linearGradient>
<linearGradient id="paint36_linear_1854_9340" x1="557.807" y1="367.35" x2="780.658" y2="786.471" gradientUnits="userSpaceOnUse">
<stop stop-color="#007AFF"/>
<stop offset="1" stop-color="white"/>
</linearGradient>
<linearGradient id="paint37_linear_1854_9340" x1="549.773" y1="368.117" x2="779.454" y2="782.474" gradientUnits="userSpaceOnUse">
<stop stop-color="#007AFF"/>
<stop offset="1" stop-color="white"/>
</linearGradient>
<linearGradient id="paint38_linear_1854_9340" x1="541.784" y1="368.937" x2="778.199" y2="778.42" gradientUnits="userSpaceOnUse">
<stop stop-color="#007AFF"/>
<stop offset="1" stop-color="white"/>
</linearGradient>
<linearGradient id="paint39_linear_1854_9340" x1="533.845" y1="369.814" x2="776.893" y2="774.313" gradientUnits="userSpaceOnUse">
<stop stop-color="#007AFF"/>
<stop offset="1" stop-color="white"/>
</linearGradient>
<linearGradient id="paint40_linear_1854_9340" x1="525.956" y1="370.738" x2="775.535" y2="770.148" gradientUnits="userSpaceOnUse">
<stop stop-color="#007AFF"/>
<stop offset="1" stop-color="white"/>
</linearGradient>
<linearGradient id="paint41_linear_1854_9340" x1="518.117" y1="371.716" x2="774.124" y2="765.932" gradientUnits="userSpaceOnUse">
<stop stop-color="#007AFF"/>
<stop offset="1" stop-color="white"/>
</linearGradient>
<linearGradient id="paint42_linear_1854_9340" x1="510.33" y1="372.745" x2="772.659" y2="761.665" gradientUnits="userSpaceOnUse">
<stop stop-color="#007AFF"/>
<stop offset="1" stop-color="white"/>
</linearGradient>
<linearGradient id="paint43_linear_1854_9340" x1="502.595" y1="373.822" x2="771.14" y2="757.344" gradientUnits="userSpaceOnUse">
<stop stop-color="#007AFF"/>
<stop offset="1" stop-color="white"/>
</linearGradient>
<linearGradient id="paint44_linear_1854_9340" x1="494.914" y1="374.947" x2="769.566" y2="752.974" gradientUnits="userSpaceOnUse">
<stop stop-color="#007AFF"/>
<stop offset="1" stop-color="white"/>
</linearGradient>
<linearGradient id="paint45_linear_1854_9340" x1="487.284" y1="376.121" x2="767.935" y2="748.557" gradientUnits="userSpaceOnUse">
<stop stop-color="#007AFF"/>
<stop offset="1" stop-color="white"/>
</linearGradient>
<linearGradient id="paint46_linear_1854_9340" x1="479.711" y1="377.342" x2="766.247" y2="744.092" gradientUnits="userSpaceOnUse">
<stop stop-color="#007AFF"/>
<stop offset="1" stop-color="white"/>
</linearGradient>
<linearGradient id="paint47_linear_1854_9340" x1="472.192" y1="378.606" x2="764.502" y2="739.579" gradientUnits="userSpaceOnUse">
<stop stop-color="#007AFF"/>
<stop offset="1" stop-color="white"/>
</linearGradient>
<linearGradient id="paint48_linear_1854_9340" x1="464.729" y1="379.917" x2="762.699" y2="735.024" gradientUnits="userSpaceOnUse">
<stop stop-color="#007AFF"/>
<stop offset="1" stop-color="white"/>
</linearGradient>
<linearGradient id="paint49_linear_1854_9340" x1="457.323" y1="381.268" x2="760.836" y2="730.421" gradientUnits="userSpaceOnUse">
<stop stop-color="#007AFF"/>
<stop offset="1" stop-color="white"/>
</linearGradient>
<linearGradient id="paint50_linear_1854_9340" x1="449.973" y1="382.662" x2="758.914" y2="725.775" gradientUnits="userSpaceOnUse">
<stop stop-color="#007AFF"/>
<stop offset="1" stop-color="white"/>
</linearGradient>
<linearGradient id="paint51_linear_1854_9340" x1="442.682" y1="384.098" x2="756.931" y2="721.089" gradientUnits="userSpaceOnUse">
<stop stop-color="#007AFF"/>
<stop offset="1" stop-color="white"/>
</linearGradient>
<linearGradient id="paint52_linear_1854_9340" x1="435.449" y1="385.572" x2="754.888" y2="716.36" gradientUnits="userSpaceOnUse">
<stop stop-color="#007AFF"/>
<stop offset="1" stop-color="white"/>
</linearGradient>
<linearGradient id="paint53_linear_1854_9340" x1="428.275" y1="387.085" x2="752.782" y2="711.593" gradientUnits="userSpaceOnUse">
<stop stop-color="#007AFF"/>
<stop offset="1" stop-color="white"/>
</linearGradient>
<linearGradient id="paint54_linear_1854_9340" x1="421.161" y1="388.637" x2="750.616" y2="706.788" gradientUnits="userSpaceOnUse">
<stop stop-color="#007AFF"/>
<stop offset="1" stop-color="white"/>
</linearGradient>
<linearGradient id="paint55_linear_1854_9340" x1="414.107" y1="390.223" x2="748.386" y2="701.943" gradientUnits="userSpaceOnUse">
<stop stop-color="#007AFF"/>
<stop offset="1" stop-color="white"/>
</linearGradient>
<linearGradient id="paint56_linear_1854_9340" x1="407.113" y1="391.847" x2="746.093" y2="697.065" gradientUnits="userSpaceOnUse">
<stop stop-color="#007AFF"/>
<stop offset="1" stop-color="white"/>
</linearGradient>
<linearGradient id="paint57_linear_1854_9340" x1="400.181" y1="393.502" x2="743.736" y2="692.149" gradientUnits="userSpaceOnUse">
<stop stop-color="#007AFF"/>
<stop offset="1" stop-color="white"/>
</linearGradient>
<linearGradient id="paint58_linear_1854_9340" x1="393.31" y1="395.192" x2="741.314" y2="687.202" gradientUnits="userSpaceOnUse">
<stop stop-color="#007AFF"/>
<stop offset="1" stop-color="white"/>
</linearGradient>
<linearGradient id="paint59_linear_1854_9340" x1="386.501" y1="396.913" x2="738.829" y2="682.222" gradientUnits="userSpaceOnUse">
<stop stop-color="#007AFF"/>
<stop offset="1" stop-color="white"/>
</linearGradient>
<linearGradient id="paint60_linear_1854_9340" x1="379.755" y1="398.665" x2="736.277" y2="677.211" gradientUnits="userSpaceOnUse">
<stop stop-color="#007AFF"/>
<stop offset="1" stop-color="white"/>
</linearGradient>
<linearGradient id="paint61_linear_1854_9340" x1="373.073" y1="400.445" x2="733.662" y2="672.168" gradientUnits="userSpaceOnUse">
<stop stop-color="#007AFF"/>
<stop offset="1" stop-color="white"/>
</linearGradient>
<linearGradient id="paint62_linear_1854_9340" x1="366.452" y1="402.252" x2="730.978" y2="667.096" gradientUnits="userSpaceOnUse">
<stop stop-color="#007AFF"/>
<stop offset="1" stop-color="white"/>
</linearGradient>
<linearGradient id="paint63_linear_1854_9340" x1="359.896" y1="404.089" x2="728.23" y2="661.998" gradientUnits="userSpaceOnUse">
<stop stop-color="#007AFF"/>
<stop offset="1" stop-color="white"/>
</linearGradient>
<linearGradient id="paint64_linear_1854_9340" x1="353.404" y1="405.95" x2="725.413" y2="656.873" gradientUnits="userSpaceOnUse">
<stop stop-color="#007AFF"/>
<stop offset="1" stop-color="white"/>
</linearGradient>
<linearGradient id="paint65_linear_1854_9340" x1="346.976" y1="407.837" x2="722.53" y2="651.725" gradientUnits="userSpaceOnUse">
<stop stop-color="#007AFF"/>
<stop offset="1" stop-color="white"/>
</linearGradient>
<linearGradient id="paint66_linear_1854_9340" x1="340.613" y1="409.747" x2="719.58" y2="646.552" gradientUnits="userSpaceOnUse">
<stop stop-color="#007AFF"/>
<stop offset="1" stop-color="white"/>
</linearGradient>
<linearGradient id="paint67_linear_1854_9340" x1="334.315" y1="411.679" x2="716.563" y2="641.357" gradientUnits="userSpaceOnUse">
<stop stop-color="#007AFF"/>
<stop offset="1" stop-color="white"/>
</linearGradient>
<linearGradient id="paint68_linear_1854_9340" x1="328.082" y1="413.632" x2="713.478" y2="636.14" gradientUnits="userSpaceOnUse">
<stop stop-color="#007AFF"/>
<stop offset="1" stop-color="white"/>
</linearGradient>
<linearGradient id="paint69_linear_1854_9340" x1="321.914" y1="415.603" x2="710.324" y2="630.902" gradientUnits="userSpaceOnUse">
<stop stop-color="#007AFF"/>
<stop offset="1" stop-color="white"/>
</linearGradient>
<linearGradient id="paint70_linear_1854_9340" x1="315.813" y1="417.596" x2="707.102" y2="625.648" gradientUnits="userSpaceOnUse">
<stop stop-color="#007AFF"/>
<stop offset="1" stop-color="white"/>
</linearGradient>
<linearGradient id="paint71_linear_1854_9340" x1="309.777" y1="419.603" x2="703.811" y2="620.374" gradientUnits="userSpaceOnUse">
<stop stop-color="#007AFF"/>
<stop offset="1" stop-color="white"/>
</linearGradient>
<linearGradient id="paint72_linear_1854_9340" x1="303.808" y1="421.628" x2="700.453" y2="615.085" gradientUnits="userSpaceOnUse">
<stop stop-color="#007AFF"/>
<stop offset="1" stop-color="white"/>
</linearGradient>
<linearGradient id="paint73_linear_1854_9340" x1="297.903" y1="423.666" x2="697.024" y2="609.778" gradientUnits="userSpaceOnUse">
<stop stop-color="#007AFF"/>
<stop offset="1" stop-color="white"/>
</linearGradient>
<linearGradient id="paint74_linear_1854_9340" x1="292.066" y1="425.72" x2="693.526" y2="604.462" gradientUnits="userSpaceOnUse">
<stop stop-color="#007AFF"/>
<stop offset="1" stop-color="white"/>
</linearGradient>
<linearGradient id="paint75_linear_1854_9340" x1="286.295" y1="427.785" x2="689.961" y2="599.131" gradientUnits="userSpaceOnUse">
<stop stop-color="#007AFF"/>
<stop offset="1" stop-color="white"/>
</linearGradient>
<linearGradient id="paint76_linear_1854_9340" x1="280.59" y1="429.861" x2="686.326" y2="593.789" gradientUnits="userSpaceOnUse">
<stop stop-color="#007AFF"/>
<stop offset="1" stop-color="white"/>
</linearGradient>
<linearGradient id="paint77_linear_1854_9340" x1="274.953" y1="431.947" x2="682.621" y2="588.436" gradientUnits="userSpaceOnUse">
<stop stop-color="#007AFF"/>
<stop offset="1" stop-color="white"/>
</linearGradient>
<linearGradient id="paint78_linear_1854_9340" x1="269.382" y1="434.043" x2="678.848" y2="583.077" gradientUnits="userSpaceOnUse">
<stop stop-color="#007AFF"/>
<stop offset="1" stop-color="white"/>
</linearGradient>
<linearGradient id="paint79_linear_1854_9340" x1="263.876" y1="436.144" x2="675.005" y2="577.707" gradientUnits="userSpaceOnUse">
<stop stop-color="#007AFF"/>
<stop offset="1" stop-color="white"/>
</linearGradient>
<linearGradient id="paint80_linear_1854_9340" x1="258.438" y1="438.255" x2="671.092" y2="572.334" gradientUnits="userSpaceOnUse">
<stop stop-color="#007AFF"/>
<stop offset="1" stop-color="white"/>
</linearGradient>
<linearGradient id="paint81_linear_1854_9340" x1="253.066" y1="440.369" x2="667.111" y2="566.955" gradientUnits="userSpaceOnUse">
<stop stop-color="#007AFF"/>
<stop offset="1" stop-color="white"/>
</linearGradient>
<linearGradient id="paint82_linear_1854_9340" x1="247.762" y1="442.489" x2="663.062" y2="561.574" gradientUnits="userSpaceOnUse">
<stop stop-color="#007AFF"/>
<stop offset="1" stop-color="white"/>
</linearGradient>
<linearGradient id="paint83_linear_1854_9340" x1="242.522" y1="444.61" x2="658.942" y2="556.189" gradientUnits="userSpaceOnUse">
<stop stop-color="#007AFF"/>
<stop offset="1" stop-color="white"/>
</linearGradient>
<linearGradient id="paint84_linear_1854_9340" x1="237.351" y1="446.733" x2="654.755" y2="550.804" gradientUnits="userSpaceOnUse">
<stop stop-color="#007AFF"/>
<stop offset="1" stop-color="white"/>
</linearGradient>
<linearGradient id="paint85_linear_1854_9340" x1="232.244" y1="448.856" x2="650.497" y2="545.417" gradientUnits="userSpaceOnUse">
<stop stop-color="#007AFF"/>
<stop offset="1" stop-color="white"/>
</linearGradient>
<linearGradient id="paint86_linear_1854_9340" x1="227.204" y1="450.978" x2="646.172" y2="540.032" gradientUnits="userSpaceOnUse">
<stop stop-color="#007AFF"/>
<stop offset="1" stop-color="white"/>
</linearGradient>
<linearGradient id="paint87_linear_1854_9340" x1="222.23" y1="453.098" x2="641.778" y2="534.65" gradientUnits="userSpaceOnUse">
<stop stop-color="#007AFF"/>
<stop offset="1" stop-color="white"/>
</linearGradient>
<linearGradient id="paint88_linear_1854_9340" x1="217.32" y1="455.216" x2="637.315" y2="529.272" gradientUnits="userSpaceOnUse">
<stop stop-color="#007AFF"/>
<stop offset="1" stop-color="white"/>
</linearGradient>
<linearGradient id="paint89_linear_1854_9340" x1="212.477" y1="457.327" x2="632.785" y2="523.897" gradientUnits="userSpaceOnUse">
<stop stop-color="#007AFF"/>
<stop offset="1" stop-color="white"/>
</linearGradient>
<linearGradient id="paint90_linear_1854_9340" x1="207.701" y1="459.436" x2="628.188" y2="518.532" gradientUnits="userSpaceOnUse">
<stop stop-color="#007AFF"/>
<stop offset="1" stop-color="white"/>
</linearGradient>
<linearGradient id="paint91_linear_1854_9340" x1="202.988" y1="461.536" x2="623.522" y2="513.171" gradientUnits="userSpaceOnUse">
<stop stop-color="#007AFF"/>
<stop offset="1" stop-color="white"/>
</linearGradient>
<linearGradient id="paint92_linear_1854_9340" x1="198.34" y1="463.629" x2="618.789" y2="507.82" gradientUnits="userSpaceOnUse">
<stop stop-color="#007AFF"/>
<stop offset="1" stop-color="white"/>
</linearGradient>
<linearGradient id="paint93_linear_1854_9340" x1="193.756" y1="465.711" x2="613.989" y2="502.477" gradientUnits="userSpaceOnUse">
<stop stop-color="#007AFF"/>
<stop offset="1" stop-color="white"/>
</linearGradient>
<linearGradient id="paint94_linear_1854_9340" x1="189.238" y1="467.787" x2="609.123" y2="497.148" gradientUnits="userSpaceOnUse">
<stop stop-color="#007AFF"/>
<stop offset="1" stop-color="white"/>
</linearGradient>
<linearGradient id="paint95_linear_1854_9340" x1="184.782" y1="469.849" x2="604.19" y2="491.829" gradientUnits="userSpaceOnUse">
<stop stop-color="#007AFF"/>
<stop offset="1" stop-color="white"/>
</linearGradient>
<linearGradient id="paint96_linear_1854_9340" x1="180.39" y1="471.901" x2="599.191" y2="486.526" gradientUnits="userSpaceOnUse">
<stop stop-color="#007AFF"/>
<stop offset="1" stop-color="white"/>
</linearGradient>
<linearGradient id="paint97_linear_1854_9340" x1="176.062" y1="473.936" x2="594.128" y2="481.233" gradientUnits="userSpaceOnUse">
<stop stop-color="#007AFF"/>
<stop offset="1" stop-color="white"/>
</linearGradient>
<linearGradient id="paint98_linear_1854_9340" x1="171.796" y1="475.959" x2="588.999" y2="475.959" gradientUnits="userSpaceOnUse">
<stop stop-color="#007AFF"/>
<stop offset="1" stop-color="white"/>
</linearGradient>
</defs>
</svg>
