<svg width="480" height="440" viewBox="0 0 480 440" fill="none" xmlns="http://www.w3.org/2000/svg">
<path d="M239.997 38.349C266.944 0.400685 318.871 -11.4977 359.998 12.2377C401.125 35.9728 416.778 86.872 397.375 129.173C443.727 133.526 480 172.527 480 219.998C480 267.47 443.727 306.47 397.375 310.823C416.782 353.125 401.13 404.027 360.001 427.763C318.873 451.499 266.946 439.599 239.999 401.649C213.052 439.596 161.127 451.495 120 427.76C78.8725 404.025 63.2186 353.124 82.623 310.823C36.2716 306.47 6.9964e-05 267.469 0 219.998C0 172.528 36.2705 133.527 82.6211 129.173C63.2203 86.8727 78.8749 35.976 120.001 12.2416C161.127 -11.4927 213.049 0.404139 239.997 38.349Z" fill="#822BB8"/>
</svg>
