<svg width="96" height="22" viewBox="0 0 96 22" fill="none" xmlns="http://www.w3.org/2000/svg">
<path d="M25.3914 4.29582C25.3011 3.3474 24.7731 2.47883 23.8645 1.79346C21.6765 0.136148 17.505 -0.427177 12.9814 0.333331C9.88972 0.849745 7.031 1.92021 4.93326 3.338C2.7357 4.82635 1.61316 6.54455 1.77017 8.17834C1.8606 9.12675 2.38858 9.99533 3.29704 10.6807C4.84297 11.8497 7.36873 12.4742 10.313 12.4742C11.545 12.4742 12.8483 12.3661 14.1801 12.1408C17.2718 11.6244 20.1306 10.5539 22.2283 9.13616C24.4259 7.64781 25.5484 5.92961 25.3914 4.29582ZM13.8139 8.81693C10.9123 9.30512 8.44837 8.50698 8.31042 7.04228C8.17261 5.57745 10.4082 3.99527 13.3096 3.50709C16.2111 3.01876 18.675 3.81691 18.813 5.28174C18.951 6.75114 16.7154 8.33331 13.8139 8.81693Z" fill="white"/>
<path d="M25.8148 13.6807C25.7339 12.6526 25.1774 11.7089 24.207 10.9484C23.0654 10.0516 21.3626 9.41313 19.2887 9.0939C17.1958 8.77467 14.8033 8.79806 12.3726 9.16433C8.98588 9.67134 5.85139 10.7887 3.53958 12.2957C1.12331 13.8732 -0.127648 15.7183 0.0103039 17.493C0.0103039 17.5024 0.0103024 17.5116 0.0150687 17.521C1.48011 15.5868 4.8905 13.8497 8.97648 13.169C14.6035 12.23 19.3696 13.6525 19.6264 16.3474C19.8262 18.4273 17.2672 20.6619 13.4999 21.9999C16.8676 21.4882 19.988 20.3756 22.2901 18.8732C24.7018 17.2958 25.9527 15.4507 25.8148 13.6807Z" fill="white"/>
<path d="M51.2214 21.5258H48.1297L47.8871 18.6197C46.8074 20.723 44.4005 21.9999 41.4277 21.9999C35.42 21.9999 31.2723 17.3145 31.2723 11.0282C31.2771 4.71359 35.3916 0 41.7891 0C46.7169 0 50.1418 2.81689 51.1596 7.53048L45.7228 7.76987C45.2139 5.51644 43.8012 4.21129 41.6654 4.21129C38.2407 4.21129 36.6473 7.05627 36.6473 11.0329C36.6473 14.9764 38.2692 17.7933 41.6654 17.7933C44.0675 17.7933 45.4803 16.3098 45.8989 14.0564H41.6131V10.4694H51.2214V21.5258ZM52.8482 5.81214H57.8331L57.9234 9.07515C58.5561 6.93893 59.788 5.81214 61.7667 5.81214H63.1795V9.4882H61.7383C59.065 9.4882 58.0139 10.6432 58.0139 13.0187V21.5258H52.8482V5.81214ZM71.1849 21.8825C66.0763 21.8825 62.7133 18.6197 62.7133 13.6713C62.7133 8.72299 66.0763 5.46012 71.1849 5.46012C76.2935 5.46012 79.6563 8.72299 79.6563 13.6713C79.6563 18.6197 76.2887 21.8825 71.1849 21.8825ZM68.0265 13.6666C68.0265 16.5117 69.1395 18.1127 71.1801 18.1127C73.1921 18.1127 74.3337 16.5117 74.3337 13.6666C74.3337 10.8216 73.1921 9.22058 71.1801 9.22058C69.1395 9.22058 68.0265 10.8216 68.0265 13.6666ZM90.2969 5.77935H95.8525L90.2351 13.5492L96 21.5258H90.411L87.2859 16.723L84.1324 21.5258H78.5433L84.3083 13.5492L78.6908 5.77935H84.2465L87.2811 10.3756L90.2969 5.77935Z" fill="white"/>
</svg>
