<svg width="96" height="23" viewBox="0 0 96 23" fill="none" xmlns="http://www.w3.org/2000/svg">
<path d="M25.3914 4.42619C25.3011 3.47778 24.7731 2.6092 23.8645 1.92383C21.6765 0.266519 17.505 -0.296806 12.9815 0.463702C9.88975 0.980116 7.03103 2.05058 4.93329 3.46837C2.73573 4.95672 1.61319 6.67492 1.77021 8.30871C1.86063 9.25712 2.38861 10.1257 3.29707 10.8111C4.843 11.9801 7.36876 12.6045 10.313 12.6045C11.545 12.6045 12.8483 12.4965 14.1801 12.2712C17.2719 11.7548 20.1306 10.6843 22.2283 9.26653C24.4259 7.77818 25.5484 6.05998 25.3914 4.42619ZM13.8139 8.9473C10.9123 9.43549 8.4484 8.63735 8.31045 7.17265C8.17264 5.70782 10.4082 4.12564 13.3097 3.63746C16.2111 3.14914 18.6751 3.94728 18.813 5.41211C18.951 6.88151 16.7154 8.46368 13.8139 8.9473Z" fill="#111011"/>
<path d="M25.8148 13.8114C25.7339 12.7832 25.1774 11.8395 24.207 11.079C23.0654 10.1822 21.3626 9.54375 19.2887 9.22452C17.1958 8.90529 14.8033 8.92867 12.3726 9.29495C8.98588 9.80195 5.85139 10.9193 3.53958 12.4264C1.12331 14.0038 -0.127648 15.8489 0.0103039 17.6236C0.0103039 17.633 0.0103024 17.6423 0.0150687 17.6517C1.48011 15.7175 4.8905 13.9803 8.97648 13.2996C14.6035 12.3606 19.3696 13.7831 19.6264 16.478C19.8262 18.5579 17.2672 20.7925 13.4999 22.1306C16.8676 21.6189 19.988 20.5062 22.2901 19.0039C24.7018 17.4264 25.9527 15.5813 25.8148 13.8114Z" fill="#111011"/>
<path d="M51.2214 21.6562H48.1297L47.8871 18.75C46.8074 20.8533 44.4005 22.1303 41.4277 22.1303C35.42 22.1303 31.2723 17.4449 31.2723 11.1585C31.2771 4.84396 35.3916 0.130371 41.7891 0.130371C46.7169 0.130371 50.1418 2.94726 51.1596 7.66085L45.7228 7.90024C45.2139 5.64681 43.8012 4.34166 41.6654 4.34166C38.2407 4.34166 36.6473 7.18664 36.6473 11.1632C36.6473 15.1068 38.2692 17.9237 41.6654 17.9237C44.0675 17.9237 45.4803 16.4402 45.8989 14.1867H41.6131V10.5998H51.2214V21.6562ZM52.8482 5.94251H57.8331L57.9234 9.20552C58.5561 7.0693 59.788 5.94251 61.7667 5.94251H63.1795V9.61857H61.7383C59.065 9.61857 58.0139 10.7736 58.0139 13.1491V21.6562H52.8482V5.94251ZM71.1849 22.0129C66.0763 22.0129 62.7133 18.75 62.7133 13.8016C62.7133 8.85336 66.0763 5.59049 71.1849 5.59049C76.2935 5.59049 79.6563 8.85336 79.6563 13.8016C79.6563 18.75 76.2887 22.0129 71.1849 22.0129ZM68.0265 13.7969C68.0265 16.642 69.1395 18.243 71.1801 18.243C73.1921 18.243 74.3337 16.642 74.3337 13.7969C74.3337 10.9519 73.1921 9.35096 71.1801 9.35096C69.1395 9.35096 68.0265 10.9519 68.0265 13.7969ZM90.2969 5.90972H95.8525L90.2351 13.6796L96 21.6562H90.411L87.2859 16.8533L84.1324 21.6562H78.5433L84.3083 13.6796L78.6908 5.90972H84.2465L87.2811 10.506L90.2969 5.90972Z" fill="#111011"/>
</svg>
