<svg width="49" height="51" viewBox="0 0 49 51" fill="none" xmlns="http://www.w3.org/2000/svg">
<path d="M39.0594 34.4812C44.1 34.4812 48.1862 30.4281 48.1862 25.4284C48.1862 20.4286 44.1 16.3755 39.0594 16.3755C34.0189 16.3755 29.9327 20.4286 29.9327 25.4284C29.9327 30.4281 34.0189 34.4812 39.0594 34.4812Z" fill="#C92C2C"/>
<path d="M9.3129 34.4812C14.3535 34.4812 18.4396 30.4281 18.4396 25.4284C18.4396 20.4286 14.3535 16.3755 9.3129 16.3755C4.27234 16.3755 0.186157 20.4286 0.186157 25.4284C0.186157 30.4281 4.27234 34.4812 9.3129 34.4812Z" fill="#C92C2C"/>
<path d="M24.6537 8.12592C22.1334 3.796 16.5516 2.31247 12.1863 4.81234C7.82105 7.31222 6.3254 12.8489 8.84568 17.1788C11.366 21.5087 16.9478 22.9922 21.3131 20.4924C25.6783 17.9925 27.1739 12.4558 24.6537 8.12592Z" fill="#C92C2C"/>
<path d="M39.527 33.6784C37.0067 29.3485 31.4249 27.865 27.0596 30.3648C22.6943 32.8647 21.1987 38.4014 23.719 42.7313C26.2393 47.0612 31.8211 48.5447 36.1863 46.0449C40.5516 43.545 42.0472 38.0083 39.527 33.6784Z" fill="#C92C2C"/>
<path d="M24.6537 42.7312C22.1334 47.0612 16.5516 48.5447 12.1864 46.0448C7.82111 43.5449 6.32547 38.0083 8.84575 33.6784C11.366 29.3485 16.9479 27.8649 21.3131 30.3648C25.6784 32.8647 27.174 38.4013 24.6537 42.7312Z" fill="#C92C2C"/>
<path d="M39.5266 17.1785C37.0064 21.5084 31.4245 22.992 27.0593 20.4921C22.694 17.9922 21.1984 12.4556 23.7187 8.12565C26.239 3.79574 31.8208 2.3122 36.186 4.81208C40.5513 7.31196 42.0469 12.8486 39.5266 17.1785Z" fill="#C92C2C"/>
<path d="M24.299 35.3794C29.8996 35.3794 34.4399 30.876 34.4399 25.3207C34.4399 19.7654 29.8996 15.262 24.299 15.262C18.6984 15.262 14.1582 19.7654 14.1582 25.3207C14.1582 30.876 18.6984 35.3794 24.299 35.3794Z" fill="#C92C2C"/>
<g clip-path="url(#clip0_566_1408)">
<path d="M29.9145 21.4461V20.8765C29.9145 18.3115 26.0455 16.3765 20.9145 16.3765C15.7835 16.3765 11.9145 18.3115 11.9145 20.8765V24.9674C11.9145 27.1039 14.5991 28.8016 18.4599 29.3099V29.8765C18.4599 32.4415 22.3289 34.3765 27.4599 34.3765C32.591 34.3765 36.4599 32.4415 36.4599 29.8765V25.7856C36.4599 23.6685 33.8602 21.9687 29.9145 21.4461ZM34.8236 25.7856C34.8236 27.1376 31.6746 28.6492 27.4599 28.6492C27.0785 28.6492 26.7001 28.6359 26.3268 28.6114C28.5328 27.8075 29.9145 26.5015 29.9145 24.9674V23.0999C32.9694 23.555 34.8236 24.7904 34.8236 25.7856ZM18.4599 27.652V25.219C19.2738 25.325 20.0937 25.3776 20.9145 25.3765C21.7352 25.3776 22.5552 25.325 23.369 25.219V27.652C22.5564 27.7721 21.736 27.8319 20.9145 27.831C20.093 27.8319 19.2726 27.7721 18.4599 27.652ZM28.2781 23.5284V24.9674C28.2781 25.8254 27.0089 26.7469 25.0054 27.3064V24.9162C26.3257 24.5961 27.4436 24.1195 28.2781 23.5284ZM20.9145 18.0128C25.1292 18.0128 28.2781 19.5244 28.2781 20.8765C28.2781 22.2285 25.1292 23.7401 20.9145 23.7401C16.6998 23.7401 13.5509 22.2285 13.5509 20.8765C13.5509 19.5244 16.6998 18.0128 20.9145 18.0128ZM13.5509 24.9674V23.5284C14.3854 24.1195 15.5032 24.5961 16.8236 24.9162V27.3064C14.8201 26.7469 13.5509 25.8254 13.5509 24.9674ZM20.0963 29.8765V29.45C20.3653 29.4602 20.6373 29.4674 20.9145 29.4674C21.3113 29.4674 21.6989 29.4541 22.0794 29.4316C22.502 29.5829 22.9325 29.7113 23.369 29.8161V32.2154C21.3655 31.656 20.0963 30.7345 20.0963 29.8765ZM25.0054 32.5611V30.1219C25.819 30.2313 26.639 30.286 27.4599 30.2856C28.2807 30.2867 29.1006 30.2341 29.9145 30.1281V32.5611C28.2868 32.7998 26.6331 32.7998 25.0054 32.5611ZM31.5509 32.2154V29.8253C32.8712 29.5052 33.989 29.0286 34.8236 28.4375V29.8765C34.8236 30.7345 33.5544 31.656 31.5509 32.2154Z" fill="white"/>
</g>
<defs>
<clipPath id="clip0_566_1408">
<rect width="26.1818" height="26.1818" fill="white" transform="translate(11.0963 12.2856)"/>
</clipPath>
</defs>
</svg>
