<svg width="49" height="51" viewBox="0 0 49 51" fill="none" xmlns="http://www.w3.org/2000/svg">
<path d="M39.0594 34.1956C44.1 34.1956 48.1862 30.1425 48.1862 25.1427C48.1862 20.1429 44.1 16.0898 39.0594 16.0898C34.0189 16.0898 29.9327 20.1429 29.9327 25.1427C29.9327 30.1425 34.0189 34.1956 39.0594 34.1956Z" fill="#822BB8"/>
<path d="M9.3129 34.1956C14.3535 34.1956 18.4396 30.1425 18.4396 25.1427C18.4396 20.1429 14.3535 16.0898 9.3129 16.0898C4.27234 16.0898 0.186157 20.1429 0.186157 25.1427C0.186157 30.1425 4.27234 34.1956 9.3129 34.1956Z" fill="#822BB8"/>
<path d="M24.6537 7.84028C22.1334 3.51036 16.5516 2.02682 12.1863 4.5267C7.82105 7.02658 6.3254 12.5632 8.84568 16.8931C11.366 21.2231 16.9478 22.7066 21.3131 20.2067C25.6783 17.7068 27.1739 12.1702 24.6537 7.84028Z" fill="#822BB8"/>
<path d="M39.527 33.3928C37.0067 29.0629 31.4249 27.5793 27.0596 30.0792C22.6943 32.5791 21.1987 38.1157 23.719 42.4456C26.2393 46.7756 31.8211 48.2591 36.1863 45.7592C40.5516 43.2593 42.0472 37.7227 39.527 33.3928Z" fill="#822BB8"/>
<path d="M24.6537 42.4456C22.1334 46.7755 16.5516 48.2591 12.1864 45.7592C7.82111 43.2593 6.32547 37.7227 8.84575 33.3927C11.366 29.0628 16.9479 27.5793 21.3131 30.0792C25.6784 32.579 27.174 38.1157 24.6537 42.4456Z" fill="#822BB8"/>
<path d="M39.5266 16.8929C37.0064 21.2228 31.4245 22.7063 27.0593 20.2064C22.694 17.7066 21.1984 12.1699 23.7187 7.84001C26.239 3.51009 31.8208 2.02655 36.186 4.52643C40.5513 7.02631 42.0469 12.563 39.5266 16.8929Z" fill="#822BB8"/>
<path d="M24.299 35.0938C29.8996 35.0938 34.4399 30.5903 34.4399 25.035C34.4399 19.4798 29.8996 14.9763 24.299 14.9763C18.6984 14.9763 14.1582 19.4798 14.1582 25.035C14.1582 30.5903 18.6984 35.0938 24.299 35.0938Z" fill="#822BB8"/>
<path d="M32.369 16.9092H16.0054C15.3544 16.9092 14.7301 17.1678 14.2698 17.6281C13.8094 18.0884 13.5508 18.7127 13.5508 19.3637V30.8183C13.5508 31.4693 13.8094 32.0936 14.2698 32.5539C14.7301 33.0142 15.3544 33.2728 16.0054 33.2728H32.369C33.02 33.2728 33.6443 33.0142 34.1047 32.5539C34.565 32.0936 34.8236 31.4693 34.8236 30.8183V19.3637C34.8236 18.7127 34.565 18.0884 34.1047 17.6281C33.6443 17.1678 33.02 16.9092 32.369 16.9092ZM15.1872 21.8183H33.1872V23.4546H27.4599C27.2429 23.4546 27.0348 23.5408 26.8814 23.6943C26.728 23.8477 26.6418 24.0558 26.6418 24.2728C26.6418 24.9238 26.3832 25.5481 25.9228 26.0084C25.4625 26.4688 24.8382 26.7274 24.1872 26.7274C23.5362 26.7274 22.9119 26.4688 22.4516 26.0084C21.9913 25.5481 21.7327 24.9238 21.7327 24.2728C21.7327 24.0558 21.6465 23.8477 21.493 23.6943C21.3396 23.5408 21.1315 23.4546 20.9145 23.4546H15.1872V21.8183ZM16.0054 18.5455H32.369C32.586 18.5455 32.7941 18.6317 32.9476 18.7852C33.101 18.9386 33.1872 19.1467 33.1872 19.3637V20.1819H15.1872V19.3637C15.1872 19.1467 15.2734 18.9386 15.4268 18.7852C15.5803 18.6317 15.7884 18.5455 16.0054 18.5455ZM32.369 31.6365H16.0054C15.7884 31.6365 15.5803 31.5503 15.4268 31.3968C15.2734 31.2434 15.1872 31.0353 15.1872 30.8183V25.091H20.1781C20.3659 26.0158 20.8676 26.8472 21.5983 27.4444C22.3289 28.0416 23.2436 28.3678 24.1872 28.3678C25.1309 28.3678 26.0455 28.0416 26.7761 27.4444C27.5068 26.8472 28.0085 26.0158 28.1963 25.091H33.1872V30.8183C33.1872 31.0353 33.101 31.2434 32.9476 31.3968C32.7941 31.5503 32.586 31.6365 32.369 31.6365Z" fill="white"/>
</svg>
