<svg width="49" height="51" viewBox="0 0 49 51" fill="none" xmlns="http://www.w3.org/2000/svg">
<path d="M39.0594 34.7669C44.1 34.7669 48.1862 30.7138 48.1862 25.714C48.1862 20.7142 44.1 16.6611 39.0594 16.6611C34.0189 16.6611 29.9327 20.7142 29.9327 25.714C29.9327 30.7138 34.0189 34.7669 39.0594 34.7669Z" fill="#15B763"/>
<path d="M9.3129 34.7669C14.3535 34.7669 18.4396 30.7138 18.4396 25.714C18.4396 20.7142 14.3535 16.6611 9.3129 16.6611C4.27234 16.6611 0.186157 20.7142 0.186157 25.714C0.186157 30.7138 4.27234 34.7669 9.3129 34.7669Z" fill="#15B763"/>
<path d="M24.6537 8.41181C22.1334 4.08189 16.5516 2.59835 12.1863 5.09823C7.82105 7.59811 6.3254 13.1348 8.84568 17.4647C11.366 21.7946 16.9478 23.2781 21.3131 20.7783C25.6783 18.2784 27.1739 12.7417 24.6537 8.41181Z" fill="#15B763"/>
<path d="M39.527 33.9641C37.0067 29.6341 31.4249 28.1506 27.0596 30.6505C22.6943 33.1504 21.1987 38.687 23.719 43.0169C26.2393 47.3468 31.8211 48.8304 36.1863 46.3305C40.5516 43.8306 42.0472 38.294 39.527 33.9641Z" fill="#15B763"/>
<path d="M24.6537 43.0169C22.1334 47.3468 16.5516 48.8303 12.1864 46.3305C7.82111 43.8306 6.32547 38.2939 8.84575 33.964C11.366 29.6341 16.9479 28.1506 21.3131 30.6505C25.6784 33.1503 27.174 38.687 24.6537 43.0169Z" fill="#15B763"/>
<path d="M39.5266 17.4642C37.0064 21.7941 31.4245 23.2776 27.0593 20.7777C22.694 18.2779 21.1984 12.7412 23.7187 8.4113C26.239 4.08138 31.8208 2.59784 36.186 5.09772C40.5513 7.5976 42.0469 13.1342 39.5266 17.4642Z" fill="#15B763"/>
<path d="M24.299 35.6653C29.8996 35.6653 34.4399 31.1619 34.4399 25.6066C34.4399 20.0513 29.8996 15.5479 24.299 15.5479C18.6984 15.5479 14.1582 20.0513 14.1582 25.6066C14.1582 31.1619 18.6984 35.6653 24.299 35.6653Z" fill="#15B763"/>
<g clip-path="url(#clip0_566_1418)">
<path d="M36.4221 17.4693C36.4104 17.2691 36.3256 17.0802 36.1839 16.9384C36.0421 16.7967 35.8532 16.7119 35.653 16.7002C30.3594 16.3934 26.1089 18.0031 24.2823 21.0181C23.0755 23.0114 23.0776 25.4322 24.266 27.7416C23.5895 28.5468 23.0952 29.4888 22.8168 30.5029L21.1528 28.8328C21.9526 27.1627 21.9219 25.422 21.0505 23.9759C19.7005 21.7474 16.5843 20.5528 12.7153 20.7799C12.5151 20.7915 12.3262 20.8763 12.1844 21.0181C12.0427 21.1599 11.9579 21.3488 11.9462 21.5489C11.7181 25.4179 12.9137 28.5342 15.1422 29.8842C15.8776 30.3335 16.7227 30.5713 17.5845 30.5714C18.421 30.5611 19.2444 30.363 19.994 29.9916L22.5508 32.5484V35.4805C22.5508 35.6975 22.637 35.9056 22.7905 36.0591C22.9439 36.2125 23.152 36.2987 23.369 36.2987C23.586 36.2987 23.7941 36.2125 23.9476 36.0591C24.101 35.9056 24.1872 35.6975 24.1872 35.4805V32.4645C24.1836 31.1629 24.6265 29.8994 25.4421 28.885C26.4944 29.4349 27.6615 29.7292 28.8488 29.7441C29.9967 29.7478 31.1233 29.4342 32.1041 28.8379C35.1191 27.0134 36.733 22.7629 36.4221 17.4693ZM15.986 28.4851C14.4171 27.535 13.5294 25.286 13.5508 22.3896C16.4472 22.3651 18.6962 23.2559 19.6463 24.8247C20.1423 25.6429 20.2231 26.5971 19.8979 27.58L17.4014 25.0835C17.2467 24.9365 17.0408 24.8558 16.8274 24.8585C16.614 24.8613 16.4102 24.9472 16.2593 25.0981C16.1085 25.249 16.0225 25.4528 16.0198 25.6662C16.017 25.8795 16.0977 26.0855 16.2447 26.2402L18.7412 28.7367C17.7583 29.0619 16.8052 28.9811 15.986 28.4851ZM31.2563 27.4399C29.8859 28.2693 28.2751 28.3327 26.6387 27.6444L32.1297 22.1524C32.2767 21.9977 32.3574 21.7917 32.3547 21.5783C32.3519 21.365 32.266 21.1611 32.1151 21.0103C31.9642 20.8594 31.7604 20.7734 31.547 20.7707C31.3337 20.768 31.1277 20.8487 30.973 20.9956L25.481 26.4805C24.7896 24.8442 24.852 23.2324 25.6855 21.8629C27.1112 19.5106 30.4923 18.1995 34.8215 18.3008C34.9197 22.6289 33.6106 26.0142 31.2563 27.4399Z" fill="white"/>
</g>
<defs>
<clipPath id="clip0_566_1418">
<rect width="26.1818" height="26.1818" fill="white" transform="translate(11.0963 12.5713)"/>
</clipPath>
</defs>
</svg>
