<svg width="49" height="51" viewBox="0 0 49 51" fill="none" xmlns="http://www.w3.org/2000/svg">
<path d="M39.0594 34.7669C44.1 34.7669 48.1862 30.7138 48.1862 25.714C48.1862 20.7142 44.1 16.6611 39.0594 16.6611C34.0189 16.6611 29.9327 20.7142 29.9327 25.714C29.9327 30.7138 34.0189 34.7669 39.0594 34.7669Z" fill="#018FF4"/>
<path d="M9.3129 34.7669C14.3535 34.7669 18.4396 30.7138 18.4396 25.714C18.4396 20.7142 14.3535 16.6611 9.3129 16.6611C4.27234 16.6611 0.186157 20.7142 0.186157 25.714C0.186157 30.7138 4.27234 34.7669 9.3129 34.7669Z" fill="#018FF4"/>
<path d="M24.6537 8.41181C22.1334 4.08189 16.5516 2.59835 12.1863 5.09823C7.82105 7.59811 6.3254 13.1348 8.84568 17.4647C11.366 21.7946 16.9478 23.2781 21.3131 20.7783C25.6783 18.2784 27.1739 12.7417 24.6537 8.41181Z" fill="#018FF4"/>
<path d="M39.527 33.9641C37.0067 29.6341 31.4249 28.1506 27.0596 30.6505C22.6943 33.1504 21.1987 38.687 23.719 43.0169C26.2393 47.3468 31.8211 48.8304 36.1863 46.3305C40.5516 43.8306 42.0472 38.294 39.527 33.9641Z" fill="#018FF4"/>
<path d="M24.6537 43.0169C22.1334 47.3468 16.5516 48.8303 12.1864 46.3305C7.82111 43.8306 6.32547 38.2939 8.84575 33.964C11.366 29.6341 16.9479 28.1506 21.3131 30.6505C25.6784 33.1503 27.174 38.687 24.6537 43.0169Z" fill="#018FF4"/>
<path d="M39.5266 17.4642C37.0064 21.7941 31.4245 23.2776 27.0593 20.7777C22.694 18.2779 21.1984 12.7412 23.7187 8.4113C26.239 4.08138 31.8208 2.59784 36.186 5.09772C40.5513 7.5976 42.0469 13.1342 39.5266 17.4642Z" fill="#018FF4"/>
<path d="M24.299 35.6653C29.8996 35.6653 34.4399 31.1619 34.4399 25.6066C34.4399 20.0513 29.8996 15.5479 24.299 15.5479C18.6984 15.5479 14.1582 20.0513 14.1582 25.6066C14.1582 31.1619 18.6984 35.6653 24.299 35.6653Z" fill="#018FF4"/>
<g clip-path="url(#clip0_566_1427)">
<path d="M36.7188 17.9101C36.5954 17.8331 36.4544 17.7888 36.3091 17.7813C36.1639 17.7738 36.0191 17.8034 35.8884 17.8673C31.2888 20.1173 28.0038 19.063 24.5313 17.9509C20.8884 16.7841 17.1116 15.5787 11.8938 18.1266C11.748 18.1965 11.625 18.3063 11.5389 18.4431C11.4528 18.58 11.4072 18.7385 11.4073 18.9001V31.7498C11.4073 31.8952 11.4443 32.0383 11.5148 32.1655C11.5853 32.2927 11.687 32.3998 11.8104 32.4769C11.9337 32.5539 12.0746 32.5983 12.2199 32.6059C12.3651 32.6135 12.5099 32.584 12.6406 32.5202C17.2402 30.2702 20.5252 31.3244 24.0031 32.4366C26.0645 33.0955 28.1645 33.7673 30.5388 33.7673C32.3699 33.7673 34.367 33.3687 36.6363 32.2609C36.7804 32.1905 36.9019 32.0811 36.987 31.9451C37.072 31.8091 37.1172 31.652 37.1174 31.4916V18.6419C37.1186 18.4961 37.0827 18.3524 37.013 18.2243C36.9432 18.0963 36.842 17.9882 36.7188 17.9101ZM35.4074 30.9462C31.0574 32.893 27.8806 31.8773 24.5259 30.8048C22.4645 30.1459 20.3645 29.4741 17.9902 29.4741C16.3221 29.4822 14.671 29.8095 13.1259 30.4384V19.4455C17.4759 17.4987 20.6527 18.5144 24.0074 19.5869C27.362 20.6594 30.8152 21.7673 35.4074 19.9555V30.9462ZM24.2645 21.7673C23.5864 21.7673 22.9235 21.9684 22.3597 22.3451C21.7959 22.7218 21.3564 23.2573 21.0969 23.8838C20.8374 24.5103 20.7695 25.1997 20.9018 25.8647C21.0341 26.5298 21.3606 27.1407 21.8401 27.6202C22.3196 28.0997 22.9305 28.4263 23.5956 28.5586C24.2607 28.6908 24.9501 28.623 25.5766 28.3635C26.203 28.104 26.7385 27.6645 27.1152 27.1007C27.492 26.5368 27.6931 25.874 27.6931 25.1959C27.6931 24.2866 27.3318 23.4145 26.6889 22.7715C26.0459 22.1285 25.1738 21.7673 24.2645 21.7673ZM24.2645 26.9101C23.9254 26.9101 23.594 26.8096 23.3121 26.6212C23.0302 26.4329 22.8105 26.1651 22.6807 25.8519C22.551 25.5386 22.517 25.194 22.5831 24.8614C22.6493 24.5289 22.8126 24.2234 23.0523 23.9837C23.2921 23.7439 23.5975 23.5807 23.9301 23.5145C24.2626 23.4484 24.6073 23.4823 24.9205 23.6121C25.2338 23.7418 25.5015 23.9615 25.6899 24.2435C25.8782 24.5254 25.9788 24.8568 25.9788 25.1959C25.9788 25.6505 25.7982 26.0866 25.4767 26.408C25.1552 26.7295 24.7192 26.9101 24.2645 26.9101ZM16.5502 21.7673V26.9101C16.5502 27.1375 16.4599 27.3555 16.2992 27.5162C16.1384 27.677 15.9204 27.7673 15.6931 27.7673C15.4657 27.7673 15.2477 27.677 15.087 27.5162C14.9262 27.3555 14.8359 27.1375 14.8359 26.9101V21.7673C14.8359 21.54 14.9262 21.3219 15.087 21.1612C15.2477 21.0005 15.4657 20.9101 15.6931 20.9101C15.9204 20.9101 16.1384 21.0005 16.2992 21.1612C16.4599 21.3219 16.5502 21.54 16.5502 21.7673ZM31.9788 28.6244V23.4816C31.9788 23.2543 32.0691 23.0362 32.2298 22.8755C32.3906 22.7147 32.6086 22.6244 32.8359 22.6244C33.0633 22.6244 33.2813 22.7147 33.442 22.8755C33.6028 23.0362 33.6931 23.2543 33.6931 23.4816V28.6244C33.6931 28.8518 33.6028 29.0698 33.442 29.2305C33.2813 29.3913 33.0633 29.4816 32.8359 29.4816C32.6086 29.4816 32.3906 29.3913 32.2298 29.2305C32.0691 29.0698 31.9788 28.8518 31.9788 28.6244Z" fill="white"/>
</g>
<defs>
<clipPath id="clip0_566_1427">
<rect width="27.4286" height="27.4286" fill="white" transform="translate(10.5502 11.4814)"/>
</clipPath>
</defs>
</svg>
