<svg width="23" height="23" viewBox="0 0 23 23" fill="none" xmlns="http://www.w3.org/2000/svg">
<g clip-path="url(#clip0_674_1789)">
<path d="M6.15043 1.60254H16.7661V21.6025H6.14731L6.15043 1.60254Z" fill="white"/>
<path d="M0.844551 1.60254H6.1508V21.6025H0.844551V1.60254ZM16.7664 1.60254H22.0727V21.6025H16.7696L16.7664 1.60254ZM7.74143 11.2692L7.3258 11.4525L9.24455 13.7025C9.39143 14.2734 9.19455 14.4442 9.06955 14.7442L11.1508 14.3942L11.1008 17.1859L11.5352 17.1734L11.4383 14.3984L13.5227 14.7317C13.3946 14.3692 13.2789 14.1775 13.3977 13.5984L15.3133 11.4734L14.9789 11.3067C14.7039 11.0234 15.0977 9.94837 15.1539 9.26921C15.1539 9.26921 14.0383 9.78171 13.9664 9.51087L13.6789 8.78171L12.6602 10.2734C12.5508 10.3109 12.5039 10.2525 12.4758 10.1275L12.9446 7.01087L12.2008 7.56921C12.1383 7.60671 12.0758 7.57337 12.0383 7.47754L11.3196 5.56087L10.5821 7.55254C10.5258 7.62337 10.4696 7.63171 10.4258 7.58171L9.71018 7.05254L10.1383 10.14C10.1039 10.265 10.0227 10.2984 9.92893 10.2317L8.95393 8.76087C8.82893 9.03171 8.74143 9.47337 8.57268 9.57337C8.40393 9.66921 7.8383 9.38587 7.46018 9.28171C7.59143 9.89837 7.99143 10.9317 7.74143 11.2692Z" fill="#D52B1E"/>
</g>
<rect x="0.960014" y="1.10254" width="21" height="21" rx="10.5" stroke="white"/>
<defs>
<clipPath id="clip0_674_1789">
<rect x="1.46001" y="1.60254" width="20" height="20" rx="10" fill="white"/>
</clipPath>
</defs>
</svg>
