<svg width="23" height="23" viewBox="0 0 23 23" fill="none" xmlns="http://www.w3.org/2000/svg">
<g clip-path="url(#clip0_674_1793)">
<path d="M1.71069 1.60254H21.7107V21.6025H1.71069V1.60254Z" fill="#012169"/>
<path d="M4.05444 1.60254L11.6794 9.14421L19.2732 1.60254H21.7107V4.18587L14.2107 11.6442L21.7107 19.0609V21.6025H19.2107L11.7107 14.1442L4.24194 21.6025H1.71069V19.1025L9.17944 11.6859L1.71069 4.26921V1.60254H4.05444Z" fill="white"/>
<path d="M14.9607 13.3109L21.7107 19.9359V21.6025L13.2419 13.3109H14.9607ZM9.21069 14.1442L9.39819 15.6025L3.39819 21.6025H1.71069L9.21069 14.1442ZM21.7107 1.60254V1.72754L13.9294 9.56087L13.9919 7.72754L20.1482 1.60254H21.7107ZM1.71069 1.60254L9.17944 8.93587H7.30444L1.71069 3.35254V1.60254Z" fill="#C8102E"/>
<path d="M9.24194 1.60254V21.6025H14.2419V1.60254H9.24194ZM1.71069 8.26921V14.9359H21.7107V8.26921H1.71069Z" fill="white"/>
<path d="M1.71069 9.64421V13.6442H21.7107V9.64421H1.71069ZM10.2419 1.60254V21.6025H13.2419V1.60254H10.2419Z" fill="#C8102E"/>
</g>
<rect x="1.21094" y="1.10254" width="21" height="21" rx="10.5" stroke="white"/>
<defs>
<clipPath id="clip0_674_1793">
<rect x="1.71094" y="1.60254" width="20" height="20" rx="10" fill="white"/>
</clipPath>
</defs>
</svg>
