<svg width="23" height="23" viewBox="0 0 23 23" fill="none" xmlns="http://www.w3.org/2000/svg">
<g clip-path="url(#clip0_674_1788)">
<path fill-rule="evenodd" clip-rule="evenodd" d="M1.39729 1.60254H29.8973V3.14421H1.39729V1.60254ZM1.39729 4.68171H29.8973V6.22337H1.39729V4.68171ZM1.39729 7.75671H29.8973V9.29837H1.39729V7.75671ZM1.39729 10.8317H29.8973V12.3734H1.39729V10.8317ZM1.39729 13.915H29.8973V15.4484H1.39729V13.915ZM1.39729 16.9859H29.8973V18.5275H1.39729V16.9859ZM1.39729 20.0609H29.8973V21.6025H1.39729V20.0609Z" fill="#BD3D44"/>
<path fill-rule="evenodd" clip-rule="evenodd" d="M1.39744 3.14429H29.8974V4.68179H1.39744V3.14429ZM1.39744 6.21929H29.8974V7.75679H1.39744V6.21929ZM1.39744 9.29429H29.8974V10.836H1.39744V9.29429ZM1.39744 12.3735H29.8974V13.9151H1.39744V12.3735ZM1.39744 15.4485H29.8974V16.9901H1.39744V15.4485ZM1.39744 18.5235H29.8974V20.0651H1.39744V18.5235Z" fill="white"/>
<path fill-rule="evenodd" clip-rule="evenodd" d="M1.39729 1.60254H12.7973V12.3734H1.39729V1.60254Z" fill="#192F5D"/>
<path fill-rule="evenodd" clip-rule="evenodd" d="M2.34694 2.06079L2.45319 2.48996H2.78444L2.51569 2.75246L2.61881 3.18162L2.34694 2.91496L2.07819 3.17746L2.17819 2.75246L1.90631 2.48996H2.24694L2.34694 2.06079ZM4.24694 2.06079L4.35006 2.48996H4.68756L4.41569 2.75246L4.51569 3.18162L4.24694 2.91496L3.97506 3.17746L4.07819 2.75246L3.80944 2.48996H4.14069L4.24694 2.06079ZM6.14694 2.06079L6.25006 2.48996H6.58444L6.31569 2.75246L6.41881 3.18162L6.14694 2.91496L5.87506 3.17746L5.97819 2.75246L5.70631 2.48996H6.04381L6.14694 2.06079ZM8.04694 2.06079L8.15006 2.48996H8.48756L8.21569 2.75246L8.31881 3.18162L8.04694 2.91496L7.77506 3.17746L7.88131 2.75246L7.60631 2.48996H7.94069L8.04694 2.06079ZM9.94694 2.06079L10.0501 2.48996H10.3844L10.1157 2.75246L10.2188 3.18162L9.94694 2.91496L9.67506 3.17746L9.77819 2.75246L9.50944 2.48996H9.84381L9.94694 2.06079ZM11.8469 2.06079L11.9501 2.48996H12.2876L12.0126 2.75246L12.1188 3.18162L11.8469 2.91496L11.5751 3.17746L11.6813 2.75246L11.4063 2.48996H11.7438L11.8469 2.06079ZM3.29694 3.14412L3.40006 3.56912H3.74069L3.46881 3.82746L3.56881 4.25662L3.30319 3.99412L3.03131 4.25662L3.12819 3.82746L2.86569 3.56912H3.20006L3.29694 3.14412ZM5.19694 3.14412L5.30319 3.56912H5.63756L5.36256 3.82746L5.46881 4.25662L5.19694 3.99412L4.92506 4.25662L5.02819 3.82746L4.75631 3.56912H5.09381L5.19694 3.14412ZM7.09694 3.14412L7.20006 3.56912H7.53756L7.26569 3.82746L7.36881 4.25662L7.09694 3.99412L6.82506 4.25662L6.92819 3.82746L6.65944 3.56912H6.99069L7.09694 3.14412ZM8.99694 3.14412L9.10319 3.56912H9.43756L9.16256 3.82746L9.26881 4.25662L8.99694 3.99412L8.72819 4.25662L8.82819 3.82746L8.55631 3.56912H8.89694L8.99694 3.14412ZM10.8969 3.14412L11.0001 3.56912H11.3376L11.0657 3.82746L11.1688 4.25662L10.8969 3.99412L10.6251 4.25662L10.7282 3.82746L10.4594 3.56912H10.7938L10.8969 3.14412ZM2.34694 4.21079L2.45319 4.64412H2.78444L2.51569 4.90662L2.61881 5.33162L2.34694 5.06912L2.07819 5.33162L2.17819 4.90662L1.90631 4.64412H2.24694L2.34694 4.21079ZM4.24694 4.21079L4.35006 4.64412H4.68756L4.41569 4.90662L4.51569 5.33162L4.24694 5.06912L3.97506 5.33162L4.07819 4.90246L3.80944 4.63996H4.14069L4.24694 4.21079ZM6.14694 4.21079L6.25006 4.63996H6.58444L6.31569 4.90246L6.41881 5.32746L6.14694 5.06496L5.87506 5.32746L5.97819 4.89829L5.70631 4.63579H6.04381L6.14694 4.21079ZM8.04694 4.21079L8.15006 4.63996H8.48756L8.21569 4.90246L8.31881 5.32746L8.04694 5.06496L7.77506 5.32746L7.88131 4.89829L7.60631 4.63579H7.94069L8.04694 4.21079ZM9.94694 4.21079L10.0501 4.63996H10.3844L10.1157 4.90246L10.2188 5.32746L9.94694 5.06496L9.67506 5.32746L9.77819 4.89829L9.50944 4.63579H9.84381L9.94694 4.21079ZM11.8469 4.21079L11.9501 4.63996H12.2876L12.0126 4.90246L12.1188 5.32746L11.8469 5.06496L11.5751 5.32746L11.6813 4.89829L11.4063 4.63579H11.7438L11.8469 4.21079ZM3.29694 5.29412L3.40006 5.71912H3.74069L3.46881 5.98162L3.57194 6.41079L3.30006 6.14412L3.02819 6.40662L3.13131 5.98162L2.86256 5.71912H3.19694L3.29694 5.29412ZM5.19694 5.29412L5.30319 5.71912H5.63756L5.36256 5.98162L5.46881 6.41079L5.19694 6.14412L4.92506 6.40662L5.02819 5.98162L4.75631 5.71912H5.09381L5.19694 5.29412ZM7.09694 5.29412L7.20006 5.71912H7.53756L7.26569 5.98162L7.36881 6.41079L7.09694 6.14412L6.82506 6.40662L6.92819 5.98162L6.65944 5.71912H6.99069L7.09694 5.29412ZM8.99694 5.29412L9.10319 5.71912H9.43756L9.16569 5.98162L9.26881 6.41079L8.99694 6.14412L8.72819 6.40662L8.82819 5.98162L8.55631 5.71912H8.89694L8.99694 5.29412ZM10.8969 5.29412L11.0001 5.71912H11.3376L11.0657 5.98162L11.1688 6.41079L10.8969 6.14412L10.6251 6.40662L10.7282 5.98162L10.4594 5.71912H10.7938L10.8969 5.29412ZM2.34694 6.37329L2.45319 6.79829H2.78444L2.51569 7.06079L2.61881 7.48996L2.34694 7.22329L2.07819 7.48579L2.17819 7.06079L1.90631 6.79829H2.24694L2.34694 6.37329ZM4.24694 6.37329L4.35006 6.79829H4.68756L4.41569 7.06079L4.51569 7.48579L4.24694 7.22329L3.97506 7.48579L4.07819 7.06079L3.80944 6.79829H4.14069L4.24694 6.37329ZM6.14694 6.37329L6.25006 6.79829H6.58444L6.31569 7.06079L6.41881 7.48996L6.14694 7.22329L5.87506 7.48579L5.97819 7.06079L5.70631 6.79829H6.04381L6.14694 6.37329ZM8.04694 6.37329L8.15006 6.79829H8.48756L8.21569 7.06079L8.31881 7.48996L8.04694 7.22329L7.77506 7.48579L7.88131 7.06079L7.60631 6.79829H7.94069L8.04694 6.37329ZM9.94694 6.37329L10.0501 6.79829H10.3844L10.1157 7.06079L10.2188 7.48996L9.94694 7.22329L9.67506 7.48579L9.77819 7.06079L9.50944 6.79829H9.84381L9.94694 6.37329ZM11.8469 6.37329L11.9501 6.79829H12.2876L12.0126 7.06079L12.1188 7.48996L11.8469 7.22329L11.5751 7.48579L11.6782 7.06079L11.4032 6.79829H11.7407L11.8469 6.37329ZM3.29694 7.44829L3.40006 7.87746H3.74069L3.46881 8.13579L3.57194 8.56496L3.30006 8.29829L3.02819 8.56496L3.13131 8.13579L2.86256 7.87329H3.19694L3.29694 7.44829ZM5.19694 7.44829L5.30319 7.87746H5.63756L5.36256 8.13579L5.46881 8.56496L5.19694 8.29829L4.92506 8.56496L5.02819 8.13579L4.75631 7.87329H5.09381L5.19694 7.44829ZM7.09694 7.44829L7.20006 7.87746H7.53756L7.26569 8.13579L7.36881 8.56496L7.09694 8.29829L6.82506 8.56496L6.92819 8.13579L6.65944 7.87329H6.99069L7.09694 7.44829ZM8.99694 7.44829L9.10319 7.87746H9.43756L9.16569 8.13579L9.26881 8.56496L8.99694 8.29829L8.72819 8.56496L8.82819 8.13579L8.55631 7.87329H8.89694L8.99694 7.44829ZM10.8969 7.44829L11.0001 7.87746H11.3376L11.0657 8.13579L11.1688 8.56496L10.8969 8.29829L10.6251 8.56496L10.7282 8.13579L10.4594 7.87329H10.7938L10.8969 7.44829ZM2.34694 8.52329L2.45319 8.95246H2.78444L2.51569 9.21496L2.61881 9.63579L2.34694 9.37746L2.07819 9.63579L2.17819 9.21079L1.90631 8.94829H2.24694L2.34694 8.52329ZM4.24694 8.52329L4.35006 8.95246H4.68756L4.41569 9.21496L4.51881 9.63579L4.24694 9.37746L3.97506 9.63579L4.08131 9.21079L3.80944 8.94829H4.14069L4.24694 8.52329ZM6.14694 8.52329L6.25006 8.95246H6.58444L6.31569 9.21496L6.41881 9.63579L6.14694 9.37746L5.87506 9.63579L5.97819 9.21079L5.70631 8.94829H6.04381L6.14694 8.52329ZM8.04694 8.52329L8.15006 8.95246H8.48756L8.21569 9.21496L8.31881 9.63579L8.04694 9.37746L7.77506 9.63579L7.88131 9.21079L7.60631 8.94829H7.94069L8.04694 8.52329ZM9.94694 8.52329L10.0501 8.95246H10.3844L10.1157 9.21496L10.2188 9.63579L9.94694 9.37746L9.67506 9.63579L9.77819 9.21079L9.50944 8.94829H9.84381L9.94694 8.52329ZM11.8469 8.52329L11.9501 8.95246H12.2876L12.0126 9.21496L12.1188 9.63579L11.8469 9.37746L11.5751 9.63579L11.6813 9.21079L11.4063 8.94829H11.7438L11.8469 8.52329ZM3.29694 9.60246L3.40006 10.0275H3.74069L3.46881 10.29L3.57194 10.7191L3.30006 10.4525L3.02819 10.715L3.13131 10.29L2.86256 10.0275H3.19694L3.29694 9.60246ZM5.19694 9.60246L5.30319 10.0275H5.63756L5.36256 10.29L5.46881 10.7191L5.19694 10.4525L4.92506 10.715L5.02819 10.29L4.75631 10.0275H5.09381L5.19694 9.60246ZM7.09694 9.60246L7.20006 10.0275H7.53756L7.26569 10.29L7.36881 10.7191L7.09694 10.4525L6.82506 10.715L6.92819 10.29L6.65944 10.0275H6.99069L7.09694 9.60246ZM8.99694 9.60246L9.10319 10.0275H9.43756L9.16569 10.29L9.26881 10.7191L8.99694 10.4525L8.72819 10.715L8.82819 10.29L8.55631 10.0275H8.89694L8.99694 9.60246ZM10.8969 9.60246L11.0001 10.0275H11.3376L11.0657 10.29L11.1688 10.7191L10.8969 10.4525L10.6251 10.715L10.7282 10.29L10.4594 10.0275H10.7938L10.8969 9.60246ZM2.34694 10.6816L2.45319 11.1066H2.78444L2.51569 11.3691L2.61881 11.7941L2.34694 11.5316L2.07819 11.7941L2.17819 11.365L1.90631 11.1025H2.24694L2.34694 10.6816ZM4.24694 10.6816L4.35006 11.1066H4.68756L4.41569 11.3691L4.51881 11.7941L4.24694 11.5316L3.97506 11.7941L4.08131 11.365L3.80944 11.1025H4.14069L4.24694 10.6816ZM6.14694 10.6816L6.25006 11.1066H6.58444L6.32194 11.3691L6.42506 11.7941L6.15319 11.5316L5.88131 11.7941L5.98444 11.365L5.71256 11.1025H6.05006L6.14694 10.6816ZM8.04694 10.6816L8.15006 11.1066H8.48756L8.21569 11.3691L8.31881 11.7941L8.04694 11.5316L7.77506 11.7941L7.88131 11.365L7.60631 11.1025H7.94069L8.04694 10.6816ZM9.94694 10.6816L10.0501 11.1066H10.3844L10.1157 11.3691L10.2188 11.7941L9.94694 11.5316L9.67506 11.7941L9.77819 11.365L9.50944 11.1025H9.84381L9.94694 10.6816ZM11.8469 10.6816L11.9501 11.1066H12.2876L12.0126 11.3691L12.1188 11.7941L11.8469 11.5316L11.5751 11.7941L11.6813 11.365L11.4063 11.1025H11.7438L11.8469 10.6816Z" fill="white"/>
</g>
<rect x="0.897285" y="1.10254" width="21" height="21" rx="10.5" stroke="white"/>
<defs>
<clipPath id="clip0_674_1788">
<rect x="1.39729" y="1.60254" width="20" height="20" rx="10" fill="white"/>
</clipPath>
</defs>
</svg>
