<svg width="1440" height="579" viewBox="0 0 1440 579" fill="none" xmlns="http://www.w3.org/2000/svg">
<g clip-path="url(#clip0_1681_9053)">
<g opacity="0.2">
<path d="M1043.45 65.2573C1056.43 64.7574 1067.7 66.665 1075.91 70.938L1075.91 70.939C1082.71 74.4557 1087.12 79.5815 1088.78 85.6597V85.6606C1091.66 96.1475 1086.43 108.905 1073.39 121.634C1060.98 133.731 1042.99 144.404 1022.73 151.585L1022.72 151.586C1014.01 154.698 1005.34 156.974 997.036 158.428C977.147 161.914 959.505 160.606 947.885 154.573H947.884C941.091 151.057 936.681 145.93 935.014 139.852V139.851C932.178 129.528 937.208 117.004 949.802 104.473L950.407 103.876C962.82 91.7796 980.808 81.1066 1001.07 73.9253H1001.07C1015.89 68.6565 1030.49 65.7567 1043.45 65.2573ZM1032.82 89.9233C1025.71 88.9073 1016.7 89.9078 1007.35 93.0991L1006.44 93.4146C996.77 96.8557 988.536 102.006 983.042 107.594C977.595 113.134 974.629 119.34 976.122 124.809C977.629 130.333 983.249 133.562 990.537 134.603C997.88 135.652 1007.24 134.552 1016.91 131.112L1016.91 131.113C1026.59 127.688 1034.83 122.545 1040.32 116.957C1045.77 111.416 1048.73 105.202 1047.24 99.7173C1045.73 94.1935 1040.11 90.9641 1032.82 89.9233Z" stroke="#015FA2" stroke-width="2"/>
<path d="M1190.52 44.3452C1202.07 38.3988 1213.09 35.3582 1222.34 35.7524H1222.34C1229.98 36.0639 1236.15 38.8414 1240.23 43.6431H1240.23C1247.17 51.7947 1247.92 65.2713 1241.81 81.9546L1241.51 82.7515C1235.39 98.9653 1223.61 116.249 1208.29 131.332L1208.29 131.333C1201.71 137.842 1194.82 143.571 1187.91 148.405C1171.36 159.98 1154.83 166.264 1141.75 165.716H1141.74C1134.1 165.406 1127.94 162.628 1123.85 157.826V157.825L1123.53 157.433C1116.79 149.114 1116.25 135.502 1122.57 118.717C1128.7 102.503 1140.48 85.2201 1155.8 70.1372V70.1362C1166.99 59.0916 1178.99 50.2852 1190.52 44.3452ZM1208.54 73.9644C1204.84 69.5979 1198.38 69.0503 1191.34 71.1919C1184.24 73.3499 1176.22 78.31 1168.91 85.52C1161.61 92.7318 1156.33 100.884 1153.71 108.273C1151.12 115.597 1151.06 122.474 1154.73 126.797C1158.43 131.164 1164.89 131.711 1171.94 129.57C1179.03 127.412 1187.05 122.451 1194.36 115.241C1201.67 108.043 1206.96 99.8981 1209.57 92.5093C1212.16 85.1836 1212.22 78.3006 1208.54 73.9644H1208.54Z" stroke="#015FA2" stroke-width="2"/>
<path d="M1353.99 24.5771C1361.31 21.3789 1368.7 21.0973 1375.33 23.6641H1375.33C1386.59 28.0148 1394.99 40.1081 1398.81 58.1582L1398.99 59.0215C1402.52 76.6703 1401.39 97.8681 1395.69 118.658L1395.69 118.66C1393.41 127.061 1390.49 134.954 1387.09 142.147L1386.4 143.576C1377.56 161.707 1365.71 174.99 1353.17 180.448L1353.17 180.449C1345.85 183.648 1338.46 183.929 1331.83 181.362H1331.83C1320.57 177.011 1312.17 164.918 1308.35 146.868L1308.17 146.005C1304.64 128.356 1305.78 107.159 1311.47 86.3682V86.3672C1319.79 55.8718 1336.21 32.3064 1353.99 24.5781L1353.99 24.5771ZM1363.07 65.9121C1357.23 63.6434 1350.91 66.0204 1345.51 71.2305C1340.1 76.456 1335.43 84.6739 1332.72 94.625C1330 104.579 1329.73 114.465 1331.5 122.428C1333.27 130.346 1337.14 136.592 1342.92 138.838C1348.76 141.107 1355.08 138.73 1360.48 133.521C1365.9 128.295 1370.57 120.076 1373.28 110.125L1373.28 110.124C1376.01 100.178 1376.29 90.2964 1374.52 82.334C1372.8 74.6618 1369.11 68.558 1363.61 66.1348L1363.07 65.9121Z" stroke="#015FA2" stroke-width="2"/>
<path d="M753.796 74.0249C769.736 67.2145 790.36 63.7412 811.85 64.3452H811.851C827.57 64.7701 842.233 67.3261 854.506 71.5327C866.793 75.744 876.617 81.5855 882.74 88.5317L882.74 88.5337C887.809 94.2618 890.075 100.632 889.439 106.902V106.903C888.365 117.555 879.157 127.424 862.893 134.574L862.115 134.912C846.176 141.722 825.55 145.195 804.061 144.591H804.059C794.804 144.351 785.903 143.351 777.63 141.715C757.822 137.798 741.837 130.22 733.172 120.404H733.171C728.261 114.854 725.982 108.702 726.422 102.623L726.473 102.035C727.564 91.2134 737.047 81.1989 753.795 74.0239L753.796 74.0249ZM809.836 84.4604C799.574 84.1846 790.037 86.0221 782.898 89.2544C775.821 92.4586 770.818 97.1781 770.24 102.818C769.655 108.514 773.733 113.551 780.156 117.148C786.627 120.773 795.759 123.122 806.019 123.398V123.399C816.278 123.691 825.815 121.862 832.954 118.629C840.033 115.425 845.035 110.697 845.617 105.042V105.042C846.202 99.3457 842.124 94.3086 835.701 90.7114C829.229 87.0865 820.097 84.7363 809.836 84.4604Z" stroke="#015FA2" stroke-width="2"/>
<path d="M751.916 206.401C766.716 193.292 785.813 186.646 805.675 187.803L805.678 187.804C834.743 189.432 859.981 207.394 871.534 234.563L871.535 234.565C876.333 245.809 878.542 258.477 877.925 271.075V271.076C876.869 292.778 867.747 312.287 852.243 326.055C837.442 339.165 818.344 345.813 798.482 344.656L798.478 344.655L797.677 344.608C789.405 344.073 781.444 342.18 774.024 339.138C755.722 331.634 740.789 317.069 732.624 297.894V297.893L732.182 296.834C727.834 286.211 725.77 274.377 726.183 262.564L726.233 261.382C727.288 239.681 736.41 220.17 751.916 206.401ZM803.862 228.519C784.376 227.433 767.867 242.996 766.866 263.189C765.867 283.374 780.761 300.772 800.241 301.859V301.86C819.726 303.01 836.235 287.441 837.241 267.19C838.241 247.003 823.344 229.604 803.862 228.519Z" stroke="#015FA2" stroke-width="2"/>
<path d="M992.856 186.856C1019.03 184.727 1044.18 199.198 1058.42 224.625L1058.42 224.626C1064.14 234.816 1067.87 246.648 1069.23 258.799L1069.35 259.976C1071.51 281.624 1066.11 302.121 1054.19 317.739C1042.81 332.609 1026.69 341.621 1008.79 343.034H1008.79C1001.08 343.678 993.448 342.848 986.156 340.733C968.733 335.678 953.284 323.205 943.229 305.264V305.263L942.681 304.272C937.088 293.978 933.496 282.084 932.289 269.915V269.914C930.139 248.266 935.538 227.769 947.455 212.151L947.456 212.152C958.834 197.282 974.956 188.27 992.853 186.857L992.856 186.856ZM1032.44 260.408C1030.08 240.854 1014.52 225.96 997.056 227.388C979.296 228.839 966.782 246.477 968.754 266.496C970.727 286.506 986.504 301.9 1004.25 300.45L1004.25 300.449C1021.73 299.082 1034.13 281.968 1032.63 262.282L1032.55 261.342L1032.44 260.408Z" stroke="#015FA2" stroke-width="2"/>
<path d="M1137.58 201.506C1155.24 189.708 1180.86 192.227 1204.42 208.42L1204.42 208.421C1214.17 215.104 1223.29 224.097 1230.73 234.327C1243.55 251.956 1250.28 271.505 1249.76 289.378C1249.25 306.4 1242.29 320.181 1230.19 328.206L1230.19 328.208C1224.99 331.701 1219.09 333.921 1212.75 334.927C1197.6 337.334 1179.96 332.706 1163.35 321.294L1163.34 321.293C1153.9 314.818 1145.05 306.176 1137.74 296.342L1137.04 295.387C1124.22 277.758 1117.49 258.209 1118 240.336C1118.51 223.314 1125.48 209.533 1137.57 201.508L1137.58 201.506ZM1183.62 232.768C1175.81 230.004 1167.84 230.232 1161.69 234.341C1155.53 238.457 1152.52 245.556 1152.51 253.56C1152.5 261.312 1155.28 269.987 1160.81 277.898L1161.36 278.662C1167.25 286.776 1175.02 292.565 1182.84 295.332C1190.65 298.095 1198.62 297.867 1204.77 293.757C1210.94 289.668 1213.96 282.582 1213.97 274.579C1213.98 266.576 1211 257.577 1205.1 249.439C1199.2 241.324 1191.44 235.535 1183.62 232.768Z" stroke="#015FA2" stroke-width="2"/>
<path d="M1274.53 229.923C1285.04 211.464 1309.08 202.246 1337.4 206.175H1337.4C1349.1 207.787 1361.29 211.743 1372.52 217.561L1372.52 217.562C1391.87 227.583 1406.64 242.049 1414.19 258.259V258.26C1421.36 273.709 1421.3 289.151 1414.07 301.741L1414.07 301.747C1410.99 307.196 1406.7 311.825 1401.49 315.563C1389.02 324.498 1371.18 328.255 1351.21 325.492H1351.21C1339.5 323.88 1327.32 319.923 1316.09 314.106C1296.73 304.083 1281.96 289.617 1274.41 273.406H1274.41C1267.25 257.959 1267.31 242.516 1274.53 229.925L1274.53 229.923ZM1356.37 242.549C1347.46 237.932 1337.93 236.232 1329.7 237.26C1321.47 238.286 1314.45 242.058 1310.79 248.485C1307.13 254.922 1307.62 262.617 1311.19 269.78C1314.76 276.941 1321.44 283.645 1330.34 288.262C1339.24 292.879 1348.78 294.579 1357.01 293.552C1365.23 292.525 1372.26 288.753 1375.92 282.326L1375.92 282.325C1379.6 275.904 1379.13 268.216 1375.56 261.054C1371.99 253.892 1365.29 247.181 1356.37 242.549H1356.37Z" stroke="#015FA2" stroke-width="2"/>
<path d="M1043.45 410.866C1056.43 410.366 1067.7 412.274 1075.91 416.547L1075.91 416.548C1082.49 419.955 1086.84 424.871 1088.62 430.701L1088.78 431.268C1091.66 441.756 1086.43 454.514 1073.39 467.244C1060.98 479.34 1042.99 490.014 1022.73 497.195L1022.72 497.196C1014.01 500.307 1005.34 502.582 997.036 504.038C977.147 507.522 959.505 506.215 947.885 500.182L947.884 500.181L947.254 499.847C941.026 496.456 936.902 491.669 935.179 486.028L935.014 485.46C932.133 474.973 937.368 462.214 950.406 449.484L950.407 449.485C962.82 437.389 980.808 426.715 1001.07 419.534H1001.07C1015.89 414.265 1030.49 411.365 1043.45 410.866ZM1032.82 435.533C1025.48 434.484 1016.11 435.583 1006.44 439.023C996.77 442.464 988.536 447.614 983.042 453.203C977.595 458.742 974.629 464.949 976.122 470.418C977.629 475.942 983.249 479.171 990.537 480.211C997.88 481.26 1007.24 480.161 1016.91 476.721L1016.91 476.722C1026.59 473.297 1034.83 468.154 1040.32 462.565C1045.6 457.197 1048.54 451.198 1047.36 445.842L1047.24 445.326C1045.73 439.802 1040.11 436.573 1032.82 435.533Z" stroke="#015FA2" stroke-width="2"/>
<path d="M1190.52 389.955C1202.07 384.009 1213.09 380.969 1222.34 381.363H1222.34C1229.98 381.674 1236.15 384.452 1240.23 389.254H1240.23C1247.28 397.534 1247.94 411.31 1241.51 428.36C1235.39 444.575 1223.61 461.858 1208.29 476.94L1208.29 476.942C1201.71 483.452 1194.82 489.181 1187.91 494.016C1171.36 505.591 1154.83 511.874 1141.75 511.327H1141.74C1134.1 511.015 1127.94 508.237 1123.85 503.437V503.436C1116.8 495.154 1116.15 481.378 1122.57 464.328C1128.7 448.114 1140.48 430.831 1155.8 415.748V415.747C1166.99 404.702 1178.99 395.895 1190.52 389.955ZM1208.54 419.574C1204.84 415.208 1198.38 414.661 1191.34 416.803C1184.24 418.961 1176.22 423.921 1168.91 431.131C1161.61 438.342 1156.33 446.494 1153.71 453.883C1151.12 461.207 1151.06 468.085 1154.73 472.408C1158.43 476.774 1164.89 477.321 1171.94 475.18C1179.03 473.022 1187.05 468.063 1194.36 460.854C1201.67 453.655 1206.96 445.509 1209.57 438.12C1212.16 430.795 1212.22 423.912 1208.54 419.575L1208.54 419.574Z" stroke="#015FA2" stroke-width="2"/>
<path d="M1353.99 370.187C1361.31 366.989 1368.7 366.706 1375.33 369.272L1375.33 369.273C1386.59 373.625 1394.99 385.718 1398.81 403.768L1398.99 404.631C1402.52 422.28 1401.39 443.478 1395.69 464.269V464.271C1393.41 472.67 1390.49 480.562 1387.09 487.756L1386.4 489.186C1377.56 507.316 1365.71 520.599 1353.17 526.058H1353.17C1345.85 529.256 1338.46 529.538 1331.83 526.972H1331.83C1320.57 522.622 1312.17 510.529 1308.35 492.478L1308.17 491.613C1304.64 473.965 1305.78 452.768 1311.47 431.978V431.977C1319.79 401.48 1336.21 377.916 1353.99 370.188L1353.99 370.187ZM1363.07 411.521C1357.23 409.253 1350.91 411.63 1345.51 416.84C1340.1 422.065 1335.43 430.283 1332.72 440.233C1330 450.188 1329.73 460.075 1331.5 468.037C1333.27 475.956 1337.14 482.202 1342.92 484.448C1348.76 486.717 1355.08 484.34 1360.48 479.13C1365.9 473.904 1370.57 465.685 1373.28 455.734L1373.28 455.733C1376.01 445.788 1376.29 435.907 1374.52 427.944C1372.8 420.272 1369.11 414.168 1363.61 411.745L1363.07 411.521Z" stroke="#015FA2" stroke-width="2"/>
<path d="M753.796 419.635C769.736 412.823 790.36 409.352 811.85 409.956H811.851C827.57 410.381 842.233 412.937 854.506 417.144C866.793 421.355 876.617 427.197 882.74 434.143L882.74 434.144C887.809 439.872 890.075 446.242 889.439 452.512V452.513C888.365 463.165 879.157 473.035 862.893 480.185L862.115 480.522C846.176 487.332 825.55 490.806 804.061 490.202H804.059C794.804 489.961 785.903 488.962 777.63 487.325C757.822 483.409 741.837 475.831 733.172 466.015L733.171 466.014L732.704 465.475C727.964 459.888 725.857 453.719 726.473 447.646V447.645C727.564 436.823 737.048 426.81 753.796 419.635ZM809.836 430.071C799.574 429.795 790.037 431.632 782.898 434.864C775.821 438.068 770.818 442.789 770.24 448.429C769.655 454.125 773.733 459.162 780.156 462.759C786.627 466.383 795.759 468.732 806.019 469.009V469.01C816.278 469.302 825.815 467.473 832.954 464.24C840.033 461.036 845.035 456.308 845.617 450.653V450.652C846.202 444.957 842.124 439.919 835.701 436.322C829.229 432.697 820.097 430.347 809.836 430.071Z" stroke="#015FA2" stroke-width="2"/>
<path d="M751.916 552.013C766.716 538.904 785.813 532.255 805.675 533.413H805.678C834.743 535.042 859.982 553.005 871.534 580.174L871.535 580.175C876.183 591.068 878.4 603.298 877.974 615.504L877.925 616.686C876.87 638.388 867.747 657.896 852.243 671.666C837.442 684.775 818.344 691.423 798.482 690.266H798.478C790.187 689.82 782.199 688.008 774.744 685.039L774.024 684.748C755.722 677.245 740.789 662.678 732.624 643.504V643.503C727.825 632.26 725.616 619.591 726.233 606.994V606.993C727.288 585.291 736.41 565.781 751.916 552.013ZM802.951 574.089C783.864 573.531 767.851 588.923 766.866 608.8C765.868 628.984 780.761 646.381 800.241 647.469V647.47C819.726 648.621 836.235 633.052 837.241 612.799V612.798C838.225 592.928 823.805 575.759 804.772 574.191L803.862 574.128L802.951 574.089Z" stroke="#015FA2" stroke-width="2"/>
<path d="M992.856 532.467C1019.03 530.337 1044.18 544.809 1058.42 570.237L1058.42 570.238C1064.32 580.756 1068.11 593.023 1069.35 605.586C1071.51 627.232 1066.11 647.729 1054.19 663.347C1042.81 678.219 1026.69 687.231 1008.79 688.643H1008.79C1001.08 689.289 993.449 688.457 986.156 686.342C968.733 681.288 953.284 668.814 943.229 650.874V650.873L942.681 649.881C937.268 639.92 933.73 628.459 932.413 616.701L932.289 615.523L932.194 614.509C930.309 593.238 935.724 573.135 947.455 557.761L947.456 557.762C958.834 542.891 974.956 533.879 992.853 532.467H992.856ZM1032.55 606.952C1030.57 586.941 1014.8 571.549 997.056 572.998C979.296 574.448 966.782 592.086 968.754 612.106C970.727 632.117 986.504 647.509 1004.25 646.06L1004.25 646.059C1022.01 644.671 1034.52 627.029 1032.55 606.952Z" stroke="#015FA2" stroke-width="2"/>
<path d="M1137.58 547.115C1155.24 535.317 1180.86 537.835 1204.42 554.029L1204.42 554.03C1214.17 560.713 1223.29 569.707 1230.73 579.937C1243.55 597.564 1250.28 617.114 1249.76 634.987C1249.25 652.009 1242.29 665.79 1230.19 673.815L1230.19 673.819C1224.99 677.31 1219.09 679.531 1212.75 680.538C1197.6 682.944 1179.96 678.315 1163.35 666.903L1163.34 666.902C1153.9 660.428 1145.05 651.785 1137.74 641.951L1137.04 640.996C1124.22 623.368 1117.49 603.818 1118 585.945C1118.51 568.924 1125.48 555.142 1137.57 547.117L1137.58 547.115ZM1183.62 578.378C1175.81 575.614 1167.84 575.841 1161.69 579.951C1155.53 584.067 1152.52 591.165 1152.51 599.169C1152.5 606.921 1155.28 615.596 1160.81 623.507L1161.36 624.271C1167.25 632.385 1175.02 638.175 1182.84 640.941C1190.65 643.705 1198.61 643.477 1204.76 639.37L1204.76 639.371C1210.94 635.281 1213.96 628.193 1213.97 620.188C1213.98 612.186 1211 603.187 1205.1 595.048C1199.2 586.933 1191.44 581.145 1183.62 578.378Z" stroke="#015FA2" stroke-width="2"/>
<path d="M1274.53 575.533C1285.04 557.074 1309.08 547.856 1337.4 551.785H1337.4C1349.1 553.397 1361.29 557.353 1372.52 563.171L1372.52 563.172C1391.87 573.194 1406.64 587.659 1414.19 603.869V603.87C1421.36 619.319 1421.3 634.761 1414.07 647.352L1414.07 647.357C1410.99 652.806 1406.7 657.435 1401.49 661.174C1389.02 670.108 1371.18 673.865 1351.21 671.103H1351.21C1339.5 669.491 1327.32 665.534 1316.09 659.717C1296.73 649.693 1281.96 635.227 1274.41 619.017H1274.41C1267.25 603.569 1267.31 588.126 1274.53 575.535L1274.53 575.533ZM1356.37 588.159C1347.46 583.542 1337.93 581.843 1329.7 582.87C1321.47 583.897 1314.45 587.668 1310.79 594.096C1307.13 600.532 1307.62 608.228 1311.19 615.391C1314.76 622.552 1321.44 629.256 1330.34 633.872C1339.24 638.49 1348.78 640.19 1357.01 639.162C1365.23 638.135 1372.26 634.364 1375.92 627.937L1375.92 627.936C1379.6 621.514 1379.13 613.826 1375.56 606.664C1371.99 599.503 1365.29 592.791 1356.37 588.159H1356.37Z" stroke="#015FA2" stroke-width="2"/>
<path d="M364.583 70.939C372.798 66.6661 384.067 64.7574 397.046 65.2573C410.01 65.7567 424.608 68.6566 439.424 73.9253H439.425C459.054 80.8822 476.549 91.1159 488.909 102.747L490.089 103.876C503.126 116.606 508.364 129.364 505.481 139.851V139.852C503.815 145.93 499.405 151.057 492.614 154.573H492.613C480.991 160.606 463.348 161.914 443.461 158.428C435.155 156.974 426.491 154.698 417.772 151.586L417.769 151.585C397.507 144.404 379.518 133.731 367.105 121.634C354.068 108.905 348.831 96.1474 351.714 85.6606V85.6597C353.38 79.5815 357.79 74.4557 364.581 70.939H364.583ZM433.148 93.0991C423.8 89.9076 414.788 88.9073 407.674 89.9233C400.614 90.9317 395.12 93.9941 393.413 99.2065L393.26 99.7173C391.765 105.202 394.727 111.416 400.175 116.957C405.67 122.545 413.906 127.688 423.582 131.113V131.112C433.251 134.552 442.616 135.652 449.959 134.603C457.246 133.562 462.866 130.333 464.374 124.809C465.866 119.34 462.902 113.134 457.455 107.594C452.132 102.181 444.237 97.1777 434.956 93.7417L434.053 93.4146L433.148 93.0991Z" stroke="#015FA2" stroke-width="2"/>
<path d="M218.149 35.7524C227.4 35.3581 238.418 38.3987 249.966 44.3452C261.501 50.2852 273.499 59.0917 284.691 70.1362L284.692 70.1372C300.011 85.2201 311.791 102.503 317.916 118.717C324.341 135.768 323.686 149.544 316.636 157.825L316.635 157.826C312.553 162.628 306.387 165.406 298.746 165.716H298.745C285.663 166.264 269.126 159.98 252.581 148.405C245.672 143.571 238.786 137.842 232.203 131.333L232.201 131.332L230.775 129.911C216.152 115.169 204.911 98.4585 198.978 82.7515H198.979C192.653 65.9669 193.189 52.3559 199.933 44.0356L200.259 43.6431C204.341 38.8415 210.506 36.0639 218.147 35.7524H218.149ZM249.154 71.1919C242.332 69.1173 236.058 69.5661 232.305 73.5659L231.949 73.9644C228.273 78.3006 228.327 85.1835 230.918 92.5093C233.449 99.6676 238.489 107.536 245.453 114.565L246.133 115.243C253.437 122.452 261.457 127.412 268.554 129.57C275.597 131.711 282.055 131.164 285.758 126.797C289.425 122.474 289.366 115.597 286.776 108.273C284.163 100.884 278.883 92.7317 271.576 85.52C264.271 78.3097 256.251 73.3499 249.154 71.1919Z" stroke="#015FA2" stroke-width="2"/>
<path d="M65.1641 23.6641C71.7922 21.0974 79.1828 21.3791 86.5039 24.5771L86.5059 24.5781C104.29 32.3062 120.705 55.8716 129.022 86.3672L129.023 86.3682C134.721 107.159 135.858 128.356 132.321 146.005C128.59 164.532 120.103 176.942 108.667 181.362H108.666C102.038 183.929 94.6472 183.648 87.3262 180.449L87.3252 180.448L86.7383 180.187C74.4206 174.573 62.7985 161.424 54.0947 143.576C50.4015 136.003 47.2402 127.62 44.8076 118.66V118.658L44.2861 116.708C39.043 96.5465 38.0839 76.1186 41.5098 59.0215C45.2407 40.4936 53.7269 28.0838 65.1631 23.6641H65.1641ZM94.9824 71.2305C89.5845 66.0204 83.2653 63.6434 77.4238 65.9121H77.4229C71.6243 68.1663 67.7488 74.4145 65.9795 82.334C64.2005 90.2971 64.4858 100.18 67.2158 110.127V110.126C69.9283 120.077 74.5988 128.295 80.0127 133.521C85.4106 138.73 91.7299 141.107 97.5713 138.838C103.355 136.592 107.222 130.346 108.991 122.428C110.77 114.465 110.493 104.579 107.779 94.625C105.067 84.6739 100.396 76.456 94.9824 71.2305Z" stroke="#015FA2" stroke-width="2"/>
<path d="M628.643 64.3452C650.133 63.7412 670.759 67.2136 686.697 74.0239C703.446 81.1989 712.93 91.2126 714.02 102.034V102.035C714.637 108.109 712.529 114.277 707.79 119.865L707.323 120.404C698.656 130.22 682.671 137.798 662.863 141.715C654.591 143.351 645.689 144.351 636.434 144.591H636.432C614.942 145.195 594.317 141.722 578.378 134.912H578.377C561.629 127.737 552.147 117.724 551.056 106.903V106.902L551.004 106.314C550.563 100.235 552.843 94.083 557.753 88.5337L557.755 88.5317C563.878 81.5855 573.702 75.744 585.989 71.5327C598.262 67.3261 612.924 64.7701 628.642 64.3452H628.643ZM657.596 89.2544C650.457 86.0221 640.919 84.1846 630.657 84.4604C620.397 84.7363 611.264 87.0866 604.792 90.7114C598.37 94.3086 594.291 99.3458 594.875 105.042V105.042C595.458 110.697 600.461 115.425 607.54 118.629C614.68 121.862 624.216 123.691 634.475 123.399L634.474 123.398C644.734 123.122 653.866 120.773 660.337 117.148C666.76 113.551 670.839 108.514 670.254 102.818C669.675 97.1783 664.673 92.4586 657.596 89.2544Z" stroke="#015FA2" stroke-width="2"/>
<path d="M634.815 187.803C654.677 186.646 673.774 193.292 688.574 206.401V206.402C703.837 219.956 712.915 239.073 714.202 260.367L714.257 261.382C714.875 273.98 712.666 286.649 707.867 297.893L707.866 297.894C699.701 317.068 684.768 331.634 666.466 339.138C658.807 342.278 650.571 344.194 642.012 344.655L642.007 344.656C622.145 345.813 603.048 339.165 588.247 326.055C572.743 312.288 563.621 292.778 562.566 271.076V271.075L562.516 269.894C562.089 257.687 564.308 245.457 568.956 234.565V234.563C580.508 207.393 605.748 189.432 634.813 187.804L634.815 187.803ZM637.539 228.48L636.628 228.519C617.146 229.604 602.25 247.003 603.25 267.19C604.256 287.441 620.764 303.009 640.249 301.859C659.729 300.772 674.622 283.375 673.624 263.189C672.639 243.312 656.626 227.92 637.539 228.48Z" stroke="#015FA2" stroke-width="2"/>
<path d="M382.078 224.625C396.313 199.198 421.464 184.727 447.639 186.856L447.641 186.857C465.537 188.27 481.659 197.281 493.037 212.15V212.151C504.954 227.769 510.356 248.266 508.204 269.914V269.915C506.96 282.477 503.172 294.745 497.266 305.263V305.264C487.21 323.205 471.761 335.678 454.339 340.733C447.046 342.848 439.417 343.678 431.707 343.034H431.702C414.085 341.643 398.188 332.888 386.844 318.431L386.307 317.739C374.575 302.365 369.158 282.263 371.044 260.99L371.14 259.976C372.384 247.414 376.173 235.145 382.078 224.626V224.625ZM443.439 227.388C425.973 225.96 410.413 240.854 408.05 260.408L407.948 261.342C405.971 281.419 418.48 299.06 436.247 300.449V300.45C453.99 301.9 469.767 286.507 471.739 266.496C473.682 246.79 461.586 229.391 444.267 227.468L443.439 227.388Z" stroke="#015FA2" stroke-width="2"/>
<path d="M236.077 208.42C259.637 192.226 285.256 189.708 302.922 201.506L302.925 201.508C315.02 209.533 321.987 223.314 322.497 240.336C323.001 257.929 316.486 277.147 304.054 294.559L303.458 295.387C296.023 305.617 286.898 314.609 277.152 321.293V321.294C260.533 332.706 242.9 337.334 227.749 334.927C221.41 333.921 215.505 331.701 210.31 328.208L210.304 328.206L209.742 327.825C198.18 319.877 191.45 306.565 190.761 290.174L190.733 289.378C190.22 271.505 196.951 251.956 209.772 234.327C217.207 224.097 226.33 215.104 236.076 208.421L236.077 208.42ZM278.809 234.341C272.661 230.232 264.692 230.004 256.879 232.768C249.06 235.535 241.295 241.324 235.402 249.439H235.401C229.492 257.577 226.513 266.576 226.526 274.579C226.539 282.582 229.558 289.668 235.732 293.757V293.758C241.88 297.868 249.85 298.096 257.663 295.332C265.482 292.565 273.247 286.776 279.14 278.662C285.032 270.548 288.003 261.562 287.99 253.56C287.977 245.556 284.966 238.457 278.809 234.341Z" stroke="#015FA2" stroke-width="2"/>
<path d="M103.1 206.175C131.418 202.246 155.453 211.464 165.966 229.923L165.967 229.925C173.188 242.515 173.248 257.958 166.082 273.405C158.539 289.616 143.766 304.083 124.408 314.106C113.531 319.741 101.756 323.631 90.3879 325.334L89.2883 325.492C69.3193 328.255 51.4794 324.498 39.009 315.563C33.792 311.825 29.505 307.196 26.4231 301.747L26.4202 301.741C19.1993 289.151 19.1406 273.71 26.3059 258.261C33.8498 242.05 48.6221 227.584 67.9788 217.562L67.9797 217.561C79.2078 211.743 91.3924 207.787 103.099 206.175H103.1ZM110.798 237.26C102.567 236.232 93.0326 237.932 84.1301 242.549H84.1292C75.2015 247.181 68.5082 253.892 64.9368 261.054C61.4759 267.994 60.9236 275.428 64.2493 281.725L64.5833 282.33C68.241 288.755 75.2636 292.525 83.4856 293.552C91.7166 294.579 101.252 292.879 110.155 288.262C119.056 283.645 125.736 276.941 129.307 269.78C132.879 262.617 133.366 254.922 129.703 248.485C126.046 242.058 119.022 238.286 110.798 237.26Z" stroke="#015FA2" stroke-width="2"/>
<path d="M364.583 416.547C372.798 412.274 384.067 410.366 397.046 410.866C410.01 411.365 424.608 414.265 439.424 419.534H439.425C459.687 426.715 477.676 437.389 490.089 449.485V449.484C502.923 462.015 508.198 474.573 505.61 484.966L505.481 485.46C503.815 491.538 499.405 496.664 492.614 500.181L492.613 500.182C480.991 506.216 463.349 507.522 443.461 504.038C435.155 502.582 426.491 500.307 417.772 497.196L417.769 497.195L415.877 496.511C396.388 489.345 379.13 478.962 367.105 467.244H367.106C354.272 454.712 348.995 442.154 351.584 431.761L351.714 431.268C353.38 425.19 357.79 420.064 364.581 416.548L364.583 416.547ZM434.053 439.023C424.383 435.583 415.017 434.484 407.674 435.533C400.614 436.541 395.12 439.602 393.413 444.814L393.26 445.326C391.765 450.811 394.727 457.024 400.175 462.565C405.67 468.154 413.906 473.297 423.582 476.722V476.721C433.251 480.161 442.616 481.26 449.959 480.211C457.246 479.171 462.866 475.942 464.374 470.418C465.866 464.949 462.902 458.742 457.455 453.203C452.132 447.789 444.237 442.786 434.956 439.35L434.053 439.023Z" stroke="#015FA2" stroke-width="2"/>
<path d="M218.149 381.363C227.4 380.969 238.418 384.009 249.966 389.955C261.501 395.895 273.498 404.702 284.691 415.747L284.692 415.748C299.532 430.359 311.051 447.035 317.325 462.805L317.916 464.328C324.341 481.378 323.686 495.154 316.636 503.436L316.635 503.437C312.553 508.237 306.388 511.015 298.746 511.327H298.745C285.663 511.874 269.126 505.591 252.581 494.016C245.672 489.181 238.785 483.452 232.203 476.942L232.201 476.94C216.883 461.858 205.103 444.576 198.978 428.361H198.979C192.653 411.577 193.189 397.966 199.933 389.646L200.259 389.254C204.341 384.452 210.506 381.674 218.147 381.363H218.149ZM249.154 416.803C242.112 414.661 235.653 415.208 231.949 419.574V419.575C228.274 423.911 228.327 430.794 230.918 438.12C233.449 445.278 238.489 453.146 245.453 460.176L246.133 460.854C253.437 468.063 261.457 473.022 268.554 475.18C275.597 477.321 282.054 476.774 285.758 472.408C289.425 468.085 289.366 461.207 286.776 453.883C284.163 446.494 278.883 438.342 271.576 431.131C264.271 423.92 256.251 418.961 249.154 416.803Z" stroke="#015FA2" stroke-width="2"/>
<path d="M65.1641 369.272C71.7921 366.706 79.1828 366.989 86.5039 370.187L86.5059 370.188C104.29 377.916 120.705 401.48 129.022 431.977L129.023 431.978C134.721 452.768 135.858 473.965 132.321 491.613C128.59 510.143 120.103 522.553 108.667 526.972H108.666C102.038 529.538 94.6472 529.256 87.3262 526.058H87.3252C74.7902 520.599 62.9366 507.316 54.0947 489.186C50.4014 481.613 47.2402 473.229 44.8076 464.271V464.269L44.2861 462.318C39.1275 442.482 38.115 422.386 41.3467 405.46L41.5098 404.631C45.2407 386.103 53.727 373.694 65.1631 369.273L65.1641 369.272ZM94.9824 416.84C89.5845 411.63 83.2653 409.253 77.4238 411.521H77.4229C71.6241 413.775 67.7488 420.025 65.9795 427.944C64.2006 435.907 64.4859 445.79 67.2158 455.736V455.735C69.9283 465.686 74.5988 473.904 80.0127 479.13C85.4105 484.34 91.7299 486.717 97.5713 484.448C103.355 482.202 107.222 475.956 108.991 468.037C110.77 460.075 110.493 450.188 107.779 440.233C105.067 430.283 100.396 422.065 94.9824 416.84Z" stroke="#015FA2" stroke-width="2"/>
<path d="M628.643 409.956C650.132 409.352 670.758 412.825 686.696 419.636C703.446 426.811 712.93 436.823 714.02 447.645V447.646C714.657 453.915 712.39 460.286 707.323 466.014V466.015C698.656 475.831 682.671 483.408 662.863 487.325H662.862C654.591 488.962 645.689 489.961 636.434 490.202H636.432C614.943 490.806 594.317 487.332 578.378 480.522H578.377C561.629 473.348 552.147 463.334 551.056 452.513V452.512L551.004 451.924C550.563 445.845 552.843 439.693 557.753 434.144L557.755 434.143C563.878 427.196 573.702 421.355 585.989 417.144C598.262 412.937 612.924 410.381 628.642 409.956H628.643ZM657.596 434.864C650.457 431.632 640.919 429.795 630.657 430.071C620.397 430.347 611.264 432.697 604.792 436.322C598.37 439.919 594.291 444.957 594.875 450.652V450.653C595.458 456.308 600.461 461.036 607.54 464.24C614.68 467.473 624.216 469.302 634.475 469.01L634.474 469.009C644.734 468.733 653.866 466.384 660.337 462.759C666.76 459.162 670.839 454.125 670.254 448.429C669.675 442.789 664.673 438.068 657.596 434.864Z" stroke="#015FA2" stroke-width="2"/>
<path d="M634.815 533.413C654.367 532.273 673.177 538.697 687.878 551.403L688.575 552.013C704.08 565.781 713.202 585.291 714.257 606.993V606.994C714.875 619.591 712.666 632.26 707.867 643.503L707.866 643.504C699.828 662.378 685.233 676.789 667.322 684.391L666.466 684.748C658.807 687.889 650.571 689.805 642.012 690.266H642.007C622.145 691.423 603.048 684.775 588.247 671.666C572.985 658.112 563.908 638.996 562.622 617.702L562.566 616.686C561.949 604.088 564.158 591.419 568.956 580.175V580.174C580.508 553.005 605.748 535.042 634.813 533.413V533.414L634.815 533.413ZM637.539 574.089L636.628 574.128C617.146 575.215 602.25 592.613 603.25 612.798V612.799C604.256 633.052 620.765 648.621 640.25 647.47L640.249 647.469C659.729 646.381 674.622 628.985 673.624 608.8C672.639 588.923 656.626 573.53 637.539 574.089Z" stroke="#015FA2" stroke-width="2"/>
<path d="M382.078 570.237C396.314 544.809 421.464 530.337 447.639 532.467H447.642C465.538 533.879 481.659 542.89 493.037 557.76V557.761C504.954 573.379 510.356 593.877 508.204 615.523V615.524C506.96 628.086 503.172 640.355 497.266 650.873V650.874C487.21 668.814 471.761 681.288 454.339 686.342C447.046 688.457 439.416 689.289 431.707 688.643H431.702C413.806 687.231 397.684 678.219 386.307 663.347C374.389 647.729 368.988 627.232 371.14 605.586C372.384 593.023 376.173 580.756 382.078 570.238V570.237ZM443.439 572.998C425.696 571.548 409.919 586.94 407.948 606.952C405.971 627.029 418.48 644.67 436.247 646.059V646.06C453.99 647.509 469.767 632.117 471.739 612.106C473.712 592.086 461.198 574.448 443.439 572.998Z" stroke="#015FA2" stroke-width="2"/>
<path d="M236.077 554.029C259.637 537.835 285.256 535.317 302.922 547.115L302.925 547.117C315.02 555.142 321.987 568.924 322.497 585.945C323.001 603.538 316.486 622.757 304.054 640.168L303.458 640.996C296.023 651.226 286.898 660.22 277.152 666.902V666.903C260.533 678.315 242.9 682.943 227.749 680.538C221.41 679.531 215.504 677.31 210.309 673.819L210.304 673.815C198.399 665.915 191.461 652.438 190.761 635.783L190.733 634.987C190.22 617.114 196.951 597.564 209.772 579.937C217.207 569.707 226.33 560.713 236.076 554.03L236.077 554.029ZM278.809 579.951C272.661 575.841 264.692 575.614 256.879 578.378C249.06 581.145 241.295 586.933 235.402 595.048H235.401C229.492 603.187 226.513 612.186 226.526 620.188C226.539 628.193 229.559 635.281 235.736 639.371V639.37C241.883 643.478 249.851 643.705 257.663 640.941C265.482 638.175 273.247 632.385 279.14 624.271C285.032 616.157 288.003 607.171 287.99 599.169C287.976 591.165 284.966 584.067 278.809 579.951Z" stroke="#015FA2" stroke-width="2"/>
<path d="M103.1 551.785C131.418 547.856 155.453 557.074 165.966 575.533L165.967 575.535C173.188 588.126 173.248 603.568 166.082 619.016C158.539 635.227 143.766 649.693 124.408 659.717C113.531 665.352 101.756 669.241 90.3879 670.944L89.2883 671.103C69.3193 673.865 51.4794 670.108 39.009 661.174C33.7919 657.436 29.505 652.806 26.4231 647.356L26.4202 647.352C19.1992 634.761 19.1406 619.32 26.3059 603.871C33.8498 587.661 48.6221 573.194 67.9788 563.172L67.9797 563.171C79.2078 557.353 91.3924 553.397 103.099 551.785H103.1ZM110.798 582.87C102.567 581.843 93.0326 583.543 84.1301 588.159H84.1292C75.2015 592.791 68.5082 599.503 64.9368 606.664C61.4759 613.604 60.9236 621.038 64.2493 627.335L64.5833 627.94C68.241 634.365 75.2636 638.136 83.4856 639.162C91.7166 640.19 101.252 638.49 110.155 633.872C119.056 629.256 125.736 622.552 129.307 615.391C132.879 608.228 133.366 600.532 129.703 594.096C126.046 587.668 119.022 583.897 110.798 582.87Z" stroke="#015FA2" stroke-width="2"/>
</g>
</g>
<defs>
<clipPath id="clip0_1681_9053">
<rect width="1440" height="579" fill="white"/>
</clipPath>
</defs>
</svg>
