<svg width="660" height="388" viewBox="0 0 660 388" fill="none" xmlns="http://www.w3.org/2000/svg">
<rect x="8.39901" y="16.5869" width="350.359" height="139" rx="16" fill="#015FA2"/>
<path d="M24.9743 55.2006V53.9506H33.7016V55.2006H30.0425V65.5869H28.6334V55.2006H24.9743ZM37.9743 65.7687C37.1864 65.7687 36.4951 65.5812 35.9004 65.2062C35.3095 64.8312 34.8474 64.3066 34.5141 63.6324C34.1845 62.9581 34.0198 62.1702 34.0198 61.2687C34.0198 60.3596 34.1845 59.5661 34.5141 58.8881C34.8474 58.21 35.3095 57.6835 35.9004 57.3085C36.4951 56.9335 37.1864 56.746 37.9743 56.746C38.7622 56.746 39.4516 56.9335 40.0425 57.3085C40.6372 57.6835 41.0993 58.21 41.4288 58.8881C41.7622 59.5661 41.9288 60.3596 41.9288 61.2687C41.9288 62.1702 41.7622 62.9581 41.4288 63.6324C41.0993 64.3066 40.6372 64.8312 40.0425 65.2062C39.4516 65.5812 38.7622 65.7687 37.9743 65.7687ZM37.9743 64.5642C38.5728 64.5642 39.0652 64.4108 39.4516 64.104C39.8379 63.7971 40.1239 63.3937 40.3095 62.8937C40.4951 62.3937 40.5879 61.8521 40.5879 61.2687C40.5879 60.6854 40.4951 60.1418 40.3095 59.6381C40.1239 59.1343 39.8379 58.7271 39.4516 58.4165C39.0652 58.1059 38.5728 57.9506 37.9743 57.9506C37.3758 57.9506 36.8834 58.1059 36.497 58.4165C36.1107 58.7271 35.8247 59.1343 35.6391 59.6381C35.4535 60.1418 35.3607 60.6854 35.3607 61.2687C35.3607 61.8521 35.4535 62.3937 35.6391 62.8937C35.8247 63.3937 36.1107 63.7971 36.497 64.104C36.8834 64.4108 37.3758 64.5642 37.9743 64.5642ZM47.7712 56.8596V57.996H43.2484V56.8596H47.7712ZM44.5666 54.7687H45.9075V63.0869C45.9075 63.4657 45.9625 63.7498 46.0723 63.9392C46.1859 64.1248 46.3299 64.2498 46.5041 64.3142C46.6822 64.3748 46.8697 64.4051 47.0666 64.4051C47.2144 64.4051 47.3356 64.3975 47.4303 64.3824C47.525 64.3634 47.6007 64.3483 47.6575 64.3369L47.9303 65.5415C47.8394 65.5756 47.7125 65.6096 47.5496 65.6437C47.3867 65.6816 47.1803 65.7006 46.9303 65.7006C46.5515 65.7006 46.1803 65.6191 45.8166 65.4562C45.4568 65.2934 45.1575 65.0452 44.9189 64.7119C44.6841 64.3786 44.5666 63.9581 44.5666 63.4506V54.7687ZM52.3564 65.7915C51.8034 65.7915 51.3015 65.6873 50.8507 65.479C50.4 65.2668 50.042 64.9619 49.7769 64.5642C49.5117 64.1627 49.3791 63.6778 49.3791 63.1096C49.3791 62.6096 49.4776 62.2043 49.6746 61.8937C49.8716 61.5793 50.1348 61.3331 50.4644 61.1551C50.7939 60.9771 51.1575 60.8445 51.5553 60.7574C51.9568 60.6665 52.3602 60.5945 52.7655 60.5415C53.2958 60.4733 53.7257 60.4221 54.0553 60.3881C54.3886 60.3502 54.631 60.2877 54.7825 60.2006C54.9378 60.1134 55.0155 59.9619 55.0155 59.746V59.7006C55.0155 59.1399 54.8621 58.7043 54.5553 58.3937C54.2522 58.0831 53.792 57.9278 53.1746 57.9278C52.5344 57.9278 52.0325 58.068 51.6689 58.3483C51.3053 58.6286 51.0496 58.9278 50.9019 59.246L49.6291 58.7915C49.8564 58.2612 50.1594 57.8483 50.5382 57.5528C50.9208 57.2536 51.3375 57.0452 51.7882 56.9278C52.2428 56.8066 52.6897 56.746 53.1291 56.746C53.4094 56.746 53.7314 56.7801 54.095 56.8483C54.4625 56.9127 54.8166 57.0471 55.1575 57.2517C55.5022 57.4562 55.7882 57.7649 56.0155 58.1778C56.2428 58.5907 56.3564 59.1437 56.3564 59.8369V65.5869H55.0155V64.4051H54.9473C54.8564 64.5945 54.7049 64.7971 54.4928 65.0131C54.2806 65.229 53.9984 65.4127 53.6462 65.5642C53.2939 65.7157 52.864 65.7915 52.3564 65.7915ZM52.5609 64.5869C53.0913 64.5869 53.5382 64.4827 53.9019 64.2744C54.2693 64.0661 54.5458 63.7971 54.7314 63.4676C54.9208 63.1381 55.0155 62.7915 55.0155 62.4278V61.2006C54.9587 61.2687 54.8337 61.3312 54.6405 61.3881C54.4511 61.4411 54.2314 61.4884 53.9814 61.5301C53.7352 61.568 53.4947 61.6021 53.2598 61.6324C53.0288 61.6589 52.8413 61.6816 52.6973 61.7006C52.3488 61.746 52.0231 61.8199 51.72 61.9221C51.4208 62.0206 51.1784 62.1702 50.9928 62.371C50.8109 62.568 50.72 62.8369 50.72 63.1778C50.72 63.6437 50.8924 63.996 51.2371 64.2346C51.5856 64.4695 52.0269 64.5869 52.5609 64.5869ZM60.1448 53.9506V65.5869H58.8038V53.9506H60.1448ZM67.2825 65.5869V53.9506H74.3053V55.2006H68.6916V59.1324H73.9416V60.3824H68.6916V64.3369H74.3962V65.5869H67.2825ZM79.2314 65.7915C78.6784 65.7915 78.1765 65.6873 77.7257 65.479C77.275 65.2668 76.917 64.9619 76.6519 64.5642C76.3867 64.1627 76.2541 63.6778 76.2541 63.1096C76.2541 62.6096 76.3526 62.2043 76.5496 61.8937C76.7466 61.5793 77.0098 61.3331 77.3394 61.1551C77.6689 60.9771 78.0325 60.8445 78.4303 60.7574C78.8318 60.6665 79.2352 60.5945 79.6405 60.5415C80.1708 60.4733 80.6007 60.4221 80.9303 60.3881C81.2636 60.3502 81.506 60.2877 81.6575 60.2006C81.8128 60.1134 81.8905 59.9619 81.8905 59.746V59.7006C81.8905 59.1399 81.7371 58.7043 81.4303 58.3937C81.1272 58.0831 80.667 57.9278 80.0496 57.9278C79.4094 57.9278 78.9075 58.068 78.5439 58.3483C78.1803 58.6286 77.9246 58.9278 77.7769 59.246L76.5041 58.7915C76.7314 58.2612 77.0344 57.8483 77.4132 57.5528C77.7958 57.2536 78.2125 57.0452 78.6632 56.9278C79.1178 56.8066 79.5647 56.746 80.0041 56.746C80.2844 56.746 80.6064 56.7801 80.97 56.8483C81.3375 56.9127 81.6916 57.0471 82.0325 57.2517C82.3772 57.4562 82.6632 57.7649 82.8905 58.1778C83.1178 58.5907 83.2314 59.1437 83.2314 59.8369V65.5869H81.8905V64.4051H81.8223C81.7314 64.5945 81.5799 64.7971 81.3678 65.0131C81.1556 65.229 80.8734 65.4127 80.5212 65.5642C80.1689 65.7157 79.739 65.7915 79.2314 65.7915ZM79.4359 64.5869C79.9663 64.5869 80.4132 64.4827 80.7769 64.2744C81.1443 64.0661 81.4208 63.7971 81.6064 63.4676C81.7958 63.1381 81.8905 62.7915 81.8905 62.4278V61.2006C81.8337 61.2687 81.7087 61.3312 81.5155 61.3881C81.3261 61.4411 81.1064 61.4884 80.8564 61.5301C80.6102 61.568 80.3697 61.6021 80.1348 61.6324C79.9038 61.6589 79.7163 61.6816 79.5723 61.7006C79.2238 61.746 78.8981 61.8199 78.595 61.9221C78.2958 62.0206 78.0534 62.1702 77.8678 62.371C77.6859 62.568 77.595 62.8369 77.595 63.1778C77.595 63.6437 77.7674 63.996 78.1121 64.2346C78.4606 64.4695 78.9019 64.5869 79.4359 64.5869ZM85.6788 65.5869V56.8596H86.9743V58.1778H87.0652C87.2243 57.746 87.5122 57.3956 87.9288 57.1267C88.3455 56.8577 88.8152 56.7233 89.3379 56.7233C89.4364 56.7233 89.5595 56.7252 89.7073 56.729C89.855 56.7327 89.9667 56.7384 90.0425 56.746V58.1096C89.997 58.0983 89.8929 58.0812 89.73 58.0585C89.5709 58.032 89.4023 58.0187 89.2243 58.0187C88.8001 58.0187 88.4213 58.1077 88.0879 58.2858C87.7584 58.46 87.497 58.7024 87.3038 59.0131C87.1145 59.3199 87.0198 59.6702 87.0198 60.0642V65.5869H85.6788ZM92.9729 60.3369V65.5869H91.632V56.8596H92.9274V58.2233H93.0411C93.2456 57.7801 93.5562 57.424 93.9729 57.1551C94.3895 56.8824 94.9274 56.746 95.5865 56.746C96.1774 56.746 96.6945 56.8672 97.1377 57.1096C97.5808 57.3483 97.9255 57.7119 98.1717 58.2006C98.418 58.6854 98.5411 59.299 98.5411 60.0415V65.5869H97.2002V60.1324C97.2002 59.4468 97.0221 58.9127 96.6661 58.5301C96.31 58.1437 95.8214 57.9506 95.2002 57.9506C94.7721 57.9506 94.3895 58.0434 94.0524 58.229C93.7191 58.4146 93.4558 58.6854 93.2627 59.0415C93.0695 59.3975 92.9729 59.8293 92.9729 60.3369ZM100.991 65.5869V56.8596H102.332V65.5869H100.991ZM101.673 55.4051C101.412 55.4051 101.186 55.3161 100.997 55.1381C100.811 54.96 100.719 54.746 100.719 54.496C100.719 54.246 100.811 54.032 100.997 53.854C101.186 53.6759 101.412 53.5869 101.673 53.5869C101.935 53.5869 102.158 53.6759 102.344 53.854C102.533 54.032 102.628 54.246 102.628 54.496C102.628 54.746 102.533 54.96 102.344 55.1381C102.158 55.3161 101.935 55.4051 101.673 55.4051ZM106.129 60.3369V65.5869H104.788V56.8596H106.084V58.2233H106.197C106.402 57.7801 106.712 57.424 107.129 57.1551C107.546 56.8824 108.084 56.746 108.743 56.746C109.334 56.746 109.851 56.8672 110.294 57.1096C110.737 57.3483 111.082 57.7119 111.328 58.2006C111.574 58.6854 111.697 59.299 111.697 60.0415V65.5869H110.356V60.1324C110.356 59.4468 110.178 58.9127 109.822 58.5301C109.466 58.1437 108.978 57.9506 108.356 57.9506C107.928 57.9506 107.546 58.0434 107.209 58.229C106.875 58.4146 106.612 58.6854 106.419 59.0415C106.226 59.3975 106.129 59.8293 106.129 60.3369ZM117.67 69.0415C117.023 69.0415 116.466 68.9581 116 68.7915C115.534 68.6286 115.146 68.4127 114.835 68.1437C114.528 67.8786 114.284 67.5945 114.102 67.2915L115.17 66.5415C115.292 66.7006 115.445 66.8824 115.631 67.0869C115.816 67.2952 116.07 67.4752 116.392 67.6267C116.718 67.782 117.144 67.8596 117.67 67.8596C118.375 67.8596 118.956 67.6892 119.415 67.3483C119.873 67.0074 120.102 66.4733 120.102 65.746V63.9733H119.989C119.89 64.1324 119.75 64.3293 119.568 64.5642C119.39 64.7952 119.132 65.0017 118.795 65.1835C118.462 65.3615 118.011 65.4506 117.443 65.4506C116.739 65.4506 116.106 65.2839 115.545 64.9506C114.989 64.6172 114.547 64.1324 114.221 63.496C113.899 62.8596 113.739 62.0869 113.739 61.1778C113.739 60.2839 113.896 59.5055 114.21 58.8426C114.524 58.1759 114.962 57.6608 115.523 57.2971C116.083 56.9297 116.731 56.746 117.466 56.746C118.034 56.746 118.485 56.8407 118.818 57.0301C119.155 57.2157 119.413 57.4278 119.591 57.6665C119.773 57.9013 119.913 58.0945 120.011 58.246H120.148V56.8596H121.443V65.8369C121.443 66.5869 121.273 67.1968 120.932 67.6665C120.595 68.1399 120.14 68.4865 119.568 68.7062C119 68.9297 118.367 69.0415 117.67 69.0415ZM117.625 64.246C118.163 64.246 118.617 64.1229 118.989 63.8767C119.36 63.6305 119.642 63.2763 119.835 62.8142C120.028 62.3521 120.125 61.799 120.125 61.1551C120.125 60.5263 120.03 59.9714 119.841 59.4903C119.651 59.0093 119.371 58.6324 119 58.3596C118.629 58.0869 118.17 57.9506 117.625 57.9506C117.057 57.9506 116.583 58.0945 116.204 58.3824C115.829 58.6702 115.547 59.0566 115.358 59.5415C115.172 60.0263 115.079 60.5642 115.079 61.1551C115.079 61.7612 115.174 62.2971 115.364 62.7631C115.557 63.2252 115.841 63.5888 116.216 63.854C116.595 64.1153 117.064 64.246 117.625 64.246ZM130.079 58.8142L128.875 59.1551C128.799 58.9543 128.687 58.7593 128.54 58.5699C128.396 58.3767 128.199 58.2176 127.949 58.0926C127.699 57.9676 127.379 57.9051 126.989 57.9051C126.454 57.9051 126.009 58.0282 125.653 58.2744C125.301 58.5168 125.125 58.8256 125.125 59.2006C125.125 59.5339 125.246 59.7971 125.489 59.9903C125.731 60.1835 126.11 60.3445 126.625 60.4733L127.92 60.7915C128.701 60.9809 129.282 61.2706 129.665 61.6608C130.047 62.0471 130.239 62.5452 130.239 63.1551C130.239 63.6551 130.095 64.1021 129.807 64.496C129.523 64.8899 129.125 65.2006 128.614 65.4278C128.102 65.6551 127.507 65.7687 126.829 65.7687C125.939 65.7687 125.203 65.5756 124.619 65.1892C124.036 64.8028 123.667 64.2384 123.511 63.496L124.784 63.1778C124.905 63.6475 125.134 63.9998 125.471 64.2346C125.812 64.4695 126.257 64.5869 126.807 64.5869C127.432 64.5869 127.928 64.4543 128.295 64.1892C128.667 63.9202 128.852 63.5983 128.852 63.2233C128.852 62.9202 128.746 62.6665 128.534 62.4619C128.322 62.2536 127.996 62.0983 127.557 61.996L126.102 61.6551C125.303 61.4657 124.716 61.1721 124.341 60.7744C123.97 60.3729 123.784 59.871 123.784 59.2687C123.784 58.7763 123.922 58.3407 124.199 57.9619C124.479 57.5831 124.86 57.2858 125.341 57.0699C125.826 56.854 126.375 56.746 126.989 56.746C127.852 56.746 128.53 56.9354 129.023 57.3142C129.519 57.693 129.871 58.193 130.079 58.8142Z" fill="white"/>
<path d="M33.6416 115.467V86.9869H36.1376V115.467H33.6416ZM35.1456 113.003C33.3109 113.003 31.7216 112.683 30.3776 112.043C29.0336 111.382 27.9776 110.475 27.2096 109.323C26.4629 108.15 26.0256 106.784 25.8976 105.227L30.0256 105.003C30.1536 105.963 30.4309 106.774 30.8576 107.435C31.2842 108.096 31.8602 108.608 32.5856 108.971C33.3109 109.312 34.1856 109.483 35.2096 109.483C36.0842 109.483 36.8309 109.376 37.4496 109.163C38.0682 108.928 38.5376 108.598 38.8576 108.171C39.1989 107.744 39.3696 107.222 39.3696 106.603C39.3696 106.006 39.2309 105.494 38.9536 105.067C38.6762 104.619 38.1429 104.214 37.3536 103.851C36.5856 103.488 35.4442 103.136 33.9296 102.795C32.0949 102.347 30.6122 101.856 29.4816 101.323C28.3722 100.79 27.5722 100.128 27.0816 99.3389C26.5909 98.5282 26.3456 97.5149 26.3456 96.2989C26.3456 94.9976 26.6656 93.8562 27.3056 92.8749C27.9456 91.8722 28.8629 91.1042 30.0576 90.5709C31.2522 90.0162 32.6922 89.7389 34.3776 89.7389C36.1482 89.7389 37.6522 90.0589 38.8896 90.6989C40.1269 91.3176 41.0976 92.1816 41.8016 93.2909C42.5269 94.4002 42.9642 95.6696 43.1136 97.0989L38.9856 97.3229C38.9002 96.5122 38.6656 95.7976 38.2816 95.1789C37.8976 94.5602 37.3749 94.0802 36.7136 93.7389C36.0522 93.3976 35.2522 93.2269 34.3136 93.2269C33.1189 93.2269 32.1802 93.5042 31.4976 94.0589C30.8362 94.5922 30.5056 95.2962 30.5056 96.1709C30.5056 96.7682 30.6442 97.2696 30.9216 97.6749C31.2202 98.0589 31.7322 98.4002 32.4576 98.6989C33.1829 98.9762 34.2069 99.2642 35.5296 99.5629C37.5136 100.011 39.0816 100.555 40.2336 101.195C41.4069 101.814 42.2389 102.56 42.7296 103.435C43.2416 104.288 43.4976 105.27 43.4976 106.379C43.4976 107.723 43.1456 108.896 42.4416 109.899C41.7589 110.88 40.7882 111.648 39.5296 112.203C38.2922 112.736 36.8309 113.003 35.1456 113.003ZM55.3136 113.099C52.6042 113.099 50.5136 112.48 49.0416 111.243C47.5696 109.984 46.7802 108.299 46.6736 106.187L50.9296 105.995C51.0576 107.211 51.5056 108.096 52.2736 108.651C53.0629 109.206 54.0762 109.483 55.3136 109.483C56.1456 109.483 56.9029 109.366 57.5856 109.131C58.2682 108.875 58.8122 108.491 59.2176 107.979C59.6229 107.467 59.8256 106.806 59.8256 105.995C59.8256 104.758 59.4096 103.84 58.5776 103.243C57.7456 102.646 56.6362 102.347 55.2496 102.347H53.2656V99.0509H55.2496C56.3376 99.0509 57.2442 98.8269 57.9696 98.3789C58.7162 97.9096 59.0896 97.1309 59.0896 96.0429C59.0896 95.0616 58.7802 94.3042 58.1616 93.7709C57.5642 93.2376 56.6256 92.9709 55.3456 92.9709C54.0869 92.9709 53.1376 93.2269 52.4976 93.7389C51.8576 94.2509 51.4736 94.9229 51.3456 95.7549L47.0896 95.5309C47.3242 93.6536 48.1456 92.1602 49.5536 91.0509C50.9829 89.9202 52.9136 89.3549 55.3456 89.3549C57.0522 89.3549 58.5029 89.6109 59.6976 90.1229C60.8922 90.6349 61.7989 91.3602 62.4176 92.2989C63.0576 93.2376 63.3776 94.3576 63.3776 95.6589C63.3776 97.0242 62.9296 98.1442 62.0336 99.0189C61.1376 99.8936 59.8576 100.48 58.1936 100.779V100.235C60.0496 100.491 61.5002 101.152 62.5456 102.219C63.5909 103.264 64.1136 104.598 64.1136 106.219C64.1136 107.67 63.7509 108.907 63.0256 109.931C62.3002 110.955 61.2762 111.744 59.9536 112.299C58.6309 112.832 57.0842 113.099 55.3136 113.099ZM76.0086 113.099C74.2379 113.099 72.7339 112.822 71.4966 112.267C70.2592 111.712 69.2992 110.944 68.6166 109.963C67.9339 108.96 67.5286 107.798 67.4006 106.475L71.6566 106.251C71.8272 107.318 72.2966 108.118 73.0646 108.651C73.8326 109.184 74.8139 109.451 76.0086 109.451C77.3952 109.451 78.4726 109.078 79.2406 108.331C80.0299 107.563 80.4246 106.486 80.4246 105.099C80.4246 104.224 80.2432 103.456 79.8806 102.795C79.5392 102.134 79.0379 101.622 78.3766 101.259C77.7152 100.896 76.9152 100.715 75.9766 100.715C75.0166 100.715 74.1739 100.928 73.4486 101.355C72.7446 101.76 72.2326 102.304 71.9126 102.987H67.6886L69.2566 89.8669H83.1766V93.4829H72.8726L71.9766 100.715L71.4326 100.235C71.7739 99.6376 72.2219 99.1362 72.7766 98.7309C73.3312 98.3042 73.9712 97.9842 74.6966 97.7709C75.4432 97.5576 76.2432 97.4509 77.0966 97.4509C78.6326 97.4509 79.9659 97.7816 81.0966 98.4429C82.2486 99.1042 83.1339 100.011 83.7526 101.163C84.3926 102.315 84.7126 103.627 84.7126 105.099C84.7126 106.699 84.3499 108.107 83.6246 109.323C82.9206 110.518 81.9072 111.446 80.5846 112.107C79.2832 112.768 77.7579 113.099 76.0086 113.099ZM88.1126 117.643L89.7766 112.587H87.8246V108.107H92.4966V112.075L90.3846 117.643H88.1126ZM95.6521 112.587C95.6521 110.752 95.9081 109.152 96.4201 107.787C96.9321 106.4 97.7961 105.142 99.0121 104.011C100.228 102.859 101.871 101.739 103.94 100.651C104.964 100.096 105.785 99.6056 106.404 99.1789C107.023 98.7522 107.471 98.3149 107.748 97.8669C108.025 97.3976 108.164 96.8429 108.164 96.2029C108.164 95.5629 108.025 95.0082 107.748 94.5389C107.471 94.0482 107.055 93.6642 106.5 93.3869C105.967 93.1096 105.295 92.9709 104.484 92.9709C103.183 92.9709 102.148 93.3442 101.38 94.0909C100.633 94.8162 100.175 95.8616 100.004 97.2269L95.7161 96.9709C95.9294 94.6029 96.7934 92.7469 98.3081 91.4029C99.8441 90.0376 101.903 89.3549 104.484 89.3549C106.148 89.3549 107.577 89.6429 108.772 90.2189C109.967 90.7736 110.873 91.5629 111.492 92.5869C112.132 93.6109 112.452 94.7949 112.452 96.1389C112.452 97.2909 112.249 98.2829 111.844 99.1149C111.46 99.9469 110.82 100.715 109.924 101.419C109.049 102.102 107.865 102.838 106.372 103.627C104.495 104.63 103.087 105.6 102.148 106.539C101.209 107.456 100.708 108.267 100.644 108.971H112.452V112.587H95.6521ZM123.72 113.099C121.01 113.099 118.92 112.48 117.448 111.243C115.976 109.984 115.186 108.299 115.08 106.187L119.336 105.995C119.464 107.211 119.912 108.096 120.68 108.651C121.469 109.206 122.482 109.483 123.72 109.483C124.552 109.483 125.309 109.366 125.992 109.131C126.674 108.875 127.218 108.491 127.624 107.979C128.029 107.467 128.232 106.806 128.232 105.995C128.232 104.758 127.816 103.84 126.984 103.243C126.152 102.646 125.042 102.347 123.656 102.347H121.672V99.0509H123.656C124.744 99.0509 125.65 98.8269 126.376 98.3789C127.122 97.9096 127.496 97.1309 127.496 96.0429C127.496 95.0616 127.186 94.3042 126.568 93.7709C125.97 93.2376 125.032 92.9709 123.752 92.9709C122.493 92.9709 121.544 93.2269 120.904 93.7389C120.264 94.2509 119.88 94.9229 119.752 95.7549L115.496 95.5309C115.73 93.6536 116.552 92.1602 117.96 91.0509C119.389 89.9202 121.32 89.3549 123.752 89.3549C125.458 89.3549 126.909 89.6109 128.104 90.1229C129.298 90.6349 130.205 91.3602 130.824 92.2989C131.464 93.2376 131.784 94.3576 131.784 95.6589C131.784 97.0242 131.336 98.1442 130.44 99.0189C129.544 99.8936 128.264 100.48 126.6 100.779V100.235C128.456 100.491 129.906 101.152 130.952 102.219C131.997 103.264 132.52 104.598 132.52 106.219C132.52 107.67 132.157 108.907 131.432 109.931C130.706 110.955 129.682 111.744 128.36 112.299C127.037 112.832 125.49 113.099 123.72 113.099ZM144.959 113.099C143.039 113.099 141.364 112.619 139.935 111.659C138.527 110.699 137.439 109.334 136.671 107.563C135.903 105.792 135.519 103.691 135.519 101.259C135.519 98.8269 135.903 96.7256 136.671 94.9549C137.439 93.1629 138.527 91.7869 139.935 90.8269C141.364 89.8456 143.039 89.3549 144.959 89.3549C146.921 89.3549 148.607 89.8456 150.015 90.8269C151.423 91.7869 152.511 93.1522 153.279 94.9229C154.047 96.6936 154.431 98.8056 154.431 101.259C154.431 103.691 154.047 105.792 153.279 107.563C152.511 109.334 151.423 110.699 150.015 111.659C148.607 112.619 146.921 113.099 144.959 113.099ZM144.959 109.483C146.623 109.483 147.903 108.79 148.799 107.403C149.695 105.995 150.143 103.947 150.143 101.259C150.143 99.4669 149.94 97.9522 149.535 96.7149C149.129 95.4776 148.543 94.5496 147.775 93.9309C147.028 93.2909 146.089 92.9709 144.959 92.9709C143.871 92.9709 142.943 93.2909 142.175 93.9309C141.407 94.5496 140.82 95.4776 140.415 96.7149C140.009 97.9522 139.807 99.4669 139.807 101.259C139.807 103.947 140.255 105.995 141.151 107.403C142.047 108.79 143.316 109.483 144.959 109.483Z" fill="white"/>
<path d="M288.889 40.5869C314.689 40.5869 335.519 61.2289 335.519 86.5869C335.519 111.945 314.689 132.587 288.889 132.587C263.088 132.587 242.259 111.945 242.259 86.5869C242.259 61.2289 263.088 40.5869 288.889 40.5869Z" stroke="#EBF6FF" stroke-width="8"/>
<mask id="path-5-inside-1_678_2688" fill="white">
<path d="M251.89 114.469C250.101 115.817 249.747 118.38 251.256 120.035C256.085 125.334 262.017 129.564 268.663 132.424C276.566 135.825 285.217 137.177 293.796 136.351C302.376 135.526 310.6 132.552 317.69 127.709C324.779 122.866 330.499 116.316 334.308 108.68C338.117 101.043 339.888 92.572 339.454 84.0699C339.021 75.5677 336.396 67.3158 331.829 60.0959C327.261 52.876 320.903 46.9272 313.356 42.8132C306.977 39.3356 299.927 37.2663 292.692 36.7281C290.494 36.5646 288.711 38.3741 288.719 40.5781C288.727 42.7818 290.524 44.5425 292.719 44.7384C298.577 45.2613 304.276 46.9795 309.451 49.8003C315.793 53.2577 321.136 58.2569 324.975 64.3244C328.813 70.3918 331.019 77.3266 331.383 84.4716C331.748 91.6167 330.259 98.7354 327.058 105.153C323.858 111.571 319.05 117.076 313.092 121.145C307.134 125.215 300.223 127.715 293.013 128.408C285.803 129.102 278.533 127.965 271.892 125.108C266.477 122.777 261.627 119.366 257.638 115.102C256.133 113.494 253.649 113.143 251.89 114.469Z"/>
</mask>
<path d="M251.89 114.469C250.101 115.817 249.747 118.38 251.256 120.035C256.085 125.334 262.017 129.564 268.663 132.424C276.566 135.825 285.217 137.177 293.796 136.351C302.376 135.526 310.6 132.552 317.69 127.709C324.779 122.866 330.499 116.316 334.308 108.68C338.117 101.043 339.888 92.572 339.454 84.0699C339.021 75.5677 336.396 67.3158 331.829 60.0959C327.261 52.876 320.903 46.9272 313.356 42.8132C306.977 39.3356 299.927 37.2663 292.692 36.7281C290.494 36.5646 288.711 38.3741 288.719 40.5781C288.727 42.7818 290.524 44.5425 292.719 44.7384C298.577 45.2613 304.276 46.9795 309.451 49.8003C315.793 53.2577 321.136 58.2569 324.975 64.3244C328.813 70.3918 331.019 77.3266 331.383 84.4716C331.748 91.6167 330.259 98.7354 327.058 105.153C323.858 111.571 319.05 117.076 313.092 121.145C307.134 125.215 300.223 127.715 293.013 128.408C285.803 129.102 278.533 127.965 271.892 125.108C266.477 122.777 261.627 119.366 257.638 115.102C256.133 113.494 253.649 113.143 251.89 114.469Z" stroke="#15B763" stroke-width="12" stroke-linejoin="bevel" mask="url(#path-5-inside-1_678_2688)"/>
<path d="M277.299 91.746C276.485 91.746 275.765 91.6059 275.14 91.3256C274.519 91.0452 274.032 90.6589 273.68 90.1665C273.328 89.674 273.153 89.1134 273.157 88.4846C273.153 87.9922 273.254 87.5396 273.458 87.1267C273.667 86.71 273.949 86.3634 274.305 86.0869C274.661 85.8066 275.059 85.6286 275.498 85.5528V85.4846C274.919 85.3445 274.455 85.0339 274.106 84.5528C273.758 84.0718 273.585 83.5187 273.589 82.8937C273.585 82.299 273.742 81.7687 274.061 81.3028C274.383 80.8331 274.824 80.4638 275.385 80.1949C275.945 79.9259 276.583 79.7915 277.299 79.7915C278.008 79.7915 278.64 79.9278 279.197 80.2006C279.758 80.4695 280.199 80.8388 280.521 81.3085C280.843 81.7744 281.006 82.3028 281.01 82.8937C281.006 83.5187 280.828 84.0718 280.475 84.5528C280.123 85.0339 279.665 85.3445 279.1 85.4846V85.5528C279.536 85.6286 279.928 85.8066 280.277 86.0869C280.629 86.3634 280.909 86.71 281.117 87.1267C281.33 87.5396 281.438 87.9922 281.441 88.4846C281.438 89.1134 281.26 89.674 280.907 90.1665C280.555 90.6589 280.066 91.0452 279.441 91.3256C278.82 91.6059 278.106 91.746 277.299 91.746ZM277.299 90.3085C277.78 90.3085 278.197 90.229 278.549 90.0699C278.902 89.907 279.174 89.6816 279.367 89.3937C279.561 89.1021 279.659 88.7612 279.663 88.371C279.659 87.9657 279.553 87.6077 279.345 87.2971C279.14 86.9865 278.862 86.7422 278.51 86.5642C278.157 86.3862 277.754 86.2971 277.299 86.2971C276.841 86.2971 276.434 86.3862 276.078 86.5642C275.722 86.7422 275.441 86.9865 275.237 87.2971C275.032 87.6077 274.932 87.9657 274.936 88.371C274.932 88.7612 275.025 89.1021 275.214 89.3937C275.407 89.6816 275.682 89.907 276.038 90.0699C276.394 90.229 276.814 90.3085 277.299 90.3085ZM277.299 84.8937C277.686 84.8937 278.028 84.8161 278.328 84.6608C278.627 84.5055 278.862 84.2896 279.032 84.0131C279.206 83.7365 279.295 83.4127 279.299 83.0415C279.295 82.6778 279.208 82.3596 279.038 82.0869C278.871 81.8142 278.638 81.604 278.339 81.4562C278.04 81.3047 277.693 81.229 277.299 81.229C276.898 81.229 276.545 81.3047 276.242 81.4562C275.943 81.604 275.71 81.8142 275.544 82.0869C275.377 82.3596 275.295 82.6778 275.299 83.0415C275.295 83.4127 275.379 83.7365 275.549 84.0131C275.72 84.2896 275.955 84.5055 276.254 84.6608C276.557 84.8161 276.905 84.8937 277.299 84.8937ZM287.318 91.746C286.606 91.746 285.965 91.6096 285.397 91.3369C284.833 91.0604 284.382 90.6816 284.045 90.2006C283.708 89.7195 283.528 89.1702 283.505 88.5528H285.21C285.251 89.0528 285.473 89.4638 285.875 89.7858C286.276 90.1077 286.757 90.2687 287.318 90.2687C287.765 90.2687 288.161 90.1665 288.505 89.9619C288.854 89.7536 289.126 89.4676 289.323 89.104C289.524 88.7403 289.625 88.3256 289.625 87.8596C289.625 87.3862 289.522 86.9638 289.318 86.5926C289.113 86.2214 288.831 85.9297 288.471 85.7176C288.115 85.5055 287.706 85.3975 287.244 85.3937C286.892 85.3937 286.537 85.4543 286.181 85.5756C285.825 85.6968 285.537 85.8559 285.318 86.0528L283.71 85.8142L284.363 79.9506H290.761V81.4562H285.823L285.454 84.7119H285.522C285.75 84.4922 286.051 84.3085 286.426 84.1608C286.804 84.0131 287.21 83.9392 287.642 83.9392C288.35 83.9392 288.981 84.1077 289.534 84.4449C290.09 84.782 290.528 85.2422 290.846 85.8256C291.168 86.4051 291.327 87.0718 291.323 87.8256C291.327 88.5793 291.157 89.2517 290.812 89.8426C290.471 90.4335 289.998 90.8994 289.392 91.2403C288.789 91.5774 288.098 91.746 287.318 91.746ZM299.473 89.4051V88.7915C299.473 88.3521 299.563 87.9506 299.745 87.5869C299.931 87.2195 300.2 86.9259 300.552 86.7062C300.908 86.4827 301.338 86.371 301.842 86.371C302.357 86.371 302.789 86.4809 303.137 86.7006C303.486 86.9202 303.749 87.2138 303.927 87.5812C304.109 87.9487 304.2 88.3521 304.2 88.7915V89.4051C304.2 89.8445 304.109 90.2479 303.927 90.6153C303.745 90.979 303.478 91.2725 303.126 91.496C302.777 91.7157 302.349 91.8256 301.842 91.8256C301.331 91.8256 300.899 91.7157 300.546 91.496C300.194 91.2725 299.927 90.979 299.745 90.6153C299.563 90.2479 299.473 89.8445 299.473 89.4051ZM300.796 88.7915V89.4051C300.796 89.7309 300.874 90.0263 301.029 90.2915C301.185 90.5566 301.456 90.6892 301.842 90.6892C302.224 90.6892 302.492 90.5566 302.643 90.2915C302.795 90.0263 302.87 89.7309 302.87 89.4051V88.7915C302.87 88.4657 302.796 88.1702 302.649 87.9051C302.505 87.6399 302.236 87.5074 301.842 87.5074C301.463 87.5074 301.194 87.6399 301.035 87.9051C300.876 88.1702 300.796 88.4657 300.796 88.7915ZM293.62 82.746V82.1324C293.62 81.693 293.711 81.2896 293.893 80.9221C294.079 80.5547 294.348 80.2612 294.7 80.0415C295.056 79.8218 295.486 79.7119 295.99 79.7119C296.505 79.7119 296.937 79.8218 297.285 80.0415C297.634 80.2612 297.897 80.5547 298.075 80.9221C298.253 81.2896 298.342 81.693 298.342 82.1324V82.746C298.342 83.1854 298.251 83.5888 298.069 83.9562C297.891 84.3199 297.626 84.6134 297.274 84.8369C296.925 85.0566 296.497 85.1665 295.99 85.1665C295.474 85.1665 295.041 85.0566 294.688 84.8369C294.34 84.6134 294.075 84.3199 293.893 83.9562C293.711 83.5888 293.62 83.1854 293.62 82.746ZM294.95 82.1324V82.746C294.95 83.0718 295.026 83.3672 295.177 83.6324C295.332 83.8975 295.603 84.0301 295.99 84.0301C296.368 84.0301 296.634 83.8975 296.785 83.6324C296.94 83.3672 297.018 83.0718 297.018 82.746V82.1324C297.018 81.8066 296.944 81.5112 296.796 81.246C296.649 80.9809 296.38 80.8483 295.99 80.8483C295.611 80.8483 295.342 80.9809 295.183 81.246C295.027 81.5112 294.95 81.8066 294.95 82.1324ZM294.16 91.5869L302.16 79.9506H303.518L295.518 91.5869H294.16Z" fill="white"/>
<rect x="8" y="164.12" width="350.359" height="207" rx="16" fill="#015FA2"/>
<path d="M31.1036 228.587V215.807H34.2536L37.7816 225.707L41.3096 215.807H44.4596V228.587H42.1196V219.767L38.8976 228.569H36.6656L33.4436 219.767V228.587H31.1036ZM51.166 228.803C50.218 228.803 49.384 228.599 48.664 228.191C47.956 227.771 47.404 227.183 47.008 226.427C46.624 225.671 46.432 224.789 46.432 223.781C46.432 222.761 46.624 221.879 47.008 221.135C47.404 220.379 47.956 219.797 48.664 219.389C49.384 218.969 50.218 218.759 51.166 218.759C52.114 218.759 52.942 218.969 53.65 219.389C54.358 219.797 54.904 220.379 55.288 221.135C55.684 221.879 55.882 222.761 55.882 223.781C55.882 224.789 55.684 225.671 55.288 226.427C54.904 227.183 54.358 227.771 53.65 228.191C52.942 228.599 52.114 228.803 51.166 228.803ZM51.166 226.931C51.91 226.931 52.48 226.655 52.876 226.103C53.284 225.551 53.488 224.777 53.488 223.781C53.488 222.797 53.284 222.029 52.876 221.477C52.48 220.913 51.91 220.631 51.166 220.631C50.422 220.631 49.846 220.913 49.438 221.477C49.03 222.029 48.826 222.797 48.826 223.781C48.826 224.777 49.03 225.551 49.438 226.103C49.846 226.655 50.422 226.931 51.166 226.931ZM57.6599 228.587V218.975H59.7479L59.8379 221.675L59.5679 221.567C59.6639 220.895 59.8619 220.355 60.1619 219.947C60.4619 219.539 60.8279 219.239 61.2599 219.047C61.6919 218.855 62.1659 218.759 62.6819 218.759C63.3899 218.759 63.9839 218.915 64.4639 219.227C64.9559 219.539 65.3279 219.971 65.5799 220.523C65.8319 221.063 65.9579 221.693 65.9579 222.413V228.587H63.6539V223.151C63.6539 222.611 63.5999 222.155 63.4919 221.783C63.3839 221.411 63.2039 221.129 62.9519 220.937C62.7119 220.733 62.3879 220.631 61.9799 220.631C61.3679 220.631 60.8759 220.847 60.5039 221.279C60.1439 221.711 59.9639 222.335 59.9639 223.151V228.587H57.6599ZM71.6545 228.587C70.6945 228.587 69.9865 228.365 69.5305 227.921C69.0865 227.477 68.8645 226.781 68.8645 225.833V216.725H71.1685V225.617C71.1685 226.061 71.2645 226.373 71.4565 226.553C71.6485 226.721 71.9485 226.805 72.3565 226.805H73.7065V228.587H71.6545ZM67.3525 220.757V218.975H73.7065V220.757H67.3525ZM75.3962 228.587V215.807H77.7002V221.171H77.4122C77.5082 220.619 77.7002 220.169 77.9882 219.821C78.2762 219.461 78.6302 219.197 79.0502 219.029C79.4702 218.849 79.9322 218.759 80.4362 218.759C81.1442 218.759 81.7382 218.915 82.2182 219.227C82.7102 219.527 83.0762 219.953 83.3162 220.505C83.5682 221.057 83.6942 221.693 83.6942 222.413V228.587H81.3902V222.971C81.3902 222.191 81.2582 221.609 80.9942 221.225C80.7302 220.829 80.3162 220.631 79.7522 220.631C79.1282 220.631 78.6302 220.835 78.2582 221.243C77.8862 221.651 77.7002 222.245 77.7002 223.025V228.587H75.3962ZM88.335 228.587C87.639 228.587 87.081 228.407 86.661 228.047C86.241 227.687 86.031 227.111 86.031 226.319V215.807H88.335V226.085C88.335 226.325 88.395 226.505 88.515 226.625C88.647 226.745 88.827 226.805 89.055 226.805H89.757V228.587H88.335ZM91.4962 231.287V229.505H92.7202C93.0322 229.505 93.2602 229.457 93.4042 229.361C93.5602 229.265 93.6802 229.103 93.7642 228.875L94.0342 228.209H93.3682L89.9302 218.975H92.3242L94.7362 226.049L97.0402 218.975H99.4342L95.6722 229.595C95.4562 230.195 95.1502 230.627 94.7542 230.891C94.3702 231.155 93.8302 231.287 93.1342 231.287H91.4962ZM105.512 228.587V215.807H110.858C111.782 215.807 112.58 215.963 113.252 216.275C113.924 216.587 114.446 217.031 114.818 217.607C115.19 218.183 115.376 218.861 115.376 219.641C115.376 220.229 115.25 220.751 114.998 221.207C114.746 221.663 114.404 222.029 113.972 222.305C113.552 222.581 113.084 222.749 112.568 222.809L112.478 222.629C113.306 222.629 113.942 222.815 114.386 223.187C114.842 223.559 115.1 224.129 115.16 224.897L115.484 228.587H113.108L112.838 225.239C112.802 224.735 112.64 224.363 112.352 224.123C112.064 223.883 111.584 223.763 110.912 223.763H107.852V228.587H105.512ZM107.852 221.711H110.714C111.422 221.711 111.974 221.543 112.37 221.207C112.766 220.871 112.964 220.397 112.964 219.785C112.964 219.161 112.76 218.681 112.352 218.345C111.956 218.009 111.374 217.841 110.606 217.841H107.852V221.711ZM121.637 228.803C120.689 228.803 119.855 228.599 119.135 228.191C118.427 227.771 117.875 227.183 117.479 226.427C117.095 225.671 116.903 224.789 116.903 223.781C116.903 222.761 117.095 221.879 117.479 221.135C117.875 220.379 118.427 219.797 119.135 219.389C119.855 218.969 120.689 218.759 121.637 218.759C122.585 218.759 123.413 218.969 124.121 219.389C124.829 219.797 125.375 220.379 125.759 221.135C126.155 221.879 126.353 222.761 126.353 223.781C126.353 224.789 126.155 225.671 125.759 226.427C125.375 227.183 124.829 227.771 124.121 228.191C123.413 228.599 122.585 228.803 121.637 228.803ZM121.637 226.931C122.381 226.931 122.951 226.655 123.347 226.103C123.755 225.551 123.959 224.777 123.959 223.781C123.959 222.797 123.755 222.029 123.347 221.477C122.951 220.913 122.381 220.631 121.637 220.631C120.893 220.631 120.317 220.913 119.909 221.477C119.501 222.029 119.297 222.797 119.297 223.781C119.297 224.777 119.501 225.551 119.909 226.103C120.317 226.655 120.893 226.931 121.637 226.931ZM131.299 228.803C130.327 228.803 129.553 228.485 128.977 227.849C128.413 227.201 128.131 226.307 128.131 225.167V218.975H130.435V224.591C130.435 225.395 130.567 225.989 130.831 226.373C131.107 226.745 131.521 226.931 132.073 226.931C132.697 226.931 133.177 226.727 133.513 226.319C133.861 225.899 134.035 225.293 134.035 224.501V218.975H136.339V228.587H134.233L134.179 225.941L134.467 226.031C134.323 226.943 133.981 227.633 133.441 228.101C132.901 228.569 132.187 228.803 131.299 228.803ZM138.871 228.587V218.975H140.959L141.049 221.675L140.779 221.567C140.875 220.895 141.073 220.355 141.373 219.947C141.673 219.539 142.039 219.239 142.471 219.047C142.903 218.855 143.377 218.759 143.893 218.759C144.601 218.759 145.195 218.915 145.675 219.227C146.167 219.539 146.539 219.971 146.791 220.523C147.043 221.063 147.169 221.693 147.169 222.413V228.587H144.865V223.151C144.865 222.611 144.811 222.155 144.703 221.783C144.595 221.411 144.415 221.129 144.163 220.937C143.923 220.733 143.599 220.631 143.191 220.631C142.579 220.631 142.087 220.847 141.715 221.279C141.355 221.711 141.175 222.335 141.175 223.151V228.587H138.871ZM152.873 228.803C152.057 228.803 151.349 228.599 150.749 228.191C150.161 227.783 149.705 227.201 149.381 226.445C149.057 225.689 148.895 224.801 148.895 223.781C148.895 222.761 149.057 221.873 149.381 221.117C149.705 220.361 150.167 219.779 150.767 219.371C151.367 218.963 152.069 218.759 152.873 218.759C153.545 218.759 154.133 218.897 154.637 219.173C155.153 219.449 155.543 219.839 155.807 220.343V215.807H158.111V228.587H155.915L155.861 227.165C155.597 227.681 155.201 228.083 154.673 228.371C154.145 228.659 153.545 228.803 152.873 228.803ZM153.575 226.931C154.055 226.931 154.457 226.811 154.781 226.571C155.117 226.331 155.369 225.977 155.537 225.509C155.717 225.029 155.807 224.453 155.807 223.781C155.807 223.097 155.717 222.521 155.537 222.053C155.369 221.585 155.117 221.231 154.781 220.991C154.457 220.751 154.055 220.631 153.575 220.631C152.879 220.631 152.321 220.913 151.901 221.477C151.493 222.029 151.289 222.797 151.289 223.781C151.289 224.741 151.493 225.509 151.901 226.085C152.321 226.649 152.879 226.931 153.575 226.931ZM163.484 228.803C162.512 228.803 161.738 228.485 161.162 227.849C160.598 227.201 160.316 226.307 160.316 225.167V218.975H162.62V224.591C162.62 225.395 162.752 225.989 163.016 226.373C163.292 226.745 163.706 226.931 164.258 226.931C164.882 226.931 165.362 226.727 165.698 226.319C166.046 225.899 166.22 225.293 166.22 224.501V218.975H168.524V228.587H166.418L166.364 225.941L166.652 226.031C166.508 226.943 166.166 227.633 165.626 228.101C165.086 228.569 164.372 228.803 163.484 228.803ZM171.056 231.287V218.975H173.27L173.324 221.027L173.09 220.919C173.33 220.211 173.72 219.677 174.26 219.317C174.812 218.945 175.454 218.759 176.186 218.759C177.098 218.759 177.854 218.987 178.454 219.443C179.066 219.899 179.522 220.505 179.822 221.261C180.122 222.017 180.272 222.857 180.272 223.781C180.272 224.705 180.116 225.545 179.804 226.301C179.504 227.057 179.048 227.663 178.436 228.119C177.836 228.575 177.08 228.803 176.168 228.803C175.688 228.803 175.238 228.719 174.818 228.551C174.41 228.383 174.056 228.143 173.756 227.831C173.468 227.519 173.264 227.153 173.144 226.733L173.36 226.553V231.287H171.056ZM175.628 226.931C176.324 226.931 176.87 226.655 177.266 226.103C177.674 225.539 177.878 224.765 177.878 223.781C177.878 222.797 177.674 222.029 177.266 221.477C176.87 220.913 176.324 220.631 175.628 220.631C175.16 220.631 174.758 220.751 174.422 220.991C174.086 221.219 173.822 221.567 173.63 222.035C173.45 222.503 173.36 223.085 173.36 223.781C173.36 224.477 173.45 225.059 173.63 225.527C173.81 225.995 174.068 226.349 174.404 226.589C174.752 226.817 175.16 226.931 175.628 226.931Z" fill="white"/>
<ellipse cx="35.7392" cy="184.587" rx="5.06299" ry="5" fill="#C92C2C"/>
<ellipse cx="53.4596" cy="184.587" rx="5.06299" ry="5" fill="#822BB8"/>
<ellipse cx="71.1801" cy="184.587" rx="5.06299" ry="5" fill="#1ADB77"/>
<rect x="304.078" y="211.587" width="35.4409" height="20" rx="10" fill="white"/>
<ellipse cx="329.393" cy="221.587" rx="8.10079" ry="8" fill="#0E2B4F"/>
<line x1="32.7014" y1="257.087" x2="339.519" y2="257.087" stroke="#48B2FE"/>
<rect x="31.6888" y="286.587" width="305.805" height="10" rx="5" fill="#EBF6FF"/>
<rect x="31.6888" y="306.587" width="305.805" height="10" rx="5" fill="#EBF6FF"/>
<rect x="31.6888" y="326.587" width="201.507" height="10" rx="5" fill="#EBF6FF"/>
<g clip-path="url(#clip0_678_2688)">
<rect x="366.854" y="16.1196" width="284.146" height="354.563" rx="16" fill="#015FA2"/>
<ellipse cx="380.494" cy="40.7236" rx="5.49377" ry="5" fill="#C92C2C"/>
<ellipse cx="399.722" cy="40.7236" rx="5.49377" ry="5" fill="#822BB8"/>
<ellipse cx="418.95" cy="40.7236" rx="5.49377" ry="5" fill="#1ADB77"/>
<path d="M375 231.826L395.443 196.44L403.216 207.68L432.319 156.148L455.811 250.582L476.801 196.44L502.794 207.68L512.565 156.148L528.091 150.252L565.281 177.667L595.35 89.2563L636 112.954" stroke="#9F49D4" stroke-width="2" stroke-linecap="round" stroke-linejoin="round"/>
<path d="M375.891 277.049L397.016 227.793L404.108 261.333L432.224 223.956L456.705 289.256L477.696 254.018L503.69 261.333L513.462 227.793L528.989 223.956L570.241 261.333L606.858 174.339L627.983 227.793" stroke="#C6C6C6" stroke-width="2" stroke-linecap="round" stroke-linejoin="round" stroke-dasharray="8 8"/>
<path d="M377.901 317.438H378.776V321.563C378.776 321.936 378.702 322.255 378.554 322.521C378.408 322.786 378.203 322.988 377.938 323.129C377.672 323.267 377.362 323.336 377.006 323.336C376.678 323.336 376.384 323.276 376.122 323.157C375.863 323.038 375.657 322.864 375.506 322.637C375.356 322.408 375.281 322.129 375.281 321.802H376.153C376.153 321.963 376.19 322.102 376.264 322.219C376.34 322.337 376.443 322.429 376.574 322.495C376.706 322.559 376.858 322.592 377.028 322.592C377.214 322.592 377.371 322.553 377.5 322.475C377.631 322.396 377.73 322.279 377.798 322.126C377.866 321.972 377.901 321.785 377.901 321.563V317.438ZM380.545 323.256H379.613L381.707 317.438H382.721L384.815 323.256H383.883L382.238 318.495H382.192L380.545 323.256ZM380.701 320.978H383.724V321.717H380.701V320.978ZM390.351 317.438V323.256H389.544L386.587 318.989H386.533V323.256H385.655V317.438H386.467L389.428 321.711H389.482V317.438H390.351Z" fill="#111011"/>
<path d="M415.639 323.256V317.438H419.247V318.194H416.517V319.967H418.989V320.719H416.517V323.256H415.639ZM420.327 323.256V317.438H423.974V318.194H421.205V319.967H423.784V320.719H421.205V322.501H424.009V323.256H420.327ZM425.147 323.256V317.438H427.278C427.691 317.438 428.032 317.506 428.303 317.643C428.574 317.777 428.777 317.96 428.911 318.191C429.046 318.42 429.113 318.679 429.113 318.967C429.113 319.209 429.068 319.414 428.979 319.58C428.89 319.745 428.771 319.878 428.621 319.978C428.474 320.076 428.311 320.148 428.133 320.194V320.251C428.326 320.26 428.514 320.323 428.698 320.438C428.884 320.552 429.037 320.714 429.158 320.924C429.28 321.134 429.34 321.39 429.34 321.691C429.34 321.988 429.27 322.255 429.13 322.492C428.992 322.727 428.778 322.914 428.488 323.052C428.198 323.188 427.828 323.256 427.377 323.256H425.147ZM426.025 322.504H427.292C427.712 322.504 428.013 322.422 428.195 322.259C428.377 322.096 428.468 321.893 428.468 321.648C428.468 321.465 428.422 321.296 428.329 321.143C428.236 320.989 428.103 320.867 427.931 320.776C427.761 320.685 427.558 320.64 427.323 320.64H426.025V322.504ZM426.025 319.955H427.201C427.398 319.955 427.575 319.917 427.732 319.842C427.891 319.766 428.017 319.66 428.11 319.523C428.205 319.385 428.252 319.222 428.252 319.035C428.252 318.794 428.168 318.593 427.999 318.43C427.831 318.267 427.572 318.185 427.224 318.185H426.025V319.955Z" fill="#111011"/>
<path d="M454.639 317.438H455.705L457.557 321.961H457.625L459.477 317.438H460.543V323.256H459.707V319.046H459.653L457.938 323.248H457.244L455.528 319.043H455.474V323.256H454.639V317.438ZM462.31 323.256H461.379L463.472 317.438H464.487L466.58 323.256H465.648L464.004 318.495H463.958L462.31 323.256ZM462.467 320.978H465.489V321.717H462.467V320.978ZM467.42 323.256V317.438H469.494C469.945 317.438 470.319 317.516 470.616 317.671C470.916 317.826 471.139 318.041 471.287 318.316C471.435 318.589 471.509 318.904 471.509 319.262C471.509 319.618 471.434 319.932 471.284 320.202C471.136 320.471 470.913 320.681 470.614 320.83C470.316 320.98 469.942 321.055 469.491 321.055H467.92V320.299H469.412C469.696 320.299 469.927 320.258 470.105 320.177C470.285 320.095 470.417 319.977 470.5 319.822C470.583 319.666 470.625 319.48 470.625 319.262C470.625 319.042 470.582 318.852 470.497 318.691C470.414 318.53 470.282 318.407 470.102 318.322C469.924 318.235 469.69 318.191 469.401 318.191H468.298V323.256H467.42ZM470.293 320.631L471.73 323.256H470.73L469.321 320.631H470.293Z" fill="#111011"/>
<path d="M497.131 323.256H496.199L498.293 317.438H499.307L501.401 323.256H500.469L498.824 318.495H498.778L497.131 323.256ZM497.287 320.978H500.31V321.717H497.287V320.978ZM502.241 323.256V317.438H504.315C504.767 317.438 505.142 317.521 505.44 317.685C505.737 317.85 505.96 318.075 506.107 318.361C506.255 318.646 506.329 318.966 506.329 319.322C506.329 319.68 506.254 320.002 506.104 320.288C505.957 320.572 505.733 320.797 505.434 320.964C505.137 321.129 504.763 321.211 504.312 321.211H502.886V320.467H504.232C504.518 320.467 504.75 320.417 504.928 320.319C505.106 320.218 505.237 320.082 505.32 319.91C505.404 319.737 505.445 319.541 505.445 319.322C505.445 319.102 505.404 318.907 505.32 318.736C505.237 318.566 505.105 318.432 504.925 318.336C504.747 318.239 504.513 318.191 504.221 318.191H503.119V323.256H502.241ZM507.358 323.256V317.438H509.432C509.883 317.438 510.257 317.516 510.554 317.671C510.853 317.826 511.077 318.041 511.224 318.316C511.372 318.589 511.446 318.904 511.446 319.262C511.446 319.618 511.371 319.932 511.222 320.202C511.074 320.471 510.85 320.681 510.551 320.83C510.254 320.98 509.88 321.055 509.429 321.055H507.858V320.299H509.349C509.634 320.299 509.865 320.258 510.043 320.177C510.223 320.095 510.354 319.977 510.438 319.822C510.521 319.666 510.562 319.48 510.562 319.262C510.562 319.042 510.52 318.852 510.435 318.691C510.351 318.53 510.22 318.407 510.04 318.322C509.862 318.235 509.628 318.191 509.338 318.191H508.236V323.256H507.358ZM510.23 320.631L511.668 323.256H510.668L509.259 320.631H510.23Z" fill="#111011"/>
<path d="M536.639 317.438H537.705L539.557 321.961H539.625L541.477 317.438H542.543V323.256H541.707V319.046H541.653L539.938 323.248H539.244L537.528 319.043H537.474V323.256H536.639V317.438ZM544.31 323.256H543.379L545.472 317.438H546.487L548.58 323.256H547.648L546.004 318.495H545.958L544.31 323.256ZM544.467 320.978H547.489V321.717H544.467V320.978ZM548.378 317.438H549.375L550.895 320.083H550.957L552.477 317.438H553.474L551.364 320.972V323.256H550.489V320.972L548.378 317.438Z" fill="#111011"/>
<path d="M580.901 317.438H581.776V321.563C581.776 321.936 581.702 322.255 581.554 322.521C581.408 322.786 581.203 322.988 580.938 323.129C580.672 323.267 580.362 323.336 580.006 323.336C579.678 323.336 579.384 323.276 579.122 323.157C578.863 323.038 578.657 322.864 578.506 322.637C578.356 322.408 578.281 322.129 578.281 321.802H579.153C579.153 321.963 579.19 322.102 579.264 322.219C579.34 322.337 579.443 322.429 579.574 322.495C579.706 322.559 579.858 322.592 580.028 322.592C580.214 322.592 580.371 322.553 580.5 322.475C580.631 322.396 580.73 322.279 580.798 322.126C580.866 321.972 580.901 321.785 580.901 321.563V317.438ZM586.795 317.438H587.675V321.265C587.675 321.672 587.58 322.033 587.388 322.347C587.197 322.66 586.928 322.906 586.582 323.086C586.235 323.264 585.829 323.353 585.363 323.353C584.899 323.353 584.494 323.264 584.147 323.086C583.8 322.906 583.531 322.66 583.34 322.347C583.149 322.033 583.053 321.672 583.053 321.265V317.438H583.931V321.194C583.931 321.457 583.989 321.691 584.104 321.896C584.222 322.1 584.388 322.261 584.602 322.379C584.816 322.494 585.069 322.552 585.363 322.552C585.658 322.552 585.913 322.494 586.127 322.379C586.343 322.261 586.508 322.1 586.621 321.896C586.737 321.691 586.795 321.457 586.795 321.194V317.438ZM593.648 317.438V323.256H592.841L589.884 318.989H589.83V323.256H588.952V317.438H589.764L592.724 321.711H592.778V317.438H593.648Z" fill="#111011"/>
<path d="M621.901 317.438H622.776V321.563C622.776 321.936 622.702 322.255 622.554 322.521C622.408 322.786 622.203 322.988 621.938 323.129C621.672 323.267 621.362 323.336 621.006 323.336C620.678 323.336 620.384 323.276 620.122 323.157C619.863 323.038 619.657 322.864 619.506 322.637C619.356 322.408 619.281 322.129 619.281 321.802H620.153C620.153 321.963 620.19 322.102 620.264 322.219C620.34 322.337 620.443 322.429 620.574 322.495C620.706 322.559 620.858 322.592 621.028 322.592C621.214 322.592 621.371 322.553 621.5 322.475C621.631 322.396 621.73 322.279 621.798 322.126C621.866 321.972 621.901 321.785 621.901 321.563V317.438ZM627.795 317.438H628.675V321.265C628.675 321.672 628.58 322.033 628.388 322.347C628.197 322.66 627.928 322.906 627.582 323.086C627.235 323.264 626.829 323.353 626.363 323.353C625.899 323.353 625.494 323.264 625.147 323.086C624.8 322.906 624.531 322.66 624.34 322.347C624.149 322.033 624.053 321.672 624.053 321.265V317.438H624.931V321.194C624.931 321.457 624.989 321.691 625.104 321.896C625.222 322.1 625.388 322.261 625.602 322.379C625.816 322.494 626.069 322.552 626.363 322.552C626.658 322.552 626.913 322.494 627.127 322.379C627.343 322.261 627.508 322.1 627.621 321.896C627.737 321.691 627.795 321.457 627.795 321.194V317.438ZM629.952 323.256V317.438H630.83V322.501H633.466V323.256H629.952Z" fill="#111011"/>
<rect x="375" y="337.256" width="147" height="10" rx="5" fill="#EBF6FF"/>
</g>
<defs>
<clipPath id="clip0_678_2688">
<rect width="284.54" height="354" fill="white" transform="translate(366.46 17.1196)"/>
</clipPath>
</defs>
</svg>
