<svg width="398" height="305" viewBox="0 0 398 305" fill="none" xmlns="http://www.w3.org/2000/svg">
<rect y="0.979492" width="398" height="132" rx="16" fill="#015FA2"/>
<path d="M19.262 51.4795V42.7155H16.168V41.5395H23.56V42.7155H20.466V51.4795H19.262ZM26.6215 51.6475C25.9402 51.6475 25.3428 51.4888 24.8295 51.1715C24.3162 50.8542 23.9195 50.4062 23.6395 49.8275C23.3595 49.2395 23.2195 48.5535 23.2195 47.7695C23.2195 46.9762 23.3595 46.2902 23.6395 45.7115C23.9195 45.1328 24.3162 44.6848 24.8295 44.3675C25.3428 44.0502 25.9402 43.8915 26.6215 43.8915C27.3028 43.8915 27.8955 44.0502 28.3995 44.3675C28.9128 44.6848 29.3095 45.1328 29.5895 45.7115C29.8695 46.2902 30.0095 46.9762 30.0095 47.7695C30.0095 48.5535 29.8695 49.2395 29.5895 49.8275C29.3095 50.4062 28.9128 50.8542 28.3995 51.1715C27.8955 51.4888 27.3028 51.6475 26.6215 51.6475ZM26.6215 50.5275C27.3028 50.5275 27.8302 50.2848 28.2035 49.7995C28.5862 49.3048 28.7775 48.6282 28.7775 47.7695C28.7775 46.9108 28.5862 46.2388 28.2035 45.7535C27.8302 45.2588 27.3028 45.0115 26.6215 45.0115C25.9402 45.0115 25.4082 45.2588 25.0255 45.7535C24.6428 46.2388 24.4515 46.9108 24.4515 47.7695C24.4515 48.6282 24.6428 49.3048 25.0255 49.7995C25.4082 50.2848 25.9402 50.5275 26.6215 50.5275ZM34.0411 51.4795C33.3691 51.4795 32.8697 51.3255 32.5431 51.0175C32.2257 50.7095 32.0671 50.2288 32.0671 49.5755V42.3235H33.2431V49.5475C33.2431 49.8835 33.3177 50.1168 33.4671 50.2475C33.6164 50.3782 33.8451 50.4435 34.1531 50.4435H35.2171V51.4795H34.0411ZM30.9751 45.0955V44.0595H35.2171V45.0955H30.9751ZM38.6728 51.6475C37.9074 51.6475 37.2961 51.4702 36.8388 51.1155C36.3908 50.7608 36.1668 50.2662 36.1668 49.6315C36.1668 48.9968 36.3534 48.4975 36.7268 48.1335C37.1001 47.7695 37.6928 47.5128 38.5048 47.3635L41.1368 46.8735C41.1368 46.2482 40.9874 45.7815 40.6888 45.4735C40.3994 45.1655 39.9608 45.0115 39.3728 45.0115C38.8594 45.0115 38.4534 45.1282 38.1548 45.3615C37.8561 45.5855 37.6508 45.9122 37.5388 46.3415L36.2928 46.2435C36.4328 45.5435 36.7688 44.9788 37.3008 44.5495C37.8421 44.1108 38.5328 43.8915 39.3728 43.8915C40.3248 43.8915 41.0528 44.1622 41.5568 44.7035C42.0608 45.2355 42.3128 45.9728 42.3128 46.9155V49.9815C42.3128 50.1495 42.3408 50.2708 42.3968 50.3455C42.4621 50.4108 42.5648 50.4435 42.7048 50.4435H42.9988V51.4795C42.9614 51.4888 42.9008 51.4935 42.8168 51.4935C42.7328 51.5028 42.6441 51.5075 42.5508 51.5075C42.2148 51.5075 41.9394 51.4562 41.7248 51.3535C41.5194 51.2415 41.3701 51.0735 41.2768 50.8495C41.1834 50.6162 41.1368 50.3128 41.1368 49.9395L41.2768 49.9675C41.2114 50.2848 41.0528 50.5742 40.8008 50.8355C40.5488 51.0875 40.2361 51.2882 39.8628 51.4375C39.4894 51.5775 39.0928 51.6475 38.6728 51.6475ZM38.7848 50.6115C39.2794 50.6115 39.6994 50.5182 40.0448 50.3315C40.3994 50.1355 40.6701 49.8742 40.8568 49.5475C41.0434 49.2115 41.1368 48.8382 41.1368 48.4275V47.8955L38.7288 48.3435C38.2248 48.4368 37.8748 48.5815 37.6788 48.7775C37.4921 48.9642 37.3988 49.2115 37.3988 49.5195C37.3988 49.8648 37.5201 50.1355 37.7628 50.3315C38.0148 50.5182 38.3554 50.6115 38.7848 50.6115ZM45.701 51.4795C45.2717 51.4795 44.9217 51.3675 44.651 51.1435C44.3803 50.9195 44.245 50.5648 44.245 50.0795V41.5395H45.421V49.9815C45.421 50.1308 45.4583 50.2475 45.533 50.3315C45.617 50.4062 45.7337 50.4435 45.883 50.4435H46.527V51.4795H45.701ZM51.6454 51.4795V41.5395H57.8894V42.7155H52.8494V45.9215H57.7214V47.0695H52.8494V50.3035H58.0014V51.4795H51.6454ZM61.8056 51.6475C61.0403 51.6475 60.4289 51.4702 59.9716 51.1155C59.5236 50.7608 59.2996 50.2662 59.2996 49.6315C59.2996 48.9968 59.4863 48.4975 59.8596 48.1335C60.2329 47.7695 60.8256 47.5128 61.6376 47.3635L64.2696 46.8735C64.2696 46.2482 64.1203 45.7815 63.8216 45.4735C63.5323 45.1655 63.0936 45.0115 62.5056 45.0115C61.9923 45.0115 61.5863 45.1282 61.2876 45.3615C60.9889 45.5855 60.7836 45.9122 60.6716 46.3415L59.4256 46.2435C59.5656 45.5435 59.9016 44.9788 60.4336 44.5495C60.9749 44.1108 61.6656 43.8915 62.5056 43.8915C63.4576 43.8915 64.1856 44.1622 64.6896 44.7035C65.1936 45.2355 65.4456 45.9728 65.4456 46.9155V49.9815C65.4456 50.1495 65.4736 50.2708 65.5296 50.3455C65.5949 50.4108 65.6976 50.4435 65.8376 50.4435H66.1316V51.4795C66.0943 51.4888 66.0336 51.4935 65.9496 51.4935C65.8656 51.5028 65.7769 51.5075 65.6836 51.5075C65.3476 51.5075 65.0723 51.4562 64.8576 51.3535C64.6523 51.2415 64.5029 51.0735 64.4096 50.8495C64.3163 50.6162 64.2696 50.3128 64.2696 49.9395L64.4096 49.9675C64.3443 50.2848 64.1856 50.5742 63.9336 50.8355C63.6816 51.0875 63.3689 51.2882 62.9956 51.4375C62.6223 51.5775 62.2256 51.6475 61.8056 51.6475ZM61.9176 50.6115C62.4123 50.6115 62.8323 50.5182 63.1776 50.3315C63.5323 50.1355 63.8029 49.8742 63.9896 49.5475C64.1763 49.2115 64.2696 48.8382 64.2696 48.4275V47.8955L61.8616 48.3435C61.3576 48.4368 61.0076 48.5815 60.8116 48.7775C60.6249 48.9642 60.5316 49.2115 60.5316 49.5195C60.5316 49.8648 60.6529 50.1355 60.8956 50.3315C61.1476 50.5182 61.4883 50.6115 61.9176 50.6115ZM67.4598 51.4795V44.0595H68.4958L68.5518 45.9355L68.4398 45.8935C68.5332 45.2588 68.7338 44.7968 69.0418 44.5075C69.3592 44.2088 69.7792 44.0595 70.3018 44.0595H71.0298V45.1795H70.3158C69.9425 45.1795 69.6298 45.2495 69.3778 45.3895C69.1352 45.5202 68.9485 45.7208 68.8178 45.9915C68.6965 46.2528 68.6358 46.5888 68.6358 46.9995V51.4795H67.4598ZM72.204 51.4795V44.0595H73.282L73.324 45.9495L73.184 45.8235C73.2773 45.3848 73.4407 45.0255 73.674 44.7455C73.9073 44.4562 74.1873 44.2415 74.514 44.1015C74.85 43.9615 75.2093 43.8915 75.592 43.8915C76.1613 43.8915 76.628 44.0175 76.992 44.2695C77.3653 44.5215 77.6407 44.8622 77.818 45.2915C78.0047 45.7115 78.098 46.1828 78.098 46.7055V51.4795H76.922V47.0415C76.922 46.5842 76.866 46.2015 76.754 45.8935C76.6513 45.5762 76.4833 45.3382 76.25 45.1795C76.0167 45.0115 75.7133 44.9275 75.34 44.9275C74.7707 44.9275 74.2993 45.1095 73.926 45.4735C73.562 45.8282 73.38 46.3508 73.38 47.0415V51.4795H72.204ZM80.202 51.4795V44.0595H81.378V51.4795H80.202ZM80.174 42.8975V41.5255H81.406V42.8975H80.174ZM83.7567 51.4795V44.0595H84.8347L84.8767 45.9495L84.7367 45.8235C84.8301 45.3848 84.9934 45.0255 85.2267 44.7455C85.4601 44.4562 85.7401 44.2415 86.0667 44.1015C86.4027 43.9615 86.7621 43.8915 87.1447 43.8915C87.7141 43.8915 88.1807 44.0175 88.5447 44.2695C88.9181 44.5215 89.1934 44.8622 89.3707 45.2915C89.5574 45.7115 89.6507 46.1828 89.6507 46.7055V51.4795H88.4747V47.0415C88.4747 46.5842 88.4187 46.2015 88.3067 45.8935C88.2041 45.5762 88.0361 45.3382 87.8027 45.1795C87.5694 45.0115 87.2661 44.9275 86.8927 44.9275C86.3234 44.9275 85.8521 45.1095 85.4787 45.4735C85.1147 45.8282 84.9327 46.3508 84.9327 47.0415V51.4795H83.7567ZM94.5414 53.7475C94.0094 53.7475 93.5288 53.6588 93.0994 53.4815C92.6701 53.3042 92.3108 53.0522 92.0214 52.7255C91.7321 52.3988 91.5361 52.0208 91.4334 51.5915L92.6654 51.5075C92.7774 51.8528 92.9734 52.1235 93.2534 52.3195C93.5428 52.5248 93.9721 52.6275 94.5414 52.6275C95.2134 52.6275 95.7268 52.4922 96.0814 52.2215C96.4454 51.9508 96.6274 51.5448 96.6274 51.0035V49.7995C96.4501 50.1915 96.1654 50.5042 95.7734 50.7375C95.3814 50.9708 94.9428 51.0875 94.4574 51.0875C93.8321 51.0875 93.2721 50.9335 92.7774 50.6255C92.2921 50.3175 91.9094 49.8928 91.6294 49.3515C91.3588 48.8102 91.2234 48.1895 91.2234 47.4895C91.2234 46.7802 91.3588 46.1595 91.6294 45.6275C91.9001 45.0862 92.2734 44.6615 92.7494 44.3535C93.2348 44.0455 93.7854 43.8915 94.4014 43.8915C94.9241 43.8915 95.3908 44.0128 95.8014 44.2555C96.2214 44.4982 96.5154 44.8248 96.6834 45.2355V44.0595H97.8034V50.9755C97.8034 51.5542 97.6728 52.0488 97.4114 52.4595C97.1501 52.8795 96.7768 53.1968 96.2914 53.4115C95.8061 53.6355 95.2228 53.7475 94.5414 53.7475ZM94.5134 49.9675C95.1481 49.9675 95.6568 49.7482 96.0394 49.3095C96.4221 48.8615 96.6181 48.2548 96.6274 47.4895C96.6368 46.9762 96.5528 46.5375 96.3754 46.1735C96.2074 45.8002 95.9601 45.5155 95.6334 45.3195C95.3161 45.1142 94.9428 45.0115 94.5134 45.0115C93.8601 45.0115 93.3514 45.2355 92.9874 45.6835C92.6328 46.1222 92.4554 46.7242 92.4554 47.4895C92.4554 48.2548 92.6374 48.8615 93.0014 49.3095C93.3748 49.7482 93.8788 49.9675 94.5134 49.9675ZM102.605 51.6475C101.943 51.6475 101.378 51.5402 100.911 51.3255C100.454 51.1108 100.095 50.8168 99.8332 50.4435C99.5812 50.0608 99.4365 49.6268 99.3992 49.1415L100.631 49.0575C100.706 49.5055 100.897 49.8648 101.205 50.1355C101.513 50.3968 101.98 50.5275 102.605 50.5275C103.109 50.5275 103.511 50.4482 103.809 50.2895C104.117 50.1215 104.271 49.8555 104.271 49.4915C104.271 49.2955 104.225 49.1322 104.131 49.0015C104.038 48.8708 103.856 48.7588 103.585 48.6655C103.315 48.5628 102.913 48.4648 102.381 48.3715C101.672 48.2408 101.112 48.0822 100.701 47.8955C100.3 47.6995 100.011 47.4615 99.8332 47.1815C99.6652 46.8922 99.5812 46.5515 99.5812 46.1595C99.5812 45.4968 99.8239 44.9555 100.309 44.5355C100.795 44.1062 101.485 43.8915 102.381 43.8915C102.988 43.8915 103.497 44.0035 103.907 44.2275C104.327 44.4422 104.654 44.7315 104.887 45.0955C105.13 45.4502 105.289 45.8422 105.363 46.2715L104.131 46.3555C104.075 46.0942 103.973 45.8655 103.823 45.6695C103.674 45.4642 103.478 45.3055 103.235 45.1935C102.993 45.0722 102.703 45.0115 102.367 45.0115C101.835 45.0115 101.443 45.1142 101.191 45.3195C100.939 45.5248 100.813 45.7862 100.813 46.1035C100.813 46.3462 100.869 46.5468 100.981 46.7055C101.103 46.8548 101.294 46.9808 101.555 47.0835C101.817 47.1768 102.167 47.2608 102.605 47.3355C103.361 47.4662 103.949 47.6248 104.369 47.8115C104.789 47.9982 105.083 48.2268 105.251 48.4975C105.419 48.7682 105.503 49.0995 105.503 49.4915C105.503 49.9488 105.373 50.3408 105.111 50.6675C104.859 50.9848 104.514 51.2275 104.075 51.3955C103.646 51.5635 103.156 51.6475 102.605 51.6475Z" fill="white"/>
<path d="M23.08 93.6395V72.2795H24.952V93.6395H23.08ZM24.208 91.7915C22.832 91.7915 21.64 91.5515 20.632 91.0715C19.624 90.5755 18.832 89.8955 18.256 89.0315C17.696 88.1515 17.368 87.1275 17.272 85.9595L20.368 85.7915C20.464 86.5115 20.672 87.1195 20.992 87.6155C21.312 88.1115 21.744 88.4955 22.288 88.7675C22.832 89.0235 23.488 89.1515 24.256 89.1515C24.912 89.1515 25.472 89.0715 25.936 88.9115C26.4 88.7355 26.752 88.4875 26.992 88.1675C27.248 87.8475 27.376 87.4555 27.376 86.9915C27.376 86.5435 27.272 86.1595 27.064 85.8395C26.856 85.5035 26.456 85.1995 25.864 84.9275C25.288 84.6555 24.432 84.3915 23.296 84.1355C21.92 83.7995 20.808 83.4315 19.96 83.0315C19.128 82.6315 18.528 82.1355 18.16 81.5435C17.792 80.9355 17.608 80.1755 17.608 79.2635C17.608 78.2875 17.848 77.4315 18.328 76.6955C18.808 75.9435 19.496 75.3675 20.392 74.9675C21.288 74.5515 22.368 74.3435 23.632 74.3435C24.96 74.3435 26.088 74.5835 27.016 75.0635C27.944 75.5275 28.672 76.1755 29.2 77.0075C29.744 77.8395 30.072 78.7915 30.184 79.8635L27.088 80.0315C27.024 79.4235 26.848 78.8875 26.56 78.4235C26.272 77.9595 25.88 77.5995 25.384 77.3435C24.888 77.0875 24.288 76.9595 23.584 76.9595C22.688 76.9595 21.984 77.1675 21.472 77.5835C20.976 77.9835 20.728 78.5115 20.728 79.1675C20.728 79.6155 20.832 79.9915 21.04 80.2955C21.264 80.5835 21.648 80.8395 22.192 81.0635C22.736 81.2715 23.504 81.4875 24.496 81.7115C25.984 82.0475 27.16 82.4555 28.024 82.9355C28.904 83.3995 29.528 83.9595 29.896 84.6155C30.28 85.2555 30.472 85.9915 30.472 86.8235C30.472 87.8315 30.208 88.7115 29.68 89.4635C29.168 90.1995 28.44 90.7755 27.496 91.1915C26.568 91.5915 25.472 91.7915 24.208 91.7915ZM39.334 91.8635C37.302 91.8635 35.734 91.3995 34.63 90.4715C33.526 89.5275 32.934 88.2635 32.854 86.6795L36.046 86.5355C36.142 87.4475 36.478 88.1115 37.054 88.5275C37.646 88.9435 38.406 89.1515 39.334 89.1515C39.958 89.1515 40.526 89.0635 41.038 88.8875C41.55 88.6955 41.958 88.4075 42.262 88.0235C42.566 87.6395 42.718 87.1435 42.718 86.5355C42.718 85.6075 42.406 84.9195 41.782 84.4715C41.158 84.0235 40.326 83.7995 39.286 83.7995H37.798V81.3275H39.286C40.102 81.3275 40.782 81.1595 41.326 80.8235C41.886 80.4715 42.166 79.8875 42.166 79.0715C42.166 78.3355 41.934 77.7675 41.47 77.3675C41.022 76.9675 40.318 76.7675 39.358 76.7675C38.414 76.7675 37.702 76.9595 37.222 77.3435C36.742 77.7275 36.454 78.2315 36.358 78.8555L33.166 78.6875C33.342 77.2795 33.958 76.1595 35.014 75.3275C36.086 74.4795 37.534 74.0555 39.358 74.0555C40.638 74.0555 41.726 74.2475 42.622 74.6315C43.518 75.0155 44.198 75.5595 44.662 76.2635C45.142 76.9675 45.382 77.8075 45.382 78.7835C45.382 79.8075 45.046 80.6475 44.374 81.3035C43.702 81.9595 42.742 82.3995 41.494 82.6235V82.2155C42.886 82.4075 43.974 82.9035 44.758 83.7035C45.542 84.4875 45.934 85.4875 45.934 86.7035C45.934 87.7915 45.662 88.7195 45.118 89.4875C44.574 90.2555 43.806 90.8475 42.814 91.2635C41.822 91.6635 40.662 91.8635 39.334 91.8635ZM54.8553 91.8635C53.5273 91.8635 52.3993 91.6555 51.4713 91.2395C50.5433 90.8235 49.8233 90.2475 49.3113 89.5115C48.7993 88.7595 48.4953 87.8875 48.3993 86.8955L51.5913 86.7275C51.7193 87.5275 52.0713 88.1275 52.6473 88.5275C53.2233 88.9275 53.9593 89.1275 54.8553 89.1275C55.8953 89.1275 56.7033 88.8475 57.2793 88.2875C57.8713 87.7115 58.1673 86.9035 58.1673 85.8635C58.1673 85.2075 58.0313 84.6315 57.7593 84.1355C57.5033 83.6395 57.1273 83.2555 56.6313 82.9835C56.1353 82.7115 55.5353 82.5755 54.8313 82.5755C54.1113 82.5755 53.4793 82.7355 52.9353 83.0555C52.4073 83.3595 52.0233 83.7675 51.7833 84.2795H48.6152L49.7913 74.4395H60.2313V77.1515H52.5033L51.8313 82.5755L51.4233 82.2155C51.6793 81.7675 52.0153 81.3915 52.4313 81.0875C52.8473 80.7675 53.3273 80.5275 53.8713 80.3675C54.4313 80.2075 55.0313 80.1275 55.6713 80.1275C56.8233 80.1275 57.8233 80.3755 58.6713 80.8715C59.5353 81.3675 60.1993 82.0475 60.6633 82.9115C61.1433 83.7755 61.3833 84.7595 61.3833 85.8635C61.3833 87.0635 61.1113 88.1195 60.5673 89.0315C60.0393 89.9275 59.2793 90.6235 58.2873 91.1195C57.3113 91.6155 56.1673 91.8635 54.8553 91.8635ZM63.9333 95.2715L65.1813 91.4795H63.7173V88.1195H67.2213V91.0955L65.6373 95.2715H63.9333ZM69.5879 91.4795C69.5879 90.1035 69.7799 88.9035 70.1639 87.8795C70.5479 86.8395 71.1959 85.8955 72.1079 85.0475C73.0199 84.1835 74.2519 83.3435 75.8039 82.5275C76.5719 82.1115 77.1879 81.7435 77.6519 81.4235C78.1159 81.1035 78.4519 80.7755 78.6599 80.4395C78.8679 80.0875 78.9719 79.6715 78.9719 79.1915C78.9719 78.7115 78.8679 78.2955 78.6599 77.9435C78.4519 77.5755 78.1399 77.2875 77.7239 77.0795C77.3239 76.8715 76.8199 76.7675 76.2119 76.7675C75.2359 76.7675 74.4599 77.0475 73.8839 77.6075C73.3239 78.1515 72.9799 78.9355 72.8519 79.9595L69.6359 79.7675C69.7959 77.9915 70.4439 76.5995 71.5799 75.5915C72.7319 74.5675 74.2759 74.0555 76.2119 74.0555C77.4599 74.0555 78.5319 74.2715 79.4279 74.7035C80.3239 75.1195 81.0039 75.7115 81.4679 76.4795C81.9479 77.2475 82.1879 78.1355 82.1879 79.1435C82.1879 80.0075 82.0359 80.7515 81.7319 81.3755C81.4439 81.9995 80.9639 82.5755 80.2919 83.1035C79.6359 83.6155 78.7479 84.1675 77.6279 84.7595C76.2199 85.5115 75.1639 86.2395 74.4599 86.9435C73.7559 87.6315 73.3799 88.2395 73.3319 88.7675H82.1879V91.4795H69.5879ZM90.6387 91.8635C88.6067 91.8635 87.0387 91.3995 85.9347 90.4715C84.8307 89.5275 84.2387 88.2635 84.1587 86.6795L87.3507 86.5355C87.4467 87.4475 87.7827 88.1115 88.3587 88.5275C88.9507 88.9435 89.7107 89.1515 90.6387 89.1515C91.2627 89.1515 91.8307 89.0635 92.3427 88.8875C92.8547 88.6955 93.2627 88.4075 93.5667 88.0235C93.8707 87.6395 94.0227 87.1435 94.0227 86.5355C94.0227 85.6075 93.7107 84.9195 93.0867 84.4715C92.4627 84.0235 91.6307 83.7995 90.5907 83.7995H89.1027V81.3275H90.5907C91.4067 81.3275 92.0867 81.1595 92.6307 80.8235C93.1907 80.4715 93.4707 79.8875 93.4707 79.0715C93.4707 78.3355 93.2387 77.7675 92.7747 77.3675C92.3267 76.9675 91.6227 76.7675 90.6627 76.7675C89.7187 76.7675 89.0067 76.9595 88.5267 77.3435C88.0467 77.7275 87.7587 78.2315 87.6627 78.8555L84.4707 78.6875C84.6467 77.2795 85.2627 76.1595 86.3187 75.3275C87.3907 74.4795 88.8387 74.0555 90.6627 74.0555C91.9427 74.0555 93.0307 74.2475 93.9267 74.6315C94.8227 75.0155 95.5027 75.5595 95.9667 76.2635C96.4467 76.9675 96.6867 77.8075 96.6867 78.7835C96.6867 79.8075 96.3507 80.6475 95.6787 81.3035C95.0067 81.9595 94.0467 82.3995 92.7987 82.6235V82.2155C94.1907 82.4075 95.2787 82.9035 96.0627 83.7035C96.8467 84.4875 97.2387 85.4875 97.2387 86.7035C97.2387 87.7915 96.9667 88.7195 96.4227 89.4875C95.8787 90.2555 95.1107 90.8475 94.1187 91.2635C93.1267 91.6635 91.9667 91.8635 90.6387 91.8635ZM106.568 91.8635C105.128 91.8635 103.872 91.5035 102.8 90.7835C101.744 90.0635 100.928 89.0395 100.352 87.7115C99.7759 86.3835 99.4879 84.8075 99.4879 82.9835C99.4879 81.1595 99.7759 79.5835 100.352 78.2555C100.928 76.9115 101.744 75.8795 102.8 75.1595C103.872 74.4235 105.128 74.0555 106.568 74.0555C108.04 74.0555 109.304 74.4235 110.36 75.1595C111.416 75.8795 112.232 76.9035 112.808 78.2315C113.384 79.5595 113.672 81.1435 113.672 82.9835C113.672 84.8075 113.384 86.3835 112.808 87.7115C112.232 89.0395 111.416 90.0635 110.36 90.7835C109.304 91.5035 108.04 91.8635 106.568 91.8635ZM106.568 89.1515C107.816 89.1515 108.776 88.6315 109.448 87.5915C110.12 86.5355 110.456 84.9995 110.456 82.9835C110.456 81.6395 110.304 80.5035 110 79.5755C109.696 78.6475 109.256 77.9515 108.68 77.4875C108.12 77.0075 107.416 76.7675 106.568 76.7675C105.752 76.7675 105.056 77.0075 104.48 77.4875C103.904 77.9515 103.464 78.6475 103.16 79.5755C102.856 80.5035 102.704 81.6395 102.704 82.9835C102.704 84.9995 103.04 86.5355 103.712 87.5915C104.384 88.6315 105.336 89.1515 106.568 89.1515Z" fill="white"/>
<path d="M331.37 20.9795C357.17 20.9795 378 41.6215 378 66.9795C378 92.3375 357.17 112.979 331.37 112.979C305.57 112.979 284.74 92.3375 284.74 66.9795C284.74 41.6215 305.57 20.9795 331.37 20.9795Z" stroke="#EBF6FF" stroke-width="8"/>
<mask id="path-5-inside-1_1059_8025" fill="white">
<path d="M294.371 94.8613C292.582 96.2096 292.228 98.7722 293.737 100.428C298.566 105.727 304.498 109.956 311.145 112.817C319.047 116.217 327.698 117.569 336.278 116.744C344.857 115.919 353.081 112.944 360.171 108.102C367.261 103.259 372.981 96.709 376.79 89.0722C380.598 81.4354 382.37 72.9646 381.936 64.4624C381.502 55.9603 378.877 47.7084 374.31 40.4885C369.743 33.2686 363.385 27.3198 355.838 23.2058C349.458 19.7281 342.408 17.6589 335.173 17.1207C332.975 16.9572 331.192 18.7666 331.2 20.9706C331.208 23.1744 333.005 24.9351 335.2 25.131C341.058 25.6539 346.758 27.372 351.932 30.1929C358.274 33.6502 363.618 38.6495 367.456 44.7169C371.294 50.7844 373.5 57.7192 373.865 64.8642C374.229 72.0093 372.741 79.1279 369.54 85.5458C366.339 91.9636 361.532 97.4681 355.574 101.538C349.616 105.607 342.704 108.107 335.494 108.801C328.284 109.494 321.014 108.358 314.373 105.5C308.958 103.17 304.108 99.7582 300.119 95.495C298.615 93.8868 296.13 93.5358 294.371 94.8613Z"/>
</mask>
<path d="M294.371 94.8613C292.582 96.2096 292.228 98.7722 293.737 100.428C298.566 105.727 304.498 109.956 311.145 112.817C319.047 116.217 327.698 117.569 336.278 116.744C344.857 115.919 353.081 112.944 360.171 108.102C367.261 103.259 372.981 96.709 376.79 89.0722C380.598 81.4354 382.37 72.9646 381.936 64.4624C381.502 55.9603 378.877 47.7084 374.31 40.4885C369.743 33.2686 363.385 27.3198 355.838 23.2058C349.458 19.7281 342.408 17.6589 335.173 17.1207C332.975 16.9572 331.192 18.7666 331.2 20.9706C331.208 23.1744 333.005 24.9351 335.2 25.131C341.058 25.6539 346.758 27.372 351.932 30.1929C358.274 33.6502 363.618 38.6495 367.456 44.7169C371.294 50.7844 373.5 57.7192 373.865 64.8642C374.229 72.0093 372.741 79.1279 369.54 85.5458C366.339 91.9636 361.532 97.4681 355.574 101.538C349.616 105.607 342.704 108.107 335.494 108.801C328.284 109.494 321.014 108.358 314.373 105.5C308.958 103.17 304.108 99.7582 300.119 95.495C298.615 93.8868 296.13 93.5358 294.371 94.8613Z" stroke="#15B763" stroke-width="12" stroke-linejoin="bevel" mask="url(#path-5-inside-1_1059_8025)"/>
<path d="M319.781 72.1386C318.966 72.1386 318.247 71.9984 317.622 71.7181C317 71.4378 316.514 71.0515 316.161 70.559C315.809 70.0666 315.635 69.506 315.639 68.8772C315.635 68.3848 315.735 67.9321 315.94 67.5193C316.148 67.1026 316.43 66.756 316.786 66.4795C317.142 66.1992 317.54 66.0212 317.98 65.9454V65.8772C317.4 65.7371 316.936 65.4265 316.588 64.9454C316.239 64.4643 316.067 63.9113 316.07 63.2863C316.067 62.6916 316.224 62.1613 316.542 61.6954C316.864 61.2257 317.305 60.8564 317.866 60.5874C318.427 60.3185 319.065 60.184 319.781 60.184C320.489 60.184 321.122 60.3204 321.678 60.5931C322.239 60.8621 322.68 61.2314 323.002 61.7011C323.324 62.167 323.487 62.6954 323.491 63.2863C323.487 63.9113 323.309 64.4643 322.957 64.9454C322.605 65.4265 322.146 65.7371 321.582 65.8772V65.9454C322.017 66.0212 322.409 66.1992 322.758 66.4795C323.11 66.756 323.391 67.1026 323.599 67.5193C323.811 67.9321 323.919 68.3848 323.923 68.8772C323.919 69.506 323.741 70.0666 323.389 70.559C323.036 71.0515 322.548 71.4378 321.923 71.7181C321.302 71.9984 320.588 72.1386 319.781 72.1386ZM319.781 70.7011C320.262 70.7011 320.678 70.6215 321.031 70.4624C321.383 70.2996 321.656 70.0742 321.849 69.7863C322.042 69.4946 322.141 69.1537 322.144 68.7636C322.141 68.3583 322.034 68.0003 321.826 67.6897C321.622 67.3791 321.343 67.1348 320.991 66.9568C320.639 66.7787 320.235 66.6897 319.781 66.6897C319.322 66.6897 318.915 66.7787 318.559 66.9568C318.203 67.1348 317.923 67.3791 317.718 67.6897C317.514 68.0003 317.413 68.3583 317.417 68.7636C317.413 69.1537 317.506 69.4946 317.695 69.7863C317.889 70.0742 318.163 70.2996 318.519 70.4624C318.875 70.6215 319.296 70.7011 319.781 70.7011ZM319.781 65.2863C320.167 65.2863 320.51 65.2087 320.809 65.0534C321.108 64.8981 321.343 64.6821 321.514 64.4056C321.688 64.1291 321.777 63.8052 321.781 63.434C321.777 63.0704 321.69 62.7522 321.519 62.4795C321.353 62.2068 321.12 61.9965 320.82 61.8488C320.521 61.6973 320.175 61.6215 319.781 61.6215C319.379 61.6215 319.027 61.6973 318.724 61.8488C318.425 61.9965 318.192 62.2068 318.025 62.4795C317.858 62.7522 317.777 63.0704 317.781 63.434C317.777 63.8052 317.86 64.1291 318.031 64.4056C318.201 64.6821 318.436 64.8981 318.735 65.0534C319.038 65.2087 319.387 65.2863 319.781 65.2863ZM329.799 72.1386C329.087 72.1386 328.447 72.0022 327.879 71.7295C327.314 71.453 326.864 71.0742 326.526 70.5931C326.189 70.1121 326.009 69.5628 325.987 68.9454H327.691C327.733 69.4454 327.954 69.8564 328.356 70.1784C328.757 70.5003 329.239 70.6613 329.799 70.6613C330.246 70.6613 330.642 70.559 330.987 70.3545C331.335 70.1462 331.608 69.8602 331.805 69.4965C332.006 69.1329 332.106 68.7181 332.106 68.2522C332.106 67.7787 332.004 67.3564 331.799 66.9852C331.595 66.614 331.312 66.3223 330.953 66.1102C330.597 65.8981 330.187 65.7901 329.725 65.7863C329.373 65.7863 329.019 65.8469 328.663 65.9681C328.307 66.0893 328.019 66.2484 327.799 66.4454L326.191 66.2068L326.845 60.3431H333.242V61.8488H328.305L327.936 65.1045H328.004C328.231 64.8848 328.532 64.7011 328.907 64.5534C329.286 64.4056 329.691 64.3318 330.123 64.3318C330.831 64.3318 331.462 64.5003 332.015 64.8374C332.572 65.1746 333.009 65.6348 333.328 66.2181C333.65 66.7977 333.809 67.4643 333.805 68.2181C333.809 68.9719 333.638 69.6443 333.293 70.2352C332.953 70.8261 332.479 71.292 331.873 71.6329C331.271 71.97 330.579 72.1386 329.799 72.1386ZM341.954 69.7977V69.184C341.954 68.7446 342.045 68.3431 342.227 67.9795C342.412 67.6121 342.681 67.3185 343.034 67.0988C343.39 66.8753 343.82 66.7636 344.323 66.7636C344.838 66.7636 345.27 66.8734 345.619 67.0931C345.967 67.3128 346.231 67.6064 346.409 67.9738C346.59 68.3412 346.681 68.7446 346.681 69.184V69.7977C346.681 70.2371 346.59 70.6405 346.409 71.0079C346.227 71.3715 345.96 71.6651 345.607 71.8886C345.259 72.1083 344.831 72.2181 344.323 72.2181C343.812 72.2181 343.38 72.1083 343.028 71.8886C342.676 71.6651 342.409 71.3715 342.227 71.0079C342.045 70.6405 341.954 70.2371 341.954 69.7977ZM343.278 69.184V69.7977C343.278 70.1234 343.356 70.4189 343.511 70.684C343.666 70.9492 343.937 71.0818 344.323 71.0818C344.706 71.0818 344.973 70.9492 345.124 70.684C345.276 70.4189 345.352 70.1234 345.352 69.7977V69.184C345.352 68.8583 345.278 68.5628 345.13 68.2977C344.986 68.0325 344.717 67.8999 344.323 67.8999C343.945 67.8999 343.676 68.0325 343.516 68.2977C343.357 68.5628 343.278 68.8583 343.278 69.184ZM336.102 63.1386V62.5249C336.102 62.0856 336.193 61.6821 336.374 61.3147C336.56 60.9473 336.829 60.6537 337.181 60.434C337.537 60.2143 337.967 60.1045 338.471 60.1045C338.986 60.1045 339.418 60.2143 339.766 60.434C340.115 60.6537 340.378 60.9473 340.556 61.3147C340.734 61.6821 340.823 62.0856 340.823 62.5249V63.1386C340.823 63.578 340.732 63.9814 340.551 64.3488C340.373 64.7124 340.107 65.006 339.755 65.2295C339.407 65.4492 338.979 65.559 338.471 65.559C337.956 65.559 337.522 65.4492 337.17 65.2295C336.821 65.006 336.556 64.7124 336.374 64.3488C336.193 63.9814 336.102 63.578 336.102 63.1386ZM337.431 62.5249V63.1386C337.431 63.4643 337.507 63.7598 337.659 64.0249C337.814 64.2901 338.085 64.4227 338.471 64.4227C338.85 64.4227 339.115 64.2901 339.266 64.0249C339.422 63.7598 339.499 63.4643 339.499 63.1386V62.5249C339.499 62.1992 339.426 61.9037 339.278 61.6386C339.13 61.3734 338.861 61.2409 338.471 61.2409C338.092 61.2409 337.823 61.3734 337.664 61.6386C337.509 61.9037 337.431 62.1992 337.431 62.5249ZM336.641 71.9795L344.641 60.3431H345.999L337.999 71.9795H336.641Z" fill="white"/>
<rect y="140.979" width="398" height="164.021" rx="16" fill="#015FA2"/>
<ellipse cx="21.063" cy="161.979" rx="5.06299" ry="5" fill="#C92C2C"/>
<ellipse cx="38.7835" cy="161.979" rx="5.06299" ry="5" fill="#822BB8"/>
<ellipse cx="56.5039" cy="161.979" rx="5.06299" ry="5" fill="#1ADB77"/>
<path d="M17.12 201.979V192.039H19.57L22.314 199.739L25.058 192.039H27.508V201.979H25.688V195.119L23.182 201.965H21.446L18.94 195.119V201.979H17.12ZM32.7241 202.147C31.9868 202.147 31.3381 201.989 30.7781 201.671C30.2274 201.345 29.7981 200.887 29.4901 200.299C29.1914 199.711 29.0421 199.025 29.0421 198.241C29.0421 197.448 29.1914 196.762 29.4901 196.183C29.7981 195.595 30.2274 195.143 30.7781 194.825C31.3381 194.499 31.9868 194.335 32.7241 194.335C33.4614 194.335 34.1054 194.499 34.6561 194.825C35.2068 195.143 35.6314 195.595 35.9301 196.183C36.2381 196.762 36.3921 197.448 36.3921 198.241C36.3921 199.025 36.2381 199.711 35.9301 200.299C35.6314 200.887 35.2068 201.345 34.6561 201.671C34.1054 201.989 33.4614 202.147 32.7241 202.147ZM32.7241 200.691C33.3028 200.691 33.7461 200.477 34.0541 200.047C34.3714 199.618 34.5301 199.016 34.5301 198.241C34.5301 197.476 34.3714 196.879 34.0541 196.449C33.7461 196.011 33.3028 195.791 32.7241 195.791C32.1454 195.791 31.6974 196.011 31.3801 196.449C31.0628 196.879 30.9041 197.476 30.9041 198.241C30.9041 199.016 31.0628 199.618 31.3801 200.047C31.6974 200.477 32.1454 200.691 32.7241 200.691ZM37.7749 201.979V194.503H39.3989L39.4689 196.603L39.2589 196.519C39.3336 195.997 39.4876 195.577 39.7209 195.259C39.9543 194.942 40.2389 194.709 40.5749 194.559C40.9109 194.41 41.2796 194.335 41.6809 194.335C42.2316 194.335 42.6936 194.457 43.0669 194.699C43.4496 194.942 43.7389 195.278 43.9349 195.707C44.1309 196.127 44.2289 196.617 44.2289 197.177V201.979H42.4369V197.751C42.4369 197.331 42.3949 196.977 42.3109 196.687C42.2269 196.398 42.0869 196.179 41.8909 196.029C41.7043 195.871 41.4523 195.791 41.1349 195.791C40.6589 195.791 40.2763 195.959 39.9869 196.295C39.7069 196.631 39.5669 197.117 39.5669 197.751V201.979H37.7749ZM48.6596 201.979C47.9129 201.979 47.3623 201.807 47.0076 201.461C46.6623 201.116 46.4896 200.575 46.4896 199.837V192.753H48.2816V199.669C48.2816 200.015 48.3563 200.257 48.5056 200.397C48.6549 200.528 48.8883 200.593 49.2056 200.593H50.2556V201.979H48.6596ZM45.3136 195.889V194.503H50.2556V195.889H45.3136ZM51.5698 201.979V192.039H53.3618V196.211H53.1378C53.2125 195.782 53.3618 195.432 53.5858 195.161C53.8098 194.881 54.0852 194.676 54.4118 194.545C54.7385 194.405 55.0978 194.335 55.4898 194.335C56.0405 194.335 56.5025 194.457 56.8758 194.699C57.2585 194.933 57.5432 195.264 57.7298 195.693C57.9258 196.123 58.0238 196.617 58.0238 197.177V201.979H56.2318V197.611C56.2318 197.005 56.1292 196.552 55.9238 196.253C55.7185 195.945 55.3965 195.791 54.9578 195.791C54.4725 195.791 54.0852 195.95 53.7958 196.267C53.5065 196.585 53.3618 197.047 53.3618 197.653V201.979H51.5698ZM61.6333 201.979C61.092 201.979 60.658 201.839 60.3313 201.559C60.0047 201.279 59.8413 200.831 59.8413 200.215V192.039H61.6333V200.033C61.6333 200.22 61.68 200.36 61.7733 200.453C61.876 200.547 62.016 200.593 62.1933 200.593H62.7393V201.979H61.6333ZM64.0921 204.079V202.693H65.0441C65.2867 202.693 65.4641 202.656 65.5761 202.581C65.6974 202.507 65.7907 202.381 65.8561 202.203L66.0661 201.685H65.5481L62.8741 194.503H64.7361L66.6121 200.005L68.4041 194.503H70.2661L67.3401 202.763C67.1721 203.23 66.9341 203.566 66.6261 203.771C66.3274 203.977 65.9074 204.079 65.3661 204.079H64.0921ZM74.993 201.979V192.039H79.151C79.8697 192.039 80.4904 192.161 81.013 192.403C81.5357 192.646 81.9417 192.991 82.231 193.439C82.5204 193.887 82.665 194.415 82.665 195.021C82.665 195.479 82.567 195.885 82.371 196.239C82.175 196.594 81.909 196.879 81.573 197.093C81.2464 197.308 80.8824 197.439 80.481 197.485L80.411 197.345C81.055 197.345 81.5497 197.49 81.895 197.779C82.2497 198.069 82.4504 198.512 82.497 199.109L82.749 201.979H80.901L80.691 199.375C80.663 198.983 80.537 198.694 80.313 198.507C80.089 198.321 79.7157 198.227 79.193 198.227H76.813V201.979H74.993ZM76.813 196.631H79.039C79.5897 196.631 80.019 196.501 80.327 196.239C80.635 195.978 80.789 195.609 80.789 195.133C80.789 194.648 80.6304 194.275 80.313 194.013C80.005 193.752 79.5524 193.621 78.955 193.621H76.813V196.631ZM87.5346 202.147C86.7973 202.147 86.1486 201.989 85.5886 201.671C85.038 201.345 84.6086 200.887 84.3006 200.299C84.002 199.711 83.8526 199.025 83.8526 198.241C83.8526 197.448 84.002 196.762 84.3006 196.183C84.6086 195.595 85.038 195.143 85.5886 194.825C86.1486 194.499 86.7973 194.335 87.5346 194.335C88.272 194.335 88.916 194.499 89.4666 194.825C90.0173 195.143 90.442 195.595 90.7406 196.183C91.0486 196.762 91.2026 197.448 91.2026 198.241C91.2026 199.025 91.0486 199.711 90.7406 200.299C90.442 200.887 90.0173 201.345 89.4666 201.671C88.916 201.989 88.272 202.147 87.5346 202.147ZM87.5346 200.691C88.1133 200.691 88.5566 200.477 88.8646 200.047C89.182 199.618 89.3406 199.016 89.3406 198.241C89.3406 197.476 89.182 196.879 88.8646 196.449C88.5566 196.011 88.1133 195.791 87.5346 195.791C86.956 195.791 86.508 196.011 86.1906 196.449C85.8733 196.879 85.7146 197.476 85.7146 198.241C85.7146 199.016 85.8733 199.618 86.1906 200.047C86.508 200.477 86.956 200.691 87.5346 200.691ZM95.0495 202.147C94.2935 202.147 93.6915 201.9 93.2435 201.405C92.8048 200.901 92.5855 200.206 92.5855 199.319V194.503H94.3775V198.871C94.3775 199.497 94.4801 199.959 94.6855 200.257C94.9001 200.547 95.2221 200.691 95.6515 200.691C96.1368 200.691 96.5101 200.533 96.7715 200.215C97.0421 199.889 97.1775 199.417 97.1775 198.801V194.503H98.9695V201.979H97.3315L97.2895 199.921L97.5135 199.991C97.4015 200.701 97.1355 201.237 96.7155 201.601C96.2955 201.965 95.7401 202.147 95.0495 202.147ZM100.939 201.979V194.503H102.563L102.633 196.603L102.423 196.519C102.498 195.997 102.652 195.577 102.885 195.259C103.118 194.942 103.403 194.709 103.739 194.559C104.075 194.41 104.444 194.335 104.845 194.335C105.396 194.335 105.858 194.457 106.231 194.699C106.614 194.942 106.903 195.278 107.099 195.707C107.295 196.127 107.393 196.617 107.393 197.177V201.979H105.601V197.751C105.601 197.331 105.559 196.977 105.475 196.687C105.391 196.398 105.251 196.179 105.055 196.029C104.868 195.871 104.616 195.791 104.299 195.791C103.823 195.791 103.44 195.959 103.151 196.295C102.871 196.631 102.731 197.117 102.731 197.751V201.979H100.939ZM111.829 202.147C111.195 202.147 110.644 201.989 110.177 201.671C109.72 201.354 109.365 200.901 109.113 200.313C108.861 199.725 108.735 199.035 108.735 198.241C108.735 197.448 108.861 196.757 109.113 196.169C109.365 195.581 109.725 195.129 110.191 194.811C110.658 194.494 111.204 194.335 111.829 194.335C112.352 194.335 112.809 194.443 113.201 194.657C113.603 194.872 113.906 195.175 114.111 195.567V192.039H115.903V201.979H114.195L114.153 200.873C113.948 201.275 113.64 201.587 113.229 201.811C112.819 202.035 112.352 202.147 111.829 202.147ZM112.375 200.691C112.749 200.691 113.061 200.598 113.313 200.411C113.575 200.225 113.771 199.949 113.901 199.585C114.041 199.212 114.111 198.764 114.111 198.241C114.111 197.709 114.041 197.261 113.901 196.897C113.771 196.533 113.575 196.258 113.313 196.071C113.061 195.885 112.749 195.791 112.375 195.791C111.834 195.791 111.4 196.011 111.073 196.449C110.756 196.879 110.597 197.476 110.597 198.241C110.597 198.988 110.756 199.585 111.073 200.033C111.4 200.472 111.834 200.691 112.375 200.691ZM120.083 202.147C119.327 202.147 118.725 201.9 118.277 201.405C117.838 200.901 117.619 200.206 117.619 199.319V194.503H119.411V198.871C119.411 199.497 119.513 199.959 119.719 200.257C119.933 200.547 120.255 200.691 120.685 200.691C121.17 200.691 121.543 200.533 121.805 200.215C122.075 199.889 122.211 199.417 122.211 198.801V194.503H124.003V201.979H122.365L122.323 199.921L122.547 199.991C122.435 200.701 122.169 201.237 121.749 201.601C121.329 201.965 120.773 202.147 120.083 202.147ZM125.972 204.079V194.503H127.694L127.736 196.099L127.554 196.015C127.741 195.465 128.044 195.049 128.464 194.769C128.894 194.48 129.393 194.335 129.962 194.335C130.672 194.335 131.26 194.513 131.726 194.867C132.202 195.222 132.557 195.693 132.79 196.281C133.024 196.869 133.14 197.523 133.14 198.241C133.14 198.96 133.019 199.613 132.776 200.201C132.543 200.789 132.188 201.261 131.712 201.615C131.246 201.97 130.658 202.147 129.948 202.147C129.575 202.147 129.225 202.082 128.898 201.951C128.581 201.821 128.306 201.634 128.072 201.391C127.848 201.149 127.69 200.864 127.596 200.537L127.764 200.397V204.079H125.972ZM129.528 200.691C130.07 200.691 130.494 200.477 130.802 200.047C131.12 199.609 131.278 199.007 131.278 198.241C131.278 197.476 131.12 196.879 130.802 196.449C130.494 196.011 130.07 195.791 129.528 195.791C129.164 195.791 128.852 195.885 128.59 196.071C128.329 196.249 128.124 196.519 127.974 196.883C127.834 197.247 127.764 197.7 127.764 198.241C127.764 198.783 127.834 199.235 127.974 199.599C128.114 199.963 128.315 200.239 128.576 200.425C128.847 200.603 129.164 200.691 129.528 200.691Z" fill="white"/>
<rect x="346.559" y="188.979" width="35.4409" height="20" rx="10" fill="white"/>
<ellipse cx="371.874" cy="198.979" rx="8.10079" ry="8" fill="#0E2B4F"/>
<line x1="16" y1="224.479" x2="382" y2="224.479" stroke="#48B2FE"/>
<rect x="16" y="240.979" width="366" height="8" rx="4" fill="#EBF6FF"/>
<rect x="16" y="261" width="366" height="8" rx="4" fill="#EBF6FF"/>
<rect x="16" y="281" width="241" height="8" rx="4" fill="#EBF6FF"/>
</svg>
